<?xml version="1.0" encoding="UTF-8" standalone="no"?>
<!DOCTYPE svg PUBLIC "-//W3C//DTD SVG 1.1//EN"
 "http://www.w3.org/Graphics/SVG/1.1/DTD/svg11.dtd">
<!-- Generated by graphviz version 2.43.0 (0)
 -->
<!-- Title: src/core/CoreUtils.hpp Pages: 1 -->
<!--zoomable 229 -->
<svg id="main" version="1.1" xmlns="http://www.w3.org/2000/svg" xmlns:xlink="http://www.w3.org/1999/xlink" xml:space="preserve" onload="init(evt)">
<style type="text/css"><![CDATA[
.edge:hover path { stroke: red; }
.edge:hover polygon { stroke: red; fill: red; }
]]></style>
<script type="text/javascript"><![CDATA[
var edges = document.getElementsByTagName('g');
if (edges && edges.length) {
  for (var i=0;i<edges.length;i++) {
    if (edges[i].id.substr(0,4)=='edge') {
      edges[i].setAttribute('class','edge');
    }
  }
}
]]></script>
        <defs>
                <circle id="rim" cx="0" cy="0" r="7"/>
                <circle id="rim2" cx="0" cy="0" r="3.5"/>
                <g id="zoomPlus">
                        <use xlink:href="#rim" fill="#404040">
                                <set attributeName="fill" to="#808080" begin="zoomplus.mouseover" end="zoomplus.mouseout"/>
                        </use>
                        <path d="M-4,0h8M0,-4v8" fill="none" stroke="white" stroke-width="1.5" pointer-events="none"/>
                </g>
                <g id="zoomMin">
                        <use xlink:href="#rim" fill="#404040">
                                <set attributeName="fill" to="#808080" begin="zoomminus.mouseover" end="zoomminus.mouseout"/>
                        </use>
                        <path d="M-4,0h8" fill="none" stroke="white" stroke-width="1.5" pointer-events="none"/>
                </g>
                <g id="dirArrow">
                        <path fill="none" stroke="white" stroke-width="1.5" d="M0,-3.0v7 M-2.5,-0.5L0,-3.0L2.5,-0.5"/>
                </g>
               <g id="resetDef">
                       <use xlink:href="#rim2" fill="#404040">
                               <set attributeName="fill" to="#808080" begin="reset.mouseover" end="reset.mouseout"/>
                       </use>
               </g>
        </defs>

<script type="text/javascript">
var viewWidth = 4618;
var viewHeight = 229;
var sectionId = 'dynsection-1';
</script>
<script xlink:href="../../svgpan.js"/>
<svg id="graph" class="graph">
<g id="viewport">
<title>src/core/CoreUtils.hpp</title>
<polygon fill="white" stroke="transparent" points="-4,4 -4,-225 4614,-225 4614,4 -4,4"/>
<!-- Node1 -->
<g id="node1" class="node">
<title>Node1</title>
<g id="a_node1"><a xlink:title=" ">
<polygon fill="#bfbfbf" stroke="black" points="3084.5,-201.5 3084.5,-220.5 3208.5,-220.5 3208.5,-201.5 3084.5,-201.5"/>
<text text-anchor="middle" x="3146.5" y="-208.5" font-family="Helvetica,sans-Serif" font-size="10.00">src/core/CoreUtils.hpp</text>
</a>
</g>
</g>
<!-- Node2 -->
<g id="node2" class="node">
<title>Node2</title>
<g id="a_node2"><a xlink:href="../../df/db8/kernel_8hpp.html" target="_top" xlink:title=" ">
<polygon fill="white" stroke="black" points="1249,-140 1249,-159 1358,-159 1358,-140 1249,-140"/>
<text text-anchor="middle" x="1303.5" y="-147" font-family="Helvetica,sans-Serif" font-size="10.00">src/core/kernel.hpp</text>
</a>
</g>
</g>
<!-- Node1&#45;&gt;Node2 -->
<g id="edge1" class="edge">
<title>Node1&#45;&gt;Node2</title>
<path fill="none" stroke="midnightblue" d="M3074.03,-207.66C2772.79,-197.93 1622.91,-160.81 1358.11,-152.26"/>
<polygon fill="midnightblue" stroke="midnightblue" points="3074.28,-211.17 3084.39,-207.99 3074.51,-204.17 3074.28,-211.17"/>
</g>
<!-- Node5 -->
<g id="node5" class="node">
<title>Node5</title>
<g id="a_node5"><a xlink:href="../../d4/dd4/CoreUtils_8cpp.html" target="_top" xlink:title=" ">
<polygon fill="white" stroke="black" points="0,-73 0,-92 123,-92 123,-73 0,-73"/>
<text text-anchor="middle" x="61.5" y="-80" font-family="Helvetica,sans-Serif" font-size="10.00">src/core/CoreUtils.cpp</text>
</a>
</g>
</g>
<!-- Node1&#45;&gt;Node5 -->
<g id="edge21" class="edge">
<title>Node1&#45;&gt;Node5</title>
<path fill="none" stroke="midnightblue" d="M3074.14,-209.76C2717.44,-208.43 1143.95,-200.59 655.5,-165 421.78,-147.97 363.68,-136.36 132.5,-98 122.2,-96.29 111.11,-94.17 100.84,-92.07"/>
<polygon fill="midnightblue" stroke="midnightblue" points="3074.32,-213.26 3084.33,-209.8 3074.34,-206.26 3074.32,-213.26"/>
</g>
<!-- Node10 -->
<g id="node10" class="node">
<title>Node10</title>
<g id="a_node10"><a xlink:href="../../d4/d28/RemoteControl_8cpp.html" target="_top" xlink:title=" ">
<polygon fill="white" stroke="black" points="141.5,-73 141.5,-92 293.5,-92 293.5,-73 141.5,-73"/>
<text text-anchor="middle" x="217.5" y="-80" font-family="Helvetica,sans-Serif" font-size="10.00">src/core/RemoteControl.cpp</text>
</a>
</g>
</g>
<!-- Node1&#45;&gt;Node10 -->
<g id="edge22" class="edge">
<title>Node1&#45;&gt;Node10</title>
<path fill="none" stroke="midnightblue" d="M3074.16,-209.54C2821.44,-207.66 1954.44,-198.98 1239.5,-165 822.46,-145.18 717,-148.05 302.5,-98 289.57,-96.44 275.61,-94.26 262.82,-92.07"/>
<polygon fill="midnightblue" stroke="midnightblue" points="3074.29,-213.04 3084.32,-209.61 3074.34,-206.04 3074.29,-213.04"/>
</g>
<!-- Node15 -->
<g id="node15" class="node">
<title>Node15</title>
<g id="a_node15"><a xlink:href="../../df/dac/AuthDBModule_8cpp.html" target="_top" xlink:title=" ">
<polygon fill="white" stroke="black" points="2248.5,-67.5 2248.5,-97.5 2376.5,-97.5 2376.5,-67.5 2248.5,-67.5"/>
<text text-anchor="start" x="2256.5" y="-85.5" font-family="Helvetica,sans-Serif" font-size="10.00">src/modules/auth/auth</text>
<text text-anchor="middle" x="2312.5" y="-74.5" font-family="Helvetica,sans-Serif" font-size="10.00">&#45;db/AuthDBModule.cpp</text>
</a>
</g>
</g>
<!-- Node1&#45;&gt;Node15 -->
<g id="edge23" class="edge">
<title>Node1&#45;&gt;Node15</title>
<path fill="none" stroke="midnightblue" d="M3074.2,-209.85C2963.43,-208.41 2745.52,-200.75 2564.5,-165 2484.88,-149.28 2395.26,-116.49 2347.28,-97.65"/>
<polygon fill="midnightblue" stroke="midnightblue" points="3074.22,-213.35 3084.26,-209.97 3074.3,-206.35 3074.22,-213.35"/>
</g>
<!-- Node16 -->
<g id="node16" class="node">
<title>Node16</title>
<g id="a_node16"><a xlink:href="../../d8/d37/AuthFileModule_8cpp.html" target="_top" xlink:title=" ">
<polygon fill="white" stroke="black" points="2394.5,-67.5 2394.5,-97.5 2528.5,-97.5 2528.5,-67.5 2394.5,-67.5"/>
<text text-anchor="start" x="2402.5" y="-85.5" font-family="Helvetica,sans-Serif" font-size="10.00">src/modules/auth/auth</text>
<text text-anchor="middle" x="2461.5" y="-74.5" font-family="Helvetica,sans-Serif" font-size="10.00">&#45;file/AuthFileModule.cpp</text>
</a>
</g>
</g>
<!-- Node1&#45;&gt;Node16 -->
<g id="edge25" class="edge">
<title>Node1&#45;&gt;Node16</title>
<path fill="none" stroke="midnightblue" d="M3073.83,-210.29C2976.79,-209.11 2800.21,-201.49 2654.5,-165 2592.05,-149.36 2523.69,-116.39 2487.45,-97.53"/>
<polygon fill="midnightblue" stroke="midnightblue" points="3074.08,-213.79 3084.12,-210.39 3074.15,-206.79 3074.08,-213.79"/>
</g>
<!-- Node20 -->
<g id="node20" class="node">
<title>Node20</title>
<g id="a_node20"><a xlink:href="../../d9/d8d/APISession_8cpp.html" target="_top" xlink:title=" ">
<polygon fill="white" stroke="black" points="2546.5,-67.5 2546.5,-97.5 2676.5,-97.5 2676.5,-67.5 2546.5,-67.5"/>
<text text-anchor="start" x="2554.5" y="-85.5" font-family="Helvetica,sans-Serif" font-size="10.00">src/modules/websock</text>
<text text-anchor="middle" x="2611.5" y="-74.5" font-family="Helvetica,sans-Serif" font-size="10.00">&#45;api/api/APISession.cpp</text>
</a>
</g>
</g>
<!-- Node1&#45;&gt;Node20 -->
<g id="edge34" class="edge">
<title>Node1&#45;&gt;Node20</title>
<path fill="none" stroke="midnightblue" d="M3074.16,-208.14C2965.6,-204.44 2766.37,-193.84 2701.5,-165 2667.41,-149.84 2637.43,-116.68 2622.18,-97.66"/>
<polygon fill="midnightblue" stroke="midnightblue" points="3074.26,-211.65 3084.37,-208.48 3074.49,-204.65 3074.26,-211.65"/>
</g>
<!-- Node22 -->
<g id="node22" class="node">
<title>Node22</title>
<g id="a_node22"><a xlink:href="../../da/d9b/AuthFileInstance_8cpp.html" target="_top" xlink:title=" ">
<polygon fill="white" stroke="black" points="2908.5,-134.5 2908.5,-164.5 3048.5,-164.5 3048.5,-134.5 2908.5,-134.5"/>
<text text-anchor="start" x="2916.5" y="-152.5" font-family="Helvetica,sans-Serif" font-size="10.00">src/modules/auth/auth</text>
<text text-anchor="middle" x="2978.5" y="-141.5" font-family="Helvetica,sans-Serif" font-size="10.00">&#45;file/AuthFileInstance.cpp</text>
</a>
</g>
</g>
<!-- Node1&#45;&gt;Node22 -->
<g id="edge24" class="edge">
<title>Node1&#45;&gt;Node22</title>
<path fill="none" stroke="midnightblue" d="M3112.91,-198.1C3085.57,-188.42 3046.93,-174.74 3018.09,-164.52"/>
<polygon fill="midnightblue" stroke="midnightblue" points="3111.83,-201.44 3122.43,-201.48 3114.17,-194.84 3111.83,-201.44"/>
</g>
<!-- Node23 -->
<g id="node23" class="node">
<title>Node23</title>
<g id="a_node23"><a xlink:href="../../de/d21/BaseModule_8cpp.html" target="_top" xlink:title=" ">
<polygon fill="white" stroke="black" points="3067,-140 3067,-159 3226,-159 3226,-140 3067,-140"/>
<text text-anchor="middle" x="3146.5" y="-147" font-family="Helvetica,sans-Serif" font-size="10.00">src/modules/BaseModule.cpp</text>
</a>
</g>
</g>
<!-- Node1&#45;&gt;Node23 -->
<g id="edge26" class="edge">
<title>Node1&#45;&gt;Node23</title>
<path fill="none" stroke="midnightblue" d="M3146.5,-191.32C3146.5,-180.5 3146.5,-167.4 3146.5,-159.01"/>
<polygon fill="midnightblue" stroke="midnightblue" points="3143,-191.48 3146.5,-201.48 3150,-191.48 3143,-191.48"/>
</g>
<!-- Node24 -->
<g id="node24" class="node">
<title>Node24</title>
<g id="a_node24"><a xlink:href="../../d6/d95/PFDigitalModule_8cpp.html" target="_top" xlink:title=" ">
<polygon fill="white" stroke="black" points="3166.5,-0.5 3166.5,-30.5 3306.5,-30.5 3306.5,-0.5 3166.5,-0.5"/>
<text text-anchor="start" x="3174.5" y="-18.5" font-family="Helvetica,sans-Serif" font-size="10.00">src/modules/pifacedigital</text>
<text text-anchor="middle" x="3236.5" y="-7.5" font-family="Helvetica,sans-Serif" font-size="10.00">/PFDigitalModule.cpp</text>
</a>
</g>
</g>
<!-- Node1&#45;&gt;Node24 -->
<g id="edge27" class="edge">
<title>Node1&#45;&gt;Node24</title>
<path fill="none" stroke="midnightblue" d="M3073.97,-209.82C2983.79,-207.14 2847.66,-193.54 2899.5,-134 2937.66,-90.17 3106.76,-124.46 3158.5,-98 3174.46,-89.84 3207.46,-51.7 3224.98,-30.61"/>
<polygon fill="midnightblue" stroke="midnightblue" points="3074.09,-213.32 3084.18,-210.08 3074.28,-206.33 3074.09,-213.32"/>
</g>
<!-- Node25 -->
<g id="node25" class="node">
<title>Node25</title>
<g id="a_node25"><a xlink:href="../../db/df9/ReplicationModule_8hpp.html" target="_top" xlink:title=" ">
<polygon fill="white" stroke="black" points="3244,-134.5 3244,-164.5 3375,-164.5 3375,-134.5 3244,-134.5"/>
<text text-anchor="start" x="3252" y="-152.5" font-family="Helvetica,sans-Serif" font-size="10.00">src/modules/replication</text>
<text text-anchor="middle" x="3309.5" y="-141.5" font-family="Helvetica,sans-Serif" font-size="10.00">/ReplicationModule.hpp</text>
</a>
</g>
</g>
<!-- Node1&#45;&gt;Node25 -->
<g id="edge28" class="edge">
<title>Node1&#45;&gt;Node25</title>
<path fill="none" stroke="midnightblue" d="M3179.44,-197.98C3205.94,-188.3 3243.23,-174.69 3271.08,-164.52"/>
<polygon fill="midnightblue" stroke="midnightblue" points="3178.05,-194.76 3169.85,-201.48 3180.45,-201.33 3178.05,-194.76"/>
</g>
<!-- Node27 -->
<g id="node27" class="node">
<title>Node27</title>
<g id="a_node27"><a xlink:href="../../d2/dac/ReplicationModule_8cpp.html" target="_top" xlink:title=" ">
<polygon fill="white" stroke="black" points="3355,-67.5 3355,-97.5 3486,-97.5 3486,-67.5 3355,-67.5"/>
<text text-anchor="start" x="3363" y="-85.5" font-family="Helvetica,sans-Serif" font-size="10.00">src/modules/replication</text>
<text text-anchor="middle" x="3420.5" y="-74.5" font-family="Helvetica,sans-Serif" font-size="10.00">/ReplicationModule.cpp</text>
</a>
</g>
</g>
<!-- Node1&#45;&gt;Node27 -->
<g id="edge31" class="edge">
<title>Node1&#45;&gt;Node27</title>
<path fill="none" stroke="midnightblue" d="M3218.88,-203.58C3278.92,-196.95 3358.37,-184.76 3383.5,-165 3404.88,-148.2 3414.32,-116.28 3418.15,-97.77"/>
<polygon fill="midnightblue" stroke="midnightblue" points="3218.24,-200.13 3208.67,-204.67 3218.99,-207.09 3218.24,-200.13"/>
</g>
<!-- Node28 -->
<g id="node28" class="node">
<title>Node28</title>
<g id="a_node28"><a xlink:href="../../da/d6f/SMTPModule_8cpp.html" target="_top" xlink:title=" ">
<polygon fill="white" stroke="black" points="3431.5,-140 3431.5,-159 3621.5,-159 3621.5,-140 3431.5,-140"/>
<text text-anchor="middle" x="3526.5" y="-147" font-family="Helvetica,sans-Serif" font-size="10.00">src/modules/smtp/SMTPModule.cpp</text>
</a>
</g>
</g>
<!-- Node1&#45;&gt;Node28 -->
<g id="edge32" class="edge">
<title>Node1&#45;&gt;Node28</title>
<path fill="none" stroke="midnightblue" d="M3211,-199.9C3284.46,-188.4 3403.21,-169.8 3472.16,-159.01"/>
<polygon fill="midnightblue" stroke="midnightblue" points="3210.28,-196.47 3200.94,-201.48 3211.37,-203.39 3210.28,-196.47"/>
</g>
<!-- Node29 -->
<g id="node29" class="node">
<title>Node29</title>
<g id="a_node29"><a xlink:href="../../d7/d86/APIAuth_8cpp.html" target="_top" xlink:title=" ">
<polygon fill="white" stroke="black" points="3639.5,-134.5 3639.5,-164.5 3761.5,-164.5 3761.5,-134.5 3639.5,-134.5"/>
<text text-anchor="start" x="3647.5" y="-152.5" font-family="Helvetica,sans-Serif" font-size="10.00">src/modules/websock</text>
<text text-anchor="middle" x="3700.5" y="-141.5" font-family="Helvetica,sans-Serif" font-size="10.00">&#45;api/api/APIAuth.cpp</text>
</a>
</g>
</g>
<!-- Node1&#45;&gt;Node29 -->
<g id="edge33" class="edge">
<title>Node1&#45;&gt;Node29</title>
<path fill="none" stroke="midnightblue" d="M3218.71,-205.81C3313.57,-199.73 3485.15,-186.74 3630.5,-165 3633.45,-164.56 3636.45,-164.07 3639.49,-163.56"/>
<polygon fill="midnightblue" stroke="midnightblue" points="3218.41,-202.32 3208.65,-206.45 3218.85,-209.31 3218.41,-202.32"/>
</g>
<!-- Node30 -->
<g id="node30" class="node">
<title>Node30</title>
<g id="a_node30"><a xlink:href="../../da/d62/AuditGet_8cpp.html" target="_top" xlink:title=" ">
<polygon fill="white" stroke="black" points="3779.5,-134.5 3779.5,-164.5 3901.5,-164.5 3901.5,-134.5 3779.5,-134.5"/>
<text text-anchor="start" x="3787.5" y="-152.5" font-family="Helvetica,sans-Serif" font-size="10.00">src/modules/websock</text>
<text text-anchor="middle" x="3840.5" y="-141.5" font-family="Helvetica,sans-Serif" font-size="10.00">&#45;api/api/AuditGet.cpp</text>
</a>
</g>
</g>
<!-- Node1&#45;&gt;Node30 -->
<g id="edge35" class="edge">
<title>Node1&#45;&gt;Node30</title>
<path fill="none" stroke="midnightblue" d="M3219.01,-207.88C3335.68,-203.78 3572.09,-192.58 3770.5,-165 3773.45,-164.59 3776.46,-164.13 3779.5,-163.63"/>
<polygon fill="midnightblue" stroke="midnightblue" points="3218.66,-204.39 3208.78,-208.23 3218.9,-211.39 3218.66,-204.39"/>
</g>
<!-- Node31 -->
<g id="node31" class="node">
<title>Node31</title>
<g id="a_node31"><a xlink:href="../../d1/d43/Restart_8cpp.html" target="_top" xlink:title=" ">
<polygon fill="white" stroke="black" points="3919.5,-134.5 3919.5,-164.5 4041.5,-164.5 4041.5,-134.5 3919.5,-134.5"/>
<text text-anchor="start" x="3927.5" y="-152.5" font-family="Helvetica,sans-Serif" font-size="10.00">src/modules/websock</text>
<text text-anchor="middle" x="3980.5" y="-141.5" font-family="Helvetica,sans-Serif" font-size="10.00">&#45;api/api/Restart.cpp</text>
</a>
</g>
</g>
<!-- Node1&#45;&gt;Node31 -->
<g id="edge36" class="edge">
<title>Node1&#45;&gt;Node31</title>
<path fill="none" stroke="midnightblue" d="M3218.98,-209.23C3355.07,-207.02 3657.92,-198.42 3910.5,-165 3913.33,-164.63 3916.22,-164.2 3919.13,-163.74"/>
<polygon fill="midnightblue" stroke="midnightblue" points="3218.63,-205.74 3208.68,-209.39 3218.74,-212.74 3218.63,-205.74"/>
</g>
<!-- Node32 -->
<g id="node32" class="node">
<title>Node32</title>
<g id="a_node32"><a xlink:href="../../d9/d6b/WebSockAPI_8cpp.html" target="_top" xlink:title=" ">
<polygon fill="white" stroke="black" points="4059.5,-134.5 4059.5,-164.5 4181.5,-164.5 4181.5,-134.5 4059.5,-134.5"/>
<text text-anchor="start" x="4067.5" y="-152.5" font-family="Helvetica,sans-Serif" font-size="10.00">src/modules/websock</text>
<text text-anchor="middle" x="4120.5" y="-141.5" font-family="Helvetica,sans-Serif" font-size="10.00">&#45;api/WebSockAPI.cpp</text>
</a>
</g>
</g>
<!-- Node1&#45;&gt;Node32 -->
<g id="edge37" class="edge">
<title>Node1&#45;&gt;Node32</title>
<path fill="none" stroke="midnightblue" d="M3218.97,-210.18C3372.81,-209.73 3743.09,-204.25 4050.5,-165 4053.33,-164.64 4056.22,-164.22 4059.13,-163.77"/>
<polygon fill="midnightblue" stroke="midnightblue" points="3218.71,-206.68 3208.72,-210.2 3218.72,-213.68 3218.71,-206.68"/>
</g>
<!-- Node33 -->
<g id="node33" class="node">
<title>Node33</title>
<g id="a_node33"><a xlink:href="../../da/df4/websock-api_2WSHelperThread_8hpp.html" target="_top" xlink:title=" ">
<polygon fill="white" stroke="black" points="2711,-134.5 2711,-164.5 2852,-164.5 2852,-134.5 2711,-134.5"/>
<text text-anchor="start" x="2719" y="-152.5" font-family="Helvetica,sans-Serif" font-size="10.00">src/modules/websock</text>
<text text-anchor="middle" x="2781.5" y="-141.5" font-family="Helvetica,sans-Serif" font-size="10.00">&#45;api/WSHelperThread.hpp</text>
</a>
</g>
</g>
<!-- Node1&#45;&gt;Node33 -->
<g id="edge38" class="edge">
<title>Node1&#45;&gt;Node33</title>
<path fill="none" stroke="midnightblue" d="M3082.63,-199.91C3025.86,-190.91 2940.62,-177.28 2866.5,-165 2861.92,-164.24 2857.21,-163.45 2852.45,-162.66"/>
<polygon fill="midnightblue" stroke="midnightblue" points="3082.11,-203.38 3092.54,-201.48 3083.21,-196.46 3082.11,-203.38"/>
</g>
<!-- Node40 -->
<g id="node40" class="node">
<title>Node40</title>
<g id="a_node40"><a xlink:href="../../d4/d2c/WSServer_8cpp.html" target="_top" xlink:title=" ">
<polygon fill="white" stroke="black" points="4199.5,-134.5 4199.5,-164.5 4321.5,-164.5 4321.5,-134.5 4199.5,-134.5"/>
<text text-anchor="start" x="4207.5" y="-152.5" font-family="Helvetica,sans-Serif" font-size="10.00">src/modules/websock</text>
<text text-anchor="middle" x="4260.5" y="-141.5" font-family="Helvetica,sans-Serif" font-size="10.00">&#45;api/WSServer.cpp</text>
</a>
</g>
</g>
<!-- Node1&#45;&gt;Node40 -->
<g id="edge48" class="edge">
<title>Node1&#45;&gt;Node40</title>
<path fill="none" stroke="midnightblue" d="M3218.76,-208.4C3423.01,-203.65 4001.95,-188.44 4190.5,-165 4193.33,-164.65 4196.22,-164.24 4199.13,-163.79"/>
<polygon fill="midnightblue" stroke="midnightblue" points="3218.66,-204.9 3208.74,-208.63 3218.82,-211.9 3218.66,-204.9"/>
</g>
<!-- Node41 -->
<g id="node41" class="node">
<title>Node41</title>
<g id="a_node41"><a xlink:href="../../d8/dfd/TestHelper_8hpp.html" target="_top" xlink:title=" ">
<polygon fill="white" stroke="black" points="4339.5,-140 4339.5,-159 4483.5,-159 4483.5,-140 4339.5,-140"/>
<text text-anchor="middle" x="4411.5" y="-147" font-family="Helvetica,sans-Serif" font-size="10.00">test/helper/TestHelper.hpp</text>
</a>
</g>
</g>
<!-- Node1&#45;&gt;Node41 -->
<g id="edge49" class="edge">
<title>Node1&#45;&gt;Node41</title>
<path fill="none" stroke="midnightblue" d="M3218.83,-210.74C3404.21,-211.89 3911.25,-210.27 4330.5,-165 4343.43,-163.6 4357.4,-161.37 4370.04,-159.07"/>
<polygon fill="midnightblue" stroke="midnightblue" points="3218.69,-207.24 3208.67,-210.68 3218.64,-214.24 3218.69,-207.24"/>
</g>
<!-- Node3 -->
<g id="node3" class="node">
<title>Node3</title>
<g id="a_node3"><a xlink:href="../../d6/dff/src_2core_2config_2ConfigManager_8cpp.html" target="_top" xlink:title=" ">
<polygon fill="white" stroke="black" points="1725,-73 1725,-92 1908,-92 1908,-73 1725,-73"/>
<text text-anchor="middle" x="1816.5" y="-80" font-family="Helvetica,sans-Serif" font-size="10.00">src/core/config/ConfigManager.cpp</text>
</a>
</g>
</g>
<!-- Node2&#45;&gt;Node3 -->
<g id="edge2" class="edge">
<title>Node2&#45;&gt;Node3</title>
<path fill="none" stroke="midnightblue" d="M1368.26,-140.98C1449.46,-131.46 1592.88,-114.32 1715.5,-98 1729.46,-96.14 1744.49,-94.04 1758.58,-92.02"/>
<polygon fill="midnightblue" stroke="midnightblue" points="1367.72,-137.52 1358.19,-142.16 1368.53,-144.47 1367.72,-137.52"/>
</g>
<!-- Node4 -->
<g id="node4" class="node">
<title>Node4</title>
<g id="a_node4"><a xlink:href="../../d3/d1e/CoreAPI_8cpp.html" target="_top" xlink:title=" ">
<polygon fill="white" stroke="black" points="1926.5,-73 1926.5,-92 2042.5,-92 2042.5,-73 1926.5,-73"/>
<text text-anchor="middle" x="1984.5" y="-80" font-family="Helvetica,sans-Serif" font-size="10.00">src/core/CoreAPI.cpp</text>
</a>
</g>
</g>
<!-- Node2&#45;&gt;Node4 -->
<g id="edge3" class="edge">
<title>Node2&#45;&gt;Node4</title>
<path fill="none" stroke="midnightblue" d="M1368.44,-145.88C1480.68,-140.75 1718.01,-127.22 1916.5,-98 1927.01,-96.45 1938.33,-94.26 1948.66,-92.04"/>
<polygon fill="midnightblue" stroke="midnightblue" points="1368.13,-142.39 1358.3,-146.34 1368.45,-149.39 1368.13,-142.39"/>
</g>
<!-- Node2&#45;&gt;Node5 -->
<g id="edge4" class="edge">
<title>Node2&#45;&gt;Node5</title>
<path fill="none" stroke="midnightblue" d="M1238.93,-147.06C1026.31,-142.12 349.35,-124.65 132.5,-98 121.14,-96.6 108.88,-94.37 97.8,-92.07"/>
<polygon fill="midnightblue" stroke="midnightblue" points="1238.92,-150.56 1249,-147.3 1239.08,-143.57 1238.92,-150.56"/>
</g>
<!-- Node6 -->
<g id="node6" class="node">
<title>Node6</title>
<g id="a_node6"><a xlink:href="../../d9/d6a/GetServiceRegistry_8cpp.html" target="_top" xlink:title=" ">
<polygon fill="white" stroke="black" points="2060.5,-73 2060.5,-92 2230.5,-92 2230.5,-73 2060.5,-73"/>
<text text-anchor="middle" x="2145.5" y="-80" font-family="Helvetica,sans-Serif" font-size="10.00">src/core/GetServiceRegistry.cpp</text>
</a>
</g>
</g>
<!-- Node2&#45;&gt;Node6 -->
<g id="edge5" class="edge">
<title>Node2&#45;&gt;Node6</title>
<path fill="none" stroke="midnightblue" d="M1368.25,-146C1498.13,-140.57 1799.59,-125.88 2051.5,-98 2065.78,-96.42 2081.21,-94.24 2095.36,-92.05"/>
<polygon fill="midnightblue" stroke="midnightblue" points="1367.92,-142.51 1358.08,-146.42 1368.21,-149.5 1367.92,-142.51"/>
</g>
<!-- Node7 -->
<g id="node7" class="node">
<title>Node7</title>
<g id="a_node7"><a xlink:href="../../dd/d24/kernel_8cpp.html" target="_top" xlink:title=" ">
<polygon fill="white" stroke="black" points="311.5,-73 311.5,-92 419.5,-92 419.5,-73 311.5,-73"/>
<text text-anchor="middle" x="365.5" y="-80" font-family="Helvetica,sans-Serif" font-size="10.00">src/core/kernel.cpp</text>
</a>
</g>
</g>
<!-- Node2&#45;&gt;Node7 -->
<g id="edge6" class="edge">
<title>Node2&#45;&gt;Node7</title>
<path fill="none" stroke="midnightblue" d="M1238.91,-145.4C1050.19,-136.27 507.91,-109.35 428.5,-98 418.39,-96.56 407.51,-94.31 397.68,-92.01"/>
<polygon fill="midnightblue" stroke="midnightblue" points="1238.81,-148.9 1248.97,-145.89 1239.15,-141.91 1238.81,-148.9"/>
</g>
<!-- Node8 -->
<g id="node8" class="node">
<title>Node8</title>
<g id="a_node8"><a xlink:href="../../d9/d4a/module__manager_8cpp.html" target="_top" xlink:title=" ">
<polygon fill="white" stroke="black" points="438,-73 438,-92 601,-92 601,-73 438,-73"/>
<text text-anchor="middle" x="519.5" y="-80" font-family="Helvetica,sans-Serif" font-size="10.00">src/core/module_manager.cpp</text>
</a>
</g>
</g>
<!-- Node2&#45;&gt;Node8 -->
<g id="edge7" class="edge">
<title>Node2&#45;&gt;Node8</title>
<path fill="none" stroke="midnightblue" d="M1238.67,-145.4C1116.5,-139.19 843.91,-123.59 615.5,-98 601.09,-96.39 585.53,-94.22 571.22,-92.05"/>
<polygon fill="midnightblue" stroke="midnightblue" points="1238.8,-148.91 1248.96,-145.92 1239.15,-141.92 1238.8,-148.91"/>
</g>
<!-- Node9 -->
<g id="node9" class="node">
<title>Node9</title>
<g id="a_node9"><a xlink:href="../../d2/d2a/networkconfig_8cpp.html" target="_top" xlink:title="NetworkConfig class implementation.">
<polygon fill="white" stroke="black" points="841,-67.5 841,-97.5 950,-97.5 950,-67.5 841,-67.5"/>
<text text-anchor="start" x="849" y="-85.5" font-family="Helvetica,sans-Serif" font-size="10.00">src/core/netconfig</text>
<text text-anchor="middle" x="895.5" y="-74.5" font-family="Helvetica,sans-Serif" font-size="10.00">/networkconfig.cpp</text>
</a>
</g>
</g>
<!-- Node2&#45;&gt;Node9 -->
<g id="edge8" class="edge">
<title>Node2&#45;&gt;Node9</title>
<path fill="none" stroke="midnightblue" d="M1238.97,-140.64C1169.46,-131.8 1055.75,-116.28 958.5,-98 955.74,-97.48 952.92,-96.93 950.08,-96.35"/>
<polygon fill="midnightblue" stroke="midnightblue" points="1238.54,-144.11 1248.9,-141.89 1239.42,-137.17 1238.54,-144.11"/>
</g>
<!-- Node2&#45;&gt;Node10 -->
<g id="edge9" class="edge">
<title>Node2&#45;&gt;Node10</title>
<path fill="none" stroke="midnightblue" d="M1238.66,-145.68C1031.69,-136.6 394.99,-108.19 302.5,-98 289.11,-96.53 274.63,-94.3 261.48,-92.02"/>
<polygon fill="midnightblue" stroke="midnightblue" points="1238.63,-149.18 1248.77,-146.12 1238.93,-142.19 1238.63,-149.18"/>
</g>
<!-- Node11 -->
<g id="node11" class="node">
<title>Node11</title>
<g id="a_node11"><a xlink:href="../../df/dca/GetLocalConfigVersion_8cpp.html" target="_top" xlink:title=" ">
<polygon fill="white" stroke="black" points="968,-67.5 968,-97.5 1129,-97.5 1129,-67.5 968,-67.5"/>
<text text-anchor="start" x="976" y="-85.5" font-family="Helvetica,sans-Serif" font-size="10.00">src/core/tasks/GetLocalConfig</text>
<text text-anchor="middle" x="1048.5" y="-74.5" font-family="Helvetica,sans-Serif" font-size="10.00">Version.cpp</text>
</a>
</g>
</g>
<!-- Node2&#45;&gt;Node11 -->
<g id="edge10" class="edge">
<title>Node2&#45;&gt;Node11</title>
<path fill="none" stroke="midnightblue" d="M1259.99,-137.41C1216.81,-126.4 1150.5,-109.5 1103.66,-97.56"/>
<polygon fill="midnightblue" stroke="midnightblue" points="1259.35,-140.86 1269.9,-139.94 1261.08,-134.07 1259.35,-140.86"/>
</g>
<!-- Node12 -->
<g id="node12" class="node">
<title>Node12</title>
<g id="a_node12"><a xlink:href="../../d7/d6f/GetRemoteConfigVersion_8cpp.html" target="_top" xlink:title=" ">
<polygon fill="white" stroke="black" points="1147,-67.5 1147,-97.5 1290,-97.5 1290,-67.5 1147,-67.5"/>
<text text-anchor="start" x="1155" y="-85.5" font-family="Helvetica,sans-Serif" font-size="10.00">src/core/tasks/GetRemote</text>
<text text-anchor="middle" x="1218.5" y="-74.5" font-family="Helvetica,sans-Serif" font-size="10.00">ConfigVersion.cpp</text>
</a>
</g>
</g>
<!-- Node2&#45;&gt;Node12 -->
<g id="edge11" class="edge">
<title>Node2&#45;&gt;Node12</title>
<path fill="none" stroke="midnightblue" d="M1283.94,-133.54C1269.79,-122.73 1250.8,-108.2 1236.92,-97.59"/>
<polygon fill="midnightblue" stroke="midnightblue" points="1281.97,-136.44 1292.04,-139.73 1286.22,-130.88 1281.97,-136.44"/>
</g>
<!-- Node13 -->
<g id="node13" class="node">
<title>Node13</title>
<g id="a_node13"><a xlink:href="../../d5/d8e/SyncConfig_8cpp.html" target="_top" xlink:title=" ">
<polygon fill="white" stroke="black" points="1308,-73 1308,-92 1469,-92 1469,-73 1308,-73"/>
<text text-anchor="middle" x="1388.5" y="-80" font-family="Helvetica,sans-Serif" font-size="10.00">src/core/tasks/SyncConfig.cpp</text>
</a>
</g>
</g>
<!-- Node2&#45;&gt;Node13 -->
<g id="edge12" class="edge">
<title>Node2&#45;&gt;Node13</title>
<path fill="none" stroke="midnightblue" d="M1323.03,-133.57C1339.8,-120.74 1363.41,-102.69 1377.22,-92.13"/>
<polygon fill="midnightblue" stroke="midnightblue" points="1320.78,-130.88 1314.96,-139.73 1325.03,-136.44 1320.78,-130.88"/>
</g>
<!-- Node14 -->
<g id="node14" class="node">
<title>Node14</title>
<g id="a_node14"><a xlink:href="../../df/d0a/main_8cpp.html" target="_top" xlink:title="standard main">
<polygon fill="white" stroke="black" points="1487,-73 1487,-92 1566,-92 1566,-73 1487,-73"/>
<text text-anchor="middle" x="1526.5" y="-80" font-family="Helvetica,sans-Serif" font-size="10.00">src/main.cpp</text>
</a>
</g>
</g>
<!-- Node2&#45;&gt;Node14 -->
<g id="edge13" class="edge">
<title>Node2&#45;&gt;Node14</title>
<path fill="none" stroke="midnightblue" d="M1342.97,-137.11C1378.25,-126.91 1431.34,-111.53 1477.5,-98 1484.06,-96.08 1491.1,-94 1497.75,-92.04"/>
<polygon fill="midnightblue" stroke="midnightblue" points="1341.7,-133.83 1333.07,-139.97 1343.65,-140.56 1341.7,-133.83"/>
</g>
<!-- Node2&#45;&gt;Node15 -->
<g id="edge14" class="edge">
<title>Node2&#45;&gt;Node15</title>
<path fill="none" stroke="midnightblue" d="M1368.2,-148.17C1520.62,-146.7 1913.95,-138.9 2239.5,-98 2242.45,-97.63 2245.46,-97.21 2248.49,-96.75"/>
<polygon fill="midnightblue" stroke="midnightblue" points="1368.05,-144.67 1358.08,-148.26 1368.11,-151.67 1368.05,-144.67"/>
</g>
<!-- Node2&#45;&gt;Node16 -->
<g id="edge15" class="edge">
<title>Node2&#45;&gt;Node16</title>
<path fill="none" stroke="midnightblue" d="M1368.23,-148.67C1536.54,-148.43 2001.59,-143.35 2385.5,-98 2388.43,-97.65 2391.43,-97.26 2394.44,-96.83"/>
<polygon fill="midnightblue" stroke="midnightblue" points="1368.04,-145.17 1358.05,-148.68 1368.05,-152.17 1368.04,-145.17"/>
</g>
<!-- Node17 -->
<g id="node17" class="node">
<title>Node17</title>
<g id="a_node17"><a xlink:href="../../d0/d58/DoormanModule_8cpp.html" target="_top" xlink:title=" ">
<polygon fill="white" stroke="black" points="1584.5,-67.5 1584.5,-97.5 1706.5,-97.5 1706.5,-67.5 1584.5,-67.5"/>
<text text-anchor="start" x="1592.5" y="-85.5" font-family="Helvetica,sans-Serif" font-size="10.00">src/modules/doorman</text>
<text text-anchor="middle" x="1645.5" y="-74.5" font-family="Helvetica,sans-Serif" font-size="10.00">/DoormanModule.cpp</text>
</a>
</g>
</g>
<!-- Node2&#45;&gt;Node17 -->
<g id="edge16" class="edge">
<title>Node2&#45;&gt;Node17</title>
<path fill="none" stroke="midnightblue" d="M1360.43,-138.19C1415.3,-128.17 1500.65,-112.42 1574.5,-98 1577.71,-97.37 1581,-96.72 1584.32,-96.06"/>
<polygon fill="midnightblue" stroke="midnightblue" points="1359.76,-134.75 1350.55,-139.99 1361.01,-141.64 1359.76,-134.75"/>
</g>
<!-- Node18 -->
<g id="node18" class="node">
<title>Node18</title>
<g id="a_node18"><a xlink:href="../../d7/d36/LEDBuzzerModule_8cpp.html" target="_top" xlink:title=" ">
<polygon fill="white" stroke="black" points="1487.5,-0.5 1487.5,-30.5 1617.5,-30.5 1617.5,-0.5 1487.5,-0.5"/>
<text text-anchor="start" x="1495.5" y="-18.5" font-family="Helvetica,sans-Serif" font-size="10.00">src/modules/led&#45;buzzer</text>
<text text-anchor="middle" x="1552.5" y="-7.5" font-family="Helvetica,sans-Serif" font-size="10.00">/LEDBuzzerModule.cpp</text>
</a>
</g>
</g>
<!-- Node2&#45;&gt;Node18 -->
<g id="edge17" class="edge">
<title>Node2&#45;&gt;Node18</title>
<path fill="none" stroke="midnightblue" d="M1238.73,-145.82C1078.16,-138.87 673.2,-119.29 653.5,-98 644.14,-87.89 644.03,-77.01 653.5,-67 682.09,-36.76 1285.46,-21.88 1487.35,-17.74"/>
<polygon fill="midnightblue" stroke="midnightblue" points="1238.81,-149.33 1248.95,-146.26 1239.11,-142.33 1238.81,-149.33"/>
</g>
<!-- Node19 -->
<g id="node19" class="node">
<title>Node19</title>
<g id="a_node19"><a xlink:href="../../da/d77/SysFsGpioModule_8cpp.html" target="_top" xlink:title=" ">
<polygon fill="white" stroke="black" points="696,-67.5 696,-97.5 823,-97.5 823,-67.5 696,-67.5"/>
<text text-anchor="start" x="704" y="-85.5" font-family="Helvetica,sans-Serif" font-size="10.00">src/modules/sysfsgpio</text>
<text text-anchor="middle" x="759.5" y="-74.5" font-family="Helvetica,sans-Serif" font-size="10.00">/SysFsGpioModule.cpp</text>
</a>
</g>
</g>
<!-- Node2&#45;&gt;Node19 -->
<g id="edge18" class="edge">
<title>Node2&#45;&gt;Node19</title>
<path fill="none" stroke="midnightblue" d="M1238.59,-143.46C1147.38,-135.95 976.21,-120.26 831.5,-98 828.73,-97.57 825.9,-97.11 823.05,-96.63"/>
<polygon fill="midnightblue" stroke="midnightblue" points="1238.53,-146.97 1248.78,-144.29 1239.1,-139.99 1238.53,-146.97"/>
</g>
<!-- Node2&#45;&gt;Node20 -->
<g id="edge19" class="edge">
<title>Node2&#45;&gt;Node20</title>
<path fill="none" stroke="midnightblue" d="M1368.16,-147.16C1588.3,-142.39 2307.71,-125.06 2537.5,-98 2540.36,-97.66 2543.28,-97.28 2546.22,-96.85"/>
<polygon fill="midnightblue" stroke="midnightblue" points="1367.98,-143.66 1358.06,-147.38 1368.13,-150.66 1367.98,-143.66"/>
</g>
<!-- Node21 -->
<g id="node21" class="node">
<title>Node21</title>
<g id="a_node21"><a xlink:href="../../d3/de8/wiegand_8cpp.html" target="_top" xlink:title=" ">
<polygon fill="white" stroke="black" points="2714.5,-0.5 2714.5,-30.5 2834.5,-30.5 2834.5,-0.5 2714.5,-0.5"/>
<text text-anchor="start" x="2722.5" y="-18.5" font-family="Helvetica,sans-Serif" font-size="10.00">src/modules/wiegand</text>
<text text-anchor="middle" x="2774.5" y="-7.5" font-family="Helvetica,sans-Serif" font-size="10.00">/wiegand.cpp</text>
</a>
</g>
</g>
<!-- Node2&#45;&gt;Node21 -->
<g id="edge20" class="edge">
<title>Node2&#45;&gt;Node21</title>
<path fill="none" stroke="midnightblue" d="M1238.52,-145.53C1083.8,-138.15 705.02,-118.1 686.5,-98 677.16,-87.87 676.84,-76.83 686.5,-67 725.81,-26.98 2649.76,-37.3 2705.5,-31 2708.42,-30.67 2711.4,-30.27 2714.4,-29.83"/>
<polygon fill="midnightblue" stroke="midnightblue" points="1238.67,-149.04 1248.82,-146.02 1239,-142.05 1238.67,-149.04"/>
</g>
<!-- Node26 -->
<g id="node26" class="node">
<title>Node26</title>
<g id="a_node26"><a xlink:href="../../d5/d63/replication_2init_8cpp.html" target="_top" xlink:title=" ">
<polygon fill="white" stroke="black" points="3206,-67.5 3206,-97.5 3337,-97.5 3337,-67.5 3206,-67.5"/>
<text text-anchor="start" x="3214" y="-85.5" font-family="Helvetica,sans-Serif" font-size="10.00">src/modules/replication</text>
<text text-anchor="middle" x="3271.5" y="-74.5" font-family="Helvetica,sans-Serif" font-size="10.00">/init.cpp</text>
</a>
</g>
</g>
<!-- Node25&#45;&gt;Node26 -->
<g id="edge29" class="edge">
<title>Node25&#45;&gt;Node26</title>
<path fill="none" stroke="midnightblue" d="M3296.1,-125.58C3290.64,-116.24 3284.51,-105.75 3279.73,-97.58"/>
<polygon fill="midnightblue" stroke="midnightblue" points="3293.19,-127.53 3301.25,-134.4 3299.23,-124 3293.19,-127.53"/>
</g>
<!-- Node25&#45;&gt;Node27 -->
<g id="edge30" class="edge">
<title>Node25&#45;&gt;Node27</title>
<path fill="none" stroke="midnightblue" d="M3342.3,-129.3C3359.66,-119.12 3380.62,-106.85 3396.46,-97.58"/>
<polygon fill="midnightblue" stroke="midnightblue" points="3340.45,-126.32 3333.59,-134.4 3343.98,-132.36 3340.45,-126.32"/>
</g>
<!-- Node34 -->
<g id="node34" class="node">
<title>Node34</title>
<g id="a_node34"><a xlink:href="../../dc/d31/led-buzzer_2ws_2WSHelperThread_8hpp.html" target="_top" xlink:title=" ">
<polygon fill="white" stroke="black" points="2695,-67.5 2695,-97.5 2834,-97.5 2834,-67.5 2695,-67.5"/>
<text text-anchor="start" x="2703" y="-85.5" font-family="Helvetica,sans-Serif" font-size="10.00">src/modules/led&#45;buzzer</text>
<text text-anchor="middle" x="2764.5" y="-74.5" font-family="Helvetica,sans-Serif" font-size="10.00">/ws/WSHelperThread.hpp</text>
</a>
</g>
</g>
<!-- Node33&#45;&gt;Node34 -->
<g id="edge39" class="edge">
<title>Node33&#45;&gt;Node34</title>
<path fill="none" stroke="midnightblue" d="M2775.27,-124.7C2772.89,-115.59 2770.25,-105.49 2768.18,-97.58"/>
<polygon fill="midnightblue" stroke="midnightblue" points="2771.89,-125.61 2777.81,-134.4 2778.67,-123.84 2771.89,-125.61"/>
</g>
<!-- Node36 -->
<g id="node36" class="node">
<title>Node36</title>
<g id="a_node36"><a xlink:href="../../d7/d36/PFDigitalModule_8hpp.html" target="_top" xlink:title=" ">
<polygon fill="white" stroke="black" points="3009.5,-67.5 3009.5,-97.5 3149.5,-97.5 3149.5,-67.5 3009.5,-67.5"/>
<text text-anchor="start" x="3017.5" y="-85.5" font-family="Helvetica,sans-Serif" font-size="10.00">src/modules/pifacedigital</text>
<text text-anchor="middle" x="3079.5" y="-74.5" font-family="Helvetica,sans-Serif" font-size="10.00">/PFDigitalModule.hpp</text>
</a>
</g>
</g>
<!-- Node33&#45;&gt;Node36 -->
<g id="edge42" class="edge">
<title>Node33&#45;&gt;Node36</title>
<path fill="none" stroke="midnightblue" d="M2855.7,-132.32C2904.68,-121.63 2968.21,-107.77 3015.06,-97.55"/>
<polygon fill="midnightblue" stroke="midnightblue" points="2854.82,-128.93 2845.79,-134.48 2856.31,-135.76 2854.82,-128.93"/>
</g>
<!-- Node38 -->
<g id="node38" class="node">
<title>Node38</title>
<g id="a_node38"><a xlink:href="../../d4/df3/wiegand_2ws_2WSHelperThread_8hpp.html" target="_top" xlink:title=" ">
<polygon fill="white" stroke="black" points="2852,-67.5 2852,-97.5 2991,-97.5 2991,-67.5 2852,-67.5"/>
<text text-anchor="start" x="2860" y="-85.5" font-family="Helvetica,sans-Serif" font-size="10.00">src/modules/wiegand</text>
<text text-anchor="middle" x="2921.5" y="-74.5" font-family="Helvetica,sans-Serif" font-size="10.00">/ws/WSHelperThread.hpp</text>
</a>
</g>
</g>
<!-- Node33&#45;&gt;Node38 -->
<g id="edge45" class="edge">
<title>Node33&#45;&gt;Node38</title>
<path fill="none" stroke="midnightblue" d="M2821.07,-130.13C2843.31,-119.8 2870.65,-107.11 2891.18,-97.58"/>
<polygon fill="midnightblue" stroke="midnightblue" points="2819.47,-127.01 2811.88,-134.4 2822.42,-133.36 2819.47,-127.01"/>
</g>
<!-- Node34&#45;&gt;Node18 -->
<g id="edge40" class="edge">
<title>Node34&#45;&gt;Node18</title>
<path fill="none" stroke="midnightblue" d="M2684.78,-67.04C2273.39,-21.04 1790.07,-16.4 1617.57,-16.29"/>
<polygon fill="midnightblue" stroke="midnightblue" points="2684.46,-70.53 2694.79,-68.17 2685.25,-63.57 2684.46,-70.53"/>
</g>
<!-- Node35 -->
<g id="node35" class="node">
<title>Node35</title>
<g id="a_node35"><a xlink:href="../../dd/d4b/led-buzzer_2ws_2WSHelperThread_8cpp.html" target="_top" xlink:title=" ">
<polygon fill="white" stroke="black" points="2558.5,-0.5 2558.5,-30.5 2696.5,-30.5 2696.5,-0.5 2558.5,-0.5"/>
<text text-anchor="start" x="2566.5" y="-18.5" font-family="Helvetica,sans-Serif" font-size="10.00">src/modules/led&#45;buzzer</text>
<text text-anchor="middle" x="2627.5" y="-7.5" font-family="Helvetica,sans-Serif" font-size="10.00">/ws/WSHelperThread.cpp</text>
</a>
</g>
</g>
<!-- Node34&#45;&gt;Node35 -->
<g id="edge41" class="edge">
<title>Node34&#45;&gt;Node35</title>
<path fill="none" stroke="midnightblue" d="M2725.49,-62.99C2703.78,-52.69 2677.17,-40.07 2657.17,-30.58"/>
<polygon fill="midnightblue" stroke="midnightblue" points="2724.24,-66.27 2734.77,-67.4 2727.24,-59.95 2724.24,-66.27"/>
</g>
<!-- Node36&#45;&gt;Node24 -->
<g id="edge44" class="edge">
<title>Node36&#45;&gt;Node24</title>
<path fill="none" stroke="midnightblue" d="M3122.87,-63.54C3147.99,-53.14 3179.16,-40.24 3202.5,-30.58"/>
<polygon fill="midnightblue" stroke="midnightblue" points="3121.47,-60.34 3113.57,-67.4 3124.14,-66.8 3121.47,-60.34"/>
</g>
<!-- Node37 -->
<g id="node37" class="node">
<title>Node37</title>
<g id="a_node37"><a xlink:href="../../d6/d6d/pifacedigital_2init_8cpp.html" target="_top" xlink:title=" ">
<polygon fill="white" stroke="black" points="3008.5,-0.5 3008.5,-30.5 3148.5,-30.5 3148.5,-0.5 3008.5,-0.5"/>
<text text-anchor="start" x="3016.5" y="-18.5" font-family="Helvetica,sans-Serif" font-size="10.00">src/modules/pifacedigital</text>
<text text-anchor="middle" x="3078.5" y="-7.5" font-family="Helvetica,sans-Serif" font-size="10.00">/init.cpp</text>
</a>
</g>
</g>
<!-- Node36&#45;&gt;Node37 -->
<g id="edge43" class="edge">
<title>Node36&#45;&gt;Node37</title>
<path fill="none" stroke="midnightblue" d="M3079.12,-57.11C3078.99,-48.15 3078.84,-38.32 3078.72,-30.58"/>
<polygon fill="midnightblue" stroke="midnightblue" points="3075.63,-57.45 3079.28,-67.4 3082.63,-57.34 3075.63,-57.45"/>
</g>
<!-- Node38&#45;&gt;Node21 -->
<g id="edge46" class="edge">
<title>Node38&#45;&gt;Node21</title>
<path fill="none" stroke="midnightblue" d="M2880.27,-63.27C2856.86,-52.92 2827.99,-40.15 2806.33,-30.58"/>
<polygon fill="midnightblue" stroke="midnightblue" points="2879.04,-66.55 2889.6,-67.4 2881.87,-60.15 2879.04,-66.55"/>
</g>
<!-- Node39 -->
<g id="node39" class="node">
<title>Node39</title>
<g id="a_node39"><a xlink:href="../../d8/d9e/wiegand_2ws_2WSHelperThread_8cpp.html" target="_top" xlink:title=" ">
<polygon fill="white" stroke="black" points="2852.5,-0.5 2852.5,-30.5 2990.5,-30.5 2990.5,-0.5 2852.5,-0.5"/>
<text text-anchor="start" x="2860.5" y="-18.5" font-family="Helvetica,sans-Serif" font-size="10.00">src/modules/wiegand</text>
<text text-anchor="middle" x="2921.5" y="-7.5" font-family="Helvetica,sans-Serif" font-size="10.00">/ws/WSHelperThread.cpp</text>
</a>
</g>
</g>
<!-- Node38&#45;&gt;Node39 -->
<g id="edge47" class="edge">
<title>Node38&#45;&gt;Node39</title>
<path fill="none" stroke="midnightblue" d="M2921.5,-57.11C2921.5,-48.15 2921.5,-38.32 2921.5,-30.58"/>
<polygon fill="midnightblue" stroke="midnightblue" points="2918,-57.4 2921.5,-67.4 2925,-57.4 2918,-57.4"/>
</g>
<!-- Node42 -->
<g id="node42" class="node">
<title>Node42</title>
<g id="a_node42"><a xlink:href="../../d9/d21/Led_8cpp.html" target="_top" xlink:title=" ">
<polygon fill="white" stroke="black" points="4272.5,-73 4272.5,-92 4348.5,-92 4348.5,-73 4272.5,-73"/>
<text text-anchor="middle" x="4310.5" y="-80" font-family="Helvetica,sans-Serif" font-size="10.00">test/Led.cpp</text>
</a>
</g>
</g>
<!-- Node41&#45;&gt;Node42 -->
<g id="edge50" class="edge">
<title>Node41&#45;&gt;Node42</title>
<path fill="none" stroke="midnightblue" d="M4389.39,-134.27C4369.39,-121.4 4340.61,-102.88 4323.91,-92.13"/>
<polygon fill="midnightblue" stroke="midnightblue" points="4387.58,-137.27 4397.88,-139.73 4391.36,-131.38 4387.58,-137.27"/>
</g>
<!-- Node43 -->
<g id="node43" class="node">
<title>Node43</title>
<g id="a_node43"><a xlink:href="../../db/d44/Rpleth_8cpp.html" target="_top" xlink:title=" ">
<polygon fill="white" stroke="black" points="4366.5,-73 4366.5,-92 4456.5,-92 4456.5,-73 4366.5,-73"/>
<text text-anchor="middle" x="4411.5" y="-80" font-family="Helvetica,sans-Serif" font-size="10.00">test/Rpleth.cpp</text>
</a>
</g>
</g>
<!-- Node41&#45;&gt;Node43 -->
<g id="edge51" class="edge">
<title>Node41&#45;&gt;Node43</title>
<path fill="none" stroke="midnightblue" d="M4411.5,-129.54C4411.5,-117.17 4411.5,-101.62 4411.5,-92.13"/>
<polygon fill="midnightblue" stroke="midnightblue" points="4408,-129.73 4411.5,-139.73 4415,-129.73 4408,-129.73"/>
</g>
<!-- Node44 -->
<g id="node44" class="node">
<title>Node44</title>
<g id="a_node44"><a xlink:href="../../d4/d9b/WiegandReader_8cpp.html" target="_top" xlink:title=" ">
<polygon fill="white" stroke="black" points="4475,-73 4475,-92 4610,-92 4610,-73 4475,-73"/>
<text text-anchor="middle" x="4542.5" y="-80" font-family="Helvetica,sans-Serif" font-size="10.00">test/WiegandReader.cpp</text>
</a>
</g>
</g>
<!-- Node41&#45;&gt;Node44 -->
<g id="edge52" class="edge">
<title>Node41&#45;&gt;Node44</title>
<path fill="none" stroke="midnightblue" d="M4438.16,-135.27C4464.1,-122.4 4502.78,-103.21 4525.03,-92.17"/>
<polygon fill="midnightblue" stroke="midnightblue" points="4436.3,-132.29 4428.9,-139.87 4439.41,-138.56 4436.3,-132.29"/>
</g>
</g>
</svg>
        <g id="navigator" transform="translate(0 0)" fill="#404254">
                <rect fill="#f2f5e9" fill-opacity="0.5" stroke="#606060" stroke-width=".5" x="0" y="0" width="60" height="60"/>
                <use id="zoomplus" xlink:href="#zoomPlus" x="17" y="9" onmousedown="handleZoom(evt,'in')"/>
                <use id="zoomminus" xlink:href="#zoomMin" x="42" y="9" onmousedown="handleZoom(evt,'out')"/>
                <use id="reset" xlink:href="#resetDef" x="30" y="36" onmousedown="handleReset()"/>
                <g id="arrowUp" xlink:href="#dirArrow" transform="translate(30 24)" onmousedown="handlePan(0,-1)">
                  <use xlink:href="#rim" fill="#404040">
                        <set attributeName="fill" to="#808080" begin="arrowUp.mouseover" end="arrowUp.mouseout"/>
                  </use>
                  <path fill="none" stroke="white" stroke-width="1.5" d="M0,-3.0v7 M-2.5,-0.5L0,-3.0L2.5,-0.5"/>
                </g>
                <g id="arrowRight" xlink:href="#dirArrow" transform="rotate(90) translate(36 -43)" onmousedown="handlePan(1,0)">
                  <use xlink:href="#rim" fill="#404040">
                        <set attributeName="fill" to="#808080" begin="arrowRight.mouseover" end="arrowRight.mouseout"/>
                  </use>
                  <path fill="none" stroke="white" stroke-width="1.5" d="M0,-3.0v7 M-2.5,-0.5L0,-3.0L2.5,-0.5"/>
                </g>
                <g id="arrowDown" xlink:href="#dirArrow" transform="rotate(180) translate(-30 -48)" onmousedown="handlePan(0,1)">
                  <use xlink:href="#rim" fill="#404040">
                        <set attributeName="fill" to="#808080" begin="arrowDown.mouseover" end="arrowDown.mouseout"/>
                  </use>
                  <path fill="none" stroke="white" stroke-width="1.5" d="M0,-3.0v7 M-2.5,-0.5L0,-3.0L2.5,-0.5"/>
                </g>
                <g id="arrowLeft" xlink:href="#dirArrow" transform="rotate(270) translate(-36 17)" onmousedown="handlePan(-1,0)">
                  <use xlink:href="#rim" fill="#404040">
                        <set attributeName="fill" to="#808080" begin="arrowLeft.mouseover" end="arrowLeft.mouseout"/>
                  </use>
                  <path fill="none" stroke="white" stroke-width="1.5" d="M0,-3.0v7 M-2.5,-0.5L0,-3.0L2.5,-0.5"/>
                </g>
        </g>
        <svg viewBox="0 0 15 15" width="100%" height="30px" preserveAspectRatio="xMaxYMin meet">
         <g id="arrow_out" transform="scale(0.3 0.3)">
          <a xlink:href="CoreUtils_8hpp__dep__incl_org.svg" target="_base">
           <rect id="button" ry="5" rx="5" y="6" x="6" height="38" width="38"
                fill="#f2f5e9" fill-opacity="0.5" stroke="#606060" stroke-width="1.0"/>
           <path id="arrow"
             d="M 11.500037,31.436501 C 11.940474,20.09759 22.043105,11.32322 32.158766,21.979434 L 37.068811,17.246167 C 37.068811,17.246167 37.088388,32 37.088388,32 L 22.160133,31.978069 C 22.160133,31.978069 26.997745,27.140456 26.997745,27.140456 C 18.528582,18.264221 13.291696,25.230495 11.500037,31.436501 z"
             style="fill:#404040;"/>
          </a>
         </g>
        </svg>
</svg>
