<?xml version="1.0" encoding="UTF-8" standalone="no"?>
<!DOCTYPE svg PUBLIC "-//W3C//DTD SVG 1.1//EN"
 "http://www.w3.org/Graphics/SVG/1.1/DTD/svg11.dtd">
<!-- Generated by graphviz version 2.43.0 (0)
 -->
<!-- Title: src/core/CoreUtils.hpp Pages: 1 -->
<svg width="4956pt" height="229pt"
 viewBox="0.00 0.00 4956.00 229.00" xmlns="http://www.w3.org/2000/svg" xmlns:xlink="http://www.w3.org/1999/xlink">
<g id="graph0" class="graph" transform="scale(1 1) rotate(0) translate(4 225)">
<title>src/core/CoreUtils.hpp</title>
<polygon fill="white" stroke="transparent" points="-4,4 -4,-225 4952,-225 4952,4 -4,4"/>
<!-- Node1 -->
<g id="node1" class="node">
<title>Node1</title>
<g id="a_node1"><a xlink:title=" ">
<polygon fill="#bfbfbf" stroke="black" points="3422.5,-201.5 3422.5,-220.5 3546.5,-220.5 3546.5,-201.5 3422.5,-201.5"/>
<text text-anchor="middle" x="3484.5" y="-208.5" font-family="Helvetica,sans-Serif" font-size="10.00">src/core/CoreUtils.hpp</text>
</a>
</g>
</g>
<!-- Node2 -->
<g id="node2" class="node">
<title>Node2</title>
<g id="a_node2"><a xlink:href="../../df/db8/kernel_8hpp.html" target="_top" xlink:title=" ">
<polygon fill="white" stroke="black" points="1448,-140 1448,-159 1557,-159 1557,-140 1448,-140"/>
<text text-anchor="middle" x="1502.5" y="-147" font-family="Helvetica,sans-Serif" font-size="10.00">src/core/kernel.hpp</text>
</a>
</g>
</g>
<!-- Node1&#45;&gt;Node2 -->
<g id="edge1" class="edge">
<title>Node1&#45;&gt;Node2</title>
<path fill="none" stroke="midnightblue" d="M3412.03,-207.82C3095.2,-198.31 1835.2,-160.49 1557.03,-152.14"/>
<polygon fill="midnightblue" stroke="midnightblue" points="3412.36,-211.34 3422.46,-208.14 3412.57,-204.34 3412.36,-211.34"/>
</g>
<!-- Node5 -->
<g id="node5" class="node">
<title>Node5</title>
<g id="a_node5"><a xlink:href="../../d4/dd4/CoreUtils_8cpp.html" target="_top" xlink:title=" ">
<polygon fill="white" stroke="black" points="0,-73 0,-92 123,-92 123,-73 0,-73"/>
<text text-anchor="middle" x="61.5" y="-80" font-family="Helvetica,sans-Serif" font-size="10.00">src/core/CoreUtils.cpp</text>
</a>
</g>
</g>
<!-- Node1&#45;&gt;Node5 -->
<g id="edge23" class="edge">
<title>Node1&#45;&gt;Node5</title>
<path fill="none" stroke="midnightblue" d="M3412.22,-209.85C3030.27,-208.89 1243.5,-202.43 691.5,-165 441.85,-148.07 379.51,-137.96 132.5,-98 122.07,-96.31 110.84,-94.17 100.46,-92.06"/>
<polygon fill="midnightblue" stroke="midnightblue" points="3412.31,-213.35 3422.32,-209.87 3412.33,-206.35 3412.31,-213.35"/>
</g>
<!-- Node10 -->
<g id="node10" class="node">
<title>Node10</title>
<g id="a_node10"><a xlink:href="../../d4/d28/RemoteControl_8cpp.html" target="_top" xlink:title=" ">
<polygon fill="white" stroke="black" points="141.5,-73 141.5,-92 293.5,-92 293.5,-73 141.5,-73"/>
<text text-anchor="middle" x="217.5" y="-80" font-family="Helvetica,sans-Serif" font-size="10.00">src/core/RemoteControl.cpp</text>
</a>
</g>
</g>
<!-- Node1&#45;&gt;Node10 -->
<g id="edge24" class="edge">
<title>Node1&#45;&gt;Node10</title>
<path fill="none" stroke="midnightblue" d="M3411.87,-209.37C3147.36,-206.88 2210.53,-196.25 1438.5,-165 933.15,-144.55 804.99,-155.5 302.5,-98 289.26,-96.49 274.96,-94.27 261.92,-92.03"/>
<polygon fill="midnightblue" stroke="midnightblue" points="3412.08,-212.87 3422.11,-209.47 3412.15,-205.87 3412.08,-212.87"/>
</g>
<!-- Node15 -->
<g id="node15" class="node">
<title>Node15</title>
<g id="a_node15"><a xlink:href="../../df/dac/AuthDBModule_8cpp.html" target="_top" xlink:title=" ">
<polygon fill="white" stroke="black" points="2586.5,-67.5 2586.5,-97.5 2714.5,-97.5 2714.5,-67.5 2586.5,-67.5"/>
<text text-anchor="start" x="2594.5" y="-85.5" font-family="Helvetica,sans-Serif" font-size="10.00">src/modules/auth/auth</text>
<text text-anchor="middle" x="2650.5" y="-74.5" font-family="Helvetica,sans-Serif" font-size="10.00">&#45;db/AuthDBModule.cpp</text>
</a>
</g>
</g>
<!-- Node1&#45;&gt;Node15 -->
<g id="edge25" class="edge">
<title>Node1&#45;&gt;Node15</title>
<path fill="none" stroke="midnightblue" d="M3412.2,-209.85C3301.43,-208.41 3083.52,-200.75 2902.5,-165 2822.88,-149.28 2733.26,-116.49 2685.28,-97.65"/>
<polygon fill="midnightblue" stroke="midnightblue" points="3412.22,-213.35 3422.26,-209.97 3412.3,-206.35 3412.22,-213.35"/>
</g>
<!-- Node16 -->
<g id="node16" class="node">
<title>Node16</title>
<g id="a_node16"><a xlink:href="../../d8/d37/AuthFileModule_8cpp.html" target="_top" xlink:title=" ">
<polygon fill="white" stroke="black" points="2732.5,-67.5 2732.5,-97.5 2866.5,-97.5 2866.5,-67.5 2732.5,-67.5"/>
<text text-anchor="start" x="2740.5" y="-85.5" font-family="Helvetica,sans-Serif" font-size="10.00">src/modules/auth/auth</text>
<text text-anchor="middle" x="2799.5" y="-74.5" font-family="Helvetica,sans-Serif" font-size="10.00">&#45;file/AuthFileModule.cpp</text>
</a>
</g>
</g>
<!-- Node1&#45;&gt;Node16 -->
<g id="edge27" class="edge">
<title>Node1&#45;&gt;Node16</title>
<path fill="none" stroke="midnightblue" d="M3411.83,-210.29C3314.79,-209.11 3138.21,-201.49 2992.5,-165 2930.05,-149.36 2861.69,-116.39 2825.45,-97.53"/>
<polygon fill="midnightblue" stroke="midnightblue" points="3412.08,-213.79 3422.12,-210.39 3412.15,-206.79 3412.08,-213.79"/>
</g>
<!-- Node22 -->
<g id="node22" class="node">
<title>Node22</title>
<g id="a_node22"><a xlink:href="../../d9/d8d/APISession_8cpp.html" target="_top" xlink:title=" ">
<polygon fill="white" stroke="black" points="2884.5,-67.5 2884.5,-97.5 3014.5,-97.5 3014.5,-67.5 2884.5,-67.5"/>
<text text-anchor="start" x="2892.5" y="-85.5" font-family="Helvetica,sans-Serif" font-size="10.00">src/modules/websock</text>
<text text-anchor="middle" x="2949.5" y="-74.5" font-family="Helvetica,sans-Serif" font-size="10.00">&#45;api/api/APISession.cpp</text>
</a>
</g>
</g>
<!-- Node1&#45;&gt;Node22 -->
<g id="edge36" class="edge">
<title>Node1&#45;&gt;Node22</title>
<path fill="none" stroke="midnightblue" d="M3412.16,-208.14C3303.6,-204.44 3104.37,-193.84 3039.5,-165 3005.41,-149.84 2975.43,-116.68 2960.18,-97.66"/>
<polygon fill="midnightblue" stroke="midnightblue" points="3412.26,-211.65 3422.37,-208.48 3412.49,-204.65 3412.26,-211.65"/>
</g>
<!-- Node24 -->
<g id="node24" class="node">
<title>Node24</title>
<g id="a_node24"><a xlink:href="../../da/d9b/AuthFileInstance_8cpp.html" target="_top" xlink:title=" ">
<polygon fill="white" stroke="black" points="3246.5,-134.5 3246.5,-164.5 3386.5,-164.5 3386.5,-134.5 3246.5,-134.5"/>
<text text-anchor="start" x="3254.5" y="-152.5" font-family="Helvetica,sans-Serif" font-size="10.00">src/modules/auth/auth</text>
<text text-anchor="middle" x="3316.5" y="-141.5" font-family="Helvetica,sans-Serif" font-size="10.00">&#45;file/AuthFileInstance.cpp</text>
</a>
</g>
</g>
<!-- Node1&#45;&gt;Node24 -->
<g id="edge26" class="edge">
<title>Node1&#45;&gt;Node24</title>
<path fill="none" stroke="midnightblue" d="M3450.91,-198.1C3423.57,-188.42 3384.93,-174.74 3356.09,-164.52"/>
<polygon fill="midnightblue" stroke="midnightblue" points="3449.83,-201.44 3460.43,-201.48 3452.17,-194.84 3449.83,-201.44"/>
</g>
<!-- Node25 -->
<g id="node25" class="node">
<title>Node25</title>
<g id="a_node25"><a xlink:href="../../de/d21/BaseModule_8cpp.html" target="_top" xlink:title=" ">
<polygon fill="white" stroke="black" points="3405,-140 3405,-159 3564,-159 3564,-140 3405,-140"/>
<text text-anchor="middle" x="3484.5" y="-147" font-family="Helvetica,sans-Serif" font-size="10.00">src/modules/BaseModule.cpp</text>
</a>
</g>
</g>
<!-- Node1&#45;&gt;Node25 -->
<g id="edge28" class="edge">
<title>Node1&#45;&gt;Node25</title>
<path fill="none" stroke="midnightblue" d="M3484.5,-191.32C3484.5,-180.5 3484.5,-167.4 3484.5,-159.01"/>
<polygon fill="midnightblue" stroke="midnightblue" points="3481,-191.48 3484.5,-201.48 3488,-191.48 3481,-191.48"/>
</g>
<!-- Node26 -->
<g id="node26" class="node">
<title>Node26</title>
<g id="a_node26"><a xlink:href="../../d6/d95/PFDigitalModule_8cpp.html" target="_top" xlink:title=" ">
<polygon fill="white" stroke="black" points="3504.5,-0.5 3504.5,-30.5 3644.5,-30.5 3644.5,-0.5 3504.5,-0.5"/>
<text text-anchor="start" x="3512.5" y="-18.5" font-family="Helvetica,sans-Serif" font-size="10.00">src/modules/pifacedigital</text>
<text text-anchor="middle" x="3574.5" y="-7.5" font-family="Helvetica,sans-Serif" font-size="10.00">/PFDigitalModule.cpp</text>
</a>
</g>
</g>
<!-- Node1&#45;&gt;Node26 -->
<g id="edge29" class="edge">
<title>Node1&#45;&gt;Node26</title>
<path fill="none" stroke="midnightblue" d="M3411.97,-209.82C3321.79,-207.14 3185.66,-193.54 3237.5,-134 3275.66,-90.17 3444.76,-124.46 3496.5,-98 3512.46,-89.84 3545.46,-51.7 3562.98,-30.61"/>
<polygon fill="midnightblue" stroke="midnightblue" points="3412.09,-213.32 3422.18,-210.08 3412.28,-206.33 3412.09,-213.32"/>
</g>
<!-- Node27 -->
<g id="node27" class="node">
<title>Node27</title>
<g id="a_node27"><a xlink:href="../../db/df9/ReplicationModule_8hpp.html" target="_top" xlink:title=" ">
<polygon fill="white" stroke="black" points="3582,-134.5 3582,-164.5 3713,-164.5 3713,-134.5 3582,-134.5"/>
<text text-anchor="start" x="3590" y="-152.5" font-family="Helvetica,sans-Serif" font-size="10.00">src/modules/replication</text>
<text text-anchor="middle" x="3647.5" y="-141.5" font-family="Helvetica,sans-Serif" font-size="10.00">/ReplicationModule.hpp</text>
</a>
</g>
</g>
<!-- Node1&#45;&gt;Node27 -->
<g id="edge30" class="edge">
<title>Node1&#45;&gt;Node27</title>
<path fill="none" stroke="midnightblue" d="M3517.44,-197.98C3543.94,-188.3 3581.23,-174.69 3609.08,-164.52"/>
<polygon fill="midnightblue" stroke="midnightblue" points="3516.05,-194.76 3507.85,-201.48 3518.45,-201.33 3516.05,-194.76"/>
</g>
<!-- Node29 -->
<g id="node29" class="node">
<title>Node29</title>
<g id="a_node29"><a xlink:href="../../d2/dac/ReplicationModule_8cpp.html" target="_top" xlink:title=" ">
<polygon fill="white" stroke="black" points="3693,-67.5 3693,-97.5 3824,-97.5 3824,-67.5 3693,-67.5"/>
<text text-anchor="start" x="3701" y="-85.5" font-family="Helvetica,sans-Serif" font-size="10.00">src/modules/replication</text>
<text text-anchor="middle" x="3758.5" y="-74.5" font-family="Helvetica,sans-Serif" font-size="10.00">/ReplicationModule.cpp</text>
</a>
</g>
</g>
<!-- Node1&#45;&gt;Node29 -->
<g id="edge33" class="edge">
<title>Node1&#45;&gt;Node29</title>
<path fill="none" stroke="midnightblue" d="M3556.88,-203.58C3616.92,-196.95 3696.37,-184.76 3721.5,-165 3742.88,-148.2 3752.32,-116.28 3756.15,-97.77"/>
<polygon fill="midnightblue" stroke="midnightblue" points="3556.24,-200.13 3546.67,-204.67 3556.99,-207.09 3556.24,-200.13"/>
</g>
<!-- Node30 -->
<g id="node30" class="node">
<title>Node30</title>
<g id="a_node30"><a xlink:href="../../da/d6f/SMTPModule_8cpp.html" target="_top" xlink:title=" ">
<polygon fill="white" stroke="black" points="3769.5,-140 3769.5,-159 3959.5,-159 3959.5,-140 3769.5,-140"/>
<text text-anchor="middle" x="3864.5" y="-147" font-family="Helvetica,sans-Serif" font-size="10.00">src/modules/smtp/SMTPModule.cpp</text>
</a>
</g>
</g>
<!-- Node1&#45;&gt;Node30 -->
<g id="edge34" class="edge">
<title>Node1&#45;&gt;Node30</title>
<path fill="none" stroke="midnightblue" d="M3549,-199.9C3622.46,-188.4 3741.21,-169.8 3810.16,-159.01"/>
<polygon fill="midnightblue" stroke="midnightblue" points="3548.28,-196.47 3538.94,-201.48 3549.37,-203.39 3548.28,-196.47"/>
</g>
<!-- Node31 -->
<g id="node31" class="node">
<title>Node31</title>
<g id="a_node31"><a xlink:href="../../d7/d86/APIAuth_8cpp.html" target="_top" xlink:title=" ">
<polygon fill="white" stroke="black" points="3977.5,-134.5 3977.5,-164.5 4099.5,-164.5 4099.5,-134.5 3977.5,-134.5"/>
<text text-anchor="start" x="3985.5" y="-152.5" font-family="Helvetica,sans-Serif" font-size="10.00">src/modules/websock</text>
<text text-anchor="middle" x="4038.5" y="-141.5" font-family="Helvetica,sans-Serif" font-size="10.00">&#45;api/api/APIAuth.cpp</text>
</a>
</g>
</g>
<!-- Node1&#45;&gt;Node31 -->
<g id="edge35" class="edge">
<title>Node1&#45;&gt;Node31</title>
<path fill="none" stroke="midnightblue" d="M3556.71,-205.81C3651.57,-199.73 3823.15,-186.74 3968.5,-165 3971.45,-164.56 3974.45,-164.07 3977.49,-163.56"/>
<polygon fill="midnightblue" stroke="midnightblue" points="3556.41,-202.32 3546.65,-206.45 3556.85,-209.31 3556.41,-202.32"/>
</g>
<!-- Node32 -->
<g id="node32" class="node">
<title>Node32</title>
<g id="a_node32"><a xlink:href="../../da/d62/AuditGet_8cpp.html" target="_top" xlink:title=" ">
<polygon fill="white" stroke="black" points="4117.5,-134.5 4117.5,-164.5 4239.5,-164.5 4239.5,-134.5 4117.5,-134.5"/>
<text text-anchor="start" x="4125.5" y="-152.5" font-family="Helvetica,sans-Serif" font-size="10.00">src/modules/websock</text>
<text text-anchor="middle" x="4178.5" y="-141.5" font-family="Helvetica,sans-Serif" font-size="10.00">&#45;api/api/AuditGet.cpp</text>
</a>
</g>
</g>
<!-- Node1&#45;&gt;Node32 -->
<g id="edge37" class="edge">
<title>Node1&#45;&gt;Node32</title>
<path fill="none" stroke="midnightblue" d="M3557.01,-207.88C3673.68,-203.78 3910.09,-192.58 4108.5,-165 4111.45,-164.59 4114.46,-164.13 4117.5,-163.63"/>
<polygon fill="midnightblue" stroke="midnightblue" points="3556.66,-204.39 3546.78,-208.23 3556.9,-211.39 3556.66,-204.39"/>
</g>
<!-- Node33 -->
<g id="node33" class="node">
<title>Node33</title>
<g id="a_node33"><a xlink:href="../../d1/d43/Restart_8cpp.html" target="_top" xlink:title=" ">
<polygon fill="white" stroke="black" points="4257.5,-134.5 4257.5,-164.5 4379.5,-164.5 4379.5,-134.5 4257.5,-134.5"/>
<text text-anchor="start" x="4265.5" y="-152.5" font-family="Helvetica,sans-Serif" font-size="10.00">src/modules/websock</text>
<text text-anchor="middle" x="4318.5" y="-141.5" font-family="Helvetica,sans-Serif" font-size="10.00">&#45;api/api/Restart.cpp</text>
</a>
</g>
</g>
<!-- Node1&#45;&gt;Node33 -->
<g id="edge38" class="edge">
<title>Node1&#45;&gt;Node33</title>
<path fill="none" stroke="midnightblue" d="M3556.98,-209.23C3693.07,-207.02 3995.92,-198.42 4248.5,-165 4251.33,-164.63 4254.22,-164.2 4257.13,-163.74"/>
<polygon fill="midnightblue" stroke="midnightblue" points="3556.63,-205.74 3546.68,-209.39 3556.74,-212.74 3556.63,-205.74"/>
</g>
<!-- Node34 -->
<g id="node34" class="node">
<title>Node34</title>
<g id="a_node34"><a xlink:href="../../d9/d6b/WebSockAPI_8cpp.html" target="_top" xlink:title=" ">
<polygon fill="white" stroke="black" points="4397.5,-134.5 4397.5,-164.5 4519.5,-164.5 4519.5,-134.5 4397.5,-134.5"/>
<text text-anchor="start" x="4405.5" y="-152.5" font-family="Helvetica,sans-Serif" font-size="10.00">src/modules/websock</text>
<text text-anchor="middle" x="4458.5" y="-141.5" font-family="Helvetica,sans-Serif" font-size="10.00">&#45;api/WebSockAPI.cpp</text>
</a>
</g>
</g>
<!-- Node1&#45;&gt;Node34 -->
<g id="edge39" class="edge">
<title>Node1&#45;&gt;Node34</title>
<path fill="none" stroke="midnightblue" d="M3556.97,-210.18C3710.81,-209.73 4081.09,-204.25 4388.5,-165 4391.33,-164.64 4394.22,-164.22 4397.13,-163.77"/>
<polygon fill="midnightblue" stroke="midnightblue" points="3556.71,-206.68 3546.72,-210.2 3556.72,-213.68 3556.71,-206.68"/>
</g>
<!-- Node35 -->
<g id="node35" class="node">
<title>Node35</title>
<g id="a_node35"><a xlink:href="../../da/df4/websock-api_2WSHelperThread_8hpp.html" target="_top" xlink:title=" ">
<polygon fill="white" stroke="black" points="3049,-134.5 3049,-164.5 3190,-164.5 3190,-134.5 3049,-134.5"/>
<text text-anchor="start" x="3057" y="-152.5" font-family="Helvetica,sans-Serif" font-size="10.00">src/modules/websock</text>
<text text-anchor="middle" x="3119.5" y="-141.5" font-family="Helvetica,sans-Serif" font-size="10.00">&#45;api/WSHelperThread.hpp</text>
</a>
</g>
</g>
<!-- Node1&#45;&gt;Node35 -->
<g id="edge40" class="edge">
<title>Node1&#45;&gt;Node35</title>
<path fill="none" stroke="midnightblue" d="M3420.63,-199.91C3363.86,-190.91 3278.62,-177.28 3204.5,-165 3199.92,-164.24 3195.21,-163.45 3190.45,-162.66"/>
<polygon fill="midnightblue" stroke="midnightblue" points="3420.11,-203.38 3430.54,-201.48 3421.21,-196.46 3420.11,-203.38"/>
</g>
<!-- Node42 -->
<g id="node42" class="node">
<title>Node42</title>
<g id="a_node42"><a xlink:href="../../d4/d2c/WSServer_8cpp.html" target="_top" xlink:title=" ">
<polygon fill="white" stroke="black" points="4537.5,-134.5 4537.5,-164.5 4659.5,-164.5 4659.5,-134.5 4537.5,-134.5"/>
<text text-anchor="start" x="4545.5" y="-152.5" font-family="Helvetica,sans-Serif" font-size="10.00">src/modules/websock</text>
<text text-anchor="middle" x="4598.5" y="-141.5" font-family="Helvetica,sans-Serif" font-size="10.00">&#45;api/WSServer.cpp</text>
</a>
</g>
</g>
<!-- Node1&#45;&gt;Node42 -->
<g id="edge50" class="edge">
<title>Node1&#45;&gt;Node42</title>
<path fill="none" stroke="midnightblue" d="M3556.76,-208.4C3761.01,-203.65 4339.95,-188.44 4528.5,-165 4531.33,-164.65 4534.22,-164.24 4537.13,-163.79"/>
<polygon fill="midnightblue" stroke="midnightblue" points="3556.66,-204.9 3546.74,-208.63 3556.82,-211.9 3556.66,-204.9"/>
</g>
<!-- Node43 -->
<g id="node43" class="node">
<title>Node43</title>
<g id="a_node43"><a xlink:href="../../d8/dfd/TestHelper_8hpp.html" target="_top" xlink:title=" ">
<polygon fill="white" stroke="black" points="4677.5,-140 4677.5,-159 4821.5,-159 4821.5,-140 4677.5,-140"/>
<text text-anchor="middle" x="4749.5" y="-147" font-family="Helvetica,sans-Serif" font-size="10.00">test/helper/TestHelper.hpp</text>
</a>
</g>
</g>
<!-- Node1&#45;&gt;Node43 -->
<g id="edge51" class="edge">
<title>Node1&#45;&gt;Node43</title>
<path fill="none" stroke="midnightblue" d="M3556.83,-210.74C3742.21,-211.89 4249.25,-210.27 4668.5,-165 4681.43,-163.6 4695.4,-161.37 4708.04,-159.07"/>
<polygon fill="midnightblue" stroke="midnightblue" points="3556.69,-207.24 3546.67,-210.68 3556.64,-214.24 3556.69,-207.24"/>
</g>
<!-- Node3 -->
<g id="node3" class="node">
<title>Node3</title>
<g id="a_node3"><a xlink:href="../../d6/dff/src_2core_2config_2ConfigManager_8cpp.html" target="_top" xlink:title=" ">
<polygon fill="white" stroke="black" points="452,-73 452,-92 635,-92 635,-73 452,-73"/>
<text text-anchor="middle" x="543.5" y="-80" font-family="Helvetica,sans-Serif" font-size="10.00">src/core/config/ConfigManager.cpp</text>
</a>
</g>
</g>
<!-- Node2&#45;&gt;Node3 -->
<g id="edge2" class="edge">
<title>Node2&#45;&gt;Node3</title>
<path fill="none" stroke="midnightblue" d="M1437.55,-146.54C1294.15,-141.79 939.78,-127.83 644.5,-98 628.99,-96.43 612.21,-94.23 596.86,-92.01"/>
<polygon fill="midnightblue" stroke="midnightblue" points="1437.81,-150.05 1447.92,-146.87 1438.04,-143.05 1437.81,-150.05"/>
</g>
<!-- Node4 -->
<g id="node4" class="node">
<title>Node4</title>
<g id="a_node4"><a xlink:href="../../d3/d1e/CoreAPI_8cpp.html" target="_top" xlink:title=" ">
<polygon fill="white" stroke="black" points="653.5,-73 653.5,-92 769.5,-92 769.5,-73 653.5,-73"/>
<text text-anchor="middle" x="711.5" y="-80" font-family="Helvetica,sans-Serif" font-size="10.00">src/core/CoreAPI.cpp</text>
</a>
</g>
</g>
<!-- Node2&#45;&gt;Node4 -->
<g id="edge3" class="edge">
<title>Node2&#45;&gt;Node4</title>
<path fill="none" stroke="midnightblue" d="M1437.39,-147.09C1310.17,-143.63 1019.95,-132.37 778.5,-98 768.01,-96.51 756.72,-94.3 746.45,-92.06"/>
<polygon fill="midnightblue" stroke="midnightblue" points="1437.64,-150.59 1447.72,-147.36 1437.82,-143.6 1437.64,-150.59"/>
</g>
<!-- Node2&#45;&gt;Node5 -->
<g id="edge4" class="edge">
<title>Node2&#45;&gt;Node5</title>
<path fill="none" stroke="midnightblue" d="M1437.56,-147.52C1201.59,-143.76 389.96,-128.82 132.5,-98 121.01,-96.62 108.61,-94.36 97.43,-92.03"/>
<polygon fill="midnightblue" stroke="midnightblue" points="1437.64,-151.03 1447.7,-147.69 1437.75,-144.03 1437.64,-151.03"/>
</g>
<!-- Node6 -->
<g id="node6" class="node">
<title>Node6</title>
<g id="a_node6"><a xlink:href="../../d9/d6a/GetServiceRegistry_8cpp.html" target="_top" xlink:title=" ">
<polygon fill="white" stroke="black" points="787.5,-73 787.5,-92 957.5,-92 957.5,-73 787.5,-73"/>
<text text-anchor="middle" x="872.5" y="-80" font-family="Helvetica,sans-Serif" font-size="10.00">src/core/GetServiceRegistry.cpp</text>
</a>
</g>
</g>
<!-- Node2&#45;&gt;Node6 -->
<g id="edge5" class="edge">
<title>Node2&#45;&gt;Node6</title>
<path fill="none" stroke="midnightblue" d="M1437.96,-143.66C1337.13,-135.82 1136.21,-119.07 966.5,-98 952.74,-96.29 937.88,-94.14 924.14,-92.03"/>
<polygon fill="midnightblue" stroke="midnightblue" points="1437.74,-147.15 1447.98,-144.43 1438.28,-140.17 1437.74,-147.15"/>
</g>
<!-- Node7 -->
<g id="node7" class="node">
<title>Node7</title>
<g id="a_node7"><a xlink:href="../../dd/d24/kernel_8cpp.html" target="_top" xlink:title=" ">
<polygon fill="white" stroke="black" points="975.5,-73 975.5,-92 1083.5,-92 1083.5,-73 975.5,-73"/>
<text text-anchor="middle" x="1029.5" y="-80" font-family="Helvetica,sans-Serif" font-size="10.00">src/core/kernel.cpp</text>
</a>
</g>
</g>
<!-- Node2&#45;&gt;Node7 -->
<g id="edge6" class="edge">
<title>Node2&#45;&gt;Node7</title>
<path fill="none" stroke="midnightblue" d="M1437.48,-142.13C1357.27,-133.88 1216.86,-118.13 1097.5,-98 1087.5,-96.31 1076.74,-94.17 1066.8,-92.06"/>
<polygon fill="midnightblue" stroke="midnightblue" points="1437.61,-145.67 1447.91,-143.2 1438.32,-138.7 1437.61,-145.67"/>
</g>
<!-- Node8 -->
<g id="node8" class="node">
<title>Node8</title>
<g id="a_node8"><a xlink:href="../../d9/d4a/module__manager_8cpp.html" target="_top" xlink:title=" ">
<polygon fill="white" stroke="black" points="1140,-73 1140,-92 1303,-92 1303,-73 1140,-73"/>
<text text-anchor="middle" x="1221.5" y="-80" font-family="Helvetica,sans-Serif" font-size="10.00">src/core/module_manager.cpp</text>
</a>
</g>
</g>
<!-- Node2&#45;&gt;Node8 -->
<g id="edge7" class="edge">
<title>Node2&#45;&gt;Node8</title>
<path fill="none" stroke="midnightblue" d="M1455.57,-137.64C1400.2,-124.84 1309.3,-103.81 1258.61,-92.08"/>
<polygon fill="midnightblue" stroke="midnightblue" points="1454.94,-141.09 1465.48,-139.94 1456.52,-134.27 1454.94,-141.09"/>
</g>
<!-- Node9 -->
<g id="node9" class="node">
<title>Node9</title>
<g id="a_node9"><a xlink:href="../../d2/d2a/networkconfig_8cpp.html" target="_top" xlink:title="NetworkConfig class implementation.">
<polygon fill="white" stroke="black" points="1843,-67.5 1843,-97.5 1952,-97.5 1952,-67.5 1843,-67.5"/>
<text text-anchor="start" x="1851" y="-85.5" font-family="Helvetica,sans-Serif" font-size="10.00">src/core/netconfig</text>
<text text-anchor="middle" x="1897.5" y="-74.5" font-family="Helvetica,sans-Serif" font-size="10.00">/networkconfig.cpp</text>
</a>
</g>
</g>
<!-- Node2&#45;&gt;Node9 -->
<g id="edge8" class="edge">
<title>Node2&#45;&gt;Node9</title>
<path fill="none" stroke="midnightblue" d="M1567.15,-140.03C1634.04,-130.94 1741.42,-115.43 1833.5,-98 1836.52,-97.43 1839.62,-96.82 1842.74,-96.18"/>
<polygon fill="midnightblue" stroke="midnightblue" points="1566.61,-136.57 1557.17,-141.38 1567.55,-143.51 1566.61,-136.57"/>
</g>
<!-- Node2&#45;&gt;Node10 -->
<g id="edge9" class="edge">
<title>Node2&#45;&gt;Node10</title>
<path fill="none" stroke="midnightblue" d="M1437.63,-146C1196,-136.65 359.23,-104.01 302.5,-98 288.95,-96.57 274.3,-94.32 261.03,-92.02"/>
<polygon fill="midnightblue" stroke="midnightblue" points="1437.54,-149.5 1447.67,-146.39 1437.81,-142.5 1437.54,-149.5"/>
</g>
<!-- Node11 -->
<g id="node11" class="node">
<title>Node11</title>
<g id="a_node11"><a xlink:href="../../df/dca/GetLocalConfigVersion_8cpp.html" target="_top" xlink:title=" ">
<polygon fill="white" stroke="black" points="1970,-67.5 1970,-97.5 2131,-97.5 2131,-67.5 1970,-67.5"/>
<text text-anchor="start" x="1978" y="-85.5" font-family="Helvetica,sans-Serif" font-size="10.00">src/core/tasks/GetLocalConfig</text>
<text text-anchor="middle" x="2050.5" y="-74.5" font-family="Helvetica,sans-Serif" font-size="10.00">Version.cpp</text>
</a>
</g>
</g>
<!-- Node2&#45;&gt;Node11 -->
<g id="edge10" class="edge">
<title>Node2&#45;&gt;Node11</title>
<path fill="none" stroke="midnightblue" d="M1567.44,-142.37C1656.32,-133.74 1820.77,-116.95 1960.5,-98 1963.48,-97.6 1966.51,-97.17 1969.58,-96.73"/>
<polygon fill="midnightblue" stroke="midnightblue" points="1566.86,-138.91 1557.25,-143.36 1567.54,-145.88 1566.86,-138.91"/>
</g>
<!-- Node12 -->
<g id="node12" class="node">
<title>Node12</title>
<g id="a_node12"><a xlink:href="../../d7/d6f/GetRemoteConfigVersion_8cpp.html" target="_top" xlink:title=" ">
<polygon fill="white" stroke="black" points="2149,-67.5 2149,-97.5 2292,-97.5 2292,-67.5 2149,-67.5"/>
<text text-anchor="start" x="2157" y="-85.5" font-family="Helvetica,sans-Serif" font-size="10.00">src/core/tasks/GetRemote</text>
<text text-anchor="middle" x="2220.5" y="-74.5" font-family="Helvetica,sans-Serif" font-size="10.00">ConfigVersion.cpp</text>
</a>
</g>
</g>
<!-- Node2&#45;&gt;Node12 -->
<g id="edge11" class="edge">
<title>Node2&#45;&gt;Node12</title>
<path fill="none" stroke="midnightblue" d="M1567.3,-145.47C1682.69,-139.59 1931.23,-124.83 2139.5,-98 2142.48,-97.62 2145.51,-97.2 2148.57,-96.75"/>
<polygon fill="midnightblue" stroke="midnightblue" points="1567.03,-141.97 1557.22,-145.97 1567.38,-148.97 1567.03,-141.97"/>
</g>
<!-- Node13 -->
<g id="node13" class="node">
<title>Node13</title>
<g id="a_node13"><a xlink:href="../../d5/d8e/SyncConfig_8cpp.html" target="_top" xlink:title=" ">
<polygon fill="white" stroke="black" points="2310,-73 2310,-92 2471,-92 2471,-73 2310,-73"/>
<text text-anchor="middle" x="2390.5" y="-80" font-family="Helvetica,sans-Serif" font-size="10.00">src/core/tasks/SyncConfig.cpp</text>
</a>
</g>
</g>
<!-- Node2&#45;&gt;Node13 -->
<g id="edge12" class="edge">
<title>Node2&#45;&gt;Node13</title>
<path fill="none" stroke="midnightblue" d="M1567.59,-146.51C1703.9,-141.88 2029.24,-128.36 2300.5,-98 2314.34,-96.45 2329.3,-94.25 2342.98,-92.04"/>
<polygon fill="midnightblue" stroke="midnightblue" points="1567.2,-143.02 1557.32,-146.85 1567.43,-150.02 1567.2,-143.02"/>
</g>
<!-- Node14 -->
<g id="node14" class="node">
<title>Node14</title>
<g id="a_node14"><a xlink:href="../../df/d0a/main_8cpp.html" target="_top" xlink:title="standard main">
<polygon fill="white" stroke="black" points="2489,-73 2489,-92 2568,-92 2568,-73 2489,-73"/>
<text text-anchor="middle" x="2528.5" y="-80" font-family="Helvetica,sans-Serif" font-size="10.00">src/main.cpp</text>
</a>
</g>
</g>
<!-- Node2&#45;&gt;Node14 -->
<g id="edge13" class="edge">
<title>Node2&#45;&gt;Node14</title>
<path fill="none" stroke="midnightblue" d="M1567.08,-147.15C1755.65,-142.89 2303.2,-128.2 2479.5,-98 2487.54,-96.62 2496.14,-94.36 2503.84,-92.03"/>
<polygon fill="midnightblue" stroke="midnightblue" points="1566.97,-143.65 1557.05,-147.37 1567.12,-150.65 1566.97,-143.65"/>
</g>
<!-- Node2&#45;&gt;Node15 -->
<g id="edge14" class="edge">
<title>Node2&#45;&gt;Node15</title>
<path fill="none" stroke="midnightblue" d="M1567.36,-148.75C1734.97,-148.69 2196,-143.97 2576.5,-98 2579.75,-97.61 2583.07,-97.15 2586.42,-96.65"/>
<polygon fill="midnightblue" stroke="midnightblue" points="1567.22,-145.25 1557.22,-148.75 1567.22,-152.25 1567.22,-145.25"/>
</g>
<!-- Node2&#45;&gt;Node16 -->
<g id="edge15" class="edge">
<title>Node2&#45;&gt;Node16</title>
<path fill="none" stroke="midnightblue" d="M1567.42,-149.17C1750.11,-150.32 2283.9,-148.75 2723.5,-98 2726.44,-97.66 2729.43,-97.27 2732.45,-96.85"/>
<polygon fill="midnightblue" stroke="midnightblue" points="1567.21,-145.67 1557.18,-149.1 1567.16,-152.67 1567.21,-145.67"/>
</g>
<!-- Node17 -->
<g id="node17" class="node">
<title>Node17</title>
<g id="a_node17"><a xlink:href="../../d0/d58/DoormanModule_8cpp.html" target="_top" xlink:title=" ">
<polygon fill="white" stroke="black" points="311.5,-67.5 311.5,-97.5 433.5,-97.5 433.5,-67.5 311.5,-67.5"/>
<text text-anchor="start" x="319.5" y="-85.5" font-family="Helvetica,sans-Serif" font-size="10.00">src/modules/doorman</text>
<text text-anchor="middle" x="372.5" y="-74.5" font-family="Helvetica,sans-Serif" font-size="10.00">/DoormanModule.cpp</text>
</a>
</g>
</g>
<!-- Node2&#45;&gt;Node17 -->
<g id="edge16" class="edge">
<title>Node2&#45;&gt;Node17</title>
<path fill="none" stroke="midnightblue" d="M1437.51,-146C1222.27,-137.63 540.79,-110.44 442.5,-98 439.67,-97.64 436.78,-97.23 433.87,-96.78"/>
<polygon fill="midnightblue" stroke="midnightblue" points="1437.58,-149.5 1447.7,-146.39 1437.85,-142.51 1437.58,-149.5"/>
</g>
<!-- Node18 -->
<g id="node18" class="node">
<title>Node18</title>
<g id="a_node18"><a xlink:href="../../d7/d36/LEDBuzzerModule_8cpp.html" target="_top" xlink:title=" ">
<polygon fill="white" stroke="black" points="1897.5,-0.5 1897.5,-30.5 2027.5,-30.5 2027.5,-0.5 1897.5,-0.5"/>
<text text-anchor="start" x="1905.5" y="-18.5" font-family="Helvetica,sans-Serif" font-size="10.00">src/modules/led&#45;buzzer</text>
<text text-anchor="middle" x="1962.5" y="-7.5" font-family="Helvetica,sans-Serif" font-size="10.00">/LEDBuzzerModule.cpp</text>
</a>
</g>
</g>
<!-- Node2&#45;&gt;Node18 -->
<g id="edge17" class="edge">
<title>Node2&#45;&gt;Node18</title>
<path fill="none" stroke="midnightblue" d="M1437.56,-149.48C1341.75,-149.38 1169.59,-142.76 1130.5,-98 1121.44,-87.62 1121.06,-77.03 1130.5,-67 1156.67,-39.19 1705.55,-22.9 1897.18,-18.05"/>
<polygon fill="midnightblue" stroke="midnightblue" points="1437.73,-152.98 1447.72,-149.47 1437.72,-145.98 1437.73,-152.98"/>
</g>
<!-- Node19 -->
<g id="node19" class="node">
<title>Node19</title>
<g id="a_node19"><a xlink:href="../../db/de7/LibgpiodModule_8cpp.html" target="_top" xlink:title=" ">
<polygon fill="white" stroke="black" points="1359.5,-67.5 1359.5,-97.5 1477.5,-97.5 1477.5,-67.5 1359.5,-67.5"/>
<text text-anchor="start" x="1367.5" y="-85.5" font-family="Helvetica,sans-Serif" font-size="10.00">src/modules/libgpiod</text>
<text text-anchor="middle" x="1418.5" y="-74.5" font-family="Helvetica,sans-Serif" font-size="10.00">/LibgpiodModule.cpp</text>
</a>
</g>
</g>
<!-- Node2&#45;&gt;Node19 -->
<g id="edge18" class="edge">
<title>Node2&#45;&gt;Node19</title>
<path fill="none" stroke="midnightblue" d="M1483.17,-133.54C1469.19,-122.73 1450.42,-108.2 1436.71,-97.59"/>
<polygon fill="midnightblue" stroke="midnightblue" points="1481.12,-136.38 1491.17,-139.73 1485.4,-130.85 1481.12,-136.38"/>
</g>
<!-- Node20 -->
<g id="node20" class="node">
<title>Node20</title>
<g id="a_node20"><a xlink:href="../../d6/d18/MqttModule_8cpp.html" target="_top" xlink:title=" ">
<polygon fill="white" stroke="black" points="1495.5,-73 1495.5,-92 1679.5,-92 1679.5,-73 1495.5,-73"/>
<text text-anchor="middle" x="1587.5" y="-80" font-family="Helvetica,sans-Serif" font-size="10.00">src/modules/mqtt/MqttModule.cpp</text>
</a>
</g>
</g>
<!-- Node2&#45;&gt;Node20 -->
<g id="edge19" class="edge">
<title>Node2&#45;&gt;Node20</title>
<path fill="none" stroke="midnightblue" d="M1522.03,-133.57C1538.8,-120.74 1562.41,-102.69 1576.22,-92.13"/>
<polygon fill="midnightblue" stroke="midnightblue" points="1519.78,-130.88 1513.96,-139.73 1524.03,-136.44 1519.78,-130.88"/>
</g>
<!-- Node21 -->
<g id="node21" class="node">
<title>Node21</title>
<g id="a_node21"><a xlink:href="../../da/d77/SysFsGpioModule_8cpp.html" target="_top" xlink:title=" ">
<polygon fill="white" stroke="black" points="1698,-67.5 1698,-97.5 1825,-97.5 1825,-67.5 1698,-67.5"/>
<text text-anchor="start" x="1706" y="-85.5" font-family="Helvetica,sans-Serif" font-size="10.00">src/modules/sysfsgpio</text>
<text text-anchor="middle" x="1761.5" y="-74.5" font-family="Helvetica,sans-Serif" font-size="10.00">/SysFsGpioModule.cpp</text>
</a>
</g>
</g>
<!-- Node2&#45;&gt;Node21 -->
<g id="edge20" class="edge">
<title>Node2&#45;&gt;Node21</title>
<path fill="none" stroke="midnightblue" d="M1546.42,-137.48C1590.26,-126.47 1657.8,-109.52 1705.48,-97.56"/>
<polygon fill="midnightblue" stroke="midnightblue" points="1545.47,-134.11 1536.63,-139.94 1547.18,-140.9 1545.47,-134.11"/>
</g>
<!-- Node2&#45;&gt;Node22 -->
<g id="edge21" class="edge">
<title>Node2&#45;&gt;Node22</title>
<path fill="none" stroke="midnightblue" d="M1567.17,-147.47C1803.11,-143.49 2617.21,-127.87 2875.5,-98 2878.36,-97.67 2881.28,-97.29 2884.22,-96.87"/>
<polygon fill="midnightblue" stroke="midnightblue" points="1566.98,-143.97 1557.04,-147.64 1567.1,-150.97 1566.98,-143.97"/>
</g>
<!-- Node23 -->
<g id="node23" class="node">
<title>Node23</title>
<g id="a_node23"><a xlink:href="../../d3/de8/wiegand_8cpp.html" target="_top" xlink:title=" ">
<polygon fill="white" stroke="black" points="3052.5,-0.5 3052.5,-30.5 3172.5,-30.5 3172.5,-0.5 3052.5,-0.5"/>
<text text-anchor="start" x="3060.5" y="-18.5" font-family="Helvetica,sans-Serif" font-size="10.00">src/modules/wiegand</text>
<text text-anchor="middle" x="3112.5" y="-7.5" font-family="Helvetica,sans-Serif" font-size="10.00">/wiegand.cpp</text>
</a>
</g>
</g>
<!-- Node2&#45;&gt;Node23 -->
<g id="edge22" class="edge">
<title>Node2&#45;&gt;Node23</title>
<path fill="none" stroke="midnightblue" d="M1443.1,-137.79C1387.08,-125.3 1316.41,-101.82 1350.5,-67 1383.41,-33.39 2996.77,-36.36 3043.5,-31 3046.42,-30.67 3049.4,-30.27 3052.4,-29.82"/>
<polygon fill="midnightblue" stroke="midnightblue" points="1442.49,-141.24 1453,-139.92 1443.96,-134.4 1442.49,-141.24"/>
</g>
<!-- Node28 -->
<g id="node28" class="node">
<title>Node28</title>
<g id="a_node28"><a xlink:href="../../d5/d63/replication_2init_8cpp.html" target="_top" xlink:title=" ">
<polygon fill="white" stroke="black" points="3544,-67.5 3544,-97.5 3675,-97.5 3675,-67.5 3544,-67.5"/>
<text text-anchor="start" x="3552" y="-85.5" font-family="Helvetica,sans-Serif" font-size="10.00">src/modules/replication</text>
<text text-anchor="middle" x="3609.5" y="-74.5" font-family="Helvetica,sans-Serif" font-size="10.00">/init.cpp</text>
</a>
</g>
</g>
<!-- Node27&#45;&gt;Node28 -->
<g id="edge31" class="edge">
<title>Node27&#45;&gt;Node28</title>
<path fill="none" stroke="midnightblue" d="M3634.1,-125.58C3628.64,-116.24 3622.51,-105.75 3617.73,-97.58"/>
<polygon fill="midnightblue" stroke="midnightblue" points="3631.19,-127.53 3639.25,-134.4 3637.23,-124 3631.19,-127.53"/>
</g>
<!-- Node27&#45;&gt;Node29 -->
<g id="edge32" class="edge">
<title>Node27&#45;&gt;Node29</title>
<path fill="none" stroke="midnightblue" d="M3680.3,-129.3C3697.66,-119.12 3718.62,-106.85 3734.46,-97.58"/>
<polygon fill="midnightblue" stroke="midnightblue" points="3678.45,-126.32 3671.59,-134.4 3681.98,-132.36 3678.45,-126.32"/>
</g>
<!-- Node36 -->
<g id="node36" class="node">
<title>Node36</title>
<g id="a_node36"><a xlink:href="../../dc/d31/led-buzzer_2ws_2WSHelperThread_8hpp.html" target="_top" xlink:title=" ">
<polygon fill="white" stroke="black" points="3033,-67.5 3033,-97.5 3172,-97.5 3172,-67.5 3033,-67.5"/>
<text text-anchor="start" x="3041" y="-85.5" font-family="Helvetica,sans-Serif" font-size="10.00">src/modules/led&#45;buzzer</text>
<text text-anchor="middle" x="3102.5" y="-74.5" font-family="Helvetica,sans-Serif" font-size="10.00">/ws/WSHelperThread.hpp</text>
</a>
</g>
</g>
<!-- Node35&#45;&gt;Node36 -->
<g id="edge41" class="edge">
<title>Node35&#45;&gt;Node36</title>
<path fill="none" stroke="midnightblue" d="M3113.27,-124.7C3110.89,-115.59 3108.25,-105.49 3106.18,-97.58"/>
<polygon fill="midnightblue" stroke="midnightblue" points="3109.89,-125.61 3115.81,-134.4 3116.67,-123.84 3109.89,-125.61"/>
</g>
<!-- Node38 -->
<g id="node38" class="node">
<title>Node38</title>
<g id="a_node38"><a xlink:href="../../d7/d36/PFDigitalModule_8hpp.html" target="_top" xlink:title=" ">
<polygon fill="white" stroke="black" points="3347.5,-67.5 3347.5,-97.5 3487.5,-97.5 3487.5,-67.5 3347.5,-67.5"/>
<text text-anchor="start" x="3355.5" y="-85.5" font-family="Helvetica,sans-Serif" font-size="10.00">src/modules/pifacedigital</text>
<text text-anchor="middle" x="3417.5" y="-74.5" font-family="Helvetica,sans-Serif" font-size="10.00">/PFDigitalModule.hpp</text>
</a>
</g>
</g>
<!-- Node35&#45;&gt;Node38 -->
<g id="edge44" class="edge">
<title>Node35&#45;&gt;Node38</title>
<path fill="none" stroke="midnightblue" d="M3193.7,-132.32C3242.68,-121.63 3306.21,-107.77 3353.06,-97.55"/>
<polygon fill="midnightblue" stroke="midnightblue" points="3192.82,-128.93 3183.79,-134.48 3194.31,-135.76 3192.82,-128.93"/>
</g>
<!-- Node40 -->
<g id="node40" class="node">
<title>Node40</title>
<g id="a_node40"><a xlink:href="../../d4/df3/wiegand_2ws_2WSHelperThread_8hpp.html" target="_top" xlink:title=" ">
<polygon fill="white" stroke="black" points="3190,-67.5 3190,-97.5 3329,-97.5 3329,-67.5 3190,-67.5"/>
<text text-anchor="start" x="3198" y="-85.5" font-family="Helvetica,sans-Serif" font-size="10.00">src/modules/wiegand</text>
<text text-anchor="middle" x="3259.5" y="-74.5" font-family="Helvetica,sans-Serif" font-size="10.00">/ws/WSHelperThread.hpp</text>
</a>
</g>
</g>
<!-- Node35&#45;&gt;Node40 -->
<g id="edge47" class="edge">
<title>Node35&#45;&gt;Node40</title>
<path fill="none" stroke="midnightblue" d="M3159.07,-130.13C3181.31,-119.8 3208.65,-107.11 3229.18,-97.58"/>
<polygon fill="midnightblue" stroke="midnightblue" points="3157.47,-127.01 3149.88,-134.4 3160.42,-133.36 3157.47,-127.01"/>
</g>
<!-- Node36&#45;&gt;Node18 -->
<g id="edge42" class="edge">
<title>Node36&#45;&gt;Node18</title>
<path fill="none" stroke="midnightblue" d="M3022.63,-67.02C2640.21,-23.71 2192.59,-17.4 2027.64,-16.57"/>
<polygon fill="midnightblue" stroke="midnightblue" points="3022.46,-70.52 3032.79,-68.18 3023.25,-63.57 3022.46,-70.52"/>
</g>
<!-- Node37 -->
<g id="node37" class="node">
<title>Node37</title>
<g id="a_node37"><a xlink:href="../../dd/d4b/led-buzzer_2ws_2WSHelperThread_8cpp.html" target="_top" xlink:title=" ">
<polygon fill="white" stroke="black" points="2896.5,-0.5 2896.5,-30.5 3034.5,-30.5 3034.5,-0.5 2896.5,-0.5"/>
<text text-anchor="start" x="2904.5" y="-18.5" font-family="Helvetica,sans-Serif" font-size="10.00">src/modules/led&#45;buzzer</text>
<text text-anchor="middle" x="2965.5" y="-7.5" font-family="Helvetica,sans-Serif" font-size="10.00">/ws/WSHelperThread.cpp</text>
</a>
</g>
</g>
<!-- Node36&#45;&gt;Node37 -->
<g id="edge43" class="edge">
<title>Node36&#45;&gt;Node37</title>
<path fill="none" stroke="midnightblue" d="M3063.49,-62.99C3041.78,-52.69 3015.17,-40.07 2995.17,-30.58"/>
<polygon fill="midnightblue" stroke="midnightblue" points="3062.24,-66.27 3072.77,-67.4 3065.24,-59.95 3062.24,-66.27"/>
</g>
<!-- Node38&#45;&gt;Node26 -->
<g id="edge46" class="edge">
<title>Node38&#45;&gt;Node26</title>
<path fill="none" stroke="midnightblue" d="M3460.87,-63.54C3485.99,-53.14 3517.16,-40.24 3540.5,-30.58"/>
<polygon fill="midnightblue" stroke="midnightblue" points="3459.47,-60.34 3451.57,-67.4 3462.14,-66.8 3459.47,-60.34"/>
</g>
<!-- Node39 -->
<g id="node39" class="node">
<title>Node39</title>
<g id="a_node39"><a xlink:href="../../d6/d6d/pifacedigital_2init_8cpp.html" target="_top" xlink:title=" ">
<polygon fill="white" stroke="black" points="3346.5,-0.5 3346.5,-30.5 3486.5,-30.5 3486.5,-0.5 3346.5,-0.5"/>
<text text-anchor="start" x="3354.5" y="-18.5" font-family="Helvetica,sans-Serif" font-size="10.00">src/modules/pifacedigital</text>
<text text-anchor="middle" x="3416.5" y="-7.5" font-family="Helvetica,sans-Serif" font-size="10.00">/init.cpp</text>
</a>
</g>
</g>
<!-- Node38&#45;&gt;Node39 -->
<g id="edge45" class="edge">
<title>Node38&#45;&gt;Node39</title>
<path fill="none" stroke="midnightblue" d="M3417.12,-57.11C3416.99,-48.15 3416.84,-38.32 3416.72,-30.58"/>
<polygon fill="midnightblue" stroke="midnightblue" points="3413.63,-57.45 3417.28,-67.4 3420.63,-57.34 3413.63,-57.45"/>
</g>
<!-- Node40&#45;&gt;Node23 -->
<g id="edge48" class="edge">
<title>Node40&#45;&gt;Node23</title>
<path fill="none" stroke="midnightblue" d="M3218.27,-63.27C3194.86,-52.92 3165.99,-40.15 3144.33,-30.58"/>
<polygon fill="midnightblue" stroke="midnightblue" points="3217.04,-66.55 3227.6,-67.4 3219.87,-60.15 3217.04,-66.55"/>
</g>
<!-- Node41 -->
<g id="node41" class="node">
<title>Node41</title>
<g id="a_node41"><a xlink:href="../../d8/d9e/wiegand_2ws_2WSHelperThread_8cpp.html" target="_top" xlink:title=" ">
<polygon fill="white" stroke="black" points="3190.5,-0.5 3190.5,-30.5 3328.5,-30.5 3328.5,-0.5 3190.5,-0.5"/>
<text text-anchor="start" x="3198.5" y="-18.5" font-family="Helvetica,sans-Serif" font-size="10.00">src/modules/wiegand</text>
<text text-anchor="middle" x="3259.5" y="-7.5" font-family="Helvetica,sans-Serif" font-size="10.00">/ws/WSHelperThread.cpp</text>
</a>
</g>
</g>
<!-- Node40&#45;&gt;Node41 -->
<g id="edge49" class="edge">
<title>Node40&#45;&gt;Node41</title>
<path fill="none" stroke="midnightblue" d="M3259.5,-57.11C3259.5,-48.15 3259.5,-38.32 3259.5,-30.58"/>
<polygon fill="midnightblue" stroke="midnightblue" points="3256,-57.4 3259.5,-67.4 3263,-57.4 3256,-57.4"/>
</g>
<!-- Node44 -->
<g id="node44" class="node">
<title>Node44</title>
<g id="a_node44"><a xlink:href="../../d9/d21/Led_8cpp.html" target="_top" xlink:title=" ">
<polygon fill="white" stroke="black" points="4610.5,-73 4610.5,-92 4686.5,-92 4686.5,-73 4610.5,-73"/>
<text text-anchor="middle" x="4648.5" y="-80" font-family="Helvetica,sans-Serif" font-size="10.00">test/Led.cpp</text>
</a>
</g>
</g>
<!-- Node43&#45;&gt;Node44 -->
<g id="edge52" class="edge">
<title>Node43&#45;&gt;Node44</title>
<path fill="none" stroke="midnightblue" d="M4727.39,-134.27C4707.39,-121.4 4678.61,-102.88 4661.91,-92.13"/>
<polygon fill="midnightblue" stroke="midnightblue" points="4725.58,-137.27 4735.88,-139.73 4729.36,-131.38 4725.58,-137.27"/>
</g>
<!-- Node45 -->
<g id="node45" class="node">
<title>Node45</title>
<g id="a_node45"><a xlink:href="../../db/d44/Rpleth_8cpp.html" target="_top" xlink:title=" ">
<polygon fill="white" stroke="black" points="4704.5,-73 4704.5,-92 4794.5,-92 4794.5,-73 4704.5,-73"/>
<text text-anchor="middle" x="4749.5" y="-80" font-family="Helvetica,sans-Serif" font-size="10.00">test/Rpleth.cpp</text>
</a>
</g>
</g>
<!-- Node43&#45;&gt;Node45 -->
<g id="edge53" class="edge">
<title>Node43&#45;&gt;Node45</title>
<path fill="none" stroke="midnightblue" d="M4749.5,-129.54C4749.5,-117.17 4749.5,-101.62 4749.5,-92.13"/>
<polygon fill="midnightblue" stroke="midnightblue" points="4746,-129.73 4749.5,-139.73 4753,-129.73 4746,-129.73"/>
</g>
<!-- Node46 -->
<g id="node46" class="node">
<title>Node46</title>
<g id="a_node46"><a xlink:href="../../d4/d9b/WiegandReader_8cpp.html" target="_top" xlink:title=" ">
<polygon fill="white" stroke="black" points="4813,-73 4813,-92 4948,-92 4948,-73 4813,-73"/>
<text text-anchor="middle" x="4880.5" y="-80" font-family="Helvetica,sans-Serif" font-size="10.00">test/WiegandReader.cpp</text>
</a>
</g>
</g>
<!-- Node43&#45;&gt;Node46 -->
<g id="edge54" class="edge">
<title>Node43&#45;&gt;Node46</title>
<path fill="none" stroke="midnightblue" d="M4776.16,-135.27C4802.1,-122.4 4840.78,-103.21 4863.03,-92.17"/>
<polygon fill="midnightblue" stroke="midnightblue" points="4774.3,-132.29 4766.9,-139.87 4777.41,-138.56 4774.3,-132.29"/>
</g>
</g>
</svg>
