<?xml version="1.0" encoding="UTF-8" standalone="no"?>
<!DOCTYPE svg PUBLIC "-//W3C//DTD SVG 1.1//EN"
 "http://www.w3.org/Graphics/SVG/1.1/DTD/svg11.dtd">
<!-- Generated by graphviz version 2.43.0 (0)
 -->
<!-- Title: Leosac::Cred::ICredential Pages: 1 -->
<svg width="447pt" height="196pt"
 viewBox="0.00 0.00 447.00 196.00" xmlns="http://www.w3.org/2000/svg" xmlns:xlink="http://www.w3.org/1999/xlink">
<g id="graph0" class="graph" transform="scale(1 1) rotate(0) translate(4 192)">
<title>Leosac::Cred::ICredential</title>
<polygon fill="white" stroke="transparent" points="-4,4 -4,-192 443,-192 443,4 -4,4"/>
<!-- Node1 -->
<g id="node1" class="node">
<title>Node1</title>
<g id="a_node1"><a xlink:title="Base interface for credential objects.">
<polygon fill="#bfbfbf" stroke="black" points="147.5,-112.5 147.5,-131.5 285.5,-131.5 285.5,-112.5 147.5,-112.5"/>
<text text-anchor="middle" x="216.5" y="-119.5" font-family="Helvetica,sans-Serif" font-size="10.00">Leosac::Cred::ICredential</text>
</a>
</g>
</g>
<!-- Node3 -->
<g id="node3" class="node">
<title>Node3</title>
<g id="a_node3"><a xlink:href="../../da/d77/classLeosac_1_1Cred_1_1Credential.html" target="_top" xlink:title="An ODB enabled credential object.">
<polygon fill="white" stroke="black" points="149,-56.5 149,-75.5 284,-75.5 284,-56.5 149,-56.5"/>
<text text-anchor="middle" x="216.5" y="-63.5" font-family="Helvetica,sans-Serif" font-size="10.00">Leosac::Cred::Credential</text>
</a>
</g>
</g>
<!-- Node1&#45;&gt;Node3 -->
<g id="edge2" class="edge">
<title>Node1&#45;&gt;Node3</title>
<path fill="none" stroke="midnightblue" d="M216.5,-101.8C216.5,-92.91 216.5,-82.78 216.5,-75.75"/>
<polygon fill="midnightblue" stroke="midnightblue" points="213,-102.08 216.5,-112.08 220,-102.08 213,-102.08"/>
</g>
<!-- Node7 -->
<g id="node7" class="node">
<title>Node7</title>
<g id="a_node7"><a xlink:href="../../df/d5c/classLeosac_1_1Cred_1_1IPinCode.html" target="_top" xlink:title="Interface for PinCode credentials.">
<polygon fill="white" stroke="black" points="0.5,-56.5 0.5,-75.5 128.5,-75.5 128.5,-56.5 0.5,-56.5"/>
<text text-anchor="middle" x="64.5" y="-63.5" font-family="Helvetica,sans-Serif" font-size="10.00">Leosac::Cred::IPinCode</text>
</a>
</g>
</g>
<!-- Node1&#45;&gt;Node7 -->
<g id="edge6" class="edge">
<title>Node1&#45;&gt;Node7</title>
<path fill="none" stroke="midnightblue" d="M182.83,-109.04C154.23,-98.88 113.89,-84.55 88.47,-75.52"/>
<polygon fill="midnightblue" stroke="midnightblue" points="181.82,-112.39 192.42,-112.44 184.16,-105.8 181.82,-112.39"/>
</g>
<!-- Node8 -->
<g id="node8" class="node">
<title>Node8</title>
<g id="a_node8"><a xlink:href="../../da/d38/classLeosac_1_1Cred_1_1IRFIDCard.html" target="_top" xlink:title="Interface for RFIDCard credential.">
<polygon fill="white" stroke="black" points="304.5,-56.5 304.5,-75.5 438.5,-75.5 438.5,-56.5 304.5,-56.5"/>
<text text-anchor="middle" x="371.5" y="-63.5" font-family="Helvetica,sans-Serif" font-size="10.00">Leosac::Cred::IRFIDCard</text>
</a>
</g>
</g>
<!-- Node1&#45;&gt;Node8 -->
<g id="edge8" class="edge">
<title>Node1&#45;&gt;Node8</title>
<path fill="none" stroke="midnightblue" d="M250.83,-109.04C280,-98.88 321.14,-84.55 347.05,-75.52"/>
<polygon fill="midnightblue" stroke="midnightblue" points="249.35,-105.85 241.06,-112.44 251.66,-112.46 249.35,-105.85"/>
</g>
<!-- Node2 -->
<g id="node2" class="node">
<title>Node2</title>
<g id="a_node2"><a xlink:href="../../d0/d33/classLeosac_1_1Tools_1_1IVisitable.html" target="_top" xlink:title="Base class to make an object visitable.">
<polygon fill="white" stroke="black" points="150,-168.5 150,-187.5 283,-187.5 283,-168.5 150,-168.5"/>
<text text-anchor="middle" x="216.5" y="-175.5" font-family="Helvetica,sans-Serif" font-size="10.00">Leosac::Tools::IVisitable</text>
</a>
</g>
</g>
<!-- Node2&#45;&gt;Node1 -->
<g id="edge1" class="edge">
<title>Node2&#45;&gt;Node1</title>
<path fill="none" stroke="midnightblue" d="M216.5,-157.8C216.5,-148.91 216.5,-138.78 216.5,-131.75"/>
<polygon fill="midnightblue" stroke="midnightblue" points="213,-158.08 216.5,-168.08 220,-158.08 213,-158.08"/>
</g>
<!-- Node4 -->
<g id="node4" class="node">
<title>Node4</title>
<g id="a_node4"><a xlink:href="../../d1/d16/classLeosac_1_1Cred_1_1PinCode.html" target="_top" xlink:title="A PinCode credential.">
<polygon fill="white" stroke="black" points="0,-0.5 0,-19.5 125,-19.5 125,-0.5 0,-0.5"/>
<text text-anchor="middle" x="62.5" y="-7.5" font-family="Helvetica,sans-Serif" font-size="10.00">Leosac::Cred::PinCode</text>
</a>
</g>
</g>
<!-- Node3&#45;&gt;Node4 -->
<g id="edge3" class="edge">
<title>Node3&#45;&gt;Node4</title>
<path fill="none" stroke="midnightblue" d="M182.39,-53.04C153.41,-42.88 112.54,-28.55 86.79,-19.52"/>
<polygon fill="midnightblue" stroke="midnightblue" points="181.5,-56.44 192.1,-56.44 183.82,-49.83 181.5,-56.44"/>
</g>
<!-- Node5 -->
<g id="node5" class="node">
<title>Node5</title>
<g id="a_node5"><a xlink:href="../../d7/d6b/classLeosac_1_1Cred_1_1RFIDCard.html" target="_top" xlink:title="An RFID card credential.">
<polygon fill="white" stroke="black" points="308,-0.5 308,-19.5 439,-19.5 439,-0.5 308,-0.5"/>
<text text-anchor="middle" x="373.5" y="-7.5" font-family="Helvetica,sans-Serif" font-size="10.00">Leosac::Cred::RFIDCard</text>
</a>
</g>
</g>
<!-- Node3&#45;&gt;Node5 -->
<g id="edge4" class="edge">
<title>Node3&#45;&gt;Node5</title>
<path fill="none" stroke="midnightblue" d="M250.89,-53.17C280.45,-43 322.37,-28.59 348.74,-19.52"/>
<polygon fill="midnightblue" stroke="midnightblue" points="249.7,-49.88 241.38,-56.44 251.97,-56.5 249.7,-49.88"/>
</g>
<!-- Node6 -->
<g id="node6" class="node">
<title>Node6</title>
<g id="a_node6"><a xlink:href="../../dd/dfb/classLeosac_1_1Cred_1_1RFIDCardPin.html" target="_top" xlink:title="Credentials composed of an RFIDCard and a PIN code.">
<polygon fill="white" stroke="black" points="143.5,-0.5 143.5,-19.5 289.5,-19.5 289.5,-0.5 143.5,-0.5"/>
<text text-anchor="middle" x="216.5" y="-7.5" font-family="Helvetica,sans-Serif" font-size="10.00">Leosac::Cred::RFIDCardPin</text>
</a>
</g>
</g>
<!-- Node3&#45;&gt;Node6 -->
<g id="edge5" class="edge">
<title>Node3&#45;&gt;Node6</title>
<path fill="none" stroke="midnightblue" d="M216.5,-45.8C216.5,-36.91 216.5,-26.78 216.5,-19.75"/>
<polygon fill="midnightblue" stroke="midnightblue" points="213,-46.08 216.5,-56.08 220,-46.08 213,-46.08"/>
</g>
<!-- Node7&#45;&gt;Node4 -->
<g id="edge7" class="edge">
<title>Node7&#45;&gt;Node4</title>
<path fill="none" stroke="midnightblue" d="M63.79,-45.8C63.46,-36.91 63.08,-26.78 62.82,-19.75"/>
<polygon fill="midnightblue" stroke="midnightblue" points="60.3,-46.22 64.17,-56.08 67.3,-45.96 60.3,-46.22"/>
</g>
<!-- Node8&#45;&gt;Node5 -->
<g id="edge9" class="edge">
<title>Node8&#45;&gt;Node5</title>
<path fill="none" stroke="midnightblue" d="M372.21,-45.8C372.54,-36.91 372.92,-26.78 373.18,-19.75"/>
<polygon fill="midnightblue" stroke="midnightblue" points="368.7,-45.96 371.83,-56.08 375.7,-46.22 368.7,-45.96"/>
</g>
</g>
</svg>
