<?xml version="1.0" encoding="UTF-8" standalone="no"?>
<!DOCTYPE svg PUBLIC "-//W3C//DTD SVG 1.1//EN"
 "http://www.w3.org/Graphics/SVG/1.1/DTD/svg11.dtd">
<!-- Generated by graphviz version 2.43.0 (0)
 -->
<!-- Title: src/tools/db/AuditEventMaskODB.hpp Pages: 1 -->
<svg width="487pt" height="151pt"
 viewBox="0.00 0.00 486.50 151.00" xmlns="http://www.w3.org/2000/svg" xmlns:xlink="http://www.w3.org/1999/xlink">
<g id="graph0" class="graph" transform="scale(1 1) rotate(0) translate(4 147)">
<title>src/tools/db/AuditEventMaskODB.hpp</title>
<polygon fill="white" stroke="transparent" points="-4,4 -4,-147 482.5,-147 482.5,4 -4,4"/>
<!-- Node1 -->
<g id="node1" class="node">
<title>Node1</title>
<g id="a_node1"><a xlink:title=" ">
<polygon fill="#bfbfbf" stroke="black" points="212,-112.5 212,-142.5 367,-142.5 367,-112.5 212,-112.5"/>
<text text-anchor="start" x="220" y="-130.5" font-family="Helvetica,sans-Serif" font-size="10.00">src/tools/db/AuditEventMask</text>
<text text-anchor="middle" x="289.5" y="-119.5" font-family="Helvetica,sans-Serif" font-size="10.00">ODB.hpp</text>
</a>
</g>
</g>
<!-- Node2 -->
<g id="node2" class="node">
<title>Node2</title>
<g id="a_node2"><a xlink:href="../../d7/dcf/AuditFwd_8hpp.html" target="_top" xlink:title=" ">
<polygon fill="white" stroke="black" points="80,-56.5 80,-75.5 215,-75.5 215,-56.5 80,-56.5"/>
<text text-anchor="middle" x="147.5" y="-63.5" font-family="Helvetica,sans-Serif" font-size="10.00">core/audit/AuditFwd.hpp</text>
</a>
</g>
</g>
<!-- Node1&#45;&gt;Node2 -->
<g id="edge1" class="edge">
<title>Node1&#45;&gt;Node2</title>
<path fill="none" stroke="midnightblue" d="M255.85,-112.4C232.02,-102.42 200.35,-89.15 177.41,-79.53"/>
<polygon fill="midnightblue" stroke="midnightblue" points="178.74,-76.29 168.16,-75.66 176.03,-82.75 178.74,-76.29"/>
</g>
<!-- Node7 -->
<g id="node7" class="node">
<title>Node7</title>
<g id="a_node7"><a xlink:title=" ">
<polygon fill="white" stroke="#bfbfbf" points="233,-56.5 233,-75.5 346,-75.5 346,-56.5 233,-56.5"/>
<text text-anchor="middle" x="289.5" y="-63.5" font-family="Helvetica,sans-Serif" font-size="10.00">odb/pgsql/traits.hxx</text>
</a>
</g>
</g>
<!-- Node1&#45;&gt;Node7 -->
<g id="edge6" class="edge">
<title>Node1&#45;&gt;Node7</title>
<path fill="none" stroke="midnightblue" d="M289.5,-112.4C289.5,-104.47 289.5,-94.46 289.5,-85.86"/>
<polygon fill="midnightblue" stroke="midnightblue" points="293,-85.66 289.5,-75.66 286,-85.66 293,-85.66"/>
</g>
<!-- Node8 -->
<g id="node8" class="node">
<title>Node8</title>
<g id="a_node8"><a xlink:title=" ">
<polygon fill="white" stroke="#bfbfbf" points="364.5,-56.5 364.5,-75.5 478.5,-75.5 478.5,-56.5 364.5,-56.5"/>
<text text-anchor="middle" x="421.5" y="-63.5" font-family="Helvetica,sans-Serif" font-size="10.00">odb/sqlite/traits.hxx</text>
</a>
</g>
</g>
<!-- Node1&#45;&gt;Node8 -->
<g id="edge7" class="edge">
<title>Node1&#45;&gt;Node8</title>
<path fill="none" stroke="midnightblue" d="M320.78,-112.4C342.73,-102.51 371.84,-89.38 393.12,-79.79"/>
<polygon fill="midnightblue" stroke="midnightblue" points="394.61,-82.96 402.29,-75.66 391.74,-76.58 394.61,-82.96"/>
</g>
<!-- Node3 -->
<g id="node3" class="node">
<title>Node3</title>
<g id="a_node3"><a xlink:title=" ">
<polygon fill="white" stroke="#bfbfbf" points="0,-0.5 0,-19.5 53,-19.5 53,-0.5 0,-0.5"/>
<text text-anchor="middle" x="26.5" y="-7.5" font-family="Helvetica,sans-Serif" font-size="10.00">cstddef</text>
</a>
</g>
</g>
<!-- Node2&#45;&gt;Node3 -->
<g id="edge2" class="edge">
<title>Node2&#45;&gt;Node3</title>
<path fill="none" stroke="midnightblue" d="M128.33,-56.44C108.59,-47.64 77.61,-33.81 55.01,-23.72"/>
<polygon fill="midnightblue" stroke="midnightblue" points="56.14,-20.4 45.58,-19.52 53.29,-26.79 56.14,-20.4"/>
</g>
<!-- Node4 -->
<g id="node4" class="node">
<title>Node4</title>
<g id="a_node4"><a xlink:title=" ">
<polygon fill="white" stroke="#bfbfbf" points="71,-0.5 71,-19.5 142,-19.5 142,-0.5 71,-0.5"/>
<text text-anchor="middle" x="106.5" y="-7.5" font-family="Helvetica,sans-Serif" font-size="10.00">flagset.hpp</text>
</a>
</g>
</g>
<!-- Node2&#45;&gt;Node4 -->
<g id="edge3" class="edge">
<title>Node2&#45;&gt;Node4</title>
<path fill="none" stroke="midnightblue" d="M140.73,-56.08C134.94,-48.46 126.44,-37.26 119.36,-27.94"/>
<polygon fill="midnightblue" stroke="midnightblue" points="121.98,-25.6 113.14,-19.75 116.4,-29.83 121.98,-25.6"/>
</g>
<!-- Node5 -->
<g id="node5" class="node">
<title>Node5</title>
<g id="a_node5"><a xlink:title=" ">
<polygon fill="white" stroke="#bfbfbf" points="160.5,-0.5 160.5,-19.5 218.5,-19.5 218.5,-0.5 160.5,-0.5"/>
<text text-anchor="middle" x="189.5" y="-7.5" font-family="Helvetica,sans-Serif" font-size="10.00">memory</text>
</a>
</g>
</g>
<!-- Node2&#45;&gt;Node5 -->
<g id="edge4" class="edge">
<title>Node2&#45;&gt;Node5</title>
<path fill="none" stroke="midnightblue" d="M154.44,-56.08C160.43,-48.38 169.25,-37.03 176.55,-27.65"/>
<polygon fill="midnightblue" stroke="midnightblue" points="179.32,-29.79 182.69,-19.75 173.79,-25.5 179.32,-29.79"/>
</g>
<!-- Node6 -->
<g id="node6" class="node">
<title>Node6</title>
<g id="a_node6"><a xlink:title=" ">
<polygon fill="white" stroke="#bfbfbf" points="237,-0.5 237,-19.5 332,-19.5 332,-0.5 237,-0.5"/>
<text text-anchor="middle" x="284.5" y="-7.5" font-family="Helvetica,sans-Serif" font-size="10.00">odb/lazy&#45;ptr.hxx</text>
</a>
</g>
</g>
<!-- Node2&#45;&gt;Node6 -->
<g id="edge5" class="edge">
<title>Node2&#45;&gt;Node6</title>
<path fill="none" stroke="midnightblue" d="M169.21,-56.44C191.85,-47.52 227.57,-33.44 253.25,-23.32"/>
<polygon fill="midnightblue" stroke="midnightblue" points="254.87,-26.44 262.89,-19.52 252.31,-19.93 254.87,-26.44"/>
</g>
</g>
</svg>
