<?xml version="1.0" encoding="UTF-8" standalone="no"?>
<!DOCTYPE svg PUBLIC "-//W3C//DTD SVG 1.1//EN"
 "http://www.w3.org/Graphics/SVG/1.1/DTD/svg11.dtd">
<!-- Generated by graphviz version 2.43.0 (0)
 -->
<!-- Title: src/core/update/serializers/UpdateSerializer.hpp Pages: 1 -->
<!--zoomable 274 -->
<svg id="main" version="1.1" xmlns="http://www.w3.org/2000/svg" xmlns:xlink="http://www.w3.org/1999/xlink" xml:space="preserve" onload="init(evt)">
<style type="text/css"><![CDATA[
.edge:hover path { stroke: red; }
.edge:hover polygon { stroke: red; fill: red; }
]]></style>
<script type="text/javascript"><![CDATA[
var edges = document.getElementsByTagName('g');
if (edges && edges.length) {
  for (var i=0;i<edges.length;i++) {
    if (edges[i].id.substr(0,4)=='edge') {
      edges[i].setAttribute('class','edge');
    }
  }
}
]]></script>
        <defs>
                <circle id="rim" cx="0" cy="0" r="7"/>
                <circle id="rim2" cx="0" cy="0" r="3.5"/>
                <g id="zoomPlus">
                        <use xlink:href="#rim" fill="#404040">
                                <set attributeName="fill" to="#808080" begin="zoomplus.mouseover" end="zoomplus.mouseout"/>
                        </use>
                        <path d="M-4,0h8M0,-4v8" fill="none" stroke="white" stroke-width="1.5" pointer-events="none"/>
                </g>
                <g id="zoomMin">
                        <use xlink:href="#rim" fill="#404040">
                                <set attributeName="fill" to="#808080" begin="zoomminus.mouseover" end="zoomminus.mouseout"/>
                        </use>
                        <path d="M-4,0h8" fill="none" stroke="white" stroke-width="1.5" pointer-events="none"/>
                </g>
                <g id="dirArrow">
                        <path fill="none" stroke="white" stroke-width="1.5" d="M0,-3.0v7 M-2.5,-0.5L0,-3.0L2.5,-0.5"/>
                </g>
               <g id="resetDef">
                       <use xlink:href="#rim2" fill="#404040">
                               <set attributeName="fill" to="#808080" begin="reset.mouseover" end="reset.mouseout"/>
                       </use>
               </g>
        </defs>

<script type="text/javascript">
var viewWidth = 1277;
var viewHeight = 274;
var sectionId = 'dynsection-0';
</script>
<script xlink:href="../../svgpan.js"/>
<svg id="graph" class="graph">
<g id="viewport">
<title>src/core/update/serializers/UpdateSerializer.hpp</title>
<polygon fill="white" stroke="transparent" points="-4,4 -4,-270 1272.5,-270 1272.5,4 -4,4"/>
<!-- Node1 -->
<g id="node1" class="node">
<title>Node1</title>
<g id="a_node1"><a xlink:title=" ">
<polygon fill="#bfbfbf" stroke="black" points="639,-235.5 639,-265.5 784,-265.5 784,-235.5 639,-235.5"/>
<text text-anchor="start" x="647" y="-253.5" font-family="Helvetica,sans-Serif" font-size="10.00">src/core/update/serializers</text>
<text text-anchor="middle" x="711.5" y="-242.5" font-family="Helvetica,sans-Serif" font-size="10.00">/UpdateSerializer.hpp</text>
</a>
</g>
</g>
<!-- Node2 -->
<g id="node2" class="node">
<title>Node2</title>
<g id="a_node2"><a xlink:href="../../d1/d3e/SecurityContext_8hpp.html" target="_top" xlink:title=" ">
<polygon fill="white" stroke="black" points="451.5,-179.5 451.5,-198.5 591.5,-198.5 591.5,-179.5 451.5,-179.5"/>
<text text-anchor="middle" x="521.5" y="-186.5" font-family="Helvetica,sans-Serif" font-size="10.00">core/SecurityContext.hpp</text>
</a>
</g>
</g>
<!-- Node1&#45;&gt;Node2 -->
<g id="edge1" class="edge">
<title>Node1&#45;&gt;Node2</title>
<path fill="none" stroke="midnightblue" d="M666.47,-235.4C633.64,-225.12 589.68,-211.35 558.8,-201.68"/>
<polygon fill="midnightblue" stroke="midnightblue" points="559.46,-198.22 548.87,-198.57 557.37,-204.9 559.46,-198.22"/>
</g>
<!-- Node20 -->
<g id="node20" class="node">
<title>Node20</title>
<g id="a_node20"><a xlink:href="../../d2/d0e/UpdateFwd_8hpp.html" target="_top" xlink:title=" ">
<polygon fill="white" stroke="black" points="726.5,-118 726.5,-137 880.5,-137 880.5,-118 726.5,-118"/>
<text text-anchor="middle" x="803.5" y="-125" font-family="Helvetica,sans-Serif" font-size="10.00">core/update/UpdateFwd.hpp</text>
</a>
</g>
</g>
<!-- Node1&#45;&gt;Node20 -->
<g id="edge28" class="edge">
<title>Node1&#45;&gt;Node20</title>
<path fill="none" stroke="midnightblue" d="M712.45,-235.31C714.09,-220.14 718.52,-195.99 730.5,-179 741.76,-163.05 759.75,-150.51 775.06,-141.92"/>
<polygon fill="midnightblue" stroke="midnightblue" points="776.97,-144.87 784.16,-137.09 773.69,-138.69 776.97,-144.87"/>
</g>
<!-- Node21 -->
<g id="node21" class="node">
<title>Node21</title>
<g id="a_node21"><a xlink:title=" ">
<polygon fill="white" stroke="#bfbfbf" points="739.5,-179.5 739.5,-198.5 849.5,-198.5 849.5,-179.5 739.5,-179.5"/>
<text text-anchor="middle" x="794.5" y="-186.5" font-family="Helvetica,sans-Serif" font-size="10.00">nlohmann/json.hpp</text>
</a>
</g>
</g>
<!-- Node1&#45;&gt;Node21 -->
<g id="edge31" class="edge">
<title>Node1&#45;&gt;Node21</title>
<path fill="none" stroke="midnightblue" d="M731.17,-235.4C744.1,-226.13 760.99,-214.03 774.07,-204.65"/>
<polygon fill="midnightblue" stroke="midnightblue" points="776.33,-207.33 782.42,-198.66 772.26,-201.64 776.33,-207.33"/>
</g>
<!-- Node3 -->
<g id="node3" class="node">
<title>Node3</title>
<g id="a_node3"><a xlink:href="../../d7/dcf/AuditFwd_8hpp.html" target="_top" xlink:title=" ">
<polygon fill="white" stroke="black" points="0,-118 0,-137 135,-137 135,-118 0,-118"/>
<text text-anchor="middle" x="67.5" y="-125" font-family="Helvetica,sans-Serif" font-size="10.00">core/audit/AuditFwd.hpp</text>
</a>
</g>
</g>
<!-- Node2&#45;&gt;Node3 -->
<g id="edge2" class="edge">
<title>Node2&#45;&gt;Node3</title>
<path fill="none" stroke="midnightblue" d="M451.28,-181.13C375.24,-173.34 250.45,-159.55 143.5,-143 135.66,-141.79 127.39,-140.36 119.31,-138.89"/>
<polygon fill="midnightblue" stroke="midnightblue" points="119.69,-135.4 109.22,-137 118.41,-142.28 119.69,-135.4"/>
</g>
<!-- Node8 -->
<g id="node8" class="node">
<title>Node8</title>
<g id="a_node8"><a xlink:href="../../d3/d6f/AuthFwd_8hpp.html" target="_top" xlink:title=" ">
<polygon fill="white" stroke="black" points="153,-118 153,-137 282,-137 282,-118 153,-118"/>
<text text-anchor="middle" x="217.5" y="-125" font-family="Helvetica,sans-Serif" font-size="10.00">core/auth/AuthFwd.hpp</text>
</a>
</g>
</g>
<!-- Node2&#45;&gt;Node8 -->
<g id="edge7" class="edge">
<title>Node2&#45;&gt;Node8</title>
<path fill="none" stroke="midnightblue" d="M477.83,-179.46C431.57,-170.41 356.39,-155.7 291.5,-143 284.85,-141.7 277.87,-140.33 270.96,-138.98"/>
<polygon fill="midnightblue" stroke="midnightblue" points="271.42,-135.5 260.93,-137.01 270.07,-142.37 271.42,-135.5"/>
</g>
<!-- Node9 -->
<g id="node9" class="node">
<title>Node9</title>
<g id="a_node9"><a xlink:href="../../d7/d7f/CredentialFwd_8hpp.html" target="_top" xlink:title=" ">
<polygon fill="white" stroke="black" points="300.5,-112.5 300.5,-142.5 448.5,-142.5 448.5,-112.5 300.5,-112.5"/>
<text text-anchor="start" x="308.5" y="-130.5" font-family="Helvetica,sans-Serif" font-size="10.00">core/credentials/Credential</text>
<text text-anchor="middle" x="374.5" y="-119.5" font-family="Helvetica,sans-Serif" font-size="10.00">Fwd.hpp</text>
</a>
</g>
</g>
<!-- Node2&#45;&gt;Node9 -->
<g id="edge11" class="edge">
<title>Node2&#45;&gt;Node9</title>
<path fill="none" stroke="midnightblue" d="M500.44,-179.48C479.13,-170.85 445.56,-157.26 418.44,-146.29"/>
<polygon fill="midnightblue" stroke="midnightblue" points="419.73,-143.03 409.14,-142.52 417.1,-149.52 419.73,-143.03"/>
</g>
<!-- Node10 -->
<g id="node10" class="node">
<title>Node10</title>
<g id="a_node10"><a xlink:href="../../d9/dc8/HardwareFwd_8hpp.html" target="_top" xlink:title=" ">
<polygon fill="white" stroke="black" points="898.5,-118 898.5,-137 1052.5,-137 1052.5,-118 898.5,-118"/>
<text text-anchor="middle" x="975.5" y="-125" font-family="Helvetica,sans-Serif" font-size="10.00">hardware/HardwareFwd.hpp</text>
</a>
</g>
</g>
<!-- Node2&#45;&gt;Node10 -->
<g id="edge14" class="edge">
<title>Node2&#45;&gt;Node10</title>
<path fill="none" stroke="midnightblue" d="M591.83,-180.36C665.99,-172.08 786.15,-158.02 889.5,-143 898.52,-141.69 908.06,-140.19 917.37,-138.67"/>
<polygon fill="midnightblue" stroke="midnightblue" points="918.05,-142.1 927.35,-137.01 916.91,-135.2 918.05,-142.1"/>
</g>
<!-- Node18 -->
<g id="node18" class="node">
<title>Node18</title>
<g id="a_node18"><a xlink:href="../../d8/d97/ToolsFwd_8hpp.html" target="_top" xlink:title=" ">
<polygon fill="white" stroke="black" points="466.5,-118 466.5,-137 576.5,-137 576.5,-118 466.5,-118"/>
<text text-anchor="middle" x="521.5" y="-125" font-family="Helvetica,sans-Serif" font-size="10.00">tools/ToolsFwd.hpp</text>
</a>
</g>
</g>
<!-- Node2&#45;&gt;Node18 -->
<g id="edge23" class="edge">
<title>Node2&#45;&gt;Node18</title>
<path fill="none" stroke="midnightblue" d="M521.5,-179.48C521.5,-171.08 521.5,-157.98 521.5,-147.16"/>
<polygon fill="midnightblue" stroke="midnightblue" points="525,-147.01 521.5,-137.01 518,-147.01 525,-147.01"/>
</g>
<!-- Node19 -->
<g id="node19" class="node">
<title>Node19</title>
<g id="a_node19"><a xlink:href="../../d9/d69/db__fwd_8hpp.html" target="_top" xlink:title=" ">
<polygon fill="white" stroke="black" points="594.5,-118 594.5,-137 708.5,-137 708.5,-118 594.5,-118"/>
<text text-anchor="middle" x="651.5" y="-125" font-family="Helvetica,sans-Serif" font-size="10.00">tools/db/db_fwd.hpp</text>
</a>
</g>
</g>
<!-- Node2&#45;&gt;Node19 -->
<g id="edge26" class="edge">
<title>Node2&#45;&gt;Node19</title>
<path fill="none" stroke="midnightblue" d="M540.13,-179.48C561.94,-169.49 598.3,-152.85 623.52,-141.31"/>
<polygon fill="midnightblue" stroke="midnightblue" points="625.27,-144.35 632.91,-137.01 622.36,-137.99 625.27,-144.35"/>
</g>
<!-- Node4 -->
<g id="node4" class="node">
<title>Node4</title>
<g id="a_node4"><a xlink:title=" ">
<polygon fill="white" stroke="#bfbfbf" points="156,-56.5 156,-75.5 209,-75.5 209,-56.5 156,-56.5"/>
<text text-anchor="middle" x="182.5" y="-63.5" font-family="Helvetica,sans-Serif" font-size="10.00">cstddef</text>
</a>
</g>
</g>
<!-- Node3&#45;&gt;Node4 -->
<g id="edge3" class="edge">
<title>Node3&#45;&gt;Node4</title>
<path fill="none" stroke="midnightblue" d="M83.98,-117.98C103.11,-108.08 134.87,-91.64 157.15,-80.12"/>
<polygon fill="midnightblue" stroke="midnightblue" points="158.78,-83.21 166.05,-75.51 155.56,-77 158.78,-83.21"/>
</g>
<!-- Node5 -->
<g id="node5" class="node">
<title>Node5</title>
<g id="a_node5"><a xlink:title=" ">
<polygon fill="white" stroke="#bfbfbf" points="32,-56.5 32,-75.5 103,-75.5 103,-56.5 32,-56.5"/>
<text text-anchor="middle" x="67.5" y="-63.5" font-family="Helvetica,sans-Serif" font-size="10.00">flagset.hpp</text>
</a>
</g>
</g>
<!-- Node3&#45;&gt;Node5 -->
<g id="edge4" class="edge">
<title>Node3&#45;&gt;Node5</title>
<path fill="none" stroke="midnightblue" d="M67.5,-117.98C67.5,-109.58 67.5,-96.48 67.5,-85.66"/>
<polygon fill="midnightblue" stroke="midnightblue" points="71,-85.51 67.5,-75.51 64,-85.51 71,-85.51"/>
</g>
<!-- Node6 -->
<g id="node6" class="node">
<title>Node6</title>
<g id="a_node6"><a xlink:title=" ">
<polygon fill="white" stroke="#bfbfbf" points="492.5,-56.5 492.5,-75.5 550.5,-75.5 550.5,-56.5 492.5,-56.5"/>
<text text-anchor="middle" x="521.5" y="-63.5" font-family="Helvetica,sans-Serif" font-size="10.00">memory</text>
</a>
</g>
</g>
<!-- Node3&#45;&gt;Node6 -->
<g id="edge5" class="edge">
<title>Node3&#45;&gt;Node6</title>
<path fill="none" stroke="midnightblue" d="M109.22,-118C120.33,-115.88 132.35,-113.73 143.5,-112 266.56,-92.96 413.24,-77.57 482.11,-70.77"/>
<polygon fill="midnightblue" stroke="midnightblue" points="482.87,-74.21 492.48,-69.75 482.18,-67.25 482.87,-74.21"/>
</g>
<!-- Node7 -->
<g id="node7" class="node">
<title>Node7</title>
<g id="a_node7"><a xlink:title=" ">
<polygon fill="white" stroke="#bfbfbf" points="327,-56.5 327,-75.5 422,-75.5 422,-56.5 327,-56.5"/>
<text text-anchor="middle" x="374.5" y="-63.5" font-family="Helvetica,sans-Serif" font-size="10.00">odb/lazy&#45;ptr.hxx</text>
</a>
</g>
</g>
<!-- Node3&#45;&gt;Node7 -->
<g id="edge6" class="edge">
<title>Node3&#45;&gt;Node7</title>
<path fill="none" stroke="midnightblue" d="M111.49,-117.98C166.65,-107.28 261.2,-88.96 320.65,-77.44"/>
<polygon fill="midnightblue" stroke="midnightblue" points="321.44,-80.85 330.6,-75.51 320.11,-73.98 321.44,-80.85"/>
</g>
<!-- Node8&#45;&gt;Node4 -->
<g id="edge8" class="edge">
<title>Node8&#45;&gt;Node4</title>
<path fill="none" stroke="midnightblue" d="M212.49,-117.98C207.34,-109.23 199.19,-95.37 192.68,-84.31"/>
<polygon fill="midnightblue" stroke="midnightblue" points="195.59,-82.35 187.51,-75.51 189.56,-85.9 195.59,-82.35"/>
</g>
<!-- Node8&#45;&gt;Node6 -->
<g id="edge9" class="edge">
<title>Node8&#45;&gt;Node6</title>
<path fill="none" stroke="midnightblue" d="M260.93,-117.99C270.97,-116.02 281.61,-113.94 291.5,-112 358.55,-98.87 436.6,-83.6 482.37,-74.65"/>
<polygon fill="midnightblue" stroke="midnightblue" points="483.31,-78.03 492.45,-72.68 481.97,-71.16 483.31,-78.03"/>
</g>
<!-- Node8&#45;&gt;Node7 -->
<g id="edge10" class="edge">
<title>Node8&#45;&gt;Node7</title>
<path fill="none" stroke="midnightblue" d="M239.99,-117.98C266.81,-107.81 311.82,-90.76 342.31,-79.2"/>
<polygon fill="midnightblue" stroke="midnightblue" points="343.94,-82.33 352.05,-75.51 341.46,-75.78 343.94,-82.33"/>
</g>
<!-- Node9&#45;&gt;Node6 -->
<g id="edge12" class="edge">
<title>Node9&#45;&gt;Node6</title>
<path fill="none" stroke="midnightblue" d="M409.34,-112.4C434,-102.42 466.79,-89.15 490.53,-79.53"/>
<polygon fill="midnightblue" stroke="midnightblue" points="492.15,-82.65 500.11,-75.66 489.53,-76.17 492.15,-82.65"/>
</g>
<!-- Node9&#45;&gt;Node7 -->
<g id="edge13" class="edge">
<title>Node9&#45;&gt;Node7</title>
<path fill="none" stroke="midnightblue" d="M374.5,-112.4C374.5,-104.47 374.5,-94.46 374.5,-85.86"/>
<polygon fill="midnightblue" stroke="midnightblue" points="378,-85.66 374.5,-75.66 371,-85.66 378,-85.66"/>
</g>
<!-- Node10&#45;&gt;Node6 -->
<g id="edge22" class="edge">
<title>Node10&#45;&gt;Node6</title>
<path fill="none" stroke="midnightblue" d="M927.35,-117.99C915.03,-115.92 901.79,-113.79 889.5,-112 770.09,-94.64 628.22,-78.57 560.82,-71.22"/>
<polygon fill="midnightblue" stroke="midnightblue" points="560.98,-67.71 550.66,-70.11 560.22,-74.67 560.98,-67.71"/>
</g>
<!-- Node11 -->
<g id="node11" class="node">
<title>Node11</title>
<g id="a_node11"><a xlink:href="../../dc/dea/Uuid_8hpp.html" target="_top" xlink:title=" ">
<polygon fill="white" stroke="black" points="932,-56.5 932,-75.5 1019,-75.5 1019,-56.5 932,-56.5"/>
<text text-anchor="middle" x="975.5" y="-63.5" font-family="Helvetica,sans-Serif" font-size="10.00">tools/Uuid.hpp</text>
</a>
</g>
</g>
<!-- Node10&#45;&gt;Node11 -->
<g id="edge15" class="edge">
<title>Node10&#45;&gt;Node11</title>
<path fill="none" stroke="midnightblue" d="M975.5,-117.98C975.5,-109.58 975.5,-96.48 975.5,-85.66"/>
<polygon fill="midnightblue" stroke="midnightblue" points="979,-85.51 975.5,-75.51 972,-85.51 979,-85.51"/>
</g>
<!-- Node12 -->
<g id="node12" class="node">
<title>Node12</title>
<g id="a_node12"><a xlink:title=" ">
<polygon fill="white" stroke="#bfbfbf" points="508,-0.5 508,-19.5 633,-19.5 633,-0.5 508,-0.5"/>
<text text-anchor="middle" x="570.5" y="-7.5" font-family="Helvetica,sans-Serif" font-size="10.00">boost/lexical_cast.hpp</text>
</a>
</g>
</g>
<!-- Node11&#45;&gt;Node12 -->
<g id="edge16" class="edge">
<title>Node11&#45;&gt;Node12</title>
<path fill="none" stroke="midnightblue" d="M931.77,-59.17C862.59,-49.95 727.14,-31.89 643.17,-20.69"/>
<polygon fill="midnightblue" stroke="midnightblue" points="643.57,-17.21 633.2,-19.36 642.65,-24.15 643.57,-17.21"/>
</g>
<!-- Node13 -->
<g id="node13" class="node">
<title>Node13</title>
<g id="a_node13"><a xlink:title=" ">
<polygon fill="white" stroke="#bfbfbf" points="651,-0.5 651,-19.5 832,-19.5 832,-0.5 651,-0.5"/>
<text text-anchor="middle" x="741.5" y="-7.5" font-family="Helvetica,sans-Serif" font-size="10.00">boost/uuid/random_generator.hpp</text>
</a>
</g>
</g>
<!-- Node11&#45;&gt;Node13 -->
<g id="edge17" class="edge">
<title>Node11&#45;&gt;Node13</title>
<path fill="none" stroke="midnightblue" d="M938.42,-56.44C897.77,-47.06 832.47,-31.99 788.32,-21.8"/>
<polygon fill="midnightblue" stroke="midnightblue" points="788.94,-18.35 778.4,-19.52 787.36,-25.18 788.94,-18.35"/>
</g>
<!-- Node14 -->
<g id="node14" class="node">
<title>Node14</title>
<g id="a_node14"><a xlink:title=" ">
<polygon fill="white" stroke="#bfbfbf" points="850,-0.5 850,-19.5 963,-19.5 963,-0.5 850,-0.5"/>
<text text-anchor="middle" x="906.5" y="-7.5" font-family="Helvetica,sans-Serif" font-size="10.00">boost/uuid/uuid.hpp</text>
</a>
</g>
</g>
<!-- Node11&#45;&gt;Node14 -->
<g id="edge18" class="edge">
<title>Node11&#45;&gt;Node14</title>
<path fill="none" stroke="midnightblue" d="M964.41,-56.32C954.01,-48.18 938.24,-35.84 925.78,-26.09"/>
<polygon fill="midnightblue" stroke="midnightblue" points="927.82,-23.24 917.79,-19.83 923.51,-28.75 927.82,-23.24"/>
</g>
<!-- Node15 -->
<g id="node15" class="node">
<title>Node15</title>
<g id="a_node15"><a xlink:title=" ">
<polygon fill="white" stroke="#bfbfbf" points="981,-0.5 981,-19.5 1108,-19.5 1108,-0.5 981,-0.5"/>
<text text-anchor="middle" x="1044.5" y="-7.5" font-family="Helvetica,sans-Serif" font-size="10.00">boost/uuid/uuid_io.hpp</text>
</a>
</g>
</g>
<!-- Node11&#45;&gt;Node15 -->
<g id="edge19" class="edge">
<title>Node11&#45;&gt;Node15</title>
<path fill="none" stroke="midnightblue" d="M986.59,-56.32C996.99,-48.18 1012.76,-35.84 1025.22,-26.09"/>
<polygon fill="midnightblue" stroke="midnightblue" points="1027.49,-28.75 1033.21,-19.83 1023.18,-23.24 1027.49,-28.75"/>
</g>
<!-- Node16 -->
<g id="node16" class="node">
<title>Node16</title>
<g id="a_node16"><a xlink:title=" ">
<polygon fill="white" stroke="#bfbfbf" points="1126.5,-0.5 1126.5,-19.5 1206.5,-19.5 1206.5,-0.5 1126.5,-0.5"/>
<text text-anchor="middle" x="1166.5" y="-7.5" font-family="Helvetica,sans-Serif" font-size="10.00">odb/core.hxx</text>
</a>
</g>
</g>
<!-- Node11&#45;&gt;Node16 -->
<g id="edge20" class="edge">
<title>Node11&#45;&gt;Node16</title>
<path fill="none" stroke="midnightblue" d="M1005.76,-56.44C1038.46,-47.2 1090.68,-32.44 1126.68,-22.26"/>
<polygon fill="midnightblue" stroke="midnightblue" points="1127.71,-25.61 1136.38,-19.52 1125.8,-18.87 1127.71,-25.61"/>
</g>
<!-- Node17 -->
<g id="node17" class="node">
<title>Node17</title>
<g id="a_node17"><a xlink:title=" ">
<polygon fill="white" stroke="#bfbfbf" points="1224.5,-0.5 1224.5,-19.5 1268.5,-19.5 1268.5,-0.5 1224.5,-0.5"/>
<text text-anchor="middle" x="1246.5" y="-7.5" font-family="Helvetica,sans-Serif" font-size="10.00">string</text>
</a>
</g>
</g>
<!-- Node11&#45;&gt;Node17 -->
<g id="edge21" class="edge">
<title>Node11&#45;&gt;Node17</title>
<path fill="none" stroke="midnightblue" d="M1019.12,-58.13C1065.35,-50.56 1140.64,-37.41 1214.31,-20.11"/>
<polygon fill="midnightblue" stroke="midnightblue" points="1215.3,-23.47 1224.22,-17.75 1213.68,-16.66 1215.3,-23.47"/>
</g>
<!-- Node18&#45;&gt;Node6 -->
<g id="edge24" class="edge">
<title>Node18&#45;&gt;Node6</title>
<path fill="none" stroke="midnightblue" d="M521.5,-117.98C521.5,-109.58 521.5,-96.48 521.5,-85.66"/>
<polygon fill="midnightblue" stroke="midnightblue" points="525,-85.51 521.5,-75.51 518,-85.51 525,-85.51"/>
</g>
<!-- Node18&#45;&gt;Node7 -->
<g id="edge25" class="edge">
<title>Node18&#45;&gt;Node7</title>
<path fill="none" stroke="midnightblue" d="M500.44,-117.98C475.44,-107.86 433.56,-90.9 405.01,-79.35"/>
<polygon fill="midnightblue" stroke="midnightblue" points="406.11,-76.02 395.52,-75.51 403.48,-82.51 406.11,-76.02"/>
</g>
<!-- Node19&#45;&gt;Node6 -->
<g id="edge27" class="edge">
<title>Node19&#45;&gt;Node6</title>
<path fill="none" stroke="midnightblue" d="M632.87,-117.98C611.06,-107.99 574.7,-91.35 549.48,-79.81"/>
<polygon fill="midnightblue" stroke="midnightblue" points="550.64,-76.49 540.09,-75.51 547.73,-82.85 550.64,-76.49"/>
</g>
<!-- Node20&#45;&gt;Node6 -->
<g id="edge29" class="edge">
<title>Node20&#45;&gt;Node6</title>
<path fill="none" stroke="midnightblue" d="M763.1,-117.98C709.13,-106.59 614.13,-86.54 560.75,-75.28"/>
<polygon fill="midnightblue" stroke="midnightblue" points="561.16,-71.79 550.65,-73.15 559.72,-78.64 561.16,-71.79"/>
</g>
<!-- Node20&#45;&gt;Node7 -->
<g id="edge30" class="edge">
<title>Node20&#45;&gt;Node7</title>
<path fill="none" stroke="midnightblue" d="M754.88,-117.98C742.69,-115.94 729.63,-113.82 717.5,-112 617.36,-96.99 500.35,-82.24 432.13,-73.91"/>
<polygon fill="midnightblue" stroke="midnightblue" points="432.37,-70.41 422.02,-72.68 431.52,-77.36 432.37,-70.41"/>
</g>
</g>
</svg>
        <g id="navigator" transform="translate(0 0)" fill="#404254">
                <rect fill="#f2f5e9" fill-opacity="0.5" stroke="#606060" stroke-width=".5" x="0" y="0" width="60" height="60"/>
                <use id="zoomplus" xlink:href="#zoomPlus" x="17" y="9" onmousedown="handleZoom(evt,'in')"/>
                <use id="zoomminus" xlink:href="#zoomMin" x="42" y="9" onmousedown="handleZoom(evt,'out')"/>
                <use id="reset" xlink:href="#resetDef" x="30" y="36" onmousedown="handleReset()"/>
                <g id="arrowUp" xlink:href="#dirArrow" transform="translate(30 24)" onmousedown="handlePan(0,-1)">
                  <use xlink:href="#rim" fill="#404040">
                        <set attributeName="fill" to="#808080" begin="arrowUp.mouseover" end="arrowUp.mouseout"/>
                  </use>
                  <path fill="none" stroke="white" stroke-width="1.5" d="M0,-3.0v7 M-2.5,-0.5L0,-3.0L2.5,-0.5"/>
                </g>
                <g id="arrowRight" xlink:href="#dirArrow" transform="rotate(90) translate(36 -43)" onmousedown="handlePan(1,0)">
                  <use xlink:href="#rim" fill="#404040">
                        <set attributeName="fill" to="#808080" begin="arrowRight.mouseover" end="arrowRight.mouseout"/>
                  </use>
                  <path fill="none" stroke="white" stroke-width="1.5" d="M0,-3.0v7 M-2.5,-0.5L0,-3.0L2.5,-0.5"/>
                </g>
                <g id="arrowDown" xlink:href="#dirArrow" transform="rotate(180) translate(-30 -48)" onmousedown="handlePan(0,1)">
                  <use xlink:href="#rim" fill="#404040">
                        <set attributeName="fill" to="#808080" begin="arrowDown.mouseover" end="arrowDown.mouseout"/>
                  </use>
                  <path fill="none" stroke="white" stroke-width="1.5" d="M0,-3.0v7 M-2.5,-0.5L0,-3.0L2.5,-0.5"/>
                </g>
                <g id="arrowLeft" xlink:href="#dirArrow" transform="rotate(270) translate(-36 17)" onmousedown="handlePan(-1,0)">
                  <use xlink:href="#rim" fill="#404040">
                        <set attributeName="fill" to="#808080" begin="arrowLeft.mouseover" end="arrowLeft.mouseout"/>
                  </use>
                  <path fill="none" stroke="white" stroke-width="1.5" d="M0,-3.0v7 M-2.5,-0.5L0,-3.0L2.5,-0.5"/>
                </g>
        </g>
        <svg viewBox="0 0 15 15" width="100%" height="30px" preserveAspectRatio="xMaxYMin meet">
         <g id="arrow_out" transform="scale(0.3 0.3)">
          <a xlink:href="UpdateSerializer_8hpp__incl_org.svg" target="_base">
           <rect id="button" ry="5" rx="5" y="6" x="6" height="38" width="38"
                fill="#f2f5e9" fill-opacity="0.5" stroke="#606060" stroke-width="1.0"/>
           <path id="arrow"
             d="M 11.500037,31.436501 C 11.940474,20.09759 22.043105,11.32322 32.158766,21.979434 L 37.068811,17.246167 C 37.068811,17.246167 37.088388,32 37.088388,32 L 22.160133,31.978069 C 22.160133,31.978069 26.997745,27.140456 26.997745,27.140456 C 18.528582,18.264221 13.291696,25.230495 11.500037,31.436501 z"
             style="fill:#404040;"/>
          </a>
         </g>
        </svg>
</svg>
