<?xml version="1.0" encoding="UTF-8" standalone="no"?>
<!DOCTYPE svg PUBLIC "-//W3C//DTD SVG 1.1//EN"
 "http://www.w3.org/Graphics/SVG/1.1/DTD/svg11.dtd">
<!-- Generated by graphviz version 2.43.0 (0)
 -->
<!-- Title: Leosac::SecurityContext Pages: 1 -->
<svg width="170pt" height="296pt"
 viewBox="0.00 0.00 170.00 296.00" xmlns="http://www.w3.org/2000/svg" xmlns:xlink="http://www.w3.org/1999/xlink">
<g id="graph0" class="graph" transform="scale(1 1) rotate(0) translate(4 292)">
<title>Leosac::SecurityContext</title>
<polygon fill="white" stroke="transparent" points="-4,4 -4,-292 166,-292 166,4 -4,4"/>
<!-- Node1 -->
<g id="node1" class="node">
<title>Node1</title>
<g id="a_node1"><a xlink:title="A SecurityContext is used to query permission while doing an operation.">
<polygon fill="#bfbfbf" stroke="black" points="14,-0.5 14,-19.5 148,-19.5 148,-0.5 14,-0.5"/>
<text text-anchor="middle" x="81" y="-7.5" font-family="Helvetica,sans-Serif" font-size="10.00">Leosac::SecurityContext</text>
</a>
</g>
</g>
<!-- Node2 -->
<g id="node2" class="node">
<title>Node2</title>
<g id="a_node2"><a xlink:title=" ">
<polygon fill="white" stroke="#bfbfbf" points="0,-67.5 0,-86.5 162,-86.5 162,-67.5 0,-67.5"/>
<text text-anchor="middle" x="81" y="-74.5" font-family="Helvetica,sans-Serif" font-size="10.00">std::shared_ptr&lt; DBService &gt;</text>
</a>
</g>
</g>
<!-- Node2&#45;&gt;Node1 -->
<g id="edge1" class="edge">
<title>Node2&#45;&gt;Node1</title>
<path fill="none" stroke="#9a32cd" stroke-dasharray="5,2" d="M81,-57.04C81,-44.67 81,-29.12 81,-19.63"/>
<polygon fill="#9a32cd" stroke="#9a32cd" points="77.5,-57.23 81,-67.23 84.5,-57.23 77.5,-57.23"/>
<text text-anchor="middle" x="99" y="-41" font-family="Helvetica,sans-Serif" font-size="10.00"> dbsrv_</text>
</g>
<!-- Node3 -->
<g id="node3" class="node">
<title>Node3</title>
<g id="a_node3"><a xlink:href="../../d7/def/classLeosac_1_1DBService.html" target="_top" xlink:title="Provides various database&#45;related services to consumer.">
<polygon fill="white" stroke="black" points="27.5,-134.5 27.5,-153.5 134.5,-153.5 134.5,-134.5 27.5,-134.5"/>
<text text-anchor="middle" x="81" y="-141.5" font-family="Helvetica,sans-Serif" font-size="10.00">Leosac::DBService</text>
</a>
</g>
</g>
<!-- Node3&#45;&gt;Node2 -->
<g id="edge2" class="edge">
<title>Node3&#45;&gt;Node2</title>
<path fill="none" stroke="#9a32cd" stroke-dasharray="5,2" d="M81,-124.04C81,-111.67 81,-96.12 81,-86.63"/>
<polygon fill="#9a32cd" stroke="#9a32cd" points="77.5,-124.23 81,-134.23 84.5,-124.23 77.5,-124.23"/>
<text text-anchor="middle" x="89.5" y="-108" font-family="Helvetica,sans-Serif" font-size="10.00"> ptr</text>
</g>
<!-- Node4 -->
<g id="node4" class="node">
<title>Node4</title>
<g id="a_node4"><a xlink:title="STL class.">
<polygon fill="white" stroke="#bfbfbf" points="22,-201.5 22,-220.5 140,-220.5 140,-201.5 22,-201.5"/>
<text text-anchor="middle" x="81" y="-208.5" font-family="Helvetica,sans-Serif" font-size="10.00">std::shared_ptr&lt; T &gt;</text>
</a>
</g>
</g>
<!-- Node4&#45;&gt;Node3 -->
<g id="edge3" class="edge">
<title>Node4&#45;&gt;Node3</title>
<path fill="none" stroke="#9a32cd" stroke-dasharray="5,2" d="M81,-191.04C81,-178.67 81,-163.12 81,-153.63"/>
<polygon fill="#9a32cd" stroke="#9a32cd" points="77.5,-191.23 81,-201.23 84.5,-191.23 77.5,-191.23"/>
<text text-anchor="middle" x="108" y="-175" font-family="Helvetica,sans-Serif" font-size="10.00"> database_</text>
</g>
<!-- Node5 -->
<g id="node5" class="node">
<title>Node5</title>
<g id="a_node5"><a xlink:title=" ">
<polygon fill="white" stroke="#bfbfbf" points="66.5,-268.5 66.5,-287.5 95.5,-287.5 95.5,-268.5 66.5,-268.5"/>
<text text-anchor="middle" x="81" y="-275.5" font-family="Helvetica,sans-Serif" font-size="10.00">T</text>
</a>
</g>
</g>
<!-- Node5&#45;&gt;Node4 -->
<g id="edge4" class="edge">
<title>Node5&#45;&gt;Node4</title>
<path fill="none" stroke="#9a32cd" stroke-dasharray="5,2" d="M81,-258.04C81,-245.67 81,-230.12 81,-220.63"/>
<polygon fill="#9a32cd" stroke="#9a32cd" points="77.5,-258.23 81,-268.23 84.5,-258.23 77.5,-258.23"/>
<text text-anchor="middle" x="89.5" y="-242" font-family="Helvetica,sans-Serif" font-size="10.00"> ptr</text>
</g>
</g>
</svg>
