<?xml version="1.0" encoding="UTF-8" standalone="no"?>
<!DOCTYPE svg PUBLIC "-//W3C//DTD SVG 1.1//EN"
 "http://www.w3.org/Graphics/SVG/1.1/DTD/svg11.dtd">
<!-- Generated by graphviz version 2.43.0 (0)
 -->
<!-- Title: src/modules/test&#45;and&#45;reset/TestAndResetModule.hpp Pages: 1 -->
<!--zoomable 386 -->
<svg id="main" version="1.1" xmlns="http://www.w3.org/2000/svg" xmlns:xlink="http://www.w3.org/1999/xlink" xml:space="preserve" onload="init(evt)">
<style type="text/css"><![CDATA[
.edge:hover path { stroke: red; }
.edge:hover polygon { stroke: red; fill: red; }
]]></style>
<script type="text/javascript"><![CDATA[
var edges = document.getElementsByTagName('g');
if (edges && edges.length) {
  for (var i=0;i<edges.length;i++) {
    if (edges[i].id.substr(0,4)=='edge') {
      edges[i].setAttribute('class','edge');
    }
  }
}
]]></script>
        <defs>
                <circle id="rim" cx="0" cy="0" r="7"/>
                <circle id="rim2" cx="0" cy="0" r="3.5"/>
                <g id="zoomPlus">
                        <use xlink:href="#rim" fill="#404040">
                                <set attributeName="fill" to="#808080" begin="zoomplus.mouseover" end="zoomplus.mouseout"/>
                        </use>
                        <path d="M-4,0h8M0,-4v8" fill="none" stroke="white" stroke-width="1.5" pointer-events="none"/>
                </g>
                <g id="zoomMin">
                        <use xlink:href="#rim" fill="#404040">
                                <set attributeName="fill" to="#808080" begin="zoomminus.mouseover" end="zoomminus.mouseout"/>
                        </use>
                        <path d="M-4,0h8" fill="none" stroke="white" stroke-width="1.5" pointer-events="none"/>
                </g>
                <g id="dirArrow">
                        <path fill="none" stroke="white" stroke-width="1.5" d="M0,-3.0v7 M-2.5,-0.5L0,-3.0L2.5,-0.5"/>
                </g>
               <g id="resetDef">
                       <use xlink:href="#rim2" fill="#404040">
                               <set attributeName="fill" to="#808080" begin="reset.mouseover" end="reset.mouseout"/>
                       </use>
               </g>
        </defs>

<script type="text/javascript">
var viewWidth = 2460;
var viewHeight = 386;
var sectionId = 'dynsection-0';
</script>
<script xlink:href="../../svgpan.js"/>
<svg id="graph" class="graph">
<g id="viewport">
<title>src/modules/test&#45;and&#45;reset/TestAndResetModule.hpp</title>
<polygon fill="white" stroke="transparent" points="-4,4 -4,-382 2456.23,-382 2456.23,4 -4,4"/>
<!-- Node1 -->
<g id="node1" class="node">
<title>Node1</title>
<g id="a_node1"><a xlink:title=" ">
<polygon fill="#bfbfbf" stroke="black" points="378,-347.5 378,-377.5 549,-377.5 549,-347.5 378,-347.5"/>
<text text-anchor="start" x="386" y="-365.5" font-family="Helvetica,sans-Serif" font-size="10.00">src/modules/test&#45;and</text>
<text text-anchor="middle" x="463.5" y="-354.5" font-family="Helvetica,sans-Serif" font-size="10.00">&#45;reset/TestAndResetModule.hpp</text>
</a>
</g>
</g>
<!-- Node2 -->
<g id="node2" class="node">
<title>Node2</title>
<g id="a_node2"><a xlink:href="../../d3/dbd/FLED_8hpp.html" target="_top" xlink:title=" ">
<polygon fill="white" stroke="black" points="134.5,-291.5 134.5,-310.5 286.5,-310.5 286.5,-291.5 134.5,-291.5"/>
<text text-anchor="middle" x="210.5" y="-298.5" font-family="Helvetica,sans-Serif" font-size="10.00">hardware/facades/FLED.hpp</text>
</a>
</g>
</g>
<!-- Node1&#45;&gt;Node2 -->
<g id="edge1" class="edge">
<title>Node1&#45;&gt;Node2</title>
<path fill="none" stroke="midnightblue" d="M403.86,-347.47C358.79,-336.87 297.81,-322.53 256.47,-312.81"/>
<polygon fill="midnightblue" stroke="midnightblue" points="257.21,-309.39 246.67,-310.51 255.6,-316.2 257.21,-309.39"/>
</g>
<!-- Node7 -->
<g id="node7" class="node">
<title>Node7</title>
<g id="a_node7"><a xlink:href="../../d0/dc7/BaseModule_8hpp.html" target="_top" xlink:title=" ">
<polygon fill="white" stroke="black" points="682,-291.5 682,-310.5 825,-310.5 825,-291.5 682,-291.5"/>
<text text-anchor="middle" x="753.5" y="-298.5" font-family="Helvetica,sans-Serif" font-size="10.00">modules/BaseModule.hpp</text>
</a>
</g>
</g>
<!-- Node1&#45;&gt;Node7 -->
<g id="edge6" class="edge">
<title>Node1&#45;&gt;Node7</title>
<path fill="none" stroke="midnightblue" d="M531.86,-347.47C583.97,-336.78 654.6,-322.29 702,-312.57"/>
<polygon fill="midnightblue" stroke="midnightblue" points="702.95,-315.94 712.04,-310.51 701.54,-309.09 702.95,-315.94"/>
</g>
<!-- Node3 -->
<g id="node3" class="node">
<title>Node3</title>
<g id="a_node3"><a xlink:title=" ">
<polygon fill="white" stroke="#bfbfbf" points="281.5,-235.5 281.5,-254.5 331.5,-254.5 331.5,-235.5 281.5,-235.5"/>
<text text-anchor="middle" x="306.5" y="-242.5" font-family="Helvetica,sans-Serif" font-size="10.00">chrono</text>
</a>
</g>
</g>
<!-- Node2&#45;&gt;Node3 -->
<g id="edge2" class="edge">
<title>Node2&#45;&gt;Node3</title>
<path fill="none" stroke="midnightblue" d="M225.92,-291.32C241.04,-282.82 264.32,-269.73 281.97,-259.8"/>
<polygon fill="midnightblue" stroke="midnightblue" points="284.11,-262.61 291.11,-254.65 280.68,-256.51 284.11,-262.61"/>
</g>
<!-- Node4 -->
<g id="node4" class="node">
<title>Node4</title>
<g id="a_node4"><a xlink:title=" ">
<polygon fill="white" stroke="#bfbfbf" points="1305.5,-0.5 1305.5,-19.5 1349.5,-19.5 1349.5,-0.5 1305.5,-0.5"/>
<text text-anchor="middle" x="1327.5" y="-7.5" font-family="Helvetica,sans-Serif" font-size="10.00">string</text>
</a>
</g>
</g>
<!-- Node2&#45;&gt;Node4 -->
<g id="edge3" class="edge">
<title>Node2&#45;&gt;Node4</title>
<path fill="none" stroke="midnightblue" d="M192.67,-291.39C178.64,-283.72 159.67,-271.21 148.5,-255 130.09,-228.27 129.5,-216.95 129.5,-184.5 129.5,-184.5 129.5,-184.5 129.5,-121 129.5,28.92 311.71,-74.38 460.5,-56 784.38,-16 1180.59,-11.47 1295.1,-11.03"/>
<polygon fill="midnightblue" stroke="midnightblue" points="1295.3,-14.53 1305.29,-11 1295.28,-7.53 1295.3,-14.53"/>
</g>
<!-- Node5 -->
<g id="node5" class="node">
<title>Node5</title>
<g id="a_node5"><a xlink:title=" ">
<polygon fill="white" stroke="#bfbfbf" points="0,-235.5 0,-254.5 101,-254.5 101,-235.5 0,-235.5"/>
<text text-anchor="middle" x="50.5" y="-242.5" font-family="Helvetica,sans-Serif" font-size="10.00">zmqpp/poller.hpp</text>
</a>
</g>
</g>
<!-- Node2&#45;&gt;Node5 -->
<g id="edge4" class="edge">
<title>Node2&#45;&gt;Node5</title>
<path fill="none" stroke="midnightblue" d="M185.15,-291.44C158.23,-282.36 115.5,-267.94 85.41,-257.78"/>
<polygon fill="midnightblue" stroke="midnightblue" points="86.33,-254.4 75.73,-254.52 84.09,-261.03 86.33,-254.4"/>
</g>
<!-- Node6 -->
<g id="node6" class="node">
<title>Node6</title>
<g id="a_node6"><a xlink:title=" ">
<polygon fill="white" stroke="#bfbfbf" points="158,-235.5 158,-254.5 263,-254.5 263,-235.5 158,-235.5"/>
<text text-anchor="middle" x="210.5" y="-242.5" font-family="Helvetica,sans-Serif" font-size="10.00">zmqpp/socket.hpp</text>
</a>
</g>
</g>
<!-- Node2&#45;&gt;Node6 -->
<g id="edge5" class="edge">
<title>Node2&#45;&gt;Node6</title>
<path fill="none" stroke="midnightblue" d="M210.5,-291.08C210.5,-284.01 210.5,-273.86 210.5,-264.99"/>
<polygon fill="midnightblue" stroke="midnightblue" points="214,-264.75 210.5,-254.75 207,-264.75 214,-264.75"/>
</g>
<!-- Node8 -->
<g id="node8" class="node">
<title>Node8</title>
<g id="a_node8"><a xlink:href="../../dc/d49/LeosacFwd_8hpp.html" target="_top" xlink:title=" ">
<polygon fill="white" stroke="black" points="670.5,-235.5 670.5,-254.5 762.5,-254.5 762.5,-235.5 670.5,-235.5"/>
<text text-anchor="middle" x="716.5" y="-242.5" font-family="Helvetica,sans-Serif" font-size="10.00">LeosacFwd.hpp</text>
</a>
</g>
</g>
<!-- Node7&#45;&gt;Node8 -->
<g id="edge7" class="edge">
<title>Node7&#45;&gt;Node8</title>
<path fill="none" stroke="midnightblue" d="M747.39,-291.08C742.22,-283.53 734.65,-272.49 728.31,-263.23"/>
<polygon fill="midnightblue" stroke="midnightblue" points="731.04,-261.02 722.5,-254.75 725.26,-264.98 731.04,-261.02"/>
</g>
<!-- Node11 -->
<g id="node11" class="node">
<title>Node11</title>
<g id="a_node11"><a xlink:href="../../db/d33/ConfigChecker_8hpp.html" target="_top" xlink:title=" ">
<polygon fill="white" stroke="black" points="489,-235.5 489,-254.5 652,-254.5 652,-235.5 489,-235.5"/>
<text text-anchor="middle" x="570.5" y="-242.5" font-family="Helvetica,sans-Serif" font-size="10.00">core/config/ConfigChecker.hpp</text>
</a>
</g>
</g>
<!-- Node7&#45;&gt;Node11 -->
<g id="edge10" class="edge">
<title>Node7&#45;&gt;Node11</title>
<path fill="none" stroke="midnightblue" d="M724.5,-291.44C693.32,-282.24 643.57,-267.56 609.09,-257.39"/>
<polygon fill="midnightblue" stroke="midnightblue" points="609.94,-253.99 599.36,-254.52 607.96,-260.7 609.94,-253.99"/>
</g>
<!-- Node14 -->
<g id="node14" class="node">
<title>Node14</title>
<g id="a_node14"><a xlink:href="../../db/d79/ConfigManager_8hpp.html" target="_top" xlink:title=" ">
<polygon fill="white" stroke="black" points="818,-235.5 818,-254.5 985,-254.5 985,-235.5 818,-235.5"/>
<text text-anchor="middle" x="901.5" y="-242.5" font-family="Helvetica,sans-Serif" font-size="10.00">core/config/ConfigManager.hpp</text>
</a>
</g>
</g>
<!-- Node7&#45;&gt;Node14 -->
<g id="edge13" class="edge">
<title>Node7&#45;&gt;Node14</title>
<path fill="none" stroke="midnightblue" d="M776.95,-291.44C801.63,-282.44 840.69,-268.19 868.48,-258.05"/>
<polygon fill="midnightblue" stroke="midnightblue" points="869.96,-261.23 878.16,-254.52 867.56,-254.66 869.96,-261.23"/>
</g>
<!-- Node30 -->
<g id="node30" class="node">
<title>Node30</title>
<g id="a_node30"><a xlink:href="../../d4/d3d/log_8hpp.html" target="_top" xlink:title=" ">
<polygon fill="white" stroke="black" points="2207.5,-174 2207.5,-193 2287.5,-193 2287.5,-174 2207.5,-174"/>
<text text-anchor="middle" x="2247.5" y="-181" font-family="Helvetica,sans-Serif" font-size="10.00">tools/log.hpp</text>
</a>
</g>
</g>
<!-- Node7&#45;&gt;Node30 -->
<g id="edge67" class="edge">
<title>Node7&#45;&gt;Node30</title>
<path fill="none" stroke="midnightblue" d="M825.28,-300.77C1037.29,-301.8 1678.42,-296.04 2198.5,-199 2203.04,-198.15 2207.75,-197.05 2212.39,-195.83"/>
<polygon fill="midnightblue" stroke="midnightblue" points="2213.64,-199.12 2222.31,-193.04 2211.74,-192.38 2213.64,-199.12"/>
</g>
<!-- Node35 -->
<g id="node35" class="node">
<title>Node35</title>
<g id="a_node35"><a xlink:title=" ">
<polygon fill="white" stroke="#bfbfbf" points="734,-168.5 734,-198.5 847,-198.5 847,-168.5 734,-168.5"/>
<text text-anchor="start" x="742" y="-186.5" font-family="Helvetica,sans-Serif" font-size="10.00">boost/property_tree</text>
<text text-anchor="middle" x="790.5" y="-175.5" font-family="Helvetica,sans-Serif" font-size="10.00">/ptree.hpp</text>
</a>
</g>
</g>
<!-- Node7&#45;&gt;Node35 -->
<g id="edge68" class="edge">
<title>Node7&#45;&gt;Node35</title>
<path fill="none" stroke="midnightblue" d="M757.25,-291.48C761.13,-282.52 767.19,-267.93 771.5,-255 776.56,-239.82 781.25,-222.46 784.71,-208.77"/>
<polygon fill="midnightblue" stroke="midnightblue" points="788.2,-209.24 787.2,-198.69 781.4,-207.56 788.2,-209.24"/>
</g>
<!-- Node36 -->
<g id="node36" class="node">
<title>Node36</title>
<g id="a_node36"><a xlink:title=" ">
<polygon fill="white" stroke="#bfbfbf" points="2082,-174 2082,-193 2189,-193 2189,-174 2082,-174"/>
<text text-anchor="middle" x="2135.5" y="-181" font-family="Helvetica,sans-Serif" font-size="10.00">zmqpp/zmqpp.hpp</text>
</a>
</g>
</g>
<!-- Node7&#45;&gt;Node36 -->
<g id="edge69" class="edge">
<title>Node7&#45;&gt;Node36</title>
<path fill="none" stroke="midnightblue" d="M825.39,-294.74C1091.1,-275.27 2005.62,-207.94 2067.5,-199 2074.81,-197.94 2082.51,-196.57 2090,-195.08"/>
<polygon fill="midnightblue" stroke="midnightblue" points="2090.93,-198.46 2100.02,-193 2089.51,-191.6 2090.93,-198.46"/>
</g>
<!-- Node37 -->
<g id="node37" class="node">
<title>Node37</title>
<g id="a_node37"><a xlink:href="../../d1/d91/ThreadUtils_8hpp.html" target="_top" xlink:title=" ">
<polygon fill="white" stroke="black" points="350,-235.5 350,-254.5 471,-254.5 471,-235.5 350,-235.5"/>
<text text-anchor="middle" x="410.5" y="-242.5" font-family="Helvetica,sans-Serif" font-size="10.00">tools/ThreadUtils.hpp</text>
</a>
</g>
</g>
<!-- Node7&#45;&gt;Node37 -->
<g id="edge64" class="edge">
<title>Node7&#45;&gt;Node37</title>
<path fill="none" stroke="midnightblue" d="M699.15,-291.44C638.19,-281.85 539.39,-266.29 474.68,-256.1"/>
<polygon fill="midnightblue" stroke="midnightblue" points="475.02,-252.61 464.6,-254.52 473.93,-259.53 475.02,-252.61"/>
</g>
<!-- Node9 -->
<g id="node9" class="node">
<title>Node9</title>
<g id="a_node9"><a xlink:title=" ">
<polygon fill="white" stroke="#bfbfbf" points="657.5,-174 657.5,-193 715.5,-193 715.5,-174 657.5,-174"/>
<text text-anchor="middle" x="686.5" y="-181" font-family="Helvetica,sans-Serif" font-size="10.00">memory</text>
</a>
</g>
</g>
<!-- Node8&#45;&gt;Node9 -->
<g id="edge8" class="edge">
<title>Node8&#45;&gt;Node9</title>
<path fill="none" stroke="midnightblue" d="M712.2,-235.48C707.84,-226.82 700.94,-213.15 695.4,-202.15"/>
<polygon fill="midnightblue" stroke="midnightblue" points="698.42,-200.36 690.79,-193.01 692.17,-203.51 698.42,-200.36"/>
</g>
<!-- Node10 -->
<g id="node10" class="node">
<title>Node10</title>
<g id="a_node10"><a xlink:title=" ">
<polygon fill="white" stroke="#bfbfbf" points="496,-56.5 496,-75.5 543,-75.5 543,-56.5 496,-56.5"/>
<text text-anchor="middle" x="519.5" y="-63.5" font-family="Helvetica,sans-Serif" font-size="10.00">vector</text>
</a>
</g>
</g>
<!-- Node8&#45;&gt;Node10 -->
<g id="edge9" class="edge">
<title>Node8&#45;&gt;Node10</title>
<path fill="none" stroke="midnightblue" d="M670.19,-236.59C639.36,-230.13 598.89,-218.62 567.5,-199 533.1,-177.49 520.3,-169.78 505.5,-132 499.52,-116.73 504.49,-98.4 510.09,-85.1"/>
<polygon fill="midnightblue" stroke="midnightblue" points="513.44,-86.21 514.53,-75.67 507.1,-83.23 513.44,-86.21"/>
</g>
<!-- Node12 -->
<g id="node12" class="node">
<title>Node12</title>
<g id="a_node12"><a xlink:title=" ">
<polygon fill="white" stroke="#bfbfbf" points="576.5,-174 576.5,-193 614.5,-193 614.5,-174 576.5,-174"/>
<text text-anchor="middle" x="595.5" y="-181" font-family="Helvetica,sans-Serif" font-size="10.00">map</text>
</a>
</g>
</g>
<!-- Node11&#45;&gt;Node12 -->
<g id="edge11" class="edge">
<title>Node11&#45;&gt;Node12</title>
<path fill="none" stroke="midnightblue" d="M574.08,-235.48C577.68,-226.9 583.35,-213.43 587.94,-202.48"/>
<polygon fill="midnightblue" stroke="midnightblue" points="591.28,-203.58 591.92,-193.01 584.82,-200.87 591.28,-203.58"/>
</g>
<!-- Node13 -->
<g id="node13" class="node">
<title>Node13</title>
<g id="a_node13"><a xlink:title=" ">
<polygon fill="white" stroke="#bfbfbf" points="438.5,-174 438.5,-193 486.5,-193 486.5,-174 438.5,-174"/>
<text text-anchor="middle" x="462.5" y="-181" font-family="Helvetica,sans-Serif" font-size="10.00">mutex</text>
</a>
</g>
</g>
<!-- Node11&#45;&gt;Node13 -->
<g id="edge12" class="edge">
<title>Node11&#45;&gt;Node13</title>
<path fill="none" stroke="midnightblue" d="M555.03,-235.48C537.22,-225.67 507.76,-209.43 486.87,-197.92"/>
<polygon fill="midnightblue" stroke="midnightblue" points="488.39,-194.77 477.95,-193.01 485.01,-200.9 488.39,-194.77"/>
</g>
<!-- Node14&#45;&gt;Node4 -->
<g id="edge61" class="edge">
<title>Node14&#45;&gt;Node4</title>
<path fill="none" stroke="midnightblue" d="M985.27,-242.09C1235.92,-235.5 1967.05,-209.74 2037.5,-132 2132.01,-27.71 1511.28,-13.27 1360.13,-11.3"/>
<polygon fill="midnightblue" stroke="midnightblue" points="1359.73,-7.8 1349.69,-11.18 1359.64,-14.8 1359.73,-7.8"/>
</g>
<!-- Node14&#45;&gt;Node9 -->
<g id="edge60" class="edge">
<title>Node14&#45;&gt;Node9</title>
<path fill="none" stroke="midnightblue" d="M862.46,-235.44C826.36,-227.21 771.35,-213.84 724.5,-199 722.09,-198.24 719.6,-197.4 717.11,-196.53"/>
<polygon fill="midnightblue" stroke="midnightblue" points="718.24,-193.22 707.65,-193.07 715.84,-199.79 718.24,-193.22"/>
</g>
<!-- Node14&#45;&gt;Node10 -->
<g id="edge62" class="edge">
<title>Node14&#45;&gt;Node10</title>
<path fill="none" stroke="midnightblue" d="M898.99,-235.12C893.84,-218.74 880.43,-183.97 855.5,-168 736.11,-91.51 646.97,-223.32 538.5,-132 525.17,-120.78 520.91,-100.76 519.68,-85.9"/>
<polygon fill="midnightblue" stroke="midnightblue" points="523.17,-85.6 519.23,-75.76 516.18,-85.91 523.17,-85.6"/>
</g>
<!-- Node14&#45;&gt;Node12 -->
<g id="edge59" class="edge">
<title>Node14&#45;&gt;Node12</title>
<path fill="none" stroke="midnightblue" d="M844.93,-235.45C793.47,-227.31 715.52,-214.1 648.5,-199 640.61,-197.22 632.12,-195.03 624.31,-192.89"/>
<polygon fill="midnightblue" stroke="midnightblue" points="625.1,-189.48 614.53,-190.16 623.22,-196.22 625.1,-189.48"/>
</g>
<!-- Node15 -->
<g id="node15" class="node">
<title>Node15</title>
<g id="a_node15"><a xlink:href="../../d1/ddd/leosacexception_8hpp.html" target="_top" xlink:title="Exception class for LEOSAC Project related errors.">
<polygon fill="white" stroke="black" points="1177.5,-174 1177.5,-193 1345.5,-193 1345.5,-174 1177.5,-174"/>
<text text-anchor="middle" x="1261.5" y="-181" font-family="Helvetica,sans-Serif" font-size="10.00">exception/leosacexception.hpp</text>
</a>
</g>
</g>
<!-- Node14&#45;&gt;Node15 -->
<g id="edge14" class="edge">
<title>Node14&#45;&gt;Node15</title>
<path fill="none" stroke="midnightblue" d="M953.08,-235.48C1018.31,-224.69 1130.48,-206.15 1200.07,-194.65"/>
<polygon fill="midnightblue" stroke="midnightblue" points="1200.72,-198.09 1210.02,-193.01 1199.58,-191.19 1200.72,-198.09"/>
</g>
<!-- Node14&#45;&gt;Node30 -->
<g id="edge51" class="edge">
<title>Node14&#45;&gt;Node30</title>
<path fill="none" stroke="midnightblue" d="M985.01,-243.86C1233.19,-243 1963.6,-237.2 2198.5,-199 2203.34,-198.21 2208.36,-197.09 2213.28,-195.82"/>
<polygon fill="midnightblue" stroke="midnightblue" points="2214.43,-199.13 2223.11,-193.04 2212.53,-192.39 2214.43,-199.13"/>
</g>
<!-- Node14&#45;&gt;Node35 -->
<g id="edge58" class="edge">
<title>Node14&#45;&gt;Node35</title>
<path fill="none" stroke="midnightblue" d="M885.6,-235.48C870,-227.12 845.7,-214.09 825.57,-203.3"/>
<polygon fill="midnightblue" stroke="midnightblue" points="827.13,-200.16 816.66,-198.52 823.82,-206.33 827.13,-200.16"/>
</g>
<!-- Node14&#45;&gt;Node36 -->
<g id="edge63" class="edge">
<title>Node14&#45;&gt;Node36</title>
<path fill="none" stroke="midnightblue" d="M985.39,-242.63C1216.29,-238.57 1857.94,-225.19 2067.5,-199 2075.16,-198.04 2083.24,-196.66 2091.05,-195.12"/>
<polygon fill="midnightblue" stroke="midnightblue" points="2092.02,-198.49 2101.1,-193.03 2090.6,-191.64 2092.02,-198.49"/>
</g>
<!-- Node15&#45;&gt;Node4 -->
<g id="edge20" class="edge">
<title>Node15&#45;&gt;Node4</title>
<path fill="none" stroke="midnightblue" d="M1243.57,-173.96C1220.76,-161.82 1185.78,-138.12 1198.5,-112 1219.16,-69.59 1267.19,-39.74 1298.46,-23.98"/>
<polygon fill="midnightblue" stroke="midnightblue" points="1300.12,-27.06 1307.57,-19.54 1297.05,-20.77 1300.12,-27.06"/>
</g>
<!-- Node16 -->
<g id="node16" class="node">
<title>Node16</title>
<g id="a_node16"><a xlink:href="../../d6/d2f/Stacktrace_8hpp.html" target="_top" xlink:title=" ">
<polygon fill="white" stroke="black" points="547.5,-112.5 547.5,-131.5 663.5,-131.5 663.5,-112.5 547.5,-112.5"/>
<text text-anchor="middle" x="605.5" y="-119.5" font-family="Helvetica,sans-Serif" font-size="10.00">tools/Stacktrace.hpp</text>
</a>
</g>
</g>
<!-- Node15&#45;&gt;Node16 -->
<g id="edge15" class="edge">
<title>Node15&#45;&gt;Node16</title>
<path fill="none" stroke="midnightblue" d="M1177.49,-176.57C1065.12,-168.36 859.44,-152.32 673.54,-132.07"/>
<polygon fill="midnightblue" stroke="midnightblue" points="673.91,-128.59 663.58,-130.98 673.14,-135.54 673.91,-128.59"/>
</g>
<!-- Node17 -->
<g id="node17" class="node">
<title>Node17</title>
<g id="a_node17"><a xlink:title=" ">
<polygon fill="white" stroke="#bfbfbf" points="1842,-112.5 1842,-131.5 1895,-131.5 1895,-112.5 1842,-112.5"/>
<text text-anchor="middle" x="1868.5" y="-119.5" font-family="Helvetica,sans-Serif" font-size="10.00">cstddef</text>
</a>
</g>
</g>
<!-- Node15&#45;&gt;Node17 -->
<g id="edge18" class="edge">
<title>Node15&#45;&gt;Node17</title>
<path fill="none" stroke="midnightblue" d="M1345.89,-179.37C1455.9,-174.32 1654.26,-161.92 1831.8,-132.05"/>
<polygon fill="midnightblue" stroke="midnightblue" points="1832.57,-135.47 1841.84,-130.33 1831.4,-128.56 1832.57,-135.47"/>
</g>
<!-- Node18 -->
<g id="node18" class="node">
<title>Node18</title>
<g id="a_node18"><a xlink:title=" ">
<polygon fill="white" stroke="#bfbfbf" points="822,-112.5 822,-131.5 887,-131.5 887,-112.5 822,-112.5"/>
<text text-anchor="middle" x="854.5" y="-119.5" font-family="Helvetica,sans-Serif" font-size="10.00">exception</text>
</a>
</g>
</g>
<!-- Node15&#45;&gt;Node18 -->
<g id="edge19" class="edge">
<title>Node15&#45;&gt;Node18</title>
<path fill="none" stroke="midnightblue" d="M1186.92,-173.96C1115.02,-165.33 1002.94,-150.83 897.03,-132.17"/>
<polygon fill="midnightblue" stroke="midnightblue" points="897.59,-128.71 887.13,-130.41 896.36,-135.6 897.59,-128.71"/>
</g>
<!-- Node19 -->
<g id="node19" class="node">
<title>Node19</title>
<g id="a_node19"><a xlink:href="../../d7/d7a/configexception_8hpp.html" target="_top" xlink:title=" ">
<polygon fill="white" stroke="black" points="1913,-112.5 1913,-131.5 2028,-131.5 2028,-112.5 1913,-112.5"/>
<text text-anchor="middle" x="1970.5" y="-119.5" font-family="Helvetica,sans-Serif" font-size="10.00">configexception.hpp</text>
</a>
</g>
</g>
<!-- Node15&#45;&gt;Node19 -->
<g id="edge21" class="edge">
<title>Node15&#45;&gt;Node19</title>
<path fill="none" stroke="midnightblue" d="M1345.6,-177.05C1467.15,-169.15 1698.71,-153.13 1895.5,-132 1897.88,-131.74 1900.3,-131.47 1902.75,-131.19"/>
<polygon fill="midnightblue" stroke="midnightblue" points="1903.44,-134.63 1912.94,-129.95 1902.59,-127.68 1903.44,-134.63"/>
</g>
<!-- Node22 -->
<g id="node22" class="node">
<title>Node22</title>
<g id="a_node22"><a xlink:href="../../d8/db0/coreexception_8hpp.html" target="_top" xlink:title="Exception class for Core related errors.">
<polygon fill="white" stroke="black" points="1208,-112.5 1208,-131.5 1315,-131.5 1315,-112.5 1208,-112.5"/>
<text text-anchor="middle" x="1261.5" y="-119.5" font-family="Helvetica,sans-Serif" font-size="10.00">coreexception.hpp</text>
</a>
</g>
</g>
<!-- Node15&#45;&gt;Node22 -->
<g id="edge27" class="edge">
<title>Node15&#45;&gt;Node22</title>
<path fill="none" stroke="midnightblue" d="M1256.6,-173.98C1254.77,-165.58 1254.3,-152.48 1255.19,-141.66"/>
<polygon fill="midnightblue" stroke="midnightblue" points="1258.69,-141.9 1256.6,-131.51 1251.75,-140.93 1258.69,-141.9"/>
</g>
<!-- Node23 -->
<g id="node23" class="node">
<title>Node23</title>
<g id="a_node23"><a xlink:href="../../d8/d77/deviceexception_8hpp.html" target="_top" xlink:title="Exception class for Device related errors.">
<polygon fill="white" stroke="black" points="1333.5,-112.5 1333.5,-131.5 1451.5,-131.5 1451.5,-112.5 1333.5,-112.5"/>
<text text-anchor="middle" x="1392.5" y="-119.5" font-family="Helvetica,sans-Serif" font-size="10.00">deviceexception.hpp</text>
</a>
</g>
</g>
<!-- Node15&#45;&gt;Node23 -->
<g id="edge30" class="edge">
<title>Node15&#45;&gt;Node23</title>
<path fill="none" stroke="midnightblue" d="M1275.37,-173.98C1295.35,-163.9 1332.21,-147.05 1359.36,-135.5"/>
<polygon fill="midnightblue" stroke="midnightblue" points="1361,-138.61 1368.87,-131.51 1358.29,-132.15 1361,-138.61"/>
</g>
<!-- Node24 -->
<g id="node24" class="node">
<title>Node24</title>
<g id="a_node24"><a xlink:href="../../db/d35/dynlibexception_8hpp.html" target="_top" xlink:title="Exception class for DynLib related errors.">
<polygon fill="white" stroke="black" points="1469.5,-112.5 1469.5,-131.5 1585.5,-131.5 1585.5,-112.5 1469.5,-112.5"/>
<text text-anchor="middle" x="1527.5" y="-119.5" font-family="Helvetica,sans-Serif" font-size="10.00">dynlibexception.hpp</text>
</a>
</g>
</g>
<!-- Node15&#45;&gt;Node24 -->
<g id="edge33" class="edge">
<title>Node15&#45;&gt;Node24</title>
<path fill="none" stroke="midnightblue" d="M1294.71,-173.98C1339.9,-163.35 1420.96,-145.18 1474.56,-133.65"/>
<polygon fill="midnightblue" stroke="midnightblue" points="1475.52,-137.03 1484.56,-131.51 1474.05,-130.18 1475.52,-137.03"/>
</g>
<!-- Node25 -->
<g id="node25" class="node">
<title>Node25</title>
<g id="a_node25"><a xlink:href="../../d0/d4e/fsexception_8hpp.html" target="_top" xlink:title="Exception class for filesystem related errors.">
<polygon fill="white" stroke="black" points="1604,-112.5 1604,-131.5 1699,-131.5 1699,-112.5 1604,-112.5"/>
<text text-anchor="middle" x="1651.5" y="-119.5" font-family="Helvetica,sans-Serif" font-size="10.00">fsexception.hpp</text>
</a>
</g>
</g>
<!-- Node15&#45;&gt;Node25 -->
<g id="edge36" class="edge">
<title>Node15&#45;&gt;Node25</title>
<path fill="none" stroke="midnightblue" d="M1311.91,-173.98C1375.68,-164.03 1488.56,-147 1585.5,-132 1588.28,-131.57 1591.15,-131.12 1594.04,-130.67"/>
<polygon fill="midnightblue" stroke="midnightblue" points="1594.64,-134.12 1603.99,-129.13 1593.57,-127.21 1594.64,-134.12"/>
</g>
<!-- Node26 -->
<g id="node26" class="node">
<title>Node26</title>
<g id="a_node26"><a xlink:href="../../d1/d8e/gpioexception_8hpp.html" target="_top" xlink:title="Exception class for Gpio related errors.">
<polygon fill="white" stroke="black" points="1717,-112.5 1717,-131.5 1824,-131.5 1824,-112.5 1717,-112.5"/>
<text text-anchor="middle" x="1770.5" y="-119.5" font-family="Helvetica,sans-Serif" font-size="10.00">gpioexception.hpp</text>
</a>
</g>
</g>
<!-- Node15&#45;&gt;Node26 -->
<g id="edge39" class="edge">
<title>Node15&#45;&gt;Node26</title>
<path fill="none" stroke="midnightblue" d="M1337.35,-173.97C1424.75,-164.51 1572.47,-148.39 1699.5,-132 1701.87,-131.69 1704.28,-131.38 1706.73,-131.05"/>
<polygon fill="midnightblue" stroke="midnightblue" points="1707.46,-134.48 1716.9,-129.66 1706.51,-127.54 1707.46,-134.48"/>
</g>
<!-- Node27 -->
<g id="node27" class="node">
<title>Node27</title>
<g id="a_node27"><a xlink:href="../../d7/d8c/moduleexception_8hpp.html" target="_top" xlink:title="Exception class for modules.">
<polygon fill="white" stroke="black" points="681.5,-112.5 681.5,-131.5 803.5,-131.5 803.5,-112.5 681.5,-112.5"/>
<text text-anchor="middle" x="742.5" y="-119.5" font-family="Helvetica,sans-Serif" font-size="10.00">moduleexception.hpp</text>
</a>
</g>
</g>
<!-- Node15&#45;&gt;Node27 -->
<g id="edge42" class="edge">
<title>Node15&#45;&gt;Node27</title>
<path fill="none" stroke="midnightblue" d="M1177.5,-174.16C1087.79,-164.69 941.42,-148.54 809.71,-132.74"/>
<polygon fill="midnightblue" stroke="midnightblue" points="809.79,-129.23 799.45,-131.51 808.96,-136.18 809.79,-129.23"/>
</g>
<!-- Node28 -->
<g id="node28" class="node">
<title>Node28</title>
<g id="a_node28"><a xlink:href="../../df/d8d/scriptexception_8hpp.html" target="_top" xlink:title="Exception class for Script related errors.">
<polygon fill="white" stroke="black" points="905,-112.5 905,-131.5 1018,-131.5 1018,-112.5 905,-112.5"/>
<text text-anchor="middle" x="961.5" y="-119.5" font-family="Helvetica,sans-Serif" font-size="10.00">scriptexception.hpp</text>
</a>
</g>
</g>
<!-- Node15&#45;&gt;Node28 -->
<g id="edge45" class="edge">
<title>Node15&#45;&gt;Node28</title>
<path fill="none" stroke="midnightblue" d="M1213.62,-173.98C1157.61,-163.33 1065.62,-145.11 1009.54,-133.58"/>
<polygon fill="midnightblue" stroke="midnightblue" points="1010.01,-130.1 999.51,-131.51 1008.59,-136.96 1010.01,-130.1"/>
</g>
<!-- Node29 -->
<g id="node29" class="node">
<title>Node29</title>
<g id="a_node29"><a xlink:href="../../dc/dce/signalexception_8hpp.html" target="_top" xlink:title="Exception class for Signal related errors.">
<polygon fill="white" stroke="black" points="1036,-112.5 1036,-131.5 1151,-131.5 1151,-112.5 1036,-112.5"/>
<text text-anchor="middle" x="1093.5" y="-119.5" font-family="Helvetica,sans-Serif" font-size="10.00">signalexception.hpp</text>
</a>
</g>
</g>
<!-- Node15&#45;&gt;Node29 -->
<g id="edge48" class="edge">
<title>Node15&#45;&gt;Node29</title>
<path fill="none" stroke="midnightblue" d="M1232.53,-173.98C1201.62,-163.81 1153.24,-146.76 1122.37,-135.2"/>
<polygon fill="midnightblue" stroke="midnightblue" points="1123.22,-131.78 1112.63,-131.51 1120.74,-138.32 1123.22,-131.78"/>
</g>
<!-- Node16&#45;&gt;Node4 -->
<g id="edge16" class="edge">
<title>Node16&#45;&gt;Node4</title>
<path fill="none" stroke="midnightblue" d="M649.08,-112.47C717.26,-99.29 853.36,-73.66 969.5,-56 1089.22,-37.8 1232.28,-21.43 1295.15,-14.5"/>
<polygon fill="midnightblue" stroke="midnightblue" points="1295.68,-17.96 1305.24,-13.39 1294.92,-11 1295.68,-17.96"/>
</g>
<!-- Node16&#45;&gt;Node10 -->
<g id="edge17" class="edge">
<title>Node16&#45;&gt;Node10</title>
<path fill="none" stroke="midnightblue" d="M591.68,-112.32C578.27,-103.9 557.68,-90.97 541.91,-81.07"/>
<polygon fill="midnightblue" stroke="midnightblue" points="543.61,-78.01 533.28,-75.65 539.89,-83.94 543.61,-78.01"/>
</g>
<!-- Node19&#45;&gt;Node4 -->
<g id="edge26" class="edge">
<title>Node19&#45;&gt;Node4</title>
<path fill="none" stroke="midnightblue" d="M1920.58,-112.46C1794.2,-90.84 1464.25,-34.39 1359.74,-16.52"/>
<polygon fill="midnightblue" stroke="midnightblue" points="1360.24,-13.05 1349.79,-14.81 1359.06,-19.95 1360.24,-13.05"/>
</g>
<!-- Node19&#45;&gt;Node15 -->
<g id="edge22" class="edge">
<title>Node19&#45;&gt;Node15</title>
<path fill="none" stroke="midnightblue" d="M1917.68,-131.54C1916.28,-131.7 1914.88,-131.85 1913.5,-132 1715.67,-153.24 1482.69,-169.32 1355.65,-177.18"/>
<polygon fill="midnightblue" stroke="midnightblue" points="1355.33,-173.69 1345.57,-177.8 1355.76,-180.68 1355.33,-173.69"/>
</g>
<!-- Node20 -->
<g id="node20" class="node">
<title>Node20</title>
<g id="a_node20"><a xlink:href="../../dd/d35/Colorize_8hpp.html" target="_top" xlink:title=" ">
<polygon fill="white" stroke="black" points="2122.5,-56.5 2122.5,-75.5 2226.5,-75.5 2226.5,-56.5 2122.5,-56.5"/>
<text text-anchor="middle" x="2174.5" y="-63.5" font-family="Helvetica,sans-Serif" font-size="10.00">tools/Colorize.hpp</text>
</a>
</g>
</g>
<!-- Node19&#45;&gt;Node20 -->
<g id="edge23" class="edge">
<title>Node19&#45;&gt;Node20</title>
<path fill="none" stroke="midnightblue" d="M2002.82,-112.44C2037.89,-103.16 2094,-88.31 2132.46,-78.13"/>
<polygon fill="midnightblue" stroke="midnightblue" points="2133.56,-81.46 2142.33,-75.52 2131.76,-74.69 2133.56,-81.46"/>
</g>
<!-- Node20&#45;&gt;Node4 -->
<g id="edge25" class="edge">
<title>Node20&#45;&gt;Node4</title>
<path fill="none" stroke="midnightblue" d="M2122.31,-57.5C2117.64,-56.95 2112.99,-56.43 2108.5,-56 1818.69,-27.93 1466.55,-15.32 1359.73,-11.96"/>
<polygon fill="midnightblue" stroke="midnightblue" points="1359.7,-8.45 1349.6,-11.64 1359.49,-15.45 1359.7,-8.45"/>
</g>
<!-- Node21 -->
<g id="node21" class="node">
<title>Node21</title>
<g id="a_node21"><a xlink:title=" ">
<polygon fill="white" stroke="#bfbfbf" points="2290.5,-0.5 2290.5,-19.5 2346.5,-19.5 2346.5,-0.5 2290.5,-0.5"/>
<text text-anchor="middle" x="2318.5" y="-7.5" font-family="Helvetica,sans-Serif" font-size="10.00">sstream</text>
</a>
</g>
</g>
<!-- Node20&#45;&gt;Node21 -->
<g id="edge24" class="edge">
<title>Node20&#45;&gt;Node21</title>
<path fill="none" stroke="midnightblue" d="M2197.32,-56.44C2221.33,-47.44 2259.33,-33.19 2286.37,-23.05"/>
<polygon fill="midnightblue" stroke="midnightblue" points="2287.66,-26.3 2295.79,-19.52 2285.2,-19.75 2287.66,-26.3"/>
</g>
<!-- Node22&#45;&gt;Node4 -->
<g id="edge28" class="edge">
<title>Node22&#45;&gt;Node4</title>
<path fill="none" stroke="midnightblue" d="M1266.68,-112.37C1277.52,-94.3 1302.79,-52.18 1317.12,-28.31"/>
<polygon fill="midnightblue" stroke="midnightblue" points="1320.2,-29.97 1322.35,-19.59 1314.2,-26.37 1320.2,-29.97"/>
</g>
<!-- Node22&#45;&gt;Node15 -->
<g id="edge29" class="edge">
<title>Node22&#45;&gt;Node15</title>
<path fill="none" stroke="midnightblue" d="M1266.4,-131.51C1268.23,-139.9 1268.7,-153 1267.82,-163.82"/>
<polygon fill="midnightblue" stroke="midnightblue" points="1264.31,-163.59 1266.4,-173.98 1271.25,-164.55 1264.31,-163.59"/>
</g>
<!-- Node23&#45;&gt;Node4 -->
<g id="edge31" class="edge">
<title>Node23&#45;&gt;Node4</title>
<path fill="none" stroke="midnightblue" d="M1387.4,-112.37C1376.72,-94.3 1351.83,-52.18 1337.73,-28.31"/>
<polygon fill="midnightblue" stroke="midnightblue" points="1340.68,-26.42 1332.58,-19.59 1334.65,-29.98 1340.68,-26.42"/>
</g>
<!-- Node23&#45;&gt;Node15 -->
<g id="edge32" class="edge">
<title>Node23&#45;&gt;Node15</title>
<path fill="none" stroke="midnightblue" d="M1378.66,-131.51C1358.7,-141.58 1321.85,-158.42 1294.69,-169.98"/>
<polygon fill="midnightblue" stroke="midnightblue" points="1293.04,-166.88 1285.17,-173.98 1295.74,-173.33 1293.04,-166.88"/>
</g>
<!-- Node24&#45;&gt;Node4 -->
<g id="edge34" class="edge">
<title>Node24&#45;&gt;Node4</title>
<path fill="none" stroke="midnightblue" d="M1511.81,-112.37C1477.12,-93.29 1393.72,-47.42 1352.06,-24.51"/>
<polygon fill="midnightblue" stroke="midnightblue" points="1353.57,-21.34 1343.12,-19.59 1350.2,-27.48 1353.57,-21.34"/>
</g>
<!-- Node24&#45;&gt;Node15 -->
<g id="edge35" class="edge">
<title>Node24&#45;&gt;Node15</title>
<path fill="none" stroke="midnightblue" d="M1494.36,-131.51C1449.2,-142.13 1368.14,-160.29 1314.52,-171.83"/>
<polygon fill="midnightblue" stroke="midnightblue" points="1313.56,-168.46 1304.51,-173.98 1315.02,-175.3 1313.56,-168.46"/>
</g>
<!-- Node25&#45;&gt;Node4 -->
<g id="edge37" class="edge">
<title>Node25&#45;&gt;Node4</title>
<path fill="none" stroke="midnightblue" d="M1626.35,-112.46C1568.06,-92.67 1423.83,-43.7 1359.43,-21.84"/>
<polygon fill="midnightblue" stroke="midnightblue" points="1360.41,-18.48 1349.81,-18.57 1358.16,-25.1 1360.41,-18.48"/>
</g>
<!-- Node25&#45;&gt;Node15 -->
<g id="edge38" class="edge">
<title>Node25&#45;&gt;Node15</title>
<path fill="none" stroke="midnightblue" d="M1606.5,-131.54C1605.49,-131.69 1604.49,-131.85 1603.5,-132 1511.11,-146.3 1404.23,-162.44 1334.81,-172.54"/>
<polygon fill="midnightblue" stroke="midnightblue" points="1334.24,-169.08 1324.84,-173.98 1335.24,-176.01 1334.24,-169.08"/>
</g>
<!-- Node26&#45;&gt;Node4 -->
<g id="edge41" class="edge">
<title>Node26&#45;&gt;Node4</title>
<path fill="none" stroke="midnightblue" d="M1736.11,-112.46C1652.84,-91.78 1441.28,-39.25 1360,-19.07"/>
<polygon fill="midnightblue" stroke="midnightblue" points="1360.41,-15.57 1349.86,-16.55 1358.72,-22.36 1360.41,-15.57"/>
</g>
<!-- Node26&#45;&gt;Node15 -->
<g id="edge40" class="edge">
<title>Node26&#45;&gt;Node15</title>
<path fill="none" stroke="midnightblue" d="M1721.09,-131.53C1719.89,-131.69 1718.69,-131.85 1717.5,-132 1592.82,-148.09 1448.21,-163.91 1355.78,-173.44"/>
<polygon fill="midnightblue" stroke="midnightblue" points="1355.2,-169.98 1345.61,-174.48 1355.92,-176.94 1355.2,-169.98"/>
</g>
<!-- Node27&#45;&gt;Node4 -->
<g id="edge43" class="edge">
<title>Node27&#45;&gt;Node4</title>
<path fill="none" stroke="midnightblue" d="M784.38,-112.47C847,-99.79 968.75,-75.37 1072.5,-56 1152.58,-41.05 1247.05,-24.72 1295.42,-16.45"/>
<polygon fill="midnightblue" stroke="midnightblue" points="1296.03,-19.9 1305.3,-14.76 1294.86,-13 1296.03,-19.9"/>
</g>
<!-- Node27&#45;&gt;Node15 -->
<g id="edge44" class="edge">
<title>Node27&#45;&gt;Node15</title>
<path fill="none" stroke="midnightblue" d="M803.8,-129.82C809.81,-130.57 815.78,-131.31 821.5,-132 946.17,-147.02 1090.49,-163.01 1178.94,-172.87"/>
<polygon fill="midnightblue" stroke="midnightblue" points="1178.58,-176.35 1188.91,-173.98 1179.36,-169.4 1178.58,-176.35"/>
</g>
<!-- Node28&#45;&gt;Node4 -->
<g id="edge46" class="edge">
<title>Node28&#45;&gt;Node4</title>
<path fill="none" stroke="midnightblue" d="M981.58,-112.41C1013.38,-99.03 1077.45,-73.01 1133.5,-56 1189.6,-38.98 1256.49,-24.76 1295.27,-17.1"/>
<polygon fill="midnightblue" stroke="midnightblue" points="1296.28,-20.47 1305.43,-15.12 1294.94,-13.6 1296.28,-20.47"/>
</g>
<!-- Node28&#45;&gt;Node15 -->
<g id="edge47" class="edge">
<title>Node28&#45;&gt;Node15</title>
<path fill="none" stroke="midnightblue" d="M1009.3,-131.51C1065.28,-142.15 1157.26,-160.37 1213.38,-171.9"/>
<polygon fill="midnightblue" stroke="midnightblue" points="1212.92,-175.38 1223.42,-173.98 1214.33,-168.53 1212.92,-175.38"/>
</g>
<!-- Node29&#45;&gt;Node4 -->
<g id="edge49" class="edge">
<title>Node29&#45;&gt;Node4</title>
<path fill="none" stroke="midnightblue" d="M1100.55,-112.46C1112.48,-98.57 1138.05,-71.09 1165.5,-56 1207.05,-33.16 1261.09,-21.19 1295.04,-15.49"/>
<polygon fill="midnightblue" stroke="midnightblue" points="1295.99,-18.88 1305.32,-13.85 1294.89,-11.97 1295.99,-18.88"/>
</g>
<!-- Node29&#45;&gt;Node15 -->
<g id="edge50" class="edge">
<title>Node29&#45;&gt;Node15</title>
<path fill="none" stroke="midnightblue" d="M1122.42,-131.51C1153.31,-141.66 1201.7,-158.72 1232.58,-170.28"/>
<polygon fill="midnightblue" stroke="midnightblue" points="1231.74,-173.71 1242.33,-173.98 1234.22,-167.16 1231.74,-173.71"/>
</g>
<!-- Node30&#45;&gt;Node4 -->
<g id="edge57" class="edge">
<title>Node30&#45;&gt;Node4</title>
<path fill="none" stroke="midnightblue" d="M2218.03,-173.98C2183.69,-163.61 2129.6,-145.79 2113.5,-132 2084.02,-106.76 2103.42,-76.56 2070.5,-56 2009.6,-17.97 1494.52,-12.06 1359.69,-11.16"/>
<polygon fill="midnightblue" stroke="midnightblue" points="1359.62,-7.66 1349.59,-11.09 1359.57,-14.66 1359.62,-7.66"/>
</g>
<!-- Node30&#45;&gt;Node21 -->
<g id="edge56" class="edge">
<title>Node30&#45;&gt;Node21</title>
<path fill="none" stroke="midnightblue" d="M2287.85,-177.89C2339.51,-171.06 2424.61,-156.37 2443.5,-132 2477.77,-87.78 2397,-44.2 2349.73,-23.49"/>
<polygon fill="midnightblue" stroke="midnightblue" points="2351.05,-20.25 2340.48,-19.54 2348.3,-26.69 2351.05,-20.25"/>
</g>
<!-- Node31 -->
<g id="node31" class="node">
<title>Node31</title>
<g id="a_node31"><a xlink:title=" ">
<polygon fill="white" stroke="#bfbfbf" points="2312.5,-112.5 2312.5,-131.5 2364.5,-131.5 2364.5,-112.5 2312.5,-112.5"/>
<text text-anchor="middle" x="2338.5" y="-119.5" font-family="Helvetica,sans-Serif" font-size="10.00">cassert</text>
</a>
</g>
</g>
<!-- Node30&#45;&gt;Node31 -->
<g id="edge52" class="edge">
<title>Node30&#45;&gt;Node31</title>
<path fill="none" stroke="midnightblue" d="M2260.54,-173.98C2275.27,-164.34 2299.47,-148.52 2317.01,-137.05"/>
<polygon fill="midnightblue" stroke="midnightblue" points="2319.03,-139.91 2325.49,-131.51 2315.2,-134.05 2319.03,-139.91"/>
</g>
<!-- Node32 -->
<g id="node32" class="node">
<title>Node32</title>
<g id="a_node32"><a xlink:title=" ">
<polygon fill="white" stroke="#bfbfbf" points="2383,-112.5 2383,-131.5 2434,-131.5 2434,-112.5 2383,-112.5"/>
<text text-anchor="middle" x="2408.5" y="-119.5" font-family="Helvetica,sans-Serif" font-size="10.00">csignal</text>
</a>
</g>
</g>
<!-- Node30&#45;&gt;Node32 -->
<g id="edge53" class="edge">
<title>Node30&#45;&gt;Node32</title>
<path fill="none" stroke="midnightblue" d="M2270.57,-173.98C2298.18,-163.77 2344.62,-146.61 2375.9,-135.05"/>
<polygon fill="midnightblue" stroke="midnightblue" points="2377.31,-138.26 2385.48,-131.51 2374.88,-131.69 2377.31,-138.26"/>
</g>
<!-- Node33 -->
<g id="node33" class="node">
<title>Node33</title>
<g id="a_node33"><a xlink:title=" ">
<polygon fill="white" stroke="#bfbfbf" points="2122.5,-112.5 2122.5,-131.5 2182.5,-131.5 2182.5,-112.5 2122.5,-112.5"/>
<text text-anchor="middle" x="2152.5" y="-119.5" font-family="Helvetica,sans-Serif" font-size="10.00">iostream</text>
</a>
</g>
</g>
<!-- Node30&#45;&gt;Node33 -->
<g id="edge54" class="edge">
<title>Node30&#45;&gt;Node33</title>
<path fill="none" stroke="midnightblue" d="M2233.89,-173.98C2218.44,-164.3 2193.01,-148.37 2174.68,-136.89"/>
<polygon fill="midnightblue" stroke="midnightblue" points="2176.42,-133.85 2166.09,-131.51 2172.7,-139.78 2176.42,-133.85"/>
</g>
<!-- Node34 -->
<g id="node34" class="node">
<title>Node34</title>
<g id="a_node34"><a xlink:title=" ">
<polygon fill="white" stroke="#bfbfbf" points="2201,-112.5 2201,-131.5 2294,-131.5 2294,-112.5 2201,-112.5"/>
<text text-anchor="middle" x="2247.5" y="-119.5" font-family="Helvetica,sans-Serif" font-size="10.00">spdlog/spdlog.h</text>
</a>
</g>
</g>
<!-- Node30&#45;&gt;Node34 -->
<g id="edge55" class="edge">
<title>Node30&#45;&gt;Node34</title>
<path fill="none" stroke="midnightblue" d="M2247.5,-173.98C2247.5,-165.58 2247.5,-152.48 2247.5,-141.66"/>
<polygon fill="midnightblue" stroke="midnightblue" points="2251,-141.51 2247.5,-131.51 2244,-141.51 2251,-141.51"/>
</g>
<!-- Node37&#45;&gt;Node4 -->
<g id="edge66" class="edge">
<title>Node37&#45;&gt;Node4</title>
<path fill="none" stroke="midnightblue" d="M410.8,-235.14C412.38,-203.77 422.46,-97.66 486.5,-56 555.25,-11.27 1149.59,-10.38 1295.33,-10.84"/>
<polygon fill="midnightblue" stroke="midnightblue" points="1295.41,-14.34 1305.42,-10.88 1295.43,-7.34 1295.41,-14.34"/>
</g>
<!-- Node38 -->
<g id="node38" class="node">
<title>Node38</title>
<g id="a_node38"><a xlink:title=" ">
<polygon fill="white" stroke="#bfbfbf" points="332.5,-174 332.5,-193 382.5,-193 382.5,-174 332.5,-174"/>
<text text-anchor="middle" x="357.5" y="-181" font-family="Helvetica,sans-Serif" font-size="10.00">cstdint</text>
</a>
</g>
</g>
<!-- Node37&#45;&gt;Node38 -->
<g id="edge65" class="edge">
<title>Node37&#45;&gt;Node38</title>
<path fill="none" stroke="midnightblue" d="M402.91,-235.48C394.8,-226.37 381.77,-211.74 371.74,-200.48"/>
<polygon fill="midnightblue" stroke="midnightblue" points="374.34,-198.15 365.08,-193.01 369.12,-202.8 374.34,-198.15"/>
</g>
</g>
</svg>
        <g id="navigator" transform="translate(0 0)" fill="#404254">
                <rect fill="#f2f5e9" fill-opacity="0.5" stroke="#606060" stroke-width=".5" x="0" y="0" width="60" height="60"/>
                <use id="zoomplus" xlink:href="#zoomPlus" x="17" y="9" onmousedown="handleZoom(evt,'in')"/>
                <use id="zoomminus" xlink:href="#zoomMin" x="42" y="9" onmousedown="handleZoom(evt,'out')"/>
                <use id="reset" xlink:href="#resetDef" x="30" y="36" onmousedown="handleReset()"/>
                <g id="arrowUp" xlink:href="#dirArrow" transform="translate(30 24)" onmousedown="handlePan(0,-1)">
                  <use xlink:href="#rim" fill="#404040">
                        <set attributeName="fill" to="#808080" begin="arrowUp.mouseover" end="arrowUp.mouseout"/>
                  </use>
                  <path fill="none" stroke="white" stroke-width="1.5" d="M0,-3.0v7 M-2.5,-0.5L0,-3.0L2.5,-0.5"/>
                </g>
                <g id="arrowRight" xlink:href="#dirArrow" transform="rotate(90) translate(36 -43)" onmousedown="handlePan(1,0)">
                  <use xlink:href="#rim" fill="#404040">
                        <set attributeName="fill" to="#808080" begin="arrowRight.mouseover" end="arrowRight.mouseout"/>
                  </use>
                  <path fill="none" stroke="white" stroke-width="1.5" d="M0,-3.0v7 M-2.5,-0.5L0,-3.0L2.5,-0.5"/>
                </g>
                <g id="arrowDown" xlink:href="#dirArrow" transform="rotate(180) translate(-30 -48)" onmousedown="handlePan(0,1)">
                  <use xlink:href="#rim" fill="#404040">
                        <set attributeName="fill" to="#808080" begin="arrowDown.mouseover" end="arrowDown.mouseout"/>
                  </use>
                  <path fill="none" stroke="white" stroke-width="1.5" d="M0,-3.0v7 M-2.5,-0.5L0,-3.0L2.5,-0.5"/>
                </g>
                <g id="arrowLeft" xlink:href="#dirArrow" transform="rotate(270) translate(-36 17)" onmousedown="handlePan(-1,0)">
                  <use xlink:href="#rim" fill="#404040">
                        <set attributeName="fill" to="#808080" begin="arrowLeft.mouseover" end="arrowLeft.mouseout"/>
                  </use>
                  <path fill="none" stroke="white" stroke-width="1.5" d="M0,-3.0v7 M-2.5,-0.5L0,-3.0L2.5,-0.5"/>
                </g>
        </g>
        <svg viewBox="0 0 15 15" width="100%" height="30px" preserveAspectRatio="xMaxYMin meet">
         <g id="arrow_out" transform="scale(0.3 0.3)">
          <a xlink:href="TestAndResetModule_8hpp__incl_org.svg" target="_base">
           <rect id="button" ry="5" rx="5" y="6" x="6" height="38" width="38"
                fill="#f2f5e9" fill-opacity="0.5" stroke="#606060" stroke-width="1.0"/>
           <path id="arrow"
             d="M 11.500037,31.436501 C 11.940474,20.09759 22.043105,11.32322 32.158766,21.979434 L 37.068811,17.246167 C 37.068811,17.246167 37.088388,32 37.088388,32 L 22.160133,31.978069 C 22.160133,31.978069 26.997745,27.140456 26.997745,27.140456 C 18.528582,18.264221 13.291696,25.230495 11.500037,31.436501 z"
             style="fill:#404040;"/>
          </a>
         </g>
        </svg>
</svg>
