<?xml version="1.0" encoding="UTF-8" standalone="no"?>
<!DOCTYPE svg PUBLIC "-//W3C//DTD SVG 1.1//EN"
 "http://www.w3.org/Graphics/SVG/1.1/DTD/svg11.dtd">
<!-- Generated by graphviz version 2.43.0 (0)
 -->
<!-- Title: src/modules/libgpiod/LibgpiodModule.hpp Pages: 1 -->
<svg width="411pt" height="240pt"
 viewBox="0.00 0.00 411.00 240.00" xmlns="http://www.w3.org/2000/svg" xmlns:xlink="http://www.w3.org/1999/xlink">
<g id="graph0" class="graph" transform="scale(1 1) rotate(0) translate(4 236)">
<title>src/modules/libgpiod/LibgpiodModule.hpp</title>
<polygon fill="white" stroke="transparent" points="-4,4 -4,-236 407,-236 407,4 -4,4"/>
<!-- Node1 -->
<g id="node1" class="node">
<title>Node1</title>
<g id="a_node1"><a xlink:title=" ">
<polygon fill="#bfbfbf" stroke="black" points="136,-201.5 136,-231.5 254,-231.5 254,-201.5 136,-201.5"/>
<text text-anchor="start" x="144" y="-219.5" font-family="Helvetica,sans-Serif" font-size="10.00">src/modules/libgpiod</text>
<text text-anchor="middle" x="195" y="-208.5" font-family="Helvetica,sans-Serif" font-size="10.00">/LibgpiodModule.hpp</text>
</a>
</g>
</g>
<!-- Node2 -->
<g id="node2" class="node">
<title>Node2</title>
<g id="a_node2"><a xlink:href="../../df/d5b/libgpiod_2init_8cpp.html" target="_top" xlink:title=" ">
<polygon fill="white" stroke="black" points="0,-134.5 0,-164.5 118,-164.5 118,-134.5 0,-134.5"/>
<text text-anchor="start" x="8" y="-152.5" font-family="Helvetica,sans-Serif" font-size="10.00">src/modules/libgpiod</text>
<text text-anchor="middle" x="59" y="-141.5" font-family="Helvetica,sans-Serif" font-size="10.00">/init.cpp</text>
</a>
</g>
</g>
<!-- Node1&#45;&gt;Node2 -->
<g id="edge1" class="edge">
<title>Node1&#45;&gt;Node2</title>
<path fill="none" stroke="midnightblue" d="M156.28,-196.99C134.72,-186.69 108.31,-174.07 88.45,-164.58"/>
<polygon fill="midnightblue" stroke="midnightblue" points="154.96,-200.24 165.49,-201.4 157.98,-193.93 154.96,-200.24"/>
</g>
<!-- Node3 -->
<g id="node3" class="node">
<title>Node3</title>
<g id="a_node3"><a xlink:href="../../dc/d38/LibgpiodPin_8hpp.html" target="_top" xlink:title=" ">
<polygon fill="white" stroke="black" points="136,-134.5 136,-164.5 254,-164.5 254,-134.5 136,-134.5"/>
<text text-anchor="start" x="144" y="-152.5" font-family="Helvetica,sans-Serif" font-size="10.00">src/modules/libgpiod</text>
<text text-anchor="middle" x="195" y="-141.5" font-family="Helvetica,sans-Serif" font-size="10.00">/LibgpiodPin.hpp</text>
</a>
</g>
</g>
<!-- Node1&#45;&gt;Node3 -->
<g id="edge2" class="edge">
<title>Node1&#45;&gt;Node3</title>
<path fill="none" stroke="midnightblue" d="M188.45,-191.4C188.01,-182.37 188.3,-172.41 189.33,-164.58"/>
<polygon fill="midnightblue" stroke="midnightblue" points="184.97,-191.74 189.32,-201.4 191.94,-191.13 184.97,-191.74"/>
</g>
<!-- Node6 -->
<g id="node6" class="node">
<title>Node6</title>
<g id="a_node6"><a xlink:href="../../db/de7/LibgpiodModule_8cpp.html" target="_top" xlink:title=" ">
<polygon fill="white" stroke="black" points="285,-0.5 285,-30.5 403,-30.5 403,-0.5 285,-0.5"/>
<text text-anchor="start" x="293" y="-18.5" font-family="Helvetica,sans-Serif" font-size="10.00">src/modules/libgpiod</text>
<text text-anchor="middle" x="344" y="-7.5" font-family="Helvetica,sans-Serif" font-size="10.00">/LibgpiodModule.cpp</text>
</a>
</g>
</g>
<!-- Node1&#45;&gt;Node6 -->
<g id="edge9" class="edge">
<title>Node1&#45;&gt;Node6</title>
<path fill="none" stroke="midnightblue" d="M234.19,-196.54C249.21,-188.15 265.87,-177.36 279,-165 305.3,-140.24 310.43,-131.05 325,-98 334.91,-75.53 340.01,-47.21 342.34,-30.56"/>
<polygon fill="midnightblue" stroke="midnightblue" points="232.24,-193.62 225.11,-201.45 235.57,-199.77 232.24,-193.62"/>
</g>
<!-- Node3&#45;&gt;Node1 -->
<g id="edge3" class="edge">
<title>Node3&#45;&gt;Node1</title>
<path fill="none" stroke="midnightblue" d="M201.54,-174.57C201.99,-183.6 201.71,-193.56 200.68,-201.4"/>
<polygon fill="midnightblue" stroke="midnightblue" points="205.03,-174.24 200.67,-164.58 198.05,-174.84 205.03,-174.24"/>
</g>
<!-- Node4 -->
<g id="node4" class="node">
<title>Node4</title>
<g id="a_node4"><a xlink:href="../../d7/d44/LibgpiodConfig_8hpp.html" target="_top" xlink:title=" ">
<polygon fill="white" stroke="black" points="198,-67.5 198,-97.5 316,-97.5 316,-67.5 198,-67.5"/>
<text text-anchor="start" x="206" y="-85.5" font-family="Helvetica,sans-Serif" font-size="10.00">src/modules/libgpiod</text>
<text text-anchor="middle" x="257" y="-74.5" font-family="Helvetica,sans-Serif" font-size="10.00">/LibgpiodConfig.hpp</text>
</a>
</g>
</g>
<!-- Node3&#45;&gt;Node4 -->
<g id="edge4" class="edge">
<title>Node3&#45;&gt;Node4</title>
<path fill="none" stroke="midnightblue" d="M215.48,-127.02C224.72,-117.34 235.37,-106.17 243.57,-97.58"/>
<polygon fill="midnightblue" stroke="midnightblue" points="212.82,-124.74 208.45,-134.4 217.89,-129.58 212.82,-124.74"/>
</g>
<!-- Node7 -->
<g id="node7" class="node">
<title>Node7</title>
<g id="a_node7"><a xlink:href="../../d7/d4c/LibgpiodPin_8cpp.html" target="_top" xlink:title=" ">
<polygon fill="white" stroke="black" points="62,-67.5 62,-97.5 180,-97.5 180,-67.5 62,-67.5"/>
<text text-anchor="start" x="70" y="-85.5" font-family="Helvetica,sans-Serif" font-size="10.00">src/modules/libgpiod</text>
<text text-anchor="middle" x="121" y="-74.5" font-family="Helvetica,sans-Serif" font-size="10.00">/LibgpiodPin.cpp</text>
</a>
</g>
</g>
<!-- Node3&#45;&gt;Node7 -->
<g id="edge8" class="edge">
<title>Node3&#45;&gt;Node7</title>
<path fill="none" stroke="midnightblue" d="M171.2,-127.6C160.03,-117.78 147.01,-106.34 137.03,-97.58"/>
<polygon fill="midnightblue" stroke="midnightblue" points="169.12,-130.43 178.94,-134.4 173.74,-125.17 169.12,-130.43"/>
</g>
<!-- Node4&#45;&gt;Node1 -->
<g id="edge5" class="edge">
<title>Node4&#45;&gt;Node1</title>
<path fill="none" stroke="midnightblue" d="M265.01,-107.32C269.26,-124.29 271.97,-147.16 263,-165 255.01,-180.9 239.38,-193.05 225.12,-201.44"/>
<polygon fill="midnightblue" stroke="midnightblue" points="268.35,-106.28 262.25,-97.62 261.61,-108.19 268.35,-106.28"/>
</g>
<!-- Node5 -->
<g id="node5" class="node">
<title>Node5</title>
<g id="a_node5"><a xlink:href="../../d8/d42/LibgpiodConfig_8cpp.html" target="_top" xlink:title=" ">
<polygon fill="white" stroke="black" points="149,-0.5 149,-30.5 267,-30.5 267,-0.5 149,-0.5"/>
<text text-anchor="start" x="157" y="-18.5" font-family="Helvetica,sans-Serif" font-size="10.00">src/modules/libgpiod</text>
<text text-anchor="middle" x="208" y="-7.5" font-family="Helvetica,sans-Serif" font-size="10.00">/LibgpiodConfig.cpp</text>
</a>
</g>
</g>
<!-- Node4&#45;&gt;Node5 -->
<g id="edge6" class="edge">
<title>Node4&#45;&gt;Node5</title>
<path fill="none" stroke="midnightblue" d="M240.16,-59.16C233.01,-49.68 224.9,-38.92 218.61,-30.58"/>
<polygon fill="midnightblue" stroke="midnightblue" points="237.55,-61.52 246.37,-67.4 243.14,-57.3 237.55,-61.52"/>
</g>
<!-- Node4&#45;&gt;Node6 -->
<g id="edge7" class="edge">
<title>Node4&#45;&gt;Node6</title>
<path fill="none" stroke="midnightblue" d="M284.21,-61.17C297.52,-51.23 313.2,-39.51 325.16,-30.58"/>
<polygon fill="midnightblue" stroke="midnightblue" points="281.79,-58.61 275.88,-67.4 285.98,-64.21 281.79,-58.61"/>
</g>
</g>
</svg>
