<?xml version="1.0" encoding="UTF-8" standalone="no"?>
<!DOCTYPE svg PUBLIC "-//W3C//DTD SVG 1.1//EN"
 "http://www.w3.org/Graphics/SVG/1.1/DTD/svg11.dtd">
<!-- Generated by graphviz version 2.43.0 (0)
 -->
<!-- Title: Leosac::Audit::DoorEvent Pages: 1 -->
<svg width="927pt" height="271pt"
 viewBox="0.00 0.00 927.00 270.50" xmlns="http://www.w3.org/2000/svg" xmlns:xlink="http://www.w3.org/1999/xlink">
<g id="graph0" class="graph" transform="scale(1 1) rotate(0) translate(4 266.5)">
<title>Leosac::Audit::DoorEvent</title>
<polygon fill="white" stroke="transparent" points="-4,4 -4,-266.5 923,-266.5 923,4 -4,4"/>
<!-- Node1 -->
<g id="node1" class="node">
<title>Node1</title>
<g id="a_node1"><a xlink:title="Provides an implementation of IDoorEvent.">
<polygon fill="#bfbfbf" stroke="black" points="771.5,-48.5 771.5,-67.5 910.5,-67.5 910.5,-48.5 771.5,-48.5"/>
<text text-anchor="middle" x="841" y="-55.5" font-family="Helvetica,sans-Serif" font-size="10.00">Leosac::Audit::DoorEvent</text>
</a>
</g>
</g>
<!-- Node2 -->
<g id="node2" class="node">
<title>Node2</title>
<g id="a_node2"><a xlink:href="../../db/dcb/classLeosac_1_1Audit_1_1IDoorEvent.html" target="_top" xlink:title="Interface that describes an Audit object for door related event.">
<polygon fill="white" stroke="black" points="545,-0.5 545,-19.5 687,-19.5 687,-0.5 545,-0.5"/>
<text text-anchor="middle" x="616" y="-7.5" font-family="Helvetica,sans-Serif" font-size="10.00">Leosac::Audit::IDoorEvent</text>
</a>
</g>
</g>
<!-- Node2&#45;&gt;Node1 -->
<g id="edge1" class="edge">
<title>Node2&#45;&gt;Node1</title>
<path fill="none" stroke="midnightblue" d="M671.25,-21.68C709.47,-29.9 759.99,-40.78 795.76,-48.48"/>
<polygon fill="midnightblue" stroke="midnightblue" points="671.84,-18.22 661.32,-19.54 670.36,-25.07 671.84,-18.22"/>
</g>
<!-- Node3 -->
<g id="node3" class="node">
<title>Node3</title>
<g id="a_node3"><a xlink:href="../../d1/d44/classLeosac_1_1Audit_1_1IAuditEntry.html" target="_top" xlink:title="Base interface to Audit object.">
<polygon fill="white" stroke="black" points="306.5,-2.5 306.5,-21.5 448.5,-21.5 448.5,-2.5 306.5,-2.5"/>
<text text-anchor="middle" x="377.5" y="-9.5" font-family="Helvetica,sans-Serif" font-size="10.00">Leosac::Audit::IAuditEntry</text>
</a>
</g>
</g>
<!-- Node3&#45;&gt;Node2 -->
<g id="edge2" class="edge">
<title>Node3&#45;&gt;Node2</title>
<path fill="none" stroke="midnightblue" d="M458.95,-11.32C486.87,-11.08 517.94,-10.82 544.95,-10.59"/>
<polygon fill="midnightblue" stroke="midnightblue" points="458.79,-7.82 448.82,-11.41 458.85,-14.82 458.79,-7.82"/>
</g>
<!-- Node5 -->
<g id="node5" class="node">
<title>Node5</title>
<g id="a_node5"><a xlink:href="../../d0/d20/classLeosac_1_1Audit_1_1AuditEntry.html" target="_top" xlink:title="Implementation of IAuditEntry, backed by ODB.">
<polygon fill="white" stroke="black" points="546.5,-115.5 546.5,-134.5 685.5,-134.5 685.5,-115.5 546.5,-115.5"/>
<text text-anchor="middle" x="616" y="-122.5" font-family="Helvetica,sans-Serif" font-size="10.00">Leosac::Audit::AuditEntry</text>
</a>
</g>
</g>
<!-- Node3&#45;&gt;Node5 -->
<g id="edge5" class="edge">
<title>Node3&#45;&gt;Node5</title>
<path fill="none" stroke="midnightblue" d="M411.86,-25.34C425.35,-30.89 441.01,-37.54 455,-44 507.3,-68.14 567.57,-99.69 596.97,-115.33"/>
<polygon fill="midnightblue" stroke="midnightblue" points="413.05,-22.05 402.47,-21.51 410.41,-28.53 413.05,-22.05"/>
</g>
<!-- Node4 -->
<g id="node4" class="node">
<title>Node4</title>
<g id="a_node4"><a xlink:href="../../d0/d33/classLeosac_1_1Tools_1_1IVisitable.html" target="_top" xlink:title="Base class to make an object visitable.">
<polygon fill="white" stroke="black" points="82,-2.5 82,-21.5 215,-21.5 215,-2.5 82,-2.5"/>
<text text-anchor="middle" x="148.5" y="-9.5" font-family="Helvetica,sans-Serif" font-size="10.00">Leosac::Tools::IVisitable</text>
</a>
</g>
</g>
<!-- Node4&#45;&gt;Node3 -->
<g id="edge3" class="edge">
<title>Node4&#45;&gt;Node3</title>
<path fill="none" stroke="midnightblue" d="M225.38,-12C251.49,-12 280.59,-12 306.24,-12"/>
<polygon fill="midnightblue" stroke="midnightblue" points="225.16,-8.5 215.16,-12 225.16,-15.5 225.16,-8.5"/>
</g>
<!-- Node5&#45;&gt;Node1 -->
<g id="edge4" class="edge">
<title>Node5&#45;&gt;Node1</title>
<path fill="none" stroke="midnightblue" d="M658.62,-112.5C701.93,-99.48 768.81,-79.39 808.11,-67.58"/>
<polygon fill="midnightblue" stroke="midnightblue" points="657.52,-109.17 648.95,-115.4 659.53,-115.88 657.52,-109.17"/>
</g>
<!-- Node12 -->
<g id="node12" class="node">
<title>Node12</title>
<g id="a_node12"><a xlink:title=" ">
<polygon fill="white" stroke="#bfbfbf" points="763,-129.5 763,-148.5 919,-148.5 919,-129.5 763,-129.5"/>
<text text-anchor="middle" x="841" y="-136.5" font-family="Helvetica,sans-Serif" font-size="10.00">std::weak_ptr&lt; AuditEntry &gt;</text>
</a>
</g>
</g>
<!-- Node5&#45;&gt;Node12 -->
<g id="edge13" class="edge">
<title>Node5&#45;&gt;Node12</title>
<path fill="none" stroke="#9a32cd" stroke-dasharray="5,2" d="M695.73,-133.31C698.86,-133.56 701.96,-133.79 705,-134 723.72,-135.3 743.92,-136.28 762.85,-137.01"/>
<polygon fill="#9a32cd" stroke="#9a32cd" points="695.92,-129.81 685.66,-132.46 695.33,-136.78 695.92,-129.81"/>
<text text-anchor="middle" x="725" y="-139" font-family="Helvetica,sans-Serif" font-size="10.00"> ptr</text>
</g>
<!-- Node6 -->
<g id="node6" class="node">
<title>Node6</title>
<g id="a_node6"><a xlink:title=" ">
<polygon fill="white" stroke="#bfbfbf" points="306.5,-232 306.5,-262 448.5,-262 448.5,-232 306.5,-232"/>
<text text-anchor="start" x="314.5" y="-250" font-family="Helvetica,sans-Serif" font-size="10.00">std::enable_shared</text>
<text text-anchor="middle" x="377.5" y="-239" font-family="Helvetica,sans-Serif" font-size="10.00">_from_this&lt; AuditEntry &gt;</text>
</a>
</g>
</g>
<!-- Node6&#45;&gt;Node5 -->
<g id="edge6" class="edge">
<title>Node6&#45;&gt;Node5</title>
<path fill="none" stroke="midnightblue" d="M436.31,-228.56C442.64,-226.41 448.97,-224.2 455,-222 487.41,-210.19 497.07,-210.15 527,-193 557.32,-175.62 588.76,-148.83 604.57,-134.62"/>
<polygon fill="midnightblue" stroke="midnightblue" points="434.78,-225.39 426.41,-231.89 437.01,-232.02 434.78,-225.39"/>
</g>
<!-- Node7 -->
<g id="node7" class="node">
<title>Node7</title>
<g id="a_node7"><a xlink:title=" ">
<polygon fill="white" stroke="#bfbfbf" points="300,-193.5 300,-212.5 455,-212.5 455,-193.5 300,-193.5"/>
<text text-anchor="middle" x="377.5" y="-200.5" font-family="Helvetica,sans-Serif" font-size="10.00">std::vector&lt; AuditEntryPtr &gt;</text>
</a>
</g>
</g>
<!-- Node7&#45;&gt;Node5 -->
<g id="edge7" class="edge">
<title>Node7&#45;&gt;Node5</title>
<path fill="none" stroke="#9a32cd" stroke-dasharray="5,2" d="M429.46,-190.94C438.01,-188.74 446.78,-186.39 455,-184 487.39,-174.59 495.32,-171.57 527,-160 549.24,-151.88 574.3,-141.82 591.98,-134.57"/>
<polygon fill="#9a32cd" stroke="#9a32cd" points="428.39,-187.59 419.55,-193.43 430.1,-194.38 428.39,-187.59"/>
<text text-anchor="middle" x="500" y="-181" font-family="Helvetica,sans-Serif" font-size="10.00"> children_</text>
</g>
<!-- Node8 -->
<g id="node8" class="node">
<title>Node8</title>
<g id="a_node8"><a xlink:title="STL class.">
<polygon fill="white" stroke="#bfbfbf" points="89.5,-193.5 89.5,-212.5 207.5,-212.5 207.5,-193.5 89.5,-193.5"/>
<text text-anchor="middle" x="148.5" y="-200.5" font-family="Helvetica,sans-Serif" font-size="10.00">std::shared_ptr&lt; T &gt;</text>
</a>
</g>
</g>
<!-- Node8&#45;&gt;Node7 -->
<g id="edge8" class="edge">
<title>Node8&#45;&gt;Node7</title>
<path fill="none" stroke="#9a32cd" stroke-dasharray="5,2" d="M217.73,-203C243.54,-203 273.09,-203 299.64,-203"/>
<polygon fill="#9a32cd" stroke="#9a32cd" points="217.66,-199.5 207.66,-203 217.66,-206.5 217.66,-199.5"/>
<text text-anchor="middle" x="257.5" y="-206" font-family="Helvetica,sans-Serif" font-size="10.00"> elements</text>
</g>
<!-- Node9 -->
<g id="node9" class="node">
<title>Node9</title>
<g id="a_node9"><a xlink:title=" ">
<polygon fill="white" stroke="#bfbfbf" points="0,-193.5 0,-212.5 29,-212.5 29,-193.5 0,-193.5"/>
<text text-anchor="middle" x="14.5" y="-200.5" font-family="Helvetica,sans-Serif" font-size="10.00">T</text>
</a>
</g>
</g>
<!-- Node9&#45;&gt;Node8 -->
<g id="edge9" class="edge">
<title>Node9&#45;&gt;Node8</title>
<path fill="none" stroke="#9a32cd" stroke-dasharray="5,2" d="M39.35,-203C53.39,-203 71.8,-203 89.44,-203"/>
<polygon fill="#9a32cd" stroke="#9a32cd" points="39.13,-199.5 29.13,-203 39.13,-206.5 39.13,-199.5"/>
<text text-anchor="middle" x="55.5" y="-206" font-family="Helvetica,sans-Serif" font-size="10.00"> ptr</text>
</g>
<!-- Node10 -->
<g id="node10" class="node">
<title>Node10</title>
<g id="a_node10"><a xlink:title=" ">
<polygon fill="white" stroke="#bfbfbf" points="318,-144 318,-174 437,-174 437,-144 318,-144"/>
<text text-anchor="start" x="326" y="-162" font-family="Helvetica,sans-Serif" font-size="10.00">std::shared_ptr&lt; odb</text>
<text text-anchor="middle" x="377.5" y="-151" font-family="Helvetica,sans-Serif" font-size="10.00">::database &gt;</text>
</a>
</g>
</g>
<!-- Node10&#45;&gt;Node5 -->
<g id="edge10" class="edge">
<title>Node10&#45;&gt;Node5</title>
<path fill="none" stroke="#9a32cd" stroke-dasharray="5,2" d="M447.4,-149.09C479.29,-144.51 517.02,-139.09 548.6,-134.55"/>
<polygon fill="#9a32cd" stroke="#9a32cd" points="446.66,-145.66 437.26,-150.55 447.66,-152.59 446.66,-145.66"/>
<text text-anchor="middle" x="500" y="-148" font-family="Helvetica,sans-Serif" font-size="10.00"> database_</text>
</g>
<!-- Node11 -->
<g id="node11" class="node">
<title>Node11</title>
<g id="a_node11"><a xlink:href="../../dd/d95/classLeosac_1_1Tools_1_1ElapsedTimeCounter.html" target="_top" xlink:title="This class provide a simple to get the elapsed time since it&#39;s creation.">
<polygon fill="white" stroke="black" points="302.5,-95 302.5,-125 452.5,-125 452.5,-95 302.5,-95"/>
<text text-anchor="start" x="310.5" y="-113" font-family="Helvetica,sans-Serif" font-size="10.00">Leosac::Tools::ElapsedTime</text>
<text text-anchor="middle" x="377.5" y="-102" font-family="Helvetica,sans-Serif" font-size="10.00">Counter</text>
</a>
</g>
</g>
<!-- Node11&#45;&gt;Node5 -->
<g id="edge11" class="edge">
<title>Node11&#45;&gt;Node5</title>
<path fill="none" stroke="#9a32cd" stroke-dasharray="5,2" d="M463.01,-115.36C490.33,-117.09 520.28,-118.99 546.31,-120.64"/>
<polygon fill="#9a32cd" stroke="#9a32cd" points="462.88,-111.85 452.68,-114.7 462.44,-118.83 462.88,-111.85"/>
<text text-anchor="middle" x="500" y="-122" font-family="Helvetica,sans-Serif" font-size="10.00"> etc_</text>
</g>
<!-- Node12&#45;&gt;Node5 -->
<g id="edge12" class="edge">
<title>Node12&#45;&gt;Node5</title>
<path fill="none" stroke="#9a32cd" stroke-dasharray="5,2" d="M782.64,-127.76C770.28,-125.78 757.24,-124.02 745,-123 727.28,-121.52 722.78,-122.8 705,-123 698.73,-123.07 692.22,-123.17 685.69,-123.29"/>
<polygon fill="#9a32cd" stroke="#9a32cd" points="782.4,-131.26 792.84,-129.46 783.56,-124.36 782.4,-131.26"/>
<text text-anchor="middle" x="725" y="-126" font-family="Helvetica,sans-Serif" font-size="10.00"> parent_</text>
</g>
<!-- Node13 -->
<g id="node13" class="node">
<title>Node13</title>
<g id="a_node13"><a xlink:title="STL class.">
<polygon fill="white" stroke="#bfbfbf" points="345,-53.5 345,-72.5 410,-72.5 410,-53.5 345,-53.5"/>
<text text-anchor="middle" x="377.5" y="-60.5" font-family="Helvetica,sans-Serif" font-size="10.00">std::string</text>
</a>
</g>
</g>
<!-- Node13&#45;&gt;Node1 -->
<g id="edge16" class="edge">
<title>Node13&#45;&gt;Node1</title>
<path fill="none" stroke="#9a32cd" stroke-dasharray="5,2" d="M420.37,-62.55C500.04,-61.68 674.15,-59.8 771.19,-58.75"/>
<polygon fill="#9a32cd" stroke="#9a32cd" points="420.18,-59.05 410.22,-62.66 420.26,-66.05 420.18,-59.05"/>
<text text-anchor="middle" x="616" y="-75" font-family="Helvetica,sans-Serif" font-size="10.00"> after_</text>
<text text-anchor="middle" x="616" y="-64" font-family="Helvetica,sans-Serif" font-size="10.00">before_</text>
</g>
<!-- Node13&#45;&gt;Node5 -->
<g id="edge14" class="edge">
<title>Node13&#45;&gt;Node5</title>
<path fill="none" stroke="#9a32cd" stroke-dasharray="5,2" d="M420.16,-73.47C449.95,-81.01 490.98,-91.48 527,-101 544.61,-105.65 564.15,-110.97 580.34,-115.41"/>
<polygon fill="#9a32cd" stroke="#9a32cd" points="420.67,-69.99 410.11,-70.94 418.95,-76.78 420.67,-69.99"/>
<text text-anchor="middle" x="500" y="-104" font-family="Helvetica,sans-Serif" font-size="10.00"> msg_</text>
</g>
<!-- Node14 -->
<g id="node14" class="node">
<title>Node14</title>
<g id="a_node14"><a xlink:title="STL class.">
<polygon fill="white" stroke="#bfbfbf" points="96.5,-48 96.5,-78 200.5,-78 200.5,-48 96.5,-48"/>
<text text-anchor="start" x="104.5" y="-66" font-family="Helvetica,sans-Serif" font-size="10.00">std::basic_string&lt;</text>
<text text-anchor="middle" x="148.5" y="-55" font-family="Helvetica,sans-Serif" font-size="10.00"> char &gt;</text>
</a>
</g>
</g>
<!-- Node14&#45;&gt;Node13 -->
<g id="edge15" class="edge">
<title>Node14&#45;&gt;Node13</title>
<path fill="none" stroke="midnightblue" d="M210.85,-63C254.06,-63 310.14,-63 344.71,-63"/>
<polygon fill="midnightblue" stroke="midnightblue" points="210.73,-59.5 200.73,-63 210.73,-66.5 210.73,-59.5"/>
</g>
</g>
</svg>
