<?xml version="1.0" encoding="UTF-8" standalone="no"?>
<!DOCTYPE svg PUBLIC "-//W3C//DTD SVG 1.1//EN"
 "http://www.w3.org/Graphics/SVG/1.1/DTD/svg11.dtd">
<!-- Generated by graphviz version 2.43.0 (0)
 -->
<!-- Title: src/modules/tcp&#45;notifier/protocols/PushSimpleCardNumber.cpp Pages: 1 -->
<svg width="964pt" height="397pt"
 viewBox="0.00 0.00 963.70 397.00" xmlns="http://www.w3.org/2000/svg" xmlns:xlink="http://www.w3.org/1999/xlink">
<g id="graph0" class="graph" transform="scale(1 1) rotate(0) translate(4 393)">
<title>src/modules/tcp&#45;notifier/protocols/PushSimpleCardNumber.cpp</title>
<polygon fill="white" stroke="transparent" points="-4,4 -4,-393 959.7,-393 959.7,4 -4,4"/>
<!-- Node1 -->
<g id="node1" class="node">
<title>Node1</title>
<g id="a_node1"><a xlink:title=" ">
<polygon fill="#bfbfbf" stroke="black" points="433.5,-358.5 433.5,-388.5 639.5,-388.5 639.5,-358.5 433.5,-358.5"/>
<text text-anchor="start" x="441.5" y="-376.5" font-family="Helvetica,sans-Serif" font-size="10.00">src/modules/tcp&#45;notifier</text>
<text text-anchor="middle" x="536.5" y="-365.5" font-family="Helvetica,sans-Serif" font-size="10.00">/protocols/PushSimpleCardNumber.cpp</text>
</a>
</g>
</g>
<!-- Node2 -->
<g id="node2" class="node">
<title>Node2</title>
<g id="a_node2"><a xlink:href="../../df/d3b/PushSimpleCardNumber_8hpp.html" target="_top" xlink:title=" ">
<polygon fill="white" stroke="black" points="112,-302.5 112,-321.5 267,-321.5 267,-302.5 112,-302.5"/>
<text text-anchor="middle" x="189.5" y="-309.5" font-family="Helvetica,sans-Serif" font-size="10.00">PushSimpleCardNumber.hpp</text>
</a>
</g>
</g>
<!-- Node1&#45;&gt;Node2 -->
<g id="edge1" class="edge">
<title>Node1&#45;&gt;Node2</title>
<path fill="none" stroke="midnightblue" d="M454.71,-358.47C391.57,-347.65 305.71,-332.93 249,-323.2"/>
<polygon fill="midnightblue" stroke="midnightblue" points="249.56,-319.75 239.11,-321.51 248.37,-326.65 249.56,-319.75"/>
</g>
<!-- Node10 -->
<g id="node10" class="node">
<title>Node10</title>
<g id="a_node10"><a xlink:href="../../d9/dd6/RFIDCard_8hpp.html" target="_top" xlink:title=" ">
<polygon fill="white" stroke="black" points="329.5,-302.5 329.5,-321.5 493.5,-321.5 493.5,-302.5 329.5,-302.5"/>
<text text-anchor="middle" x="411.5" y="-309.5" font-family="Helvetica,sans-Serif" font-size="10.00">core/credentials/RFIDCard.hpp</text>
</a>
</g>
</g>
<!-- Node1&#45;&gt;Node10 -->
<g id="edge10" class="edge">
<title>Node1&#45;&gt;Node10</title>
<path fill="none" stroke="midnightblue" d="M506.88,-358.4C486.28,-348.59 459.02,-335.62 438.92,-326.05"/>
<polygon fill="midnightblue" stroke="midnightblue" points="440.22,-322.8 429.69,-321.66 437.21,-329.12 440.22,-322.8"/>
</g>
<!-- Node24 -->
<g id="node24" class="node">
<title>Node24</title>
<g id="a_node24"><a xlink:title=" ">
<polygon fill="white" stroke="#bfbfbf" points="511.5,-302.5 511.5,-321.5 561.5,-321.5 561.5,-302.5 511.5,-302.5"/>
<text text-anchor="middle" x="536.5" y="-309.5" font-family="Helvetica,sans-Serif" font-size="10.00">cstring</text>
</a>
</g>
</g>
<!-- Node1&#45;&gt;Node24 -->
<g id="edge37" class="edge">
<title>Node1&#45;&gt;Node24</title>
<path fill="none" stroke="midnightblue" d="M536.5,-358.4C536.5,-350.47 536.5,-340.46 536.5,-331.86"/>
<polygon fill="midnightblue" stroke="midnightblue" points="540,-331.66 536.5,-321.66 533,-331.66 540,-331.66"/>
</g>
<!-- Node25 -->
<g id="node25" class="node">
<title>Node25</title>
<g id="a_node25"><a xlink:title=" ">
<polygon fill="white" stroke="#bfbfbf" points="579.5,-302.5 579.5,-321.5 671.5,-321.5 671.5,-302.5 579.5,-302.5"/>
<text text-anchor="middle" x="625.5" y="-309.5" font-family="Helvetica,sans-Serif" font-size="10.00">zmqpp/inet.hpp</text>
</a>
</g>
</g>
<!-- Node1&#45;&gt;Node25 -->
<g id="edge38" class="edge">
<title>Node1&#45;&gt;Node25</title>
<path fill="none" stroke="midnightblue" d="M557.59,-358.4C571.59,-349.04 589.91,-336.79 603.99,-327.38"/>
<polygon fill="midnightblue" stroke="midnightblue" points="606.18,-330.13 612.55,-321.66 602.29,-324.31 606.18,-330.13"/>
</g>
<!-- Node26 -->
<g id="node26" class="node">
<title>Node26</title>
<g id="a_node26"><a xlink:title=" ">
<polygon fill="white" stroke="#bfbfbf" points="690,-302.5 690,-321.5 797,-321.5 797,-302.5 690,-302.5"/>
<text text-anchor="middle" x="743.5" y="-309.5" font-family="Helvetica,sans-Serif" font-size="10.00">zmqpp/zmqpp.hpp</text>
</a>
</g>
</g>
<!-- Node1&#45;&gt;Node26 -->
<g id="edge39" class="edge">
<title>Node1&#45;&gt;Node26</title>
<path fill="none" stroke="midnightblue" d="M585.29,-358.47C621.47,-348.08 670.17,-334.08 703.94,-324.37"/>
<polygon fill="midnightblue" stroke="midnightblue" points="705.26,-327.63 713.91,-321.51 703.33,-320.91 705.26,-327.63"/>
</g>
<!-- Node3 -->
<g id="node3" class="node">
<title>Node3</title>
<g id="a_node3"><a xlink:href="../../dc/d76/ProtocolHandler_8hpp.html" target="_top" xlink:title=" ">
<polygon fill="white" stroke="black" points="92.5,-235.5 92.5,-265.5 210.5,-265.5 210.5,-235.5 92.5,-235.5"/>
<text text-anchor="start" x="100.5" y="-253.5" font-family="Helvetica,sans-Serif" font-size="10.00">modules/tcp&#45;notifier</text>
<text text-anchor="middle" x="151.5" y="-242.5" font-family="Helvetica,sans-Serif" font-size="10.00">/ProtocolHandler.hpp</text>
</a>
</g>
</g>
<!-- Node2&#45;&gt;Node3 -->
<g id="edge2" class="edge">
<title>Node2&#45;&gt;Node3</title>
<path fill="none" stroke="midnightblue" d="M184.06,-302.48C179.34,-295.09 172.31,-284.08 165.98,-274.17"/>
<polygon fill="midnightblue" stroke="midnightblue" points="168.79,-272.07 160.46,-265.52 162.89,-275.83 168.79,-272.07"/>
</g>
<!-- Node4 -->
<g id="node4" class="node">
<title>Node4</title>
<g id="a_node4"><a xlink:href="../../dc/d49/LeosacFwd_8hpp.html" target="_top" xlink:title=" ">
<polygon fill="white" stroke="black" points="83.5,-179.5 83.5,-198.5 175.5,-198.5 175.5,-179.5 83.5,-179.5"/>
<text text-anchor="middle" x="129.5" y="-186.5" font-family="Helvetica,sans-Serif" font-size="10.00">LeosacFwd.hpp</text>
</a>
</g>
</g>
<!-- Node3&#45;&gt;Node4 -->
<g id="edge3" class="edge">
<title>Node3&#45;&gt;Node4</title>
<path fill="none" stroke="midnightblue" d="M146.29,-235.4C143.29,-227.29 139.49,-217.01 136.26,-208.28"/>
<polygon fill="midnightblue" stroke="midnightblue" points="139.45,-206.82 132.7,-198.66 132.89,-209.25 139.45,-206.82"/>
</g>
<!-- Node7 -->
<g id="node7" class="node">
<title>Node7</title>
<g id="a_node7"><a xlink:href="../../d7/d7f/CredentialFwd_8hpp.html" target="_top" xlink:title=" ">
<polygon fill="white" stroke="black" points="221.5,-112.5 221.5,-142.5 369.5,-142.5 369.5,-112.5 221.5,-112.5"/>
<text text-anchor="start" x="229.5" y="-130.5" font-family="Helvetica,sans-Serif" font-size="10.00">core/credentials/Credential</text>
<text text-anchor="middle" x="295.5" y="-119.5" font-family="Helvetica,sans-Serif" font-size="10.00">Fwd.hpp</text>
</a>
</g>
</g>
<!-- Node3&#45;&gt;Node7 -->
<g id="edge6" class="edge">
<title>Node3&#45;&gt;Node7</title>
<path fill="none" stroke="midnightblue" d="M168.3,-235.38C193.66,-214.07 241.86,-173.57 271.1,-149"/>
<polygon fill="midnightblue" stroke="midnightblue" points="273.4,-151.64 278.81,-142.53 268.9,-146.28 273.4,-151.64"/>
</g>
<!-- Node9 -->
<g id="node9" class="node">
<title>Node9</title>
<g id="a_node9"><a xlink:title=" ">
<polygon fill="white" stroke="#bfbfbf" points="0,-179.5 0,-198.5 65,-198.5 65,-179.5 0,-179.5"/>
<text text-anchor="middle" x="32.5" y="-186.5" font-family="Helvetica,sans-Serif" font-size="10.00">stdexcept</text>
</a>
</g>
</g>
<!-- Node3&#45;&gt;Node9 -->
<g id="edge9" class="edge">
<title>Node3&#45;&gt;Node9</title>
<path fill="none" stroke="midnightblue" d="M123.3,-235.4C103.78,-225.64 77.97,-212.74 58.87,-203.18"/>
<polygon fill="midnightblue" stroke="midnightblue" points="60.33,-200 49.82,-198.66 57.19,-206.26 60.33,-200"/>
</g>
<!-- Node5 -->
<g id="node5" class="node">
<title>Node5</title>
<g id="a_node5"><a xlink:title=" ">
<polygon fill="white" stroke="#bfbfbf" points="283.5,-56.5 283.5,-75.5 341.5,-75.5 341.5,-56.5 283.5,-56.5"/>
<text text-anchor="middle" x="312.5" y="-63.5" font-family="Helvetica,sans-Serif" font-size="10.00">memory</text>
</a>
</g>
</g>
<!-- Node4&#45;&gt;Node5 -->
<g id="edge4" class="edge">
<title>Node4&#45;&gt;Node5</title>
<path fill="none" stroke="midnightblue" d="M132.92,-179.36C139.54,-163.67 155.62,-130.44 179.5,-112 206.99,-90.77 245.09,-79.23 273.46,-73.17"/>
<polygon fill="midnightblue" stroke="midnightblue" points="274.32,-76.57 283.44,-71.18 272.95,-69.71 274.32,-76.57"/>
</g>
<!-- Node6 -->
<g id="node6" class="node">
<title>Node6</title>
<g id="a_node6"><a xlink:title=" ">
<polygon fill="white" stroke="#bfbfbf" points="80,-118 80,-137 127,-137 127,-118 80,-118"/>
<text text-anchor="middle" x="103.5" y="-125" font-family="Helvetica,sans-Serif" font-size="10.00">vector</text>
</a>
</g>
</g>
<!-- Node4&#45;&gt;Node6 -->
<g id="edge5" class="edge">
<title>Node4&#45;&gt;Node6</title>
<path fill="none" stroke="midnightblue" d="M125.77,-179.48C122.03,-170.9 116.14,-157.43 111.36,-146.48"/>
<polygon fill="midnightblue" stroke="midnightblue" points="114.43,-144.77 107.22,-137.01 108.02,-147.57 114.43,-144.77"/>
</g>
<!-- Node7&#45;&gt;Node5 -->
<g id="edge7" class="edge">
<title>Node7&#45;&gt;Node5</title>
<path fill="none" stroke="midnightblue" d="M299.53,-112.4C301.85,-104.29 304.78,-94.01 307.28,-85.28"/>
<polygon fill="midnightblue" stroke="midnightblue" points="310.64,-86.23 310.03,-75.66 303.91,-84.31 310.64,-86.23"/>
</g>
<!-- Node8 -->
<g id="node8" class="node">
<title>Node8</title>
<g id="a_node8"><a xlink:title=" ">
<polygon fill="white" stroke="#bfbfbf" points="561,-56.5 561,-75.5 656,-75.5 656,-56.5 561,-56.5"/>
<text text-anchor="middle" x="608.5" y="-63.5" font-family="Helvetica,sans-Serif" font-size="10.00">odb/lazy&#45;ptr.hxx</text>
</a>
</g>
</g>
<!-- Node7&#45;&gt;Node8 -->
<g id="edge8" class="edge">
<title>Node7&#45;&gt;Node8</title>
<path fill="none" stroke="midnightblue" d="M369.28,-112.47C425.87,-101.72 502.72,-87.11 553.88,-77.38"/>
<polygon fill="midnightblue" stroke="midnightblue" points="554.58,-80.81 563.75,-75.51 553.27,-73.94 554.58,-80.81"/>
</g>
<!-- Node11 -->
<g id="node11" class="node">
<title>Node11</title>
<g id="a_node11"><a xlink:href="../../d1/d40/Credential_8hpp.html" target="_top" xlink:title=" ">
<polygon fill="white" stroke="black" points="524,-241 524,-260 693,-260 693,-241 524,-241"/>
<text text-anchor="middle" x="608.5" y="-248" font-family="Helvetica,sans-Serif" font-size="10.00">core/credentials/Credential.hpp</text>
</a>
</g>
</g>
<!-- Node10&#45;&gt;Node11 -->
<g id="edge11" class="edge">
<title>Node10&#45;&gt;Node11</title>
<path fill="none" stroke="midnightblue" d="M439.73,-302.48C474.1,-292.09 532.31,-274.51 570.58,-262.95"/>
<polygon fill="midnightblue" stroke="midnightblue" points="571.77,-266.25 580.33,-260.01 569.74,-259.55 571.77,-266.25"/>
</g>
<!-- Node23 -->
<g id="node23" class="node">
<title>Node23</title>
<g id="a_node23"><a xlink:href="../../dc/dd6/IRFIDCard_8hpp.html" target="_top" xlink:title=" ">
<polygon fill="white" stroke="black" points="328,-241 328,-260 495,-260 495,-241 328,-241"/>
<text text-anchor="middle" x="411.5" y="-248" font-family="Helvetica,sans-Serif" font-size="10.00">core/credentials/IRFIDCard.hpp</text>
</a>
</g>
</g>
<!-- Node10&#45;&gt;Node23 -->
<g id="edge34" class="edge">
<title>Node10&#45;&gt;Node23</title>
<path fill="none" stroke="midnightblue" d="M411.5,-302.48C411.5,-294.08 411.5,-280.98 411.5,-270.16"/>
<polygon fill="midnightblue" stroke="midnightblue" points="415,-270.01 411.5,-260.01 408,-270.01 415,-270.01"/>
</g>
<!-- Node11&#45;&gt;Node4 -->
<g id="edge12" class="edge">
<title>Node11&#45;&gt;Node4</title>
<path fill="none" stroke="midnightblue" d="M548.86,-240.98C534.35,-238.97 518.87,-236.86 504.5,-235 391.47,-220.34 259.04,-204.84 185.67,-196.4"/>
<polygon fill="midnightblue" stroke="midnightblue" points="186.05,-192.92 175.72,-195.26 185.26,-199.88 186.05,-192.92"/>
</g>
<!-- Node12 -->
<g id="node12" class="node">
<title>Node12</title>
<g id="a_node12"><a xlink:href="../../d3/d6f/AuthFwd_8hpp.html" target="_top" xlink:title=" ">
<polygon fill="white" stroke="black" points="682,-118 682,-137 811,-137 811,-118 682,-118"/>
<text text-anchor="middle" x="746.5" y="-125" font-family="Helvetica,sans-Serif" font-size="10.00">core/auth/AuthFwd.hpp</text>
</a>
</g>
</g>
<!-- Node11&#45;&gt;Node12 -->
<g id="edge13" class="edge">
<title>Node11&#45;&gt;Node12</title>
<path fill="none" stroke="midnightblue" d="M618.42,-240.8C641.6,-220.48 699.53,-169.69 728.87,-143.96"/>
<polygon fill="midnightblue" stroke="midnightblue" points="731.45,-146.35 736.67,-137.12 726.84,-141.08 731.45,-146.35"/>
</g>
<!-- Node13 -->
<g id="node13" class="node">
<title>Node13</title>
<g id="a_node13"><a xlink:title=" ">
<polygon fill="white" stroke="#bfbfbf" points="831,-56.5 831,-75.5 884,-75.5 884,-56.5 831,-56.5"/>
<text text-anchor="middle" x="857.5" y="-63.5" font-family="Helvetica,sans-Serif" font-size="10.00">cstddef</text>
</a>
</g>
</g>
<!-- Node11&#45;&gt;Node13 -->
<g id="edge33" class="edge">
<title>Node11&#45;&gt;Node13</title>
<path fill="none" stroke="midnightblue" d="M693.19,-243.36C747.19,-237.08 817.63,-224.44 875.5,-199 913.58,-182.26 931.86,-180.19 950.5,-143 956.67,-130.68 957.82,-123.67 950.5,-112 938.13,-92.28 914.41,-80.99 894.02,-74.65"/>
<polygon fill="midnightblue" stroke="midnightblue" points="894.91,-71.27 884.34,-71.92 893.01,-78 894.91,-71.27"/>
</g>
<!-- Node14 -->
<g id="node14" class="node">
<title>Node14</title>
<g id="a_node14"><a xlink:href="../../dc/dfe/ValidityInfo_8hpp.html" target="_top" xlink:title=" ">
<polygon fill="white" stroke="black" points="724.5,-179.5 724.5,-198.5 866.5,-198.5 866.5,-179.5 724.5,-179.5"/>
<text text-anchor="middle" x="795.5" y="-186.5" font-family="Helvetica,sans-Serif" font-size="10.00">core/auth/ValidityInfo.hpp</text>
</a>
</g>
</g>
<!-- Node11&#45;&gt;Node14 -->
<g id="edge17" class="edge">
<title>Node11&#45;&gt;Node14</title>
<path fill="none" stroke="midnightblue" d="M635.29,-240.98C667.79,-230.64 722.71,-213.16 759.04,-201.6"/>
<polygon fill="midnightblue" stroke="midnightblue" points="760.29,-204.88 768.76,-198.51 758.17,-198.21 760.29,-204.88"/>
</g>
<!-- Node17 -->
<g id="node17" class="node">
<title>Node17</title>
<g id="a_node17"><a xlink:href="../../d0/db0/ICredential_8hpp.html" target="_top" xlink:title=" ">
<polygon fill="white" stroke="black" points="394.5,-179.5 394.5,-198.5 566.5,-198.5 566.5,-179.5 394.5,-179.5"/>
<text text-anchor="middle" x="480.5" y="-186.5" font-family="Helvetica,sans-Serif" font-size="10.00">core/credentials/ICredential.hpp</text>
</a>
</g>
</g>
<!-- Node11&#45;&gt;Node17 -->
<g id="edge21" class="edge">
<title>Node11&#45;&gt;Node17</title>
<path fill="none" stroke="midnightblue" d="M590.16,-240.98C568.68,-230.99 532.88,-214.35 508.05,-202.81"/>
<polygon fill="midnightblue" stroke="midnightblue" points="509.35,-199.55 498.81,-198.51 506.4,-205.9 509.35,-199.55"/>
</g>
<!-- Node22 -->
<g id="node22" class="node">
<title>Node22</title>
<g id="a_node22"><a xlink:href="../../d8/d97/ToolsFwd_8hpp.html" target="_top" xlink:title=" ">
<polygon fill="white" stroke="black" points="553.5,-118 553.5,-137 663.5,-137 663.5,-118 553.5,-118"/>
<text text-anchor="middle" x="608.5" y="-125" font-family="Helvetica,sans-Serif" font-size="10.00">tools/ToolsFwd.hpp</text>
</a>
</g>
</g>
<!-- Node11&#45;&gt;Node22 -->
<g id="edge32" class="edge">
<title>Node11&#45;&gt;Node22</title>
<path fill="none" stroke="midnightblue" d="M608.5,-240.8C608.5,-221.35 608.5,-173.99 608.5,-147.4"/>
<polygon fill="midnightblue" stroke="midnightblue" points="612,-147.12 608.5,-137.12 605,-147.12 612,-147.12"/>
</g>
<!-- Node12&#45;&gt;Node5 -->
<g id="edge15" class="edge">
<title>Node12&#45;&gt;Node5</title>
<path fill="none" stroke="midnightblue" d="M705.89,-117.95C695.07,-115.83 683.37,-113.69 672.5,-112 534.57,-90.56 498.52,-96.88 360.5,-76 357.63,-75.57 354.67,-75.09 351.7,-74.58"/>
<polygon fill="midnightblue" stroke="midnightblue" points="352.09,-71.1 341.64,-72.8 350.87,-77.99 352.09,-71.1"/>
</g>
<!-- Node12&#45;&gt;Node8 -->
<g id="edge16" class="edge">
<title>Node12&#45;&gt;Node8</title>
<path fill="none" stroke="midnightblue" d="M726.73,-117.98C703.36,-107.9 664.29,-91.05 637.5,-79.5"/>
<polygon fill="midnightblue" stroke="midnightblue" points="638.8,-76.25 628.24,-75.51 636.03,-82.68 638.8,-76.25"/>
</g>
<!-- Node12&#45;&gt;Node13 -->
<g id="edge14" class="edge">
<title>Node12&#45;&gt;Node13</title>
<path fill="none" stroke="midnightblue" d="M762.4,-117.98C780.78,-108.12 811.26,-91.79 832.74,-80.27"/>
<polygon fill="midnightblue" stroke="midnightblue" points="834.47,-83.32 841.63,-75.51 831.16,-77.15 834.47,-83.32"/>
</g>
<!-- Node14&#45;&gt;Node12 -->
<g id="edge18" class="edge">
<title>Node14&#45;&gt;Node12</title>
<path fill="none" stroke="midnightblue" d="M788.48,-179.48C781.06,-170.46 769.17,-156.02 759.93,-144.81"/>
<polygon fill="midnightblue" stroke="midnightblue" points="762.57,-142.5 753.51,-137.01 757.16,-146.95 762.57,-142.5"/>
</g>
<!-- Node15 -->
<g id="node15" class="node">
<title>Node15</title>
<g id="a_node15"><a xlink:title=" ">
<polygon fill="white" stroke="#bfbfbf" points="891.5,-118 891.5,-137 941.5,-137 941.5,-118 891.5,-118"/>
<text text-anchor="middle" x="916.5" y="-125" font-family="Helvetica,sans-Serif" font-size="10.00">chrono</text>
</a>
</g>
</g>
<!-- Node14&#45;&gt;Node15 -->
<g id="edge19" class="edge">
<title>Node14&#45;&gt;Node15</title>
<path fill="none" stroke="midnightblue" d="M812.84,-179.48C833.05,-169.53 866.69,-152.99 890.14,-141.46"/>
<polygon fill="midnightblue" stroke="midnightblue" points="891.77,-144.56 899.2,-137.01 888.68,-138.28 891.77,-144.56"/>
</g>
<!-- Node16 -->
<g id="node16" class="node">
<title>Node16</title>
<g id="a_node16"><a xlink:title=" ">
<polygon fill="white" stroke="#bfbfbf" points="829.5,-118 829.5,-137 873.5,-137 873.5,-118 829.5,-118"/>
<text text-anchor="middle" x="851.5" y="-125" font-family="Helvetica,sans-Serif" font-size="10.00">string</text>
</a>
</g>
</g>
<!-- Node14&#45;&gt;Node16 -->
<g id="edge20" class="edge">
<title>Node14&#45;&gt;Node16</title>
<path fill="none" stroke="midnightblue" d="M803.52,-179.48C812.09,-170.37 825.86,-155.74 836.46,-144.48"/>
<polygon fill="midnightblue" stroke="midnightblue" points="839.19,-146.69 843.49,-137.01 834.09,-141.89 839.19,-146.69"/>
</g>
<!-- Node17&#45;&gt;Node5 -->
<g id="edge31" class="edge">
<title>Node17&#45;&gt;Node5</title>
<path fill="none" stroke="midnightblue" d="M467.56,-179.3C454.49,-170.42 433.82,-156.13 416.5,-143 399.13,-129.83 395.96,-125.04 378.5,-112 364.19,-101.32 347.58,-90 334.6,-81.38"/>
<polygon fill="midnightblue" stroke="midnightblue" points="336.16,-78.22 325.88,-75.64 332.31,-84.06 336.16,-78.22"/>
</g>
<!-- Node17&#45;&gt;Node7 -->
<g id="edge23" class="edge">
<title>Node17&#45;&gt;Node7</title>
<path fill="none" stroke="midnightblue" d="M453.99,-179.48C426.71,-170.7 383.45,-156.79 349.02,-145.71"/>
<polygon fill="midnightblue" stroke="midnightblue" points="349.69,-142.25 339.1,-142.52 347.55,-148.92 349.69,-142.25"/>
</g>
<!-- Node17&#45;&gt;Node12 -->
<g id="edge22" class="edge">
<title>Node17&#45;&gt;Node12</title>
<path fill="none" stroke="midnightblue" d="M518.61,-179.48C566.02,-168.87 646.98,-150.76 698.56,-139.22"/>
<polygon fill="midnightblue" stroke="midnightblue" points="699.46,-142.61 708.46,-137.01 697.94,-135.78 699.46,-142.61"/>
</g>
<!-- Node18 -->
<g id="node18" class="node">
<title>Node18</title>
<g id="a_node18"><a xlink:href="../../dd/d9d/IVisitable_8hpp.html" target="_top" xlink:title=" ">
<polygon fill="white" stroke="black" points="425.5,-118 425.5,-137 535.5,-137 535.5,-118 425.5,-118"/>
<text text-anchor="middle" x="480.5" y="-125" font-family="Helvetica,sans-Serif" font-size="10.00">tools/IVisitable.hpp</text>
</a>
</g>
</g>
<!-- Node17&#45;&gt;Node18 -->
<g id="edge24" class="edge">
<title>Node17&#45;&gt;Node18</title>
<path fill="none" stroke="midnightblue" d="M480.5,-179.48C480.5,-171.08 480.5,-157.98 480.5,-147.16"/>
<polygon fill="midnightblue" stroke="midnightblue" points="484,-147.01 480.5,-137.01 477,-147.01 484,-147.01"/>
</g>
<!-- Node17&#45;&gt;Node22 -->
<g id="edge28" class="edge">
<title>Node17&#45;&gt;Node22</title>
<path fill="none" stroke="midnightblue" d="M498.84,-179.48C520.32,-169.49 556.12,-152.85 580.95,-141.31"/>
<polygon fill="midnightblue" stroke="midnightblue" points="582.6,-144.4 590.19,-137.01 579.65,-138.05 582.6,-144.4"/>
</g>
<!-- Node19 -->
<g id="node19" class="node">
<title>Node19</title>
<g id="a_node19"><a xlink:href="../../d2/d91/Visitor_8hpp.html" target="_top" xlink:title=" ">
<polygon fill="white" stroke="black" points="440,-56.5 440,-75.5 535,-75.5 535,-56.5 440,-56.5"/>
<text text-anchor="middle" x="487.5" y="-63.5" font-family="Helvetica,sans-Serif" font-size="10.00">tools/Visitor.hpp</text>
</a>
</g>
</g>
<!-- Node18&#45;&gt;Node19 -->
<g id="edge25" class="edge">
<title>Node18&#45;&gt;Node19</title>
<path fill="none" stroke="midnightblue" d="M481.5,-117.98C482.49,-109.58 484.03,-96.48 485.3,-85.66"/>
<polygon fill="midnightblue" stroke="midnightblue" points="488.81,-85.85 486.5,-75.51 481.85,-85.03 488.81,-85.85"/>
</g>
<!-- Node21 -->
<g id="node21" class="node">
<title>Node21</title>
<g id="a_node21"><a xlink:title=" ">
<polygon fill="white" stroke="#bfbfbf" points="369.5,-56.5 369.5,-75.5 421.5,-75.5 421.5,-56.5 369.5,-56.5"/>
<text text-anchor="middle" x="395.5" y="-63.5" font-family="Helvetica,sans-Serif" font-size="10.00">cassert</text>
</a>
</g>
</g>
<!-- Node18&#45;&gt;Node21 -->
<g id="edge27" class="edge">
<title>Node18&#45;&gt;Node21</title>
<path fill="none" stroke="midnightblue" d="M468.32,-117.98C454.69,-108.43 432.37,-92.81 416.03,-81.37"/>
<polygon fill="midnightblue" stroke="midnightblue" points="417.86,-78.38 407.66,-75.51 413.84,-84.11 417.86,-78.38"/>
</g>
<!-- Node20 -->
<g id="node20" class="node">
<title>Node20</title>
<g id="a_node20"><a xlink:title=" ">
<polygon fill="white" stroke="#bfbfbf" points="453,-0.5 453,-19.5 522,-19.5 522,-0.5 453,-0.5"/>
<text text-anchor="middle" x="487.5" y="-7.5" font-family="Helvetica,sans-Serif" font-size="10.00">type_traits</text>
</a>
</g>
</g>
<!-- Node19&#45;&gt;Node20 -->
<g id="edge26" class="edge">
<title>Node19&#45;&gt;Node20</title>
<path fill="none" stroke="midnightblue" d="M487.5,-56.08C487.5,-49.01 487.5,-38.86 487.5,-29.99"/>
<polygon fill="midnightblue" stroke="midnightblue" points="491,-29.75 487.5,-19.75 484,-29.75 491,-29.75"/>
</g>
<!-- Node22&#45;&gt;Node5 -->
<g id="edge29" class="edge">
<title>Node22&#45;&gt;Node5</title>
<path fill="none" stroke="midnightblue" d="M571.65,-117.95C562.77,-115.94 553.31,-113.85 544.5,-112 508.21,-104.37 407.51,-85.08 351.45,-74.4"/>
<polygon fill="midnightblue" stroke="midnightblue" points="352,-70.94 341.52,-72.51 350.69,-77.82 352,-70.94"/>
</g>
<!-- Node22&#45;&gt;Node8 -->
<g id="edge30" class="edge">
<title>Node22&#45;&gt;Node8</title>
<path fill="none" stroke="midnightblue" d="M608.5,-117.98C608.5,-109.58 608.5,-96.48 608.5,-85.66"/>
<polygon fill="midnightblue" stroke="midnightblue" points="612,-85.51 608.5,-75.51 605,-85.51 612,-85.51"/>
</g>
<!-- Node23&#45;&gt;Node5 -->
<g id="edge36" class="edge">
<title>Node23&#45;&gt;Node5</title>
<path fill="none" stroke="midnightblue" d="M371.22,-240.98C323.7,-228.53 246.83,-200.31 212.5,-143 205.42,-131.18 205.02,-123.57 212.5,-112 225.95,-91.2 251.55,-79.92 273.48,-73.86"/>
<polygon fill="midnightblue" stroke="midnightblue" points="274.38,-77.24 283.24,-71.42 272.69,-70.45 274.38,-77.24"/>
</g>
<!-- Node23&#45;&gt;Node17 -->
<g id="edge35" class="edge">
<title>Node23&#45;&gt;Node17</title>
<path fill="none" stroke="midnightblue" d="M421.39,-240.98C432.15,-231.7 449.57,-216.67 462.72,-205.33"/>
<polygon fill="midnightblue" stroke="midnightblue" points="465.34,-207.69 470.63,-198.51 460.77,-202.39 465.34,-207.69"/>
</g>
</g>
</svg>
