<?xml version="1.0" encoding="UTF-8" standalone="no"?>
<!DOCTYPE svg PUBLIC "-//W3C//DTD SVG 1.1//EN"
 "http://www.w3.org/Graphics/SVG/1.1/DTD/svg11.dtd">
<!-- Generated by graphviz version 2.43.0 (0)
 -->
<!-- Title: Leosac::Audit::ICredentialEvent Pages: 1 -->
<svg width="150pt" height="218pt"
 viewBox="0.00 0.00 150.00 218.00" xmlns="http://www.w3.org/2000/svg" xmlns:xlink="http://www.w3.org/1999/xlink">
<g id="graph0" class="graph" transform="scale(1 1) rotate(0) translate(4 214)">
<title>Leosac::Audit::ICredentialEvent</title>
<polygon fill="white" stroke="transparent" points="-4,4 -4,-214 146,-214 146,4 -4,4"/>
<!-- Node1 -->
<g id="node1" class="node">
<title>Node1</title>
<g id="a_node1"><a xlink:title="Audit interface to Credential related events.">
<polygon fill="#bfbfbf" stroke="black" points="0.5,-67.5 0.5,-97.5 141.5,-97.5 141.5,-67.5 0.5,-67.5"/>
<text text-anchor="start" x="8.5" y="-85.5" font-family="Helvetica,sans-Serif" font-size="10.00">Leosac::Audit::ICredential</text>
<text text-anchor="middle" x="71" y="-74.5" font-family="Helvetica,sans-Serif" font-size="10.00">Event</text>
</a>
</g>
</g>
<!-- Node4 -->
<g id="node4" class="node">
<title>Node4</title>
<g id="a_node4"><a xlink:href="../../d3/d8c/classLeosac_1_1Audit_1_1CredentialEvent.html" target="_top" xlink:title="Provides an implementation of ICredentialEvent.">
<polygon fill="white" stroke="black" points="2,-0.5 2,-30.5 140,-30.5 140,-0.5 2,-0.5"/>
<text text-anchor="start" x="10" y="-18.5" font-family="Helvetica,sans-Serif" font-size="10.00">Leosac::Audit::Credential</text>
<text text-anchor="middle" x="71" y="-7.5" font-family="Helvetica,sans-Serif" font-size="10.00">Event</text>
</a>
</g>
</g>
<!-- Node1&#45;&gt;Node4 -->
<g id="edge3" class="edge">
<title>Node1&#45;&gt;Node4</title>
<path fill="none" stroke="midnightblue" d="M71,-57.11C71,-48.15 71,-38.32 71,-30.58"/>
<polygon fill="midnightblue" stroke="midnightblue" points="67.5,-57.4 71,-67.4 74.5,-57.4 67.5,-57.4"/>
</g>
<!-- Node2 -->
<g id="node2" class="node">
<title>Node2</title>
<g id="a_node2"><a xlink:href="../../d1/d44/classLeosac_1_1Audit_1_1IAuditEntry.html" target="_top" xlink:title="Base interface to Audit object.">
<polygon fill="white" stroke="black" points="0,-134.5 0,-153.5 142,-153.5 142,-134.5 0,-134.5"/>
<text text-anchor="middle" x="71" y="-141.5" font-family="Helvetica,sans-Serif" font-size="10.00">Leosac::Audit::IAuditEntry</text>
</a>
</g>
</g>
<!-- Node2&#45;&gt;Node1 -->
<g id="edge1" class="edge">
<title>Node2&#45;&gt;Node1</title>
<path fill="none" stroke="midnightblue" d="M71,-124.23C71,-115.59 71,-105.5 71,-97.52"/>
<polygon fill="midnightblue" stroke="midnightblue" points="67.5,-124.48 71,-134.48 74.5,-124.48 67.5,-124.48"/>
</g>
<!-- Node3 -->
<g id="node3" class="node">
<title>Node3</title>
<g id="a_node3"><a xlink:href="../../d0/d33/classLeosac_1_1Tools_1_1IVisitable.html" target="_top" xlink:title="Base class to make an object visitable.">
<polygon fill="white" stroke="black" points="4.5,-190.5 4.5,-209.5 137.5,-209.5 137.5,-190.5 4.5,-190.5"/>
<text text-anchor="middle" x="71" y="-197.5" font-family="Helvetica,sans-Serif" font-size="10.00">Leosac::Tools::IVisitable</text>
</a>
</g>
</g>
<!-- Node3&#45;&gt;Node2 -->
<g id="edge2" class="edge">
<title>Node3&#45;&gt;Node2</title>
<path fill="none" stroke="midnightblue" d="M71,-179.8C71,-170.91 71,-160.78 71,-153.75"/>
<polygon fill="midnightblue" stroke="midnightblue" points="67.5,-180.08 71,-190.08 74.5,-180.08 67.5,-180.08"/>
</g>
</g>
</svg>
