<?xml version="1.0" encoding="UTF-8" standalone="no"?>
<!DOCTYPE svg PUBLIC "-//W3C//DTD SVG 1.1//EN"
 "http://www.w3.org/Graphics/SVG/1.1/DTD/svg11.dtd">
<!-- Generated by graphviz version 2.43.0 (0)
 -->
<!-- Title: src/core/tasks/RemoteControlAsyncResponse.cpp Pages: 1 -->
<svg width="828pt" height="207pt"
 viewBox="0.00 0.00 828.00 207.00" xmlns="http://www.w3.org/2000/svg" xmlns:xlink="http://www.w3.org/1999/xlink">
<g id="graph0" class="graph" transform="scale(1 1) rotate(0) translate(4 203)">
<title>src/core/tasks/RemoteControlAsyncResponse.cpp</title>
<polygon fill="white" stroke="transparent" points="-4,4 -4,-203 824,-203 824,4 -4,4"/>
<!-- Node1 -->
<g id="node1" class="node">
<title>Node1</title>
<g id="a_node1"><a xlink:title=" ">
<polygon fill="#bfbfbf" stroke="black" points="340.5,-168.5 340.5,-198.5 501.5,-198.5 501.5,-168.5 340.5,-168.5"/>
<text text-anchor="start" x="348.5" y="-186.5" font-family="Helvetica,sans-Serif" font-size="10.00">src/core/tasks/RemoteControl</text>
<text text-anchor="middle" x="421" y="-175.5" font-family="Helvetica,sans-Serif" font-size="10.00">AsyncResponse.cpp</text>
</a>
</g>
</g>
<!-- Node2 -->
<g id="node2" class="node">
<title>Node2</title>
<g id="a_node2"><a xlink:href="../../d8/da2/RemoteControlAsyncResponse_8hpp.html" target="_top" xlink:title=" ">
<polygon fill="white" stroke="black" points="206,-112.5 206,-131.5 394,-131.5 394,-112.5 206,-112.5"/>
<text text-anchor="middle" x="300" y="-119.5" font-family="Helvetica,sans-Serif" font-size="10.00">RemoteControlAsyncResponse.hpp</text>
</a>
</g>
</g>
<!-- Node1&#45;&gt;Node2 -->
<g id="edge1" class="edge">
<title>Node1&#45;&gt;Node2</title>
<path fill="none" stroke="midnightblue" d="M392.32,-168.4C372.48,-158.64 346.24,-145.74 326.81,-136.18"/>
<polygon fill="midnightblue" stroke="midnightblue" points="328.12,-132.93 317.61,-131.66 325.04,-139.21 328.12,-132.93"/>
</g>
<!-- Node9 -->
<g id="node9" class="node">
<title>Node9</title>
<g id="a_node9"><a xlink:href="../../d4/d3d/log_8hpp.html" target="_top" xlink:title=" ">
<polygon fill="white" stroke="black" points="502,-112.5 502,-131.5 582,-131.5 582,-112.5 502,-112.5"/>
<text text-anchor="middle" x="542" y="-119.5" font-family="Helvetica,sans-Serif" font-size="10.00">tools/log.hpp</text>
</a>
</g>
</g>
<!-- Node1&#45;&gt;Node9 -->
<g id="edge8" class="edge">
<title>Node1&#45;&gt;Node9</title>
<path fill="none" stroke="midnightblue" d="M449.68,-168.4C469.52,-158.64 495.76,-145.74 515.19,-136.18"/>
<polygon fill="midnightblue" stroke="midnightblue" points="516.96,-139.21 524.39,-131.66 513.88,-132.93 516.96,-139.21"/>
</g>
<!-- Node3 -->
<g id="node3" class="node">
<title>Node3</title>
<g id="a_node3"><a xlink:href="../../d8/d91/Task_8hpp.html" target="_top" xlink:title=" ">
<polygon fill="white" stroke="black" points="115.5,-56.5 115.5,-75.5 228.5,-75.5 228.5,-56.5 115.5,-56.5"/>
<text text-anchor="middle" x="172" y="-63.5" font-family="Helvetica,sans-Serif" font-size="10.00">core/tasks/Task.hpp</text>
</a>
</g>
</g>
<!-- Node2&#45;&gt;Node3 -->
<g id="edge2" class="edge">
<title>Node2&#45;&gt;Node3</title>
<path fill="none" stroke="midnightblue" d="M279.72,-112.44C258.65,-103.56 225.48,-89.56 201.51,-79.45"/>
<polygon fill="midnightblue" stroke="midnightblue" points="202.76,-76.18 192.19,-75.52 200.04,-82.63 202.76,-76.18"/>
</g>
<!-- Node8 -->
<g id="node8" class="node">
<title>Node8</title>
<g id="a_node8"><a xlink:title=" ">
<polygon fill="white" stroke="#bfbfbf" points="246.5,-56.5 246.5,-75.5 353.5,-75.5 353.5,-56.5 246.5,-56.5"/>
<text text-anchor="middle" x="300" y="-63.5" font-family="Helvetica,sans-Serif" font-size="10.00">zmqpp/zmqpp.hpp</text>
</a>
</g>
</g>
<!-- Node2&#45;&gt;Node8 -->
<g id="edge7" class="edge">
<title>Node2&#45;&gt;Node8</title>
<path fill="none" stroke="midnightblue" d="M300,-112.08C300,-105.01 300,-94.86 300,-85.99"/>
<polygon fill="midnightblue" stroke="midnightblue" points="303.5,-85.75 300,-75.75 296.5,-85.75 303.5,-85.75"/>
</g>
<!-- Node4 -->
<g id="node4" class="node">
<title>Node4</title>
<g id="a_node4"><a xlink:title=" ">
<polygon fill="white" stroke="#bfbfbf" points="0,-0.5 0,-19.5 50,-19.5 50,-0.5 0,-0.5"/>
<text text-anchor="middle" x="25" y="-7.5" font-family="Helvetica,sans-Serif" font-size="10.00">atomic</text>
</a>
</g>
</g>
<!-- Node3&#45;&gt;Node4 -->
<g id="edge3" class="edge">
<title>Node3&#45;&gt;Node4</title>
<path fill="none" stroke="midnightblue" d="M148.71,-56.44C124.19,-47.44 85.4,-33.19 57.8,-23.05"/>
<polygon fill="midnightblue" stroke="midnightblue" points="58.78,-19.68 48.18,-19.52 56.36,-26.25 58.78,-19.68"/>
</g>
<!-- Node5 -->
<g id="node5" class="node">
<title>Node5</title>
<g id="a_node5"><a xlink:title=" ">
<polygon fill="white" stroke="#bfbfbf" points="68.5,-0.5 68.5,-19.5 175.5,-19.5 175.5,-0.5 68.5,-0.5"/>
<text text-anchor="middle" x="122" y="-7.5" font-family="Helvetica,sans-Serif" font-size="10.00">condition_variable</text>
</a>
</g>
</g>
<!-- Node3&#45;&gt;Node5 -->
<g id="edge4" class="edge">
<title>Node3&#45;&gt;Node5</title>
<path fill="none" stroke="midnightblue" d="M163.74,-56.08C156.54,-48.3 145.89,-36.8 137.15,-27.37"/>
<polygon fill="midnightblue" stroke="midnightblue" points="139.47,-24.71 130.1,-19.75 134.33,-29.47 139.47,-24.71"/>
</g>
<!-- Node6 -->
<g id="node6" class="node">
<title>Node6</title>
<g id="a_node6"><a xlink:title=" ">
<polygon fill="white" stroke="#bfbfbf" points="194,-0.5 194,-19.5 252,-19.5 252,-0.5 194,-0.5"/>
<text text-anchor="middle" x="223" y="-7.5" font-family="Helvetica,sans-Serif" font-size="10.00">memory</text>
</a>
</g>
</g>
<!-- Node3&#45;&gt;Node6 -->
<g id="edge5" class="edge">
<title>Node3&#45;&gt;Node6</title>
<path fill="none" stroke="midnightblue" d="M180.42,-56.08C187.85,-48.22 198.85,-36.57 207.81,-27.08"/>
<polygon fill="midnightblue" stroke="midnightblue" points="210.41,-29.42 214.74,-19.75 205.32,-24.62 210.41,-29.42"/>
</g>
<!-- Node7 -->
<g id="node7" class="node">
<title>Node7</title>
<g id="a_node7"><a xlink:title=" ">
<polygon fill="white" stroke="#bfbfbf" points="270.5,-0.5 270.5,-19.5 335.5,-19.5 335.5,-0.5 270.5,-0.5"/>
<text text-anchor="middle" x="303" y="-7.5" font-family="Helvetica,sans-Serif" font-size="10.00">functional</text>
</a>
</g>
</g>
<!-- Node3&#45;&gt;Node7 -->
<g id="edge6" class="edge">
<title>Node3&#45;&gt;Node7</title>
<path fill="none" stroke="midnightblue" d="M192.76,-56.44C214.32,-47.56 248.26,-33.56 272.79,-23.45"/>
<polygon fill="midnightblue" stroke="midnightblue" points="274.43,-26.56 282.34,-19.52 271.76,-20.09 274.43,-26.56"/>
</g>
<!-- Node10 -->
<g id="node10" class="node">
<title>Node10</title>
<g id="a_node10"><a xlink:title=" ">
<polygon fill="white" stroke="#bfbfbf" points="372,-56.5 372,-75.5 424,-75.5 424,-56.5 372,-56.5"/>
<text text-anchor="middle" x="398" y="-63.5" font-family="Helvetica,sans-Serif" font-size="10.00">cassert</text>
</a>
</g>
</g>
<!-- Node9&#45;&gt;Node10 -->
<g id="edge9" class="edge">
<title>Node9&#45;&gt;Node10</title>
<path fill="none" stroke="midnightblue" d="M519.18,-112.44C495.17,-103.44 457.17,-89.19 430.13,-79.05"/>
<polygon fill="midnightblue" stroke="midnightblue" points="431.3,-75.75 420.71,-75.52 428.84,-82.3 431.3,-75.75"/>
</g>
<!-- Node11 -->
<g id="node11" class="node">
<title>Node11</title>
<g id="a_node11"><a xlink:title=" ">
<polygon fill="white" stroke="#bfbfbf" points="442.5,-56.5 442.5,-75.5 493.5,-75.5 493.5,-56.5 442.5,-56.5"/>
<text text-anchor="middle" x="468" y="-63.5" font-family="Helvetica,sans-Serif" font-size="10.00">csignal</text>
</a>
</g>
</g>
<!-- Node9&#45;&gt;Node11 -->
<g id="edge10" class="edge">
<title>Node9&#45;&gt;Node11</title>
<path fill="none" stroke="midnightblue" d="M530.11,-112.32C518.85,-104.11 501.71,-91.6 488.29,-81.81"/>
<polygon fill="midnightblue" stroke="midnightblue" points="490.25,-78.9 480.11,-75.83 486.12,-84.56 490.25,-78.9"/>
</g>
<!-- Node12 -->
<g id="node12" class="node">
<title>Node12</title>
<g id="a_node12"><a xlink:title=" ">
<polygon fill="white" stroke="#bfbfbf" points="512,-56.5 512,-75.5 572,-75.5 572,-56.5 512,-56.5"/>
<text text-anchor="middle" x="542" y="-63.5" font-family="Helvetica,sans-Serif" font-size="10.00">iostream</text>
</a>
</g>
</g>
<!-- Node9&#45;&gt;Node12 -->
<g id="edge11" class="edge">
<title>Node9&#45;&gt;Node12</title>
<path fill="none" stroke="midnightblue" d="M542,-112.08C542,-105.01 542,-94.86 542,-85.99"/>
<polygon fill="midnightblue" stroke="midnightblue" points="545.5,-85.75 542,-75.75 538.5,-85.75 545.5,-85.75"/>
</g>
<!-- Node13 -->
<g id="node13" class="node">
<title>Node13</title>
<g id="a_node13"><a xlink:title=" ">
<polygon fill="white" stroke="#bfbfbf" points="590.5,-56.5 590.5,-75.5 683.5,-75.5 683.5,-56.5 590.5,-56.5"/>
<text text-anchor="middle" x="637" y="-63.5" font-family="Helvetica,sans-Serif" font-size="10.00">spdlog/spdlog.h</text>
</a>
</g>
</g>
<!-- Node9&#45;&gt;Node13 -->
<g id="edge12" class="edge">
<title>Node9&#45;&gt;Node13</title>
<path fill="none" stroke="midnightblue" d="M557.26,-112.32C572.22,-103.82 595.25,-90.73 612.73,-80.8"/>
<polygon fill="midnightblue" stroke="midnightblue" points="614.81,-83.64 621.77,-75.65 611.35,-77.55 614.81,-83.64"/>
</g>
<!-- Node14 -->
<g id="node14" class="node">
<title>Node14</title>
<g id="a_node14"><a xlink:title=" ">
<polygon fill="white" stroke="#bfbfbf" points="702,-56.5 702,-75.5 758,-75.5 758,-56.5 702,-56.5"/>
<text text-anchor="middle" x="730" y="-63.5" font-family="Helvetica,sans-Serif" font-size="10.00">sstream</text>
</a>
</g>
</g>
<!-- Node9&#45;&gt;Node14 -->
<g id="edge13" class="edge">
<title>Node9&#45;&gt;Node14</title>
<path fill="none" stroke="midnightblue" d="M571.79,-112.44C604.3,-103.11 656.44,-88.13 691.91,-77.94"/>
<polygon fill="midnightblue" stroke="midnightblue" points="693.24,-81.2 701.89,-75.08 691.31,-74.47 693.24,-81.2"/>
</g>
<!-- Node15 -->
<g id="node15" class="node">
<title>Node15</title>
<g id="a_node15"><a xlink:title=" ">
<polygon fill="white" stroke="#bfbfbf" points="776,-56.5 776,-75.5 820,-75.5 820,-56.5 776,-56.5"/>
<text text-anchor="middle" x="798" y="-63.5" font-family="Helvetica,sans-Serif" font-size="10.00">string</text>
</a>
</g>
</g>
<!-- Node9&#45;&gt;Node15 -->
<g id="edge14" class="edge">
<title>Node9&#45;&gt;Node15</title>
<path fill="none" stroke="midnightblue" d="M582.06,-114.05C625.2,-106.34 696.04,-92.99 765.87,-76.12"/>
<polygon fill="midnightblue" stroke="midnightblue" points="766.83,-79.49 775.71,-73.72 765.17,-72.69 766.83,-79.49"/>
</g>
</g>
</svg>
