<?xml version="1.0" encoding="UTF-8" standalone="no"?>
<!DOCTYPE svg PUBLIC "-//W3C//DTD SVG 1.1//EN"
 "http://www.w3.org/Graphics/SVG/1.1/DTD/svg11.dtd">
<!-- Generated by graphviz version 2.43.0 (0)
 -->
<!-- Title: src/tools/version.hpp Pages: 1 -->
<svg width="484pt" height="95pt"
 viewBox="0.00 0.00 484.00 95.00" xmlns="http://www.w3.org/2000/svg" xmlns:xlink="http://www.w3.org/1999/xlink">
<g id="graph0" class="graph" transform="scale(1 1) rotate(0) translate(4 91)">
<title>src/tools/version.hpp</title>
<polygon fill="white" stroke="transparent" points="-4,4 -4,-91 480,-91 480,4 -4,4"/>
<!-- Node1 -->
<g id="node1" class="node">
<title>Node1</title>
<g id="a_node1"><a xlink:title="version handling">
<polygon fill="#bfbfbf" stroke="black" points="174.5,-67.5 174.5,-86.5 292.5,-86.5 292.5,-67.5 174.5,-67.5"/>
<text text-anchor="middle" x="233.5" y="-74.5" font-family="Helvetica,sans-Serif" font-size="10.00">src/tools/version.hpp</text>
</a>
</g>
</g>
<!-- Node2 -->
<g id="node2" class="node">
<title>Node2</title>
<g id="a_node2"><a xlink:href="../../df/d0a/main_8cpp.html" target="_top" xlink:title="standard main">
<polygon fill="white" stroke="black" points="0,-6 0,-25 79,-25 79,-6 0,-6"/>
<text text-anchor="middle" x="39.5" y="-13" font-family="Helvetica,sans-Serif" font-size="10.00">src/main.cpp</text>
</a>
</g>
</g>
<!-- Node1&#45;&gt;Node2 -->
<g id="edge1" class="edge">
<title>Node1&#45;&gt;Node2</title>
<path fill="none" stroke="midnightblue" d="M196.1,-64.53C158.39,-52.96 101.07,-35.38 67.24,-25.01"/>
<polygon fill="midnightblue" stroke="midnightblue" points="195.12,-67.89 205.7,-67.48 197.17,-61.2 195.12,-67.89"/>
</g>
<!-- Node3 -->
<g id="node3" class="node">
<title>Node3</title>
<g id="a_node3"><a xlink:href="../../d9/d8d/APISession_8cpp.html" target="_top" xlink:title=" ">
<polygon fill="white" stroke="black" points="97.5,-0.5 97.5,-30.5 227.5,-30.5 227.5,-0.5 97.5,-0.5"/>
<text text-anchor="start" x="105.5" y="-18.5" font-family="Helvetica,sans-Serif" font-size="10.00">src/modules/websock</text>
<text text-anchor="middle" x="162.5" y="-7.5" font-family="Helvetica,sans-Serif" font-size="10.00">&#45;api/api/APISession.cpp</text>
</a>
</g>
</g>
<!-- Node1&#45;&gt;Node3 -->
<g id="edge2" class="edge">
<title>Node1&#45;&gt;Node3</title>
<path fill="none" stroke="midnightblue" d="M215.51,-60.92C204.36,-51.58 190.14,-39.66 179.23,-30.52"/>
<polygon fill="midnightblue" stroke="midnightblue" points="213.41,-63.73 223.33,-67.48 217.91,-58.37 213.41,-63.73"/>
</g>
<!-- Node4 -->
<g id="node4" class="node">
<title>Node4</title>
<g id="a_node4"><a xlink:href="../../d4/d9e/src_2tools_2version_8cpp.html" target="_top" xlink:title="version handling">
<polygon fill="white" stroke="black" points="246,-6 246,-25 363,-25 363,-6 246,-6"/>
<text text-anchor="middle" x="304.5" y="-13" font-family="Helvetica,sans-Serif" font-size="10.00">src/tools/version.cpp</text>
</a>
</g>
</g>
<!-- Node1&#45;&gt;Node4 -->
<g id="edge3" class="edge">
<title>Node1&#45;&gt;Node4</title>
<path fill="none" stroke="midnightblue" d="M251.43,-60.97C265.01,-49.59 283.18,-34.37 294.35,-25.01"/>
<polygon fill="midnightblue" stroke="midnightblue" points="249.09,-58.37 243.67,-67.48 253.59,-63.73 249.09,-58.37"/>
</g>
<!-- Node5 -->
<g id="node5" class="node">
<title>Node5</title>
<g id="a_node5"><a xlink:href="../../d1/ddc/test_2version_8cpp.html" target="_top" xlink:title=" ">
<polygon fill="white" stroke="black" points="381,-6 381,-25 476,-25 476,-6 381,-6"/>
<text text-anchor="middle" x="428.5" y="-13" font-family="Helvetica,sans-Serif" font-size="10.00">test/version.cpp</text>
</a>
</g>
</g>
<!-- Node1&#45;&gt;Node5 -->
<g id="edge4" class="edge">
<title>Node1&#45;&gt;Node5</title>
<path fill="none" stroke="midnightblue" d="M271.1,-64.53C308.99,-52.96 366.61,-35.38 400.61,-25.01"/>
<polygon fill="midnightblue" stroke="midnightblue" points="269.98,-61.21 261.44,-67.48 272.02,-67.9 269.98,-61.21"/>
</g>
</g>
</svg>
