<?xml version="1.0" encoding="UTF-8" standalone="no"?>
<!DOCTYPE svg PUBLIC "-//W3C//DTD SVG 1.1//EN"
 "http://www.w3.org/Graphics/SVG/1.1/DTD/svg11.dtd">
<!-- Generated by graphviz version 2.43.0 (0)
 -->
<!-- Title: src/tools/XmlNodeNameEnforcer.hpp Pages: 1 -->
<!--zoomable 296 -->
<svg id="main" version="1.1" xmlns="http://www.w3.org/2000/svg" xmlns:xlink="http://www.w3.org/1999/xlink" xml:space="preserve" onload="init(evt)">
<style type="text/css"><![CDATA[
.edge:hover path { stroke: red; }
.edge:hover polygon { stroke: red; fill: red; }
]]></style>
<script type="text/javascript"><![CDATA[
var edges = document.getElementsByTagName('g');
if (edges && edges.length) {
  for (var i=0;i<edges.length;i++) {
    if (edges[i].id.substr(0,4)=='edge') {
      edges[i].setAttribute('class','edge');
    }
  }
}
]]></script>
        <defs>
                <circle id="rim" cx="0" cy="0" r="7"/>
                <circle id="rim2" cx="0" cy="0" r="3.5"/>
                <g id="zoomPlus">
                        <use xlink:href="#rim" fill="#404040">
                                <set attributeName="fill" to="#808080" begin="zoomplus.mouseover" end="zoomplus.mouseout"/>
                        </use>
                        <path d="M-4,0h8M0,-4v8" fill="none" stroke="white" stroke-width="1.5" pointer-events="none"/>
                </g>
                <g id="zoomMin">
                        <use xlink:href="#rim" fill="#404040">
                                <set attributeName="fill" to="#808080" begin="zoomminus.mouseover" end="zoomminus.mouseout"/>
                        </use>
                        <path d="M-4,0h8" fill="none" stroke="white" stroke-width="1.5" pointer-events="none"/>
                </g>
                <g id="dirArrow">
                        <path fill="none" stroke="white" stroke-width="1.5" d="M0,-3.0v7 M-2.5,-0.5L0,-3.0L2.5,-0.5"/>
                </g>
               <g id="resetDef">
                       <use xlink:href="#rim2" fill="#404040">
                               <set attributeName="fill" to="#808080" begin="reset.mouseover" end="reset.mouseout"/>
                       </use>
               </g>
        </defs>

<script type="text/javascript">
var viewWidth = 4083;
var viewHeight = 296;
var sectionId = 'dynsection-1';
</script>
<script xlink:href="../../svgpan.js"/>
<svg id="graph" class="graph">
<g id="viewport">
<title>src/tools/XmlNodeNameEnforcer.hpp</title>
<polygon fill="white" stroke="transparent" points="-4,4 -4,-292 4078.5,-292 4078.5,4 -4,4"/>
<!-- Node1 -->
<g id="node1" class="node">
<title>Node1</title>
<g id="a_node1"><a xlink:title=" ">
<polygon fill="#bfbfbf" stroke="black" points="3465.5,-268.5 3465.5,-287.5 3661.5,-287.5 3661.5,-268.5 3465.5,-268.5"/>
<text text-anchor="middle" x="3563.5" y="-275.5" font-family="Helvetica,sans-Serif" font-size="10.00">src/tools/XmlNodeNameEnforcer.hpp</text>
</a>
</g>
</g>
<!-- Node2 -->
<g id="node2" class="node">
<title>Node2</title>
<g id="a_node2"><a xlink:href="../../df/db8/kernel_8hpp.html" target="_top" xlink:title=" ">
<polygon fill="white" stroke="black" points="1706,-207 1706,-226 1815,-226 1815,-207 1706,-207"/>
<text text-anchor="middle" x="1760.5" y="-214" font-family="Helvetica,sans-Serif" font-size="10.00">src/core/kernel.hpp</text>
</a>
</g>
</g>
<!-- Node1&#45;&gt;Node2 -->
<g id="edge1" class="edge">
<title>Node1&#45;&gt;Node2</title>
<path fill="none" stroke="midnightblue" d="M3455.14,-273.42C3113.54,-262.15 2066.93,-227.61 1815.32,-219.31"/>
<polygon fill="midnightblue" stroke="midnightblue" points="3455.17,-276.93 3465.28,-273.76 3455.4,-269.93 3455.17,-276.93"/>
</g>
<!-- Node24 -->
<g id="node24" class="node">
<title>Node24</title>
<g id="a_node24"><a xlink:href="../../df/d5d/FileAuthSourceMapper_8hpp.html" target="_top" xlink:title=" ">
<polygon fill="white" stroke="black" points="3395.5,-201.5 3395.5,-231.5 3563.5,-231.5 3563.5,-201.5 3395.5,-201.5"/>
<text text-anchor="start" x="3403.5" y="-219.5" font-family="Helvetica,sans-Serif" font-size="10.00">src/modules/auth/auth</text>
<text text-anchor="middle" x="3479.5" y="-208.5" font-family="Helvetica,sans-Serif" font-size="10.00">&#45;file/FileAuthSourceMapper.hpp</text>
</a>
</g>
</g>
<!-- Node1&#45;&gt;Node24 -->
<g id="edge23" class="edge">
<title>Node1&#45;&gt;Node24</title>
<path fill="none" stroke="midnightblue" d="M3542.98,-262.47C3529.68,-253.05 3512.45,-240.84 3499.3,-231.52"/>
<polygon fill="midnightblue" stroke="midnightblue" points="3541.28,-265.55 3551.46,-268.48 3545.33,-259.84 3541.28,-265.55"/>
</g>
<!-- Node32 -->
<g id="node32" class="node">
<title>Node32</title>
<g id="a_node32"><a xlink:href="../../d0/dd9/TcpNotifier_8hpp.html" target="_top" xlink:title=" ">
<polygon fill="white" stroke="black" points="3721.5,-201.5 3721.5,-231.5 3853.5,-231.5 3853.5,-201.5 3721.5,-201.5"/>
<text text-anchor="start" x="3729.5" y="-219.5" font-family="Helvetica,sans-Serif" font-size="10.00">src/modules/tcp&#45;notifier</text>
<text text-anchor="middle" x="3787.5" y="-208.5" font-family="Helvetica,sans-Serif" font-size="10.00">/TcpNotifier.hpp</text>
</a>
</g>
</g>
<!-- Node1&#45;&gt;Node32 -->
<g id="edge33" class="edge">
<title>Node1&#45;&gt;Node32</title>
<path fill="none" stroke="midnightblue" d="M3605.44,-265.86C3642.02,-256.14 3695.24,-242.01 3734.71,-231.52"/>
<polygon fill="midnightblue" stroke="midnightblue" points="3604.36,-262.53 3595.59,-268.48 3606.16,-269.29 3604.36,-262.53"/>
</g>
<!-- Node35 -->
<g id="node35" class="node">
<title>Node35</title>
<g id="a_node35"><a xlink:href="../../d2/d6c/XmlNodeNameEnforcer_8cpp.html" target="_top" xlink:title=" ">
<polygon fill="white" stroke="black" points="3872,-207 3872,-226 4067,-226 4067,-207 3872,-207"/>
<text text-anchor="middle" x="3969.5" y="-214" font-family="Helvetica,sans-Serif" font-size="10.00">src/tools/XmlNodeNameEnforcer.cpp</text>
</a>
</g>
</g>
<!-- Node1&#45;&gt;Node35 -->
<g id="edge36" class="edge">
<title>Node1&#45;&gt;Node35</title>
<path fill="none" stroke="midnightblue" d="M3631.93,-266.97C3710.38,-255.47 3837.63,-236.83 3911.44,-226.01"/>
<polygon fill="midnightblue" stroke="midnightblue" points="3631.06,-263.56 3621.67,-268.48 3632.07,-270.49 3631.06,-263.56"/>
</g>
<!-- Node3 -->
<g id="node3" class="node">
<title>Node3</title>
<g id="a_node3"><a xlink:href="../../d6/dff/src_2core_2config_2ConfigManager_8cpp.html" target="_top" xlink:title=" ">
<polygon fill="white" stroke="black" points="0,-140 0,-159 183,-159 183,-140 0,-140"/>
<text text-anchor="middle" x="91.5" y="-147" font-family="Helvetica,sans-Serif" font-size="10.00">src/core/config/ConfigManager.cpp</text>
</a>
</g>
</g>
<!-- Node2&#45;&gt;Node3 -->
<g id="edge2" class="edge">
<title>Node2&#45;&gt;Node3</title>
<path fill="none" stroke="midnightblue" d="M1695.72,-215.97C1481.13,-216.99 774.12,-215.96 192.5,-165 176.35,-163.59 158.85,-161.33 143.01,-159.01"/>
<polygon fill="midnightblue" stroke="midnightblue" points="1695.88,-219.47 1705.86,-215.92 1695.84,-212.47 1695.88,-219.47"/>
</g>
<!-- Node4 -->
<g id="node4" class="node">
<title>Node4</title>
<g id="a_node4"><a xlink:href="../../d3/d1e/CoreAPI_8cpp.html" target="_top" xlink:title=" ">
<polygon fill="white" stroke="black" points="201.5,-140 201.5,-159 317.5,-159 317.5,-140 201.5,-140"/>
<text text-anchor="middle" x="259.5" y="-147" font-family="Helvetica,sans-Serif" font-size="10.00">src/core/CoreAPI.cpp</text>
</a>
</g>
</g>
<!-- Node2&#45;&gt;Node4 -->
<g id="edge3" class="edge">
<title>Node2&#45;&gt;Node4</title>
<path fill="none" stroke="midnightblue" d="M1695.78,-214.75C1453.06,-211.71 597,-198.76 326.5,-165 315.64,-163.64 303.93,-161.39 293.38,-159.06"/>
<polygon fill="midnightblue" stroke="midnightblue" points="1695.81,-218.25 1705.86,-214.88 1695.9,-211.25 1695.81,-218.25"/>
</g>
<!-- Node5 -->
<g id="node5" class="node">
<title>Node5</title>
<g id="a_node5"><a xlink:href="../../d4/dd4/CoreUtils_8cpp.html" target="_top" xlink:title=" ">
<polygon fill="white" stroke="black" points="336,-140 336,-159 459,-159 459,-140 336,-140"/>
<text text-anchor="middle" x="397.5" y="-147" font-family="Helvetica,sans-Serif" font-size="10.00">src/core/CoreUtils.cpp</text>
</a>
</g>
</g>
<!-- Node2&#45;&gt;Node5 -->
<g id="edge4" class="edge">
<title>Node2&#45;&gt;Node5</title>
<path fill="none" stroke="midnightblue" d="M1695.87,-214.36C1469.05,-210.16 710.07,-194.19 468.5,-165 457.01,-163.61 444.61,-161.35 433.43,-159.02"/>
<polygon fill="midnightblue" stroke="midnightblue" points="1695.88,-217.86 1705.94,-214.55 1696.01,-210.87 1695.88,-217.86"/>
</g>
<!-- Node6 -->
<g id="node6" class="node">
<title>Node6</title>
<g id="a_node6"><a xlink:href="../../d9/d6a/GetServiceRegistry_8cpp.html" target="_top" xlink:title=" ">
<polygon fill="white" stroke="black" points="477.5,-140 477.5,-159 647.5,-159 647.5,-140 477.5,-140"/>
<text text-anchor="middle" x="562.5" y="-147" font-family="Helvetica,sans-Serif" font-size="10.00">src/core/GetServiceRegistry.cpp</text>
</a>
</g>
</g>
<!-- Node2&#45;&gt;Node6 -->
<g id="edge5" class="edge">
<title>Node2&#45;&gt;Node6</title>
<path fill="none" stroke="midnightblue" d="M1695.72,-214.96C1525.18,-213.02 1049.87,-204.22 656.5,-165 641.71,-163.53 625.7,-161.3 611.16,-159.02"/>
<polygon fill="midnightblue" stroke="midnightblue" points="1695.75,-218.46 1705.79,-215.07 1695.82,-211.46 1695.75,-218.46"/>
</g>
<!-- Node7 -->
<g id="node7" class="node">
<title>Node7</title>
<g id="a_node7"><a xlink:href="../../dd/d24/kernel_8cpp.html" target="_top" xlink:title=" ">
<polygon fill="white" stroke="black" points="665.5,-140 665.5,-159 773.5,-159 773.5,-140 665.5,-140"/>
<text text-anchor="middle" x="719.5" y="-147" font-family="Helvetica,sans-Serif" font-size="10.00">src/core/kernel.cpp</text>
</a>
</g>
</g>
<!-- Node2&#45;&gt;Node7 -->
<g id="edge6" class="edge">
<title>Node2&#45;&gt;Node7</title>
<path fill="none" stroke="midnightblue" d="M1695.39,-216.05C1537.84,-216.53 1123.84,-212.72 782.5,-165 772.39,-163.59 761.5,-161.34 751.67,-159.04"/>
<polygon fill="midnightblue" stroke="midnightblue" points="1695.86,-219.55 1705.84,-216.01 1695.83,-212.55 1695.86,-219.55"/>
</g>
<!-- Node8 -->
<g id="node8" class="node">
<title>Node8</title>
<g id="a_node8"><a xlink:href="../../d9/d4a/module__manager_8cpp.html" target="_top" xlink:title=" ">
<polygon fill="white" stroke="black" points="792,-140 792,-159 955,-159 955,-140 792,-140"/>
<text text-anchor="middle" x="873.5" y="-147" font-family="Helvetica,sans-Serif" font-size="10.00">src/core/module_manager.cpp</text>
</a>
</g>
</g>
<!-- Node2&#45;&gt;Node8 -->
<g id="edge7" class="edge">
<title>Node2&#45;&gt;Node8</title>
<path fill="none" stroke="midnightblue" d="M1695.49,-213.51C1559.35,-208.86 1234.42,-195.34 963.5,-165 949.66,-163.45 934.7,-161.25 921.02,-159.04"/>
<polygon fill="midnightblue" stroke="midnightblue" points="1695.63,-217.01 1705.75,-213.85 1695.87,-210.02 1695.63,-217.01"/>
</g>
<!-- Node9 -->
<g id="node9" class="node">
<title>Node9</title>
<g id="a_node9"><a xlink:href="../../d2/d2a/networkconfig_8cpp.html" target="_top" xlink:title="NetworkConfig class implementation.">
<polygon fill="white" stroke="black" points="973,-134.5 973,-164.5 1082,-164.5 1082,-134.5 973,-134.5"/>
<text text-anchor="start" x="981" y="-152.5" font-family="Helvetica,sans-Serif" font-size="10.00">src/core/netconfig</text>
<text text-anchor="middle" x="1027.5" y="-141.5" font-family="Helvetica,sans-Serif" font-size="10.00">/networkconfig.cpp</text>
</a>
</g>
</g>
<!-- Node2&#45;&gt;Node9 -->
<g id="edge8" class="edge">
<title>Node2&#45;&gt;Node9</title>
<path fill="none" stroke="midnightblue" d="M1695.9,-213.79C1576.11,-209.91 1311.71,-198.07 1091.5,-165 1088.46,-164.54 1085.35,-164.02 1082.21,-163.45"/>
<polygon fill="midnightblue" stroke="midnightblue" points="1695.89,-217.29 1706,-214.11 1696.11,-210.29 1695.89,-217.29"/>
</g>
<!-- Node10 -->
<g id="node10" class="node">
<title>Node10</title>
<g id="a_node10"><a xlink:href="../../d4/d28/RemoteControl_8cpp.html" target="_top" xlink:title=" ">
<polygon fill="white" stroke="black" points="1100.5,-140 1100.5,-159 1252.5,-159 1252.5,-140 1100.5,-140"/>
<text text-anchor="middle" x="1176.5" y="-147" font-family="Helvetica,sans-Serif" font-size="10.00">src/core/RemoteControl.cpp</text>
</a>
</g>
</g>
<!-- Node2&#45;&gt;Node10 -->
<g id="edge9" class="edge">
<title>Node2&#45;&gt;Node10</title>
<path fill="none" stroke="midnightblue" d="M1695.65,-210.36C1600.3,-202.47 1416.76,-186.07 1261.5,-165 1249.04,-163.31 1235.6,-161.17 1223.18,-159.05"/>
<polygon fill="midnightblue" stroke="midnightblue" points="1695.46,-213.85 1705.72,-211.18 1696.04,-206.88 1695.46,-213.85"/>
</g>
<!-- Node11 -->
<g id="node11" class="node">
<title>Node11</title>
<g id="a_node11"><a xlink:href="../../df/dca/GetLocalConfigVersion_8cpp.html" target="_top" xlink:title=" ">
<polygon fill="white" stroke="black" points="1271,-134.5 1271,-164.5 1432,-164.5 1432,-134.5 1271,-134.5"/>
<text text-anchor="start" x="1279" y="-152.5" font-family="Helvetica,sans-Serif" font-size="10.00">src/core/tasks/GetLocalConfig</text>
<text text-anchor="middle" x="1351.5" y="-141.5" font-family="Helvetica,sans-Serif" font-size="10.00">Version.cpp</text>
</a>
</g>
</g>
<!-- Node2&#45;&gt;Node11 -->
<g id="edge10" class="edge">
<title>Node2&#45;&gt;Node11</title>
<path fill="none" stroke="midnightblue" d="M1695.8,-205.39C1631.15,-195.26 1528.93,-179.18 1440.5,-165 1437.72,-164.55 1434.89,-164.1 1432.03,-163.64"/>
<polygon fill="midnightblue" stroke="midnightblue" points="1695.43,-208.87 1705.85,-206.96 1696.51,-201.95 1695.43,-208.87"/>
</g>
<!-- Node12 -->
<g id="node12" class="node">
<title>Node12</title>
<g id="a_node12"><a xlink:href="../../d7/d6f/GetRemoteConfigVersion_8cpp.html" target="_top" xlink:title=" ">
<polygon fill="white" stroke="black" points="1450,-134.5 1450,-164.5 1593,-164.5 1593,-134.5 1450,-134.5"/>
<text text-anchor="start" x="1458" y="-152.5" font-family="Helvetica,sans-Serif" font-size="10.00">src/core/tasks/GetRemote</text>
<text text-anchor="middle" x="1521.5" y="-141.5" font-family="Helvetica,sans-Serif" font-size="10.00">ConfigVersion.cpp</text>
</a>
</g>
</g>
<!-- Node2&#45;&gt;Node12 -->
<g id="edge11" class="edge">
<title>Node2&#45;&gt;Node12</title>
<path fill="none" stroke="midnightblue" d="M1718.94,-204.2C1678.43,-193.18 1616.71,-176.39 1573.08,-164.53"/>
<polygon fill="midnightblue" stroke="midnightblue" points="1718.19,-207.62 1728.76,-206.87 1720.03,-200.87 1718.19,-207.62"/>
</g>
<!-- Node13 -->
<g id="node13" class="node">
<title>Node13</title>
<g id="a_node13"><a xlink:href="../../d5/d8e/SyncConfig_8cpp.html" target="_top" xlink:title=" ">
<polygon fill="white" stroke="black" points="1611,-140 1611,-159 1772,-159 1772,-140 1611,-140"/>
<text text-anchor="middle" x="1691.5" y="-147" font-family="Helvetica,sans-Serif" font-size="10.00">src/core/tasks/SyncConfig.cpp</text>
</a>
</g>
</g>
<!-- Node2&#45;&gt;Node13 -->
<g id="edge12" class="edge">
<title>Node2&#45;&gt;Node13</title>
<path fill="none" stroke="midnightblue" d="M1743.89,-199.86C1730.33,-187.08 1711.66,-169.49 1700.66,-159.13"/>
<polygon fill="midnightblue" stroke="midnightblue" points="1741.52,-202.42 1751.19,-206.73 1746.32,-197.33 1741.52,-202.42"/>
</g>
<!-- Node14 -->
<g id="node14" class="node">
<title>Node14</title>
<g id="a_node14"><a xlink:href="../../df/d0a/main_8cpp.html" target="_top" xlink:title="standard main">
<polygon fill="white" stroke="black" points="1790,-140 1790,-159 1869,-159 1869,-140 1790,-140"/>
<text text-anchor="middle" x="1829.5" y="-147" font-family="Helvetica,sans-Serif" font-size="10.00">src/main.cpp</text>
</a>
</g>
</g>
<!-- Node2&#45;&gt;Node14 -->
<g id="edge13" class="edge">
<title>Node2&#45;&gt;Node14</title>
<path fill="none" stroke="midnightblue" d="M1777.11,-199.86C1790.67,-187.08 1809.34,-169.49 1820.34,-159.13"/>
<polygon fill="midnightblue" stroke="midnightblue" points="1774.68,-197.33 1769.81,-206.73 1779.48,-202.42 1774.68,-197.33"/>
</g>
<!-- Node15 -->
<g id="node15" class="node">
<title>Node15</title>
<g id="a_node15"><a xlink:href="../../df/dac/AuthDBModule_8cpp.html" target="_top" xlink:title=" ">
<polygon fill="white" stroke="black" points="1887.5,-134.5 1887.5,-164.5 2015.5,-164.5 2015.5,-134.5 1887.5,-134.5"/>
<text text-anchor="start" x="1895.5" y="-152.5" font-family="Helvetica,sans-Serif" font-size="10.00">src/modules/auth/auth</text>
<text text-anchor="middle" x="1951.5" y="-141.5" font-family="Helvetica,sans-Serif" font-size="10.00">&#45;db/AuthDBModule.cpp</text>
</a>
</g>
</g>
<!-- Node2&#45;&gt;Node15 -->
<g id="edge14" class="edge">
<title>Node2&#45;&gt;Node15</title>
<path fill="none" stroke="midnightblue" d="M1795.37,-203.63C1827.76,-192.61 1876,-176.19 1910.28,-164.53"/>
<polygon fill="midnightblue" stroke="midnightblue" points="1794.2,-200.33 1785.86,-206.87 1796.46,-206.96 1794.2,-200.33"/>
</g>
<!-- Node16 -->
<g id="node16" class="node">
<title>Node16</title>
<g id="a_node16"><a xlink:href="../../d8/d37/AuthFileModule_8cpp.html" target="_top" xlink:title=" ">
<polygon fill="white" stroke="black" points="2528.5,-0.5 2528.5,-30.5 2662.5,-30.5 2662.5,-0.5 2528.5,-0.5"/>
<text text-anchor="start" x="2536.5" y="-18.5" font-family="Helvetica,sans-Serif" font-size="10.00">src/modules/auth/auth</text>
<text text-anchor="middle" x="2595.5" y="-7.5" font-family="Helvetica,sans-Serif" font-size="10.00">&#45;file/AuthFileModule.cpp</text>
</a>
</g>
</g>
<!-- Node2&#45;&gt;Node16 -->
<g id="edge15" class="edge">
<title>Node2&#45;&gt;Node16</title>
<path fill="none" stroke="midnightblue" d="M1825.23,-212.01C1880.42,-206.99 1960.71,-194.77 2024.5,-165 2044.25,-155.78 2042.88,-143.49 2062.5,-134 2218.59,-58.48 2423.89,-30.88 2528.27,-21.29"/>
<polygon fill="midnightblue" stroke="midnightblue" points="1824.9,-208.52 1815.23,-212.86 1825.49,-215.5 1824.9,-208.52"/>
</g>
<!-- Node17 -->
<g id="node17" class="node">
<title>Node17</title>
<g id="a_node17"><a xlink:href="../../d0/d58/DoormanModule_8cpp.html" target="_top" xlink:title=" ">
<polygon fill="white" stroke="black" points="2071.5,-134.5 2071.5,-164.5 2193.5,-164.5 2193.5,-134.5 2071.5,-134.5"/>
<text text-anchor="start" x="2079.5" y="-152.5" font-family="Helvetica,sans-Serif" font-size="10.00">src/modules/doorman</text>
<text text-anchor="middle" x="2132.5" y="-141.5" font-family="Helvetica,sans-Serif" font-size="10.00">/DoormanModule.cpp</text>
</a>
</g>
</g>
<!-- Node2&#45;&gt;Node17 -->
<g id="edge16" class="edge">
<title>Node2&#45;&gt;Node17</title>
<path fill="none" stroke="midnightblue" d="M1822.97,-205.3C1883.12,-195.38 1976.63,-179.69 2057.5,-165 2061.94,-164.19 2066.52,-163.35 2071.13,-162.48"/>
<polygon fill="midnightblue" stroke="midnightblue" points="1822.17,-201.88 1812.87,-206.96 1823.31,-208.79 1822.17,-201.88"/>
</g>
<!-- Node18 -->
<g id="node18" class="node">
<title>Node18</title>
<g id="a_node18"><a xlink:href="../../d7/d36/LEDBuzzerModule_8cpp.html" target="_top" xlink:title=" ">
<polygon fill="white" stroke="black" points="2211.5,-134.5 2211.5,-164.5 2341.5,-164.5 2341.5,-134.5 2211.5,-134.5"/>
<text text-anchor="start" x="2219.5" y="-152.5" font-family="Helvetica,sans-Serif" font-size="10.00">src/modules/led&#45;buzzer</text>
<text text-anchor="middle" x="2276.5" y="-141.5" font-family="Helvetica,sans-Serif" font-size="10.00">/LEDBuzzerModule.cpp</text>
</a>
</g>
</g>
<!-- Node2&#45;&gt;Node18 -->
<g id="edge17" class="edge">
<title>Node2&#45;&gt;Node18</title>
<path fill="none" stroke="midnightblue" d="M1825.29,-209.73C1911.63,-201.67 2069.01,-185.67 2202.5,-165 2205.35,-164.56 2208.25,-164.09 2211.18,-163.59"/>
<polygon fill="midnightblue" stroke="midnightblue" points="1824.76,-206.26 1815.12,-210.67 1825.4,-213.23 1824.76,-206.26"/>
</g>
<!-- Node19 -->
<g id="node19" class="node">
<title>Node19</title>
<g id="a_node19"><a xlink:href="../../db/de7/LibgpiodModule_8cpp.html" target="_top" xlink:title=" ">
<polygon fill="white" stroke="black" points="2359.5,-134.5 2359.5,-164.5 2477.5,-164.5 2477.5,-134.5 2359.5,-134.5"/>
<text text-anchor="start" x="2367.5" y="-152.5" font-family="Helvetica,sans-Serif" font-size="10.00">src/modules/libgpiod</text>
<text text-anchor="middle" x="2418.5" y="-141.5" font-family="Helvetica,sans-Serif" font-size="10.00">/LibgpiodModule.cpp</text>
</a>
</g>
</g>
<!-- Node2&#45;&gt;Node19 -->
<g id="edge18" class="edge">
<title>Node2&#45;&gt;Node19</title>
<path fill="none" stroke="midnightblue" d="M1825.44,-212.59C1934.43,-207.12 2160.87,-193.22 2350.5,-165 2353.37,-164.57 2356.29,-164.1 2359.24,-163.59"/>
<polygon fill="midnightblue" stroke="midnightblue" points="1825.08,-209.11 1815.26,-213.1 1825.42,-216.1 1825.08,-209.11"/>
</g>
<!-- Node20 -->
<g id="node20" class="node">
<title>Node20</title>
<g id="a_node20"><a xlink:href="../../d6/d18/MqttModule_8cpp.html" target="_top" xlink:title=" ">
<polygon fill="white" stroke="black" points="2495.5,-140 2495.5,-159 2679.5,-159 2679.5,-140 2495.5,-140"/>
<text text-anchor="middle" x="2587.5" y="-147" font-family="Helvetica,sans-Serif" font-size="10.00">src/modules/mqtt/MqttModule.cpp</text>
</a>
</g>
</g>
<!-- Node2&#45;&gt;Node20 -->
<g id="edge19" class="edge">
<title>Node2&#45;&gt;Node20</title>
<path fill="none" stroke="midnightblue" d="M1825.6,-212.57C1952.84,-206.49 2243.32,-190.88 2486.5,-165 2501.74,-163.38 2518.21,-161.2 2533.34,-159.02"/>
<polygon fill="midnightblue" stroke="midnightblue" points="1825.09,-209.09 1815.26,-213.06 1825.42,-216.08 1825.09,-209.09"/>
</g>
<!-- Node21 -->
<g id="node21" class="node">
<title>Node21</title>
<g id="a_node21"><a xlink:href="../../da/d77/SysFsGpioModule_8cpp.html" target="_top" xlink:title=" ">
<polygon fill="white" stroke="black" points="2698,-134.5 2698,-164.5 2825,-164.5 2825,-134.5 2698,-134.5"/>
<text text-anchor="start" x="2706" y="-152.5" font-family="Helvetica,sans-Serif" font-size="10.00">src/modules/sysfsgpio</text>
<text text-anchor="middle" x="2761.5" y="-141.5" font-family="Helvetica,sans-Serif" font-size="10.00">/SysFsGpioModule.cpp</text>
</a>
</g>
</g>
<!-- Node2&#45;&gt;Node21 -->
<g id="edge20" class="edge">
<title>Node2&#45;&gt;Node21</title>
<path fill="none" stroke="midnightblue" d="M1825.2,-215.13C1976.71,-213.57 2366.13,-205.58 2688.5,-165 2691.58,-164.61 2694.72,-164.17 2697.89,-163.69"/>
<polygon fill="midnightblue" stroke="midnightblue" points="1825.1,-211.63 1815.13,-215.22 1825.17,-218.63 1825.1,-211.63"/>
</g>
<!-- Node22 -->
<g id="node22" class="node">
<title>Node22</title>
<g id="a_node22"><a xlink:href="../../d9/d8d/APISession_8cpp.html" target="_top" xlink:title=" ">
<polygon fill="white" stroke="black" points="2843.5,-134.5 2843.5,-164.5 2973.5,-164.5 2973.5,-134.5 2843.5,-134.5"/>
<text text-anchor="start" x="2851.5" y="-152.5" font-family="Helvetica,sans-Serif" font-size="10.00">src/modules/websock</text>
<text text-anchor="middle" x="2908.5" y="-141.5" font-family="Helvetica,sans-Serif" font-size="10.00">&#45;api/api/APISession.cpp</text>
</a>
</g>
</g>
<!-- Node2&#45;&gt;Node22 -->
<g id="edge21" class="edge">
<title>Node2&#45;&gt;Node22</title>
<path fill="none" stroke="midnightblue" d="M1825.29,-215.69C1992.73,-215.48 2453.29,-210.46 2833.5,-165 2836.66,-164.62 2839.89,-164.19 2843.14,-163.71"/>
<polygon fill="midnightblue" stroke="midnightblue" points="1825.16,-212.19 1815.16,-215.7 1825.17,-219.19 1825.16,-212.19"/>
</g>
<!-- Node23 -->
<g id="node23" class="node">
<title>Node23</title>
<g id="a_node23"><a xlink:href="../../d3/de8/wiegand_8cpp.html" target="_top" xlink:title=" ">
<polygon fill="white" stroke="black" points="2991.5,-134.5 2991.5,-164.5 3111.5,-164.5 3111.5,-134.5 2991.5,-134.5"/>
<text text-anchor="start" x="2999.5" y="-152.5" font-family="Helvetica,sans-Serif" font-size="10.00">src/modules/wiegand</text>
<text text-anchor="middle" x="3051.5" y="-141.5" font-family="Helvetica,sans-Serif" font-size="10.00">/wiegand.cpp</text>
</a>
</g>
</g>
<!-- Node2&#45;&gt;Node23 -->
<g id="edge22" class="edge">
<title>Node2&#45;&gt;Node23</title>
<path fill="none" stroke="midnightblue" d="M1825.29,-214.24C2044.22,-209.77 2755.39,-193.36 2982.5,-165 2985.42,-164.64 2988.39,-164.21 2991.39,-163.74"/>
<polygon fill="midnightblue" stroke="midnightblue" points="1825.17,-210.74 1815.24,-214.45 1825.31,-217.74 1825.17,-210.74"/>
</g>
<!-- Node25 -->
<g id="node25" class="node">
<title>Node25</title>
<g id="a_node25"><a xlink:href="../../de/df9/AuthFileInstance_8hpp.html" target="_top" xlink:title=" ">
<polygon fill="white" stroke="black" points="3167.5,-134.5 3167.5,-164.5 3307.5,-164.5 3307.5,-134.5 3167.5,-134.5"/>
<text text-anchor="start" x="3175.5" y="-152.5" font-family="Helvetica,sans-Serif" font-size="10.00">src/modules/auth/auth</text>
<text text-anchor="middle" x="3237.5" y="-141.5" font-family="Helvetica,sans-Serif" font-size="10.00">&#45;file/AuthFileInstance.hpp</text>
</a>
</g>
</g>
<!-- Node24&#45;&gt;Node25 -->
<g id="edge24" class="edge">
<title>Node24&#45;&gt;Node25</title>
<path fill="none" stroke="midnightblue" d="M3417.51,-198.85C3378.05,-188.25 3327.51,-174.68 3290.04,-164.61"/>
<polygon fill="midnightblue" stroke="midnightblue" points="3416.72,-202.26 3427.29,-201.48 3418.54,-195.5 3416.72,-202.26"/>
</g>
<!-- Node26 -->
<g id="node26" class="node">
<title>Node26</title>
<g id="a_node26"><a xlink:href="../../da/d9b/AuthFileInstance_8cpp.html" target="_top" xlink:title=" ">
<polygon fill="white" stroke="black" points="3040.5,-67.5 3040.5,-97.5 3180.5,-97.5 3180.5,-67.5 3040.5,-67.5"/>
<text text-anchor="start" x="3048.5" y="-85.5" font-family="Helvetica,sans-Serif" font-size="10.00">src/modules/auth/auth</text>
<text text-anchor="middle" x="3110.5" y="-74.5" font-family="Helvetica,sans-Serif" font-size="10.00">&#45;file/AuthFileInstance.cpp</text>
</a>
</g>
</g>
<!-- Node24&#45;&gt;Node26 -->
<g id="edge29" class="edge">
<title>Node24&#45;&gt;Node26</title>
<path fill="none" stroke="midnightblue" d="M3384.96,-209.52C3303.85,-202.81 3194.51,-189.49 3158.5,-165 3134.6,-148.75 3120.88,-116.32 3114.63,-97.64"/>
<polygon fill="midnightblue" stroke="midnightblue" points="3384.96,-213.04 3395.21,-210.35 3385.52,-206.06 3384.96,-213.04"/>
</g>
<!-- Node29 -->
<g id="node29" class="node">
<title>Node29</title>
<g id="a_node29"><a xlink:href="../../d3/dc5/FileAuthSourceMapper_8cpp.html" target="_top" xlink:title=" ">
<polygon fill="white" stroke="black" points="3326,-134.5 3326,-164.5 3493,-164.5 3493,-134.5 3326,-134.5"/>
<text text-anchor="start" x="3334" y="-152.5" font-family="Helvetica,sans-Serif" font-size="10.00">src/modules/auth/auth</text>
<text text-anchor="middle" x="3409.5" y="-141.5" font-family="Helvetica,sans-Serif" font-size="10.00">&#45;file/FileAuthSourceMapper.cpp</text>
</a>
</g>
</g>
<!-- Node24&#45;&gt;Node29 -->
<g id="edge30" class="edge">
<title>Node24&#45;&gt;Node29</title>
<path fill="none" stroke="midnightblue" d="M3456.68,-194.31C3446.18,-184.56 3434.01,-173.26 3424.66,-164.58"/>
<polygon fill="midnightblue" stroke="midnightblue" points="3454.6,-197.16 3464.31,-201.4 3459.36,-192.03 3454.6,-197.16"/>
</g>
<!-- Node30 -->
<g id="node30" class="node">
<title>Node30</title>
<g id="a_node30"><a xlink:href="../../d5/d58/AuthFile_8cpp.html" target="_top" xlink:title=" ">
<polygon fill="white" stroke="black" points="3510.5,-140 3510.5,-159 3608.5,-159 3608.5,-140 3510.5,-140"/>
<text text-anchor="middle" x="3559.5" y="-147" font-family="Helvetica,sans-Serif" font-size="10.00">test/AuthFile.cpp</text>
</a>
</g>
</g>
<!-- Node24&#45;&gt;Node30 -->
<g id="edge31" class="edge">
<title>Node24&#45;&gt;Node30</title>
<path fill="none" stroke="midnightblue" d="M3504.72,-195.01C3519.57,-182.94 3537.59,-168.3 3548.8,-159.19"/>
<polygon fill="midnightblue" stroke="midnightblue" points="3502.41,-192.37 3496.86,-201.4 3506.83,-197.81 3502.41,-192.37"/>
</g>
<!-- Node31 -->
<g id="node31" class="node">
<title>Node31</title>
<g id="a_node31"><a xlink:href="../../d9/d75/test_2AuthSourceBuilder_8cpp.html" target="_top" xlink:title=" ">
<polygon fill="white" stroke="black" points="3626.5,-140 3626.5,-159 3774.5,-159 3774.5,-140 3626.5,-140"/>
<text text-anchor="middle" x="3700.5" y="-147" font-family="Helvetica,sans-Serif" font-size="10.00">test/AuthSourceBuilder.cpp</text>
</a>
</g>
</g>
<!-- Node24&#45;&gt;Node31 -->
<g id="edge32" class="edge">
<title>Node24&#45;&gt;Node31</title>
<path fill="none" stroke="midnightblue" d="M3536.99,-198.59C3580.15,-185.9 3637.45,-169.04 3671.5,-159.03"/>
<polygon fill="midnightblue" stroke="midnightblue" points="3535.79,-195.3 3527.18,-201.48 3537.76,-202.01 3535.79,-195.3"/>
</g>
<!-- Node25&#45;&gt;Node26 -->
<g id="edge25" class="edge">
<title>Node25&#45;&gt;Node26</title>
<path fill="none" stroke="midnightblue" d="M3200.8,-129.71C3180.77,-119.46 3156.38,-106.98 3138,-97.58"/>
<polygon fill="midnightblue" stroke="midnightblue" points="3199.45,-132.96 3209.94,-134.4 3202.64,-126.72 3199.45,-132.96"/>
</g>
<!-- Node27 -->
<g id="node27" class="node">
<title>Node27</title>
<g id="a_node27"><a xlink:href="../../df/d57/AuthFileModule_8hpp.html" target="_top" xlink:title=" ">
<polygon fill="white" stroke="black" points="3199,-67.5 3199,-97.5 3334,-97.5 3334,-67.5 3199,-67.5"/>
<text text-anchor="start" x="3207" y="-85.5" font-family="Helvetica,sans-Serif" font-size="10.00">src/modules/auth/auth</text>
<text text-anchor="middle" x="3266.5" y="-74.5" font-family="Helvetica,sans-Serif" font-size="10.00">&#45;file/AuthFileModule.hpp</text>
</a>
</g>
</g>
<!-- Node25&#45;&gt;Node27 -->
<g id="edge26" class="edge">
<title>Node25&#45;&gt;Node27</title>
<path fill="none" stroke="midnightblue" d="M3247.99,-124.99C3252.09,-115.8 3256.65,-105.58 3260.22,-97.58"/>
<polygon fill="midnightblue" stroke="midnightblue" points="3244.67,-123.84 3243.79,-134.4 3251.06,-126.69 3244.67,-123.84"/>
</g>
<!-- Node27&#45;&gt;Node16 -->
<g id="edge27" class="edge">
<title>Node27&#45;&gt;Node16</title>
<path fill="none" stroke="midnightblue" d="M3188.99,-67.03C2991.79,-40.58 2771.01,-26.1 2662.55,-19.98"/>
<polygon fill="midnightblue" stroke="midnightblue" points="3188.58,-70.51 3198.96,-68.38 3189.52,-63.57 3188.58,-70.51"/>
</g>
<!-- Node28 -->
<g id="node28" class="node">
<title>Node28</title>
<g id="a_node28"><a xlink:href="../../dc/d32/auth_2auth-file_2init_8cpp.html" target="_top" xlink:title=" ">
<polygon fill="white" stroke="black" points="3204,-0.5 3204,-30.5 3329,-30.5 3329,-0.5 3204,-0.5"/>
<text text-anchor="start" x="3212" y="-18.5" font-family="Helvetica,sans-Serif" font-size="10.00">src/modules/auth/auth</text>
<text text-anchor="middle" x="3266.5" y="-7.5" font-family="Helvetica,sans-Serif" font-size="10.00">&#45;file/init.cpp</text>
</a>
</g>
</g>
<!-- Node27&#45;&gt;Node28 -->
<g id="edge28" class="edge">
<title>Node27&#45;&gt;Node28</title>
<path fill="none" stroke="midnightblue" d="M3266.5,-57.11C3266.5,-48.15 3266.5,-38.32 3266.5,-30.58"/>
<polygon fill="midnightblue" stroke="midnightblue" points="3263,-57.4 3266.5,-67.4 3270,-57.4 3263,-57.4"/>
</g>
<!-- Node33 -->
<g id="node33" class="node">
<title>Node33</title>
<g id="a_node33"><a xlink:href="../../dc/d63/tcp-notifier_2init_8cpp.html" target="_top" xlink:title=" ">
<polygon fill="white" stroke="black" points="3792.5,-134.5 3792.5,-164.5 3924.5,-164.5 3924.5,-134.5 3792.5,-134.5"/>
<text text-anchor="start" x="3800.5" y="-152.5" font-family="Helvetica,sans-Serif" font-size="10.00">src/modules/tcp&#45;notifier</text>
<text text-anchor="middle" x="3858.5" y="-141.5" font-family="Helvetica,sans-Serif" font-size="10.00">/init.cpp</text>
</a>
</g>
</g>
<!-- Node32&#45;&gt;Node33 -->
<g id="edge34" class="edge">
<title>Node32&#45;&gt;Node33</title>
<path fill="none" stroke="midnightblue" d="M3810.33,-194.6C3821.05,-184.78 3833.55,-173.34 3843.12,-164.58"/>
<polygon fill="midnightblue" stroke="midnightblue" points="3807.92,-192.06 3802.91,-201.4 3812.65,-197.22 3807.92,-192.06"/>
</g>
<!-- Node34 -->
<g id="node34" class="node">
<title>Node34</title>
<g id="a_node34"><a xlink:href="../../d0/df4/TcpNotifier_8cpp.html" target="_top" xlink:title=" ">
<polygon fill="white" stroke="black" points="3942.5,-134.5 3942.5,-164.5 4074.5,-164.5 4074.5,-134.5 3942.5,-134.5"/>
<text text-anchor="start" x="3950.5" y="-152.5" font-family="Helvetica,sans-Serif" font-size="10.00">src/modules/tcp&#45;notifier</text>
<text text-anchor="middle" x="4008.5" y="-141.5" font-family="Helvetica,sans-Serif" font-size="10.00">/TcpNotifier.cpp</text>
</a>
</g>
</g>
<!-- Node32&#45;&gt;Node34 -->
<g id="edge35" class="edge">
<title>Node32&#45;&gt;Node34</title>
<path fill="none" stroke="midnightblue" d="M3845.03,-198.58C3880.92,-188.02 3926.59,-174.59 3960.52,-164.61"/>
<polygon fill="midnightblue" stroke="midnightblue" points="3843.79,-195.3 3835.18,-201.48 3845.76,-202.01 3843.79,-195.3"/>
</g>
</g>
</svg>
        <g id="navigator" transform="translate(0 0)" fill="#404254">
                <rect fill="#f2f5e9" fill-opacity="0.5" stroke="#606060" stroke-width=".5" x="0" y="0" width="60" height="60"/>
                <use id="zoomplus" xlink:href="#zoomPlus" x="17" y="9" onmousedown="handleZoom(evt,'in')"/>
                <use id="zoomminus" xlink:href="#zoomMin" x="42" y="9" onmousedown="handleZoom(evt,'out')"/>
                <use id="reset" xlink:href="#resetDef" x="30" y="36" onmousedown="handleReset()"/>
                <g id="arrowUp" xlink:href="#dirArrow" transform="translate(30 24)" onmousedown="handlePan(0,-1)">
                  <use xlink:href="#rim" fill="#404040">
                        <set attributeName="fill" to="#808080" begin="arrowUp.mouseover" end="arrowUp.mouseout"/>
                  </use>
                  <path fill="none" stroke="white" stroke-width="1.5" d="M0,-3.0v7 M-2.5,-0.5L0,-3.0L2.5,-0.5"/>
                </g>
                <g id="arrowRight" xlink:href="#dirArrow" transform="rotate(90) translate(36 -43)" onmousedown="handlePan(1,0)">
                  <use xlink:href="#rim" fill="#404040">
                        <set attributeName="fill" to="#808080" begin="arrowRight.mouseover" end="arrowRight.mouseout"/>
                  </use>
                  <path fill="none" stroke="white" stroke-width="1.5" d="M0,-3.0v7 M-2.5,-0.5L0,-3.0L2.5,-0.5"/>
                </g>
                <g id="arrowDown" xlink:href="#dirArrow" transform="rotate(180) translate(-30 -48)" onmousedown="handlePan(0,1)">
                  <use xlink:href="#rim" fill="#404040">
                        <set attributeName="fill" to="#808080" begin="arrowDown.mouseover" end="arrowDown.mouseout"/>
                  </use>
                  <path fill="none" stroke="white" stroke-width="1.5" d="M0,-3.0v7 M-2.5,-0.5L0,-3.0L2.5,-0.5"/>
                </g>
                <g id="arrowLeft" xlink:href="#dirArrow" transform="rotate(270) translate(-36 17)" onmousedown="handlePan(-1,0)">
                  <use xlink:href="#rim" fill="#404040">
                        <set attributeName="fill" to="#808080" begin="arrowLeft.mouseover" end="arrowLeft.mouseout"/>
                  </use>
                  <path fill="none" stroke="white" stroke-width="1.5" d="M0,-3.0v7 M-2.5,-0.5L0,-3.0L2.5,-0.5"/>
                </g>
        </g>
        <svg viewBox="0 0 15 15" width="100%" height="30px" preserveAspectRatio="xMaxYMin meet">
         <g id="arrow_out" transform="scale(0.3 0.3)">
          <a xlink:href="XmlNodeNameEnforcer_8hpp__dep__incl_org.svg" target="_base">
           <rect id="button" ry="5" rx="5" y="6" x="6" height="38" width="38"
                fill="#f2f5e9" fill-opacity="0.5" stroke="#606060" stroke-width="1.0"/>
           <path id="arrow"
             d="M 11.500037,31.436501 C 11.940474,20.09759 22.043105,11.32322 32.158766,21.979434 L 37.068811,17.246167 C 37.068811,17.246167 37.088388,32 37.088388,32 L 22.160133,31.978069 C 22.160133,31.978069 26.997745,27.140456 26.997745,27.140456 C 18.528582,18.264221 13.291696,25.230495 11.500037,31.436501 z"
             style="fill:#404040;"/>
          </a>
         </g>
        </svg>
</svg>
