<?xml version="1.0" encoding="UTF-8" standalone="no"?>
<!DOCTYPE svg PUBLIC "-//W3C//DTD SVG 1.1//EN"
 "http://www.w3.org/Graphics/SVG/1.1/DTD/svg11.dtd">
<!-- Generated by graphviz version 2.43.0 (0)
 -->
<!-- Title: src/hardware/serializers/BuzzerSerializer.hpp Pages: 1 -->
<svg width="769pt" height="207pt"
 viewBox="0.00 0.00 768.50 207.00" xmlns="http://www.w3.org/2000/svg" xmlns:xlink="http://www.w3.org/1999/xlink">
<g id="graph0" class="graph" transform="scale(1 1) rotate(0) translate(4 203)">
<title>src/hardware/serializers/BuzzerSerializer.hpp</title>
<polygon fill="white" stroke="transparent" points="-4,4 -4,-203 764.5,-203 764.5,4 -4,4"/>
<!-- Node1 -->
<g id="node1" class="node">
<title>Node1</title>
<g id="a_node1"><a xlink:title=" ">
<polygon fill="#bfbfbf" stroke="black" points="390,-168.5 390,-198.5 523,-198.5 523,-168.5 390,-168.5"/>
<text text-anchor="start" x="398" y="-186.5" font-family="Helvetica,sans-Serif" font-size="10.00">src/hardware/serializers</text>
<text text-anchor="middle" x="456.5" y="-175.5" font-family="Helvetica,sans-Serif" font-size="10.00">/BuzzerSerializer.hpp</text>
</a>
</g>
</g>
<!-- Node2 -->
<g id="node2" class="node">
<title>Node2</title>
<g id="a_node2"><a xlink:href="../../dc/d49/LeosacFwd_8hpp.html" target="_top" xlink:title=" ">
<polygon fill="white" stroke="black" points="269.5,-112.5 269.5,-131.5 361.5,-131.5 361.5,-112.5 269.5,-112.5"/>
<text text-anchor="middle" x="315.5" y="-119.5" font-family="Helvetica,sans-Serif" font-size="10.00">LeosacFwd.hpp</text>
</a>
</g>
</g>
<!-- Node1&#45;&gt;Node2 -->
<g id="edge1" class="edge">
<title>Node1&#45;&gt;Node2</title>
<path fill="none" stroke="midnightblue" d="M423.08,-168.4C399.53,-158.46 368.26,-145.26 345.51,-135.66"/>
<polygon fill="midnightblue" stroke="midnightblue" points="346.59,-132.32 336.02,-131.66 343.87,-138.77 346.59,-132.32"/>
</g>
<!-- Node5 -->
<g id="node5" class="node">
<title>Node5</title>
<g id="a_node5"><a xlink:href="../../d9/dc8/HardwareFwd_8hpp.html" target="_top" xlink:title=" ">
<polygon fill="white" stroke="black" points="379.5,-112.5 379.5,-131.5 533.5,-131.5 533.5,-112.5 379.5,-112.5"/>
<text text-anchor="middle" x="456.5" y="-119.5" font-family="Helvetica,sans-Serif" font-size="10.00">hardware/HardwareFwd.hpp</text>
</a>
</g>
</g>
<!-- Node1&#45;&gt;Node5 -->
<g id="edge4" class="edge">
<title>Node1&#45;&gt;Node5</title>
<path fill="none" stroke="midnightblue" d="M456.5,-168.4C456.5,-160.47 456.5,-150.46 456.5,-141.86"/>
<polygon fill="midnightblue" stroke="midnightblue" points="460,-141.66 456.5,-131.66 453,-141.66 460,-141.66"/>
</g>
<!-- Node13 -->
<g id="node13" class="node">
<title>Node13</title>
<g id="a_node13"><a xlink:title=" ">
<polygon fill="white" stroke="#bfbfbf" points="551.5,-112.5 551.5,-131.5 661.5,-131.5 661.5,-112.5 551.5,-112.5"/>
<text text-anchor="middle" x="606.5" y="-119.5" font-family="Helvetica,sans-Serif" font-size="10.00">nlohmann/json.hpp</text>
</a>
</g>
</g>
<!-- Node1&#45;&gt;Node13 -->
<g id="edge13" class="edge">
<title>Node1&#45;&gt;Node13</title>
<path fill="none" stroke="midnightblue" d="M492.05,-168.4C517.33,-158.37 550.97,-145.03 575.23,-135.4"/>
<polygon fill="midnightblue" stroke="midnightblue" points="576.67,-138.6 584.67,-131.66 574.09,-132.09 576.67,-138.6"/>
</g>
<!-- Node3 -->
<g id="node3" class="node">
<title>Node3</title>
<g id="a_node3"><a xlink:title=" ">
<polygon fill="white" stroke="#bfbfbf" points="347.5,-56.5 347.5,-75.5 405.5,-75.5 405.5,-56.5 347.5,-56.5"/>
<text text-anchor="middle" x="376.5" y="-63.5" font-family="Helvetica,sans-Serif" font-size="10.00">memory</text>
</a>
</g>
</g>
<!-- Node2&#45;&gt;Node3 -->
<g id="edge2" class="edge">
<title>Node2&#45;&gt;Node3</title>
<path fill="none" stroke="midnightblue" d="M325.3,-112.32C334.32,-104.34 347.91,-92.31 358.82,-82.65"/>
<polygon fill="midnightblue" stroke="midnightblue" points="361.35,-85.08 366.52,-75.83 356.71,-79.84 361.35,-85.08"/>
</g>
<!-- Node4 -->
<g id="node4" class="node">
<title>Node4</title>
<g id="a_node4"><a xlink:title=" ">
<polygon fill="white" stroke="#bfbfbf" points="282,-56.5 282,-75.5 329,-75.5 329,-56.5 282,-56.5"/>
<text text-anchor="middle" x="305.5" y="-63.5" font-family="Helvetica,sans-Serif" font-size="10.00">vector</text>
</a>
</g>
</g>
<!-- Node2&#45;&gt;Node4 -->
<g id="edge3" class="edge">
<title>Node2&#45;&gt;Node4</title>
<path fill="none" stroke="midnightblue" d="M313.85,-112.08C312.52,-104.93 310.62,-94.64 308.96,-85.69"/>
<polygon fill="midnightblue" stroke="midnightblue" points="312.38,-84.95 307.12,-75.75 305.5,-86.22 312.38,-84.95"/>
</g>
<!-- Node5&#45;&gt;Node3 -->
<g id="edge12" class="edge">
<title>Node5&#45;&gt;Node3</title>
<path fill="none" stroke="midnightblue" d="M443.65,-112.32C431.28,-103.98 412.37,-91.21 397.76,-81.35"/>
<polygon fill="midnightblue" stroke="midnightblue" points="399.57,-78.35 389.32,-75.65 395.65,-84.15 399.57,-78.35"/>
</g>
<!-- Node6 -->
<g id="node6" class="node">
<title>Node6</title>
<g id="a_node6"><a xlink:href="../../dc/dea/Uuid_8hpp.html" target="_top" xlink:title=" ">
<polygon fill="white" stroke="black" points="424,-56.5 424,-75.5 511,-75.5 511,-56.5 424,-56.5"/>
<text text-anchor="middle" x="467.5" y="-63.5" font-family="Helvetica,sans-Serif" font-size="10.00">tools/Uuid.hpp</text>
</a>
</g>
</g>
<!-- Node5&#45;&gt;Node6 -->
<g id="edge5" class="edge">
<title>Node5&#45;&gt;Node6</title>
<path fill="none" stroke="midnightblue" d="M458.32,-112.08C459.77,-104.93 461.87,-94.64 463.69,-85.69"/>
<polygon fill="midnightblue" stroke="midnightblue" points="467.15,-86.25 465.72,-75.75 460.29,-84.85 467.15,-86.25"/>
</g>
<!-- Node7 -->
<g id="node7" class="node">
<title>Node7</title>
<g id="a_node7"><a xlink:title=" ">
<polygon fill="white" stroke="#bfbfbf" points="0,-0.5 0,-19.5 125,-19.5 125,-0.5 0,-0.5"/>
<text text-anchor="middle" x="62.5" y="-7.5" font-family="Helvetica,sans-Serif" font-size="10.00">boost/lexical_cast.hpp</text>
</a>
</g>
</g>
<!-- Node6&#45;&gt;Node7 -->
<g id="edge6" class="edge">
<title>Node6&#45;&gt;Node7</title>
<path fill="none" stroke="midnightblue" d="M423.85,-57.44C420.69,-56.94 417.55,-56.45 414.5,-56 400.86,-53.97 234.02,-32.76 135.01,-20.19"/>
<polygon fill="midnightblue" stroke="midnightblue" points="135.42,-16.72 125.06,-18.93 134.54,-23.66 135.42,-16.72"/>
</g>
<!-- Node8 -->
<g id="node8" class="node">
<title>Node8</title>
<g id="a_node8"><a xlink:title=" ">
<polygon fill="white" stroke="#bfbfbf" points="143,-0.5 143,-19.5 324,-19.5 324,-0.5 143,-0.5"/>
<text text-anchor="middle" x="233.5" y="-7.5" font-family="Helvetica,sans-Serif" font-size="10.00">boost/uuid/random_generator.hpp</text>
</a>
</g>
</g>
<!-- Node6&#45;&gt;Node8 -->
<g id="edge7" class="edge">
<title>Node6&#45;&gt;Node8</title>
<path fill="none" stroke="midnightblue" d="M430.42,-56.44C389.77,-47.06 324.47,-31.99 280.32,-21.8"/>
<polygon fill="midnightblue" stroke="midnightblue" points="280.94,-18.35 270.4,-19.52 279.36,-25.18 280.94,-18.35"/>
</g>
<!-- Node9 -->
<g id="node9" class="node">
<title>Node9</title>
<g id="a_node9"><a xlink:title=" ">
<polygon fill="white" stroke="#bfbfbf" points="342,-0.5 342,-19.5 455,-19.5 455,-0.5 342,-0.5"/>
<text text-anchor="middle" x="398.5" y="-7.5" font-family="Helvetica,sans-Serif" font-size="10.00">boost/uuid/uuid.hpp</text>
</a>
</g>
</g>
<!-- Node6&#45;&gt;Node9 -->
<g id="edge8" class="edge">
<title>Node6&#45;&gt;Node9</title>
<path fill="none" stroke="midnightblue" d="M456.41,-56.32C446.01,-48.18 430.24,-35.84 417.78,-26.09"/>
<polygon fill="midnightblue" stroke="midnightblue" points="419.82,-23.24 409.79,-19.83 415.51,-28.75 419.82,-23.24"/>
</g>
<!-- Node10 -->
<g id="node10" class="node">
<title>Node10</title>
<g id="a_node10"><a xlink:title=" ">
<polygon fill="white" stroke="#bfbfbf" points="473,-0.5 473,-19.5 600,-19.5 600,-0.5 473,-0.5"/>
<text text-anchor="middle" x="536.5" y="-7.5" font-family="Helvetica,sans-Serif" font-size="10.00">boost/uuid/uuid_io.hpp</text>
</a>
</g>
</g>
<!-- Node6&#45;&gt;Node10 -->
<g id="edge9" class="edge">
<title>Node6&#45;&gt;Node10</title>
<path fill="none" stroke="midnightblue" d="M478.59,-56.32C488.99,-48.18 504.76,-35.84 517.22,-26.09"/>
<polygon fill="midnightblue" stroke="midnightblue" points="519.49,-28.75 525.21,-19.83 515.18,-23.24 519.49,-28.75"/>
</g>
<!-- Node11 -->
<g id="node11" class="node">
<title>Node11</title>
<g id="a_node11"><a xlink:title=" ">
<polygon fill="white" stroke="#bfbfbf" points="618.5,-0.5 618.5,-19.5 698.5,-19.5 698.5,-0.5 618.5,-0.5"/>
<text text-anchor="middle" x="658.5" y="-7.5" font-family="Helvetica,sans-Serif" font-size="10.00">odb/core.hxx</text>
</a>
</g>
</g>
<!-- Node6&#45;&gt;Node11 -->
<g id="edge10" class="edge">
<title>Node6&#45;&gt;Node11</title>
<path fill="none" stroke="midnightblue" d="M497.76,-56.44C530.46,-47.2 582.68,-32.44 618.68,-22.26"/>
<polygon fill="midnightblue" stroke="midnightblue" points="619.71,-25.61 628.38,-19.52 617.8,-18.87 619.71,-25.61"/>
</g>
<!-- Node12 -->
<g id="node12" class="node">
<title>Node12</title>
<g id="a_node12"><a xlink:title=" ">
<polygon fill="white" stroke="#bfbfbf" points="716.5,-0.5 716.5,-19.5 760.5,-19.5 760.5,-0.5 716.5,-0.5"/>
<text text-anchor="middle" x="738.5" y="-7.5" font-family="Helvetica,sans-Serif" font-size="10.00">string</text>
</a>
</g>
</g>
<!-- Node6&#45;&gt;Node12 -->
<g id="edge11" class="edge">
<title>Node6&#45;&gt;Node12</title>
<path fill="none" stroke="midnightblue" d="M511.12,-58.13C557.35,-50.56 632.64,-37.41 706.31,-20.11"/>
<polygon fill="midnightblue" stroke="midnightblue" points="707.3,-23.47 716.22,-17.75 705.68,-16.66 707.3,-23.47"/>
</g>
</g>
</svg>
