<?xml version="1.0" encoding="UTF-8" standalone="no"?>
<!DOCTYPE svg PUBLIC "-//W3C//DTD SVG 1.1//EN"
 "http://www.w3.org/Graphics/SVG/1.1/DTD/svg11.dtd">
<!-- Generated by graphviz version 2.43.0 (0)
 -->
<!-- Title: src/modules/monitor/init.cpp Pages: 1 -->
<svg width="2352pt" height="442pt"
 viewBox="0.00 0.00 2351.56 442.00" xmlns="http://www.w3.org/2000/svg" xmlns:xlink="http://www.w3.org/1999/xlink">
<g id="graph0" class="graph" transform="scale(1 1) rotate(0) translate(4 438)">
<title>src/modules/monitor/init.cpp</title>
<polygon fill="white" stroke="transparent" points="-4,4 -4,-438 2347.56,-438 2347.56,4 -4,4"/>
<!-- Node1 -->
<g id="node1" class="node">
<title>Node1</title>
<g id="a_node1"><a xlink:title=" ">
<polygon fill="#bfbfbf" stroke="black" points="1843.06,-403.5 1843.06,-433.5 1960.06,-433.5 1960.06,-403.5 1843.06,-403.5"/>
<text text-anchor="start" x="1851.06" y="-421.5" font-family="Helvetica,sans-Serif" font-size="10.00">src/modules/monitor</text>
<text text-anchor="middle" x="1901.56" y="-410.5" font-family="Helvetica,sans-Serif" font-size="10.00">/init.cpp</text>
</a>
</g>
</g>
<!-- Node2 -->
<g id="node2" class="node">
<title>Node2</title>
<g id="a_node2"><a xlink:href="../../d2/dc2/MonitorModule_8hpp.html" target="_top" xlink:title=" ">
<polygon fill="white" stroke="black" points="1804.06,-347.5 1804.06,-366.5 1915.06,-366.5 1915.06,-347.5 1804.06,-347.5"/>
<text text-anchor="middle" x="1859.56" y="-354.5" font-family="Helvetica,sans-Serif" font-size="10.00">MonitorModule.hpp</text>
</a>
</g>
</g>
<!-- Node1&#45;&gt;Node2 -->
<g id="edge1" class="edge">
<title>Node1&#45;&gt;Node2</title>
<path fill="none" stroke="midnightblue" d="M1891.61,-403.4C1885.57,-394.84 1877.82,-383.87 1871.46,-374.86"/>
<polygon fill="midnightblue" stroke="midnightblue" points="1874.3,-372.81 1865.67,-366.66 1868.58,-376.85 1874.3,-372.81"/>
</g>
<!-- Node6 -->
<g id="node6" class="node">
<title>Node6</title>
<g id="a_node6"><a xlink:title=" ">
<polygon fill="white" stroke="#bfbfbf" points="2052.06,-235.5 2052.06,-254.5 2153.06,-254.5 2153.06,-235.5 2052.06,-235.5"/>
<text text-anchor="middle" x="2102.56" y="-242.5" font-family="Helvetica,sans-Serif" font-size="10.00">zmqpp/poller.hpp</text>
</a>
</g>
</g>
<!-- Node1&#45;&gt;Node6 -->
<g id="edge77" class="edge">
<title>Node1&#45;&gt;Node6</title>
<path fill="none" stroke="midnightblue" d="M1914.7,-403.48C1928.61,-388.88 1951.43,-365.58 1972.56,-347 2009.62,-314.42 2055.82,-279.85 2081.98,-260.79"/>
<polygon fill="midnightblue" stroke="midnightblue" points="2084.3,-263.43 2090.34,-254.72 2080.19,-257.76 2084.3,-263.43"/>
</g>
<!-- Node10 -->
<g id="node10" class="node">
<title>Node10</title>
<g id="a_node10"><a xlink:title=" ">
<polygon fill="white" stroke="#bfbfbf" points="31.56,-174 31.56,-193 89.56,-193 89.56,-174 31.56,-174"/>
<text text-anchor="middle" x="60.56" y="-181" font-family="Helvetica,sans-Serif" font-size="10.00">memory</text>
</a>
</g>
</g>
<!-- Node1&#45;&gt;Node10 -->
<g id="edge73" class="edge">
<title>Node1&#45;&gt;Node10</title>
<path fill="none" stroke="midnightblue" d="M1843.05,-417.07C1537.35,-414.24 132.91,-393.73 5.56,-255 -11.42,-236.51 15.01,-213.24 36.77,-198.62"/>
<polygon fill="midnightblue" stroke="midnightblue" points="38.84,-201.44 45.37,-193.1 35.07,-195.55 38.84,-201.44"/>
</g>
<!-- Node31 -->
<g id="node31" class="node">
<title>Node31</title>
<g id="a_node31"><a xlink:href="../../d4/d3d/log_8hpp.html" target="_top" xlink:title=" ">
<polygon fill="white" stroke="black" points="1715.56,-174 1715.56,-193 1795.56,-193 1795.56,-174 1715.56,-174"/>
<text text-anchor="middle" x="1755.56" y="-181" font-family="Helvetica,sans-Serif" font-size="10.00">tools/log.hpp</text>
</a>
</g>
</g>
<!-- Node1&#45;&gt;Node31 -->
<g id="edge71" class="edge">
<title>Node1&#45;&gt;Node31</title>
<path fill="none" stroke="midnightblue" d="M1851.93,-403.4C1831.83,-395.52 1809.81,-383.82 1794.56,-367 1752.34,-320.43 1751.72,-239.63 1753.89,-203.23"/>
<polygon fill="midnightblue" stroke="midnightblue" points="1757.39,-203.3 1754.64,-193.07 1750.41,-202.79 1757.39,-203.3"/>
</g>
<!-- Node36 -->
<g id="node36" class="node">
<title>Node36</title>
<g id="a_node36"><a xlink:title=" ">
<polygon fill="white" stroke="#bfbfbf" points="898.06,-168.5 898.06,-198.5 1011.06,-198.5 1011.06,-168.5 898.06,-168.5"/>
<text text-anchor="start" x="906.06" y="-186.5" font-family="Helvetica,sans-Serif" font-size="10.00">boost/property_tree</text>
<text text-anchor="middle" x="954.56" y="-175.5" font-family="Helvetica,sans-Serif" font-size="10.00">/ptree.hpp</text>
</a>
</g>
</g>
<!-- Node1&#45;&gt;Node36 -->
<g id="edge72" class="edge">
<title>Node1&#45;&gt;Node36</title>
<path fill="none" stroke="midnightblue" d="M1844.45,-403.45C1678.72,-362.67 1198.19,-244.44 1021.11,-200.87"/>
<polygon fill="midnightblue" stroke="midnightblue" points="1021.69,-197.41 1011.14,-198.42 1020.02,-204.21 1021.69,-197.41"/>
</g>
<!-- Node40 -->
<g id="node40" class="node">
<title>Node40</title>
<g id="a_node40"><a xlink:title=" ">
<polygon fill="white" stroke="#bfbfbf" points="1981.56,-347.5 1981.56,-366.5 2079.56,-366.5 2079.56,-347.5 1981.56,-347.5"/>
<text text-anchor="middle" x="2030.56" y="-354.5" font-family="Helvetica,sans-Serif" font-size="10.00">zmqpp/actor.hpp</text>
</a>
</g>
</g>
<!-- Node1&#45;&gt;Node40 -->
<g id="edge74" class="edge">
<title>Node1&#45;&gt;Node40</title>
<path fill="none" stroke="midnightblue" d="M1932.13,-403.4C1953.49,-393.55 1981.78,-380.5 2002.55,-370.92"/>
<polygon fill="midnightblue" stroke="midnightblue" points="2004.18,-374.02 2011.79,-366.66 2001.24,-367.67 2004.18,-374.02"/>
</g>
<!-- Node41 -->
<g id="node41" class="node">
<title>Node41</title>
<g id="a_node41"><a xlink:title=" ">
<polygon fill="white" stroke="#bfbfbf" points="2097.56,-347.5 2097.56,-366.5 2207.56,-366.5 2207.56,-347.5 2097.56,-347.5"/>
<text text-anchor="middle" x="2152.56" y="-354.5" font-family="Helvetica,sans-Serif" font-size="10.00">zmqpp/context.hpp</text>
</a>
</g>
</g>
<!-- Node1&#45;&gt;Node41 -->
<g id="edge75" class="edge">
<title>Node1&#45;&gt;Node41</title>
<path fill="none" stroke="midnightblue" d="M1960.09,-403.62C2004.79,-393.03 2065.52,-378.63 2106.72,-368.87"/>
<polygon fill="midnightblue" stroke="midnightblue" points="2107.57,-372.26 2116.49,-366.55 2105.95,-365.45 2107.57,-372.26"/>
</g>
<!-- Node42 -->
<g id="node42" class="node">
<title>Node42</title>
<g id="a_node42"><a xlink:title=" ">
<polygon fill="white" stroke="#bfbfbf" points="2225.56,-347.5 2225.56,-366.5 2343.56,-366.5 2343.56,-347.5 2225.56,-347.5"/>
<text text-anchor="middle" x="2284.56" y="-354.5" font-family="Helvetica,sans-Serif" font-size="10.00">zmqpp/message.hpp</text>
</a>
</g>
</g>
<!-- Node1&#45;&gt;Node42 -->
<g id="edge76" class="edge">
<title>Node1&#45;&gt;Node42</title>
<path fill="none" stroke="midnightblue" d="M1960.15,-408.4C2030.2,-397.52 2147.06,-379.36 2219.75,-368.07"/>
<polygon fill="midnightblue" stroke="midnightblue" points="2220.36,-371.52 2229.71,-366.52 2219.29,-364.6 2220.36,-371.52"/>
</g>
<!-- Node3 -->
<g id="node3" class="node">
<title>Node3</title>
<g id="a_node3"><a xlink:href="../../d3/dbd/FLED_8hpp.html" target="_top" xlink:title=" ">
<polygon fill="white" stroke="black" points="1783.56,-291.5 1783.56,-310.5 1935.56,-310.5 1935.56,-291.5 1783.56,-291.5"/>
<text text-anchor="middle" x="1859.56" y="-298.5" font-family="Helvetica,sans-Serif" font-size="10.00">hardware/facades/FLED.hpp</text>
</a>
</g>
</g>
<!-- Node2&#45;&gt;Node3 -->
<g id="edge2" class="edge">
<title>Node2&#45;&gt;Node3</title>
<path fill="none" stroke="midnightblue" d="M1859.56,-347.08C1859.56,-340.01 1859.56,-329.86 1859.56,-320.99"/>
<polygon fill="midnightblue" stroke="midnightblue" points="1863.06,-320.75 1859.56,-310.75 1856.06,-320.75 1863.06,-320.75"/>
</g>
<!-- Node8 -->
<g id="node8" class="node">
<title>Node8</title>
<g id="a_node8"><a xlink:href="../../d0/dc7/BaseModule_8hpp.html" target="_top" xlink:title=" ">
<polygon fill="white" stroke="black" points="722.06,-291.5 722.06,-310.5 865.06,-310.5 865.06,-291.5 722.06,-291.5"/>
<text text-anchor="middle" x="793.56" y="-298.5" font-family="Helvetica,sans-Serif" font-size="10.00">modules/BaseModule.hpp</text>
</a>
</g>
</g>
<!-- Node2&#45;&gt;Node8 -->
<g id="edge7" class="edge">
<title>Node2&#45;&gt;Node8</title>
<path fill="none" stroke="midnightblue" d="M1803.75,-353.17C1627.65,-344.25 1083.18,-316.67 875.34,-306.14"/>
<polygon fill="midnightblue" stroke="midnightblue" points="875.27,-302.63 865.1,-305.62 874.91,-309.63 875.27,-302.63"/>
</g>
<!-- Node4 -->
<g id="node4" class="node">
<title>Node4</title>
<g id="a_node4"><a xlink:title=" ">
<polygon fill="white" stroke="#bfbfbf" points="1919.56,-235.5 1919.56,-254.5 1969.56,-254.5 1969.56,-235.5 1919.56,-235.5"/>
<text text-anchor="middle" x="1944.56" y="-242.5" font-family="Helvetica,sans-Serif" font-size="10.00">chrono</text>
</a>
</g>
</g>
<!-- Node3&#45;&gt;Node4 -->
<g id="edge3" class="edge">
<title>Node3&#45;&gt;Node4</title>
<path fill="none" stroke="midnightblue" d="M1873.22,-291.32C1886.48,-282.9 1906.83,-269.97 1922.41,-260.07"/>
<polygon fill="midnightblue" stroke="midnightblue" points="1924.37,-262.97 1930.94,-254.65 1920.62,-257.06 1924.37,-262.97"/>
</g>
<!-- Node5 -->
<g id="node5" class="node">
<title>Node5</title>
<g id="a_node5"><a xlink:title=" ">
<polygon fill="white" stroke="#bfbfbf" points="972.56,-0.5 972.56,-19.5 1016.56,-19.5 1016.56,-0.5 972.56,-0.5"/>
<text text-anchor="middle" x="994.56" y="-7.5" font-family="Helvetica,sans-Serif" font-size="10.00">string</text>
</a>
</g>
</g>
<!-- Node3&#45;&gt;Node5 -->
<g id="edge4" class="edge">
<title>Node3&#45;&gt;Node5</title>
<path fill="none" stroke="midnightblue" d="M1896.78,-291.4C1945.16,-277.76 2023.56,-246.14 2023.56,-184.5 2023.56,-184.5 2023.56,-184.5 2023.56,-121 2023.56,-18.27 1202.24,-11.3 1027.15,-10.98"/>
<polygon fill="midnightblue" stroke="midnightblue" points="1027.01,-7.48 1017.01,-10.97 1027.01,-14.48 1027.01,-7.48"/>
</g>
<!-- Node3&#45;&gt;Node6 -->
<g id="edge5" class="edge">
<title>Node3&#45;&gt;Node6</title>
<path fill="none" stroke="midnightblue" d="M1898.07,-291.44C1940.37,-282.04 2008.38,-266.93 2054.23,-256.74"/>
<polygon fill="midnightblue" stroke="midnightblue" points="2055.23,-260.1 2064.24,-254.52 2053.72,-253.27 2055.23,-260.1"/>
</g>
<!-- Node7 -->
<g id="node7" class="node">
<title>Node7</title>
<g id="a_node7"><a xlink:title=" ">
<polygon fill="white" stroke="#bfbfbf" points="1796.06,-235.5 1796.06,-254.5 1901.06,-254.5 1901.06,-235.5 1796.06,-235.5"/>
<text text-anchor="middle" x="1848.56" y="-242.5" font-family="Helvetica,sans-Serif" font-size="10.00">zmqpp/socket.hpp</text>
</a>
</g>
</g>
<!-- Node3&#45;&gt;Node7 -->
<g id="edge6" class="edge">
<title>Node3&#45;&gt;Node7</title>
<path fill="none" stroke="midnightblue" d="M1857.74,-291.08C1856.29,-283.93 1854.19,-273.64 1852.37,-264.69"/>
<polygon fill="midnightblue" stroke="midnightblue" points="1855.77,-263.85 1850.34,-254.75 1848.91,-265.25 1855.77,-263.85"/>
</g>
<!-- Node9 -->
<g id="node9" class="node">
<title>Node9</title>
<g id="a_node9"><a xlink:href="../../dc/d49/LeosacFwd_8hpp.html" target="_top" xlink:title=" ">
<polygon fill="white" stroke="black" points="14.56,-235.5 14.56,-254.5 106.56,-254.5 106.56,-235.5 14.56,-235.5"/>
<text text-anchor="middle" x="60.56" y="-242.5" font-family="Helvetica,sans-Serif" font-size="10.00">LeosacFwd.hpp</text>
</a>
</g>
</g>
<!-- Node8&#45;&gt;Node9 -->
<g id="edge8" class="edge">
<title>Node8&#45;&gt;Node9</title>
<path fill="none" stroke="midnightblue" d="M721.61,-297.49C599.38,-292.74 343.25,-280.61 116.81,-255.03"/>
<polygon fill="midnightblue" stroke="midnightblue" points="117.06,-251.54 106.73,-253.88 116.27,-258.5 117.06,-251.54"/>
</g>
<!-- Node12 -->
<g id="node12" class="node">
<title>Node12</title>
<g id="a_node12"><a xlink:href="../../db/d33/ConfigChecker_8hpp.html" target="_top" xlink:title=" ">
<polygon fill="white" stroke="black" points="125.06,-235.5 125.06,-254.5 288.06,-254.5 288.06,-235.5 125.06,-235.5"/>
<text text-anchor="middle" x="206.56" y="-242.5" font-family="Helvetica,sans-Serif" font-size="10.00">core/config/ConfigChecker.hpp</text>
</a>
</g>
</g>
<!-- Node8&#45;&gt;Node12 -->
<g id="edge11" class="edge">
<title>Node8&#45;&gt;Node12</title>
<path fill="none" stroke="midnightblue" d="M722,-293.49C626.4,-284.78 451.72,-268.83 302.56,-255 301.25,-254.88 299.93,-254.76 298.59,-254.63"/>
<polygon fill="midnightblue" stroke="midnightblue" points="298.54,-251.11 288.26,-253.67 297.89,-258.08 298.54,-251.11"/>
</g>
<!-- Node15 -->
<g id="node15" class="node">
<title>Node15</title>
<g id="a_node15"><a xlink:href="../../db/d79/ConfigManager_8hpp.html" target="_top" xlink:title=" ">
<polygon fill="white" stroke="black" points="344.06,-235.5 344.06,-254.5 511.06,-254.5 511.06,-235.5 344.06,-235.5"/>
<text text-anchor="middle" x="427.56" y="-242.5" font-family="Helvetica,sans-Serif" font-size="10.00">core/config/ConfigManager.hpp</text>
</a>
</g>
</g>
<!-- Node8&#45;&gt;Node15 -->
<g id="edge14" class="edge">
<title>Node8&#45;&gt;Node15</title>
<path fill="none" stroke="midnightblue" d="M735.57,-291.44C670.25,-281.81 564.22,-266.16 495.19,-255.98"/>
<polygon fill="midnightblue" stroke="midnightblue" points="495.69,-252.51 485.28,-254.52 494.67,-259.44 495.69,-252.51"/>
</g>
<!-- Node8&#45;&gt;Node31 -->
<g id="edge68" class="edge">
<title>Node8&#45;&gt;Node31</title>
<path fill="none" stroke="midnightblue" d="M865.48,-297.73C980.76,-293.43 1213.84,-281.98 1409.56,-255 1518.8,-239.94 1645.35,-211.24 1710.95,-195.5"/>
<polygon fill="midnightblue" stroke="midnightblue" points="1712.04,-198.84 1720.95,-193.09 1710.4,-192.03 1712.04,-198.84"/>
</g>
<!-- Node8&#45;&gt;Node36 -->
<g id="edge69" class="edge">
<title>Node8&#45;&gt;Node36</title>
<path fill="none" stroke="midnightblue" d="M805.66,-291.32C831.15,-273.04 890.91,-230.16 926.49,-204.64"/>
<polygon fill="midnightblue" stroke="midnightblue" points="928.9,-207.22 934.98,-198.55 924.82,-201.53 928.9,-207.22"/>
</g>
<!-- Node37 -->
<g id="node37" class="node">
<title>Node37</title>
<g id="a_node37"><a xlink:title=" ">
<polygon fill="white" stroke="#bfbfbf" points="230.06,-174 230.06,-193 337.06,-193 337.06,-174 230.06,-174"/>
<text text-anchor="middle" x="283.56" y="-181" font-family="Helvetica,sans-Serif" font-size="10.00">zmqpp/zmqpp.hpp</text>
</a>
</g>
</g>
<!-- Node8&#45;&gt;Node37 -->
<g id="edge70" class="edge">
<title>Node8&#45;&gt;Node37</title>
<path fill="none" stroke="midnightblue" d="M722.05,-300.04C609.89,-298.95 398.79,-291.87 334.56,-255 313.95,-243.17 299.41,-219.25 291.26,-202.57"/>
<polygon fill="midnightblue" stroke="midnightblue" points="294.36,-200.93 287.02,-193.29 288,-203.84 294.36,-200.93"/>
</g>
<!-- Node38 -->
<g id="node38" class="node">
<title>Node38</title>
<g id="a_node38"><a xlink:href="../../d1/d91/ThreadUtils_8hpp.html" target="_top" xlink:title=" ">
<polygon fill="white" stroke="black" points="1280.06,-235.5 1280.06,-254.5 1401.06,-254.5 1401.06,-235.5 1280.06,-235.5"/>
<text text-anchor="middle" x="1340.56" y="-242.5" font-family="Helvetica,sans-Serif" font-size="10.00">tools/ThreadUtils.hpp</text>
</a>
</g>
</g>
<!-- Node8&#45;&gt;Node38 -->
<g id="edge65" class="edge">
<title>Node8&#45;&gt;Node38</title>
<path fill="none" stroke="midnightblue" d="M865.07,-292.94C970.17,-282.57 1165.17,-263.31 1269.83,-252.98"/>
<polygon fill="midnightblue" stroke="midnightblue" points="1270.37,-256.45 1279.97,-251.98 1269.68,-249.48 1270.37,-256.45"/>
</g>
<!-- Node9&#45;&gt;Node10 -->
<g id="edge9" class="edge">
<title>Node9&#45;&gt;Node10</title>
<path fill="none" stroke="midnightblue" d="M60.56,-235.48C60.56,-227.08 60.56,-213.98 60.56,-203.16"/>
<polygon fill="midnightblue" stroke="midnightblue" points="64.06,-203.01 60.56,-193.01 57.06,-203.01 64.06,-203.01"/>
</g>
<!-- Node11 -->
<g id="node11" class="node">
<title>Node11</title>
<g id="a_node11"><a xlink:title=" ">
<polygon fill="white" stroke="#bfbfbf" points="70.06,-56.5 70.06,-75.5 117.06,-75.5 117.06,-56.5 70.06,-56.5"/>
<text text-anchor="middle" x="93.56" y="-63.5" font-family="Helvetica,sans-Serif" font-size="10.00">vector</text>
</a>
</g>
</g>
<!-- Node9&#45;&gt;Node11 -->
<g id="edge10" class="edge">
<title>Node9&#45;&gt;Node11</title>
<path fill="none" stroke="midnightblue" d="M49.85,-235.3C40.62,-227.07 27.97,-213.79 22.56,-199 17.83,-186.06 18.41,-181.14 22.56,-168 33.32,-134 60.08,-101.53 77.5,-82.97"/>
<polygon fill="midnightblue" stroke="midnightblue" points="80.11,-85.3 84.54,-75.68 75.08,-80.44 80.11,-85.3"/>
</g>
<!-- Node13 -->
<g id="node13" class="node">
<title>Node13</title>
<g id="a_node13"><a xlink:title=" ">
<polygon fill="white" stroke="#bfbfbf" points="173.56,-174 173.56,-193 211.56,-193 211.56,-174 173.56,-174"/>
<text text-anchor="middle" x="192.56" y="-181" font-family="Helvetica,sans-Serif" font-size="10.00">map</text>
</a>
</g>
</g>
<!-- Node12&#45;&gt;Node13 -->
<g id="edge12" class="edge">
<title>Node12&#45;&gt;Node13</title>
<path fill="none" stroke="midnightblue" d="M204.56,-235.48C202.56,-226.99 199.43,-213.7 196.87,-202.82"/>
<polygon fill="midnightblue" stroke="midnightblue" points="200.26,-201.94 194.56,-193.01 193.45,-203.54 200.26,-201.94"/>
</g>
<!-- Node14 -->
<g id="node14" class="node">
<title>Node14</title>
<g id="a_node14"><a xlink:title=" ">
<polygon fill="white" stroke="#bfbfbf" points="107.56,-174 107.56,-193 155.56,-193 155.56,-174 107.56,-174"/>
<text text-anchor="middle" x="131.56" y="-181" font-family="Helvetica,sans-Serif" font-size="10.00">mutex</text>
</a>
</g>
</g>
<!-- Node12&#45;&gt;Node14 -->
<g id="edge13" class="edge">
<title>Node12&#45;&gt;Node14</title>
<path fill="none" stroke="midnightblue" d="M195.82,-235.48C184.01,-226.11 164.82,-210.88 150.48,-199.51"/>
<polygon fill="midnightblue" stroke="midnightblue" points="152.3,-196.48 142.29,-193.01 147.95,-201.97 152.3,-196.48"/>
</g>
<!-- Node15&#45;&gt;Node5 -->
<g id="edge62" class="edge">
<title>Node15&#45;&gt;Node5</title>
<path fill="none" stroke="midnightblue" d="M418.45,-235.42C397.55,-215.76 347.78,-169.05 345.56,-168 240.14,-118.05 178.84,-202.06 85.56,-132 57.13,-110.64 36.03,-81.74 60.56,-56 92.31,-22.68 800.82,-13.08 962.09,-11.32"/>
<polygon fill="midnightblue" stroke="midnightblue" points="962.37,-14.82 972.33,-11.21 962.29,-7.82 962.37,-14.82"/>
</g>
<!-- Node15&#45;&gt;Node10 -->
<g id="edge61" class="edge">
<title>Node15&#45;&gt;Node10</title>
<path fill="none" stroke="midnightblue" d="M343.73,-237.85C276.63,-231.67 180.53,-219.95 98.56,-199 95.74,-198.28 92.84,-197.41 89.96,-196.47"/>
<polygon fill="midnightblue" stroke="midnightblue" points="90.99,-193.12 80.4,-193.05 88.64,-199.71 90.99,-193.12"/>
</g>
<!-- Node15&#45;&gt;Node11 -->
<g id="edge63" class="edge">
<title>Node15&#45;&gt;Node11</title>
<path fill="none" stroke="midnightblue" d="M424.8,-235.14C419.19,-218.8 404.83,-184.1 379.56,-168 273.38,-100.33 185.31,-223.26 98.56,-132 87.13,-119.97 87.15,-100.4 89.26,-85.87"/>
<polygon fill="midnightblue" stroke="midnightblue" points="92.72,-86.42 91.12,-75.95 85.84,-85.13 92.72,-86.42"/>
</g>
<!-- Node15&#45;&gt;Node13 -->
<g id="edge60" class="edge">
<title>Node15&#45;&gt;Node13</title>
<path fill="none" stroke="midnightblue" d="M368.86,-235.49C326.78,-228.36 269.17,-216.52 220.56,-199 219.32,-198.55 218.06,-198.06 216.79,-197.53"/>
<polygon fill="midnightblue" stroke="midnightblue" points="217.88,-194.18 207.35,-193.08 214.9,-200.51 217.88,-194.18"/>
</g>
<!-- Node16 -->
<g id="node16" class="node">
<title>Node16</title>
<g id="a_node16"><a xlink:href="../../d1/ddd/leosacexception_8hpp.html" target="_top" xlink:title="Exception class for LEOSAC Project related errors.">
<polygon fill="white" stroke="black" points="711.56,-174 711.56,-193 879.56,-193 879.56,-174 711.56,-174"/>
<text text-anchor="middle" x="795.56" y="-181" font-family="Helvetica,sans-Serif" font-size="10.00">exception/leosacexception.hpp</text>
</a>
</g>
</g>
<!-- Node15&#45;&gt;Node16 -->
<g id="edge15" class="edge">
<title>Node15&#45;&gt;Node16</title>
<path fill="none" stroke="midnightblue" d="M480.29,-235.48C546.96,-224.69 661.63,-206.15 732.77,-194.65"/>
<polygon fill="midnightblue" stroke="midnightblue" points="733.62,-198.06 742.93,-193.01 732.5,-191.15 733.62,-198.06"/>
</g>
<!-- Node15&#45;&gt;Node31 -->
<g id="edge52" class="edge">
<title>Node15&#45;&gt;Node31</title>
<path fill="none" stroke="midnightblue" d="M511.14,-240.26C762.13,-229.01 1504.31,-195.76 1705.03,-186.76"/>
<polygon fill="midnightblue" stroke="midnightblue" points="1705.45,-190.25 1715.28,-186.3 1705.13,-183.26 1705.45,-190.25"/>
</g>
<!-- Node15&#45;&gt;Node36 -->
<g id="edge59" class="edge">
<title>Node15&#45;&gt;Node36</title>
<path fill="none" stroke="midnightblue" d="M511.22,-238.84C601.71,-232.57 750.34,-220.31 887.88,-198.98"/>
<polygon fill="midnightblue" stroke="midnightblue" points="888.42,-202.44 897.76,-197.43 887.34,-195.52 888.42,-202.44"/>
</g>
<!-- Node15&#45;&gt;Node37 -->
<g id="edge64" class="edge">
<title>Node15&#45;&gt;Node37</title>
<path fill="none" stroke="midnightblue" d="M406.93,-235.48C382.44,-225.36 341.41,-208.4 313.45,-196.85"/>
<polygon fill="midnightblue" stroke="midnightblue" points="314.73,-193.59 304.15,-193.01 312.06,-200.06 314.73,-193.59"/>
</g>
<!-- Node16&#45;&gt;Node5 -->
<g id="edge21" class="edge">
<title>Node16&#45;&gt;Node5</title>
<path fill="none" stroke="midnightblue" d="M711.48,-180.64C585,-176.23 364.57,-161.44 404.56,-112 475.39,-24.43 849.26,-12.74 962.21,-11.22"/>
<polygon fill="midnightblue" stroke="midnightblue" points="962.35,-14.72 972.31,-11.1 962.27,-7.72 962.35,-14.72"/>
</g>
<!-- Node17 -->
<g id="node17" class="node">
<title>Node17</title>
<g id="a_node17"><a xlink:href="../../d6/d2f/Stacktrace_8hpp.html" target="_top" xlink:title=" ">
<polygon fill="white" stroke="black" points="107.56,-112.5 107.56,-131.5 223.56,-131.5 223.56,-112.5 107.56,-112.5"/>
<text text-anchor="middle" x="165.56" y="-119.5" font-family="Helvetica,sans-Serif" font-size="10.00">tools/Stacktrace.hpp</text>
</a>
</g>
</g>
<!-- Node16&#45;&gt;Node17 -->
<g id="edge16" class="edge">
<title>Node16&#45;&gt;Node17</title>
<path fill="none" stroke="midnightblue" d="M711.51,-176.12C603.41,-167.66 409.61,-151.61 233.61,-132.07"/>
<polygon fill="midnightblue" stroke="midnightblue" points="233.97,-128.59 223.65,-130.96 233.2,-135.55 233.97,-128.59"/>
</g>
<!-- Node18 -->
<g id="node18" class="node">
<title>Node18</title>
<g id="a_node18"><a xlink:title=" ">
<polygon fill="white" stroke="#bfbfbf" points="923.06,-112.5 923.06,-131.5 976.06,-131.5 976.06,-112.5 923.06,-112.5"/>
<text text-anchor="middle" x="949.56" y="-119.5" font-family="Helvetica,sans-Serif" font-size="10.00">cstddef</text>
</a>
</g>
</g>
<!-- Node16&#45;&gt;Node18 -->
<g id="edge19" class="edge">
<title>Node16&#45;&gt;Node18</title>
<path fill="none" stroke="midnightblue" d="M817.63,-173.98C843.93,-163.81 888.07,-146.76 917.99,-135.2"/>
<polygon fill="midnightblue" stroke="midnightblue" points="919.47,-138.38 927.54,-131.51 916.95,-131.85 919.47,-138.38"/>
</g>
<!-- Node19 -->
<g id="node19" class="node">
<title>Node19</title>
<g id="a_node19"><a xlink:title=" ">
<polygon fill="white" stroke="#bfbfbf" points="994.06,-112.5 994.06,-131.5 1059.06,-131.5 1059.06,-112.5 994.06,-112.5"/>
<text text-anchor="middle" x="1026.56" y="-119.5" font-family="Helvetica,sans-Serif" font-size="10.00">exception</text>
</a>
</g>
</g>
<!-- Node16&#45;&gt;Node19 -->
<g id="edge20" class="edge">
<title>Node16&#45;&gt;Node19</title>
<path fill="none" stroke="midnightblue" d="M828.66,-173.98C869.6,-163.43 939.36,-145.46 984.18,-133.92"/>
<polygon fill="midnightblue" stroke="midnightblue" points="985.09,-137.3 993.9,-131.41 983.34,-130.52 985.09,-137.3"/>
</g>
<!-- Node20 -->
<g id="node20" class="node">
<title>Node20</title>
<g id="a_node20"><a xlink:href="../../d7/d7a/configexception_8hpp.html" target="_top" xlink:title=" ">
<polygon fill="white" stroke="black" points="1474.06,-112.5 1474.06,-131.5 1589.06,-131.5 1589.06,-112.5 1474.06,-112.5"/>
<text text-anchor="middle" x="1531.56" y="-119.5" font-family="Helvetica,sans-Serif" font-size="10.00">configexception.hpp</text>
</a>
</g>
</g>
<!-- Node16&#45;&gt;Node20 -->
<g id="edge22" class="edge">
<title>Node16&#45;&gt;Node20</title>
<path fill="none" stroke="midnightblue" d="M836.04,-173.97C849.81,-171.76 865.27,-169.56 879.56,-168 1134.55,-140.21 1200.29,-157.09 1455.56,-132 1458.26,-131.73 1461.02,-131.44 1463.81,-131.13"/>
<polygon fill="midnightblue" stroke="midnightblue" points="1464.48,-134.58 1474.01,-129.94 1463.67,-127.63 1464.48,-134.58"/>
</g>
<!-- Node23 -->
<g id="node23" class="node">
<title>Node23</title>
<g id="a_node23"><a xlink:href="../../d8/db0/coreexception_8hpp.html" target="_top" xlink:title="Exception class for Core related errors.">
<polygon fill="white" stroke="black" points="414.06,-112.5 414.06,-131.5 521.06,-131.5 521.06,-112.5 414.06,-112.5"/>
<text text-anchor="middle" x="467.56" y="-119.5" font-family="Helvetica,sans-Serif" font-size="10.00">coreexception.hpp</text>
</a>
</g>
</g>
<!-- Node16&#45;&gt;Node23 -->
<g id="edge28" class="edge">
<title>Node16&#45;&gt;Node23</title>
<path fill="none" stroke="midnightblue" d="M743.67,-173.98C682.26,-163.26 580.83,-144.88 519.44,-133.37"/>
<polygon fill="midnightblue" stroke="midnightblue" points="520.05,-129.92 509.57,-131.51 518.75,-136.8 520.05,-129.92"/>
</g>
<!-- Node24 -->
<g id="node24" class="node">
<title>Node24</title>
<g id="a_node24"><a xlink:href="../../d8/d77/deviceexception_8hpp.html" target="_top" xlink:title="Exception class for Device related errors.">
<polygon fill="white" stroke="black" points="539.56,-112.5 539.56,-131.5 657.56,-131.5 657.56,-112.5 539.56,-112.5"/>
<text text-anchor="middle" x="598.56" y="-119.5" font-family="Helvetica,sans-Serif" font-size="10.00">deviceexception.hpp</text>
</a>
</g>
</g>
<!-- Node16&#45;&gt;Node24 -->
<g id="edge31" class="edge">
<title>Node16&#45;&gt;Node24</title>
<path fill="none" stroke="midnightblue" d="M762.44,-173.98C725.95,-163.64 667.9,-146.16 631.49,-134.6"/>
<polygon fill="midnightblue" stroke="midnightblue" points="632.43,-131.23 621.84,-131.51 630.29,-137.89 632.43,-131.23"/>
</g>
<!-- Node25 -->
<g id="node25" class="node">
<title>Node25</title>
<g id="a_node25"><a xlink:href="../../db/d35/dynlibexception_8hpp.html" target="_top" xlink:title="Exception class for DynLib related errors.">
<polygon fill="white" stroke="black" points="675.56,-112.5 675.56,-131.5 791.56,-131.5 791.56,-112.5 675.56,-112.5"/>
<text text-anchor="middle" x="733.56" y="-119.5" font-family="Helvetica,sans-Serif" font-size="10.00">dynlibexception.hpp</text>
</a>
</g>
</g>
<!-- Node16&#45;&gt;Node25 -->
<g id="edge34" class="edge">
<title>Node16&#45;&gt;Node25</title>
<path fill="none" stroke="midnightblue" d="M781.78,-173.98C770.42,-164.96 754.98,-150.52 744.46,-139.31"/>
<polygon fill="midnightblue" stroke="midnightblue" points="746.79,-136.66 737.53,-131.51 741.56,-141.31 746.79,-136.66"/>
</g>
<!-- Node26 -->
<g id="node26" class="node">
<title>Node26</title>
<g id="a_node26"><a xlink:href="../../d0/d4e/fsexception_8hpp.html" target="_top" xlink:title="Exception class for filesystem related errors.">
<polygon fill="white" stroke="black" points="810.06,-112.5 810.06,-131.5 905.06,-131.5 905.06,-112.5 810.06,-112.5"/>
<text text-anchor="middle" x="857.56" y="-119.5" font-family="Helvetica,sans-Serif" font-size="10.00">fsexception.hpp</text>
</a>
</g>
</g>
<!-- Node16&#45;&gt;Node26 -->
<g id="edge37" class="edge">
<title>Node16&#45;&gt;Node26</title>
<path fill="none" stroke="midnightblue" d="M799.54,-173.98C807.26,-164.61 822.77,-149.38 835.97,-138.01"/>
<polygon fill="midnightblue" stroke="midnightblue" points="838.34,-140.59 843.8,-131.51 833.87,-135.2 838.34,-140.59"/>
</g>
<!-- Node27 -->
<g id="node27" class="node">
<title>Node27</title>
<g id="a_node27"><a xlink:href="../../d1/d8e/gpioexception_8hpp.html" target="_top" xlink:title="Exception class for Gpio related errors.">
<polygon fill="white" stroke="black" points="1077.06,-112.5 1077.06,-131.5 1184.06,-131.5 1184.06,-112.5 1077.06,-112.5"/>
<text text-anchor="middle" x="1130.56" y="-119.5" font-family="Helvetica,sans-Serif" font-size="10.00">gpioexception.hpp</text>
</a>
</g>
</g>
<!-- Node16&#45;&gt;Node27 -->
<g id="edge40" class="edge">
<title>Node16&#45;&gt;Node27</title>
<path fill="none" stroke="midnightblue" d="M838.66,-173.98C896.89,-163.22 1000.85,-144.73 1067.76,-133.22"/>
<polygon fill="midnightblue" stroke="midnightblue" points="1068.49,-136.65 1077.76,-131.51 1067.31,-129.75 1068.49,-136.65"/>
</g>
<!-- Node28 -->
<g id="node28" class="node">
<title>Node28</title>
<g id="a_node28"><a xlink:href="../../d7/d8c/moduleexception_8hpp.html" target="_top" xlink:title="Exception class for modules.">
<polygon fill="white" stroke="black" points="1202.56,-112.5 1202.56,-131.5 1324.56,-131.5 1324.56,-112.5 1202.56,-112.5"/>
<text text-anchor="middle" x="1263.56" y="-119.5" font-family="Helvetica,sans-Serif" font-size="10.00">moduleexception.hpp</text>
</a>
</g>
</g>
<!-- Node16&#45;&gt;Node28 -->
<g id="edge43" class="edge">
<title>Node16&#45;&gt;Node28</title>
<path fill="none" stroke="midnightblue" d="M839.42,-173.96C852.32,-171.91 866.45,-169.8 879.56,-168 1014.36,-149.52 1048.52,-148.55 1183.56,-132 1186.39,-131.65 1189.29,-131.3 1192.22,-130.93"/>
<polygon fill="midnightblue" stroke="midnightblue" points="1192.79,-134.39 1202.29,-129.68 1191.93,-127.44 1192.79,-134.39"/>
</g>
<!-- Node29 -->
<g id="node29" class="node">
<title>Node29</title>
<g id="a_node29"><a xlink:href="../../df/d8d/scriptexception_8hpp.html" target="_top" xlink:title="Exception class for Script related errors.">
<polygon fill="white" stroke="black" points="1343.06,-112.5 1343.06,-131.5 1456.06,-131.5 1456.06,-112.5 1343.06,-112.5"/>
<text text-anchor="middle" x="1399.56" y="-119.5" font-family="Helvetica,sans-Serif" font-size="10.00">scriptexception.hpp</text>
</a>
</g>
</g>
<!-- Node16&#45;&gt;Node29 -->
<g id="edge46" class="edge">
<title>Node16&#45;&gt;Node29</title>
<path fill="none" stroke="midnightblue" d="M837,-173.99C850.53,-171.83 865.61,-169.65 879.56,-168 1076.61,-144.7 1127.3,-153.41 1324.56,-132 1327.22,-131.71 1329.93,-131.4 1332.68,-131.08"/>
<polygon fill="midnightblue" stroke="midnightblue" points="1333.23,-134.54 1342.73,-129.85 1332.38,-127.59 1333.23,-134.54"/>
</g>
<!-- Node30 -->
<g id="node30" class="node">
<title>Node30</title>
<g id="a_node30"><a xlink:href="../../dc/dce/signalexception_8hpp.html" target="_top" xlink:title="Exception class for Signal related errors.">
<polygon fill="white" stroke="black" points="242.06,-112.5 242.06,-131.5 357.06,-131.5 357.06,-112.5 242.06,-112.5"/>
<text text-anchor="middle" x="299.56" y="-119.5" font-family="Helvetica,sans-Serif" font-size="10.00">signalexception.hpp</text>
</a>
</g>
</g>
<!-- Node16&#45;&gt;Node30 -->
<g id="edge49" class="edge">
<title>Node16&#45;&gt;Node30</title>
<path fill="none" stroke="midnightblue" d="M716.29,-173.96C631.59,-164.28 493.34,-147.93 367.45,-132.59"/>
<polygon fill="midnightblue" stroke="midnightblue" points="367.6,-129.09 357.25,-131.35 366.75,-136.03 367.6,-129.09"/>
</g>
<!-- Node17&#45;&gt;Node5 -->
<g id="edge17" class="edge">
<title>Node17&#45;&gt;Node5</title>
<path fill="none" stroke="midnightblue" d="M183,-112.38C213.36,-97.85 278.24,-68.78 336.56,-56 458.05,-29.37 847.19,-15.53 962.24,-11.95"/>
<polygon fill="midnightblue" stroke="midnightblue" points="962.61,-15.44 972.5,-11.64 962.39,-8.44 962.61,-15.44"/>
</g>
<!-- Node17&#45;&gt;Node11 -->
<g id="edge18" class="edge">
<title>Node17&#45;&gt;Node11</title>
<path fill="none" stroke="midnightblue" d="M153.99,-112.32C143.14,-104.18 126.68,-91.84 113.68,-82.09"/>
<polygon fill="midnightblue" stroke="midnightblue" points="115.44,-79.03 105.34,-75.83 111.24,-84.63 115.44,-79.03"/>
</g>
<!-- Node20&#45;&gt;Node5 -->
<g id="edge27" class="edge">
<title>Node20&#45;&gt;Node5</title>
<path fill="none" stroke="midnightblue" d="M1489.87,-112.46C1386.3,-91.24 1118.99,-36.49 1026.57,-17.56"/>
<polygon fill="midnightblue" stroke="midnightblue" points="1027.18,-14.11 1016.68,-15.53 1025.77,-20.97 1027.18,-14.11"/>
</g>
<!-- Node20&#45;&gt;Node16 -->
<g id="edge23" class="edge">
<title>Node20&#45;&gt;Node16</title>
<path fill="none" stroke="midnightblue" d="M1478.17,-131.53C1476.62,-131.69 1475.08,-131.85 1473.56,-132 1218.29,-157.09 1152.55,-140.21 897.56,-168 886.5,-169.2 874.75,-170.79 863.29,-172.48"/>
<polygon fill="midnightblue" stroke="midnightblue" points="862.68,-169.03 853.31,-173.97 863.72,-175.95 862.68,-169.03"/>
</g>
<!-- Node21 -->
<g id="node21" class="node">
<title>Node21</title>
<g id="a_node21"><a xlink:href="../../dd/d35/Colorize_8hpp.html" target="_top" xlink:title=" ">
<polygon fill="white" stroke="black" points="1683.56,-56.5 1683.56,-75.5 1787.56,-75.5 1787.56,-56.5 1683.56,-56.5"/>
<text text-anchor="middle" x="1735.56" y="-63.5" font-family="Helvetica,sans-Serif" font-size="10.00">tools/Colorize.hpp</text>
</a>
</g>
</g>
<!-- Node20&#45;&gt;Node21 -->
<g id="edge24" class="edge">
<title>Node20&#45;&gt;Node21</title>
<path fill="none" stroke="midnightblue" d="M1563.89,-112.44C1598.95,-103.16 1655.06,-88.31 1693.53,-78.13"/>
<polygon fill="midnightblue" stroke="midnightblue" points="1694.62,-81.46 1703.39,-75.52 1692.83,-74.69 1694.62,-81.46"/>
</g>
<!-- Node21&#45;&gt;Node5 -->
<g id="edge26" class="edge">
<title>Node21&#45;&gt;Node5</title>
<path fill="none" stroke="midnightblue" d="M1683.36,-57.54C1678.7,-56.98 1674.05,-56.45 1669.56,-56 1422.91,-30.99 1124.09,-16.63 1026.82,-12.36"/>
<polygon fill="midnightblue" stroke="midnightblue" points="1026.89,-8.86 1016.75,-11.92 1026.59,-15.85 1026.89,-8.86"/>
</g>
<!-- Node22 -->
<g id="node22" class="node">
<title>Node22</title>
<g id="a_node22"><a xlink:title=" ">
<polygon fill="white" stroke="#bfbfbf" points="1870.56,-0.5 1870.56,-19.5 1926.56,-19.5 1926.56,-0.5 1870.56,-0.5"/>
<text text-anchor="middle" x="1898.56" y="-7.5" font-family="Helvetica,sans-Serif" font-size="10.00">sstream</text>
</a>
</g>
</g>
<!-- Node21&#45;&gt;Node22 -->
<g id="edge25" class="edge">
<title>Node21&#45;&gt;Node22</title>
<path fill="none" stroke="midnightblue" d="M1761.39,-56.44C1788.81,-47.36 1832.34,-32.94 1862.99,-22.78"/>
<polygon fill="midnightblue" stroke="midnightblue" points="1864.46,-25.98 1872.85,-19.52 1862.26,-19.34 1864.46,-25.98"/>
</g>
<!-- Node23&#45;&gt;Node5 -->
<g id="edge29" class="edge">
<title>Node23&#45;&gt;Node5</title>
<path fill="none" stroke="midnightblue" d="M504.1,-112.41C559.01,-99.58 666.11,-74.93 757.56,-56 830.61,-40.88 916.75,-25.02 962.39,-16.76"/>
<polygon fill="midnightblue" stroke="midnightblue" points="963.07,-20.2 972.29,-14.98 961.83,-13.31 963.07,-20.2"/>
</g>
<!-- Node23&#45;&gt;Node16 -->
<g id="edge30" class="edge">
<title>Node23&#45;&gt;Node16</title>
<path fill="none" stroke="midnightblue" d="M519.37,-131.51C580.73,-142.22 682.16,-160.59 743.59,-172.12"/>
<polygon fill="midnightblue" stroke="midnightblue" points="742.99,-175.57 753.47,-173.98 744.29,-168.69 742.99,-175.57"/>
</g>
<!-- Node24&#45;&gt;Node5 -->
<g id="edge32" class="edge">
<title>Node24&#45;&gt;Node5</title>
<path fill="none" stroke="midnightblue" d="M629.31,-112.46C702.72,-92.07 887.69,-40.69 962.46,-19.92"/>
<polygon fill="midnightblue" stroke="midnightblue" points="963.56,-23.24 972.26,-17.2 961.68,-16.5 963.56,-23.24"/>
</g>
<!-- Node24&#45;&gt;Node16 -->
<g id="edge33" class="edge">
<title>Node24&#45;&gt;Node16</title>
<path fill="none" stroke="midnightblue" d="M631.63,-131.51C668.1,-141.84 726.15,-159.32 762.57,-170.88"/>
<polygon fill="midnightblue" stroke="midnightblue" points="761.65,-174.26 772.24,-173.98 763.78,-167.59 761.65,-174.26"/>
</g>
<!-- Node25&#45;&gt;Node5 -->
<g id="edge35" class="edge">
<title>Node25&#45;&gt;Node5</title>
<path fill="none" stroke="midnightblue" d="M754.04,-112.37C799.97,-93.01 911.36,-46.06 964.88,-23.51"/>
<polygon fill="midnightblue" stroke="midnightblue" points="966.32,-26.7 974.18,-19.59 963.6,-20.25 966.32,-26.7"/>
</g>
<!-- Node25&#45;&gt;Node16 -->
<g id="edge36" class="edge">
<title>Node25&#45;&gt;Node16</title>
<path fill="none" stroke="midnightblue" d="M747.33,-131.51C758.68,-140.52 774.12,-154.95 784.64,-166.17"/>
<polygon fill="midnightblue" stroke="midnightblue" points="782.32,-168.82 791.58,-173.98 787.55,-164.17 782.32,-168.82"/>
</g>
<!-- Node26&#45;&gt;Node5 -->
<g id="edge38" class="edge">
<title>Node26&#45;&gt;Node5</title>
<path fill="none" stroke="midnightblue" d="M868.31,-112.37C891.52,-93.73 946.57,-49.53 975.71,-26.13"/>
<polygon fill="midnightblue" stroke="midnightblue" points="978.25,-28.58 983.86,-19.59 973.87,-23.12 978.25,-28.58"/>
</g>
<!-- Node26&#45;&gt;Node16 -->
<g id="edge39" class="edge">
<title>Node26&#45;&gt;Node16</title>
<path fill="none" stroke="midnightblue" d="M853.59,-131.51C845.88,-140.87 830.37,-156.09 817.17,-167.47"/>
<polygon fill="midnightblue" stroke="midnightblue" points="814.8,-164.89 809.34,-173.98 819.27,-170.28 814.8,-164.89"/>
</g>
<!-- Node27&#45;&gt;Node5 -->
<g id="edge42" class="edge">
<title>Node27&#45;&gt;Node5</title>
<path fill="none" stroke="midnightblue" d="M1119.89,-112.37C1096.85,-93.73 1042.2,-49.53 1013.27,-26.13"/>
<polygon fill="midnightblue" stroke="midnightblue" points="1015.16,-23.16 1005.18,-19.59 1010.76,-28.6 1015.16,-23.16"/>
</g>
<!-- Node27&#45;&gt;Node16 -->
<g id="edge41" class="edge">
<title>Node27&#45;&gt;Node16</title>
<path fill="none" stroke="midnightblue" d="M1087.55,-131.51C1029.37,-142.26 925.4,-160.75 858.46,-172.26"/>
<polygon fill="midnightblue" stroke="midnightblue" points="857.72,-168.83 848.46,-173.98 858.91,-175.73 857.72,-168.83"/>
</g>
<!-- Node28&#45;&gt;Node5 -->
<g id="edge44" class="edge">
<title>Node28&#45;&gt;Node5</title>
<path fill="none" stroke="midnightblue" d="M1242.45,-112.37C1195.11,-93.01 1080.31,-46.06 1025.15,-23.51"/>
<polygon fill="midnightblue" stroke="midnightblue" points="1026.15,-20.14 1015.57,-19.59 1023.5,-26.62 1026.15,-20.14"/>
</g>
<!-- Node28&#45;&gt;Node16 -->
<g id="edge45" class="edge">
<title>Node28&#45;&gt;Node16</title>
<path fill="none" stroke="midnightblue" d="M1205.29,-131.54C1204.04,-131.7 1202.79,-131.85 1201.56,-132 1066.52,-148.55 1032.36,-149.52 897.56,-168 887.73,-169.35 877.32,-170.87 867.05,-172.42"/>
<polygon fill="midnightblue" stroke="midnightblue" points="866.22,-169 856.85,-173.96 867.26,-175.92 866.22,-169"/>
</g>
<!-- Node29&#45;&gt;Node5 -->
<g id="edge47" class="edge">
<title>Node29&#45;&gt;Node5</title>
<path fill="none" stroke="midnightblue" d="M1368.12,-112.46C1292.86,-92.02 1102.96,-40.44 1026.85,-19.77"/>
<polygon fill="midnightblue" stroke="midnightblue" points="1027.46,-16.31 1016.89,-17.06 1025.62,-23.06 1027.46,-16.31"/>
</g>
<!-- Node29&#45;&gt;Node16 -->
<g id="edge48" class="edge">
<title>Node29&#45;&gt;Node16</title>
<path fill="none" stroke="midnightblue" d="M1346.74,-131.53C1345.34,-131.69 1343.94,-131.85 1342.56,-132 1145.3,-153.41 1094.61,-144.7 897.56,-168 886.88,-169.26 875.54,-170.84 864.43,-172.48"/>
<polygon fill="midnightblue" stroke="midnightblue" points="863.69,-169.05 854.32,-173.99 864.73,-175.97 863.69,-169.05"/>
</g>
<!-- Node30&#45;&gt;Node5 -->
<g id="edge50" class="edge">
<title>Node30&#45;&gt;Node5</title>
<path fill="none" stroke="midnightblue" d="M305.94,-112.31C317.26,-97.65 342.44,-68.42 371.56,-56 479.43,-9.98 849.77,-9.6 962.04,-10.59"/>
<polygon fill="midnightblue" stroke="midnightblue" points="962.34,-14.09 972.38,-10.69 962.41,-7.09 962.34,-14.09"/>
</g>
<!-- Node30&#45;&gt;Node16 -->
<g id="edge51" class="edge">
<title>Node30&#45;&gt;Node16</title>
<path fill="none" stroke="midnightblue" d="M357.24,-129.14C365.12,-130.1 373.06,-131.08 380.56,-132 498.88,-146.44 635.84,-162.66 719.11,-172.73"/>
<polygon fill="midnightblue" stroke="midnightblue" points="718.9,-176.23 729.25,-173.96 719.74,-169.28 718.9,-176.23"/>
</g>
<!-- Node31&#45;&gt;Node5 -->
<g id="edge58" class="edge">
<title>Node31&#45;&gt;Node5</title>
<path fill="none" stroke="midnightblue" d="M1736.33,-173.95C1718.61,-165.33 1692.45,-150.67 1674.56,-132 1647.71,-103.98 1664.38,-76.72 1631.56,-56 1580.15,-23.54 1149.06,-13.67 1026.78,-11.51"/>
<polygon fill="midnightblue" stroke="midnightblue" points="1026.63,-8 1016.57,-11.33 1026.51,-15 1026.63,-8"/>
</g>
<!-- Node31&#45;&gt;Node22 -->
<g id="edge57" class="edge">
<title>Node31&#45;&gt;Node22</title>
<path fill="none" stroke="midnightblue" d="M1795.66,-180.34C1859.24,-175.99 1978.63,-163.72 2004.56,-132 2037.36,-91.88 1966.93,-46.35 1925.68,-24.33"/>
<polygon fill="midnightblue" stroke="midnightblue" points="1927.12,-21.14 1916.63,-19.63 1923.89,-27.35 1927.12,-21.14"/>
</g>
<!-- Node32 -->
<g id="node32" class="node">
<title>Node32</title>
<g id="a_node32"><a xlink:title=" ">
<polygon fill="white" stroke="#bfbfbf" points="1795.56,-112.5 1795.56,-131.5 1847.56,-131.5 1847.56,-112.5 1795.56,-112.5"/>
<text text-anchor="middle" x="1821.56" y="-119.5" font-family="Helvetica,sans-Serif" font-size="10.00">cassert</text>
</a>
</g>
</g>
<!-- Node31&#45;&gt;Node32 -->
<g id="edge53" class="edge">
<title>Node31&#45;&gt;Node32</title>
<path fill="none" stroke="midnightblue" d="M1765.02,-173.98C1775.31,-164.7 1791.98,-149.67 1804.56,-138.33"/>
<polygon fill="midnightblue" stroke="midnightblue" points="1807.04,-140.8 1812.12,-131.51 1802.35,-135.61 1807.04,-140.8"/>
</g>
<!-- Node33 -->
<g id="node33" class="node">
<title>Node33</title>
<g id="a_node33"><a xlink:title=" ">
<polygon fill="white" stroke="#bfbfbf" points="1866.06,-112.5 1866.06,-131.5 1917.06,-131.5 1917.06,-112.5 1866.06,-112.5"/>
<text text-anchor="middle" x="1891.56" y="-119.5" font-family="Helvetica,sans-Serif" font-size="10.00">csignal</text>
</a>
</g>
</g>
<!-- Node31&#45;&gt;Node33 -->
<g id="edge54" class="edge">
<title>Node31&#45;&gt;Node33</title>
<path fill="none" stroke="midnightblue" d="M1775.05,-173.98C1797.97,-163.95 1836.25,-147.2 1862.64,-135.65"/>
<polygon fill="midnightblue" stroke="midnightblue" points="1864.35,-138.72 1872.11,-131.51 1861.55,-132.31 1864.35,-138.72"/>
</g>
<!-- Node34 -->
<g id="node34" class="node">
<title>Node34</title>
<g id="a_node34"><a xlink:title=" ">
<polygon fill="white" stroke="#bfbfbf" points="1935.56,-112.5 1935.56,-131.5 1995.56,-131.5 1995.56,-112.5 1935.56,-112.5"/>
<text text-anchor="middle" x="1965.56" y="-119.5" font-family="Helvetica,sans-Serif" font-size="10.00">iostream</text>
</a>
</g>
</g>
<!-- Node31&#45;&gt;Node34 -->
<g id="edge55" class="edge">
<title>Node31&#45;&gt;Node34</title>
<path fill="none" stroke="midnightblue" d="M1785.65,-173.98C1822.45,-163.55 1884.87,-145.86 1925.66,-134.31"/>
<polygon fill="midnightblue" stroke="midnightblue" points="1926.86,-137.6 1935.53,-131.51 1924.95,-130.87 1926.86,-137.6"/>
</g>
<!-- Node35 -->
<g id="node35" class="node">
<title>Node35</title>
<g id="a_node35"><a xlink:title=" ">
<polygon fill="white" stroke="#bfbfbf" points="1684.06,-112.5 1684.06,-131.5 1777.06,-131.5 1777.06,-112.5 1684.06,-112.5"/>
<text text-anchor="middle" x="1730.56" y="-119.5" font-family="Helvetica,sans-Serif" font-size="10.00">spdlog/spdlog.h</text>
</a>
</g>
</g>
<!-- Node31&#45;&gt;Node35 -->
<g id="edge56" class="edge">
<title>Node31&#45;&gt;Node35</title>
<path fill="none" stroke="midnightblue" d="M1751.98,-173.98C1748.38,-165.4 1742.72,-151.93 1738.12,-140.98"/>
<polygon fill="midnightblue" stroke="midnightblue" points="1741.24,-139.37 1734.14,-131.51 1734.78,-142.08 1741.24,-139.37"/>
</g>
<!-- Node38&#45;&gt;Node5 -->
<g id="edge67" class="edge">
<title>Node38&#45;&gt;Node5</title>
<path fill="none" stroke="midnightblue" d="M1369.68,-235.47C1443.68,-213.07 1630.84,-151.6 1597.56,-112 1523.48,-23.82 1141.72,-12.56 1027.12,-11.18"/>
<polygon fill="midnightblue" stroke="midnightblue" points="1026.92,-7.68 1016.89,-11.07 1026.85,-14.68 1026.92,-7.68"/>
</g>
<!-- Node39 -->
<g id="node39" class="node">
<title>Node39</title>
<g id="a_node39"><a xlink:title=" ">
<polygon fill="white" stroke="#bfbfbf" points="1315.56,-174 1315.56,-193 1365.56,-193 1365.56,-174 1315.56,-174"/>
<text text-anchor="middle" x="1340.56" y="-181" font-family="Helvetica,sans-Serif" font-size="10.00">cstdint</text>
</a>
</g>
</g>
<!-- Node38&#45;&gt;Node39 -->
<g id="edge66" class="edge">
<title>Node38&#45;&gt;Node39</title>
<path fill="none" stroke="midnightblue" d="M1340.56,-235.48C1340.56,-227.08 1340.56,-213.98 1340.56,-203.16"/>
<polygon fill="midnightblue" stroke="midnightblue" points="1344.06,-203.01 1340.56,-193.01 1337.06,-203.01 1344.06,-203.01"/>
</g>
</g>
</svg>
