<?xml version="1.0" encoding="UTF-8" standalone="no"?>
<!DOCTYPE svg PUBLIC "-//W3C//DTD SVG 1.1//EN"
 "http://www.w3.org/Graphics/SVG/1.1/DTD/svg11.dtd">
<!-- Generated by graphviz version 2.43.0 (0)
 -->
<!-- Title: Leosac::Auth::AccessPoint Pages: 1 -->
<!--zoomable 240 -->
<svg id="main" version="1.1" xmlns="http://www.w3.org/2000/svg" xmlns:xlink="http://www.w3.org/1999/xlink" xml:space="preserve" onload="init(evt)">
<style type="text/css"><![CDATA[
.edge:hover path { stroke: red; }
.edge:hover polygon { stroke: red; fill: red; }
]]></style>
<script type="text/javascript"><![CDATA[
var edges = document.getElementsByTagName('g');
if (edges && edges.length) {
  for (var i=0;i<edges.length;i++) {
    if (edges[i].id.substr(0,4)=='edge') {
      edges[i].setAttribute('class','edge');
    }
  }
}
]]></script>
        <defs>
                <circle id="rim" cx="0" cy="0" r="7"/>
                <circle id="rim2" cx="0" cy="0" r="3.5"/>
                <g id="zoomPlus">
                        <use xlink:href="#rim" fill="#404040">
                                <set attributeName="fill" to="#808080" begin="zoomplus.mouseover" end="zoomplus.mouseout"/>
                        </use>
                        <path d="M-4,0h8M0,-4v8" fill="none" stroke="white" stroke-width="1.5" pointer-events="none"/>
                </g>
                <g id="zoomMin">
                        <use xlink:href="#rim" fill="#404040">
                                <set attributeName="fill" to="#808080" begin="zoomminus.mouseover" end="zoomminus.mouseout"/>
                        </use>
                        <path d="M-4,0h8" fill="none" stroke="white" stroke-width="1.5" pointer-events="none"/>
                </g>
                <g id="dirArrow">
                        <path fill="none" stroke="white" stroke-width="1.5" d="M0,-3.0v7 M-2.5,-0.5L0,-3.0L2.5,-0.5"/>
                </g>
               <g id="resetDef">
                       <use xlink:href="#rim2" fill="#404040">
                               <set attributeName="fill" to="#808080" begin="reset.mouseover" end="reset.mouseout"/>
                       </use>
               </g>
        </defs>

<script type="text/javascript">
var viewWidth = 1218;
var viewHeight = 240;
var sectionId = 'dynsection-1';
</script>
<script xlink:href="../../svgpan.js"/>
<svg id="graph" class="graph">
<g id="viewport">
<title>Leosac::Auth::AccessPoint</title>
<polygon fill="white" stroke="transparent" points="-4,4 -4,-236 1214,-236 1214,4 -4,4"/>
<!-- Node1 -->
<g id="node1" class="node">
<title>Node1</title>
<g id="a_node1"><a xlink:title=" ">
<polygon fill="#bfbfbf" stroke="black" points="420,-156 420,-175 563,-175 563,-156 420,-156"/>
<text text-anchor="middle" x="491.5" y="-163" font-family="Helvetica,sans-Serif" font-size="10.00">Leosac::Auth::AccessPoint</text>
</a>
</g>
</g>
<!-- Node11 -->
<g id="node11" class="node">
<title>Node11</title>
<g id="a_node11"><a xlink:title=" ">
<polygon fill="white" stroke="#bfbfbf" points="638,-137.5 638,-167.5 772,-167.5 772,-137.5 638,-137.5"/>
<text text-anchor="start" x="646" y="-155.5" font-family="Helvetica,sans-Serif" font-size="10.00">std::shared_ptr&lt; Leosac</text>
<text text-anchor="middle" x="705" y="-144.5" font-family="Helvetica,sans-Serif" font-size="10.00">::Auth::AccessPoint &gt;</text>
</a>
</g>
</g>
<!-- Node1&#45;&gt;Node11 -->
<g id="edge11" class="edge">
<title>Node1&#45;&gt;Node11</title>
<path fill="none" stroke="#9a32cd" stroke-dasharray="5,2" d="M573.26,-160.54C594.65,-159.22 617.49,-157.82 637.99,-156.56"/>
<polygon fill="#9a32cd" stroke="#9a32cd" points="572.99,-157.05 563.22,-161.15 573.42,-164.03 572.99,-157.05"/>
<text text-anchor="middle" x="597" y="-162.5" font-family="Helvetica,sans-Serif" font-size="10.00"> ptr</text>
</g>
<!-- Node2 -->
<g id="node2" class="node">
<title>Node2</title>
<g id="a_node2"><a xlink:href="../../de/dd9/classLeosac_1_1Auth_1_1IAccessPoint.html" target="_top" xlink:title="An interface for access point.">
<polygon fill="white" stroke="black" points="142.5,-163 142.5,-182 288.5,-182 288.5,-163 142.5,-163"/>
<text text-anchor="middle" x="215.5" y="-170" font-family="Helvetica,sans-Serif" font-size="10.00">Leosac::Auth::IAccessPoint</text>
</a>
</g>
</g>
<!-- Node2&#45;&gt;Node1 -->
<g id="edge1" class="edge">
<title>Node2&#45;&gt;Node1</title>
<path fill="none" stroke="midnightblue" d="M298.98,-170.39C337.44,-169.41 382.75,-168.25 419.64,-167.31"/>
<polygon fill="midnightblue" stroke="midnightblue" points="298.76,-166.9 288.85,-170.65 298.93,-173.9 298.76,-166.9"/>
</g>
<!-- Node3 -->
<g id="node3" class="node">
<title>Node3</title>
<g id="a_node3"><a xlink:title=" ">
<polygon fill="white" stroke="#bfbfbf" points="141,-113.5 141,-143.5 290,-143.5 290,-113.5 141,-113.5"/>
<text text-anchor="start" x="149" y="-131.5" font-family="Helvetica,sans-Serif" font-size="10.00">std::enable_shared</text>
<text text-anchor="middle" x="215.5" y="-120.5" font-family="Helvetica,sans-Serif" font-size="10.00">_from_this&lt; AccessPoint &gt;</text>
</a>
</g>
</g>
<!-- Node3&#45;&gt;Node1 -->
<g id="edge2" class="edge">
<title>Node3&#45;&gt;Node1</title>
<path fill="none" stroke="midnightblue" d="M300.37,-139.83C338.62,-144.99 383.4,-151.04 419.89,-155.97"/>
<polygon fill="midnightblue" stroke="midnightblue" points="300.67,-136.33 290.29,-138.46 299.73,-143.27 300.67,-136.33"/>
</g>
<!-- Node4 -->
<g id="node4" class="node">
<title>Node4</title>
<g id="a_node4"><a xlink:title="STL class.">
<polygon fill="white" stroke="#bfbfbf" points="183,-63 183,-82 248,-82 248,-63 183,-63"/>
<text text-anchor="middle" x="215.5" y="-70" font-family="Helvetica,sans-Serif" font-size="10.00">std::string</text>
</a>
</g>
</g>
<!-- Node4&#45;&gt;Node1 -->
<g id="edge3" class="edge">
<title>Node4&#45;&gt;Node1</title>
<path fill="none" stroke="#9a32cd" stroke-dasharray="5,2" d="M258.48,-74.59C297.04,-77.68 355.11,-85.38 402,-104.5 433.1,-117.18 464.22,-142.19 479.96,-155.92"/>
<polygon fill="#9a32cd" stroke="#9a32cd" points="258.38,-71.07 248.15,-73.83 257.87,-78.05 258.38,-71.07"/>
<text text-anchor="middle" x="355" y="-129.5" font-family="Helvetica,sans-Serif" font-size="10.00"> alias_</text>
<text text-anchor="middle" x="355" y="-118.5" font-family="Helvetica,sans-Serif" font-size="10.00">description_</text>
<text text-anchor="middle" x="355" y="-107.5" font-family="Helvetica,sans-Serif" font-size="10.00">controller_module_</text>
</g>
<!-- Node8 -->
<g id="node8" class="node">
<title>Node8</title>
<g id="a_node8"><a xlink:href="../../db/d95/classLeosac_1_1Auth_1_1Door.html" target="_top" xlink:title="Represent a door.">
<polygon fill="white" stroke="black" points="921,-94 921,-113 1029,-113 1029,-94 921,-94"/>
<text text-anchor="middle" x="975" y="-101" font-family="Helvetica,sans-Serif" font-size="10.00">Leosac::Auth::Door</text>
</a>
</g>
</g>
<!-- Node4&#45;&gt;Node8 -->
<g id="edge12" class="edge">
<title>Node4&#45;&gt;Node8</title>
<path fill="none" stroke="#9a32cd" stroke-dasharray="5,2" d="M258.46,-71.28C352.02,-68.91 584.81,-65.06 779,-78.5 827.18,-81.83 881.67,-89.12 920.78,-94.97"/>
<polygon fill="#9a32cd" stroke="#9a32cd" points="258.17,-67.78 248.27,-71.54 258.36,-74.78 258.17,-67.78"/>
<text text-anchor="middle" x="597" y="-85.5" font-family="Helvetica,sans-Serif" font-size="10.00"> alias_</text>
<text text-anchor="middle" x="597" y="-74.5" font-family="Helvetica,sans-Serif" font-size="10.00">desc_</text>
</g>
<!-- Node5 -->
<g id="node5" class="node">
<title>Node5</title>
<g id="a_node5"><a xlink:title="STL class.">
<polygon fill="white" stroke="#bfbfbf" points="0,-57.5 0,-87.5 104,-87.5 104,-57.5 0,-57.5"/>
<text text-anchor="start" x="8" y="-75.5" font-family="Helvetica,sans-Serif" font-size="10.00">std::basic_string&lt;</text>
<text text-anchor="middle" x="52" y="-64.5" font-family="Helvetica,sans-Serif" font-size="10.00"> char &gt;</text>
</a>
</g>
</g>
<!-- Node5&#45;&gt;Node4 -->
<g id="edge4" class="edge">
<title>Node5&#45;&gt;Node4</title>
<path fill="none" stroke="midnightblue" d="M114.31,-72.5C137.73,-72.5 163.46,-72.5 182.98,-72.5"/>
<polygon fill="midnightblue" stroke="midnightblue" points="114.1,-69 104.1,-72.5 114.1,-76 114.1,-69"/>
</g>
<!-- Node6 -->
<g id="node6" class="node">
<title>Node6</title>
<g id="a_node6"><a xlink:title=" ">
<polygon fill="white" stroke="#bfbfbf" points="146.5,-201.5 146.5,-231.5 284.5,-231.5 284.5,-201.5 146.5,-201.5"/>
<text text-anchor="start" x="154.5" y="-219.5" font-family="Helvetica,sans-Serif" font-size="10.00">std::vector&lt; AccessPoint</text>
<text text-anchor="middle" x="215.5" y="-208.5" font-family="Helvetica,sans-Serif" font-size="10.00">UpdateLPtr &gt;</text>
</a>
</g>
</g>
<!-- Node6&#45;&gt;Node1 -->
<g id="edge5" class="edge">
<title>Node6&#45;&gt;Node1</title>
<path fill="none" stroke="#9a32cd" stroke-dasharray="5,2" d="M294.87,-202.29C327.94,-196.25 366.86,-189.1 402,-182.5 414.76,-180.1 428.55,-177.48 441.36,-175.02"/>
<polygon fill="#9a32cd" stroke="#9a32cd" points="294.01,-198.89 284.8,-204.12 295.27,-205.77 294.01,-198.89"/>
<text text-anchor="middle" x="355" y="-201.5" font-family="Helvetica,sans-Serif" font-size="10.00"> updates_</text>
</g>
<!-- Node7 -->
<g id="node7" class="node">
<title>Node7</title>
<g id="a_node7"><a xlink:title=" ">
<polygon fill="white" stroke="#bfbfbf" points="1082,-135.5 1082,-165.5 1210,-165.5 1210,-135.5 1082,-135.5"/>
<text text-anchor="start" x="1090" y="-153.5" font-family="Helvetica,sans-Serif" font-size="10.00">std::weak_ptr&lt; Leosac</text>
<text text-anchor="middle" x="1146" y="-142.5" font-family="Helvetica,sans-Serif" font-size="10.00">::Auth::Door &gt;</text>
</a>
</g>
</g>
<!-- Node7&#45;&gt;Node1 -->
<g id="edge6" class="edge">
<title>Node7&#45;&gt;Node1</title>
<path fill="none" stroke="#9a32cd" stroke-dasharray="5,2" d="M1071.81,-157.49C997.99,-164.17 880.71,-173.75 779,-177.5 713.27,-179.92 696.75,-179.47 631,-177.5 608.93,-176.84 584.94,-175.12 563.22,-173.18"/>
<polygon fill="#9a32cd" stroke="#9a32cd" points="1072.29,-160.96 1081.93,-156.57 1071.65,-153.99 1072.29,-160.96"/>
<text text-anchor="middle" x="850" y="-179.5" font-family="Helvetica,sans-Serif" font-size="10.00"> door_</text>
</g>
<!-- Node8&#45;&gt;Node7 -->
<g id="edge7" class="edge">
<title>Node8&#45;&gt;Node7</title>
<path fill="none" stroke="#9a32cd" stroke-dasharray="5,2" d="M1020.11,-115.77C1041.76,-121.79 1068.03,-129.1 1090.89,-135.45"/>
<polygon fill="#9a32cd" stroke="#9a32cd" points="1020.77,-112.32 1010.2,-113.01 1018.9,-119.06 1020.77,-112.32"/>
<text text-anchor="middle" x="1055.5" y="-129.5" font-family="Helvetica,sans-Serif" font-size="10.00"> ptr</text>
</g>
<!-- Node9 -->
<g id="node9" class="node">
<title>Node9</title>
<g id="a_node9"><a xlink:href="../../dd/dbf/classLeosac_1_1Auth_1_1IDoor.html" target="_top" xlink:title="A door.">
<polygon fill="white" stroke="black" points="649.5,-9 649.5,-28 760.5,-28 760.5,-9 649.5,-9"/>
<text text-anchor="middle" x="705" y="-16" font-family="Helvetica,sans-Serif" font-size="10.00">Leosac::Auth::IDoor</text>
</a>
</g>
</g>
<!-- Node9&#45;&gt;Node8 -->
<g id="edge8" class="edge">
<title>Node9&#45;&gt;Node8</title>
<path fill="none" stroke="midnightblue" d="M770.88,-18.59C810.5,-20.75 861.36,-27.37 903,-45.5 928.98,-56.81 953.16,-80.43 965.48,-93.78"/>
<polygon fill="midnightblue" stroke="midnightblue" points="770.96,-15.09 760.81,-18.12 770.64,-22.08 770.96,-15.09"/>
</g>
<!-- Node10 -->
<g id="node10" class="node">
<title>Node10</title>
<g id="a_node10"><a xlink:title=" ">
<polygon fill="white" stroke="#bfbfbf" points="433,-0.5 433,-30.5 550,-30.5 550,-0.5 433,-0.5"/>
<text text-anchor="start" x="441" y="-18.5" font-family="Helvetica,sans-Serif" font-size="10.00">std::enable_shared</text>
<text text-anchor="middle" x="491.5" y="-7.5" font-family="Helvetica,sans-Serif" font-size="10.00">_from_this&lt; IDoor &gt;</text>
</a>
</g>
</g>
<!-- Node10&#45;&gt;Node9 -->
<g id="edge9" class="edge">
<title>Node10&#45;&gt;Node9</title>
<path fill="none" stroke="midnightblue" d="M560.02,-16.46C588.89,-16.87 622.14,-17.34 649.41,-17.73"/>
<polygon fill="midnightblue" stroke="midnightblue" points="560.06,-12.96 550.01,-16.32 559.96,-19.96 560.06,-12.96"/>
</g>
<!-- Node11&#45;&gt;Node8 -->
<g id="edge10" class="edge">
<title>Node11&#45;&gt;Node8</title>
<path fill="none" stroke="#9a32cd" stroke-dasharray="5,2" d="M782.32,-140.01C818.89,-133.85 863.28,-126.12 903,-118.5 911.78,-116.81 921.16,-114.91 930.12,-113.04"/>
<polygon fill="#9a32cd" stroke="#9a32cd" points="781.51,-136.6 772.23,-141.7 782.67,-143.5 781.51,-136.6"/>
<text text-anchor="middle" x="850" y="-139.5" font-family="Helvetica,sans-Serif" font-size="10.00"> access_point_</text>
</g>
<!-- Node12 -->
<g id="node12" class="node">
<title>Node12</title>
<g id="a_node12"><a xlink:title=" ">
<polygon fill="white" stroke="#bfbfbf" points="631,-88.5 631,-118.5 779,-118.5 779,-88.5 631,-88.5"/>
<text text-anchor="start" x="639" y="-106.5" font-family="Helvetica,sans-Serif" font-size="10.00">std::vector&lt; Tools</text>
<text text-anchor="middle" x="705" y="-95.5" font-family="Helvetica,sans-Serif" font-size="10.00">::ScheduleMappingLWPtr &gt;</text>
</a>
</g>
</g>
<!-- Node12&#45;&gt;Node8 -->
<g id="edge13" class="edge">
<title>Node12&#45;&gt;Node8</title>
<path fill="none" stroke="#9a32cd" stroke-dasharray="5,2" d="M789.38,-103.5C832.29,-103.5 883.31,-103.5 920.83,-103.5"/>
<polygon fill="#9a32cd" stroke="#9a32cd" points="789.23,-100 779.23,-103.5 789.23,-107 789.23,-100"/>
<text text-anchor="middle" x="850" y="-106.5" font-family="Helvetica,sans-Serif" font-size="10.00"> schedules_mapping_</text>
</g>
</g>
</svg>
        <g id="navigator" transform="translate(0 0)" fill="#404254">
                <rect fill="#f2f5e9" fill-opacity="0.5" stroke="#606060" stroke-width=".5" x="0" y="0" width="60" height="60"/>
                <use id="zoomplus" xlink:href="#zoomPlus" x="17" y="9" onmousedown="handleZoom(evt,'in')"/>
                <use id="zoomminus" xlink:href="#zoomMin" x="42" y="9" onmousedown="handleZoom(evt,'out')"/>
                <use id="reset" xlink:href="#resetDef" x="30" y="36" onmousedown="handleReset()"/>
                <g id="arrowUp" xlink:href="#dirArrow" transform="translate(30 24)" onmousedown="handlePan(0,-1)">
                  <use xlink:href="#rim" fill="#404040">
                        <set attributeName="fill" to="#808080" begin="arrowUp.mouseover" end="arrowUp.mouseout"/>
                  </use>
                  <path fill="none" stroke="white" stroke-width="1.5" d="M0,-3.0v7 M-2.5,-0.5L0,-3.0L2.5,-0.5"/>
                </g>
                <g id="arrowRight" xlink:href="#dirArrow" transform="rotate(90) translate(36 -43)" onmousedown="handlePan(1,0)">
                  <use xlink:href="#rim" fill="#404040">
                        <set attributeName="fill" to="#808080" begin="arrowRight.mouseover" end="arrowRight.mouseout"/>
                  </use>
                  <path fill="none" stroke="white" stroke-width="1.5" d="M0,-3.0v7 M-2.5,-0.5L0,-3.0L2.5,-0.5"/>
                </g>
                <g id="arrowDown" xlink:href="#dirArrow" transform="rotate(180) translate(-30 -48)" onmousedown="handlePan(0,1)">
                  <use xlink:href="#rim" fill="#404040">
                        <set attributeName="fill" to="#808080" begin="arrowDown.mouseover" end="arrowDown.mouseout"/>
                  </use>
                  <path fill="none" stroke="white" stroke-width="1.5" d="M0,-3.0v7 M-2.5,-0.5L0,-3.0L2.5,-0.5"/>
                </g>
                <g id="arrowLeft" xlink:href="#dirArrow" transform="rotate(270) translate(-36 17)" onmousedown="handlePan(-1,0)">
                  <use xlink:href="#rim" fill="#404040">
                        <set attributeName="fill" to="#808080" begin="arrowLeft.mouseover" end="arrowLeft.mouseout"/>
                  </use>
                  <path fill="none" stroke="white" stroke-width="1.5" d="M0,-3.0v7 M-2.5,-0.5L0,-3.0L2.5,-0.5"/>
                </g>
        </g>
        <svg viewBox="0 0 15 15" width="100%" height="30px" preserveAspectRatio="xMaxYMin meet">
         <g id="arrow_out" transform="scale(0.3 0.3)">
          <a xlink:href="classLeosac_1_1Auth_1_1AccessPoint__coll__graph_org.svg" target="_base">
           <rect id="button" ry="5" rx="5" y="6" x="6" height="38" width="38"
                fill="#f2f5e9" fill-opacity="0.5" stroke="#606060" stroke-width="1.0"/>
           <path id="arrow"
             d="M 11.500037,31.436501 C 11.940474,20.09759 22.043105,11.32322 32.158766,21.979434 L 37.068811,17.246167 C 37.068811,17.246167 37.088388,32 37.088388,32 L 22.160133,31.978069 C 22.160133,31.978069 26.997745,27.140456 26.997745,27.140456 C 18.528582,18.264221 13.291696,25.230495 11.500037,31.436501 z"
             style="fill:#404040;"/>
          </a>
         </g>
        </svg>
</svg>
