<?xml version="1.0" encoding="UTF-8" standalone="no"?>
<!DOCTYPE svg PUBLIC "-//W3C//DTD SVG 1.1//EN"
 "http://www.w3.org/Graphics/SVG/1.1/DTD/svg11.dtd">
<!-- Generated by graphviz version 2.43.0 (0)
 -->
<!-- Title: Leosac::db::MultiplexedSession Pages: 1 -->
<svg width="177pt" height="106pt"
 viewBox="0.00 0.00 177.00 106.00" xmlns="http://www.w3.org/2000/svg" xmlns:xlink="http://www.w3.org/1999/xlink">
<g id="graph0" class="graph" transform="scale(1 1) rotate(0) translate(4 102)">
<title>Leosac::db::MultiplexedSession</title>
<polygon fill="white" stroke="transparent" points="-4,4 -4,-102 173,-102 173,4 -4,4"/>
<!-- Node1 -->
<g id="node1" class="node">
<title>Node1</title>
<g id="a_node1"><a xlink:title="Acts like an odb::session, with the exception that it will save the current active session (if any) a...">
<polygon fill="#bfbfbf" stroke="black" points="0,-0.5 0,-19.5 169,-19.5 169,-0.5 0,-0.5"/>
<text text-anchor="middle" x="84.5" y="-7.5" font-family="Helvetica,sans-Serif" font-size="10.00">Leosac::db::MultiplexedSession</text>
</a>
</g>
</g>
<!-- Node2 -->
<g id="node2" class="node">
<title>Node2</title>
<g id="a_node2"><a xlink:title=" ">
<polygon fill="white" stroke="#bfbfbf" points="25,-67.5 25,-97.5 144,-97.5 144,-67.5 25,-67.5"/>
<text text-anchor="start" x="33" y="-85.5" font-family="Helvetica,sans-Serif" font-size="10.00">std::unique_ptr&lt; odb</text>
<text text-anchor="middle" x="84.5" y="-74.5" font-family="Helvetica,sans-Serif" font-size="10.00">::session &gt;</text>
</a>
</g>
</g>
<!-- Node2&#45;&gt;Node1 -->
<g id="edge1" class="edge">
<title>Node2&#45;&gt;Node1</title>
<path fill="none" stroke="#9a32cd" stroke-dasharray="5,2" d="M84.5,-57.09C84.5,-44.21 84.5,-29.2 84.5,-19.89"/>
<polygon fill="#9a32cd" stroke="#9a32cd" points="81,-57.23 84.5,-67.23 88,-57.23 81,-57.23"/>
<text text-anchor="middle" x="107.5" y="-41" font-family="Helvetica,sans-Serif" font-size="10.00"> session_</text>
</g>
</g>
</svg>
