<?xml version="1.0" encoding="UTF-8" standalone="no"?>
<!DOCTYPE svg PUBLIC "-//W3C//DTD SVG 1.1//EN"
 "http://www.w3.org/Graphics/SVG/1.1/DTD/svg11.dtd">
<!-- Generated by graphviz version 2.43.0 (0)
 -->
<!-- Title: src/core/credentials/Credential.cpp Pages: 1 -->
<!--zoomable 341 -->
<svg id="main" version="1.1" xmlns="http://www.w3.org/2000/svg" xmlns:xlink="http://www.w3.org/1999/xlink" xml:space="preserve" onload="init(evt)">
<style type="text/css"><![CDATA[
.edge:hover path { stroke: red; }
.edge:hover polygon { stroke: red; fill: red; }
]]></style>
<script type="text/javascript"><![CDATA[
var edges = document.getElementsByTagName('g');
if (edges && edges.length) {
  for (var i=0;i<edges.length;i++) {
    if (edges[i].id.substr(0,4)=='edge') {
      edges[i].setAttribute('class','edge');
    }
  }
}
]]></script>
        <defs>
                <circle id="rim" cx="0" cy="0" r="7"/>
                <circle id="rim2" cx="0" cy="0" r="3.5"/>
                <g id="zoomPlus">
                        <use xlink:href="#rim" fill="#404040">
                                <set attributeName="fill" to="#808080" begin="zoomplus.mouseover" end="zoomplus.mouseout"/>
                        </use>
                        <path d="M-4,0h8M0,-4v8" fill="none" stroke="white" stroke-width="1.5" pointer-events="none"/>
                </g>
                <g id="zoomMin">
                        <use xlink:href="#rim" fill="#404040">
                                <set attributeName="fill" to="#808080" begin="zoomminus.mouseover" end="zoomminus.mouseout"/>
                        </use>
                        <path d="M-4,0h8" fill="none" stroke="white" stroke-width="1.5" pointer-events="none"/>
                </g>
                <g id="dirArrow">
                        <path fill="none" stroke="white" stroke-width="1.5" d="M0,-3.0v7 M-2.5,-0.5L0,-3.0L2.5,-0.5"/>
                </g>
               <g id="resetDef">
                       <use xlink:href="#rim2" fill="#404040">
                               <set attributeName="fill" to="#808080" begin="reset.mouseover" end="reset.mouseout"/>
                       </use>
               </g>
        </defs>

<script type="text/javascript">
var viewWidth = 867;
var viewHeight = 341;
var sectionId = 'dynsection-0';
</script>
<script xlink:href="../../svgpan.js"/>
<svg id="graph" class="graph">
<g id="viewport">
<title>src/core/credentials/Credential.cpp</title>
<polygon fill="white" stroke="transparent" points="-4,4 -4,-337 863.33,-337 863.33,4 -4,4"/>
<!-- Node1 -->
<g id="node1" class="node">
<title>Node1</title>
<g id="a_node1"><a xlink:title=" ">
<polygon fill="#bfbfbf" stroke="black" points="494.33,-302.5 494.33,-332.5 606.33,-332.5 606.33,-302.5 494.33,-302.5"/>
<text text-anchor="start" x="502.33" y="-320.5" font-family="Helvetica,sans-Serif" font-size="10.00">src/core/credentials</text>
<text text-anchor="middle" x="550.33" y="-309.5" font-family="Helvetica,sans-Serif" font-size="10.00">/Credential.cpp</text>
</a>
</g>
</g>
<!-- Node2 -->
<g id="node2" class="node">
<title>Node2</title>
<g id="a_node2"><a xlink:href="../../d1/d40/Credential_8hpp.html" target="_top" xlink:title=" ">
<polygon fill="white" stroke="black" points="282.83,-246.5 282.83,-265.5 451.83,-265.5 451.83,-246.5 282.83,-246.5"/>
<text text-anchor="middle" x="367.33" y="-253.5" font-family="Helvetica,sans-Serif" font-size="10.00">core/credentials/Credential.hpp</text>
</a>
</g>
</g>
<!-- Node1&#45;&gt;Node2 -->
<g id="edge1" class="edge">
<title>Node1&#45;&gt;Node2</title>
<path fill="none" stroke="midnightblue" d="M506.96,-302.4C475.34,-292.12 432.99,-278.35 403.26,-268.68"/>
<polygon fill="midnightblue" stroke="midnightblue" points="404.28,-265.33 393.69,-265.57 402.12,-271.99 404.28,-265.33"/>
</g>
<!-- Node19 -->
<g id="node19" class="node">
<title>Node19</title>
<g id="a_node19"><a xlink:title=" ">
<polygon fill="white" stroke="#bfbfbf" points="490.33,-246.5 490.33,-265.5 610.33,-265.5 610.33,-246.5 490.33,-246.5"/>
<text text-anchor="middle" x="550.33" y="-253.5" font-family="Helvetica,sans-Serif" font-size="10.00">core/auth/User_odb.h</text>
</a>
</g>
</g>
<!-- Node1&#45;&gt;Node19 -->
<g id="edge28" class="edge">
<title>Node1&#45;&gt;Node19</title>
<path fill="none" stroke="midnightblue" d="M550.33,-302.4C550.33,-294.47 550.33,-284.46 550.33,-275.86"/>
<polygon fill="midnightblue" stroke="midnightblue" points="553.83,-275.66 550.33,-265.66 546.83,-275.66 553.83,-275.66"/>
</g>
<!-- Node20 -->
<g id="node20" class="node">
<title>Node20</title>
<g id="a_node20"><a xlink:href="../../d3/d85/CredentialValidator_8hpp.html" target="_top" xlink:title=" ">
<polygon fill="white" stroke="black" points="585.33,-179.5 585.33,-209.5 733.33,-209.5 733.33,-179.5 585.33,-179.5"/>
<text text-anchor="start" x="593.33" y="-197.5" font-family="Helvetica,sans-Serif" font-size="10.00">core/credentials/Credential</text>
<text text-anchor="middle" x="659.33" y="-186.5" font-family="Helvetica,sans-Serif" font-size="10.00">Validator.hpp</text>
</a>
</g>
</g>
<!-- Node1&#45;&gt;Node20 -->
<g id="edge29" class="edge">
<title>Node1&#45;&gt;Node20</title>
<path fill="none" stroke="midnightblue" d="M574.69,-302.32C588.9,-293.21 606.49,-280.41 619.33,-266 631.8,-252 642.12,-233.47 649.16,-218.92"/>
<polygon fill="midnightblue" stroke="midnightblue" points="652.45,-220.14 653.49,-209.59 646.1,-217.19 652.45,-220.14"/>
</g>
<!-- Node3 -->
<g id="node3" class="node">
<title>Node3</title>
<g id="a_node3"><a xlink:href="../../dc/d49/LeosacFwd_8hpp.html" target="_top" xlink:title=" ">
<polygon fill="white" stroke="black" points="767.33,-185 767.33,-204 859.33,-204 859.33,-185 767.33,-185"/>
<text text-anchor="middle" x="813.33" y="-192" font-family="Helvetica,sans-Serif" font-size="10.00">LeosacFwd.hpp</text>
</a>
</g>
</g>
<!-- Node2&#45;&gt;Node3 -->
<g id="edge2" class="edge">
<title>Node2&#45;&gt;Node3</title>
<path fill="none" stroke="midnightblue" d="M452.12,-246.83C528.31,-239.01 643.13,-226.05 742.33,-210 749.5,-208.84 757.05,-207.46 764.44,-206.03"/>
<polygon fill="midnightblue" stroke="midnightblue" points="765.25,-209.44 774.37,-204.05 763.88,-202.57 765.25,-209.44"/>
</g>
<!-- Node6 -->
<g id="node6" class="node">
<title>Node6</title>
<g id="a_node6"><a xlink:href="../../d3/d6f/AuthFwd_8hpp.html" target="_top" xlink:title=" ">
<polygon fill="white" stroke="black" points="271.83,-118 271.83,-137 400.83,-137 400.83,-118 271.83,-118"/>
<text text-anchor="middle" x="336.33" y="-125" font-family="Helvetica,sans-Serif" font-size="10.00">core/auth/AuthFwd.hpp</text>
</a>
</g>
</g>
<!-- Node2&#45;&gt;Node6 -->
<g id="edge5" class="edge">
<title>Node2&#45;&gt;Node6</title>
<path fill="none" stroke="midnightblue" d="M364.4,-246.44C361.38,-237.44 356.65,-222.83 353.33,-210 347.79,-188.63 342.81,-163.74 339.69,-147.15"/>
<polygon fill="midnightblue" stroke="midnightblue" points="343.1,-146.33 337.84,-137.13 336.21,-147.6 343.1,-146.33"/>
</g>
<!-- Node7 -->
<g id="node7" class="node">
<title>Node7</title>
<g id="a_node7"><a xlink:title=" ">
<polygon fill="white" stroke="#bfbfbf" points="29.83,-56.5 29.83,-75.5 82.83,-75.5 82.83,-56.5 29.83,-56.5"/>
<text text-anchor="middle" x="56.33" y="-63.5" font-family="Helvetica,sans-Serif" font-size="10.00">cstddef</text>
</a>
</g>
</g>
<!-- Node2&#45;&gt;Node7 -->
<g id="edge27" class="edge">
<title>Node2&#45;&gt;Node7</title>
<path fill="none" stroke="midnightblue" d="M282.79,-253.51C224.42,-249.68 146.28,-238.89 83.33,-210 41.48,-190.8 23.67,-184.78 4.33,-143 -1.46,-130.5 -1.4,-124.53 4.33,-112 10.1,-99.36 21.38,-88.91 31.96,-81.27"/>
<polygon fill="midnightblue" stroke="midnightblue" points="34.18,-84 40.54,-75.53 30.28,-78.18 34.18,-84"/>
</g>
<!-- Node9 -->
<g id="node9" class="node">
<title>Node9</title>
<g id="a_node9"><a xlink:href="../../dc/dfe/ValidityInfo_8hpp.html" target="_top" xlink:title=" ">
<polygon fill="white" stroke="black" points="92.33,-185 92.33,-204 234.33,-204 234.33,-185 92.33,-185"/>
<text text-anchor="middle" x="163.33" y="-192" font-family="Helvetica,sans-Serif" font-size="10.00">core/auth/ValidityInfo.hpp</text>
</a>
</g>
</g>
<!-- Node2&#45;&gt;Node9 -->
<g id="edge9" class="edge">
<title>Node2&#45;&gt;Node9</title>
<path fill="none" stroke="midnightblue" d="M338.1,-246.48C302.42,-236.07 241.97,-218.44 202.34,-206.88"/>
<polygon fill="midnightblue" stroke="midnightblue" points="203.08,-203.45 192.5,-204.01 201.12,-210.17 203.08,-203.45"/>
</g>
<!-- Node12 -->
<g id="node12" class="node">
<title>Node12</title>
<g id="a_node12"><a xlink:href="../../d0/db0/ICredential_8hpp.html" target="_top" xlink:title=" ">
<polygon fill="white" stroke="black" points="395.33,-185 395.33,-204 567.33,-204 567.33,-185 395.33,-185"/>
<text text-anchor="middle" x="481.33" y="-192" font-family="Helvetica,sans-Serif" font-size="10.00">core/credentials/ICredential.hpp</text>
</a>
</g>
</g>
<!-- Node2&#45;&gt;Node12 -->
<g id="edge13" class="edge">
<title>Node2&#45;&gt;Node12</title>
<path fill="none" stroke="midnightblue" d="M383.66,-246.48C402.54,-236.62 433.83,-220.29 455.9,-208.77"/>
<polygon fill="midnightblue" stroke="midnightblue" points="457.78,-211.74 465.02,-204.01 454.54,-205.53 457.78,-211.74"/>
</g>
<!-- Node18 -->
<g id="node18" class="node">
<title>Node18</title>
<g id="a_node18"><a xlink:href="../../d8/d97/ToolsFwd_8hpp.html" target="_top" xlink:title=" ">
<polygon fill="white" stroke="black" points="419.33,-118 419.33,-137 529.33,-137 529.33,-118 419.33,-118"/>
<text text-anchor="middle" x="474.33" y="-125" font-family="Helvetica,sans-Serif" font-size="10.00">tools/ToolsFwd.hpp</text>
</a>
</g>
</g>
<!-- Node2&#45;&gt;Node18 -->
<g id="edge26" class="edge">
<title>Node2&#45;&gt;Node18</title>
<path fill="none" stroke="midnightblue" d="M367.37,-246.08C367.89,-230.82 370.91,-199.4 386.33,-179 399.53,-161.53 420.67,-149.12 438.92,-140.97"/>
<polygon fill="midnightblue" stroke="midnightblue" points="440.28,-144.2 448.14,-137.1 437.56,-137.74 440.28,-144.2"/>
</g>
<!-- Node4 -->
<g id="node4" class="node">
<title>Node4</title>
<g id="a_node4"><a xlink:title=" ">
<polygon fill="white" stroke="#bfbfbf" points="643.33,-56.5 643.33,-75.5 701.33,-75.5 701.33,-56.5 643.33,-56.5"/>
<text text-anchor="middle" x="672.33" y="-63.5" font-family="Helvetica,sans-Serif" font-size="10.00">memory</text>
</a>
</g>
</g>
<!-- Node3&#45;&gt;Node4 -->
<g id="edge3" class="edge">
<title>Node3&#45;&gt;Node4</title>
<path fill="none" stroke="midnightblue" d="M822.08,-184.86C837.02,-169.07 864.18,-135.05 846.33,-112 829.94,-90.84 757.4,-77.83 711.31,-71.55"/>
<polygon fill="midnightblue" stroke="midnightblue" points="711.71,-68.08 701.34,-70.24 710.8,-75.02 711.71,-68.08"/>
</g>
<!-- Node5 -->
<g id="node5" class="node">
<title>Node5</title>
<g id="a_node5"><a xlink:title=" ">
<polygon fill="white" stroke="#bfbfbf" points="789.83,-118 789.83,-137 836.83,-137 836.83,-118 789.83,-118"/>
<text text-anchor="middle" x="813.33" y="-125" font-family="Helvetica,sans-Serif" font-size="10.00">vector</text>
</a>
</g>
</g>
<!-- Node3&#45;&gt;Node5 -->
<g id="edge4" class="edge">
<title>Node3&#45;&gt;Node5</title>
<path fill="none" stroke="midnightblue" d="M813.33,-184.73C813.33,-175.18 813.33,-159.62 813.33,-147.28"/>
<polygon fill="midnightblue" stroke="midnightblue" points="816.83,-147.13 813.33,-137.13 809.83,-147.13 816.83,-147.13"/>
</g>
<!-- Node6&#45;&gt;Node4 -->
<g id="edge7" class="edge">
<title>Node6&#45;&gt;Node4</title>
<path fill="none" stroke="midnightblue" d="M378.95,-117.97C389.21,-115.97 400.15,-113.87 410.33,-112 489.31,-97.48 581.97,-81.91 633.22,-73.42"/>
<polygon fill="midnightblue" stroke="midnightblue" points="633.91,-76.86 643.21,-71.77 632.77,-69.95 633.91,-76.86"/>
</g>
<!-- Node6&#45;&gt;Node7 -->
<g id="edge6" class="edge">
<title>Node6&#45;&gt;Node7</title>
<path fill="none" stroke="midnightblue" d="M296.21,-117.98C241.77,-106.41 145.29,-85.91 92.81,-74.75"/>
<polygon fill="midnightblue" stroke="midnightblue" points="93.43,-71.31 82.92,-72.65 91.98,-78.15 93.43,-71.31"/>
</g>
<!-- Node8 -->
<g id="node8" class="node">
<title>Node8</title>
<g id="a_node8"><a xlink:title=" ">
<polygon fill="white" stroke="#bfbfbf" points="426.83,-56.5 426.83,-75.5 521.83,-75.5 521.83,-56.5 426.83,-56.5"/>
<text text-anchor="middle" x="474.33" y="-63.5" font-family="Helvetica,sans-Serif" font-size="10.00">odb/lazy&#45;ptr.hxx</text>
</a>
</g>
</g>
<!-- Node6&#45;&gt;Node8 -->
<g id="edge8" class="edge">
<title>Node6&#45;&gt;Node8</title>
<path fill="none" stroke="midnightblue" d="M356.1,-117.98C379.46,-107.9 418.54,-91.05 445.33,-79.5"/>
<polygon fill="midnightblue" stroke="midnightblue" points="446.79,-82.68 454.59,-75.51 444.02,-76.25 446.79,-82.68"/>
</g>
<!-- Node9&#45;&gt;Node6 -->
<g id="edge10" class="edge">
<title>Node9&#45;&gt;Node6</title>
<path fill="none" stroke="midnightblue" d="M186.3,-184.87C216.5,-173.52 269.72,-153.52 303.98,-140.65"/>
<polygon fill="midnightblue" stroke="midnightblue" points="305.4,-143.86 313.53,-137.06 302.94,-137.3 305.4,-143.86"/>
</g>
<!-- Node10 -->
<g id="node10" class="node">
<title>Node10</title>
<g id="a_node10"><a xlink:title=" ">
<polygon fill="white" stroke="#bfbfbf" points="13.33,-118 13.33,-137 63.33,-137 63.33,-118 13.33,-118"/>
<text text-anchor="middle" x="38.33" y="-125" font-family="Helvetica,sans-Serif" font-size="10.00">chrono</text>
</a>
</g>
</g>
<!-- Node9&#45;&gt;Node10 -->
<g id="edge11" class="edge">
<title>Node9&#45;&gt;Node10</title>
<path fill="none" stroke="midnightblue" d="M146.73,-184.87C125.62,-173.89 88.95,-154.82 64.17,-141.94"/>
<polygon fill="midnightblue" stroke="midnightblue" points="65.48,-138.68 54.99,-137.17 62.25,-144.89 65.48,-138.68"/>
</g>
<!-- Node11 -->
<g id="node11" class="node">
<title>Node11</title>
<g id="a_node11"><a xlink:title=" ">
<polygon fill="white" stroke="#bfbfbf" points="81.33,-118 81.33,-137 125.33,-137 125.33,-118 81.33,-118"/>
<text text-anchor="middle" x="103.33" y="-125" font-family="Helvetica,sans-Serif" font-size="10.00">string</text>
</a>
</g>
</g>
<!-- Node9&#45;&gt;Node11 -->
<g id="edge12" class="edge">
<title>Node9&#45;&gt;Node11</title>
<path fill="none" stroke="midnightblue" d="M155.23,-184.73C145.79,-174.5 129.97,-157.36 118.27,-144.69"/>
<polygon fill="midnightblue" stroke="midnightblue" points="120.65,-142.1 111.29,-137.13 115.5,-146.85 120.65,-142.1"/>
</g>
<!-- Node12&#45;&gt;Node4 -->
<g id="edge25" class="edge">
<title>Node12&#45;&gt;Node4</title>
<path fill="none" stroke="midnightblue" d="M534.7,-184.97C597.23,-174.44 693.7,-156.3 704.33,-143 718.63,-125.09 702.53,-99.86 688.46,-83.47"/>
<polygon fill="midnightblue" stroke="midnightblue" points="690.78,-80.82 681.46,-75.79 685.61,-85.54 690.78,-80.82"/>
</g>
<!-- Node12&#45;&gt;Node6 -->
<g id="edge14" class="edge">
<title>Node12&#45;&gt;Node6</title>
<path fill="none" stroke="midnightblue" d="M462.07,-184.87C437.16,-173.7 393.54,-154.15 364.79,-141.26"/>
<polygon fill="midnightblue" stroke="midnightblue" points="366.22,-138.06 355.66,-137.17 363.35,-144.45 366.22,-138.06"/>
</g>
<!-- Node13 -->
<g id="node13" class="node">
<title>Node13</title>
<g id="a_node13"><a xlink:href="../../d7/d7f/CredentialFwd_8hpp.html" target="_top" xlink:title=" ">
<polygon fill="white" stroke="black" points="547.33,-112.5 547.33,-142.5 695.33,-142.5 695.33,-112.5 547.33,-112.5"/>
<text text-anchor="start" x="555.33" y="-130.5" font-family="Helvetica,sans-Serif" font-size="10.00">core/credentials/Credential</text>
<text text-anchor="middle" x="621.33" y="-119.5" font-family="Helvetica,sans-Serif" font-size="10.00">Fwd.hpp</text>
</a>
</g>
</g>
<!-- Node12&#45;&gt;Node13 -->
<g id="edge15" class="edge">
<title>Node12&#45;&gt;Node13</title>
<path fill="none" stroke="midnightblue" d="M499.92,-184.87C520.74,-175.2 555.1,-159.25 581.96,-146.78"/>
<polygon fill="midnightblue" stroke="midnightblue" points="583.52,-149.91 591.11,-142.53 580.57,-143.56 583.52,-149.91"/>
</g>
<!-- Node14 -->
<g id="node14" class="node">
<title>Node14</title>
<g id="a_node14"><a xlink:href="../../dd/d9d/IVisitable_8hpp.html" target="_top" xlink:title=" ">
<polygon fill="white" stroke="black" points="143.33,-118 143.33,-137 253.33,-137 253.33,-118 143.33,-118"/>
<text text-anchor="middle" x="198.33" y="-125" font-family="Helvetica,sans-Serif" font-size="10.00">tools/IVisitable.hpp</text>
</a>
</g>
</g>
<!-- Node12&#45;&gt;Node14 -->
<g id="edge18" class="edge">
<title>Node12&#45;&gt;Node14</title>
<path fill="none" stroke="midnightblue" d="M444.04,-184.94C393.03,-173.22 301.48,-152.19 245.68,-139.38"/>
<polygon fill="midnightblue" stroke="midnightblue" points="246.23,-135.91 235.7,-137.08 244.66,-142.73 246.23,-135.91"/>
</g>
<!-- Node12&#45;&gt;Node18 -->
<g id="edge22" class="edge">
<title>Node12&#45;&gt;Node18</title>
<path fill="none" stroke="midnightblue" d="M480.38,-184.73C479.35,-175.18 477.68,-159.62 476.35,-147.28"/>
<polygon fill="midnightblue" stroke="midnightblue" points="479.81,-146.7 475.26,-137.13 472.85,-147.44 479.81,-146.7"/>
</g>
<!-- Node13&#45;&gt;Node4 -->
<g id="edge16" class="edge">
<title>Node13&#45;&gt;Node4</title>
<path fill="none" stroke="midnightblue" d="M633.41,-112.4C640.9,-103.66 650.54,-92.41 658.36,-83.3"/>
<polygon fill="midnightblue" stroke="midnightblue" points="661.06,-85.53 664.91,-75.66 655.74,-80.97 661.06,-85.53"/>
</g>
<!-- Node13&#45;&gt;Node8 -->
<g id="edge17" class="edge">
<title>Node13&#45;&gt;Node8</title>
<path fill="none" stroke="midnightblue" d="M586.49,-112.4C561.83,-102.42 529.04,-89.15 505.29,-79.53"/>
<polygon fill="midnightblue" stroke="midnightblue" points="506.3,-76.17 495.72,-75.66 503.67,-82.65 506.3,-76.17"/>
</g>
<!-- Node15 -->
<g id="node15" class="node">
<title>Node15</title>
<g id="a_node15"><a xlink:href="../../d2/d91/Visitor_8hpp.html" target="_top" xlink:title=" ">
<polygon fill="white" stroke="black" points="196.83,-56.5 196.83,-75.5 291.83,-75.5 291.83,-56.5 196.83,-56.5"/>
<text text-anchor="middle" x="244.33" y="-63.5" font-family="Helvetica,sans-Serif" font-size="10.00">tools/Visitor.hpp</text>
</a>
</g>
</g>
<!-- Node14&#45;&gt;Node15 -->
<g id="edge19" class="edge">
<title>Node14&#45;&gt;Node15</title>
<path fill="none" stroke="midnightblue" d="M204.92,-117.98C211.82,-109.05 222.83,-94.81 231.46,-83.64"/>
<polygon fill="midnightblue" stroke="midnightblue" points="234.4,-85.56 237.75,-75.51 228.86,-81.28 234.4,-85.56"/>
</g>
<!-- Node17 -->
<g id="node17" class="node">
<title>Node17</title>
<g id="a_node17"><a xlink:title=" ">
<polygon fill="white" stroke="#bfbfbf" points="126.33,-56.5 126.33,-75.5 178.33,-75.5 178.33,-56.5 126.33,-56.5"/>
<text text-anchor="middle" x="152.33" y="-63.5" font-family="Helvetica,sans-Serif" font-size="10.00">cassert</text>
</a>
</g>
</g>
<!-- Node14&#45;&gt;Node17 -->
<g id="edge21" class="edge">
<title>Node14&#45;&gt;Node17</title>
<path fill="none" stroke="midnightblue" d="M191.74,-117.98C184.84,-109.05 173.82,-94.81 165.19,-83.64"/>
<polygon fill="midnightblue" stroke="midnightblue" points="167.79,-81.28 158.91,-75.51 162.25,-85.56 167.79,-81.28"/>
</g>
<!-- Node16 -->
<g id="node16" class="node">
<title>Node16</title>
<g id="a_node16"><a xlink:title=" ">
<polygon fill="white" stroke="#bfbfbf" points="209.83,-0.5 209.83,-19.5 278.83,-19.5 278.83,-0.5 209.83,-0.5"/>
<text text-anchor="middle" x="244.33" y="-7.5" font-family="Helvetica,sans-Serif" font-size="10.00">type_traits</text>
</a>
</g>
</g>
<!-- Node15&#45;&gt;Node16 -->
<g id="edge20" class="edge">
<title>Node15&#45;&gt;Node16</title>
<path fill="none" stroke="midnightblue" d="M244.33,-56.08C244.33,-49.01 244.33,-38.86 244.33,-29.99"/>
<polygon fill="midnightblue" stroke="midnightblue" points="247.83,-29.75 244.33,-19.75 240.83,-29.75 247.83,-29.75"/>
</g>
<!-- Node18&#45;&gt;Node4 -->
<g id="edge23" class="edge">
<title>Node18&#45;&gt;Node4</title>
<path fill="none" stroke="midnightblue" d="M502.7,-117.98C537.25,-107.59 595.75,-90.01 634.21,-78.45"/>
<polygon fill="midnightblue" stroke="midnightblue" points="635.44,-81.74 644.01,-75.51 633.43,-75.04 635.44,-81.74"/>
</g>
<!-- Node18&#45;&gt;Node8 -->
<g id="edge24" class="edge">
<title>Node18&#45;&gt;Node8</title>
<path fill="none" stroke="midnightblue" d="M474.33,-117.98C474.33,-109.58 474.33,-96.48 474.33,-85.66"/>
<polygon fill="midnightblue" stroke="midnightblue" points="477.83,-85.51 474.33,-75.51 470.83,-85.51 477.83,-85.51"/>
</g>
<!-- Node20&#45;&gt;Node4 -->
<g id="edge31" class="edge">
<title>Node20&#45;&gt;Node4</title>
<path fill="none" stroke="midnightblue" d="M695.77,-179.46C711.53,-171.35 728.39,-159.44 737.33,-143 743.91,-130.9 743.72,-124.2 737.33,-112 730.05,-98.11 716.32,-87.65 703.34,-80.33"/>
<polygon fill="midnightblue" stroke="midnightblue" points="704.62,-77.05 694.13,-75.55 701.4,-83.27 704.62,-77.05"/>
</g>
<!-- Node20&#45;&gt;Node13 -->
<g id="edge30" class="edge">
<title>Node20&#45;&gt;Node13</title>
<path fill="none" stroke="midnightblue" d="M651.08,-179.4C646.3,-171.22 640.17,-160.73 634.71,-151.39"/>
<polygon fill="midnightblue" stroke="midnightblue" points="637.62,-149.44 629.56,-142.58 631.58,-152.98 637.62,-149.44"/>
</g>
</g>
</svg>
        <g id="navigator" transform="translate(0 0)" fill="#404254">
                <rect fill="#f2f5e9" fill-opacity="0.5" stroke="#606060" stroke-width=".5" x="0" y="0" width="60" height="60"/>
                <use id="zoomplus" xlink:href="#zoomPlus" x="17" y="9" onmousedown="handleZoom(evt,'in')"/>
                <use id="zoomminus" xlink:href="#zoomMin" x="42" y="9" onmousedown="handleZoom(evt,'out')"/>
                <use id="reset" xlink:href="#resetDef" x="30" y="36" onmousedown="handleReset()"/>
                <g id="arrowUp" xlink:href="#dirArrow" transform="translate(30 24)" onmousedown="handlePan(0,-1)">
                  <use xlink:href="#rim" fill="#404040">
                        <set attributeName="fill" to="#808080" begin="arrowUp.mouseover" end="arrowUp.mouseout"/>
                  </use>
                  <path fill="none" stroke="white" stroke-width="1.5" d="M0,-3.0v7 M-2.5,-0.5L0,-3.0L2.5,-0.5"/>
                </g>
                <g id="arrowRight" xlink:href="#dirArrow" transform="rotate(90) translate(36 -43)" onmousedown="handlePan(1,0)">
                  <use xlink:href="#rim" fill="#404040">
                        <set attributeName="fill" to="#808080" begin="arrowRight.mouseover" end="arrowRight.mouseout"/>
                  </use>
                  <path fill="none" stroke="white" stroke-width="1.5" d="M0,-3.0v7 M-2.5,-0.5L0,-3.0L2.5,-0.5"/>
                </g>
                <g id="arrowDown" xlink:href="#dirArrow" transform="rotate(180) translate(-30 -48)" onmousedown="handlePan(0,1)">
                  <use xlink:href="#rim" fill="#404040">
                        <set attributeName="fill" to="#808080" begin="arrowDown.mouseover" end="arrowDown.mouseout"/>
                  </use>
                  <path fill="none" stroke="white" stroke-width="1.5" d="M0,-3.0v7 M-2.5,-0.5L0,-3.0L2.5,-0.5"/>
                </g>
                <g id="arrowLeft" xlink:href="#dirArrow" transform="rotate(270) translate(-36 17)" onmousedown="handlePan(-1,0)">
                  <use xlink:href="#rim" fill="#404040">
                        <set attributeName="fill" to="#808080" begin="arrowLeft.mouseover" end="arrowLeft.mouseout"/>
                  </use>
                  <path fill="none" stroke="white" stroke-width="1.5" d="M0,-3.0v7 M-2.5,-0.5L0,-3.0L2.5,-0.5"/>
                </g>
        </g>
        <svg viewBox="0 0 15 15" width="100%" height="30px" preserveAspectRatio="xMaxYMin meet">
         <g id="arrow_out" transform="scale(0.3 0.3)">
          <a xlink:href="Credential_8cpp__incl_org.svg" target="_base">
           <rect id="button" ry="5" rx="5" y="6" x="6" height="38" width="38"
                fill="#f2f5e9" fill-opacity="0.5" stroke="#606060" stroke-width="1.0"/>
           <path id="arrow"
             d="M 11.500037,31.436501 C 11.940474,20.09759 22.043105,11.32322 32.158766,21.979434 L 37.068811,17.246167 C 37.068811,17.246167 37.088388,32 37.088388,32 L 22.160133,31.978069 C 22.160133,31.978069 26.997745,27.140456 26.997745,27.140456 C 18.528582,18.264221 13.291696,25.230495 11.500037,31.436501 z"
             style="fill:#404040;"/>
          </a>
         </g>
        </svg>
</svg>
