<?xml version="1.0" encoding="UTF-8" standalone="no"?>
<!DOCTYPE svg PUBLIC "-//W3C//DTD SVG 1.1//EN"
 "http://www.w3.org/Graphics/SVG/1.1/DTD/svg11.dtd">
<!-- Generated by graphviz version 2.43.0 (0)
 -->
<!-- Title: Leosac::Hardware::GPIO Pages: 1 -->
<svg width="204pt" height="220pt"
 viewBox="0.00 0.00 203.50 220.00" xmlns="http://www.w3.org/2000/svg" xmlns:xlink="http://www.w3.org/1999/xlink">
<g id="graph0" class="graph" transform="scale(1 1) rotate(0) translate(4 216)">
<title>Leosac::Hardware::GPIO</title>
<polygon fill="white" stroke="transparent" points="-4,4 -4,-216 199.5,-216 199.5,4 -4,4"/>
<!-- Node1 -->
<g id="node1" class="node">
<title>Node1</title>
<g id="a_node1"><a xlink:title="Abstraction of a GPIO device attributes.">
<polygon fill="#bfbfbf" stroke="black" points="4.5,-0.5 4.5,-19.5 138.5,-19.5 138.5,-0.5 4.5,-0.5"/>
<text text-anchor="middle" x="71.5" y="-7.5" font-family="Helvetica,sans-Serif" font-size="10.00">Leosac::Hardware::GPIO</text>
</a>
</g>
</g>
<!-- Node2 -->
<g id="node2" class="node">
<title>Node2</title>
<g id="a_node2"><a xlink:href="../../d3/d7f/classLeosac_1_1Hardware_1_1Device.html" target="_top" xlink:title="Base class for hardware devices.">
<polygon fill="white" stroke="black" points="0,-57.5 0,-76.5 143,-76.5 143,-57.5 0,-57.5"/>
<text text-anchor="middle" x="71.5" y="-64.5" font-family="Helvetica,sans-Serif" font-size="10.00">Leosac::Hardware::Device</text>
</a>
</g>
</g>
<!-- Node2&#45;&gt;Node1 -->
<g id="edge1" class="edge">
<title>Node2&#45;&gt;Node1</title>
<path fill="none" stroke="midnightblue" d="M71.5,-47.12C71.5,-37.82 71.5,-27.06 71.5,-19.71"/>
<polygon fill="midnightblue" stroke="midnightblue" points="68,-47.41 71.5,-57.41 75,-47.41 68,-47.41"/>
</g>
<!-- Node3 -->
<g id="node3" class="node">
<title>Node3</title>
<g id="a_node3"><a xlink:href="../../d7/d46/classLeosac_1_1UUID.html" target="_top" xlink:title="Thin wrapper around boost::uuids::uuid.">
<polygon fill="white" stroke="black" points="10.5,-124.5 10.5,-143.5 92.5,-143.5 92.5,-124.5 10.5,-124.5"/>
<text text-anchor="middle" x="51.5" y="-131.5" font-family="Helvetica,sans-Serif" font-size="10.00">Leosac::UUID</text>
</a>
</g>
</g>
<!-- Node3&#45;&gt;Node2 -->
<g id="edge2" class="edge">
<title>Node3&#45;&gt;Node2</title>
<path fill="none" stroke="#9a32cd" stroke-dasharray="5,2" d="M57.22,-114.41C61.04,-101.99 65.89,-86.22 68.85,-76.63"/>
<polygon fill="#9a32cd" stroke="#9a32cd" points="53.79,-113.65 54.2,-124.23 60.48,-115.71 53.79,-113.65"/>
<text text-anchor="middle" x="72.5" y="-98" font-family="Helvetica,sans-Serif" font-size="10.00"> id_</text>
</g>
<!-- Node4 -->
<g id="node4" class="node">
<title>Node4</title>
<g id="a_node4"><a xlink:title="STL class.">
<polygon fill="white" stroke="#bfbfbf" points="111,-124.5 111,-143.5 176,-143.5 176,-124.5 111,-124.5"/>
<text text-anchor="middle" x="143.5" y="-131.5" font-family="Helvetica,sans-Serif" font-size="10.00">std::string</text>
</a>
</g>
</g>
<!-- Node4&#45;&gt;Node2 -->
<g id="edge3" class="edge">
<title>Node4&#45;&gt;Node2</title>
<path fill="none" stroke="#9a32cd" stroke-dasharray="5,2" d="M126.17,-117.36C112.02,-104.58 92.54,-86.99 81.06,-76.63"/>
<polygon fill="#9a32cd" stroke="#9a32cd" points="124.02,-120.13 133.79,-124.23 128.71,-114.93 124.02,-120.13"/>
<text text-anchor="middle" x="130" y="-98" font-family="Helvetica,sans-Serif" font-size="10.00"> name_</text>
</g>
<!-- Node5 -->
<g id="node5" class="node">
<title>Node5</title>
<g id="a_node5"><a xlink:title="STL class.">
<polygon fill="white" stroke="#bfbfbf" points="91.5,-181.5 91.5,-211.5 195.5,-211.5 195.5,-181.5 91.5,-181.5"/>
<text text-anchor="start" x="99.5" y="-199.5" font-family="Helvetica,sans-Serif" font-size="10.00">std::basic_string&lt;</text>
<text text-anchor="middle" x="143.5" y="-188.5" font-family="Helvetica,sans-Serif" font-size="10.00"> char &gt;</text>
</a>
</g>
</g>
<!-- Node5&#45;&gt;Node4 -->
<g id="edge4" class="edge">
<title>Node5&#45;&gt;Node4</title>
<path fill="none" stroke="midnightblue" d="M143.5,-171.35C143.5,-161.51 143.5,-150.78 143.5,-143.54"/>
<polygon fill="midnightblue" stroke="midnightblue" points="140,-171.47 143.5,-181.47 147,-171.47 140,-171.47"/>
</g>
</g>
</svg>
