<?xml version="1.0" encoding="UTF-8" standalone="no"?>
<!DOCTYPE svg PUBLIC "-//W3C//DTD SVG 1.1//EN"
 "http://www.w3.org/Graphics/SVG/1.1/DTD/svg11.dtd">
<!-- Generated by graphviz version 2.43.0 (0)
 -->
<!-- Title: src/modules/wiegand/strategies/WiegandCardAndPin.hpp Pages: 1 -->
<!--zoomable 442 -->
<svg id="main" version="1.1" xmlns="http://www.w3.org/2000/svg" xmlns:xlink="http://www.w3.org/1999/xlink" xml:space="preserve" onload="init(evt)">
<style type="text/css"><![CDATA[
.edge:hover path { stroke: red; }
.edge:hover polygon { stroke: red; fill: red; }
]]></style>
<script type="text/javascript"><![CDATA[
var edges = document.getElementsByTagName('g');
if (edges && edges.length) {
  for (var i=0;i<edges.length;i++) {
    if (edges[i].id.substr(0,4)=='edge') {
      edges[i].setAttribute('class','edge');
    }
  }
}
]]></script>
        <defs>
                <circle id="rim" cx="0" cy="0" r="7"/>
                <circle id="rim2" cx="0" cy="0" r="3.5"/>
                <g id="zoomPlus">
                        <use xlink:href="#rim" fill="#404040">
                                <set attributeName="fill" to="#808080" begin="zoomplus.mouseover" end="zoomplus.mouseout"/>
                        </use>
                        <path d="M-4,0h8M0,-4v8" fill="none" stroke="white" stroke-width="1.5" pointer-events="none"/>
                </g>
                <g id="zoomMin">
                        <use xlink:href="#rim" fill="#404040">
                                <set attributeName="fill" to="#808080" begin="zoomminus.mouseover" end="zoomminus.mouseout"/>
                        </use>
                        <path d="M-4,0h8" fill="none" stroke="white" stroke-width="1.5" pointer-events="none"/>
                </g>
                <g id="dirArrow">
                        <path fill="none" stroke="white" stroke-width="1.5" d="M0,-3.0v7 M-2.5,-0.5L0,-3.0L2.5,-0.5"/>
                </g>
               <g id="resetDef">
                       <use xlink:href="#rim2" fill="#404040">
                               <set attributeName="fill" to="#808080" begin="reset.mouseover" end="reset.mouseout"/>
                       </use>
               </g>
        </defs>

<script type="text/javascript">
var viewWidth = 605;
var viewHeight = 442;
var sectionId = 'dynsection-0';
</script>
<script xlink:href="../../svgpan.js"/>
<svg id="graph" class="graph">
<g id="viewport">
<title>src/modules/wiegand/strategies/WiegandCardAndPin.hpp</title>
<polygon fill="white" stroke="transparent" points="-4,4 -4,-438 601.15,-438 601.15,4 -4,4"/>
<!-- Node1 -->
<g id="node1" class="node">
<title>Node1</title>
<g id="a_node1"><a xlink:title=" ">
<polygon fill="#bfbfbf" stroke="black" points="284,-392.5 284,-433.5 439,-433.5 439,-392.5 284,-392.5"/>
<text text-anchor="start" x="292" y="-421.5" font-family="Helvetica,sans-Serif" font-size="10.00">src/modules/wiegand</text>
<text text-anchor="start" x="292" y="-410.5" font-family="Helvetica,sans-Serif" font-size="10.00">/strategies/WiegandCardAnd</text>
<text text-anchor="middle" x="361.5" y="-399.5" font-family="Helvetica,sans-Serif" font-size="10.00">Pin.hpp</text>
</a>
</g>
</g>
<!-- Node2 -->
<g id="node2" class="node">
<title>Node2</title>
<g id="a_node2"><a xlink:href="../../dc/d0d/Strategies_8hpp.html" target="_top" xlink:title=" ">
<polygon fill="white" stroke="black" points="318,-336.5 318,-355.5 405,-355.5 405,-336.5 318,-336.5"/>
<text text-anchor="middle" x="361.5" y="-343.5" font-family="Helvetica,sans-Serif" font-size="10.00">Strategies.hpp</text>
</a>
</g>
</g>
<!-- Node1&#45;&gt;Node2 -->
<g id="edge1" class="edge">
<title>Node1&#45;&gt;Node2</title>
<path fill="none" stroke="midnightblue" d="M355.25,-392.5C354.56,-383.97 354.58,-374.01 355.33,-365.59"/>
<polygon fill="midnightblue" stroke="midnightblue" points="358.8,-366.04 356.74,-355.65 351.87,-365.06 358.8,-366.04"/>
</g>
<!-- Node18 -->
<g id="node18" class="node">
<title>Node18</title>
<g id="a_node18"><a xlink:href="../../db/dd7/StrategiesFwd_8hpp.html" target="_top" xlink:title=" ">
<polygon fill="white" stroke="black" points="459,-168.5 459,-187.5 566,-187.5 566,-168.5 459,-168.5"/>
<text text-anchor="middle" x="512.5" y="-175.5" font-family="Helvetica,sans-Serif" font-size="10.00">StrategiesFwd.hpp</text>
</a>
</g>
</g>
<!-- Node1&#45;&gt;Node18 -->
<g id="edge25" class="edge">
<title>Node1&#45;&gt;Node18</title>
<path fill="none" stroke="midnightblue" d="M439.18,-396.39C491.82,-381.34 557.58,-352.75 590.5,-300 614.59,-261.4 564.98,-216.52 534.31,-193.8"/>
<polygon fill="midnightblue" stroke="midnightblue" points="536.03,-190.73 525.86,-187.75 531.95,-196.42 536.03,-190.73"/>
</g>
<!-- Node2&#45;&gt;Node1 -->
<g id="edge15" class="edge">
<title>Node2&#45;&gt;Node1</title>
<path fill="none" stroke="midnightblue" d="M366.26,-355.65C367.73,-362.52 368.38,-372.56 368.23,-382.26"/>
<polygon fill="midnightblue" stroke="midnightblue" points="364.72,-382.34 367.75,-392.5 371.71,-382.67 364.72,-382.34"/>
</g>
<!-- Node3 -->
<g id="node3" class="node">
<title>Node3</title>
<g id="a_node3"><a xlink:href="../../dc/d8e/SimpleWiegandStrategy_8hpp.html" target="_top" xlink:title=" ">
<polygon fill="white" stroke="black" points="33.5,-280.5 33.5,-299.5 187.5,-299.5 187.5,-280.5 33.5,-280.5"/>
<text text-anchor="middle" x="110.5" y="-287.5" font-family="Helvetica,sans-Serif" font-size="10.00">SimpleWiegandStrategy.hpp</text>
</a>
</g>
</g>
<!-- Node2&#45;&gt;Node3 -->
<g id="edge2" class="edge">
<title>Node2&#45;&gt;Node3</title>
<path fill="none" stroke="midnightblue" d="M321.73,-336.44C277.94,-327.02 207.49,-311.87 160.12,-301.68"/>
<polygon fill="midnightblue" stroke="midnightblue" points="160.6,-298.2 150.09,-299.52 159.13,-305.04 160.6,-298.2"/>
</g>
<!-- Node4 -->
<g id="node4" class="node">
<title>Node4</title>
<g id="a_node4"><a xlink:href="../../db/db3/CardReading_8hpp.html" target="_top" xlink:title=" ">
<polygon fill="white" stroke="black" points="165.5,-224.5 165.5,-243.5 265.5,-243.5 265.5,-224.5 165.5,-224.5"/>
<text text-anchor="middle" x="215.5" y="-231.5" font-family="Helvetica,sans-Serif" font-size="10.00">CardReading.hpp</text>
</a>
</g>
</g>
<!-- Node2&#45;&gt;Node4 -->
<g id="edge23" class="edge">
<title>Node2&#45;&gt;Node4</title>
<path fill="none" stroke="midnightblue" d="M317.74,-339.72C290.33,-334.21 256.19,-322.95 234.5,-300 222.77,-287.6 218.24,-268.35 216.51,-254.02"/>
<polygon fill="midnightblue" stroke="midnightblue" points="219.97,-253.47 215.64,-243.8 213,-254.06 219.97,-253.47"/>
</g>
<!-- Node16 -->
<g id="node16" class="node">
<title>Node16</title>
<g id="a_node16"><a xlink:href="../../d6/da6/WiegandPinBuffered_8hpp.html" target="_top" xlink:title=" ">
<polygon fill="white" stroke="black" points="244,-280.5 244,-299.5 381,-299.5 381,-280.5 244,-280.5"/>
<text text-anchor="middle" x="312.5" y="-287.5" font-family="Helvetica,sans-Serif" font-size="10.00">WiegandPinBuffered.hpp</text>
</a>
</g>
</g>
<!-- Node2&#45;&gt;Node16 -->
<g id="edge16" class="edge">
<title>Node2&#45;&gt;Node16</title>
<path fill="none" stroke="midnightblue" d="M353.41,-336.08C346.34,-328.3 335.91,-316.8 327.35,-307.37"/>
<polygon fill="midnightblue" stroke="midnightblue" points="329.75,-304.8 320.44,-299.75 324.57,-309.51 329.75,-304.8"/>
</g>
<!-- Node17 -->
<g id="node17" class="node">
<title>Node17</title>
<g id="a_node17"><a xlink:href="../../d0/dc4/PinReading_8hpp.html" target="_top" xlink:title=" ">
<polygon fill="white" stroke="black" points="363.5,-224.5 363.5,-243.5 455.5,-243.5 455.5,-224.5 363.5,-224.5"/>
<text text-anchor="middle" x="409.5" y="-231.5" font-family="Helvetica,sans-Serif" font-size="10.00">PinReading.hpp</text>
</a>
</g>
</g>
<!-- Node2&#45;&gt;Node17 -->
<g id="edge24" class="edge">
<title>Node2&#45;&gt;Node17</title>
<path fill="none" stroke="midnightblue" d="M368.07,-336.47C374.54,-327.72 384.32,-313.53 390.5,-300 397.37,-284.96 402.42,-266.83 405.59,-253.54"/>
<polygon fill="midnightblue" stroke="midnightblue" points="409.02,-254.22 407.8,-243.7 402.19,-252.69 409.02,-254.22"/>
</g>
<!-- Node19 -->
<g id="node19" class="node">
<title>Node19</title>
<g id="a_node19"><a xlink:href="../../d4/d9d/WiegandPinNBitsOnly_8hpp.html" target="_top" xlink:title=" ">
<polygon fill="white" stroke="black" points="438,-280.5 438,-299.5 581,-299.5 581,-280.5 438,-280.5"/>
<text text-anchor="middle" x="509.5" y="-287.5" font-family="Helvetica,sans-Serif" font-size="10.00">WiegandPinNBitsOnly.hpp</text>
</a>
</g>
</g>
<!-- Node2&#45;&gt;Node19 -->
<g id="edge21" class="edge">
<title>Node2&#45;&gt;Node19</title>
<path fill="none" stroke="midnightblue" d="M384.95,-336.44C409.63,-327.44 448.69,-313.19 476.48,-303.05"/>
<polygon fill="midnightblue" stroke="midnightblue" points="477.96,-306.23 486.16,-299.52 475.56,-299.66 477.96,-306.23"/>
</g>
<!-- Node3&#45;&gt;Node4 -->
<g id="edge3" class="edge">
<title>Node3&#45;&gt;Node4</title>
<path fill="none" stroke="midnightblue" d="M127.37,-280.32C144.21,-271.66 170.31,-258.24 189.74,-248.25"/>
<polygon fill="midnightblue" stroke="midnightblue" points="191.38,-251.34 198.67,-243.65 188.18,-245.12 191.38,-251.34"/>
</g>
<!-- Node5 -->
<g id="node5" class="node">
<title>Node5</title>
<g id="a_node5"><a xlink:href="../../dd/d5c/WiegandStrategy_8hpp.html" target="_top" xlink:title=" ">
<polygon fill="white" stroke="black" points="252.5,-168.5 252.5,-187.5 372.5,-187.5 372.5,-168.5 252.5,-168.5"/>
<text text-anchor="middle" x="312.5" y="-175.5" font-family="Helvetica,sans-Serif" font-size="10.00">WiegandStrategy.hpp</text>
</a>
</g>
</g>
<!-- Node4&#45;&gt;Node5 -->
<g id="edge4" class="edge">
<title>Node4&#45;&gt;Node5</title>
<path fill="none" stroke="midnightblue" d="M231.08,-224.32C246.5,-215.74 270.31,-202.49 288.21,-192.52"/>
<polygon fill="midnightblue" stroke="midnightblue" points="289.92,-195.58 296.95,-187.65 286.51,-189.46 289.92,-195.58"/>
</g>
<!-- Node6 -->
<g id="node6" class="node">
<title>Node6</title>
<g id="a_node6"><a xlink:href="../../dc/d74/Auth_8hpp.html" target="_top" xlink:title=" ">
<polygon fill="white" stroke="black" points="18,-112.5 18,-131.5 127,-131.5 127,-112.5 18,-112.5"/>
<text text-anchor="middle" x="72.5" y="-119.5" font-family="Helvetica,sans-Serif" font-size="10.00">core/auth/Auth.hpp</text>
</a>
</g>
</g>
<!-- Node5&#45;&gt;Node6 -->
<g id="edge5" class="edge">
<title>Node5&#45;&gt;Node6</title>
<path fill="none" stroke="midnightblue" d="M274.47,-168.44C232.69,-159.04 165.52,-143.93 120.23,-133.74"/>
<polygon fill="midnightblue" stroke="midnightblue" points="120.88,-130.3 110.35,-131.52 119.34,-137.13 120.88,-130.3"/>
</g>
<!-- Node12 -->
<g id="node12" class="node">
<title>Node12</title>
<g id="a_node12"><a xlink:title=" ">
<polygon fill="white" stroke="#bfbfbf" points="145,-112.5 145,-131.5 252,-131.5 252,-112.5 145,-112.5"/>
<text text-anchor="middle" x="198.5" y="-119.5" font-family="Helvetica,sans-Serif" font-size="10.00">zmqpp/zmqpp.hpp</text>
</a>
</g>
</g>
<!-- Node5&#45;&gt;Node12 -->
<g id="edge11" class="edge">
<title>Node5&#45;&gt;Node12</title>
<path fill="none" stroke="midnightblue" d="M294.44,-168.44C275.93,-159.68 246.92,-145.94 225.64,-135.86"/>
<polygon fill="midnightblue" stroke="midnightblue" points="227.01,-132.63 216.48,-131.52 224.02,-138.96 227.01,-132.63"/>
</g>
<!-- Node13 -->
<g id="node13" class="node">
<title>Node13</title>
<g id="a_node13"><a xlink:title=" ">
<polygon fill="white" stroke="#bfbfbf" points="270.5,-112.5 270.5,-131.5 354.5,-131.5 354.5,-112.5 270.5,-112.5"/>
<text text-anchor="middle" x="312.5" y="-119.5" font-family="Helvetica,sans-Serif" font-size="10.00">boost/any.hpp</text>
</a>
</g>
</g>
<!-- Node5&#45;&gt;Node13 -->
<g id="edge12" class="edge">
<title>Node5&#45;&gt;Node13</title>
<path fill="none" stroke="midnightblue" d="M312.5,-168.08C312.5,-161.01 312.5,-150.86 312.5,-141.99"/>
<polygon fill="midnightblue" stroke="midnightblue" points="316,-141.75 312.5,-131.75 309,-141.75 316,-141.75"/>
</g>
<!-- Node14 -->
<g id="node14" class="node">
<title>Node14</title>
<g id="a_node14"><a xlink:title=" ">
<polygon fill="white" stroke="#bfbfbf" points="372.5,-112.5 372.5,-131.5 422.5,-131.5 422.5,-112.5 372.5,-112.5"/>
<text text-anchor="middle" x="397.5" y="-119.5" font-family="Helvetica,sans-Serif" font-size="10.00">chrono</text>
</a>
</g>
</g>
<!-- Node5&#45;&gt;Node14 -->
<g id="edge13" class="edge">
<title>Node5&#45;&gt;Node14</title>
<path fill="none" stroke="midnightblue" d="M326.16,-168.32C339.42,-159.9 359.77,-146.97 375.35,-137.07"/>
<polygon fill="midnightblue" stroke="midnightblue" points="377.31,-139.97 383.88,-131.65 373.56,-134.06 377.31,-139.97"/>
</g>
<!-- Node15 -->
<g id="node15" class="node">
<title>Node15</title>
<g id="a_node15"><a xlink:title=" ">
<polygon fill="white" stroke="#bfbfbf" points="440.5,-112.5 440.5,-131.5 484.5,-131.5 484.5,-112.5 440.5,-112.5"/>
<text text-anchor="middle" x="462.5" y="-119.5" font-family="Helvetica,sans-Serif" font-size="10.00">string</text>
</a>
</g>
</g>
<!-- Node5&#45;&gt;Node15 -->
<g id="edge14" class="edge">
<title>Node5&#45;&gt;Node15</title>
<path fill="none" stroke="midnightblue" d="M336.27,-168.44C361.84,-159.24 402.62,-144.56 430.88,-134.38"/>
<polygon fill="midnightblue" stroke="midnightblue" points="432.09,-137.67 440.31,-130.99 429.72,-131.08 432.09,-137.67"/>
</g>
<!-- Node7 -->
<g id="node7" class="node">
<title>Node7</title>
<g id="a_node7"><a xlink:href="../../d3/d6f/AuthFwd_8hpp.html" target="_top" xlink:title=" ">
<polygon fill="white" stroke="black" points="32.5,-56.5 32.5,-75.5 112.5,-75.5 112.5,-56.5 32.5,-56.5"/>
<text text-anchor="middle" x="72.5" y="-63.5" font-family="Helvetica,sans-Serif" font-size="10.00">AuthFwd.hpp</text>
</a>
</g>
</g>
<!-- Node6&#45;&gt;Node7 -->
<g id="edge6" class="edge">
<title>Node6&#45;&gt;Node7</title>
<path fill="none" stroke="midnightblue" d="M72.5,-112.08C72.5,-105.01 72.5,-94.86 72.5,-85.99"/>
<polygon fill="midnightblue" stroke="midnightblue" points="76,-85.75 72.5,-75.75 69,-85.75 76,-85.75"/>
</g>
<!-- Node11 -->
<g id="node11" class="node">
<title>Node11</title>
<g id="a_node11"><a xlink:title=" ">
<polygon fill="white" stroke="#bfbfbf" points="130.5,-56.5 130.5,-75.5 248.5,-75.5 248.5,-56.5 130.5,-56.5"/>
<text text-anchor="middle" x="189.5" y="-63.5" font-family="Helvetica,sans-Serif" font-size="10.00">zmqpp/message.hpp</text>
</a>
</g>
</g>
<!-- Node6&#45;&gt;Node11 -->
<g id="edge10" class="edge">
<title>Node6&#45;&gt;Node11</title>
<path fill="none" stroke="midnightblue" d="M91.04,-112.44C110.12,-103.64 140.07,-89.81 161.94,-79.72"/>
<polygon fill="midnightblue" stroke="midnightblue" points="163.43,-82.88 171.05,-75.52 160.5,-76.53 163.43,-82.88"/>
</g>
<!-- Node8 -->
<g id="node8" class="node">
<title>Node8</title>
<g id="a_node8"><a xlink:title=" ">
<polygon fill="white" stroke="#bfbfbf" points="0,-0.5 0,-19.5 53,-19.5 53,-0.5 0,-0.5"/>
<text text-anchor="middle" x="26.5" y="-7.5" font-family="Helvetica,sans-Serif" font-size="10.00">cstddef</text>
</a>
</g>
</g>
<!-- Node7&#45;&gt;Node8 -->
<g id="edge7" class="edge">
<title>Node7&#45;&gt;Node8</title>
<path fill="none" stroke="midnightblue" d="M64.9,-56.08C58.27,-48.3 48.48,-36.8 40.44,-27.37"/>
<polygon fill="midnightblue" stroke="midnightblue" points="43.1,-25.09 33.95,-19.75 37.77,-29.63 43.1,-25.09"/>
</g>
<!-- Node9 -->
<g id="node9" class="node">
<title>Node9</title>
<g id="a_node9"><a xlink:title=" ">
<polygon fill="white" stroke="#bfbfbf" points="333.5,-0.5 333.5,-19.5 391.5,-19.5 391.5,-0.5 333.5,-0.5"/>
<text text-anchor="middle" x="362.5" y="-7.5" font-family="Helvetica,sans-Serif" font-size="10.00">memory</text>
</a>
</g>
</g>
<!-- Node7&#45;&gt;Node9 -->
<g id="edge8" class="edge">
<title>Node7&#45;&gt;Node9</title>
<path fill="none" stroke="midnightblue" d="M112.52,-57.55C168.13,-47.19 268.16,-28.57 323.32,-18.29"/>
<polygon fill="midnightblue" stroke="midnightblue" points="324.22,-21.69 333.41,-16.42 322.93,-14.81 324.22,-21.69"/>
</g>
<!-- Node10 -->
<g id="node10" class="node">
<title>Node10</title>
<g id="a_node10"><a xlink:title=" ">
<polygon fill="white" stroke="#bfbfbf" points="71,-0.5 71,-19.5 166,-19.5 166,-0.5 71,-0.5"/>
<text text-anchor="middle" x="118.5" y="-7.5" font-family="Helvetica,sans-Serif" font-size="10.00">odb/lazy&#45;ptr.hxx</text>
</a>
</g>
</g>
<!-- Node7&#45;&gt;Node10 -->
<g id="edge9" class="edge">
<title>Node7&#45;&gt;Node10</title>
<path fill="none" stroke="midnightblue" d="M80.1,-56.08C86.73,-48.3 96.52,-36.8 104.56,-27.37"/>
<polygon fill="midnightblue" stroke="midnightblue" points="107.23,-29.63 111.05,-19.75 101.9,-25.09 107.23,-29.63"/>
</g>
<!-- Node16&#45;&gt;Node17 -->
<g id="edge17" class="edge">
<title>Node16&#45;&gt;Node17</title>
<path fill="none" stroke="midnightblue" d="M328.08,-280.32C343.5,-271.74 367.31,-258.49 385.21,-248.52"/>
<polygon fill="midnightblue" stroke="midnightblue" points="386.92,-251.58 393.95,-243.65 383.51,-245.46 386.92,-251.58"/>
</g>
<!-- Node17&#45;&gt;Node5 -->
<g id="edge20" class="edge">
<title>Node17&#45;&gt;Node5</title>
<path fill="none" stroke="midnightblue" d="M393.92,-224.32C378.5,-215.74 354.69,-202.49 336.79,-192.52"/>
<polygon fill="midnightblue" stroke="midnightblue" points="338.49,-189.46 328.05,-187.65 335.08,-195.58 338.49,-189.46"/>
</g>
<!-- Node17&#45;&gt;Node18 -->
<g id="edge18" class="edge">
<title>Node17&#45;&gt;Node18</title>
<path fill="none" stroke="midnightblue" d="M426.05,-224.32C442.49,-215.7 467.93,-202.36 486.97,-192.39"/>
<polygon fill="midnightblue" stroke="midnightblue" points="488.76,-195.4 495.99,-187.65 485.51,-189.2 488.76,-195.4"/>
</g>
<!-- Node18&#45;&gt;Node9 -->
<g id="edge19" class="edge">
<title>Node18&#45;&gt;Node9</title>
<path fill="none" stroke="midnightblue" d="M511.68,-168.28C510.08,-155.07 505.57,-129.67 493.5,-112 466.32,-72.2 418.47,-41.17 388.74,-24.52"/>
<polygon fill="midnightblue" stroke="midnightblue" points="390.23,-21.35 379.77,-19.63 386.87,-27.49 390.23,-21.35"/>
</g>
<!-- Node19&#45;&gt;Node17 -->
<g id="edge22" class="edge">
<title>Node19&#45;&gt;Node17</title>
<path fill="none" stroke="midnightblue" d="M493.43,-280.32C477.54,-271.74 452.99,-258.49 434.54,-248.52"/>
<polygon fill="midnightblue" stroke="midnightblue" points="435.99,-245.33 425.53,-243.65 432.66,-251.49 435.99,-245.33"/>
</g>
</g>
</svg>
        <g id="navigator" transform="translate(0 0)" fill="#404254">
                <rect fill="#f2f5e9" fill-opacity="0.5" stroke="#606060" stroke-width=".5" x="0" y="0" width="60" height="60"/>
                <use id="zoomplus" xlink:href="#zoomPlus" x="17" y="9" onmousedown="handleZoom(evt,'in')"/>
                <use id="zoomminus" xlink:href="#zoomMin" x="42" y="9" onmousedown="handleZoom(evt,'out')"/>
                <use id="reset" xlink:href="#resetDef" x="30" y="36" onmousedown="handleReset()"/>
                <g id="arrowUp" xlink:href="#dirArrow" transform="translate(30 24)" onmousedown="handlePan(0,-1)">
                  <use xlink:href="#rim" fill="#404040">
                        <set attributeName="fill" to="#808080" begin="arrowUp.mouseover" end="arrowUp.mouseout"/>
                  </use>
                  <path fill="none" stroke="white" stroke-width="1.5" d="M0,-3.0v7 M-2.5,-0.5L0,-3.0L2.5,-0.5"/>
                </g>
                <g id="arrowRight" xlink:href="#dirArrow" transform="rotate(90) translate(36 -43)" onmousedown="handlePan(1,0)">
                  <use xlink:href="#rim" fill="#404040">
                        <set attributeName="fill" to="#808080" begin="arrowRight.mouseover" end="arrowRight.mouseout"/>
                  </use>
                  <path fill="none" stroke="white" stroke-width="1.5" d="M0,-3.0v7 M-2.5,-0.5L0,-3.0L2.5,-0.5"/>
                </g>
                <g id="arrowDown" xlink:href="#dirArrow" transform="rotate(180) translate(-30 -48)" onmousedown="handlePan(0,1)">
                  <use xlink:href="#rim" fill="#404040">
                        <set attributeName="fill" to="#808080" begin="arrowDown.mouseover" end="arrowDown.mouseout"/>
                  </use>
                  <path fill="none" stroke="white" stroke-width="1.5" d="M0,-3.0v7 M-2.5,-0.5L0,-3.0L2.5,-0.5"/>
                </g>
                <g id="arrowLeft" xlink:href="#dirArrow" transform="rotate(270) translate(-36 17)" onmousedown="handlePan(-1,0)">
                  <use xlink:href="#rim" fill="#404040">
                        <set attributeName="fill" to="#808080" begin="arrowLeft.mouseover" end="arrowLeft.mouseout"/>
                  </use>
                  <path fill="none" stroke="white" stroke-width="1.5" d="M0,-3.0v7 M-2.5,-0.5L0,-3.0L2.5,-0.5"/>
                </g>
        </g>
        <svg viewBox="0 0 15 15" width="100%" height="30px" preserveAspectRatio="xMaxYMin meet">
         <g id="arrow_out" transform="scale(0.3 0.3)">
          <a xlink:href="WiegandCardAndPin_8hpp__incl_org.svg" target="_base">
           <rect id="button" ry="5" rx="5" y="6" x="6" height="38" width="38"
                fill="#f2f5e9" fill-opacity="0.5" stroke="#606060" stroke-width="1.0"/>
           <path id="arrow"
             d="M 11.500037,31.436501 C 11.940474,20.09759 22.043105,11.32322 32.158766,21.979434 L 37.068811,17.246167 C 37.068811,17.246167 37.088388,32 37.088388,32 L 22.160133,31.978069 C 22.160133,31.978069 26.997745,27.140456 26.997745,27.140456 C 18.528582,18.264221 13.291696,25.230495 11.500037,31.436501 z"
             style="fill:#404040;"/>
          </a>
         </g>
        </svg>
</svg>
