<?xml version="1.0" encoding="UTF-8" standalone="no"?>
<!DOCTYPE svg PUBLIC "-//W3C//DTD SVG 1.1//EN"
 "http://www.w3.org/Graphics/SVG/1.1/DTD/svg11.dtd">
<!-- Generated by graphviz version 2.43.0 (0)
 -->
<!-- Title: Leosac::Audit::ZoneEvent Pages: 1 -->
<svg width="928pt" height="271pt"
 viewBox="0.00 0.00 928.00 270.50" xmlns="http://www.w3.org/2000/svg" xmlns:xlink="http://www.w3.org/1999/xlink">
<g id="graph0" class="graph" transform="scale(1 1) rotate(0) translate(4 266.5)">
<title>Leosac::Audit::ZoneEvent</title>
<polygon fill="white" stroke="transparent" points="-4,4 -4,-266.5 924,-266.5 924,4 -4,4"/>
<!-- Node1 -->
<g id="node1" class="node">
<title>Node1</title>
<g id="a_node1"><a xlink:title="Provides an implementation of IZoneEvent.">
<polygon fill="#bfbfbf" stroke="black" points="772,-48.5 772,-67.5 912,-67.5 912,-48.5 772,-48.5"/>
<text text-anchor="middle" x="842" y="-55.5" font-family="Helvetica,sans-Serif" font-size="10.00">Leosac::Audit::ZoneEvent</text>
</a>
</g>
</g>
<!-- Node2 -->
<g id="node2" class="node">
<title>Node2</title>
<g id="a_node2"><a xlink:href="../../d1/d20/classLeosac_1_1Audit_1_1IZoneEvent.html" target="_top" xlink:title="Interface that describes an Audit object for zone related event.">
<polygon fill="white" stroke="black" points="545,-0.5 545,-19.5 688,-19.5 688,-0.5 545,-0.5"/>
<text text-anchor="middle" x="616.5" y="-7.5" font-family="Helvetica,sans-Serif" font-size="10.00">Leosac::Audit::IZoneEvent</text>
</a>
</g>
</g>
<!-- Node2&#45;&gt;Node1 -->
<g id="edge1" class="edge">
<title>Node2&#45;&gt;Node1</title>
<path fill="none" stroke="midnightblue" d="M671.88,-21.68C710.17,-29.9 760.81,-40.78 796.66,-48.48"/>
<polygon fill="midnightblue" stroke="midnightblue" points="672.44,-18.22 661.92,-19.54 670.97,-25.06 672.44,-18.22"/>
</g>
<!-- Node3 -->
<g id="node3" class="node">
<title>Node3</title>
<g id="a_node3"><a xlink:href="../../d1/d44/classLeosac_1_1Audit_1_1IAuditEntry.html" target="_top" xlink:title="Base interface to Audit object.">
<polygon fill="white" stroke="black" points="306.5,-2.5 306.5,-21.5 448.5,-21.5 448.5,-2.5 306.5,-2.5"/>
<text text-anchor="middle" x="377.5" y="-9.5" font-family="Helvetica,sans-Serif" font-size="10.00">Leosac::Audit::IAuditEntry</text>
</a>
</g>
</g>
<!-- Node3&#45;&gt;Node2 -->
<g id="edge2" class="edge">
<title>Node3&#45;&gt;Node2</title>
<path fill="none" stroke="midnightblue" d="M458.76,-11.32C486.63,-11.09 517.66,-10.83 544.71,-10.6"/>
<polygon fill="midnightblue" stroke="midnightblue" points="458.62,-7.82 448.65,-11.41 458.68,-14.82 458.62,-7.82"/>
</g>
<!-- Node5 -->
<g id="node5" class="node">
<title>Node5</title>
<g id="a_node5"><a xlink:href="../../d0/d20/classLeosac_1_1Audit_1_1AuditEntry.html" target="_top" xlink:title="Implementation of IAuditEntry, backed by ODB.">
<polygon fill="white" stroke="black" points="547,-115.5 547,-134.5 686,-134.5 686,-115.5 547,-115.5"/>
<text text-anchor="middle" x="616.5" y="-122.5" font-family="Helvetica,sans-Serif" font-size="10.00">Leosac::Audit::AuditEntry</text>
</a>
</g>
</g>
<!-- Node3&#45;&gt;Node5 -->
<g id="edge5" class="edge">
<title>Node3&#45;&gt;Node5</title>
<path fill="none" stroke="midnightblue" d="M411.85,-25.35C425.34,-30.9 441.01,-37.55 455,-44 507.44,-68.16 567.91,-99.7 597.41,-115.34"/>
<polygon fill="midnightblue" stroke="midnightblue" points="413.05,-22.05 402.47,-21.51 410.4,-28.54 413.05,-22.05"/>
</g>
<!-- Node4 -->
<g id="node4" class="node">
<title>Node4</title>
<g id="a_node4"><a xlink:href="../../d0/d33/classLeosac_1_1Tools_1_1IVisitable.html" target="_top" xlink:title="Base class to make an object visitable.">
<polygon fill="white" stroke="black" points="82,-2.5 82,-21.5 215,-21.5 215,-2.5 82,-2.5"/>
<text text-anchor="middle" x="148.5" y="-9.5" font-family="Helvetica,sans-Serif" font-size="10.00">Leosac::Tools::IVisitable</text>
</a>
</g>
</g>
<!-- Node4&#45;&gt;Node3 -->
<g id="edge3" class="edge">
<title>Node4&#45;&gt;Node3</title>
<path fill="none" stroke="midnightblue" d="M225.38,-12C251.49,-12 280.59,-12 306.24,-12"/>
<polygon fill="midnightblue" stroke="midnightblue" points="225.16,-8.5 215.16,-12 225.16,-15.5 225.16,-8.5"/>
</g>
<!-- Node5&#45;&gt;Node1 -->
<g id="edge4" class="edge">
<title>Node5&#45;&gt;Node1</title>
<path fill="none" stroke="midnightblue" d="M659.21,-112.5C702.62,-99.48 769.65,-79.39 809.04,-67.58"/>
<polygon fill="midnightblue" stroke="midnightblue" points="658.1,-109.18 649.52,-115.4 660.11,-115.88 658.1,-109.18"/>
</g>
<!-- Node12 -->
<g id="node12" class="node">
<title>Node12</title>
<g id="a_node12"><a xlink:title=" ">
<polygon fill="white" stroke="#bfbfbf" points="764,-129.5 764,-148.5 920,-148.5 920,-129.5 764,-129.5"/>
<text text-anchor="middle" x="842" y="-136.5" font-family="Helvetica,sans-Serif" font-size="10.00">std::weak_ptr&lt; AuditEntry &gt;</text>
</a>
</g>
</g>
<!-- Node5&#45;&gt;Node12 -->
<g id="edge13" class="edge">
<title>Node5&#45;&gt;Node12</title>
<path fill="none" stroke="#9a32cd" stroke-dasharray="5,2" d="M696.13,-133.26C699.46,-133.53 702.76,-133.78 706,-134 724.72,-135.3 744.92,-136.27 763.85,-137"/>
<polygon fill="#9a32cd" stroke="#9a32cd" points="696.33,-129.77 686.07,-132.41 695.74,-136.74 696.33,-129.77"/>
<text text-anchor="middle" x="726" y="-139" font-family="Helvetica,sans-Serif" font-size="10.00"> ptr</text>
</g>
<!-- Node6 -->
<g id="node6" class="node">
<title>Node6</title>
<g id="a_node6"><a xlink:title=" ">
<polygon fill="white" stroke="#bfbfbf" points="306.5,-232 306.5,-262 448.5,-262 448.5,-232 306.5,-232"/>
<text text-anchor="start" x="314.5" y="-250" font-family="Helvetica,sans-Serif" font-size="10.00">std::enable_shared</text>
<text text-anchor="middle" x="377.5" y="-239" font-family="Helvetica,sans-Serif" font-size="10.00">_from_this&lt; AuditEntry &gt;</text>
</a>
</g>
</g>
<!-- Node6&#45;&gt;Node5 -->
<g id="edge6" class="edge">
<title>Node6&#45;&gt;Node5</title>
<path fill="none" stroke="midnightblue" d="M436.34,-228.64C442.66,-226.47 448.98,-224.23 455,-222 487.5,-209.94 496.94,-209.27 527,-192 557.08,-174.72 588.61,-148.62 604.68,-134.64"/>
<polygon fill="midnightblue" stroke="midnightblue" points="434.8,-225.46 426.45,-231.97 437.04,-232.09 434.8,-225.46"/>
</g>
<!-- Node7 -->
<g id="node7" class="node">
<title>Node7</title>
<g id="a_node7"><a xlink:title=" ">
<polygon fill="white" stroke="#bfbfbf" points="300,-193.5 300,-212.5 455,-212.5 455,-193.5 300,-193.5"/>
<text text-anchor="middle" x="377.5" y="-200.5" font-family="Helvetica,sans-Serif" font-size="10.00">std::vector&lt; AuditEntryPtr &gt;</text>
</a>
</g>
</g>
<!-- Node7&#45;&gt;Node5 -->
<g id="edge7" class="edge">
<title>Node7&#45;&gt;Node5</title>
<path fill="none" stroke="#9a32cd" stroke-dasharray="5,2" d="M429.46,-190.94C438.01,-188.74 446.78,-186.39 455,-184 505.04,-169.47 561.9,-147.13 592.71,-134.52"/>
<polygon fill="#9a32cd" stroke="#9a32cd" points="428.39,-187.59 419.55,-193.43 430.1,-194.38 428.39,-187.59"/>
<text text-anchor="middle" x="500" y="-180" font-family="Helvetica,sans-Serif" font-size="10.00"> children_</text>
</g>
<!-- Node8 -->
<g id="node8" class="node">
<title>Node8</title>
<g id="a_node8"><a xlink:title="STL class.">
<polygon fill="white" stroke="#bfbfbf" points="89.5,-193.5 89.5,-212.5 207.5,-212.5 207.5,-193.5 89.5,-193.5"/>
<text text-anchor="middle" x="148.5" y="-200.5" font-family="Helvetica,sans-Serif" font-size="10.00">std::shared_ptr&lt; T &gt;</text>
</a>
</g>
</g>
<!-- Node8&#45;&gt;Node7 -->
<g id="edge8" class="edge">
<title>Node8&#45;&gt;Node7</title>
<path fill="none" stroke="#9a32cd" stroke-dasharray="5,2" d="M217.73,-203C243.54,-203 273.09,-203 299.64,-203"/>
<polygon fill="#9a32cd" stroke="#9a32cd" points="217.66,-199.5 207.66,-203 217.66,-206.5 217.66,-199.5"/>
<text text-anchor="middle" x="257.5" y="-206" font-family="Helvetica,sans-Serif" font-size="10.00"> elements</text>
</g>
<!-- Node9 -->
<g id="node9" class="node">
<title>Node9</title>
<g id="a_node9"><a xlink:title=" ">
<polygon fill="white" stroke="#bfbfbf" points="0,-193.5 0,-212.5 29,-212.5 29,-193.5 0,-193.5"/>
<text text-anchor="middle" x="14.5" y="-200.5" font-family="Helvetica,sans-Serif" font-size="10.00">T</text>
</a>
</g>
</g>
<!-- Node9&#45;&gt;Node8 -->
<g id="edge9" class="edge">
<title>Node9&#45;&gt;Node8</title>
<path fill="none" stroke="#9a32cd" stroke-dasharray="5,2" d="M39.35,-203C53.39,-203 71.8,-203 89.44,-203"/>
<polygon fill="#9a32cd" stroke="#9a32cd" points="39.13,-199.5 29.13,-203 39.13,-206.5 39.13,-199.5"/>
<text text-anchor="middle" x="55.5" y="-206" font-family="Helvetica,sans-Serif" font-size="10.00"> ptr</text>
</g>
<!-- Node10 -->
<g id="node10" class="node">
<title>Node10</title>
<g id="a_node10"><a xlink:title=" ">
<polygon fill="white" stroke="#bfbfbf" points="318,-144 318,-174 437,-174 437,-144 318,-144"/>
<text text-anchor="start" x="326" y="-162" font-family="Helvetica,sans-Serif" font-size="10.00">std::shared_ptr&lt; odb</text>
<text text-anchor="middle" x="377.5" y="-151" font-family="Helvetica,sans-Serif" font-size="10.00">::database &gt;</text>
</a>
</g>
</g>
<!-- Node10&#45;&gt;Node5 -->
<g id="edge10" class="edge">
<title>Node10&#45;&gt;Node5</title>
<path fill="none" stroke="#9a32cd" stroke-dasharray="5,2" d="M447.28,-149.13C479.39,-144.53 517.44,-139.07 549.23,-134.51"/>
<polygon fill="#9a32cd" stroke="#9a32cd" points="446.49,-145.71 437.08,-150.6 447.48,-152.64 446.49,-145.71"/>
<text text-anchor="middle" x="500" y="-148" font-family="Helvetica,sans-Serif" font-size="10.00"> database_</text>
</g>
<!-- Node11 -->
<g id="node11" class="node">
<title>Node11</title>
<g id="a_node11"><a xlink:href="../../dd/d95/classLeosac_1_1Tools_1_1ElapsedTimeCounter.html" target="_top" xlink:title="This class provide a simple to get the elapsed time since it&#39;s creation.">
<polygon fill="white" stroke="black" points="302.5,-95 302.5,-125 452.5,-125 452.5,-95 302.5,-95"/>
<text text-anchor="start" x="310.5" y="-113" font-family="Helvetica,sans-Serif" font-size="10.00">Leosac::Tools::ElapsedTime</text>
<text text-anchor="middle" x="377.5" y="-102" font-family="Helvetica,sans-Serif" font-size="10.00">Counter</text>
</a>
</g>
</g>
<!-- Node11&#45;&gt;Node5 -->
<g id="edge11" class="edge">
<title>Node11&#45;&gt;Node5</title>
<path fill="none" stroke="#9a32cd" stroke-dasharray="5,2" d="M462.56,-115.32C490.18,-117.07 520.55,-118.99 546.89,-120.66"/>
<polygon fill="#9a32cd" stroke="#9a32cd" points="462.71,-111.82 452.51,-114.68 462.27,-118.81 462.71,-111.82"/>
<text text-anchor="middle" x="500" y="-122" font-family="Helvetica,sans-Serif" font-size="10.00"> etc_</text>
</g>
<!-- Node12&#45;&gt;Node5 -->
<g id="edge12" class="edge">
<title>Node12&#45;&gt;Node5</title>
<path fill="none" stroke="#9a32cd" stroke-dasharray="5,2" d="M783.64,-127.76C771.28,-125.78 758.24,-124.02 746,-123 728.28,-121.52 723.78,-122.8 706,-123 699.55,-123.07 692.83,-123.18 686.1,-123.3"/>
<polygon fill="#9a32cd" stroke="#9a32cd" points="783.4,-131.26 793.84,-129.46 784.56,-124.36 783.4,-131.26"/>
<text text-anchor="middle" x="726" y="-126" font-family="Helvetica,sans-Serif" font-size="10.00"> parent_</text>
</g>
<!-- Node13 -->
<g id="node13" class="node">
<title>Node13</title>
<g id="a_node13"><a xlink:title="STL class.">
<polygon fill="white" stroke="#bfbfbf" points="345,-53.5 345,-72.5 410,-72.5 410,-53.5 345,-53.5"/>
<text text-anchor="middle" x="377.5" y="-60.5" font-family="Helvetica,sans-Serif" font-size="10.00">std::string</text>
</a>
</g>
</g>
<!-- Node13&#45;&gt;Node1 -->
<g id="edge16" class="edge">
<title>Node13&#45;&gt;Node1</title>
<path fill="none" stroke="#9a32cd" stroke-dasharray="5,2" d="M420.44,-62.55C500.16,-61.68 674.28,-59.8 771.62,-58.75"/>
<polygon fill="#9a32cd" stroke="#9a32cd" points="420.25,-59.05 410.29,-62.66 420.33,-66.05 420.25,-59.05"/>
<text text-anchor="middle" x="616.5" y="-75" font-family="Helvetica,sans-Serif" font-size="10.00"> after_</text>
<text text-anchor="middle" x="616.5" y="-64" font-family="Helvetica,sans-Serif" font-size="10.00">before_</text>
</g>
<!-- Node13&#45;&gt;Node5 -->
<g id="edge14" class="edge">
<title>Node13&#45;&gt;Node5</title>
<path fill="none" stroke="#9a32cd" stroke-dasharray="5,2" d="M420.15,-73.49C449.94,-81.03 490.97,-91.51 527,-101 544.7,-105.67 564.36,-110.98 580.64,-115.42"/>
<polygon fill="#9a32cd" stroke="#9a32cd" points="420.66,-70.01 410.11,-70.95 418.95,-76.79 420.66,-70.01"/>
<text text-anchor="middle" x="500" y="-104" font-family="Helvetica,sans-Serif" font-size="10.00"> msg_</text>
</g>
<!-- Node14 -->
<g id="node14" class="node">
<title>Node14</title>
<g id="a_node14"><a xlink:title="STL class.">
<polygon fill="white" stroke="#bfbfbf" points="96.5,-48 96.5,-78 200.5,-78 200.5,-48 96.5,-48"/>
<text text-anchor="start" x="104.5" y="-66" font-family="Helvetica,sans-Serif" font-size="10.00">std::basic_string&lt;</text>
<text text-anchor="middle" x="148.5" y="-55" font-family="Helvetica,sans-Serif" font-size="10.00"> char &gt;</text>
</a>
</g>
</g>
<!-- Node14&#45;&gt;Node13 -->
<g id="edge15" class="edge">
<title>Node14&#45;&gt;Node13</title>
<path fill="none" stroke="midnightblue" d="M210.85,-63C254.06,-63 310.14,-63 344.71,-63"/>
<polygon fill="midnightblue" stroke="midnightblue" points="210.73,-59.5 200.73,-63 210.73,-66.5 210.73,-59.5"/>
</g>
</g>
</svg>
