<?xml version="1.0" encoding="UTF-8" standalone="no"?>
<!DOCTYPE svg PUBLIC "-//W3C//DTD SVG 1.1//EN"
 "http://www.w3.org/Graphics/SVG/1.1/DTD/svg11.dtd">
<!-- Generated by graphviz version 2.43.0 (0)
 -->
<!-- Title: src/core/auth/AuthTarget.hpp Pages: 1 -->
<svg width="4396pt" height="430pt"
 viewBox="0.00 0.00 4396.00 430.00" xmlns="http://www.w3.org/2000/svg" xmlns:xlink="http://www.w3.org/1999/xlink">
<g id="graph0" class="graph" transform="scale(1 1) rotate(0) translate(4 426)">
<title>src/core/auth/AuthTarget.hpp</title>
<polygon fill="white" stroke="transparent" points="-4,4 -4,-426 4392,-426 4392,4 -4,4"/>
<!-- Node1 -->
<g id="node1" class="node">
<title>Node1</title>
<g id="a_node1"><a xlink:title=" ">
<polygon fill="#bfbfbf" stroke="black" points="1543.5,-402.5 1543.5,-421.5 1699.5,-421.5 1699.5,-402.5 1543.5,-402.5"/>
<text text-anchor="middle" x="1621.5" y="-409.5" font-family="Helvetica,sans-Serif" font-size="10.00">src/core/auth/AuthTarget.hpp</text>
</a>
</g>
</g>
<!-- Node2 -->
<g id="node2" class="node">
<title>Node2</title>
<g id="a_node2"><a xlink:href="../../dc/d6f/AuthTarget_8cpp.html" target="_top" xlink:title=" ">
<polygon fill="white" stroke="black" points="1289,-341 1289,-360 1444,-360 1444,-341 1289,-341"/>
<text text-anchor="middle" x="1366.5" y="-348" font-family="Helvetica,sans-Serif" font-size="10.00">src/core/auth/AuthTarget.cpp</text>
</a>
</g>
</g>
<!-- Node1&#45;&gt;Node2 -->
<g id="edge1" class="edge">
<title>Node1&#45;&gt;Node2</title>
<path fill="none" stroke="midnightblue" d="M1575.15,-400.19C1525.67,-388.64 1448.29,-370.58 1402.97,-360.01"/>
<polygon fill="midnightblue" stroke="midnightblue" points="1574.43,-403.61 1584.96,-402.48 1576.02,-396.79 1574.43,-403.61"/>
</g>
<!-- Node3 -->
<g id="node3" class="node">
<title>Node3</title>
<g id="a_node3"><a xlink:href="../../d4/d86/IAccessProfile_8hpp.html" target="_top" xlink:title=" ">
<polygon fill="white" stroke="black" points="1462,-335.5 1462,-365.5 1593,-365.5 1593,-335.5 1462,-335.5"/>
<text text-anchor="start" x="1470" y="-353.5" font-family="Helvetica,sans-Serif" font-size="10.00">src/core/auth/Interfaces</text>
<text text-anchor="middle" x="1527.5" y="-342.5" font-family="Helvetica,sans-Serif" font-size="10.00">/IAccessProfile.hpp</text>
</a>
</g>
</g>
<!-- Node1&#45;&gt;Node3 -->
<g id="edge2" class="edge">
<title>Node1&#45;&gt;Node3</title>
<path fill="none" stroke="midnightblue" d="M1599.4,-397.01C1584.4,-387.52 1564.66,-375.02 1549.65,-365.52"/>
<polygon fill="midnightblue" stroke="midnightblue" points="1597.71,-400.08 1608.03,-402.48 1601.45,-394.17 1597.71,-400.08"/>
</g>
<!-- Node18 -->
<g id="node18" class="node">
<title>Node18</title>
<g id="a_node18"><a xlink:href="../../d9/dfe/SimpleAccessProfile_8hpp.html" target="_top" xlink:title=" ">
<polygon fill="white" stroke="black" points="1452.5,-268.5 1452.5,-298.5 1602.5,-298.5 1602.5,-268.5 1452.5,-268.5"/>
<text text-anchor="start" x="1460.5" y="-286.5" font-family="Helvetica,sans-Serif" font-size="10.00">src/core/auth/SimpleAccess</text>
<text text-anchor="middle" x="1527.5" y="-275.5" font-family="Helvetica,sans-Serif" font-size="10.00">Profile.hpp</text>
</a>
</g>
</g>
<!-- Node1&#45;&gt;Node18 -->
<g id="edge52" class="edge">
<title>Node1&#45;&gt;Node18</title>
<path fill="none" stroke="midnightblue" d="M1620.23,-392.19C1618.31,-375.79 1613.52,-352.03 1601.5,-335 1590.47,-319.37 1572.95,-307.1 1557.73,-298.57"/>
<polygon fill="midnightblue" stroke="midnightblue" points="1616.75,-392.56 1621.15,-402.2 1623.72,-391.92 1616.75,-392.56"/>
</g>
<!-- Node44 -->
<g id="node44" class="node">
<title>Node44</title>
<g id="a_node44"><a xlink:href="../../de/d46/DoormanModule_8hpp.html" target="_top" xlink:title=" ">
<polygon fill="white" stroke="black" points="1731.5,-335.5 1731.5,-365.5 1853.5,-365.5 1853.5,-335.5 1731.5,-335.5"/>
<text text-anchor="start" x="1739.5" y="-353.5" font-family="Helvetica,sans-Serif" font-size="10.00">src/modules/doorman</text>
<text text-anchor="middle" x="1792.5" y="-342.5" font-family="Helvetica,sans-Serif" font-size="10.00">/DoormanModule.hpp</text>
</a>
</g>
</g>
<!-- Node1&#45;&gt;Node44 -->
<g id="edge53" class="edge">
<title>Node1&#45;&gt;Node44</title>
<path fill="none" stroke="midnightblue" d="M1655.69,-399.1C1683.52,-389.42 1722.84,-375.74 1752.2,-365.52"/>
<polygon fill="midnightblue" stroke="midnightblue" points="1654.29,-395.88 1646,-402.48 1656.59,-402.49 1654.29,-395.88"/>
</g>
<!-- Node48 -->
<g id="node48" class="node">
<title>Node48</title>
<g id="a_node48"><a xlink:href="../../d3/d6c/EventPublish_8h.html" target="_top" xlink:title=" ">
<polygon fill="white" stroke="black" points="2082.5,-335.5 2082.5,-365.5 2228.5,-365.5 2228.5,-335.5 2082.5,-335.5"/>
<text text-anchor="start" x="2090.5" y="-353.5" font-family="Helvetica,sans-Serif" font-size="10.00">src/modules/event&#45;publish</text>
<text text-anchor="middle" x="2155.5" y="-342.5" font-family="Helvetica,sans-Serif" font-size="10.00">/EventPublish.h</text>
</a>
</g>
</g>
<!-- Node1&#45;&gt;Node48 -->
<g id="edge57" class="edge">
<title>Node1&#45;&gt;Node48</title>
<path fill="none" stroke="midnightblue" d="M1708.16,-401.34C1812.1,-389.76 1984.49,-370.55 2082.14,-359.67"/>
<polygon fill="midnightblue" stroke="midnightblue" points="1707.56,-397.89 1698.01,-402.48 1708.34,-404.85 1707.56,-397.89"/>
</g>
<!-- Node4 -->
<g id="node4" class="node">
<title>Node4</title>
<g id="a_node4"><a xlink:href="../../d7/d86/IDoor_8hpp.html" target="_top" xlink:title=" ">
<polygon fill="white" stroke="black" points="928,-274 928,-293 1057,-293 1057,-274 928,-274"/>
<text text-anchor="middle" x="992.5" y="-281" font-family="Helvetica,sans-Serif" font-size="10.00">src/core/auth/IDoor.hpp</text>
</a>
</g>
</g>
<!-- Node3&#45;&gt;Node4 -->
<g id="edge3" class="edge">
<title>Node3&#45;&gt;Node4</title>
<path fill="none" stroke="midnightblue" d="M1451.6,-334.94C1304.69,-313.04 1144.29,-297.6 1057.09,-289.91"/>
<polygon fill="midnightblue" stroke="midnightblue" points="1451.29,-338.44 1461.7,-336.46 1452.33,-331.52 1451.29,-338.44"/>
</g>
<!-- Node16 -->
<g id="node16" class="node">
<title>Node16</title>
<g id="a_node16"><a xlink:href="../../de/da4/ProfileMerger_8hpp.html" target="_top" xlink:title=" ">
<polygon fill="white" stroke="black" points="1266.5,-274 1266.5,-293 1434.5,-293 1434.5,-274 1266.5,-274"/>
<text text-anchor="middle" x="1350.5" y="-281" font-family="Helvetica,sans-Serif" font-size="10.00">src/core/auth/ProfileMerger.hpp</text>
</a>
</g>
</g>
<!-- Node3&#45;&gt;Node16 -->
<g id="edge15" class="edge">
<title>Node3&#45;&gt;Node16</title>
<path fill="none" stroke="midnightblue" d="M1479.7,-331.95C1445.32,-319.32 1400.47,-302.85 1373.67,-293.01"/>
<polygon fill="midnightblue" stroke="midnightblue" points="1478.5,-335.23 1489.09,-335.4 1480.91,-328.66 1478.5,-335.23"/>
</g>
<!-- Node3&#45;&gt;Node18 -->
<g id="edge18" class="edge">
<title>Node3&#45;&gt;Node18</title>
<path fill="none" stroke="midnightblue" d="M1527.5,-325.11C1527.5,-316.15 1527.5,-306.32 1527.5,-298.58"/>
<polygon fill="midnightblue" stroke="midnightblue" points="1524,-325.4 1527.5,-335.4 1531,-325.4 1524,-325.4"/>
</g>
<!-- Node28 -->
<g id="node28" class="node">
<title>Node28</title>
<g id="a_node28"><a xlink:href="../../de/dfd/User_8hpp.html" target="_top" xlink:title=" ">
<polygon fill="white" stroke="black" points="2744,-207 2744,-226 2869,-226 2869,-207 2744,-207"/>
<text text-anchor="middle" x="2806.5" y="-214" font-family="Helvetica,sans-Serif" font-size="10.00">src/core/auth/User.hpp</text>
</a>
</g>
</g>
<!-- Node3&#45;&gt;Node28 -->
<g id="edge31" class="edge">
<title>Node3&#45;&gt;Node28</title>
<path fill="none" stroke="midnightblue" d="M1561.84,-330.35C1577.34,-321.33 1595.67,-310.13 1611.5,-299 1629.33,-286.46 1629.13,-275.76 1649.5,-268 1751.84,-229.02 2518.03,-219.81 2743.97,-217.93"/>
<polygon fill="midnightblue" stroke="midnightblue" points="1560.01,-327.37 1553.09,-335.39 1563.5,-333.43 1560.01,-327.37"/>
</g>
<!-- Node5 -->
<g id="node5" class="node">
<title>Node5</title>
<g id="a_node5"><a xlink:href="../../d1/d8f/Door_8hpp.html" target="_top" xlink:title=" ">
<polygon fill="white" stroke="black" points="753.5,-207 753.5,-226 879.5,-226 879.5,-207 753.5,-207"/>
<text text-anchor="middle" x="816.5" y="-214" font-family="Helvetica,sans-Serif" font-size="10.00">src/core/auth/Door.hpp</text>
</a>
</g>
</g>
<!-- Node4&#45;&gt;Node5 -->
<g id="edge4" class="edge">
<title>Node4&#45;&gt;Node5</title>
<path fill="none" stroke="midnightblue" d="M959.39,-270.27C924.46,-257.37 870.32,-237.38 839.69,-226.06"/>
<polygon fill="midnightblue" stroke="midnightblue" points="958.54,-273.69 969.13,-273.87 960.96,-267.12 958.54,-273.69"/>
</g>
<!-- Node15 -->
<g id="node15" class="node">
<title>Node15</title>
<g id="a_node15"><a xlink:href="../../dc/da8/UserSecurityContext_8cpp.html" target="_top" xlink:title=" ">
<polygon fill="white" stroke="black" points="903,-207 903,-226 1082,-226 1082,-207 903,-207"/>
<text text-anchor="middle" x="992.5" y="-214" font-family="Helvetica,sans-Serif" font-size="10.00">src/core/UserSecurityContext.cpp</text>
</a>
</g>
</g>
<!-- Node4&#45;&gt;Node15 -->
<g id="edge14" class="edge">
<title>Node4&#45;&gt;Node15</title>
<path fill="none" stroke="midnightblue" d="M992.5,-263.54C992.5,-251.17 992.5,-235.62 992.5,-226.13"/>
<polygon fill="midnightblue" stroke="midnightblue" points="989,-263.73 992.5,-273.73 996,-263.73 989,-263.73"/>
</g>
<!-- Node6 -->
<g id="node6" class="node">
<title>Node6</title>
<g id="a_node6"><a xlink:href="../../d4/dbe/AuditFactory_8cpp.html" target="_top" xlink:title=" ">
<polygon fill="white" stroke="black" points="1009,-140 1009,-159 1174,-159 1174,-140 1009,-140"/>
<text text-anchor="middle" x="1091.5" y="-147" font-family="Helvetica,sans-Serif" font-size="10.00">src/core/audit/AuditFactory.cpp</text>
</a>
</g>
</g>
<!-- Node5&#45;&gt;Node6 -->
<g id="edge5" class="edge">
<title>Node5&#45;&gt;Node6</title>
<path fill="none" stroke="midnightblue" d="M862.77,-204.56C916.98,-191.75 1005.68,-170.78 1055.19,-159.08"/>
<polygon fill="midnightblue" stroke="midnightblue" points="861.66,-201.23 852.73,-206.94 863.27,-208.04 861.66,-201.23"/>
</g>
<!-- Node7 -->
<g id="node7" class="node">
<title>Node7</title>
<g id="a_node7"><a xlink:href="../../db/d89/DoorEvent_8cpp.html" target="_top" xlink:title=" ">
<polygon fill="white" stroke="black" points="0,-140 0,-159 157,-159 157,-140 0,-140"/>
<text text-anchor="middle" x="78.5" y="-147" font-family="Helvetica,sans-Serif" font-size="10.00">src/core/audit/DoorEvent.cpp</text>
</a>
</g>
</g>
<!-- Node5&#45;&gt;Node7 -->
<g id="edge6" class="edge">
<title>Node5&#45;&gt;Node7</title>
<path fill="none" stroke="midnightblue" d="M743.25,-211.92C622.53,-205.54 374.34,-190.45 165.5,-165 152.28,-163.39 137.99,-161.2 124.9,-159.01"/>
<polygon fill="midnightblue" stroke="midnightblue" points="743.3,-215.43 753.47,-212.45 743.67,-208.43 743.3,-215.43"/>
</g>
<!-- Node8 -->
<g id="node8" class="node">
<title>Node8</title>
<g id="a_node8"><a xlink:href="../../d1/d88/AccessPoint_8cpp.html" target="_top" xlink:title=" ">
<polygon fill="white" stroke="black" points="175,-140 175,-159 336,-159 336,-140 175,-140"/>
<text text-anchor="middle" x="255.5" y="-147" font-family="Helvetica,sans-Serif" font-size="10.00">src/core/auth/AccessPoint.cpp</text>
</a>
</g>
</g>
<!-- Node5&#45;&gt;Node8 -->
<g id="edge7" class="edge">
<title>Node5&#45;&gt;Node8</title>
<path fill="none" stroke="midnightblue" d="M743.24,-208.92C650.31,-200.28 485.22,-183.98 344.5,-165 331.62,-163.26 317.74,-161.13 304.86,-159.04"/>
<polygon fill="midnightblue" stroke="midnightblue" points="743.1,-212.42 753.38,-209.86 743.75,-205.45 743.1,-212.42"/>
</g>
<!-- Node9 -->
<g id="node9" class="node">
<title>Node9</title>
<g id="a_node9"><a xlink:href="../../d0/dc5/Door_8cpp.html" target="_top" xlink:title=" ">
<polygon fill="white" stroke="black" points="354,-140 354,-159 479,-159 479,-140 354,-140"/>
<text text-anchor="middle" x="416.5" y="-147" font-family="Helvetica,sans-Serif" font-size="10.00">src/core/auth/Door.cpp</text>
</a>
</g>
</g>
<!-- Node5&#45;&gt;Node9 -->
<g id="edge8" class="edge">
<title>Node5&#45;&gt;Node9</title>
<path fill="none" stroke="midnightblue" d="M745.12,-205.58C678.36,-196.05 575.97,-180.81 487.5,-165 477.47,-163.21 466.68,-161.1 456.61,-159.05"/>
<polygon fill="midnightblue" stroke="midnightblue" points="744.72,-209.05 755.11,-207 745.7,-202.12 744.72,-209.05"/>
</g>
<!-- Node10 -->
<g id="node10" class="node">
<title>Node10</title>
<g id="a_node10"><a xlink:href="../../d8/da2/DoorSerializer_8cpp.html" target="_top" xlink:title=" ">
<polygon fill="white" stroke="black" points="497,-134.5 497,-164.5 630,-164.5 630,-134.5 497,-134.5"/>
<text text-anchor="start" x="505" y="-152.5" font-family="Helvetica,sans-Serif" font-size="10.00">src/core/auth/serializers</text>
<text text-anchor="middle" x="563.5" y="-141.5" font-family="Helvetica,sans-Serif" font-size="10.00">/DoorSerializer.cpp</text>
</a>
</g>
</g>
<!-- Node5&#45;&gt;Node10 -->
<g id="edge9" class="edge">
<title>Node5&#45;&gt;Node10</title>
<path fill="none" stroke="midnightblue" d="M773.33,-204.41C730.49,-193.4 664.7,-176.5 618.22,-164.56"/>
<polygon fill="midnightblue" stroke="midnightblue" points="772.61,-207.84 783.16,-206.94 774.35,-201.06 772.61,-207.84"/>
</g>
<!-- Node11 -->
<g id="node11" class="node">
<title>Node11</title>
<g id="a_node11"><a xlink:href="../../d3/dc5/FileAuthSourceMapper_8cpp.html" target="_top" xlink:title=" ">
<polygon fill="white" stroke="black" points="1192,-134.5 1192,-164.5 1359,-164.5 1359,-134.5 1192,-134.5"/>
<text text-anchor="start" x="1200" y="-152.5" font-family="Helvetica,sans-Serif" font-size="10.00">src/modules/auth/auth</text>
<text text-anchor="middle" x="1275.5" y="-141.5" font-family="Helvetica,sans-Serif" font-size="10.00">&#45;file/FileAuthSourceMapper.cpp</text>
</a>
</g>
</g>
<!-- Node5&#45;&gt;Node11 -->
<g id="edge10" class="edge">
<title>Node5&#45;&gt;Node11</title>
<path fill="none" stroke="midnightblue" d="M869.03,-205.16C877.2,-203.68 885.57,-202.24 893.5,-201 1021.38,-181.01 1054.32,-182.97 1182.5,-165 1185.57,-164.57 1188.71,-164.12 1191.87,-163.66"/>
<polygon fill="midnightblue" stroke="midnightblue" points="868.38,-201.72 859.18,-206.97 869.65,-208.6 868.38,-201.72"/>
</g>
<!-- Node12 -->
<g id="node12" class="node">
<title>Node12</title>
<g id="a_node12"><a xlink:href="../../d1/d50/AccessOverview_8cpp.html" target="_top" xlink:title=" ">
<polygon fill="white" stroke="black" points="648.5,-134.5 648.5,-164.5 804.5,-164.5 804.5,-134.5 648.5,-134.5"/>
<text text-anchor="start" x="656.5" y="-152.5" font-family="Helvetica,sans-Serif" font-size="10.00">src/modules/websock</text>
<text text-anchor="middle" x="726.5" y="-141.5" font-family="Helvetica,sans-Serif" font-size="10.00">&#45;api/api/AccessOverview.cpp</text>
</a>
</g>
</g>
<!-- Node5&#45;&gt;Node12 -->
<g id="edge11" class="edge">
<title>Node5&#45;&gt;Node12</title>
<path fill="none" stroke="midnightblue" d="M796.21,-200.85C781.19,-190 760.84,-175.3 746.01,-164.59"/>
<polygon fill="midnightblue" stroke="midnightblue" points="794.21,-203.72 804.36,-206.73 798.3,-198.04 794.21,-203.72"/>
</g>
<!-- Node13 -->
<g id="node13" class="node">
<title>Node13</title>
<g id="a_node13"><a xlink:href="../../d7/df7/DoorSearch_8cpp.html" target="_top" xlink:title=" ">
<polygon fill="white" stroke="black" points="822.5,-134.5 822.5,-164.5 990.5,-164.5 990.5,-134.5 822.5,-134.5"/>
<text text-anchor="start" x="830.5" y="-152.5" font-family="Helvetica,sans-Serif" font-size="10.00">src/modules/websock</text>
<text text-anchor="middle" x="906.5" y="-141.5" font-family="Helvetica,sans-Serif" font-size="10.00">&#45;api/api/search/DoorSearch.cpp</text>
</a>
</g>
</g>
<!-- Node5&#45;&gt;Node13 -->
<g id="edge12" class="edge">
<title>Node5&#45;&gt;Node13</title>
<path fill="none" stroke="midnightblue" d="M836.79,-200.85C851.81,-190 872.16,-175.3 886.99,-164.59"/>
<polygon fill="midnightblue" stroke="midnightblue" points="834.7,-198.04 828.64,-206.73 838.79,-203.72 834.7,-198.04"/>
</g>
<!-- Node14 -->
<g id="node14" class="node">
<title>Node14</title>
<g id="a_node14"><a xlink:href="../../d7/d01/ScheduleMapping_8cpp.html" target="_top" xlink:title=" ">
<polygon fill="white" stroke="black" points="1377,-140 1377,-159 1544,-159 1544,-140 1377,-140"/>
<text text-anchor="middle" x="1460.5" y="-147" font-family="Helvetica,sans-Serif" font-size="10.00">src/tools/ScheduleMapping.cpp</text>
</a>
</g>
</g>
<!-- Node5&#45;&gt;Node14 -->
<g id="edge13" class="edge">
<title>Node5&#45;&gt;Node14</title>
<path fill="none" stroke="midnightblue" d="M867.21,-205.13C875.95,-203.58 884.97,-202.12 893.5,-201 1102.96,-173.41 1157.63,-189.29 1367.5,-165 1381.46,-163.38 1396.54,-161.22 1410.4,-159.05"/>
<polygon fill="midnightblue" stroke="midnightblue" points="866.33,-201.73 857.13,-206.98 867.59,-208.62 866.33,-201.73"/>
</g>
<!-- Node16&#45;&gt;Node11 -->
<g id="edge17" class="edge">
<title>Node16&#45;&gt;Node11</title>
<path fill="none" stroke="midnightblue" d="M1308.69,-270.44C1289.87,-262.69 1269.46,-250.51 1258.5,-232 1245.99,-210.85 1257.59,-181.85 1266.8,-164.75"/>
<polygon fill="midnightblue" stroke="midnightblue" points="1307.45,-273.71 1318.04,-274 1309.94,-267.17 1307.45,-273.71"/>
</g>
<!-- Node17 -->
<g id="node17" class="node">
<title>Node17</title>
<g id="a_node17"><a xlink:href="../../d9/d35/ProfileMerger_8cpp.html" target="_top" xlink:title=" ">
<polygon fill="white" stroke="black" points="1268,-207 1268,-226 1435,-226 1435,-207 1268,-207"/>
<text text-anchor="middle" x="1351.5" y="-214" font-family="Helvetica,sans-Serif" font-size="10.00">src/core/auth/ProfileMerger.cpp</text>
</a>
</g>
</g>
<!-- Node16&#45;&gt;Node17 -->
<g id="edge16" class="edge">
<title>Node16&#45;&gt;Node17</title>
<path fill="none" stroke="midnightblue" d="M1350.79,-263.54C1350.98,-251.17 1351.22,-235.62 1351.37,-226.13"/>
<polygon fill="midnightblue" stroke="midnightblue" points="1347.29,-263.68 1350.63,-273.73 1354.29,-263.79 1347.29,-263.68"/>
</g>
<!-- Node18&#45;&gt;Node17 -->
<g id="edge19" class="edge">
<title>Node18&#45;&gt;Node17</title>
<path fill="none" stroke="midnightblue" d="M1479.53,-264.78C1445.4,-252.18 1401.07,-235.81 1374.53,-226.01"/>
<polygon fill="midnightblue" stroke="midnightblue" points="1478.72,-268.21 1489.31,-268.4 1481.14,-261.65 1478.72,-268.21"/>
</g>
<!-- Node19 -->
<g id="node19" class="node">
<title>Node19</title>
<g id="a_node19"><a xlink:href="../../d8/dcf/SimpleAccessProfile_8cpp.html" target="_top" xlink:title=" ">
<polygon fill="white" stroke="black" points="1452.5,-201.5 1452.5,-231.5 1602.5,-231.5 1602.5,-201.5 1452.5,-201.5"/>
<text text-anchor="start" x="1460.5" y="-219.5" font-family="Helvetica,sans-Serif" font-size="10.00">src/core/auth/SimpleAccess</text>
<text text-anchor="middle" x="1527.5" y="-208.5" font-family="Helvetica,sans-Serif" font-size="10.00">Profile.cpp</text>
</a>
</g>
</g>
<!-- Node18&#45;&gt;Node19 -->
<g id="edge20" class="edge">
<title>Node18&#45;&gt;Node19</title>
<path fill="none" stroke="midnightblue" d="M1527.5,-258.11C1527.5,-249.15 1527.5,-239.32 1527.5,-231.58"/>
<polygon fill="midnightblue" stroke="midnightblue" points="1524,-258.4 1527.5,-268.4 1531,-258.4 1524,-258.4"/>
</g>
<!-- Node20 -->
<g id="node20" class="node">
<title>Node20</title>
<g id="a_node20"><a xlink:href="../../df/d5d/FileAuthSourceMapper_8hpp.html" target="_top" xlink:title=" ">
<polygon fill="white" stroke="black" points="1620.5,-201.5 1620.5,-231.5 1788.5,-231.5 1788.5,-201.5 1620.5,-201.5"/>
<text text-anchor="start" x="1628.5" y="-219.5" font-family="Helvetica,sans-Serif" font-size="10.00">src/modules/auth/auth</text>
<text text-anchor="middle" x="1704.5" y="-208.5" font-family="Helvetica,sans-Serif" font-size="10.00">&#45;file/FileAuthSourceMapper.hpp</text>
</a>
</g>
</g>
<!-- Node18&#45;&gt;Node20 -->
<g id="edge21" class="edge">
<title>Node18&#45;&gt;Node20</title>
<path fill="none" stroke="midnightblue" d="M1575.65,-264.82C1604.1,-254.37 1639.63,-241.32 1666.17,-231.58"/>
<polygon fill="midnightblue" stroke="midnightblue" points="1574.09,-261.66 1565.91,-268.4 1576.5,-268.23 1574.09,-261.66"/>
</g>
<!-- Node20&#45;&gt;Node11 -->
<g id="edge28" class="edge">
<title>Node20&#45;&gt;Node11</title>
<path fill="none" stroke="midnightblue" d="M1610.28,-200.82C1501.46,-184.37 1472.69,-181.05 1367.5,-165 1364.78,-164.59 1362.02,-164.16 1359.23,-163.73"/>
<polygon fill="midnightblue" stroke="midnightblue" points="1609.94,-204.31 1620.36,-202.35 1610.99,-197.39 1609.94,-204.31"/>
</g>
<!-- Node21 -->
<g id="node21" class="node">
<title>Node21</title>
<g id="a_node21"><a xlink:href="../../de/df9/AuthFileInstance_8hpp.html" target="_top" xlink:title=" ">
<polygon fill="white" stroke="black" points="1599.5,-134.5 1599.5,-164.5 1739.5,-164.5 1739.5,-134.5 1599.5,-134.5"/>
<text text-anchor="start" x="1607.5" y="-152.5" font-family="Helvetica,sans-Serif" font-size="10.00">src/modules/auth/auth</text>
<text text-anchor="middle" x="1669.5" y="-141.5" font-family="Helvetica,sans-Serif" font-size="10.00">&#45;file/AuthFileInstance.hpp</text>
</a>
</g>
</g>
<!-- Node20&#45;&gt;Node21 -->
<g id="edge22" class="edge">
<title>Node20&#45;&gt;Node21</title>
<path fill="none" stroke="midnightblue" d="M1692.16,-192.58C1687.13,-183.24 1681.48,-172.75 1677.08,-164.58"/>
<polygon fill="midnightblue" stroke="midnightblue" points="1689.08,-194.25 1696.91,-201.4 1695.25,-190.93 1689.08,-194.25"/>
</g>
<!-- Node22 -->
<g id="node22" class="node">
<title>Node22</title>
<g id="a_node22"><a xlink:href="../../da/d9b/AuthFileInstance_8cpp.html" target="_top" xlink:title=" ">
<polygon fill="white" stroke="black" points="1550.5,-67.5 1550.5,-97.5 1690.5,-97.5 1690.5,-67.5 1550.5,-67.5"/>
<text text-anchor="start" x="1558.5" y="-85.5" font-family="Helvetica,sans-Serif" font-size="10.00">src/modules/auth/auth</text>
<text text-anchor="middle" x="1620.5" y="-74.5" font-family="Helvetica,sans-Serif" font-size="10.00">&#45;file/AuthFileInstance.cpp</text>
</a>
</g>
</g>
<!-- Node20&#45;&gt;Node22 -->
<g id="edge27" class="edge">
<title>Node20&#45;&gt;Node22</title>
<path fill="none" stroke="midnightblue" d="M1630.48,-197.36C1614.71,-189.95 1599.97,-179.56 1590.5,-165 1576.52,-143.52 1594.34,-114.63 1607.88,-97.64"/>
<polygon fill="midnightblue" stroke="midnightblue" points="1629.28,-200.66 1639.85,-201.39 1632.05,-194.23 1629.28,-200.66"/>
</g>
<!-- Node26 -->
<g id="node26" class="node">
<title>Node26</title>
<g id="a_node26"><a xlink:href="../../d5/d58/AuthFile_8cpp.html" target="_top" xlink:title=" ">
<polygon fill="white" stroke="black" points="1923.5,-140 1923.5,-159 2021.5,-159 2021.5,-140 1923.5,-140"/>
<text text-anchor="middle" x="1972.5" y="-147" font-family="Helvetica,sans-Serif" font-size="10.00">test/AuthFile.cpp</text>
</a>
</g>
</g>
<!-- Node20&#45;&gt;Node26 -->
<g id="edge29" class="edge">
<title>Node20&#45;&gt;Node26</title>
<path fill="none" stroke="midnightblue" d="M1773.26,-199.13C1814.29,-189.32 1867.4,-176.55 1914.5,-165 1922.26,-163.1 1930.6,-161.03 1938.47,-159.06"/>
<polygon fill="midnightblue" stroke="midnightblue" points="1772.28,-195.76 1763.37,-201.49 1773.91,-202.57 1772.28,-195.76"/>
</g>
<!-- Node27 -->
<g id="node27" class="node">
<title>Node27</title>
<g id="a_node27"><a xlink:href="../../d9/d75/test_2AuthSourceBuilder_8cpp.html" target="_top" xlink:title=" ">
<polygon fill="white" stroke="black" points="1757.5,-140 1757.5,-159 1905.5,-159 1905.5,-140 1757.5,-140"/>
<text text-anchor="middle" x="1831.5" y="-147" font-family="Helvetica,sans-Serif" font-size="10.00">test/AuthSourceBuilder.cpp</text>
</a>
</g>
</g>
<!-- Node20&#45;&gt;Node27 -->
<g id="edge30" class="edge">
<title>Node20&#45;&gt;Node27</title>
<path fill="none" stroke="midnightblue" d="M1741.03,-196.8C1765.38,-184.34 1796.22,-168.56 1814.88,-159.01"/>
<polygon fill="midnightblue" stroke="midnightblue" points="1739.36,-193.72 1732.06,-201.4 1742.55,-199.96 1739.36,-193.72"/>
</g>
<!-- Node21&#45;&gt;Node22 -->
<g id="edge23" class="edge">
<title>Node21&#45;&gt;Node22</title>
<path fill="none" stroke="midnightblue" d="M1652.66,-126.16C1645.51,-116.68 1637.4,-105.92 1631.11,-97.58"/>
<polygon fill="midnightblue" stroke="midnightblue" points="1650.05,-128.52 1658.87,-134.4 1655.64,-124.3 1650.05,-128.52"/>
</g>
<!-- Node23 -->
<g id="node23" class="node">
<title>Node23</title>
<g id="a_node23"><a xlink:href="../../df/d57/AuthFileModule_8hpp.html" target="_top" xlink:title=" ">
<polygon fill="white" stroke="black" points="1709,-67.5 1709,-97.5 1844,-97.5 1844,-67.5 1709,-67.5"/>
<text text-anchor="start" x="1717" y="-85.5" font-family="Helvetica,sans-Serif" font-size="10.00">src/modules/auth/auth</text>
<text text-anchor="middle" x="1776.5" y="-74.5" font-family="Helvetica,sans-Serif" font-size="10.00">&#45;file/AuthFileModule.hpp</text>
</a>
</g>
</g>
<!-- Node21&#45;&gt;Node23 -->
<g id="edge24" class="edge">
<title>Node21&#45;&gt;Node23</title>
<path fill="none" stroke="midnightblue" d="M1701.58,-129.02C1718.23,-118.9 1738.19,-106.77 1753.33,-97.58"/>
<polygon fill="midnightblue" stroke="midnightblue" points="1699.45,-126.21 1692.72,-134.4 1703.08,-132.2 1699.45,-126.21"/>
</g>
<!-- Node24 -->
<g id="node24" class="node">
<title>Node24</title>
<g id="a_node24"><a xlink:href="../../d8/d37/AuthFileModule_8cpp.html" target="_top" xlink:title=" ">
<polygon fill="white" stroke="black" points="1635.5,-0.5 1635.5,-30.5 1769.5,-30.5 1769.5,-0.5 1635.5,-0.5"/>
<text text-anchor="start" x="1643.5" y="-18.5" font-family="Helvetica,sans-Serif" font-size="10.00">src/modules/auth/auth</text>
<text text-anchor="middle" x="1702.5" y="-7.5" font-family="Helvetica,sans-Serif" font-size="10.00">&#45;file/AuthFileModule.cpp</text>
</a>
</g>
</g>
<!-- Node23&#45;&gt;Node24 -->
<g id="edge25" class="edge">
<title>Node23&#45;&gt;Node24</title>
<path fill="none" stroke="midnightblue" d="M1752.7,-60.6C1741.53,-50.78 1728.51,-39.34 1718.53,-30.58"/>
<polygon fill="midnightblue" stroke="midnightblue" points="1750.62,-63.43 1760.44,-67.4 1755.24,-58.17 1750.62,-63.43"/>
</g>
<!-- Node25 -->
<g id="node25" class="node">
<title>Node25</title>
<g id="a_node25"><a xlink:href="../../dc/d32/auth_2auth-file_2init_8cpp.html" target="_top" xlink:title=" ">
<polygon fill="white" stroke="black" points="1788,-0.5 1788,-30.5 1913,-30.5 1913,-0.5 1788,-0.5"/>
<text text-anchor="start" x="1796" y="-18.5" font-family="Helvetica,sans-Serif" font-size="10.00">src/modules/auth/auth</text>
<text text-anchor="middle" x="1850.5" y="-7.5" font-family="Helvetica,sans-Serif" font-size="10.00">&#45;file/init.cpp</text>
</a>
</g>
</g>
<!-- Node23&#45;&gt;Node25 -->
<g id="edge26" class="edge">
<title>Node23&#45;&gt;Node25</title>
<path fill="none" stroke="midnightblue" d="M1800.3,-60.6C1811.47,-50.78 1824.49,-39.34 1834.47,-30.58"/>
<polygon fill="midnightblue" stroke="midnightblue" points="1797.76,-58.17 1792.56,-67.4 1802.38,-63.43 1797.76,-58.17"/>
</g>
<!-- Node28&#45;&gt;Node6 -->
<g id="edge33" class="edge">
<title>Node28&#45;&gt;Node6</title>
<path fill="none" stroke="midnightblue" d="M2733.56,-214.46C2459.3,-210.38 1489.91,-194.15 1182.5,-165 1167.85,-163.61 1151.97,-161.35 1137.65,-159.02"/>
<polygon fill="midnightblue" stroke="midnightblue" points="2733.74,-217.97 2743.79,-214.62 2733.84,-210.97 2733.74,-217.97"/>
</g>
<!-- Node28&#45;&gt;Node11 -->
<g id="edge39" class="edge">
<title>Node28&#45;&gt;Node11</title>
<path fill="none" stroke="midnightblue" d="M2733.87,-216.06C2522.49,-217.01 1889.59,-215.12 1367.5,-165 1364.76,-164.74 1361.99,-164.45 1359.18,-164.13"/>
<polygon fill="midnightblue" stroke="midnightblue" points="2733.93,-219.56 2743.91,-216.01 2733.89,-212.56 2733.93,-219.56"/>
</g>
<!-- Node28&#45;&gt;Node14 -->
<g id="edge49" class="edge">
<title>Node28&#45;&gt;Node14</title>
<path fill="none" stroke="midnightblue" d="M2733.67,-214.24C2544.72,-210.59 2023.38,-198.09 1590.5,-165 1570.46,-163.47 1548.74,-161.26 1528.9,-159.03"/>
<polygon fill="midnightblue" stroke="midnightblue" points="2733.69,-217.74 2743.76,-214.43 2733.83,-210.74 2733.69,-217.74"/>
</g>
<!-- Node28&#45;&gt;Node22 -->
<g id="edge38" class="edge">
<title>Node28&#45;&gt;Node22</title>
<path fill="none" stroke="midnightblue" d="M2733.41,-216.08C2571.6,-216.47 2188,-212.22 2068.5,-165 2048.23,-156.99 2050.61,-142.41 2030.5,-134 1893.99,-76.88 1845.93,-119.37 1699.5,-98 1696.6,-97.58 1693.65,-97.13 1690.67,-96.65"/>
<polygon fill="midnightblue" stroke="midnightblue" points="2733.75,-219.58 2743.74,-216.05 2733.73,-212.58 2733.75,-219.58"/>
</g>
<!-- Node28&#45;&gt;Node26 -->
<g id="edge50" class="edge">
<title>Node28&#45;&gt;Node26</title>
<path fill="none" stroke="midnightblue" d="M2733.54,-214.62C2596.2,-212.1 2290.15,-202.4 2035.5,-165 2025.51,-163.53 2014.75,-161.3 2005.01,-159.03"/>
<polygon fill="midnightblue" stroke="midnightblue" points="2733.87,-218.13 2743.93,-214.8 2733.99,-211.13 2733.87,-218.13"/>
</g>
<!-- Node29 -->
<g id="node29" class="node">
<title>Node29</title>
<g id="a_node29"><a xlink:href="../../d3/d19/AuditEntry_8cpp.html" target="_top" xlink:title=" ">
<polygon fill="white" stroke="black" points="2078,-140 2078,-159 2233,-159 2233,-140 2078,-140"/>
<text text-anchor="middle" x="2155.5" y="-147" font-family="Helvetica,sans-Serif" font-size="10.00">src/core/audit/AuditEntry.cpp</text>
</a>
</g>
</g>
<!-- Node28&#45;&gt;Node29 -->
<g id="edge32" class="edge">
<title>Node28&#45;&gt;Node29</title>
<path fill="none" stroke="midnightblue" d="M2733.64,-210.75C2625.98,-203.33 2418.21,-187.48 2242.5,-165 2229.59,-163.35 2215.66,-161.2 2202.81,-159.06"/>
<polygon fill="midnightblue" stroke="midnightblue" points="2733.52,-214.25 2743.74,-211.44 2734,-207.27 2733.52,-214.25"/>
</g>
<!-- Node30 -->
<g id="node30" class="node">
<title>Node30</title>
<g id="a_node30"><a xlink:href="../../d2/d8b/UserEvent_8cpp.html" target="_top" xlink:title=" ">
<polygon fill="white" stroke="black" points="2251.5,-140 2251.5,-159 2407.5,-159 2407.5,-140 2251.5,-140"/>
<text text-anchor="middle" x="2329.5" y="-147" font-family="Helvetica,sans-Serif" font-size="10.00">src/core/audit/UserEvent.cpp</text>
</a>
</g>
</g>
<!-- Node28&#45;&gt;Node30 -->
<g id="edge34" class="edge">
<title>Node28&#45;&gt;Node30</title>
<path fill="none" stroke="midnightblue" d="M2733.52,-206.78C2655.27,-197.26 2527.44,-181.19 2417.5,-165 2405.09,-163.17 2391.73,-161.05 2379.25,-159"/>
<polygon fill="midnightblue" stroke="midnightblue" points="2733.4,-210.29 2743.75,-208.02 2734.25,-203.34 2733.4,-210.29"/>
</g>
<!-- Node31 -->
<g id="node31" class="node">
<title>Node31</title>
<g id="a_node31"><a xlink:href="../../d2/de5/WSAPICall_8cpp.html" target="_top" xlink:title=" ">
<polygon fill="white" stroke="black" points="2426,-140 2426,-159 2583,-159 2583,-140 2426,-140"/>
<text text-anchor="middle" x="2504.5" y="-147" font-family="Helvetica,sans-Serif" font-size="10.00">src/core/audit/WSAPICall.cpp</text>
</a>
</g>
</g>
<!-- Node28&#45;&gt;Node31 -->
<g id="edge35" class="edge">
<title>Node28&#45;&gt;Node31</title>
<path fill="none" stroke="midnightblue" d="M2756.8,-204.8C2697.37,-192.01 2599.09,-170.86 2544.38,-159.08"/>
<polygon fill="midnightblue" stroke="midnightblue" points="2756.2,-208.25 2766.71,-206.94 2757.67,-201.41 2756.2,-208.25"/>
</g>
<!-- Node32 -->
<g id="node32" class="node">
<title>Node32</title>
<g id="a_node32"><a xlink:href="../../d3/da9/UserSerializer_8cpp.html" target="_top" xlink:title=" ">
<polygon fill="white" stroke="black" points="2601,-134.5 2601,-164.5 2734,-164.5 2734,-134.5 2601,-134.5"/>
<text text-anchor="start" x="2609" y="-152.5" font-family="Helvetica,sans-Serif" font-size="10.00">src/core/auth/serializers</text>
<text text-anchor="middle" x="2667.5" y="-141.5" font-family="Helvetica,sans-Serif" font-size="10.00">/UserSerializer.cpp</text>
</a>
</g>
</g>
<!-- Node28&#45;&gt;Node32 -->
<g id="edge36" class="edge">
<title>Node28&#45;&gt;Node32</title>
<path fill="none" stroke="midnightblue" d="M2778.96,-202.62C2755.44,-191.63 2721.69,-175.84 2697.5,-164.53"/>
<polygon fill="midnightblue" stroke="midnightblue" points="2777.5,-205.8 2788.04,-206.87 2780.47,-199.46 2777.5,-205.8"/>
</g>
<!-- Node33 -->
<g id="node33" class="node">
<title>Node33</title>
<g id="a_node33"><a xlink:href="../../dd/d24/kernel_8cpp.html" target="_top" xlink:title=" ">
<polygon fill="white" stroke="black" points="2752.5,-140 2752.5,-159 2860.5,-159 2860.5,-140 2752.5,-140"/>
<text text-anchor="middle" x="2806.5" y="-147" font-family="Helvetica,sans-Serif" font-size="10.00">src/core/kernel.cpp</text>
</a>
</g>
</g>
<!-- Node28&#45;&gt;Node33 -->
<g id="edge37" class="edge">
<title>Node28&#45;&gt;Node33</title>
<path fill="none" stroke="midnightblue" d="M2806.5,-196.54C2806.5,-184.17 2806.5,-168.62 2806.5,-159.13"/>
<polygon fill="midnightblue" stroke="midnightblue" points="2803,-196.73 2806.5,-206.73 2810,-196.73 2803,-196.73"/>
</g>
<!-- Node34 -->
<g id="node34" class="node">
<title>Node34</title>
<g id="a_node34"><a xlink:href="../../d7/d29/AccessPointCRUD_8cpp.html" target="_top" xlink:title=" ">
<polygon fill="white" stroke="black" points="2878.5,-134.5 2878.5,-164.5 3042.5,-164.5 3042.5,-134.5 2878.5,-134.5"/>
<text text-anchor="start" x="2886.5" y="-152.5" font-family="Helvetica,sans-Serif" font-size="10.00">src/modules/websock</text>
<text text-anchor="middle" x="2960.5" y="-141.5" font-family="Helvetica,sans-Serif" font-size="10.00">&#45;api/api/AccessPointCRUD.cpp</text>
</a>
</g>
</g>
<!-- Node28&#45;&gt;Node34 -->
<g id="edge40" class="edge">
<title>Node28&#45;&gt;Node34</title>
<path fill="none" stroke="midnightblue" d="M2836.32,-202.91C2862.4,-191.91 2900.22,-175.94 2927.26,-164.53"/>
<polygon fill="midnightblue" stroke="midnightblue" points="2834.8,-199.76 2826.95,-206.87 2837.52,-206.2 2834.8,-199.76"/>
</g>
<!-- Node35 -->
<g id="node35" class="node">
<title>Node35</title>
<g id="a_node35"><a xlink:href="../../d7/d86/APIAuth_8cpp.html" target="_top" xlink:title=" ">
<polygon fill="white" stroke="black" points="3060.5,-134.5 3060.5,-164.5 3182.5,-164.5 3182.5,-134.5 3060.5,-134.5"/>
<text text-anchor="start" x="3068.5" y="-152.5" font-family="Helvetica,sans-Serif" font-size="10.00">src/modules/websock</text>
<text text-anchor="middle" x="3121.5" y="-141.5" font-family="Helvetica,sans-Serif" font-size="10.00">&#45;api/api/APIAuth.cpp</text>
</a>
</g>
</g>
<!-- Node28&#45;&gt;Node35 -->
<g id="edge41" class="edge">
<title>Node28&#45;&gt;Node35</title>
<path fill="none" stroke="midnightblue" d="M2857.96,-204.91C2907.54,-194.7 2984.65,-178.81 3051.5,-165 3054.42,-164.4 3057.4,-163.78 3060.42,-163.16"/>
<polygon fill="midnightblue" stroke="midnightblue" points="2857.21,-201.49 2848.12,-206.93 2858.62,-208.35 2857.21,-201.49"/>
</g>
<!-- Node36 -->
<g id="node36" class="node">
<title>Node36</title>
<g id="a_node36"><a xlink:href="../../d9/d8d/APISession_8cpp.html" target="_top" xlink:title=" ">
<polygon fill="white" stroke="black" points="3200.5,-134.5 3200.5,-164.5 3330.5,-164.5 3330.5,-134.5 3200.5,-134.5"/>
<text text-anchor="start" x="3208.5" y="-152.5" font-family="Helvetica,sans-Serif" font-size="10.00">src/modules/websock</text>
<text text-anchor="middle" x="3265.5" y="-141.5" font-family="Helvetica,sans-Serif" font-size="10.00">&#45;api/api/APISession.cpp</text>
</a>
</g>
</g>
<!-- Node28&#45;&gt;Node36 -->
<g id="edge42" class="edge">
<title>Node28&#45;&gt;Node36</title>
<path fill="none" stroke="midnightblue" d="M2879.17,-207.35C2956.73,-198.33 3083.1,-182.71 3191.5,-165 3194.34,-164.54 3197.24,-164.04 3200.17,-163.53"/>
<polygon fill="midnightblue" stroke="midnightblue" points="2878.56,-203.9 2869.03,-208.53 2879.36,-210.85 2878.56,-203.9"/>
</g>
<!-- Node37 -->
<g id="node37" class="node">
<title>Node37</title>
<g id="a_node37"><a xlink:href="../../d7/dde/DoorCRUD_8cpp.html" target="_top" xlink:title=" ">
<polygon fill="white" stroke="black" points="3348.5,-134.5 3348.5,-164.5 3476.5,-164.5 3476.5,-134.5 3348.5,-134.5"/>
<text text-anchor="start" x="3356.5" y="-152.5" font-family="Helvetica,sans-Serif" font-size="10.00">src/modules/websock</text>
<text text-anchor="middle" x="3412.5" y="-141.5" font-family="Helvetica,sans-Serif" font-size="10.00">&#45;api/api/DoorCRUD.cpp</text>
</a>
</g>
</g>
<!-- Node28&#45;&gt;Node37 -->
<g id="edge43" class="edge">
<title>Node28&#45;&gt;Node37</title>
<path fill="none" stroke="midnightblue" d="M2879.39,-210.95C2982.3,-203.99 3175.89,-188.94 3339.5,-165 3342.44,-164.57 3345.44,-164.1 3348.47,-163.6"/>
<polygon fill="midnightblue" stroke="midnightblue" points="2878.85,-207.48 2869.11,-211.64 2879.32,-214.46 2878.85,-207.48"/>
</g>
<!-- Node38 -->
<g id="node38" class="node">
<title>Node38</title>
<g id="a_node38"><a xlink:href="../../d1/de1/GroupCRUD_8cpp.html" target="_top" xlink:title=" ">
<polygon fill="white" stroke="black" points="3494.5,-134.5 3494.5,-164.5 3628.5,-164.5 3628.5,-134.5 3494.5,-134.5"/>
<text text-anchor="start" x="3502.5" y="-152.5" font-family="Helvetica,sans-Serif" font-size="10.00">src/modules/websock</text>
<text text-anchor="middle" x="3561.5" y="-141.5" font-family="Helvetica,sans-Serif" font-size="10.00">&#45;api/api/GroupCRUD.cpp</text>
</a>
</g>
</g>
<!-- Node28&#45;&gt;Node38 -->
<g id="edge44" class="edge">
<title>Node28&#45;&gt;Node38</title>
<path fill="none" stroke="midnightblue" d="M2879.66,-212.8C3004.4,-207.59 3266.08,-193.99 3485.5,-165 3488.43,-164.61 3491.42,-164.19 3494.43,-163.73"/>
<polygon fill="midnightblue" stroke="midnightblue" points="2879.31,-209.31 2869.47,-213.22 2879.6,-216.31 2879.31,-209.31"/>
</g>
<!-- Node39 -->
<g id="node39" class="node">
<title>Node39</title>
<g id="a_node39"><a xlink:href="../../df/dc4/MembershipCRUD_8cpp.html" target="_top" xlink:title=" ">
<polygon fill="white" stroke="black" points="3646.5,-134.5 3646.5,-164.5 3812.5,-164.5 3812.5,-134.5 3646.5,-134.5"/>
<text text-anchor="start" x="3654.5" y="-152.5" font-family="Helvetica,sans-Serif" font-size="10.00">src/modules/websock</text>
<text text-anchor="middle" x="3729.5" y="-141.5" font-family="Helvetica,sans-Serif" font-size="10.00">&#45;api/api/MembershipCRUD.cpp</text>
</a>
</g>
</g>
<!-- Node28&#45;&gt;Node39 -->
<g id="edge45" class="edge">
<title>Node28&#45;&gt;Node39</title>
<path fill="none" stroke="midnightblue" d="M2879.31,-213.42C3024.1,-208.76 3358.26,-195.42 3637.5,-165 3640.39,-164.68 3643.33,-164.34 3646.3,-163.98"/>
<polygon fill="midnightblue" stroke="midnightblue" points="2879.1,-209.92 2869.22,-213.74 2879.33,-216.92 2879.1,-209.92"/>
</g>
<!-- Node40 -->
<g id="node40" class="node">
<title>Node40</title>
<g id="a_node40"><a xlink:href="../../df/df7/UserCRUD_8cpp.html" target="_top" xlink:title=" ">
<polygon fill="white" stroke="black" points="3830.5,-134.5 3830.5,-164.5 3958.5,-164.5 3958.5,-134.5 3830.5,-134.5"/>
<text text-anchor="start" x="3838.5" y="-152.5" font-family="Helvetica,sans-Serif" font-size="10.00">src/modules/websock</text>
<text text-anchor="middle" x="3894.5" y="-141.5" font-family="Helvetica,sans-Serif" font-size="10.00">&#45;api/api/UserCRUD.cpp</text>
</a>
</g>
</g>
<!-- Node28&#45;&gt;Node40 -->
<g id="edge46" class="edge">
<title>Node28&#45;&gt;Node40</title>
<path fill="none" stroke="midnightblue" d="M2879.3,-215.52C3046.45,-214.78 3470.33,-208.38 3821.5,-165 3824.45,-164.64 3827.46,-164.22 3830.49,-163.76"/>
<polygon fill="midnightblue" stroke="midnightblue" points="2879.13,-212.02 2869.14,-215.56 2879.16,-219.02 2879.13,-212.02"/>
</g>
<!-- Node41 -->
<g id="node41" class="node">
<title>Node41</title>
<g id="a_node41"><a xlink:href="../../d6/dd1/Exceptions_8cpp.html" target="_top" xlink:title=" ">
<polygon fill="white" stroke="black" points="3976.5,-134.5 3976.5,-164.5 4098.5,-164.5 4098.5,-134.5 3976.5,-134.5"/>
<text text-anchor="start" x="3984.5" y="-152.5" font-family="Helvetica,sans-Serif" font-size="10.00">src/modules/websock</text>
<text text-anchor="middle" x="4037.5" y="-141.5" font-family="Helvetica,sans-Serif" font-size="10.00">&#45;api/Exceptions.cpp</text>
</a>
</g>
</g>
<!-- Node28&#45;&gt;Node41 -->
<g id="edge47" class="edge">
<title>Node28&#45;&gt;Node41</title>
<path fill="none" stroke="midnightblue" d="M2879.15,-213.87C3099.05,-208.7 3755.39,-191.41 3967.5,-165 3970.33,-164.65 3973.22,-164.24 3976.13,-163.79"/>
<polygon fill="midnightblue" stroke="midnightblue" points="2878.92,-210.37 2869.01,-214.11 2879.09,-217.37 2878.92,-210.37"/>
</g>
<!-- Node42 -->
<g id="node42" class="node">
<title>Node42</title>
<g id="a_node42"><a xlink:href="../../d4/d2c/WSServer_8cpp.html" target="_top" xlink:title=" ">
<polygon fill="white" stroke="black" points="4116.5,-134.5 4116.5,-164.5 4238.5,-164.5 4238.5,-134.5 4116.5,-134.5"/>
<text text-anchor="start" x="4124.5" y="-152.5" font-family="Helvetica,sans-Serif" font-size="10.00">src/modules/websock</text>
<text text-anchor="middle" x="4177.5" y="-141.5" font-family="Helvetica,sans-Serif" font-size="10.00">&#45;api/WSServer.cpp</text>
</a>
</g>
</g>
<!-- Node28&#45;&gt;Node42 -->
<g id="edge48" class="edge">
<title>Node28&#45;&gt;Node42</title>
<path fill="none" stroke="midnightblue" d="M2879.63,-214.25C3117.4,-209.96 3867.07,-194.36 4107.5,-165 4110.33,-164.65 4113.22,-164.25 4116.14,-163.81"/>
<polygon fill="midnightblue" stroke="midnightblue" points="2879.3,-210.76 2869.37,-214.44 2879.43,-217.76 2879.3,-210.76"/>
</g>
<!-- Node43 -->
<g id="node43" class="node">
<title>Node43</title>
<g id="a_node43"><a xlink:href="../../d8/df5/GroupValidator_8cpp.html" target="_top" xlink:title=" ">
<polygon fill="white" stroke="black" points="4257,-140 4257,-159 4388,-159 4388,-140 4257,-140"/>
<text text-anchor="middle" x="4322.5" y="-147" font-family="Helvetica,sans-Serif" font-size="10.00">test/GroupValidator.cpp</text>
</a>
</g>
</g>
<!-- Node28&#45;&gt;Node43 -->
<g id="edge51" class="edge">
<title>Node28&#45;&gt;Node43</title>
<path fill="none" stroke="midnightblue" d="M2879.61,-214.45C3133.8,-210.55 3978.25,-195.56 4247.5,-165 4259.62,-163.62 4272.72,-161.36 4284.52,-159.03"/>
<polygon fill="midnightblue" stroke="midnightblue" points="2879.32,-210.95 2869.38,-214.6 2879.43,-217.95 2879.32,-210.95"/>
</g>
<!-- Node45 -->
<g id="node45" class="node">
<title>Node45</title>
<g id="a_node45"><a xlink:href="../../d2/d46/DoormanInstance_8cpp.html" target="_top" xlink:title=" ">
<polygon fill="white" stroke="black" points="1658.5,-268.5 1658.5,-298.5 1784.5,-298.5 1784.5,-268.5 1658.5,-268.5"/>
<text text-anchor="start" x="1666.5" y="-286.5" font-family="Helvetica,sans-Serif" font-size="10.00">src/modules/doorman</text>
<text text-anchor="middle" x="1721.5" y="-275.5" font-family="Helvetica,sans-Serif" font-size="10.00">/DoormanInstance.cpp</text>
</a>
</g>
</g>
<!-- Node44&#45;&gt;Node45 -->
<g id="edge54" class="edge">
<title>Node44&#45;&gt;Node45</title>
<path fill="none" stroke="midnightblue" d="M1769.67,-328.6C1758.95,-318.78 1746.45,-307.34 1736.88,-298.58"/>
<polygon fill="midnightblue" stroke="midnightblue" points="1767.35,-331.22 1777.09,-335.4 1772.08,-326.06 1767.35,-331.22"/>
</g>
<!-- Node46 -->
<g id="node46" class="node">
<title>Node46</title>
<g id="a_node46"><a xlink:href="../../d0/d58/DoormanModule_8cpp.html" target="_top" xlink:title=" ">
<polygon fill="white" stroke="black" points="1802.5,-268.5 1802.5,-298.5 1924.5,-298.5 1924.5,-268.5 1802.5,-268.5"/>
<text text-anchor="start" x="1810.5" y="-286.5" font-family="Helvetica,sans-Serif" font-size="10.00">src/modules/doorman</text>
<text text-anchor="middle" x="1863.5" y="-275.5" font-family="Helvetica,sans-Serif" font-size="10.00">/DoormanModule.cpp</text>
</a>
</g>
</g>
<!-- Node44&#45;&gt;Node46 -->
<g id="edge55" class="edge">
<title>Node44&#45;&gt;Node46</title>
<path fill="none" stroke="midnightblue" d="M1815.33,-328.6C1826.05,-318.78 1838.55,-307.34 1848.12,-298.58"/>
<polygon fill="midnightblue" stroke="midnightblue" points="1812.92,-326.06 1807.91,-335.4 1817.65,-331.22 1812.92,-326.06"/>
</g>
<!-- Node47 -->
<g id="node47" class="node">
<title>Node47</title>
<g id="a_node47"><a xlink:href="../../d8/d54/doorman_2init_8cpp.html" target="_top" xlink:title=" ">
<polygon fill="white" stroke="black" points="1942.5,-268.5 1942.5,-298.5 2064.5,-298.5 2064.5,-268.5 1942.5,-268.5"/>
<text text-anchor="start" x="1950.5" y="-286.5" font-family="Helvetica,sans-Serif" font-size="10.00">src/modules/doorman</text>
<text text-anchor="middle" x="2003.5" y="-275.5" font-family="Helvetica,sans-Serif" font-size="10.00">/init.cpp</text>
</a>
</g>
</g>
<!-- Node44&#45;&gt;Node47 -->
<g id="edge56" class="edge">
<title>Node44&#45;&gt;Node47</title>
<path fill="none" stroke="midnightblue" d="M1847.87,-332.44C1882.07,-321.91 1925.43,-308.55 1957.69,-298.61"/>
<polygon fill="midnightblue" stroke="midnightblue" points="1846.55,-329.19 1838.02,-335.48 1848.61,-335.88 1846.55,-329.19"/>
</g>
<!-- Node49 -->
<g id="node49" class="node">
<title>Node49</title>
<g id="a_node49"><a xlink:href="../../d5/dca/EventPublish_8cpp.html" target="_top" xlink:title=" ">
<polygon fill="white" stroke="black" points="2082.5,-268.5 2082.5,-298.5 2228.5,-298.5 2228.5,-268.5 2082.5,-268.5"/>
<text text-anchor="start" x="2090.5" y="-286.5" font-family="Helvetica,sans-Serif" font-size="10.00">src/modules/event&#45;publish</text>
<text text-anchor="middle" x="2155.5" y="-275.5" font-family="Helvetica,sans-Serif" font-size="10.00">/EventPublish.cpp</text>
</a>
</g>
</g>
<!-- Node48&#45;&gt;Node49 -->
<g id="edge58" class="edge">
<title>Node48&#45;&gt;Node49</title>
<path fill="none" stroke="midnightblue" d="M2155.5,-325.11C2155.5,-316.15 2155.5,-306.32 2155.5,-298.58"/>
<polygon fill="midnightblue" stroke="midnightblue" points="2152,-325.4 2155.5,-335.4 2159,-325.4 2152,-325.4"/>
</g>
<!-- Node50 -->
<g id="node50" class="node">
<title>Node50</title>
<g id="a_node50"><a xlink:href="../../dd/dd8/event-publish_2init_8cpp.html" target="_top" xlink:title=" ">
<polygon fill="white" stroke="black" points="2246.5,-268.5 2246.5,-298.5 2392.5,-298.5 2392.5,-268.5 2246.5,-268.5"/>
<text text-anchor="start" x="2254.5" y="-286.5" font-family="Helvetica,sans-Serif" font-size="10.00">src/modules/event&#45;publish</text>
<text text-anchor="middle" x="2319.5" y="-275.5" font-family="Helvetica,sans-Serif" font-size="10.00">/init.cpp</text>
</a>
</g>
</g>
<!-- Node48&#45;&gt;Node50 -->
<g id="edge59" class="edge">
<title>Node48&#45;&gt;Node50</title>
<path fill="none" stroke="midnightblue" d="M2200.46,-331.68C2226.76,-321.26 2259.5,-308.28 2283.98,-298.58"/>
<polygon fill="midnightblue" stroke="midnightblue" points="2199.09,-328.46 2191.09,-335.4 2201.67,-334.97 2199.09,-328.46"/>
</g>
</g>
</svg>
