<?xml version="1.0" encoding="UTF-8" standalone="no"?>
<!DOCTYPE svg PUBLIC "-//W3C//DTD SVG 1.1//EN"
 "http://www.w3.org/Graphics/SVG/1.1/DTD/svg11.dtd">
<!-- Generated by graphviz version 2.43.0 (0)
 -->
<!-- Title: Leosac::Module::Wiegand::Strategy::PinReading Pages: 1 -->
<svg width="602pt" height="284pt"
 viewBox="0.00 0.00 602.00 284.00" xmlns="http://www.w3.org/2000/svg" xmlns:xlink="http://www.w3.org/1999/xlink">
<g id="graph0" class="graph" transform="scale(1 1) rotate(0) translate(4 280)">
<title>Leosac::Module::Wiegand::Strategy::PinReading</title>
<polygon fill="white" stroke="transparent" points="-4,4 -4,-280 598,-280 598,4 -4,4"/>
<!-- Node1 -->
<g id="node1" class="node">
<title>Node1</title>
<g id="a_node1"><a xlink:title="Interface for a strategy that read a PIN code.">
<polygon fill="#bfbfbf" stroke="black" points="213,-245.5 213,-275.5 354,-275.5 354,-245.5 213,-245.5"/>
<text text-anchor="start" x="221" y="-263.5" font-family="Helvetica,sans-Serif" font-size="10.00">Leosac::Module::Wiegand</text>
<text text-anchor="middle" x="283.5" y="-252.5" font-family="Helvetica,sans-Serif" font-size="10.00">::Strategy::PinReading</text>
</a>
</g>
</g>
<!-- Node2 -->
<g id="node2" class="node">
<title>Node2</title>
<g id="a_node2"><a xlink:href="../../d5/d39/classLeosac_1_1Module_1_1Wiegand_1_1Strategy_1_1WiegandStrategy.html" target="_top" xlink:title="The multiple modes available to wiegand reader are implemented through the strategy pattern.">
<polygon fill="white" stroke="black" points="0,-190.5 0,-220.5 153,-220.5 153,-190.5 0,-190.5"/>
<text text-anchor="start" x="8" y="-208.5" font-family="Helvetica,sans-Serif" font-size="10.00">Leosac::Module::Wiegand</text>
<text text-anchor="middle" x="76.5" y="-197.5" font-family="Helvetica,sans-Serif" font-size="10.00">::Strategy::WiegandStrategy</text>
</a>
</g>
</g>
<!-- Node2&#45;&gt;Node1 -->
<g id="edge1" class="edge">
<title>Node2&#45;&gt;Node1</title>
<path fill="none" stroke="midnightblue" d="M143.22,-223.13C170.07,-230.33 200.8,-238.58 226.55,-245.49"/>
<polygon fill="midnightblue" stroke="midnightblue" points="144.08,-219.74 133.52,-220.53 142.27,-226.5 144.08,-219.74"/>
</g>
<!-- Node4 -->
<g id="node4" class="node">
<title>Node4</title>
<g id="a_node4"><a xlink:title=" ">
<polygon fill="white" stroke="#bfbfbf" points="206,-185 206,-226 361,-226 361,-185 206,-185"/>
<text text-anchor="start" x="214" y="-214" font-family="Helvetica,sans-Serif" font-size="10.00">std::unique_ptr&lt; Leosac</text>
<text text-anchor="start" x="214" y="-203" font-family="Helvetica,sans-Serif" font-size="10.00">::Module::Wiegand::Strategy</text>
<text text-anchor="middle" x="283.5" y="-192" font-family="Helvetica,sans-Serif" font-size="10.00">::WiegandStrategy &gt;</text>
</a>
</g>
</g>
<!-- Node2&#45;&gt;Node4 -->
<g id="edge4" class="edge">
<title>Node2&#45;&gt;Node4</title>
<path fill="none" stroke="#9a32cd" stroke-dasharray="5,2" d="M163.38,-205.5C177.42,-205.5 191.89,-205.5 205.69,-205.5"/>
<polygon fill="#9a32cd" stroke="#9a32cd" points="163.25,-202 153.25,-205.5 163.25,-209 163.25,-202"/>
<text text-anchor="middle" x="179.5" y="-208.5" font-family="Helvetica,sans-Serif" font-size="10.00"> ptr</text>
</g>
<!-- Node3 -->
<g id="node3" class="node">
<title>Node3</title>
<g id="a_node3"><a xlink:href="../../d7/d64/classLeosac_1_1Module_1_1Wiegand_1_1WiegandReaderImpl.html" target="_top" xlink:title="An implementation class that represents a Wiegand Reader.">
<polygon fill="white" stroke="black" points="453,-100.5 453,-130.5 594,-130.5 594,-100.5 453,-100.5"/>
<text text-anchor="start" x="461" y="-118.5" font-family="Helvetica,sans-Serif" font-size="10.00">Leosac::Module::Wiegand</text>
<text text-anchor="middle" x="523.5" y="-107.5" font-family="Helvetica,sans-Serif" font-size="10.00">::WiegandReaderImpl</text>
</a>
</g>
</g>
<!-- Node3&#45;&gt;Node2 -->
<g id="edge2" class="edge">
<title>Node3&#45;&gt;Node2</title>
<path fill="none" stroke="#9a32cd" stroke-dasharray="5,2" d="M453.89,-132.75C447.52,-134.11 441.15,-135.39 435,-136.5 334.1,-154.72 306.17,-142.6 206,-164.5 176.03,-171.05 143.09,-181.64 118.06,-190.41"/>
<polygon fill="#9a32cd" stroke="#9a32cd" points="454.85,-136.12 463.86,-130.54 453.34,-129.28 454.85,-136.12"/>
<text text-anchor="middle" x="283.5" y="-167.5" font-family="Helvetica,sans-Serif" font-size="10.00"> reader_</text>
</g>
<!-- Node4&#45;&gt;Node3 -->
<g id="edge3" class="edge">
<title>Node4&#45;&gt;Node3</title>
<path fill="none" stroke="#9a32cd" stroke-dasharray="5,2" d="M370.76,-189.84C392.17,-184.61 414.78,-177.9 435,-169.5 459.56,-159.29 485.17,-142.67 502.29,-130.57"/>
<polygon fill="#9a32cd" stroke="#9a32cd" points="369.94,-186.43 361.01,-192.14 371.55,-193.25 369.94,-186.43"/>
<text text-anchor="middle" x="407" y="-189.5" font-family="Helvetica,sans-Serif" font-size="10.00"> strategy_</text>
</g>
<!-- Node5 -->
<g id="node5" class="node">
<title>Node5</title>
<g id="a_node5"><a xlink:title=" ">
<polygon fill="white" stroke="#bfbfbf" points="216.5,-88.5 216.5,-118.5 350.5,-118.5 350.5,-88.5 216.5,-88.5"/>
<text text-anchor="start" x="224.5" y="-106.5" font-family="Helvetica,sans-Serif" font-size="10.00">std::unique_ptr&lt; Leosac</text>
<text text-anchor="middle" x="283.5" y="-95.5" font-family="Helvetica,sans-Serif" font-size="10.00">::Hardware::FLED &gt;</text>
</a>
</g>
</g>
<!-- Node5&#45;&gt;Node3 -->
<g id="edge5" class="edge">
<title>Node5&#45;&gt;Node3</title>
<path fill="none" stroke="#9a32cd" stroke-dasharray="5,2" d="M361.04,-107.36C390.53,-108.85 424.02,-110.53 452.82,-111.99"/>
<polygon fill="#9a32cd" stroke="#9a32cd" points="360.96,-103.85 350.8,-106.84 360.61,-110.84 360.96,-103.85"/>
<text text-anchor="middle" x="407" y="-124.5" font-family="Helvetica,sans-Serif" font-size="10.00"> buzzer_</text>
<text text-anchor="middle" x="407" y="-113.5" font-family="Helvetica,sans-Serif" font-size="10.00">green_led_</text>
</g>
<!-- Node6 -->
<g id="node6" class="node">
<title>Node6</title>
<g id="a_node6"><a xlink:href="../../db/df5/classLeosac_1_1Hardware_1_1FLED.html" target="_top" xlink:title="A Facade to a LED object.">
<polygon fill="white" stroke="black" points="9.5,-94 9.5,-113 143.5,-113 143.5,-94 9.5,-94"/>
<text text-anchor="middle" x="76.5" y="-101" font-family="Helvetica,sans-Serif" font-size="10.00">Leosac::Hardware::FLED</text>
</a>
</g>
</g>
<!-- Node6&#45;&gt;Node5 -->
<g id="edge6" class="edge">
<title>Node6&#45;&gt;Node5</title>
<path fill="none" stroke="#9a32cd" stroke-dasharray="5,2" d="M154.03,-103.5C174.55,-103.5 196.56,-103.5 216.45,-103.5"/>
<polygon fill="#9a32cd" stroke="#9a32cd" points="153.77,-100 143.77,-103.5 153.77,-107 153.77,-100"/>
<text text-anchor="middle" x="179.5" y="-106.5" font-family="Helvetica,sans-Serif" font-size="10.00"> ptr</text>
</g>
<!-- Node7 -->
<g id="node7" class="node">
<title>Node7</title>
<g id="a_node7"><a xlink:title="STL class.">
<polygon fill="white" stroke="#bfbfbf" points="251,-50 251,-69 316,-69 316,-50 251,-50"/>
<text text-anchor="middle" x="283.5" y="-57" font-family="Helvetica,sans-Serif" font-size="10.00">std::string</text>
</a>
</g>
</g>
<!-- Node7&#45;&gt;Node3 -->
<g id="edge7" class="edge">
<title>Node7&#45;&gt;Node3</title>
<path fill="none" stroke="#9a32cd" stroke-dasharray="5,2" d="M326.58,-58.11C357.19,-58.17 399.35,-60.48 435,-70.5 458.19,-77.02 482.38,-90.01 499.43,-100.36"/>
<polygon fill="#9a32cd" stroke="#9a32cd" points="326.24,-54.62 316.26,-58.18 326.28,-61.62 326.24,-54.62"/>
<text text-anchor="middle" x="407" y="-95.5" font-family="Helvetica,sans-Serif" font-size="10.00"> topic_low_</text>
<text text-anchor="middle" x="407" y="-84.5" font-family="Helvetica,sans-Serif" font-size="10.00">topic_high_</text>
<text text-anchor="middle" x="407" y="-73.5" font-family="Helvetica,sans-Serif" font-size="10.00">name_</text>
</g>
<!-- Node8 -->
<g id="node8" class="node">
<title>Node8</title>
<g id="a_node8"><a xlink:title="STL class.">
<polygon fill="white" stroke="#bfbfbf" points="24.5,-44.5 24.5,-74.5 128.5,-74.5 128.5,-44.5 24.5,-44.5"/>
<text text-anchor="start" x="32.5" y="-62.5" font-family="Helvetica,sans-Serif" font-size="10.00">std::basic_string&lt;</text>
<text text-anchor="middle" x="76.5" y="-51.5" font-family="Helvetica,sans-Serif" font-size="10.00"> char &gt;</text>
</a>
</g>
</g>
<!-- Node8&#45;&gt;Node7 -->
<g id="edge8" class="edge">
<title>Node8&#45;&gt;Node7</title>
<path fill="none" stroke="midnightblue" d="M138.84,-59.5C175.67,-59.5 220.99,-59.5 250.76,-59.5"/>
<polygon fill="midnightblue" stroke="midnightblue" points="138.7,-56 128.7,-59.5 138.7,-63 138.7,-56"/>
</g>
<!-- Node9 -->
<g id="node9" class="node">
<title>Node9</title>
<g id="a_node9"><a xlink:title=" ">
<polygon fill="white" stroke="#bfbfbf" points="228,-0.5 228,-30.5 339,-30.5 339,-0.5 228,-0.5"/>
<text text-anchor="start" x="236" y="-18.5" font-family="Helvetica,sans-Serif" font-size="10.00">std::array&lt; uint8_t,</text>
<text text-anchor="middle" x="283.5" y="-7.5" font-family="Helvetica,sans-Serif" font-size="10.00"> 16 &gt;</text>
</a>
</g>
</g>
<!-- Node9&#45;&gt;Node3 -->
<g id="edge9" class="edge">
<title>Node9&#45;&gt;Node3</title>
<path fill="none" stroke="#9a32cd" stroke-dasharray="5,2" d="M348.94,-21.47C376.4,-25.73 408.22,-33.03 435,-45.5 464.1,-59.05 492.04,-84.21 508.22,-100.39"/>
<polygon fill="#9a32cd" stroke="#9a32cd" points="349.43,-18.01 339.03,-20.03 348.43,-24.93 349.43,-18.01"/>
<text text-anchor="middle" x="407" y="-48.5" font-family="Helvetica,sans-Serif" font-size="10.00"> buffer_</text>
</g>
</g>
</svg>
