<?xml version="1.0" encoding="UTF-8" standalone="no"?>
<!DOCTYPE svg PUBLIC "-//W3C//DTD SVG 1.1//EN"
 "http://www.w3.org/Graphics/SVG/1.1/DTD/svg11.dtd">
<!-- Generated by graphviz version 2.43.0 (0)
 -->
<!-- Title: src/tools/XmlPropertyTree.hpp Pages: 1 -->
<svg width="1686pt" height="95pt"
 viewBox="0.00 0.00 1685.50 95.00" xmlns="http://www.w3.org/2000/svg" xmlns:xlink="http://www.w3.org/1999/xlink">
<g id="graph0" class="graph" transform="scale(1 1) rotate(0) translate(4 91)">
<title>src/tools/XmlPropertyTree.hpp</title>
<polygon fill="white" stroke="transparent" points="-4,4 -4,-91 1681.5,-91 1681.5,4 -4,4"/>
<!-- Node1 -->
<g id="node1" class="node">
<title>Node1</title>
<g id="a_node1"><a xlink:title=" ">
<polygon fill="#bfbfbf" stroke="black" points="767,-67.5 767,-86.5 930,-86.5 930,-67.5 767,-67.5"/>
<text text-anchor="middle" x="848.5" y="-74.5" font-family="Helvetica,sans-Serif" font-size="10.00">src/tools/XmlPropertyTree.hpp</text>
</a>
</g>
</g>
<!-- Node2 -->
<g id="node2" class="node">
<title>Node2</title>
<g id="a_node2"><a xlink:href="../../d6/dff/src_2core_2config_2ConfigManager_8cpp.html" target="_top" xlink:title=" ">
<polygon fill="white" stroke="black" points="0,-6 0,-25 183,-25 183,-6 0,-6"/>
<text text-anchor="middle" x="91.5" y="-13" font-family="Helvetica,sans-Serif" font-size="10.00">src/core/config/ConfigManager.cpp</text>
</a>
</g>
</g>
<!-- Node1&#45;&gt;Node2 -->
<g id="edge1" class="edge">
<title>Node1&#45;&gt;Node2</title>
<path fill="none" stroke="midnightblue" d="M756.81,-71.91C629.65,-65.74 392.68,-52.44 191.5,-31 176.41,-29.39 160.1,-27.21 145.12,-25.04"/>
<polygon fill="midnightblue" stroke="midnightblue" points="756.74,-75.41 766.9,-72.4 757.08,-68.42 756.74,-75.41"/>
</g>
<!-- Node3 -->
<g id="node3" class="node">
<title>Node3</title>
<g id="a_node3"><a xlink:href="../../da/db5/RemoteConfigCollector_8cpp.html" target="_top" xlink:title=" ">
<polygon fill="white" stroke="black" points="201,-0.5 201,-30.5 360,-30.5 360,-0.5 201,-0.5"/>
<text text-anchor="start" x="209" y="-18.5" font-family="Helvetica,sans-Serif" font-size="10.00">src/core/config/RemoteConfig</text>
<text text-anchor="middle" x="280.5" y="-7.5" font-family="Helvetica,sans-Serif" font-size="10.00">Collector.cpp</text>
</a>
</g>
</g>
<!-- Node1&#45;&gt;Node3 -->
<g id="edge2" class="edge">
<title>Node1&#45;&gt;Node3</title>
<path fill="none" stroke="midnightblue" d="M756.93,-69.25C660.38,-61.71 503.93,-48.24 369.5,-31 366.39,-30.6 363.23,-30.18 360.04,-29.73"/>
<polygon fill="midnightblue" stroke="midnightblue" points="756.71,-72.75 766.95,-70.03 757.25,-65.77 756.71,-72.75"/>
</g>
<!-- Node4 -->
<g id="node4" class="node">
<title>Node4</title>
<g id="a_node4"><a xlink:href="../../dd/d24/kernel_8cpp.html" target="_top" xlink:title=" ">
<polygon fill="white" stroke="black" points="378.5,-6 378.5,-25 486.5,-25 486.5,-6 378.5,-6"/>
<text text-anchor="middle" x="432.5" y="-13" font-family="Helvetica,sans-Serif" font-size="10.00">src/core/kernel.cpp</text>
</a>
</g>
</g>
<!-- Node1&#45;&gt;Node4 -->
<g id="edge3" class="edge">
<title>Node1&#45;&gt;Node4</title>
<path fill="none" stroke="midnightblue" d="M756.51,-66.81C685.05,-59.06 583.61,-46.72 495.5,-31 486.11,-29.32 476.01,-27.16 466.7,-25.02"/>
<polygon fill="midnightblue" stroke="midnightblue" points="756.51,-70.33 766.83,-67.92 757.26,-63.37 756.51,-70.33"/>
</g>
<!-- Node5 -->
<g id="node5" class="node">
<title>Node5</title>
<g id="a_node5"><a xlink:href="../../d4/d28/RemoteControl_8cpp.html" target="_top" xlink:title=" ">
<polygon fill="white" stroke="black" points="504.5,-6 504.5,-25 656.5,-25 656.5,-6 504.5,-6"/>
<text text-anchor="middle" x="580.5" y="-13" font-family="Helvetica,sans-Serif" font-size="10.00">src/core/RemoteControl.cpp</text>
</a>
</g>
</g>
<!-- Node1&#45;&gt;Node5 -->
<g id="edge4" class="edge">
<title>Node1&#45;&gt;Node5</title>
<path fill="none" stroke="midnightblue" d="M800.12,-65.26C748.13,-53.72 666.56,-35.61 618.83,-25.01"/>
<polygon fill="midnightblue" stroke="midnightblue" points="799.58,-68.72 810.1,-67.48 801.1,-61.89 799.58,-68.72"/>
</g>
<!-- Node6 -->
<g id="node6" class="node">
<title>Node6</title>
<g id="a_node6"><a xlink:href="../../d3/dc5/FileAuthSourceMapper_8cpp.html" target="_top" xlink:title=" ">
<polygon fill="white" stroke="black" points="675,-0.5 675,-30.5 842,-30.5 842,-0.5 675,-0.5"/>
<text text-anchor="start" x="683" y="-18.5" font-family="Helvetica,sans-Serif" font-size="10.00">src/modules/auth/auth</text>
<text text-anchor="middle" x="758.5" y="-7.5" font-family="Helvetica,sans-Serif" font-size="10.00">&#45;file/FileAuthSourceMapper.cpp</text>
</a>
</g>
</g>
<!-- Node1&#45;&gt;Node6 -->
<g id="edge5" class="edge">
<title>Node1&#45;&gt;Node6</title>
<path fill="none" stroke="midnightblue" d="M826.93,-61.74C812.62,-52.28 793.94,-39.93 779.71,-30.52"/>
<polygon fill="midnightblue" stroke="midnightblue" points="825.33,-64.88 835.61,-67.48 829.19,-59.04 825.33,-64.88"/>
</g>
<!-- Node7 -->
<g id="node7" class="node">
<title>Node7</title>
<g id="a_node7"><a xlink:href="../../de/d21/BaseModule_8cpp.html" target="_top" xlink:title=" ">
<polygon fill="white" stroke="black" points="860,-6 860,-25 1019,-25 1019,-6 860,-6"/>
<text text-anchor="middle" x="939.5" y="-13" font-family="Helvetica,sans-Serif" font-size="10.00">src/modules/BaseModule.cpp</text>
</a>
</g>
</g>
<!-- Node1&#45;&gt;Node7 -->
<g id="edge6" class="edge">
<title>Node1&#45;&gt;Node7</title>
<path fill="none" stroke="midnightblue" d="M870.02,-61.93C887.56,-50.46 911.77,-34.63 926.49,-25.01"/>
<polygon fill="midnightblue" stroke="midnightblue" points="867.99,-59.07 861.54,-67.48 871.82,-64.93 867.99,-59.07"/>
</g>
<!-- Node8 -->
<g id="node8" class="node">
<title>Node8</title>
<g id="a_node8"><a xlink:href="../../d9/d6b/WebSockAPI_8cpp.html" target="_top" xlink:title=" ">
<polygon fill="white" stroke="black" points="1037.5,-0.5 1037.5,-30.5 1159.5,-30.5 1159.5,-0.5 1037.5,-0.5"/>
<text text-anchor="start" x="1045.5" y="-18.5" font-family="Helvetica,sans-Serif" font-size="10.00">src/modules/websock</text>
<text text-anchor="middle" x="1098.5" y="-7.5" font-family="Helvetica,sans-Serif" font-size="10.00">&#45;api/WebSockAPI.cpp</text>
</a>
</g>
</g>
<!-- Node1&#45;&gt;Node8 -->
<g id="edge7" class="edge">
<title>Node1&#45;&gt;Node8</title>
<path fill="none" stroke="midnightblue" d="M894.27,-65.11C935.11,-55.39 995.16,-41.1 1039.58,-30.52"/>
<polygon fill="midnightblue" stroke="midnightblue" points="893.24,-61.75 884.32,-67.48 894.86,-68.56 893.24,-61.75"/>
</g>
<!-- Node9 -->
<g id="node9" class="node">
<title>Node9</title>
<g id="a_node9"><a xlink:href="../../dd/d4d/XmlPropertyTree_8cpp.html" target="_top" xlink:title=" ">
<polygon fill="white" stroke="black" points="1177.5,-6 1177.5,-25 1339.5,-25 1339.5,-6 1177.5,-6"/>
<text text-anchor="middle" x="1258.5" y="-13" font-family="Helvetica,sans-Serif" font-size="10.00">src/tools/XmlPropertyTree.cpp</text>
</a>
</g>
</g>
<!-- Node1&#45;&gt;Node9 -->
<g id="edge8" class="edge">
<title>Node1&#45;&gt;Node9</title>
<path fill="none" stroke="midnightblue" d="M921.83,-66.11C986.73,-57.26 1083.98,-43.75 1168.5,-31 1180.86,-29.14 1194.17,-27.04 1206.65,-25.04"/>
<polygon fill="midnightblue" stroke="midnightblue" points="921.14,-62.68 911.7,-67.49 922.08,-69.61 921.14,-62.68"/>
</g>
<!-- Node10 -->
<g id="node10" class="node">
<title>Node10</title>
<g id="a_node10"><a xlink:href="../../d8/db2/test_2ConfigManager_8cpp.html" target="_top" xlink:title=" ">
<polygon fill="white" stroke="black" points="1358,-6 1358,-25 1489,-25 1489,-6 1358,-6"/>
<text text-anchor="middle" x="1423.5" y="-13" font-family="Helvetica,sans-Serif" font-size="10.00">test/ConfigManager.cpp</text>
</a>
</g>
</g>
<!-- Node1&#45;&gt;Node10 -->
<g id="edge9" class="edge">
<title>Node1&#45;&gt;Node10</title>
<path fill="none" stroke="midnightblue" d="M940.32,-70.53C1040.86,-63.9 1206.66,-51.04 1348.5,-31 1359.92,-29.39 1372.25,-27.19 1383.54,-25"/>
<polygon fill="midnightblue" stroke="midnightblue" points="939.95,-67.05 930.2,-71.19 940.41,-74.04 939.95,-67.05"/>
</g>
<!-- Node11 -->
<g id="node11" class="node">
<title>Node11</title>
<g id="a_node11"><a xlink:href="../../d7/d99/test_2RemoteControlSecurity_8cpp.html" target="_top" xlink:title=" ">
<polygon fill="white" stroke="black" points="1507.5,-6 1507.5,-25 1677.5,-25 1677.5,-6 1507.5,-6"/>
<text text-anchor="middle" x="1592.5" y="-13" font-family="Helvetica,sans-Serif" font-size="10.00">test/RemoteControlSecurity.cpp</text>
</a>
</g>
</g>
<!-- Node1&#45;&gt;Node11 -->
<g id="edge10" class="edge">
<title>Node1&#45;&gt;Node11</title>
<path fill="none" stroke="midnightblue" d="M940.02,-72.09C1066.04,-66.15 1299.97,-53.14 1498.5,-31 1512.78,-29.41 1528.21,-27.22 1542.36,-25.03"/>
<polygon fill="midnightblue" stroke="midnightblue" points="939.85,-68.59 930.02,-72.56 940.17,-75.59 939.85,-68.59"/>
</g>
</g>
</svg>
