<?xml version="1.0" encoding="UTF-8" standalone="no"?>
<!DOCTYPE svg PUBLIC "-//W3C//DTD SVG 1.1//EN"
 "http://www.w3.org/Graphics/SVG/1.1/DTD/svg11.dtd">
<!-- Generated by graphviz version 2.43.0 (0)
 -->
<!-- Title: src/exception/coreexception.hpp Pages: 1 -->
<!--zoomable 252 -->
<svg id="main" version="1.1" xmlns="http://www.w3.org/2000/svg" xmlns:xlink="http://www.w3.org/1999/xlink" xml:space="preserve" onload="init(evt)">
<style type="text/css"><![CDATA[
.edge:hover path { stroke: red; }
.edge:hover polygon { stroke: red; fill: red; }
]]></style>
<script type="text/javascript"><![CDATA[
var edges = document.getElementsByTagName('g');
if (edges && edges.length) {
  for (var i=0;i<edges.length;i++) {
    if (edges[i].id.substr(0,4)=='edge') {
      edges[i].setAttribute('class','edge');
    }
  }
}
]]></script>
        <defs>
                <circle id="rim" cx="0" cy="0" r="7"/>
                <circle id="rim2" cx="0" cy="0" r="3.5"/>
                <g id="zoomPlus">
                        <use xlink:href="#rim" fill="#404040">
                                <set attributeName="fill" to="#808080" begin="zoomplus.mouseover" end="zoomplus.mouseout"/>
                        </use>
                        <path d="M-4,0h8M0,-4v8" fill="none" stroke="white" stroke-width="1.5" pointer-events="none"/>
                </g>
                <g id="zoomMin">
                        <use xlink:href="#rim" fill="#404040">
                                <set attributeName="fill" to="#808080" begin="zoomminus.mouseover" end="zoomminus.mouseout"/>
                        </use>
                        <path d="M-4,0h8" fill="none" stroke="white" stroke-width="1.5" pointer-events="none"/>
                </g>
                <g id="dirArrow">
                        <path fill="none" stroke="white" stroke-width="1.5" d="M0,-3.0v7 M-2.5,-0.5L0,-3.0L2.5,-0.5"/>
                </g>
               <g id="resetDef">
                       <use xlink:href="#rim2" fill="#404040">
                               <set attributeName="fill" to="#808080" begin="reset.mouseover" end="reset.mouseout"/>
                       </use>
               </g>
        </defs>

<script type="text/javascript">
var viewWidth = 1372;
var viewHeight = 252;
var sectionId = 'dynsection-0';
</script>
<script xlink:href="../../svgpan.js"/>
<svg id="graph" class="graph">
<g id="viewport">
<title>src/exception/coreexception.hpp</title>
<polygon fill="white" stroke="transparent" points="-4,4 -4,-248 1368.2,-248 1368.2,4 -4,4"/>
<!-- Node1 -->
<g id="node1" class="node">
<title>Node1</title>
<g id="a_node1"><a xlink:title="Exception class for Core related errors.">
<polygon fill="#bfbfbf" stroke="black" points="638,-224.5 638,-243.5 813,-243.5 813,-224.5 638,-224.5"/>
<text text-anchor="middle" x="725.5" y="-231.5" font-family="Helvetica,sans-Serif" font-size="10.00">src/exception/coreexception.hpp</text>
</a>
</g>
</g>
<!-- Node2 -->
<g id="node2" class="node">
<title>Node2</title>
<g id="a_node2"><a xlink:title=" ">
<polygon fill="white" stroke="#bfbfbf" points="781.5,-0.5 781.5,-19.5 825.5,-19.5 825.5,-0.5 781.5,-0.5"/>
<text text-anchor="middle" x="803.5" y="-7.5" font-family="Helvetica,sans-Serif" font-size="10.00">string</text>
</a>
</g>
</g>
<!-- Node1&#45;&gt;Node2 -->
<g id="edge1" class="edge">
<title>Node1&#45;&gt;Node2</title>
<path fill="none" stroke="midnightblue" d="M813.14,-232.07C967.36,-228.37 1277.33,-211.02 1344.5,-132 1387.91,-80.94 1358.04,-91.11 1256.5,-56 1178.44,-29.01 925.9,-16.1 835.8,-12.26"/>
<polygon fill="midnightblue" stroke="midnightblue" points="835.78,-8.76 825.64,-11.84 835.49,-15.75 835.78,-8.76"/>
</g>
<!-- Node3 -->
<g id="node3" class="node">
<title>Node3</title>
<g id="a_node3"><a xlink:href="../../d1/ddd/leosacexception_8hpp.html" target="_top" xlink:title="Exception class for LEOSAC Project related errors.">
<polygon fill="white" stroke="black" points="667,-168.5 667,-187.5 784,-187.5 784,-168.5 667,-168.5"/>
<text text-anchor="middle" x="725.5" y="-175.5" font-family="Helvetica,sans-Serif" font-size="10.00">leosacexception.hpp</text>
</a>
</g>
</g>
<!-- Node1&#45;&gt;Node3 -->
<g id="edge2" class="edge">
<title>Node1&#45;&gt;Node3</title>
<path fill="none" stroke="midnightblue" d="M720.33,-224.08C718.82,-216.93 718.39,-206.64 719.04,-197.69"/>
<polygon fill="midnightblue" stroke="midnightblue" points="722.52,-198.13 720.37,-187.75 715.58,-197.2 722.52,-198.13"/>
</g>
<!-- Node3&#45;&gt;Node1 -->
<g id="edge15" class="edge">
<title>Node3&#45;&gt;Node1</title>
<path fill="none" stroke="midnightblue" d="M730.63,-187.75C732.16,-194.86 732.6,-205.14 731.97,-214.1"/>
<polygon fill="midnightblue" stroke="midnightblue" points="728.49,-213.71 730.67,-224.08 735.43,-214.62 728.49,-213.71"/>
</g>
<!-- Node3&#45;&gt;Node2 -->
<g id="edge8" class="edge">
<title>Node3&#45;&gt;Node2</title>
<path fill="none" stroke="midnightblue" d="M784.1,-177.04C928.24,-176.52 1291.03,-171.3 1327.5,-132 1397.39,-56.69 959.82,-21.44 835.67,-13.03"/>
<polygon fill="midnightblue" stroke="midnightblue" points="835.85,-9.53 825.64,-12.36 835.38,-16.52 835.85,-9.53"/>
</g>
<!-- Node4 -->
<g id="node4" class="node">
<title>Node4</title>
<g id="a_node4"><a xlink:href="../../d6/d2f/Stacktrace_8hpp.html" target="_top" xlink:title=" ">
<polygon fill="white" stroke="black" points="797.5,-112.5 797.5,-131.5 913.5,-131.5 913.5,-112.5 797.5,-112.5"/>
<text text-anchor="middle" x="855.5" y="-119.5" font-family="Helvetica,sans-Serif" font-size="10.00">tools/Stacktrace.hpp</text>
</a>
</g>
</g>
<!-- Node3&#45;&gt;Node4 -->
<g id="edge3" class="edge">
<title>Node3&#45;&gt;Node4</title>
<path fill="none" stroke="midnightblue" d="M746.1,-168.44C767.49,-159.56 801.18,-145.56 825.52,-135.45"/>
<polygon fill="midnightblue" stroke="midnightblue" points="827.11,-138.58 835,-131.52 824.42,-132.12 827.11,-138.58"/>
</g>
<!-- Node6 -->
<g id="node6" class="node">
<title>Node6</title>
<g id="a_node6"><a xlink:title=" ">
<polygon fill="white" stroke="#bfbfbf" points="270,-112.5 270,-131.5 323,-131.5 323,-112.5 270,-112.5"/>
<text text-anchor="middle" x="296.5" y="-119.5" font-family="Helvetica,sans-Serif" font-size="10.00">cstddef</text>
</a>
</g>
</g>
<!-- Node3&#45;&gt;Node6 -->
<g id="edge6" class="edge">
<title>Node3&#45;&gt;Node6</title>
<path fill="none" stroke="midnightblue" d="M666.72,-172.83C591.42,-166.93 456.8,-154.48 333.19,-132.1"/>
<polygon fill="midnightblue" stroke="midnightblue" points="333.64,-128.63 323.17,-130.26 332.37,-135.51 333.64,-128.63"/>
</g>
<!-- Node7 -->
<g id="node7" class="node">
<title>Node7</title>
<g id="a_node7"><a xlink:title=" ">
<polygon fill="white" stroke="#bfbfbf" points="341,-112.5 341,-131.5 406,-131.5 406,-112.5 341,-112.5"/>
<text text-anchor="middle" x="373.5" y="-119.5" font-family="Helvetica,sans-Serif" font-size="10.00">exception</text>
</a>
</g>
</g>
<!-- Node3&#45;&gt;Node7 -->
<g id="edge7" class="edge">
<title>Node3&#45;&gt;Node7</title>
<path fill="none" stroke="midnightblue" d="M666.75,-169.66C606.39,-161.86 509.52,-148.59 415.94,-131.97"/>
<polygon fill="midnightblue" stroke="midnightblue" points="416.48,-128.51 406.02,-130.19 415.24,-135.4 416.48,-128.51"/>
</g>
<!-- Node8 -->
<g id="node8" class="node">
<title>Node8</title>
<g id="a_node8"><a xlink:href="../../d7/d7a/configexception_8hpp.html" target="_top" xlink:title=" ">
<polygon fill="white" stroke="black" points="0,-112.5 0,-131.5 115,-131.5 115,-112.5 0,-112.5"/>
<text text-anchor="middle" x="57.5" y="-119.5" font-family="Helvetica,sans-Serif" font-size="10.00">configexception.hpp</text>
</a>
</g>
</g>
<!-- Node3&#45;&gt;Node8 -->
<g id="edge9" class="edge">
<title>Node3&#45;&gt;Node8</title>
<path fill="none" stroke="midnightblue" d="M666.84,-174.05C559.57,-168.12 324.85,-153.55 120.89,-132.54"/>
<polygon fill="midnightblue" stroke="midnightblue" points="121.21,-129.06 110.9,-131.5 120.48,-136.02 121.21,-129.06"/>
</g>
<!-- Node11 -->
<g id="node11" class="node">
<title>Node11</title>
<g id="a_node11"><a xlink:href="../../d8/d77/deviceexception_8hpp.html" target="_top" xlink:title="Exception class for Device related errors.">
<polygon fill="white" stroke="black" points="133.5,-112.5 133.5,-131.5 251.5,-131.5 251.5,-112.5 133.5,-112.5"/>
<text text-anchor="middle" x="192.5" y="-119.5" font-family="Helvetica,sans-Serif" font-size="10.00">deviceexception.hpp</text>
</a>
</g>
</g>
<!-- Node3&#45;&gt;Node11 -->
<g id="edge16" class="edge">
<title>Node3&#45;&gt;Node11</title>
<path fill="none" stroke="midnightblue" d="M666.83,-172.48C579.04,-165.14 408.46,-149.78 257.9,-132.72"/>
<polygon fill="midnightblue" stroke="midnightblue" points="257.89,-129.2 247.56,-131.54 257.1,-136.15 257.89,-129.2"/>
</g>
<!-- Node12 -->
<g id="node12" class="node">
<title>Node12</title>
<g id="a_node12"><a xlink:href="../../db/d35/dynlibexception_8hpp.html" target="_top" xlink:title="Exception class for DynLib related errors.">
<polygon fill="white" stroke="black" points="424.5,-112.5 424.5,-131.5 540.5,-131.5 540.5,-112.5 424.5,-112.5"/>
<text text-anchor="middle" x="482.5" y="-119.5" font-family="Helvetica,sans-Serif" font-size="10.00">dynlibexception.hpp</text>
</a>
</g>
</g>
<!-- Node3&#45;&gt;Node12 -->
<g id="edge19" class="edge">
<title>Node3&#45;&gt;Node12</title>
<path fill="none" stroke="midnightblue" d="M681.91,-168.44C637.64,-159.06 569.67,-143.99 525.59,-133.8"/>
<polygon fill="midnightblue" stroke="midnightblue" points="526.28,-130.37 515.74,-131.52 524.69,-137.19 526.28,-130.37"/>
</g>
<!-- Node13 -->
<g id="node13" class="node">
<title>Node13</title>
<g id="a_node13"><a xlink:href="../../d0/d4e/fsexception_8hpp.html" target="_top" xlink:title="Exception class for filesystem related errors.">
<polygon fill="white" stroke="black" points="559,-112.5 559,-131.5 654,-131.5 654,-112.5 559,-112.5"/>
<text text-anchor="middle" x="606.5" y="-119.5" font-family="Helvetica,sans-Serif" font-size="10.00">fsexception.hpp</text>
</a>
</g>
</g>
<!-- Node3&#45;&gt;Node13 -->
<g id="edge22" class="edge">
<title>Node3&#45;&gt;Node13</title>
<path fill="none" stroke="midnightblue" d="M701.56,-168.44C680.4,-159.71 650.05,-146.06 629.27,-135.99"/>
<polygon fill="midnightblue" stroke="midnightblue" points="630.7,-132.8 620.19,-131.52 627.61,-139.08 630.7,-132.8"/>
</g>
<!-- Node14 -->
<g id="node14" class="node">
<title>Node14</title>
<g id="a_node14"><a xlink:href="../../d1/d8e/gpioexception_8hpp.html" target="_top" xlink:title="Exception class for Gpio related errors.">
<polygon fill="white" stroke="black" points="672,-112.5 672,-131.5 779,-131.5 779,-112.5 672,-112.5"/>
<text text-anchor="middle" x="725.5" y="-119.5" font-family="Helvetica,sans-Serif" font-size="10.00">gpioexception.hpp</text>
</a>
</g>
</g>
<!-- Node3&#45;&gt;Node14 -->
<g id="edge25" class="edge">
<title>Node3&#45;&gt;Node14</title>
<path fill="none" stroke="midnightblue" d="M720.33,-168.08C718.82,-160.93 718.39,-150.64 719.04,-141.69"/>
<polygon fill="midnightblue" stroke="midnightblue" points="722.52,-142.13 720.37,-131.75 715.58,-141.2 722.52,-142.13"/>
</g>
<!-- Node15 -->
<g id="node15" class="node">
<title>Node15</title>
<g id="a_node15"><a xlink:href="../../d7/d8c/moduleexception_8hpp.html" target="_top" xlink:title="Exception class for modules.">
<polygon fill="white" stroke="black" points="931.5,-112.5 931.5,-131.5 1053.5,-131.5 1053.5,-112.5 931.5,-112.5"/>
<text text-anchor="middle" x="992.5" y="-119.5" font-family="Helvetica,sans-Serif" font-size="10.00">moduleexception.hpp</text>
</a>
</g>
</g>
<!-- Node3&#45;&gt;Node15 -->
<g id="edge28" class="edge">
<title>Node3&#45;&gt;Node15</title>
<path fill="none" stroke="midnightblue" d="M762.72,-168.44C807.51,-158.96 882.98,-143.67 935.19,-133.48"/>
<polygon fill="midnightblue" stroke="midnightblue" points="936.16,-136.86 945.31,-131.52 934.83,-129.99 936.16,-136.86"/>
</g>
<!-- Node16 -->
<g id="node16" class="node">
<title>Node16</title>
<g id="a_node16"><a xlink:href="../../df/d8d/scriptexception_8hpp.html" target="_top" xlink:title="Exception class for Script related errors.">
<polygon fill="white" stroke="black" points="1072,-112.5 1072,-131.5 1185,-131.5 1185,-112.5 1072,-112.5"/>
<text text-anchor="middle" x="1128.5" y="-119.5" font-family="Helvetica,sans-Serif" font-size="10.00">scriptexception.hpp</text>
</a>
</g>
</g>
<!-- Node3&#45;&gt;Node16 -->
<g id="edge31" class="edge">
<title>Node3&#45;&gt;Node16</title>
<path fill="none" stroke="midnightblue" d="M783.09,-168.47C848.62,-159.46 958.59,-144.81 1053.5,-132 1056.29,-131.62 1059.15,-131.24 1062.05,-130.84"/>
<polygon fill="midnightblue" stroke="midnightblue" points="1062.55,-134.31 1071.99,-129.5 1061.61,-127.37 1062.55,-134.31"/>
</g>
<!-- Node17 -->
<g id="node17" class="node">
<title>Node17</title>
<g id="a_node17"><a xlink:href="../../dc/dce/signalexception_8hpp.html" target="_top" xlink:title="Exception class for Signal related errors.">
<polygon fill="white" stroke="black" points="1203,-112.5 1203,-131.5 1318,-131.5 1318,-112.5 1203,-112.5"/>
<text text-anchor="middle" x="1260.5" y="-119.5" font-family="Helvetica,sans-Serif" font-size="10.00">signalexception.hpp</text>
</a>
</g>
</g>
<!-- Node3&#45;&gt;Node17 -->
<g id="edge34" class="edge">
<title>Node3&#45;&gt;Node17</title>
<path fill="none" stroke="midnightblue" d="M784.07,-171.62C871.58,-163.9 1041.28,-148.75 1185.5,-132 1187.87,-131.72 1190.3,-131.43 1192.75,-131.13"/>
<polygon fill="midnightblue" stroke="midnightblue" points="1193.45,-134.57 1202.93,-129.86 1192.57,-127.63 1193.45,-134.57"/>
</g>
<!-- Node4&#45;&gt;Node2 -->
<g id="edge4" class="edge">
<title>Node4&#45;&gt;Node2</title>
<path fill="none" stroke="midnightblue" d="M853.74,-112.25C850.97,-99.45 844.9,-75.06 835.5,-56 830.58,-46.02 823.54,-35.85 817.32,-27.7"/>
<polygon fill="midnightblue" stroke="midnightblue" points="819.99,-25.43 811.03,-19.76 814.5,-29.77 819.99,-25.43"/>
</g>
<!-- Node5 -->
<g id="node5" class="node">
<title>Node5</title>
<g id="a_node5"><a xlink:title=" ">
<polygon fill="white" stroke="#bfbfbf" points="780,-56.5 780,-75.5 827,-75.5 827,-56.5 780,-56.5"/>
<text text-anchor="middle" x="803.5" y="-63.5" font-family="Helvetica,sans-Serif" font-size="10.00">vector</text>
</a>
</g>
</g>
<!-- Node4&#45;&gt;Node5 -->
<g id="edge5" class="edge">
<title>Node4&#45;&gt;Node5</title>
<path fill="none" stroke="midnightblue" d="M846.91,-112.08C839.34,-104.22 828.12,-92.57 818.99,-83.08"/>
<polygon fill="midnightblue" stroke="midnightblue" points="821.38,-80.53 811.93,-75.75 816.34,-85.38 821.38,-80.53"/>
</g>
<!-- Node8&#45;&gt;Node2 -->
<g id="edge14" class="edge">
<title>Node8&#45;&gt;Node2</title>
<path fill="none" stroke="midnightblue" d="M103.55,-112.47C175.22,-99.34 317.86,-73.86 439.5,-56 561.59,-38.08 707.42,-21.5 771.09,-14.51"/>
<polygon fill="midnightblue" stroke="midnightblue" points="771.73,-17.96 781.29,-13.39 770.97,-11 771.73,-17.96"/>
</g>
<!-- Node8&#45;&gt;Node3 -->
<g id="edge10" class="edge">
<title>Node8&#45;&gt;Node3</title>
<path fill="none" stroke="midnightblue" d="M115.06,-129.87C121.31,-130.65 127.55,-131.38 133.5,-132 322.72,-151.78 546.33,-166.16 656.8,-172.84"/>
<polygon fill="midnightblue" stroke="midnightblue" points="656.62,-176.33 666.81,-173.44 657.04,-169.34 656.62,-176.33"/>
</g>
<!-- Node9 -->
<g id="node9" class="node">
<title>Node9</title>
<g id="a_node9"><a xlink:href="../../dd/d35/Colorize_8hpp.html" target="_top" xlink:title=" ">
<polygon fill="white" stroke="black" points="32.5,-56.5 32.5,-75.5 136.5,-75.5 136.5,-56.5 32.5,-56.5"/>
<text text-anchor="middle" x="84.5" y="-63.5" font-family="Helvetica,sans-Serif" font-size="10.00">tools/Colorize.hpp</text>
</a>
</g>
</g>
<!-- Node8&#45;&gt;Node9 -->
<g id="edge11" class="edge">
<title>Node8&#45;&gt;Node9</title>
<path fill="none" stroke="midnightblue" d="M61.96,-112.08C65.65,-104.69 71.02,-93.95 75.59,-84.81"/>
<polygon fill="midnightblue" stroke="midnightblue" points="78.78,-86.26 80.12,-75.75 72.52,-83.13 78.78,-86.26"/>
</g>
<!-- Node9&#45;&gt;Node2 -->
<g id="edge13" class="edge">
<title>Node9&#45;&gt;Node2</title>
<path fill="none" stroke="midnightblue" d="M136.79,-61.07C276.88,-50.55 657.72,-21.95 771.18,-13.43"/>
<polygon fill="midnightblue" stroke="midnightblue" points="771.6,-16.91 781.31,-12.67 771.07,-9.93 771.6,-16.91"/>
</g>
<!-- Node10 -->
<g id="node10" class="node">
<title>Node10</title>
<g id="a_node10"><a xlink:title=" ">
<polygon fill="white" stroke="#bfbfbf" points="56.5,-0.5 56.5,-19.5 112.5,-19.5 112.5,-0.5 56.5,-0.5"/>
<text text-anchor="middle" x="84.5" y="-7.5" font-family="Helvetica,sans-Serif" font-size="10.00">sstream</text>
</a>
</g>
</g>
<!-- Node9&#45;&gt;Node10 -->
<g id="edge12" class="edge">
<title>Node9&#45;&gt;Node10</title>
<path fill="none" stroke="midnightblue" d="M84.5,-56.08C84.5,-49.01 84.5,-38.86 84.5,-29.99"/>
<polygon fill="midnightblue" stroke="midnightblue" points="88,-29.75 84.5,-19.75 81,-29.75 88,-29.75"/>
</g>
<!-- Node11&#45;&gt;Node2 -->
<g id="edge17" class="edge">
<title>Node11&#45;&gt;Node2</title>
<path fill="none" stroke="midnightblue" d="M239.94,-112.46C359.49,-90.94 670.8,-34.89 771.54,-16.75"/>
<polygon fill="midnightblue" stroke="midnightblue" points="772.21,-20.19 781.43,-14.97 770.97,-13.3 772.21,-20.19"/>
</g>
<!-- Node11&#45;&gt;Node3 -->
<g id="edge18" class="edge">
<title>Node11&#45;&gt;Node3</title>
<path fill="none" stroke="midnightblue" d="M251.55,-129.83C257.63,-130.6 263.7,-131.34 269.5,-132 406.83,-147.73 567.41,-162.46 656.75,-170.55"/>
<polygon fill="midnightblue" stroke="midnightblue" points="656.48,-174.04 666.76,-171.46 657.11,-167.07 656.48,-174.04"/>
</g>
<!-- Node12&#45;&gt;Node2 -->
<g id="edge20" class="edge">
<title>Node12&#45;&gt;Node2</title>
<path fill="none" stroke="midnightblue" d="M507.42,-112.46C565.17,-92.67 708.06,-43.7 771.86,-21.84"/>
<polygon fill="midnightblue" stroke="midnightblue" points="773.07,-25.13 781.4,-18.57 770.8,-18.51 773.07,-25.13"/>
</g>
<!-- Node12&#45;&gt;Node3 -->
<g id="edge21" class="edge">
<title>Node12&#45;&gt;Node3</title>
<path fill="none" stroke="midnightblue" d="M525.9,-131.52C570.11,-140.88 638.07,-155.95 682.22,-166.15"/>
<polygon fill="midnightblue" stroke="midnightblue" points="681.55,-169.59 692.08,-168.44 683.14,-162.77 681.55,-169.59"/>
</g>
<!-- Node13&#45;&gt;Node2 -->
<g id="edge23" class="edge">
<title>Node13&#45;&gt;Node2</title>
<path fill="none" stroke="midnightblue" d="M621.96,-112.37C656.12,-93.29 738.27,-47.42 779.31,-24.51"/>
<polygon fill="midnightblue" stroke="midnightblue" points="781.09,-27.52 788.11,-19.59 777.68,-21.41 781.09,-27.52"/>
</g>
<!-- Node13&#45;&gt;Node3 -->
<g id="edge24" class="edge">
<title>Node13&#45;&gt;Node3</title>
<path fill="none" stroke="midnightblue" d="M630.68,-131.65C651.72,-140.35 681.74,-153.85 702.44,-163.86"/>
<polygon fill="midnightblue" stroke="midnightblue" points="700.98,-167.05 711.5,-168.32 704.07,-160.77 700.98,-167.05"/>
</g>
<!-- Node14&#45;&gt;Node2 -->
<g id="edge27" class="edge">
<title>Node14&#45;&gt;Node2</title>
<path fill="none" stroke="midnightblue" d="M731.54,-112.12C740.1,-99.55 756.32,-75.9 770.5,-56 777.19,-46.61 784.79,-36.23 791.01,-27.81"/>
<polygon fill="midnightblue" stroke="midnightblue" points="793.96,-29.7 797.1,-19.58 788.34,-25.53 793.96,-29.7"/>
</g>
<!-- Node14&#45;&gt;Node3 -->
<g id="edge26" class="edge">
<title>Node14&#45;&gt;Node3</title>
<path fill="none" stroke="midnightblue" d="M730.63,-131.75C732.16,-138.86 732.6,-149.14 731.97,-158.1"/>
<polygon fill="midnightblue" stroke="midnightblue" points="728.49,-157.71 730.67,-168.08 735.43,-158.62 728.49,-157.71"/>
</g>
<!-- Node15&#45;&gt;Node2 -->
<g id="edge29" class="edge">
<title>Node15&#45;&gt;Node2</title>
<path fill="none" stroke="midnightblue" d="M977.67,-112.37C944.96,-93.33 866.41,-47.62 826.95,-24.65"/>
<polygon fill="midnightblue" stroke="midnightblue" points="828.66,-21.6 818.26,-19.59 825.14,-27.65 828.66,-21.6"/>
</g>
<!-- Node15&#45;&gt;Node3 -->
<g id="edge30" class="edge">
<title>Node15&#45;&gt;Node3</title>
<path fill="none" stroke="midnightblue" d="M955.47,-131.52C910.77,-140.98 835.31,-156.27 783.03,-166.47"/>
<polygon fill="midnightblue" stroke="midnightblue" points="782.04,-163.1 772.9,-168.44 783.38,-169.97 782.04,-163.1"/>
</g>
<!-- Node16&#45;&gt;Node2 -->
<g id="edge32" class="edge">
<title>Node16&#45;&gt;Node2</title>
<path fill="none" stroke="midnightblue" d="M1103.27,-112.46C1044.8,-92.67 900.12,-43.7 835.53,-21.84"/>
<polygon fill="midnightblue" stroke="midnightblue" points="836.47,-18.47 825.88,-18.57 834.23,-25.1 836.47,-18.47"/>
</g>
<!-- Node16&#45;&gt;Node3 -->
<g id="edge33" class="edge">
<title>Node16&#45;&gt;Node3</title>
<path fill="none" stroke="midnightblue" d="M1074.97,-131.53C1073.8,-131.69 1072.65,-131.85 1071.5,-132 975.46,-144.96 864,-159.8 794.03,-168.79"/>
<polygon fill="midnightblue" stroke="midnightblue" points="793.49,-165.33 784.01,-170.07 794.37,-172.27 793.49,-165.33"/>
</g>
<!-- Node17&#45;&gt;Node2 -->
<g id="edge35" class="edge">
<title>Node17&#45;&gt;Node2</title>
<path fill="none" stroke="midnightblue" d="M1225.02,-112.46C1138.54,-91.64 917.94,-38.55 835.35,-18.67"/>
<polygon fill="midnightblue" stroke="midnightblue" points="836.08,-15.24 825.53,-16.3 834.44,-22.05 836.08,-15.24"/>
</g>
<!-- Node17&#45;&gt;Node3 -->
<g id="edge36" class="edge">
<title>Node17&#45;&gt;Node3</title>
<path fill="none" stroke="midnightblue" d="M1207.68,-131.51C1206.27,-131.68 1204.88,-131.84 1203.5,-132 1058.42,-148.85 887.56,-164.08 794.41,-171.76"/>
<polygon fill="midnightblue" stroke="midnightblue" points="793.95,-168.29 784.27,-172.59 794.52,-175.26 793.95,-168.29"/>
</g>
</g>
</svg>
        <g id="navigator" transform="translate(0 0)" fill="#404254">
                <rect fill="#f2f5e9" fill-opacity="0.5" stroke="#606060" stroke-width=".5" x="0" y="0" width="60" height="60"/>
                <use id="zoomplus" xlink:href="#zoomPlus" x="17" y="9" onmousedown="handleZoom(evt,'in')"/>
                <use id="zoomminus" xlink:href="#zoomMin" x="42" y="9" onmousedown="handleZoom(evt,'out')"/>
                <use id="reset" xlink:href="#resetDef" x="30" y="36" onmousedown="handleReset()"/>
                <g id="arrowUp" xlink:href="#dirArrow" transform="translate(30 24)" onmousedown="handlePan(0,-1)">
                  <use xlink:href="#rim" fill="#404040">
                        <set attributeName="fill" to="#808080" begin="arrowUp.mouseover" end="arrowUp.mouseout"/>
                  </use>
                  <path fill="none" stroke="white" stroke-width="1.5" d="M0,-3.0v7 M-2.5,-0.5L0,-3.0L2.5,-0.5"/>
                </g>
                <g id="arrowRight" xlink:href="#dirArrow" transform="rotate(90) translate(36 -43)" onmousedown="handlePan(1,0)">
                  <use xlink:href="#rim" fill="#404040">
                        <set attributeName="fill" to="#808080" begin="arrowRight.mouseover" end="arrowRight.mouseout"/>
                  </use>
                  <path fill="none" stroke="white" stroke-width="1.5" d="M0,-3.0v7 M-2.5,-0.5L0,-3.0L2.5,-0.5"/>
                </g>
                <g id="arrowDown" xlink:href="#dirArrow" transform="rotate(180) translate(-30 -48)" onmousedown="handlePan(0,1)">
                  <use xlink:href="#rim" fill="#404040">
                        <set attributeName="fill" to="#808080" begin="arrowDown.mouseover" end="arrowDown.mouseout"/>
                  </use>
                  <path fill="none" stroke="white" stroke-width="1.5" d="M0,-3.0v7 M-2.5,-0.5L0,-3.0L2.5,-0.5"/>
                </g>
                <g id="arrowLeft" xlink:href="#dirArrow" transform="rotate(270) translate(-36 17)" onmousedown="handlePan(-1,0)">
                  <use xlink:href="#rim" fill="#404040">
                        <set attributeName="fill" to="#808080" begin="arrowLeft.mouseover" end="arrowLeft.mouseout"/>
                  </use>
                  <path fill="none" stroke="white" stroke-width="1.5" d="M0,-3.0v7 M-2.5,-0.5L0,-3.0L2.5,-0.5"/>
                </g>
        </g>
        <svg viewBox="0 0 15 15" width="100%" height="30px" preserveAspectRatio="xMaxYMin meet">
         <g id="arrow_out" transform="scale(0.3 0.3)">
          <a xlink:href="coreexception_8hpp__incl_org.svg" target="_base">
           <rect id="button" ry="5" rx="5" y="6" x="6" height="38" width="38"
                fill="#f2f5e9" fill-opacity="0.5" stroke="#606060" stroke-width="1.0"/>
           <path id="arrow"
             d="M 11.500037,31.436501 C 11.940474,20.09759 22.043105,11.32322 32.158766,21.979434 L 37.068811,17.246167 C 37.068811,17.246167 37.088388,32 37.088388,32 L 22.160133,31.978069 C 22.160133,31.978069 26.997745,27.140456 26.997745,27.140456 C 18.528582,18.264221 13.291696,25.230495 11.500037,31.436501 z"
             style="fill:#404040;"/>
          </a>
         </g>
        </svg>
</svg>
