<?xml version="1.0" encoding="UTF-8" standalone="no"?>
<!DOCTYPE svg PUBLIC "-//W3C//DTD SVG 1.1//EN"
 "http://www.w3.org/Graphics/SVG/1.1/DTD/svg11.dtd">
<!-- Generated by graphviz version 2.43.0 (0)
 -->
<!-- Title: src/exception/EntityNotFound.cpp Pages: 1 -->
<svg width="2232pt" height="308pt"
 viewBox="0.00 0.00 2232.07 308.00" xmlns="http://www.w3.org/2000/svg" xmlns:xlink="http://www.w3.org/1999/xlink">
<g id="graph0" class="graph" transform="scale(1 1) rotate(0) translate(4 304)">
<title>src/exception/EntityNotFound.cpp</title>
<polygon fill="white" stroke="transparent" points="-4,4 -4,-304 2228.07,-304 2228.07,4 -4,4"/>
<!-- Node1 -->
<g id="node1" class="node">
<title>Node1</title>
<g id="a_node1"><a xlink:title=" ">
<polygon fill="#bfbfbf" stroke="black" points="1527.57,-280.5 1527.57,-299.5 1707.57,-299.5 1707.57,-280.5 1527.57,-280.5"/>
<text text-anchor="middle" x="1617.57" y="-287.5" font-family="Helvetica,sans-Serif" font-size="10.00">src/exception/EntityNotFound.cpp</text>
</a>
</g>
</g>
<!-- Node2 -->
<g id="node2" class="node">
<title>Node2</title>
<g id="a_node2"><a xlink:href="../../de/d62/EntityNotFound_8hpp.html" target="_top" xlink:title=" ">
<polygon fill="white" stroke="black" points="1425.57,-224.5 1425.57,-243.5 1589.57,-243.5 1589.57,-224.5 1425.57,-224.5"/>
<text text-anchor="middle" x="1507.57" y="-231.5" font-family="Helvetica,sans-Serif" font-size="10.00">exception/EntityNotFound.hpp</text>
</a>
</g>
</g>
<!-- Node1&#45;&gt;Node2 -->
<g id="edge1" class="edge">
<title>Node1&#45;&gt;Node2</title>
<path fill="none" stroke="midnightblue" d="M1599.9,-280.32C1582.18,-271.62 1554.67,-258.12 1534.28,-248.11"/>
<polygon fill="midnightblue" stroke="midnightblue" points="1535.72,-244.92 1525.2,-243.65 1532.64,-251.2 1535.72,-244.92"/>
</g>
<!-- Node21 -->
<g id="node21" class="node">
<title>Node21</title>
<g id="a_node21"><a xlink:title=" ">
<polygon fill="white" stroke="#bfbfbf" points="1486.07,-112.5 1486.07,-131.5 1611.07,-131.5 1611.07,-112.5 1486.07,-112.5"/>
<text text-anchor="middle" x="1548.57" y="-119.5" font-family="Helvetica,sans-Serif" font-size="10.00">boost/lexical_cast.hpp</text>
</a>
</g>
</g>
<!-- Node1&#45;&gt;Node21 -->
<g id="edge46" class="edge">
<title>Node1&#45;&gt;Node21</title>
<path fill="none" stroke="midnightblue" d="M1615.58,-280.43C1612.53,-267.84 1606.27,-243.71 1598.57,-224 1586.77,-193.75 1569.26,-160.27 1558.4,-140.47"/>
<polygon fill="midnightblue" stroke="midnightblue" points="1561.43,-138.73 1553.52,-131.68 1555.31,-142.12 1561.43,-138.73"/>
</g>
<!-- Node24 -->
<g id="node24" class="node">
<title>Node24</title>
<g id="a_node24"><a xlink:title=" ">
<polygon fill="white" stroke="#bfbfbf" points="2097.07,-112.5 2097.07,-131.5 2224.07,-131.5 2224.07,-112.5 2097.07,-112.5"/>
<text text-anchor="middle" x="2160.57" y="-119.5" font-family="Helvetica,sans-Serif" font-size="10.00">boost/uuid/uuid_io.hpp</text>
</a>
</g>
</g>
<!-- Node1&#45;&gt;Node24 -->
<g id="edge47" class="edge">
<title>Node1&#45;&gt;Node24</title>
<path fill="none" stroke="midnightblue" d="M1645.62,-280.42C1736.1,-252.76 2020.3,-165.88 2123.04,-134.47"/>
<polygon fill="midnightblue" stroke="midnightblue" points="2124.15,-137.79 2132.69,-131.52 2122.1,-131.1 2124.15,-137.79"/>
</g>
<!-- Node3 -->
<g id="node3" class="node">
<title>Node3</title>
<g id="a_node3"><a xlink:href="../../d1/ddd/leosacexception_8hpp.html" target="_top" xlink:title="Exception class for LEOSAC Project related errors.">
<polygon fill="white" stroke="black" points="652.57,-168.5 652.57,-187.5 820.57,-187.5 820.57,-168.5 652.57,-168.5"/>
<text text-anchor="middle" x="736.57" y="-175.5" font-family="Helvetica,sans-Serif" font-size="10.00">exception/leosacexception.hpp</text>
</a>
</g>
</g>
<!-- Node2&#45;&gt;Node3 -->
<g id="edge2" class="edge">
<title>Node2&#45;&gt;Node3</title>
<path fill="none" stroke="midnightblue" d="M1425.43,-227.25C1281.2,-217.15 983.32,-196.28 830.9,-185.61"/>
<polygon fill="midnightblue" stroke="midnightblue" points="830.85,-182.09 820.63,-184.89 830.36,-189.08 830.85,-182.09"/>
</g>
<!-- Node20 -->
<g id="node20" class="node">
<title>Node20</title>
<g id="a_node20"><a xlink:href="../../dc/dea/Uuid_8hpp.html" target="_top" xlink:title=" ">
<polygon fill="white" stroke="black" points="1715.07,-168.5 1715.07,-187.5 1802.07,-187.5 1802.07,-168.5 1715.07,-168.5"/>
<text text-anchor="middle" x="1758.57" y="-175.5" font-family="Helvetica,sans-Serif" font-size="10.00">tools/Uuid.hpp</text>
</a>
</g>
</g>
<!-- Node2&#45;&gt;Node20 -->
<g id="edge39" class="edge">
<title>Node2&#45;&gt;Node20</title>
<path fill="none" stroke="midnightblue" d="M1547.34,-224.44C1591.13,-215.02 1661.59,-199.87 1708.95,-189.68"/>
<polygon fill="midnightblue" stroke="midnightblue" points="1709.95,-193.04 1718.99,-187.52 1708.47,-186.2 1709.95,-193.04"/>
</g>
<!-- Node4 -->
<g id="node4" class="node">
<title>Node4</title>
<g id="a_node4"><a xlink:href="../../d6/d2f/Stacktrace_8hpp.html" target="_top" xlink:title=" ">
<polygon fill="white" stroke="black" points="25.57,-112.5 25.57,-131.5 141.57,-131.5 141.57,-112.5 25.57,-112.5"/>
<text text-anchor="middle" x="83.57" y="-119.5" font-family="Helvetica,sans-Serif" font-size="10.00">tools/Stacktrace.hpp</text>
</a>
</g>
</g>
<!-- Node3&#45;&gt;Node4 -->
<g id="edge3" class="edge">
<title>Node3&#45;&gt;Node4</title>
<path fill="none" stroke="midnightblue" d="M652.5,-172.05C540.63,-165.13 336.46,-151.32 151.82,-132.08"/>
<polygon fill="midnightblue" stroke="midnightblue" points="151.96,-128.57 141.65,-131.01 151.23,-135.53 151.96,-128.57"/>
</g>
<!-- Node5 -->
<g id="node5" class="node">
<title>Node5</title>
<g id="a_node5"><a xlink:title=" ">
<polygon fill="white" stroke="#bfbfbf" points="590.57,-0.5 590.57,-19.5 634.57,-19.5 634.57,-0.5 590.57,-0.5"/>
<text text-anchor="middle" x="612.57" y="-7.5" font-family="Helvetica,sans-Serif" font-size="10.00">string</text>
</a>
</g>
</g>
<!-- Node3&#45;&gt;Node5 -->
<g id="edge8" class="edge">
<title>Node3&#45;&gt;Node5</title>
<path fill="none" stroke="midnightblue" d="M652.41,-174.79C467.01,-169.5 38.05,-154.86 16.57,-132 -22.31,-90.61 11.7,-85.8 85.57,-56 176.16,-19.45 480.15,-12.57 580.28,-11.29"/>
<polygon fill="midnightblue" stroke="midnightblue" points="580.44,-14.79 590.4,-11.17 580.36,-7.79 580.44,-14.79"/>
</g>
<!-- Node7 -->
<g id="node7" class="node">
<title>Node7</title>
<g id="a_node7"><a xlink:title=" ">
<polygon fill="white" stroke="#bfbfbf" points="1332.07,-112.5 1332.07,-131.5 1385.07,-131.5 1385.07,-112.5 1332.07,-112.5"/>
<text text-anchor="middle" x="1358.57" y="-119.5" font-family="Helvetica,sans-Serif" font-size="10.00">cstddef</text>
</a>
</g>
</g>
<!-- Node3&#45;&gt;Node7 -->
<g id="edge6" class="edge">
<title>Node3&#45;&gt;Node7</title>
<path fill="none" stroke="midnightblue" d="M821.04,-174.97C933.34,-171.28 1138,-161.09 1321.82,-131.82"/>
<polygon fill="midnightblue" stroke="midnightblue" points="1322.63,-135.24 1331.94,-130.19 1321.51,-128.33 1322.63,-135.24"/>
</g>
<!-- Node8 -->
<g id="node8" class="node">
<title>Node8</title>
<g id="a_node8"><a xlink:title=" ">
<polygon fill="white" stroke="#bfbfbf" points="1403.07,-112.5 1403.07,-131.5 1468.07,-131.5 1468.07,-112.5 1403.07,-112.5"/>
<text text-anchor="middle" x="1435.57" y="-119.5" font-family="Helvetica,sans-Serif" font-size="10.00">exception</text>
</a>
</g>
</g>
<!-- Node3&#45;&gt;Node8 -->
<g id="edge7" class="edge">
<title>Node3&#45;&gt;Node8</title>
<path fill="none" stroke="midnightblue" d="M820.72,-175.07C944.12,-171.4 1181.51,-161.09 1392.61,-131.93"/>
<polygon fill="midnightblue" stroke="midnightblue" points="1393.22,-135.37 1402.64,-130.52 1392.25,-128.44 1393.22,-135.37"/>
</g>
<!-- Node9 -->
<g id="node9" class="node">
<title>Node9</title>
<g id="a_node9"><a xlink:href="../../d7/d7a/configexception_8hpp.html" target="_top" xlink:title=" ">
<polygon fill="white" stroke="black" points="160.07,-112.5 160.07,-131.5 275.07,-131.5 275.07,-112.5 160.07,-112.5"/>
<text text-anchor="middle" x="217.57" y="-119.5" font-family="Helvetica,sans-Serif" font-size="10.00">configexception.hpp</text>
</a>
</g>
</g>
<!-- Node3&#45;&gt;Node9 -->
<g id="edge9" class="edge">
<title>Node3&#45;&gt;Node9</title>
<path fill="none" stroke="midnightblue" d="M652.25,-170.14C561.67,-162.17 413.5,-148.19 280.36,-132.67"/>
<polygon fill="midnightblue" stroke="midnightblue" points="280.74,-129.19 270.4,-131.5 279.92,-136.14 280.74,-129.19"/>
</g>
<!-- Node12 -->
<g id="node12" class="node">
<title>Node12</title>
<g id="a_node12"><a xlink:href="../../d8/db0/coreexception_8hpp.html" target="_top" xlink:title="Exception class for Core related errors.">
<polygon fill="white" stroke="black" points="293.07,-112.5 293.07,-131.5 400.07,-131.5 400.07,-112.5 293.07,-112.5"/>
<text text-anchor="middle" x="346.57" y="-119.5" font-family="Helvetica,sans-Serif" font-size="10.00">coreexception.hpp</text>
</a>
</g>
</g>
<!-- Node3&#45;&gt;Node12 -->
<g id="edge15" class="edge">
<title>Node3&#45;&gt;Node12</title>
<path fill="none" stroke="midnightblue" d="M667.15,-168.47C601.43,-159.8 499.95,-145.91 407.35,-132.95"/>
<polygon fill="midnightblue" stroke="midnightblue" points="407.65,-129.46 397.26,-131.53 406.68,-136.39 407.65,-129.46"/>
</g>
<!-- Node13 -->
<g id="node13" class="node">
<title>Node13</title>
<g id="a_node13"><a xlink:href="../../d8/d77/deviceexception_8hpp.html" target="_top" xlink:title="Exception class for Device related errors.">
<polygon fill="white" stroke="black" points="418.57,-112.5 418.57,-131.5 536.57,-131.5 536.57,-112.5 418.57,-112.5"/>
<text text-anchor="middle" x="477.57" y="-119.5" font-family="Helvetica,sans-Serif" font-size="10.00">deviceexception.hpp</text>
</a>
</g>
</g>
<!-- Node3&#45;&gt;Node13 -->
<g id="edge18" class="edge">
<title>Node3&#45;&gt;Node13</title>
<path fill="none" stroke="midnightblue" d="M690.44,-168.44C643.2,-159.02 570.36,-143.87 523.27,-133.68"/>
<polygon fill="midnightblue" stroke="midnightblue" points="523.86,-130.22 513.34,-131.52 522.37,-137.06 523.86,-130.22"/>
</g>
<!-- Node14 -->
<g id="node14" class="node">
<title>Node14</title>
<g id="a_node14"><a xlink:href="../../db/d35/dynlibexception_8hpp.html" target="_top" xlink:title="Exception class for DynLib related errors.">
<polygon fill="white" stroke="black" points="554.57,-112.5 554.57,-131.5 670.57,-131.5 670.57,-112.5 554.57,-112.5"/>
<text text-anchor="middle" x="612.57" y="-119.5" font-family="Helvetica,sans-Serif" font-size="10.00">dynlibexception.hpp</text>
</a>
</g>
</g>
<!-- Node3&#45;&gt;Node14 -->
<g id="edge21" class="edge">
<title>Node3&#45;&gt;Node14</title>
<path fill="none" stroke="midnightblue" d="M711.84,-168.44C689.78,-159.68 657.97,-145.94 636.25,-135.86"/>
<polygon fill="midnightblue" stroke="midnightblue" points="637.59,-132.62 627.05,-131.52 634.6,-138.95 637.59,-132.62"/>
</g>
<!-- Node15 -->
<g id="node15" class="node">
<title>Node15</title>
<g id="a_node15"><a xlink:href="../../d0/d4e/fsexception_8hpp.html" target="_top" xlink:title="Exception class for filesystem related errors.">
<polygon fill="white" stroke="black" points="689.07,-112.5 689.07,-131.5 784.07,-131.5 784.07,-112.5 689.07,-112.5"/>
<text text-anchor="middle" x="736.57" y="-119.5" font-family="Helvetica,sans-Serif" font-size="10.00">fsexception.hpp</text>
</a>
</g>
</g>
<!-- Node3&#45;&gt;Node15 -->
<g id="edge24" class="edge">
<title>Node3&#45;&gt;Node15</title>
<path fill="none" stroke="midnightblue" d="M731.41,-168.08C729.9,-160.93 729.47,-150.64 730.12,-141.69"/>
<polygon fill="midnightblue" stroke="midnightblue" points="733.59,-142.13 731.44,-131.75 726.65,-141.2 733.59,-142.13"/>
</g>
<!-- Node16 -->
<g id="node16" class="node">
<title>Node16</title>
<g id="a_node16"><a xlink:href="../../d1/d8e/gpioexception_8hpp.html" target="_top" xlink:title="Exception class for Gpio related errors.">
<polygon fill="white" stroke="black" points="802.07,-112.5 802.07,-131.5 909.07,-131.5 909.07,-112.5 802.07,-112.5"/>
<text text-anchor="middle" x="855.57" y="-119.5" font-family="Helvetica,sans-Serif" font-size="10.00">gpioexception.hpp</text>
</a>
</g>
</g>
<!-- Node3&#45;&gt;Node16 -->
<g id="edge27" class="edge">
<title>Node3&#45;&gt;Node16</title>
<path fill="none" stroke="midnightblue" d="M750.58,-168.32C768.18,-159.47 798.44,-145.63 822.06,-135.57"/>
<polygon fill="midnightblue" stroke="midnightblue" points="823.53,-138.75 831.39,-131.65 820.82,-132.3 823.53,-138.75"/>
</g>
<!-- Node17 -->
<g id="node17" class="node">
<title>Node17</title>
<g id="a_node17"><a xlink:href="../../d7/d8c/moduleexception_8hpp.html" target="_top" xlink:title="Exception class for modules.">
<polygon fill="white" stroke="black" points="927.57,-112.5 927.57,-131.5 1049.57,-131.5 1049.57,-112.5 927.57,-112.5"/>
<text text-anchor="middle" x="988.57" y="-119.5" font-family="Helvetica,sans-Serif" font-size="10.00">moduleexception.hpp</text>
</a>
</g>
</g>
<!-- Node3&#45;&gt;Node17 -->
<g id="edge30" class="edge">
<title>Node3&#45;&gt;Node17</title>
<path fill="none" stroke="midnightblue" d="M771.41,-168.44C813.48,-158.98 884.5,-143.74 933.87,-133.55"/>
<polygon fill="midnightblue" stroke="midnightblue" points="934.66,-136.96 943.75,-131.52 933.25,-130.1 934.66,-136.96"/>
</g>
<!-- Node18 -->
<g id="node18" class="node">
<title>Node18</title>
<g id="a_node18"><a xlink:href="../../df/d8d/scriptexception_8hpp.html" target="_top" xlink:title="Exception class for Script related errors.">
<polygon fill="white" stroke="black" points="1068.07,-112.5 1068.07,-131.5 1181.07,-131.5 1181.07,-112.5 1068.07,-112.5"/>
<text text-anchor="middle" x="1124.57" y="-119.5" font-family="Helvetica,sans-Serif" font-size="10.00">scriptexception.hpp</text>
</a>
</g>
</g>
<!-- Node3&#45;&gt;Node18 -->
<g id="edge33" class="edge">
<title>Node3&#45;&gt;Node18</title>
<path fill="none" stroke="midnightblue" d="M792.96,-168.44C863.2,-158.36 982.88,-141.7 1057.68,-131.6"/>
<polygon fill="midnightblue" stroke="midnightblue" points="1058.48,-135.02 1067.92,-130.22 1057.54,-128.09 1058.48,-135.02"/>
</g>
<!-- Node19 -->
<g id="node19" class="node">
<title>Node19</title>
<g id="a_node19"><a xlink:href="../../dc/dce/signalexception_8hpp.html" target="_top" xlink:title="Exception class for Signal related errors.">
<polygon fill="white" stroke="black" points="1199.07,-112.5 1199.07,-131.5 1314.07,-131.5 1314.07,-112.5 1199.07,-112.5"/>
<text text-anchor="middle" x="1256.57" y="-119.5" font-family="Helvetica,sans-Serif" font-size="10.00">signalexception.hpp</text>
</a>
</g>
</g>
<!-- Node3&#45;&gt;Node19 -->
<g id="edge36" class="edge">
<title>Node3&#45;&gt;Node19</title>
<path fill="none" stroke="midnightblue" d="M820.95,-168.87C910.33,-160.49 1055.37,-146.62 1180.57,-132 1183.27,-131.69 1186.02,-131.35 1188.81,-131.01"/>
<polygon fill="midnightblue" stroke="midnightblue" points="1189.51,-134.45 1199,-129.73 1188.64,-127.51 1189.51,-134.45"/>
</g>
<!-- Node4&#45;&gt;Node5 -->
<g id="edge4" class="edge">
<title>Node4&#45;&gt;Node5</title>
<path fill="none" stroke="midnightblue" d="M83.27,-112.19C83.3,-97.9 85.67,-69.87 102.57,-56 139.48,-25.71 473.72,-14.57 580.17,-11.77"/>
<polygon fill="midnightblue" stroke="midnightblue" points="580.4,-15.26 590.31,-11.51 580.22,-8.26 580.4,-15.26"/>
</g>
<!-- Node6 -->
<g id="node6" class="node">
<title>Node6</title>
<g id="a_node6"><a xlink:title=" ">
<polygon fill="white" stroke="#bfbfbf" points="112.07,-56.5 112.07,-75.5 159.07,-75.5 159.07,-56.5 112.07,-56.5"/>
<text text-anchor="middle" x="135.57" y="-63.5" font-family="Helvetica,sans-Serif" font-size="10.00">vector</text>
</a>
</g>
</g>
<!-- Node4&#45;&gt;Node6 -->
<g id="edge5" class="edge">
<title>Node4&#45;&gt;Node6</title>
<path fill="none" stroke="midnightblue" d="M92.16,-112.08C99.73,-104.22 110.95,-92.57 120.09,-83.08"/>
<polygon fill="midnightblue" stroke="midnightblue" points="122.73,-85.38 127.15,-75.75 117.69,-80.53 122.73,-85.38"/>
</g>
<!-- Node9&#45;&gt;Node3 -->
<g id="edge10" class="edge">
<title>Node9&#45;&gt;Node3</title>
<path fill="none" stroke="midnightblue" d="M275.14,-129.84C281.05,-130.6 286.95,-131.34 292.57,-132 413.12,-146.2 552.07,-159.56 642.01,-167.97"/>
<polygon fill="midnightblue" stroke="midnightblue" points="641.9,-171.48 652.19,-168.93 642.55,-164.51 641.9,-171.48"/>
</g>
<!-- Node9&#45;&gt;Node5 -->
<g id="edge14" class="edge">
<title>Node9&#45;&gt;Node5</title>
<path fill="none" stroke="midnightblue" d="M248.24,-112.46C321.47,-92.07 505.97,-40.69 580.55,-19.92"/>
<polygon fill="midnightblue" stroke="midnightblue" points="581.63,-23.25 590.32,-17.2 579.75,-16.51 581.63,-23.25"/>
</g>
<!-- Node10 -->
<g id="node10" class="node">
<title>Node10</title>
<g id="a_node10"><a xlink:href="../../dd/d35/Colorize_8hpp.html" target="_top" xlink:title=" ">
<polygon fill="white" stroke="black" points="189.57,-56.5 189.57,-75.5 293.57,-75.5 293.57,-56.5 189.57,-56.5"/>
<text text-anchor="middle" x="241.57" y="-63.5" font-family="Helvetica,sans-Serif" font-size="10.00">tools/Colorize.hpp</text>
</a>
</g>
</g>
<!-- Node9&#45;&gt;Node10 -->
<g id="edge11" class="edge">
<title>Node9&#45;&gt;Node10</title>
<path fill="none" stroke="midnightblue" d="M221.54,-112.08C224.79,-104.77 229.49,-94.18 233.53,-85.1"/>
<polygon fill="midnightblue" stroke="midnightblue" points="236.82,-86.31 237.68,-75.75 230.42,-83.47 236.82,-86.31"/>
</g>
<!-- Node10&#45;&gt;Node5 -->
<g id="edge13" class="edge">
<title>Node10&#45;&gt;Node5</title>
<path fill="none" stroke="midnightblue" d="M293.94,-57.38C371.89,-46.03 516.14,-25.04 580.32,-15.69"/>
<polygon fill="midnightblue" stroke="midnightblue" points="580.88,-19.15 590.27,-14.25 579.87,-12.22 580.88,-19.15"/>
</g>
<!-- Node11 -->
<g id="node11" class="node">
<title>Node11</title>
<g id="a_node11"><a xlink:title=" ">
<polygon fill="white" stroke="#bfbfbf" points="213.57,-0.5 213.57,-19.5 269.57,-19.5 269.57,-0.5 213.57,-0.5"/>
<text text-anchor="middle" x="241.57" y="-7.5" font-family="Helvetica,sans-Serif" font-size="10.00">sstream</text>
</a>
</g>
</g>
<!-- Node10&#45;&gt;Node11 -->
<g id="edge12" class="edge">
<title>Node10&#45;&gt;Node11</title>
<path fill="none" stroke="midnightblue" d="M241.57,-56.08C241.57,-49.01 241.57,-38.86 241.57,-29.99"/>
<polygon fill="midnightblue" stroke="midnightblue" points="245.07,-29.75 241.57,-19.75 238.07,-29.75 245.07,-29.75"/>
</g>
<!-- Node12&#45;&gt;Node3 -->
<g id="edge17" class="edge">
<title>Node12&#45;&gt;Node3</title>
<path fill="none" stroke="midnightblue" d="M400.23,-129.42C406.45,-130.29 412.66,-131.17 418.57,-132 505.84,-144.24 606.25,-158.01 670.58,-167.06"/>
<polygon fill="midnightblue" stroke="midnightblue" points="670.2,-170.54 680.59,-168.47 671.18,-163.61 670.2,-170.54"/>
</g>
<!-- Node12&#45;&gt;Node5 -->
<g id="edge16" class="edge">
<title>Node12&#45;&gt;Node5</title>
<path fill="none" stroke="midnightblue" d="M367.45,-112.37C414.26,-93.01 527.78,-46.06 582.33,-23.51"/>
<polygon fill="midnightblue" stroke="midnightblue" points="583.89,-26.65 591.8,-19.59 581.22,-20.18 583.89,-26.65"/>
</g>
<!-- Node13&#45;&gt;Node3 -->
<g id="edge20" class="edge">
<title>Node13&#45;&gt;Node3</title>
<path fill="none" stroke="midnightblue" d="M523.5,-131.52C570.68,-140.92 643.52,-156.08 690.68,-166.28"/>
<polygon fill="midnightblue" stroke="midnightblue" points="690.11,-169.74 700.62,-168.44 691.59,-162.9 690.11,-169.74"/>
</g>
<!-- Node13&#45;&gt;Node5 -->
<g id="edge19" class="edge">
<title>Node13&#45;&gt;Node5</title>
<path fill="none" stroke="midnightblue" d="M488.17,-112.37C511.04,-93.73 565.28,-49.53 594,-26.13"/>
<polygon fill="midnightblue" stroke="midnightblue" points="596.49,-28.62 602.03,-19.59 592.07,-23.19 596.49,-28.62"/>
</g>
<!-- Node14&#45;&gt;Node3 -->
<g id="edge23" class="edge">
<title>Node14&#45;&gt;Node3</title>
<path fill="none" stroke="midnightblue" d="M637.21,-131.52C659.24,-140.27 691.04,-154.01 712.8,-164.1"/>
<polygon fill="midnightblue" stroke="midnightblue" points="711.48,-167.34 722.01,-168.44 714.46,-161.01 711.48,-167.34"/>
</g>
<!-- Node14&#45;&gt;Node5 -->
<g id="edge22" class="edge">
<title>Node14&#45;&gt;Node5</title>
<path fill="none" stroke="midnightblue" d="M612.57,-112.37C612.57,-94.62 612.57,-53.67 612.57,-29.6"/>
<polygon fill="midnightblue" stroke="midnightblue" points="616.07,-29.59 612.57,-19.59 609.07,-29.59 616.07,-29.59"/>
</g>
<!-- Node15&#45;&gt;Node3 -->
<g id="edge26" class="edge">
<title>Node15&#45;&gt;Node3</title>
<path fill="none" stroke="midnightblue" d="M741.7,-131.75C743.23,-138.86 743.68,-149.14 743.05,-158.1"/>
<polygon fill="midnightblue" stroke="midnightblue" points="739.57,-157.71 741.74,-168.08 746.51,-158.62 739.57,-157.71"/>
</g>
<!-- Node15&#45;&gt;Node5 -->
<g id="edge25" class="edge">
<title>Node15&#45;&gt;Node5</title>
<path fill="none" stroke="midnightblue" d="M726.84,-112.37C705.93,-93.81 656.44,-49.91 629.98,-26.44"/>
<polygon fill="midnightblue" stroke="midnightblue" points="632.06,-23.61 622.26,-19.59 627.42,-28.85 632.06,-23.61"/>
</g>
<!-- Node16&#45;&gt;Node3 -->
<g id="edge28" class="edge">
<title>Node16&#45;&gt;Node3</title>
<path fill="none" stroke="midnightblue" d="M841.89,-131.52C824.29,-140.39 793.7,-154.38 769.91,-164.5"/>
<polygon fill="midnightblue" stroke="midnightblue" points="768.38,-161.35 760.52,-168.44 771.09,-167.8 768.38,-161.35"/>
</g>
<!-- Node16&#45;&gt;Node5 -->
<g id="edge29" class="edge">
<title>Node16&#45;&gt;Node5</title>
<path fill="none" stroke="midnightblue" d="M836.51,-112.37C793.92,-93.09 690.89,-46.45 640.83,-23.79"/>
<polygon fill="midnightblue" stroke="midnightblue" points="642.11,-20.53 631.55,-19.59 639.22,-26.9 642.11,-20.53"/>
</g>
<!-- Node17&#45;&gt;Node3 -->
<g id="edge32" class="edge">
<title>Node17&#45;&gt;Node3</title>
<path fill="none" stroke="midnightblue" d="M953.91,-131.52C911.92,-140.96 840.92,-156.2 791.48,-166.41"/>
<polygon fill="midnightblue" stroke="midnightblue" points="790.68,-163 781.59,-168.44 792.09,-169.86 790.68,-163"/>
</g>
<!-- Node17&#45;&gt;Node5 -->
<g id="edge31" class="edge">
<title>Node17&#45;&gt;Node5</title>
<path fill="none" stroke="midnightblue" d="M959.38,-112.46C890.15,-92.2 716.42,-41.38 644.51,-20.34"/>
<polygon fill="midnightblue" stroke="midnightblue" points="645.24,-16.91 634.66,-17.46 643.28,-23.63 645.24,-16.91"/>
</g>
<!-- Node18&#45;&gt;Node3 -->
<g id="edge35" class="edge">
<title>Node18&#45;&gt;Node3</title>
<path fill="none" stroke="midnightblue" d="M1068.46,-131.52C1001.32,-141.16 888.71,-156.84 813.5,-167.04"/>
<polygon fill="midnightblue" stroke="midnightblue" points="812.58,-163.63 803.14,-168.44 813.52,-170.57 812.58,-163.63"/>
</g>
<!-- Node18&#45;&gt;Node5 -->
<g id="edge34" class="edge">
<title>Node18&#45;&gt;Node5</title>
<path fill="none" stroke="midnightblue" d="M1084.82,-112.46C986.62,-91.36 734.06,-37.1 644.58,-17.88"/>
<polygon fill="midnightblue" stroke="midnightblue" points="645.25,-14.44 634.74,-15.76 643.78,-21.29 645.25,-14.44"/>
</g>
<!-- Node19&#45;&gt;Node3 -->
<g id="edge38" class="edge">
<title>Node19&#45;&gt;Node3</title>
<path fill="none" stroke="midnightblue" d="M1202.46,-131.54C1201.15,-131.7 1199.86,-131.85 1198.57,-132 1071.71,-146.82 924.49,-160.86 830.91,-169.2"/>
<polygon fill="midnightblue" stroke="midnightblue" points="830.54,-165.72 820.89,-170.09 831.16,-172.69 830.54,-165.72"/>
</g>
<!-- Node19&#45;&gt;Node5 -->
<g id="edge37" class="edge">
<title>Node19&#45;&gt;Node5</title>
<path fill="none" stroke="midnightblue" d="M1208.18,-112.48C1136.91,-99.96 999.52,-75.91 882.57,-56 796.63,-41.37 695.21,-24.6 644.63,-16.27"/>
<polygon fill="midnightblue" stroke="midnightblue" points="645.07,-12.79 634.63,-14.62 643.93,-19.7 645.07,-12.79"/>
</g>
<!-- Node20&#45;&gt;Node5 -->
<g id="edge45" class="edge">
<title>Node20&#45;&gt;Node5</title>
<path fill="none" stroke="midnightblue" d="M1738.89,-168.5C1718.63,-159.66 1686.19,-145.29 1658.57,-132 1641.02,-123.56 1638.26,-117.51 1619.57,-112 1430.09,-56.09 796.49,-20.47 645.21,-12.64"/>
<polygon fill="midnightblue" stroke="midnightblue" points="644.94,-9.12 634.78,-12.1 644.58,-16.11 644.94,-9.12"/>
</g>
<!-- Node20&#45;&gt;Node21 -->
<g id="edge40" class="edge">
<title>Node20&#45;&gt;Node21</title>
<path fill="none" stroke="midnightblue" d="M1725.3,-168.44C1689.12,-159.14 1631.2,-144.25 1591.59,-134.06"/>
<polygon fill="midnightblue" stroke="midnightblue" points="1592.25,-130.62 1581.69,-131.52 1590.51,-137.4 1592.25,-130.62"/>
</g>
<!-- Node22 -->
<g id="node22" class="node">
<title>Node22</title>
<g id="a_node22"><a xlink:title=" ">
<polygon fill="white" stroke="#bfbfbf" points="1668.07,-112.5 1668.07,-131.5 1849.07,-131.5 1849.07,-112.5 1668.07,-112.5"/>
<text text-anchor="middle" x="1758.57" y="-119.5" font-family="Helvetica,sans-Serif" font-size="10.00">boost/uuid/random_generator.hpp</text>
</a>
</g>
</g>
<!-- Node20&#45;&gt;Node22 -->
<g id="edge41" class="edge">
<title>Node20&#45;&gt;Node22</title>
<path fill="none" stroke="midnightblue" d="M1758.57,-168.08C1758.57,-161.01 1758.57,-150.86 1758.57,-141.99"/>
<polygon fill="midnightblue" stroke="midnightblue" points="1762.07,-141.75 1758.57,-131.75 1755.07,-141.75 1762.07,-141.75"/>
</g>
<!-- Node23 -->
<g id="node23" class="node">
<title>Node23</title>
<g id="a_node23"><a xlink:title=" ">
<polygon fill="white" stroke="#bfbfbf" points="1867.07,-112.5 1867.07,-131.5 1980.07,-131.5 1980.07,-112.5 1867.07,-112.5"/>
<text text-anchor="middle" x="1923.57" y="-119.5" font-family="Helvetica,sans-Serif" font-size="10.00">boost/uuid/uuid.hpp</text>
</a>
</g>
</g>
<!-- Node20&#45;&gt;Node23 -->
<g id="edge42" class="edge">
<title>Node20&#45;&gt;Node23</title>
<path fill="none" stroke="midnightblue" d="M1784.72,-168.44C1812.6,-159.32 1856.92,-144.81 1887.97,-134.65"/>
<polygon fill="midnightblue" stroke="midnightblue" points="1889.14,-137.95 1897.55,-131.52 1886.96,-131.3 1889.14,-137.95"/>
</g>
<!-- Node20&#45;&gt;Node24 -->
<g id="edge43" class="edge">
<title>Node20&#45;&gt;Node24</title>
<path fill="none" stroke="midnightblue" d="M1802.36,-171.12C1870.73,-161.93 2003.63,-144.08 2086.92,-132.89"/>
<polygon fill="midnightblue" stroke="midnightblue" points="2087.63,-136.33 2097.07,-131.53 2086.7,-129.39 2087.63,-136.33"/>
</g>
<!-- Node25 -->
<g id="node25" class="node">
<title>Node25</title>
<g id="a_node25"><a xlink:title=" ">
<polygon fill="white" stroke="#bfbfbf" points="1998.57,-112.5 1998.57,-131.5 2078.57,-131.5 2078.57,-112.5 1998.57,-112.5"/>
<text text-anchor="middle" x="2038.57" y="-119.5" font-family="Helvetica,sans-Serif" font-size="10.00">odb/core.hxx</text>
</a>
</g>
</g>
<!-- Node20&#45;&gt;Node25 -->
<g id="edge44" class="edge">
<title>Node20&#45;&gt;Node25</title>
<path fill="none" stroke="midnightblue" d="M1802.32,-168.56C1852.75,-158.84 1935.47,-142.88 1988.45,-132.67"/>
<polygon fill="midnightblue" stroke="midnightblue" points="1989.15,-136.1 1998.31,-130.77 1987.82,-129.22 1989.15,-136.1"/>
</g>
</g>
</svg>
