<?xml version="1.0" encoding="UTF-8" standalone="no"?>
<!DOCTYPE svg PUBLIC "-//W3C//DTD SVG 1.1//EN"
 "http://www.w3.org/Graphics/SVG/1.1/DTD/svg11.dtd">
<!-- Generated by graphviz version 2.43.0 (0)
 -->
<!-- Title: Leosac::Audit::CredentialEvent Pages: 1 -->
<!--zoomable 280 -->
<svg id="main" version="1.1" xmlns="http://www.w3.org/2000/svg" xmlns:xlink="http://www.w3.org/1999/xlink" xml:space="preserve" onload="init(evt)">
<style type="text/css"><![CDATA[
.edge:hover path { stroke: red; }
.edge:hover polygon { stroke: red; fill: red; }
]]></style>
<script type="text/javascript"><![CDATA[
var edges = document.getElementsByTagName('g');
if (edges && edges.length) {
  for (var i=0;i<edges.length;i++) {
    if (edges[i].id.substr(0,4)=='edge') {
      edges[i].setAttribute('class','edge');
    }
  }
}
]]></script>
        <defs>
                <circle id="rim" cx="0" cy="0" r="7"/>
                <circle id="rim2" cx="0" cy="0" r="3.5"/>
                <g id="zoomPlus">
                        <use xlink:href="#rim" fill="#404040">
                                <set attributeName="fill" to="#808080" begin="zoomplus.mouseover" end="zoomplus.mouseout"/>
                        </use>
                        <path d="M-4,0h8M0,-4v8" fill="none" stroke="white" stroke-width="1.5" pointer-events="none"/>
                </g>
                <g id="zoomMin">
                        <use xlink:href="#rim" fill="#404040">
                                <set attributeName="fill" to="#808080" begin="zoomminus.mouseover" end="zoomminus.mouseout"/>
                        </use>
                        <path d="M-4,0h8" fill="none" stroke="white" stroke-width="1.5" pointer-events="none"/>
                </g>
                <g id="dirArrow">
                        <path fill="none" stroke="white" stroke-width="1.5" d="M0,-3.0v7 M-2.5,-0.5L0,-3.0L2.5,-0.5"/>
                </g>
               <g id="resetDef">
                       <use xlink:href="#rim2" fill="#404040">
                               <set attributeName="fill" to="#808080" begin="reset.mouseover" end="reset.mouseout"/>
                       </use>
               </g>
        </defs>

<script type="text/javascript">
var viewWidth = 926;
var viewHeight = 280;
var sectionId = 'dynsection-1';
</script>
<script xlink:href="../../svgpan.js"/>
<svg id="graph" class="graph">
<g id="viewport">
<title>Leosac::Audit::CredentialEvent</title>
<polygon fill="white" stroke="transparent" points="-4,4 -4,-276 922,-276 922,4 -4,4"/>
<!-- Node1 -->
<g id="node1" class="node">
<title>Node1</title>
<g id="a_node1"><a xlink:title="Provides an implementation of ICredentialEvent.">
<polygon fill="#bfbfbf" stroke="black" points="771,-52.5 771,-82.5 909,-82.5 909,-52.5 771,-52.5"/>
<text text-anchor="start" x="779" y="-70.5" font-family="Helvetica,sans-Serif" font-size="10.00">Leosac::Audit::Credential</text>
<text text-anchor="middle" x="840" y="-59.5" font-family="Helvetica,sans-Serif" font-size="10.00">Event</text>
</a>
</g>
</g>
<!-- Node2 -->
<g id="node2" class="node">
<title>Node2</title>
<g id="a_node2"><a xlink:href="../../d0/d87/classLeosac_1_1Audit_1_1ICredentialEvent.html" target="_top" xlink:title="Audit interface to Credential related events.">
<polygon fill="white" stroke="black" points="545,-0.5 545,-30.5 686,-30.5 686,-0.5 545,-0.5"/>
<text text-anchor="start" x="553" y="-18.5" font-family="Helvetica,sans-Serif" font-size="10.00">Leosac::Audit::ICredential</text>
<text text-anchor="middle" x="615.5" y="-7.5" font-family="Helvetica,sans-Serif" font-size="10.00">Event</text>
</a>
</g>
</g>
<!-- Node2&#45;&gt;Node1 -->
<g id="edge1" class="edge">
<title>Node2&#45;&gt;Node1</title>
<path fill="none" stroke="midnightblue" d="M690.72,-32.85C717.95,-39.21 748.51,-46.35 774.79,-52.49"/>
<polygon fill="midnightblue" stroke="midnightblue" points="691.39,-29.41 680.86,-30.54 689.8,-36.22 691.39,-29.41"/>
</g>
<!-- Node3 -->
<g id="node3" class="node">
<title>Node3</title>
<g id="a_node3"><a xlink:href="../../d1/d44/classLeosac_1_1Audit_1_1IAuditEntry.html" target="_top" xlink:title="Base interface to Audit object.">
<polygon fill="white" stroke="black" points="306.5,-11 306.5,-30 448.5,-30 448.5,-11 306.5,-11"/>
<text text-anchor="middle" x="377.5" y="-18" font-family="Helvetica,sans-Serif" font-size="10.00">Leosac::Audit::IAuditEntry</text>
</a>
</g>
</g>
<!-- Node3&#45;&gt;Node2 -->
<g id="edge2" class="edge">
<title>Node3&#45;&gt;Node2</title>
<path fill="none" stroke="midnightblue" d="M458.78,-18.8C486.64,-18.21 517.64,-17.55 544.6,-16.98"/>
<polygon fill="midnightblue" stroke="midnightblue" points="458.59,-15.3 448.67,-19.01 458.74,-22.3 458.59,-15.3"/>
</g>
<!-- Node5 -->
<g id="node5" class="node">
<title>Node5</title>
<g id="a_node5"><a xlink:href="../../d0/d20/classLeosac_1_1Audit_1_1AuditEntry.html" target="_top" xlink:title="Implementation of IAuditEntry, backed by ODB.">
<polygon fill="white" stroke="black" points="546,-125 546,-144 685,-144 685,-125 546,-125"/>
<text text-anchor="middle" x="615.5" y="-132" font-family="Helvetica,sans-Serif" font-size="10.00">Leosac::Audit::AuditEntry</text>
</a>
</g>
</g>
<!-- Node3&#45;&gt;Node5 -->
<g id="edge5" class="edge">
<title>Node3&#45;&gt;Node5</title>
<path fill="none" stroke="midnightblue" d="M412.18,-33.92C425.61,-39.44 441.14,-46.05 455,-52.5 507.51,-76.93 567.91,-109.15 597.02,-124.94"/>
<polygon fill="midnightblue" stroke="midnightblue" points="413.41,-30.64 402.83,-30.11 410.77,-37.12 413.41,-30.64"/>
</g>
<!-- Node4 -->
<g id="node4" class="node">
<title>Node4</title>
<g id="a_node4"><a xlink:href="../../d0/d33/classLeosac_1_1Tools_1_1IVisitable.html" target="_top" xlink:title="Base class to make an object visitable.">
<polygon fill="white" stroke="black" points="82,-11 82,-30 215,-30 215,-11 82,-11"/>
<text text-anchor="middle" x="148.5" y="-18" font-family="Helvetica,sans-Serif" font-size="10.00">Leosac::Tools::IVisitable</text>
</a>
</g>
</g>
<!-- Node4&#45;&gt;Node3 -->
<g id="edge3" class="edge">
<title>Node4&#45;&gt;Node3</title>
<path fill="none" stroke="midnightblue" d="M225.38,-20.5C251.49,-20.5 280.59,-20.5 306.24,-20.5"/>
<polygon fill="midnightblue" stroke="midnightblue" points="225.16,-17 215.16,-20.5 225.16,-24 225.16,-17"/>
</g>
<!-- Node5&#45;&gt;Node1 -->
<g id="edge4" class="edge">
<title>Node5&#45;&gt;Node1</title>
<path fill="none" stroke="midnightblue" d="M658.37,-121.89C695.49,-110.72 749.76,-94.37 789.11,-82.52"/>
<polygon fill="midnightblue" stroke="midnightblue" points="656.94,-118.67 648.38,-124.9 658.96,-125.37 656.94,-118.67"/>
</g>
<!-- Node12 -->
<g id="node12" class="node">
<title>Node12</title>
<g id="a_node12"><a xlink:title=" ">
<polygon fill="white" stroke="#bfbfbf" points="762,-139 762,-158 918,-158 918,-139 762,-139"/>
<text text-anchor="middle" x="840" y="-146" font-family="Helvetica,sans-Serif" font-size="10.00">std::weak_ptr&lt; AuditEntry &gt;</text>
</a>
</g>
</g>
<!-- Node5&#45;&gt;Node12 -->
<g id="edge13" class="edge">
<title>Node5&#45;&gt;Node12</title>
<path fill="none" stroke="#9a32cd" stroke-dasharray="5,2" d="M695.3,-142.85C698.24,-143.08 701.14,-143.3 704,-143.5 722.72,-144.81 742.92,-145.79 761.85,-146.51"/>
<polygon fill="#9a32cd" stroke="#9a32cd" points="695.5,-139.35 685.24,-142 694.92,-146.33 695.5,-139.35"/>
<text text-anchor="middle" x="724" y="-148.5" font-family="Helvetica,sans-Serif" font-size="10.00"> ptr</text>
</g>
<!-- Node6 -->
<g id="node6" class="node">
<title>Node6</title>
<g id="a_node6"><a xlink:title=" ">
<polygon fill="white" stroke="#bfbfbf" points="306.5,-241.5 306.5,-271.5 448.5,-271.5 448.5,-241.5 306.5,-241.5"/>
<text text-anchor="start" x="314.5" y="-259.5" font-family="Helvetica,sans-Serif" font-size="10.00">std::enable_shared</text>
<text text-anchor="middle" x="377.5" y="-248.5" font-family="Helvetica,sans-Serif" font-size="10.00">_from_this&lt; AuditEntry &gt;</text>
</a>
</g>
</g>
<!-- Node6&#45;&gt;Node5 -->
<g id="edge6" class="edge">
<title>Node6&#45;&gt;Node5</title>
<path fill="none" stroke="midnightblue" d="M436.31,-238.06C442.64,-235.91 448.97,-233.7 455,-231.5 487.41,-219.69 497.09,-219.69 527,-202.5 557.19,-185.14 588.43,-158.34 604.14,-144.12"/>
<polygon fill="midnightblue" stroke="midnightblue" points="434.78,-234.89 426.41,-241.39 437.01,-241.52 434.78,-234.89"/>
</g>
<!-- Node7 -->
<g id="node7" class="node">
<title>Node7</title>
<g id="a_node7"><a xlink:title=" ">
<polygon fill="white" stroke="#bfbfbf" points="300,-203 300,-222 455,-222 455,-203 300,-203"/>
<text text-anchor="middle" x="377.5" y="-210" font-family="Helvetica,sans-Serif" font-size="10.00">std::vector&lt; AuditEntryPtr &gt;</text>
</a>
</g>
</g>
<!-- Node7&#45;&gt;Node5 -->
<g id="edge7" class="edge">
<title>Node7&#45;&gt;Node5</title>
<path fill="none" stroke="#9a32cd" stroke-dasharray="5,2" d="M429.46,-200.44C438.01,-198.24 446.78,-195.89 455,-193.5 487.39,-184.09 495.33,-181.1 527,-169.5 549.12,-161.4 574.04,-151.34 591.61,-144.08"/>
<polygon fill="#9a32cd" stroke="#9a32cd" points="428.39,-197.09 419.55,-202.93 430.1,-203.88 428.39,-197.09"/>
<text text-anchor="middle" x="500" y="-190.5" font-family="Helvetica,sans-Serif" font-size="10.00"> children_</text>
</g>
<!-- Node8 -->
<g id="node8" class="node">
<title>Node8</title>
<g id="a_node8"><a xlink:title="STL class.">
<polygon fill="white" stroke="#bfbfbf" points="89.5,-203 89.5,-222 207.5,-222 207.5,-203 89.5,-203"/>
<text text-anchor="middle" x="148.5" y="-210" font-family="Helvetica,sans-Serif" font-size="10.00">std::shared_ptr&lt; T &gt;</text>
</a>
</g>
</g>
<!-- Node8&#45;&gt;Node7 -->
<g id="edge8" class="edge">
<title>Node8&#45;&gt;Node7</title>
<path fill="none" stroke="#9a32cd" stroke-dasharray="5,2" d="M217.73,-212.5C243.54,-212.5 273.09,-212.5 299.64,-212.5"/>
<polygon fill="#9a32cd" stroke="#9a32cd" points="217.66,-209 207.66,-212.5 217.66,-216 217.66,-209"/>
<text text-anchor="middle" x="257.5" y="-215.5" font-family="Helvetica,sans-Serif" font-size="10.00"> elements</text>
</g>
<!-- Node9 -->
<g id="node9" class="node">
<title>Node9</title>
<g id="a_node9"><a xlink:title=" ">
<polygon fill="white" stroke="#bfbfbf" points="0,-203 0,-222 29,-222 29,-203 0,-203"/>
<text text-anchor="middle" x="14.5" y="-210" font-family="Helvetica,sans-Serif" font-size="10.00">T</text>
</a>
</g>
</g>
<!-- Node9&#45;&gt;Node8 -->
<g id="edge9" class="edge">
<title>Node9&#45;&gt;Node8</title>
<path fill="none" stroke="#9a32cd" stroke-dasharray="5,2" d="M39.35,-212.5C53.39,-212.5 71.8,-212.5 89.44,-212.5"/>
<polygon fill="#9a32cd" stroke="#9a32cd" points="39.13,-209 29.13,-212.5 39.13,-216 39.13,-209"/>
<text text-anchor="middle" x="55.5" y="-215.5" font-family="Helvetica,sans-Serif" font-size="10.00"> ptr</text>
</g>
<!-- Node10 -->
<g id="node10" class="node">
<title>Node10</title>
<g id="a_node10"><a xlink:title=" ">
<polygon fill="white" stroke="#bfbfbf" points="318,-153.5 318,-183.5 437,-183.5 437,-153.5 318,-153.5"/>
<text text-anchor="start" x="326" y="-171.5" font-family="Helvetica,sans-Serif" font-size="10.00">std::shared_ptr&lt; odb</text>
<text text-anchor="middle" x="377.5" y="-160.5" font-family="Helvetica,sans-Serif" font-size="10.00">::database &gt;</text>
</a>
</g>
</g>
<!-- Node10&#45;&gt;Node5 -->
<g id="edge10" class="edge">
<title>Node10&#45;&gt;Node5</title>
<path fill="none" stroke="#9a32cd" stroke-dasharray="5,2" d="M447.25,-158.59C479.08,-154.01 516.73,-148.59 548.24,-144.05"/>
<polygon fill="#9a32cd" stroke="#9a32cd" points="446.54,-155.16 437.14,-160.05 447.54,-162.09 446.54,-155.16"/>
<text text-anchor="middle" x="500" y="-157.5" font-family="Helvetica,sans-Serif" font-size="10.00"> database_</text>
</g>
<!-- Node11 -->
<g id="node11" class="node">
<title>Node11</title>
<g id="a_node11"><a xlink:href="../../dd/d95/classLeosac_1_1Tools_1_1ElapsedTimeCounter.html" target="_top" xlink:title="This class provide a simple to get the elapsed time since it&#39;s creation.">
<polygon fill="white" stroke="black" points="302.5,-104.5 302.5,-134.5 452.5,-134.5 452.5,-104.5 302.5,-104.5"/>
<text text-anchor="start" x="310.5" y="-122.5" font-family="Helvetica,sans-Serif" font-size="10.00">Leosac::Tools::ElapsedTime</text>
<text text-anchor="middle" x="377.5" y="-111.5" font-family="Helvetica,sans-Serif" font-size="10.00">Counter</text>
</a>
</g>
</g>
<!-- Node11&#45;&gt;Node5 -->
<g id="edge11" class="edge">
<title>Node11&#45;&gt;Node5</title>
<path fill="none" stroke="#9a32cd" stroke-dasharray="5,2" d="M462.83,-124.86C490.1,-126.59 519.98,-128.49 545.96,-130.14"/>
<polygon fill="#9a32cd" stroke="#9a32cd" points="462.73,-121.35 452.52,-124.2 462.28,-128.33 462.73,-121.35"/>
<text text-anchor="middle" x="500" y="-131.5" font-family="Helvetica,sans-Serif" font-size="10.00"> etc_</text>
</g>
<!-- Node12&#45;&gt;Node5 -->
<g id="edge12" class="edge">
<title>Node12&#45;&gt;Node5</title>
<path fill="none" stroke="#9a32cd" stroke-dasharray="5,2" d="M781.64,-137.26C769.28,-135.28 756.24,-133.52 744,-132.5 726.28,-131.02 721.78,-132.3 704,-132.5 697.92,-132.57 691.61,-132.67 685.28,-132.78"/>
<polygon fill="#9a32cd" stroke="#9a32cd" points="781.4,-140.76 791.84,-138.96 782.56,-133.86 781.4,-140.76"/>
<text text-anchor="middle" x="724" y="-135.5" font-family="Helvetica,sans-Serif" font-size="10.00"> parent_</text>
</g>
<!-- Node13 -->
<g id="node13" class="node">
<title>Node13</title>
<g id="a_node13"><a xlink:title="STL class.">
<polygon fill="white" stroke="#bfbfbf" points="345,-62 345,-81 410,-81 410,-62 345,-62"/>
<text text-anchor="middle" x="377.5" y="-69" font-family="Helvetica,sans-Serif" font-size="10.00">std::string</text>
</a>
</g>
</g>
<!-- Node13&#45;&gt;Node1 -->
<g id="edge16" class="edge">
<title>Node13&#45;&gt;Node1</title>
<path fill="none" stroke="#9a32cd" stroke-dasharray="5,2" d="M420.29,-71.14C499.91,-70.45 674.01,-68.93 770.76,-68.09"/>
<polygon fill="#9a32cd" stroke="#9a32cd" points="420.12,-67.64 410.15,-71.23 420.18,-74.64 420.12,-67.64"/>
<text text-anchor="middle" x="615.5" y="-83.5" font-family="Helvetica,sans-Serif" font-size="10.00"> after_</text>
<text text-anchor="middle" x="615.5" y="-72.5" font-family="Helvetica,sans-Serif" font-size="10.00">before_</text>
</g>
<!-- Node13&#45;&gt;Node5 -->
<g id="edge14" class="edge">
<title>Node13&#45;&gt;Node5</title>
<path fill="none" stroke="#9a32cd" stroke-dasharray="5,2" d="M420.14,-82.31C449.93,-90.07 490.96,-100.83 527,-110.5 544.5,-115.2 563.93,-120.52 580.03,-124.95"/>
<polygon fill="#9a32cd" stroke="#9a32cd" points="420.66,-78.83 410.1,-79.69 418.9,-85.6 420.66,-78.83"/>
<text text-anchor="middle" x="500" y="-113.5" font-family="Helvetica,sans-Serif" font-size="10.00"> msg_</text>
</g>
<!-- Node14 -->
<g id="node14" class="node">
<title>Node14</title>
<g id="a_node14"><a xlink:title="STL class.">
<polygon fill="white" stroke="#bfbfbf" points="96.5,-56.5 96.5,-86.5 200.5,-86.5 200.5,-56.5 96.5,-56.5"/>
<text text-anchor="start" x="104.5" y="-74.5" font-family="Helvetica,sans-Serif" font-size="10.00">std::basic_string&lt;</text>
<text text-anchor="middle" x="148.5" y="-63.5" font-family="Helvetica,sans-Serif" font-size="10.00"> char &gt;</text>
</a>
</g>
</g>
<!-- Node14&#45;&gt;Node13 -->
<g id="edge15" class="edge">
<title>Node14&#45;&gt;Node13</title>
<path fill="none" stroke="midnightblue" d="M210.85,-71.5C254.06,-71.5 310.14,-71.5 344.71,-71.5"/>
<polygon fill="midnightblue" stroke="midnightblue" points="210.73,-68 200.73,-71.5 210.73,-75 210.73,-68"/>
</g>
</g>
</svg>
        <g id="navigator" transform="translate(0 0)" fill="#404254">
                <rect fill="#f2f5e9" fill-opacity="0.5" stroke="#606060" stroke-width=".5" x="0" y="0" width="60" height="60"/>
                <use id="zoomplus" xlink:href="#zoomPlus" x="17" y="9" onmousedown="handleZoom(evt,'in')"/>
                <use id="zoomminus" xlink:href="#zoomMin" x="42" y="9" onmousedown="handleZoom(evt,'out')"/>
                <use id="reset" xlink:href="#resetDef" x="30" y="36" onmousedown="handleReset()"/>
                <g id="arrowUp" xlink:href="#dirArrow" transform="translate(30 24)" onmousedown="handlePan(0,-1)">
                  <use xlink:href="#rim" fill="#404040">
                        <set attributeName="fill" to="#808080" begin="arrowUp.mouseover" end="arrowUp.mouseout"/>
                  </use>
                  <path fill="none" stroke="white" stroke-width="1.5" d="M0,-3.0v7 M-2.5,-0.5L0,-3.0L2.5,-0.5"/>
                </g>
                <g id="arrowRight" xlink:href="#dirArrow" transform="rotate(90) translate(36 -43)" onmousedown="handlePan(1,0)">
                  <use xlink:href="#rim" fill="#404040">
                        <set attributeName="fill" to="#808080" begin="arrowRight.mouseover" end="arrowRight.mouseout"/>
                  </use>
                  <path fill="none" stroke="white" stroke-width="1.5" d="M0,-3.0v7 M-2.5,-0.5L0,-3.0L2.5,-0.5"/>
                </g>
                <g id="arrowDown" xlink:href="#dirArrow" transform="rotate(180) translate(-30 -48)" onmousedown="handlePan(0,1)">
                  <use xlink:href="#rim" fill="#404040">
                        <set attributeName="fill" to="#808080" begin="arrowDown.mouseover" end="arrowDown.mouseout"/>
                  </use>
                  <path fill="none" stroke="white" stroke-width="1.5" d="M0,-3.0v7 M-2.5,-0.5L0,-3.0L2.5,-0.5"/>
                </g>
                <g id="arrowLeft" xlink:href="#dirArrow" transform="rotate(270) translate(-36 17)" onmousedown="handlePan(-1,0)">
                  <use xlink:href="#rim" fill="#404040">
                        <set attributeName="fill" to="#808080" begin="arrowLeft.mouseover" end="arrowLeft.mouseout"/>
                  </use>
                  <path fill="none" stroke="white" stroke-width="1.5" d="M0,-3.0v7 M-2.5,-0.5L0,-3.0L2.5,-0.5"/>
                </g>
        </g>
        <svg viewBox="0 0 15 15" width="100%" height="30px" preserveAspectRatio="xMaxYMin meet">
         <g id="arrow_out" transform="scale(0.3 0.3)">
          <a xlink:href="classLeosac_1_1Audit_1_1CredentialEvent__coll__graph_org.svg" target="_base">
           <rect id="button" ry="5" rx="5" y="6" x="6" height="38" width="38"
                fill="#f2f5e9" fill-opacity="0.5" stroke="#606060" stroke-width="1.0"/>
           <path id="arrow"
             d="M 11.500037,31.436501 C 11.940474,20.09759 22.043105,11.32322 32.158766,21.979434 L 37.068811,17.246167 C 37.068811,17.246167 37.088388,32 37.088388,32 L 22.160133,31.978069 C 22.160133,31.978069 26.997745,27.140456 26.997745,27.140456 C 18.528582,18.264221 13.291696,25.230495 11.500037,31.436501 z"
             style="fill:#404040;"/>
          </a>
         </g>
        </svg>
</svg>
