<?xml version="1.0" encoding="UTF-8" standalone="no"?>
<!DOCTYPE svg PUBLIC "-//W3C//DTD SVG 1.1//EN"
 "http://www.w3.org/Graphics/SVG/1.1/DTD/svg11.dtd">
<!-- Generated by graphviz version 2.43.0 (0)
 -->
<!-- Title: Leosac::Tasks::Task Pages: 1 -->
<svg width="180pt" height="163pt"
 viewBox="0.00 0.00 179.50 163.00" xmlns="http://www.w3.org/2000/svg" xmlns:xlink="http://www.w3.org/1999/xlink">
<g id="graph0" class="graph" transform="scale(1 1) rotate(0) translate(4 159)">
<title>Leosac::Tasks::Task</title>
<polygon fill="white" stroke="transparent" points="-4,4 -4,-159 175.5,-159 175.5,4 -4,4"/>
<!-- Node1 -->
<g id="node1" class="node">
<title>Node1</title>
<g id="a_node1"><a xlink:title="A base class for a tasks.">
<polygon fill="#bfbfbf" stroke="black" points="16,-0.5 16,-19.5 127,-19.5 127,-0.5 16,-0.5"/>
<text text-anchor="middle" x="71.5" y="-7.5" font-family="Helvetica,sans-Serif" font-size="10.00">Leosac::Tasks::Task</text>
</a>
</g>
</g>
<!-- Node2 -->
<g id="node2" class="node">
<title>Node2</title>
<g id="a_node2"><a xlink:title="STL class.">
<polygon fill="white" stroke="#bfbfbf" points="0,-67.5 0,-86.5 69,-86.5 69,-67.5 0,-67.5"/>
<text text-anchor="middle" x="34.5" y="-74.5" font-family="Helvetica,sans-Serif" font-size="10.00">std::mutex</text>
</a>
</g>
</g>
<!-- Node2&#45;&gt;Node1 -->
<g id="edge1" class="edge">
<title>Node2&#45;&gt;Node1</title>
<path fill="none" stroke="#9a32cd" stroke-dasharray="5,2" d="M38.57,-57.52C40.44,-51.08 43.03,-43.98 46.5,-38 50.48,-31.15 56.47,-24.6 61.59,-19.67"/>
<polygon fill="#9a32cd" stroke="#9a32cd" points="35.13,-56.85 36.08,-67.41 41.91,-58.56 35.13,-56.85"/>
<text text-anchor="middle" x="66.5" y="-41" font-family="Helvetica,sans-Serif" font-size="10.00"> mutex_</text>
</g>
<!-- Node3 -->
<g id="node3" class="node">
<title>Node3</title>
<g id="a_node3"><a xlink:title="STL class.">
<polygon fill="white" stroke="#bfbfbf" points="87,-67.5 87,-86.5 152,-86.5 152,-67.5 87,-67.5"/>
<text text-anchor="middle" x="119.5" y="-74.5" font-family="Helvetica,sans-Serif" font-size="10.00">std::string</text>
</a>
</g>
</g>
<!-- Node3&#45;&gt;Node1 -->
<g id="edge2" class="edge">
<title>Node3&#45;&gt;Node1</title>
<path fill="none" stroke="#9a32cd" stroke-dasharray="5,2" d="M106.88,-58.9C97.55,-46.27 85.24,-29.6 77.87,-19.63"/>
<polygon fill="#9a32cd" stroke="#9a32cd" points="104.27,-61.27 113.03,-67.23 109.9,-57.11 104.27,-61.27"/>
<text text-anchor="middle" x="112.5" y="-41" font-family="Helvetica,sans-Serif" font-size="10.00"> guid_</text>
</g>
<!-- Node4 -->
<g id="node4" class="node">
<title>Node4</title>
<g id="a_node4"><a xlink:title="STL class.">
<polygon fill="white" stroke="#bfbfbf" points="67.5,-124.5 67.5,-154.5 171.5,-154.5 171.5,-124.5 67.5,-124.5"/>
<text text-anchor="start" x="75.5" y="-142.5" font-family="Helvetica,sans-Serif" font-size="10.00">std::basic_string&lt;</text>
<text text-anchor="middle" x="119.5" y="-131.5" font-family="Helvetica,sans-Serif" font-size="10.00"> char &gt;</text>
</a>
</g>
</g>
<!-- Node4&#45;&gt;Node3 -->
<g id="edge3" class="edge">
<title>Node4&#45;&gt;Node3</title>
<path fill="none" stroke="midnightblue" d="M119.5,-114.35C119.5,-104.51 119.5,-93.78 119.5,-86.54"/>
<polygon fill="midnightblue" stroke="midnightblue" points="116,-114.47 119.5,-124.47 123,-114.47 116,-114.47"/>
</g>
</g>
</svg>
