<?xml version="1.0" encoding="UTF-8" standalone="no"?>
<!DOCTYPE svg PUBLIC "-//W3C//DTD SVG 1.1//EN"
 "http://www.w3.org/Graphics/SVG/1.1/DTD/svg11.dtd">
<!-- Generated by graphviz version 2.43.0 (0)
 -->
<!-- Title: src/core/credentials/Credential.hpp Pages: 1 -->
<svg width="900pt" height="274pt"
 viewBox="0.00 0.00 899.50 274.00" xmlns="http://www.w3.org/2000/svg" xmlns:xlink="http://www.w3.org/1999/xlink">
<g id="graph0" class="graph" transform="scale(1 1) rotate(0) translate(4 270)">
<title>src/core/credentials/Credential.hpp</title>
<polygon fill="white" stroke="transparent" points="-4,4 -4,-270 895.5,-270 895.5,4 -4,4"/>
<!-- Node1 -->
<g id="node1" class="node">
<title>Node1</title>
<g id="a_node1"><a xlink:title=" ">
<polygon fill="#bfbfbf" stroke="black" points="520.5,-235.5 520.5,-265.5 632.5,-265.5 632.5,-235.5 520.5,-235.5"/>
<text text-anchor="start" x="528.5" y="-253.5" font-family="Helvetica,sans-Serif" font-size="10.00">src/core/credentials</text>
<text text-anchor="middle" x="576.5" y="-242.5" font-family="Helvetica,sans-Serif" font-size="10.00">/Credential.hpp</text>
</a>
</g>
</g>
<!-- Node2 -->
<g id="node2" class="node">
<title>Node2</title>
<g id="a_node2"><a xlink:href="../../dc/d49/LeosacFwd_8hpp.html" target="_top" xlink:title=" ">
<polygon fill="white" stroke="black" points="157.5,-179.5 157.5,-198.5 249.5,-198.5 249.5,-179.5 157.5,-179.5"/>
<text text-anchor="middle" x="203.5" y="-186.5" font-family="Helvetica,sans-Serif" font-size="10.00">LeosacFwd.hpp</text>
</a>
</g>
</g>
<!-- Node1&#45;&gt;Node2 -->
<g id="edge1" class="edge">
<title>Node1&#45;&gt;Node2</title>
<path fill="none" stroke="midnightblue" d="M520.25,-240.53C449.84,-229.3 329.95,-210.17 259.6,-198.95"/>
<polygon fill="midnightblue" stroke="midnightblue" points="260.02,-195.47 249.59,-197.35 258.92,-202.38 260.02,-195.47"/>
</g>
<!-- Node5 -->
<g id="node5" class="node">
<title>Node5</title>
<g id="a_node5"><a xlink:href="../../d3/d6f/AuthFwd_8hpp.html" target="_top" xlink:title=" ">
<polygon fill="white" stroke="black" points="564,-118 564,-137 693,-137 693,-118 564,-118"/>
<text text-anchor="middle" x="628.5" y="-125" font-family="Helvetica,sans-Serif" font-size="10.00">core/auth/AuthFwd.hpp</text>
</a>
</g>
</g>
<!-- Node1&#45;&gt;Node5 -->
<g id="edge4" class="edge">
<title>Node1&#45;&gt;Node5</title>
<path fill="none" stroke="midnightblue" d="M582.67,-235.14C592.18,-213 610.42,-170.57 620.79,-146.44"/>
<polygon fill="midnightblue" stroke="midnightblue" points="624.09,-147.62 624.82,-137.05 617.66,-144.86 624.09,-147.62"/>
</g>
<!-- Node6 -->
<g id="node6" class="node">
<title>Node6</title>
<g id="a_node6"><a xlink:title=" ">
<polygon fill="white" stroke="#bfbfbf" points="648,-56.5 648,-75.5 701,-75.5 701,-56.5 648,-56.5"/>
<text text-anchor="middle" x="674.5" y="-63.5" font-family="Helvetica,sans-Serif" font-size="10.00">cstddef</text>
</a>
</g>
</g>
<!-- Node1&#45;&gt;Node6 -->
<g id="edge26" class="edge">
<title>Node1&#45;&gt;Node6</title>
<path fill="none" stroke="midnightblue" d="M604.36,-235.35C634.71,-218.18 681.6,-186.1 701.5,-143 710.63,-123.23 698.71,-99.44 687.94,-83.81"/>
<polygon fill="midnightblue" stroke="midnightblue" points="690.66,-81.6 681.9,-75.64 685.03,-85.76 690.66,-81.6"/>
</g>
<!-- Node8 -->
<g id="node8" class="node">
<title>Node8</title>
<g id="a_node8"><a xlink:href="../../dc/dfe/ValidityInfo_8hpp.html" target="_top" xlink:title=" ">
<polygon fill="white" stroke="black" points="749.5,-179.5 749.5,-198.5 891.5,-198.5 891.5,-179.5 749.5,-179.5"/>
<text text-anchor="middle" x="820.5" y="-186.5" font-family="Helvetica,sans-Serif" font-size="10.00">core/auth/ValidityInfo.hpp</text>
</a>
</g>
</g>
<!-- Node1&#45;&gt;Node8 -->
<g id="edge8" class="edge">
<title>Node1&#45;&gt;Node8</title>
<path fill="none" stroke="midnightblue" d="M632.78,-235.77C676.25,-225.18 735.58,-210.71 775.82,-200.9"/>
<polygon fill="midnightblue" stroke="midnightblue" points="776.73,-204.28 785.61,-198.51 775.07,-197.48 776.73,-204.28"/>
</g>
<!-- Node11 -->
<g id="node11" class="node">
<title>Node11</title>
<g id="a_node11"><a xlink:href="../../d0/db0/ICredential_8hpp.html" target="_top" xlink:title=" ">
<polygon fill="white" stroke="black" points="296.5,-179.5 296.5,-198.5 468.5,-198.5 468.5,-179.5 296.5,-179.5"/>
<text text-anchor="middle" x="382.5" y="-186.5" font-family="Helvetica,sans-Serif" font-size="10.00">core/credentials/ICredential.hpp</text>
</a>
</g>
</g>
<!-- Node1&#45;&gt;Node11 -->
<g id="edge12" class="edge">
<title>Node1&#45;&gt;Node11</title>
<path fill="none" stroke="midnightblue" d="M530.52,-235.4C496.86,-225.07 451.72,-211.23 420.18,-201.56"/>
<polygon fill="midnightblue" stroke="midnightblue" points="421.03,-198.16 410.45,-198.57 418.98,-204.85 421.03,-198.16"/>
</g>
<!-- Node17 -->
<g id="node17" class="node">
<title>Node17</title>
<g id="a_node17"><a xlink:href="../../d8/d97/ToolsFwd_8hpp.html" target="_top" xlink:title=" ">
<polygon fill="white" stroke="black" points="435.5,-118 435.5,-137 545.5,-137 545.5,-118 435.5,-118"/>
<text text-anchor="middle" x="490.5" y="-125" font-family="Helvetica,sans-Serif" font-size="10.00">tools/ToolsFwd.hpp</text>
</a>
</g>
</g>
<!-- Node1&#45;&gt;Node17 -->
<g id="edge25" class="edge">
<title>Node1&#45;&gt;Node17</title>
<path fill="none" stroke="midnightblue" d="M566.3,-235.14C550.35,-212.71 519.58,-169.42 502.56,-145.47"/>
<polygon fill="midnightblue" stroke="midnightblue" points="505.22,-143.18 496.58,-137.05 499.52,-147.23 505.22,-143.18"/>
</g>
<!-- Node3 -->
<g id="node3" class="node">
<title>Node3</title>
<g id="a_node3"><a xlink:title=" ">
<polygon fill="white" stroke="#bfbfbf" points="314.5,-56.5 314.5,-75.5 372.5,-75.5 372.5,-56.5 314.5,-56.5"/>
<text text-anchor="middle" x="343.5" y="-63.5" font-family="Helvetica,sans-Serif" font-size="10.00">memory</text>
</a>
</g>
</g>
<!-- Node2&#45;&gt;Node3 -->
<g id="edge2" class="edge">
<title>Node2&#45;&gt;Node3</title>
<path fill="none" stroke="midnightblue" d="M207.03,-179.4C213.68,-164.07 229.43,-131.8 251.5,-112 267.54,-97.61 289.02,-86.76 307.19,-79.32"/>
<polygon fill="midnightblue" stroke="midnightblue" points="308.57,-82.54 316.61,-75.64 306.02,-76.02 308.57,-82.54"/>
</g>
<!-- Node4 -->
<g id="node4" class="node">
<title>Node4</title>
<g id="a_node4"><a xlink:title=" ">
<polygon fill="white" stroke="#bfbfbf" points="0,-118 0,-137 47,-137 47,-118 0,-118"/>
<text text-anchor="middle" x="23.5" y="-125" font-family="Helvetica,sans-Serif" font-size="10.00">vector</text>
</a>
</g>
</g>
<!-- Node2&#45;&gt;Node4 -->
<g id="edge3" class="edge">
<title>Node2&#45;&gt;Node4</title>
<path fill="none" stroke="midnightblue" d="M171.89,-179.48C141.88,-171.12 95.66,-157.54 56.5,-143 54.85,-142.39 53.16,-141.73 51.46,-141.05"/>
<polygon fill="midnightblue" stroke="midnightblue" points="52.42,-137.66 41.84,-137.01 49.71,-144.11 52.42,-137.66"/>
</g>
<!-- Node5&#45;&gt;Node3 -->
<g id="edge6" class="edge">
<title>Node5&#45;&gt;Node3</title>
<path fill="none" stroke="midnightblue" d="M587.67,-117.98C532.86,-106.53 436.2,-86.35 382.4,-75.12"/>
<polygon fill="midnightblue" stroke="midnightblue" points="383.06,-71.68 372.56,-73.07 381.63,-78.54 383.06,-71.68"/>
</g>
<!-- Node5&#45;&gt;Node6 -->
<g id="edge5" class="edge">
<title>Node5&#45;&gt;Node6</title>
<path fill="none" stroke="midnightblue" d="M635.09,-117.98C641.99,-109.05 653,-94.81 661.63,-83.64"/>
<polygon fill="midnightblue" stroke="midnightblue" points="664.57,-85.56 667.92,-75.51 659.04,-81.28 664.57,-85.56"/>
</g>
<!-- Node7 -->
<g id="node7" class="node">
<title>Node7</title>
<g id="a_node7"><a xlink:title=" ">
<polygon fill="white" stroke="#bfbfbf" points="443,-56.5 443,-75.5 538,-75.5 538,-56.5 443,-56.5"/>
<text text-anchor="middle" x="490.5" y="-63.5" font-family="Helvetica,sans-Serif" font-size="10.00">odb/lazy&#45;ptr.hxx</text>
</a>
</g>
</g>
<!-- Node5&#45;&gt;Node7 -->
<g id="edge7" class="edge">
<title>Node5&#45;&gt;Node7</title>
<path fill="none" stroke="midnightblue" d="M608.73,-117.98C585.36,-107.9 546.29,-91.05 519.5,-79.5"/>
<polygon fill="midnightblue" stroke="midnightblue" points="520.8,-76.25 510.24,-75.51 518.03,-82.68 520.8,-76.25"/>
</g>
<!-- Node8&#45;&gt;Node5 -->
<g id="edge9" class="edge">
<title>Node8&#45;&gt;Node5</title>
<path fill="none" stroke="midnightblue" d="M792.99,-179.48C759.63,-169.14 703.24,-151.66 665.94,-140.1"/>
<polygon fill="midnightblue" stroke="midnightblue" points="666.55,-136.63 655.96,-137.01 664.47,-143.31 666.55,-136.63"/>
</g>
<!-- Node9 -->
<g id="node9" class="node">
<title>Node9</title>
<g id="a_node9"><a xlink:title=" ">
<polygon fill="white" stroke="#bfbfbf" points="772.5,-118 772.5,-137 822.5,-137 822.5,-118 772.5,-118"/>
<text text-anchor="middle" x="797.5" y="-125" font-family="Helvetica,sans-Serif" font-size="10.00">chrono</text>
</a>
</g>
</g>
<!-- Node8&#45;&gt;Node9 -->
<g id="edge10" class="edge">
<title>Node8&#45;&gt;Node9</title>
<path fill="none" stroke="midnightblue" d="M817.2,-179.48C813.89,-170.9 808.68,-157.43 804.45,-146.48"/>
<polygon fill="midnightblue" stroke="midnightblue" points="807.66,-145.07 800.79,-137.01 801.13,-147.6 807.66,-145.07"/>
</g>
<!-- Node10 -->
<g id="node10" class="node">
<title>Node10</title>
<g id="a_node10"><a xlink:title=" ">
<polygon fill="white" stroke="#bfbfbf" points="840.5,-118 840.5,-137 884.5,-137 884.5,-118 840.5,-118"/>
<text text-anchor="middle" x="862.5" y="-125" font-family="Helvetica,sans-Serif" font-size="10.00">string</text>
</a>
</g>
</g>
<!-- Node8&#45;&gt;Node10 -->
<g id="edge11" class="edge">
<title>Node8&#45;&gt;Node10</title>
<path fill="none" stroke="midnightblue" d="M826.52,-179.48C832.76,-170.64 842.67,-156.59 850.52,-145.48"/>
<polygon fill="midnightblue" stroke="midnightblue" points="853.59,-147.2 856.49,-137.01 847.87,-143.16 853.59,-147.2"/>
</g>
<!-- Node11&#45;&gt;Node3 -->
<g id="edge24" class="edge">
<title>Node11&#45;&gt;Node3</title>
<path fill="none" stroke="midnightblue" d="M318.1,-179.43C296.14,-173.09 273.8,-162.08 260.5,-143 252.62,-131.7 253.45,-123.84 260.5,-112 270.17,-95.75 287.98,-85.01 304.63,-78.11"/>
<polygon fill="midnightblue" stroke="midnightblue" points="306.11,-81.29 314.23,-74.48 303.64,-74.74 306.11,-81.29"/>
</g>
<!-- Node11&#45;&gt;Node5 -->
<g id="edge13" class="edge">
<title>Node11&#45;&gt;Node5</title>
<path fill="none" stroke="midnightblue" d="M417.75,-179.48C461.4,-168.92 535.84,-150.91 583.56,-139.37"/>
<polygon fill="midnightblue" stroke="midnightblue" points="584.42,-142.76 593.32,-137.01 582.78,-135.96 584.42,-142.76"/>
</g>
<!-- Node12 -->
<g id="node12" class="node">
<title>Node12</title>
<g id="a_node12"><a xlink:href="../../d7/d7f/CredentialFwd_8hpp.html" target="_top" xlink:title=" ">
<polygon fill="white" stroke="black" points="269.5,-112.5 269.5,-142.5 417.5,-142.5 417.5,-112.5 269.5,-112.5"/>
<text text-anchor="start" x="277.5" y="-130.5" font-family="Helvetica,sans-Serif" font-size="10.00">core/credentials/Credential</text>
<text text-anchor="middle" x="343.5" y="-119.5" font-family="Helvetica,sans-Serif" font-size="10.00">Fwd.hpp</text>
</a>
</g>
</g>
<!-- Node11&#45;&gt;Node12 -->
<g id="edge14" class="edge">
<title>Node11&#45;&gt;Node12</title>
<path fill="none" stroke="midnightblue" d="M376.91,-179.48C372.07,-172.09 364.85,-161.08 358.36,-151.17"/>
<polygon fill="midnightblue" stroke="midnightblue" points="361.1,-148.97 352.69,-142.52 355.25,-152.81 361.1,-148.97"/>
</g>
<!-- Node13 -->
<g id="node13" class="node">
<title>Node13</title>
<g id="a_node13"><a xlink:href="../../dd/d9d/IVisitable_8hpp.html" target="_top" xlink:title=" ">
<polygon fill="white" stroke="black" points="65.5,-118 65.5,-137 175.5,-137 175.5,-118 65.5,-118"/>
<text text-anchor="middle" x="120.5" y="-125" font-family="Helvetica,sans-Serif" font-size="10.00">tools/IVisitable.hpp</text>
</a>
</g>
</g>
<!-- Node11&#45;&gt;Node13 -->
<g id="edge17" class="edge">
<title>Node11&#45;&gt;Node13</title>
<path fill="none" stroke="midnightblue" d="M344.96,-179.48C298.27,-168.87 218.52,-150.76 167.72,-139.22"/>
<polygon fill="midnightblue" stroke="midnightblue" points="168.5,-135.81 157.97,-137.01 166.95,-142.64 168.5,-135.81"/>
</g>
<!-- Node11&#45;&gt;Node17 -->
<g id="edge21" class="edge">
<title>Node11&#45;&gt;Node17</title>
<path fill="none" stroke="midnightblue" d="M397.97,-179.48C415.78,-169.67 445.24,-153.43 466.13,-141.92"/>
<polygon fill="midnightblue" stroke="midnightblue" points="467.99,-144.9 475.05,-137.01 464.61,-138.77 467.99,-144.9"/>
</g>
<!-- Node12&#45;&gt;Node3 -->
<g id="edge15" class="edge">
<title>Node12&#45;&gt;Node3</title>
<path fill="none" stroke="midnightblue" d="M343.5,-112.4C343.5,-104.47 343.5,-94.46 343.5,-85.86"/>
<polygon fill="midnightblue" stroke="midnightblue" points="347,-85.66 343.5,-75.66 340,-85.66 347,-85.66"/>
</g>
<!-- Node12&#45;&gt;Node7 -->
<g id="edge16" class="edge">
<title>Node12&#45;&gt;Node7</title>
<path fill="none" stroke="midnightblue" d="M378.34,-112.4C403,-102.42 435.79,-89.15 459.53,-79.53"/>
<polygon fill="midnightblue" stroke="midnightblue" points="461.15,-82.65 469.11,-75.66 458.53,-76.17 461.15,-82.65"/>
</g>
<!-- Node14 -->
<g id="node14" class="node">
<title>Node14</title>
<g id="a_node14"><a xlink:href="../../d2/d91/Visitor_8hpp.html" target="_top" xlink:title=" ">
<polygon fill="white" stroke="black" points="27,-56.5 27,-75.5 122,-75.5 122,-56.5 27,-56.5"/>
<text text-anchor="middle" x="74.5" y="-63.5" font-family="Helvetica,sans-Serif" font-size="10.00">tools/Visitor.hpp</text>
</a>
</g>
</g>
<!-- Node13&#45;&gt;Node14 -->
<g id="edge18" class="edge">
<title>Node13&#45;&gt;Node14</title>
<path fill="none" stroke="midnightblue" d="M113.91,-117.98C107.01,-109.05 96,-94.81 87.37,-83.64"/>
<polygon fill="midnightblue" stroke="midnightblue" points="89.96,-81.28 81.08,-75.51 84.43,-85.56 89.96,-81.28"/>
</g>
<!-- Node16 -->
<g id="node16" class="node">
<title>Node16</title>
<g id="a_node16"><a xlink:title=" ">
<polygon fill="white" stroke="#bfbfbf" points="140.5,-56.5 140.5,-75.5 192.5,-75.5 192.5,-56.5 140.5,-56.5"/>
<text text-anchor="middle" x="166.5" y="-63.5" font-family="Helvetica,sans-Serif" font-size="10.00">cassert</text>
</a>
</g>
</g>
<!-- Node13&#45;&gt;Node16 -->
<g id="edge20" class="edge">
<title>Node13&#45;&gt;Node16</title>
<path fill="none" stroke="midnightblue" d="M127.09,-117.98C133.99,-109.05 145,-94.81 153.63,-83.64"/>
<polygon fill="midnightblue" stroke="midnightblue" points="156.57,-85.56 159.92,-75.51 151.04,-81.28 156.57,-85.56"/>
</g>
<!-- Node15 -->
<g id="node15" class="node">
<title>Node15</title>
<g id="a_node15"><a xlink:title=" ">
<polygon fill="white" stroke="#bfbfbf" points="40,-0.5 40,-19.5 109,-19.5 109,-0.5 40,-0.5"/>
<text text-anchor="middle" x="74.5" y="-7.5" font-family="Helvetica,sans-Serif" font-size="10.00">type_traits</text>
</a>
</g>
</g>
<!-- Node14&#45;&gt;Node15 -->
<g id="edge19" class="edge">
<title>Node14&#45;&gt;Node15</title>
<path fill="none" stroke="midnightblue" d="M74.5,-56.08C74.5,-49.01 74.5,-38.86 74.5,-29.99"/>
<polygon fill="midnightblue" stroke="midnightblue" points="78,-29.75 74.5,-19.75 71,-29.75 78,-29.75"/>
</g>
<!-- Node17&#45;&gt;Node3 -->
<g id="edge22" class="edge">
<title>Node17&#45;&gt;Node3</title>
<path fill="none" stroke="midnightblue" d="M469.44,-117.98C444.44,-107.86 402.56,-90.9 374.01,-79.35"/>
<polygon fill="midnightblue" stroke="midnightblue" points="375.11,-76.02 364.52,-75.51 372.48,-82.51 375.11,-76.02"/>
</g>
<!-- Node17&#45;&gt;Node7 -->
<g id="edge23" class="edge">
<title>Node17&#45;&gt;Node7</title>
<path fill="none" stroke="midnightblue" d="M490.5,-117.98C490.5,-109.58 490.5,-96.48 490.5,-85.66"/>
<polygon fill="midnightblue" stroke="midnightblue" points="494,-85.51 490.5,-75.51 487,-85.51 494,-85.51"/>
</g>
</g>
</svg>
