<?xml version="1.0" encoding="UTF-8" standalone="no"?>
<!DOCTYPE svg PUBLIC "-//W3C//DTD SVG 1.1//EN"
 "http://www.w3.org/Graphics/SVG/1.1/DTD/svg11.dtd">
<!-- Generated by graphviz version 2.43.0 (0)
 -->
<!-- Title: src/core/tasks/GetRemoteConfigVersion.hpp Pages: 1 -->
<svg width="477pt" height="106pt"
 viewBox="0.00 0.00 477.00 106.00" xmlns="http://www.w3.org/2000/svg" xmlns:xlink="http://www.w3.org/1999/xlink">
<g id="graph0" class="graph" transform="scale(1 1) rotate(0) translate(4 102)">
<title>src/core/tasks/GetRemoteConfigVersion.hpp</title>
<polygon fill="white" stroke="transparent" points="-4,4 -4,-102 473,-102 473,4 -4,4"/>
<!-- Node1 -->
<g id="node1" class="node">
<title>Node1</title>
<g id="a_node1"><a xlink:title=" ">
<polygon fill="#bfbfbf" stroke="black" points="177,-67.5 177,-97.5 320,-97.5 320,-67.5 177,-67.5"/>
<text text-anchor="start" x="185" y="-85.5" font-family="Helvetica,sans-Serif" font-size="10.00">src/core/tasks/GetRemote</text>
<text text-anchor="middle" x="248.5" y="-74.5" font-family="Helvetica,sans-Serif" font-size="10.00">ConfigVersion.hpp</text>
</a>
</g>
</g>
<!-- Node2 -->
<g id="node2" class="node">
<title>Node2</title>
<g id="a_node2"><a xlink:href="../../da/db5/RemoteConfigCollector_8cpp.html" target="_top" xlink:title=" ">
<polygon fill="white" stroke="black" points="0,-0.5 0,-30.5 159,-30.5 159,-0.5 0,-0.5"/>
<text text-anchor="start" x="8" y="-18.5" font-family="Helvetica,sans-Serif" font-size="10.00">src/core/config/RemoteConfig</text>
<text text-anchor="middle" x="79.5" y="-7.5" font-family="Helvetica,sans-Serif" font-size="10.00">Collector.cpp</text>
</a>
</g>
</g>
<!-- Node1&#45;&gt;Node2 -->
<g id="edge1" class="edge">
<title>Node1&#45;&gt;Node2</title>
<path fill="none" stroke="midnightblue" d="M202.17,-63.68C175.07,-53.26 141.33,-40.28 116.1,-30.58"/>
<polygon fill="midnightblue" stroke="midnightblue" points="201.24,-67.07 211.83,-67.4 203.75,-60.54 201.24,-67.07"/>
</g>
<!-- Node3 -->
<g id="node3" class="node">
<title>Node3</title>
<g id="a_node3"><a xlink:href="../../d7/d6f/GetRemoteConfigVersion_8cpp.html" target="_top" xlink:title=" ">
<polygon fill="white" stroke="black" points="177,-0.5 177,-30.5 320,-30.5 320,-0.5 177,-0.5"/>
<text text-anchor="start" x="185" y="-18.5" font-family="Helvetica,sans-Serif" font-size="10.00">src/core/tasks/GetRemote</text>
<text text-anchor="middle" x="248.5" y="-7.5" font-family="Helvetica,sans-Serif" font-size="10.00">ConfigVersion.cpp</text>
</a>
</g>
</g>
<!-- Node1&#45;&gt;Node3 -->
<g id="edge2" class="edge">
<title>Node1&#45;&gt;Node3</title>
<path fill="none" stroke="midnightblue" d="M248.5,-57.11C248.5,-48.15 248.5,-38.32 248.5,-30.58"/>
<polygon fill="midnightblue" stroke="midnightblue" points="245,-57.4 248.5,-67.4 252,-57.4 245,-57.4"/>
</g>
<!-- Node4 -->
<g id="node4" class="node">
<title>Node4</title>
<g id="a_node4"><a xlink:href="../../d2/dac/ReplicationModule_8cpp.html" target="_top" xlink:title=" ">
<polygon fill="white" stroke="black" points="338,-0.5 338,-30.5 469,-30.5 469,-0.5 338,-0.5"/>
<text text-anchor="start" x="346" y="-18.5" font-family="Helvetica,sans-Serif" font-size="10.00">src/modules/replication</text>
<text text-anchor="middle" x="403.5" y="-7.5" font-family="Helvetica,sans-Serif" font-size="10.00">/ReplicationModule.cpp</text>
</a>
</g>
</g>
<!-- Node1&#45;&gt;Node4 -->
<g id="edge3" class="edge">
<title>Node1&#45;&gt;Node4</title>
<path fill="none" stroke="midnightblue" d="M291.65,-63.41C316.39,-53.03 347,-40.2 369.93,-30.58"/>
<polygon fill="midnightblue" stroke="midnightblue" points="290,-60.3 282.13,-67.4 292.71,-66.76 290,-60.3"/>
</g>
</g>
</svg>
