<?xml version="1.0" encoding="UTF-8" standalone="no"?>
<!DOCTYPE svg PUBLIC "-//W3C//DTD SVG 1.1//EN"
 "http://www.w3.org/Graphics/SVG/1.1/DTD/svg11.dtd">
<!-- Generated by graphviz version 2.43.0 (0)
 -->
<!-- Title: Leosac::Tasks::GenericTask Pages: 1 -->
<svg width="183pt" height="220pt"
 viewBox="0.00 0.00 182.50 220.00" xmlns="http://www.w3.org/2000/svg" xmlns:xlink="http://www.w3.org/1999/xlink">
<g id="graph0" class="graph" transform="scale(1 1) rotate(0) translate(4 216)">
<title>Leosac::Tasks::GenericTask</title>
<polygon fill="white" stroke="transparent" points="-4,4 -4,-216 178.5,-216 178.5,4 -4,4"/>
<!-- Node1 -->
<g id="node1" class="node">
<title>Node1</title>
<g id="a_node1"><a xlink:title="This task type is used whenever a lambda is passed to the scheduler.">
<polygon fill="#bfbfbf" stroke="black" points="0,-0.5 0,-19.5 149,-19.5 149,-0.5 0,-0.5"/>
<text text-anchor="middle" x="74.5" y="-7.5" font-family="Helvetica,sans-Serif" font-size="10.00">Leosac::Tasks::GenericTask</text>
</a>
</g>
</g>
<!-- Node2 -->
<g id="node2" class="node">
<title>Node2</title>
<g id="a_node2"><a xlink:href="../../d5/d9f/classLeosac_1_1Tasks_1_1Task.html" target="_top" xlink:title="A base class for a tasks.">
<polygon fill="white" stroke="black" points="19,-57.5 19,-76.5 130,-76.5 130,-57.5 19,-57.5"/>
<text text-anchor="middle" x="74.5" y="-64.5" font-family="Helvetica,sans-Serif" font-size="10.00">Leosac::Tasks::Task</text>
</a>
</g>
</g>
<!-- Node2&#45;&gt;Node1 -->
<g id="edge1" class="edge">
<title>Node2&#45;&gt;Node1</title>
<path fill="none" stroke="midnightblue" d="M74.5,-47.12C74.5,-37.82 74.5,-27.06 74.5,-19.71"/>
<polygon fill="midnightblue" stroke="midnightblue" points="71,-47.41 74.5,-57.41 78,-47.41 71,-47.41"/>
</g>
<!-- Node3 -->
<g id="node3" class="node">
<title>Node3</title>
<g id="a_node3"><a xlink:title="STL class.">
<polygon fill="white" stroke="#bfbfbf" points="3,-124.5 3,-143.5 72,-143.5 72,-124.5 3,-124.5"/>
<text text-anchor="middle" x="37.5" y="-131.5" font-family="Helvetica,sans-Serif" font-size="10.00">std::mutex</text>
</a>
</g>
</g>
<!-- Node3&#45;&gt;Node2 -->
<g id="edge2" class="edge">
<title>Node3&#45;&gt;Node2</title>
<path fill="none" stroke="#9a32cd" stroke-dasharray="5,2" d="M41.57,-114.52C43.44,-108.08 46.03,-100.98 49.5,-95 53.48,-88.15 59.47,-81.6 64.59,-76.67"/>
<polygon fill="#9a32cd" stroke="#9a32cd" points="38.13,-113.85 39.08,-124.41 44.91,-115.56 38.13,-113.85"/>
<text text-anchor="middle" x="69.5" y="-98" font-family="Helvetica,sans-Serif" font-size="10.00"> mutex_</text>
</g>
<!-- Node4 -->
<g id="node4" class="node">
<title>Node4</title>
<g id="a_node4"><a xlink:title="STL class.">
<polygon fill="white" stroke="#bfbfbf" points="90,-124.5 90,-143.5 155,-143.5 155,-124.5 90,-124.5"/>
<text text-anchor="middle" x="122.5" y="-131.5" font-family="Helvetica,sans-Serif" font-size="10.00">std::string</text>
</a>
</g>
</g>
<!-- Node4&#45;&gt;Node2 -->
<g id="edge3" class="edge">
<title>Node4&#45;&gt;Node2</title>
<path fill="none" stroke="#9a32cd" stroke-dasharray="5,2" d="M109.88,-115.9C100.55,-103.27 88.24,-86.6 80.87,-76.63"/>
<polygon fill="#9a32cd" stroke="#9a32cd" points="107.27,-118.27 116.03,-124.23 112.9,-114.11 107.27,-118.27"/>
<text text-anchor="middle" x="115.5" y="-98" font-family="Helvetica,sans-Serif" font-size="10.00"> guid_</text>
</g>
<!-- Node5 -->
<g id="node5" class="node">
<title>Node5</title>
<g id="a_node5"><a xlink:title="STL class.">
<polygon fill="white" stroke="#bfbfbf" points="70.5,-181.5 70.5,-211.5 174.5,-211.5 174.5,-181.5 70.5,-181.5"/>
<text text-anchor="start" x="78.5" y="-199.5" font-family="Helvetica,sans-Serif" font-size="10.00">std::basic_string&lt;</text>
<text text-anchor="middle" x="122.5" y="-188.5" font-family="Helvetica,sans-Serif" font-size="10.00"> char &gt;</text>
</a>
</g>
</g>
<!-- Node5&#45;&gt;Node4 -->
<g id="edge4" class="edge">
<title>Node5&#45;&gt;Node4</title>
<path fill="none" stroke="midnightblue" d="M122.5,-171.35C122.5,-161.51 122.5,-150.78 122.5,-143.54"/>
<polygon fill="midnightblue" stroke="midnightblue" points="119,-171.47 122.5,-181.47 126,-171.47 119,-171.47"/>
</g>
</g>
</svg>
