<?xml version="1.0" encoding="UTF-8" standalone="no"?>
<!DOCTYPE svg PUBLIC "-//W3C//DTD SVG 1.1//EN"
 "http://www.w3.org/Graphics/SVG/1.1/DTD/svg11.dtd">
<!-- Generated by graphviz version 2.43.0 (0)
 -->
<!-- Title: src/core/auth/Interfaces/IAccessProfile.hpp Pages: 1 -->
<!--zoomable 374 -->
<svg id="main" version="1.1" xmlns="http://www.w3.org/2000/svg" xmlns:xlink="http://www.w3.org/1999/xlink" xml:space="preserve" onload="init(evt)">
<style type="text/css"><![CDATA[
.edge:hover path { stroke: red; }
.edge:hover polygon { stroke: red; fill: red; }
]]></style>
<script type="text/javascript"><![CDATA[
var edges = document.getElementsByTagName('g');
if (edges && edges.length) {
  for (var i=0;i<edges.length;i++) {
    if (edges[i].id.substr(0,4)=='edge') {
      edges[i].setAttribute('class','edge');
    }
  }
}
]]></script>
        <defs>
                <circle id="rim" cx="0" cy="0" r="7"/>
                <circle id="rim2" cx="0" cy="0" r="3.5"/>
                <g id="zoomPlus">
                        <use xlink:href="#rim" fill="#404040">
                                <set attributeName="fill" to="#808080" begin="zoomplus.mouseover" end="zoomplus.mouseout"/>
                        </use>
                        <path d="M-4,0h8M0,-4v8" fill="none" stroke="white" stroke-width="1.5" pointer-events="none"/>
                </g>
                <g id="zoomMin">
                        <use xlink:href="#rim" fill="#404040">
                                <set attributeName="fill" to="#808080" begin="zoomminus.mouseover" end="zoomminus.mouseout"/>
                        </use>
                        <path d="M-4,0h8" fill="none" stroke="white" stroke-width="1.5" pointer-events="none"/>
                </g>
                <g id="dirArrow">
                        <path fill="none" stroke="white" stroke-width="1.5" d="M0,-3.0v7 M-2.5,-0.5L0,-3.0L2.5,-0.5"/>
                </g>
               <g id="resetDef">
                       <use xlink:href="#rim2" fill="#404040">
                               <set attributeName="fill" to="#808080" begin="reset.mouseover" end="reset.mouseout"/>
                       </use>
               </g>
        </defs>

<script type="text/javascript">
var viewWidth = 4396;
var viewHeight = 374;
var sectionId = 'dynsection-1';
</script>
<script xlink:href="../../svgpan.js"/>
<svg id="graph" class="graph">
<g id="viewport">
<title>src/core/auth/Interfaces/IAccessProfile.hpp</title>
<polygon fill="white" stroke="transparent" points="-4,4 -4,-370 4391.5,-370 4391.5,4 -4,4"/>
<!-- Node1 -->
<g id="node1" class="node">
<title>Node1</title>
<g id="a_node1"><a xlink:title=" ">
<polygon fill="#bfbfbf" stroke="black" points="1437,-335.5 1437,-365.5 1568,-365.5 1568,-335.5 1437,-335.5"/>
<text text-anchor="start" x="1445" y="-353.5" font-family="Helvetica,sans-Serif" font-size="10.00">src/core/auth/Interfaces</text>
<text text-anchor="middle" x="1502.5" y="-342.5" font-family="Helvetica,sans-Serif" font-size="10.00">/IAccessProfile.hpp</text>
</a>
</g>
</g>
<!-- Node2 -->
<g id="node2" class="node">
<title>Node2</title>
<g id="a_node2"><a xlink:href="../../d7/d86/IDoor_8hpp.html" target="_top" xlink:title=" ">
<polygon fill="white" stroke="black" points="784,-274 784,-293 913,-293 913,-274 784,-274"/>
<text text-anchor="middle" x="848.5" y="-281" font-family="Helvetica,sans-Serif" font-size="10.00">src/core/auth/IDoor.hpp</text>
</a>
</g>
</g>
<!-- Node1&#45;&gt;Node2 -->
<g id="edge1" class="edge">
<title>Node1&#45;&gt;Node2</title>
<path fill="none" stroke="midnightblue" d="M1426.55,-341.95C1296.82,-329.06 1034.78,-303.01 913.19,-290.93"/>
<polygon fill="midnightblue" stroke="midnightblue" points="1426.5,-345.46 1436.8,-342.97 1427.19,-338.5 1426.5,-345.46"/>
</g>
<!-- Node14 -->
<g id="node14" class="node">
<title>Node14</title>
<g id="a_node14"><a xlink:href="../../de/da4/ProfileMerger_8hpp.html" target="_top" xlink:title=" ">
<polygon fill="white" stroke="black" points="1330.5,-274 1330.5,-293 1498.5,-293 1498.5,-274 1330.5,-274"/>
<text text-anchor="middle" x="1414.5" y="-281" font-family="Helvetica,sans-Serif" font-size="10.00">src/core/auth/ProfileMerger.hpp</text>
</a>
</g>
</g>
<!-- Node1&#45;&gt;Node14 -->
<g id="edge13" class="edge">
<title>Node1&#45;&gt;Node14</title>
<path fill="none" stroke="midnightblue" d="M1475.16,-329.31C1458.64,-317.1 1438.43,-302.18 1426.02,-293.01"/>
<polygon fill="midnightblue" stroke="midnightblue" points="1473.28,-332.27 1483.41,-335.4 1477.44,-326.64 1473.28,-332.27"/>
</g>
<!-- Node16 -->
<g id="node16" class="node">
<title>Node16</title>
<g id="a_node16"><a xlink:href="../../d9/dfe/SimpleAccessProfile_8hpp.html" target="_top" xlink:title=" ">
<polygon fill="white" stroke="black" points="1520.5,-268.5 1520.5,-298.5 1670.5,-298.5 1670.5,-268.5 1520.5,-268.5"/>
<text text-anchor="start" x="1528.5" y="-286.5" font-family="Helvetica,sans-Serif" font-size="10.00">src/core/auth/SimpleAccess</text>
<text text-anchor="middle" x="1595.5" y="-275.5" font-family="Helvetica,sans-Serif" font-size="10.00">Profile.hpp</text>
</a>
</g>
</g>
<!-- Node1&#45;&gt;Node16 -->
<g id="edge16" class="edge">
<title>Node1&#45;&gt;Node16</title>
<path fill="none" stroke="midnightblue" d="M1531.19,-329.45C1545.49,-319.45 1562.45,-307.6 1575.36,-298.58"/>
<polygon fill="midnightblue" stroke="midnightblue" points="1528.87,-326.8 1522.68,-335.4 1532.88,-332.54 1528.87,-326.8"/>
</g>
<!-- Node26 -->
<g id="node26" class="node">
<title>Node26</title>
<g id="a_node26"><a xlink:href="../../de/dfd/User_8hpp.html" target="_top" xlink:title=" ">
<polygon fill="white" stroke="black" points="2684,-207 2684,-226 2809,-226 2809,-207 2684,-207"/>
<text text-anchor="middle" x="2746.5" y="-214" font-family="Helvetica,sans-Serif" font-size="10.00">src/core/auth/User.hpp</text>
</a>
</g>
</g>
<!-- Node1&#45;&gt;Node26 -->
<g id="edge29" class="edge">
<title>Node1&#45;&gt;Node26</title>
<path fill="none" stroke="midnightblue" d="M1578.2,-341.47C1804.9,-317.41 2475.47,-246.26 2683.94,-224.14"/>
<polygon fill="midnightblue" stroke="midnightblue" points="1577.64,-338.01 1568.07,-342.54 1578.38,-344.97 1577.64,-338.01"/>
</g>
<!-- Node3 -->
<g id="node3" class="node">
<title>Node3</title>
<g id="a_node3"><a xlink:href="../../d1/d8f/Door_8hpp.html" target="_top" xlink:title=" ">
<polygon fill="white" stroke="black" points="785.5,-207 785.5,-226 911.5,-226 911.5,-207 785.5,-207"/>
<text text-anchor="middle" x="848.5" y="-214" font-family="Helvetica,sans-Serif" font-size="10.00">src/core/auth/Door.hpp</text>
</a>
</g>
</g>
<!-- Node2&#45;&gt;Node3 -->
<g id="edge2" class="edge">
<title>Node2&#45;&gt;Node3</title>
<path fill="none" stroke="midnightblue" d="M848.5,-263.54C848.5,-251.17 848.5,-235.62 848.5,-226.13"/>
<polygon fill="midnightblue" stroke="midnightblue" points="845,-263.73 848.5,-273.73 852,-263.73 845,-263.73"/>
</g>
<!-- Node13 -->
<g id="node13" class="node">
<title>Node13</title>
<g id="a_node13"><a xlink:href="../../dc/da8/UserSecurityContext_8cpp.html" target="_top" xlink:title=" ">
<polygon fill="white" stroke="black" points="588,-207 588,-226 767,-226 767,-207 588,-207"/>
<text text-anchor="middle" x="677.5" y="-214" font-family="Helvetica,sans-Serif" font-size="10.00">src/core/UserSecurityContext.cpp</text>
</a>
</g>
</g>
<!-- Node2&#45;&gt;Node13 -->
<g id="edge12" class="edge">
<title>Node2&#45;&gt;Node13</title>
<path fill="none" stroke="midnightblue" d="M816.33,-270.27C782.39,-257.37 729.79,-237.38 700.03,-226.06"/>
<polygon fill="midnightblue" stroke="midnightblue" points="815.2,-273.59 825.79,-273.87 817.69,-267.04 815.2,-273.59"/>
</g>
<!-- Node4 -->
<g id="node4" class="node">
<title>Node4</title>
<g id="a_node4"><a xlink:href="../../d4/dbe/AuditFactory_8cpp.html" target="_top" xlink:title=" ">
<polygon fill="white" stroke="black" points="1009,-140 1009,-159 1174,-159 1174,-140 1009,-140"/>
<text text-anchor="middle" x="1091.5" y="-147" font-family="Helvetica,sans-Serif" font-size="10.00">src/core/audit/AuditFactory.cpp</text>
</a>
</g>
</g>
<!-- Node3&#45;&gt;Node4 -->
<g id="edge3" class="edge">
<title>Node3&#45;&gt;Node4</title>
<path fill="none" stroke="midnightblue" d="M890.28,-204.32C938.27,-191.49 1015.94,-170.71 1059.41,-159.08"/>
<polygon fill="midnightblue" stroke="midnightblue" points="889.27,-200.97 880.52,-206.94 891.08,-207.73 889.27,-200.97"/>
</g>
<!-- Node5 -->
<g id="node5" class="node">
<title>Node5</title>
<g id="a_node5"><a xlink:href="../../db/d89/DoorEvent_8cpp.html" target="_top" xlink:title=" ">
<polygon fill="white" stroke="black" points="512,-140 512,-159 669,-159 669,-140 512,-140"/>
<text text-anchor="middle" x="590.5" y="-147" font-family="Helvetica,sans-Serif" font-size="10.00">src/core/audit/DoorEvent.cpp</text>
</a>
</g>
</g>
<!-- Node3&#45;&gt;Node5 -->
<g id="edge4" class="edge">
<title>Node3&#45;&gt;Node5</title>
<path fill="none" stroke="midnightblue" d="M804.78,-204.48C753.88,-191.66 670.92,-170.76 624.57,-159.08"/>
<polygon fill="midnightblue" stroke="midnightblue" points="803.95,-207.89 814.51,-206.94 805.66,-201.1 803.95,-207.89"/>
</g>
<!-- Node6 -->
<g id="node6" class="node">
<title>Node6</title>
<g id="a_node6"><a xlink:href="../../d1/d88/AccessPoint_8cpp.html" target="_top" xlink:title=" ">
<polygon fill="white" stroke="black" points="687,-140 687,-159 848,-159 848,-140 687,-140"/>
<text text-anchor="middle" x="767.5" y="-147" font-family="Helvetica,sans-Serif" font-size="10.00">src/core/auth/AccessPoint.cpp</text>
</a>
</g>
</g>
<!-- Node3&#45;&gt;Node6 -->
<g id="edge5" class="edge">
<title>Node3&#45;&gt;Node6</title>
<path fill="none" stroke="midnightblue" d="M829.45,-200.21C813.49,-187.41 791.29,-169.59 778.25,-159.13"/>
<polygon fill="midnightblue" stroke="midnightblue" points="827.59,-203.2 837.58,-206.73 831.97,-197.75 827.59,-203.2"/>
</g>
<!-- Node7 -->
<g id="node7" class="node">
<title>Node7</title>
<g id="a_node7"><a xlink:href="../../d0/dc5/Door_8cpp.html" target="_top" xlink:title=" ">
<polygon fill="white" stroke="black" points="866,-140 866,-159 991,-159 991,-140 866,-140"/>
<text text-anchor="middle" x="928.5" y="-147" font-family="Helvetica,sans-Serif" font-size="10.00">src/core/auth/Door.cpp</text>
</a>
</g>
</g>
<!-- Node3&#45;&gt;Node7 -->
<g id="edge6" class="edge">
<title>Node3&#45;&gt;Node7</title>
<path fill="none" stroke="midnightblue" d="M867.31,-200.21C883.08,-187.41 905.01,-169.59 917.88,-159.13"/>
<polygon fill="midnightblue" stroke="midnightblue" points="864.84,-197.71 859.29,-206.73 869.26,-203.14 864.84,-197.71"/>
</g>
<!-- Node8 -->
<g id="node8" class="node">
<title>Node8</title>
<g id="a_node8"><a xlink:href="../../d8/da2/DoorSerializer_8cpp.html" target="_top" xlink:title=" ">
<polygon fill="white" stroke="black" points="0,-134.5 0,-164.5 133,-164.5 133,-134.5 0,-134.5"/>
<text text-anchor="start" x="8" y="-152.5" font-family="Helvetica,sans-Serif" font-size="10.00">src/core/auth/serializers</text>
<text text-anchor="middle" x="66.5" y="-141.5" font-family="Helvetica,sans-Serif" font-size="10.00">/DoorSerializer.cpp</text>
</a>
</g>
</g>
<!-- Node3&#45;&gt;Node8 -->
<g id="edge7" class="edge">
<title>Node3&#45;&gt;Node8</title>
<path fill="none" stroke="midnightblue" d="M800.74,-205.02C792.36,-203.47 783.7,-202.04 775.5,-201 495.96,-165.46 422.17,-199.48 142.5,-165 139.43,-164.62 136.31,-164.19 133.15,-163.73"/>
<polygon fill="midnightblue" stroke="midnightblue" points="800.29,-208.5 810.78,-206.97 801.62,-201.63 800.29,-208.5"/>
</g>
<!-- Node9 -->
<g id="node9" class="node">
<title>Node9</title>
<g id="a_node9"><a xlink:href="../../d3/dc5/FileAuthSourceMapper_8cpp.html" target="_top" xlink:title=" ">
<polygon fill="white" stroke="black" points="1192,-134.5 1192,-164.5 1359,-164.5 1359,-134.5 1192,-134.5"/>
<text text-anchor="start" x="1200" y="-152.5" font-family="Helvetica,sans-Serif" font-size="10.00">src/modules/auth/auth</text>
<text text-anchor="middle" x="1275.5" y="-141.5" font-family="Helvetica,sans-Serif" font-size="10.00">&#45;file/FileAuthSourceMapper.cpp</text>
</a>
</g>
</g>
<!-- Node3&#45;&gt;Node9 -->
<g id="edge8" class="edge">
<title>Node3&#45;&gt;Node9</title>
<path fill="none" stroke="midnightblue" d="M915.61,-205.45C983.06,-195.32 1090.01,-179.2 1182.5,-165 1185.57,-164.53 1188.69,-164.05 1191.85,-163.56"/>
<polygon fill="midnightblue" stroke="midnightblue" points="914.91,-202.01 905.54,-206.96 915.95,-208.93 914.91,-202.01"/>
</g>
<!-- Node10 -->
<g id="node10" class="node">
<title>Node10</title>
<g id="a_node10"><a xlink:href="../../d1/d50/AccessOverview_8cpp.html" target="_top" xlink:title=" ">
<polygon fill="white" stroke="black" points="151.5,-134.5 151.5,-164.5 307.5,-164.5 307.5,-134.5 151.5,-134.5"/>
<text text-anchor="start" x="159.5" y="-152.5" font-family="Helvetica,sans-Serif" font-size="10.00">src/modules/websock</text>
<text text-anchor="middle" x="229.5" y="-141.5" font-family="Helvetica,sans-Serif" font-size="10.00">&#45;api/api/AccessOverview.cpp</text>
</a>
</g>
</g>
<!-- Node3&#45;&gt;Node10 -->
<g id="edge9" class="edge">
<title>Node3&#45;&gt;Node10</title>
<path fill="none" stroke="midnightblue" d="M800.16,-205.07C791.96,-203.54 783.51,-202.11 775.5,-201 572.8,-173.02 519.61,-189.84 316.5,-165 313.61,-164.65 310.67,-164.27 307.71,-163.86"/>
<polygon fill="midnightblue" stroke="midnightblue" points="799.52,-208.51 810,-206.97 800.85,-201.64 799.52,-208.51"/>
</g>
<!-- Node11 -->
<g id="node11" class="node">
<title>Node11</title>
<g id="a_node11"><a xlink:href="../../d7/df7/DoorSearch_8cpp.html" target="_top" xlink:title=" ">
<polygon fill="white" stroke="black" points="325.5,-134.5 325.5,-164.5 493.5,-164.5 493.5,-134.5 325.5,-134.5"/>
<text text-anchor="start" x="333.5" y="-152.5" font-family="Helvetica,sans-Serif" font-size="10.00">src/modules/websock</text>
<text text-anchor="middle" x="409.5" y="-141.5" font-family="Helvetica,sans-Serif" font-size="10.00">&#45;api/api/search/DoorSearch.cpp</text>
</a>
</g>
</g>
<!-- Node3&#45;&gt;Node11 -->
<g id="edge10" class="edge">
<title>Node3&#45;&gt;Node11</title>
<path fill="none" stroke="midnightblue" d="M798.2,-205.06C790.61,-203.62 782.86,-202.21 775.5,-201 654.75,-181.07 623.64,-182.43 502.5,-165 499.59,-164.58 496.63,-164.15 493.64,-163.71"/>
<polygon fill="midnightblue" stroke="midnightblue" points="797.56,-208.51 808.04,-206.98 798.89,-201.63 797.56,-208.51"/>
</g>
<!-- Node12 -->
<g id="node12" class="node">
<title>Node12</title>
<g id="a_node12"><a xlink:href="../../d7/d01/ScheduleMapping_8cpp.html" target="_top" xlink:title=" ">
<polygon fill="white" stroke="black" points="1739,-140 1739,-159 1906,-159 1906,-140 1739,-140"/>
<text text-anchor="middle" x="1822.5" y="-147" font-family="Helvetica,sans-Serif" font-size="10.00">src/tools/ScheduleMapping.cpp</text>
</a>
</g>
</g>
<!-- Node3&#45;&gt;Node12 -->
<g id="edge11" class="edge">
<title>Node3&#45;&gt;Node12</title>
<path fill="none" stroke="midnightblue" d="M921.79,-212.38C1068.35,-205.87 1407.92,-189.37 1692.5,-165 1711.85,-163.34 1732.77,-161.18 1752.06,-159.02"/>
<polygon fill="midnightblue" stroke="midnightblue" points="921.41,-208.9 911.58,-212.83 921.72,-215.89 921.41,-208.9"/>
</g>
<!-- Node14&#45;&gt;Node9 -->
<g id="edge15" class="edge">
<title>Node14&#45;&gt;Node9</title>
<path fill="none" stroke="midnightblue" d="M1381.48,-270.02C1362.25,-261.52 1338.53,-248.75 1321.5,-232 1301.58,-212.4 1287.66,-182.35 1280.67,-164.74"/>
<polygon fill="midnightblue" stroke="midnightblue" points="1380.21,-273.28 1390.78,-273.96 1382.94,-266.84 1380.21,-273.28"/>
</g>
<!-- Node15 -->
<g id="node15" class="node">
<title>Node15</title>
<g id="a_node15"><a xlink:href="../../d9/d35/ProfileMerger_8cpp.html" target="_top" xlink:title=" ">
<polygon fill="white" stroke="black" points="1331,-207 1331,-226 1498,-226 1498,-207 1331,-207"/>
<text text-anchor="middle" x="1414.5" y="-214" font-family="Helvetica,sans-Serif" font-size="10.00">src/core/auth/ProfileMerger.cpp</text>
</a>
</g>
</g>
<!-- Node14&#45;&gt;Node15 -->
<g id="edge14" class="edge">
<title>Node14&#45;&gt;Node15</title>
<path fill="none" stroke="midnightblue" d="M1414.5,-263.54C1414.5,-251.17 1414.5,-235.62 1414.5,-226.13"/>
<polygon fill="midnightblue" stroke="midnightblue" points="1411,-263.73 1414.5,-273.73 1418,-263.73 1411,-263.73"/>
</g>
<!-- Node16&#45;&gt;Node15 -->
<g id="edge17" class="edge">
<title>Node16&#45;&gt;Node15</title>
<path fill="none" stroke="midnightblue" d="M1546.62,-264.95C1511.46,-252.32 1465.6,-235.85 1438.19,-226.01"/>
<polygon fill="midnightblue" stroke="midnightblue" points="1545.63,-268.31 1556.23,-268.4 1548,-261.72 1545.63,-268.31"/>
</g>
<!-- Node17 -->
<g id="node17" class="node">
<title>Node17</title>
<g id="a_node17"><a xlink:href="../../d8/dcf/SimpleAccessProfile_8cpp.html" target="_top" xlink:title=" ">
<polygon fill="white" stroke="black" points="1701.5,-201.5 1701.5,-231.5 1851.5,-231.5 1851.5,-201.5 1701.5,-201.5"/>
<text text-anchor="start" x="1709.5" y="-219.5" font-family="Helvetica,sans-Serif" font-size="10.00">src/core/auth/SimpleAccess</text>
<text text-anchor="middle" x="1776.5" y="-208.5" font-family="Helvetica,sans-Serif" font-size="10.00">Profile.cpp</text>
</a>
</g>
</g>
<!-- Node16&#45;&gt;Node17 -->
<g id="edge18" class="edge">
<title>Node16&#45;&gt;Node17</title>
<path fill="none" stroke="midnightblue" d="M1644.36,-264.96C1673.51,-254.48 1710.04,-241.37 1737.3,-231.58"/>
<polygon fill="midnightblue" stroke="midnightblue" points="1643,-261.72 1634.77,-268.4 1645.37,-268.31 1643,-261.72"/>
</g>
<!-- Node18 -->
<g id="node18" class="node">
<title>Node18</title>
<g id="a_node18"><a xlink:href="../../df/d5d/FileAuthSourceMapper_8hpp.html" target="_top" xlink:title=" ">
<polygon fill="white" stroke="black" points="1515.5,-201.5 1515.5,-231.5 1683.5,-231.5 1683.5,-201.5 1515.5,-201.5"/>
<text text-anchor="start" x="1523.5" y="-219.5" font-family="Helvetica,sans-Serif" font-size="10.00">src/modules/auth/auth</text>
<text text-anchor="middle" x="1599.5" y="-208.5" font-family="Helvetica,sans-Serif" font-size="10.00">&#45;file/FileAuthSourceMapper.hpp</text>
</a>
</g>
</g>
<!-- Node16&#45;&gt;Node18 -->
<g id="edge19" class="edge">
<title>Node16&#45;&gt;Node18</title>
<path fill="none" stroke="midnightblue" d="M1596.98,-258.4C1597.54,-249.37 1598.15,-239.41 1598.63,-231.58"/>
<polygon fill="midnightblue" stroke="midnightblue" points="1593.49,-258.2 1596.37,-268.4 1600.48,-258.63 1593.49,-258.2"/>
</g>
<!-- Node18&#45;&gt;Node9 -->
<g id="edge26" class="edge">
<title>Node18&#45;&gt;Node9</title>
<path fill="none" stroke="midnightblue" d="M1519.49,-199.45C1466.16,-188.75 1396.71,-174.82 1345.56,-164.55"/>
<polygon fill="midnightblue" stroke="midnightblue" points="1519.1,-202.94 1529.6,-201.48 1520.48,-196.08 1519.1,-202.94"/>
</g>
<!-- Node19 -->
<g id="node19" class="node">
<title>Node19</title>
<g id="a_node19"><a xlink:href="../../de/df9/AuthFileInstance_8hpp.html" target="_top" xlink:title=" ">
<polygon fill="white" stroke="black" points="1377.5,-134.5 1377.5,-164.5 1517.5,-164.5 1517.5,-134.5 1377.5,-134.5"/>
<text text-anchor="start" x="1385.5" y="-152.5" font-family="Helvetica,sans-Serif" font-size="10.00">src/modules/auth/auth</text>
<text text-anchor="middle" x="1447.5" y="-141.5" font-family="Helvetica,sans-Serif" font-size="10.00">&#45;file/AuthFileInstance.hpp</text>
</a>
</g>
</g>
<!-- Node18&#45;&gt;Node19 -->
<g id="edge20" class="edge">
<title>Node18&#45;&gt;Node19</title>
<path fill="none" stroke="midnightblue" d="M1557.19,-197.41C1532.92,-187.03 1502.91,-174.2 1480.42,-164.58"/>
<polygon fill="midnightblue" stroke="midnightblue" points="1555.95,-200.68 1566.52,-201.4 1558.7,-194.25 1555.95,-200.68"/>
</g>
<!-- Node20 -->
<g id="node20" class="node">
<title>Node20</title>
<g id="a_node20"><a xlink:href="../../da/d9b/AuthFileInstance_8cpp.html" target="_top" xlink:title=" ">
<polygon fill="white" stroke="black" points="1641.5,-67.5 1641.5,-97.5 1781.5,-97.5 1781.5,-67.5 1641.5,-67.5"/>
<text text-anchor="start" x="1649.5" y="-85.5" font-family="Helvetica,sans-Serif" font-size="10.00">src/modules/auth/auth</text>
<text text-anchor="middle" x="1711.5" y="-74.5" font-family="Helvetica,sans-Serif" font-size="10.00">&#45;file/AuthFileInstance.cpp</text>
</a>
</g>
</g>
<!-- Node18&#45;&gt;Node20 -->
<g id="edge25" class="edge">
<title>Node18&#45;&gt;Node20</title>
<path fill="none" stroke="midnightblue" d="M1651.72,-196.82C1666.85,-189.1 1682.08,-178.67 1692.5,-165 1707.65,-145.12 1711.02,-115.17 1711.6,-97.65"/>
<polygon fill="midnightblue" stroke="midnightblue" points="1649.88,-193.83 1642.36,-201.29 1652.89,-200.14 1649.88,-193.83"/>
</g>
<!-- Node24 -->
<g id="node24" class="node">
<title>Node24</title>
<g id="a_node24"><a xlink:href="../../d5/d58/AuthFile_8cpp.html" target="_top" xlink:title=" ">
<polygon fill="white" stroke="black" points="1923.5,-140 1923.5,-159 2021.5,-159 2021.5,-140 1923.5,-140"/>
<text text-anchor="middle" x="1972.5" y="-147" font-family="Helvetica,sans-Serif" font-size="10.00">test/AuthFile.cpp</text>
</a>
</g>
</g>
<!-- Node18&#45;&gt;Node24 -->
<g id="edge27" class="edge">
<title>Node18&#45;&gt;Node24</title>
<path fill="none" stroke="midnightblue" d="M1693.66,-200.61C1782.47,-186.53 1903.61,-167.23 1914.5,-165 1922.94,-163.27 1932,-161.14 1940.4,-159.05"/>
<polygon fill="midnightblue" stroke="midnightblue" points="1692.87,-197.19 1683.54,-202.21 1693.96,-204.1 1692.87,-197.19"/>
</g>
<!-- Node25 -->
<g id="node25" class="node">
<title>Node25</title>
<g id="a_node25"><a xlink:href="../../d9/d75/test_2AuthSourceBuilder_8cpp.html" target="_top" xlink:title=" ">
<polygon fill="white" stroke="black" points="1535.5,-140 1535.5,-159 1683.5,-159 1683.5,-140 1535.5,-140"/>
<text text-anchor="middle" x="1609.5" y="-147" font-family="Helvetica,sans-Serif" font-size="10.00">test/AuthSourceBuilder.cpp</text>
</a>
</g>
</g>
<!-- Node18&#45;&gt;Node25 -->
<g id="edge28" class="edge">
<title>Node18&#45;&gt;Node25</title>
<path fill="none" stroke="midnightblue" d="M1603.23,-191.25C1604.96,-180.02 1606.9,-167.38 1608.16,-159.19"/>
<polygon fill="midnightblue" stroke="midnightblue" points="1599.73,-190.98 1601.67,-201.4 1606.65,-192.04 1599.73,-190.98"/>
</g>
<!-- Node19&#45;&gt;Node20 -->
<g id="edge21" class="edge">
<title>Node19&#45;&gt;Node20</title>
<path fill="none" stroke="midnightblue" d="M1514.31,-132.05C1557.47,-121.43 1613.04,-107.74 1654.19,-97.61"/>
<polygon fill="midnightblue" stroke="midnightblue" points="1513.33,-128.69 1504.46,-134.48 1515.01,-135.48 1513.33,-128.69"/>
</g>
<!-- Node21 -->
<g id="node21" class="node">
<title>Node21</title>
<g id="a_node21"><a xlink:href="../../df/d57/AuthFileModule_8hpp.html" target="_top" xlink:title=" ">
<polygon fill="white" stroke="black" points="1380,-67.5 1380,-97.5 1515,-97.5 1515,-67.5 1380,-67.5"/>
<text text-anchor="start" x="1388" y="-85.5" font-family="Helvetica,sans-Serif" font-size="10.00">src/modules/auth/auth</text>
<text text-anchor="middle" x="1447.5" y="-74.5" font-family="Helvetica,sans-Serif" font-size="10.00">&#45;file/AuthFileModule.hpp</text>
</a>
</g>
</g>
<!-- Node19&#45;&gt;Node21 -->
<g id="edge22" class="edge">
<title>Node19&#45;&gt;Node21</title>
<path fill="none" stroke="midnightblue" d="M1447.5,-124.11C1447.5,-115.15 1447.5,-105.32 1447.5,-97.58"/>
<polygon fill="midnightblue" stroke="midnightblue" points="1444,-124.4 1447.5,-134.4 1451,-124.4 1444,-124.4"/>
</g>
<!-- Node22 -->
<g id="node22" class="node">
<title>Node22</title>
<g id="a_node22"><a xlink:href="../../d8/d37/AuthFileModule_8cpp.html" target="_top" xlink:title=" ">
<polygon fill="white" stroke="black" points="1306.5,-0.5 1306.5,-30.5 1440.5,-30.5 1440.5,-0.5 1306.5,-0.5"/>
<text text-anchor="start" x="1314.5" y="-18.5" font-family="Helvetica,sans-Serif" font-size="10.00">src/modules/auth/auth</text>
<text text-anchor="middle" x="1373.5" y="-7.5" font-family="Helvetica,sans-Serif" font-size="10.00">&#45;file/AuthFileModule.cpp</text>
</a>
</g>
</g>
<!-- Node21&#45;&gt;Node22 -->
<g id="edge23" class="edge">
<title>Node21&#45;&gt;Node22</title>
<path fill="none" stroke="midnightblue" d="M1423.7,-60.6C1412.53,-50.78 1399.51,-39.34 1389.53,-30.58"/>
<polygon fill="midnightblue" stroke="midnightblue" points="1421.62,-63.43 1431.44,-67.4 1426.24,-58.17 1421.62,-63.43"/>
</g>
<!-- Node23 -->
<g id="node23" class="node">
<title>Node23</title>
<g id="a_node23"><a xlink:href="../../dc/d32/auth_2auth-file_2init_8cpp.html" target="_top" xlink:title=" ">
<polygon fill="white" stroke="black" points="1459,-0.5 1459,-30.5 1584,-30.5 1584,-0.5 1459,-0.5"/>
<text text-anchor="start" x="1467" y="-18.5" font-family="Helvetica,sans-Serif" font-size="10.00">src/modules/auth/auth</text>
<text text-anchor="middle" x="1521.5" y="-7.5" font-family="Helvetica,sans-Serif" font-size="10.00">&#45;file/init.cpp</text>
</a>
</g>
</g>
<!-- Node21&#45;&gt;Node23 -->
<g id="edge24" class="edge">
<title>Node21&#45;&gt;Node23</title>
<path fill="none" stroke="midnightblue" d="M1471.3,-60.6C1482.47,-50.78 1495.49,-39.34 1505.47,-30.58"/>
<polygon fill="midnightblue" stroke="midnightblue" points="1468.76,-58.17 1463.56,-67.4 1473.38,-63.43 1468.76,-58.17"/>
</g>
<!-- Node26&#45;&gt;Node4 -->
<g id="edge31" class="edge">
<title>Node26&#45;&gt;Node4</title>
<path fill="none" stroke="midnightblue" d="M2673.61,-214.36C2405.95,-210 1477.56,-193.16 1182.5,-165 1167.85,-163.6 1151.98,-161.34 1137.65,-159.01"/>
<polygon fill="midnightblue" stroke="midnightblue" points="2673.92,-217.87 2683.98,-214.53 2674.04,-210.87 2673.92,-217.87"/>
</g>
<!-- Node26&#45;&gt;Node9 -->
<g id="edge37" class="edge">
<title>Node26&#45;&gt;Node9</title>
<path fill="none" stroke="midnightblue" d="M2673.77,-215.85C2468.26,-216.2 1865.9,-212.72 1368.5,-165 1365.41,-164.7 1362.27,-164.37 1359.09,-164.01"/>
<polygon fill="midnightblue" stroke="midnightblue" points="2673.84,-219.35 2683.83,-215.83 2673.83,-212.35 2673.84,-219.35"/>
</g>
<!-- Node26&#45;&gt;Node12 -->
<g id="edge47" class="edge">
<title>Node26&#45;&gt;Node12</title>
<path fill="none" stroke="midnightblue" d="M2673.87,-213.43C2529.06,-208.79 2194.25,-195.46 1914.5,-165 1900.35,-163.46 1885.06,-161.26 1871.08,-159.05"/>
<polygon fill="midnightblue" stroke="midnightblue" points="2673.86,-216.93 2683.97,-213.75 2674.08,-209.93 2673.86,-216.93"/>
</g>
<!-- Node26&#45;&gt;Node20 -->
<g id="edge36" class="edge">
<title>Node26&#45;&gt;Node20</title>
<path fill="none" stroke="midnightblue" d="M2673.62,-215.56C2521.82,-214.79 2176.82,-208.18 2068.5,-165 2048.25,-156.93 2050.4,-142.9 2030.5,-134 1950.14,-98.05 1848.37,-87.2 1781.67,-84.19"/>
<polygon fill="midnightblue" stroke="midnightblue" points="2673.76,-219.06 2683.78,-215.6 2673.79,-212.06 2673.76,-219.06"/>
</g>
<!-- Node26&#45;&gt;Node24 -->
<g id="edge48" class="edge">
<title>Node26&#45;&gt;Node24</title>
<path fill="none" stroke="midnightblue" d="M2673.68,-214.05C2544.49,-210.66 2266.97,-199.64 2035.5,-165 2025.62,-163.52 2015,-161.32 2005.34,-159.07"/>
<polygon fill="midnightblue" stroke="midnightblue" points="2673.76,-217.56 2683.85,-214.31 2673.94,-210.56 2673.76,-217.56"/>
</g>
<!-- Node27 -->
<g id="node27" class="node">
<title>Node27</title>
<g id="a_node27"><a xlink:href="../../d3/d19/AuditEntry_8cpp.html" target="_top" xlink:title=" ">
<polygon fill="white" stroke="black" points="3423,-140 3423,-159 3578,-159 3578,-140 3423,-140"/>
<text text-anchor="middle" x="3500.5" y="-147" font-family="Helvetica,sans-Serif" font-size="10.00">src/core/audit/AuditEntry.cpp</text>
</a>
</g>
</g>
<!-- Node26&#45;&gt;Node27 -->
<g id="edge30" class="edge">
<title>Node26&#45;&gt;Node27</title>
<path fill="none" stroke="midnightblue" d="M2819.37,-212.18C2942.37,-206.09 3198.9,-191.27 3414.5,-165 3427.58,-163.41 3441.7,-161.22 3454.64,-159.03"/>
<polygon fill="midnightblue" stroke="midnightblue" points="2819.13,-208.69 2809.31,-212.67 2819.47,-215.68 2819.13,-208.69"/>
</g>
<!-- Node28 -->
<g id="node28" class="node">
<title>Node28</title>
<g id="a_node28"><a xlink:href="../../d2/d8b/UserEvent_8cpp.html" target="_top" xlink:title=" ">
<polygon fill="white" stroke="black" points="3596.5,-140 3596.5,-159 3752.5,-159 3752.5,-140 3596.5,-140"/>
<text text-anchor="middle" x="3674.5" y="-147" font-family="Helvetica,sans-Serif" font-size="10.00">src/core/audit/UserEvent.cpp</text>
</a>
</g>
</g>
<!-- Node26&#45;&gt;Node28 -->
<g id="edge32" class="edge">
<title>Node26&#45;&gt;Node28</title>
<path fill="none" stroke="midnightblue" d="M2819.39,-213.7C2965.51,-209.53 3304.51,-196.99 3587.5,-165 3601.04,-163.47 3615.68,-161.25 3629.02,-159.01"/>
<polygon fill="midnightblue" stroke="midnightblue" points="2819.1,-210.21 2809.2,-213.99 2819.3,-217.21 2819.1,-210.21"/>
</g>
<!-- Node29 -->
<g id="node29" class="node">
<title>Node29</title>
<g id="a_node29"><a xlink:href="../../d2/de5/WSAPICall_8cpp.html" target="_top" xlink:title=" ">
<polygon fill="white" stroke="black" points="3771,-140 3771,-159 3928,-159 3928,-140 3771,-140"/>
<text text-anchor="middle" x="3849.5" y="-147" font-family="Helvetica,sans-Serif" font-size="10.00">src/core/audit/WSAPICall.cpp</text>
</a>
</g>
</g>
<!-- Node26&#45;&gt;Node29 -->
<g id="edge33" class="edge">
<title>Node26&#45;&gt;Node29</title>
<path fill="none" stroke="midnightblue" d="M2819.21,-214.71C2986.16,-212.29 3409.67,-202.62 3761.5,-165 3775.36,-163.52 3790.35,-161.29 3803.96,-159.01"/>
<polygon fill="midnightblue" stroke="midnightblue" points="2819.01,-211.22 2809.06,-214.86 2819.11,-218.21 2819.01,-211.22"/>
</g>
<!-- Node30 -->
<g id="node30" class="node">
<title>Node30</title>
<g id="a_node30"><a xlink:href="../../d3/da9/UserSerializer_8cpp.html" target="_top" xlink:title=" ">
<polygon fill="white" stroke="black" points="3946,-134.5 3946,-164.5 4079,-164.5 4079,-134.5 3946,-134.5"/>
<text text-anchor="start" x="3954" y="-152.5" font-family="Helvetica,sans-Serif" font-size="10.00">src/core/auth/serializers</text>
<text text-anchor="middle" x="4012.5" y="-141.5" font-family="Helvetica,sans-Serif" font-size="10.00">/UserSerializer.cpp</text>
</a>
</g>
</g>
<!-- Node26&#45;&gt;Node30 -->
<g id="edge34" class="edge">
<title>Node26&#45;&gt;Node30</title>
<path fill="none" stroke="midnightblue" d="M2819.3,-216.17C3005.88,-217.06 3516.12,-214.39 3937.5,-165 3940.27,-164.68 3943.08,-164.31 3945.92,-163.9"/>
<polygon fill="midnightblue" stroke="midnightblue" points="2819.09,-212.67 2809.07,-216.11 2819.05,-219.67 2819.09,-212.67"/>
</g>
<!-- Node31 -->
<g id="node31" class="node">
<title>Node31</title>
<g id="a_node31"><a xlink:href="../../dd/d24/kernel_8cpp.html" target="_top" xlink:title=" ">
<polygon fill="white" stroke="black" points="4097.5,-140 4097.5,-159 4205.5,-159 4205.5,-140 4097.5,-140"/>
<text text-anchor="middle" x="4151.5" y="-147" font-family="Helvetica,sans-Serif" font-size="10.00">src/core/kernel.cpp</text>
</a>
</g>
</g>
<!-- Node26&#45;&gt;Node31 -->
<g id="edge35" class="edge">
<title>Node26&#45;&gt;Node31</title>
<path fill="none" stroke="midnightblue" d="M2819.5,-214.57C3062.09,-211.18 3840,-197.97 4088.5,-165 4098.74,-163.64 4109.75,-161.39 4119.66,-159.06"/>
<polygon fill="midnightblue" stroke="midnightblue" points="2819.33,-211.07 2809.38,-214.71 2819.43,-218.07 2819.33,-211.07"/>
</g>
<!-- Node32 -->
<g id="node32" class="node">
<title>Node32</title>
<g id="a_node32"><a xlink:href="../../d7/d29/AccessPointCRUD_8cpp.html" target="_top" xlink:title=" ">
<polygon fill="white" stroke="black" points="4223.5,-134.5 4223.5,-164.5 4387.5,-164.5 4387.5,-134.5 4223.5,-134.5"/>
<text text-anchor="start" x="4231.5" y="-152.5" font-family="Helvetica,sans-Serif" font-size="10.00">src/modules/websock</text>
<text text-anchor="middle" x="4305.5" y="-141.5" font-family="Helvetica,sans-Serif" font-size="10.00">&#45;api/api/AccessPointCRUD.cpp</text>
</a>
</g>
</g>
<!-- Node26&#45;&gt;Node32 -->
<g id="edge38" class="edge">
<title>Node26&#45;&gt;Node32</title>
<path fill="none" stroke="midnightblue" d="M2819.47,-216.17C3033.97,-217.47 3680.99,-216.48 4214.5,-165 4217.37,-164.72 4220.28,-164.41 4223.22,-164.08"/>
<polygon fill="midnightblue" stroke="midnightblue" points="2819.3,-212.67 2809.28,-216.11 2819.26,-219.67 2819.3,-212.67"/>
</g>
<!-- Node33 -->
<g id="node33" class="node">
<title>Node33</title>
<g id="a_node33"><a xlink:href="../../d7/d86/APIAuth_8cpp.html" target="_top" xlink:title=" ">
<polygon fill="white" stroke="black" points="2077.5,-134.5 2077.5,-164.5 2199.5,-164.5 2199.5,-134.5 2077.5,-134.5"/>
<text text-anchor="start" x="2085.5" y="-152.5" font-family="Helvetica,sans-Serif" font-size="10.00">src/modules/websock</text>
<text text-anchor="middle" x="2138.5" y="-141.5" font-family="Helvetica,sans-Serif" font-size="10.00">&#45;api/api/APIAuth.cpp</text>
</a>
</g>
</g>
<!-- Node26&#45;&gt;Node33 -->
<g id="edge39" class="edge">
<title>Node26&#45;&gt;Node33</title>
<path fill="none" stroke="midnightblue" d="M2673.64,-211.23C2569.92,-204.56 2373.93,-189.82 2208.5,-165 2205.55,-164.56 2202.55,-164.07 2199.51,-163.55"/>
<polygon fill="midnightblue" stroke="midnightblue" points="2673.49,-214.73 2683.69,-211.87 2673.93,-207.74 2673.49,-214.73"/>
</g>
<!-- Node34 -->
<g id="node34" class="node">
<title>Node34</title>
<g id="a_node34"><a xlink:href="../../d9/d8d/APISession_8cpp.html" target="_top" xlink:title=" ">
<polygon fill="white" stroke="black" points="2217.5,-134.5 2217.5,-164.5 2347.5,-164.5 2347.5,-134.5 2217.5,-134.5"/>
<text text-anchor="start" x="2225.5" y="-152.5" font-family="Helvetica,sans-Serif" font-size="10.00">src/modules/websock</text>
<text text-anchor="middle" x="2282.5" y="-141.5" font-family="Helvetica,sans-Serif" font-size="10.00">&#45;api/api/APISession.cpp</text>
</a>
</g>
</g>
<!-- Node26&#45;&gt;Node34 -->
<g id="edge40" class="edge">
<title>Node26&#45;&gt;Node34</title>
<path fill="none" stroke="midnightblue" d="M2673.57,-207.49C2595.07,-198.52 2466.62,-182.9 2356.5,-165 2353.66,-164.54 2350.76,-164.05 2347.83,-163.54"/>
<polygon fill="midnightblue" stroke="midnightblue" points="2673.51,-211 2683.84,-208.65 2674.3,-204.05 2673.51,-211"/>
</g>
<!-- Node35 -->
<g id="node35" class="node">
<title>Node35</title>
<g id="a_node35"><a xlink:href="../../d7/dde/DoorCRUD_8cpp.html" target="_top" xlink:title=" ">
<polygon fill="white" stroke="black" points="2365.5,-134.5 2365.5,-164.5 2493.5,-164.5 2493.5,-134.5 2365.5,-134.5"/>
<text text-anchor="start" x="2373.5" y="-152.5" font-family="Helvetica,sans-Serif" font-size="10.00">src/modules/websock</text>
<text text-anchor="middle" x="2429.5" y="-141.5" font-family="Helvetica,sans-Serif" font-size="10.00">&#45;api/api/DoorCRUD.cpp</text>
</a>
</g>
</g>
<!-- Node26&#45;&gt;Node35 -->
<g id="edge41" class="edge">
<title>Node26&#45;&gt;Node35</title>
<path fill="none" stroke="midnightblue" d="M2694.86,-204.91C2639.91,-193.64 2552.89,-175.8 2493.59,-163.64"/>
<polygon fill="midnightblue" stroke="midnightblue" points="2694.23,-208.36 2704.73,-206.94 2695.64,-201.5 2694.23,-208.36"/>
</g>
<!-- Node36 -->
<g id="node36" class="node">
<title>Node36</title>
<g id="a_node36"><a xlink:href="../../d1/de1/GroupCRUD_8cpp.html" target="_top" xlink:title=" ">
<polygon fill="white" stroke="black" points="2511.5,-134.5 2511.5,-164.5 2645.5,-164.5 2645.5,-134.5 2511.5,-134.5"/>
<text text-anchor="start" x="2519.5" y="-152.5" font-family="Helvetica,sans-Serif" font-size="10.00">src/modules/websock</text>
<text text-anchor="middle" x="2578.5" y="-141.5" font-family="Helvetica,sans-Serif" font-size="10.00">&#45;api/api/GroupCRUD.cpp</text>
</a>
</g>
</g>
<!-- Node26&#45;&gt;Node36 -->
<g id="edge42" class="edge">
<title>Node26&#45;&gt;Node36</title>
<path fill="none" stroke="midnightblue" d="M2714.72,-203.2C2686.25,-192.19 2644.52,-176.04 2614.76,-164.53"/>
<polygon fill="midnightblue" stroke="midnightblue" points="2713.6,-206.52 2724.19,-206.87 2716.13,-200 2713.6,-206.52"/>
</g>
<!-- Node37 -->
<g id="node37" class="node">
<title>Node37</title>
<g id="a_node37"><a xlink:href="../../df/dc4/MembershipCRUD_8cpp.html" target="_top" xlink:title=" ">
<polygon fill="white" stroke="black" points="2663.5,-134.5 2663.5,-164.5 2829.5,-164.5 2829.5,-134.5 2663.5,-134.5"/>
<text text-anchor="start" x="2671.5" y="-152.5" font-family="Helvetica,sans-Serif" font-size="10.00">src/modules/websock</text>
<text text-anchor="middle" x="2746.5" y="-141.5" font-family="Helvetica,sans-Serif" font-size="10.00">&#45;api/api/MembershipCRUD.cpp</text>
</a>
</g>
</g>
<!-- Node26&#45;&gt;Node37 -->
<g id="edge43" class="edge">
<title>Node26&#45;&gt;Node37</title>
<path fill="none" stroke="midnightblue" d="M2746.5,-196.41C2746.5,-186.22 2746.5,-173.9 2746.5,-164.59"/>
<polygon fill="midnightblue" stroke="midnightblue" points="2743,-196.73 2746.5,-206.73 2750,-196.73 2743,-196.73"/>
</g>
<!-- Node38 -->
<g id="node38" class="node">
<title>Node38</title>
<g id="a_node38"><a xlink:href="../../df/df7/UserCRUD_8cpp.html" target="_top" xlink:title=" ">
<polygon fill="white" stroke="black" points="2847.5,-134.5 2847.5,-164.5 2975.5,-164.5 2975.5,-134.5 2847.5,-134.5"/>
<text text-anchor="start" x="2855.5" y="-152.5" font-family="Helvetica,sans-Serif" font-size="10.00">src/modules/websock</text>
<text text-anchor="middle" x="2911.5" y="-141.5" font-family="Helvetica,sans-Serif" font-size="10.00">&#45;api/api/UserCRUD.cpp</text>
</a>
</g>
</g>
<!-- Node26&#45;&gt;Node38 -->
<g id="edge44" class="edge">
<title>Node26&#45;&gt;Node38</title>
<path fill="none" stroke="midnightblue" d="M2777.72,-203.2C2805.68,-192.19 2846.66,-176.04 2875.89,-164.53"/>
<polygon fill="midnightblue" stroke="midnightblue" points="2776.43,-199.95 2768.41,-206.87 2779,-206.46 2776.43,-199.95"/>
</g>
<!-- Node39 -->
<g id="node39" class="node">
<title>Node39</title>
<g id="a_node39"><a xlink:href="../../d6/dd1/Exceptions_8cpp.html" target="_top" xlink:title=" ">
<polygon fill="white" stroke="black" points="2993.5,-134.5 2993.5,-164.5 3115.5,-164.5 3115.5,-134.5 2993.5,-134.5"/>
<text text-anchor="start" x="3001.5" y="-152.5" font-family="Helvetica,sans-Serif" font-size="10.00">src/modules/websock</text>
<text text-anchor="middle" x="3054.5" y="-141.5" font-family="Helvetica,sans-Serif" font-size="10.00">&#45;api/Exceptions.cpp</text>
</a>
</g>
</g>
<!-- Node26&#45;&gt;Node39 -->
<g id="edge45" class="edge">
<title>Node26&#45;&gt;Node39</title>
<path fill="none" stroke="midnightblue" d="M2797.07,-204.83C2850.84,-193.48 2935.88,-175.53 2993.37,-163.4"/>
<polygon fill="midnightblue" stroke="midnightblue" points="2796.14,-201.45 2787.08,-206.94 2797.59,-208.3 2796.14,-201.45"/>
</g>
<!-- Node40 -->
<g id="node40" class="node">
<title>Node40</title>
<g id="a_node40"><a xlink:href="../../d4/d2c/WSServer_8cpp.html" target="_top" xlink:title=" ">
<polygon fill="white" stroke="black" points="3133.5,-134.5 3133.5,-164.5 3255.5,-164.5 3255.5,-134.5 3133.5,-134.5"/>
<text text-anchor="start" x="3141.5" y="-152.5" font-family="Helvetica,sans-Serif" font-size="10.00">src/modules/websock</text>
<text text-anchor="middle" x="3194.5" y="-141.5" font-family="Helvetica,sans-Serif" font-size="10.00">&#45;api/WSServer.cpp</text>
</a>
</g>
</g>
<!-- Node26&#45;&gt;Node40 -->
<g id="edge46" class="edge">
<title>Node26&#45;&gt;Node40</title>
<path fill="none" stroke="midnightblue" d="M2819.23,-207.35C2895.51,-198.43 3018.78,-182.99 3124.5,-165 3127.44,-164.5 3130.44,-163.97 3133.47,-163.41"/>
<polygon fill="midnightblue" stroke="midnightblue" points="2818.77,-203.88 2809.24,-208.51 2819.58,-210.83 2818.77,-203.88"/>
</g>
<!-- Node41 -->
<g id="node41" class="node">
<title>Node41</title>
<g id="a_node41"><a xlink:href="../../d8/df5/GroupValidator_8cpp.html" target="_top" xlink:title=" ">
<polygon fill="white" stroke="black" points="3274,-140 3274,-159 3405,-159 3405,-140 3274,-140"/>
<text text-anchor="middle" x="3339.5" y="-147" font-family="Helvetica,sans-Serif" font-size="10.00">test/GroupValidator.cpp</text>
</a>
</g>
</g>
<!-- Node26&#45;&gt;Node41 -->
<g id="edge49" class="edge">
<title>Node26&#45;&gt;Node41</title>
<path fill="none" stroke="midnightblue" d="M2819.37,-210.56C2919.86,-203.26 3106.51,-187.92 3264.5,-165 3275.79,-163.36 3287.95,-161.19 3299.14,-159.02"/>
<polygon fill="midnightblue" stroke="midnightblue" points="2819.04,-207.08 2809.32,-211.29 2819.55,-214.06 2819.04,-207.08"/>
</g>
</g>
</svg>
        <g id="navigator" transform="translate(0 0)" fill="#404254">
                <rect fill="#f2f5e9" fill-opacity="0.5" stroke="#606060" stroke-width=".5" x="0" y="0" width="60" height="60"/>
                <use id="zoomplus" xlink:href="#zoomPlus" x="17" y="9" onmousedown="handleZoom(evt,'in')"/>
                <use id="zoomminus" xlink:href="#zoomMin" x="42" y="9" onmousedown="handleZoom(evt,'out')"/>
                <use id="reset" xlink:href="#resetDef" x="30" y="36" onmousedown="handleReset()"/>
                <g id="arrowUp" xlink:href="#dirArrow" transform="translate(30 24)" onmousedown="handlePan(0,-1)">
                  <use xlink:href="#rim" fill="#404040">
                        <set attributeName="fill" to="#808080" begin="arrowUp.mouseover" end="arrowUp.mouseout"/>
                  </use>
                  <path fill="none" stroke="white" stroke-width="1.5" d="M0,-3.0v7 M-2.5,-0.5L0,-3.0L2.5,-0.5"/>
                </g>
                <g id="arrowRight" xlink:href="#dirArrow" transform="rotate(90) translate(36 -43)" onmousedown="handlePan(1,0)">
                  <use xlink:href="#rim" fill="#404040">
                        <set attributeName="fill" to="#808080" begin="arrowRight.mouseover" end="arrowRight.mouseout"/>
                  </use>
                  <path fill="none" stroke="white" stroke-width="1.5" d="M0,-3.0v7 M-2.5,-0.5L0,-3.0L2.5,-0.5"/>
                </g>
                <g id="arrowDown" xlink:href="#dirArrow" transform="rotate(180) translate(-30 -48)" onmousedown="handlePan(0,1)">
                  <use xlink:href="#rim" fill="#404040">
                        <set attributeName="fill" to="#808080" begin="arrowDown.mouseover" end="arrowDown.mouseout"/>
                  </use>
                  <path fill="none" stroke="white" stroke-width="1.5" d="M0,-3.0v7 M-2.5,-0.5L0,-3.0L2.5,-0.5"/>
                </g>
                <g id="arrowLeft" xlink:href="#dirArrow" transform="rotate(270) translate(-36 17)" onmousedown="handlePan(-1,0)">
                  <use xlink:href="#rim" fill="#404040">
                        <set attributeName="fill" to="#808080" begin="arrowLeft.mouseover" end="arrowLeft.mouseout"/>
                  </use>
                  <path fill="none" stroke="white" stroke-width="1.5" d="M0,-3.0v7 M-2.5,-0.5L0,-3.0L2.5,-0.5"/>
                </g>
        </g>
        <svg viewBox="0 0 15 15" width="100%" height="30px" preserveAspectRatio="xMaxYMin meet">
         <g id="arrow_out" transform="scale(0.3 0.3)">
          <a xlink:href="IAccessProfile_8hpp__dep__incl_org.svg" target="_base">
           <rect id="button" ry="5" rx="5" y="6" x="6" height="38" width="38"
                fill="#f2f5e9" fill-opacity="0.5" stroke="#606060" stroke-width="1.0"/>
           <path id="arrow"
             d="M 11.500037,31.436501 C 11.940474,20.09759 22.043105,11.32322 32.158766,21.979434 L 37.068811,17.246167 C 37.068811,17.246167 37.088388,32 37.088388,32 L 22.160133,31.978069 C 22.160133,31.978069 26.997745,27.140456 26.997745,27.140456 C 18.528582,18.264221 13.291696,25.230495 11.500037,31.436501 z"
             style="fill:#404040;"/>
          </a>
         </g>
        </svg>
</svg>
