<?xml version="1.0" encoding="UTF-8" standalone="no"?>
<!DOCTYPE svg PUBLIC "-//W3C//DTD SVG 1.1//EN"
 "http://www.w3.org/Graphics/SVG/1.1/DTD/svg11.dtd">
<!-- Generated by graphviz version 2.43.0 (0)
 -->
<!-- Title: Leosac::Module::Wiegand::Strategy::WiegandPinBuffered Pages: 1 -->
<svg width="629pt" height="300pt"
 viewBox="0.00 0.00 629.00 300.00" xmlns="http://www.w3.org/2000/svg" xmlns:xlink="http://www.w3.org/1999/xlink">
<g id="graph0" class="graph" transform="scale(1 1) rotate(0) translate(4 296)">
<title>Leosac::Module::Wiegand::Strategy::WiegandPinBuffered</title>
<polygon fill="white" stroke="transparent" points="-4,4 -4,-296 625,-296 625,4 -4,4"/>
<!-- Node1 -->
<g id="node1" class="node">
<title>Node1</title>
<g id="a_node1"><a xlink:title="Strategy for PIN only, when up to 5 keys are buffered and sent as 26 bits.">
<polygon fill="#bfbfbf" stroke="black" points="453,-30.5 453,-60.5 621,-60.5 621,-30.5 453,-30.5"/>
<text text-anchor="start" x="461" y="-48.5" font-family="Helvetica,sans-Serif" font-size="10.00">Leosac::Module::Wiegand</text>
<text text-anchor="middle" x="537" y="-37.5" font-family="Helvetica,sans-Serif" font-size="10.00">::Strategy::WiegandPinBuffered</text>
</a>
</g>
</g>
<!-- Node2 -->
<g id="node2" class="node">
<title>Node2</title>
<g id="a_node2"><a xlink:href="../../d1/db0/classLeosac_1_1Module_1_1Wiegand_1_1Strategy_1_1PinReading.html" target="_top" xlink:title="Interface for a strategy that read a PIN code.">
<polygon fill="white" stroke="black" points="213,-55.5 213,-85.5 354,-85.5 354,-55.5 213,-55.5"/>
<text text-anchor="start" x="221" y="-73.5" font-family="Helvetica,sans-Serif" font-size="10.00">Leosac::Module::Wiegand</text>
<text text-anchor="middle" x="283.5" y="-62.5" font-family="Helvetica,sans-Serif" font-size="10.00">::Strategy::PinReading</text>
</a>
</g>
</g>
<!-- Node2&#45;&gt;Node1 -->
<g id="edge1" class="edge">
<title>Node2&#45;&gt;Node1</title>
<path fill="none" stroke="midnightblue" d="M364.09,-75.82C387.06,-76.2 412.09,-75.51 435,-72.5 453.27,-70.1 472.92,-65.36 490,-60.51"/>
<polygon fill="midnightblue" stroke="midnightblue" points="364.13,-72.32 354.05,-75.58 363.97,-79.32 364.13,-72.32"/>
</g>
<!-- Node3 -->
<g id="node3" class="node">
<title>Node3</title>
<g id="a_node3"><a xlink:href="../../d5/d39/classLeosac_1_1Module_1_1Wiegand_1_1Strategy_1_1WiegandStrategy.html" target="_top" xlink:title="The multiple modes available to wiegand reader are implemented through the strategy pattern.">
<polygon fill="white" stroke="black" points="0,-107.5 0,-137.5 153,-137.5 153,-107.5 0,-107.5"/>
<text text-anchor="start" x="8" y="-125.5" font-family="Helvetica,sans-Serif" font-size="10.00">Leosac::Module::Wiegand</text>
<text text-anchor="middle" x="76.5" y="-114.5" font-family="Helvetica,sans-Serif" font-size="10.00">::Strategy::WiegandStrategy</text>
</a>
</g>
</g>
<!-- Node3&#45;&gt;Node2 -->
<g id="edge2" class="edge">
<title>Node3&#45;&gt;Node2</title>
<path fill="none" stroke="midnightblue" d="M146.54,-104.99C171.46,-98.67 199.34,-91.59 223.34,-85.51"/>
<polygon fill="midnightblue" stroke="midnightblue" points="145.63,-101.61 136.79,-107.46 147.35,-108.39 145.63,-101.61"/>
</g>
<!-- Node5 -->
<g id="node5" class="node">
<title>Node5</title>
<g id="a_node5"><a xlink:title=" ">
<polygon fill="white" stroke="#bfbfbf" points="206,-152 206,-193 361,-193 361,-152 206,-152"/>
<text text-anchor="start" x="214" y="-181" font-family="Helvetica,sans-Serif" font-size="10.00">std::unique_ptr&lt; Leosac</text>
<text text-anchor="start" x="214" y="-170" font-family="Helvetica,sans-Serif" font-size="10.00">::Module::Wiegand::Strategy</text>
<text text-anchor="middle" x="283.5" y="-159" font-family="Helvetica,sans-Serif" font-size="10.00">::WiegandStrategy &gt;</text>
</a>
</g>
</g>
<!-- Node3&#45;&gt;Node5 -->
<g id="edge5" class="edge">
<title>Node3&#45;&gt;Node5</title>
<path fill="none" stroke="#9a32cd" stroke-dasharray="5,2" d="M148.78,-139.88C167.19,-144.38 187.1,-149.23 205.78,-153.79"/>
<polygon fill="#9a32cd" stroke="#9a32cd" points="149.55,-136.47 139.01,-137.5 147.89,-143.27 149.55,-136.47"/>
<text text-anchor="middle" x="179.5" y="-151.5" font-family="Helvetica,sans-Serif" font-size="10.00"> ptr</text>
</g>
<!-- Node4 -->
<g id="node4" class="node">
<title>Node4</title>
<g id="a_node4"><a xlink:href="../../d7/d64/classLeosac_1_1Module_1_1Wiegand_1_1WiegandReaderImpl.html" target="_top" xlink:title="An implementation class that represents a Wiegand Reader.">
<polygon fill="white" stroke="black" points="466.5,-157.5 466.5,-187.5 607.5,-187.5 607.5,-157.5 466.5,-157.5"/>
<text text-anchor="start" x="474.5" y="-175.5" font-family="Helvetica,sans-Serif" font-size="10.00">Leosac::Module::Wiegand</text>
<text text-anchor="middle" x="537" y="-164.5" font-family="Helvetica,sans-Serif" font-size="10.00">::WiegandReaderImpl</text>
</a>
</g>
</g>
<!-- Node4&#45;&gt;Node3 -->
<g id="edge3" class="edge">
<title>Node4&#45;&gt;Node3</title>
<path fill="none" stroke="#9a32cd" stroke-dasharray="5,2" d="M474.02,-154.81C440.8,-146.14 398.99,-136.5 361,-131.5 290.94,-122.27 210.34,-120.56 153.04,-120.84"/>
<polygon fill="#9a32cd" stroke="#9a32cd" points="473.48,-158.29 484.05,-157.47 475.28,-151.52 473.48,-158.29"/>
<text text-anchor="middle" x="283.5" y="-134.5" font-family="Helvetica,sans-Serif" font-size="10.00"> reader_</text>
</g>
<!-- Node5&#45;&gt;Node4 -->
<g id="edge4" class="edge">
<title>Node5&#45;&gt;Node4</title>
<path fill="none" stroke="#9a32cd" stroke-dasharray="5,2" d="M371.69,-172.5C402.7,-172.5 437.16,-172.5 466.49,-172.5"/>
<polygon fill="#9a32cd" stroke="#9a32cd" points="371.32,-169 361.32,-172.5 371.32,-176 371.32,-169"/>
<text text-anchor="middle" x="407" y="-175.5" font-family="Helvetica,sans-Serif" font-size="10.00"> strategy_</text>
</g>
<!-- Node6 -->
<g id="node6" class="node">
<title>Node6</title>
<g id="a_node6"><a xlink:title=" ">
<polygon fill="white" stroke="#bfbfbf" points="216.5,-261.5 216.5,-291.5 350.5,-291.5 350.5,-261.5 216.5,-261.5"/>
<text text-anchor="start" x="224.5" y="-279.5" font-family="Helvetica,sans-Serif" font-size="10.00">std::unique_ptr&lt; Leosac</text>
<text text-anchor="middle" x="283.5" y="-268.5" font-family="Helvetica,sans-Serif" font-size="10.00">::Hardware::FLED &gt;</text>
</a>
</g>
</g>
<!-- Node6&#45;&gt;Node4 -->
<g id="edge6" class="edge">
<title>Node6&#45;&gt;Node4</title>
<path fill="none" stroke="#9a32cd" stroke-dasharray="5,2" d="M344.81,-258.16C350.31,-256.31 355.77,-254.41 361,-252.5 413.71,-233.24 472.61,-204.8 506.87,-187.53"/>
<polygon fill="#9a32cd" stroke="#9a32cd" points="343.33,-254.96 334.93,-261.41 345.52,-261.61 343.33,-254.96"/>
<text text-anchor="middle" x="407" y="-258.5" font-family="Helvetica,sans-Serif" font-size="10.00"> buzzer_</text>
<text text-anchor="middle" x="407" y="-247.5" font-family="Helvetica,sans-Serif" font-size="10.00">green_led_</text>
</g>
<!-- Node7 -->
<g id="node7" class="node">
<title>Node7</title>
<g id="a_node7"><a xlink:href="../../db/df5/classLeosac_1_1Hardware_1_1FLED.html" target="_top" xlink:title="A Facade to a LED object.">
<polygon fill="white" stroke="black" points="9.5,-267 9.5,-286 143.5,-286 143.5,-267 9.5,-267"/>
<text text-anchor="middle" x="76.5" y="-274" font-family="Helvetica,sans-Serif" font-size="10.00">Leosac::Hardware::FLED</text>
</a>
</g>
</g>
<!-- Node7&#45;&gt;Node6 -->
<g id="edge7" class="edge">
<title>Node7&#45;&gt;Node6</title>
<path fill="none" stroke="#9a32cd" stroke-dasharray="5,2" d="M154.03,-276.5C174.55,-276.5 196.56,-276.5 216.45,-276.5"/>
<polygon fill="#9a32cd" stroke="#9a32cd" points="153.77,-273 143.77,-276.5 153.77,-280 153.77,-273"/>
<text text-anchor="middle" x="179.5" y="-279.5" font-family="Helvetica,sans-Serif" font-size="10.00"> ptr</text>
</g>
<!-- Node8 -->
<g id="node8" class="node">
<title>Node8</title>
<g id="a_node8"><a xlink:title="STL class.">
<polygon fill="white" stroke="#bfbfbf" points="251,-6 251,-25 316,-25 316,-6 251,-6"/>
<text text-anchor="middle" x="283.5" y="-13" font-family="Helvetica,sans-Serif" font-size="10.00">std::string</text>
</a>
</g>
</g>
<!-- Node8&#45;&gt;Node1 -->
<g id="edge11" class="edge">
<title>Node8&#45;&gt;Node1</title>
<path fill="none" stroke="#9a32cd" stroke-dasharray="5,2" d="M326.44,-7.06C356.83,-2.31 398.76,1.41 435,-5.5 460.01,-10.27 486.73,-21.13 506.4,-30.34"/>
<polygon fill="#9a32cd" stroke="#9a32cd" points="325.49,-3.67 316.2,-8.76 326.64,-10.57 325.49,-3.67"/>
<text text-anchor="middle" x="407" y="-8.5" font-family="Helvetica,sans-Serif" font-size="10.00"> pin_</text>
</g>
<!-- Node8&#45;&gt;Node4 -->
<g id="edge8" class="edge">
<title>Node8&#45;&gt;Node4</title>
<path fill="none" stroke="#9a32cd" stroke-dasharray="5,2" d="M318.66,-28.8C331.89,-33.98 347.17,-39.98 361,-45.5 393.96,-58.65 405.22,-56.19 435,-75.5 471.11,-98.91 505.57,-136.32 523.4,-157.18"/>
<polygon fill="#9a32cd" stroke="#9a32cd" points="319.58,-25.4 308.99,-25.02 317.03,-31.92 319.58,-25.4"/>
<text text-anchor="middle" x="407" y="-100.5" font-family="Helvetica,sans-Serif" font-size="10.00"> topic_low_</text>
<text text-anchor="middle" x="407" y="-89.5" font-family="Helvetica,sans-Serif" font-size="10.00">topic_high_</text>
<text text-anchor="middle" x="407" y="-78.5" font-family="Helvetica,sans-Serif" font-size="10.00">name_</text>
</g>
<!-- Node9 -->
<g id="node9" class="node">
<title>Node9</title>
<g id="a_node9"><a xlink:title="STL class.">
<polygon fill="white" stroke="#bfbfbf" points="24.5,-0.5 24.5,-30.5 128.5,-30.5 128.5,-0.5 24.5,-0.5"/>
<text text-anchor="start" x="32.5" y="-18.5" font-family="Helvetica,sans-Serif" font-size="10.00">std::basic_string&lt;</text>
<text text-anchor="middle" x="76.5" y="-7.5" font-family="Helvetica,sans-Serif" font-size="10.00"> char &gt;</text>
</a>
</g>
</g>
<!-- Node9&#45;&gt;Node8 -->
<g id="edge9" class="edge">
<title>Node9&#45;&gt;Node8</title>
<path fill="none" stroke="midnightblue" d="M138.84,-15.5C175.67,-15.5 220.99,-15.5 250.76,-15.5"/>
<polygon fill="midnightblue" stroke="midnightblue" points="138.7,-12 128.7,-15.5 138.7,-19 138.7,-12"/>
</g>
<!-- Node10 -->
<g id="node10" class="node">
<title>Node10</title>
<g id="a_node10"><a xlink:title=" ">
<polygon fill="white" stroke="#bfbfbf" points="228,-212.5 228,-242.5 339,-242.5 339,-212.5 228,-212.5"/>
<text text-anchor="start" x="236" y="-230.5" font-family="Helvetica,sans-Serif" font-size="10.00">std::array&lt; uint8_t,</text>
<text text-anchor="middle" x="283.5" y="-219.5" font-family="Helvetica,sans-Serif" font-size="10.00"> 16 &gt;</text>
</a>
</g>
</g>
<!-- Node10&#45;&gt;Node4 -->
<g id="edge10" class="edge">
<title>Node10&#45;&gt;Node4</title>
<path fill="none" stroke="#9a32cd" stroke-dasharray="5,2" d="M349.02,-213.39C385.19,-205.48 430.29,-195.62 467.14,-187.56"/>
<polygon fill="#9a32cd" stroke="#9a32cd" points="348.09,-210.01 339.07,-215.57 349.59,-216.85 348.09,-210.01"/>
<text text-anchor="middle" x="407" y="-209.5" font-family="Helvetica,sans-Serif" font-size="10.00"> buffer_</text>
</g>
</g>
</svg>
