<?xml version="1.0" encoding="UTF-8" standalone="no"?>
<!DOCTYPE svg PUBLIC "-//W3C//DTD SVG 1.1//EN"
 "http://www.w3.org/Graphics/SVG/1.1/DTD/svg11.dtd">
<!-- Generated by graphviz version 2.43.0 (0)
 -->
<!-- Title: Leosac::Module::Wiegand::Strategy::WiegandCardAndPin Pages: 1 -->
<!--zoomable 373 -->
<svg id="main" version="1.1" xmlns="http://www.w3.org/2000/svg" xmlns:xlink="http://www.w3.org/1999/xlink" xml:space="preserve" onload="init(evt)">
<style type="text/css"><![CDATA[
.edge:hover path { stroke: red; }
.edge:hover polygon { stroke: red; fill: red; }
]]></style>
<script type="text/javascript"><![CDATA[
var edges = document.getElementsByTagName('g');
if (edges && edges.length) {
  for (var i=0;i<edges.length;i++) {
    if (edges[i].id.substr(0,4)=='edge') {
      edges[i].setAttribute('class','edge');
    }
  }
}
]]></script>
        <defs>
                <circle id="rim" cx="0" cy="0" r="7"/>
                <circle id="rim2" cx="0" cy="0" r="3.5"/>
                <g id="zoomPlus">
                        <use xlink:href="#rim" fill="#404040">
                                <set attributeName="fill" to="#808080" begin="zoomplus.mouseover" end="zoomplus.mouseout"/>
                        </use>
                        <path d="M-4,0h8M0,-4v8" fill="none" stroke="white" stroke-width="1.5" pointer-events="none"/>
                </g>
                <g id="zoomMin">
                        <use xlink:href="#rim" fill="#404040">
                                <set attributeName="fill" to="#808080" begin="zoomminus.mouseover" end="zoomminus.mouseout"/>
                        </use>
                        <path d="M-4,0h8" fill="none" stroke="white" stroke-width="1.5" pointer-events="none"/>
                </g>
                <g id="dirArrow">
                        <path fill="none" stroke="white" stroke-width="1.5" d="M0,-3.0v7 M-2.5,-0.5L0,-3.0L2.5,-0.5"/>
                </g>
               <g id="resetDef">
                       <use xlink:href="#rim2" fill="#404040">
                               <set attributeName="fill" to="#808080" begin="reset.mouseover" end="reset.mouseout"/>
                       </use>
               </g>
        </defs>

<script type="text/javascript">
var viewWidth = 942;
var viewHeight = 373;
var sectionId = 'dynsection-1';
</script>
<script xlink:href="../../svgpan.js"/>
<svg id="graph" class="graph">
<g id="viewport">
<title>Leosac::Module::Wiegand::Strategy::WiegandCardAndPin</title>
<polygon fill="white" stroke="transparent" points="-4,4 -4,-369 938,-369 938,4 -4,4"/>
<!-- Node1 -->
<g id="node1" class="node">
<title>Node1</title>
<g id="a_node1"><a xlink:title="Strategy for reading a card then a PIN code.">
<polygon fill="#bfbfbf" stroke="black" points="766,-290.5 766,-320.5 934,-320.5 934,-290.5 766,-290.5"/>
<text text-anchor="start" x="774" y="-308.5" font-family="Helvetica,sans-Serif" font-size="10.00">Leosac::Module::Wiegand</text>
<text text-anchor="middle" x="850" y="-297.5" font-family="Helvetica,sans-Serif" font-size="10.00">::Strategy::WiegandCardAndPin</text>
</a>
</g>
</g>
<!-- Node2 -->
<g id="node2" class="node">
<title>Node2</title>
<g id="a_node2"><a xlink:href="../../d5/d39/classLeosac_1_1Module_1_1Wiegand_1_1Strategy_1_1WiegandStrategy.html" target="_top" xlink:title="The multiple modes available to wiegand reader are implemented through the strategy pattern.">
<polygon fill="white" stroke="black" points="0,-246.5 0,-276.5 153,-276.5 153,-246.5 0,-246.5"/>
<text text-anchor="start" x="8" y="-264.5" font-family="Helvetica,sans-Serif" font-size="10.00">Leosac::Module::Wiegand</text>
<text text-anchor="middle" x="76.5" y="-253.5" font-family="Helvetica,sans-Serif" font-size="10.00">::Strategy::WiegandStrategy</text>
</a>
</g>
</g>
<!-- Node2&#45;&gt;Node1 -->
<g id="edge1" class="edge">
<title>Node2&#45;&gt;Node1</title>
<path fill="none" stroke="midnightblue" d="M157.15,-278.34C173.25,-281.19 190.12,-283.78 206,-285.5 406.14,-307.17 643.22,-308.24 765.99,-306.98"/>
<polygon fill="midnightblue" stroke="midnightblue" points="157.7,-274.88 147.24,-276.54 156.45,-281.77 157.7,-274.88"/>
</g>
<!-- Node4 -->
<g id="node4" class="node">
<title>Node4</title>
<g id="a_node4"><a xlink:title=" ">
<polygon fill="white" stroke="#bfbfbf" points="206,-139 206,-180 361,-180 361,-139 206,-139"/>
<text text-anchor="start" x="214" y="-168" font-family="Helvetica,sans-Serif" font-size="10.00">std::unique_ptr&lt; Leosac</text>
<text text-anchor="start" x="214" y="-157" font-family="Helvetica,sans-Serif" font-size="10.00">::Module::Wiegand::Strategy</text>
<text text-anchor="middle" x="283.5" y="-146" font-family="Helvetica,sans-Serif" font-size="10.00">::WiegandStrategy &gt;</text>
</a>
</g>
</g>
<!-- Node2&#45;&gt;Node4 -->
<g id="edge4" class="edge">
<title>Node2&#45;&gt;Node4</title>
<path fill="none" stroke="#9a32cd" stroke-dasharray="5,2" d="M101.52,-239.63C119.5,-224.26 145.33,-204.25 171,-191.5 181.91,-186.08 193.89,-181.43 205.83,-177.5"/>
<polygon fill="#9a32cd" stroke="#9a32cd" points="99.08,-237.11 93.83,-246.32 103.67,-242.39 99.08,-237.11"/>
<text text-anchor="middle" x="179.5" y="-194.5" font-family="Helvetica,sans-Serif" font-size="10.00"> ptr</text>
</g>
<!-- Node11 -->
<g id="node11" class="node">
<title>Node11</title>
<g id="a_node11"><a xlink:href="../../d1/db0/classLeosac_1_1Module_1_1Wiegand_1_1Strategy_1_1PinReading.html" target="_top" xlink:title="Interface for a strategy that read a PIN code.">
<polygon fill="white" stroke="black" points="213,-246.5 213,-276.5 354,-276.5 354,-246.5 213,-246.5"/>
<text text-anchor="start" x="221" y="-264.5" font-family="Helvetica,sans-Serif" font-size="10.00">Leosac::Module::Wiegand</text>
<text text-anchor="middle" x="283.5" y="-253.5" font-family="Helvetica,sans-Serif" font-size="10.00">::Strategy::PinReading</text>
</a>
</g>
</g>
<!-- Node2&#45;&gt;Node11 -->
<g id="edge12" class="edge">
<title>Node2&#45;&gt;Node11</title>
<path fill="none" stroke="midnightblue" d="M163.42,-261.5C179.89,-261.5 196.94,-261.5 212.83,-261.5"/>
<polygon fill="midnightblue" stroke="midnightblue" points="163.25,-258 153.25,-261.5 163.25,-265 163.25,-258"/>
</g>
<!-- Node13 -->
<g id="node13" class="node">
<title>Node13</title>
<g id="a_node13"><a xlink:href="../../de/d50/classLeosac_1_1Module_1_1Wiegand_1_1Strategy_1_1CardReading.html" target="_top" xlink:title="Interface for a strategy that read a card number.">
<polygon fill="white" stroke="black" points="213,-334.5 213,-364.5 354,-364.5 354,-334.5 213,-334.5"/>
<text text-anchor="start" x="221" y="-352.5" font-family="Helvetica,sans-Serif" font-size="10.00">Leosac::Module::Wiegand</text>
<text text-anchor="middle" x="283.5" y="-341.5" font-family="Helvetica,sans-Serif" font-size="10.00">::Strategy::CardReading</text>
</a>
</g>
</g>
<!-- Node2&#45;&gt;Node13 -->
<g id="edge15" class="edge">
<title>Node2&#45;&gt;Node13</title>
<path fill="none" stroke="midnightblue" d="M106.34,-282.47C124.23,-294.68 148.11,-309.58 171,-319.5 184.52,-325.36 199.47,-330.33 213.91,-334.43"/>
<polygon fill="midnightblue" stroke="midnightblue" points="108.28,-279.55 98.07,-276.72 104.28,-285.3 108.28,-279.55"/>
</g>
<!-- Node3 -->
<g id="node3" class="node">
<title>Node3</title>
<g id="a_node3"><a xlink:href="../../d7/d64/classLeosac_1_1Module_1_1Wiegand_1_1WiegandReaderImpl.html" target="_top" xlink:title="An implementation class that represents a Wiegand Reader.">
<polygon fill="white" stroke="black" points="469.5,-99.5 469.5,-129.5 610.5,-129.5 610.5,-99.5 469.5,-99.5"/>
<text text-anchor="start" x="477.5" y="-117.5" font-family="Helvetica,sans-Serif" font-size="10.00">Leosac::Module::Wiegand</text>
<text text-anchor="middle" x="540" y="-106.5" font-family="Helvetica,sans-Serif" font-size="10.00">::WiegandReaderImpl</text>
</a>
</g>
</g>
<!-- Node3&#45;&gt;Node2 -->
<g id="edge2" class="edge">
<title>Node3&#45;&gt;Node2</title>
<path fill="none" stroke="#9a32cd" stroke-dasharray="5,2" d="M497.65,-133.91C478.68,-142.62 455.82,-152.86 435,-161.5 402.52,-174.97 394.65,-179.28 361,-189.5 293.33,-210.06 274.51,-207.96 206,-225.5 180.64,-231.99 152.63,-239.77 129.25,-246.43"/>
<polygon fill="#9a32cd" stroke="#9a32cd" points="499.29,-137 506.9,-129.63 496.36,-130.65 499.29,-137"/>
<text text-anchor="middle" x="283.5" y="-228.5" font-family="Helvetica,sans-Serif" font-size="10.00"> reader_</text>
</g>
<!-- Node4&#45;&gt;Node3 -->
<g id="edge3" class="edge">
<title>Node4&#45;&gt;Node3</title>
<path fill="none" stroke="#9a32cd" stroke-dasharray="5,2" d="M371.34,-147.09C392.22,-143.87 414.44,-140.24 435,-136.5 446.53,-134.4 458.74,-131.99 470.58,-129.55"/>
<polygon fill="#9a32cd" stroke="#9a32cd" points="370.56,-143.67 361.2,-148.64 371.62,-150.59 370.56,-143.67"/>
<text text-anchor="middle" x="407" y="-149.5" font-family="Helvetica,sans-Serif" font-size="10.00"> strategy_</text>
</g>
<!-- Node5 -->
<g id="node5" class="node">
<title>Node5</title>
<g id="a_node5"><a xlink:title=" ">
<polygon fill="white" stroke="#bfbfbf" points="216.5,-89.5 216.5,-119.5 350.5,-119.5 350.5,-89.5 216.5,-89.5"/>
<text text-anchor="start" x="224.5" y="-107.5" font-family="Helvetica,sans-Serif" font-size="10.00">std::unique_ptr&lt; Leosac</text>
<text text-anchor="middle" x="283.5" y="-96.5" font-family="Helvetica,sans-Serif" font-size="10.00">::Hardware::FLED &gt;</text>
</a>
</g>
</g>
<!-- Node5&#45;&gt;Node3 -->
<g id="edge5" class="edge">
<title>Node5&#45;&gt;Node3</title>
<path fill="none" stroke="#9a32cd" stroke-dasharray="5,2" d="M360.71,-107.49C395.12,-108.85 435.5,-110.43 469.12,-111.75"/>
<polygon fill="#9a32cd" stroke="#9a32cd" points="360.83,-104 350.7,-107.1 360.56,-110.99 360.83,-104"/>
<text text-anchor="middle" x="407" y="-124.5" font-family="Helvetica,sans-Serif" font-size="10.00"> buzzer_</text>
<text text-anchor="middle" x="407" y="-113.5" font-family="Helvetica,sans-Serif" font-size="10.00">green_led_</text>
</g>
<!-- Node6 -->
<g id="node6" class="node">
<title>Node6</title>
<g id="a_node6"><a xlink:href="../../db/df5/classLeosac_1_1Hardware_1_1FLED.html" target="_top" xlink:title="A Facade to a LED object.">
<polygon fill="white" stroke="black" points="9.5,-95 9.5,-114 143.5,-114 143.5,-95 9.5,-95"/>
<text text-anchor="middle" x="76.5" y="-102" font-family="Helvetica,sans-Serif" font-size="10.00">Leosac::Hardware::FLED</text>
</a>
</g>
</g>
<!-- Node6&#45;&gt;Node5 -->
<g id="edge6" class="edge">
<title>Node6&#45;&gt;Node5</title>
<path fill="none" stroke="#9a32cd" stroke-dasharray="5,2" d="M154.03,-104.5C174.55,-104.5 196.56,-104.5 216.45,-104.5"/>
<polygon fill="#9a32cd" stroke="#9a32cd" points="153.77,-101 143.77,-104.5 153.77,-108 153.77,-101"/>
<text text-anchor="middle" x="179.5" y="-107.5" font-family="Helvetica,sans-Serif" font-size="10.00"> ptr</text>
</g>
<!-- Node7 -->
<g id="node7" class="node">
<title>Node7</title>
<g id="a_node7"><a xlink:title="STL class.">
<polygon fill="white" stroke="#bfbfbf" points="251,-50 251,-69 316,-69 316,-50 251,-50"/>
<text text-anchor="middle" x="283.5" y="-57" font-family="Helvetica,sans-Serif" font-size="10.00">std::string</text>
</a>
</g>
</g>
<!-- Node7&#45;&gt;Node3 -->
<g id="edge7" class="edge">
<title>Node7&#45;&gt;Node3</title>
<path fill="none" stroke="#9a32cd" stroke-dasharray="5,2" d="M326.35,-59.36C356.86,-60.09 398.98,-62.84 435,-71.5 461.03,-77.75 488.98,-89.63 509.35,-99.32"/>
<polygon fill="#9a32cd" stroke="#9a32cd" points="326.14,-55.85 316.08,-59.18 326.01,-62.85 326.14,-55.85"/>
<text text-anchor="middle" x="407" y="-96.5" font-family="Helvetica,sans-Serif" font-size="10.00"> topic_low_</text>
<text text-anchor="middle" x="407" y="-85.5" font-family="Helvetica,sans-Serif" font-size="10.00">topic_high_</text>
<text text-anchor="middle" x="407" y="-74.5" font-family="Helvetica,sans-Serif" font-size="10.00">name_</text>
</g>
<!-- Node8 -->
<g id="node8" class="node">
<title>Node8</title>
<g id="a_node8"><a xlink:title="STL class.">
<polygon fill="white" stroke="#bfbfbf" points="24.5,-44.5 24.5,-74.5 128.5,-74.5 128.5,-44.5 24.5,-44.5"/>
<text text-anchor="start" x="32.5" y="-62.5" font-family="Helvetica,sans-Serif" font-size="10.00">std::basic_string&lt;</text>
<text text-anchor="middle" x="76.5" y="-51.5" font-family="Helvetica,sans-Serif" font-size="10.00"> char &gt;</text>
</a>
</g>
</g>
<!-- Node8&#45;&gt;Node7 -->
<g id="edge8" class="edge">
<title>Node8&#45;&gt;Node7</title>
<path fill="none" stroke="midnightblue" d="M138.84,-59.5C175.67,-59.5 220.99,-59.5 250.76,-59.5"/>
<polygon fill="midnightblue" stroke="midnightblue" points="138.7,-56 128.7,-59.5 138.7,-63 138.7,-56"/>
</g>
<!-- Node9 -->
<g id="node9" class="node">
<title>Node9</title>
<g id="a_node9"><a xlink:title=" ">
<polygon fill="white" stroke="#bfbfbf" points="228,-0.5 228,-30.5 339,-30.5 339,-0.5 228,-0.5"/>
<text text-anchor="start" x="236" y="-18.5" font-family="Helvetica,sans-Serif" font-size="10.00">std::array&lt; uint8_t,</text>
<text text-anchor="middle" x="283.5" y="-7.5" font-family="Helvetica,sans-Serif" font-size="10.00"> 16 &gt;</text>
</a>
</g>
</g>
<!-- Node9&#45;&gt;Node3 -->
<g id="edge9" class="edge">
<title>Node9&#45;&gt;Node3</title>
<path fill="none" stroke="#9a32cd" stroke-dasharray="5,2" d="M349.33,-24.59C376.46,-29.69 407.91,-37.35 435,-48.5 466.83,-61.61 499.76,-84.34 519.82,-99.4"/>
<polygon fill="#9a32cd" stroke="#9a32cd" points="349.63,-21.09 339.17,-22.76 348.39,-27.98 349.63,-21.09"/>
<text text-anchor="middle" x="407" y="-51.5" font-family="Helvetica,sans-Serif" font-size="10.00"> buffer_</text>
</g>
<!-- Node10 -->
<g id="node10" class="node">
<title>Node10</title>
<g id="a_node10"><a xlink:title=" ">
<polygon fill="white" stroke="#bfbfbf" points="456.5,-256 456.5,-275 623.5,-275 623.5,-256 456.5,-256"/>
<text text-anchor="middle" x="540" y="-263" font-family="Helvetica,sans-Serif" font-size="10.00">std::unique_ptr&lt; PinReading &gt;</text>
</a>
</g>
</g>
<!-- Node10&#45;&gt;Node1 -->
<g id="edge10" class="edge">
<title>Node10&#45;&gt;Node1</title>
<path fill="none" stroke="#9a32cd" stroke-dasharray="5,2" d="M634.38,-268.88C670.08,-271.06 711.08,-274.64 748,-280.5 763.61,-282.98 780.35,-286.68 795.62,-290.49"/>
<polygon fill="#9a32cd" stroke="#9a32cd" points="634.15,-265.37 623.97,-268.28 633.75,-272.35 634.15,-265.37"/>
<text text-anchor="middle" x="696.5" y="-283.5" font-family="Helvetica,sans-Serif" font-size="10.00"> read_pin_strategy_</text>
</g>
<!-- Node11&#45;&gt;Node10 -->
<g id="edge11" class="edge">
<title>Node11&#45;&gt;Node10</title>
<path fill="none" stroke="#9a32cd" stroke-dasharray="5,2" d="M364.24,-262.75C393.58,-263.21 426.86,-263.74 456.44,-264.2"/>
<polygon fill="#9a32cd" stroke="#9a32cd" points="364.1,-259.25 354.04,-262.59 363.99,-266.25 364.1,-259.25"/>
<text text-anchor="middle" x="407" y="-267.5" font-family="Helvetica,sans-Serif" font-size="10.00"> ptr</text>
</g>
<!-- Node12 -->
<g id="node12" class="node">
<title>Node12</title>
<g id="a_node12"><a xlink:title=" ">
<polygon fill="white" stroke="#bfbfbf" points="453,-335 453,-354 627,-354 627,-335 453,-335"/>
<text text-anchor="middle" x="540" y="-342" font-family="Helvetica,sans-Serif" font-size="10.00">std::unique_ptr&lt; CardReading &gt;</text>
</a>
</g>
</g>
<!-- Node12&#45;&gt;Node1 -->
<g id="edge13" class="edge">
<title>Node12&#45;&gt;Node1</title>
<path fill="none" stroke="#9a32cd" stroke-dasharray="5,2" d="M627.48,-333.7C664.58,-329.05 708.42,-323.53 748,-318.5 753.79,-317.76 759.76,-317 765.78,-316.23"/>
<polygon fill="#9a32cd" stroke="#9a32cd" points="626.68,-330.27 617.2,-334.99 627.55,-337.22 626.68,-330.27"/>
<text text-anchor="middle" x="696.5" y="-334.5" font-family="Helvetica,sans-Serif" font-size="10.00"> read_card_strategy_</text>
</g>
<!-- Node13&#45;&gt;Node12 -->
<g id="edge14" class="edge">
<title>Node13&#45;&gt;Node12</title>
<path fill="none" stroke="#9a32cd" stroke-dasharray="5,2" d="M364.23,-347.93C392.35,-347.38 424.09,-346.76 452.73,-346.19"/>
<polygon fill="#9a32cd" stroke="#9a32cd" points="363.97,-344.44 354.04,-348.13 364.11,-351.44 363.97,-344.44"/>
<text text-anchor="middle" x="407" y="-351.5" font-family="Helvetica,sans-Serif" font-size="10.00"> ptr</text>
</g>
</g>
</svg>
        <g id="navigator" transform="translate(0 0)" fill="#404254">
                <rect fill="#f2f5e9" fill-opacity="0.5" stroke="#606060" stroke-width=".5" x="0" y="0" width="60" height="60"/>
                <use id="zoomplus" xlink:href="#zoomPlus" x="17" y="9" onmousedown="handleZoom(evt,'in')"/>
                <use id="zoomminus" xlink:href="#zoomMin" x="42" y="9" onmousedown="handleZoom(evt,'out')"/>
                <use id="reset" xlink:href="#resetDef" x="30" y="36" onmousedown="handleReset()"/>
                <g id="arrowUp" xlink:href="#dirArrow" transform="translate(30 24)" onmousedown="handlePan(0,-1)">
                  <use xlink:href="#rim" fill="#404040">
                        <set attributeName="fill" to="#808080" begin="arrowUp.mouseover" end="arrowUp.mouseout"/>
                  </use>
                  <path fill="none" stroke="white" stroke-width="1.5" d="M0,-3.0v7 M-2.5,-0.5L0,-3.0L2.5,-0.5"/>
                </g>
                <g id="arrowRight" xlink:href="#dirArrow" transform="rotate(90) translate(36 -43)" onmousedown="handlePan(1,0)">
                  <use xlink:href="#rim" fill="#404040">
                        <set attributeName="fill" to="#808080" begin="arrowRight.mouseover" end="arrowRight.mouseout"/>
                  </use>
                  <path fill="none" stroke="white" stroke-width="1.5" d="M0,-3.0v7 M-2.5,-0.5L0,-3.0L2.5,-0.5"/>
                </g>
                <g id="arrowDown" xlink:href="#dirArrow" transform="rotate(180) translate(-30 -48)" onmousedown="handlePan(0,1)">
                  <use xlink:href="#rim" fill="#404040">
                        <set attributeName="fill" to="#808080" begin="arrowDown.mouseover" end="arrowDown.mouseout"/>
                  </use>
                  <path fill="none" stroke="white" stroke-width="1.5" d="M0,-3.0v7 M-2.5,-0.5L0,-3.0L2.5,-0.5"/>
                </g>
                <g id="arrowLeft" xlink:href="#dirArrow" transform="rotate(270) translate(-36 17)" onmousedown="handlePan(-1,0)">
                  <use xlink:href="#rim" fill="#404040">
                        <set attributeName="fill" to="#808080" begin="arrowLeft.mouseover" end="arrowLeft.mouseout"/>
                  </use>
                  <path fill="none" stroke="white" stroke-width="1.5" d="M0,-3.0v7 M-2.5,-0.5L0,-3.0L2.5,-0.5"/>
                </g>
        </g>
        <svg viewBox="0 0 15 15" width="100%" height="30px" preserveAspectRatio="xMaxYMin meet">
         <g id="arrow_out" transform="scale(0.3 0.3)">
          <a xlink:href="classLeosac_1_1Module_1_1Wiegand_1_1Strategy_1_1WiegandCardAndPin__coll__graph_org.svg" target="_base">
           <rect id="button" ry="5" rx="5" y="6" x="6" height="38" width="38"
                fill="#f2f5e9" fill-opacity="0.5" stroke="#606060" stroke-width="1.0"/>
           <path id="arrow"
             d="M 11.500037,31.436501 C 11.940474,20.09759 22.043105,11.32322 32.158766,21.979434 L 37.068811,17.246167 C 37.068811,17.246167 37.088388,32 37.088388,32 L 22.160133,31.978069 C 22.160133,31.978069 26.997745,27.140456 26.997745,27.140456 C 18.528582,18.264221 13.291696,25.230495 11.500037,31.436501 z"
             style="fill:#404040;"/>
          </a>
         </g>
        </svg>
</svg>
