<?xml version="1.0" encoding="UTF-8" standalone="no"?>
<!DOCTYPE svg PUBLIC "-//W3C//DTD SVG 1.1//EN"
 "http://www.w3.org/Graphics/SVG/1.1/DTD/svg11.dtd">
<!-- Generated by graphviz version 2.43.0 (0)
 -->
<!-- Title: Leosac::Audit::AccessPointEvent Pages: 1 -->
<svg width="316pt" height="229pt"
 viewBox="0.00 0.00 315.50 229.00" xmlns="http://www.w3.org/2000/svg" xmlns:xlink="http://www.w3.org/1999/xlink">
<g id="graph0" class="graph" transform="scale(1 1) rotate(0) translate(4 225)">
<title>Leosac::Audit::AccessPointEvent</title>
<polygon fill="white" stroke="transparent" points="-4,4 -4,-225 311.5,-225 311.5,4 -4,4"/>
<!-- Node1 -->
<g id="node1" class="node">
<title>Node1</title>
<g id="a_node1"><a xlink:title="Provides an implementation of IAccessPointEvent.">
<polygon fill="#bfbfbf" stroke="black" points="79,-0.5 79,-30.5 225,-30.5 225,-0.5 79,-0.5"/>
<text text-anchor="start" x="87" y="-18.5" font-family="Helvetica,sans-Serif" font-size="10.00">Leosac::Audit::AccessPoint</text>
<text text-anchor="middle" x="152" y="-7.5" font-family="Helvetica,sans-Serif" font-size="10.00">Event</text>
</a>
</g>
</g>
<!-- Node2 -->
<g id="node2" class="node">
<title>Node2</title>
<g id="a_node2"><a xlink:href="../../d8/d9b/classLeosac_1_1Audit_1_1IAccessPointEvent.html" target="_top" xlink:title="Interface that describes an Audit object for AccessPoint related event.">
<polygon fill="white" stroke="black" points="158.5,-67.5 158.5,-97.5 307.5,-97.5 307.5,-67.5 158.5,-67.5"/>
<text text-anchor="start" x="166.5" y="-85.5" font-family="Helvetica,sans-Serif" font-size="10.00">Leosac::Audit::IAccessPoint</text>
<text text-anchor="middle" x="233" y="-74.5" font-family="Helvetica,sans-Serif" font-size="10.00">Event</text>
</a>
</g>
</g>
<!-- Node2&#45;&gt;Node1 -->
<g id="edge1" class="edge">
<title>Node2&#45;&gt;Node1</title>
<path fill="none" stroke="midnightblue" d="M207.31,-60.88C195,-51.01 180.57,-39.43 169.54,-30.58"/>
<polygon fill="midnightblue" stroke="midnightblue" points="205.43,-63.87 215.42,-67.4 209.82,-58.41 205.43,-63.87"/>
</g>
<!-- Node3 -->
<g id="node3" class="node">
<title>Node3</title>
<g id="a_node3"><a xlink:href="../../d1/d44/classLeosac_1_1Audit_1_1IAuditEntry.html" target="_top" xlink:title="Base interface to Audit object.">
<polygon fill="white" stroke="black" points="161,-140 161,-159 303,-159 303,-140 161,-140"/>
<text text-anchor="middle" x="232" y="-147" font-family="Helvetica,sans-Serif" font-size="10.00">Leosac::Audit::IAuditEntry</text>
</a>
</g>
</g>
<!-- Node3&#45;&gt;Node2 -->
<g id="edge2" class="edge">
<title>Node3&#45;&gt;Node2</title>
<path fill="none" stroke="midnightblue" d="M232.29,-129.41C232.45,-119.22 232.64,-106.9 232.78,-97.59"/>
<polygon fill="midnightblue" stroke="midnightblue" points="228.79,-129.68 232.13,-139.73 235.79,-129.79 228.79,-129.68"/>
</g>
<!-- Node5 -->
<g id="node5" class="node">
<title>Node5</title>
<g id="a_node5"><a xlink:href="../../d0/d20/classLeosac_1_1Audit_1_1AuditEntry.html" target="_top" xlink:title="Implementation of IAuditEntry, backed by ODB.">
<polygon fill="white" stroke="black" points="1.5,-73 1.5,-92 140.5,-92 140.5,-73 1.5,-73"/>
<text text-anchor="middle" x="71" y="-80" font-family="Helvetica,sans-Serif" font-size="10.00">Leosac::Audit::AuditEntry</text>
</a>
</g>
</g>
<!-- Node3&#45;&gt;Node5 -->
<g id="edge5" class="edge">
<title>Node3&#45;&gt;Node5</title>
<path fill="none" stroke="midnightblue" d="M201.3,-136.1C169.33,-123.2 120.11,-103.33 92.21,-92.06"/>
<polygon fill="midnightblue" stroke="midnightblue" points="200.04,-139.37 210.62,-139.87 202.66,-132.88 200.04,-139.37"/>
</g>
<!-- Node4 -->
<g id="node4" class="node">
<title>Node4</title>
<g id="a_node4"><a xlink:href="../../d0/d33/classLeosac_1_1Tools_1_1IVisitable.html" target="_top" xlink:title="Base class to make an object visitable.">
<polygon fill="white" stroke="black" points="165.5,-201.5 165.5,-220.5 298.5,-220.5 298.5,-201.5 165.5,-201.5"/>
<text text-anchor="middle" x="232" y="-208.5" font-family="Helvetica,sans-Serif" font-size="10.00">Leosac::Tools::IVisitable</text>
</a>
</g>
</g>
<!-- Node4&#45;&gt;Node3 -->
<g id="edge3" class="edge">
<title>Node4&#45;&gt;Node3</title>
<path fill="none" stroke="midnightblue" d="M232,-191.32C232,-180.5 232,-167.4 232,-159.01"/>
<polygon fill="midnightblue" stroke="midnightblue" points="228.5,-191.48 232,-201.48 235.5,-191.48 228.5,-191.48"/>
</g>
<!-- Node5&#45;&gt;Node1 -->
<g id="edge4" class="edge">
<title>Node5&#45;&gt;Node1</title>
<path fill="none" stroke="midnightblue" d="M90.02,-66.24C103.46,-55.45 121.34,-41.1 134.44,-30.59"/>
<polygon fill="midnightblue" stroke="midnightblue" points="87.53,-63.75 81.92,-72.73 91.91,-69.2 87.53,-63.75"/>
</g>
<!-- Node6 -->
<g id="node6" class="node">
<title>Node6</title>
<g id="a_node6"><a xlink:title=" ">
<polygon fill="white" stroke="#bfbfbf" points="0,-134.5 0,-164.5 142,-164.5 142,-134.5 0,-134.5"/>
<text text-anchor="start" x="8" y="-152.5" font-family="Helvetica,sans-Serif" font-size="10.00">std::enable_shared</text>
<text text-anchor="middle" x="71" y="-141.5" font-family="Helvetica,sans-Serif" font-size="10.00">_from_this&lt; AuditEntry &gt;</text>
</a>
</g>
</g>
<!-- Node6&#45;&gt;Node5 -->
<g id="edge6" class="edge">
<title>Node6&#45;&gt;Node5</title>
<path fill="none" stroke="midnightblue" d="M71,-124.25C71,-113.02 71,-100.38 71,-92.19"/>
<polygon fill="midnightblue" stroke="midnightblue" points="67.5,-124.4 71,-134.4 74.5,-124.4 67.5,-124.4"/>
</g>
</g>
</svg>
