<?xml version="1.0" encoding="UTF-8" standalone="no"?>
<!DOCTYPE svg PUBLIC "-//W3C//DTD SVG 1.1//EN"
 "http://www.w3.org/Graphics/SVG/1.1/DTD/svg11.dtd">
<!-- Generated by graphviz version 2.43.0 (0)
 -->
<!-- Title: src/tools/XmlScheduleLoader.hpp Pages: 1 -->
<svg width="458pt" height="207pt"
 viewBox="0.00 0.00 458.00 207.00" xmlns="http://www.w3.org/2000/svg" xmlns:xlink="http://www.w3.org/1999/xlink">
<g id="graph0" class="graph" transform="scale(1 1) rotate(0) translate(4 203)">
<title>src/tools/XmlScheduleLoader.hpp</title>
<polygon fill="white" stroke="transparent" points="-4,4 -4,-203 454,-203 454,4 -4,4"/>
<!-- Node1 -->
<g id="node1" class="node">
<title>Node1</title>
<g id="a_node1"><a xlink:title=" ">
<polygon fill="#bfbfbf" stroke="black" points="248,-179.5 248,-198.5 426,-198.5 426,-179.5 248,-179.5"/>
<text text-anchor="middle" x="337" y="-186.5" font-family="Helvetica,sans-Serif" font-size="10.00">src/tools/XmlScheduleLoader.hpp</text>
</a>
</g>
</g>
<!-- Node2 -->
<g id="node2" class="node">
<title>Node2</title>
<g id="a_node2"><a xlink:href="../../d6/dab/ISchedule_8hpp.html" target="_top" xlink:title=" ">
<polygon fill="white" stroke="black" points="150,-118 150,-137 262,-137 262,-118 150,-118"/>
<text text-anchor="middle" x="206" y="-125" font-family="Helvetica,sans-Serif" font-size="10.00">tools/ISchedule.hpp</text>
</a>
</g>
</g>
<!-- Node1&#45;&gt;Node2 -->
<g id="edge1" class="edge">
<title>Node1&#45;&gt;Node2</title>
<path fill="none" stroke="midnightblue" d="M318.23,-179.48C296.15,-169.45 259.28,-152.7 233.86,-141.15"/>
<polygon fill="midnightblue" stroke="midnightblue" points="235.29,-137.96 224.73,-137.01 232.39,-144.33 235.29,-137.96"/>
</g>
<!-- Node9 -->
<g id="node9" class="node">
<title>Node9</title>
<g id="a_node9"><a xlink:title=" ">
<polygon fill="white" stroke="#bfbfbf" points="280.5,-112.5 280.5,-142.5 393.5,-142.5 393.5,-112.5 280.5,-112.5"/>
<text text-anchor="start" x="288.5" y="-130.5" font-family="Helvetica,sans-Serif" font-size="10.00">boost/property_tree</text>
<text text-anchor="middle" x="337" y="-119.5" font-family="Helvetica,sans-Serif" font-size="10.00">/ptree_fwd.hpp</text>
</a>
</g>
</g>
<!-- Node1&#45;&gt;Node9 -->
<g id="edge8" class="edge">
<title>Node1&#45;&gt;Node9</title>
<path fill="none" stroke="midnightblue" d="M337,-179.48C337,-172.47 337,-162.19 337,-152.7"/>
<polygon fill="midnightblue" stroke="midnightblue" points="340.5,-152.52 337,-142.52 333.5,-152.52 340.5,-152.52"/>
</g>
<!-- Node10 -->
<g id="node10" class="node">
<title>Node10</title>
<g id="a_node10"><a xlink:title=" ">
<polygon fill="white" stroke="#bfbfbf" points="412,-118 412,-137 450,-137 450,-118 412,-118"/>
<text text-anchor="middle" x="431" y="-125" font-family="Helvetica,sans-Serif" font-size="10.00">map</text>
</a>
</g>
</g>
<!-- Node1&#45;&gt;Node10 -->
<g id="edge9" class="edge">
<title>Node1&#45;&gt;Node10</title>
<path fill="none" stroke="midnightblue" d="M350.47,-179.48C365.68,-169.84 390.69,-154.02 408.8,-142.55"/>
<polygon fill="midnightblue" stroke="midnightblue" points="410.98,-145.31 417.56,-137.01 407.24,-139.4 410.98,-145.31"/>
</g>
<!-- Node3 -->
<g id="node3" class="node">
<title>Node3</title>
<g id="a_node3"><a xlink:href="../../d8/d97/ToolsFwd_8hpp.html" target="_top" xlink:title=" ">
<polygon fill="white" stroke="black" points="21,-56.5 21,-75.5 131,-75.5 131,-56.5 21,-56.5"/>
<text text-anchor="middle" x="76" y="-63.5" font-family="Helvetica,sans-Serif" font-size="10.00">tools/ToolsFwd.hpp</text>
</a>
</g>
</g>
<!-- Node2&#45;&gt;Node3 -->
<g id="edge2" class="edge">
<title>Node2&#45;&gt;Node3</title>
<path fill="none" stroke="midnightblue" d="M187.37,-117.98C165.56,-107.99 129.2,-91.35 103.98,-79.81"/>
<polygon fill="midnightblue" stroke="midnightblue" points="105.14,-76.49 94.59,-75.51 102.23,-82.85 105.14,-76.49"/>
</g>
<!-- Node6 -->
<g id="node6" class="node">
<title>Node6</title>
<g id="a_node6"><a xlink:title=" ">
<polygon fill="white" stroke="#bfbfbf" points="149,-56.5 149,-75.5 199,-75.5 199,-56.5 149,-56.5"/>
<text text-anchor="middle" x="174" y="-63.5" font-family="Helvetica,sans-Serif" font-size="10.00">chrono</text>
</a>
</g>
</g>
<!-- Node2&#45;&gt;Node6 -->
<g id="edge5" class="edge">
<title>Node2&#45;&gt;Node6</title>
<path fill="none" stroke="midnightblue" d="M201.42,-117.98C196.76,-109.32 189.41,-95.65 183.49,-84.65"/>
<polygon fill="midnightblue" stroke="midnightblue" points="186.4,-82.66 178.58,-75.51 180.23,-85.97 186.4,-82.66"/>
</g>
<!-- Node7 -->
<g id="node7" class="node">
<title>Node7</title>
<g id="a_node7"><a xlink:title=" ">
<polygon fill="white" stroke="#bfbfbf" points="217,-56.5 217,-75.5 261,-75.5 261,-56.5 217,-56.5"/>
<text text-anchor="middle" x="239" y="-63.5" font-family="Helvetica,sans-Serif" font-size="10.00">string</text>
</a>
</g>
</g>
<!-- Node2&#45;&gt;Node7 -->
<g id="edge6" class="edge">
<title>Node2&#45;&gt;Node7</title>
<path fill="none" stroke="midnightblue" d="M210.73,-117.98C215.58,-109.23 223.27,-95.37 229.4,-84.31"/>
<polygon fill="midnightblue" stroke="midnightblue" points="232.49,-85.95 234.28,-75.51 226.37,-82.56 232.49,-85.95"/>
</g>
<!-- Node8 -->
<g id="node8" class="node">
<title>Node8</title>
<g id="a_node8"><a xlink:title=" ">
<polygon fill="white" stroke="#bfbfbf" points="279.5,-56.5 279.5,-75.5 326.5,-75.5 326.5,-56.5 279.5,-56.5"/>
<text text-anchor="middle" x="303" y="-63.5" font-family="Helvetica,sans-Serif" font-size="10.00">vector</text>
</a>
</g>
</g>
<!-- Node2&#45;&gt;Node8 -->
<g id="edge7" class="edge">
<title>Node2&#45;&gt;Node8</title>
<path fill="none" stroke="midnightblue" d="M219.9,-117.98C235.67,-108.3 261.64,-92.37 280.35,-80.89"/>
<polygon fill="midnightblue" stroke="midnightblue" points="282.43,-83.72 289.13,-75.51 278.77,-77.75 282.43,-83.72"/>
</g>
<!-- Node4 -->
<g id="node4" class="node">
<title>Node4</title>
<g id="a_node4"><a xlink:title=" ">
<polygon fill="white" stroke="#bfbfbf" points="0,-0.5 0,-19.5 58,-19.5 58,-0.5 0,-0.5"/>
<text text-anchor="middle" x="29" y="-7.5" font-family="Helvetica,sans-Serif" font-size="10.00">memory</text>
</a>
</g>
</g>
<!-- Node3&#45;&gt;Node4 -->
<g id="edge3" class="edge">
<title>Node3&#45;&gt;Node4</title>
<path fill="none" stroke="midnightblue" d="M68.24,-56.08C61.46,-48.3 51.46,-36.8 43.24,-27.37"/>
<polygon fill="midnightblue" stroke="midnightblue" points="45.82,-25 36.62,-19.75 40.54,-29.59 45.82,-25"/>
</g>
<!-- Node5 -->
<g id="node5" class="node">
<title>Node5</title>
<g id="a_node5"><a xlink:title=" ">
<polygon fill="white" stroke="#bfbfbf" points="76.5,-0.5 76.5,-19.5 171.5,-19.5 171.5,-0.5 76.5,-0.5"/>
<text text-anchor="middle" x="124" y="-7.5" font-family="Helvetica,sans-Serif" font-size="10.00">odb/lazy&#45;ptr.hxx</text>
</a>
</g>
</g>
<!-- Node3&#45;&gt;Node5 -->
<g id="edge4" class="edge">
<title>Node3&#45;&gt;Node5</title>
<path fill="none" stroke="midnightblue" d="M83.93,-56.08C90.85,-48.3 101.07,-36.8 109.45,-27.37"/>
<polygon fill="midnightblue" stroke="midnightblue" points="112.19,-29.55 116.22,-19.75 106.96,-24.9 112.19,-29.55"/>
</g>
</g>
</svg>
