<?xml version="1.0" encoding="UTF-8" standalone="no"?>
<!DOCTYPE svg PUBLIC "-//W3C//DTD SVG 1.1//EN"
 "http://www.w3.org/Graphics/SVG/1.1/DTD/svg11.dtd">
<!-- Generated by graphviz version 2.43.0 (0)
 -->
<!-- Title: src/tools/JSONUtils.hpp Pages: 1 -->
<svg width="6827pt" height="173pt"
 viewBox="0.00 0.00 6826.50 173.00" xmlns="http://www.w3.org/2000/svg" xmlns:xlink="http://www.w3.org/1999/xlink">
<g id="graph0" class="graph" transform="scale(1 1) rotate(0) translate(4 169)">
<title>src/tools/JSONUtils.hpp</title>
<polygon fill="white" stroke="transparent" points="-4,4 -4,-169 6822.5,-169 6822.5,4 -4,4"/>
<!-- Node1 -->
<g id="node1" class="node">
<title>Node1</title>
<g id="a_node1"><a xlink:title=" ">
<polygon fill="#bfbfbf" stroke="black" points="2896,-145.5 2896,-164.5 3024,-164.5 3024,-145.5 2896,-145.5"/>
<text text-anchor="middle" x="2960" y="-152.5" font-family="Helvetica,sans-Serif" font-size="10.00">src/tools/JSONUtils.hpp</text>
</a>
</g>
</g>
<!-- Node2 -->
<g id="node2" class="node">
<title>Node2</title>
<g id="a_node2"><a xlink:href="../../d0/d15/AccessPointEvent_8cpp.html" target="_top" xlink:title=" ">
<polygon fill="white" stroke="black" points="0,-73 0,-103 144,-103 144,-73 0,-73"/>
<text text-anchor="start" x="8" y="-91" font-family="Helvetica,sans-Serif" font-size="10.00">src/core/audit/AccessPoint</text>
<text text-anchor="middle" x="72" y="-80" font-family="Helvetica,sans-Serif" font-size="10.00">Event.cpp</text>
</a>
</g>
</g>
<!-- Node1&#45;&gt;Node2 -->
<g id="edge1" class="edge">
<title>Node1&#45;&gt;Node2</title>
<path fill="none" stroke="midnightblue" d="M2885.67,-153.81C2468.85,-152.63 430.48,-145.01 153,-109 142.66,-107.66 131.73,-105.49 121.35,-103.06"/>
<polygon fill="midnightblue" stroke="midnightblue" points="2885.79,-157.31 2895.8,-153.84 2885.81,-150.31 2885.79,-157.31"/>
</g>
<!-- Node3 -->
<g id="node3" class="node">
<title>Node3</title>
<g id="a_node3"><a xlink:href="../../d5/dd1/CredentialEvent_8cpp.html" target="_top" xlink:title=" ">
<polygon fill="white" stroke="black" points="162,-73 162,-103 298,-103 298,-73 162,-73"/>
<text text-anchor="start" x="170" y="-91" font-family="Helvetica,sans-Serif" font-size="10.00">src/core/audit/Credential</text>
<text text-anchor="middle" x="230" y="-80" font-family="Helvetica,sans-Serif" font-size="10.00">Event.cpp</text>
</a>
</g>
</g>
<!-- Node1&#45;&gt;Node3 -->
<g id="edge2" class="edge">
<title>Node1&#45;&gt;Node3</title>
<path fill="none" stroke="midnightblue" d="M2885.9,-153.79C2483.38,-152.52 568.2,-144.62 307,-109 297.15,-107.66 286.75,-105.49 276.88,-103.06"/>
<polygon fill="midnightblue" stroke="midnightblue" points="2885.95,-157.29 2895.97,-153.82 2885.98,-150.29 2885.95,-157.29"/>
</g>
<!-- Node4 -->
<g id="node4" class="node">
<title>Node4</title>
<g id="a_node4"><a xlink:href="../../db/d89/DoorEvent_8cpp.html" target="_top" xlink:title=" ">
<polygon fill="white" stroke="black" points="316.5,-78.5 316.5,-97.5 473.5,-97.5 473.5,-78.5 316.5,-78.5"/>
<text text-anchor="middle" x="395" y="-85.5" font-family="Helvetica,sans-Serif" font-size="10.00">src/core/audit/DoorEvent.cpp</text>
</a>
</g>
</g>
<!-- Node1&#45;&gt;Node4 -->
<g id="edge3" class="edge">
<title>Node1&#45;&gt;Node4</title>
<path fill="none" stroke="midnightblue" d="M2885.58,-153.57C2498.66,-151.21 725.29,-138.84 482,-109 462.93,-106.66 441.92,-101.89 425.32,-97.6"/>
<polygon fill="midnightblue" stroke="midnightblue" points="2885.79,-157.07 2895.81,-153.63 2885.83,-150.07 2885.79,-157.07"/>
</g>
<!-- Node5 -->
<g id="node5" class="node">
<title>Node5</title>
<g id="a_node5"><a xlink:href="../../d5/d94/GroupEvent_8cpp.html" target="_top" xlink:title=" ">
<polygon fill="white" stroke="black" points="491.5,-78.5 491.5,-97.5 654.5,-97.5 654.5,-78.5 491.5,-78.5"/>
<text text-anchor="middle" x="573" y="-85.5" font-family="Helvetica,sans-Serif" font-size="10.00">src/core/audit/GroupEvent.cpp</text>
</a>
</g>
</g>
<!-- Node1&#45;&gt;Node5 -->
<g id="edge4" class="edge">
<title>Node1&#45;&gt;Node5</title>
<path fill="none" stroke="midnightblue" d="M2885.73,-153.41C2516.61,-150.38 888.44,-135.6 664,-109 644.08,-106.64 622.11,-101.87 604.75,-97.59"/>
<polygon fill="midnightblue" stroke="midnightblue" points="2885.73,-156.91 2895.76,-153.5 2885.79,-149.91 2885.73,-156.91"/>
</g>
<!-- Node6 -->
<g id="node6" class="node">
<title>Node6</title>
<g id="a_node6"><a xlink:href="../../d8/d89/ScheduleEvent_8cpp.html" target="_top" xlink:title=" ">
<polygon fill="white" stroke="black" points="673,-78.5 673,-97.5 851,-97.5 851,-78.5 673,-78.5"/>
<text text-anchor="middle" x="762" y="-85.5" font-family="Helvetica,sans-Serif" font-size="10.00">src/core/audit/ScheduleEvent.cpp</text>
</a>
</g>
</g>
<!-- Node1&#45;&gt;Node6 -->
<g id="edge5" class="edge">
<title>Node1&#45;&gt;Node6</title>
<path fill="none" stroke="midnightblue" d="M2885.52,-154.1C2561.01,-154.28 1268.7,-152.21 865,-109 842.54,-106.6 817.67,-101.83 798,-97.55"/>
<polygon fill="midnightblue" stroke="midnightblue" points="2885.75,-157.6 2895.75,-154.09 2885.75,-150.6 2885.75,-157.6"/>
</g>
<!-- Node7 -->
<g id="node7" class="node">
<title>Node7</title>
<g id="a_node7"><a xlink:href="../../d4/dbb/JSONService_8hpp.html" target="_top" xlink:title=" ">
<polygon fill="white" stroke="black" points="907,-73 907,-103 1043,-103 1043,-73 907,-73"/>
<text text-anchor="start" x="915" y="-91" font-family="Helvetica,sans-Serif" font-size="10.00">src/core/audit/serializers</text>
<text text-anchor="middle" x="975" y="-80" font-family="Helvetica,sans-Serif" font-size="10.00">/JSONService.hpp</text>
</a>
</g>
</g>
<!-- Node1&#45;&gt;Node7 -->
<g id="edge6" class="edge">
<title>Node1&#45;&gt;Node7</title>
<path fill="none" stroke="midnightblue" d="M2885.56,-153.26C2555.89,-149.84 1235.57,-134.65 1052,-109 1042.15,-107.62 1031.75,-105.44 1021.89,-103.01"/>
<polygon fill="midnightblue" stroke="midnightblue" points="2885.91,-156.76 2895.95,-153.37 2885.99,-149.76 2885.91,-156.76"/>
</g>
<!-- Node8 -->
<g id="node8" class="node">
<title>Node8</title>
<g id="a_node8"><a xlink:href="../../d5/dce/PolymorphicAuditSerializer_8cpp.html" target="_top" xlink:title=" ">
<polygon fill="white" stroke="black" points="688.5,-0.5 688.5,-30.5 859.5,-30.5 859.5,-0.5 688.5,-0.5"/>
<text text-anchor="start" x="696.5" y="-18.5" font-family="Helvetica,sans-Serif" font-size="10.00">src/core/audit/serializers</text>
<text text-anchor="middle" x="774" y="-7.5" font-family="Helvetica,sans-Serif" font-size="10.00">/PolymorphicAuditSerializer.cpp</text>
</a>
</g>
</g>
<!-- Node1&#45;&gt;Node8 -->
<g id="edge10" class="edge">
<title>Node1&#45;&gt;Node8</title>
<path fill="none" stroke="midnightblue" d="M2885.84,-154.02C2527.64,-153.93 990.04,-151.05 898,-109 875.1,-98.54 879.52,-82.89 860,-67 842.41,-52.68 820.3,-39.79 802.91,-30.62"/>
<polygon fill="midnightblue" stroke="midnightblue" points="2885.84,-157.52 2895.84,-154.03 2885.84,-150.52 2885.84,-157.52"/>
</g>
<!-- Node11 -->
<g id="node11" class="node">
<title>Node11</title>
<g id="a_node11"><a xlink:href="../../d2/d8b/UserEvent_8cpp.html" target="_top" xlink:title=" ">
<polygon fill="white" stroke="black" points="2151,-78.5 2151,-97.5 2307,-97.5 2307,-78.5 2151,-78.5"/>
<text text-anchor="middle" x="2229" y="-85.5" font-family="Helvetica,sans-Serif" font-size="10.00">src/core/audit/UserEvent.cpp</text>
</a>
</g>
</g>
<!-- Node1&#45;&gt;Node11 -->
<g id="edge11" class="edge">
<title>Node1&#45;&gt;Node11</title>
<path fill="none" stroke="midnightblue" d="M2885.57,-152.5C2765.39,-149.24 2521.38,-139.19 2317,-109 2298.25,-106.23 2277.56,-101.61 2260.96,-97.51"/>
<polygon fill="midnightblue" stroke="midnightblue" points="2885.67,-156 2895.76,-152.77 2885.86,-149 2885.67,-156"/>
</g>
<!-- Node12 -->
<g id="node12" class="node">
<title>Node12</title>
<g id="a_node12"><a xlink:href="../../d3/dac/UserGroupMembershipEvent_8cpp.html" target="_top" xlink:title=" ">
<polygon fill="white" stroke="black" points="2325.5,-73 2325.5,-103 2462.5,-103 2462.5,-73 2325.5,-73"/>
<text text-anchor="start" x="2333.5" y="-91" font-family="Helvetica,sans-Serif" font-size="10.00">src/core/audit/UserGroup</text>
<text text-anchor="middle" x="2394" y="-80" font-family="Helvetica,sans-Serif" font-size="10.00">MembershipEvent.cpp</text>
</a>
</g>
</g>
<!-- Node1&#45;&gt;Node12 -->
<g id="edge12" class="edge">
<title>Node1&#45;&gt;Node12</title>
<path fill="none" stroke="midnightblue" d="M2885.42,-150.81C2789.28,-145.86 2617.19,-134.14 2472,-109 2462.91,-107.43 2453.32,-105.33 2444.1,-103.1"/>
<polygon fill="midnightblue" stroke="midnightblue" points="2885.46,-154.32 2895.63,-151.33 2885.81,-147.33 2885.46,-154.32"/>
</g>
<!-- Node13 -->
<g id="node13" class="node">
<title>Node13</title>
<g id="a_node13"><a xlink:href="../../d5/db2/ZoneEvent_8cpp.html" target="_top" xlink:title=" ">
<polygon fill="white" stroke="black" points="2481,-78.5 2481,-97.5 2639,-97.5 2639,-78.5 2481,-78.5"/>
<text text-anchor="middle" x="2560" y="-85.5" font-family="Helvetica,sans-Serif" font-size="10.00">src/core/audit/ZoneEvent.cpp</text>
</a>
</g>
</g>
<!-- Node1&#45;&gt;Node13 -->
<g id="edge13" class="edge">
<title>Node1&#45;&gt;Node13</title>
<path fill="none" stroke="midnightblue" d="M2885.47,-144.86C2822.3,-136.72 2729.42,-123.83 2649,-109 2631.09,-105.7 2611.31,-101.33 2594.96,-97.51"/>
<polygon fill="midnightblue" stroke="midnightblue" points="2885.37,-148.38 2895.73,-146.18 2886.26,-141.43 2885.37,-148.38"/>
</g>
<!-- Node14 -->
<g id="node14" class="node">
<title>Node14</title>
<g id="a_node14"><a xlink:href="../../de/d09/AccessPointService_8hpp.html" target="_top" xlink:title=" ">
<polygon fill="white" stroke="red" points="1201.5,-73 1201.5,-103 1342.5,-103 1342.5,-73 1201.5,-73"/>
<text text-anchor="start" x="1209.5" y="-91" font-family="Helvetica,sans-Serif" font-size="10.00">src/core/auth/AccessPoint</text>
<text text-anchor="middle" x="1272" y="-80" font-family="Helvetica,sans-Serif" font-size="10.00">Service.hpp</text>
</a>
</g>
</g>
<!-- Node1&#45;&gt;Node14 -->
<g id="edge14" class="edge">
<title>Node1&#45;&gt;Node14</title>
<path fill="none" stroke="midnightblue" d="M2885.32,-154.09C2610.13,-154.08 1653.15,-150.95 1351,-109 1341.05,-107.62 1330.54,-105.47 1320.55,-103.07"/>
<polygon fill="midnightblue" stroke="midnightblue" points="2885.59,-157.59 2895.59,-154.09 2885.59,-150.59 2885.59,-157.59"/>
</g>
<!-- Node17 -->
<g id="node16" class="node">
<title>Node17</title>
<g id="a_node16"><a xlink:href="../../dd/d7e/AccessPointSerializer_8cpp.html" target="_top" xlink:title=" ">
<polygon fill="white" stroke="black" points="2657.5,-73 2657.5,-103 2800.5,-103 2800.5,-73 2657.5,-73"/>
<text text-anchor="start" x="2665.5" y="-91" font-family="Helvetica,sans-Serif" font-size="10.00">src/core/auth/serializers</text>
<text text-anchor="middle" x="2729" y="-80" font-family="Helvetica,sans-Serif" font-size="10.00">/AccessPointSerializer.cpp</text>
</a>
</g>
</g>
<!-- Node1&#45;&gt;Node17 -->
<g id="edge17" class="edge">
<title>Node1&#45;&gt;Node17</title>
<path fill="none" stroke="midnightblue" d="M2919.58,-142.63C2880.42,-131.61 2820.94,-114.87 2778.85,-103.03"/>
<polygon fill="midnightblue" stroke="midnightblue" points="2918.75,-146.03 2929.32,-145.37 2920.65,-139.29 2918.75,-146.03"/>
</g>
<!-- Node18 -->
<g id="node17" class="node">
<title>Node18</title>
<g id="a_node17"><a xlink:href="../../d8/da2/DoorSerializer_8cpp.html" target="_top" xlink:title=" ">
<polygon fill="white" stroke="black" points="2818.5,-73 2818.5,-103 2951.5,-103 2951.5,-73 2818.5,-73"/>
<text text-anchor="start" x="2826.5" y="-91" font-family="Helvetica,sans-Serif" font-size="10.00">src/core/auth/serializers</text>
<text text-anchor="middle" x="2885" y="-80" font-family="Helvetica,sans-Serif" font-size="10.00">/DoorSerializer.cpp</text>
</a>
</g>
</g>
<!-- Node1&#45;&gt;Node18 -->
<g id="edge18" class="edge">
<title>Node1&#45;&gt;Node18</title>
<path fill="none" stroke="midnightblue" d="M2942.03,-138.43C2929.63,-127.68 2913.27,-113.5 2901.26,-103.09"/>
<polygon fill="midnightblue" stroke="midnightblue" points="2940.04,-141.33 2949.89,-145.23 2944.62,-136.04 2940.04,-141.33"/>
</g>
<!-- Node19 -->
<g id="node18" class="node">
<title>Node19</title>
<g id="a_node18"><a xlink:href="../../db/d60/GroupSerializer_8cpp.html" target="_top" xlink:title=" ">
<polygon fill="white" stroke="black" points="2969.5,-73 2969.5,-103 3102.5,-103 3102.5,-73 2969.5,-73"/>
<text text-anchor="start" x="2977.5" y="-91" font-family="Helvetica,sans-Serif" font-size="10.00">src/core/auth/serializers</text>
<text text-anchor="middle" x="3036" y="-80" font-family="Helvetica,sans-Serif" font-size="10.00">/GroupSerializer.cpp</text>
</a>
</g>
</g>
<!-- Node1&#45;&gt;Node19 -->
<g id="edge19" class="edge">
<title>Node1&#45;&gt;Node19</title>
<path fill="none" stroke="midnightblue" d="M2978.21,-138.43C2990.78,-127.68 3007.35,-113.5 3019.53,-103.09"/>
<polygon fill="midnightblue" stroke="midnightblue" points="2975.57,-136.07 2970.25,-145.23 2980.12,-141.39 2975.57,-136.07"/>
</g>
<!-- Node20 -->
<g id="node19" class="node">
<title>Node20</title>
<g id="a_node19"><a xlink:href="../../d6/d42/UserGroupMembershipSerializer_8cpp.html" target="_top" xlink:title=" ">
<polygon fill="white" stroke="black" points="3120.5,-73 3120.5,-103 3317.5,-103 3317.5,-73 3120.5,-73"/>
<text text-anchor="start" x="3128.5" y="-91" font-family="Helvetica,sans-Serif" font-size="10.00">src/core/auth/serializers</text>
<text text-anchor="middle" x="3219" y="-80" font-family="Helvetica,sans-Serif" font-size="10.00">/UserGroupMembershipSerializer.cpp</text>
</a>
</g>
</g>
<!-- Node1&#45;&gt;Node20 -->
<g id="edge20" class="edge">
<title>Node1&#45;&gt;Node20</title>
<path fill="none" stroke="midnightblue" d="M3003.92,-142.98C3047.76,-131.97 3115.3,-115.02 3162.98,-103.06"/>
<polygon fill="midnightblue" stroke="midnightblue" points="3002.97,-139.61 2994.13,-145.44 3004.68,-146.4 3002.97,-139.61"/>
</g>
<!-- Node21 -->
<g id="node20" class="node">
<title>Node21</title>
<g id="a_node20"><a xlink:href="../../d3/da9/UserSerializer_8cpp.html" target="_top" xlink:title=" ">
<polygon fill="white" stroke="black" points="3335.5,-73 3335.5,-103 3468.5,-103 3468.5,-73 3335.5,-73"/>
<text text-anchor="start" x="3343.5" y="-91" font-family="Helvetica,sans-Serif" font-size="10.00">src/core/auth/serializers</text>
<text text-anchor="middle" x="3402" y="-80" font-family="Helvetica,sans-Serif" font-size="10.00">/UserSerializer.cpp</text>
</a>
</g>
</g>
<!-- Node1&#45;&gt;Node21 -->
<g id="edge21" class="edge">
<title>Node1&#45;&gt;Node21</title>
<path fill="none" stroke="midnightblue" d="M3034.28,-147.94C3108.76,-141.15 3226.48,-128.47 3327,-109 3335.6,-107.33 3344.67,-105.23 3353.41,-103.01"/>
<polygon fill="midnightblue" stroke="midnightblue" points="3033.71,-144.47 3024.07,-148.86 3034.34,-151.45 3033.71,-144.47"/>
</g>
<!-- Node22 -->
<g id="node21" class="node">
<title>Node22</title>
<g id="a_node21"><a xlink:href="../../da/dbe/ZoneSerializer_8cpp.html" target="_top" xlink:title=" ">
<polygon fill="white" stroke="black" points="2055.5,-0.5 2055.5,-30.5 2188.5,-30.5 2188.5,-0.5 2055.5,-0.5"/>
<text text-anchor="start" x="2063.5" y="-18.5" font-family="Helvetica,sans-Serif" font-size="10.00">src/core/auth/serializers</text>
<text text-anchor="middle" x="2122" y="-7.5" font-family="Helvetica,sans-Serif" font-size="10.00">/ZoneSerializer.cpp</text>
</a>
</g>
</g>
<!-- Node1&#45;&gt;Node22 -->
<g id="edge22" class="edge">
<title>Node1&#45;&gt;Node22</title>
<path fill="none" stroke="midnightblue" d="M2885.56,-153.47C2657.55,-151.47 1982.24,-142.71 1950,-109 1937.1,-95.51 1938.81,-81.94 1950,-67 1956.97,-57.69 2014.46,-42.03 2061.08,-30.61"/>
<polygon fill="midnightblue" stroke="midnightblue" points="2885.72,-156.97 2895.75,-153.55 2885.78,-149.97 2885.72,-156.97"/>
</g>
<!-- Node23 -->
<g id="node22" class="node">
<title>Node23</title>
<g id="a_node22"><a xlink:href="../../d6/d5a/CredentialSerializer_8cpp.html" target="_top" xlink:title=" ">
<polygon fill="white" stroke="black" points="3487,-73 3487,-103 3675,-103 3675,-73 3487,-73"/>
<text text-anchor="start" x="3495" y="-91" font-family="Helvetica,sans-Serif" font-size="10.00">src/core/credentials</text>
<text text-anchor="middle" x="3581" y="-80" font-family="Helvetica,sans-Serif" font-size="10.00">/serializers/CredentialSerializer.cpp</text>
</a>
</g>
</g>
<!-- Node1&#45;&gt;Node23 -->
<g id="edge23" class="edge">
<title>Node1&#45;&gt;Node23</title>
<path fill="none" stroke="midnightblue" d="M3034.12,-150.02C3134.92,-144.04 3320.7,-131.04 3478,-109 3489.73,-107.36 3502.14,-105.26 3514.13,-103.04"/>
<polygon fill="midnightblue" stroke="midnightblue" points="3033.82,-146.53 3024.04,-150.61 3034.23,-153.52 3033.82,-146.53"/>
</g>
<!-- Node24 -->
<g id="node23" class="node">
<title>Node24</title>
<g id="a_node23"><a xlink:href="../../d8/d1b/PinCodeSerializer_8cpp.html" target="_top" xlink:title=" ">
<polygon fill="white" stroke="black" points="3693,-73 3693,-103 3871,-103 3871,-73 3693,-73"/>
<text text-anchor="start" x="3701" y="-91" font-family="Helvetica,sans-Serif" font-size="10.00">src/core/credentials</text>
<text text-anchor="middle" x="3782" y="-80" font-family="Helvetica,sans-Serif" font-size="10.00">/serializers/PinCodeSerializer.cpp</text>
</a>
</g>
</g>
<!-- Node1&#45;&gt;Node24 -->
<g id="edge24" class="edge">
<title>Node1&#45;&gt;Node24</title>
<path fill="none" stroke="midnightblue" d="M3034.57,-152.78C3166.21,-149.88 3448.18,-140.24 3684,-109 3695.71,-107.45 3708.11,-105.31 3720.01,-103.01"/>
<polygon fill="midnightblue" stroke="midnightblue" points="3034.13,-149.29 3024.21,-153.01 3034.28,-156.29 3034.13,-149.29"/>
</g>
<!-- Node25 -->
<g id="node24" class="node">
<title>Node25</title>
<g id="a_node24"><a xlink:href="../../d4/d92/PolymorphicCredentialSerializer_8cpp.html" target="_top" xlink:title=" ">
<polygon fill="white" stroke="black" points="3889,-67.5 3889,-108.5 4073,-108.5 4073,-67.5 3889,-67.5"/>
<text text-anchor="start" x="3897" y="-96.5" font-family="Helvetica,sans-Serif" font-size="10.00">src/core/credentials</text>
<text text-anchor="start" x="3897" y="-85.5" font-family="Helvetica,sans-Serif" font-size="10.00">/serializers/PolymorphicCredential</text>
<text text-anchor="middle" x="3981" y="-74.5" font-family="Helvetica,sans-Serif" font-size="10.00">Serializer.cpp</text>
</a>
</g>
</g>
<!-- Node1&#45;&gt;Node25 -->
<g id="edge25" class="edge">
<title>Node1&#45;&gt;Node25</title>
<path fill="none" stroke="midnightblue" d="M3034.13,-154.05C3190.88,-153.35 3567.24,-147.4 3880,-109 3882.93,-108.64 3885.9,-108.24 3888.89,-107.82"/>
<polygon fill="midnightblue" stroke="midnightblue" points="3034.12,-150.55 3024.13,-154.09 3034.14,-157.55 3034.12,-150.55"/>
</g>
<!-- Node26 -->
<g id="node25" class="node">
<title>Node26</title>
<g id="a_node25"><a xlink:href="../../d3/d20/RFIDCardSerializer_8cpp.html" target="_top" xlink:title=" ">
<polygon fill="white" stroke="black" points="4091,-73 4091,-103 4275,-103 4275,-73 4091,-73"/>
<text text-anchor="start" x="4099" y="-91" font-family="Helvetica,sans-Serif" font-size="10.00">src/core/credentials</text>
<text text-anchor="middle" x="4183" y="-80" font-family="Helvetica,sans-Serif" font-size="10.00">/serializers/RFIDCardSerializer.cpp</text>
</a>
</g>
</g>
<!-- Node1&#45;&gt;Node26 -->
<g id="edge26" class="edge">
<title>Node1&#45;&gt;Node26</title>
<path fill="none" stroke="midnightblue" d="M3034.64,-152.52C3251.39,-147.99 3878.31,-133.1 4082,-109 4094.43,-107.53 4107.61,-105.37 4120.2,-103"/>
<polygon fill="midnightblue" stroke="midnightblue" points="3034.25,-149.03 3024.33,-152.74 3034.4,-156.03 3034.25,-149.03"/>
</g>
<!-- Node27 -->
<g id="node26" class="node">
<title>Node27</title>
<g id="a_node26"><a xlink:href="../../d0/d05/AccessPointUpdateSerializer_8cpp.html" target="_top" xlink:title=" ">
<polygon fill="white" stroke="black" points="4293.5,-73 4293.5,-103 4472.5,-103 4472.5,-73 4293.5,-73"/>
<text text-anchor="start" x="4301.5" y="-91" font-family="Helvetica,sans-Serif" font-size="10.00">src/core/update/serializers</text>
<text text-anchor="middle" x="4383" y="-80" font-family="Helvetica,sans-Serif" font-size="10.00">/AccessPointUpdateSerializer.cpp</text>
</a>
</g>
</g>
<!-- Node1&#45;&gt;Node27 -->
<g id="edge27" class="edge">
<title>Node1&#45;&gt;Node27</title>
<path fill="none" stroke="midnightblue" d="M3034.47,-153.09C3276.49,-149.88 4039.24,-137.68 4284,-109 4296.28,-107.56 4309.3,-105.4 4321.73,-103.02"/>
<polygon fill="midnightblue" stroke="midnightblue" points="3034.32,-149.59 3024.37,-153.22 3034.41,-156.59 3034.32,-149.59"/>
</g>
<!-- Node28 -->
<g id="node27" class="node">
<title>Node28</title>
<g id="a_node27"><a xlink:href="../../d8/d0b/UpdateDescriptorSerializer_8cpp.html" target="_top" xlink:title=" ">
<polygon fill="white" stroke="black" points="1372,-0.5 1372,-30.5 1542,-30.5 1542,-0.5 1372,-0.5"/>
<text text-anchor="start" x="1380" y="-18.5" font-family="Helvetica,sans-Serif" font-size="10.00">src/core/update/serializers</text>
<text text-anchor="middle" x="1457" y="-7.5" font-family="Helvetica,sans-Serif" font-size="10.00">/UpdateDescriptorSerializer.cpp</text>
</a>
</g>
</g>
<!-- Node1&#45;&gt;Node28 -->
<g id="edge28" class="edge">
<title>Node1&#45;&gt;Node28</title>
<path fill="none" stroke="midnightblue" d="M2885.36,-154.08C2620.21,-154.03 1733.1,-150.7 1613,-109 1583.27,-98.68 1582.77,-83.54 1556,-67 1533.84,-53.31 1507.52,-40.02 1487.59,-30.51"/>
<polygon fill="midnightblue" stroke="midnightblue" points="2885.65,-157.58 2895.65,-154.08 2885.65,-150.58 2885.65,-157.58"/>
</g>
<!-- Node29 -->
<g id="node28" class="node">
<title>Node29</title>
<g id="a_node28"><a xlink:href="../../df/d48/UpdateSerializer_8cpp.html" target="_top" xlink:title=" ">
<polygon fill="white" stroke="black" points="4490.5,-73 4490.5,-103 4635.5,-103 4635.5,-73 4490.5,-73"/>
<text text-anchor="start" x="4498.5" y="-91" font-family="Helvetica,sans-Serif" font-size="10.00">src/core/update/serializers</text>
<text text-anchor="middle" x="4563" y="-80" font-family="Helvetica,sans-Serif" font-size="10.00">/UpdateSerializer.cpp</text>
</a>
</g>
</g>
<!-- Node1&#45;&gt;Node29 -->
<g id="edge29" class="edge">
<title>Node1&#45;&gt;Node29</title>
<path fill="none" stroke="midnightblue" d="M3034.6,-153.89C3299.98,-153.18 4197.53,-147.87 4482,-109 4492.19,-107.61 4502.96,-105.45 4513.2,-103.06"/>
<polygon fill="midnightblue" stroke="midnightblue" points="3034.3,-150.39 3024.31,-153.92 3034.32,-157.39 3034.3,-150.39"/>
</g>
<!-- Node30 -->
<g id="node29" class="node">
<title>Node30</title>
<g id="a_node29"><a xlink:href="../../d2/d87/UpdateService_8hpp.html" target="_top" xlink:title=" ">
<polygon fill="white" stroke="red" points="1360.5,-78.5 1360.5,-97.5 1547.5,-97.5 1547.5,-78.5 1360.5,-78.5"/>
<text text-anchor="middle" x="1454" y="-85.5" font-family="Helvetica,sans-Serif" font-size="10.00">src/core/update/UpdateService.hpp</text>
</a>
</g>
</g>
<!-- Node1&#45;&gt;Node30 -->
<g id="edge30" class="edge">
<title>Node1&#45;&gt;Node30</title>
<path fill="none" stroke="midnightblue" d="M2885.62,-153.11C2634.82,-149.86 1821.32,-137.35 1561,-109 1537.89,-106.48 1512.29,-101.77 1491.92,-97.55"/>
<polygon fill="midnightblue" stroke="midnightblue" points="2885.68,-156.61 2895.73,-153.24 2885.77,-149.61 2885.68,-156.61"/>
</g>
<!-- Node39 -->
<g id="node30" class="node">
<title>Node39</title>
<g id="a_node30"><a xlink:href="../../dd/d50/HardwareService_8hpp.html" target="_top" xlink:title=" ">
<polygon fill="white" stroke="red" points="1640.5,-78.5 1640.5,-97.5 1827.5,-97.5 1827.5,-78.5 1640.5,-78.5"/>
<text text-anchor="middle" x="1734" y="-85.5" font-family="Helvetica,sans-Serif" font-size="10.00">src/hardware/HardwareService.hpp</text>
</a>
</g>
</g>
<!-- Node1&#45;&gt;Node39 -->
<g id="edge33" class="edge">
<title>Node1&#45;&gt;Node39</title>
<path fill="none" stroke="midnightblue" d="M2885.58,-154.71C2705.57,-155.63 2232.6,-153.24 1841,-109 1818.09,-106.41 1792.72,-101.75 1772.43,-97.58"/>
<polygon fill="midnightblue" stroke="midnightblue" points="2885.75,-158.21 2895.73,-154.66 2885.71,-151.21 2885.75,-158.21"/>
</g>
<!-- Node42 -->
<g id="node31" class="node">
<title>Node42</title>
<g id="a_node31"><a xlink:href="../../d6/d24/BuzzerSerializer_8cpp.html" target="_top" xlink:title=" ">
<polygon fill="white" stroke="black" points="1560.5,-0.5 1560.5,-30.5 1693.5,-30.5 1693.5,-0.5 1560.5,-0.5"/>
<text text-anchor="start" x="1568.5" y="-18.5" font-family="Helvetica,sans-Serif" font-size="10.00">src/hardware/serializers</text>
<text text-anchor="middle" x="1627" y="-7.5" font-family="Helvetica,sans-Serif" font-size="10.00">/BuzzerSerializer.cpp</text>
</a>
</g>
</g>
<!-- Node1&#45;&gt;Node42 -->
<g id="edge38" class="edge">
<title>Node1&#45;&gt;Node42</title>
<path fill="none" stroke="midnightblue" d="M2885.47,-154.24C2611.78,-154.78 1675.78,-153.36 1631,-109 1610.45,-88.64 1616.82,-51.18 1622.41,-30.73"/>
<polygon fill="midnightblue" stroke="midnightblue" points="2885.7,-157.74 2895.69,-154.22 2885.68,-150.74 2885.7,-157.74"/>
</g>
<!-- Node43 -->
<g id="node32" class="node">
<title>Node43</title>
<g id="a_node32"><a xlink:href="../../d4/d68/LEDSerializer_8cpp.html" target="_top" xlink:title=" ">
<polygon fill="white" stroke="black" points="1711.5,-0.5 1711.5,-30.5 1844.5,-30.5 1844.5,-0.5 1711.5,-0.5"/>
<text text-anchor="start" x="1719.5" y="-18.5" font-family="Helvetica,sans-Serif" font-size="10.00">src/hardware/serializers</text>
<text text-anchor="middle" x="1778" y="-7.5" font-family="Helvetica,sans-Serif" font-size="10.00">/LEDSerializer.cpp</text>
</a>
</g>
</g>
<!-- Node1&#45;&gt;Node43 -->
<g id="edge41" class="edge">
<title>Node1&#45;&gt;Node43</title>
<path fill="none" stroke="midnightblue" d="M2885.57,-153C2663.27,-149.7 2013.93,-137.69 1923,-109 1870.89,-92.56 1819.18,-52.36 1793.94,-30.76"/>
<polygon fill="midnightblue" stroke="midnightblue" points="2885.78,-156.5 2895.83,-153.15 2885.88,-149.5 2885.78,-156.5"/>
</g>
<!-- Node47 -->
<g id="node33" class="node">
<title>Node47</title>
<g id="a_node33"><a xlink:href="../../d6/d48/WiegandConfigSerializer_8cpp.html" target="_top" xlink:title=" ">
<polygon fill="white" stroke="black" points="1862.5,-0.5 1862.5,-30.5 2037.5,-30.5 2037.5,-0.5 1862.5,-0.5"/>
<text text-anchor="start" x="1870.5" y="-18.5" font-family="Helvetica,sans-Serif" font-size="10.00">src/modules/wiegand</text>
<text text-anchor="middle" x="1950" y="-7.5" font-family="Helvetica,sans-Serif" font-size="10.00">/ws/WiegandConfigSerializer.cpp</text>
</a>
</g>
</g>
<!-- Node1&#45;&gt;Node47 -->
<g id="edge54" class="edge">
<title>Node1&#45;&gt;Node47</title>
<path fill="none" stroke="midnightblue" d="M2885.4,-153.51C2655.25,-151.63 1969.7,-143.17 1937,-109 1916.82,-87.91 1931.44,-50.75 1941.91,-30.54"/>
<polygon fill="midnightblue" stroke="midnightblue" points="2885.66,-157.01 2895.69,-153.59 2885.72,-150.01 2885.66,-157.01"/>
</g>
<!-- Node48 -->
<g id="node34" class="node">
<title>Node48</title>
<g id="a_node34"><a xlink:href="../../db/da2/DeviceSerializer_8cpp.html" target="_top" xlink:title=" ">
<polygon fill="white" stroke="black" points="4653.5,-73 4653.5,-103 4786.5,-103 4786.5,-73 4653.5,-73"/>
<text text-anchor="start" x="4661.5" y="-91" font-family="Helvetica,sans-Serif" font-size="10.00">src/hardware/serializers</text>
<text text-anchor="middle" x="4720" y="-80" font-family="Helvetica,sans-Serif" font-size="10.00">/DeviceSerializer.cpp</text>
</a>
</g>
</g>
<!-- Node1&#45;&gt;Node48 -->
<g id="edge39" class="edge">
<title>Node1&#45;&gt;Node48</title>
<path fill="none" stroke="midnightblue" d="M3034.42,-154.32C3317.53,-155.19 4327.44,-154.93 4645,-109 4654.47,-107.63 4664.46,-105.48 4673.94,-103.09"/>
<polygon fill="midnightblue" stroke="midnightblue" points="3034.27,-150.82 3024.26,-154.29 3034.25,-157.82 3034.27,-150.82"/>
</g>
<!-- Node49 -->
<g id="node35" class="node">
<title>Node49</title>
<g id="a_node35"><a xlink:href="../../d3/dbb/GPIOSerializer_8cpp.html" target="_top" xlink:title=" ">
<polygon fill="white" stroke="black" points="4804.5,-73 4804.5,-103 4937.5,-103 4937.5,-73 4804.5,-73"/>
<text text-anchor="start" x="4812.5" y="-91" font-family="Helvetica,sans-Serif" font-size="10.00">src/hardware/serializers</text>
<text text-anchor="middle" x="4871" y="-80" font-family="Helvetica,sans-Serif" font-size="10.00">/GPIOSerializer.cpp</text>
</a>
</g>
</g>
<!-- Node1&#45;&gt;Node49 -->
<g id="edge40" class="edge">
<title>Node1&#45;&gt;Node49</title>
<path fill="none" stroke="midnightblue" d="M3034.28,-153.22C3355.89,-149.68 4619.94,-134.27 4796,-109 4805.6,-107.62 4815.74,-105.44 4825.35,-103.01"/>
<polygon fill="midnightblue" stroke="midnightblue" points="3034.1,-149.72 3024.14,-153.33 3034.18,-156.72 3034.1,-149.72"/>
</g>
<!-- Node50 -->
<g id="node36" class="node">
<title>Node50</title>
<g id="a_node36"><a xlink:href="../../d3/d50/RFIDReaderSerializer_8cpp.html" target="_top" xlink:title=" ">
<polygon fill="white" stroke="black" points="4955.5,-73 4955.5,-103 5098.5,-103 5098.5,-73 4955.5,-73"/>
<text text-anchor="start" x="4963.5" y="-91" font-family="Helvetica,sans-Serif" font-size="10.00">src/hardware/serializers</text>
<text text-anchor="middle" x="5027" y="-80" font-family="Helvetica,sans-Serif" font-size="10.00">/RFIDReaderSerializer.cpp</text>
</a>
</g>
</g>
<!-- Node1&#45;&gt;Node50 -->
<g id="edge42" class="edge">
<title>Node1&#45;&gt;Node50</title>
<path fill="none" stroke="midnightblue" d="M3034.19,-153.3C3371.83,-149.96 4755.08,-134.84 4947,-109 4957.22,-107.62 4968.01,-105.44 4978.26,-103.01"/>
<polygon fill="midnightblue" stroke="midnightblue" points="3034,-149.8 3024.04,-153.4 3034.07,-156.8 3034,-149.8"/>
</g>
<!-- Node51 -->
<g id="node37" class="node">
<title>Node51</title>
<g id="a_node37"><a xlink:href="../../d2/dc7/led-buzzer_2ws_2CRUDHandler_8cpp.html" target="_top" xlink:title=" ">
<polygon fill="white" stroke="black" points="5117,-73 5117,-103 5247,-103 5247,-73 5117,-73"/>
<text text-anchor="start" x="5125" y="-91" font-family="Helvetica,sans-Serif" font-size="10.00">src/modules/led&#45;buzzer</text>
<text text-anchor="middle" x="5182" y="-80" font-family="Helvetica,sans-Serif" font-size="10.00">/ws/CRUDHandler.cpp</text>
</a>
</g>
</g>
<!-- Node1&#45;&gt;Node51 -->
<g id="edge43" class="edge">
<title>Node1&#45;&gt;Node51</title>
<path fill="none" stroke="midnightblue" d="M3034.34,-153.51C3388.91,-151.05 4899.66,-138.88 5108,-109 5117.48,-107.64 5127.49,-105.46 5136.97,-103.04"/>
<polygon fill="midnightblue" stroke="midnightblue" points="3034.17,-150.02 3024.19,-153.58 3034.21,-157.02 3034.17,-150.02"/>
</g>
<!-- Node52 -->
<g id="node38" class="node">
<title>Node52</title>
<g id="a_node38"><a xlink:href="../../d7/d0d/pifacedigital_2CRUDHandler_8cpp.html" target="_top" xlink:title=" ">
<polygon fill="white" stroke="black" points="5265,-73 5265,-103 5405,-103 5405,-73 5265,-73"/>
<text text-anchor="start" x="5273" y="-91" font-family="Helvetica,sans-Serif" font-size="10.00">src/modules/pifacedigital</text>
<text text-anchor="middle" x="5335" y="-80" font-family="Helvetica,sans-Serif" font-size="10.00">/CRUDHandler.cpp</text>
</a>
</g>
</g>
<!-- Node1&#45;&gt;Node52 -->
<g id="edge44" class="edge">
<title>Node1&#45;&gt;Node52</title>
<path fill="none" stroke="midnightblue" d="M3034.29,-153.55C3403.49,-151.19 5032.01,-139.14 5256,-109 5266.1,-107.64 5276.76,-105.46 5286.88,-103.04"/>
<polygon fill="midnightblue" stroke="midnightblue" points="3034.23,-150.05 3024.25,-153.62 3034.28,-157.05 3034.23,-150.05"/>
</g>
<!-- Node53 -->
<g id="node39" class="node">
<title>Node53</title>
<g id="a_node39"><a xlink:href="../../d7/d35/PFGPIO_8cpp.html" target="_top" xlink:title=" ">
<polygon fill="white" stroke="black" points="5423,-73 5423,-103 5563,-103 5563,-73 5423,-73"/>
<text text-anchor="start" x="5431" y="-91" font-family="Helvetica,sans-Serif" font-size="10.00">src/modules/pifacedigital</text>
<text text-anchor="middle" x="5493" y="-80" font-family="Helvetica,sans-Serif" font-size="10.00">/PFGPIO.cpp</text>
</a>
</g>
</g>
<!-- Node1&#45;&gt;Node53 -->
<g id="edge45" class="edge">
<title>Node1&#45;&gt;Node53</title>
<path fill="none" stroke="midnightblue" d="M3034.34,-153.65C3418.86,-151.72 5173.54,-141.21 5414,-109 5424.1,-107.65 5434.76,-105.47 5444.88,-103.05"/>
<polygon fill="midnightblue" stroke="midnightblue" points="3034.15,-150.15 3024.17,-153.7 3034.18,-157.15 3034.15,-150.15"/>
</g>
<!-- Node54 -->
<g id="node40" class="node">
<title>Node54</title>
<g id="a_node40"><a xlink:href="../../d2/d9a/SMTPServerInfoSerializer_8cpp.html" target="_top" xlink:title=" ">
<polygon fill="white" stroke="black" points="5581.5,-73 5581.5,-103 5746.5,-103 5746.5,-73 5581.5,-73"/>
<text text-anchor="start" x="5589.5" y="-91" font-family="Helvetica,sans-Serif" font-size="10.00">src/modules/smtp/SMTPServer</text>
<text text-anchor="middle" x="5664" y="-80" font-family="Helvetica,sans-Serif" font-size="10.00">InfoSerializer.cpp</text>
</a>
</g>
</g>
<!-- Node1&#45;&gt;Node54 -->
<g id="edge46" class="edge">
<title>Node1&#45;&gt;Node54</title>
<path fill="none" stroke="midnightblue" d="M3034.52,-153.59C3434.13,-151.28 5314.54,-138.91 5572,-109 5583.69,-107.64 5596.08,-105.47 5607.86,-103.04"/>
<polygon fill="midnightblue" stroke="midnightblue" points="3034.22,-150.09 3024.25,-153.65 3034.27,-157.09 3034.22,-150.09"/>
</g>
<!-- Node55 -->
<g id="node41" class="node">
<title>Node55</title>
<g id="a_node41"><a xlink:href="../../d1/d50/AccessOverview_8cpp.html" target="_top" xlink:title=" ">
<polygon fill="white" stroke="black" points="5765,-73 5765,-103 5921,-103 5921,-73 5765,-73"/>
<text text-anchor="start" x="5773" y="-91" font-family="Helvetica,sans-Serif" font-size="10.00">src/modules/websock</text>
<text text-anchor="middle" x="5843" y="-80" font-family="Helvetica,sans-Serif" font-size="10.00">&#45;api/api/AccessOverview.cpp</text>
</a>
</g>
</g>
<!-- Node1&#45;&gt;Node55 -->
<g id="edge47" class="edge">
<title>Node1&#45;&gt;Node55</title>
<path fill="none" stroke="midnightblue" d="M3034.36,-153.74C3450.27,-152.13 5479.4,-142.64 5756,-109 5767.08,-107.65 5778.81,-105.48 5789.94,-103.06"/>
<polygon fill="midnightblue" stroke="midnightblue" points="3034.25,-150.24 3024.26,-153.77 3034.27,-157.24 3034.25,-150.24"/>
</g>
<!-- Node56 -->
<g id="node42" class="node">
<title>Node56</title>
<g id="a_node42"><a xlink:href="../../da/d62/AuditGet_8cpp.html" target="_top" xlink:title=" ">
<polygon fill="white" stroke="black" points="5939,-73 5939,-103 6061,-103 6061,-73 5939,-73"/>
<text text-anchor="start" x="5947" y="-91" font-family="Helvetica,sans-Serif" font-size="10.00">src/modules/websock</text>
<text text-anchor="middle" x="6000" y="-80" font-family="Helvetica,sans-Serif" font-size="10.00">&#45;api/api/AuditGet.cpp</text>
</a>
</g>
</g>
<!-- Node1&#45;&gt;Node56 -->
<g id="edge48" class="edge">
<title>Node1&#45;&gt;Node56</title>
<path fill="none" stroke="midnightblue" d="M3034.46,-154.04C3465.93,-154.13 5636.18,-152.42 5930,-109 5939,-107.67 5948.48,-105.51 5957.45,-103.08"/>
<polygon fill="midnightblue" stroke="midnightblue" points="3034.3,-150.54 3024.3,-154.04 3034.3,-157.54 3034.3,-150.54"/>
</g>
<!-- Node57 -->
<g id="node43" class="node">
<title>Node57</title>
<g id="a_node43"><a xlink:href="../../d0/d99/LogGet_8cpp.html" target="_top" xlink:title=" ">
<polygon fill="white" stroke="black" points="6079,-73 6079,-103 6201,-103 6201,-73 6079,-73"/>
<text text-anchor="start" x="6087" y="-91" font-family="Helvetica,sans-Serif" font-size="10.00">src/modules/websock</text>
<text text-anchor="middle" x="6140" y="-80" font-family="Helvetica,sans-Serif" font-size="10.00">&#45;api/api/LogGet.cpp</text>
</a>
</g>
</g>
<!-- Node1&#45;&gt;Node57 -->
<g id="edge49" class="edge">
<title>Node1&#45;&gt;Node57</title>
<path fill="none" stroke="midnightblue" d="M3034.4,-154.1C3477.63,-154.52 5761.5,-154.48 6070,-109 6079,-107.67 6088.48,-105.51 6097.45,-103.09"/>
<polygon fill="midnightblue" stroke="midnightblue" points="3034.27,-150.6 3024.27,-154.09 3034.27,-157.6 3034.27,-150.6"/>
</g>
<!-- Node58 -->
<g id="node44" class="node">
<title>Node58</title>
<g id="a_node44"><a xlink:href="../../df/dc4/MembershipCRUD_8cpp.html" target="_top" xlink:title=" ">
<polygon fill="white" stroke="black" points="6219,-73 6219,-103 6385,-103 6385,-73 6219,-73"/>
<text text-anchor="start" x="6227" y="-91" font-family="Helvetica,sans-Serif" font-size="10.00">src/modules/websock</text>
<text text-anchor="middle" x="6302" y="-80" font-family="Helvetica,sans-Serif" font-size="10.00">&#45;api/api/MembershipCRUD.cpp</text>
</a>
</g>
</g>
<!-- Node1&#45;&gt;Node58 -->
<g id="edge50" class="edge">
<title>Node1&#45;&gt;Node58</title>
<path fill="none" stroke="midnightblue" d="M3034.05,-153.86C3487.95,-152.91 5885.38,-146.15 6210,-109 6221.69,-107.66 6234.08,-105.49 6245.86,-103.07"/>
<polygon fill="midnightblue" stroke="midnightblue" points="3034,-150.36 3024,-153.88 3034.01,-157.36 3034,-150.36"/>
</g>
<!-- Node59 -->
<g id="node45" class="node">
<title>Node59</title>
<g id="a_node45"><a xlink:href="../../d8/d3a/Service_8hpp.html" target="_top" xlink:title=" ">
<polygon fill="white" stroke="red" points="1061,-73 1061,-103 1183,-103 1183,-73 1061,-73"/>
<text text-anchor="start" x="1069" y="-91" font-family="Helvetica,sans-Serif" font-size="10.00">src/modules/websock</text>
<text text-anchor="middle" x="1122" y="-80" font-family="Helvetica,sans-Serif" font-size="10.00">&#45;api/Service.hpp</text>
</a>
</g>
</g>
<!-- Node1&#45;&gt;Node59 -->
<g id="edge51" class="edge">
<title>Node1&#45;&gt;Node59</title>
<path fill="none" stroke="midnightblue" d="M2885.13,-153.21C2570.1,-149.74 1360.71,-134.82 1192,-109 1183,-107.62 1173.53,-105.44 1164.56,-103.01"/>
<polygon fill="midnightblue" stroke="midnightblue" points="2885.48,-156.71 2895.52,-153.32 2885.56,-149.71 2885.48,-156.71"/>
</g>
<!-- Node80 -->
<g id="node46" class="node">
<title>Node80</title>
<g id="a_node46"><a xlink:href="../../d9/d74/wiegand_2ws_2CRUDHandler_8cpp.html" target="_top" xlink:title=" ">
<polygon fill="white" stroke="black" points="6403,-73 6403,-103 6525,-103 6525,-73 6403,-73"/>
<text text-anchor="start" x="6411" y="-91" font-family="Helvetica,sans-Serif" font-size="10.00">src/modules/wiegand</text>
<text text-anchor="middle" x="6464" y="-80" font-family="Helvetica,sans-Serif" font-size="10.00">/ws/CRUDHandler.cpp</text>
</a>
</g>
</g>
<!-- Node1&#45;&gt;Node80 -->
<g id="edge53" class="edge">
<title>Node1&#45;&gt;Node80</title>
<path fill="none" stroke="midnightblue" d="M3034.12,-154.21C3503.27,-155.36 6051.43,-159.27 6394,-109 6403,-107.68 6412.48,-105.52 6421.45,-103.1"/>
<polygon fill="midnightblue" stroke="midnightblue" points="3034.09,-150.71 3024.08,-154.18 3034.07,-157.71 3034.09,-150.71"/>
</g>
<!-- Node81 -->
<g id="node47" class="node">
<title>Node81</title>
<g id="a_node47"><a xlink:href="../../df/d40/JSONUtils_8cpp.html" target="_top" xlink:title=" ">
<polygon fill="white" stroke="black" points="6543,-78.5 6543,-97.5 6671,-97.5 6671,-78.5 6543,-78.5"/>
<text text-anchor="middle" x="6607" y="-85.5" font-family="Helvetica,sans-Serif" font-size="10.00">src/tools/JSONUtils.cpp</text>
</a>
</g>
</g>
<!-- Node1&#45;&gt;Node81 -->
<g id="edge55" class="edge">
<title>Node1&#45;&gt;Node81</title>
<path fill="none" stroke="midnightblue" d="M3034.42,-154.2C3515.44,-155.35 6176.5,-159.38 6534,-109 6550.27,-106.71 6568.05,-101.89 6581.99,-97.55"/>
<polygon fill="midnightblue" stroke="midnightblue" points="3034.14,-150.7 3024.13,-154.18 3034.12,-157.7 3034.14,-150.7"/>
</g>
<!-- Node82 -->
<g id="node48" class="node">
<title>Node82</title>
<g id="a_node48"><a xlink:href="../../d4/ded/ScheduleMappingSerializer_8cpp.html" target="_top" xlink:title=" ">
<polygon fill="white" stroke="black" points="2206.5,-0.5 2206.5,-30.5 2377.5,-30.5 2377.5,-0.5 2206.5,-0.5"/>
<text text-anchor="start" x="2214.5" y="-18.5" font-family="Helvetica,sans-Serif" font-size="10.00">src/tools/serializers</text>
<text text-anchor="middle" x="2292" y="-7.5" font-family="Helvetica,sans-Serif" font-size="10.00">/ScheduleMappingSerializer.cpp</text>
</a>
</g>
</g>
<!-- Node1&#45;&gt;Node82 -->
<g id="edge56" class="edge">
<title>Node1&#45;&gt;Node82</title>
<path fill="none" stroke="midnightblue" d="M2885.53,-152.65C2688.59,-148.71 2167.35,-135.78 2142,-109 2129.17,-95.44 2131.11,-82.16 2142,-67 2152.46,-52.44 2191.24,-39.6 2226.74,-30.51"/>
<polygon fill="midnightblue" stroke="midnightblue" points="2885.72,-156.15 2895.78,-152.85 2885.86,-149.15 2885.72,-156.15"/>
</g>
<!-- Node83 -->
<g id="node49" class="node">
<title>Node83</title>
<g id="a_node49"><a xlink:href="../../dc/db6/ScheduleSerializer_8cpp.html" target="_top" xlink:title=" ">
<polygon fill="white" stroke="black" points="6689.5,-73 6689.5,-103 6818.5,-103 6818.5,-73 6689.5,-73"/>
<text text-anchor="start" x="6697.5" y="-91" font-family="Helvetica,sans-Serif" font-size="10.00">src/tools/serializers</text>
<text text-anchor="middle" x="6754" y="-80" font-family="Helvetica,sans-Serif" font-size="10.00">/ScheduleSerializer.cpp</text>
</a>
</g>
</g>
<!-- Node1&#45;&gt;Node83 -->
<g id="edge57" class="edge">
<title>Node1&#45;&gt;Node83</title>
<path fill="none" stroke="midnightblue" d="M3034.27,-153.63C3542.51,-151.05 6492.96,-134.98 6680,-109 6689.49,-107.68 6699.5,-105.52 6708.98,-103.1"/>
<polygon fill="midnightblue" stroke="midnightblue" points="3034.1,-150.13 3024.12,-153.68 3034.14,-157.13 3034.1,-150.13"/>
</g>
<!-- Node84 -->
<g id="node50" class="node">
<title>Node84</title>
<g id="a_node50"><a xlink:href="../../d2/de6/ServiceRegistry_8hpp.html" target="_top" xlink:title=" ">
<polygon fill="white" stroke="red" points="1959.5,-73 1959.5,-103 2094.5,-103 2094.5,-73 1959.5,-73"/>
<text text-anchor="start" x="1967.5" y="-91" font-family="Helvetica,sans-Serif" font-size="10.00">src/tools/service/Service</text>
<text text-anchor="middle" x="2027" y="-80" font-family="Helvetica,sans-Serif" font-size="10.00">Registry.hpp</text>
</a>
</g>
</g>
<!-- Node1&#45;&gt;Node84 -->
<g id="edge58" class="edge">
<title>Node1&#45;&gt;Node84</title>
<path fill="none" stroke="midnightblue" d="M2885.45,-154.71C2736.88,-155.09 2393.64,-150.86 2109,-109 2099,-107.53 2088.43,-105.4 2078.33,-103.07"/>
<polygon fill="midnightblue" stroke="midnightblue" points="2885.82,-158.21 2895.81,-154.67 2885.8,-151.21 2885.82,-158.21"/>
</g>
<!-- Node7&#45;&gt;Node8 -->
<g id="edge7" class="edge">
<title>Node7&#45;&gt;Node8</title>
<path fill="none" stroke="midnightblue" d="M925.01,-69.46C890.79,-57.46 846.01,-41.76 814.12,-30.57"/>
<polygon fill="midnightblue" stroke="midnightblue" points="924.21,-72.9 934.81,-72.9 926.53,-66.29 924.21,-72.9"/>
</g>
<!-- Node9 -->
<g id="node9" class="node">
<title>Node9</title>
<g id="a_node9"><a xlink:href="../../dd/d24/kernel_8cpp.html" target="_top" xlink:title=" ">
<polygon fill="white" stroke="black" points="1246,-6 1246,-25 1354,-25 1354,-6 1246,-6"/>
<text text-anchor="middle" x="1300" y="-13" font-family="Helvetica,sans-Serif" font-size="10.00">src/core/kernel.cpp</text>
</a>
</g>
</g>
<!-- Node7&#45;&gt;Node9 -->
<g id="edge8" class="edge">
<title>Node7&#45;&gt;Node9</title>
<path fill="none" stroke="midnightblue" d="M1037.52,-70.42C1042.41,-69.23 1047.28,-68.07 1052,-67 1133.25,-48.52 1154.47,-48.21 1236,-31 1244.81,-29.14 1254.27,-27.05 1263.15,-25.04"/>
<polygon fill="midnightblue" stroke="midnightblue" points="1036.36,-67.1 1027.5,-72.91 1038.05,-73.9 1036.36,-67.1"/>
</g>
<!-- Node10 -->
<g id="node10" class="node">
<title>Node10</title>
<g id="a_node10"><a xlink:href="../../da/d6f/SMTPModule_8cpp.html" target="_top" xlink:title=" ">
<polygon fill="white" stroke="black" points="878,-6 878,-25 1068,-25 1068,-6 878,-6"/>
<text text-anchor="middle" x="973" y="-13" font-family="Helvetica,sans-Serif" font-size="10.00">src/modules/smtp/SMTPModule.cpp</text>
</a>
</g>
</g>
<!-- Node7&#45;&gt;Node10 -->
<g id="edge9" class="edge">
<title>Node7&#45;&gt;Node10</title>
<path fill="none" stroke="midnightblue" d="M974.31,-62.59C973.94,-49.71 973.52,-34.7 973.25,-25.39"/>
<polygon fill="midnightblue" stroke="midnightblue" points="970.81,-62.84 974.6,-72.73 977.81,-62.64 970.81,-62.84"/>
</g>
<!-- Node14&#45;&gt;Node9 -->
<g id="edge16" class="edge">
<title>Node14&#45;&gt;Node9</title>
<path fill="none" stroke="midnightblue" d="M1281.39,-63.36C1286.57,-50.32 1292.7,-34.88 1296.47,-25.39"/>
<polygon fill="midnightblue" stroke="midnightblue" points="1278.1,-62.15 1277.67,-72.73 1284.61,-64.73 1278.1,-62.15"/>
</g>
<!-- Node15 -->
<g id="node15" class="node">
<title>Node15</title>
<g id="a_node15"><a xlink:href="../../dc/d02/AccessPointService_8cpp.html" target="_top" xlink:title=" ">
<polygon fill="white" stroke="black" points="1086.5,-0.5 1086.5,-30.5 1227.5,-30.5 1227.5,-0.5 1086.5,-0.5"/>
<text text-anchor="start" x="1094.5" y="-18.5" font-family="Helvetica,sans-Serif" font-size="10.00">src/core/auth/AccessPoint</text>
<text text-anchor="middle" x="1157" y="-7.5" font-family="Helvetica,sans-Serif" font-size="10.00">Service.cpp</text>
</a>
</g>
</g>
<!-- Node14&#45;&gt;Node15 -->
<g id="edge15" class="edge">
<title>Node14&#45;&gt;Node15</title>
<path fill="none" stroke="midnightblue" d="M1240.32,-67.58C1221.2,-55.86 1197.26,-41.18 1179.96,-30.57"/>
<polygon fill="midnightblue" stroke="midnightblue" points="1238.65,-70.66 1249,-72.9 1242.31,-64.69 1238.65,-70.66"/>
</g>
<!-- Node30&#45;&gt;Node9 -->
<g id="edge31" class="edge">
<title>Node30&#45;&gt;Node9</title>
<path fill="none" stroke="midnightblue" d="M1426,-74.18C1394.85,-59.92 1345.39,-37.28 1318.64,-25.03"/>
<polygon fill="midnightblue" stroke="midnightblue" points="1424.87,-77.52 1435.42,-78.5 1427.79,-71.15 1424.87,-77.52"/>
</g>
<!-- Node30&#45;&gt;Node28 -->
<g id="edge32" class="edge">
<title>Node30&#45;&gt;Node28</title>
<path fill="none" stroke="midnightblue" d="M1454.8,-68.24C1455.3,-56.41 1455.94,-41.38 1456.4,-30.58"/>
<polygon fill="midnightblue" stroke="midnightblue" points="1451.3,-68.22 1454.37,-78.36 1458.29,-68.51 1451.3,-68.22"/>
</g>
<!-- Node39&#45;&gt;Node9 -->
<g id="edge34" class="edge">
<title>Node39&#45;&gt;Node9</title>
<path fill="none" stroke="midnightblue" d="M1656.72,-77.09C1581.47,-67.02 1464,-50.22 1363,-31 1353.85,-29.26 1344.01,-27.12 1334.89,-25.03"/>
<polygon fill="midnightblue" stroke="midnightblue" points="1656.68,-80.61 1667.05,-78.46 1657.6,-73.67 1656.68,-80.61"/>
</g>
<!-- Node39&#45;&gt;Node42 -->
<g id="edge35" class="edge">
<title>Node39&#45;&gt;Node42</title>
<path fill="none" stroke="midnightblue" d="M1712.45,-72.8C1693.8,-60.51 1666.96,-42.83 1648.36,-30.58"/>
<polygon fill="midnightblue" stroke="midnightblue" points="1710.6,-75.78 1720.88,-78.36 1714.45,-69.93 1710.6,-75.78"/>
</g>
<!-- Node39&#45;&gt;Node43 -->
<g id="edge36" class="edge">
<title>Node39&#45;&gt;Node43</title>
<path fill="none" stroke="midnightblue" d="M1744.81,-69.68C1752.32,-57.65 1762.19,-41.83 1769.21,-30.58"/>
<polygon fill="midnightblue" stroke="midnightblue" points="1741.72,-68.02 1739.4,-78.36 1747.66,-71.73 1741.72,-68.02"/>
</g>
<!-- Node39&#45;&gt;Node47 -->
<g id="edge37" class="edge">
<title>Node39&#45;&gt;Node47</title>
<path fill="none" stroke="midnightblue" d="M1769.61,-75.38C1807.31,-63.07 1866.82,-43.65 1907.09,-30.51"/>
<polygon fill="midnightblue" stroke="midnightblue" points="1768.48,-72.07 1760.05,-78.5 1770.65,-78.72 1768.48,-72.07"/>
</g>
<!-- Node59&#45;&gt;Node10 -->
<g id="edge52" class="edge">
<title>Node59&#45;&gt;Node10</title>
<path fill="none" stroke="midnightblue" d="M1082.94,-68.52C1053.22,-54.46 1013.7,-35.76 991.04,-25.03"/>
<polygon fill="midnightblue" stroke="midnightblue" points="1081.67,-71.79 1092.21,-72.9 1084.66,-65.46 1081.67,-71.79"/>
</g>
<!-- Node84&#45;&gt;Node9 -->
<g id="edge60" class="edge">
<title>Node84&#45;&gt;Node9</title>
<path fill="none" stroke="midnightblue" d="M1949.36,-78.37C1914.7,-74.64 1873.32,-70.37 1836,-67 1626.03,-48.02 1571.43,-62.73 1363,-31 1353.12,-29.5 1342.5,-27.29 1332.84,-25.04"/>
<polygon fill="midnightblue" stroke="midnightblue" points="1949.11,-81.86 1959.42,-79.45 1949.86,-74.9 1949.11,-81.86"/>
</g>
<!-- Node84&#45;&gt;Node22 -->
<g id="edge59" class="edge">
<title>Node84&#45;&gt;Node22</title>
<path fill="none" stroke="midnightblue" d="M2054.48,-66.61C2070.08,-55.03 2089.22,-40.83 2103.13,-30.5"/>
<polygon fill="midnightblue" stroke="midnightblue" points="2052.17,-63.96 2046.22,-72.73 2056.34,-69.58 2052.17,-63.96"/>
</g>
<!-- Node84&#45;&gt;Node82 -->
<g id="edge61" class="edge">
<title>Node84&#45;&gt;Node82</title>
<path fill="none" stroke="midnightblue" d="M2089.42,-70.39C2134.9,-58.29 2195.85,-42.08 2238.97,-30.61"/>
<polygon fill="midnightblue" stroke="midnightblue" points="2088.44,-67.03 2079.67,-72.99 2090.24,-73.8 2088.44,-67.03"/>
</g>
</g>
</svg>
