<?xml version="1.0" encoding="UTF-8" standalone="no"?>
<!DOCTYPE svg PUBLIC "-//W3C//DTD SVG 1.1//EN"
 "http://www.w3.org/Graphics/SVG/1.1/DTD/svg11.dtd">
<!-- Generated by graphviz version 2.43.0 (0)
 -->
<!-- Title: Leosac::UserSecurityContext Pages: 1 -->
<svg width="170pt" height="353pt"
 viewBox="0.00 0.00 170.00 353.00" xmlns="http://www.w3.org/2000/svg" xmlns:xlink="http://www.w3.org/1999/xlink">
<g id="graph0" class="graph" transform="scale(1 1) rotate(0) translate(4 349)">
<title>Leosac::UserSecurityContext</title>
<polygon fill="white" stroke="transparent" points="-4,4 -4,-349 166,-349 166,4 -4,4"/>
<!-- Node1 -->
<g id="node1" class="node">
<title>Node1</title>
<g id="a_node1"><a xlink:title="A SecurityContext object for users.">
<polygon fill="#bfbfbf" stroke="black" points="2.5,-0.5 2.5,-19.5 159.5,-19.5 159.5,-0.5 2.5,-0.5"/>
<text text-anchor="middle" x="81" y="-7.5" font-family="Helvetica,sans-Serif" font-size="10.00">Leosac::UserSecurityContext</text>
</a>
</g>
</g>
<!-- Node2 -->
<g id="node2" class="node">
<title>Node2</title>
<g id="a_node2"><a xlink:href="../../db/d24/classLeosac_1_1SecurityContext.html" target="_top" xlink:title="A SecurityContext is used to query permission while doing an operation.">
<polygon fill="white" stroke="black" points="14,-57.5 14,-76.5 148,-76.5 148,-57.5 14,-57.5"/>
<text text-anchor="middle" x="81" y="-64.5" font-family="Helvetica,sans-Serif" font-size="10.00">Leosac::SecurityContext</text>
</a>
</g>
</g>
<!-- Node2&#45;&gt;Node1 -->
<g id="edge1" class="edge">
<title>Node2&#45;&gt;Node1</title>
<path fill="none" stroke="midnightblue" d="M81,-47.12C81,-37.82 81,-27.06 81,-19.71"/>
<polygon fill="midnightblue" stroke="midnightblue" points="77.5,-47.41 81,-57.41 84.5,-47.41 77.5,-47.41"/>
</g>
<!-- Node3 -->
<g id="node3" class="node">
<title>Node3</title>
<g id="a_node3"><a xlink:title=" ">
<polygon fill="white" stroke="#bfbfbf" points="0,-124.5 0,-143.5 162,-143.5 162,-124.5 0,-124.5"/>
<text text-anchor="middle" x="81" y="-131.5" font-family="Helvetica,sans-Serif" font-size="10.00">std::shared_ptr&lt; DBService &gt;</text>
</a>
</g>
</g>
<!-- Node3&#45;&gt;Node2 -->
<g id="edge2" class="edge">
<title>Node3&#45;&gt;Node2</title>
<path fill="none" stroke="#9a32cd" stroke-dasharray="5,2" d="M81,-114.04C81,-101.67 81,-86.12 81,-76.63"/>
<polygon fill="#9a32cd" stroke="#9a32cd" points="77.5,-114.23 81,-124.23 84.5,-114.23 77.5,-114.23"/>
<text text-anchor="middle" x="99" y="-98" font-family="Helvetica,sans-Serif" font-size="10.00"> dbsrv_</text>
</g>
<!-- Node4 -->
<g id="node4" class="node">
<title>Node4</title>
<g id="a_node4"><a xlink:href="../../d7/def/classLeosac_1_1DBService.html" target="_top" xlink:title="Provides various database&#45;related services to consumer.">
<polygon fill="white" stroke="black" points="27.5,-191.5 27.5,-210.5 134.5,-210.5 134.5,-191.5 27.5,-191.5"/>
<text text-anchor="middle" x="81" y="-198.5" font-family="Helvetica,sans-Serif" font-size="10.00">Leosac::DBService</text>
</a>
</g>
</g>
<!-- Node4&#45;&gt;Node3 -->
<g id="edge3" class="edge">
<title>Node4&#45;&gt;Node3</title>
<path fill="none" stroke="#9a32cd" stroke-dasharray="5,2" d="M81,-181.04C81,-168.67 81,-153.12 81,-143.63"/>
<polygon fill="#9a32cd" stroke="#9a32cd" points="77.5,-181.23 81,-191.23 84.5,-181.23 77.5,-181.23"/>
<text text-anchor="middle" x="89.5" y="-165" font-family="Helvetica,sans-Serif" font-size="10.00"> ptr</text>
</g>
<!-- Node5 -->
<g id="node5" class="node">
<title>Node5</title>
<g id="a_node5"><a xlink:title="STL class.">
<polygon fill="white" stroke="#bfbfbf" points="22,-258.5 22,-277.5 140,-277.5 140,-258.5 22,-258.5"/>
<text text-anchor="middle" x="81" y="-265.5" font-family="Helvetica,sans-Serif" font-size="10.00">std::shared_ptr&lt; T &gt;</text>
</a>
</g>
</g>
<!-- Node5&#45;&gt;Node4 -->
<g id="edge4" class="edge">
<title>Node5&#45;&gt;Node4</title>
<path fill="none" stroke="#9a32cd" stroke-dasharray="5,2" d="M81,-248.04C81,-235.67 81,-220.12 81,-210.63"/>
<polygon fill="#9a32cd" stroke="#9a32cd" points="77.5,-248.23 81,-258.23 84.5,-248.23 77.5,-248.23"/>
<text text-anchor="middle" x="108" y="-232" font-family="Helvetica,sans-Serif" font-size="10.00"> database_</text>
</g>
<!-- Node6 -->
<g id="node6" class="node">
<title>Node6</title>
<g id="a_node6"><a xlink:title=" ">
<polygon fill="white" stroke="#bfbfbf" points="66.5,-325.5 66.5,-344.5 95.5,-344.5 95.5,-325.5 66.5,-325.5"/>
<text text-anchor="middle" x="81" y="-332.5" font-family="Helvetica,sans-Serif" font-size="10.00">T</text>
</a>
</g>
</g>
<!-- Node6&#45;&gt;Node5 -->
<g id="edge5" class="edge">
<title>Node6&#45;&gt;Node5</title>
<path fill="none" stroke="#9a32cd" stroke-dasharray="5,2" d="M81,-315.04C81,-302.67 81,-287.12 81,-277.63"/>
<polygon fill="#9a32cd" stroke="#9a32cd" points="77.5,-315.23 81,-325.23 84.5,-315.23 77.5,-315.23"/>
<text text-anchor="middle" x="89.5" y="-299" font-family="Helvetica,sans-Serif" font-size="10.00"> ptr</text>
</g>
</g>
</svg>
