<?xml version="1.0" encoding="UTF-8" standalone="no"?>
<!DOCTYPE svg PUBLIC "-//W3C//DTD SVG 1.1//EN"
 "http://www.w3.org/Graphics/SVG/1.1/DTD/svg11.dtd">
<!-- Generated by graphviz version 2.43.0 (0)
 -->
<!-- Title: src/core/audit/IUserGroupMembershipEvent.hpp Pages: 1 -->
<svg width="725pt" height="173pt"
 viewBox="0.00 0.00 724.50 173.00" xmlns="http://www.w3.org/2000/svg" xmlns:xlink="http://www.w3.org/1999/xlink">
<g id="graph0" class="graph" transform="scale(1 1) rotate(0) translate(4 169)">
<title>src/core/audit/IUserGroupMembershipEvent.hpp</title>
<polygon fill="white" stroke="transparent" points="-4,4 -4,-169 720.5,-169 720.5,4 -4,4"/>
<!-- Node1 -->
<g id="node1" class="node">
<title>Node1</title>
<g id="a_node1"><a xlink:title=" ">
<polygon fill="#bfbfbf" stroke="black" points="318.5,-134.5 318.5,-164.5 458.5,-164.5 458.5,-134.5 318.5,-134.5"/>
<text text-anchor="start" x="326.5" y="-152.5" font-family="Helvetica,sans-Serif" font-size="10.00">src/core/audit/IUserGroup</text>
<text text-anchor="middle" x="388.5" y="-141.5" font-family="Helvetica,sans-Serif" font-size="10.00">MembershipEvent.hpp</text>
</a>
</g>
</g>
<!-- Node2 -->
<g id="node2" class="node">
<title>Node2</title>
<g id="a_node2"><a xlink:href="../../dc/d72/UserGroupMembershipEventSerializer_8cpp.html" target="_top" xlink:title=" ">
<polygon fill="white" stroke="black" points="0,-67.5 0,-97.5 225,-97.5 225,-67.5 0,-67.5"/>
<text text-anchor="start" x="8" y="-85.5" font-family="Helvetica,sans-Serif" font-size="10.00">src/core/audit/serializers</text>
<text text-anchor="middle" x="112.5" y="-74.5" font-family="Helvetica,sans-Serif" font-size="10.00">/UserGroupMembershipEventSerializer.cpp</text>
</a>
</g>
</g>
<!-- Node1&#45;&gt;Node2 -->
<g id="edge1" class="edge">
<title>Node1&#45;&gt;Node2</title>
<path fill="none" stroke="midnightblue" d="M318.94,-132.12C273.78,-121.48 215.52,-107.76 172.42,-97.61"/>
<polygon fill="midnightblue" stroke="midnightblue" points="318.42,-135.59 328.95,-134.48 320.02,-128.78 318.42,-135.59"/>
</g>
<!-- Node3 -->
<g id="node3" class="node">
<title>Node3</title>
<g id="a_node3"><a xlink:href="../../d1/d96/UserGroupMembershipEvent_8hpp.html" target="_top" xlink:title=" ">
<polygon fill="white" stroke="black" points="243,-67.5 243,-97.5 380,-97.5 380,-67.5 243,-67.5"/>
<text text-anchor="start" x="251" y="-85.5" font-family="Helvetica,sans-Serif" font-size="10.00">src/core/audit/UserGroup</text>
<text text-anchor="middle" x="311.5" y="-74.5" font-family="Helvetica,sans-Serif" font-size="10.00">MembershipEvent.hpp</text>
</a>
</g>
</g>
<!-- Node1&#45;&gt;Node3 -->
<g id="edge2" class="edge">
<title>Node1&#45;&gt;Node3</title>
<path fill="none" stroke="midnightblue" d="M364.08,-127.88C352.38,-118.01 338.66,-106.43 328.18,-97.58"/>
<polygon fill="midnightblue" stroke="midnightblue" points="361.89,-130.62 371.79,-134.4 366.41,-125.27 361.89,-130.62"/>
</g>
<!-- Node6 -->
<g id="node6" class="node">
<title>Node6</title>
<g id="a_node6"><a xlink:href="../../d1/de1/GroupCRUD_8cpp.html" target="_top" xlink:title=" ">
<polygon fill="white" stroke="black" points="398.5,-67.5 398.5,-97.5 532.5,-97.5 532.5,-67.5 398.5,-67.5"/>
<text text-anchor="start" x="406.5" y="-85.5" font-family="Helvetica,sans-Serif" font-size="10.00">src/modules/websock</text>
<text text-anchor="middle" x="465.5" y="-74.5" font-family="Helvetica,sans-Serif" font-size="10.00">&#45;api/api/GroupCRUD.cpp</text>
</a>
</g>
</g>
<!-- Node1&#45;&gt;Node6 -->
<g id="edge5" class="edge">
<title>Node1&#45;&gt;Node6</title>
<path fill="none" stroke="midnightblue" d="M412.92,-127.88C424.62,-118.01 438.34,-106.43 448.82,-97.58"/>
<polygon fill="midnightblue" stroke="midnightblue" points="410.59,-125.27 405.21,-134.4 415.11,-130.62 410.59,-125.27"/>
</g>
<!-- Node7 -->
<g id="node7" class="node">
<title>Node7</title>
<g id="a_node7"><a xlink:href="../../df/dc4/MembershipCRUD_8cpp.html" target="_top" xlink:title=" ">
<polygon fill="white" stroke="black" points="550.5,-67.5 550.5,-97.5 716.5,-97.5 716.5,-67.5 550.5,-67.5"/>
<text text-anchor="start" x="558.5" y="-85.5" font-family="Helvetica,sans-Serif" font-size="10.00">src/modules/websock</text>
<text text-anchor="middle" x="633.5" y="-74.5" font-family="Helvetica,sans-Serif" font-size="10.00">&#45;api/api/MembershipCRUD.cpp</text>
</a>
</g>
</g>
<!-- Node1&#45;&gt;Node7 -->
<g id="edge6" class="edge">
<title>Node1&#45;&gt;Node7</title>
<path fill="none" stroke="midnightblue" d="M451.26,-131.85C491.2,-121.25 542.37,-107.68 580.31,-97.61"/>
<polygon fill="midnightblue" stroke="midnightblue" points="450.13,-128.53 441.36,-134.48 451.92,-135.29 450.13,-128.53"/>
</g>
<!-- Node4 -->
<g id="node4" class="node">
<title>Node4</title>
<g id="a_node4"><a xlink:href="../../d4/dbe/AuditFactory_8cpp.html" target="_top" xlink:title=" ">
<polygon fill="white" stroke="black" points="144,-6 144,-25 309,-25 309,-6 144,-6"/>
<text text-anchor="middle" x="226.5" y="-13" font-family="Helvetica,sans-Serif" font-size="10.00">src/core/audit/AuditFactory.cpp</text>
</a>
</g>
</g>
<!-- Node3&#45;&gt;Node4 -->
<g id="edge3" class="edge">
<title>Node3&#45;&gt;Node4</title>
<path fill="none" stroke="midnightblue" d="M284.7,-61.01C268.92,-48.94 249.78,-34.3 237.87,-25.19"/>
<polygon fill="midnightblue" stroke="midnightblue" points="282.99,-64.1 293.06,-67.4 287.24,-58.54 282.99,-64.1"/>
</g>
<!-- Node5 -->
<g id="node5" class="node">
<title>Node5</title>
<g id="a_node5"><a xlink:href="../../d3/dac/UserGroupMembershipEvent_8cpp.html" target="_top" xlink:title=" ">
<polygon fill="white" stroke="black" points="327,-0.5 327,-30.5 464,-30.5 464,-0.5 327,-0.5"/>
<text text-anchor="start" x="335" y="-18.5" font-family="Helvetica,sans-Serif" font-size="10.00">src/core/audit/UserGroup</text>
<text text-anchor="middle" x="395.5" y="-7.5" font-family="Helvetica,sans-Serif" font-size="10.00">MembershipEvent.cpp</text>
</a>
</g>
</g>
<!-- Node3&#45;&gt;Node5 -->
<g id="edge4" class="edge">
<title>Node3&#45;&gt;Node5</title>
<path fill="none" stroke="midnightblue" d="M337.78,-61.17C350.62,-51.23 365.76,-39.51 377.31,-30.58"/>
<polygon fill="midnightblue" stroke="midnightblue" points="335.49,-58.51 329.73,-67.4 339.78,-64.04 335.49,-58.51"/>
</g>
</g>
</svg>
