<?xml version="1.0" encoding="UTF-8" standalone="no"?>
<!DOCTYPE svg PUBLIC "-//W3C//DTD SVG 1.1//EN"
 "http://www.w3.org/Graphics/SVG/1.1/DTD/svg11.dtd">
<!-- Generated by graphviz version 2.43.0 (0)
 -->
<!-- Title: src/exception/EntityNotFound.hpp Pages: 1 -->
<svg width="1446pt" height="95pt"
 viewBox="0.00 0.00 1446.00 95.00" xmlns="http://www.w3.org/2000/svg" xmlns:xlink="http://www.w3.org/1999/xlink">
<g id="graph0" class="graph" transform="scale(1 1) rotate(0) translate(4 91)">
<title>src/exception/EntityNotFound.hpp</title>
<polygon fill="white" stroke="transparent" points="-4,4 -4,-91 1442,-91 1442,4 -4,4"/>
<!-- Node1 -->
<g id="node1" class="node">
<title>Node1</title>
<g id="a_node1"><a xlink:title=" ">
<polygon fill="#bfbfbf" stroke="black" points="651.5,-67.5 651.5,-86.5 832.5,-86.5 832.5,-67.5 651.5,-67.5"/>
<text text-anchor="middle" x="742" y="-74.5" font-family="Helvetica,sans-Serif" font-size="10.00">src/exception/EntityNotFound.hpp</text>
</a>
</g>
</g>
<!-- Node2 -->
<g id="node2" class="node">
<title>Node2</title>
<g id="a_node2"><a xlink:href="../../d4/d8b/EntityNotFound_8cpp.html" target="_top" xlink:title=" ">
<polygon fill="white" stroke="black" points="0,-6 0,-25 180,-25 180,-6 0,-6"/>
<text text-anchor="middle" x="90" y="-13" font-family="Helvetica,sans-Serif" font-size="10.00">src/exception/EntityNotFound.cpp</text>
</a>
</g>
</g>
<!-- Node1&#45;&gt;Node2 -->
<g id="edge1" class="edge">
<title>Node1&#45;&gt;Node2</title>
<path fill="none" stroke="midnightblue" d="M641.13,-69.74C530.13,-62.41 346.54,-48.93 189,-31 174.33,-29.33 158.49,-27.17 143.87,-25.03"/>
<polygon fill="midnightblue" stroke="midnightblue" points="641.1,-73.25 651.31,-70.41 641.56,-66.27 641.1,-73.25"/>
</g>
<!-- Node3 -->
<g id="node3" class="node">
<title>Node3</title>
<g id="a_node3"><a xlink:href="../../d2/dc7/led-buzzer_2ws_2CRUDHandler_8cpp.html" target="_top" xlink:title=" ">
<polygon fill="white" stroke="black" points="198,-0.5 198,-30.5 328,-30.5 328,-0.5 198,-0.5"/>
<text text-anchor="start" x="206" y="-18.5" font-family="Helvetica,sans-Serif" font-size="10.00">src/modules/led&#45;buzzer</text>
<text text-anchor="middle" x="263" y="-7.5" font-family="Helvetica,sans-Serif" font-size="10.00">/ws/CRUDHandler.cpp</text>
</a>
</g>
</g>
<!-- Node1&#45;&gt;Node3 -->
<g id="edge2" class="edge">
<title>Node1&#45;&gt;Node3</title>
<path fill="none" stroke="midnightblue" d="M641.16,-67.14C559.03,-59.35 440.21,-46.82 337,-31 334.15,-30.56 331.25,-30.1 328.32,-29.6"/>
<polygon fill="midnightblue" stroke="midnightblue" points="640.95,-70.63 651.24,-68.08 641.61,-63.66 640.95,-70.63"/>
</g>
<!-- Node4 -->
<g id="node4" class="node">
<title>Node4</title>
<g id="a_node4"><a xlink:href="../../d7/d0d/pifacedigital_2CRUDHandler_8cpp.html" target="_top" xlink:title=" ">
<polygon fill="white" stroke="black" points="346,-0.5 346,-30.5 486,-30.5 486,-0.5 346,-0.5"/>
<text text-anchor="start" x="354" y="-18.5" font-family="Helvetica,sans-Serif" font-size="10.00">src/modules/pifacedigital</text>
<text text-anchor="middle" x="416" y="-7.5" font-family="Helvetica,sans-Serif" font-size="10.00">/CRUDHandler.cpp</text>
</a>
</g>
</g>
<!-- Node1&#45;&gt;Node4 -->
<g id="edge3" class="edge">
<title>Node1&#45;&gt;Node4</title>
<path fill="none" stroke="midnightblue" d="M685.12,-65.66C635.06,-56.55 560.18,-42.92 495,-31 492.12,-30.47 489.18,-29.94 486.21,-29.39"/>
<polygon fill="midnightblue" stroke="midnightblue" points="684.64,-69.13 695.1,-67.48 685.89,-62.24 684.64,-69.13"/>
</g>
<!-- Node5 -->
<g id="node5" class="node">
<title>Node5</title>
<g id="a_node5"><a xlink:href="../../d6/d95/PFDigitalModule_8cpp.html" target="_top" xlink:title=" ">
<polygon fill="white" stroke="black" points="504,-0.5 504,-30.5 644,-30.5 644,-0.5 504,-0.5"/>
<text text-anchor="start" x="512" y="-18.5" font-family="Helvetica,sans-Serif" font-size="10.00">src/modules/pifacedigital</text>
<text text-anchor="middle" x="574" y="-7.5" font-family="Helvetica,sans-Serif" font-size="10.00">/PFDigitalModule.cpp</text>
</a>
</g>
</g>
<!-- Node1&#45;&gt;Node5 -->
<g id="edge4" class="edge">
<title>Node1&#45;&gt;Node5</title>
<path fill="none" stroke="midnightblue" d="M708.41,-64.1C681.07,-54.42 642.43,-40.74 613.59,-30.52"/>
<polygon fill="midnightblue" stroke="midnightblue" points="707.33,-67.44 717.93,-67.48 709.67,-60.84 707.33,-67.44"/>
</g>
<!-- Node6 -->
<g id="node6" class="node">
<title>Node6</title>
<g id="a_node6"><a xlink:href="../../d7/da0/PasswordChange_8cpp.html" target="_top" xlink:title=" ">
<polygon fill="white" stroke="black" points="662.5,-0.5 662.5,-30.5 821.5,-30.5 821.5,-0.5 662.5,-0.5"/>
<text text-anchor="start" x="670.5" y="-18.5" font-family="Helvetica,sans-Serif" font-size="10.00">src/modules/websock</text>
<text text-anchor="middle" x="742" y="-7.5" font-family="Helvetica,sans-Serif" font-size="10.00">&#45;api/api/PasswordChange.cpp</text>
</a>
</g>
</g>
<!-- Node1&#45;&gt;Node6 -->
<g id="edge5" class="edge">
<title>Node1&#45;&gt;Node6</title>
<path fill="none" stroke="midnightblue" d="M742,-57.23C742,-48.59 742,-38.5 742,-30.52"/>
<polygon fill="midnightblue" stroke="midnightblue" points="738.5,-57.48 742,-67.48 745.5,-57.48 738.5,-57.48"/>
</g>
<!-- Node7 -->
<g id="node7" class="node">
<title>Node7</title>
<g id="a_node7"><a xlink:href="../../d7/d0b/ExceptionConverter_8cpp.html" target="_top" xlink:title=" ">
<polygon fill="white" stroke="black" points="840,-0.5 840,-30.5 994,-30.5 994,-0.5 840,-0.5"/>
<text text-anchor="start" x="848" y="-18.5" font-family="Helvetica,sans-Serif" font-size="10.00">src/modules/websock</text>
<text text-anchor="middle" x="917" y="-7.5" font-family="Helvetica,sans-Serif" font-size="10.00">&#45;api/ExceptionConverter.cpp</text>
</a>
</g>
</g>
<!-- Node1&#45;&gt;Node7 -->
<g id="edge6" class="edge">
<title>Node1&#45;&gt;Node7</title>
<path fill="none" stroke="midnightblue" d="M776.62,-64.23C805.11,-54.54 845.58,-40.78 875.76,-30.52"/>
<polygon fill="midnightblue" stroke="midnightblue" points="775.41,-60.94 767.07,-67.48 777.67,-67.57 775.41,-60.94"/>
</g>
<!-- Node8 -->
<g id="node8" class="node">
<title>Node8</title>
<g id="a_node8"><a xlink:href="../../d4/d2c/WSServer_8cpp.html" target="_top" xlink:title=" ">
<polygon fill="white" stroke="black" points="1012,-0.5 1012,-30.5 1134,-30.5 1134,-0.5 1012,-0.5"/>
<text text-anchor="start" x="1020" y="-18.5" font-family="Helvetica,sans-Serif" font-size="10.00">src/modules/websock</text>
<text text-anchor="middle" x="1073" y="-7.5" font-family="Helvetica,sans-Serif" font-size="10.00">&#45;api/WSServer.cpp</text>
</a>
</g>
</g>
<!-- Node1&#45;&gt;Node8 -->
<g id="edge7" class="edge">
<title>Node1&#45;&gt;Node8</title>
<path fill="none" stroke="midnightblue" d="M804.5,-65.83C857.44,-57.07 935.31,-43.84 1003,-31 1005.93,-30.44 1008.92,-29.87 1011.94,-29.27"/>
<polygon fill="midnightblue" stroke="midnightblue" points="803.88,-62.38 794.58,-67.47 805.02,-69.29 803.88,-62.38"/>
</g>
<!-- Node9 -->
<g id="node9" class="node">
<title>Node9</title>
<g id="a_node9"><a xlink:href="../../d9/d74/wiegand_2ws_2CRUDHandler_8cpp.html" target="_top" xlink:title=" ">
<polygon fill="white" stroke="black" points="1152,-0.5 1152,-30.5 1274,-30.5 1274,-0.5 1152,-0.5"/>
<text text-anchor="start" x="1160" y="-18.5" font-family="Helvetica,sans-Serif" font-size="10.00">src/modules/wiegand</text>
<text text-anchor="middle" x="1213" y="-7.5" font-family="Helvetica,sans-Serif" font-size="10.00">/ws/CRUDHandler.cpp</text>
</a>
</g>
</g>
<!-- Node1&#45;&gt;Node9 -->
<g id="edge8" class="edge">
<title>Node1&#45;&gt;Node9</title>
<path fill="none" stroke="midnightblue" d="M842.93,-67.28C924.23,-59.63 1041.33,-47.2 1143,-31 1145.94,-30.53 1148.95,-30.02 1151.98,-29.49"/>
<polygon fill="midnightblue" stroke="midnightblue" points="842.33,-63.82 832.7,-68.24 842.98,-70.79 842.33,-63.82"/>
</g>
<!-- Node10 -->
<g id="node10" class="node">
<title>Node10</title>
<g id="a_node10"><a xlink:href="../../dc/db9/DBService_8cpp.html" target="_top" xlink:title=" ">
<polygon fill="white" stroke="black" points="1292,-6 1292,-25 1438,-25 1438,-6 1292,-6"/>
<text text-anchor="middle" x="1365" y="-13" font-family="Helvetica,sans-Serif" font-size="10.00">src/tools/db/DBService.cpp</text>
</a>
</g>
</g>
<!-- Node1&#45;&gt;Node10 -->
<g id="edge9" class="edge">
<title>Node1&#45;&gt;Node10</title>
<path fill="none" stroke="midnightblue" d="M842.72,-70.4C951.58,-63.7 1130.05,-50.84 1283,-31 1295.33,-29.4 1308.63,-27.24 1320.86,-25.07"/>
<polygon fill="midnightblue" stroke="midnightblue" points="842.5,-66.91 832.73,-71.01 842.92,-73.9 842.5,-66.91"/>
</g>
</g>
</svg>
