<?xml version="1.0" encoding="UTF-8" standalone="no"?>
<!DOCTYPE svg PUBLIC "-//W3C//DTD SVG 1.1//EN"
 "http://www.w3.org/Graphics/SVG/1.1/DTD/svg11.dtd">
<!-- Generated by graphviz version 2.43.0 (0)
 -->
<!-- Title: Leosac::Audit::ScheduleEvent Pages: 1 -->
<svg width="310pt" height="218pt"
 viewBox="0.00 0.00 310.00 218.00" xmlns="http://www.w3.org/2000/svg" xmlns:xlink="http://www.w3.org/1999/xlink">
<g id="graph0" class="graph" transform="scale(1 1) rotate(0) translate(4 214)">
<title>Leosac::Audit::ScheduleEvent</title>
<polygon fill="white" stroke="transparent" points="-4,4 -4,-214 306,-214 306,4 -4,4"/>
<!-- Node1 -->
<g id="node1" class="node">
<title>Node1</title>
<g id="a_node1"><a xlink:title="Provides an implementation of IScheduleEvent.">
<polygon fill="#bfbfbf" stroke="black" points="73,-0.5 73,-19.5 233,-19.5 233,-0.5 73,-0.5"/>
<text text-anchor="middle" x="153" y="-7.5" font-family="Helvetica,sans-Serif" font-size="10.00">Leosac::Audit::ScheduleEvent</text>
</a>
</g>
</g>
<!-- Node2 -->
<g id="node2" class="node">
<title>Node2</title>
<g id="a_node2"><a xlink:href="../../d7/d97/classLeosac_1_1Audit_1_1IScheduleEvent.html" target="_top" xlink:title="Audit interface to Schedule related events.">
<polygon fill="white" stroke="black" points="163.5,-56.5 163.5,-86.5 298.5,-86.5 298.5,-56.5 163.5,-56.5"/>
<text text-anchor="start" x="171.5" y="-74.5" font-family="Helvetica,sans-Serif" font-size="10.00">Leosac::Audit::ISchedule</text>
<text text-anchor="middle" x="231" y="-63.5" font-family="Helvetica,sans-Serif" font-size="10.00">Event</text>
</a>
</g>
</g>
<!-- Node2&#45;&gt;Node1 -->
<g id="edge1" class="edge">
<title>Node2&#45;&gt;Node1</title>
<path fill="none" stroke="midnightblue" d="M204.37,-50.19C190.72,-39.77 174.8,-27.63 164.35,-19.66"/>
<polygon fill="midnightblue" stroke="midnightblue" points="202.44,-53.12 212.52,-56.4 206.69,-47.55 202.44,-53.12"/>
</g>
<!-- Node3 -->
<g id="node3" class="node">
<title>Node3</title>
<g id="a_node3"><a xlink:href="../../d1/d44/classLeosac_1_1Audit_1_1IAuditEntry.html" target="_top" xlink:title="Base interface to Audit object.">
<polygon fill="white" stroke="black" points="160,-129 160,-148 302,-148 302,-129 160,-129"/>
<text text-anchor="middle" x="231" y="-136" font-family="Helvetica,sans-Serif" font-size="10.00">Leosac::Audit::IAuditEntry</text>
</a>
</g>
</g>
<!-- Node3&#45;&gt;Node2 -->
<g id="edge2" class="edge">
<title>Node3&#45;&gt;Node2</title>
<path fill="none" stroke="midnightblue" d="M231,-118.41C231,-108.22 231,-95.9 231,-86.59"/>
<polygon fill="midnightblue" stroke="midnightblue" points="227.5,-118.73 231,-128.73 234.5,-118.73 227.5,-118.73"/>
</g>
<!-- Node5 -->
<g id="node5" class="node">
<title>Node5</title>
<g id="a_node5"><a xlink:href="../../d0/d20/classLeosac_1_1Audit_1_1AuditEntry.html" target="_top" xlink:title="Implementation of IAuditEntry, backed by ODB.">
<polygon fill="white" stroke="black" points="6.5,-62 6.5,-81 145.5,-81 145.5,-62 6.5,-62"/>
<text text-anchor="middle" x="76" y="-69" font-family="Helvetica,sans-Serif" font-size="10.00">Leosac::Audit::AuditEntry</text>
</a>
</g>
</g>
<!-- Node3&#45;&gt;Node5 -->
<g id="edge5" class="edge">
<title>Node3&#45;&gt;Node5</title>
<path fill="none" stroke="midnightblue" d="M201.07,-124.95C170.38,-112.08 123.46,-92.4 96.67,-81.17"/>
<polygon fill="midnightblue" stroke="midnightblue" points="199.84,-128.23 210.42,-128.87 202.55,-121.77 199.84,-128.23"/>
</g>
<!-- Node4 -->
<g id="node4" class="node">
<title>Node4</title>
<g id="a_node4"><a xlink:href="../../d0/d33/classLeosac_1_1Tools_1_1IVisitable.html" target="_top" xlink:title="Base class to make an object visitable.">
<polygon fill="white" stroke="black" points="164.5,-190.5 164.5,-209.5 297.5,-209.5 297.5,-190.5 164.5,-190.5"/>
<text text-anchor="middle" x="231" y="-197.5" font-family="Helvetica,sans-Serif" font-size="10.00">Leosac::Tools::IVisitable</text>
</a>
</g>
</g>
<!-- Node4&#45;&gt;Node3 -->
<g id="edge3" class="edge">
<title>Node4&#45;&gt;Node3</title>
<path fill="none" stroke="midnightblue" d="M231,-180.32C231,-169.5 231,-156.4 231,-148.01"/>
<polygon fill="midnightblue" stroke="midnightblue" points="227.5,-180.48 231,-190.48 234.5,-180.48 227.5,-180.48"/>
</g>
<!-- Node5&#45;&gt;Node1 -->
<g id="edge4" class="edge">
<title>Node5&#45;&gt;Node1</title>
<path fill="none" stroke="midnightblue" d="M95.03,-55.79C109.8,-44.38 129.76,-28.96 141.99,-19.51"/>
<polygon fill="midnightblue" stroke="midnightblue" points="92.81,-53.09 87.03,-61.98 97.09,-58.63 92.81,-53.09"/>
</g>
<!-- Node6 -->
<g id="node6" class="node">
<title>Node6</title>
<g id="a_node6"><a xlink:title=" ">
<polygon fill="white" stroke="#bfbfbf" points="0,-123.5 0,-153.5 142,-153.5 142,-123.5 0,-123.5"/>
<text text-anchor="start" x="8" y="-141.5" font-family="Helvetica,sans-Serif" font-size="10.00">std::enable_shared</text>
<text text-anchor="middle" x="71" y="-130.5" font-family="Helvetica,sans-Serif" font-size="10.00">_from_this&lt; AuditEntry &gt;</text>
</a>
</g>
</g>
<!-- Node6&#45;&gt;Node5 -->
<g id="edge6" class="edge">
<title>Node6&#45;&gt;Node5</title>
<path fill="none" stroke="midnightblue" d="M72.87,-113.25C73.73,-102.02 74.7,-89.38 75.33,-81.19"/>
<polygon fill="midnightblue" stroke="midnightblue" points="69.36,-113.16 72.08,-123.4 76.34,-113.69 69.36,-113.16"/>
</g>
</g>
</svg>
