<?xml version="1.0" encoding="UTF-8" standalone="no"?>
<!DOCTYPE svg PUBLIC "-//W3C//DTD SVG 1.1//EN"
 "http://www.w3.org/Graphics/SVG/1.1/DTD/svg11.dtd">
<!-- Generated by graphviz version 2.43.0 (0)
 -->
<!-- Title: Leosac::Cred::Credential Pages: 1 -->
<svg width="603pt" height="159pt"
 viewBox="0.00 0.00 603.00 159.00" xmlns="http://www.w3.org/2000/svg" xmlns:xlink="http://www.w3.org/1999/xlink">
<g id="graph0" class="graph" transform="scale(1 1) rotate(0) translate(4 155)">
<title>Leosac::Cred::Credential</title>
<polygon fill="white" stroke="transparent" points="-4,4 -4,-155 599,-155 599,4 -4,4"/>
<!-- Node1 -->
<g id="node1" class="node">
<title>Node1</title>
<g id="a_node1"><a xlink:title="An ODB enabled credential object.">
<polygon fill="#bfbfbf" stroke="black" points="460,-61.5 460,-80.5 595,-80.5 595,-61.5 460,-61.5"/>
<text text-anchor="middle" x="527.5" y="-68.5" font-family="Helvetica,sans-Serif" font-size="10.00">Leosac::Cred::Credential</text>
</a>
</g>
</g>
<!-- Node2 -->
<g id="node2" class="node">
<title>Node2</title>
<g id="a_node2"><a xlink:href="../../d7/db0/classLeosac_1_1Cred_1_1ICredential.html" target="_top" xlink:title="Base interface for credential objects.">
<polygon fill="white" stroke="black" points="175,-128.5 175,-147.5 313,-147.5 313,-128.5 175,-128.5"/>
<text text-anchor="middle" x="244" y="-135.5" font-family="Helvetica,sans-Serif" font-size="10.00">Leosac::Cred::ICredential</text>
</a>
</g>
</g>
<!-- Node2&#45;&gt;Node1 -->
<g id="edge1" class="edge">
<title>Node2&#45;&gt;Node1</title>
<path fill="none" stroke="midnightblue" d="M323.41,-135.39C360.07,-132.52 403.94,-126.7 442,-115 468.24,-106.93 495.98,-90.83 512.24,-80.5"/>
<polygon fill="midnightblue" stroke="midnightblue" points="322.99,-131.91 313.27,-136.12 323.49,-138.89 322.99,-131.91"/>
</g>
<!-- Node3 -->
<g id="node3" class="node">
<title>Node3</title>
<g id="a_node3"><a xlink:href="../../d0/d33/classLeosac_1_1Tools_1_1IVisitable.html" target="_top" xlink:title="Base class to make an object visitable.">
<polygon fill="white" stroke="black" points="0,-131.5 0,-150.5 133,-150.5 133,-131.5 0,-131.5"/>
<text text-anchor="middle" x="66.5" y="-138.5" font-family="Helvetica,sans-Serif" font-size="10.00">Leosac::Tools::IVisitable</text>
</a>
</g>
</g>
<!-- Node3&#45;&gt;Node2 -->
<g id="edge2" class="edge">
<title>Node3&#45;&gt;Node2</title>
<path fill="none" stroke="midnightblue" d="M143.61,-139.7C153.96,-139.52 164.53,-139.34 174.73,-139.17"/>
<polygon fill="midnightblue" stroke="midnightblue" points="143.29,-136.2 133.35,-139.87 143.41,-143.2 143.29,-136.2"/>
</g>
<!-- Node4 -->
<g id="node4" class="node">
<title>Node4</title>
<g id="a_node4"><a xlink:title="STL class.">
<polygon fill="white" stroke="#bfbfbf" points="211.5,-88.5 211.5,-107.5 276.5,-107.5 276.5,-88.5 211.5,-88.5"/>
<text text-anchor="middle" x="244" y="-95.5" font-family="Helvetica,sans-Serif" font-size="10.00">std::string</text>
</a>
</g>
</g>
<!-- Node4&#45;&gt;Node1 -->
<g id="edge3" class="edge">
<title>Node4&#45;&gt;Node1</title>
<path fill="none" stroke="#9a32cd" stroke-dasharray="5,2" d="M286.89,-93.98C332.57,-89.6 406.33,-82.53 459.96,-77.38"/>
<polygon fill="#9a32cd" stroke="#9a32cd" points="286.36,-90.52 276.74,-94.96 287.03,-97.48 286.36,-90.52"/>
<text text-anchor="middle" x="389" y="-103" font-family="Helvetica,sans-Serif" font-size="10.00"> alias_</text>
<text text-anchor="middle" x="389" y="-92" font-family="Helvetica,sans-Serif" font-size="10.00">description_</text>
</g>
<!-- Node5 -->
<g id="node5" class="node">
<title>Node5</title>
<g id="a_node5"><a xlink:title="STL class.">
<polygon fill="white" stroke="#bfbfbf" points="14.5,-82 14.5,-112 118.5,-112 118.5,-82 14.5,-82"/>
<text text-anchor="start" x="22.5" y="-100" font-family="Helvetica,sans-Serif" font-size="10.00">std::basic_string&lt;</text>
<text text-anchor="middle" x="66.5" y="-89" font-family="Helvetica,sans-Serif" font-size="10.00"> char &gt;</text>
</a>
</g>
</g>
<!-- Node5&#45;&gt;Node4 -->
<g id="edge4" class="edge">
<title>Node5&#45;&gt;Node4</title>
<path fill="none" stroke="midnightblue" d="M128.78,-97.35C156.61,-97.51 188.35,-97.69 211.3,-97.82"/>
<polygon fill="midnightblue" stroke="midnightblue" points="128.75,-93.85 118.73,-97.29 128.71,-100.85 128.75,-93.85"/>
</g>
<!-- Node6 -->
<g id="node6" class="node">
<title>Node6</title>
<g id="a_node6"><a xlink:title=" ">
<polygon fill="white" stroke="#bfbfbf" points="170,-39 170,-69 318,-69 318,-39 170,-39"/>
<text text-anchor="start" x="178" y="-57" font-family="Helvetica,sans-Serif" font-size="10.00">std::vector&lt; Tools</text>
<text text-anchor="middle" x="244" y="-46" font-family="Helvetica,sans-Serif" font-size="10.00">::ScheduleMappingLWPtr &gt;</text>
</a>
</g>
</g>
<!-- Node6&#45;&gt;Node1 -->
<g id="edge5" class="edge">
<title>Node6&#45;&gt;Node1</title>
<path fill="none" stroke="#9a32cd" stroke-dasharray="5,2" d="M328.28,-54.71C363.42,-55.49 404.75,-57.02 442,-60 447.75,-60.46 453.71,-61.04 459.68,-61.68"/>
<polygon fill="#9a32cd" stroke="#9a32cd" points="328.14,-51.21 318.07,-54.5 327.99,-58.21 328.14,-51.21"/>
<text text-anchor="middle" x="389" y="-63" font-family="Helvetica,sans-Serif" font-size="10.00"> schedules_mapping_</text>
</g>
<!-- Node7 -->
<g id="node7" class="node">
<title>Node7</title>
<g id="a_node7"><a xlink:href="../../d9/d24/classLeosac_1_1Auth_1_1ValidityInfo.html" target="_top" xlink:title="A simple class that stores (and can be queried for) the validity of some objects.">
<polygon fill="white" stroke="black" points="174,-0.5 174,-19.5 314,-19.5 314,-0.5 174,-0.5"/>
<text text-anchor="middle" x="244" y="-7.5" font-family="Helvetica,sans-Serif" font-size="10.00">Leosac::Auth::ValidityInfo</text>
</a>
</g>
</g>
<!-- Node7&#45;&gt;Node1 -->
<g id="edge6" class="edge">
<title>Node7&#45;&gt;Node1</title>
<path fill="none" stroke="#9a32cd" stroke-dasharray="5,2" d="M324.14,-17.7C360.42,-22.23 403.77,-29.07 442,-39 464.02,-44.72 488.2,-54.22 505.03,-61.39"/>
<polygon fill="#9a32cd" stroke="#9a32cd" points="324.45,-14.21 314.11,-16.48 323.61,-21.16 324.45,-14.21"/>
<text text-anchor="middle" x="389" y="-42" font-family="Helvetica,sans-Serif" font-size="10.00"> validity_</text>
</g>
</g>
</svg>
