<?xml version="1.0" encoding="UTF-8" standalone="no"?>
<!DOCTYPE svg PUBLIC "-//W3C//DTD SVG 1.1//EN"
 "http://www.w3.org/Graphics/SVG/1.1/DTD/svg11.dtd">
<!-- Generated by graphviz version 2.43.0 (0)
 -->
<!-- Title: src/core/credentials/RFIDCardPin.hpp Pages: 1 -->
<!--zoomable 386 -->
<svg id="main" version="1.1" xmlns="http://www.w3.org/2000/svg" xmlns:xlink="http://www.w3.org/1999/xlink" xml:space="preserve" onload="init(evt)">
<style type="text/css"><![CDATA[
.edge:hover path { stroke: red; }
.edge:hover polygon { stroke: red; fill: red; }
]]></style>
<script type="text/javascript"><![CDATA[
var edges = document.getElementsByTagName('g');
if (edges && edges.length) {
  for (var i=0;i<edges.length;i++) {
    if (edges[i].id.substr(0,4)=='edge') {
      edges[i].setAttribute('class','edge');
    }
  }
}
]]></script>
        <defs>
                <circle id="rim" cx="0" cy="0" r="7"/>
                <circle id="rim2" cx="0" cy="0" r="3.5"/>
                <g id="zoomPlus">
                        <use xlink:href="#rim" fill="#404040">
                                <set attributeName="fill" to="#808080" begin="zoomplus.mouseover" end="zoomplus.mouseout"/>
                        </use>
                        <path d="M-4,0h8M0,-4v8" fill="none" stroke="white" stroke-width="1.5" pointer-events="none"/>
                </g>
                <g id="zoomMin">
                        <use xlink:href="#rim" fill="#404040">
                                <set attributeName="fill" to="#808080" begin="zoomminus.mouseover" end="zoomminus.mouseout"/>
                        </use>
                        <path d="M-4,0h8" fill="none" stroke="white" stroke-width="1.5" pointer-events="none"/>
                </g>
                <g id="dirArrow">
                        <path fill="none" stroke="white" stroke-width="1.5" d="M0,-3.0v7 M-2.5,-0.5L0,-3.0L2.5,-0.5"/>
                </g>
               <g id="resetDef">
                       <use xlink:href="#rim2" fill="#404040">
                               <set attributeName="fill" to="#808080" begin="reset.mouseover" end="reset.mouseout"/>
                       </use>
               </g>
        </defs>

<script type="text/javascript">
var viewWidth = 939;
var viewHeight = 386;
var sectionId = 'dynsection-0';
</script>
<script xlink:href="../../svgpan.js"/>
<svg id="graph" class="graph">
<g id="viewport">
<title>src/core/credentials/RFIDCardPin.hpp</title>
<polygon fill="white" stroke="transparent" points="-4,4 -4,-382 935.06,-382 935.06,4 -4,4"/>
<!-- Node1 -->
<g id="node1" class="node">
<title>Node1</title>
<g id="a_node1"><a xlink:title=" ">
<polygon fill="#bfbfbf" stroke="black" points="255.06,-347.5 255.06,-377.5 367.06,-377.5 367.06,-347.5 255.06,-347.5"/>
<text text-anchor="start" x="263.06" y="-365.5" font-family="Helvetica,sans-Serif" font-size="10.00">src/core/credentials</text>
<text text-anchor="middle" x="311.06" y="-354.5" font-family="Helvetica,sans-Serif" font-size="10.00">/RFIDCardPin.hpp</text>
</a>
</g>
</g>
<!-- Node2 -->
<g id="node2" class="node">
<title>Node2</title>
<g id="a_node2"><a xlink:href="../../db/d3d/PinCode_8hpp.html" target="_top" xlink:title=" ">
<polygon fill="white" stroke="black" points="232.06,-291.5 232.06,-310.5 390.06,-310.5 390.06,-291.5 232.06,-291.5"/>
<text text-anchor="middle" x="311.06" y="-298.5" font-family="Helvetica,sans-Serif" font-size="10.00">core/credentials/PinCode.hpp</text>
</a>
</g>
</g>
<!-- Node1&#45;&gt;Node2 -->
<g id="edge1" class="edge">
<title>Node1&#45;&gt;Node2</title>
<path fill="none" stroke="midnightblue" d="M311.06,-347.4C311.06,-339.47 311.06,-329.46 311.06,-320.86"/>
<polygon fill="midnightblue" stroke="midnightblue" points="314.56,-320.66 311.06,-310.66 307.56,-320.66 314.56,-320.66"/>
</g>
<!-- Node12 -->
<g id="node12" class="node">
<title>Node12</title>
<g id="a_node12"><a xlink:title=" ">
<polygon fill="white" stroke="#bfbfbf" points="14.06,-118 14.06,-137 58.06,-137 58.06,-118 14.06,-118"/>
<text text-anchor="middle" x="36.06" y="-125" font-family="Helvetica,sans-Serif" font-size="10.00">string</text>
</a>
</g>
</g>
<!-- Node1&#45;&gt;Node12 -->
<g id="edge37" class="edge">
<title>Node1&#45;&gt;Node12</title>
<path fill="none" stroke="midnightblue" d="M278.01,-347.43C226.28,-323.87 126.03,-271.75 67.06,-199 54.46,-183.45 45.99,-161.99 41.14,-146.84"/>
<polygon fill="midnightblue" stroke="midnightblue" points="44.44,-145.68 38.23,-137.1 37.74,-147.68 44.44,-145.68"/>
</g>
<!-- Node21 -->
<g id="node21" class="node">
<title>Node21</title>
<g id="a_node21"><a xlink:href="../../d9/dd6/RFIDCard_8hpp.html" target="_top" xlink:title=" ">
<polygon fill="white" stroke="black" points="408.06,-291.5 408.06,-310.5 572.06,-310.5 572.06,-291.5 408.06,-291.5"/>
<text text-anchor="middle" x="490.06" y="-298.5" font-family="Helvetica,sans-Serif" font-size="10.00">core/credentials/RFIDCard.hpp</text>
</a>
</g>
</g>
<!-- Node1&#45;&gt;Node21 -->
<g id="edge32" class="edge">
<title>Node1&#45;&gt;Node21</title>
<path fill="none" stroke="midnightblue" d="M353.48,-347.4C384.27,-337.16 425.47,-323.47 454.53,-313.81"/>
<polygon fill="midnightblue" stroke="midnightblue" points="455.89,-317.05 464.27,-310.57 453.68,-310.4 455.89,-317.05"/>
</g>
<!-- Node3 -->
<g id="node3" class="node">
<title>Node3</title>
<g id="a_node3"><a xlink:href="../../d1/d40/Credential_8hpp.html" target="_top" xlink:title=" ">
<polygon fill="white" stroke="black" points="226.56,-235.5 226.56,-254.5 395.56,-254.5 395.56,-235.5 226.56,-235.5"/>
<text text-anchor="middle" x="311.06" y="-242.5" font-family="Helvetica,sans-Serif" font-size="10.00">core/credentials/Credential.hpp</text>
</a>
</g>
</g>
<!-- Node2&#45;&gt;Node3 -->
<g id="edge2" class="edge">
<title>Node2&#45;&gt;Node3</title>
<path fill="none" stroke="midnightblue" d="M311.06,-291.08C311.06,-284.01 311.06,-273.86 311.06,-264.99"/>
<polygon fill="midnightblue" stroke="midnightblue" points="314.56,-264.75 311.06,-254.75 307.56,-264.75 314.56,-264.75"/>
</g>
<!-- Node20 -->
<g id="node20" class="node">
<title>Node20</title>
<g id="a_node20"><a xlink:href="../../d4/df3/IPinCode_8hpp.html" target="_top" xlink:title=" ">
<polygon fill="white" stroke="black" points="413.56,-235.5 413.56,-254.5 574.56,-254.5 574.56,-235.5 413.56,-235.5"/>
<text text-anchor="middle" x="494.06" y="-242.5" font-family="Helvetica,sans-Serif" font-size="10.00">core/credentials/IPinCode.hpp</text>
</a>
</g>
</g>
<!-- Node2&#45;&gt;Node20 -->
<g id="edge29" class="edge">
<title>Node2&#45;&gt;Node20</title>
<path fill="none" stroke="midnightblue" d="M340.06,-291.44C371.24,-282.24 420.99,-267.56 455.47,-257.39"/>
<polygon fill="midnightblue" stroke="midnightblue" points="456.6,-260.7 465.2,-254.52 454.62,-253.99 456.6,-260.7"/>
</g>
<!-- Node4 -->
<g id="node4" class="node">
<title>Node4</title>
<g id="a_node4"><a xlink:href="../../dc/d49/LeosacFwd_8hpp.html" target="_top" xlink:title=" ">
<polygon fill="white" stroke="black" points="656.06,-179.5 656.06,-198.5 748.06,-198.5 748.06,-179.5 656.06,-179.5"/>
<text text-anchor="middle" x="702.06" y="-186.5" font-family="Helvetica,sans-Serif" font-size="10.00">LeosacFwd.hpp</text>
</a>
</g>
</g>
<!-- Node3&#45;&gt;Node4 -->
<g id="edge3" class="edge">
<title>Node3&#45;&gt;Node4</title>
<path fill="none" stroke="midnightblue" d="M373.01,-235.44C448.03,-225.08 573.29,-207.78 645.7,-197.78"/>
<polygon fill="midnightblue" stroke="midnightblue" points="646.56,-201.2 655.99,-196.36 645.6,-194.26 646.56,-201.2"/>
</g>
<!-- Node7 -->
<g id="node7" class="node">
<title>Node7</title>
<g id="a_node7"><a xlink:href="../../d3/d6f/AuthFwd_8hpp.html" target="_top" xlink:title=" ">
<polygon fill="white" stroke="black" points="144.56,-118 144.56,-137 273.56,-137 273.56,-118 144.56,-118"/>
<text text-anchor="middle" x="209.06" y="-125" font-family="Helvetica,sans-Serif" font-size="10.00">core/auth/AuthFwd.hpp</text>
</a>
</g>
</g>
<!-- Node3&#45;&gt;Node7 -->
<g id="edge6" class="edge">
<title>Node3&#45;&gt;Node7</title>
<path fill="none" stroke="midnightblue" d="M303.39,-235.32C286.41,-216.09 245.39,-169.64 223.46,-144.81"/>
<polygon fill="midnightblue" stroke="midnightblue" points="226.06,-142.46 216.81,-137.28 220.81,-147.09 226.06,-142.46"/>
</g>
<!-- Node8 -->
<g id="node8" class="node">
<title>Node8</title>
<g id="a_node8"><a xlink:title=" ">
<polygon fill="white" stroke="#bfbfbf" points="71.56,-56.5 71.56,-75.5 124.56,-75.5 124.56,-56.5 71.56,-56.5"/>
<text text-anchor="middle" x="98.06" y="-63.5" font-family="Helvetica,sans-Serif" font-size="10.00">cstddef</text>
</a>
</g>
</g>
<!-- Node3&#45;&gt;Node8 -->
<g id="edge28" class="edge">
<title>Node3&#45;&gt;Node8</title>
<path fill="none" stroke="midnightblue" d="M226.42,-239.83C177.74,-234.7 116.6,-223.45 67.06,-199 33.76,-182.57 20.13,-176.93 5.06,-143 -0.54,-130.41 -2.26,-123.67 5.06,-112 17.42,-92.28 41.15,-80.99 61.54,-74.65"/>
<polygon fill="midnightblue" stroke="midnightblue" points="62.54,-78 71.22,-71.92 60.64,-71.27 62.54,-78"/>
</g>
<!-- Node10 -->
<g id="node10" class="node">
<title>Node10</title>
<g id="a_node10"><a xlink:href="../../dc/dfe/ValidityInfo_8hpp.html" target="_top" xlink:title=" ">
<polygon fill="white" stroke="black" points="76.06,-179.5 76.06,-198.5 218.06,-198.5 218.06,-179.5 76.06,-179.5"/>
<text text-anchor="middle" x="147.06" y="-186.5" font-family="Helvetica,sans-Serif" font-size="10.00">core/auth/ValidityInfo.hpp</text>
</a>
</g>
</g>
<!-- Node3&#45;&gt;Node10 -->
<g id="edge10" class="edge">
<title>Node3&#45;&gt;Node10</title>
<path fill="none" stroke="midnightblue" d="M285.07,-235.44C257.36,-226.32 213.31,-211.81 182.44,-201.65"/>
<polygon fill="midnightblue" stroke="midnightblue" points="183.52,-198.32 172.92,-198.52 181.33,-204.97 183.52,-198.32"/>
</g>
<!-- Node13 -->
<g id="node13" class="node">
<title>Node13</title>
<g id="a_node13"><a xlink:href="../../d0/db0/ICredential_8hpp.html" target="_top" xlink:title=" ">
<polygon fill="white" stroke="black" points="408.06,-179.5 408.06,-198.5 580.06,-198.5 580.06,-179.5 408.06,-179.5"/>
<text text-anchor="middle" x="494.06" y="-186.5" font-family="Helvetica,sans-Serif" font-size="10.00">core/credentials/ICredential.hpp</text>
</a>
</g>
</g>
<!-- Node3&#45;&gt;Node13 -->
<g id="edge14" class="edge">
<title>Node3&#45;&gt;Node13</title>
<path fill="none" stroke="midnightblue" d="M340.06,-235.44C371.24,-226.24 420.99,-211.56 455.47,-201.39"/>
<polygon fill="midnightblue" stroke="midnightblue" points="456.6,-204.7 465.2,-198.52 454.62,-197.99 456.6,-204.7"/>
</g>
<!-- Node19 -->
<g id="node19" class="node">
<title>Node19</title>
<g id="a_node19"><a xlink:href="../../d8/d97/ToolsFwd_8hpp.html" target="_top" xlink:title=" ">
<polygon fill="white" stroke="black" points="292.06,-118 292.06,-137 402.06,-137 402.06,-118 292.06,-118"/>
<text text-anchor="middle" x="347.06" y="-125" font-family="Helvetica,sans-Serif" font-size="10.00">tools/ToolsFwd.hpp</text>
</a>
</g>
</g>
<!-- Node3&#45;&gt;Node19 -->
<g id="edge27" class="edge">
<title>Node3&#45;&gt;Node19</title>
<path fill="none" stroke="midnightblue" d="M313.76,-235.32C319.58,-216.67 333.36,-172.44 341.25,-147.13"/>
<polygon fill="midnightblue" stroke="midnightblue" points="344.69,-147.87 344.32,-137.28 338,-145.79 344.69,-147.87"/>
</g>
<!-- Node5 -->
<g id="node5" class="node">
<title>Node5</title>
<g id="a_node5"><a xlink:title=" ">
<polygon fill="white" stroke="#bfbfbf" points="567.06,-56.5 567.06,-75.5 625.06,-75.5 625.06,-56.5 567.06,-56.5"/>
<text text-anchor="middle" x="596.06" y="-63.5" font-family="Helvetica,sans-Serif" font-size="10.00">memory</text>
</a>
</g>
</g>
<!-- Node4&#45;&gt;Node5 -->
<g id="edge4" class="edge">
<title>Node4&#45;&gt;Node5</title>
<path fill="none" stroke="midnightblue" d="M696.7,-179.06C687.64,-164.3 668.3,-134.28 648.06,-112 638.15,-101.09 625.7,-90.24 615.48,-81.93"/>
<polygon fill="midnightblue" stroke="midnightblue" points="617.51,-79.08 607.51,-75.6 613.16,-84.56 617.51,-79.08"/>
</g>
<!-- Node6 -->
<g id="node6" class="node">
<title>Node6</title>
<g id="a_node6"><a xlink:title=" ">
<polygon fill="white" stroke="#bfbfbf" points="700.56,-118 700.56,-137 747.56,-137 747.56,-118 700.56,-118"/>
<text text-anchor="middle" x="724.06" y="-125" font-family="Helvetica,sans-Serif" font-size="10.00">vector</text>
</a>
</g>
</g>
<!-- Node4&#45;&gt;Node6 -->
<g id="edge5" class="edge">
<title>Node4&#45;&gt;Node6</title>
<path fill="none" stroke="midnightblue" d="M705.21,-179.48C708.38,-170.9 713.36,-157.43 717.41,-146.48"/>
<polygon fill="midnightblue" stroke="midnightblue" points="720.73,-147.6 720.91,-137.01 714.16,-145.17 720.73,-147.6"/>
</g>
<!-- Node7&#45;&gt;Node5 -->
<g id="edge8" class="edge">
<title>Node7&#45;&gt;Node5</title>
<path fill="none" stroke="midnightblue" d="M250.48,-118C261.08,-115.93 272.47,-113.8 283.06,-112 381.09,-95.36 497.09,-79.74 556.55,-72.03"/>
<polygon fill="midnightblue" stroke="midnightblue" points="557.17,-75.48 566.64,-70.72 556.27,-68.53 557.17,-75.48"/>
</g>
<!-- Node7&#45;&gt;Node8 -->
<g id="edge7" class="edge">
<title>Node7&#45;&gt;Node8</title>
<path fill="none" stroke="midnightblue" d="M193.15,-117.98C174.77,-108.12 144.3,-91.79 122.81,-80.27"/>
<polygon fill="midnightblue" stroke="midnightblue" points="124.4,-77.15 113.93,-75.51 121.09,-83.32 124.4,-77.15"/>
</g>
<!-- Node9 -->
<g id="node9" class="node">
<title>Node9</title>
<g id="a_node9"><a xlink:title=" ">
<polygon fill="white" stroke="#bfbfbf" points="299.56,-56.5 299.56,-75.5 394.56,-75.5 394.56,-56.5 299.56,-56.5"/>
<text text-anchor="middle" x="347.06" y="-63.5" font-family="Helvetica,sans-Serif" font-size="10.00">odb/lazy&#45;ptr.hxx</text>
</a>
</g>
</g>
<!-- Node7&#45;&gt;Node9 -->
<g id="edge9" class="edge">
<title>Node7&#45;&gt;Node9</title>
<path fill="none" stroke="midnightblue" d="M228.83,-117.98C252.19,-107.9 291.27,-91.05 318.06,-79.5"/>
<polygon fill="midnightblue" stroke="midnightblue" points="319.53,-82.68 327.32,-75.51 316.75,-76.25 319.53,-82.68"/>
</g>
<!-- Node10&#45;&gt;Node7 -->
<g id="edge11" class="edge">
<title>Node10&#45;&gt;Node7</title>
<path fill="none" stroke="midnightblue" d="M155.94,-179.48C165.52,-170.28 180.97,-155.46 192.74,-144.16"/>
<polygon fill="midnightblue" stroke="midnightblue" points="195.4,-146.46 200.19,-137.01 190.55,-141.41 195.4,-146.46"/>
</g>
<!-- Node11 -->
<g id="node11" class="node">
<title>Node11</title>
<g id="a_node11"><a xlink:title=" ">
<polygon fill="white" stroke="#bfbfbf" points="76.06,-118 76.06,-137 126.06,-137 126.06,-118 76.06,-118"/>
<text text-anchor="middle" x="101.06" y="-125" font-family="Helvetica,sans-Serif" font-size="10.00">chrono</text>
</a>
</g>
</g>
<!-- Node10&#45;&gt;Node11 -->
<g id="edge12" class="edge">
<title>Node10&#45;&gt;Node11</title>
<path fill="none" stroke="midnightblue" d="M140.47,-179.48C133.57,-170.55 122.56,-156.31 113.92,-145.14"/>
<polygon fill="midnightblue" stroke="midnightblue" points="116.52,-142.78 107.64,-137.01 110.98,-147.06 116.52,-142.78"/>
</g>
<!-- Node10&#45;&gt;Node12 -->
<g id="edge13" class="edge">
<title>Node10&#45;&gt;Node12</title>
<path fill="none" stroke="midnightblue" d="M131.15,-179.48C112.77,-169.62 82.3,-153.29 60.81,-141.77"/>
<polygon fill="midnightblue" stroke="midnightblue" points="62.4,-138.65 51.93,-137.01 59.09,-144.82 62.4,-138.65"/>
</g>
<!-- Node13&#45;&gt;Node5 -->
<g id="edge26" class="edge">
<title>Node13&#45;&gt;Node5</title>
<path fill="none" stroke="midnightblue" d="M522.27,-179.37C540.5,-172.39 563.3,-160.75 577.06,-143 589.79,-126.58 594.09,-102.7 595.49,-86.1"/>
<polygon fill="midnightblue" stroke="midnightblue" points="598.99,-86.14 596.06,-75.96 592.01,-85.75 598.99,-86.14"/>
</g>
<!-- Node13&#45;&gt;Node7 -->
<g id="edge15" class="edge">
<title>Node13&#45;&gt;Node7</title>
<path fill="none" stroke="midnightblue" d="M453.22,-179.48C402.22,-168.83 314.96,-150.61 259.74,-139.08"/>
<polygon fill="midnightblue" stroke="midnightblue" points="260.32,-135.63 249.82,-137.01 258.89,-142.48 260.32,-135.63"/>
</g>
<!-- Node14 -->
<g id="node14" class="node">
<title>Node14</title>
<g id="a_node14"><a xlink:href="../../d7/d7f/CredentialFwd_8hpp.html" target="_top" xlink:title=" ">
<polygon fill="white" stroke="black" points="420.06,-112.5 420.06,-142.5 568.06,-142.5 568.06,-112.5 420.06,-112.5"/>
<text text-anchor="start" x="428.06" y="-130.5" font-family="Helvetica,sans-Serif" font-size="10.00">core/credentials/Credential</text>
<text text-anchor="middle" x="494.06" y="-119.5" font-family="Helvetica,sans-Serif" font-size="10.00">Fwd.hpp</text>
</a>
</g>
</g>
<!-- Node13&#45;&gt;Node14 -->
<g id="edge16" class="edge">
<title>Node13&#45;&gt;Node14</title>
<path fill="none" stroke="midnightblue" d="M494.06,-179.48C494.06,-172.47 494.06,-162.19 494.06,-152.7"/>
<polygon fill="midnightblue" stroke="midnightblue" points="497.56,-152.52 494.06,-142.52 490.56,-152.52 497.56,-152.52"/>
</g>
<!-- Node15 -->
<g id="node15" class="node">
<title>Node15</title>
<g id="a_node15"><a xlink:href="../../dd/d9d/IVisitable_8hpp.html" target="_top" xlink:title=" ">
<polygon fill="white" stroke="black" points="804.06,-118 804.06,-137 914.06,-137 914.06,-118 804.06,-118"/>
<text text-anchor="middle" x="859.06" y="-125" font-family="Helvetica,sans-Serif" font-size="10.00">tools/IVisitable.hpp</text>
</a>
</g>
</g>
<!-- Node13&#45;&gt;Node15 -->
<g id="edge19" class="edge">
<title>Node13&#45;&gt;Node15</title>
<path fill="none" stroke="midnightblue" d="M546.35,-179.48C612.49,-168.69 726.22,-150.15 796.77,-138.65"/>
<polygon fill="midnightblue" stroke="midnightblue" points="797.55,-142.07 806.86,-137.01 796.43,-135.16 797.55,-142.07"/>
</g>
<!-- Node13&#45;&gt;Node19 -->
<g id="edge23" class="edge">
<title>Node13&#45;&gt;Node19</title>
<path fill="none" stroke="midnightblue" d="M473,-179.48C448,-169.36 406.12,-152.4 377.57,-140.85"/>
<polygon fill="midnightblue" stroke="midnightblue" points="378.66,-137.52 368.08,-137.01 376.04,-144.01 378.66,-137.52"/>
</g>
<!-- Node14&#45;&gt;Node5 -->
<g id="edge17" class="edge">
<title>Node14&#45;&gt;Node5</title>
<path fill="none" stroke="midnightblue" d="M518.23,-112.4C534.58,-102.86 556.07,-90.32 572.33,-80.84"/>
<polygon fill="midnightblue" stroke="midnightblue" points="574.34,-83.72 581.22,-75.66 570.81,-77.67 574.34,-83.72"/>
</g>
<!-- Node14&#45;&gt;Node9 -->
<g id="edge18" class="edge">
<title>Node14&#45;&gt;Node9</title>
<path fill="none" stroke="midnightblue" d="M459.22,-112.4C434.56,-102.42 401.77,-89.15 378.02,-79.53"/>
<polygon fill="midnightblue" stroke="midnightblue" points="379.03,-76.17 368.45,-75.66 376.4,-82.65 379.03,-76.17"/>
</g>
<!-- Node16 -->
<g id="node16" class="node">
<title>Node16</title>
<g id="a_node16"><a xlink:href="../../d2/d91/Visitor_8hpp.html" target="_top" xlink:title=" ">
<polygon fill="white" stroke="black" points="765.56,-56.5 765.56,-75.5 860.56,-75.5 860.56,-56.5 765.56,-56.5"/>
<text text-anchor="middle" x="813.06" y="-63.5" font-family="Helvetica,sans-Serif" font-size="10.00">tools/Visitor.hpp</text>
</a>
</g>
</g>
<!-- Node15&#45;&gt;Node16 -->
<g id="edge20" class="edge">
<title>Node15&#45;&gt;Node16</title>
<path fill="none" stroke="midnightblue" d="M852.47,-117.98C845.57,-109.05 834.56,-94.81 825.92,-83.64"/>
<polygon fill="midnightblue" stroke="midnightblue" points="828.52,-81.28 819.64,-75.51 822.98,-85.56 828.52,-81.28"/>
</g>
<!-- Node18 -->
<g id="node18" class="node">
<title>Node18</title>
<g id="a_node18"><a xlink:title=" ">
<polygon fill="white" stroke="#bfbfbf" points="879.06,-56.5 879.06,-75.5 931.06,-75.5 931.06,-56.5 879.06,-56.5"/>
<text text-anchor="middle" x="905.06" y="-63.5" font-family="Helvetica,sans-Serif" font-size="10.00">cassert</text>
</a>
</g>
</g>
<!-- Node15&#45;&gt;Node18 -->
<g id="edge22" class="edge">
<title>Node15&#45;&gt;Node18</title>
<path fill="none" stroke="midnightblue" d="M865.65,-117.98C872.55,-109.05 883.56,-94.81 892.19,-83.64"/>
<polygon fill="midnightblue" stroke="midnightblue" points="895.13,-85.56 898.48,-75.51 889.59,-81.28 895.13,-85.56"/>
</g>
<!-- Node17 -->
<g id="node17" class="node">
<title>Node17</title>
<g id="a_node17"><a xlink:title=" ">
<polygon fill="white" stroke="#bfbfbf" points="778.56,-0.5 778.56,-19.5 847.56,-19.5 847.56,-0.5 778.56,-0.5"/>
<text text-anchor="middle" x="813.06" y="-7.5" font-family="Helvetica,sans-Serif" font-size="10.00">type_traits</text>
</a>
</g>
</g>
<!-- Node16&#45;&gt;Node17 -->
<g id="edge21" class="edge">
<title>Node16&#45;&gt;Node17</title>
<path fill="none" stroke="midnightblue" d="M813.06,-56.08C813.06,-49.01 813.06,-38.86 813.06,-29.99"/>
<polygon fill="midnightblue" stroke="midnightblue" points="816.56,-29.75 813.06,-19.75 809.56,-29.75 816.56,-29.75"/>
</g>
<!-- Node19&#45;&gt;Node5 -->
<g id="edge24" class="edge">
<title>Node19&#45;&gt;Node5</title>
<path fill="none" stroke="midnightblue" d="M382.73,-117.98C428.96,-106.93 509.28,-87.74 557.08,-76.32"/>
<polygon fill="midnightblue" stroke="midnightblue" points="558.13,-79.66 567.04,-73.93 556.5,-72.85 558.13,-79.66"/>
</g>
<!-- Node19&#45;&gt;Node9 -->
<g id="edge25" class="edge">
<title>Node19&#45;&gt;Node9</title>
<path fill="none" stroke="midnightblue" d="M347.06,-117.98C347.06,-109.58 347.06,-96.48 347.06,-85.66"/>
<polygon fill="midnightblue" stroke="midnightblue" points="350.56,-85.51 347.06,-75.51 343.56,-85.51 350.56,-85.51"/>
</g>
<!-- Node20&#45;&gt;Node5 -->
<g id="edge31" class="edge">
<title>Node20&#45;&gt;Node5</title>
<path fill="none" stroke="midnightblue" d="M531.52,-235.36C551.66,-228.76 575.14,-217.54 589.06,-199 614,-165.77 607.16,-113.52 601.02,-85.77"/>
<polygon fill="midnightblue" stroke="midnightblue" points="604.37,-84.71 598.61,-75.81 597.56,-86.36 604.37,-84.71"/>
</g>
<!-- Node20&#45;&gt;Node13 -->
<g id="edge30" class="edge">
<title>Node20&#45;&gt;Node13</title>
<path fill="none" stroke="midnightblue" d="M494.06,-235.08C494.06,-228.01 494.06,-217.86 494.06,-208.99"/>
<polygon fill="midnightblue" stroke="midnightblue" points="497.56,-208.75 494.06,-198.75 490.56,-208.75 497.56,-208.75"/>
</g>
<!-- Node21&#45;&gt;Node3 -->
<g id="edge33" class="edge">
<title>Node21&#45;&gt;Node3</title>
<path fill="none" stroke="midnightblue" d="M461.7,-291.44C431.32,-282.28 382.95,-267.69 349.24,-257.52"/>
<polygon fill="midnightblue" stroke="midnightblue" points="349.87,-254.05 339.29,-254.52 347.85,-260.76 349.87,-254.05"/>
</g>
<!-- Node22 -->
<g id="node22" class="node">
<title>Node22</title>
<g id="a_node22"><a xlink:href="../../dc/dd6/IRFIDCard_8hpp.html" target="_top" xlink:title=" ">
<polygon fill="white" stroke="black" points="592.56,-235.5 592.56,-254.5 759.56,-254.5 759.56,-235.5 592.56,-235.5"/>
<text text-anchor="middle" x="676.06" y="-242.5" font-family="Helvetica,sans-Serif" font-size="10.00">core/credentials/IRFIDCard.hpp</text>
</a>
</g>
</g>
<!-- Node21&#45;&gt;Node22 -->
<g id="edge34" class="edge">
<title>Node21&#45;&gt;Node22</title>
<path fill="none" stroke="midnightblue" d="M519.53,-291.44C551.23,-282.24 601.79,-267.56 636.83,-257.39"/>
<polygon fill="midnightblue" stroke="midnightblue" points="638.1,-260.67 646.72,-254.52 636.14,-253.94 638.1,-260.67"/>
</g>
<!-- Node22&#45;&gt;Node5 -->
<g id="edge36" class="edge">
<title>Node22&#45;&gt;Node5</title>
<path fill="none" stroke="midnightblue" d="M707.08,-235.44C725.09,-228.69 746.29,-217.3 757.06,-199 776.67,-165.67 780.43,-142.8 757.06,-112 742.39,-92.67 678.2,-79.39 635.43,-72.51"/>
<polygon fill="midnightblue" stroke="midnightblue" points="635.75,-69.02 625.33,-70.94 634.67,-75.93 635.75,-69.02"/>
</g>
<!-- Node22&#45;&gt;Node13 -->
<g id="edge35" class="edge">
<title>Node22&#45;&gt;Node13</title>
<path fill="none" stroke="midnightblue" d="M647.22,-235.44C616.2,-226.24 566.73,-211.56 532.44,-201.39"/>
<polygon fill="midnightblue" stroke="midnightblue" points="533.34,-198.01 522.76,-198.52 531.35,-204.72 533.34,-198.01"/>
</g>
</g>
</svg>
        <g id="navigator" transform="translate(0 0)" fill="#404254">
                <rect fill="#f2f5e9" fill-opacity="0.5" stroke="#606060" stroke-width=".5" x="0" y="0" width="60" height="60"/>
                <use id="zoomplus" xlink:href="#zoomPlus" x="17" y="9" onmousedown="handleZoom(evt,'in')"/>
                <use id="zoomminus" xlink:href="#zoomMin" x="42" y="9" onmousedown="handleZoom(evt,'out')"/>
                <use id="reset" xlink:href="#resetDef" x="30" y="36" onmousedown="handleReset()"/>
                <g id="arrowUp" xlink:href="#dirArrow" transform="translate(30 24)" onmousedown="handlePan(0,-1)">
                  <use xlink:href="#rim" fill="#404040">
                        <set attributeName="fill" to="#808080" begin="arrowUp.mouseover" end="arrowUp.mouseout"/>
                  </use>
                  <path fill="none" stroke="white" stroke-width="1.5" d="M0,-3.0v7 M-2.5,-0.5L0,-3.0L2.5,-0.5"/>
                </g>
                <g id="arrowRight" xlink:href="#dirArrow" transform="rotate(90) translate(36 -43)" onmousedown="handlePan(1,0)">
                  <use xlink:href="#rim" fill="#404040">
                        <set attributeName="fill" to="#808080" begin="arrowRight.mouseover" end="arrowRight.mouseout"/>
                  </use>
                  <path fill="none" stroke="white" stroke-width="1.5" d="M0,-3.0v7 M-2.5,-0.5L0,-3.0L2.5,-0.5"/>
                </g>
                <g id="arrowDown" xlink:href="#dirArrow" transform="rotate(180) translate(-30 -48)" onmousedown="handlePan(0,1)">
                  <use xlink:href="#rim" fill="#404040">
                        <set attributeName="fill" to="#808080" begin="arrowDown.mouseover" end="arrowDown.mouseout"/>
                  </use>
                  <path fill="none" stroke="white" stroke-width="1.5" d="M0,-3.0v7 M-2.5,-0.5L0,-3.0L2.5,-0.5"/>
                </g>
                <g id="arrowLeft" xlink:href="#dirArrow" transform="rotate(270) translate(-36 17)" onmousedown="handlePan(-1,0)">
                  <use xlink:href="#rim" fill="#404040">
                        <set attributeName="fill" to="#808080" begin="arrowLeft.mouseover" end="arrowLeft.mouseout"/>
                  </use>
                  <path fill="none" stroke="white" stroke-width="1.5" d="M0,-3.0v7 M-2.5,-0.5L0,-3.0L2.5,-0.5"/>
                </g>
        </g>
        <svg viewBox="0 0 15 15" width="100%" height="30px" preserveAspectRatio="xMaxYMin meet">
         <g id="arrow_out" transform="scale(0.3 0.3)">
          <a xlink:href="RFIDCardPin_8hpp__incl_org.svg" target="_base">
           <rect id="button" ry="5" rx="5" y="6" x="6" height="38" width="38"
                fill="#f2f5e9" fill-opacity="0.5" stroke="#606060" stroke-width="1.0"/>
           <path id="arrow"
             d="M 11.500037,31.436501 C 11.940474,20.09759 22.043105,11.32322 32.158766,21.979434 L 37.068811,17.246167 C 37.068811,17.246167 37.088388,32 37.088388,32 L 22.160133,31.978069 C 22.160133,31.978069 26.997745,27.140456 26.997745,27.140456 C 18.528582,18.264221 13.291696,25.230495 11.500037,31.436501 z"
             style="fill:#404040;"/>
          </a>
         </g>
        </svg>
</svg>
