<?xml version="1.0" encoding="UTF-8" standalone="no"?>
<!DOCTYPE svg PUBLIC "-//W3C//DTD SVG 1.1//EN"
 "http://www.w3.org/Graphics/SVG/1.1/DTD/svg11.dtd">
<!-- Generated by graphviz version 2.43.0 (0)
 -->
<!-- Title: src/core/RemoteControl.hpp Pages: 1 -->
<!--zoomable 151 -->
<svg id="main" version="1.1" xmlns="http://www.w3.org/2000/svg" xmlns:xlink="http://www.w3.org/1999/xlink" xml:space="preserve" onload="init(evt)">
<style type="text/css"><![CDATA[
.edge:hover path { stroke: red; }
.edge:hover polygon { stroke: red; fill: red; }
]]></style>
<script type="text/javascript"><![CDATA[
var edges = document.getElementsByTagName('g');
if (edges && edges.length) {
  for (var i=0;i<edges.length;i++) {
    if (edges[i].id.substr(0,4)=='edge') {
      edges[i].setAttribute('class','edge');
    }
  }
}
]]></script>
        <defs>
                <circle id="rim" cx="0" cy="0" r="7"/>
                <circle id="rim2" cx="0" cy="0" r="3.5"/>
                <g id="zoomPlus">
                        <use xlink:href="#rim" fill="#404040">
                                <set attributeName="fill" to="#808080" begin="zoomplus.mouseover" end="zoomplus.mouseout"/>
                        </use>
                        <path d="M-4,0h8M0,-4v8" fill="none" stroke="white" stroke-width="1.5" pointer-events="none"/>
                </g>
                <g id="zoomMin">
                        <use xlink:href="#rim" fill="#404040">
                                <set attributeName="fill" to="#808080" begin="zoomminus.mouseover" end="zoomminus.mouseout"/>
                        </use>
                        <path d="M-4,0h8" fill="none" stroke="white" stroke-width="1.5" pointer-events="none"/>
                </g>
                <g id="dirArrow">
                        <path fill="none" stroke="white" stroke-width="1.5" d="M0,-3.0v7 M-2.5,-0.5L0,-3.0L2.5,-0.5"/>
                </g>
               <g id="resetDef">
                       <use xlink:href="#rim2" fill="#404040">
                               <set attributeName="fill" to="#808080" begin="reset.mouseover" end="reset.mouseout"/>
                       </use>
               </g>
        </defs>

<script type="text/javascript">
var viewWidth = 2895;
var viewHeight = 151;
var sectionId = 'dynsection-1';
</script>
<script xlink:href="../../svgpan.js"/>
<svg id="graph" class="graph">
<g id="viewport">
<title>src/core/RemoteControl.hpp</title>
<polygon fill="white" stroke="transparent" points="-4,4 -4,-147 2891,-147 2891,4 -4,4"/>
<!-- Node1 -->
<g id="node1" class="node">
<title>Node1</title>
<g id="a_node1"><a xlink:title=" ">
<polygon fill="#bfbfbf" stroke="black" points="722,-123.5 722,-142.5 874,-142.5 874,-123.5 722,-123.5"/>
<text text-anchor="middle" x="798" y="-130.5" font-family="Helvetica,sans-Serif" font-size="10.00">src/core/RemoteControl.hpp</text>
</a>
</g>
</g>
<!-- Node2 -->
<g id="node2" class="node">
<title>Node2</title>
<g id="a_node2"><a xlink:href="../../df/db8/kernel_8hpp.html" target="_top" xlink:title=" ">
<polygon fill="white" stroke="black" points="1381.5,-67.5 1381.5,-86.5 1490.5,-86.5 1490.5,-67.5 1381.5,-67.5"/>
<text text-anchor="middle" x="1436" y="-74.5" font-family="Helvetica,sans-Serif" font-size="10.00">src/core/kernel.hpp</text>
</a>
</g>
</g>
<!-- Node1&#45;&gt;Node2 -->
<g id="edge1" class="edge">
<title>Node1&#45;&gt;Node2</title>
<path fill="none" stroke="midnightblue" d="M884.19,-124.71C1017.62,-113.41 1270.37,-92.02 1381.39,-82.62"/>
<polygon fill="midnightblue" stroke="midnightblue" points="883.68,-121.24 874.01,-125.57 884.27,-128.21 883.68,-121.24"/>
</g>
<!-- Node10 -->
<g id="node10" class="node">
<title>Node10</title>
<g id="a_node10"><a xlink:href="../../d4/d28/RemoteControl_8cpp.html" target="_top" xlink:title=" ">
<polygon fill="white" stroke="black" points="0,-6 0,-25 152,-25 152,-6 0,-6"/>
<text text-anchor="middle" x="76" y="-13" font-family="Helvetica,sans-Serif" font-size="10.00">src/core/RemoteControl.cpp</text>
</a>
</g>
</g>
<!-- Node1&#45;&gt;Node10 -->
<g id="edge21" class="edge">
<title>Node1&#45;&gt;Node10</title>
<path fill="none" stroke="midnightblue" d="M733.04,-121.89C617.92,-103.94 370.58,-65.14 162,-31 150.34,-29.09 137.81,-27 126.01,-25.01"/>
<polygon fill="midnightblue" stroke="midnightblue" points="732.68,-125.38 743.1,-123.46 733.76,-118.46 732.68,-125.38"/>
</g>
<!-- Node3 -->
<g id="node3" class="node">
<title>Node3</title>
<g id="a_node3"><a xlink:href="../../d6/dff/src_2core_2config_2ConfigManager_8cpp.html" target="_top" xlink:title=" ">
<polygon fill="white" stroke="black" points="170.5,-6 170.5,-25 353.5,-25 353.5,-6 170.5,-6"/>
<text text-anchor="middle" x="262" y="-13" font-family="Helvetica,sans-Serif" font-size="10.00">src/core/config/ConfigManager.cpp</text>
</a>
</g>
</g>
<!-- Node2&#45;&gt;Node3 -->
<g id="edge2" class="edge">
<title>Node2&#45;&gt;Node3</title>
<path fill="none" stroke="midnightblue" d="M1371.33,-75.55C1204.17,-73.91 744.2,-66.27 363,-31 347.12,-29.53 329.93,-27.3 314.3,-25.03"/>
<polygon fill="midnightblue" stroke="midnightblue" points="1371.4,-79.05 1381.44,-75.65 1371.47,-72.06 1371.4,-79.05"/>
</g>
<!-- Node4 -->
<g id="node4" class="node">
<title>Node4</title>
<g id="a_node4"><a xlink:href="../../d3/d1e/CoreAPI_8cpp.html" target="_top" xlink:title=" ">
<polygon fill="white" stroke="black" points="372,-6 372,-25 488,-25 488,-6 372,-6"/>
<text text-anchor="middle" x="430" y="-13" font-family="Helvetica,sans-Serif" font-size="10.00">src/core/CoreAPI.cpp</text>
</a>
</g>
</g>
<!-- Node2&#45;&gt;Node4 -->
<g id="edge3" class="edge">
<title>Node2&#45;&gt;Node4</title>
<path fill="none" stroke="midnightblue" d="M1371.13,-76.5C1218.3,-76.88 823.97,-73.29 498,-31 487.11,-29.59 475.37,-27.35 464.76,-25.04"/>
<polygon fill="midnightblue" stroke="midnightblue" points="1371.29,-80 1381.28,-76.46 1371.26,-73 1371.29,-80"/>
</g>
<!-- Node5 -->
<g id="node5" class="node">
<title>Node5</title>
<g id="a_node5"><a xlink:href="../../d4/dd4/CoreUtils_8cpp.html" target="_top" xlink:title=" ">
<polygon fill="white" stroke="black" points="506.5,-6 506.5,-25 629.5,-25 629.5,-6 506.5,-6"/>
<text text-anchor="middle" x="568" y="-13" font-family="Helvetica,sans-Serif" font-size="10.00">src/core/CoreUtils.cpp</text>
</a>
</g>
</g>
<!-- Node2&#45;&gt;Node5 -->
<g id="edge4" class="edge">
<title>Node2&#45;&gt;Node5</title>
<path fill="none" stroke="midnightblue" d="M1370.88,-75.51C1234.53,-73.8 909.24,-66.04 639,-31 627.77,-29.54 615.66,-27.32 604.68,-25.05"/>
<polygon fill="midnightblue" stroke="midnightblue" points="1371.11,-79.02 1381.15,-75.64 1371.19,-72.02 1371.11,-79.02"/>
</g>
<!-- Node6 -->
<g id="node6" class="node">
<title>Node6</title>
<g id="a_node6"><a xlink:href="../../d9/d6a/GetServiceRegistry_8cpp.html" target="_top" xlink:title=" ">
<polygon fill="white" stroke="black" points="648,-6 648,-25 818,-25 818,-6 648,-6"/>
<text text-anchor="middle" x="733" y="-13" font-family="Helvetica,sans-Serif" font-size="10.00">src/core/GetServiceRegistry.cpp</text>
</a>
</g>
</g>
<!-- Node2&#45;&gt;Node6 -->
<g id="edge5" class="edge">
<title>Node2&#45;&gt;Node6</title>
<path fill="none" stroke="midnightblue" d="M1371.2,-72.9C1259.75,-67.2 1024.66,-53.51 827,-31 812.89,-29.39 797.65,-27.23 783.64,-25.06"/>
<polygon fill="midnightblue" stroke="midnightblue" points="1371.11,-76.4 1381.27,-73.41 1371.46,-69.41 1371.11,-76.4"/>
</g>
<!-- Node7 -->
<g id="node7" class="node">
<title>Node7</title>
<g id="a_node7"><a xlink:href="../../dd/d24/kernel_8cpp.html" target="_top" xlink:title=" ">
<polygon fill="white" stroke="black" points="836,-6 836,-25 944,-25 944,-6 836,-6"/>
<text text-anchor="middle" x="890" y="-13" font-family="Helvetica,sans-Serif" font-size="10.00">src/core/kernel.cpp</text>
</a>
</g>
</g>
<!-- Node2&#45;&gt;Node7 -->
<g id="edge6" class="edge">
<title>Node2&#45;&gt;Node7</title>
<path fill="none" stroke="midnightblue" d="M1371.42,-72.64C1278.63,-67.21 1102.4,-54.64 954,-31 944.1,-29.42 933.44,-27.22 923.72,-25"/>
<polygon fill="midnightblue" stroke="midnightblue" points="1371.31,-76.14 1381.5,-73.22 1371.72,-69.15 1371.31,-76.14"/>
</g>
<!-- Node8 -->
<g id="node8" class="node">
<title>Node8</title>
<g id="a_node8"><a xlink:href="../../d9/d4a/module__manager_8cpp.html" target="_top" xlink:title=" ">
<polygon fill="white" stroke="black" points="962.5,-6 962.5,-25 1125.5,-25 1125.5,-6 962.5,-6"/>
<text text-anchor="middle" x="1044" y="-13" font-family="Helvetica,sans-Serif" font-size="10.00">src/core/module_manager.cpp</text>
</a>
</g>
</g>
<!-- Node2&#45;&gt;Node8 -->
<g id="edge7" class="edge">
<title>Node2&#45;&gt;Node8</title>
<path fill="none" stroke="midnightblue" d="M1371.08,-66.48C1310.1,-57.49 1216.33,-43.56 1135,-31 1122.67,-29.1 1109.4,-27.01 1096.92,-25.02"/>
<polygon fill="midnightblue" stroke="midnightblue" points="1370.92,-69.99 1381.33,-67.99 1371.94,-63.07 1370.92,-69.99"/>
</g>
<!-- Node9 -->
<g id="node9" class="node">
<title>Node9</title>
<g id="a_node9"><a xlink:href="../../d2/d2a/networkconfig_8cpp.html" target="_top" xlink:title="NetworkConfig class implementation.">
<polygon fill="white" stroke="black" points="1143.5,-0.5 1143.5,-30.5 1252.5,-30.5 1252.5,-0.5 1143.5,-0.5"/>
<text text-anchor="start" x="1151.5" y="-18.5" font-family="Helvetica,sans-Serif" font-size="10.00">src/core/netconfig</text>
<text text-anchor="middle" x="1198" y="-7.5" font-family="Helvetica,sans-Serif" font-size="10.00">/networkconfig.cpp</text>
</a>
</g>
</g>
<!-- Node2&#45;&gt;Node9 -->
<g id="edge8" class="edge">
<title>Node2&#45;&gt;Node9</title>
<path fill="none" stroke="midnightblue" d="M1392.08,-65.02C1352.78,-55.2 1295.01,-40.75 1252.72,-30.18"/>
<polygon fill="midnightblue" stroke="midnightblue" points="1391.35,-68.45 1401.9,-67.48 1393.05,-61.65 1391.35,-68.45"/>
</g>
<!-- Node2&#45;&gt;Node10 -->
<g id="edge9" class="edge">
<title>Node2&#45;&gt;Node10</title>
<path fill="none" stroke="midnightblue" d="M1371.15,-74.84C1146.21,-70.64 400.27,-55.19 162,-31 148.29,-29.61 133.46,-27.37 120.04,-25.07"/>
<polygon fill="midnightblue" stroke="midnightblue" points="1371.09,-78.34 1381.15,-75.03 1371.22,-71.34 1371.09,-78.34"/>
</g>
<!-- Node11 -->
<g id="node11" class="node">
<title>Node11</title>
<g id="a_node11"><a xlink:href="../../df/dca/GetLocalConfigVersion_8cpp.html" target="_top" xlink:title=" ">
<polygon fill="white" stroke="black" points="1270.5,-0.5 1270.5,-30.5 1431.5,-30.5 1431.5,-0.5 1270.5,-0.5"/>
<text text-anchor="start" x="1278.5" y="-18.5" font-family="Helvetica,sans-Serif" font-size="10.00">src/core/tasks/GetLocalConfig</text>
<text text-anchor="middle" x="1351" y="-7.5" font-family="Helvetica,sans-Serif" font-size="10.00">Version.cpp</text>
</a>
</g>
</g>
<!-- Node2&#45;&gt;Node11 -->
<g id="edge10" class="edge">
<title>Node2&#45;&gt;Node11</title>
<path fill="none" stroke="midnightblue" d="M1415.63,-61.74C1402.12,-52.28 1384.47,-39.93 1371.03,-30.52"/>
<polygon fill="midnightblue" stroke="midnightblue" points="1413.62,-64.61 1423.82,-67.48 1417.64,-58.87 1413.62,-64.61"/>
</g>
<!-- Node12 -->
<g id="node12" class="node">
<title>Node12</title>
<g id="a_node12"><a xlink:href="../../d7/d6f/GetRemoteConfigVersion_8cpp.html" target="_top" xlink:title=" ">
<polygon fill="white" stroke="black" points="1449.5,-0.5 1449.5,-30.5 1592.5,-30.5 1592.5,-0.5 1449.5,-0.5"/>
<text text-anchor="start" x="1457.5" y="-18.5" font-family="Helvetica,sans-Serif" font-size="10.00">src/core/tasks/GetRemote</text>
<text text-anchor="middle" x="1521" y="-7.5" font-family="Helvetica,sans-Serif" font-size="10.00">ConfigVersion.cpp</text>
</a>
</g>
</g>
<!-- Node2&#45;&gt;Node12 -->
<g id="edge11" class="edge">
<title>Node2&#45;&gt;Node12</title>
<path fill="none" stroke="midnightblue" d="M1456.37,-61.74C1469.88,-52.28 1487.53,-39.93 1500.97,-30.52"/>
<polygon fill="midnightblue" stroke="midnightblue" points="1454.36,-58.87 1448.18,-67.48 1458.38,-64.61 1454.36,-58.87"/>
</g>
<!-- Node13 -->
<g id="node13" class="node">
<title>Node13</title>
<g id="a_node13"><a xlink:href="../../d5/d8e/SyncConfig_8cpp.html" target="_top" xlink:title=" ">
<polygon fill="white" stroke="black" points="1610.5,-6 1610.5,-25 1771.5,-25 1771.5,-6 1610.5,-6"/>
<text text-anchor="middle" x="1691" y="-13" font-family="Helvetica,sans-Serif" font-size="10.00">src/core/tasks/SyncConfig.cpp</text>
</a>
</g>
</g>
<!-- Node2&#45;&gt;Node13 -->
<g id="edge12" class="edge">
<title>Node2&#45;&gt;Node13</title>
<path fill="none" stroke="midnightblue" d="M1482.35,-65.19C1531.83,-53.64 1609.21,-35.58 1654.53,-25.01"/>
<polygon fill="midnightblue" stroke="midnightblue" points="1481.48,-61.79 1472.54,-67.48 1483.07,-68.61 1481.48,-61.79"/>
</g>
<!-- Node14 -->
<g id="node14" class="node">
<title>Node14</title>
<g id="a_node14"><a xlink:href="../../df/d0a/main_8cpp.html" target="_top" xlink:title="standard main">
<polygon fill="white" stroke="black" points="1789.5,-6 1789.5,-25 1868.5,-25 1868.5,-6 1789.5,-6"/>
<text text-anchor="middle" x="1829" y="-13" font-family="Helvetica,sans-Serif" font-size="10.00">src/main.cpp</text>
</a>
</g>
</g>
<!-- Node2&#45;&gt;Node14 -->
<g id="edge13" class="edge">
<title>Node2&#45;&gt;Node14</title>
<path fill="none" stroke="midnightblue" d="M1500.93,-70.73C1570.69,-64.32 1684.52,-51.72 1781,-31 1788.4,-29.41 1796.32,-27.23 1803.54,-25.04"/>
<polygon fill="midnightblue" stroke="midnightblue" points="1500.19,-67.28 1490.55,-71.66 1500.82,-74.25 1500.19,-67.28"/>
</g>
<!-- Node15 -->
<g id="node15" class="node">
<title>Node15</title>
<g id="a_node15"><a xlink:href="../../df/dac/AuthDBModule_8cpp.html" target="_top" xlink:title=" ">
<polygon fill="white" stroke="black" points="1887,-0.5 1887,-30.5 2015,-30.5 2015,-0.5 1887,-0.5"/>
<text text-anchor="start" x="1895" y="-18.5" font-family="Helvetica,sans-Serif" font-size="10.00">src/modules/auth/auth</text>
<text text-anchor="middle" x="1951" y="-7.5" font-family="Helvetica,sans-Serif" font-size="10.00">&#45;db/AuthDBModule.cpp</text>
</a>
</g>
</g>
<!-- Node2&#45;&gt;Node15 -->
<g id="edge14" class="edge">
<title>Node2&#45;&gt;Node15</title>
<path fill="none" stroke="midnightblue" d="M1500.82,-71.33C1587.18,-64.67 1744.59,-50.99 1878,-31 1880.94,-30.56 1883.94,-30.08 1886.97,-29.58"/>
<polygon fill="midnightblue" stroke="midnightblue" points="1500.35,-67.86 1490.64,-72.11 1500.88,-74.84 1500.35,-67.86"/>
</g>
<!-- Node16 -->
<g id="node16" class="node">
<title>Node16</title>
<g id="a_node16"><a xlink:href="../../d8/d37/AuthFileModule_8cpp.html" target="_top" xlink:title=" ">
<polygon fill="white" stroke="black" points="2033,-0.5 2033,-30.5 2167,-30.5 2167,-0.5 2033,-0.5"/>
<text text-anchor="start" x="2041" y="-18.5" font-family="Helvetica,sans-Serif" font-size="10.00">src/modules/auth/auth</text>
<text text-anchor="middle" x="2100" y="-7.5" font-family="Helvetica,sans-Serif" font-size="10.00">&#45;file/AuthFileModule.cpp</text>
</a>
</g>
</g>
<!-- Node2&#45;&gt;Node16 -->
<g id="edge15" class="edge">
<title>Node2&#45;&gt;Node16</title>
<path fill="none" stroke="midnightblue" d="M1500.66,-73.43C1609.2,-68.57 1834.75,-56.21 2024,-31 2026.93,-30.61 2029.92,-30.18 2032.93,-29.72"/>
<polygon fill="midnightblue" stroke="midnightblue" points="1500.36,-69.93 1490.53,-73.87 1500.67,-76.93 1500.36,-69.93"/>
</g>
<!-- Node17 -->
<g id="node17" class="node">
<title>Node17</title>
<g id="a_node17"><a xlink:href="../../d0/d58/DoormanModule_8cpp.html" target="_top" xlink:title=" ">
<polygon fill="white" stroke="black" points="2185,-0.5 2185,-30.5 2307,-30.5 2307,-0.5 2185,-0.5"/>
<text text-anchor="start" x="2193" y="-18.5" font-family="Helvetica,sans-Serif" font-size="10.00">src/modules/doorman</text>
<text text-anchor="middle" x="2246" y="-7.5" font-family="Helvetica,sans-Serif" font-size="10.00">/DoormanModule.cpp</text>
</a>
</g>
</g>
<!-- Node2&#45;&gt;Node17 -->
<g id="edge16" class="edge">
<title>Node2&#45;&gt;Node17</title>
<path fill="none" stroke="midnightblue" d="M1500.67,-75.18C1629.66,-72.86 1927.88,-64.07 2176,-31 2178.83,-30.62 2181.72,-30.2 2184.63,-29.73"/>
<polygon fill="midnightblue" stroke="midnightblue" points="1500.51,-71.68 1490.57,-75.36 1500.63,-78.68 1500.51,-71.68"/>
</g>
<!-- Node18 -->
<g id="node18" class="node">
<title>Node18</title>
<g id="a_node18"><a xlink:href="../../d7/d36/LEDBuzzerModule_8cpp.html" target="_top" xlink:title=" ">
<polygon fill="white" stroke="black" points="2325,-0.5 2325,-30.5 2455,-30.5 2455,-0.5 2325,-0.5"/>
<text text-anchor="start" x="2333" y="-18.5" font-family="Helvetica,sans-Serif" font-size="10.00">src/modules/led&#45;buzzer</text>
<text text-anchor="middle" x="2390" y="-7.5" font-family="Helvetica,sans-Serif" font-size="10.00">/LEDBuzzerModule.cpp</text>
</a>
</g>
</g>
<!-- Node2&#45;&gt;Node18 -->
<g id="edge17" class="edge">
<title>Node2&#45;&gt;Node18</title>
<path fill="none" stroke="midnightblue" d="M1500.69,-75.84C1646.66,-74.78 2012.59,-68.29 2316,-31 2318.86,-30.65 2321.77,-30.25 2324.71,-29.82"/>
<polygon fill="midnightblue" stroke="midnightblue" points="1500.54,-72.34 1490.56,-75.9 1500.58,-79.34 1500.54,-72.34"/>
</g>
<!-- Node19 -->
<g id="node19" class="node">
<title>Node19</title>
<g id="a_node19"><a xlink:href="../../da/d77/SysFsGpioModule_8cpp.html" target="_top" xlink:title=" ">
<polygon fill="white" stroke="black" points="2473.5,-0.5 2473.5,-30.5 2600.5,-30.5 2600.5,-0.5 2473.5,-0.5"/>
<text text-anchor="start" x="2481.5" y="-18.5" font-family="Helvetica,sans-Serif" font-size="10.00">src/modules/sysfsgpio</text>
<text text-anchor="middle" x="2537" y="-7.5" font-family="Helvetica,sans-Serif" font-size="10.00">/SysFsGpioModule.cpp</text>
</a>
</g>
</g>
<!-- Node2&#45;&gt;Node19 -->
<g id="edge18" class="edge">
<title>Node2&#45;&gt;Node19</title>
<path fill="none" stroke="midnightblue" d="M1500.89,-76.58C1663.61,-77.29 2101.93,-74.63 2464,-31 2467.08,-30.63 2470.22,-30.2 2473.39,-29.73"/>
<polygon fill="midnightblue" stroke="midnightblue" points="1500.59,-73.08 1490.57,-76.53 1500.55,-80.08 1500.59,-73.08"/>
</g>
<!-- Node20 -->
<g id="node20" class="node">
<title>Node20</title>
<g id="a_node20"><a xlink:href="../../d9/d8d/APISession_8cpp.html" target="_top" xlink:title=" ">
<polygon fill="white" stroke="black" points="2619,-0.5 2619,-30.5 2749,-30.5 2749,-0.5 2619,-0.5"/>
<text text-anchor="start" x="2627" y="-18.5" font-family="Helvetica,sans-Serif" font-size="10.00">src/modules/websock</text>
<text text-anchor="middle" x="2684" y="-7.5" font-family="Helvetica,sans-Serif" font-size="10.00">&#45;api/api/APISession.cpp</text>
</a>
</g>
</g>
<!-- Node2&#45;&gt;Node20 -->
<g id="edge19" class="edge">
<title>Node2&#45;&gt;Node20</title>
<path fill="none" stroke="midnightblue" d="M1500.73,-74.84C1713.86,-70.83 2392.47,-56.33 2610,-31 2612.86,-30.67 2615.78,-30.28 2618.72,-29.86"/>
<polygon fill="midnightblue" stroke="midnightblue" points="1500.57,-71.35 1490.63,-75.03 1500.7,-78.34 1500.57,-71.35"/>
</g>
<!-- Node21 -->
<g id="node21" class="node">
<title>Node21</title>
<g id="a_node21"><a xlink:href="../../d3/de8/wiegand_8cpp.html" target="_top" xlink:title=" ">
<polygon fill="white" stroke="black" points="2767,-0.5 2767,-30.5 2887,-30.5 2887,-0.5 2767,-0.5"/>
<text text-anchor="start" x="2775" y="-18.5" font-family="Helvetica,sans-Serif" font-size="10.00">src/modules/wiegand</text>
<text text-anchor="middle" x="2827" y="-7.5" font-family="Helvetica,sans-Serif" font-size="10.00">/wiegand.cpp</text>
</a>
</g>
</g>
<!-- Node2&#45;&gt;Node21 -->
<g id="edge20" class="edge">
<title>Node2&#45;&gt;Node21</title>
<path fill="none" stroke="midnightblue" d="M1500.96,-75.28C1731.58,-72.48 2510.46,-60.99 2758,-31 2760.92,-30.65 2763.89,-30.23 2766.89,-29.77"/>
<polygon fill="midnightblue" stroke="midnightblue" points="1500.67,-71.78 1490.71,-75.4 1500.76,-78.78 1500.67,-71.78"/>
</g>
</g>
</svg>
        <g id="navigator" transform="translate(0 0)" fill="#404254">
                <rect fill="#f2f5e9" fill-opacity="0.5" stroke="#606060" stroke-width=".5" x="0" y="0" width="60" height="60"/>
                <use id="zoomplus" xlink:href="#zoomPlus" x="17" y="9" onmousedown="handleZoom(evt,'in')"/>
                <use id="zoomminus" xlink:href="#zoomMin" x="42" y="9" onmousedown="handleZoom(evt,'out')"/>
                <use id="reset" xlink:href="#resetDef" x="30" y="36" onmousedown="handleReset()"/>
                <g id="arrowUp" xlink:href="#dirArrow" transform="translate(30 24)" onmousedown="handlePan(0,-1)">
                  <use xlink:href="#rim" fill="#404040">
                        <set attributeName="fill" to="#808080" begin="arrowUp.mouseover" end="arrowUp.mouseout"/>
                  </use>
                  <path fill="none" stroke="white" stroke-width="1.5" d="M0,-3.0v7 M-2.5,-0.5L0,-3.0L2.5,-0.5"/>
                </g>
                <g id="arrowRight" xlink:href="#dirArrow" transform="rotate(90) translate(36 -43)" onmousedown="handlePan(1,0)">
                  <use xlink:href="#rim" fill="#404040">
                        <set attributeName="fill" to="#808080" begin="arrowRight.mouseover" end="arrowRight.mouseout"/>
                  </use>
                  <path fill="none" stroke="white" stroke-width="1.5" d="M0,-3.0v7 M-2.5,-0.5L0,-3.0L2.5,-0.5"/>
                </g>
                <g id="arrowDown" xlink:href="#dirArrow" transform="rotate(180) translate(-30 -48)" onmousedown="handlePan(0,1)">
                  <use xlink:href="#rim" fill="#404040">
                        <set attributeName="fill" to="#808080" begin="arrowDown.mouseover" end="arrowDown.mouseout"/>
                  </use>
                  <path fill="none" stroke="white" stroke-width="1.5" d="M0,-3.0v7 M-2.5,-0.5L0,-3.0L2.5,-0.5"/>
                </g>
                <g id="arrowLeft" xlink:href="#dirArrow" transform="rotate(270) translate(-36 17)" onmousedown="handlePan(-1,0)">
                  <use xlink:href="#rim" fill="#404040">
                        <set attributeName="fill" to="#808080" begin="arrowLeft.mouseover" end="arrowLeft.mouseout"/>
                  </use>
                  <path fill="none" stroke="white" stroke-width="1.5" d="M0,-3.0v7 M-2.5,-0.5L0,-3.0L2.5,-0.5"/>
                </g>
        </g>
        <svg viewBox="0 0 15 15" width="100%" height="30px" preserveAspectRatio="xMaxYMin meet">
         <g id="arrow_out" transform="scale(0.3 0.3)">
          <a xlink:href="RemoteControl_8hpp__dep__incl_org.svg" target="_base">
           <rect id="button" ry="5" rx="5" y="6" x="6" height="38" width="38"
                fill="#f2f5e9" fill-opacity="0.5" stroke="#606060" stroke-width="1.0"/>
           <path id="arrow"
             d="M 11.500037,31.436501 C 11.940474,20.09759 22.043105,11.32322 32.158766,21.979434 L 37.068811,17.246167 C 37.068811,17.246167 37.088388,32 37.088388,32 L 22.160133,31.978069 C 22.160133,31.978069 26.997745,27.140456 26.997745,27.140456 C 18.528582,18.264221 13.291696,25.230495 11.500037,31.436501 z"
             style="fill:#404040;"/>
          </a>
         </g>
        </svg>
</svg>
