<?xml version="1.0" encoding="UTF-8" standalone="no"?>
<!DOCTYPE svg PUBLIC "-//W3C//DTD SVG 1.1//EN"
 "http://www.w3.org/Graphics/SVG/1.1/DTD/svg11.dtd">
<!-- Generated by graphviz version 2.43.0 (0)
 -->
<!-- Title: src/hardware/GPIO.cpp Pages: 1 -->
<svg width="2094pt" height="308pt"
 viewBox="0.00 0.00 2094.00 308.00" xmlns="http://www.w3.org/2000/svg" xmlns:xlink="http://www.w3.org/1999/xlink">
<g id="graph0" class="graph" transform="scale(1 1) rotate(0) translate(4 304)">
<title>src/hardware/GPIO.cpp</title>
<polygon fill="white" stroke="transparent" points="-4,4 -4,-304 2090,-304 2090,4 -4,4"/>
<!-- Node1 -->
<g id="node1" class="node">
<title>Node1</title>
<g id="a_node1"><a xlink:title=" ">
<polygon fill="#bfbfbf" stroke="black" points="794.5,-280.5 794.5,-299.5 921.5,-299.5 921.5,-280.5 794.5,-280.5"/>
<text text-anchor="middle" x="858" y="-287.5" font-family="Helvetica,sans-Serif" font-size="10.00">src/hardware/GPIO.cpp</text>
</a>
</g>
</g>
<!-- Node2 -->
<g id="node2" class="node">
<title>Node2</title>
<g id="a_node2"><a xlink:href="../../d9/d02/GPIO_8hpp.html" target="_top" xlink:title=" ">
<polygon fill="white" stroke="black" points="338,-224.5 338,-243.5 448,-243.5 448,-224.5 338,-224.5"/>
<text text-anchor="middle" x="393" y="-231.5" font-family="Helvetica,sans-Serif" font-size="10.00">hardware/GPIO.hpp</text>
</a>
</g>
</g>
<!-- Node1&#45;&gt;Node2 -->
<g id="edge1" class="edge">
<title>Node1&#45;&gt;Node2</title>
<path fill="none" stroke="midnightblue" d="M794.32,-281.6C706.06,-271.36 547.39,-252.93 458.29,-242.58"/>
<polygon fill="midnightblue" stroke="midnightblue" points="458.64,-239.1 448.3,-241.42 457.83,-246.05 458.64,-239.1"/>
</g>
<!-- Node15 -->
<g id="node15" class="node">
<title>Node15</title>
<g id="a_node15"><a xlink:href="../../dc/d5b/ModelException_8hpp.html" target="_top" xlink:title=" ">
<polygon fill="white" stroke="black" points="1226.5,-224.5 1226.5,-243.5 1393.5,-243.5 1393.5,-224.5 1226.5,-224.5"/>
<text text-anchor="middle" x="1310" y="-231.5" font-family="Helvetica,sans-Serif" font-size="10.00">exception/ModelException.hpp</text>
</a>
</g>
</g>
<!-- Node1&#45;&gt;Node15 -->
<g id="edge22" class="edge">
<title>Node1&#45;&gt;Node15</title>
<path fill="none" stroke="midnightblue" d="M921.8,-281.38C1002.29,-271.76 1140.79,-255.22 1228.76,-244.71"/>
<polygon fill="midnightblue" stroke="midnightblue" points="1229.19,-248.18 1238.7,-243.52 1228.36,-241.23 1229.19,-248.18"/>
</g>
<!-- Node3 -->
<g id="node3" class="node">
<title>Node3</title>
<g id="a_node3"><a xlink:href="../../da/d14/Device_8hpp.html" target="_top" xlink:title=" ">
<polygon fill="white" stroke="black" points="245,-168.5 245,-187.5 365,-187.5 365,-168.5 245,-168.5"/>
<text text-anchor="middle" x="305" y="-175.5" font-family="Helvetica,sans-Serif" font-size="10.00">hardware/Device.hpp</text>
</a>
</g>
</g>
<!-- Node2&#45;&gt;Node3 -->
<g id="edge2" class="edge">
<title>Node2&#45;&gt;Node3</title>
<path fill="none" stroke="midnightblue" d="M378.86,-224.32C365.13,-215.9 344.06,-202.97 327.94,-193.07"/>
<polygon fill="midnightblue" stroke="midnightblue" points="329.46,-189.9 319.1,-187.65 325.8,-195.87 329.46,-189.9"/>
</g>
<!-- Node4 -->
<g id="node4" class="node">
<title>Node4</title>
<g id="a_node4"><a xlink:href="../../d9/dc8/HardwareFwd_8hpp.html" target="_top" xlink:title=" ">
<polygon fill="white" stroke="black" points="68,-112.5 68,-131.5 222,-131.5 222,-112.5 68,-112.5"/>
<text text-anchor="middle" x="145" y="-119.5" font-family="Helvetica,sans-Serif" font-size="10.00">hardware/HardwareFwd.hpp</text>
</a>
</g>
</g>
<!-- Node2&#45;&gt;Node4 -->
<g id="edge17" class="edge">
<title>Node2&#45;&gt;Node4</title>
<path fill="none" stroke="midnightblue" d="M348.22,-224.44C315.98,-217.27 272.01,-205.38 236,-188 208.2,-174.58 179.83,-152.76 162.32,-138.15"/>
<polygon fill="midnightblue" stroke="midnightblue" points="164.54,-135.44 154.65,-131.62 160,-140.77 164.54,-135.44"/>
</g>
<!-- Node10 -->
<g id="node10" class="node">
<title>Node10</title>
<g id="a_node10"><a xlink:title=" ">
<polygon fill="white" stroke="#bfbfbf" points="0,-0.5 0,-19.5 80,-19.5 80,-0.5 0,-0.5"/>
<text text-anchor="middle" x="40" y="-7.5" font-family="Helvetica,sans-Serif" font-size="10.00">odb/core.hxx</text>
</a>
</g>
</g>
<!-- Node2&#45;&gt;Node10 -->
<g id="edge20" class="edge">
<title>Node2&#45;&gt;Node10</title>
<path fill="none" stroke="midnightblue" d="M340.32,-224.46C255.44,-209.54 94.32,-176.09 59,-132 35.37,-102.51 35.39,-55.66 37.61,-29.76"/>
<polygon fill="midnightblue" stroke="midnightblue" points="41.1,-30.07 38.68,-19.76 34.14,-29.33 41.1,-30.07"/>
</g>
<!-- Node11 -->
<g id="node11" class="node">
<title>Node11</title>
<g id="a_node11"><a xlink:title=" ">
<polygon fill="white" stroke="#bfbfbf" points="1288,-0.5 1288,-19.5 1332,-19.5 1332,-0.5 1288,-0.5"/>
<text text-anchor="middle" x="1310" y="-7.5" font-family="Helvetica,sans-Serif" font-size="10.00">string</text>
</a>
</g>
</g>
<!-- Node2&#45;&gt;Node11 -->
<g id="edge21" class="edge">
<title>Node2&#45;&gt;Node11</title>
<path fill="none" stroke="midnightblue" d="M403.65,-224.48C430.39,-203.36 503,-147.74 570,-112 629.13,-80.46 644.71,-71.13 710,-56 819.56,-30.61 1169.31,-16.1 1277.68,-12.12"/>
<polygon fill="midnightblue" stroke="midnightblue" points="1277.81,-15.62 1287.68,-11.76 1277.56,-8.63 1277.81,-15.62"/>
</g>
<!-- Node13 -->
<g id="node13" class="node">
<title>Node13</title>
<g id="a_node13"><a xlink:title=" ">
<polygon fill="white" stroke="#bfbfbf" points="354,-112.5 354,-131.5 404,-131.5 404,-112.5 354,-112.5"/>
<text text-anchor="middle" x="379" y="-119.5" font-family="Helvetica,sans-Serif" font-size="10.00">cstdint</text>
</a>
</g>
</g>
<!-- Node2&#45;&gt;Node13 -->
<g id="edge18" class="edge">
<title>Node2&#45;&gt;Node13</title>
<path fill="none" stroke="midnightblue" d="M391.9,-224.37C389.64,-206.62 384.43,-165.67 381.37,-141.6"/>
<polygon fill="midnightblue" stroke="midnightblue" points="384.83,-141.07 380.09,-131.59 377.88,-141.95 384.83,-141.07"/>
</g>
<!-- Node14 -->
<g id="node14" class="node">
<title>Node14</title>
<g id="a_node14"><a xlink:title=" ">
<polygon fill="white" stroke="#bfbfbf" points="422.5,-112.5 422.5,-131.5 521.5,-131.5 521.5,-112.5 422.5,-112.5"/>
<text text-anchor="middle" x="472" y="-119.5" font-family="Helvetica,sans-Serif" font-size="10.00">odb/callback.hxx</text>
</a>
</g>
</g>
<!-- Node2&#45;&gt;Node14 -->
<g id="edge19" class="edge">
<title>Node2&#45;&gt;Node14</title>
<path fill="none" stroke="midnightblue" d="M399.2,-224.37C412.24,-206.22 442.7,-163.8 459.8,-139.99"/>
<polygon fill="midnightblue" stroke="midnightblue" points="462.84,-141.76 465.83,-131.59 457.15,-137.67 462.84,-141.76"/>
</g>
<!-- Node3&#45;&gt;Node4 -->
<g id="edge3" class="edge">
<title>Node3&#45;&gt;Node4</title>
<path fill="none" stroke="midnightblue" d="M279.65,-168.44C252.73,-159.36 210,-144.94 179.91,-134.78"/>
<polygon fill="midnightblue" stroke="midnightblue" points="180.83,-131.4 170.23,-131.52 178.59,-138.03 180.83,-131.4"/>
</g>
<!-- Node5 -->
<g id="node5" class="node">
<title>Node5</title>
<g id="a_node5"><a xlink:href="../../dc/dea/Uuid_8hpp.html" target="_top" xlink:title=" ">
<polygon fill="white" stroke="black" points="246.5,-56.5 246.5,-75.5 333.5,-75.5 333.5,-56.5 246.5,-56.5"/>
<text text-anchor="middle" x="290" y="-63.5" font-family="Helvetica,sans-Serif" font-size="10.00">tools/Uuid.hpp</text>
</a>
</g>
</g>
<!-- Node3&#45;&gt;Node5 -->
<g id="edge12" class="edge">
<title>Node3&#45;&gt;Node5</title>
<path fill="none" stroke="midnightblue" d="M303.82,-168.37C301.4,-150.62 295.82,-109.67 292.54,-85.6"/>
<polygon fill="midnightblue" stroke="midnightblue" points="295.99,-85.03 291.17,-75.59 289.05,-85.97 295.99,-85.03"/>
</g>
<!-- Node3&#45;&gt;Node10 -->
<g id="edge15" class="edge">
<title>Node3&#45;&gt;Node10</title>
<path fill="none" stroke="midnightblue" d="M298.64,-168.27C282.09,-146.18 235.36,-87.6 183,-56 154.4,-38.74 118.53,-27.47 89.86,-20.53"/>
<polygon fill="midnightblue" stroke="midnightblue" points="90.58,-17.1 80.05,-18.25 89,-23.92 90.58,-17.1"/>
</g>
<!-- Node3&#45;&gt;Node11 -->
<g id="edge16" class="edge">
<title>Node3&#45;&gt;Node11</title>
<path fill="none" stroke="midnightblue" d="M307.94,-168.43C313.17,-154.49 325.41,-126.96 345,-112 415.31,-58.31 448.84,-71.11 536,-56 682.1,-30.67 1150.04,-15.61 1277.61,-11.9"/>
<polygon fill="midnightblue" stroke="midnightblue" points="1277.99,-15.39 1287.88,-11.61 1277.79,-8.4 1277.99,-15.39"/>
</g>
<!-- Node3&#45;&gt;Node13 -->
<g id="edge13" class="edge">
<title>Node3&#45;&gt;Node13</title>
<path fill="none" stroke="midnightblue" d="M316.89,-168.32C328.15,-160.11 345.29,-147.6 358.71,-137.81"/>
<polygon fill="midnightblue" stroke="midnightblue" points="360.88,-140.56 366.89,-131.83 356.75,-134.9 360.88,-140.56"/>
</g>
<!-- Node3&#45;&gt;Node14 -->
<g id="edge14" class="edge">
<title>Node3&#45;&gt;Node14</title>
<path fill="none" stroke="midnightblue" d="M331.46,-168.44C359.68,-159.32 404.54,-144.81 435.97,-134.65"/>
<polygon fill="midnightblue" stroke="midnightblue" points="437.22,-137.92 445.66,-131.52 435.07,-131.26 437.22,-137.92"/>
</g>
<!-- Node4&#45;&gt;Node5 -->
<g id="edge4" class="edge">
<title>Node4&#45;&gt;Node5</title>
<path fill="none" stroke="midnightblue" d="M167.98,-112.44C192.16,-103.44 230.42,-89.19 257.65,-79.05"/>
<polygon fill="midnightblue" stroke="midnightblue" points="258.98,-82.29 267.13,-75.52 256.54,-75.73 258.98,-82.29"/>
</g>
<!-- Node12 -->
<g id="node12" class="node">
<title>Node12</title>
<g id="a_node12"><a xlink:title=" ">
<polygon fill="white" stroke="#bfbfbf" points="116,-56.5 116,-75.5 174,-75.5 174,-56.5 116,-56.5"/>
<text text-anchor="middle" x="145" y="-63.5" font-family="Helvetica,sans-Serif" font-size="10.00">memory</text>
</a>
</g>
</g>
<!-- Node4&#45;&gt;Node12 -->
<g id="edge11" class="edge">
<title>Node4&#45;&gt;Node12</title>
<path fill="none" stroke="midnightblue" d="M145,-112.08C145,-105.01 145,-94.86 145,-85.99"/>
<polygon fill="midnightblue" stroke="midnightblue" points="148.5,-85.75 145,-75.75 141.5,-85.75 148.5,-85.75"/>
</g>
<!-- Node6 -->
<g id="node6" class="node">
<title>Node6</title>
<g id="a_node6"><a xlink:title=" ">
<polygon fill="white" stroke="#bfbfbf" points="374.5,-0.5 374.5,-19.5 499.5,-19.5 499.5,-0.5 374.5,-0.5"/>
<text text-anchor="middle" x="437" y="-7.5" font-family="Helvetica,sans-Serif" font-size="10.00">boost/lexical_cast.hpp</text>
</a>
</g>
</g>
<!-- Node5&#45;&gt;Node6 -->
<g id="edge5" class="edge">
<title>Node5&#45;&gt;Node6</title>
<path fill="none" stroke="midnightblue" d="M313.29,-56.44C337.81,-47.44 376.6,-33.19 404.2,-23.05"/>
<polygon fill="midnightblue" stroke="midnightblue" points="405.64,-26.25 413.82,-19.52 403.22,-19.68 405.64,-26.25"/>
</g>
<!-- Node7 -->
<g id="node7" class="node">
<title>Node7</title>
<g id="a_node7"><a xlink:title=" ">
<polygon fill="white" stroke="#bfbfbf" points="517.5,-0.5 517.5,-19.5 698.5,-19.5 698.5,-0.5 517.5,-0.5"/>
<text text-anchor="middle" x="608" y="-7.5" font-family="Helvetica,sans-Serif" font-size="10.00">boost/uuid/random_generator.hpp</text>
</a>
</g>
</g>
<!-- Node5&#45;&gt;Node7 -->
<g id="edge6" class="edge">
<title>Node5&#45;&gt;Node7</title>
<path fill="none" stroke="midnightblue" d="M333.55,-57.6C389.06,-48.18 485.3,-31.84 547.8,-21.22"/>
<polygon fill="midnightblue" stroke="midnightblue" points="548.64,-24.63 557.91,-19.51 547.47,-17.73 548.64,-24.63"/>
</g>
<!-- Node8 -->
<g id="node8" class="node">
<title>Node8</title>
<g id="a_node8"><a xlink:title=" ">
<polygon fill="white" stroke="#bfbfbf" points="98.5,-0.5 98.5,-19.5 211.5,-19.5 211.5,-0.5 98.5,-0.5"/>
<text text-anchor="middle" x="155" y="-7.5" font-family="Helvetica,sans-Serif" font-size="10.00">boost/uuid/uuid.hpp</text>
</a>
</g>
</g>
<!-- Node5&#45;&gt;Node8 -->
<g id="edge7" class="edge">
<title>Node5&#45;&gt;Node8</title>
<path fill="none" stroke="midnightblue" d="M268.61,-56.44C246.29,-47.52 211.1,-33.44 185.79,-23.32"/>
<polygon fill="midnightblue" stroke="midnightblue" points="186.88,-19.98 176.29,-19.52 184.28,-26.48 186.88,-19.98"/>
</g>
<!-- Node9 -->
<g id="node9" class="node">
<title>Node9</title>
<g id="a_node9"><a xlink:title=" ">
<polygon fill="white" stroke="#bfbfbf" points="229.5,-0.5 229.5,-19.5 356.5,-19.5 356.5,-0.5 229.5,-0.5"/>
<text text-anchor="middle" x="293" y="-7.5" font-family="Helvetica,sans-Serif" font-size="10.00">boost/uuid/uuid_io.hpp</text>
</a>
</g>
</g>
<!-- Node5&#45;&gt;Node9 -->
<g id="edge8" class="edge">
<title>Node5&#45;&gt;Node9</title>
<path fill="none" stroke="midnightblue" d="M290.5,-56.08C290.89,-49.01 291.45,-38.86 291.95,-29.99"/>
<polygon fill="midnightblue" stroke="midnightblue" points="295.45,-29.93 292.51,-19.75 288.46,-29.54 295.45,-29.93"/>
</g>
<!-- Node5&#45;&gt;Node10 -->
<g id="edge9" class="edge">
<title>Node5&#45;&gt;Node10</title>
<path fill="none" stroke="midnightblue" d="M250.39,-56.44C206.77,-47.02 136.6,-31.87 89.42,-21.68"/>
<polygon fill="midnightblue" stroke="midnightblue" points="89.94,-18.21 79.43,-19.52 88.46,-25.05 89.94,-18.21"/>
</g>
<!-- Node5&#45;&gt;Node11 -->
<g id="edge10" class="edge">
<title>Node5&#45;&gt;Node11</title>
<path fill="none" stroke="midnightblue" d="M333.64,-57.72C338.48,-57.06 343.34,-56.47 348,-56 711.74,-19.38 1155.91,-12.49 1277.77,-11.26"/>
<polygon fill="midnightblue" stroke="midnightblue" points="1277.95,-14.75 1287.91,-11.16 1277.88,-7.75 1277.95,-14.75"/>
</g>
<!-- Node16 -->
<g id="node16" class="node">
<title>Node16</title>
<g id="a_node16"><a xlink:href="../../d1/ddd/leosacexception_8hpp.html" target="_top" xlink:title="Exception class for LEOSAC Project related errors.">
<polygon fill="white" stroke="black" points="1226,-168.5 1226,-187.5 1394,-187.5 1394,-168.5 1226,-168.5"/>
<text text-anchor="middle" x="1310" y="-175.5" font-family="Helvetica,sans-Serif" font-size="10.00">exception/leosacexception.hpp</text>
</a>
</g>
</g>
<!-- Node15&#45;&gt;Node16 -->
<g id="edge23" class="edge">
<title>Node15&#45;&gt;Node16</title>
<path fill="none" stroke="midnightblue" d="M1310,-224.08C1310,-217.01 1310,-206.86 1310,-197.99"/>
<polygon fill="midnightblue" stroke="midnightblue" points="1313.5,-197.75 1310,-187.75 1306.5,-197.75 1313.5,-197.75"/>
</g>
<!-- Node32 -->
<g id="node32" class="node">
<title>Node32</title>
<g id="a_node32"><a xlink:title=" ">
<polygon fill="white" stroke="#bfbfbf" points="1412,-168.5 1412,-187.5 1522,-187.5 1522,-168.5 1412,-168.5"/>
<text text-anchor="middle" x="1467" y="-175.5" font-family="Helvetica,sans-Serif" font-size="10.00">nlohmann/json.hpp</text>
</a>
</g>
</g>
<!-- Node15&#45;&gt;Node32 -->
<g id="edge60" class="edge">
<title>Node15&#45;&gt;Node32</title>
<path fill="none" stroke="midnightblue" d="M1334.88,-224.44C1361.29,-215.36 1403.22,-200.94 1432.74,-190.78"/>
<polygon fill="midnightblue" stroke="midnightblue" points="1433.92,-194.08 1442.24,-187.52 1431.64,-187.46 1433.92,-194.08"/>
</g>
<!-- Node16&#45;&gt;Node11 -->
<g id="edge29" class="edge">
<title>Node16&#45;&gt;Node11</title>
<path fill="none" stroke="midnightblue" d="M1394.14,-168.77C1397.13,-168.5 1400.09,-168.25 1403,-168 1457.84,-163.35 1859.53,-172.3 1897,-132 1975.73,-47.33 1475.42,-18.48 1342.06,-12.34"/>
<polygon fill="midnightblue" stroke="midnightblue" points="1342.19,-8.84 1332.05,-11.89 1341.88,-15.84 1342.19,-8.84"/>
</g>
<!-- Node17 -->
<g id="node17" class="node">
<title>Node17</title>
<g id="a_node17"><a xlink:href="../../d6/d2f/Stacktrace_8hpp.html" target="_top" xlink:title=" ">
<polygon fill="white" stroke="black" points="704,-112.5 704,-131.5 820,-131.5 820,-112.5 704,-112.5"/>
<text text-anchor="middle" x="762" y="-119.5" font-family="Helvetica,sans-Serif" font-size="10.00">tools/Stacktrace.hpp</text>
</a>
</g>
</g>
<!-- Node16&#45;&gt;Node17 -->
<g id="edge24" class="edge">
<title>Node16&#45;&gt;Node17</title>
<path fill="none" stroke="midnightblue" d="M1225.61,-170.14C1131.64,-162.27 974.98,-148.44 830.06,-132.08"/>
<polygon fill="midnightblue" stroke="midnightblue" points="830.42,-128.6 820.09,-130.95 829.63,-135.55 830.42,-128.6"/>
</g>
<!-- Node19 -->
<g id="node19" class="node">
<title>Node19</title>
<g id="a_node19"><a xlink:title=" ">
<polygon fill="white" stroke="#bfbfbf" points="1108.5,-112.5 1108.5,-131.5 1161.5,-131.5 1161.5,-112.5 1108.5,-112.5"/>
<text text-anchor="middle" x="1135" y="-119.5" font-family="Helvetica,sans-Serif" font-size="10.00">cstddef</text>
</a>
</g>
</g>
<!-- Node16&#45;&gt;Node19 -->
<g id="edge27" class="edge">
<title>Node16&#45;&gt;Node19</title>
<path fill="none" stroke="midnightblue" d="M1282.27,-168.44C1252.31,-159.2 1204.45,-144.43 1171.46,-134.25"/>
<polygon fill="midnightblue" stroke="midnightblue" points="1172.33,-130.85 1161.74,-131.25 1170.26,-137.54 1172.33,-130.85"/>
</g>
<!-- Node20 -->
<g id="node20" class="node">
<title>Node20</title>
<g id="a_node20"><a xlink:title=" ">
<polygon fill="white" stroke="#bfbfbf" points="1179.5,-112.5 1179.5,-131.5 1244.5,-131.5 1244.5,-112.5 1179.5,-112.5"/>
<text text-anchor="middle" x="1212" y="-119.5" font-family="Helvetica,sans-Serif" font-size="10.00">exception</text>
</a>
</g>
</g>
<!-- Node16&#45;&gt;Node20 -->
<g id="edge28" class="edge">
<title>Node16&#45;&gt;Node20</title>
<path fill="none" stroke="midnightblue" d="M1294.25,-168.32C1278.68,-159.74 1254.62,-146.49 1236.54,-136.52"/>
<polygon fill="midnightblue" stroke="midnightblue" points="1238.15,-133.42 1227.71,-131.65 1234.78,-139.55 1238.15,-133.42"/>
</g>
<!-- Node21 -->
<g id="node21" class="node">
<title>Node21</title>
<g id="a_node21"><a xlink:href="../../d7/d7a/configexception_8hpp.html" target="_top" xlink:title=" ">
<polygon fill="white" stroke="black" points="1944.5,-112.5 1944.5,-131.5 2059.5,-131.5 2059.5,-112.5 1944.5,-112.5"/>
<text text-anchor="middle" x="2002" y="-119.5" font-family="Helvetica,sans-Serif" font-size="10.00">configexception.hpp</text>
</a>
</g>
</g>
<!-- Node16&#45;&gt;Node21 -->
<g id="edge30" class="edge">
<title>Node16&#45;&gt;Node21</title>
<path fill="none" stroke="midnightblue" d="M1388.12,-168.49C1390.1,-168.32 1392.06,-168.16 1394,-168 1627.97,-148.69 1687.32,-154.57 1921,-132 1925.35,-131.58 1929.84,-131.11 1934.38,-130.61"/>
<polygon fill="midnightblue" stroke="midnightblue" points="1934.82,-134.08 1944.36,-129.47 1934.03,-127.13 1934.82,-134.08"/>
</g>
<!-- Node24 -->
<g id="node24" class="node">
<title>Node24</title>
<g id="a_node24"><a xlink:href="../../d8/db0/coreexception_8hpp.html" target="_top" xlink:title="Exception class for Core related errors.">
<polygon fill="white" stroke="black" points="578.5,-112.5 578.5,-131.5 685.5,-131.5 685.5,-112.5 578.5,-112.5"/>
<text text-anchor="middle" x="632" y="-119.5" font-family="Helvetica,sans-Serif" font-size="10.00">coreexception.hpp</text>
</a>
</g>
</g>
<!-- Node16&#45;&gt;Node24 -->
<g id="edge36" class="edge">
<title>Node16&#45;&gt;Node24</title>
<path fill="none" stroke="midnightblue" d="M1225.86,-173C1107.74,-166.74 886.13,-153.23 691.78,-132.6"/>
<polygon fill="midnightblue" stroke="midnightblue" points="691.99,-129.1 681.67,-131.52 691.24,-136.06 691.99,-129.1"/>
</g>
<!-- Node25 -->
<g id="node25" class="node">
<title>Node25</title>
<g id="a_node25"><a xlink:href="../../d8/d77/deviceexception_8hpp.html" target="_top" xlink:title="Exception class for Device related errors.">
<polygon fill="white" stroke="black" points="838,-112.5 838,-131.5 956,-131.5 956,-112.5 838,-112.5"/>
<text text-anchor="middle" x="897" y="-119.5" font-family="Helvetica,sans-Serif" font-size="10.00">deviceexception.hpp</text>
</a>
</g>
</g>
<!-- Node16&#45;&gt;Node25 -->
<g id="edge39" class="edge">
<title>Node16&#45;&gt;Node25</title>
<path fill="none" stroke="midnightblue" d="M1237.8,-168.49C1168.48,-159.77 1060.76,-145.76 962.51,-132.86"/>
<polygon fill="midnightblue" stroke="midnightblue" points="962.8,-129.36 952.43,-131.53 961.89,-136.3 962.8,-129.36"/>
</g>
<!-- Node26 -->
<g id="node26" class="node">
<title>Node26</title>
<g id="a_node26"><a xlink:href="../../db/d35/dynlibexception_8hpp.html" target="_top" xlink:title="Exception class for DynLib related errors.">
<polygon fill="white" stroke="black" points="974,-112.5 974,-131.5 1090,-131.5 1090,-112.5 974,-112.5"/>
<text text-anchor="middle" x="1032" y="-119.5" font-family="Helvetica,sans-Serif" font-size="10.00">dynlibexception.hpp</text>
</a>
</g>
</g>
<!-- Node16&#45;&gt;Node26 -->
<g id="edge42" class="edge">
<title>Node16&#45;&gt;Node26</title>
<path fill="none" stroke="midnightblue" d="M1260.86,-168.44C1210.09,-158.98 1131.47,-143.74 1080.82,-133.55"/>
<polygon fill="midnightblue" stroke="midnightblue" points="1081.26,-130.07 1070.76,-131.52 1079.87,-136.93 1081.26,-130.07"/>
</g>
<!-- Node27 -->
<g id="node27" class="node">
<title>Node27</title>
<g id="a_node27"><a xlink:href="../../d0/d4e/fsexception_8hpp.html" target="_top" xlink:title="Exception class for filesystem related errors.">
<polygon fill="white" stroke="black" points="1262.5,-112.5 1262.5,-131.5 1357.5,-131.5 1357.5,-112.5 1262.5,-112.5"/>
<text text-anchor="middle" x="1310" y="-119.5" font-family="Helvetica,sans-Serif" font-size="10.00">fsexception.hpp</text>
</a>
</g>
</g>
<!-- Node16&#45;&gt;Node27 -->
<g id="edge45" class="edge">
<title>Node16&#45;&gt;Node27</title>
<path fill="none" stroke="midnightblue" d="M1304.83,-168.08C1303.32,-160.93 1302.89,-150.64 1303.54,-141.69"/>
<polygon fill="midnightblue" stroke="midnightblue" points="1307.02,-142.13 1304.87,-131.75 1300.08,-141.2 1307.02,-142.13"/>
</g>
<!-- Node28 -->
<g id="node28" class="node">
<title>Node28</title>
<g id="a_node28"><a xlink:href="../../d1/d8e/gpioexception_8hpp.html" target="_top" xlink:title="Exception class for Gpio related errors.">
<polygon fill="white" stroke="black" points="1375.5,-112.5 1375.5,-131.5 1482.5,-131.5 1482.5,-112.5 1375.5,-112.5"/>
<text text-anchor="middle" x="1429" y="-119.5" font-family="Helvetica,sans-Serif" font-size="10.00">gpioexception.hpp</text>
</a>
</g>
</g>
<!-- Node16&#45;&gt;Node28 -->
<g id="edge48" class="edge">
<title>Node16&#45;&gt;Node28</title>
<path fill="none" stroke="midnightblue" d="M1324,-168.32C1341.6,-159.47 1371.87,-145.63 1395.48,-135.57"/>
<polygon fill="midnightblue" stroke="midnightblue" points="1396.95,-138.75 1404.82,-131.65 1394.24,-132.3 1396.95,-138.75"/>
</g>
<!-- Node29 -->
<g id="node29" class="node">
<title>Node29</title>
<g id="a_node29"><a xlink:href="../../d7/d8c/moduleexception_8hpp.html" target="_top" xlink:title="Exception class for modules.">
<polygon fill="white" stroke="black" points="1501,-112.5 1501,-131.5 1623,-131.5 1623,-112.5 1501,-112.5"/>
<text text-anchor="middle" x="1562" y="-119.5" font-family="Helvetica,sans-Serif" font-size="10.00">moduleexception.hpp</text>
</a>
</g>
</g>
<!-- Node16&#45;&gt;Node29 -->
<g id="edge51" class="edge">
<title>Node16&#45;&gt;Node29</title>
<path fill="none" stroke="midnightblue" d="M1344.84,-168.44C1386.91,-158.98 1457.93,-143.74 1507.3,-133.55"/>
<polygon fill="midnightblue" stroke="midnightblue" points="1508.09,-136.96 1517.18,-131.52 1506.68,-130.1 1508.09,-136.96"/>
</g>
<!-- Node30 -->
<g id="node30" class="node">
<title>Node30</title>
<g id="a_node30"><a xlink:href="../../df/d8d/scriptexception_8hpp.html" target="_top" xlink:title="Exception class for Script related errors.">
<polygon fill="white" stroke="black" points="1641.5,-112.5 1641.5,-131.5 1754.5,-131.5 1754.5,-112.5 1641.5,-112.5"/>
<text text-anchor="middle" x="1698" y="-119.5" font-family="Helvetica,sans-Serif" font-size="10.00">scriptexception.hpp</text>
</a>
</g>
</g>
<!-- Node16&#45;&gt;Node30 -->
<g id="edge54" class="edge">
<title>Node16&#45;&gt;Node30</title>
<path fill="none" stroke="midnightblue" d="M1366.39,-168.44C1436.63,-158.36 1556.31,-141.7 1631.1,-131.6"/>
<polygon fill="midnightblue" stroke="midnightblue" points="1631.91,-135.02 1641.35,-130.22 1630.97,-128.09 1631.91,-135.02"/>
</g>
<!-- Node31 -->
<g id="node31" class="node">
<title>Node31</title>
<g id="a_node31"><a xlink:href="../../dc/dce/signalexception_8hpp.html" target="_top" xlink:title="Exception class for Signal related errors.">
<polygon fill="white" stroke="black" points="1772.5,-112.5 1772.5,-131.5 1887.5,-131.5 1887.5,-112.5 1772.5,-112.5"/>
<text text-anchor="middle" x="1830" y="-119.5" font-family="Helvetica,sans-Serif" font-size="10.00">signalexception.hpp</text>
</a>
</g>
</g>
<!-- Node16&#45;&gt;Node31 -->
<g id="edge57" class="edge">
<title>Node16&#45;&gt;Node31</title>
<path fill="none" stroke="midnightblue" d="M1392.04,-168.46C1510.7,-156.61 1719.7,-136.15 1755,-132 1757.37,-131.72 1759.8,-131.43 1762.25,-131.13"/>
<polygon fill="midnightblue" stroke="midnightblue" points="1762.95,-134.56 1772.43,-129.84 1762.07,-127.62 1762.95,-134.56"/>
</g>
<!-- Node17&#45;&gt;Node11 -->
<g id="edge25" class="edge">
<title>Node17&#45;&gt;Node11</title>
<path fill="none" stroke="midnightblue" d="M761.83,-112.17C762.09,-97.85 764.91,-69.79 782,-56 820.64,-24.84 1169.37,-14.24 1277.91,-11.68"/>
<polygon fill="midnightblue" stroke="midnightblue" points="1278.01,-15.17 1287.93,-11.45 1277.85,-8.18 1278.01,-15.17"/>
</g>
<!-- Node18 -->
<g id="node18" class="node">
<title>Node18</title>
<g id="a_node18"><a xlink:title=" ">
<polygon fill="white" stroke="#bfbfbf" points="790.5,-56.5 790.5,-75.5 837.5,-75.5 837.5,-56.5 790.5,-56.5"/>
<text text-anchor="middle" x="814" y="-63.5" font-family="Helvetica,sans-Serif" font-size="10.00">vector</text>
</a>
</g>
</g>
<!-- Node17&#45;&gt;Node18 -->
<g id="edge26" class="edge">
<title>Node17&#45;&gt;Node18</title>
<path fill="none" stroke="midnightblue" d="M770.59,-112.08C778.16,-104.22 789.38,-92.57 798.51,-83.08"/>
<polygon fill="midnightblue" stroke="midnightblue" points="801.16,-85.38 805.57,-75.75 796.12,-80.53 801.16,-85.38"/>
</g>
<!-- Node21&#45;&gt;Node11 -->
<g id="edge35" class="edge">
<title>Node21&#45;&gt;Node11</title>
<path fill="none" stroke="midnightblue" d="M1995.62,-112.31C1984.3,-97.66 1959.12,-68.43 1930,-56 1822.65,-10.18 1454.1,-9.66 1342.37,-10.61"/>
<polygon fill="midnightblue" stroke="midnightblue" points="1342.04,-7.11 1332.08,-10.7 1342.11,-14.11 1342.04,-7.11"/>
</g>
<!-- Node21&#45;&gt;Node16 -->
<g id="edge31" class="edge">
<title>Node21&#45;&gt;Node16</title>
<path fill="none" stroke="midnightblue" d="M1944.33,-131.47C1942.53,-131.65 1940.76,-131.83 1939,-132 1705.32,-154.57 1645.97,-148.69 1412,-168 1409.45,-168.21 1406.87,-168.43 1404.26,-168.65"/>
<polygon fill="midnightblue" stroke="midnightblue" points="1403.74,-165.19 1394.08,-169.55 1404.35,-172.16 1403.74,-165.19"/>
</g>
<!-- Node22 -->
<g id="node22" class="node">
<title>Node22</title>
<g id="a_node22"><a xlink:href="../../dd/d35/Colorize_8hpp.html" target="_top" xlink:title=" ">
<polygon fill="white" stroke="black" points="1982,-56.5 1982,-75.5 2086,-75.5 2086,-56.5 1982,-56.5"/>
<text text-anchor="middle" x="2034" y="-63.5" font-family="Helvetica,sans-Serif" font-size="10.00">tools/Colorize.hpp</text>
</a>
</g>
</g>
<!-- Node21&#45;&gt;Node22 -->
<g id="edge32" class="edge">
<title>Node21&#45;&gt;Node22</title>
<path fill="none" stroke="midnightblue" d="M2007.28,-112.08C2011.71,-104.61 2018.16,-93.72 2023.62,-84.52"/>
<polygon fill="midnightblue" stroke="midnightblue" points="2026.73,-86.14 2028.81,-75.75 2020.71,-82.57 2026.73,-86.14"/>
</g>
<!-- Node22&#45;&gt;Node11 -->
<g id="edge34" class="edge">
<title>Node22&#45;&gt;Node11</title>
<path fill="none" stroke="midnightblue" d="M1981.8,-57.55C1977.14,-56.99 1972.49,-56.46 1968,-56 1728.35,-31.49 1438.18,-16.87 1342.39,-12.44"/>
<polygon fill="midnightblue" stroke="midnightblue" points="1342.35,-8.94 1332.2,-11.98 1342.03,-15.93 1342.35,-8.94"/>
</g>
<!-- Node23 -->
<g id="node23" class="node">
<title>Node23</title>
<g id="a_node23"><a xlink:title=" ">
<polygon fill="white" stroke="#bfbfbf" points="2006,-0.5 2006,-19.5 2062,-19.5 2062,-0.5 2006,-0.5"/>
<text text-anchor="middle" x="2034" y="-7.5" font-family="Helvetica,sans-Serif" font-size="10.00">sstream</text>
</a>
</g>
</g>
<!-- Node22&#45;&gt;Node23 -->
<g id="edge33" class="edge">
<title>Node22&#45;&gt;Node23</title>
<path fill="none" stroke="midnightblue" d="M2034,-56.08C2034,-49.01 2034,-38.86 2034,-29.99"/>
<polygon fill="midnightblue" stroke="midnightblue" points="2037.5,-29.75 2034,-19.75 2030.5,-29.75 2037.5,-29.75"/>
</g>
<!-- Node24&#45;&gt;Node11 -->
<g id="edge37" class="edge">
<title>Node24&#45;&gt;Node11</title>
<path fill="none" stroke="midnightblue" d="M645.2,-112.39C668.22,-97.86 717.72,-68.8 764,-56 861.73,-28.96 1175.46,-15.75 1277.56,-12.08"/>
<polygon fill="midnightblue" stroke="midnightblue" points="1277.98,-15.57 1287.85,-11.72 1277.74,-8.58 1277.98,-15.57"/>
</g>
<!-- Node24&#45;&gt;Node16 -->
<g id="edge38" class="edge">
<title>Node24&#45;&gt;Node16</title>
<path fill="none" stroke="midnightblue" d="M685.61,-129.77C691.84,-130.59 698.07,-131.36 704,-132 884.73,-151.5 1096.28,-164.93 1215.62,-171.76"/>
<polygon fill="midnightblue" stroke="midnightblue" points="1215.64,-175.27 1225.82,-172.34 1216.03,-168.28 1215.64,-175.27"/>
</g>
<!-- Node25&#45;&gt;Node11 -->
<g id="edge40" class="edge">
<title>Node25&#45;&gt;Node11</title>
<path fill="none" stroke="midnightblue" d="M929.06,-112.46C1005.99,-91.97 1200.37,-40.2 1277.62,-19.62"/>
<polygon fill="midnightblue" stroke="midnightblue" points="1278.96,-22.89 1287.72,-16.93 1277.15,-16.13 1278.96,-22.89"/>
</g>
<!-- Node25&#45;&gt;Node16 -->
<g id="edge41" class="edge">
<title>Node25&#45;&gt;Node16</title>
<path fill="none" stroke="midnightblue" d="M956.07,-129.65C962.15,-130.44 968.21,-131.24 974,-132 1066.57,-144.16 1173.12,-158.04 1241.05,-167.13"/>
<polygon fill="midnightblue" stroke="midnightblue" points="1240.82,-170.63 1251.2,-168.49 1241.75,-163.7 1240.82,-170.63"/>
</g>
<!-- Node26&#45;&gt;Node11 -->
<g id="edge43" class="edge">
<title>Node26&#45;&gt;Node11</title>
<path fill="none" stroke="midnightblue" d="M1053.81,-112.37C1102.84,-92.97 1221.88,-45.87 1278.74,-23.37"/>
<polygon fill="midnightblue" stroke="midnightblue" points="1280.28,-26.53 1288.29,-19.59 1277.7,-20.02 1280.28,-26.53"/>
</g>
<!-- Node26&#45;&gt;Node16 -->
<g id="edge44" class="edge">
<title>Node26&#45;&gt;Node16</title>
<path fill="none" stroke="midnightblue" d="M1080.92,-131.52C1131.62,-140.96 1210.24,-156.2 1260.97,-166.41"/>
<polygon fill="midnightblue" stroke="midnightblue" points="1260.54,-169.89 1271.04,-168.44 1261.93,-163.03 1260.54,-169.89"/>
</g>
<!-- Node27&#45;&gt;Node11 -->
<g id="edge46" class="edge">
<title>Node27&#45;&gt;Node11</title>
<path fill="none" stroke="midnightblue" d="M1310,-112.37C1310,-94.62 1310,-53.67 1310,-29.6"/>
<polygon fill="midnightblue" stroke="midnightblue" points="1313.5,-29.59 1310,-19.59 1306.5,-29.59 1313.5,-29.59"/>
</g>
<!-- Node27&#45;&gt;Node16 -->
<g id="edge47" class="edge">
<title>Node27&#45;&gt;Node16</title>
<path fill="none" stroke="midnightblue" d="M1315.13,-131.75C1316.66,-138.86 1317.1,-149.14 1316.47,-158.1"/>
<polygon fill="midnightblue" stroke="midnightblue" points="1312.99,-157.71 1315.17,-168.08 1319.93,-158.62 1312.99,-157.71"/>
</g>
<!-- Node28&#45;&gt;Node11 -->
<g id="edge50" class="edge">
<title>Node28&#45;&gt;Node11</title>
<path fill="none" stroke="midnightblue" d="M1419.66,-112.37C1399.59,-93.81 1352.1,-49.91 1326.7,-26.44"/>
<polygon fill="midnightblue" stroke="midnightblue" points="1329.01,-23.81 1319.29,-19.59 1324.26,-28.95 1329.01,-23.81"/>
</g>
<!-- Node28&#45;&gt;Node16 -->
<g id="edge49" class="edge">
<title>Node28&#45;&gt;Node16</title>
<path fill="none" stroke="midnightblue" d="M1415.31,-131.52C1397.72,-140.39 1367.12,-154.38 1343.34,-164.5"/>
<polygon fill="midnightblue" stroke="midnightblue" points="1341.81,-161.35 1333.94,-168.44 1344.52,-167.8 1341.81,-161.35"/>
</g>
<!-- Node29&#45;&gt;Node11 -->
<g id="edge52" class="edge">
<title>Node29&#45;&gt;Node11</title>
<path fill="none" stroke="midnightblue" d="M1542.23,-112.37C1497.97,-93.05 1390.78,-46.26 1338.98,-23.65"/>
<polygon fill="midnightblue" stroke="midnightblue" points="1340.25,-20.38 1329.68,-19.59 1337.45,-26.8 1340.25,-20.38"/>
</g>
<!-- Node29&#45;&gt;Node16 -->
<g id="edge53" class="edge">
<title>Node29&#45;&gt;Node16</title>
<path fill="none" stroke="midnightblue" d="M1527.34,-131.52C1485.35,-140.96 1414.34,-156.2 1364.91,-166.41"/>
<polygon fill="midnightblue" stroke="midnightblue" points="1364.11,-163 1355.02,-168.44 1365.52,-169.86 1364.11,-163"/>
</g>
<!-- Node30&#45;&gt;Node11 -->
<g id="edge55" class="edge">
<title>Node30&#45;&gt;Node11</title>
<path fill="none" stroke="midnightblue" d="M1667.88,-112.46C1596.11,-92.12 1415.57,-40.93 1341.97,-20.06"/>
<polygon fill="midnightblue" stroke="midnightblue" points="1342.9,-16.69 1332.32,-17.33 1340.99,-23.42 1342.9,-16.69"/>
</g>
<!-- Node30&#45;&gt;Node16 -->
<g id="edge56" class="edge">
<title>Node30&#45;&gt;Node16</title>
<path fill="none" stroke="midnightblue" d="M1641.89,-131.52C1574.74,-141.16 1462.13,-156.84 1386.92,-167.04"/>
<polygon fill="midnightblue" stroke="midnightblue" points="1386.01,-163.63 1376.57,-168.44 1386.95,-170.57 1386.01,-163.63"/>
</g>
<!-- Node31&#45;&gt;Node11 -->
<g id="edge58" class="edge">
<title>Node31&#45;&gt;Node11</title>
<path fill="none" stroke="midnightblue" d="M1789.63,-112.46C1689.78,-91.34 1432.79,-36.97 1342.2,-17.81"/>
<polygon fill="midnightblue" stroke="midnightblue" points="1342.75,-14.35 1332.24,-15.7 1341.3,-21.2 1342.75,-14.35"/>
</g>
<!-- Node31&#45;&gt;Node16 -->
<g id="edge59" class="edge">
<title>Node31&#45;&gt;Node16</title>
<path fill="none" stroke="midnightblue" d="M1777.18,-131.5C1775.77,-131.67 1774.38,-131.84 1773,-132 1737.72,-136.15 1528.95,-156.58 1404.06,-168.44"/>
<polygon fill="midnightblue" stroke="midnightblue" points="1403.73,-164.95 1394.1,-169.38 1404.39,-171.92 1403.73,-164.95"/>
</g>
</g>
</svg>
