<?xml version="1.0" encoding="UTF-8" standalone="no"?>
<!DOCTYPE svg PUBLIC "-//W3C//DTD SVG 1.1//EN"
 "http://www.w3.org/Graphics/SVG/1.1/DTD/svg11.dtd">
<!-- Generated by graphviz version 2.43.0 (0)
 -->
<!-- Title: src/core/audit/AuditEntry.hpp Pages: 1 -->
<!--zoomable 229 -->
<svg id="main" version="1.1" xmlns="http://www.w3.org/2000/svg" xmlns:xlink="http://www.w3.org/1999/xlink" xml:space="preserve" onload="init(evt)">
<style type="text/css"><![CDATA[
.edge:hover path { stroke: red; }
.edge:hover polygon { stroke: red; fill: red; }
]]></style>
<script type="text/javascript"><![CDATA[
var edges = document.getElementsByTagName('g');
if (edges && edges.length) {
  for (var i=0;i<edges.length;i++) {
    if (edges[i].id.substr(0,4)=='edge') {
      edges[i].setAttribute('class','edge');
    }
  }
}
]]></script>
        <defs>
                <circle id="rim" cx="0" cy="0" r="7"/>
                <circle id="rim2" cx="0" cy="0" r="3.5"/>
                <g id="zoomPlus">
                        <use xlink:href="#rim" fill="#404040">
                                <set attributeName="fill" to="#808080" begin="zoomplus.mouseover" end="zoomplus.mouseout"/>
                        </use>
                        <path d="M-4,0h8M0,-4v8" fill="none" stroke="white" stroke-width="1.5" pointer-events="none"/>
                </g>
                <g id="zoomMin">
                        <use xlink:href="#rim" fill="#404040">
                                <set attributeName="fill" to="#808080" begin="zoomminus.mouseover" end="zoomminus.mouseout"/>
                        </use>
                        <path d="M-4,0h8" fill="none" stroke="white" stroke-width="1.5" pointer-events="none"/>
                </g>
                <g id="dirArrow">
                        <path fill="none" stroke="white" stroke-width="1.5" d="M0,-3.0v7 M-2.5,-0.5L0,-3.0L2.5,-0.5"/>
                </g>
               <g id="resetDef">
                       <use xlink:href="#rim2" fill="#404040">
                               <set attributeName="fill" to="#808080" begin="reset.mouseover" end="reset.mouseout"/>
                       </use>
               </g>
        </defs>

<script type="text/javascript">
var viewWidth = 3045;
var viewHeight = 229;
var sectionId = 'dynsection-1';
</script>
<script xlink:href="../../svgpan.js"/>
<svg id="graph" class="graph">
<g id="viewport">
<title>src/core/audit/AuditEntry.hpp</title>
<polygon fill="white" stroke="transparent" points="-4,4 -4,-225 3041,-225 3041,4 -4,4"/>
<!-- Node1 -->
<g id="node1" class="node">
<title>Node1</title>
<g id="a_node1"><a xlink:title=" ">
<polygon fill="#bfbfbf" stroke="black" points="1551,-201.5 1551,-220.5 1707,-220.5 1707,-201.5 1551,-201.5"/>
<text text-anchor="middle" x="1629" y="-208.5" font-family="Helvetica,sans-Serif" font-size="10.00">src/core/audit/AuditEntry.hpp</text>
</a>
</g>
</g>
<!-- Node2 -->
<g id="node2" class="node">
<title>Node2</title>
<g id="a_node2"><a xlink:href="../../d6/dbe/AccessPointEvent_8hpp.html" target="_top" xlink:title=" ">
<polygon fill="white" stroke="black" points="325,-134.5 325,-164.5 469,-164.5 469,-134.5 325,-134.5"/>
<text text-anchor="start" x="333" y="-152.5" font-family="Helvetica,sans-Serif" font-size="10.00">src/core/audit/AccessPoint</text>
<text text-anchor="middle" x="397" y="-141.5" font-family="Helvetica,sans-Serif" font-size="10.00">Event.hpp</text>
</a>
</g>
</g>
<!-- Node1&#45;&gt;Node2 -->
<g id="edge1" class="edge">
<title>Node1&#45;&gt;Node2</title>
<path fill="none" stroke="midnightblue" d="M1540.82,-210.69C1347.64,-211.3 872.78,-207.85 478,-165 475.16,-164.69 472.27,-164.34 469.35,-163.96"/>
<polygon fill="midnightblue" stroke="midnightblue" points="1540.93,-214.19 1550.92,-210.65 1540.91,-207.19 1540.93,-214.19"/>
</g>
<!-- Node5 -->
<g id="node5" class="node">
<title>Node5</title>
<g id="a_node5"><a xlink:href="../../d3/d19/AuditEntry_8cpp.html" target="_top" xlink:title=" ">
<polygon fill="white" stroke="black" points="2068.5,-140 2068.5,-159 2223.5,-159 2223.5,-140 2068.5,-140"/>
<text text-anchor="middle" x="2146" y="-147" font-family="Helvetica,sans-Serif" font-size="10.00">src/core/audit/AuditEntry.cpp</text>
</a>
</g>
</g>
<!-- Node1&#45;&gt;Node5 -->
<g id="edge4" class="edge">
<title>Node1&#45;&gt;Node5</title>
<path fill="none" stroke="midnightblue" d="M1717.35,-202.34C1804.41,-194.42 1941.13,-180.98 2059,-165 2071.75,-163.27 2085.49,-161.12 2098.21,-159"/>
<polygon fill="midnightblue" stroke="midnightblue" points="1716.89,-198.87 1707.24,-203.25 1717.52,-205.84 1716.89,-198.87"/>
</g>
<!-- Node6 -->
<g id="node6" class="node">
<title>Node6</title>
<g id="a_node6"><a xlink:href="../../dc/dbe/CredentialEvent_8hpp.html" target="_top" xlink:title=" ">
<polygon fill="white" stroke="black" points="487,-134.5 487,-164.5 623,-164.5 623,-134.5 487,-134.5"/>
<text text-anchor="start" x="495" y="-152.5" font-family="Helvetica,sans-Serif" font-size="10.00">src/core/audit/Credential</text>
<text text-anchor="middle" x="555" y="-141.5" font-family="Helvetica,sans-Serif" font-size="10.00">Event.hpp</text>
</a>
</g>
</g>
<!-- Node1&#45;&gt;Node6 -->
<g id="edge5" class="edge">
<title>Node1&#45;&gt;Node6</title>
<path fill="none" stroke="midnightblue" d="M1540.67,-210.18C1366.33,-209.63 965.91,-203.78 632,-165 629.16,-164.67 626.27,-164.3 623.36,-163.89"/>
<polygon fill="midnightblue" stroke="midnightblue" points="1540.81,-213.68 1550.82,-210.21 1540.83,-206.68 1540.81,-213.68"/>
</g>
<!-- Node8 -->
<g id="node8" class="node">
<title>Node8</title>
<g id="a_node8"><a xlink:href="../../de/d60/DoorEvent_8hpp.html" target="_top" xlink:title=" ">
<polygon fill="white" stroke="black" points="641,-140 641,-159 799,-159 799,-140 641,-140"/>
<text text-anchor="middle" x="720" y="-147" font-family="Helvetica,sans-Serif" font-size="10.00">src/core/audit/DoorEvent.hpp</text>
</a>
</g>
</g>
<!-- Node1&#45;&gt;Node8 -->
<g id="edge8" class="edge">
<title>Node1&#45;&gt;Node8</title>
<path fill="none" stroke="midnightblue" d="M1540.83,-208.3C1390.2,-204.71 1073.81,-194.1 808,-165 794.3,-163.5 779.49,-161.29 766,-159.05"/>
<polygon fill="midnightblue" stroke="midnightblue" points="1540.87,-211.81 1550.95,-208.54 1541.03,-204.81 1540.87,-211.81"/>
</g>
<!-- Node10 -->
<g id="node10" class="node">
<title>Node10</title>
<g id="a_node10"><a xlink:href="../../d3/d2e/GroupEvent_8hpp.html" target="_top" xlink:title=" ">
<polygon fill="white" stroke="black" points="817,-140 817,-159 981,-159 981,-140 817,-140"/>
<text text-anchor="middle" x="899" y="-147" font-family="Helvetica,sans-Serif" font-size="10.00">src/core/audit/GroupEvent.hpp</text>
</a>
</g>
</g>
<!-- Node1&#45;&gt;Node10 -->
<g id="edge11" class="edge">
<title>Node1&#45;&gt;Node10</title>
<path fill="none" stroke="midnightblue" d="M1540.43,-206.22C1416.86,-200.39 1185.86,-187.46 990,-165 976.17,-163.41 961.23,-161.23 947.54,-159.04"/>
<polygon fill="midnightblue" stroke="midnightblue" points="1540.44,-209.73 1550.59,-206.7 1540.77,-202.73 1540.44,-209.73"/>
</g>
<!-- Node12 -->
<g id="node12" class="node">
<title>Node12</title>
<g id="a_node12"><a xlink:href="../../de/daf/ScheduleEvent_8hpp.html" target="_top" xlink:title=" ">
<polygon fill="white" stroke="black" points="999.5,-140 999.5,-159 1178.5,-159 1178.5,-140 999.5,-140"/>
<text text-anchor="middle" x="1089" y="-147" font-family="Helvetica,sans-Serif" font-size="10.00">src/core/audit/ScheduleEvent.hpp</text>
</a>
</g>
</g>
<!-- Node1&#45;&gt;Node12 -->
<g id="edge14" class="edge">
<title>Node1&#45;&gt;Node12</title>
<path fill="none" stroke="midnightblue" d="M1540.75,-202.14C1451.63,-193.93 1310.08,-180.16 1188,-165 1173.78,-163.23 1158.44,-161.1 1144.18,-159.02"/>
<polygon fill="midnightblue" stroke="midnightblue" points="1540.54,-205.63 1550.82,-203.06 1541.18,-198.66 1540.54,-205.63"/>
</g>
<!-- Node14 -->
<g id="node14" class="node">
<title>Node14</title>
<g id="a_node14"><a xlink:href="../../d0/d85/UpdateEvent_8hpp.html" target="_top" xlink:title=" ">
<polygon fill="white" stroke="black" points="1197,-140 1197,-159 1367,-159 1367,-140 1197,-140"/>
<text text-anchor="middle" x="1282" y="-147" font-family="Helvetica,sans-Serif" font-size="10.00">src/core/audit/UpdateEvent.hpp</text>
</a>
</g>
</g>
<!-- Node1&#45;&gt;Node14 -->
<g id="edge17" class="edge">
<title>Node1&#45;&gt;Node14</title>
<path fill="none" stroke="midnightblue" d="M1569.28,-199.76C1502.13,-188.25 1394.32,-169.76 1331.62,-159.01"/>
<polygon fill="midnightblue" stroke="midnightblue" points="1568.84,-203.23 1579.28,-201.48 1570.02,-196.34 1568.84,-203.23"/>
</g>
<!-- Node16 -->
<g id="node16" class="node">
<title>Node16</title>
<g id="a_node16"><a xlink:href="../../df/d7a/UserEvent_8hpp.html" target="_top" xlink:title=" ">
<polygon fill="white" stroke="black" points="1385.5,-140 1385.5,-159 1542.5,-159 1542.5,-140 1385.5,-140"/>
<text text-anchor="middle" x="1464" y="-147" font-family="Helvetica,sans-Serif" font-size="10.00">src/core/audit/UserEvent.hpp</text>
</a>
</g>
</g>
<!-- Node1&#45;&gt;Node16 -->
<g id="edge20" class="edge">
<title>Node1&#45;&gt;Node16</title>
<path fill="none" stroke="midnightblue" d="M1595.95,-198.08C1563.88,-186.52 1516,-169.25 1487.6,-159.01"/>
<polygon fill="midnightblue" stroke="midnightblue" points="1594.77,-201.38 1605.36,-201.48 1597.14,-194.79 1594.77,-201.38"/>
</g>
<!-- Node21 -->
<g id="node21" class="node">
<title>Node21</title>
<g id="a_node21"><a xlink:href="../../d1/d96/UserGroupMembershipEvent_8hpp.html" target="_top" xlink:title=" ">
<polygon fill="white" stroke="black" points="1560.5,-134.5 1560.5,-164.5 1697.5,-164.5 1697.5,-134.5 1560.5,-134.5"/>
<text text-anchor="start" x="1568.5" y="-152.5" font-family="Helvetica,sans-Serif" font-size="10.00">src/core/audit/UserGroup</text>
<text text-anchor="middle" x="1629" y="-141.5" font-family="Helvetica,sans-Serif" font-size="10.00">MembershipEvent.hpp</text>
</a>
</g>
</g>
<!-- Node1&#45;&gt;Node21 -->
<g id="edge26" class="edge">
<title>Node1&#45;&gt;Node21</title>
<path fill="none" stroke="midnightblue" d="M1629,-191.23C1629,-182.59 1629,-172.5 1629,-164.52"/>
<polygon fill="midnightblue" stroke="midnightblue" points="1625.5,-191.48 1629,-201.48 1632.5,-191.48 1625.5,-191.48"/>
</g>
<!-- Node23 -->
<g id="node23" class="node">
<title>Node23</title>
<g id="a_node23"><a xlink:href="../../de/d34/WSAPICall_8hpp.html" target="_top" xlink:title=" ">
<polygon fill="white" stroke="black" points="1716,-140 1716,-159 1874,-159 1874,-140 1716,-140"/>
<text text-anchor="middle" x="1795" y="-147" font-family="Helvetica,sans-Serif" font-size="10.00">src/core/audit/WSAPICall.hpp</text>
</a>
</g>
</g>
<!-- Node1&#45;&gt;Node23 -->
<g id="edge29" class="edge">
<title>Node1&#45;&gt;Node23</title>
<path fill="none" stroke="midnightblue" d="M1662.25,-198.08C1694.52,-186.52 1742.68,-169.25 1771.26,-159.01"/>
<polygon fill="midnightblue" stroke="midnightblue" points="1661.02,-194.81 1652.78,-201.48 1663.38,-201.4 1661.02,-194.81"/>
</g>
<!-- Node26 -->
<g id="node26" class="node">
<title>Node26</title>
<g id="a_node26"><a xlink:href="../../df/dcc/ZoneEvent_8hpp.html" target="_top" xlink:title=" ">
<polygon fill="white" stroke="black" points="1891.5,-140 1891.5,-159 2050.5,-159 2050.5,-140 1891.5,-140"/>
<text text-anchor="middle" x="1971" y="-147" font-family="Helvetica,sans-Serif" font-size="10.00">src/core/audit/ZoneEvent.hpp</text>
</a>
</g>
</g>
<!-- Node1&#45;&gt;Node26 -->
<g id="edge33" class="edge">
<title>Node1&#45;&gt;Node26</title>
<path fill="none" stroke="midnightblue" d="M1687.86,-199.76C1754.04,-188.25 1860.29,-169.76 1922.09,-159.01"/>
<polygon fill="midnightblue" stroke="midnightblue" points="1687.25,-196.31 1678,-201.48 1688.45,-203.21 1687.25,-196.31"/>
</g>
<!-- Node28 -->
<g id="node28" class="node">
<title>Node28</title>
<g id="a_node28"><a xlink:href="../../dd/db2/SMTPAudit_8hpp.html" target="_top" xlink:title=" ">
<polygon fill="white" stroke="black" points="2280.5,-140 2280.5,-159 2459.5,-159 2459.5,-140 2280.5,-140"/>
<text text-anchor="middle" x="2370" y="-147" font-family="Helvetica,sans-Serif" font-size="10.00">src/modules/smtp/SMTPAudit.hpp</text>
</a>
</g>
</g>
<!-- Node1&#45;&gt;Node28 -->
<g id="edge36" class="edge">
<title>Node1&#45;&gt;Node28</title>
<path fill="none" stroke="midnightblue" d="M1717.23,-205.67C1840.34,-199.19 2070.54,-185.51 2266,-165 2281.59,-163.36 2298.45,-161.19 2313.95,-159.03"/>
<polygon fill="midnightblue" stroke="midnightblue" points="1716.91,-202.18 1707.11,-206.2 1717.28,-209.17 1716.91,-202.18"/>
</g>
<!-- Node29 -->
<g id="node29" class="node">
<title>Node29</title>
<g id="a_node29"><a xlink:href="../../db/dda/SMTPAudit_8cpp.html" target="_top" xlink:title=" ">
<polygon fill="white" stroke="black" points="2569.5,-73 2569.5,-92 2748.5,-92 2748.5,-73 2569.5,-73"/>
<text text-anchor="middle" x="2659" y="-80" font-family="Helvetica,sans-Serif" font-size="10.00">src/modules/smtp/SMTPAudit.cpp</text>
</a>
</g>
</g>
<!-- Node1&#45;&gt;Node29 -->
<g id="edge41" class="edge">
<title>Node1&#45;&gt;Node29</title>
<path fill="none" stroke="midnightblue" d="M1717.42,-209.75C1861.67,-208.28 2140.71,-200.73 2232,-165 2252.62,-156.93 2250.59,-142.58 2271,-134 2390.33,-83.86 2431.73,-115.38 2560,-98 2573.68,-96.15 2588.42,-94.04 2602.23,-92.03"/>
<polygon fill="midnightblue" stroke="midnightblue" points="1717.24,-206.25 1707.27,-209.84 1717.31,-213.25 1717.24,-206.25"/>
</g>
<!-- Node33 -->
<g id="node33" class="node">
<title>Node33</title>
<g id="a_node33"><a xlink:href="../../da/d62/AuditGet_8cpp.html" target="_top" xlink:title=" ">
<polygon fill="white" stroke="black" points="2478,-134.5 2478,-164.5 2600,-164.5 2600,-134.5 2478,-134.5"/>
<text text-anchor="start" x="2486" y="-152.5" font-family="Helvetica,sans-Serif" font-size="10.00">src/modules/websock</text>
<text text-anchor="middle" x="2539" y="-141.5" font-family="Helvetica,sans-Serif" font-size="10.00">&#45;api/api/AuditGet.cpp</text>
</a>
</g>
</g>
<!-- Node1&#45;&gt;Node33 -->
<g id="edge42" class="edge">
<title>Node1&#45;&gt;Node33</title>
<path fill="none" stroke="midnightblue" d="M1717.43,-209.55C1870.83,-207.8 2195.91,-199.89 2468,-165 2471.24,-164.58 2474.56,-164.1 2477.9,-163.57"/>
<polygon fill="midnightblue" stroke="midnightblue" points="1717.1,-206.05 1707.14,-209.66 1717.17,-213.05 1717.1,-206.05"/>
</g>
<!-- Node34 -->
<g id="node34" class="node">
<title>Node34</title>
<g id="a_node34"><a xlink:href="../../dc/db9/DBService_8cpp.html" target="_top" xlink:title=" ">
<polygon fill="white" stroke="black" points="2618,-140 2618,-159 2764,-159 2764,-140 2618,-140"/>
<text text-anchor="middle" x="2691" y="-147" font-family="Helvetica,sans-Serif" font-size="10.00">src/tools/db/DBService.cpp</text>
</a>
</g>
</g>
<!-- Node1&#45;&gt;Node34 -->
<g id="edge43" class="edge">
<title>Node1&#45;&gt;Node34</title>
<path fill="none" stroke="midnightblue" d="M1717.09,-209.76C1889.08,-208.45 2281.41,-201.33 2609,-165 2621.93,-163.57 2635.91,-161.35 2648.59,-159.07"/>
<polygon fill="midnightblue" stroke="midnightblue" points="1717.05,-206.26 1707.08,-209.83 1717.1,-213.26 1717.05,-206.26"/>
</g>
<!-- Node3 -->
<g id="node3" class="node">
<title>Node3</title>
<g id="a_node3"><a xlink:href="../../d0/d15/AccessPointEvent_8cpp.html" target="_top" xlink:title=" ">
<polygon fill="white" stroke="black" points="0,-67.5 0,-97.5 144,-97.5 144,-67.5 0,-67.5"/>
<text text-anchor="start" x="8" y="-85.5" font-family="Helvetica,sans-Serif" font-size="10.00">src/core/audit/AccessPoint</text>
<text text-anchor="middle" x="72" y="-74.5" font-family="Helvetica,sans-Serif" font-size="10.00">Event.cpp</text>
</a>
</g>
</g>
<!-- Node2&#45;&gt;Node3 -->
<g id="edge2" class="edge">
<title>Node2&#45;&gt;Node3</title>
<path fill="none" stroke="midnightblue" d="M316.75,-132.45C263.24,-121.75 193.59,-107.82 142.27,-97.55"/>
<polygon fill="midnightblue" stroke="midnightblue" points="316.39,-135.95 326.88,-134.48 317.76,-129.08 316.39,-135.95"/>
</g>
<!-- Node4 -->
<g id="node4" class="node">
<title>Node4</title>
<g id="a_node4"><a xlink:href="../../d4/dbe/AuditFactory_8cpp.html" target="_top" xlink:title=" ">
<polygon fill="white" stroke="black" points="869.5,-73 869.5,-92 1034.5,-92 1034.5,-73 869.5,-73"/>
<text text-anchor="middle" x="952" y="-80" font-family="Helvetica,sans-Serif" font-size="10.00">src/core/audit/AuditFactory.cpp</text>
</a>
</g>
</g>
<!-- Node2&#45;&gt;Node4 -->
<g id="edge3" class="edge">
<title>Node2&#45;&gt;Node4</title>
<path fill="none" stroke="midnightblue" d="M479.38,-133.88C648.68,-111.26 694.03,-118.88 860,-98 873.48,-96.3 888.01,-94.16 901.47,-92.05"/>
<polygon fill="midnightblue" stroke="midnightblue" points="478.82,-130.43 469.38,-135.24 479.76,-137.36 478.82,-130.43"/>
</g>
<!-- Node6&#45;&gt;Node4 -->
<g id="edge6" class="edge">
<title>Node6&#45;&gt;Node4</title>
<path fill="none" stroke="midnightblue" d="M632.98,-133.94C673.28,-127.44 817.91,-104.64 898.03,-92.01"/>
<polygon fill="midnightblue" stroke="midnightblue" points="632.3,-130.51 623,-135.58 633.44,-137.42 632.3,-130.51"/>
</g>
<!-- Node7 -->
<g id="node7" class="node">
<title>Node7</title>
<g id="a_node7"><a xlink:href="../../d5/dd1/CredentialEvent_8cpp.html" target="_top" xlink:title=" ">
<polygon fill="white" stroke="black" points="162,-67.5 162,-97.5 298,-97.5 298,-67.5 162,-67.5"/>
<text text-anchor="start" x="170" y="-85.5" font-family="Helvetica,sans-Serif" font-size="10.00">src/core/audit/Credential</text>
<text text-anchor="middle" x="230" y="-74.5" font-family="Helvetica,sans-Serif" font-size="10.00">Event.cpp</text>
</a>
</g>
</g>
<!-- Node6&#45;&gt;Node7 -->
<g id="edge7" class="edge">
<title>Node6&#45;&gt;Node7</title>
<path fill="none" stroke="midnightblue" d="M476.9,-132.88C422.35,-121.97 350.24,-107.55 298.04,-97.11"/>
<polygon fill="midnightblue" stroke="midnightblue" points="476.38,-136.34 486.87,-134.87 477.75,-129.48 476.38,-136.34"/>
</g>
<!-- Node8&#45;&gt;Node4 -->
<g id="edge9" class="edge">
<title>Node8&#45;&gt;Node4</title>
<path fill="none" stroke="midnightblue" d="M760.72,-137.09C806.62,-124.23 880.19,-103.62 921.43,-92.06"/>
<polygon fill="midnightblue" stroke="midnightblue" points="759.49,-133.8 750.81,-139.87 761.38,-140.54 759.49,-133.8"/>
</g>
<!-- Node9 -->
<g id="node9" class="node">
<title>Node9</title>
<g id="a_node9"><a xlink:href="../../db/d89/DoorEvent_8cpp.html" target="_top" xlink:title=" ">
<polygon fill="white" stroke="black" points="316.5,-73 316.5,-92 473.5,-92 473.5,-73 316.5,-73"/>
<text text-anchor="middle" x="395" y="-80" font-family="Helvetica,sans-Serif" font-size="10.00">src/core/audit/DoorEvent.cpp</text>
</a>
</g>
</g>
<!-- Node8&#45;&gt;Node9 -->
<g id="edge10" class="edge">
<title>Node8&#45;&gt;Node9</title>
<path fill="none" stroke="midnightblue" d="M667.29,-137.96C603.32,-125.16 496.72,-103.84 437.66,-92.03"/>
<polygon fill="midnightblue" stroke="midnightblue" points="666.69,-141.41 677.18,-139.94 668.06,-134.54 666.69,-141.41"/>
</g>
<!-- Node10&#45;&gt;Node4 -->
<g id="edge12" class="edge">
<title>Node10&#45;&gt;Node4</title>
<path fill="none" stroke="midnightblue" d="M912.64,-131.77C922.97,-119.1 936.75,-102.2 944.97,-92.13"/>
<polygon fill="midnightblue" stroke="midnightblue" points="909.75,-129.77 906.15,-139.73 915.18,-134.2 909.75,-129.77"/>
</g>
<!-- Node11 -->
<g id="node11" class="node">
<title>Node11</title>
<g id="a_node11"><a xlink:href="../../d5/d94/GroupEvent_8cpp.html" target="_top" xlink:title=" ">
<polygon fill="white" stroke="black" points="491.5,-73 491.5,-92 654.5,-92 654.5,-73 491.5,-73"/>
<text text-anchor="middle" x="573" y="-80" font-family="Helvetica,sans-Serif" font-size="10.00">src/core/audit/GroupEvent.cpp</text>
</a>
</g>
</g>
<!-- Node10&#45;&gt;Node11 -->
<g id="edge13" class="edge">
<title>Node10&#45;&gt;Node11</title>
<path fill="none" stroke="midnightblue" d="M846.13,-137.96C781.97,-125.16 675.03,-103.84 615.79,-92.03"/>
<polygon fill="midnightblue" stroke="midnightblue" points="845.55,-141.41 856.05,-139.94 846.92,-134.55 845.55,-141.41"/>
</g>
<!-- Node12&#45;&gt;Node4 -->
<g id="edge15" class="edge">
<title>Node12&#45;&gt;Node4</title>
<path fill="none" stroke="midnightblue" d="M1061.48,-135.44C1034.35,-122.57 993.64,-103.26 970.27,-92.17"/>
<polygon fill="midnightblue" stroke="midnightblue" points="1060.27,-138.74 1070.81,-139.87 1063.27,-132.42 1060.27,-138.74"/>
</g>
<!-- Node13 -->
<g id="node13" class="node">
<title>Node13</title>
<g id="a_node13"><a xlink:href="../../d8/d89/ScheduleEvent_8cpp.html" target="_top" xlink:title=" ">
<polygon fill="white" stroke="black" points="673,-73 673,-92 851,-92 851,-73 673,-73"/>
<text text-anchor="middle" x="762" y="-80" font-family="Helvetica,sans-Serif" font-size="10.00">src/core/audit/ScheduleEvent.cpp</text>
</a>
</g>
</g>
<!-- Node12&#45;&gt;Node13 -->
<g id="edge16" class="edge">
<title>Node12&#45;&gt;Node13</title>
<path fill="none" stroke="midnightblue" d="M1035.97,-137.96C971.61,-125.16 864.34,-103.84 804.92,-92.03"/>
<polygon fill="midnightblue" stroke="midnightblue" points="1035.42,-141.42 1045.91,-139.94 1036.79,-134.55 1035.42,-141.42"/>
</g>
<!-- Node14&#45;&gt;Node4 -->
<g id="edge18" class="edge">
<title>Node14&#45;&gt;Node4</title>
<path fill="none" stroke="midnightblue" d="M1228.48,-137.96C1163.53,-125.16 1055.28,-103.84 995.31,-92.03"/>
<polygon fill="midnightblue" stroke="midnightblue" points="1228.03,-141.44 1238.52,-139.94 1229.38,-134.57 1228.03,-141.44"/>
</g>
<!-- Node15 -->
<g id="node15" class="node">
<title>Node15</title>
<g id="a_node15"><a xlink:href="../../d9/d05/UpdateEvent_8cpp.html" target="_top" xlink:title=" ">
<polygon fill="white" stroke="black" points="1052.5,-73 1052.5,-92 1221.5,-92 1221.5,-73 1052.5,-73"/>
<text text-anchor="middle" x="1137" y="-80" font-family="Helvetica,sans-Serif" font-size="10.00">src/core/audit/UpdateEvent.cpp</text>
</a>
</g>
</g>
<!-- Node14&#45;&gt;Node15 -->
<g id="edge19" class="edge">
<title>Node14&#45;&gt;Node15</title>
<path fill="none" stroke="midnightblue" d="M1253.25,-135.61C1224.53,-122.74 1181.18,-103.31 1156.33,-92.17"/>
<polygon fill="midnightblue" stroke="midnightblue" points="1252.19,-138.97 1262.75,-139.87 1255.05,-132.58 1252.19,-138.97"/>
</g>
<!-- Node16&#45;&gt;Node4 -->
<g id="edge21" class="edge">
<title>Node16&#45;&gt;Node4</title>
<path fill="none" stroke="midnightblue" d="M1405.18,-138.34C1395.45,-136.8 1385.45,-135.29 1376,-134 1228.5,-113.89 1190.55,-117.72 1043,-98 1029.84,-96.24 1015.65,-94.1 1002.47,-92.01"/>
<polygon fill="midnightblue" stroke="midnightblue" points="1404.77,-141.82 1415.2,-139.96 1405.89,-134.91 1404.77,-141.82"/>
</g>
<!-- Node17 -->
<g id="node17" class="node">
<title>Node17</title>
<g id="a_node17"><a xlink:href="../../d2/d8b/UserEvent_8cpp.html" target="_top" xlink:title=" ">
<polygon fill="white" stroke="black" points="1386,-73 1386,-92 1542,-92 1542,-73 1386,-73"/>
<text text-anchor="middle" x="1464" y="-80" font-family="Helvetica,sans-Serif" font-size="10.00">src/core/audit/UserEvent.cpp</text>
</a>
</g>
</g>
<!-- Node16&#45;&gt;Node17 -->
<g id="edge22" class="edge">
<title>Node16&#45;&gt;Node17</title>
<path fill="none" stroke="midnightblue" d="M1464,-129.54C1464,-117.17 1464,-101.62 1464,-92.13"/>
<polygon fill="midnightblue" stroke="midnightblue" points="1460.5,-129.73 1464,-139.73 1467.5,-129.73 1460.5,-129.73"/>
</g>
<!-- Node18 -->
<g id="node18" class="node">
<title>Node18</title>
<g id="a_node18"><a xlink:href="../../df/dc4/MembershipCRUD_8cpp.html" target="_top" xlink:title=" ">
<polygon fill="white" stroke="black" points="1560,-67.5 1560,-97.5 1726,-97.5 1726,-67.5 1560,-67.5"/>
<text text-anchor="start" x="1568" y="-85.5" font-family="Helvetica,sans-Serif" font-size="10.00">src/modules/websock</text>
<text text-anchor="middle" x="1643" y="-74.5" font-family="Helvetica,sans-Serif" font-size="10.00">&#45;api/api/MembershipCRUD.cpp</text>
</a>
</g>
</g>
<!-- Node16&#45;&gt;Node18 -->
<g id="edge23" class="edge">
<title>Node16&#45;&gt;Node18</title>
<path fill="none" stroke="midnightblue" d="M1497.47,-136.35C1527.81,-125.33 1572.52,-109.09 1604.37,-97.53"/>
<polygon fill="midnightblue" stroke="midnightblue" points="1495.97,-133.17 1487.77,-139.87 1498.36,-139.75 1495.97,-133.17"/>
</g>
<!-- Node19 -->
<g id="node19" class="node">
<title>Node19</title>
<g id="a_node19"><a xlink:href="../../d7/da0/PasswordChange_8cpp.html" target="_top" xlink:title=" ">
<polygon fill="white" stroke="black" points="1744.5,-67.5 1744.5,-97.5 1903.5,-97.5 1903.5,-67.5 1744.5,-67.5"/>
<text text-anchor="start" x="1752.5" y="-85.5" font-family="Helvetica,sans-Serif" font-size="10.00">src/modules/websock</text>
<text text-anchor="middle" x="1824" y="-74.5" font-family="Helvetica,sans-Serif" font-size="10.00">&#45;api/api/PasswordChange.cpp</text>
</a>
</g>
</g>
<!-- Node16&#45;&gt;Node19 -->
<g id="edge24" class="edge">
<title>Node16&#45;&gt;Node19</title>
<path fill="none" stroke="midnightblue" d="M1521.62,-138.1C1582.42,-127.12 1678.61,-109.75 1746.13,-97.56"/>
<polygon fill="midnightblue" stroke="midnightblue" points="1520.65,-134.71 1511.43,-139.94 1521.9,-141.6 1520.65,-134.71"/>
</g>
<!-- Node20 -->
<g id="node20" class="node">
<title>Node20</title>
<g id="a_node20"><a xlink:href="../../df/df7/UserCRUD_8cpp.html" target="_top" xlink:title=" ">
<polygon fill="white" stroke="black" points="1240,-67.5 1240,-97.5 1368,-97.5 1368,-67.5 1240,-67.5"/>
<text text-anchor="start" x="1248" y="-85.5" font-family="Helvetica,sans-Serif" font-size="10.00">src/modules/websock</text>
<text text-anchor="middle" x="1304" y="-74.5" font-family="Helvetica,sans-Serif" font-size="10.00">&#45;api/api/UserCRUD.cpp</text>
</a>
</g>
</g>
<!-- Node16&#45;&gt;Node20 -->
<g id="edge25" class="edge">
<title>Node16&#45;&gt;Node20</title>
<path fill="none" stroke="midnightblue" d="M1433.37,-136.06C1406.27,-125.05 1366.75,-108.99 1338.53,-97.53"/>
<polygon fill="midnightblue" stroke="midnightblue" points="1432.17,-139.35 1442.75,-139.87 1434.81,-132.86 1432.17,-139.35"/>
</g>
<!-- Node21&#45;&gt;Node4 -->
<g id="edge27" class="edge">
<title>Node21&#45;&gt;Node4</title>
<path fill="none" stroke="midnightblue" d="M1550.01,-133.98C1324.73,-105.8 1264.57,-123.45 1043,-98 1029.17,-96.41 1014.23,-94.23 1000.54,-92.04"/>
<polygon fill="midnightblue" stroke="midnightblue" points="1549.8,-137.48 1560.16,-135.27 1550.68,-130.54 1549.8,-137.48"/>
</g>
<!-- Node22 -->
<g id="node22" class="node">
<title>Node22</title>
<g id="a_node22"><a xlink:href="../../d3/dac/UserGroupMembershipEvent_8cpp.html" target="_top" xlink:title=" ">
<polygon fill="white" stroke="black" points="1921.5,-67.5 1921.5,-97.5 2058.5,-97.5 2058.5,-67.5 1921.5,-67.5"/>
<text text-anchor="start" x="1929.5" y="-85.5" font-family="Helvetica,sans-Serif" font-size="10.00">src/core/audit/UserGroup</text>
<text text-anchor="middle" x="1990" y="-74.5" font-family="Helvetica,sans-Serif" font-size="10.00">MembershipEvent.cpp</text>
</a>
</g>
</g>
<!-- Node21&#45;&gt;Node22 -->
<g id="edge28" class="edge">
<title>Node21&#45;&gt;Node22</title>
<path fill="none" stroke="midnightblue" d="M1707.9,-133.85C1799.68,-117.32 1824.08,-113.89 1912,-98 1914.98,-97.46 1918.03,-96.91 1921.1,-96.35"/>
<polygon fill="midnightblue" stroke="midnightblue" points="1707.12,-130.43 1697.9,-135.65 1708.36,-137.32 1707.12,-130.43"/>
</g>
<!-- Node23&#45;&gt;Node4 -->
<g id="edge30" class="edge">
<title>Node23&#45;&gt;Node4</title>
<path fill="none" stroke="midnightblue" d="M1738.36,-138.34C1727.64,-136.68 1716.5,-135.14 1706,-134 1412.61,-102.23 1336.44,-129.26 1043,-98 1028.84,-96.49 1013.53,-94.28 999.58,-92.04"/>
<polygon fill="midnightblue" stroke="midnightblue" points="1738.05,-141.83 1748.48,-139.95 1739.15,-134.92 1738.05,-141.83"/>
</g>
<!-- Node24 -->
<g id="node24" class="node">
<title>Node24</title>
<g id="a_node24"><a xlink:href="../../d2/de5/WSAPICall_8cpp.html" target="_top" xlink:title=" ">
<polygon fill="white" stroke="black" points="2217.5,-73 2217.5,-92 2374.5,-92 2374.5,-73 2217.5,-73"/>
<text text-anchor="middle" x="2296" y="-80" font-family="Helvetica,sans-Serif" font-size="10.00">src/core/audit/WSAPICall.cpp</text>
</a>
</g>
</g>
<!-- Node23&#45;&gt;Node24 -->
<g id="edge31" class="edge">
<title>Node23&#45;&gt;Node24</title>
<path fill="none" stroke="midnightblue" d="M1853.15,-138.35C1862.77,-136.8 1872.66,-135.29 1882,-134 2026.39,-114.01 2063.59,-117.86 2208,-98 2220.73,-96.25 2234.46,-94.11 2247.2,-92.02"/>
<polygon fill="midnightblue" stroke="midnightblue" points="1852.55,-134.9 1843.25,-139.97 1853.68,-141.81 1852.55,-134.9"/>
</g>
<!-- Node25 -->
<g id="node25" class="node">
<title>Node25</title>
<g id="a_node25"><a xlink:href="../../d4/d2c/WSServer_8cpp.html" target="_top" xlink:title=" ">
<polygon fill="white" stroke="black" points="2077,-67.5 2077,-97.5 2199,-97.5 2199,-67.5 2077,-67.5"/>
<text text-anchor="start" x="2085" y="-85.5" font-family="Helvetica,sans-Serif" font-size="10.00">src/modules/websock</text>
<text text-anchor="middle" x="2138" y="-74.5" font-family="Helvetica,sans-Serif" font-size="10.00">&#45;api/WSServer.cpp</text>
</a>
</g>
</g>
<!-- Node23&#45;&gt;Node25 -->
<g id="edge32" class="edge">
<title>Node23&#45;&gt;Node25</title>
<path fill="none" stroke="midnightblue" d="M1852.14,-138.2C1907.22,-128.2 1992.89,-112.45 2067,-98 2070.21,-97.37 2073.5,-96.73 2076.82,-96.07"/>
<polygon fill="midnightblue" stroke="midnightblue" points="1851.44,-134.77 1842.22,-140 1852.69,-141.66 1851.44,-134.77"/>
</g>
<!-- Node26&#45;&gt;Node4 -->
<g id="edge34" class="edge">
<title>Node26&#45;&gt;Node4</title>
<path fill="none" stroke="midnightblue" d="M1915.37,-138.29C1904.66,-136.62 1893.5,-135.09 1883,-134 1511.31,-95.55 1414.79,-135.46 1043,-98 1028.67,-96.56 1013.17,-94.34 999.1,-92.06"/>
<polygon fill="midnightblue" stroke="midnightblue" points="1915.04,-141.78 1925.47,-139.92 1916.15,-134.87 1915.04,-141.78"/>
</g>
<!-- Node27 -->
<g id="node27" class="node">
<title>Node27</title>
<g id="a_node27"><a xlink:href="../../d5/db2/ZoneEvent_8cpp.html" target="_top" xlink:title=" ">
<polygon fill="white" stroke="black" points="2393,-73 2393,-92 2551,-92 2551,-73 2393,-73"/>
<text text-anchor="middle" x="2472" y="-80" font-family="Helvetica,sans-Serif" font-size="10.00">src/core/audit/ZoneEvent.cpp</text>
</a>
</g>
</g>
<!-- Node26&#45;&gt;Node27 -->
<g id="edge35" class="edge">
<title>Node26&#45;&gt;Node27</title>
<path fill="none" stroke="midnightblue" d="M2029.82,-138.37C2039.55,-136.82 2049.55,-135.3 2059,-134 2202.53,-114.22 2239.45,-117.66 2383,-98 2395.87,-96.24 2409.75,-94.09 2422.64,-92"/>
<polygon fill="midnightblue" stroke="midnightblue" points="2029.12,-134.94 2019.8,-139.99 2030.24,-141.85 2029.12,-134.94"/>
</g>
<!-- Node28&#45;&gt;Node29 -->
<g id="edge37" class="edge">
<title>Node28&#45;&gt;Node29</title>
<path fill="none" stroke="midnightblue" d="M2417.91,-137.72C2474.82,-124.92 2568.59,-103.83 2620.84,-92.08"/>
<polygon fill="midnightblue" stroke="midnightblue" points="2417.07,-134.33 2408.08,-139.94 2418.6,-141.16 2417.07,-134.33"/>
</g>
<!-- Node30 -->
<g id="node30" class="node">
<title>Node30</title>
<g id="a_node30"><a xlink:href="../../d6/dde/SMTPAuditSerializer_8hpp.html" target="_top" xlink:title=" ">
<polygon fill="white" stroke="black" points="2767,-67.5 2767,-97.5 2925,-97.5 2925,-67.5 2767,-67.5"/>
<text text-anchor="start" x="2775" y="-85.5" font-family="Helvetica,sans-Serif" font-size="10.00">src/modules/smtp/SMTPAudit</text>
<text text-anchor="middle" x="2846" y="-74.5" font-family="Helvetica,sans-Serif" font-size="10.00">Serializer.hpp</text>
</a>
</g>
</g>
<!-- Node28&#45;&gt;Node30 -->
<g id="edge38" class="edge">
<title>Node28&#45;&gt;Node30</title>
<path fill="none" stroke="midnightblue" d="M2436.94,-138.5C2447.66,-136.95 2458.63,-135.41 2469,-134 2597.27,-116.62 2629.9,-116.53 2758,-98 2760.91,-97.58 2763.88,-97.14 2766.87,-96.69"/>
<polygon fill="midnightblue" stroke="midnightblue" points="2436.17,-135.07 2426.77,-139.97 2437.17,-142 2436.17,-135.07"/>
</g>
<!-- Node31 -->
<g id="node31" class="node">
<title>Node31</title>
<g id="a_node31"><a xlink:href="../../d5/d3e/SMTPAuditSerializer_8cpp.html" target="_top" xlink:title=" ">
<polygon fill="white" stroke="black" points="2671,-0.5 2671,-30.5 2829,-30.5 2829,-0.5 2671,-0.5"/>
<text text-anchor="start" x="2679" y="-18.5" font-family="Helvetica,sans-Serif" font-size="10.00">src/modules/smtp/SMTPAudit</text>
<text text-anchor="middle" x="2750" y="-7.5" font-family="Helvetica,sans-Serif" font-size="10.00">Serializer.cpp</text>
</a>
</g>
</g>
<!-- Node30&#45;&gt;Node31 -->
<g id="edge39" class="edge">
<title>Node30&#45;&gt;Node31</title>
<path fill="none" stroke="midnightblue" d="M2816.81,-61.73C2801.95,-51.68 2784.24,-39.68 2770.79,-30.58"/>
<polygon fill="midnightblue" stroke="midnightblue" points="2814.93,-64.69 2825.17,-67.4 2818.85,-58.89 2814.93,-64.69"/>
</g>
<!-- Node32 -->
<g id="node32" class="node">
<title>Node32</title>
<g id="a_node32"><a xlink:href="../../da/d6f/SMTPModule_8cpp.html" target="_top" xlink:title=" ">
<polygon fill="white" stroke="black" points="2847,-6 2847,-25 3037,-25 3037,-6 2847,-6"/>
<text text-anchor="middle" x="2942" y="-13" font-family="Helvetica,sans-Serif" font-size="10.00">src/modules/smtp/SMTPModule.cpp</text>
</a>
</g>
</g>
<!-- Node30&#45;&gt;Node32 -->
<g id="edge40" class="edge">
<title>Node30&#45;&gt;Node32</title>
<path fill="none" stroke="midnightblue" d="M2875.33,-61.64C2893.45,-49.37 2915.77,-34.26 2929.44,-25.01"/>
<polygon fill="midnightblue" stroke="midnightblue" points="2873.15,-58.89 2866.83,-67.4 2877.07,-64.69 2873.15,-58.89"/>
</g>
</g>
</svg>
        <g id="navigator" transform="translate(0 0)" fill="#404254">
                <rect fill="#f2f5e9" fill-opacity="0.5" stroke="#606060" stroke-width=".5" x="0" y="0" width="60" height="60"/>
                <use id="zoomplus" xlink:href="#zoomPlus" x="17" y="9" onmousedown="handleZoom(evt,'in')"/>
                <use id="zoomminus" xlink:href="#zoomMin" x="42" y="9" onmousedown="handleZoom(evt,'out')"/>
                <use id="reset" xlink:href="#resetDef" x="30" y="36" onmousedown="handleReset()"/>
                <g id="arrowUp" xlink:href="#dirArrow" transform="translate(30 24)" onmousedown="handlePan(0,-1)">
                  <use xlink:href="#rim" fill="#404040">
                        <set attributeName="fill" to="#808080" begin="arrowUp.mouseover" end="arrowUp.mouseout"/>
                  </use>
                  <path fill="none" stroke="white" stroke-width="1.5" d="M0,-3.0v7 M-2.5,-0.5L0,-3.0L2.5,-0.5"/>
                </g>
                <g id="arrowRight" xlink:href="#dirArrow" transform="rotate(90) translate(36 -43)" onmousedown="handlePan(1,0)">
                  <use xlink:href="#rim" fill="#404040">
                        <set attributeName="fill" to="#808080" begin="arrowRight.mouseover" end="arrowRight.mouseout"/>
                  </use>
                  <path fill="none" stroke="white" stroke-width="1.5" d="M0,-3.0v7 M-2.5,-0.5L0,-3.0L2.5,-0.5"/>
                </g>
                <g id="arrowDown" xlink:href="#dirArrow" transform="rotate(180) translate(-30 -48)" onmousedown="handlePan(0,1)">
                  <use xlink:href="#rim" fill="#404040">
                        <set attributeName="fill" to="#808080" begin="arrowDown.mouseover" end="arrowDown.mouseout"/>
                  </use>
                  <path fill="none" stroke="white" stroke-width="1.5" d="M0,-3.0v7 M-2.5,-0.5L0,-3.0L2.5,-0.5"/>
                </g>
                <g id="arrowLeft" xlink:href="#dirArrow" transform="rotate(270) translate(-36 17)" onmousedown="handlePan(-1,0)">
                  <use xlink:href="#rim" fill="#404040">
                        <set attributeName="fill" to="#808080" begin="arrowLeft.mouseover" end="arrowLeft.mouseout"/>
                  </use>
                  <path fill="none" stroke="white" stroke-width="1.5" d="M0,-3.0v7 M-2.5,-0.5L0,-3.0L2.5,-0.5"/>
                </g>
        </g>
        <svg viewBox="0 0 15 15" width="100%" height="30px" preserveAspectRatio="xMaxYMin meet">
         <g id="arrow_out" transform="scale(0.3 0.3)">
          <a xlink:href="AuditEntry_8hpp__dep__incl_org.svg" target="_base">
           <rect id="button" ry="5" rx="5" y="6" x="6" height="38" width="38"
                fill="#f2f5e9" fill-opacity="0.5" stroke="#606060" stroke-width="1.0"/>
           <path id="arrow"
             d="M 11.500037,31.436501 C 11.940474,20.09759 22.043105,11.32322 32.158766,21.979434 L 37.068811,17.246167 C 37.068811,17.246167 37.088388,32 37.088388,32 L 22.160133,31.978069 C 22.160133,31.978069 26.997745,27.140456 26.997745,27.140456 C 18.528582,18.264221 13.291696,25.230495 11.500037,31.436501 z"
             style="fill:#404040;"/>
          </a>
         </g>
        </svg>
</svg>
