<?xml version="1.0" encoding="UTF-8" standalone="no"?>
<!DOCTYPE svg PUBLIC "-//W3C//DTD SVG 1.1//EN"
 "http://www.w3.org/Graphics/SVG/1.1/DTD/svg11.dtd">
<!-- Generated by graphviz version 2.43.0 (0)
 -->
<!-- Title: src/modules/wiegand/strategies/Autodetect.hpp Pages: 1 -->
<svg width="711pt" height="431pt"
 viewBox="0.00 0.00 710.50 431.00" xmlns="http://www.w3.org/2000/svg" xmlns:xlink="http://www.w3.org/1999/xlink">
<g id="graph0" class="graph" transform="scale(1 1) rotate(0) translate(4 427)">
<title>src/modules/wiegand/strategies/Autodetect.hpp</title>
<polygon fill="white" stroke="transparent" points="-4,4 -4,-427 706.5,-427 706.5,4 -4,4"/>
<!-- Node1 -->
<g id="node1" class="node">
<title>Node1</title>
<g id="a_node1"><a xlink:title=" ">
<polygon fill="#bfbfbf" stroke="black" points="367,-392.5 367,-422.5 513,-422.5 513,-392.5 367,-392.5"/>
<text text-anchor="start" x="375" y="-410.5" font-family="Helvetica,sans-Serif" font-size="10.00">src/modules/wiegand</text>
<text text-anchor="middle" x="440" y="-399.5" font-family="Helvetica,sans-Serif" font-size="10.00">/strategies/Autodetect.hpp</text>
</a>
</g>
</g>
<!-- Node2 -->
<g id="node2" class="node">
<title>Node2</title>
<g id="a_node2"><a xlink:href="../../dc/d0d/Strategies_8hpp.html" target="_top" xlink:title=" ">
<polygon fill="white" stroke="black" points="396.5,-336.5 396.5,-355.5 483.5,-355.5 483.5,-336.5 396.5,-336.5"/>
<text text-anchor="middle" x="440" y="-343.5" font-family="Helvetica,sans-Serif" font-size="10.00">Strategies.hpp</text>
</a>
</g>
</g>
<!-- Node1&#45;&gt;Node2 -->
<g id="edge1" class="edge">
<title>Node1&#45;&gt;Node2</title>
<path fill="none" stroke="midnightblue" d="M440,-392.4C440,-384.47 440,-374.46 440,-365.86"/>
<polygon fill="midnightblue" stroke="midnightblue" points="443.5,-365.66 440,-355.66 436.5,-365.66 443.5,-365.66"/>
</g>
<!-- Node3 -->
<g id="node3" class="node">
<title>Node3</title>
<g id="a_node3"><a xlink:href="../../dc/d8e/SimpleWiegandStrategy_8hpp.html" target="_top" xlink:title=" ">
<polygon fill="white" stroke="black" points="0,-280.5 0,-299.5 154,-299.5 154,-280.5 0,-280.5"/>
<text text-anchor="middle" x="77" y="-287.5" font-family="Helvetica,sans-Serif" font-size="10.00">SimpleWiegandStrategy.hpp</text>
</a>
</g>
</g>
<!-- Node2&#45;&gt;Node3 -->
<g id="edge2" class="edge">
<title>Node2&#45;&gt;Node3</title>
<path fill="none" stroke="midnightblue" d="M396.21,-338.49C333.63,-329.18 218.05,-311.98 144.48,-301.04"/>
<polygon fill="midnightblue" stroke="midnightblue" points="144.79,-297.55 134.39,-299.54 143.76,-304.47 144.79,-297.55"/>
</g>
<!-- Node4 -->
<g id="node4" class="node">
<title>Node4</title>
<g id="a_node4"><a xlink:href="../../db/db3/CardReading_8hpp.html" target="_top" xlink:title=" ">
<polygon fill="white" stroke="black" points="132,-224.5 132,-243.5 232,-243.5 232,-224.5 132,-224.5"/>
<text text-anchor="middle" x="182" y="-231.5" font-family="Helvetica,sans-Serif" font-size="10.00">CardReading.hpp</text>
</a>
</g>
</g>
<!-- Node2&#45;&gt;Node4 -->
<g id="edge25" class="edge">
<title>Node2&#45;&gt;Node4</title>
<path fill="none" stroke="midnightblue" d="M396.25,-342.16C335.28,-337.33 229.08,-325.45 201,-300 188.09,-288.3 183.76,-268.36 182.4,-253.64"/>
<polygon fill="midnightblue" stroke="midnightblue" points="185.89,-253.42 181.85,-243.63 178.91,-253.81 185.89,-253.42"/>
</g>
<!-- Node16 -->
<g id="node16" class="node">
<title>Node16</title>
<g id="a_node16"><a xlink:href="../../db/da6/WiegandCardAndPin_8hpp.html" target="_top" xlink:title=" ">
<polygon fill="white" stroke="black" points="565.5,-280.5 565.5,-299.5 702.5,-299.5 702.5,-280.5 565.5,-280.5"/>
<text text-anchor="middle" x="634" y="-287.5" font-family="Helvetica,sans-Serif" font-size="10.00">WiegandCardAndPin.hpp</text>
</a>
</g>
</g>
<!-- Node2&#45;&gt;Node16 -->
<g id="edge15" class="edge">
<title>Node2&#45;&gt;Node16</title>
<path fill="none" stroke="midnightblue" d="M465.65,-336.44C496.96,-327.16 550.16,-312.31 588.44,-302.13"/>
<polygon fill="midnightblue" stroke="midnightblue" points="589.55,-305.45 598.32,-299.52 587.76,-298.69 589.55,-305.45"/>
</g>
<!-- Node18 -->
<g id="node18" class="node">
<title>Node18</title>
<g id="a_node18"><a xlink:href="../../d6/da6/WiegandPinBuffered_8hpp.html" target="_top" xlink:title=" ">
<polygon fill="white" stroke="black" points="371.5,-280.5 371.5,-299.5 508.5,-299.5 508.5,-280.5 371.5,-280.5"/>
<text text-anchor="middle" x="440" y="-287.5" font-family="Helvetica,sans-Serif" font-size="10.00">WiegandPinBuffered.hpp</text>
</a>
</g>
</g>
<!-- Node2&#45;&gt;Node18 -->
<g id="edge19" class="edge">
<title>Node2&#45;&gt;Node18</title>
<path fill="none" stroke="midnightblue" d="M440,-336.08C440,-329.01 440,-318.86 440,-309.99"/>
<polygon fill="midnightblue" stroke="midnightblue" points="443.5,-309.75 440,-299.75 436.5,-309.75 443.5,-309.75"/>
</g>
<!-- Node19 -->
<g id="node19" class="node">
<title>Node19</title>
<g id="a_node19"><a xlink:href="../../d0/dc4/PinReading_8hpp.html" target="_top" xlink:title=" ">
<polygon fill="white" stroke="black" points="394,-224.5 394,-243.5 486,-243.5 486,-224.5 394,-224.5"/>
<text text-anchor="middle" x="440" y="-231.5" font-family="Helvetica,sans-Serif" font-size="10.00">PinReading.hpp</text>
</a>
</g>
</g>
<!-- Node2&#45;&gt;Node19 -->
<g id="edge26" class="edge">
<title>Node2&#45;&gt;Node19</title>
<path fill="none" stroke="midnightblue" d="M469.12,-336.44C486.64,-329.62 507.52,-318.14 518,-300 531.19,-277.16 502.32,-258.81 476.04,-247.51"/>
<polygon fill="midnightblue" stroke="midnightblue" points="477.15,-244.18 466.56,-243.67 474.52,-250.67 477.15,-244.18"/>
</g>
<!-- Node20 -->
<g id="node20" class="node">
<title>Node20</title>
<g id="a_node20"><a xlink:href="../../d4/d9d/WiegandPinNBitsOnly_8hpp.html" target="_top" xlink:title=" ">
<polygon fill="white" stroke="black" points="210.5,-280.5 210.5,-299.5 353.5,-299.5 353.5,-280.5 210.5,-280.5"/>
<text text-anchor="middle" x="282" y="-287.5" font-family="Helvetica,sans-Serif" font-size="10.00">WiegandPinNBitsOnly.hpp</text>
</a>
</g>
</g>
<!-- Node2&#45;&gt;Node20 -->
<g id="edge23" class="edge">
<title>Node2&#45;&gt;Node20</title>
<path fill="none" stroke="midnightblue" d="M414.96,-336.44C388.38,-327.36 346.19,-312.94 316.48,-302.78"/>
<polygon fill="midnightblue" stroke="midnightblue" points="317.51,-299.44 306.92,-299.52 315.25,-306.06 317.51,-299.44"/>
</g>
<!-- Node3&#45;&gt;Node4 -->
<g id="edge3" class="edge">
<title>Node3&#45;&gt;Node4</title>
<path fill="none" stroke="midnightblue" d="M93.87,-280.32C110.71,-271.66 136.81,-258.24 156.24,-248.25"/>
<polygon fill="midnightblue" stroke="midnightblue" points="157.88,-251.34 165.17,-243.65 154.68,-245.12 157.88,-251.34"/>
</g>
<!-- Node5 -->
<g id="node5" class="node">
<title>Node5</title>
<g id="a_node5"><a xlink:href="../../dd/d5c/WiegandStrategy_8hpp.html" target="_top" xlink:title=" ">
<polygon fill="white" stroke="black" points="205,-168.5 205,-187.5 325,-187.5 325,-168.5 205,-168.5"/>
<text text-anchor="middle" x="265" y="-175.5" font-family="Helvetica,sans-Serif" font-size="10.00">WiegandStrategy.hpp</text>
</a>
</g>
</g>
<!-- Node4&#45;&gt;Node5 -->
<g id="edge4" class="edge">
<title>Node4&#45;&gt;Node5</title>
<path fill="none" stroke="midnightblue" d="M195.34,-224.32C208.16,-215.98 227.78,-203.21 242.94,-193.35"/>
<polygon fill="midnightblue" stroke="midnightblue" points="245.22,-196.04 251.7,-187.65 241.41,-190.17 245.22,-196.04"/>
</g>
<!-- Node6 -->
<g id="node6" class="node">
<title>Node6</title>
<g id="a_node6"><a xlink:href="../../dc/d74/Auth_8hpp.html" target="_top" xlink:title=" ">
<polygon fill="white" stroke="black" points="370.5,-112.5 370.5,-131.5 479.5,-131.5 479.5,-112.5 370.5,-112.5"/>
<text text-anchor="middle" x="425" y="-119.5" font-family="Helvetica,sans-Serif" font-size="10.00">core/auth/Auth.hpp</text>
</a>
</g>
</g>
<!-- Node5&#45;&gt;Node6 -->
<g id="edge5" class="edge">
<title>Node5&#45;&gt;Node6</title>
<path fill="none" stroke="midnightblue" d="M290.35,-168.44C317.27,-159.36 360,-144.94 390.09,-134.78"/>
<polygon fill="midnightblue" stroke="midnightblue" points="391.41,-138.03 399.77,-131.52 389.17,-131.4 391.41,-138.03"/>
</g>
<!-- Node12 -->
<g id="node12" class="node">
<title>Node12</title>
<g id="a_node12"><a xlink:title=" ">
<polygon fill="white" stroke="#bfbfbf" points="12.5,-112.5 12.5,-131.5 119.5,-131.5 119.5,-112.5 12.5,-112.5"/>
<text text-anchor="middle" x="66" y="-119.5" font-family="Helvetica,sans-Serif" font-size="10.00">zmqpp/zmqpp.hpp</text>
</a>
</g>
</g>
<!-- Node5&#45;&gt;Node12 -->
<g id="edge11" class="edge">
<title>Node5&#45;&gt;Node12</title>
<path fill="none" stroke="midnightblue" d="M233.47,-168.44C199.41,-159.2 144.99,-144.44 107.48,-134.26"/>
<polygon fill="midnightblue" stroke="midnightblue" points="107.95,-130.76 97.38,-131.52 106.12,-137.51 107.95,-130.76"/>
</g>
<!-- Node13 -->
<g id="node13" class="node">
<title>Node13</title>
<g id="a_node13"><a xlink:title=" ">
<polygon fill="white" stroke="#bfbfbf" points="138,-112.5 138,-131.5 222,-131.5 222,-112.5 138,-112.5"/>
<text text-anchor="middle" x="180" y="-119.5" font-family="Helvetica,sans-Serif" font-size="10.00">boost/any.hpp</text>
</a>
</g>
</g>
<!-- Node5&#45;&gt;Node13 -->
<g id="edge12" class="edge">
<title>Node5&#45;&gt;Node13</title>
<path fill="none" stroke="midnightblue" d="M251.34,-168.32C238.08,-159.9 217.73,-146.97 202.15,-137.07"/>
<polygon fill="midnightblue" stroke="midnightblue" points="203.94,-134.06 193.62,-131.65 200.19,-139.97 203.94,-134.06"/>
</g>
<!-- Node14 -->
<g id="node14" class="node">
<title>Node14</title>
<g id="a_node14"><a xlink:title=" ">
<polygon fill="white" stroke="#bfbfbf" points="240,-112.5 240,-131.5 290,-131.5 290,-112.5 240,-112.5"/>
<text text-anchor="middle" x="265" y="-119.5" font-family="Helvetica,sans-Serif" font-size="10.00">chrono</text>
</a>
</g>
</g>
<!-- Node5&#45;&gt;Node14 -->
<g id="edge13" class="edge">
<title>Node5&#45;&gt;Node14</title>
<path fill="none" stroke="midnightblue" d="M265,-168.08C265,-161.01 265,-150.86 265,-141.99"/>
<polygon fill="midnightblue" stroke="midnightblue" points="268.5,-141.75 265,-131.75 261.5,-141.75 268.5,-141.75"/>
</g>
<!-- Node15 -->
<g id="node15" class="node">
<title>Node15</title>
<g id="a_node15"><a xlink:title=" ">
<polygon fill="white" stroke="#bfbfbf" points="308,-112.5 308,-131.5 352,-131.5 352,-112.5 308,-112.5"/>
<text text-anchor="middle" x="330" y="-119.5" font-family="Helvetica,sans-Serif" font-size="10.00">string</text>
</a>
</g>
</g>
<!-- Node5&#45;&gt;Node15 -->
<g id="edge14" class="edge">
<title>Node5&#45;&gt;Node15</title>
<path fill="none" stroke="midnightblue" d="M275.44,-168.32C285.15,-160.26 299.82,-148.08 311.5,-138.37"/>
<polygon fill="midnightblue" stroke="midnightblue" points="313.91,-140.92 319.37,-131.83 309.44,-135.53 313.91,-140.92"/>
</g>
<!-- Node7 -->
<g id="node7" class="node">
<title>Node7</title>
<g id="a_node7"><a xlink:href="../../d3/d6f/AuthFwd_8hpp.html" target="_top" xlink:title=" ">
<polygon fill="white" stroke="black" points="438,-56.5 438,-75.5 518,-75.5 518,-56.5 438,-56.5"/>
<text text-anchor="middle" x="478" y="-63.5" font-family="Helvetica,sans-Serif" font-size="10.00">AuthFwd.hpp</text>
</a>
</g>
</g>
<!-- Node6&#45;&gt;Node7 -->
<g id="edge6" class="edge">
<title>Node6&#45;&gt;Node7</title>
<path fill="none" stroke="midnightblue" d="M433.75,-112.08C441.47,-104.22 452.9,-92.57 462.22,-83.08"/>
<polygon fill="midnightblue" stroke="midnightblue" points="464.9,-85.34 469.41,-75.75 459.91,-80.44 464.9,-85.34"/>
</g>
<!-- Node11 -->
<g id="node11" class="node">
<title>Node11</title>
<g id="a_node11"><a xlink:title=" ">
<polygon fill="white" stroke="#bfbfbf" points="302,-56.5 302,-75.5 420,-75.5 420,-56.5 302,-56.5"/>
<text text-anchor="middle" x="361" y="-63.5" font-family="Helvetica,sans-Serif" font-size="10.00">zmqpp/message.hpp</text>
</a>
</g>
</g>
<!-- Node6&#45;&gt;Node11 -->
<g id="edge10" class="edge">
<title>Node6&#45;&gt;Node11</title>
<path fill="none" stroke="midnightblue" d="M414.72,-112.32C405.16,-104.26 390.72,-92.08 379.22,-82.37"/>
<polygon fill="midnightblue" stroke="midnightblue" points="381.37,-79.61 371.47,-75.83 376.86,-84.96 381.37,-79.61"/>
</g>
<!-- Node8 -->
<g id="node8" class="node">
<title>Node8</title>
<g id="a_node8"><a xlink:title=" ">
<polygon fill="white" stroke="#bfbfbf" points="451.5,-0.5 451.5,-19.5 504.5,-19.5 504.5,-0.5 451.5,-0.5"/>
<text text-anchor="middle" x="478" y="-7.5" font-family="Helvetica,sans-Serif" font-size="10.00">cstddef</text>
</a>
</g>
</g>
<!-- Node7&#45;&gt;Node8 -->
<g id="edge7" class="edge">
<title>Node7&#45;&gt;Node8</title>
<path fill="none" stroke="midnightblue" d="M478,-56.08C478,-49.01 478,-38.86 478,-29.99"/>
<polygon fill="midnightblue" stroke="midnightblue" points="481.5,-29.75 478,-19.75 474.5,-29.75 481.5,-29.75"/>
</g>
<!-- Node9 -->
<g id="node9" class="node">
<title>Node9</title>
<g id="a_node9"><a xlink:title=" ">
<polygon fill="white" stroke="#bfbfbf" points="523,-0.5 523,-19.5 581,-19.5 581,-0.5 523,-0.5"/>
<text text-anchor="middle" x="552" y="-7.5" font-family="Helvetica,sans-Serif" font-size="10.00">memory</text>
</a>
</g>
</g>
<!-- Node7&#45;&gt;Node9 -->
<g id="edge8" class="edge">
<title>Node7&#45;&gt;Node9</title>
<path fill="none" stroke="midnightblue" d="M489.89,-56.32C501.15,-48.11 518.29,-35.6 531.71,-25.81"/>
<polygon fill="midnightblue" stroke="midnightblue" points="533.88,-28.56 539.89,-19.83 529.75,-22.9 533.88,-28.56"/>
</g>
<!-- Node10 -->
<g id="node10" class="node">
<title>Node10</title>
<g id="a_node10"><a xlink:title=" ">
<polygon fill="white" stroke="#bfbfbf" points="338.5,-0.5 338.5,-19.5 433.5,-19.5 433.5,-0.5 338.5,-0.5"/>
<text text-anchor="middle" x="386" y="-7.5" font-family="Helvetica,sans-Serif" font-size="10.00">odb/lazy&#45;ptr.hxx</text>
</a>
</g>
</g>
<!-- Node7&#45;&gt;Node10 -->
<g id="edge9" class="edge">
<title>Node7&#45;&gt;Node10</title>
<path fill="none" stroke="midnightblue" d="M463.22,-56.32C448.73,-47.82 426.43,-34.73 409.51,-24.8"/>
<polygon fill="midnightblue" stroke="midnightblue" points="411.14,-21.7 400.74,-19.65 407.6,-27.74 411.14,-21.7"/>
</g>
<!-- Node16&#45;&gt;Node2 -->
<g id="edge16" class="edge">
<title>Node16&#45;&gt;Node2</title>
<path fill="none" stroke="midnightblue" d="M608.48,-299.52C577.24,-308.78 524.05,-323.63 485.72,-333.83"/>
<polygon fill="midnightblue" stroke="midnightblue" points="484.6,-330.5 475.83,-336.44 486.39,-337.27 484.6,-330.5"/>
</g>
<!-- Node17 -->
<g id="node17" class="node">
<title>Node17</title>
<g id="a_node17"><a xlink:href="../../db/dd7/StrategiesFwd_8hpp.html" target="_top" xlink:title=" ">
<polygon fill="white" stroke="black" points="498.5,-168.5 498.5,-187.5 605.5,-187.5 605.5,-168.5 498.5,-168.5"/>
<text text-anchor="middle" x="552" y="-175.5" font-family="Helvetica,sans-Serif" font-size="10.00">StrategiesFwd.hpp</text>
</a>
</g>
</g>
<!-- Node16&#45;&gt;Node17 -->
<g id="edge17" class="edge">
<title>Node16&#45;&gt;Node17</title>
<path fill="none" stroke="midnightblue" d="M627.57,-280.37C613.97,-262.14 582.14,-219.43 564.43,-195.68"/>
<polygon fill="midnightblue" stroke="midnightblue" points="567.19,-193.52 558.4,-187.59 561.58,-197.7 567.19,-193.52"/>
</g>
<!-- Node17&#45;&gt;Node9 -->
<g id="edge18" class="edge">
<title>Node17&#45;&gt;Node9</title>
<path fill="none" stroke="midnightblue" d="M552,-168.08C552,-141.95 552,-65.21 552,-29.58"/>
<polygon fill="midnightblue" stroke="midnightblue" points="555.5,-29.57 552,-19.57 548.5,-29.57 555.5,-29.57"/>
</g>
<!-- Node18&#45;&gt;Node19 -->
<g id="edge20" class="edge">
<title>Node18&#45;&gt;Node19</title>
<path fill="none" stroke="midnightblue" d="M440,-280.08C440,-273.01 440,-262.86 440,-253.99"/>
<polygon fill="midnightblue" stroke="midnightblue" points="443.5,-253.75 440,-243.75 436.5,-253.75 443.5,-253.75"/>
</g>
<!-- Node19&#45;&gt;Node5 -->
<g id="edge22" class="edge">
<title>Node19&#45;&gt;Node5</title>
<path fill="none" stroke="midnightblue" d="M412.27,-224.44C382.57,-215.28 335.28,-200.69 302.33,-190.52"/>
<polygon fill="midnightblue" stroke="midnightblue" points="303.19,-187.12 292.6,-187.52 301.12,-193.81 303.19,-187.12"/>
</g>
<!-- Node19&#45;&gt;Node17 -->
<g id="edge21" class="edge">
<title>Node19&#45;&gt;Node17</title>
<path fill="none" stroke="midnightblue" d="M457.99,-224.32C476.04,-215.62 504.05,-202.12 524.8,-192.11"/>
<polygon fill="midnightblue" stroke="midnightblue" points="526.56,-195.15 534.05,-187.65 523.52,-188.84 526.56,-195.15"/>
</g>
<!-- Node20&#45;&gt;Node19 -->
<g id="edge24" class="edge">
<title>Node20&#45;&gt;Node19</title>
<path fill="none" stroke="midnightblue" d="M307.04,-280.44C333.62,-271.36 375.81,-256.94 405.52,-246.78"/>
<polygon fill="midnightblue" stroke="midnightblue" points="406.75,-250.06 415.08,-243.52 404.49,-243.44 406.75,-250.06"/>
</g>
</g>
</svg>
