<?xml version="1.0" encoding="UTF-8" standalone="no"?>
<!DOCTYPE svg PUBLIC "-//W3C//DTD SVG 1.1//EN"
 "http://www.w3.org/Graphics/SVG/1.1/DTD/svg11.dtd">
<!-- Generated by graphviz version 2.38.0 (20140413.2041)
 -->
<!-- Title: Leosac::Module::Wiegand::WiegandReaderConfig Pages: 1 -->
<svg width="345pt" height="319pt"
 viewBox="0.00 0.00 345.00 319.00" xmlns="http://www.w3.org/2000/svg" xmlns:xlink="http://www.w3.org/1999/xlink">
<g id="graph0" class="graph" transform="scale(1 1) rotate(0) translate(4 315)">
<title>Leosac::Module::Wiegand::WiegandReaderConfig</title>
<polygon fill="white" stroke="none" points="-4,4 -4,-315 341,-315 341,4 -4,4"/>
<!-- Node3 -->
<g id="node1" class="node"><title>Node3</title>
<polygon fill="#bfbfbf" stroke="black" points="121,-0.5 121,-30.5 251,-30.5 251,-0.5 121,-0.5"/>
<text text-anchor="start" x="129" y="-18.5" font-family="Helvetica,sans-Serif" font-size="10.00">Leosac::Module::Wiegand</text>
<text text-anchor="middle" x="186" y="-7.5" font-family="Helvetica,sans-Serif" font-size="10.00">::WiegandReaderConfig</text>
</g>
<!-- Node4 -->
<g id="node2" class="node"><title>Node4</title>
<g id="a_node2"><a xlink:href="../../d8/d82/classLeosac_1_1Hardware_1_1RFIDReader.html" target="_top" xlink:title="Abstraction of a RFID Reader device. ">
<polygon fill="white" stroke="black" points="0,-84 0,-103 158,-103 158,-84 0,-84"/>
<text text-anchor="middle" x="79" y="-91" font-family="Helvetica,sans-Serif" font-size="10.00">Leosac::Hardware::RFIDReader</text>
</a>
</g>
</g>
<!-- Node4&#45;&gt;Node3 -->
<g id="edge1" class="edge"><title>Node4&#45;&gt;Node3</title>
<path fill="none" stroke="midnightblue" d="M99.6387,-77.8407C118.864,-64.1851 147.331,-43.9657 166.262,-30.5198"/>
<polygon fill="midnightblue" stroke="midnightblue" points="97.4003,-75.1376 91.2743,-83.7818 101.454,-80.8445 97.4003,-75.1376"/>
</g>
<!-- Node5 -->
<g id="node3" class="node"><title>Node5</title>
<g id="a_node3"><a xlink:href="../../d3/d7f/classLeosac_1_1Hardware_1_1Device.html" target="_top" xlink:title="Base class for hardware devices. ">
<polygon fill="white" stroke="black" points="21.5,-156.5 21.5,-175.5 154.5,-175.5 154.5,-156.5 21.5,-156.5"/>
<text text-anchor="middle" x="88" y="-163.5" font-family="Helvetica,sans-Serif" font-size="10.00">Leosac::Hardware::Device</text>
</a>
</g>
</g>
<!-- Node5&#45;&gt;Node4 -->
<g id="edge2" class="edge"><title>Node5&#45;&gt;Node4</title>
<path fill="none" stroke="midnightblue" d="M85.6202,-146.358C83.8377,-132.395 81.48,-113.926 80.1126,-103.215"/>
<polygon fill="midnightblue" stroke="midnightblue" points="82.1582,-146.879 86.8964,-156.355 89.1018,-145.993 82.1582,-146.879"/>
</g>
<!-- Node6 -->
<g id="node4" class="node"><title>Node6</title>
<g id="a_node4"><a xlink:href="../../d7/d46/classLeosac_1_1UUID.html" target="_top" xlink:title="Thin wrapper around boost::uuids::uuid. ">
<polygon fill="white" stroke="black" points="48,-223.5 48,-242.5 128,-242.5 128,-223.5 48,-223.5"/>
<text text-anchor="middle" x="88" y="-230.5" font-family="Helvetica,sans-Serif" font-size="10.00">Leosac::UUID</text>
</a>
</g>
</g>
<!-- Node6&#45;&gt;Node5 -->
<g id="edge3" class="edge"><title>Node6&#45;&gt;Node5</title>
<path fill="none" stroke="#9a32cd" stroke-dasharray="5,2" d="M88,-213.037C88,-200.67 88,-185.12 88,-175.627"/>
<polygon fill="#9a32cd" stroke="#9a32cd" points="84.5001,-213.234 88,-223.234 91.5001,-213.234 84.5001,-213.234"/>
<text text-anchor="middle" x="96" y="-197" font-family="Helvetica,sans-Serif" font-size="10.00"> id_</text>
</g>
<!-- Node7 -->
<g id="node5" class="node"><title>Node7</title>
<g id="a_node5"><a xlink:title="STL class. ">
<polygon fill="white" stroke="#bfbfbf" points="151,-223.5 151,-242.5 211,-242.5 211,-223.5 151,-223.5"/>
<text text-anchor="middle" x="181" y="-230.5" font-family="Helvetica,sans-Serif" font-size="10.00">std::string</text>
</a>
</g>
</g>
<!-- Node7&#45;&gt;Node3 -->
<g id="edge7" class="edge"><title>Node7&#45;&gt;Node3</title>
<path fill="none" stroke="#9a32cd" stroke-dasharray="5,2" d="M181.436,-213.224C182.42,-170.785 184.8,-68.2412 185.672,-30.6331"/>
<polygon fill="#9a32cd" stroke="#9a32cd" points="177.935,-213.207 181.202,-223.285 184.933,-213.369 177.935,-213.207"/>
<text text-anchor="middle" x="198" y="-130" font-family="Helvetica,sans-Serif" font-size="10.00"> mode</text>
</g>
<!-- Node7&#45;&gt;Node5 -->
<g id="edge4" class="edge"><title>Node7&#45;&gt;Node5</title>
<path fill="none" stroke="#9a32cd" stroke-dasharray="5,2" d="M158.435,-217.898C152.09,-213.824 145.224,-209.312 139,-205 125.022,-195.317 109.406,-183.532 99.1803,-175.679"/>
<polygon fill="#9a32cd" stroke="#9a32cd" points="156.906,-221.074 167.224,-223.48 160.659,-215.164 156.906,-221.074"/>
<text text-anchor="middle" x="155.5" y="-197" font-family="Helvetica,sans-Serif" font-size="10.00"> name_</text>
</g>
<!-- Node8 -->
<g id="node6" class="node"><title>Node8</title>
<g id="a_node6"><a xlink:title="STL class. ">
<polygon fill="white" stroke="#bfbfbf" points="133.5,-280.5 133.5,-310.5 228.5,-310.5 228.5,-280.5 133.5,-280.5"/>
<text text-anchor="start" x="141.5" y="-298.5" font-family="Helvetica,sans-Serif" font-size="10.00">std::basic_string&lt;</text>
<text text-anchor="middle" x="181" y="-287.5" font-family="Helvetica,sans-Serif" font-size="10.00"> char &gt;</text>
</a>
</g>
</g>
<!-- Node8&#45;&gt;Node7 -->
<g id="edge5" class="edge"><title>Node8&#45;&gt;Node7</title>
<path fill="none" stroke="midnightblue" d="M181,-270.352C181,-260.513 181,-249.775 181,-242.54"/>
<polygon fill="midnightblue" stroke="midnightblue" points="177.5,-270.468 181,-280.468 184.5,-270.468 177.5,-270.468"/>
</g>
<!-- Node9 -->
<g id="node7" class="node"><title>Node9</title>
<polygon fill="white" stroke="#bfbfbf" points="214.5,-78.5 214.5,-108.5 327.5,-108.5 327.5,-78.5 214.5,-78.5"/>
<text text-anchor="start" x="222.5" y="-96.5" font-family="Helvetica,sans-Serif" font-size="10.00">std::array&lt; const char</text>
<text text-anchor="middle" x="271" y="-85.5" font-family="Helvetica,sans-Serif" font-size="10.00"> *const, 8 &gt;</text>
</g>
<!-- Node9&#45;&gt;Node3 -->
<g id="edge6" class="edge"><title>Node9&#45;&gt;Node3</title>
<path fill="none" stroke="#9a32cd" stroke-dasharray="5,2" d="M247.395,-71.3941C232.898,-58.4322 214.718,-42.1775 201.916,-30.7309"/>
<polygon fill="#9a32cd" stroke="#9a32cd" points="245.225,-74.1487 255.012,-78.205 249.89,-68.9304 245.225,-74.1487"/>
<text text-anchor="middle" x="285.5" y="-52" font-family="Helvetica,sans-Serif" font-size="10.00"> valid_operation_modes</text>
</g>
</g>
</svg>
