<?xml version="1.0" encoding="UTF-8" standalone="no"?>
<!DOCTYPE svg PUBLIC "-//W3C//DTD SVG 1.1//EN"
 "http://www.w3.org/Graphics/SVG/1.1/DTD/svg11.dtd">
<!-- Generated by graphviz version 2.43.0 (0)
 -->
<!-- Title: Leosac::Cred::Credential Pages: 1 -->
<svg width="447pt" height="196pt"
 viewBox="0.00 0.00 446.50 196.00" xmlns="http://www.w3.org/2000/svg" xmlns:xlink="http://www.w3.org/1999/xlink">
<g id="graph0" class="graph" transform="scale(1 1) rotate(0) translate(4 192)">
<title>Leosac::Cred::Credential</title>
<polygon fill="white" stroke="transparent" points="-4,4 -4,-192 442.5,-192 442.5,4 -4,4"/>
<!-- Node1 -->
<g id="node1" class="node">
<title>Node1</title>
<g id="a_node1"><a xlink:title="An ODB enabled credential object.">
<polygon fill="#bfbfbf" stroke="black" points="141,-56.5 141,-75.5 276,-75.5 276,-56.5 141,-56.5"/>
<text text-anchor="middle" x="208.5" y="-63.5" font-family="Helvetica,sans-Serif" font-size="10.00">Leosac::Cred::Credential</text>
</a>
</g>
</g>
<!-- Node4 -->
<g id="node4" class="node">
<title>Node4</title>
<g id="a_node4"><a xlink:href="../../d1/d16/classLeosac_1_1Cred_1_1PinCode.html" target="_top" xlink:title="A PinCode credential.">
<polygon fill="white" stroke="black" points="0,-0.5 0,-19.5 125,-19.5 125,-0.5 0,-0.5"/>
<text text-anchor="middle" x="62.5" y="-7.5" font-family="Helvetica,sans-Serif" font-size="10.00">Leosac::Cred::PinCode</text>
</a>
</g>
</g>
<!-- Node1&#45;&gt;Node4 -->
<g id="edge3" class="edge">
<title>Node1&#45;&gt;Node4</title>
<path fill="none" stroke="midnightblue" d="M175.8,-52.91C148.35,-42.75 109.83,-28.51 85.53,-19.52"/>
<polygon fill="midnightblue" stroke="midnightblue" points="174.77,-56.26 185.37,-56.44 177.2,-49.69 174.77,-56.26"/>
</g>
<!-- Node5 -->
<g id="node5" class="node">
<title>Node5</title>
<g id="a_node5"><a xlink:href="../../d7/d6b/classLeosac_1_1Cred_1_1RFIDCard.html" target="_top" xlink:title="An RFID card credential.">
<polygon fill="white" stroke="black" points="143,-0.5 143,-19.5 274,-19.5 274,-0.5 143,-0.5"/>
<text text-anchor="middle" x="208.5" y="-7.5" font-family="Helvetica,sans-Serif" font-size="10.00">Leosac::Cred::RFIDCard</text>
</a>
</g>
</g>
<!-- Node1&#45;&gt;Node5 -->
<g id="edge4" class="edge">
<title>Node1&#45;&gt;Node5</title>
<path fill="none" stroke="midnightblue" d="M208.5,-45.8C208.5,-36.91 208.5,-26.78 208.5,-19.75"/>
<polygon fill="midnightblue" stroke="midnightblue" points="205,-46.08 208.5,-56.08 212,-46.08 205,-46.08"/>
</g>
<!-- Node6 -->
<g id="node6" class="node">
<title>Node6</title>
<g id="a_node6"><a xlink:href="../../dd/dfb/classLeosac_1_1Cred_1_1RFIDCardPin.html" target="_top" xlink:title="Credentials composed of an RFIDCard and a PIN code.">
<polygon fill="white" stroke="black" points="292.5,-0.5 292.5,-19.5 438.5,-19.5 438.5,-0.5 292.5,-0.5"/>
<text text-anchor="middle" x="365.5" y="-7.5" font-family="Helvetica,sans-Serif" font-size="10.00">Leosac::Cred::RFIDCardPin</text>
</a>
</g>
</g>
<!-- Node1&#45;&gt;Node6 -->
<g id="edge5" class="edge">
<title>Node1&#45;&gt;Node6</title>
<path fill="none" stroke="midnightblue" d="M242.89,-53.17C272.45,-43 314.37,-28.59 340.74,-19.52"/>
<polygon fill="midnightblue" stroke="midnightblue" points="241.7,-49.88 233.38,-56.44 243.97,-56.5 241.7,-49.88"/>
</g>
<!-- Node2 -->
<g id="node2" class="node">
<title>Node2</title>
<g id="a_node2"><a xlink:href="../../d7/db0/classLeosac_1_1Cred_1_1ICredential.html" target="_top" xlink:title="Base interface for credential objects.">
<polygon fill="white" stroke="black" points="139.5,-112.5 139.5,-131.5 277.5,-131.5 277.5,-112.5 139.5,-112.5"/>
<text text-anchor="middle" x="208.5" y="-119.5" font-family="Helvetica,sans-Serif" font-size="10.00">Leosac::Cred::ICredential</text>
</a>
</g>
</g>
<!-- Node2&#45;&gt;Node1 -->
<g id="edge1" class="edge">
<title>Node2&#45;&gt;Node1</title>
<path fill="none" stroke="midnightblue" d="M208.5,-101.8C208.5,-92.91 208.5,-82.78 208.5,-75.75"/>
<polygon fill="midnightblue" stroke="midnightblue" points="205,-102.08 208.5,-112.08 212,-102.08 205,-102.08"/>
</g>
<!-- Node3 -->
<g id="node3" class="node">
<title>Node3</title>
<g id="a_node3"><a xlink:href="../../d0/d33/classLeosac_1_1Tools_1_1IVisitable.html" target="_top" xlink:title="Base class to make an object visitable.">
<polygon fill="white" stroke="black" points="142,-168.5 142,-187.5 275,-187.5 275,-168.5 142,-168.5"/>
<text text-anchor="middle" x="208.5" y="-175.5" font-family="Helvetica,sans-Serif" font-size="10.00">Leosac::Tools::IVisitable</text>
</a>
</g>
</g>
<!-- Node3&#45;&gt;Node2 -->
<g id="edge2" class="edge">
<title>Node3&#45;&gt;Node2</title>
<path fill="none" stroke="midnightblue" d="M208.5,-157.8C208.5,-148.91 208.5,-138.78 208.5,-131.75"/>
<polygon fill="midnightblue" stroke="midnightblue" points="205,-158.08 208.5,-168.08 212,-158.08 205,-158.08"/>
</g>
</g>
</svg>
