<?xml version="1.0" encoding="UTF-8" standalone="no"?>
<!DOCTYPE svg PUBLIC "-//W3C//DTD SVG 1.1//EN"
 "http://www.w3.org/Graphics/SVG/1.1/DTD/svg11.dtd">
<!-- Generated by graphviz version 2.43.0 (0)
 -->
<!-- Title: src/tools/db/Savepoint.cpp Pages: 1 -->
<svg width="497pt" height="140pt"
 viewBox="0.00 0.00 497.00 140.00" xmlns="http://www.w3.org/2000/svg" xmlns:xlink="http://www.w3.org/1999/xlink">
<g id="graph0" class="graph" transform="scale(1 1) rotate(0) translate(4 136)">
<title>src/tools/db/Savepoint.cpp</title>
<polygon fill="white" stroke="transparent" points="-4,4 -4,-136 493,-136 493,4 -4,4"/>
<!-- Node1 -->
<g id="node1" class="node">
<title>Node1</title>
<g id="a_node1"><a xlink:title=" ">
<polygon fill="#bfbfbf" stroke="black" points="157.5,-112.5 157.5,-131.5 302.5,-131.5 302.5,-112.5 157.5,-112.5"/>
<text text-anchor="middle" x="230" y="-119.5" font-family="Helvetica,sans-Serif" font-size="10.00">src/tools/db/Savepoint.cpp</text>
</a>
</g>
</g>
<!-- Node2 -->
<g id="node2" class="node">
<title>Node2</title>
<g id="a_node2"><a xlink:href="../../da/dda/Savepoint_8hpp.html" target="_top" xlink:title=" ">
<polygon fill="white" stroke="black" points="9,-56.5 9,-75.5 95,-75.5 95,-56.5 9,-56.5"/>
<text text-anchor="middle" x="52" y="-63.5" font-family="Helvetica,sans-Serif" font-size="10.00">Savepoint.hpp</text>
</a>
</g>
</g>
<!-- Node1&#45;&gt;Node2 -->
<g id="edge1" class="edge">
<title>Node1&#45;&gt;Node2</title>
<path fill="none" stroke="midnightblue" d="M201.8,-112.44C171.59,-103.28 123.49,-88.69 89.97,-78.52"/>
<polygon fill="midnightblue" stroke="midnightblue" points="90.66,-75.07 80.07,-75.52 88.63,-81.77 90.66,-75.07"/>
</g>
<!-- Node4 -->
<g id="node4" class="node">
<title>Node4</title>
<g id="a_node4"><a xlink:href="../../d8/d1f/GenGuid_8h.html" target="_top" xlink:title=" ">
<polygon fill="white" stroke="black" points="113.5,-56.5 113.5,-75.5 208.5,-75.5 208.5,-56.5 113.5,-56.5"/>
<text text-anchor="middle" x="161" y="-63.5" font-family="Helvetica,sans-Serif" font-size="10.00">tools/GenGuid.h</text>
</a>
</g>
</g>
<!-- Node1&#45;&gt;Node4 -->
<g id="edge3" class="edge">
<title>Node1&#45;&gt;Node4</title>
<path fill="none" stroke="midnightblue" d="M218.91,-112.32C208.51,-104.18 192.74,-91.84 180.28,-82.09"/>
<polygon fill="midnightblue" stroke="midnightblue" points="182.32,-79.24 172.29,-75.83 178.01,-84.75 182.32,-79.24"/>
</g>
<!-- Node6 -->
<g id="node6" class="node">
<title>Node6</title>
<g id="a_node6"><a xlink:title=" ">
<polygon fill="white" stroke="#bfbfbf" points="227,-56.5 227,-75.5 373,-75.5 373,-56.5 227,-56.5"/>
<text text-anchor="middle" x="300" y="-63.5" font-family="Helvetica,sans-Serif" font-size="10.00">boost/algorithm/string.hpp</text>
</a>
</g>
</g>
<!-- Node1&#45;&gt;Node6 -->
<g id="edge5" class="edge">
<title>Node1&#45;&gt;Node6</title>
<path fill="none" stroke="midnightblue" d="M241.25,-112.32C251.8,-104.18 267.8,-91.84 280.44,-82.09"/>
<polygon fill="midnightblue" stroke="midnightblue" points="282.77,-84.71 288.55,-75.83 278.49,-79.17 282.77,-84.71"/>
</g>
<!-- Node7 -->
<g id="node7" class="node">
<title>Node7</title>
<g id="a_node7"><a xlink:title=" ">
<polygon fill="white" stroke="#bfbfbf" points="391,-56.5 391,-75.5 489,-75.5 489,-56.5 391,-56.5"/>
<text text-anchor="middle" x="440" y="-63.5" font-family="Helvetica,sans-Serif" font-size="10.00">spdlog/fmt/fmt.h</text>
</a>
</g>
</g>
<!-- Node1&#45;&gt;Node7 -->
<g id="edge6" class="edge">
<title>Node1&#45;&gt;Node7</title>
<path fill="none" stroke="midnightblue" d="M263.28,-112.44C299.45,-103.14 357.38,-88.25 396.98,-78.06"/>
<polygon fill="midnightblue" stroke="midnightblue" points="398.07,-81.4 406.88,-75.52 396.32,-74.62 398.07,-81.4"/>
</g>
<!-- Node3 -->
<g id="node3" class="node">
<title>Node3</title>
<g id="a_node3"><a xlink:title=" ">
<polygon fill="white" stroke="#bfbfbf" points="0,-0.5 0,-19.5 104,-19.5 104,-0.5 0,-0.5"/>
<text text-anchor="middle" x="52" y="-7.5" font-family="Helvetica,sans-Serif" font-size="10.00">odb/database.hxx</text>
</a>
</g>
</g>
<!-- Node2&#45;&gt;Node3 -->
<g id="edge2" class="edge">
<title>Node2&#45;&gt;Node3</title>
<path fill="none" stroke="midnightblue" d="M52,-56.08C52,-49.01 52,-38.86 52,-29.99"/>
<polygon fill="midnightblue" stroke="midnightblue" points="55.5,-29.75 52,-19.75 48.5,-29.75 55.5,-29.75"/>
</g>
<!-- Node5 -->
<g id="node5" class="node">
<title>Node5</title>
<g id="a_node5"><a xlink:title=" ">
<polygon fill="white" stroke="#bfbfbf" points="139,-0.5 139,-19.5 183,-19.5 183,-0.5 139,-0.5"/>
<text text-anchor="middle" x="161" y="-7.5" font-family="Helvetica,sans-Serif" font-size="10.00">string</text>
</a>
</g>
</g>
<!-- Node4&#45;&gt;Node5 -->
<g id="edge4" class="edge">
<title>Node4&#45;&gt;Node5</title>
<path fill="none" stroke="midnightblue" d="M161,-56.08C161,-49.01 161,-38.86 161,-29.99"/>
<polygon fill="midnightblue" stroke="midnightblue" points="164.5,-29.75 161,-19.75 157.5,-29.75 164.5,-29.75"/>
</g>
</g>
</svg>
