<?xml version="1.0" encoding="UTF-8" standalone="no"?>
<!DOCTYPE svg PUBLIC "-//W3C//DTD SVG 1.1//EN"
 "http://www.w3.org/Graphics/SVG/1.1/DTD/svg11.dtd">
<!-- Generated by graphviz version 2.43.0 (0)
 -->
<!-- Title: src/core/credentials/serializers/PolymorphicCredentialSerializer.hpp Pages: 1 -->
<!--zoomable 341 -->
<svg id="main" version="1.1" xmlns="http://www.w3.org/2000/svg" xmlns:xlink="http://www.w3.org/1999/xlink" xml:space="preserve" onload="init(evt)">
<style type="text/css"><![CDATA[
.edge:hover path { stroke: red; }
.edge:hover polygon { stroke: red; fill: red; }
]]></style>
<script type="text/javascript"><![CDATA[
var edges = document.getElementsByTagName('g');
if (edges && edges.length) {
  for (var i=0;i<edges.length;i++) {
    if (edges[i].id.substr(0,4)=='edge') {
      edges[i].setAttribute('class','edge');
    }
  }
}
]]></script>
        <defs>
                <circle id="rim" cx="0" cy="0" r="7"/>
                <circle id="rim2" cx="0" cy="0" r="3.5"/>
                <g id="zoomPlus">
                        <use xlink:href="#rim" fill="#404040">
                                <set attributeName="fill" to="#808080" begin="zoomplus.mouseover" end="zoomplus.mouseout"/>
                        </use>
                        <path d="M-4,0h8M0,-4v8" fill="none" stroke="white" stroke-width="1.5" pointer-events="none"/>
                </g>
                <g id="zoomMin">
                        <use xlink:href="#rim" fill="#404040">
                                <set attributeName="fill" to="#808080" begin="zoomminus.mouseover" end="zoomminus.mouseout"/>
                        </use>
                        <path d="M-4,0h8" fill="none" stroke="white" stroke-width="1.5" pointer-events="none"/>
                </g>
                <g id="dirArrow">
                        <path fill="none" stroke="white" stroke-width="1.5" d="M0,-3.0v7 M-2.5,-0.5L0,-3.0L2.5,-0.5"/>
                </g>
               <g id="resetDef">
                       <use xlink:href="#rim2" fill="#404040">
                               <set attributeName="fill" to="#808080" begin="reset.mouseover" end="reset.mouseout"/>
                       </use>
               </g>
        </defs>

<script type="text/javascript">
var viewWidth = 952;
var viewHeight = 341;
var sectionId = 'dynsection-0';
</script>
<script xlink:href="../../svgpan.js"/>
<svg id="graph" class="graph">
<g id="viewport">
<title>src/core/credentials/serializers/PolymorphicCredentialSerializer.hpp</title>
<polygon fill="white" stroke="transparent" points="-4,4 -4,-337 948,-337 948,4 -4,4"/>
<!-- Node1 -->
<g id="node1" class="node">
<title>Node1</title>
<g id="a_node1"><a xlink:title=" ">
<polygon fill="#bfbfbf" stroke="black" points="652,-291.5 652,-332.5 836,-332.5 836,-291.5 652,-291.5"/>
<text text-anchor="start" x="660" y="-320.5" font-family="Helvetica,sans-Serif" font-size="10.00">src/core/credentials</text>
<text text-anchor="start" x="660" y="-309.5" font-family="Helvetica,sans-Serif" font-size="10.00">/serializers/PolymorphicCredential</text>
<text text-anchor="middle" x="744" y="-298.5" font-family="Helvetica,sans-Serif" font-size="10.00">Serializer.hpp</text>
</a>
</g>
</g>
<!-- Node2 -->
<g id="node2" class="node">
<title>Node2</title>
<g id="a_node2"><a xlink:href="../../dc/d49/LeosacFwd_8hpp.html" target="_top" xlink:title=" ">
<polygon fill="white" stroke="black" points="0,-235.5 0,-254.5 92,-254.5 92,-235.5 0,-235.5"/>
<text text-anchor="middle" x="46" y="-242.5" font-family="Helvetica,sans-Serif" font-size="10.00">LeosacFwd.hpp</text>
</a>
</g>
</g>
<!-- Node1&#45;&gt;Node2 -->
<g id="edge1" class="edge">
<title>Node1&#45;&gt;Node2</title>
<path fill="none" stroke="midnightblue" d="M651.67,-302.4C504.78,-288.72 222.24,-262.41 102.18,-251.23"/>
<polygon fill="midnightblue" stroke="midnightblue" points="102.39,-247.74 92.11,-250.29 101.74,-254.71 102.39,-247.74"/>
</g>
<!-- Node5 -->
<g id="node5" class="node">
<title>Node5</title>
<g id="a_node5"><a xlink:href="../../dc/dd6/IRFIDCard_8hpp.html" target="_top" xlink:title=" ">
<polygon fill="white" stroke="black" points="301.5,-235.5 301.5,-254.5 468.5,-254.5 468.5,-235.5 301.5,-235.5"/>
<text text-anchor="middle" x="385" y="-242.5" font-family="Helvetica,sans-Serif" font-size="10.00">core/credentials/IRFIDCard.hpp</text>
</a>
</g>
</g>
<!-- Node1&#45;&gt;Node5 -->
<g id="edge4" class="edge">
<title>Node1&#45;&gt;Node5</title>
<path fill="none" stroke="midnightblue" d="M651.55,-294.26C585.44,-282.29 498.55,-266.56 442.25,-256.36"/>
<polygon fill="midnightblue" stroke="midnightblue" points="442.56,-252.87 432.1,-254.53 441.32,-259.75 442.56,-252.87"/>
</g>
<!-- Node12 -->
<g id="node12" class="node">
<title>Node12</title>
<g id="a_node12"><a xlink:href="../../d2/d91/Visitor_8hpp.html" target="_top" xlink:title=" ">
<polygon fill="white" stroke="black" points="696.5,-56.5 696.5,-75.5 791.5,-75.5 791.5,-56.5 696.5,-56.5"/>
<text text-anchor="middle" x="744" y="-63.5" font-family="Helvetica,sans-Serif" font-size="10.00">tools/Visitor.hpp</text>
</a>
</g>
</g>
<!-- Node1&#45;&gt;Node12 -->
<g id="edge22" class="edge">
<title>Node1&#45;&gt;Node12</title>
<path fill="none" stroke="midnightblue" d="M744,-291.44C744,-245.46 744,-130.96 744,-85.77"/>
<polygon fill="midnightblue" stroke="midnightblue" points="747.5,-85.64 744,-75.64 740.5,-85.64 747.5,-85.64"/>
</g>
<!-- Node16 -->
<g id="node16" class="node">
<title>Node16</title>
<g id="a_node16"><a xlink:title=" ">
<polygon fill="white" stroke="#bfbfbf" points="772,-235.5 772,-254.5 882,-254.5 882,-235.5 772,-235.5"/>
<text text-anchor="middle" x="827" y="-242.5" font-family="Helvetica,sans-Serif" font-size="10.00">nlohmann/json.hpp</text>
</a>
</g>
</g>
<!-- Node1&#45;&gt;Node16 -->
<g id="edge23" class="edge">
<title>Node1&#45;&gt;Node16</title>
<path fill="none" stroke="midnightblue" d="M768.9,-291.5C781.38,-281.72 796.26,-270.07 807.84,-261.01"/>
<polygon fill="midnightblue" stroke="midnightblue" points="810.24,-263.57 815.95,-254.65 805.92,-258.06 810.24,-263.57"/>
</g>
<!-- Node17 -->
<g id="node17" class="node">
<title>Node17</title>
<g id="a_node17"><a xlink:title=" ">
<polygon fill="white" stroke="#bfbfbf" points="900,-235.5 900,-254.5 944,-254.5 944,-235.5 900,-235.5"/>
<text text-anchor="middle" x="922" y="-242.5" font-family="Helvetica,sans-Serif" font-size="10.00">string</text>
</a>
</g>
</g>
<!-- Node1&#45;&gt;Node17 -->
<g id="edge24" class="edge">
<title>Node1&#45;&gt;Node17</title>
<path fill="none" stroke="midnightblue" d="M797.41,-291.5C827.6,-280.47 864.34,-267.06 890.07,-257.66"/>
<polygon fill="midnightblue" stroke="midnightblue" points="891.5,-260.86 899.7,-254.14 889.1,-254.29 891.5,-260.86"/>
</g>
<!-- Node3 -->
<g id="node3" class="node">
<title>Node3</title>
<g id="a_node3"><a xlink:title=" ">
<polygon fill="white" stroke="#bfbfbf" points="158,-56.5 158,-75.5 216,-75.5 216,-56.5 158,-56.5"/>
<text text-anchor="middle" x="187" y="-63.5" font-family="Helvetica,sans-Serif" font-size="10.00">memory</text>
</a>
</g>
</g>
<!-- Node2&#45;&gt;Node3 -->
<g id="edge2" class="edge">
<title>Node2&#45;&gt;Node3</title>
<path fill="none" stroke="midnightblue" d="M36.19,-235.34C23.52,-223.03 4.08,-199.69 13,-179 36.96,-123.45 104.68,-92.52 148.23,-77.86"/>
<polygon fill="midnightblue" stroke="midnightblue" points="149.49,-81.13 157.93,-74.72 147.34,-74.47 149.49,-81.13"/>
</g>
<!-- Node4 -->
<g id="node4" class="node">
<title>Node4</title>
<g id="a_node4"><a xlink:title=" ">
<polygon fill="white" stroke="#bfbfbf" points="22.5,-179.5 22.5,-198.5 69.5,-198.5 69.5,-179.5 22.5,-179.5"/>
<text text-anchor="middle" x="46" y="-186.5" font-family="Helvetica,sans-Serif" font-size="10.00">vector</text>
</a>
</g>
</g>
<!-- Node2&#45;&gt;Node4 -->
<g id="edge3" class="edge">
<title>Node2&#45;&gt;Node4</title>
<path fill="none" stroke="midnightblue" d="M46,-235.08C46,-228.01 46,-217.86 46,-208.99"/>
<polygon fill="midnightblue" stroke="midnightblue" points="49.5,-208.75 46,-198.75 42.5,-208.75 49.5,-208.75"/>
</g>
<!-- Node5&#45;&gt;Node3 -->
<g id="edge21" class="edge">
<title>Node5&#45;&gt;Node3</title>
<path fill="none" stroke="midnightblue" d="M315.77,-235.47C259.48,-224.48 183.46,-199.5 146,-143 132.76,-123.03 152.04,-98.37 168.39,-82.66"/>
<polygon fill="midnightblue" stroke="midnightblue" points="170.97,-85.04 176.02,-75.73 166.27,-79.86 170.97,-85.04"/>
</g>
<!-- Node6 -->
<g id="node6" class="node">
<title>Node6</title>
<g id="a_node6"><a xlink:href="../../d0/db0/ICredential_8hpp.html" target="_top" xlink:title=" ">
<polygon fill="white" stroke="black" points="299,-179.5 299,-198.5 471,-198.5 471,-179.5 299,-179.5"/>
<text text-anchor="middle" x="385" y="-186.5" font-family="Helvetica,sans-Serif" font-size="10.00">core/credentials/ICredential.hpp</text>
</a>
</g>
</g>
<!-- Node5&#45;&gt;Node6 -->
<g id="edge5" class="edge">
<title>Node5&#45;&gt;Node6</title>
<path fill="none" stroke="midnightblue" d="M385,-235.08C385,-228.01 385,-217.86 385,-208.99"/>
<polygon fill="midnightblue" stroke="midnightblue" points="388.5,-208.75 385,-198.75 381.5,-208.75 388.5,-208.75"/>
</g>
<!-- Node6&#45;&gt;Node3 -->
<g id="edge20" class="edge">
<title>Node6&#45;&gt;Node3</title>
<path fill="none" stroke="midnightblue" d="M298.8,-182.35C241.39,-176.59 173.26,-165.18 155,-143 140.43,-125.31 156.6,-100.02 170.76,-83.56"/>
<polygon fill="midnightblue" stroke="midnightblue" points="173.65,-85.58 177.8,-75.84 168.48,-80.86 173.65,-85.58"/>
</g>
<!-- Node7 -->
<g id="node7" class="node">
<title>Node7</title>
<g id="a_node7"><a xlink:href="../../d3/d6f/AuthFwd_8hpp.html" target="_top" xlink:title=" ">
<polygon fill="white" stroke="black" points="458.5,-118 458.5,-137 587.5,-137 587.5,-118 458.5,-118"/>
<text text-anchor="middle" x="523" y="-125" font-family="Helvetica,sans-Serif" font-size="10.00">core/auth/AuthFwd.hpp</text>
</a>
</g>
</g>
<!-- Node6&#45;&gt;Node7 -->
<g id="edge6" class="edge">
<title>Node6&#45;&gt;Node7</title>
<path fill="none" stroke="midnightblue" d="M404.77,-179.48C428.14,-169.4 467.21,-152.55 494,-141"/>
<polygon fill="midnightblue" stroke="midnightblue" points="495.47,-144.18 503.26,-137.01 492.7,-137.75 495.47,-144.18"/>
</g>
<!-- Node10 -->
<g id="node10" class="node">
<title>Node10</title>
<g id="a_node10"><a xlink:href="../../d7/d7f/CredentialFwd_8hpp.html" target="_top" xlink:title=" ">
<polygon fill="white" stroke="black" points="164,-112.5 164,-142.5 312,-142.5 312,-112.5 164,-112.5"/>
<text text-anchor="start" x="172" y="-130.5" font-family="Helvetica,sans-Serif" font-size="10.00">core/credentials/Credential</text>
<text text-anchor="middle" x="238" y="-119.5" font-family="Helvetica,sans-Serif" font-size="10.00">Fwd.hpp</text>
</a>
</g>
</g>
<!-- Node6&#45;&gt;Node10 -->
<g id="edge10" class="edge">
<title>Node6&#45;&gt;Node10</title>
<path fill="none" stroke="midnightblue" d="M363.94,-179.48C342.63,-170.85 309.06,-157.26 281.94,-146.29"/>
<polygon fill="midnightblue" stroke="midnightblue" points="283.23,-143.03 272.64,-142.52 280.6,-149.52 283.23,-143.03"/>
</g>
<!-- Node11 -->
<g id="node11" class="node">
<title>Node11</title>
<g id="a_node11"><a xlink:href="../../dd/d9d/IVisitable_8hpp.html" target="_top" xlink:title=" ">
<polygon fill="white" stroke="black" points="606,-118 606,-137 716,-137 716,-118 606,-118"/>
<text text-anchor="middle" x="661" y="-125" font-family="Helvetica,sans-Serif" font-size="10.00">tools/IVisitable.hpp</text>
</a>
</g>
</g>
<!-- Node6&#45;&gt;Node11 -->
<g id="edge13" class="edge">
<title>Node6&#45;&gt;Node11</title>
<path fill="none" stroke="midnightblue" d="M425.47,-179.49C467.97,-170.52 536.72,-155.93 596,-143 601.44,-141.81 607.13,-140.56 612.78,-139.31"/>
<polygon fill="midnightblue" stroke="midnightblue" points="613.86,-142.66 622.86,-137.07 612.34,-135.82 613.86,-142.66"/>
</g>
<!-- Node15 -->
<g id="node15" class="node">
<title>Node15</title>
<g id="a_node15"><a xlink:href="../../d8/d97/ToolsFwd_8hpp.html" target="_top" xlink:title=" ">
<polygon fill="white" stroke="black" points="330,-118 330,-137 440,-137 440,-118 330,-118"/>
<text text-anchor="middle" x="385" y="-125" font-family="Helvetica,sans-Serif" font-size="10.00">tools/ToolsFwd.hpp</text>
</a>
</g>
</g>
<!-- Node6&#45;&gt;Node15 -->
<g id="edge17" class="edge">
<title>Node6&#45;&gt;Node15</title>
<path fill="none" stroke="midnightblue" d="M385,-179.48C385,-171.08 385,-157.98 385,-147.16"/>
<polygon fill="midnightblue" stroke="midnightblue" points="388.5,-147.01 385,-137.01 381.5,-147.01 388.5,-147.01"/>
</g>
<!-- Node7&#45;&gt;Node3 -->
<g id="edge8" class="edge">
<title>Node7&#45;&gt;Node3</title>
<path fill="none" stroke="midnightblue" d="M480.38,-117.97C470.11,-115.97 459.17,-113.87 449,-112 370.01,-97.48 277.35,-81.91 226.1,-73.42"/>
<polygon fill="midnightblue" stroke="midnightblue" points="226.55,-69.95 216.12,-71.77 225.41,-76.86 226.55,-69.95"/>
</g>
<!-- Node8 -->
<g id="node8" class="node">
<title>Node8</title>
<g id="a_node8"><a xlink:title=" ">
<polygon fill="white" stroke="#bfbfbf" points="496.5,-56.5 496.5,-75.5 549.5,-75.5 549.5,-56.5 496.5,-56.5"/>
<text text-anchor="middle" x="523" y="-63.5" font-family="Helvetica,sans-Serif" font-size="10.00">cstddef</text>
</a>
</g>
</g>
<!-- Node7&#45;&gt;Node8 -->
<g id="edge7" class="edge">
<title>Node7&#45;&gt;Node8</title>
<path fill="none" stroke="midnightblue" d="M523,-117.98C523,-109.58 523,-96.48 523,-85.66"/>
<polygon fill="midnightblue" stroke="midnightblue" points="526.5,-85.51 523,-75.51 519.5,-85.51 526.5,-85.51"/>
</g>
<!-- Node9 -->
<g id="node9" class="node">
<title>Node9</title>
<g id="a_node9"><a xlink:title=" ">
<polygon fill="white" stroke="#bfbfbf" points="337.5,-56.5 337.5,-75.5 432.5,-75.5 432.5,-56.5 337.5,-56.5"/>
<text text-anchor="middle" x="385" y="-63.5" font-family="Helvetica,sans-Serif" font-size="10.00">odb/lazy&#45;ptr.hxx</text>
</a>
</g>
</g>
<!-- Node7&#45;&gt;Node9 -->
<g id="edge9" class="edge">
<title>Node7&#45;&gt;Node9</title>
<path fill="none" stroke="midnightblue" d="M503.23,-117.98C479.86,-107.9 440.79,-91.05 414,-79.5"/>
<polygon fill="midnightblue" stroke="midnightblue" points="415.3,-76.25 404.74,-75.51 412.53,-82.68 415.3,-76.25"/>
</g>
<!-- Node10&#45;&gt;Node3 -->
<g id="edge11" class="edge">
<title>Node10&#45;&gt;Node3</title>
<path fill="none" stroke="midnightblue" d="M225.91,-112.4C218.43,-103.66 208.78,-92.41 200.97,-83.3"/>
<polygon fill="midnightblue" stroke="midnightblue" points="203.59,-80.97 194.42,-75.66 198.27,-85.53 203.59,-80.97"/>
</g>
<!-- Node10&#45;&gt;Node9 -->
<g id="edge12" class="edge">
<title>Node10&#45;&gt;Node9</title>
<path fill="none" stroke="midnightblue" d="M272.84,-112.4C297.5,-102.42 330.29,-89.15 354.03,-79.53"/>
<polygon fill="midnightblue" stroke="midnightblue" points="355.65,-82.65 363.61,-75.66 353.03,-76.17 355.65,-82.65"/>
</g>
<!-- Node11&#45;&gt;Node12 -->
<g id="edge14" class="edge">
<title>Node11&#45;&gt;Node12</title>
<path fill="none" stroke="midnightblue" d="M672.89,-117.98C686.2,-108.43 708,-92.81 723.96,-81.37"/>
<polygon fill="midnightblue" stroke="midnightblue" points="726.04,-84.18 732.13,-75.51 721.96,-78.49 726.04,-84.18"/>
</g>
<!-- Node14 -->
<g id="node14" class="node">
<title>Node14</title>
<g id="a_node14"><a xlink:title=" ">
<polygon fill="white" stroke="#bfbfbf" points="626,-56.5 626,-75.5 678,-75.5 678,-56.5 626,-56.5"/>
<text text-anchor="middle" x="652" y="-63.5" font-family="Helvetica,sans-Serif" font-size="10.00">cassert</text>
</a>
</g>
</g>
<!-- Node11&#45;&gt;Node14 -->
<g id="edge16" class="edge">
<title>Node11&#45;&gt;Node14</title>
<path fill="none" stroke="midnightblue" d="M659.71,-117.98C658.44,-109.58 656.46,-96.48 654.82,-85.66"/>
<polygon fill="midnightblue" stroke="midnightblue" points="658.24,-84.87 653.29,-75.51 651.32,-85.92 658.24,-84.87"/>
</g>
<!-- Node13 -->
<g id="node13" class="node">
<title>Node13</title>
<g id="a_node13"><a xlink:title=" ">
<polygon fill="white" stroke="#bfbfbf" points="709.5,-0.5 709.5,-19.5 778.5,-19.5 778.5,-0.5 709.5,-0.5"/>
<text text-anchor="middle" x="744" y="-7.5" font-family="Helvetica,sans-Serif" font-size="10.00">type_traits</text>
</a>
</g>
</g>
<!-- Node12&#45;&gt;Node13 -->
<g id="edge15" class="edge">
<title>Node12&#45;&gt;Node13</title>
<path fill="none" stroke="midnightblue" d="M744,-56.08C744,-49.01 744,-38.86 744,-29.99"/>
<polygon fill="midnightblue" stroke="midnightblue" points="747.5,-29.75 744,-19.75 740.5,-29.75 747.5,-29.75"/>
</g>
<!-- Node15&#45;&gt;Node3 -->
<g id="edge18" class="edge">
<title>Node15&#45;&gt;Node3</title>
<path fill="none" stroke="midnightblue" d="M356.63,-117.98C322.08,-107.59 263.58,-90.01 225.12,-78.45"/>
<polygon fill="midnightblue" stroke="midnightblue" points="225.9,-75.04 215.32,-75.51 223.89,-81.74 225.9,-75.04"/>
</g>
<!-- Node15&#45;&gt;Node9 -->
<g id="edge19" class="edge">
<title>Node15&#45;&gt;Node9</title>
<path fill="none" stroke="midnightblue" d="M385,-117.98C385,-109.58 385,-96.48 385,-85.66"/>
<polygon fill="midnightblue" stroke="midnightblue" points="388.5,-85.51 385,-75.51 381.5,-85.51 388.5,-85.51"/>
</g>
</g>
</svg>
        <g id="navigator" transform="translate(0 0)" fill="#404254">
                <rect fill="#f2f5e9" fill-opacity="0.5" stroke="#606060" stroke-width=".5" x="0" y="0" width="60" height="60"/>
                <use id="zoomplus" xlink:href="#zoomPlus" x="17" y="9" onmousedown="handleZoom(evt,'in')"/>
                <use id="zoomminus" xlink:href="#zoomMin" x="42" y="9" onmousedown="handleZoom(evt,'out')"/>
                <use id="reset" xlink:href="#resetDef" x="30" y="36" onmousedown="handleReset()"/>
                <g id="arrowUp" xlink:href="#dirArrow" transform="translate(30 24)" onmousedown="handlePan(0,-1)">
                  <use xlink:href="#rim" fill="#404040">
                        <set attributeName="fill" to="#808080" begin="arrowUp.mouseover" end="arrowUp.mouseout"/>
                  </use>
                  <path fill="none" stroke="white" stroke-width="1.5" d="M0,-3.0v7 M-2.5,-0.5L0,-3.0L2.5,-0.5"/>
                </g>
                <g id="arrowRight" xlink:href="#dirArrow" transform="rotate(90) translate(36 -43)" onmousedown="handlePan(1,0)">
                  <use xlink:href="#rim" fill="#404040">
                        <set attributeName="fill" to="#808080" begin="arrowRight.mouseover" end="arrowRight.mouseout"/>
                  </use>
                  <path fill="none" stroke="white" stroke-width="1.5" d="M0,-3.0v7 M-2.5,-0.5L0,-3.0L2.5,-0.5"/>
                </g>
                <g id="arrowDown" xlink:href="#dirArrow" transform="rotate(180) translate(-30 -48)" onmousedown="handlePan(0,1)">
                  <use xlink:href="#rim" fill="#404040">
                        <set attributeName="fill" to="#808080" begin="arrowDown.mouseover" end="arrowDown.mouseout"/>
                  </use>
                  <path fill="none" stroke="white" stroke-width="1.5" d="M0,-3.0v7 M-2.5,-0.5L0,-3.0L2.5,-0.5"/>
                </g>
                <g id="arrowLeft" xlink:href="#dirArrow" transform="rotate(270) translate(-36 17)" onmousedown="handlePan(-1,0)">
                  <use xlink:href="#rim" fill="#404040">
                        <set attributeName="fill" to="#808080" begin="arrowLeft.mouseover" end="arrowLeft.mouseout"/>
                  </use>
                  <path fill="none" stroke="white" stroke-width="1.5" d="M0,-3.0v7 M-2.5,-0.5L0,-3.0L2.5,-0.5"/>
                </g>
        </g>
        <svg viewBox="0 0 15 15" width="100%" height="30px" preserveAspectRatio="xMaxYMin meet">
         <g id="arrow_out" transform="scale(0.3 0.3)">
          <a xlink:href="PolymorphicCredentialSerializer_8hpp__incl_org.svg" target="_base">
           <rect id="button" ry="5" rx="5" y="6" x="6" height="38" width="38"
                fill="#f2f5e9" fill-opacity="0.5" stroke="#606060" stroke-width="1.0"/>
           <path id="arrow"
             d="M 11.500037,31.436501 C 11.940474,20.09759 22.043105,11.32322 32.158766,21.979434 L 37.068811,17.246167 C 37.068811,17.246167 37.088388,32 37.088388,32 L 22.160133,31.978069 C 22.160133,31.978069 26.997745,27.140456 26.997745,27.140456 C 18.528582,18.264221 13.291696,25.230495 11.500037,31.436501 z"
             style="fill:#404040;"/>
          </a>
         </g>
        </svg>
</svg>
