<?xml version="1.0" encoding="UTF-8" standalone="no"?>
<!DOCTYPE svg PUBLIC "-//W3C//DTD SVG 1.1//EN"
 "http://www.w3.org/Graphics/SVG/1.1/DTD/svg11.dtd">
<!-- Generated by graphviz version 2.43.0 (0)
 -->
<!-- Title: src/tools/service/ServiceFwd.hpp Pages: 1 -->
<svg width="6478pt" height="240pt"
 viewBox="0.00 0.00 6478.00 240.00" xmlns="http://www.w3.org/2000/svg" xmlns:xlink="http://www.w3.org/1999/xlink">
<g id="graph0" class="graph" transform="scale(1 1) rotate(0) translate(4 236)">
<title>src/tools/service/ServiceFwd.hpp</title>
<polygon fill="white" stroke="transparent" points="-4,4 -4,-236 6474,-236 6474,4 -4,4"/>
<!-- Node1 -->
<g id="node1" class="node">
<title>Node1</title>
<g id="a_node1"><a xlink:title=" ">
<polygon fill="#bfbfbf" stroke="black" points="2560,-201.5 2560,-231.5 2695,-231.5 2695,-201.5 2560,-201.5"/>
<text text-anchor="start" x="2568" y="-219.5" font-family="Helvetica,sans-Serif" font-size="10.00">src/tools/service/Service</text>
<text text-anchor="middle" x="2627.5" y="-208.5" font-family="Helvetica,sans-Serif" font-size="10.00">Fwd.hpp</text>
</a>
</g>
</g>
<!-- Node2 -->
<g id="node2" class="node">
<title>Node2</title>
<g id="a_node2"><a xlink:href="../../d6/de5/CoreUtils_8hpp.html" target="_top" xlink:title=" ">
<polygon fill="white" stroke="black" points="2565.5,-145.5 2565.5,-164.5 2689.5,-164.5 2689.5,-145.5 2565.5,-145.5"/>
<text text-anchor="middle" x="2627.5" y="-152.5" font-family="Helvetica,sans-Serif" font-size="10.00">src/core/CoreUtils.hpp</text>
</a>
</g>
</g>
<!-- Node1&#45;&gt;Node2 -->
<g id="edge1" class="edge">
<title>Node1&#45;&gt;Node2</title>
<path fill="none" stroke="midnightblue" d="M2627.5,-191.29C2627.5,-181.86 2627.5,-171.65 2627.5,-164.66"/>
<polygon fill="midnightblue" stroke="midnightblue" points="2624,-191.4 2627.5,-201.4 2631,-191.4 2624,-191.4"/>
</g>
<!-- Node3 -->
<g id="node3" class="node">
<title>Node3</title>
<g id="a_node3"><a xlink:href="../../df/db8/kernel_8hpp.html" target="_top" xlink:title=" ">
<polygon fill="white" stroke="black" points="1586,-78.5 1586,-97.5 1695,-97.5 1695,-78.5 1586,-78.5"/>
<text text-anchor="middle" x="1640.5" y="-85.5" font-family="Helvetica,sans-Serif" font-size="10.00">src/core/kernel.hpp</text>
</a>
</g>
</g>
<!-- Node1&#45;&gt;Node3 -->
<g id="edge41" class="edge">
<title>Node1&#45;&gt;Node3</title>
<path fill="none" stroke="midnightblue" d="M2549.6,-205.52C2356.7,-180.79 1860.47,-117.19 1695.07,-95.99"/>
<polygon fill="midnightblue" stroke="midnightblue" points="2549.3,-209.01 2559.66,-206.81 2550.19,-202.06 2549.3,-209.01"/>
</g>
<!-- Node46 -->
<g id="node36" class="node">
<title>Node46</title>
<g id="a_node36"><a xlink:href="../../d1/d56/GetServiceRegistry_8hpp.html" target="_top" xlink:title=" ">
<polygon fill="white" stroke="red" points="4582,-145.5 4582,-164.5 4753,-164.5 4753,-145.5 4582,-145.5"/>
<text text-anchor="middle" x="4667.5" y="-152.5" font-family="Helvetica,sans-Serif" font-size="10.00">src/core/GetServiceRegistry.hpp</text>
</a>
</g>
</g>
<!-- Node1&#45;&gt;Node46 -->
<g id="edge42" class="edge">
<title>Node1&#45;&gt;Node46</title>
<path fill="none" stroke="midnightblue" d="M2705.22,-213.23C3026.06,-203.88 4246.45,-168.28 4581.79,-158.5"/>
<polygon fill="midnightblue" stroke="midnightblue" points="2704.98,-209.74 2695.08,-213.53 2705.18,-216.74 2704.98,-209.74"/>
</g>
<!-- Node2&#45;&gt;Node3 -->
<g id="edge2" class="edge">
<title>Node2&#45;&gt;Node3</title>
<path fill="none" stroke="midnightblue" d="M2555.3,-149.25C2366.66,-136.82 1862.13,-103.6 1695.07,-92.59"/>
<polygon fill="midnightblue" stroke="midnightblue" points="2555.18,-152.74 2565.38,-149.91 2555.64,-145.76 2555.18,-152.74"/>
</g>
<!-- Node6 -->
<g id="node6" class="node">
<title>Node6</title>
<g id="a_node6"><a xlink:href="../../d4/dd4/CoreUtils_8cpp.html" target="_top" xlink:title=" ">
<polygon fill="white" stroke="black" points="0,-6 0,-25 123,-25 123,-6 0,-6"/>
<text text-anchor="middle" x="61.5" y="-13" font-family="Helvetica,sans-Serif" font-size="10.00">src/core/CoreUtils.cpp</text>
</a>
</g>
</g>
<!-- Node2&#45;&gt;Node6 -->
<g id="edge22" class="edge">
<title>Node2&#45;&gt;Node6</title>
<path fill="none" stroke="midnightblue" d="M2555.36,-154.4C2312.46,-155.28 1502.16,-154.39 834.5,-109 521.3,-87.71 442.61,-79.79 132.5,-31 121.94,-29.34 110.56,-27.18 100.08,-25.04"/>
<polygon fill="midnightblue" stroke="midnightblue" points="2555.49,-157.9 2565.48,-154.36 2555.46,-150.9 2555.49,-157.9"/>
</g>
<!-- Node11 -->
<g id="node11" class="node">
<title>Node11</title>
<g id="a_node11"><a xlink:href="../../d4/d28/RemoteControl_8cpp.html" target="_top" xlink:title=" ">
<polygon fill="white" stroke="black" points="141.5,-6 141.5,-25 293.5,-25 293.5,-6 141.5,-6"/>
<text text-anchor="middle" x="217.5" y="-13" font-family="Helvetica,sans-Serif" font-size="10.00">src/core/RemoteControl.cpp</text>
</a>
</g>
</g>
<!-- Node2&#45;&gt;Node11 -->
<g id="edge23" class="edge">
<title>Node2&#45;&gt;Node11</title>
<path fill="none" stroke="midnightblue" d="M2555.18,-151.36C2384.69,-145.04 1944.25,-128.13 1576.5,-109 1434.87,-101.63 443.38,-47.28 302.5,-31 289.26,-29.47 274.96,-27.25 261.93,-25.01"/>
<polygon fill="midnightblue" stroke="midnightblue" points="2555.17,-154.86 2565.29,-151.74 2555.43,-147.87 2555.17,-154.86"/>
</g>
<!-- Node16 -->
<g id="node16" class="node">
<title>Node16</title>
<g id="a_node16"><a xlink:href="../../df/dac/AuthDBModule_8cpp.html" target="_top" xlink:title=" ">
<polygon fill="white" stroke="black" points="2270.5,-0.5 2270.5,-30.5 2398.5,-30.5 2398.5,-0.5 2270.5,-0.5"/>
<text text-anchor="start" x="2278.5" y="-18.5" font-family="Helvetica,sans-Serif" font-size="10.00">src/modules/auth/auth</text>
<text text-anchor="middle" x="2334.5" y="-7.5" font-family="Helvetica,sans-Serif" font-size="10.00">&#45;db/AuthDBModule.cpp</text>
</a>
</g>
</g>
<!-- Node2&#45;&gt;Node16 -->
<g id="edge24" class="edge">
<title>Node2&#45;&gt;Node16</title>
<path fill="none" stroke="midnightblue" d="M2555.13,-153.62C2409.59,-152.11 2092.48,-144.7 2059.5,-109 1943.2,16.88 1981.04,-83.84 2261.5,-31 2264.42,-30.45 2267.41,-29.88 2270.42,-29.3"/>
<polygon fill="midnightblue" stroke="midnightblue" points="2555.27,-157.12 2565.31,-153.72 2555.34,-150.12 2555.27,-157.12"/>
</g>
<!-- Node17 -->
<g id="node17" class="node">
<title>Node17</title>
<g id="a_node17"><a xlink:href="../../d8/d37/AuthFileModule_8cpp.html" target="_top" xlink:title=" ">
<polygon fill="white" stroke="black" points="2416.5,-0.5 2416.5,-30.5 2550.5,-30.5 2550.5,-0.5 2416.5,-0.5"/>
<text text-anchor="start" x="2424.5" y="-18.5" font-family="Helvetica,sans-Serif" font-size="10.00">src/modules/auth/auth</text>
<text text-anchor="middle" x="2483.5" y="-7.5" font-family="Helvetica,sans-Serif" font-size="10.00">&#45;file/AuthFileModule.cpp</text>
</a>
</g>
</g>
<!-- Node2&#45;&gt;Node17 -->
<g id="edge26" class="edge">
<title>Node2&#45;&gt;Node17</title>
<path fill="none" stroke="midnightblue" d="M2554.77,-153C2419.43,-150.37 2139.91,-141.08 2110.5,-109 1957.3,58.11 1730.79,-136.44 2407.5,-31 2410.42,-30.55 2413.4,-30.06 2416.41,-29.56"/>
<polygon fill="midnightblue" stroke="midnightblue" points="2554.98,-156.5 2565.05,-153.19 2555.12,-149.5 2554.98,-156.5"/>
</g>
<!-- Node21 -->
<g id="node21" class="node">
<title>Node21</title>
<g id="a_node21"><a xlink:href="../../d9/d8d/APISession_8cpp.html" target="_top" xlink:title=" ">
<polygon fill="white" stroke="black" points="2568.5,-0.5 2568.5,-30.5 2698.5,-30.5 2698.5,-0.5 2568.5,-0.5"/>
<text text-anchor="start" x="2576.5" y="-18.5" font-family="Helvetica,sans-Serif" font-size="10.00">src/modules/websock</text>
<text text-anchor="middle" x="2633.5" y="-7.5" font-family="Helvetica,sans-Serif" font-size="10.00">&#45;api/api/APISession.cpp</text>
</a>
</g>
</g>
<!-- Node2&#45;&gt;Node21 -->
<g id="edge34" class="edge">
<title>Node2&#45;&gt;Node21</title>
<path fill="none" stroke="midnightblue" d="M2555.09,-152.82C2422.59,-149.92 2152.03,-140.19 2123.5,-109 2110.9,-95.23 2110.86,-80.73 2123.5,-67 2156.43,-31.24 2511.35,-37.68 2559.5,-31 2562.35,-30.6 2565.26,-30.17 2568.2,-29.7"/>
<polygon fill="midnightblue" stroke="midnightblue" points="2555.09,-156.33 2565.16,-153.04 2555.24,-149.33 2555.09,-156.33"/>
</g>
<!-- Node23 -->
<g id="node23" class="node">
<title>Node23</title>
<g id="a_node23"><a xlink:href="../../da/d9b/AuthFileInstance_8cpp.html" target="_top" xlink:title=" ">
<polygon fill="white" stroke="black" points="2132.5,-73 2132.5,-103 2272.5,-103 2272.5,-73 2132.5,-73"/>
<text text-anchor="start" x="2140.5" y="-91" font-family="Helvetica,sans-Serif" font-size="10.00">src/modules/auth/auth</text>
<text text-anchor="middle" x="2202.5" y="-80" font-family="Helvetica,sans-Serif" font-size="10.00">&#45;file/AuthFileInstance.cpp</text>
</a>
</g>
</g>
<!-- Node2&#45;&gt;Node23 -->
<g id="edge25" class="edge">
<title>Node2&#45;&gt;Node23</title>
<path fill="none" stroke="midnightblue" d="M2555.19,-147.12C2484.92,-139.84 2375.36,-126.92 2281.5,-109 2272.61,-107.3 2263.22,-105.2 2254.15,-103.01"/>
<polygon fill="midnightblue" stroke="midnightblue" points="2554.97,-150.62 2565.27,-148.15 2555.68,-143.65 2554.97,-150.62"/>
</g>
<!-- Node24 -->
<g id="node24" class="node">
<title>Node24</title>
<g id="a_node24"><a xlink:href="../../de/d21/BaseModule_8cpp.html" target="_top" xlink:title=" ">
<polygon fill="white" stroke="black" points="2291,-78.5 2291,-97.5 2450,-97.5 2450,-78.5 2291,-78.5"/>
<text text-anchor="middle" x="2370.5" y="-85.5" font-family="Helvetica,sans-Serif" font-size="10.00">src/modules/BaseModule.cpp</text>
</a>
</g>
</g>
<!-- Node2&#45;&gt;Node24 -->
<g id="edge27" class="edge">
<title>Node2&#45;&gt;Node24</title>
<path fill="none" stroke="midnightblue" d="M2583.63,-142.9C2532.91,-130.08 2450.51,-109.24 2404.44,-97.58"/>
<polygon fill="midnightblue" stroke="midnightblue" points="2583.08,-146.38 2593.64,-145.44 2584.8,-139.59 2583.08,-146.38"/>
</g>
<!-- Node25 -->
<g id="node25" class="node">
<title>Node25</title>
<g id="a_node25"><a xlink:href="../../d6/d95/PFDigitalModule_8cpp.html" target="_top" xlink:title=" ">
<polygon fill="white" stroke="black" points="3237.5,-73 3237.5,-103 3377.5,-103 3377.5,-73 3237.5,-73"/>
<text text-anchor="start" x="3245.5" y="-91" font-family="Helvetica,sans-Serif" font-size="10.00">src/modules/pifacedigital</text>
<text text-anchor="middle" x="3307.5" y="-80" font-family="Helvetica,sans-Serif" font-size="10.00">/PFDigitalModule.cpp</text>
</a>
</g>
</g>
<!-- Node2&#45;&gt;Node25 -->
<g id="edge28" class="edge">
<title>Node2&#45;&gt;Node25</title>
<path fill="none" stroke="midnightblue" d="M2700.07,-152.61C2813.52,-149.54 3039.47,-139.77 3228.5,-109 3238,-107.45 3248.02,-105.32 3257.62,-103.02"/>
<polygon fill="midnightblue" stroke="midnightblue" points="2699.68,-149.12 2689.78,-152.88 2699.87,-156.12 2699.68,-149.12"/>
</g>
<!-- Node26 -->
<g id="node26" class="node">
<title>Node26</title>
<g id="a_node26"><a xlink:href="../../db/df9/ReplicationModule_8hpp.html" target="_top" xlink:title=" ">
<polygon fill="white" stroke="red" points="2468,-73 2468,-103 2599,-103 2599,-73 2468,-73"/>
<text text-anchor="start" x="2476" y="-91" font-family="Helvetica,sans-Serif" font-size="10.00">src/modules/replication</text>
<text text-anchor="middle" x="2533.5" y="-80" font-family="Helvetica,sans-Serif" font-size="10.00">/ReplicationModule.hpp</text>
</a>
</g>
</g>
<!-- Node2&#45;&gt;Node26 -->
<g id="edge29" class="edge">
<title>Node2&#45;&gt;Node26</title>
<path fill="none" stroke="midnightblue" d="M2606.31,-139.35C2590.62,-128.5 2569.37,-113.8 2553.87,-103.09"/>
<polygon fill="midnightblue" stroke="midnightblue" points="2604.61,-142.43 2614.82,-145.23 2608.59,-136.67 2604.61,-142.43"/>
</g>
<!-- Node28 -->
<g id="node27" class="node">
<title>Node28</title>
<g id="a_node27"><a xlink:href="../../d2/dac/ReplicationModule_8cpp.html" target="_top" xlink:title=" ">
<polygon fill="white" stroke="black" points="2905,-0.5 2905,-30.5 3036,-30.5 3036,-0.5 2905,-0.5"/>
<text text-anchor="start" x="2913" y="-18.5" font-family="Helvetica,sans-Serif" font-size="10.00">src/modules/replication</text>
<text text-anchor="middle" x="2970.5" y="-7.5" font-family="Helvetica,sans-Serif" font-size="10.00">/ReplicationModule.cpp</text>
</a>
</g>
</g>
<!-- Node2&#45;&gt;Node28 -->
<g id="edge31" class="edge">
<title>Node2&#45;&gt;Node28</title>
<path fill="none" stroke="midnightblue" d="M2625.91,-135.28C2625.35,-115.35 2627.87,-84.34 2646.5,-67 2687.42,-28.9 2840.37,-40.31 2895.5,-31 2898.51,-30.49 2901.58,-29.96 2904.68,-29.41"/>
<polygon fill="midnightblue" stroke="midnightblue" points="2622.42,-135.52 2626.49,-145.31 2629.41,-135.12 2622.42,-135.52"/>
</g>
<!-- Node29 -->
<g id="node28" class="node">
<title>Node29</title>
<g id="a_node28"><a xlink:href="../../da/d6f/SMTPModule_8cpp.html" target="_top" xlink:title=" ">
<polygon fill="white" stroke="black" points="3395.5,-78.5 3395.5,-97.5 3585.5,-97.5 3585.5,-78.5 3395.5,-78.5"/>
<text text-anchor="middle" x="3490.5" y="-85.5" font-family="Helvetica,sans-Serif" font-size="10.00">src/modules/smtp/SMTPModule.cpp</text>
</a>
</g>
</g>
<!-- Node2&#45;&gt;Node29 -->
<g id="edge32" class="edge">
<title>Node2&#45;&gt;Node29</title>
<path fill="none" stroke="midnightblue" d="M2699.98,-152.85C2835.36,-150.01 3135.66,-140.42 3386.5,-109 3408.58,-106.24 3433.02,-101.62 3452.66,-97.51"/>
<polygon fill="midnightblue" stroke="midnightblue" points="2699.66,-149.36 2689.73,-153.06 2699.8,-156.36 2699.66,-149.36"/>
</g>
<!-- Node30 -->
<g id="node29" class="node">
<title>Node30</title>
<g id="a_node29"><a xlink:href="../../d7/d86/APIAuth_8cpp.html" target="_top" xlink:title=" ">
<polygon fill="white" stroke="black" points="3603.5,-73 3603.5,-103 3725.5,-103 3725.5,-73 3603.5,-73"/>
<text text-anchor="start" x="3611.5" y="-91" font-family="Helvetica,sans-Serif" font-size="10.00">src/modules/websock</text>
<text text-anchor="middle" x="3664.5" y="-80" font-family="Helvetica,sans-Serif" font-size="10.00">&#45;api/api/APIAuth.cpp</text>
</a>
</g>
</g>
<!-- Node2&#45;&gt;Node30 -->
<g id="edge33" class="edge">
<title>Node2&#45;&gt;Node30</title>
<path fill="none" stroke="midnightblue" d="M2699.84,-152.8C2893.81,-149.25 3422.4,-137.2 3594.5,-109 3603.23,-107.57 3612.42,-105.43 3621.17,-103.07"/>
<polygon fill="midnightblue" stroke="midnightblue" points="2699.69,-149.31 2689.76,-152.99 2699.82,-156.31 2699.69,-149.31"/>
</g>
<!-- Node31 -->
<g id="node30" class="node">
<title>Node31</title>
<g id="a_node30"><a xlink:href="../../da/d62/AuditGet_8cpp.html" target="_top" xlink:title=" ">
<polygon fill="white" stroke="black" points="2655.5,-73 2655.5,-103 2777.5,-103 2777.5,-73 2655.5,-73"/>
<text text-anchor="start" x="2663.5" y="-91" font-family="Helvetica,sans-Serif" font-size="10.00">src/modules/websock</text>
<text text-anchor="middle" x="2716.5" y="-80" font-family="Helvetica,sans-Serif" font-size="10.00">&#45;api/api/AuditGet.cpp</text>
</a>
</g>
</g>
<!-- Node2&#45;&gt;Node31 -->
<g id="edge35" class="edge">
<title>Node2&#45;&gt;Node31</title>
<path fill="none" stroke="midnightblue" d="M2647.98,-139.04C2662.79,-128.23 2682.68,-113.7 2697.21,-103.09"/>
<polygon fill="midnightblue" stroke="midnightblue" points="2645.51,-136.51 2639.5,-145.23 2649.64,-142.16 2645.51,-136.51"/>
</g>
<!-- Node32 -->
<g id="node31" class="node">
<title>Node32</title>
<g id="a_node31"><a xlink:href="../../d1/d43/Restart_8cpp.html" target="_top" xlink:title=" ">
<polygon fill="white" stroke="black" points="2795.5,-73 2795.5,-103 2917.5,-103 2917.5,-73 2795.5,-73"/>
<text text-anchor="start" x="2803.5" y="-91" font-family="Helvetica,sans-Serif" font-size="10.00">src/modules/websock</text>
<text text-anchor="middle" x="2856.5" y="-80" font-family="Helvetica,sans-Serif" font-size="10.00">&#45;api/api/Restart.cpp</text>
</a>
</g>
</g>
<!-- Node2&#45;&gt;Node32 -->
<g id="edge36" class="edge">
<title>Node2&#45;&gt;Node32</title>
<path fill="none" stroke="midnightblue" d="M2667.61,-142.68C2699.76,-133.59 2746.04,-120.51 2786.5,-109 2793.31,-107.06 2800.49,-105.02 2807.55,-103"/>
<polygon fill="midnightblue" stroke="midnightblue" points="2666.36,-139.39 2657.69,-145.48 2668.27,-146.13 2666.36,-139.39"/>
</g>
<!-- Node33 -->
<g id="node32" class="node">
<title>Node33</title>
<g id="a_node32"><a xlink:href="../../d9/d6b/WebSockAPI_8cpp.html" target="_top" xlink:title=" ">
<polygon fill="white" stroke="black" points="2935.5,-73 2935.5,-103 3057.5,-103 3057.5,-73 2935.5,-73"/>
<text text-anchor="start" x="2943.5" y="-91" font-family="Helvetica,sans-Serif" font-size="10.00">src/modules/websock</text>
<text text-anchor="middle" x="2996.5" y="-80" font-family="Helvetica,sans-Serif" font-size="10.00">&#45;api/WebSockAPI.cpp</text>
</a>
</g>
</g>
<!-- Node2&#45;&gt;Node33 -->
<g id="edge37" class="edge">
<title>Node2&#45;&gt;Node33</title>
<path fill="none" stroke="midnightblue" d="M2700.04,-145.74C2760.89,-138.18 2849.88,-125.64 2926.5,-109 2934.28,-107.31 2942.47,-105.24 2950.4,-103.08"/>
<polygon fill="midnightblue" stroke="midnightblue" points="2699.27,-142.31 2689.77,-147 2700.12,-149.26 2699.27,-142.31"/>
</g>
<!-- Node34 -->
<g id="node33" class="node">
<title>Node34</title>
<g id="a_node33"><a xlink:href="../../da/df4/websock-api_2WSHelperThread_8hpp.html" target="_top" xlink:title=" ">
<polygon fill="white" stroke="red" points="3744,-73 3744,-103 3885,-103 3885,-73 3744,-73"/>
<text text-anchor="start" x="3752" y="-91" font-family="Helvetica,sans-Serif" font-size="10.00">src/modules/websock</text>
<text text-anchor="middle" x="3814.5" y="-80" font-family="Helvetica,sans-Serif" font-size="10.00">&#45;api/WSHelperThread.hpp</text>
</a>
</g>
</g>
<!-- Node2&#45;&gt;Node34 -->
<g id="edge38" class="edge">
<title>Node2&#45;&gt;Node34</title>
<path fill="none" stroke="midnightblue" d="M2699.71,-152.99C2912.33,-149.71 3533.72,-137.87 3734.5,-109 3744.42,-107.57 3754.9,-105.43 3764.88,-103.07"/>
<polygon fill="midnightblue" stroke="midnightblue" points="2699.54,-149.49 2689.6,-153.14 2699.65,-156.49 2699.54,-149.49"/>
</g>
<!-- Node41 -->
<g id="node34" class="node">
<title>Node41</title>
<g id="a_node34"><a xlink:href="../../d4/d2c/WSServer_8cpp.html" target="_top" xlink:title=" ">
<polygon fill="white" stroke="black" points="3903.5,-73 3903.5,-103 4025.5,-103 4025.5,-73 3903.5,-73"/>
<text text-anchor="start" x="3911.5" y="-91" font-family="Helvetica,sans-Serif" font-size="10.00">src/modules/websock</text>
<text text-anchor="middle" x="3964.5" y="-80" font-family="Helvetica,sans-Serif" font-size="10.00">&#45;api/WSServer.cpp</text>
</a>
</g>
</g>
<!-- Node2&#45;&gt;Node41 -->
<g id="edge39" class="edge">
<title>Node2&#45;&gt;Node41</title>
<path fill="none" stroke="midnightblue" d="M2699.61,-153.74C2932.34,-152.53 3661.81,-145.81 3894.5,-109 3903.36,-107.6 3912.69,-105.43 3921.55,-103.04"/>
<polygon fill="midnightblue" stroke="midnightblue" points="2699.55,-150.24 2689.57,-153.79 2699.59,-157.24 2699.55,-150.24"/>
</g>
<!-- Node42 -->
<g id="node35" class="node">
<title>Node42</title>
<g id="a_node35"><a xlink:href="../../d8/dfd/TestHelper_8hpp.html" target="_top" xlink:title=" ">
<polygon fill="white" stroke="red" points="3075.5,-78.5 3075.5,-97.5 3219.5,-97.5 3219.5,-78.5 3075.5,-78.5"/>
<text text-anchor="middle" x="3147.5" y="-85.5" font-family="Helvetica,sans-Serif" font-size="10.00">test/helper/TestHelper.hpp</text>
</a>
</g>
</g>
<!-- Node2&#45;&gt;Node42 -->
<g id="edge40" class="edge">
<title>Node2&#45;&gt;Node42</title>
<path fill="none" stroke="midnightblue" d="M2699.74,-149.71C2787.09,-143.8 2938.35,-131.28 3066.5,-109 3083.48,-106.05 3102.18,-101.52 3117.33,-97.52"/>
<polygon fill="midnightblue" stroke="midnightblue" points="2699.42,-146.22 2689.67,-150.38 2699.88,-153.2 2699.42,-146.22"/>
</g>
<!-- Node4 -->
<g id="node4" class="node">
<title>Node4</title>
<g id="a_node4"><a xlink:href="../../d6/dff/src_2core_2config_2ConfigManager_8cpp.html" target="_top" xlink:title=" ">
<polygon fill="white" stroke="black" points="312,-6 312,-25 495,-25 495,-6 312,-6"/>
<text text-anchor="middle" x="403.5" y="-13" font-family="Helvetica,sans-Serif" font-size="10.00">src/core/config/ConfigManager.cpp</text>
</a>
</g>
</g>
<!-- Node3&#45;&gt;Node4 -->
<g id="edge3" class="edge">
<title>Node3&#45;&gt;Node4</title>
<path fill="none" stroke="midnightblue" d="M1575.73,-85.92C1401.93,-82.57 910.93,-70.11 504.5,-31 488.81,-29.49 471.82,-27.28 456.33,-25.03"/>
<polygon fill="midnightblue" stroke="midnightblue" points="1575.92,-89.43 1585.98,-86.12 1576.05,-82.43 1575.92,-89.43"/>
</g>
<!-- Node5 -->
<g id="node5" class="node">
<title>Node5</title>
<g id="a_node5"><a xlink:href="../../d3/d1e/CoreAPI_8cpp.html" target="_top" xlink:title=" ">
<polygon fill="white" stroke="black" points="513.5,-6 513.5,-25 629.5,-25 629.5,-6 513.5,-6"/>
<text text-anchor="middle" x="571.5" y="-13" font-family="Helvetica,sans-Serif" font-size="10.00">src/core/CoreAPI.cpp</text>
</a>
</g>
</g>
<!-- Node3&#45;&gt;Node5 -->
<g id="edge4" class="edge">
<title>Node3&#45;&gt;Node5</title>
<path fill="none" stroke="midnightblue" d="M1575.77,-86.9C1415.91,-85.89 989.91,-78.54 638.5,-31 627.89,-29.56 616.45,-27.35 606.09,-25.07"/>
<polygon fill="midnightblue" stroke="midnightblue" points="1575.89,-90.4 1585.91,-86.96 1575.93,-83.4 1575.89,-90.4"/>
</g>
<!-- Node3&#45;&gt;Node6 -->
<g id="edge5" class="edge">
<title>Node3&#45;&gt;Node6</title>
<path fill="none" stroke="midnightblue" d="M1575.93,-85.23C1306.22,-77.75 276.96,-48.31 132.5,-31 121.01,-29.62 108.61,-27.36 97.43,-25.03"/>
<polygon fill="midnightblue" stroke="midnightblue" points="1575.86,-88.73 1585.95,-85.51 1576.05,-81.73 1575.86,-88.73"/>
</g>
<!-- Node7 -->
<g id="node7" class="node">
<title>Node7</title>
<g id="a_node7"><a xlink:href="../../d9/d6a/GetServiceRegistry_8cpp.html" target="_top" xlink:title=" ">
<polygon fill="white" stroke="black" points="2716.5,-6 2716.5,-25 2886.5,-25 2886.5,-6 2716.5,-6"/>
<text text-anchor="middle" x="2801.5" y="-13" font-family="Helvetica,sans-Serif" font-size="10.00">src/core/GetServiceRegistry.cpp</text>
</a>
</g>
</g>
<!-- Node3&#45;&gt;Node7 -->
<g id="edge6" class="edge">
<title>Node3&#45;&gt;Node7</title>
<path fill="none" stroke="midnightblue" d="M1705.32,-84.46C1905.37,-76.47 2511.4,-51.22 2707.5,-31 2722.12,-29.49 2737.93,-27.28 2752.35,-25.04"/>
<polygon fill="midnightblue" stroke="midnightblue" points="1705.11,-80.96 1695.26,-84.86 1705.39,-87.96 1705.11,-80.96"/>
</g>
<!-- Node8 -->
<g id="node8" class="node">
<title>Node8</title>
<g id="a_node8"><a xlink:href="../../dd/d24/kernel_8cpp.html" target="_top" xlink:title=" ">
<polygon fill="white" stroke="black" points="647.5,-6 647.5,-25 755.5,-25 755.5,-6 647.5,-6"/>
<text text-anchor="middle" x="701.5" y="-13" font-family="Helvetica,sans-Serif" font-size="10.00">src/core/kernel.cpp</text>
</a>
</g>
</g>
<!-- Node3&#45;&gt;Node8 -->
<g id="edge7" class="edge">
<title>Node3&#45;&gt;Node8</title>
<path fill="none" stroke="midnightblue" d="M1575.74,-86.45C1430.04,-84.42 1065.65,-74.98 764.5,-31 754.5,-29.54 743.75,-27.31 734.01,-25.04"/>
<polygon fill="midnightblue" stroke="midnightblue" points="1575.8,-89.95 1585.85,-86.58 1575.9,-82.95 1575.8,-89.95"/>
</g>
<!-- Node9 -->
<g id="node9" class="node">
<title>Node9</title>
<g id="a_node9"><a xlink:href="../../d9/d4a/module__manager_8cpp.html" target="_top" xlink:title=" ">
<polygon fill="white" stroke="black" points="774,-6 774,-25 937,-25 937,-6 774,-6"/>
<text text-anchor="middle" x="855.5" y="-13" font-family="Helvetica,sans-Serif" font-size="10.00">src/core/module_manager.cpp</text>
</a>
</g>
</g>
<!-- Node3&#45;&gt;Node9 -->
<g id="edge8" class="edge">
<title>Node3&#45;&gt;Node9</title>
<path fill="none" stroke="midnightblue" d="M1575.83,-83.51C1452.79,-76.48 1176.66,-58.89 945.5,-31 931.99,-29.37 917.4,-27.2 903.98,-25.03"/>
<polygon fill="midnightblue" stroke="midnightblue" points="1575.66,-87 1585.84,-84.07 1576.05,-80.01 1575.66,-87"/>
</g>
<!-- Node10 -->
<g id="node10" class="node">
<title>Node10</title>
<g id="a_node10"><a xlink:href="../../d2/d2a/networkconfig_8cpp.html" target="_top" xlink:title="NetworkConfig class implementation.">
<polygon fill="white" stroke="black" points="955,-0.5 955,-30.5 1064,-30.5 1064,-0.5 955,-0.5"/>
<text text-anchor="start" x="963" y="-18.5" font-family="Helvetica,sans-Serif" font-size="10.00">src/core/netconfig</text>
<text text-anchor="middle" x="1009.5" y="-7.5" font-family="Helvetica,sans-Serif" font-size="10.00">/networkconfig.cpp</text>
</a>
</g>
</g>
<!-- Node3&#45;&gt;Node10 -->
<g id="edge9" class="edge">
<title>Node3&#45;&gt;Node10</title>
<path fill="none" stroke="midnightblue" d="M1575.56,-83.31C1469.68,-76.69 1253.49,-60.63 1072.5,-31 1069.73,-30.55 1066.9,-30.04 1064.05,-29.51"/>
<polygon fill="midnightblue" stroke="midnightblue" points="1575.57,-86.82 1585.76,-83.94 1576,-79.83 1575.57,-86.82"/>
</g>
<!-- Node3&#45;&gt;Node11 -->
<g id="edge10" class="edge">
<title>Node3&#45;&gt;Node11</title>
<path fill="none" stroke="midnightblue" d="M1575.58,-85.38C1343.28,-79.4 553.83,-57.59 302.5,-31 288.95,-29.57 274.3,-27.32 261.03,-25.02"/>
<polygon fill="midnightblue" stroke="midnightblue" points="1575.81,-88.89 1585.9,-85.64 1575.99,-81.89 1575.81,-88.89"/>
</g>
<!-- Node12 -->
<g id="node12" class="node">
<title>Node12</title>
<g id="a_node12"><a xlink:href="../../df/dca/GetLocalConfigVersion_8cpp.html" target="_top" xlink:title=" ">
<polygon fill="white" stroke="black" points="1082,-0.5 1082,-30.5 1243,-30.5 1243,-0.5 1082,-0.5"/>
<text text-anchor="start" x="1090" y="-18.5" font-family="Helvetica,sans-Serif" font-size="10.00">src/core/tasks/GetLocalConfig</text>
<text text-anchor="middle" x="1162.5" y="-7.5" font-family="Helvetica,sans-Serif" font-size="10.00">Version.cpp</text>
</a>
</g>
</g>
<!-- Node3&#45;&gt;Node12 -->
<g id="edge11" class="edge">
<title>Node3&#45;&gt;Node12</title>
<path fill="none" stroke="midnightblue" d="M1575.63,-78.04C1498.36,-67.27 1365.42,-48.48 1251.5,-31 1248.71,-30.57 1245.88,-30.13 1243.02,-29.69"/>
<polygon fill="midnightblue" stroke="midnightblue" points="1575.31,-81.52 1585.69,-79.44 1576.27,-74.59 1575.31,-81.52"/>
</g>
<!-- Node13 -->
<g id="node13" class="node">
<title>Node13</title>
<g id="a_node13"><a xlink:href="../../d7/d6f/GetRemoteConfigVersion_8cpp.html" target="_top" xlink:title=" ">
<polygon fill="white" stroke="black" points="1261,-0.5 1261,-30.5 1404,-30.5 1404,-0.5 1261,-0.5"/>
<text text-anchor="start" x="1269" y="-18.5" font-family="Helvetica,sans-Serif" font-size="10.00">src/core/tasks/GetRemote</text>
<text text-anchor="middle" x="1332.5" y="-7.5" font-family="Helvetica,sans-Serif" font-size="10.00">ConfigVersion.cpp</text>
</a>
</g>
</g>
<!-- Node3&#45;&gt;Node13 -->
<g id="edge12" class="edge">
<title>Node3&#45;&gt;Node13</title>
<path fill="none" stroke="midnightblue" d="M1593.45,-76.23C1539.95,-63.98 1452.45,-43.96 1393.69,-30.51"/>
<polygon fill="midnightblue" stroke="midnightblue" points="1592.82,-79.68 1603.35,-78.5 1594.38,-72.85 1592.82,-79.68"/>
</g>
<!-- Node14 -->
<g id="node14" class="node">
<title>Node14</title>
<g id="a_node14"><a xlink:href="../../d5/d8e/SyncConfig_8cpp.html" target="_top" xlink:title=" ">
<polygon fill="white" stroke="black" points="1422,-6 1422,-25 1583,-25 1583,-6 1422,-6"/>
<text text-anchor="middle" x="1502.5" y="-13" font-family="Helvetica,sans-Serif" font-size="10.00">src/core/tasks/SyncConfig.cpp</text>
</a>
</g>
</g>
<!-- Node3&#45;&gt;Node14 -->
<g id="edge13" class="edge">
<title>Node3&#45;&gt;Node14</title>
<path fill="none" stroke="midnightblue" d="M1614.68,-73.81C1586.73,-59.53 1542.96,-37.17 1519.21,-25.03"/>
<polygon fill="midnightblue" stroke="midnightblue" points="1613.36,-77.06 1623.85,-78.5 1616.54,-70.83 1613.36,-77.06"/>
</g>
<!-- Node15 -->
<g id="node15" class="node">
<title>Node15</title>
<g id="a_node15"><a xlink:href="../../df/d0a/main_8cpp.html" target="_top" xlink:title="standard main">
<polygon fill="white" stroke="black" points="1601,-6 1601,-25 1680,-25 1680,-6 1601,-6"/>
<text text-anchor="middle" x="1640.5" y="-13" font-family="Helvetica,sans-Serif" font-size="10.00">src/main.cpp</text>
</a>
</g>
</g>
<!-- Node3&#45;&gt;Node15 -->
<g id="edge14" class="edge">
<title>Node3&#45;&gt;Node15</title>
<path fill="none" stroke="midnightblue" d="M1640.5,-67.94C1640.5,-54.03 1640.5,-35.82 1640.5,-25.22"/>
<polygon fill="midnightblue" stroke="midnightblue" points="1637,-68.36 1640.5,-78.36 1644,-68.36 1637,-68.36"/>
</g>
<!-- Node3&#45;&gt;Node16 -->
<g id="edge15" class="edge">
<title>Node3&#45;&gt;Node16</title>
<path fill="none" stroke="midnightblue" d="M1705.36,-83.42C1818.63,-76.67 2059.67,-60.06 2261.5,-31 2264.44,-30.58 2267.44,-30.11 2270.47,-29.62"/>
<polygon fill="midnightblue" stroke="midnightblue" points="1704.91,-79.95 1695.14,-84.03 1705.32,-86.93 1704.91,-79.95"/>
</g>
<!-- Node3&#45;&gt;Node17 -->
<g id="edge16" class="edge">
<title>Node3&#45;&gt;Node17</title>
<path fill="none" stroke="midnightblue" d="M1705.49,-84.79C1838.01,-79.73 2148.76,-65.01 2407.5,-31 2410.43,-30.61 2413.42,-30.19 2416.43,-29.73"/>
<polygon fill="midnightblue" stroke="midnightblue" points="1704.98,-81.31 1695.12,-85.18 1705.25,-88.3 1704.98,-81.31"/>
</g>
<!-- Node18 -->
<g id="node18" class="node">
<title>Node18</title>
<g id="a_node18"><a xlink:href="../../d0/d58/DoormanModule_8cpp.html" target="_top" xlink:title=" ">
<polygon fill="white" stroke="black" points="1698.5,-0.5 1698.5,-30.5 1820.5,-30.5 1820.5,-0.5 1698.5,-0.5"/>
<text text-anchor="start" x="1706.5" y="-18.5" font-family="Helvetica,sans-Serif" font-size="10.00">src/modules/doorman</text>
<text text-anchor="middle" x="1759.5" y="-7.5" font-family="Helvetica,sans-Serif" font-size="10.00">/DoormanModule.cpp</text>
</a>
</g>
</g>
<!-- Node3&#45;&gt;Node18 -->
<g id="edge17" class="edge">
<title>Node3&#45;&gt;Node18</title>
<path fill="none" stroke="midnightblue" d="M1663.9,-73.14C1684.67,-60.83 1714.87,-42.94 1735.74,-30.58"/>
<polygon fill="midnightblue" stroke="midnightblue" points="1661.91,-70.25 1655.09,-78.36 1665.48,-76.27 1661.91,-70.25"/>
</g>
<!-- Node19 -->
<g id="node19" class="node">
<title>Node19</title>
<g id="a_node19"><a xlink:href="../../d7/d36/LEDBuzzerModule_8cpp.html" target="_top" xlink:title=" ">
<polygon fill="white" stroke="black" points="1838.5,-0.5 1838.5,-30.5 1968.5,-30.5 1968.5,-0.5 1838.5,-0.5"/>
<text text-anchor="start" x="1846.5" y="-18.5" font-family="Helvetica,sans-Serif" font-size="10.00">src/modules/led&#45;buzzer</text>
<text text-anchor="middle" x="1903.5" y="-7.5" font-family="Helvetica,sans-Serif" font-size="10.00">/LEDBuzzerModule.cpp</text>
</a>
</g>
</g>
<!-- Node3&#45;&gt;Node19 -->
<g id="edge18" class="edge">
<title>Node3&#45;&gt;Node19</title>
<path fill="none" stroke="midnightblue" d="M1682.11,-75.85C1727.91,-63.57 1801.6,-43.82 1851.25,-30.51"/>
<polygon fill="midnightblue" stroke="midnightblue" points="1680.98,-72.53 1672.22,-78.5 1682.79,-79.29 1680.98,-72.53"/>
</g>
<!-- Node20 -->
<g id="node20" class="node">
<title>Node20</title>
<g id="a_node20"><a xlink:href="../../da/d77/SysFsGpioModule_8cpp.html" target="_top" xlink:title=" ">
<polygon fill="white" stroke="black" points="1987,-0.5 1987,-30.5 2114,-30.5 2114,-0.5 1987,-0.5"/>
<text text-anchor="start" x="1995" y="-18.5" font-family="Helvetica,sans-Serif" font-size="10.00">src/modules/sysfsgpio</text>
<text text-anchor="middle" x="2050.5" y="-7.5" font-family="Helvetica,sans-Serif" font-size="10.00">/SysFsGpioModule.cpp</text>
</a>
</g>
</g>
<!-- Node3&#45;&gt;Node20 -->
<g id="edge19" class="edge">
<title>Node3&#45;&gt;Node20</title>
<path fill="none" stroke="midnightblue" d="M1705.29,-76.85C1773.22,-66.07 1883.01,-48.23 1977.5,-31 1980.55,-30.44 1983.67,-29.86 1986.82,-29.27"/>
<polygon fill="midnightblue" stroke="midnightblue" points="1704.5,-73.44 1695.17,-78.46 1705.59,-80.35 1704.5,-73.44"/>
</g>
<!-- Node3&#45;&gt;Node21 -->
<g id="edge20" class="edge">
<title>Node3&#45;&gt;Node21</title>
<path fill="none" stroke="midnightblue" d="M1705.45,-84.17C1886.4,-76.09 2393.86,-52.18 2559.5,-31 2562.36,-30.63 2565.27,-30.23 2568.21,-29.78"/>
<polygon fill="midnightblue" stroke="midnightblue" points="1705.12,-80.68 1695.28,-84.62 1705.43,-87.67 1705.12,-80.68"/>
</g>
<!-- Node22 -->
<g id="node22" class="node">
<title>Node22</title>
<g id="a_node22"><a xlink:href="../../d3/de8/wiegand_8cpp.html" target="_top" xlink:title=" ">
<polygon fill="white" stroke="black" points="2132.5,-0.5 2132.5,-30.5 2252.5,-30.5 2252.5,-0.5 2132.5,-0.5"/>
<text text-anchor="start" x="2140.5" y="-18.5" font-family="Helvetica,sans-Serif" font-size="10.00">src/modules/wiegand</text>
<text text-anchor="middle" x="2192.5" y="-7.5" font-family="Helvetica,sans-Serif" font-size="10.00">/wiegand.cpp</text>
</a>
</g>
</g>
<!-- Node3&#45;&gt;Node22 -->
<g id="edge21" class="edge">
<title>Node3&#45;&gt;Node22</title>
<path fill="none" stroke="midnightblue" d="M1705.37,-81.3C1798.17,-72.74 1974,-54.96 2122.5,-31 2125.69,-30.49 2128.95,-29.93 2132.23,-29.34"/>
<polygon fill="midnightblue" stroke="midnightblue" points="1704.93,-77.83 1695.29,-82.23 1705.57,-84.8 1704.93,-77.83"/>
</g>
<!-- Node26&#45;&gt;Node28 -->
<g id="edge30" class="edge">
<title>Node26&#45;&gt;Node28</title>
<path fill="none" stroke="midnightblue" d="M2595.8,-70.67C2601.76,-69.34 2607.73,-68.09 2613.5,-67 2737.67,-43.64 2770.74,-51 2895.5,-31 2898.51,-30.52 2901.59,-30 2904.69,-29.47"/>
<polygon fill="midnightblue" stroke="midnightblue" points="2594.76,-67.32 2585.8,-72.98 2596.34,-74.14 2594.76,-67.32"/>
</g>
<!-- Node46&#45;&gt;Node7 -->
<g id="edge47" class="edge">
<title>Node46&#45;&gt;Node7</title>
<path fill="none" stroke="midnightblue" d="M4571.77,-150.57C4415.15,-144.38 4117.15,-130.03 4073.5,-109 4050.55,-97.94 4057.69,-77.55 4034.5,-67 3919.35,-14.61 3022.48,-42.56 2896.5,-31 2881.21,-29.6 2864.65,-27.33 2849.69,-25"/>
<polygon fill="midnightblue" stroke="midnightblue" points="4571.74,-154.07 4581.87,-150.96 4572.02,-147.07 4571.74,-154.07"/>
</g>
<!-- Node46&#45;&gt;Node25 -->
<g id="edge54" class="edge">
<title>Node46&#45;&gt;Node25</title>
<path fill="none" stroke="midnightblue" d="M4571.52,-153.27C4314.56,-150.9 3615.05,-141.56 3386.5,-109 3376.56,-107.58 3366.05,-105.41 3356.06,-103.02"/>
<polygon fill="midnightblue" stroke="midnightblue" points="4571.55,-156.77 4581.58,-153.36 4571.61,-149.77 4571.55,-156.77"/>
</g>
<!-- Node46&#45;&gt;Node29 -->
<g id="edge55" class="edge">
<title>Node46&#45;&gt;Node29</title>
<path fill="none" stroke="midnightblue" d="M4571.84,-154.72C4383.88,-155.1 3953.43,-150.81 3594.5,-109 3572.22,-106.4 3547.56,-101.74 3527.84,-97.57"/>
<polygon fill="midnightblue" stroke="midnightblue" points="4571.98,-158.22 4581.97,-154.7 4571.96,-151.22 4571.98,-158.22"/>
</g>
<!-- Node46&#45;&gt;Node30 -->
<g id="edge57" class="edge">
<title>Node46&#45;&gt;Node30</title>
<path fill="none" stroke="midnightblue" d="M4571.66,-152.12C4367.25,-147.67 3894.21,-134.84 3735.5,-109 3726.65,-107.56 3717.33,-105.41 3708.47,-103.05"/>
<polygon fill="midnightblue" stroke="midnightblue" points="4571.7,-155.62 4581.78,-152.34 4571.85,-148.62 4571.7,-155.62"/>
</g>
<!-- Node46&#45;&gt;Node34 -->
<g id="edge61" class="edge">
<title>Node46&#45;&gt;Node34</title>
<path fill="none" stroke="midnightblue" d="M4571.42,-154.15C4424.66,-153.09 4136.2,-145.92 3894.5,-109 3884.73,-107.51 3874.42,-105.37 3864.57,-103.04"/>
<polygon fill="midnightblue" stroke="midnightblue" points="4571.72,-157.65 4581.74,-154.22 4571.76,-150.65 4571.72,-157.65"/>
</g>
<!-- Node46&#45;&gt;Node41 -->
<g id="edge62" class="edge">
<title>Node46&#45;&gt;Node41</title>
<path fill="none" stroke="midnightblue" d="M4571.62,-152.75C4447.88,-149.85 4226.27,-140.31 4039.5,-109 4030.46,-107.49 4020.93,-105.36 4011.81,-103.07"/>
<polygon fill="midnightblue" stroke="midnightblue" points="4571.75,-156.25 4581.82,-152.98 4571.91,-149.25 4571.75,-156.25"/>
</g>
<!-- Node47 -->
<g id="node37" class="node">
<title>Node47</title>
<g id="a_node37"><a xlink:href="../../d5/dce/PolymorphicAuditSerializer_8cpp.html" target="_top" xlink:title=" ">
<polygon fill="white" stroke="black" points="4082,-73 4082,-103 4253,-103 4253,-73 4082,-73"/>
<text text-anchor="start" x="4090" y="-91" font-family="Helvetica,sans-Serif" font-size="10.00">src/core/audit/serializers</text>
<text text-anchor="middle" x="4167.5" y="-80" font-family="Helvetica,sans-Serif" font-size="10.00">/PolymorphicAuditSerializer.cpp</text>
</a>
</g>
</g>
<!-- Node46&#45;&gt;Node47 -->
<g id="edge43" class="edge">
<title>Node46&#45;&gt;Node47</title>
<path fill="none" stroke="midnightblue" d="M4571.76,-146C4489.47,-138.49 4367.78,-125.89 4262.5,-109 4251.93,-107.3 4240.76,-105.22 4229.94,-103.04"/>
<polygon fill="midnightblue" stroke="midnightblue" points="4571.57,-149.49 4581.84,-146.91 4572.2,-142.52 4571.57,-149.49"/>
</g>
<!-- Node48 -->
<g id="node38" class="node">
<title>Node48</title>
<g id="a_node38"><a xlink:href="../../d8/da2/DoorSerializer_8cpp.html" target="_top" xlink:title=" ">
<polygon fill="white" stroke="black" points="4271,-73 4271,-103 4404,-103 4404,-73 4271,-73"/>
<text text-anchor="start" x="4279" y="-91" font-family="Helvetica,sans-Serif" font-size="10.00">src/core/auth/serializers</text>
<text text-anchor="middle" x="4337.5" y="-80" font-family="Helvetica,sans-Serif" font-size="10.00">/DoorSerializer.cpp</text>
</a>
</g>
</g>
<!-- Node46&#45;&gt;Node48 -->
<g id="edge44" class="edge">
<title>Node46&#45;&gt;Node48</title>
<path fill="none" stroke="midnightblue" d="M4601.76,-143.87C4550.3,-135.58 4477.06,-122.97 4413.5,-109 4405.37,-107.21 4396.8,-105.14 4388.46,-103.02"/>
<polygon fill="midnightblue" stroke="midnightblue" points="4601.32,-147.35 4611.75,-145.47 4602.43,-140.43 4601.32,-147.35"/>
</g>
<!-- Node49 -->
<g id="node39" class="node">
<title>Node49</title>
<g id="a_node39"><a xlink:href="../../da/dbe/ZoneSerializer_8cpp.html" target="_top" xlink:title=" ">
<polygon fill="white" stroke="black" points="4422,-73 4422,-103 4555,-103 4555,-73 4422,-73"/>
<text text-anchor="start" x="4430" y="-91" font-family="Helvetica,sans-Serif" font-size="10.00">src/core/auth/serializers</text>
<text text-anchor="middle" x="4488.5" y="-80" font-family="Helvetica,sans-Serif" font-size="10.00">/ZoneSerializer.cpp</text>
</a>
</g>
</g>
<!-- Node46&#45;&gt;Node49 -->
<g id="edge45" class="edge">
<title>Node46&#45;&gt;Node49</title>
<path fill="none" stroke="midnightblue" d="M4634.03,-141.85C4603.69,-130.83 4558.98,-114.59 4527.13,-103.03"/>
<polygon fill="midnightblue" stroke="midnightblue" points="4633.14,-145.25 4643.73,-145.37 4635.53,-138.67 4633.14,-145.25"/>
</g>
<!-- Node50 -->
<g id="node40" class="node">
<title>Node50</title>
<g id="a_node40"><a xlink:href="../../d6/d5a/CredentialSerializer_8cpp.html" target="_top" xlink:title=" ">
<polygon fill="white" stroke="black" points="4573.5,-73 4573.5,-103 4761.5,-103 4761.5,-73 4573.5,-73"/>
<text text-anchor="start" x="4581.5" y="-91" font-family="Helvetica,sans-Serif" font-size="10.00">src/core/credentials</text>
<text text-anchor="middle" x="4667.5" y="-80" font-family="Helvetica,sans-Serif" font-size="10.00">/serializers/CredentialSerializer.cpp</text>
</a>
</g>
</g>
<!-- Node46&#45;&gt;Node50 -->
<g id="edge46" class="edge">
<title>Node46&#45;&gt;Node50</title>
<path fill="none" stroke="midnightblue" d="M4667.5,-134.91C4667.5,-124.72 4667.5,-112.4 4667.5,-103.09"/>
<polygon fill="midnightblue" stroke="midnightblue" points="4664,-135.23 4667.5,-145.23 4671,-135.23 4664,-135.23"/>
</g>
<!-- Node51 -->
<g id="node41" class="node">
<title>Node51</title>
<g id="a_node41"><a xlink:href="../../de/dd9/UpdateService_8cpp.html" target="_top" xlink:title=" ">
<polygon fill="white" stroke="black" points="4779.5,-78.5 4779.5,-97.5 4965.5,-97.5 4965.5,-78.5 4779.5,-78.5"/>
<text text-anchor="middle" x="4872.5" y="-85.5" font-family="Helvetica,sans-Serif" font-size="10.00">src/core/update/UpdateService.cpp</text>
</a>
</g>
</g>
<!-- Node46&#45;&gt;Node51 -->
<g id="edge48" class="edge">
<title>Node46&#45;&gt;Node51</title>
<path fill="none" stroke="midnightblue" d="M4704.51,-142.27C4745.13,-129.39 4809.36,-109.02 4845.49,-97.56"/>
<polygon fill="midnightblue" stroke="midnightblue" points="4703.2,-139.01 4694.72,-145.37 4705.31,-145.68 4703.2,-139.01"/>
</g>
<!-- Node52 -->
<g id="node42" class="node">
<title>Node52</title>
<g id="a_node42"><a xlink:href="../../d2/dc0/Device_8cpp.html" target="_top" xlink:title=" ">
<polygon fill="white" stroke="black" points="4984,-78.5 4984,-97.5 5121,-97.5 5121,-78.5 4984,-78.5"/>
<text text-anchor="middle" x="5052.5" y="-85.5" font-family="Helvetica,sans-Serif" font-size="10.00">src/hardware/Device.cpp</text>
</a>
</g>
</g>
<!-- Node46&#45;&gt;Node52 -->
<g id="edge49" class="edge">
<title>Node46&#45;&gt;Node52</title>
<path fill="none" stroke="midnightblue" d="M4750.87,-144.19C4812.85,-136.32 4899.33,-124.1 4974.5,-109 4990.4,-105.81 5007.9,-101.4 5022.3,-97.54"/>
<polygon fill="midnightblue" stroke="midnightblue" points="4750.24,-140.75 4740.76,-145.47 4751.12,-147.69 4750.24,-140.75"/>
</g>
<!-- Node53 -->
<g id="node43" class="node">
<title>Node53</title>
<g id="a_node43"><a xlink:href="../../d6/d24/BuzzerSerializer_8cpp.html" target="_top" xlink:title=" ">
<polygon fill="white" stroke="black" points="5139,-73 5139,-103 5272,-103 5272,-73 5139,-73"/>
<text text-anchor="start" x="5147" y="-91" font-family="Helvetica,sans-Serif" font-size="10.00">src/hardware/serializers</text>
<text text-anchor="middle" x="5205.5" y="-80" font-family="Helvetica,sans-Serif" font-size="10.00">/BuzzerSerializer.cpp</text>
</a>
</g>
</g>
<!-- Node46&#45;&gt;Node53 -->
<g id="edge50" class="edge">
<title>Node46&#45;&gt;Node53</title>
<path fill="none" stroke="midnightblue" d="M4763.48,-149.26C4857.56,-143.55 5004.74,-131.72 5130.5,-109 5139.25,-107.42 5148.48,-105.32 5157.35,-103.08"/>
<polygon fill="midnightblue" stroke="midnightblue" points="4763.19,-145.78 4753.41,-149.87 4763.6,-152.76 4763.19,-145.78"/>
</g>
<!-- Node54 -->
<g id="node44" class="node">
<title>Node54</title>
<g id="a_node44"><a xlink:href="../../d4/d68/LEDSerializer_8cpp.html" target="_top" xlink:title=" ">
<polygon fill="white" stroke="black" points="5290,-73 5290,-103 5423,-103 5423,-73 5290,-73"/>
<text text-anchor="start" x="5298" y="-91" font-family="Helvetica,sans-Serif" font-size="10.00">src/hardware/serializers</text>
<text text-anchor="middle" x="5356.5" y="-80" font-family="Helvetica,sans-Serif" font-size="10.00">/LEDSerializer.cpp</text>
</a>
</g>
</g>
<!-- Node46&#45;&gt;Node54 -->
<g id="edge51" class="edge">
<title>Node46&#45;&gt;Node54</title>
<path fill="none" stroke="midnightblue" d="M4763.03,-152.53C4884.35,-149.4 5099.79,-139.61 5281.5,-109 5290.54,-107.48 5300.06,-105.35 5309.18,-103.05"/>
<polygon fill="midnightblue" stroke="midnightblue" points="4762.93,-149.03 4753.02,-152.78 4763.11,-156.03 4762.93,-149.03"/>
</g>
<!-- Node55 -->
<g id="node45" class="node">
<title>Node55</title>
<g id="a_node45"><a xlink:href="../../d7/d41/AsioModule_8cpp.html" target="_top" xlink:title=" ">
<polygon fill="white" stroke="black" points="5441.5,-78.5 5441.5,-97.5 5597.5,-97.5 5597.5,-78.5 5441.5,-78.5"/>
<text text-anchor="middle" x="5519.5" y="-85.5" font-family="Helvetica,sans-Serif" font-size="10.00">src/modules/AsioModule.cpp</text>
</a>
</g>
</g>
<!-- Node46&#45;&gt;Node55 -->
<g id="edge52" class="edge">
<title>Node46&#45;&gt;Node55</title>
<path fill="none" stroke="midnightblue" d="M4763.38,-153.49C4908.79,-151.56 5193.45,-143.26 5432.5,-109 5451.06,-106.34 5471.51,-101.73 5487.92,-97.6"/>
<polygon fill="midnightblue" stroke="midnightblue" points="4763.11,-149.99 4753.15,-153.62 4763.2,-156.99 4763.11,-149.99"/>
</g>
<!-- Node56 -->
<g id="node46" class="node">
<title>Node56</title>
<g id="a_node46"><a xlink:href="../../d7/d0d/NotifdModule_8cpp.html" target="_top" xlink:title=" ">
<polygon fill="white" stroke="black" points="5616,-73 5616,-103 5723,-103 5723,-73 5616,-73"/>
<text text-anchor="start" x="5624" y="-91" font-family="Helvetica,sans-Serif" font-size="10.00">src/modules/notifd</text>
<text text-anchor="middle" x="5669.5" y="-80" font-family="Helvetica,sans-Serif" font-size="10.00">/NotifdModule.cpp</text>
</a>
</g>
</g>
<!-- Node46&#45;&gt;Node56 -->
<g id="edge53" class="edge">
<title>Node46&#45;&gt;Node56</title>
<path fill="none" stroke="midnightblue" d="M4763.37,-152.56C4969.03,-148.94 5446.85,-137.66 5606.5,-109 5614.41,-107.58 5622.7,-105.44 5630.58,-103.08"/>
<polygon fill="midnightblue" stroke="midnightblue" points="4763.13,-149.06 4753.19,-152.73 4763.25,-156.06 4763.13,-149.06"/>
</g>
<!-- Node57 -->
<g id="node47" class="node">
<title>Node57</title>
<g id="a_node47"><a xlink:href="../../d7/d29/AccessPointCRUD_8cpp.html" target="_top" xlink:title=" ">
<polygon fill="white" stroke="black" points="5741.5,-73 5741.5,-103 5905.5,-103 5905.5,-73 5741.5,-73"/>
<text text-anchor="start" x="5749.5" y="-91" font-family="Helvetica,sans-Serif" font-size="10.00">src/modules/websock</text>
<text text-anchor="middle" x="5823.5" y="-80" font-family="Helvetica,sans-Serif" font-size="10.00">&#45;api/api/AccessPointCRUD.cpp</text>
</a>
</g>
</g>
<!-- Node46&#45;&gt;Node57 -->
<g id="edge56" class="edge">
<title>Node46&#45;&gt;Node57</title>
<path fill="none" stroke="midnightblue" d="M4763.21,-152.09C4988.39,-147.26 5546.68,-133.16 5732.5,-109 5743.73,-107.54 5755.62,-105.38 5766.97,-103.02"/>
<polygon fill="midnightblue" stroke="midnightblue" points="4762.99,-148.6 4753.07,-152.31 4763.14,-155.59 4762.99,-148.6"/>
</g>
<!-- Node58 -->
<g id="node48" class="node">
<title>Node58</title>
<g id="a_node48"><a xlink:href="../../de/dc2/HardwareSearch_8cpp.html" target="_top" xlink:title=" ">
<polygon fill="white" stroke="black" points="5923.5,-73 5923.5,-103 6115.5,-103 6115.5,-73 5923.5,-73"/>
<text text-anchor="start" x="5931.5" y="-91" font-family="Helvetica,sans-Serif" font-size="10.00">src/modules/websock</text>
<text text-anchor="middle" x="6019.5" y="-80" font-family="Helvetica,sans-Serif" font-size="10.00">&#45;api/api/search/HardwareSearch.cpp</text>
</a>
</g>
</g>
<!-- Node46&#45;&gt;Node58 -->
<g id="edge58" class="edge">
<title>Node46&#45;&gt;Node58</title>
<path fill="none" stroke="midnightblue" d="M4763.46,-152.43C5015.47,-148 5691.95,-134.06 5914.5,-109 5927.41,-107.55 5941.11,-105.39 5954.2,-103.03"/>
<polygon fill="midnightblue" stroke="midnightblue" points="4763.16,-148.93 4753.23,-152.61 4763.29,-155.93 4763.16,-148.93"/>
</g>
<!-- Node59 -->
<g id="node49" class="node">
<title>Node59</title>
<g id="a_node49"><a xlink:href="../../d1/deb/AckUpdate_8cpp.html" target="_top" xlink:title=" ">
<polygon fill="white" stroke="black" points="6134,-67.5 6134,-108.5 6293,-108.5 6293,-67.5 6134,-67.5"/>
<text text-anchor="start" x="6142" y="-96.5" font-family="Helvetica,sans-Serif" font-size="10.00">src/modules/websock</text>
<text text-anchor="start" x="6142" y="-85.5" font-family="Helvetica,sans-Serif" font-size="10.00">&#45;api/api/update&#45;management</text>
<text text-anchor="middle" x="6213.5" y="-74.5" font-family="Helvetica,sans-Serif" font-size="10.00">/AckUpdate.cpp</text>
</a>
</g>
</g>
<!-- Node46&#45;&gt;Node59 -->
<g id="edge59" class="edge">
<title>Node46&#45;&gt;Node59</title>
<path fill="none" stroke="midnightblue" d="M4763.59,-153.42C5044.32,-151.33 5860.07,-142.49 6124.5,-109 6127.49,-108.62 6130.52,-108.19 6133.57,-107.71"/>
<polygon fill="midnightblue" stroke="midnightblue" points="4763.4,-149.92 4753.43,-153.49 4763.45,-156.92 4763.4,-149.92"/>
</g>
<!-- Node60 -->
<g id="node50" class="node">
<title>Node60</title>
<g id="a_node50"><a xlink:href="../../d0/dcd/CancelUpdate_8cpp.html" target="_top" xlink:title=" ">
<polygon fill="white" stroke="black" points="6311,-67.5 6311,-108.5 6470,-108.5 6470,-67.5 6311,-67.5"/>
<text text-anchor="start" x="6319" y="-96.5" font-family="Helvetica,sans-Serif" font-size="10.00">src/modules/websock</text>
<text text-anchor="start" x="6319" y="-85.5" font-family="Helvetica,sans-Serif" font-size="10.00">&#45;api/api/update&#45;management</text>
<text text-anchor="middle" x="6390.5" y="-74.5" font-family="Helvetica,sans-Serif" font-size="10.00">/CancelUpdate.cpp</text>
</a>
</g>
</g>
<!-- Node46&#45;&gt;Node60 -->
<g id="edge60" class="edge">
<title>Node46&#45;&gt;Node60</title>
<path fill="none" stroke="midnightblue" d="M4763.33,-153.83C5066.43,-152.89 6001.91,-146.92 6302.5,-109 6305.3,-108.65 6308.14,-108.24 6311,-107.8"/>
<polygon fill="midnightblue" stroke="midnightblue" points="4763.24,-150.33 4753.25,-153.86 4763.26,-157.33 4763.24,-150.33"/>
</g>
</g>
</svg>
