<?xml version="1.0" encoding="UTF-8" standalone="no"?>
<!DOCTYPE svg PUBLIC "-//W3C//DTD SVG 1.1//EN"
 "http://www.w3.org/Graphics/SVG/1.1/DTD/svg11.dtd">
<!-- Generated by graphviz version 2.43.0 (0)
 -->
<!-- Title: Leosac::Audit::UserGroupMembershipEvent Pages: 1 -->
<!--zoomable 264 -->
<svg id="main" version="1.1" xmlns="http://www.w3.org/2000/svg" xmlns:xlink="http://www.w3.org/1999/xlink" xml:space="preserve" onload="init(evt)">
<style type="text/css"><![CDATA[
.edge:hover path { stroke: red; }
.edge:hover polygon { stroke: red; fill: red; }
]]></style>
<script type="text/javascript"><![CDATA[
var edges = document.getElementsByTagName('g');
if (edges && edges.length) {
  for (var i=0;i<edges.length;i++) {
    if (edges[i].id.substr(0,4)=='edge') {
      edges[i].setAttribute('class','edge');
    }
  }
}
]]></script>
        <defs>
                <circle id="rim" cx="0" cy="0" r="7"/>
                <circle id="rim2" cx="0" cy="0" r="3.5"/>
                <g id="zoomPlus">
                        <use xlink:href="#rim" fill="#404040">
                                <set attributeName="fill" to="#808080" begin="zoomplus.mouseover" end="zoomplus.mouseout"/>
                        </use>
                        <path d="M-4,0h8M0,-4v8" fill="none" stroke="white" stroke-width="1.5" pointer-events="none"/>
                </g>
                <g id="zoomMin">
                        <use xlink:href="#rim" fill="#404040">
                                <set attributeName="fill" to="#808080" begin="zoomminus.mouseover" end="zoomminus.mouseout"/>
                        </use>
                        <path d="M-4,0h8" fill="none" stroke="white" stroke-width="1.5" pointer-events="none"/>
                </g>
                <g id="dirArrow">
                        <path fill="none" stroke="white" stroke-width="1.5" d="M0,-3.0v7 M-2.5,-0.5L0,-3.0L2.5,-0.5"/>
                </g>
               <g id="resetDef">
                       <use xlink:href="#rim2" fill="#404040">
                               <set attributeName="fill" to="#808080" begin="reset.mouseover" end="reset.mouseout"/>
                       </use>
               </g>
        </defs>

<script type="text/javascript">
var viewWidth = 928;
var viewHeight = 264;
var sectionId = 'dynsection-1';
</script>
<script xlink:href="../../svgpan.js"/>
<svg id="graph" class="graph">
<g id="viewport">
<title>Leosac::Audit::UserGroupMembershipEvent</title>
<polygon fill="white" stroke="transparent" points="-4,4 -4,-260 924,-260 924,4 -4,4"/>
<!-- Node1 -->
<g id="node1" class="node">
<title>Node1</title>
<g id="a_node1"><a xlink:title="Provides an implementation of IUserGroupMembershipEvent.">
<polygon fill="#bfbfbf" stroke="black" points="772,-43.5 772,-73.5 912,-73.5 912,-43.5 772,-43.5"/>
<text text-anchor="start" x="780" y="-61.5" font-family="Helvetica,sans-Serif" font-size="10.00">Leosac::Audit::UserGroup</text>
<text text-anchor="middle" x="842" y="-50.5" font-family="Helvetica,sans-Serif" font-size="10.00">MembershipEvent</text>
</a>
</g>
</g>
<!-- Node2 -->
<g id="node2" class="node">
<title>Node2</title>
<g id="a_node2"><a xlink:href="../../d3/d84/classLeosac_1_1Audit_1_1IUserGroupMembershipEvent.html" target="_top" xlink:title="Interface to audit object that take care of tracking user/group membership change.">
<polygon fill="white" stroke="black" points="545,-0.5 545,-30.5 688,-30.5 688,-0.5 545,-0.5"/>
<text text-anchor="start" x="553" y="-18.5" font-family="Helvetica,sans-Serif" font-size="10.00">Leosac::Audit::IUserGroup</text>
<text text-anchor="middle" x="616.5" y="-7.5" font-family="Helvetica,sans-Serif" font-size="10.00">MembershipEvent</text>
</a>
</g>
</g>
<!-- Node2&#45;&gt;Node1 -->
<g id="edge1" class="edge">
<title>Node2&#45;&gt;Node1</title>
<path fill="none" stroke="midnightblue" d="M698.07,-31C722.24,-35.65 748.53,-40.71 771.89,-45.2"/>
<polygon fill="midnightblue" stroke="midnightblue" points="698.7,-27.56 688.22,-29.11 697.38,-34.43 698.7,-27.56"/>
</g>
<!-- Node3 -->
<g id="node3" class="node">
<title>Node3</title>
<g id="a_node3"><a xlink:href="../../d1/d44/classLeosac_1_1Audit_1_1IAuditEntry.html" target="_top" xlink:title="Base interface to Audit object.">
<polygon fill="white" stroke="black" points="306.5,-4 306.5,-23 448.5,-23 448.5,-4 306.5,-4"/>
<text text-anchor="middle" x="377.5" y="-11" font-family="Helvetica,sans-Serif" font-size="10.00">Leosac::Audit::IAuditEntry</text>
</a>
</g>
</g>
<!-- Node3&#45;&gt;Node2 -->
<g id="edge2" class="edge">
<title>Node3&#45;&gt;Node2</title>
<path fill="none" stroke="midnightblue" d="M458.76,-14.18C486.63,-14.41 517.66,-14.67 544.71,-14.9"/>
<polygon fill="midnightblue" stroke="midnightblue" points="458.68,-10.68 448.65,-14.09 458.62,-17.68 458.68,-10.68"/>
</g>
<!-- Node5 -->
<g id="node5" class="node">
<title>Node5</title>
<g id="a_node5"><a xlink:href="../../d0/d20/classLeosac_1_1Audit_1_1AuditEntry.html" target="_top" xlink:title="Implementation of IAuditEntry, backed by ODB.">
<polygon fill="white" stroke="black" points="547,-95 547,-114 686,-114 686,-95 547,-95"/>
<text text-anchor="middle" x="616.5" y="-102" font-family="Helvetica,sans-Serif" font-size="10.00">Leosac::Audit::AuditEntry</text>
</a>
</g>
</g>
<!-- Node3&#45;&gt;Node5 -->
<g id="edge5" class="edge">
<title>Node3&#45;&gt;Node5</title>
<path fill="none" stroke="midnightblue" d="M416.17,-26.46C428.57,-30.81 442.41,-35.77 455,-40.5 504.28,-59.01 561.43,-82.22 592.49,-94.99"/>
<polygon fill="midnightblue" stroke="midnightblue" points="417.17,-23.1 406.58,-23.11 414.86,-29.71 417.17,-23.1"/>
</g>
<!-- Node4 -->
<g id="node4" class="node">
<title>Node4</title>
<g id="a_node4"><a xlink:href="../../d0/d33/classLeosac_1_1Tools_1_1IVisitable.html" target="_top" xlink:title="Base class to make an object visitable.">
<polygon fill="white" stroke="black" points="82,-4 82,-23 215,-23 215,-4 82,-4"/>
<text text-anchor="middle" x="148.5" y="-11" font-family="Helvetica,sans-Serif" font-size="10.00">Leosac::Tools::IVisitable</text>
</a>
</g>
</g>
<!-- Node4&#45;&gt;Node3 -->
<g id="edge3" class="edge">
<title>Node4&#45;&gt;Node3</title>
<path fill="none" stroke="midnightblue" d="M225.38,-13.5C251.49,-13.5 280.59,-13.5 306.24,-13.5"/>
<polygon fill="midnightblue" stroke="midnightblue" points="225.16,-10 215.16,-13.5 225.16,-17 225.16,-10"/>
</g>
<!-- Node5&#45;&gt;Node1 -->
<g id="edge4" class="edge">
<title>Node5&#45;&gt;Node1</title>
<path fill="none" stroke="midnightblue" d="M673.62,-92.95C703.41,-86.82 740.28,-79.23 771.82,-72.74"/>
<polygon fill="midnightblue" stroke="midnightblue" points="672.9,-89.52 663.81,-94.97 674.31,-96.38 672.9,-89.52"/>
</g>
<!-- Node12 -->
<g id="node12" class="node">
<title>Node12</title>
<g id="a_node12"><a xlink:title=" ">
<polygon fill="white" stroke="#bfbfbf" points="764,-100 764,-119 920,-119 920,-100 764,-100"/>
<text text-anchor="middle" x="842" y="-107" font-family="Helvetica,sans-Serif" font-size="10.00">std::weak_ptr&lt; AuditEntry &gt;</text>
</a>
</g>
</g>
<!-- Node5&#45;&gt;Node12 -->
<g id="edge13" class="edge">
<title>Node5&#45;&gt;Node12</title>
<path fill="none" stroke="#9a32cd" stroke-dasharray="5,2" d="M696.15,-101.7C699.48,-101.62 702.77,-101.55 706,-101.5 723.78,-101.2 728.24,-100.75 746,-101.5 751.79,-101.74 757.77,-102.07 763.78,-102.45"/>
<polygon fill="#9a32cd" stroke="#9a32cd" points="696.01,-98.2 686.1,-101.95 696.19,-105.2 696.01,-98.2"/>
<text text-anchor="middle" x="726" y="-104.5" font-family="Helvetica,sans-Serif" font-size="10.00"> ptr</text>
</g>
<!-- Node6 -->
<g id="node6" class="node">
<title>Node6</title>
<g id="a_node6"><a xlink:title=" ">
<polygon fill="white" stroke="#bfbfbf" points="306.5,-225.5 306.5,-255.5 448.5,-255.5 448.5,-225.5 306.5,-225.5"/>
<text text-anchor="start" x="314.5" y="-243.5" font-family="Helvetica,sans-Serif" font-size="10.00">std::enable_shared</text>
<text text-anchor="middle" x="377.5" y="-232.5" font-family="Helvetica,sans-Serif" font-size="10.00">_from_this&lt; AuditEntry &gt;</text>
</a>
</g>
</g>
<!-- Node6&#45;&gt;Node5 -->
<g id="edge6" class="edge">
<title>Node6&#45;&gt;Node5</title>
<path fill="none" stroke="midnightblue" d="M436.34,-222.14C442.66,-219.97 448.98,-217.73 455,-215.5 487.5,-203.44 497.78,-204.15 527,-185.5 560.01,-164.44 592.26,-130.63 607.07,-114.15"/>
<polygon fill="midnightblue" stroke="midnightblue" points="434.8,-218.96 426.45,-225.47 437.04,-225.59 434.8,-218.96"/>
</g>
<!-- Node7 -->
<g id="node7" class="node">
<title>Node7</title>
<g id="a_node7"><a xlink:title=" ">
<polygon fill="white" stroke="#bfbfbf" points="300,-187 300,-206 455,-206 455,-187 300,-187"/>
<text text-anchor="middle" x="377.5" y="-194" font-family="Helvetica,sans-Serif" font-size="10.00">std::vector&lt; AuditEntryPtr &gt;</text>
</a>
</g>
</g>
<!-- Node7&#45;&gt;Node5 -->
<g id="edge7" class="edge">
<title>Node7&#45;&gt;Node5</title>
<path fill="none" stroke="#9a32cd" stroke-dasharray="5,2" d="M431.62,-184.41C439.51,-182.3 447.51,-179.98 455,-177.5 508.77,-159.73 568.64,-129.52 597.72,-114.13"/>
<polygon fill="#9a32cd" stroke="#9a32cd" points="430.52,-181.08 421.71,-186.98 432.27,-187.86 430.52,-181.08"/>
<text text-anchor="middle" x="500" y="-173.5" font-family="Helvetica,sans-Serif" font-size="10.00"> children_</text>
</g>
<!-- Node8 -->
<g id="node8" class="node">
<title>Node8</title>
<g id="a_node8"><a xlink:title="STL class.">
<polygon fill="white" stroke="#bfbfbf" points="89.5,-187 89.5,-206 207.5,-206 207.5,-187 89.5,-187"/>
<text text-anchor="middle" x="148.5" y="-194" font-family="Helvetica,sans-Serif" font-size="10.00">std::shared_ptr&lt; T &gt;</text>
</a>
</g>
</g>
<!-- Node8&#45;&gt;Node7 -->
<g id="edge8" class="edge">
<title>Node8&#45;&gt;Node7</title>
<path fill="none" stroke="#9a32cd" stroke-dasharray="5,2" d="M217.73,-196.5C243.54,-196.5 273.09,-196.5 299.64,-196.5"/>
<polygon fill="#9a32cd" stroke="#9a32cd" points="217.66,-193 207.66,-196.5 217.66,-200 217.66,-193"/>
<text text-anchor="middle" x="257.5" y="-199.5" font-family="Helvetica,sans-Serif" font-size="10.00"> elements</text>
</g>
<!-- Node9 -->
<g id="node9" class="node">
<title>Node9</title>
<g id="a_node9"><a xlink:title=" ">
<polygon fill="white" stroke="#bfbfbf" points="0,-187 0,-206 29,-206 29,-187 0,-187"/>
<text text-anchor="middle" x="14.5" y="-194" font-family="Helvetica,sans-Serif" font-size="10.00">T</text>
</a>
</g>
</g>
<!-- Node9&#45;&gt;Node8 -->
<g id="edge9" class="edge">
<title>Node9&#45;&gt;Node8</title>
<path fill="none" stroke="#9a32cd" stroke-dasharray="5,2" d="M39.35,-196.5C53.39,-196.5 71.8,-196.5 89.44,-196.5"/>
<polygon fill="#9a32cd" stroke="#9a32cd" points="39.13,-193 29.13,-196.5 39.13,-200 39.13,-193"/>
<text text-anchor="middle" x="55.5" y="-199.5" font-family="Helvetica,sans-Serif" font-size="10.00"> ptr</text>
</g>
<!-- Node10 -->
<g id="node10" class="node">
<title>Node10</title>
<g id="a_node10"><a xlink:title=" ">
<polygon fill="white" stroke="#bfbfbf" points="318,-137.5 318,-167.5 437,-167.5 437,-137.5 318,-137.5"/>
<text text-anchor="start" x="326" y="-155.5" font-family="Helvetica,sans-Serif" font-size="10.00">std::shared_ptr&lt; odb</text>
<text text-anchor="middle" x="377.5" y="-144.5" font-family="Helvetica,sans-Serif" font-size="10.00">::database &gt;</text>
</a>
</g>
</g>
<!-- Node10&#45;&gt;Node5 -->
<g id="edge10" class="edge">
<title>Node10&#45;&gt;Node5</title>
<path fill="none" stroke="#9a32cd" stroke-dasharray="5,2" d="M447.28,-138.57C486.12,-130.7 533.68,-121.07 568.31,-114.06"/>
<polygon fill="#9a32cd" stroke="#9a32cd" points="446.19,-135.22 437.08,-140.63 447.58,-142.08 446.19,-135.22"/>
<text text-anchor="middle" x="500" y="-135.5" font-family="Helvetica,sans-Serif" font-size="10.00"> database_</text>
</g>
<!-- Node11 -->
<g id="node11" class="node">
<title>Node11</title>
<g id="a_node11"><a xlink:href="../../dd/d95/classLeosac_1_1Tools_1_1ElapsedTimeCounter.html" target="_top" xlink:title="This class provide a simple to get the elapsed time since it&#39;s creation.">
<polygon fill="white" stroke="black" points="302.5,-88.5 302.5,-118.5 452.5,-118.5 452.5,-88.5 302.5,-88.5"/>
<text text-anchor="start" x="310.5" y="-106.5" font-family="Helvetica,sans-Serif" font-size="10.00">Leosac::Tools::ElapsedTime</text>
<text text-anchor="middle" x="377.5" y="-95.5" font-family="Helvetica,sans-Serif" font-size="10.00">Counter</text>
</a>
</g>
</g>
<!-- Node11&#45;&gt;Node5 -->
<g id="edge11" class="edge">
<title>Node11&#45;&gt;Node5</title>
<path fill="none" stroke="#9a32cd" stroke-dasharray="5,2" d="M462.56,-103.85C490.18,-103.97 520.55,-104.1 546.89,-104.21"/>
<polygon fill="#9a32cd" stroke="#9a32cd" points="462.53,-100.35 452.51,-103.81 462.5,-107.35 462.53,-100.35"/>
<text text-anchor="middle" x="500" y="-106.5" font-family="Helvetica,sans-Serif" font-size="10.00"> etc_</text>
</g>
<!-- Node12&#45;&gt;Node5 -->
<g id="edge12" class="edge">
<title>Node12&#45;&gt;Node5</title>
<path fill="none" stroke="#9a32cd" stroke-dasharray="5,2" d="M753.56,-115.12C737.73,-115.46 721.37,-115.37 706,-114.5 699.52,-114.13 692.78,-113.62 686.04,-113.02"/>
<polygon fill="#9a32cd" stroke="#9a32cd" points="753.97,-118.61 763.87,-114.84 753.78,-111.61 753.97,-118.61"/>
<text text-anchor="middle" x="726" y="-117.5" font-family="Helvetica,sans-Serif" font-size="10.00"> parent_</text>
</g>
<!-- Node13 -->
<g id="node13" class="node">
<title>Node13</title>
<g id="a_node13"><a xlink:title="STL class.">
<polygon fill="white" stroke="#bfbfbf" points="345,-50 345,-69 410,-69 410,-50 345,-50"/>
<text text-anchor="middle" x="377.5" y="-57" font-family="Helvetica,sans-Serif" font-size="10.00">std::string</text>
</a>
</g>
</g>
<!-- Node13&#45;&gt;Node5 -->
<g id="edge14" class="edge">
<title>Node13&#45;&gt;Node5</title>
<path fill="none" stroke="#9a32cd" stroke-dasharray="5,2" d="M420.52,-67.48C460.91,-75.15 522.01,-86.75 565.03,-94.92"/>
<polygon fill="#9a32cd" stroke="#9a32cd" points="420.94,-64 410.46,-65.57 419.63,-70.87 420.94,-64"/>
<text text-anchor="middle" x="500" y="-89.5" font-family="Helvetica,sans-Serif" font-size="10.00"> msg_</text>
</g>
<!-- Node14 -->
<g id="node14" class="node">
<title>Node14</title>
<g id="a_node14"><a xlink:title="STL class.">
<polygon fill="white" stroke="#bfbfbf" points="96.5,-44.5 96.5,-74.5 200.5,-74.5 200.5,-44.5 96.5,-44.5"/>
<text text-anchor="start" x="104.5" y="-62.5" font-family="Helvetica,sans-Serif" font-size="10.00">std::basic_string&lt;</text>
<text text-anchor="middle" x="148.5" y="-51.5" font-family="Helvetica,sans-Serif" font-size="10.00"> char &gt;</text>
</a>
</g>
</g>
<!-- Node14&#45;&gt;Node13 -->
<g id="edge15" class="edge">
<title>Node14&#45;&gt;Node13</title>
<path fill="none" stroke="midnightblue" d="M210.85,-59.5C254.06,-59.5 310.14,-59.5 344.71,-59.5"/>
<polygon fill="midnightblue" stroke="midnightblue" points="210.73,-56 200.73,-59.5 210.73,-63 210.73,-56"/>
</g>
</g>
</svg>
        <g id="navigator" transform="translate(0 0)" fill="#404254">
                <rect fill="#f2f5e9" fill-opacity="0.5" stroke="#606060" stroke-width=".5" x="0" y="0" width="60" height="60"/>
                <use id="zoomplus" xlink:href="#zoomPlus" x="17" y="9" onmousedown="handleZoom(evt,'in')"/>
                <use id="zoomminus" xlink:href="#zoomMin" x="42" y="9" onmousedown="handleZoom(evt,'out')"/>
                <use id="reset" xlink:href="#resetDef" x="30" y="36" onmousedown="handleReset()"/>
                <g id="arrowUp" xlink:href="#dirArrow" transform="translate(30 24)" onmousedown="handlePan(0,-1)">
                  <use xlink:href="#rim" fill="#404040">
                        <set attributeName="fill" to="#808080" begin="arrowUp.mouseover" end="arrowUp.mouseout"/>
                  </use>
                  <path fill="none" stroke="white" stroke-width="1.5" d="M0,-3.0v7 M-2.5,-0.5L0,-3.0L2.5,-0.5"/>
                </g>
                <g id="arrowRight" xlink:href="#dirArrow" transform="rotate(90) translate(36 -43)" onmousedown="handlePan(1,0)">
                  <use xlink:href="#rim" fill="#404040">
                        <set attributeName="fill" to="#808080" begin="arrowRight.mouseover" end="arrowRight.mouseout"/>
                  </use>
                  <path fill="none" stroke="white" stroke-width="1.5" d="M0,-3.0v7 M-2.5,-0.5L0,-3.0L2.5,-0.5"/>
                </g>
                <g id="arrowDown" xlink:href="#dirArrow" transform="rotate(180) translate(-30 -48)" onmousedown="handlePan(0,1)">
                  <use xlink:href="#rim" fill="#404040">
                        <set attributeName="fill" to="#808080" begin="arrowDown.mouseover" end="arrowDown.mouseout"/>
                  </use>
                  <path fill="none" stroke="white" stroke-width="1.5" d="M0,-3.0v7 M-2.5,-0.5L0,-3.0L2.5,-0.5"/>
                </g>
                <g id="arrowLeft" xlink:href="#dirArrow" transform="rotate(270) translate(-36 17)" onmousedown="handlePan(-1,0)">
                  <use xlink:href="#rim" fill="#404040">
                        <set attributeName="fill" to="#808080" begin="arrowLeft.mouseover" end="arrowLeft.mouseout"/>
                  </use>
                  <path fill="none" stroke="white" stroke-width="1.5" d="M0,-3.0v7 M-2.5,-0.5L0,-3.0L2.5,-0.5"/>
                </g>
        </g>
        <svg viewBox="0 0 15 15" width="100%" height="30px" preserveAspectRatio="xMaxYMin meet">
         <g id="arrow_out" transform="scale(0.3 0.3)">
          <a xlink:href="classLeosac_1_1Audit_1_1UserGroupMembershipEvent__coll__graph_org.svg" target="_base">
           <rect id="button" ry="5" rx="5" y="6" x="6" height="38" width="38"
                fill="#f2f5e9" fill-opacity="0.5" stroke="#606060" stroke-width="1.0"/>
           <path id="arrow"
             d="M 11.500037,31.436501 C 11.940474,20.09759 22.043105,11.32322 32.158766,21.979434 L 37.068811,17.246167 C 37.068811,17.246167 37.088388,32 37.088388,32 L 22.160133,31.978069 C 22.160133,31.978069 26.997745,27.140456 26.997745,27.140456 C 18.528582,18.264221 13.291696,25.230495 11.500037,31.436501 z"
             style="fill:#404040;"/>
          </a>
         </g>
        </svg>
</svg>
