<?xml version="1.0" encoding="UTF-8" standalone="no"?>
<!DOCTYPE svg PUBLIC "-//W3C//DTD SVG 1.1//EN"
 "http://www.w3.org/Graphics/SVG/1.1/DTD/svg11.dtd">
<!-- Generated by graphviz version 2.43.0 (0)
 -->
<!-- Title: src/tools/serializers/ScheduleMappingSerializer.hpp Pages: 1 -->
<svg width="419pt" height="151pt"
 viewBox="0.00 0.00 418.50 151.00" xmlns="http://www.w3.org/2000/svg" xmlns:xlink="http://www.w3.org/1999/xlink">
<g id="graph0" class="graph" transform="scale(1 1) rotate(0) translate(4 147)">
<title>src/tools/serializers/ScheduleMappingSerializer.hpp</title>
<polygon fill="white" stroke="transparent" points="-4,4 -4,-147 414.5,-147 414.5,4 -4,4"/>
<!-- Node1 -->
<g id="node1" class="node">
<title>Node1</title>
<g id="a_node1"><a xlink:title=" ">
<polygon fill="#bfbfbf" stroke="black" points="143.5,-112.5 143.5,-142.5 315.5,-142.5 315.5,-112.5 143.5,-112.5"/>
<text text-anchor="start" x="151.5" y="-130.5" font-family="Helvetica,sans-Serif" font-size="10.00">src/tools/serializers</text>
<text text-anchor="middle" x="229.5" y="-119.5" font-family="Helvetica,sans-Serif" font-size="10.00">/ScheduleMappingSerializer.hpp</text>
</a>
</g>
</g>
<!-- Node2 -->
<g id="node2" class="node">
<title>Node2</title>
<g id="a_node2"><a xlink:href="../../dc/d49/LeosacFwd_8hpp.html" target="_top" xlink:title=" ">
<polygon fill="white" stroke="black" points="0.5,-56.5 0.5,-75.5 92.5,-75.5 92.5,-56.5 0.5,-56.5"/>
<text text-anchor="middle" x="46.5" y="-63.5" font-family="Helvetica,sans-Serif" font-size="10.00">LeosacFwd.hpp</text>
</a>
</g>
</g>
<!-- Node1&#45;&gt;Node2 -->
<g id="edge1" class="edge">
<title>Node1&#45;&gt;Node2</title>
<path fill="none" stroke="midnightblue" d="M186.13,-112.4C154.51,-102.12 112.17,-88.35 82.43,-78.68"/>
<polygon fill="midnightblue" stroke="midnightblue" points="83.45,-75.33 72.86,-75.57 81.29,-81.99 83.45,-75.33"/>
</g>
<!-- Node5 -->
<g id="node5" class="node">
<title>Node5</title>
<g id="a_node5"><a xlink:href="../../d8/d97/ToolsFwd_8hpp.html" target="_top" xlink:title=" ">
<polygon fill="white" stroke="black" points="110.5,-56.5 110.5,-75.5 220.5,-75.5 220.5,-56.5 110.5,-56.5"/>
<text text-anchor="middle" x="165.5" y="-63.5" font-family="Helvetica,sans-Serif" font-size="10.00">tools/ToolsFwd.hpp</text>
</a>
</g>
</g>
<!-- Node1&#45;&gt;Node5 -->
<g id="edge4" class="edge">
<title>Node1&#45;&gt;Node5</title>
<path fill="none" stroke="midnightblue" d="M214.33,-112.4C204.75,-103.49 192.34,-91.95 182.43,-82.74"/>
<polygon fill="midnightblue" stroke="midnightblue" points="184.52,-79.9 174.81,-75.66 179.75,-85.03 184.52,-79.9"/>
</g>
<!-- Node7 -->
<g id="node7" class="node">
<title>Node7</title>
<g id="a_node7"><a xlink:title=" ">
<polygon fill="white" stroke="#bfbfbf" points="238.5,-56.5 238.5,-75.5 348.5,-75.5 348.5,-56.5 238.5,-56.5"/>
<text text-anchor="middle" x="293.5" y="-63.5" font-family="Helvetica,sans-Serif" font-size="10.00">nlohmann/json.hpp</text>
</a>
</g>
</g>
<!-- Node1&#45;&gt;Node7 -->
<g id="edge7" class="edge">
<title>Node1&#45;&gt;Node7</title>
<path fill="none" stroke="midnightblue" d="M244.67,-112.4C254.25,-103.49 266.66,-91.95 276.57,-82.74"/>
<polygon fill="midnightblue" stroke="midnightblue" points="279.25,-85.03 284.19,-75.66 274.48,-79.9 279.25,-85.03"/>
</g>
<!-- Node8 -->
<g id="node8" class="node">
<title>Node8</title>
<g id="a_node8"><a xlink:title=" ">
<polygon fill="white" stroke="#bfbfbf" points="366.5,-56.5 366.5,-75.5 410.5,-75.5 410.5,-56.5 366.5,-56.5"/>
<text text-anchor="middle" x="388.5" y="-63.5" font-family="Helvetica,sans-Serif" font-size="10.00">string</text>
</a>
</g>
</g>
<!-- Node1&#45;&gt;Node8 -->
<g id="edge8" class="edge">
<title>Node1&#45;&gt;Node8</title>
<path fill="none" stroke="midnightblue" d="M267.18,-112.4C294.42,-102.21 330.82,-88.59 356.62,-78.93"/>
<polygon fill="midnightblue" stroke="midnightblue" points="358.15,-82.1 366.29,-75.31 355.69,-75.54 358.15,-82.1"/>
</g>
<!-- Node3 -->
<g id="node3" class="node">
<title>Node3</title>
<g id="a_node3"><a xlink:title=" ">
<polygon fill="white" stroke="#bfbfbf" points="65.5,-0.5 65.5,-19.5 123.5,-19.5 123.5,-0.5 65.5,-0.5"/>
<text text-anchor="middle" x="94.5" y="-7.5" font-family="Helvetica,sans-Serif" font-size="10.00">memory</text>
</a>
</g>
</g>
<!-- Node2&#45;&gt;Node3 -->
<g id="edge2" class="edge">
<title>Node2&#45;&gt;Node3</title>
<path fill="none" stroke="midnightblue" d="M54.43,-56.08C61.35,-48.3 71.57,-36.8 79.95,-27.37"/>
<polygon fill="midnightblue" stroke="midnightblue" points="82.69,-29.55 86.72,-19.75 77.46,-24.9 82.69,-29.55"/>
</g>
<!-- Node4 -->
<g id="node4" class="node">
<title>Node4</title>
<g id="a_node4"><a xlink:title=" ">
<polygon fill="white" stroke="#bfbfbf" points="0,-0.5 0,-19.5 47,-19.5 47,-0.5 0,-0.5"/>
<text text-anchor="middle" x="23.5" y="-7.5" font-family="Helvetica,sans-Serif" font-size="10.00">vector</text>
</a>
</g>
</g>
<!-- Node2&#45;&gt;Node4 -->
<g id="edge3" class="edge">
<title>Node2&#45;&gt;Node4</title>
<path fill="none" stroke="midnightblue" d="M42.7,-56.08C39.59,-48.77 35.08,-38.18 31.21,-29.1"/>
<polygon fill="midnightblue" stroke="midnightblue" points="34.37,-27.58 27.23,-19.75 27.93,-30.32 34.37,-27.58"/>
</g>
<!-- Node5&#45;&gt;Node3 -->
<g id="edge5" class="edge">
<title>Node5&#45;&gt;Node3</title>
<path fill="none" stroke="midnightblue" d="M154.09,-56.32C143.39,-48.18 127.16,-35.84 114.34,-26.09"/>
<polygon fill="midnightblue" stroke="midnightblue" points="116.19,-23.1 106.11,-19.83 111.96,-28.67 116.19,-23.1"/>
</g>
<!-- Node6 -->
<g id="node6" class="node">
<title>Node6</title>
<g id="a_node6"><a xlink:title=" ">
<polygon fill="white" stroke="#bfbfbf" points="142,-0.5 142,-19.5 237,-19.5 237,-0.5 142,-0.5"/>
<text text-anchor="middle" x="189.5" y="-7.5" font-family="Helvetica,sans-Serif" font-size="10.00">odb/lazy&#45;ptr.hxx</text>
</a>
</g>
</g>
<!-- Node5&#45;&gt;Node6 -->
<g id="edge6" class="edge">
<title>Node5&#45;&gt;Node6</title>
<path fill="none" stroke="midnightblue" d="M169.46,-56.08C172.71,-48.77 177.42,-38.18 181.45,-29.1"/>
<polygon fill="midnightblue" stroke="midnightblue" points="184.75,-30.31 185.61,-19.75 178.35,-27.47 184.75,-30.31"/>
</g>
</g>
</svg>
