<?xml version="1.0" encoding="UTF-8" standalone="no"?>
<!DOCTYPE svg PUBLIC "-//W3C//DTD SVG 1.1//EN"
 "http://www.w3.org/Graphics/SVG/1.1/DTD/svg11.dtd">
<!-- Generated by graphviz version 2.43.0 (0)
 -->
<!-- Title: src/core/audit/AuditEntry.hpp Pages: 1 -->
<!--zoomable 375 -->
<svg id="main" version="1.1" xmlns="http://www.w3.org/2000/svg" xmlns:xlink="http://www.w3.org/1999/xlink" xml:space="preserve" onload="init(evt)">
<style type="text/css"><![CDATA[
.edge:hover path { stroke: red; }
.edge:hover polygon { stroke: red; fill: red; }
]]></style>
<script type="text/javascript"><![CDATA[
var edges = document.getElementsByTagName('g');
if (edges && edges.length) {
  for (var i=0;i<edges.length;i++) {
    if (edges[i].id.substr(0,4)=='edge') {
      edges[i].setAttribute('class','edge');
    }
  }
}
]]></script>
        <defs>
                <circle id="rim" cx="0" cy="0" r="7"/>
                <circle id="rim2" cx="0" cy="0" r="3.5"/>
                <g id="zoomPlus">
                        <use xlink:href="#rim" fill="#404040">
                                <set attributeName="fill" to="#808080" begin="zoomplus.mouseover" end="zoomplus.mouseout"/>
                        </use>
                        <path d="M-4,0h8M0,-4v8" fill="none" stroke="white" stroke-width="1.5" pointer-events="none"/>
                </g>
                <g id="zoomMin">
                        <use xlink:href="#rim" fill="#404040">
                                <set attributeName="fill" to="#808080" begin="zoomminus.mouseover" end="zoomminus.mouseout"/>
                        </use>
                        <path d="M-4,0h8" fill="none" stroke="white" stroke-width="1.5" pointer-events="none"/>
                </g>
                <g id="dirArrow">
                        <path fill="none" stroke="white" stroke-width="1.5" d="M0,-3.0v7 M-2.5,-0.5L0,-3.0L2.5,-0.5"/>
                </g>
               <g id="resetDef">
                       <use xlink:href="#rim2" fill="#404040">
                               <set attributeName="fill" to="#808080" begin="reset.mouseover" end="reset.mouseout"/>
                       </use>
               </g>
        </defs>

<script type="text/javascript">
var viewWidth = 1398;
var viewHeight = 375;
var sectionId = 'dynsection-0';
</script>
<script xlink:href="../../svgpan.js"/>
<svg id="graph" class="graph">
<g id="viewport">
<title>src/core/audit/AuditEntry.hpp</title>
<polygon fill="white" stroke="transparent" points="-4,4 -4,-371 1393.5,-371 1393.5,4 -4,4"/>
<!-- Node1 -->
<g id="node1" class="node">
<title>Node1</title>
<g id="a_node1"><a xlink:title=" ">
<polygon fill="#bfbfbf" stroke="black" points="507.5,-347.5 507.5,-366.5 663.5,-366.5 663.5,-347.5 507.5,-347.5"/>
<text text-anchor="middle" x="585.5" y="-354.5" font-family="Helvetica,sans-Serif" font-size="10.00">src/core/audit/AuditEntry.hpp</text>
</a>
</g>
</g>
<!-- Node2 -->
<g id="node2" class="node">
<title>Node2</title>
<g id="a_node2"><a xlink:href="../../d7/dcf/AuditFwd_8hpp.html" target="_top" xlink:title=" ">
<polygon fill="white" stroke="black" points="272,-118 272,-137 407,-137 407,-118 272,-118"/>
<text text-anchor="middle" x="339.5" y="-125" font-family="Helvetica,sans-Serif" font-size="10.00">core/audit/AuditFwd.hpp</text>
</a>
</g>
</g>
<!-- Node1&#45;&gt;Node2 -->
<g id="edge1" class="edge">
<title>Node1&#45;&gt;Node2</title>
<path fill="none" stroke="midnightblue" d="M563.74,-347.38C518.07,-328.12 412.02,-277.05 358.5,-199 347.87,-183.5 343.18,-162.32 341.12,-147.23"/>
<polygon fill="midnightblue" stroke="midnightblue" points="344.57,-146.62 339.99,-137.07 337.61,-147.39 344.57,-146.62"/>
</g>
<!-- Node5 -->
<g id="node5" class="node">
<title>Node5</title>
<g id="a_node5"><a xlink:title=" ">
<polygon fill="white" stroke="#bfbfbf" points="605.5,-56.5 605.5,-75.5 663.5,-75.5 663.5,-56.5 605.5,-56.5"/>
<text text-anchor="middle" x="634.5" y="-63.5" font-family="Helvetica,sans-Serif" font-size="10.00">memory</text>
</a>
</g>
</g>
<!-- Node1&#45;&gt;Node5 -->
<g id="edge42" class="edge">
<title>Node1&#45;&gt;Node5</title>
<path fill="none" stroke="midnightblue" d="M585.95,-347.46C587.39,-321.78 592.55,-243.11 604.5,-179 610.75,-145.48 621.86,-107.29 628.67,-85.28"/>
<polygon fill="midnightblue" stroke="midnightblue" points="632.05,-86.2 631.7,-75.61 625.37,-84.1 632.05,-86.2"/>
</g>
<!-- Node7 -->
<g id="node7" class="node">
<title>Node7</title>
<g id="a_node7"><a xlink:href="../../d3/dd8/IAuditEntry_8hpp.html" target="_top" xlink:title=" ">
<polygon fill="white" stroke="black" points="367.5,-179.5 367.5,-198.5 509.5,-198.5 509.5,-179.5 367.5,-179.5"/>
<text text-anchor="middle" x="438.5" y="-186.5" font-family="Helvetica,sans-Serif" font-size="10.00">core/audit/IAuditEntry.hpp</text>
</a>
</g>
</g>
<!-- Node1&#45;&gt;Node7 -->
<g id="edge6" class="edge">
<title>Node1&#45;&gt;Node7</title>
<path fill="none" stroke="midnightblue" d="M574.2,-347.27C563.27,-338.59 546.52,-324.65 533.5,-311 500.64,-276.53 467.46,-231.37 450.35,-207.14"/>
<polygon fill="midnightblue" stroke="midnightblue" points="453.03,-204.86 444.43,-198.67 447.29,-208.87 453.03,-204.86"/>
</g>
<!-- Node8 -->
<g id="node8" class="node">
<title>Node8</title>
<g id="a_node8"><a xlink:href="../../d3/d6f/AuthFwd_8hpp.html" target="_top" xlink:title=" ">
<polygon fill="white" stroke="black" points="464,-118 464,-137 593,-137 593,-118 464,-118"/>
<text text-anchor="middle" x="528.5" y="-125" font-family="Helvetica,sans-Serif" font-size="10.00">core/auth/AuthFwd.hpp</text>
</a>
</g>
</g>
<!-- Node1&#45;&gt;Node8 -->
<g id="edge18" class="edge">
<title>Node1&#45;&gt;Node8</title>
<path fill="none" stroke="midnightblue" d="M582.64,-347.43C579.67,-338.41 574.99,-323.79 571.5,-311 555.32,-251.73 539.62,-180.65 532.49,-147.4"/>
<polygon fill="midnightblue" stroke="midnightblue" points="535.85,-146.34 530.34,-137.29 529,-147.8 535.85,-146.34"/>
</g>
<!-- Node13 -->
<g id="node13" class="node">
<title>Node13</title>
<g id="a_node13"><a xlink:title=" ">
<polygon fill="white" stroke="#bfbfbf" points="0,-112.5 0,-142.5 125,-142.5 125,-112.5 0,-112.5"/>
<text text-anchor="start" x="8" y="-130.5" font-family="Helvetica,sans-Serif" font-size="10.00">boost/date_time/posix</text>
<text text-anchor="middle" x="62.5" y="-119.5" font-family="Helvetica,sans-Serif" font-size="10.00">_time/posix_time.hpp</text>
</a>
</g>
</g>
<!-- Node1&#45;&gt;Node13 -->
<g id="edge41" class="edge">
<title>Node1&#45;&gt;Node13</title>
<path fill="none" stroke="midnightblue" d="M557.84,-347.43C531.12,-338.93 489.63,-325.16 454.5,-311 321.18,-257.24 167.97,-181.79 99.23,-147.18"/>
<polygon fill="midnightblue" stroke="midnightblue" points="100.61,-143.96 90.1,-142.58 97.45,-150.21 100.61,-143.96"/>
</g>
<!-- Node14 -->
<g id="node14" class="node">
<title>Node14</title>
<g id="a_node14"><a xlink:href="../../d6/d65/ElapsedTimeCounter_8hpp.html" target="_top" xlink:title=" ">
<polygon fill="white" stroke="black" points="797,-291.5 797,-310.5 962,-310.5 962,-291.5 797,-291.5"/>
<text text-anchor="middle" x="879.5" y="-298.5" font-family="Helvetica,sans-Serif" font-size="10.00">tools/ElapsedTimeCounter.hpp</text>
</a>
</g>
</g>
<!-- Node1&#45;&gt;Node14 -->
<g id="edge19" class="edge">
<title>Node1&#45;&gt;Node14</title>
<path fill="none" stroke="midnightblue" d="M632.09,-347.44C683.91,-337.92 767.63,-322.55 823.12,-312.36"/>
<polygon fill="midnightblue" stroke="midnightblue" points="823.93,-315.77 833.13,-310.52 822.66,-308.88 823.93,-315.77"/>
</g>
<!-- Node16 -->
<g id="node16" class="node">
<title>Node16</title>
<g id="a_node16"><a xlink:href="../../df/da2/database_8hpp.html" target="_top" xlink:title=" ">
<polygon fill="white" stroke="black" points="654,-291.5 654,-310.5 779,-310.5 779,-291.5 654,-291.5"/>
<text text-anchor="middle" x="716.5" y="-298.5" font-family="Helvetica,sans-Serif" font-size="10.00">tools/db/database.hpp</text>
</a>
</g>
</g>
<!-- Node1&#45;&gt;Node16 -->
<g id="edge21" class="edge">
<title>Node1&#45;&gt;Node16</title>
<path fill="none" stroke="midnightblue" d="M606.26,-347.44C627.82,-338.56 661.76,-324.56 686.29,-314.45"/>
<polygon fill="midnightblue" stroke="midnightblue" points="687.93,-317.56 695.84,-310.52 685.26,-311.09 687.93,-317.56"/>
</g>
<!-- Node26 -->
<g id="node26" class="node">
<title>Node26</title>
<g id="a_node26"><a xlink:title=" ">
<polygon fill="white" stroke="#bfbfbf" points="980,-291.5 980,-310.5 1079,-310.5 1079,-291.5 980,-291.5"/>
<text text-anchor="middle" x="1029.5" y="-298.5" font-family="Helvetica,sans-Serif" font-size="10.00">odb/callback.hxx</text>
</a>
</g>
</g>
<!-- Node1&#45;&gt;Node26 -->
<g id="edge43" class="edge">
<title>Node1&#45;&gt;Node26</title>
<path fill="none" stroke="midnightblue" d="M663.61,-347.77C739.37,-339.59 857.84,-326.27 969.73,-311.2"/>
<polygon fill="midnightblue" stroke="midnightblue" points="970.4,-314.64 979.84,-309.83 969.46,-307.71 970.4,-314.64"/>
</g>
<!-- Node27 -->
<g id="node27" class="node">
<title>Node27</title>
<g id="a_node27"><a xlink:title=" ">
<polygon fill="white" stroke="#bfbfbf" points="1097.5,-291.5 1097.5,-310.5 1177.5,-310.5 1177.5,-291.5 1097.5,-291.5"/>
<text text-anchor="middle" x="1137.5" y="-298.5" font-family="Helvetica,sans-Serif" font-size="10.00">odb/core.hxx</text>
</a>
</g>
</g>
<!-- Node1&#45;&gt;Node27 -->
<g id="edge44" class="edge">
<title>Node1&#45;&gt;Node27</title>
<path fill="none" stroke="midnightblue" d="M663.73,-351.25C760.74,-344.86 931.34,-331.96 1087.19,-311.06"/>
<polygon fill="midnightblue" stroke="midnightblue" points="1088,-314.48 1097.44,-309.67 1087.06,-307.54 1088,-314.48"/>
</g>
<!-- Node3 -->
<g id="node3" class="node">
<title>Node3</title>
<g id="a_node3"><a xlink:title=" ">
<polygon fill="white" stroke="#bfbfbf" points="448,-56.5 448,-75.5 501,-75.5 501,-56.5 448,-56.5"/>
<text text-anchor="middle" x="474.5" y="-63.5" font-family="Helvetica,sans-Serif" font-size="10.00">cstddef</text>
</a>
</g>
</g>
<!-- Node2&#45;&gt;Node3 -->
<g id="edge2" class="edge">
<title>Node2&#45;&gt;Node3</title>
<path fill="none" stroke="midnightblue" d="M358.84,-117.98C381.6,-107.95 419.59,-91.2 445.79,-79.65"/>
<polygon fill="midnightblue" stroke="midnightblue" points="447.45,-82.74 455.19,-75.51 444.63,-76.34 447.45,-82.74"/>
</g>
<!-- Node4 -->
<g id="node4" class="node">
<title>Node4</title>
<g id="a_node4"><a xlink:title=" ">
<polygon fill="white" stroke="#bfbfbf" points="304,-56.5 304,-75.5 375,-75.5 375,-56.5 304,-56.5"/>
<text text-anchor="middle" x="339.5" y="-63.5" font-family="Helvetica,sans-Serif" font-size="10.00">flagset.hpp</text>
</a>
</g>
</g>
<!-- Node2&#45;&gt;Node4 -->
<g id="edge3" class="edge">
<title>Node2&#45;&gt;Node4</title>
<path fill="none" stroke="midnightblue" d="M339.5,-117.98C339.5,-109.58 339.5,-96.48 339.5,-85.66"/>
<polygon fill="midnightblue" stroke="midnightblue" points="343,-85.51 339.5,-75.51 336,-85.51 343,-85.51"/>
</g>
<!-- Node2&#45;&gt;Node5 -->
<g id="edge4" class="edge">
<title>Node2&#45;&gt;Node5</title>
<path fill="none" stroke="midnightblue" d="M381.77,-117.98C438.79,-106.47 539.6,-86.14 595.11,-74.95"/>
<polygon fill="midnightblue" stroke="midnightblue" points="596.14,-78.31 605.25,-72.9 594.76,-71.45 596.14,-78.31"/>
</g>
<!-- Node6 -->
<g id="node6" class="node">
<title>Node6</title>
<g id="a_node6"><a xlink:title=" ">
<polygon fill="white" stroke="#bfbfbf" points="695,-56.5 695,-75.5 790,-75.5 790,-56.5 695,-56.5"/>
<text text-anchor="middle" x="742.5" y="-63.5" font-family="Helvetica,sans-Serif" font-size="10.00">odb/lazy&#45;ptr.hxx</text>
</a>
</g>
</g>
<!-- Node2&#45;&gt;Node6 -->
<g id="edge5" class="edge">
<title>Node2&#45;&gt;Node6</title>
<path fill="none" stroke="midnightblue" d="M397.24,-117.98C473.89,-106.66 608.45,-86.79 684.99,-75.49"/>
<polygon fill="midnightblue" stroke="midnightblue" points="685.56,-78.95 694.94,-74.02 684.53,-72.02 685.56,-78.95"/>
</g>
<!-- Node7&#45;&gt;Node2 -->
<g id="edge7" class="edge">
<title>Node7&#45;&gt;Node2</title>
<path fill="none" stroke="midnightblue" d="M424.32,-179.48C408.14,-169.75 381.47,-153.73 362.36,-142.24"/>
<polygon fill="midnightblue" stroke="midnightblue" points="364.03,-139.16 353.66,-137.01 360.43,-145.16 364.03,-139.16"/>
</g>
<!-- Node7&#45;&gt;Node5 -->
<g id="edge17" class="edge">
<title>Node7&#45;&gt;Node5</title>
<path fill="none" stroke="midnightblue" d="M437.62,-179.38C436.52,-163.73 436.63,-130.55 454.5,-112 473.72,-92.05 548.36,-78.59 595.28,-71.91"/>
<polygon fill="midnightblue" stroke="midnightblue" points="595.99,-75.35 605.41,-70.51 595.03,-68.41 595.99,-75.35"/>
</g>
<!-- Node7&#45;&gt;Node8 -->
<g id="edge8" class="edge">
<title>Node7&#45;&gt;Node8</title>
<path fill="none" stroke="midnightblue" d="M451.39,-179.48C465.96,-169.84 489.9,-154.02 507.25,-142.55"/>
<polygon fill="midnightblue" stroke="midnightblue" points="509.22,-145.44 515.63,-137.01 505.36,-139.6 509.22,-145.44"/>
</g>
<!-- Node9 -->
<g id="node9" class="node">
<title>Node9</title>
<g id="a_node9"><a xlink:href="../../dd/d9d/IVisitable_8hpp.html" target="_top" xlink:title=" ">
<polygon fill="white" stroke="black" points="143.5,-118 143.5,-137 253.5,-137 253.5,-118 143.5,-118"/>
<text text-anchor="middle" x="198.5" y="-125" font-family="Helvetica,sans-Serif" font-size="10.00">tools/IVisitable.hpp</text>
</a>
</g>
</g>
<!-- Node7&#45;&gt;Node9 -->
<g id="edge12" class="edge">
<title>Node7&#45;&gt;Node9</title>
<path fill="none" stroke="midnightblue" d="M404.11,-179.48C361.61,-168.94 289.2,-150.99 242.63,-139.44"/>
<polygon fill="midnightblue" stroke="midnightblue" points="243.37,-136.02 232.82,-137.01 241.69,-142.81 243.37,-136.02"/>
</g>
<!-- Node7&#45;&gt;Node13 -->
<g id="edge16" class="edge">
<title>Node7&#45;&gt;Node13</title>
<path fill="none" stroke="midnightblue" d="M374.29,-179.48C314.89,-171.37 223.88,-158.39 135.25,-143.08"/>
<polygon fill="midnightblue" stroke="midnightblue" points="135.74,-139.61 125.29,-141.34 134.54,-146.51 135.74,-139.61"/>
</g>
<!-- Node8&#45;&gt;Node3 -->
<g id="edge9" class="edge">
<title>Node8&#45;&gt;Node3</title>
<path fill="none" stroke="midnightblue" d="M520.76,-117.98C512.5,-108.87 499.22,-94.24 489.01,-82.98"/>
<polygon fill="midnightblue" stroke="midnightblue" points="491.53,-80.56 482.22,-75.51 486.35,-85.27 491.53,-80.56"/>
</g>
<!-- Node8&#45;&gt;Node5 -->
<g id="edge10" class="edge">
<title>Node8&#45;&gt;Node5</title>
<path fill="none" stroke="midnightblue" d="M543.69,-117.98C561.16,-108.17 590.08,-91.93 610.58,-80.42"/>
<polygon fill="midnightblue" stroke="midnightblue" points="612.33,-83.46 619.34,-75.51 608.91,-77.35 612.33,-83.46"/>
</g>
<!-- Node8&#45;&gt;Node6 -->
<g id="edge11" class="edge">
<title>Node8&#45;&gt;Node6</title>
<path fill="none" stroke="midnightblue" d="M559.16,-117.98C596.74,-107.53 660.54,-89.79 702.1,-78.23"/>
<polygon fill="midnightblue" stroke="midnightblue" points="703.2,-81.56 711.9,-75.51 701.32,-74.82 703.2,-81.56"/>
</g>
<!-- Node10 -->
<g id="node10" class="node">
<title>Node10</title>
<g id="a_node10"><a xlink:href="../../d2/d91/Visitor_8hpp.html" target="_top" xlink:title=" ">
<polygon fill="white" stroke="black" points="89,-56.5 89,-75.5 184,-75.5 184,-56.5 89,-56.5"/>
<text text-anchor="middle" x="136.5" y="-63.5" font-family="Helvetica,sans-Serif" font-size="10.00">tools/Visitor.hpp</text>
</a>
</g>
</g>
<!-- Node9&#45;&gt;Node10 -->
<g id="edge13" class="edge">
<title>Node9&#45;&gt;Node10</title>
<path fill="none" stroke="midnightblue" d="M189.62,-117.98C180.04,-108.78 164.59,-93.96 152.81,-82.66"/>
<polygon fill="midnightblue" stroke="midnightblue" points="155.01,-79.91 145.37,-75.51 150.16,-84.96 155.01,-79.91"/>
</g>
<!-- Node12 -->
<g id="node12" class="node">
<title>Node12</title>
<g id="a_node12"><a xlink:title=" ">
<polygon fill="white" stroke="#bfbfbf" points="202.5,-56.5 202.5,-75.5 254.5,-75.5 254.5,-56.5 202.5,-56.5"/>
<text text-anchor="middle" x="228.5" y="-63.5" font-family="Helvetica,sans-Serif" font-size="10.00">cassert</text>
</a>
</g>
</g>
<!-- Node9&#45;&gt;Node12 -->
<g id="edge15" class="edge">
<title>Node9&#45;&gt;Node12</title>
<path fill="none" stroke="midnightblue" d="M202.8,-117.98C207.16,-109.32 214.06,-95.65 219.6,-84.65"/>
<polygon fill="midnightblue" stroke="midnightblue" points="222.83,-86.01 224.21,-75.51 216.58,-82.86 222.83,-86.01"/>
</g>
<!-- Node11 -->
<g id="node11" class="node">
<title>Node11</title>
<g id="a_node11"><a xlink:title=" ">
<polygon fill="white" stroke="#bfbfbf" points="102,-0.5 102,-19.5 171,-19.5 171,-0.5 102,-0.5"/>
<text text-anchor="middle" x="136.5" y="-7.5" font-family="Helvetica,sans-Serif" font-size="10.00">type_traits</text>
</a>
</g>
</g>
<!-- Node10&#45;&gt;Node11 -->
<g id="edge14" class="edge">
<title>Node10&#45;&gt;Node11</title>
<path fill="none" stroke="midnightblue" d="M136.5,-56.08C136.5,-49.01 136.5,-38.86 136.5,-29.99"/>
<polygon fill="midnightblue" stroke="midnightblue" points="140,-29.75 136.5,-19.75 133,-29.75 140,-29.75"/>
</g>
<!-- Node15 -->
<g id="node15" class="node">
<title>Node15</title>
<g id="a_node15"><a xlink:title=" ">
<polygon fill="white" stroke="#bfbfbf" points="1339.5,-235.5 1339.5,-254.5 1389.5,-254.5 1389.5,-235.5 1339.5,-235.5"/>
<text text-anchor="middle" x="1364.5" y="-242.5" font-family="Helvetica,sans-Serif" font-size="10.00">chrono</text>
</a>
</g>
</g>
<!-- Node14&#45;&gt;Node15 -->
<g id="edge20" class="edge">
<title>Node14&#45;&gt;Node15</title>
<path fill="none" stroke="midnightblue" d="M962.25,-291.83C1078.63,-280.32 1281.16,-260.26 1329.41,-254.48"/>
<polygon fill="midnightblue" stroke="midnightblue" points="1329.91,-257.94 1339.35,-253.14 1328.97,-251.01 1329.91,-257.94"/>
</g>
<!-- Node17 -->
<g id="node17" class="node">
<title>Node17</title>
<g id="a_node17"><a xlink:href="../../d9/d69/db__fwd_8hpp.html" target="_top" xlink:title=" ">
<polygon fill="white" stroke="black" points="613.5,-179.5 613.5,-198.5 685.5,-198.5 685.5,-179.5 613.5,-179.5"/>
<text text-anchor="middle" x="649.5" y="-186.5" font-family="Helvetica,sans-Serif" font-size="10.00">db_fwd.hpp</text>
</a>
</g>
</g>
<!-- Node16&#45;&gt;Node17 -->
<g id="edge22" class="edge">
<title>Node16&#45;&gt;Node17</title>
<path fill="none" stroke="midnightblue" d="M689.57,-291.36C672.78,-284.41 652.52,-272.82 642.5,-255 634.51,-240.79 637.69,-222.07 642.02,-208.37"/>
<polygon fill="midnightblue" stroke="midnightblue" points="645.43,-209.23 645.55,-198.64 638.85,-206.85 645.43,-209.23"/>
</g>
<!-- Node18 -->
<g id="node18" class="node">
<title>Node18</title>
<g id="a_node18"><a xlink:title=" ">
<polygon fill="white" stroke="#bfbfbf" points="799.5,-235.5 799.5,-254.5 903.5,-254.5 903.5,-235.5 799.5,-235.5"/>
<text text-anchor="middle" x="851.5" y="-242.5" font-family="Helvetica,sans-Serif" font-size="10.00">odb/database.hxx</text>
</a>
</g>
</g>
<!-- Node16&#45;&gt;Node18 -->
<g id="edge24" class="edge">
<title>Node16&#45;&gt;Node18</title>
<path fill="none" stroke="midnightblue" d="M737.89,-291.44C760.21,-282.52 795.4,-268.44 820.71,-258.32"/>
<polygon fill="midnightblue" stroke="midnightblue" points="822.22,-261.48 830.21,-254.52 819.62,-254.98 822.22,-261.48"/>
</g>
<!-- Node19 -->
<g id="node19" class="node">
<title>Node19</title>
<g id="a_node19"><a xlink:title=" ">
<polygon fill="white" stroke="#bfbfbf" points="922,-235.5 922,-254.5 1035,-254.5 1035,-235.5 922,-235.5"/>
<text text-anchor="middle" x="978.5" y="-242.5" font-family="Helvetica,sans-Serif" font-size="10.00">odb/transaction.hxx</text>
</a>
</g>
</g>
<!-- Node16&#45;&gt;Node19 -->
<g id="edge25" class="edge">
<title>Node16&#45;&gt;Node19</title>
<path fill="none" stroke="midnightblue" d="M758.01,-291.44C803.91,-281.98 877.88,-266.74 927.33,-256.55"/>
<polygon fill="midnightblue" stroke="midnightblue" points="928.09,-259.96 937.18,-254.52 926.68,-253.11 928.09,-259.96"/>
</g>
<!-- Node20 -->
<g id="node20" class="node">
<title>Node20</title>
<g id="a_node20"><a xlink:href="../../d0/dee/DBService_8hpp.html" target="_top" xlink:title=" ">
<polygon fill="white" stroke="black" points="651.5,-235.5 651.5,-254.5 781.5,-254.5 781.5,-235.5 651.5,-235.5"/>
<text text-anchor="middle" x="716.5" y="-242.5" font-family="Helvetica,sans-Serif" font-size="10.00">tools/db/DBService.hpp</text>
</a>
</g>
</g>
<!-- Node16&#45;&gt;Node20 -->
<g id="edge26" class="edge">
<title>Node16&#45;&gt;Node20</title>
<path fill="none" stroke="midnightblue" d="M716.5,-291.08C716.5,-284.01 716.5,-273.86 716.5,-264.99"/>
<polygon fill="midnightblue" stroke="midnightblue" points="720,-264.75 716.5,-254.75 713,-264.75 720,-264.75"/>
</g>
<!-- Node24 -->
<g id="node24" class="node">
<title>Node24</title>
<g id="a_node24"><a xlink:title=" ">
<polygon fill="white" stroke="#bfbfbf" points="1053.5,-235.5 1053.5,-254.5 1165.5,-254.5 1165.5,-235.5 1053.5,-235.5"/>
<text text-anchor="middle" x="1109.5" y="-242.5" font-family="Helvetica,sans-Serif" font-size="10.00">odb/connection.hxx</text>
</a>
</g>
</g>
<!-- Node16&#45;&gt;Node24 -->
<g id="edge39" class="edge">
<title>Node16&#45;&gt;Node24</title>
<path fill="none" stroke="midnightblue" d="M778.77,-291.48C842.56,-282.75 944.9,-268.72 1043.35,-255.16"/>
<polygon fill="midnightblue" stroke="midnightblue" points="1044.05,-258.59 1053.48,-253.76 1043.1,-251.66 1044.05,-258.59"/>
</g>
<!-- Node25 -->
<g id="node25" class="node">
<title>Node25</title>
<g id="a_node25"><a xlink:title=" ">
<polygon fill="white" stroke="#bfbfbf" points="1184,-235.5 1184,-254.5 1321,-254.5 1321,-235.5 1184,-235.5"/>
<text text-anchor="middle" x="1252.5" y="-242.5" font-family="Helvetica,sans-Serif" font-size="10.00">odb/schema&#45;catalog.hxx</text>
</a>
</g>
</g>
<!-- Node16&#45;&gt;Node25 -->
<g id="edge40" class="edge">
<title>Node16&#45;&gt;Node25</title>
<path fill="none" stroke="midnightblue" d="M779.32,-292.03C782.42,-291.67 785.49,-291.33 788.5,-291 956.52,-272.67 1001.43,-272.86 1173.44,-255.09"/>
<polygon fill="midnightblue" stroke="midnightblue" points="1174.02,-258.55 1183.61,-254.03 1173.3,-251.58 1174.02,-258.55"/>
</g>
<!-- Node17&#45;&gt;Node5 -->
<g id="edge23" class="edge">
<title>Node17&#45;&gt;Node5</title>
<path fill="none" stroke="midnightblue" d="M648.42,-179.3C646.01,-159.85 640.14,-112.49 636.84,-85.9"/>
<polygon fill="midnightblue" stroke="midnightblue" points="640.27,-85.12 635.57,-75.62 633.33,-85.98 640.27,-85.12"/>
</g>
<!-- Node20&#45;&gt;Node7 -->
<g id="edge27" class="edge">
<title>Node20&#45;&gt;Node7</title>
<path fill="none" stroke="midnightblue" d="M672.45,-235.44C623.65,-225.96 544.94,-210.67 492.47,-200.48"/>
<polygon fill="midnightblue" stroke="midnightblue" points="492.83,-196.99 482.34,-198.52 491.49,-203.86 492.83,-196.99"/>
</g>
<!-- Node20&#45;&gt;Node8 -->
<g id="edge28" class="edge">
<title>Node20&#45;&gt;Node8</title>
<path fill="none" stroke="midnightblue" d="M715.99,-235.09C714.72,-221.16 710.24,-194.26 694.5,-179 670.1,-155.35 634.98,-142.74 603.32,-136.03"/>
<polygon fill="midnightblue" stroke="midnightblue" points="603.66,-132.53 593.18,-134.05 602.32,-139.4 603.66,-132.53"/>
</g>
<!-- Node20&#45;&gt;Node17 -->
<g id="edge38" class="edge">
<title>Node20&#45;&gt;Node17</title>
<path fill="none" stroke="midnightblue" d="M705.74,-235.32C695.73,-227.26 680.61,-215.08 668.57,-205.37"/>
<polygon fill="midnightblue" stroke="midnightblue" points="670.44,-202.38 660.46,-198.83 666.05,-207.83 670.44,-202.38"/>
</g>
<!-- Node21 -->
<g id="node21" class="node">
<title>Node21</title>
<g id="a_node21"><a xlink:href="../../d7/d7f/CredentialFwd_8hpp.html" target="_top" xlink:title=" ">
<polygon fill="white" stroke="black" points="815.5,-112.5 815.5,-142.5 963.5,-142.5 963.5,-112.5 815.5,-112.5"/>
<text text-anchor="start" x="823.5" y="-130.5" font-family="Helvetica,sans-Serif" font-size="10.00">core/credentials/Credential</text>
<text text-anchor="middle" x="889.5" y="-119.5" font-family="Helvetica,sans-Serif" font-size="10.00">Fwd.hpp</text>
</a>
</g>
</g>
<!-- Node20&#45;&gt;Node21 -->
<g id="edge29" class="edge">
<title>Node20&#45;&gt;Node21</title>
<path fill="none" stroke="midnightblue" d="M729.5,-235.32C757,-216.96 821.65,-173.8 859.83,-148.31"/>
<polygon fill="midnightblue" stroke="midnightblue" points="862.09,-151.01 868.46,-142.55 858.2,-145.19 862.09,-151.01"/>
</g>
<!-- Node22 -->
<g id="node22" class="node">
<title>Node22</title>
<g id="a_node22"><a xlink:href="../../d2/d0e/UpdateFwd_8hpp.html" target="_top" xlink:title=" ">
<polygon fill="white" stroke="black" points="981.5,-118 981.5,-137 1135.5,-137 1135.5,-118 981.5,-118"/>
<text text-anchor="middle" x="1058.5" y="-125" font-family="Helvetica,sans-Serif" font-size="10.00">core/update/UpdateFwd.hpp</text>
</a>
</g>
</g>
<!-- Node20&#45;&gt;Node22 -->
<g id="edge32" class="edge">
<title>Node20&#45;&gt;Node22</title>
<path fill="none" stroke="midnightblue" d="M741.93,-235.41C802.27,-215.03 954.24,-163.71 1023.33,-140.38"/>
<polygon fill="midnightblue" stroke="midnightblue" points="1024.55,-143.66 1032.91,-137.14 1022.31,-137.03 1024.55,-143.66"/>
</g>
<!-- Node23 -->
<g id="node23" class="node">
<title>Node23</title>
<g id="a_node23"><a xlink:href="../../d8/d97/ToolsFwd_8hpp.html" target="_top" xlink:title=" ">
<polygon fill="white" stroke="black" points="687.5,-118 687.5,-137 797.5,-137 797.5,-118 687.5,-118"/>
<text text-anchor="middle" x="742.5" y="-125" font-family="Helvetica,sans-Serif" font-size="10.00">tools/ToolsFwd.hpp</text>
</a>
</g>
</g>
<!-- Node20&#45;&gt;Node23 -->
<g id="edge35" class="edge">
<title>Node20&#45;&gt;Node23</title>
<path fill="none" stroke="midnightblue" d="M718.69,-235.39C720.96,-226.35 724.6,-211.7 727.5,-199 731.5,-181.48 735.74,-161.43 738.68,-147.2"/>
<polygon fill="midnightblue" stroke="midnightblue" points="742.15,-147.7 740.74,-137.2 735.29,-146.29 742.15,-147.7"/>
</g>
<!-- Node21&#45;&gt;Node5 -->
<g id="edge30" class="edge">
<title>Node21&#45;&gt;Node5</title>
<path fill="none" stroke="midnightblue" d="M829.39,-112.47C781.24,-101.24 715.09,-85.8 673.57,-76.12"/>
<polygon fill="midnightblue" stroke="midnightblue" points="674.37,-72.71 663.83,-73.84 672.78,-79.53 674.37,-72.71"/>
</g>
<!-- Node21&#45;&gt;Node6 -->
<g id="edge31" class="edge">
<title>Node21&#45;&gt;Node6</title>
<path fill="none" stroke="midnightblue" d="M854.66,-112.4C830,-102.42 797.21,-89.15 773.47,-79.53"/>
<polygon fill="midnightblue" stroke="midnightblue" points="774.47,-76.17 763.89,-75.66 771.85,-82.65 774.47,-76.17"/>
</g>
<!-- Node22&#45;&gt;Node5 -->
<g id="edge33" class="edge">
<title>Node22&#45;&gt;Node5</title>
<path fill="none" stroke="midnightblue" d="M1009.89,-117.94C997.7,-115.89 984.63,-113.79 972.5,-112 845.75,-93.35 813.21,-94.93 686.5,-76 682.32,-75.38 677.96,-74.68 673.62,-73.97"/>
<polygon fill="midnightblue" stroke="midnightblue" points="674.06,-70.49 663.61,-72.28 672.89,-77.4 674.06,-70.49"/>
</g>
<!-- Node22&#45;&gt;Node6 -->
<g id="edge34" class="edge">
<title>Node22&#45;&gt;Node6</title>
<path fill="none" stroke="midnightblue" d="M1013.22,-117.98C956.32,-107.26 858.71,-88.88 797.55,-77.37"/>
<polygon fill="midnightblue" stroke="midnightblue" points="798.17,-73.92 787.69,-75.51 796.87,-80.8 798.17,-73.92"/>
</g>
<!-- Node23&#45;&gt;Node5 -->
<g id="edge36" class="edge">
<title>Node23&#45;&gt;Node5</title>
<path fill="none" stroke="midnightblue" d="M727.03,-117.98C709.22,-108.17 679.76,-91.93 658.87,-80.42"/>
<polygon fill="midnightblue" stroke="midnightblue" points="660.39,-77.27 649.95,-75.51 657.01,-83.4 660.39,-77.27"/>
</g>
<!-- Node23&#45;&gt;Node6 -->
<g id="edge37" class="edge">
<title>Node23&#45;&gt;Node6</title>
<path fill="none" stroke="midnightblue" d="M742.5,-117.98C742.5,-109.58 742.5,-96.48 742.5,-85.66"/>
<polygon fill="midnightblue" stroke="midnightblue" points="746,-85.51 742.5,-75.51 739,-85.51 746,-85.51"/>
</g>
</g>
</svg>
        <g id="navigator" transform="translate(0 0)" fill="#404254">
                <rect fill="#f2f5e9" fill-opacity="0.5" stroke="#606060" stroke-width=".5" x="0" y="0" width="60" height="60"/>
                <use id="zoomplus" xlink:href="#zoomPlus" x="17" y="9" onmousedown="handleZoom(evt,'in')"/>
                <use id="zoomminus" xlink:href="#zoomMin" x="42" y="9" onmousedown="handleZoom(evt,'out')"/>
                <use id="reset" xlink:href="#resetDef" x="30" y="36" onmousedown="handleReset()"/>
                <g id="arrowUp" xlink:href="#dirArrow" transform="translate(30 24)" onmousedown="handlePan(0,-1)">
                  <use xlink:href="#rim" fill="#404040">
                        <set attributeName="fill" to="#808080" begin="arrowUp.mouseover" end="arrowUp.mouseout"/>
                  </use>
                  <path fill="none" stroke="white" stroke-width="1.5" d="M0,-3.0v7 M-2.5,-0.5L0,-3.0L2.5,-0.5"/>
                </g>
                <g id="arrowRight" xlink:href="#dirArrow" transform="rotate(90) translate(36 -43)" onmousedown="handlePan(1,0)">
                  <use xlink:href="#rim" fill="#404040">
                        <set attributeName="fill" to="#808080" begin="arrowRight.mouseover" end="arrowRight.mouseout"/>
                  </use>
                  <path fill="none" stroke="white" stroke-width="1.5" d="M0,-3.0v7 M-2.5,-0.5L0,-3.0L2.5,-0.5"/>
                </g>
                <g id="arrowDown" xlink:href="#dirArrow" transform="rotate(180) translate(-30 -48)" onmousedown="handlePan(0,1)">
                  <use xlink:href="#rim" fill="#404040">
                        <set attributeName="fill" to="#808080" begin="arrowDown.mouseover" end="arrowDown.mouseout"/>
                  </use>
                  <path fill="none" stroke="white" stroke-width="1.5" d="M0,-3.0v7 M-2.5,-0.5L0,-3.0L2.5,-0.5"/>
                </g>
                <g id="arrowLeft" xlink:href="#dirArrow" transform="rotate(270) translate(-36 17)" onmousedown="handlePan(-1,0)">
                  <use xlink:href="#rim" fill="#404040">
                        <set attributeName="fill" to="#808080" begin="arrowLeft.mouseover" end="arrowLeft.mouseout"/>
                  </use>
                  <path fill="none" stroke="white" stroke-width="1.5" d="M0,-3.0v7 M-2.5,-0.5L0,-3.0L2.5,-0.5"/>
                </g>
        </g>
        <svg viewBox="0 0 15 15" width="100%" height="30px" preserveAspectRatio="xMaxYMin meet">
         <g id="arrow_out" transform="scale(0.3 0.3)">
          <a xlink:href="AuditEntry_8hpp__incl_org.svg" target="_base">
           <rect id="button" ry="5" rx="5" y="6" x="6" height="38" width="38"
                fill="#f2f5e9" fill-opacity="0.5" stroke="#606060" stroke-width="1.0"/>
           <path id="arrow"
             d="M 11.500037,31.436501 C 11.940474,20.09759 22.043105,11.32322 32.158766,21.979434 L 37.068811,17.246167 C 37.068811,17.246167 37.088388,32 37.088388,32 L 22.160133,31.978069 C 22.160133,31.978069 26.997745,27.140456 26.997745,27.140456 C 18.528582,18.264221 13.291696,25.230495 11.500037,31.436501 z"
             style="fill:#404040;"/>
          </a>
         </g>
        </svg>
</svg>
