<?xml version="1.0" encoding="UTF-8" standalone="no"?>
<!DOCTYPE svg PUBLIC "-//W3C//DTD SVG 1.1//EN"
 "http://www.w3.org/Graphics/SVG/1.1/DTD/svg11.dtd">
<!-- Generated by graphviz version 2.43.0 (0)
 -->
<!-- Title: test/helper/FakeWiegandReader.hpp Pages: 1 -->
<svg width="308pt" height="84pt"
 viewBox="0.00 0.00 307.50 84.00" xmlns="http://www.w3.org/2000/svg" xmlns:xlink="http://www.w3.org/1999/xlink">
<g id="graph0" class="graph" transform="scale(1 1) rotate(0) translate(4 80)">
<title>test/helper/FakeWiegandReader.hpp</title>
<polygon fill="white" stroke="transparent" points="-4,4 -4,-80 303.5,-80 303.5,4 -4,4"/>
<!-- Node1 -->
<g id="node1" class="node">
<title>Node1</title>
<g id="a_node1"><a xlink:title=" ">
<polygon fill="#bfbfbf" stroke="black" points="79,-56.5 79,-75.5 270,-75.5 270,-56.5 79,-56.5"/>
<text text-anchor="middle" x="174.5" y="-63.5" font-family="Helvetica,sans-Serif" font-size="10.00">test/helper/FakeWiegandReader.hpp</text>
</a>
</g>
</g>
<!-- Node2 -->
<g id="node2" class="node">
<title>Node2</title>
<g id="a_node2"><a xlink:href="../../d8/daf/FakeWiegandReader_8cpp.html" target="_top" xlink:title=" ">
<polygon fill="white" stroke="black" points="0,-0.5 0,-19.5 191,-19.5 191,-0.5 0,-0.5"/>
<text text-anchor="middle" x="95.5" y="-7.5" font-family="Helvetica,sans-Serif" font-size="10.00">test/helper/FakeWiegandReader.cpp</text>
</a>
</g>
</g>
<!-- Node1&#45;&gt;Node2 -->
<g id="edge1" class="edge">
<title>Node1&#45;&gt;Node2</title>
<path fill="none" stroke="midnightblue" d="M153.47,-50.62C139.03,-40.76 120.36,-27.99 108.16,-19.65"/>
<polygon fill="midnightblue" stroke="midnightblue" points="151.58,-53.57 161.81,-56.32 155.53,-47.79 151.58,-53.57"/>
</g>
<!-- Node3 -->
<g id="node3" class="node">
<title>Node3</title>
<g id="a_node3"><a xlink:href="../../db/d44/Rpleth_8cpp.html" target="_top" xlink:title=" ">
<polygon fill="white" stroke="black" points="209.5,-0.5 209.5,-19.5 299.5,-19.5 299.5,-0.5 209.5,-0.5"/>
<text text-anchor="middle" x="254.5" y="-7.5" font-family="Helvetica,sans-Serif" font-size="10.00">test/Rpleth.cpp</text>
</a>
</g>
</g>
<!-- Node1&#45;&gt;Node3 -->
<g id="edge2" class="edge">
<title>Node1&#45;&gt;Node3</title>
<path fill="none" stroke="midnightblue" d="M195.8,-50.62C210.42,-40.76 229.33,-27.99 241.68,-19.65"/>
<polygon fill="midnightblue" stroke="midnightblue" points="193.68,-47.83 187.35,-56.32 197.6,-53.63 193.68,-47.83"/>
</g>
</g>
</svg>
