<?xml version="1.0" encoding="UTF-8" standalone="no"?>
<!DOCTYPE svg PUBLIC "-//W3C//DTD SVG 1.1//EN"
 "http://www.w3.org/Graphics/SVG/1.1/DTD/svg11.dtd">
<!-- Generated by graphviz version 2.43.0 (0)
 -->
<!-- Title: src/modules/wiegand/strategies/WiegandPinNBitsOnly.hpp Pages: 1 -->
<svg width="638pt" height="284pt"
 viewBox="0.00 0.00 638.00 284.00" xmlns="http://www.w3.org/2000/svg" xmlns:xlink="http://www.w3.org/1999/xlink">
<g id="graph0" class="graph" transform="scale(1 1) rotate(0) translate(4 280)">
<title>src/modules/wiegand/strategies/WiegandPinNBitsOnly.hpp</title>
<polygon fill="white" stroke="transparent" points="-4,4 -4,-280 634,-280 634,4 -4,4"/>
<!-- Node1 -->
<g id="node1" class="node">
<title>Node1</title>
<g id="a_node1"><a xlink:title=" ">
<polygon fill="#bfbfbf" stroke="black" points="391,-234.5 391,-275.5 546,-275.5 546,-234.5 391,-234.5"/>
<text text-anchor="start" x="399" y="-263.5" font-family="Helvetica,sans-Serif" font-size="10.00">src/modules/wiegand</text>
<text text-anchor="start" x="399" y="-252.5" font-family="Helvetica,sans-Serif" font-size="10.00">/strategies/WiegandPinNBits</text>
<text text-anchor="middle" x="468.5" y="-241.5" font-family="Helvetica,sans-Serif" font-size="10.00">Only.hpp</text>
</a>
</g>
</g>
<!-- Node2 -->
<g id="node2" class="node">
<title>Node2</title>
<g id="a_node2"><a xlink:href="../../dc/d0d/Strategies_8hpp.html" target="_top" xlink:title=" ">
<polygon fill="white" stroke="black" points="314.5,-162 314.5,-192 456.5,-192 456.5,-162 314.5,-162"/>
<text text-anchor="start" x="322.5" y="-180" font-family="Helvetica,sans-Serif" font-size="10.00">src/modules/wiegand</text>
<text text-anchor="middle" x="385.5" y="-169" font-family="Helvetica,sans-Serif" font-size="10.00">/strategies/Strategies.hpp</text>
</a>
</g>
</g>
<!-- Node1&#45;&gt;Node2 -->
<g id="edge1" class="edge">
<title>Node1&#45;&gt;Node2</title>
<path fill="none" stroke="midnightblue" d="M439.73,-227.66C426.74,-215.76 411.9,-202.18 401.04,-192.23"/>
<polygon fill="midnightblue" stroke="midnightblue" points="437.39,-230.26 447.13,-234.43 442.11,-225.09 437.39,-230.26"/>
</g>
<!-- Node8 -->
<g id="node8" class="node">
<title>Node8</title>
<g id="a_node8"><a xlink:href="../../dc/d9a/WiegandPinNBitsOnly_8cpp.html" target="_top" xlink:title=" ">
<polygon fill="white" stroke="black" points="475,-156.5 475,-197.5 630,-197.5 630,-156.5 475,-156.5"/>
<text text-anchor="start" x="483" y="-185.5" font-family="Helvetica,sans-Serif" font-size="10.00">src/modules/wiegand</text>
<text text-anchor="start" x="483" y="-174.5" font-family="Helvetica,sans-Serif" font-size="10.00">/strategies/WiegandPinNBits</text>
<text text-anchor="middle" x="552.5" y="-163.5" font-family="Helvetica,sans-Serif" font-size="10.00">Only.cpp</text>
</a>
</g>
</g>
<!-- Node1&#45;&gt;Node8 -->
<g id="edge8" class="edge">
<title>Node1&#45;&gt;Node8</title>
<path fill="none" stroke="midnightblue" d="M497.8,-227.49C508.7,-217.63 520.86,-206.63 530.94,-197.51"/>
<polygon fill="midnightblue" stroke="midnightblue" points="495.2,-225.12 490.13,-234.43 499.9,-230.31 495.2,-225.12"/>
</g>
<!-- Node3 -->
<g id="node3" class="node">
<title>Node3</title>
<g id="a_node3"><a xlink:href="../../db/de0/Autodetect_8hpp.html" target="_top" xlink:title=" ">
<polygon fill="white" stroke="black" points="143.5,-84 143.5,-114 289.5,-114 289.5,-84 143.5,-84"/>
<text text-anchor="start" x="151.5" y="-102" font-family="Helvetica,sans-Serif" font-size="10.00">src/modules/wiegand</text>
<text text-anchor="middle" x="216.5" y="-91" font-family="Helvetica,sans-Serif" font-size="10.00">/strategies/Autodetect.hpp</text>
</a>
</g>
</g>
<!-- Node2&#45;&gt;Node3 -->
<g id="edge2" class="edge">
<title>Node2&#45;&gt;Node3</title>
<path fill="none" stroke="midnightblue" d="M344.8,-157.7C314.97,-144.28 275.06,-126.34 247.72,-114.04"/>
<polygon fill="midnightblue" stroke="midnightblue" points="343.55,-160.97 354.11,-161.88 346.42,-154.59 343.55,-160.97"/>
</g>
<!-- Node6 -->
<g id="node6" class="node">
<title>Node6</title>
<g id="a_node6"><a xlink:href="../../db/da6/WiegandCardAndPin_8hpp.html" target="_top" xlink:title=" ">
<polygon fill="white" stroke="black" points="308,-78.5 308,-119.5 463,-119.5 463,-78.5 308,-78.5"/>
<text text-anchor="start" x="316" y="-107.5" font-family="Helvetica,sans-Serif" font-size="10.00">src/modules/wiegand</text>
<text text-anchor="start" x="316" y="-96.5" font-family="Helvetica,sans-Serif" font-size="10.00">/strategies/WiegandCardAnd</text>
<text text-anchor="middle" x="385.5" y="-85.5" font-family="Helvetica,sans-Serif" font-size="10.00">Pin.hpp</text>
</a>
</g>
</g>
<!-- Node2&#45;&gt;Node6 -->
<g id="edge5" class="edge">
<title>Node2&#45;&gt;Node6</title>
<path fill="none" stroke="midnightblue" d="M379.15,-151.66C378.52,-141.33 378.63,-129.44 379.5,-119.68"/>
<polygon fill="midnightblue" stroke="midnightblue" points="375.68,-152.07 380.09,-161.7 382.65,-151.42 375.68,-152.07"/>
</g>
<!-- Node4 -->
<g id="node4" class="node">
<title>Node4</title>
<g id="a_node4"><a xlink:href="../../d3/d15/Autodetect_8cpp.html" target="_top" xlink:title=" ">
<polygon fill="white" stroke="black" points="0,-6 0,-36 145,-36 145,-6 0,-6"/>
<text text-anchor="start" x="8" y="-24" font-family="Helvetica,sans-Serif" font-size="10.00">src/modules/wiegand</text>
<text text-anchor="middle" x="72.5" y="-13" font-family="Helvetica,sans-Serif" font-size="10.00">/strategies/Autodetect.cpp</text>
</a>
</g>
</g>
<!-- Node3&#45;&gt;Node4 -->
<g id="edge3" class="edge">
<title>Node3&#45;&gt;Node4</title>
<path fill="none" stroke="midnightblue" d="M180.83,-79.17C155.52,-65.82 122.1,-48.18 99.1,-36.04"/>
<polygon fill="midnightblue" stroke="midnightblue" points="179.27,-82.31 189.75,-83.88 182.54,-76.12 179.27,-82.31"/>
</g>
<!-- Node5 -->
<g id="node5" class="node">
<title>Node5</title>
<g id="a_node5"><a xlink:href="../../d3/de8/wiegand_8cpp.html" target="_top" xlink:title=" ">
<polygon fill="white" stroke="black" points="163.5,-6 163.5,-36 283.5,-36 283.5,-6 163.5,-6"/>
<text text-anchor="start" x="171.5" y="-24" font-family="Helvetica,sans-Serif" font-size="10.00">src/modules/wiegand</text>
<text text-anchor="middle" x="223.5" y="-13" font-family="Helvetica,sans-Serif" font-size="10.00">/wiegand.cpp</text>
</a>
</g>
</g>
<!-- Node3&#45;&gt;Node5 -->
<g id="edge4" class="edge">
<title>Node3&#45;&gt;Node5</title>
<path fill="none" stroke="midnightblue" d="M218.75,-73.59C219.88,-61.26 221.22,-46.72 222.19,-36.23"/>
<polygon fill="midnightblue" stroke="midnightblue" points="215.25,-73.43 217.82,-83.7 222.22,-74.07 215.25,-73.43"/>
</g>
<!-- Node6&#45;&gt;Node2 -->
<g id="edge6" class="edge">
<title>Node6&#45;&gt;Node2</title>
<path fill="none" stroke="midnightblue" d="M392.11,-129.79C392.49,-140.77 392.09,-152.71 390.91,-161.7"/>
<polygon fill="midnightblue" stroke="midnightblue" points="395.59,-129.45 391.5,-119.68 388.61,-129.87 395.59,-129.45"/>
</g>
<!-- Node7 -->
<g id="node7" class="node">
<title>Node7</title>
<g id="a_node7"><a xlink:href="../../d5/d4a/WiegandCardAndPin_8cpp.html" target="_top" xlink:title=" ">
<polygon fill="white" stroke="black" points="308,-0.5 308,-41.5 463,-41.5 463,-0.5 308,-0.5"/>
<text text-anchor="start" x="316" y="-29.5" font-family="Helvetica,sans-Serif" font-size="10.00">src/modules/wiegand</text>
<text text-anchor="start" x="316" y="-18.5" font-family="Helvetica,sans-Serif" font-size="10.00">/strategies/WiegandCardAnd</text>
<text text-anchor="middle" x="385.5" y="-7.5" font-family="Helvetica,sans-Serif" font-size="10.00">Pin.cpp</text>
</a>
</g>
</g>
<!-- Node6&#45;&gt;Node7 -->
<g id="edge7" class="edge">
<title>Node6&#45;&gt;Node7</title>
<path fill="none" stroke="midnightblue" d="M385.5,-68.3C385.5,-59.3 385.5,-49.65 385.5,-41.51"/>
<polygon fill="midnightblue" stroke="midnightblue" points="382,-68.43 385.5,-78.43 389,-68.43 382,-68.43"/>
</g>
</g>
</svg>
