<?xml version="1.0" encoding="UTF-8" standalone="no"?>
<!DOCTYPE svg PUBLIC "-//W3C//DTD SVG 1.1//EN"
 "http://www.w3.org/Graphics/SVG/1.1/DTD/svg11.dtd">
<!-- Generated by graphviz version 2.43.0 (0)
 -->
<!-- Title: Leosac::Audit::Serializer::PolymorphicAuditJSON::HelperSerialize Pages: 1 -->
<svg width="1127pt" height="482pt"
 viewBox="0.00 0.00 1127.00 481.50" xmlns="http://www.w3.org/2000/svg" xmlns:xlink="http://www.w3.org/1999/xlink">
<g id="graph0" class="graph" transform="scale(1 1) rotate(0) translate(4 477.5)">
<title>Leosac::Audit::Serializer::PolymorphicAuditJSON::HelperSerialize</title>
<polygon fill="white" stroke="transparent" points="-4,4 -4,-477.5 1123,-477.5 1123,4 -4,4"/>
<!-- Node1 -->
<g id="node1" class="node">
<title>Node1</title>
<g id="a_node1"><a xlink:title="Non static helper that can visit a core audit object.">
<polygon fill="#bfbfbf" stroke="black" points="985,-210.5 985,-251.5 1119,-251.5 1119,-210.5 985,-210.5"/>
<text text-anchor="start" x="993" y="-239.5" font-family="Helvetica,sans-Serif" font-size="10.00">Leosac::Audit::Serializer</text>
<text text-anchor="start" x="993" y="-228.5" font-family="Helvetica,sans-Serif" font-size="10.00">::PolymorphicAuditJSON</text>
<text text-anchor="middle" x="1052" y="-217.5" font-family="Helvetica,sans-Serif" font-size="10.00">::HelperSerialize</text>
</a>
</g>
</g>
<!-- Node2 -->
<g id="node2" class="node">
<title>Node2</title>
<g id="a_node2"><a xlink:href="../../d3/d19/classLeosac_1_1Tools_1_1Visitor.html" target="_top" xlink:title=" ">
<polygon fill="white" stroke="black" points="709.5,-443 709.5,-473 833.5,-473 833.5,-443 709.5,-443"/>
<text text-anchor="start" x="717.5" y="-461" font-family="Helvetica,sans-Serif" font-size="10.00">Leosac::Tools::Visitor</text>
<text text-anchor="middle" x="771.5" y="-450" font-family="Helvetica,sans-Serif" font-size="10.00">&lt; Audit::IUserEvent &gt;</text>
</a>
</g>
</g>
<!-- Node2&#45;&gt;Node1 -->
<g id="edge1" class="edge">
<title>Node2&#45;&gt;Node1</title>
<path fill="none" stroke="midnightblue" d="M843.5,-440.3C848.82,-438.37 854.04,-436.27 859,-434 911.45,-409.99 926.57,-403.15 967,-362 1000.13,-328.27 1027.22,-279.44 1041.04,-251.92"/>
<polygon fill="midnightblue" stroke="midnightblue" points="842.19,-437.05 833.86,-443.59 844.46,-443.67 842.19,-437.05"/>
</g>
<!-- Node3 -->
<g id="node3" class="node">
<title>Node3</title>
<g id="a_node3"><a xlink:href="../../d6/da1/classLeosac_1_1Tools_1_1BaseVisitor.html" target="_top" xlink:title="Base class for visitor, should not be used directly.">
<polygon fill="white" stroke="black" points="459.5,-252.5 459.5,-271.5 602.5,-271.5 602.5,-252.5 459.5,-252.5"/>
<text text-anchor="middle" x="531" y="-259.5" font-family="Helvetica,sans-Serif" font-size="10.00">Leosac::Tools::BaseVisitor</text>
</a>
</g>
</g>
<!-- Node3&#45;&gt;Node2 -->
<g id="edge2" class="edge">
<title>Node3&#45;&gt;Node2</title>
<path fill="none" stroke="midnightblue" d="M542.81,-280.54C564.66,-316.24 617.65,-394.49 684,-434 691.77,-438.62 700.45,-442.39 709.25,-445.44"/>
<polygon fill="midnightblue" stroke="midnightblue" points="545.64,-278.44 537.49,-271.67 539.63,-282.04 545.64,-278.44"/>
</g>
<!-- Node4 -->
<g id="node4" class="node">
<title>Node4</title>
<g id="a_node4"><a xlink:href="../../d3/d19/classLeosac_1_1Tools_1_1Visitor.html" target="_top" xlink:title=" ">
<polygon fill="white" stroke="black" points="709,-394 709,-424 834,-424 834,-394 709,-394"/>
<text text-anchor="start" x="717" y="-412" font-family="Helvetica,sans-Serif" font-size="10.00">Leosac::Tools::Visitor</text>
<text text-anchor="middle" x="771.5" y="-401" font-family="Helvetica,sans-Serif" font-size="10.00">&lt; Audit::IWSAPICall &gt;</text>
</a>
</g>
</g>
<!-- Node3&#45;&gt;Node4 -->
<g id="edge4" class="edge">
<title>Node3&#45;&gt;Node4</title>
<path fill="none" stroke="midnightblue" d="M548.14,-278.94C574.26,-305.39 628.48,-356.41 684,-385 691.76,-389 700.26,-392.39 708.81,-395.26"/>
<polygon fill="midnightblue" stroke="midnightblue" points="550.45,-276.3 540.97,-271.58 545.44,-281.18 550.45,-276.3"/>
</g>
<!-- Node5 -->
<g id="node5" class="node">
<title>Node5</title>
<g id="a_node5"><a xlink:href="../../d3/d19/classLeosac_1_1Tools_1_1Visitor.html" target="_top" xlink:title=" ">
<polygon fill="white" stroke="black" points="698.5,-345 698.5,-375 844.5,-375 844.5,-345 698.5,-345"/>
<text text-anchor="start" x="706.5" y="-363" font-family="Helvetica,sans-Serif" font-size="10.00">Leosac::Tools::Visitor</text>
<text text-anchor="middle" x="771.5" y="-352" font-family="Helvetica,sans-Serif" font-size="10.00">&lt; Audit::IScheduleEvent &gt;</text>
</a>
</g>
</g>
<!-- Node3&#45;&gt;Node5 -->
<g id="edge6" class="edge">
<title>Node3&#45;&gt;Node5</title>
<path fill="none" stroke="midnightblue" d="M558.24,-276.6C588.03,-292.75 638.43,-318.75 684,-336 692.45,-339.2 701.52,-342.18 710.48,-344.88"/>
<polygon fill="midnightblue" stroke="midnightblue" points="559.78,-273.45 549.32,-271.73 556.42,-279.6 559.78,-273.45"/>
</g>
<!-- Node6 -->
<g id="node6" class="node">
<title>Node6</title>
<g id="a_node6"><a xlink:href="../../d3/d19/classLeosac_1_1Tools_1_1Visitor.html" target="_top" xlink:title=" ">
<polygon fill="white" stroke="black" points="706,-296 706,-326 837,-326 837,-296 706,-296"/>
<text text-anchor="start" x="714" y="-314" font-family="Helvetica,sans-Serif" font-size="10.00">Leosac::Tools::Visitor</text>
<text text-anchor="middle" x="771.5" y="-303" font-family="Helvetica,sans-Serif" font-size="10.00">&lt; Audit::IGroupEvent &gt;</text>
</a>
</g>
</g>
<!-- Node3&#45;&gt;Node6 -->
<g id="edge8" class="edge">
<title>Node3&#45;&gt;Node6</title>
<path fill="none" stroke="midnightblue" d="M588.39,-273.59C623.64,-280.83 669.16,-290.18 705.87,-297.72"/>
<polygon fill="midnightblue" stroke="midnightblue" points="588.77,-270.09 578.27,-271.51 587.36,-276.95 588.77,-270.09"/>
</g>
<!-- Node7 -->
<g id="node7" class="node">
<title>Node7</title>
<g id="a_node7"><a xlink:href="../../d3/d19/classLeosac_1_1Tools_1_1Visitor.html" target="_top" xlink:title=" ">
<polygon fill="white" stroke="black" points="695.5,-247 695.5,-277 847.5,-277 847.5,-247 695.5,-247"/>
<text text-anchor="start" x="703.5" y="-265" font-family="Helvetica,sans-Serif" font-size="10.00">Leosac::Tools::Visitor</text>
<text text-anchor="middle" x="771.5" y="-254" font-family="Helvetica,sans-Serif" font-size="10.00">&lt; Audit::ICredentialEvent &gt;</text>
</a>
</g>
</g>
<!-- Node3&#45;&gt;Node7 -->
<g id="edge10" class="edge">
<title>Node3&#45;&gt;Node7</title>
<path fill="none" stroke="midnightblue" d="M612.65,-262C639.31,-262 668.86,-262 695.11,-262"/>
<polygon fill="midnightblue" stroke="midnightblue" points="612.59,-258.5 602.59,-262 612.59,-265.5 612.59,-258.5"/>
</g>
<!-- Node8 -->
<g id="node8" class="node">
<title>Node8</title>
<g id="a_node8"><a xlink:href="../../d3/d19/classLeosac_1_1Tools_1_1Visitor.html" target="_top" xlink:title=" ">
<polygon fill="white" stroke="black" points="709,-198 709,-228 834,-228 834,-198 709,-198"/>
<text text-anchor="start" x="717" y="-216" font-family="Helvetica,sans-Serif" font-size="10.00">Leosac::Tools::Visitor</text>
<text text-anchor="middle" x="771.5" y="-205" font-family="Helvetica,sans-Serif" font-size="10.00">&lt; Audit::IDoorEvent &gt;</text>
</a>
</g>
</g>
<!-- Node3&#45;&gt;Node8 -->
<g id="edge12" class="edge">
<title>Node3&#45;&gt;Node8</title>
<path fill="none" stroke="midnightblue" d="M588.16,-250.46C624.31,-243.03 671.33,-233.37 708.57,-225.72"/>
<polygon fill="midnightblue" stroke="midnightblue" points="587.36,-247.05 578.27,-252.49 588.77,-253.91 587.36,-247.05"/>
</g>
<!-- Node9 -->
<g id="node9" class="node">
<title>Node9</title>
<g id="a_node9"><a xlink:href="../../d3/d19/classLeosac_1_1Tools_1_1Visitor.html" target="_top" xlink:title=" ">
<polygon fill="white" stroke="black" points="684,-137.5 684,-178.5 859,-178.5 859,-137.5 684,-137.5"/>
<text text-anchor="start" x="692" y="-166.5" font-family="Helvetica,sans-Serif" font-size="10.00">Leosac::Tools::Visitor</text>
<text text-anchor="start" x="692" y="-155.5" font-family="Helvetica,sans-Serif" font-size="10.00">&lt; Audit::IUserGroupMembership</text>
<text text-anchor="middle" x="771.5" y="-144.5" font-family="Helvetica,sans-Serif" font-size="10.00">Event &gt;</text>
</a>
</g>
</g>
<!-- Node3&#45;&gt;Node9 -->
<g id="edge14" class="edge">
<title>Node3&#45;&gt;Node9</title>
<path fill="none" stroke="midnightblue" d="M559.5,-247.73C589.64,-232.34 639.64,-207.54 684,-189 692.54,-185.43 701.65,-181.89 710.63,-178.54"/>
<polygon fill="midnightblue" stroke="midnightblue" points="557.74,-244.7 550.44,-252.38 560.93,-250.93 557.74,-244.7"/>
</g>
<!-- Node10 -->
<g id="node10" class="node">
<title>Node10</title>
<g id="a_node10"><a xlink:href="../../d3/d19/classLeosac_1_1Tools_1_1Visitor.html" target="_top" xlink:title=" ">
<polygon fill="white" stroke="black" points="703,-88 703,-118 840,-118 840,-88 703,-88"/>
<text text-anchor="start" x="711" y="-106" font-family="Helvetica,sans-Serif" font-size="10.00">Leosac::Tools::Visitor</text>
<text text-anchor="middle" x="771.5" y="-95" font-family="Helvetica,sans-Serif" font-size="10.00">&lt; Audit::IUpdateEvent &gt;</text>
</a>
</g>
</g>
<!-- Node3&#45;&gt;Node10 -->
<g id="edge16" class="edge">
<title>Node3&#45;&gt;Node10</title>
<path fill="none" stroke="midnightblue" d="M546.78,-244.75C572.05,-216.31 626.46,-159.58 684,-128 690.99,-124.16 698.63,-120.86 706.38,-118.04"/>
<polygon fill="midnightblue" stroke="midnightblue" points="544.12,-242.47 540.17,-252.3 549.39,-247.08 544.12,-242.47"/>
</g>
<!-- Node11 -->
<g id="node11" class="node">
<title>Node11</title>
<g id="a_node11"><a xlink:href="../../d3/d19/classLeosac_1_1Tools_1_1Visitor.html" target="_top" xlink:title=" ">
<polygon fill="white" stroke="black" points="708.5,-39 708.5,-69 834.5,-69 834.5,-39 708.5,-39"/>
<text text-anchor="start" x="716.5" y="-57" font-family="Helvetica,sans-Serif" font-size="10.00">Leosac::Tools::Visitor</text>
<text text-anchor="middle" x="771.5" y="-46" font-family="Helvetica,sans-Serif" font-size="10.00">&lt; Audit::IZoneEvent &gt;</text>
</a>
</g>
</g>
<!-- Node3&#45;&gt;Node11 -->
<g id="edge18" class="edge">
<title>Node3&#45;&gt;Node11</title>
<path fill="none" stroke="midnightblue" d="M541.86,-243.17C562.65,-205.45 614.84,-120.69 684,-79 691.5,-74.48 699.85,-70.74 708.33,-67.66"/>
<polygon fill="midnightblue" stroke="midnightblue" points="538.72,-241.63 537.05,-252.09 544.88,-244.95 538.72,-241.63"/>
</g>
<!-- Node4&#45;&gt;Node1 -->
<g id="edge3" class="edge">
<title>Node4&#45;&gt;Node1</title>
<path fill="none" stroke="midnightblue" d="M843.67,-390.94C848.92,-389.1 854.08,-387.12 859,-385 910.46,-362.86 923.37,-355.14 967,-320 992.81,-299.21 1018.36,-270.71 1034.38,-251.61"/>
<polygon fill="midnightblue" stroke="midnightblue" points="842.55,-387.63 834.18,-394.11 844.77,-394.27 842.55,-387.63"/>
</g>
<!-- Node5&#45;&gt;Node1 -->
<g id="edge5" class="edge">
<title>Node5&#45;&gt;Node1</title>
<path fill="none" stroke="midnightblue" d="M841.88,-341.93C847.72,-340.06 853.49,-338.07 859,-336 908.86,-317.25 920.4,-309.81 967,-284 984.95,-274.06 1004.36,-261.91 1020,-251.75"/>
<polygon fill="midnightblue" stroke="midnightblue" points="840.56,-338.68 832.04,-344.99 842.63,-345.37 840.56,-338.68"/>
</g>
<!-- Node6&#45;&gt;Node1 -->
<g id="edge7" class="edge">
<title>Node6&#45;&gt;Node1</title>
<path fill="none" stroke="midnightblue" d="M842.09,-293.48C879.31,-283.84 925.82,-271.36 967,-259 974.66,-256.7 982.67,-254.18 990.57,-251.63"/>
<polygon fill="midnightblue" stroke="midnightblue" points="841.16,-290.11 832.35,-296 842.91,-296.89 841.16,-290.11"/>
</g>
<!-- Node7&#45;&gt;Node1 -->
<g id="edge9" class="edge">
<title>Node7&#45;&gt;Node1</title>
<path fill="none" stroke="midnightblue" d="M858.05,-252.48C898.75,-247.95 946.68,-242.61 984.59,-238.39"/>
<polygon fill="midnightblue" stroke="midnightblue" points="857.42,-249.03 847.87,-253.61 858.19,-255.98 857.42,-249.03"/>
</g>
<!-- Node8&#45;&gt;Node1 -->
<g id="edge11" class="edge">
<title>Node8&#45;&gt;Node1</title>
<path fill="none" stroke="midnightblue" d="M844.51,-217.65C887.89,-220.46 942.73,-224 984.99,-226.73"/>
<polygon fill="midnightblue" stroke="midnightblue" points="844.51,-214.15 834.31,-216.99 844.06,-221.13 844.51,-214.15"/>
</g>
<!-- Node9&#45;&gt;Node1 -->
<g id="edge13" class="edge">
<title>Node9&#45;&gt;Node1</title>
<path fill="none" stroke="midnightblue" d="M860.6,-181.09C900.74,-191.61 947.46,-203.86 984.58,-213.59"/>
<polygon fill="midnightblue" stroke="midnightblue" points="861.38,-177.68 850.82,-178.53 859.6,-184.45 861.38,-177.68"/>
</g>
<!-- Node10&#45;&gt;Node1 -->
<g id="edge15" class="edge">
<title>Node10&#45;&gt;Node1</title>
<path fill="none" stroke="midnightblue" d="M839.48,-121.09C846.13,-123.26 852.73,-125.58 859,-128 917.75,-150.7 981.29,-187.44 1018.55,-210.36"/>
<polygon fill="midnightblue" stroke="midnightblue" points="840.33,-117.69 829.74,-118.01 838.22,-124.36 840.33,-117.69"/>
</g>
<!-- Node11&#45;&gt;Node1 -->
<g id="edge17" class="edge">
<title>Node11&#45;&gt;Node1</title>
<path fill="none" stroke="midnightblue" d="M843.77,-72.04C882.93,-84.41 930.75,-103.77 967,-132 995.99,-154.58 1022.12,-188.54 1037.27,-210.24"/>
<polygon fill="midnightblue" stroke="midnightblue" points="844.61,-68.63 834.02,-69.04 842.55,-75.32 844.61,-68.63"/>
</g>
<!-- Node12 -->
<g id="node12" class="node">
<title>Node12</title>
<g id="a_node12"><a xlink:href="../../db/d24/classLeosac_1_1SecurityContext.html" target="_top" xlink:title="A SecurityContext is used to query permission while doing an operation.">
<polygon fill="white" stroke="black" points="704.5,-0.5 704.5,-19.5 838.5,-19.5 838.5,-0.5 704.5,-0.5"/>
<text text-anchor="middle" x="771.5" y="-7.5" font-family="Helvetica,sans-Serif" font-size="10.00">Leosac::SecurityContext</text>
</a>
</g>
</g>
<!-- Node12&#45;&gt;Node1 -->
<g id="edge19" class="edge">
<title>Node12&#45;&gt;Node1</title>
<path fill="none" stroke="#9a32cd" stroke-dasharray="5,2" d="M848.73,-17.6C887.94,-24.97 934.25,-39.47 967,-68 1011.89,-107.1 1036.02,-176.05 1045.77,-210.38"/>
<polygon fill="#9a32cd" stroke="#9a32cd" points="849.11,-14.11 838.66,-15.83 847.9,-21.01 849.11,-14.11"/>
<text text-anchor="middle" x="922" y="-71" font-family="Helvetica,sans-Serif" font-size="10.00"> security_context_</text>
</g>
<!-- Node13 -->
<g id="node13" class="node">
<title>Node13</title>
<g id="a_node13"><a xlink:title=" ">
<polygon fill="white" stroke="#bfbfbf" points="450,-0.5 450,-19.5 612,-19.5 612,-0.5 450,-0.5"/>
<text text-anchor="middle" x="531" y="-7.5" font-family="Helvetica,sans-Serif" font-size="10.00">std::shared_ptr&lt; DBService &gt;</text>
</a>
</g>
</g>
<!-- Node13&#45;&gt;Node12 -->
<g id="edge20" class="edge">
<title>Node13&#45;&gt;Node12</title>
<path fill="none" stroke="#9a32cd" stroke-dasharray="5,2" d="M622.37,-10C649.54,-10 678.82,-10 704.13,-10"/>
<polygon fill="#9a32cd" stroke="#9a32cd" points="622.08,-6.5 612.08,-10 622.08,-13.5 622.08,-6.5"/>
<text text-anchor="middle" x="648" y="-13" font-family="Helvetica,sans-Serif" font-size="10.00"> dbsrv_</text>
</g>
<!-- Node14 -->
<g id="node14" class="node">
<title>Node14</title>
<g id="a_node14"><a xlink:href="../../d7/def/classLeosac_1_1DBService.html" target="_top" xlink:title="Provides various database&#45;related services to consumer.">
<polygon fill="white" stroke="black" points="290,-0.5 290,-19.5 397,-19.5 397,-0.5 290,-0.5"/>
<text text-anchor="middle" x="343.5" y="-7.5" font-family="Helvetica,sans-Serif" font-size="10.00">Leosac::DBService</text>
</a>
</g>
</g>
<!-- Node14&#45;&gt;Node13 -->
<g id="edge21" class="edge">
<title>Node14&#45;&gt;Node13</title>
<path fill="none" stroke="#9a32cd" stroke-dasharray="5,2" d="M407.38,-10C421.02,-10 435.63,-10 449.83,-10"/>
<polygon fill="#9a32cd" stroke="#9a32cd" points="407.16,-6.5 397.16,-10 407.16,-13.5 407.16,-6.5"/>
<text text-anchor="middle" x="423.5" y="-13" font-family="Helvetica,sans-Serif" font-size="10.00"> ptr</text>
</g>
<!-- Node15 -->
<g id="node15" class="node">
<title>Node15</title>
<g id="a_node15"><a xlink:title="STL class.">
<polygon fill="white" stroke="#bfbfbf" points="82,-0.5 82,-19.5 200,-19.5 200,-0.5 82,-0.5"/>
<text text-anchor="middle" x="141" y="-7.5" font-family="Helvetica,sans-Serif" font-size="10.00">std::shared_ptr&lt; T &gt;</text>
</a>
</g>
</g>
<!-- Node15&#45;&gt;Node14 -->
<g id="edge22" class="edge">
<title>Node15&#45;&gt;Node14</title>
<path fill="none" stroke="#9a32cd" stroke-dasharray="5,2" d="M210.43,-10C236.42,-10 265.6,-10 289.91,-10"/>
<polygon fill="#9a32cd" stroke="#9a32cd" points="210.26,-6.5 200.26,-10 210.26,-13.5 210.26,-6.5"/>
<text text-anchor="middle" x="245" y="-13" font-family="Helvetica,sans-Serif" font-size="10.00"> database_</text>
</g>
<!-- Node16 -->
<g id="node16" class="node">
<title>Node16</title>
<g id="a_node16"><a xlink:title=" ">
<polygon fill="white" stroke="#bfbfbf" points="0,-0.5 0,-19.5 29,-19.5 29,-0.5 0,-0.5"/>
<text text-anchor="middle" x="14.5" y="-7.5" font-family="Helvetica,sans-Serif" font-size="10.00">T</text>
</a>
</g>
</g>
<!-- Node16&#45;&gt;Node15 -->
<g id="edge23" class="edge">
<title>Node16&#45;&gt;Node15</title>
<path fill="none" stroke="#9a32cd" stroke-dasharray="5,2" d="M39.42,-10C51.53,-10 66.79,-10 81.75,-10"/>
<polygon fill="#9a32cd" stroke="#9a32cd" points="39.3,-6.5 29.3,-10 39.3,-13.5 39.3,-6.5"/>
<text text-anchor="middle" x="55.5" y="-13" font-family="Helvetica,sans-Serif" font-size="10.00"> ptr</text>
</g>
</g>
</svg>
