<?xml version="1.0" encoding="UTF-8" standalone="no"?>
<!DOCTYPE svg PUBLIC "-//W3C//DTD SVG 1.1//EN"
 "http://www.w3.org/Graphics/SVG/1.1/DTD/svg11.dtd">
<!-- Generated by graphviz version 2.43.0 (0)
 -->
<!-- Title: src/core/module_manager.hpp Pages: 1 -->
<svg width="2094pt" height="319pt"
 viewBox="0.00 0.00 2093.74 319.00" xmlns="http://www.w3.org/2000/svg" xmlns:xlink="http://www.w3.org/1999/xlink">
<g id="graph0" class="graph" transform="scale(1 1) rotate(0) translate(4 315)">
<title>src/core/module_manager.hpp</title>
<polygon fill="white" stroke="transparent" points="-4,4 -4,-315 2089.74,-315 2089.74,4 -4,4"/>
<!-- Node1 -->
<g id="node1" class="node">
<title>Node1</title>
<g id="a_node1"><a xlink:title=" ">
<polygon fill="#bfbfbf" stroke="black" points="1596.74,-291.5 1596.74,-310.5 1760.74,-310.5 1760.74,-291.5 1596.74,-291.5"/>
<text text-anchor="middle" x="1678.74" y="-298.5" font-family="Helvetica,sans-Serif" font-size="10.00">src/core/module_manager.hpp</text>
</a>
</g>
</g>
<!-- Node2 -->
<g id="node2" class="node">
<title>Node2</title>
<g id="a_node2"><a xlink:href="../../dc/d49/LeosacFwd_8hpp.html" target="_top" xlink:title=" ">
<polygon fill="white" stroke="black" points="28.74,-235.5 28.74,-254.5 120.74,-254.5 120.74,-235.5 28.74,-235.5"/>
<text text-anchor="middle" x="74.74" y="-242.5" font-family="Helvetica,sans-Serif" font-size="10.00">LeosacFwd.hpp</text>
</a>
</g>
</g>
<!-- Node1&#45;&gt;Node2 -->
<g id="edge1" class="edge">
<title>Node1&#45;&gt;Node2</title>
<path fill="none" stroke="midnightblue" d="M1596.71,-297.24C1312.19,-287.66 372,-256.01 131.28,-247.9"/>
<polygon fill="midnightblue" stroke="midnightblue" points="131.12,-244.4 121.01,-247.56 130.89,-251.39 131.12,-244.4"/>
</g>
<!-- Node4 -->
<g id="node4" class="node">
<title>Node4</title>
<g id="a_node4"><a xlink:title=" ">
<polygon fill="white" stroke="#bfbfbf" points="32.24,-56.5 32.24,-75.5 79.24,-75.5 79.24,-56.5 32.24,-56.5"/>
<text text-anchor="middle" x="55.74" y="-63.5" font-family="Helvetica,sans-Serif" font-size="10.00">vector</text>
</a>
</g>
</g>
<!-- Node1&#45;&gt;Node4 -->
<g id="edge63" class="edge">
<title>Node1&#45;&gt;Node4</title>
<path fill="none" stroke="midnightblue" d="M1596.59,-299.31C1265.77,-296.36 47.52,-283.54 19.74,-255 -26.22,-207.78 20.61,-120.92 44.06,-84.16"/>
<polygon fill="midnightblue" stroke="midnightblue" points="47.14,-85.85 49.71,-75.57 41.29,-82 47.14,-85.85"/>
</g>
<!-- Node5 -->
<g id="node5" class="node">
<title>Node5</title>
<g id="a_node5"><a xlink:title=" ">
<polygon fill="white" stroke="#bfbfbf" points="1509.24,-168.5 1509.24,-198.5 1622.24,-198.5 1622.24,-168.5 1509.24,-168.5"/>
<text text-anchor="start" x="1517.24" y="-186.5" font-family="Helvetica,sans-Serif" font-size="10.00">boost/property_tree</text>
<text text-anchor="middle" x="1565.74" y="-175.5" font-family="Helvetica,sans-Serif" font-size="10.00">/ptree.hpp</text>
</a>
</g>
</g>
<!-- Node1&#45;&gt;Node5 -->
<g id="edge4" class="edge">
<title>Node1&#45;&gt;Node5</title>
<path fill="none" stroke="midnightblue" d="M1670.24,-291.32C1652.66,-273.35 1611.82,-231.61 1586.72,-205.95"/>
<polygon fill="midnightblue" stroke="midnightblue" points="1588.97,-203.25 1579.48,-198.55 1583.97,-208.14 1588.97,-203.25"/>
</g>
<!-- Node6 -->
<g id="node6" class="node">
<title>Node6</title>
<g id="a_node6"><a xlink:href="../../db/d79/ConfigManager_8hpp.html" target="_top" xlink:title=" ">
<polygon fill="white" stroke="black" points="847.24,-235.5 847.24,-254.5 1014.24,-254.5 1014.24,-235.5 847.24,-235.5"/>
<text text-anchor="middle" x="930.74" y="-242.5" font-family="Helvetica,sans-Serif" font-size="10.00">core/config/ConfigManager.hpp</text>
</a>
</g>
</g>
<!-- Node1&#45;&gt;Node6 -->
<g id="edge5" class="edge">
<title>Node1&#45;&gt;Node6</title>
<path fill="none" stroke="midnightblue" d="M1596.55,-294.07C1456.55,-283.96 1172.65,-263.46 1024.89,-252.8"/>
<polygon fill="midnightblue" stroke="midnightblue" points="1024.72,-249.28 1014.49,-252.05 1024.21,-256.26 1024.72,-249.28"/>
</g>
<!-- Node9 -->
<g id="node9" class="node">
<title>Node9</title>
<g id="a_node9"><a xlink:title=" ">
<polygon fill="white" stroke="#bfbfbf" points="922.74,-0.5 922.74,-19.5 966.74,-19.5 966.74,-0.5 922.74,-0.5"/>
<text text-anchor="middle" x="944.74" y="-7.5" font-family="Helvetica,sans-Serif" font-size="10.00">string</text>
</a>
</g>
</g>
<!-- Node1&#45;&gt;Node9 -->
<g id="edge62" class="edge">
<title>Node1&#45;&gt;Node9</title>
<path fill="none" stroke="midnightblue" d="M1680.81,-291.27C1685.52,-270 1696.06,-213.88 1687.74,-168 1676.73,-107.3 1662.43,-80.33 1605.74,-56 1547.64,-31.07 1101.86,-15.77 977.1,-11.95"/>
<polygon fill="midnightblue" stroke="midnightblue" points="977.12,-8.45 967.02,-11.64 976.91,-15.44 977.12,-8.45"/>
</g>
<!-- Node28 -->
<g id="node28" class="node">
<title>Node28</title>
<g id="a_node28"><a xlink:title=" ">
<polygon fill="white" stroke="#bfbfbf" points="1640.74,-174 1640.74,-193 1678.74,-193 1678.74,-174 1640.74,-174"/>
<text text-anchor="middle" x="1659.74" y="-181" font-family="Helvetica,sans-Serif" font-size="10.00">map</text>
</a>
</g>
</g>
<!-- Node1&#45;&gt;Node28 -->
<g id="edge60" class="edge">
<title>Node1&#45;&gt;Node28</title>
<path fill="none" stroke="midnightblue" d="M1677.31,-291.32C1674.26,-272.76 1667.03,-228.84 1662.86,-203.47"/>
<polygon fill="midnightblue" stroke="midnightblue" points="1666.26,-202.58 1661.18,-193.28 1659.35,-203.72 1666.26,-202.58"/>
</g>
<!-- Node30 -->
<g id="node30" class="node">
<title>Node30</title>
<g id="a_node30"><a xlink:href="../../d7/dbe/dynamiclibrary_8hpp.html" target="_top" xlink:title="DynamicLibrary class.">
<polygon fill="white" stroke="black" points="1726.24,-235.5 1726.24,-254.5 1869.24,-254.5 1869.24,-235.5 1726.24,-235.5"/>
<text text-anchor="middle" x="1797.74" y="-242.5" font-family="Helvetica,sans-Serif" font-size="10.00">dynlib/dynamiclibrary.hpp</text>
</a>
</g>
</g>
<!-- Node1&#45;&gt;Node30 -->
<g id="edge56" class="edge">
<title>Node1&#45;&gt;Node30</title>
<path fill="none" stroke="midnightblue" d="M1697.59,-291.44C1717,-282.64 1747.47,-268.81 1769.7,-258.72"/>
<polygon fill="midnightblue" stroke="midnightblue" points="1771.31,-261.84 1778.97,-254.52 1768.42,-255.46 1771.31,-261.84"/>
</g>
<!-- Node32 -->
<g id="node32" class="node">
<title>Node32</title>
<g id="a_node32"><a xlink:title=" ">
<polygon fill="white" stroke="#bfbfbf" points="1887.74,-235.5 1887.74,-254.5 1919.74,-254.5 1919.74,-235.5 1887.74,-235.5"/>
<text text-anchor="middle" x="1903.74" y="-242.5" font-family="Helvetica,sans-Serif" font-size="10.00">list</text>
</a>
</g>
</g>
<!-- Node1&#45;&gt;Node32 -->
<g id="edge59" class="edge">
<title>Node1&#45;&gt;Node32</title>
<path fill="none" stroke="midnightblue" d="M1724.02,-291.48C1762.68,-283.84 1819.86,-271.65 1877.98,-254.94"/>
<polygon fill="midnightblue" stroke="midnightblue" points="1879.08,-258.27 1887.7,-252.11 1877.12,-251.55 1879.08,-258.27"/>
</g>
<!-- Node33 -->
<g id="node33" class="node">
<title>Node33</title>
<g id="a_node33"><a xlink:title=" ">
<polygon fill="white" stroke="#bfbfbf" points="1937.74,-235.5 1937.74,-254.5 1969.74,-254.5 1969.74,-235.5 1937.74,-235.5"/>
<text text-anchor="middle" x="1953.74" y="-242.5" font-family="Helvetica,sans-Serif" font-size="10.00">set</text>
</a>
</g>
</g>
<!-- Node1&#45;&gt;Node33 -->
<g id="edge61" class="edge">
<title>Node1&#45;&gt;Node33</title>
<path fill="none" stroke="midnightblue" d="M1742.84,-291.48C1791.34,-284.35 1859.67,-272.84 1927.69,-254.9"/>
<polygon fill="midnightblue" stroke="midnightblue" points="1928.98,-258.18 1937.73,-252.21 1927.16,-251.42 1928.98,-258.18"/>
</g>
<!-- Node34 -->
<g id="node34" class="node">
<title>Node34</title>
<g id="a_node34"><a xlink:title=" ">
<polygon fill="white" stroke="#bfbfbf" points="1987.74,-235.5 1987.74,-254.5 2085.74,-254.5 2085.74,-235.5 1987.74,-235.5"/>
<text text-anchor="middle" x="2036.74" y="-242.5" font-family="Helvetica,sans-Serif" font-size="10.00">zmqpp/actor.hpp</text>
</a>
</g>
</g>
<!-- Node1&#45;&gt;Node34 -->
<g id="edge64" class="edge">
<title>Node1&#45;&gt;Node34</title>
<path fill="none" stroke="midnightblue" d="M1736.26,-291.46C1794.48,-282.8 1887.38,-268.92 1977.56,-255.17"/>
<polygon fill="midnightblue" stroke="midnightblue" points="1978.34,-258.6 1987.69,-253.63 1977.28,-251.68 1978.34,-258.6"/>
</g>
<!-- Node3 -->
<g id="node3" class="node">
<title>Node3</title>
<g id="a_node3"><a xlink:title=" ">
<polygon fill="white" stroke="#bfbfbf" points="45.74,-174 45.74,-193 103.74,-193 103.74,-174 45.74,-174"/>
<text text-anchor="middle" x="74.74" y="-181" font-family="Helvetica,sans-Serif" font-size="10.00">memory</text>
</a>
</g>
</g>
<!-- Node2&#45;&gt;Node3 -->
<g id="edge2" class="edge">
<title>Node2&#45;&gt;Node3</title>
<path fill="none" stroke="midnightblue" d="M74.74,-235.48C74.74,-227.08 74.74,-213.98 74.74,-203.16"/>
<polygon fill="midnightblue" stroke="midnightblue" points="78.24,-203.01 74.74,-193.01 71.24,-203.01 78.24,-203.01"/>
</g>
<!-- Node2&#45;&gt;Node4 -->
<g id="edge3" class="edge">
<title>Node2&#45;&gt;Node4</title>
<path fill="none" stroke="midnightblue" d="M64.02,-235.3C54.8,-227.07 42.15,-213.79 36.74,-199 22.48,-160.01 37.51,-110.89 47.8,-84.95"/>
<polygon fill="midnightblue" stroke="midnightblue" points="51.07,-86.21 51.7,-75.64 44.61,-83.51 51.07,-86.21"/>
</g>
<!-- Node6&#45;&gt;Node3 -->
<g id="edge52" class="edge">
<title>Node6&#45;&gt;Node3</title>
<path fill="none" stroke="midnightblue" d="M846.97,-242.22C668.43,-237.97 255.51,-225.53 117.74,-199 113.85,-198.25 109.82,-197.24 105.87,-196.09"/>
<polygon fill="midnightblue" stroke="midnightblue" points="106.9,-192.74 96.31,-193.04 104.77,-199.41 106.9,-192.74"/>
</g>
<!-- Node6&#45;&gt;Node4 -->
<g id="edge54" class="edge">
<title>Node6&#45;&gt;Node4</title>
<path fill="none" stroke="midnightblue" d="M847.18,-243.21C658.37,-240.86 210.55,-231.86 150.74,-199 104.67,-173.7 75.37,-115.4 62.81,-85.47"/>
<polygon fill="midnightblue" stroke="midnightblue" points="65.92,-83.81 58.94,-75.84 59.42,-86.43 65.92,-83.81"/>
</g>
<!-- Node6&#45;&gt;Node5 -->
<g id="edge50" class="edge">
<title>Node6&#45;&gt;Node5</title>
<path fill="none" stroke="midnightblue" d="M1014.7,-240.5C1125.2,-235.16 1325.26,-222.98 1494.74,-199 1496.03,-198.82 1497.34,-198.62 1498.66,-198.42"/>
<polygon fill="midnightblue" stroke="midnightblue" points="1499.58,-201.82 1508.88,-196.75 1498.44,-194.91 1499.58,-201.82"/>
</g>
<!-- Node7 -->
<g id="node7" class="node">
<title>Node7</title>
<g id="a_node7"><a xlink:href="../../d1/ddd/leosacexception_8hpp.html" target="_top" xlink:title="Exception class for LEOSAC Project related errors.">
<polygon fill="white" stroke="black" points="846.74,-174 846.74,-193 1014.74,-193 1014.74,-174 846.74,-174"/>
<text text-anchor="middle" x="930.74" y="-181" font-family="Helvetica,sans-Serif" font-size="10.00">exception/leosacexception.hpp</text>
</a>
</g>
</g>
<!-- Node6&#45;&gt;Node7 -->
<g id="edge6" class="edge">
<title>Node6&#45;&gt;Node7</title>
<path fill="none" stroke="midnightblue" d="M930.74,-235.48C930.74,-227.08 930.74,-213.98 930.74,-203.16"/>
<polygon fill="midnightblue" stroke="midnightblue" points="934.24,-203.01 930.74,-193.01 927.24,-203.01 934.24,-203.01"/>
</g>
<!-- Node6&#45;&gt;Node9 -->
<g id="edge53" class="edge">
<title>Node6&#45;&gt;Node9</title>
<path fill="none" stroke="midnightblue" d="M1001.4,-235.48C1178.3,-213.81 1627.68,-156.6 1648.74,-132 1739.42,-26.08 1127.58,-12.88 977.45,-11.23"/>
<polygon fill="midnightblue" stroke="midnightblue" points="977.1,-7.73 967.07,-11.13 977.03,-14.73 977.1,-7.73"/>
</g>
<!-- Node23 -->
<g id="node23" class="node">
<title>Node23</title>
<g id="a_node23"><a xlink:href="../../d4/d3d/log_8hpp.html" target="_top" xlink:title=" ">
<polygon fill="white" stroke="black" points="176.74,-56.5 176.74,-75.5 256.74,-75.5 256.74,-56.5 176.74,-56.5"/>
<text text-anchor="middle" x="216.74" y="-63.5" font-family="Helvetica,sans-Serif" font-size="10.00">tools/log.hpp</text>
</a>
</g>
</g>
<!-- Node6&#45;&gt;Node23 -->
<g id="edge43" class="edge">
<title>Node6&#45;&gt;Node23</title>
<path fill="none" stroke="midnightblue" d="M851.87,-235.47C658.28,-214.17 173.66,-158.44 150.74,-132 134.21,-112.93 162.75,-92.81 187.32,-80.1"/>
<polygon fill="midnightblue" stroke="midnightblue" points="189.01,-83.16 196.44,-75.6 185.92,-76.88 189.01,-83.16"/>
</g>
<!-- Node6&#45;&gt;Node28 -->
<g id="edge51" class="edge">
<title>Node6&#45;&gt;Node28</title>
<path fill="none" stroke="midnightblue" d="M1014.43,-242.93C1174.4,-240.17 1517.83,-230.64 1631.74,-199 1633.41,-198.54 1635.09,-197.97 1636.76,-197.32"/>
<polygon fill="midnightblue" stroke="midnightblue" points="1638.35,-200.44 1645.96,-193.07 1635.42,-194.09 1638.35,-200.44"/>
</g>
<!-- Node29 -->
<g id="node29" class="node">
<title>Node29</title>
<g id="a_node29"><a xlink:title=" ">
<polygon fill="white" stroke="#bfbfbf" points="160.24,-174 160.24,-193 267.24,-193 267.24,-174 160.24,-174"/>
<text text-anchor="middle" x="213.74" y="-181" font-family="Helvetica,sans-Serif" font-size="10.00">zmqpp/zmqpp.hpp</text>
</a>
</g>
</g>
<!-- Node6&#45;&gt;Node29 -->
<g id="edge55" class="edge">
<title>Node6&#45;&gt;Node29</title>
<path fill="none" stroke="midnightblue" d="M847.11,-241.96C723.12,-238.1 483.48,-227.36 281.74,-199 274.42,-197.97 266.72,-196.61 259.23,-195.12"/>
<polygon fill="midnightblue" stroke="midnightblue" points="259.72,-191.65 249.21,-193.05 258.3,-198.51 259.72,-191.65"/>
</g>
<!-- Node8 -->
<g id="node8" class="node">
<title>Node8</title>
<g id="a_node8"><a xlink:href="../../d6/d2f/Stacktrace_8hpp.html" target="_top" xlink:title=" ">
<polygon fill="white" stroke="black" points="159.74,-112.5 159.74,-131.5 275.74,-131.5 275.74,-112.5 159.74,-112.5"/>
<text text-anchor="middle" x="217.74" y="-119.5" font-family="Helvetica,sans-Serif" font-size="10.00">tools/Stacktrace.hpp</text>
</a>
</g>
</g>
<!-- Node7&#45;&gt;Node8 -->
<g id="edge7" class="edge">
<title>Node7&#45;&gt;Node8</title>
<path fill="none" stroke="midnightblue" d="M846.72,-177.43C725.33,-169.76 493.58,-153.89 286,-132.08"/>
<polygon fill="midnightblue" stroke="midnightblue" points="286.13,-128.57 275.82,-131 285.4,-135.53 286.13,-128.57"/>
</g>
<!-- Node7&#45;&gt;Node9 -->
<g id="edge12" class="edge">
<title>Node7&#45;&gt;Node9</title>
<path fill="none" stroke="midnightblue" d="M1014.83,-178.57C1086.54,-173.24 1181.74,-160.81 1205.74,-132 1271.89,-52.59 1060.57,-22.5 977.12,-13.88"/>
<polygon fill="midnightblue" stroke="midnightblue" points="977.22,-10.37 966.92,-12.87 976.53,-17.34 977.22,-10.37"/>
</g>
<!-- Node10 -->
<g id="node10" class="node">
<title>Node10</title>
<g id="a_node10"><a xlink:title=" ">
<polygon fill="white" stroke="#bfbfbf" points="1061.24,-112.5 1061.24,-131.5 1114.24,-131.5 1114.24,-112.5 1061.24,-112.5"/>
<text text-anchor="middle" x="1087.74" y="-119.5" font-family="Helvetica,sans-Serif" font-size="10.00">cstddef</text>
</a>
</g>
</g>
<!-- Node7&#45;&gt;Node10 -->
<g id="edge10" class="edge">
<title>Node7&#45;&gt;Node10</title>
<path fill="none" stroke="midnightblue" d="M953.23,-173.98C980.05,-163.81 1025.05,-146.76 1055.55,-135.2"/>
<polygon fill="midnightblue" stroke="midnightblue" points="1057.18,-138.33 1065.29,-131.51 1054.69,-131.78 1057.18,-138.33"/>
</g>
<!-- Node11 -->
<g id="node11" class="node">
<title>Node11</title>
<g id="a_node11"><a xlink:title=" ">
<polygon fill="white" stroke="#bfbfbf" points="1132.24,-112.5 1132.24,-131.5 1197.24,-131.5 1197.24,-112.5 1132.24,-112.5"/>
<text text-anchor="middle" x="1164.74" y="-119.5" font-family="Helvetica,sans-Serif" font-size="10.00">exception</text>
</a>
</g>
</g>
<!-- Node7&#45;&gt;Node11 -->
<g id="edge11" class="edge">
<title>Node7&#45;&gt;Node11</title>
<path fill="none" stroke="midnightblue" d="M964.26,-173.98C1005.86,-163.4 1076.81,-145.36 1122.19,-133.82"/>
<polygon fill="midnightblue" stroke="midnightblue" points="1123.2,-137.17 1132.03,-131.32 1121.47,-130.39 1123.2,-137.17"/>
</g>
<!-- Node12 -->
<g id="node12" class="node">
<title>Node12</title>
<g id="a_node12"><a xlink:href="../../d7/d7a/configexception_8hpp.html" target="_top" xlink:title=" ">
<polygon fill="white" stroke="black" points="294.24,-112.5 294.24,-131.5 409.24,-131.5 409.24,-112.5 294.24,-112.5"/>
<text text-anchor="middle" x="351.74" y="-119.5" font-family="Helvetica,sans-Serif" font-size="10.00">configexception.hpp</text>
</a>
</g>
</g>
<!-- Node7&#45;&gt;Node12 -->
<g id="edge13" class="edge">
<title>Node7&#45;&gt;Node12</title>
<path fill="none" stroke="midnightblue" d="M846.65,-175.75C745.47,-167 570.45,-150.79 414.79,-132.7"/>
<polygon fill="midnightblue" stroke="midnightblue" points="414.9,-129.19 404.56,-131.5 414.09,-136.14 414.9,-129.19"/>
</g>
<!-- Node15 -->
<g id="node15" class="node">
<title>Node15</title>
<g id="a_node15"><a xlink:href="../../d8/db0/coreexception_8hpp.html" target="_top" xlink:title="Exception class for Core related errors.">
<polygon fill="white" stroke="black" points="427.24,-112.5 427.24,-131.5 534.24,-131.5 534.24,-112.5 427.24,-112.5"/>
<text text-anchor="middle" x="480.74" y="-119.5" font-family="Helvetica,sans-Serif" font-size="10.00">coreexception.hpp</text>
</a>
</g>
</g>
<!-- Node7&#45;&gt;Node15 -->
<g id="edge19" class="edge">
<title>Node7&#45;&gt;Node15</title>
<path fill="none" stroke="midnightblue" d="M857.09,-173.99C779.72,-164.43 654.45,-148.3 541.61,-132.93"/>
<polygon fill="midnightblue" stroke="midnightblue" points="541.81,-129.43 531.43,-131.55 540.86,-136.37 541.81,-129.43"/>
</g>
<!-- Node16 -->
<g id="node16" class="node">
<title>Node16</title>
<g id="a_node16"><a xlink:href="../../d8/d77/deviceexception_8hpp.html" target="_top" xlink:title="Exception class for Device related errors.">
<polygon fill="white" stroke="black" points="552.74,-112.5 552.74,-131.5 670.74,-131.5 670.74,-112.5 552.74,-112.5"/>
<text text-anchor="middle" x="611.74" y="-119.5" font-family="Helvetica,sans-Serif" font-size="10.00">deviceexception.hpp</text>
</a>
</g>
</g>
<!-- Node7&#45;&gt;Node16 -->
<g id="edge22" class="edge">
<title>Node7&#45;&gt;Node16</title>
<path fill="none" stroke="midnightblue" d="M880.13,-173.98C820.48,-163.28 722.1,-144.96 662.42,-133.44"/>
<polygon fill="midnightblue" stroke="midnightblue" points="662.94,-129.97 652.46,-131.51 661.61,-136.85 662.94,-129.97"/>
</g>
<!-- Node17 -->
<g id="node17" class="node">
<title>Node17</title>
<g id="a_node17"><a xlink:href="../../db/d35/dynlibexception_8hpp.html" target="_top" xlink:title="Exception class for DynLib related errors.">
<polygon fill="white" stroke="black" points="688.74,-112.5 688.74,-131.5 804.74,-131.5 804.74,-112.5 688.74,-112.5"/>
<text text-anchor="middle" x="746.74" y="-119.5" font-family="Helvetica,sans-Serif" font-size="10.00">dynlibexception.hpp</text>
</a>
</g>
</g>
<!-- Node7&#45;&gt;Node17 -->
<g id="edge25" class="edge">
<title>Node7&#45;&gt;Node17</title>
<path fill="none" stroke="midnightblue" d="M899.47,-173.98C865.54,-163.72 811.94,-146.46 778.01,-134.9"/>
<polygon fill="midnightblue" stroke="midnightblue" points="778.75,-131.45 768.15,-131.51 776.47,-138.07 778.75,-131.45"/>
</g>
<!-- Node18 -->
<g id="node18" class="node">
<title>Node18</title>
<g id="a_node18"><a xlink:href="../../d0/d4e/fsexception_8hpp.html" target="_top" xlink:title="Exception class for filesystem related errors.">
<polygon fill="white" stroke="black" points="823.24,-112.5 823.24,-131.5 918.24,-131.5 918.24,-112.5 823.24,-112.5"/>
<text text-anchor="middle" x="870.74" y="-119.5" font-family="Helvetica,sans-Serif" font-size="10.00">fsexception.hpp</text>
</a>
</g>
</g>
<!-- Node7&#45;&gt;Node18 -->
<g id="edge28" class="edge">
<title>Node7&#45;&gt;Node18</title>
<path fill="none" stroke="midnightblue" d="M917.24,-173.98C906.19,-164.96 891.23,-150.52 881.09,-139.31"/>
<polygon fill="midnightblue" stroke="midnightblue" points="883.58,-136.84 874.42,-131.51 878.26,-141.38 883.58,-136.84"/>
</g>
<!-- Node19 -->
<g id="node19" class="node">
<title>Node19</title>
<g id="a_node19"><a xlink:href="../../d1/d8e/gpioexception_8hpp.html" target="_top" xlink:title="Exception class for Gpio related errors.">
<polygon fill="white" stroke="black" points="936.24,-112.5 936.24,-131.5 1043.24,-131.5 1043.24,-112.5 936.24,-112.5"/>
<text text-anchor="middle" x="989.74" y="-119.5" font-family="Helvetica,sans-Serif" font-size="10.00">gpioexception.hpp</text>
</a>
</g>
</g>
<!-- Node7&#45;&gt;Node19 -->
<g id="edge31" class="edge">
<title>Node7&#45;&gt;Node19</title>
<path fill="none" stroke="midnightblue" d="M934.29,-173.98C941.47,-164.7 956,-149.67 968.55,-138.33"/>
<polygon fill="midnightblue" stroke="midnightblue" points="971.15,-140.71 976.4,-131.51 966.56,-135.42 971.15,-140.71"/>
</g>
<!-- Node20 -->
<g id="node20" class="node">
<title>Node20</title>
<g id="a_node20"><a xlink:href="../../d7/d8c/moduleexception_8hpp.html" target="_top" xlink:title="Exception class for modules.">
<polygon fill="white" stroke="black" points="1253.74,-112.5 1253.74,-131.5 1375.74,-131.5 1375.74,-112.5 1253.74,-112.5"/>
<text text-anchor="middle" x="1314.74" y="-119.5" font-family="Helvetica,sans-Serif" font-size="10.00">moduleexception.hpp</text>
</a>
</g>
</g>
<!-- Node7&#45;&gt;Node20 -->
<g id="edge34" class="edge">
<title>Node7&#45;&gt;Node20</title>
<path fill="none" stroke="midnightblue" d="M980.86,-173.98C1048.36,-163.15 1168.6,-144.5 1244.92,-133.01"/>
<polygon fill="midnightblue" stroke="midnightblue" points="1245.56,-136.46 1254.93,-131.51 1244.52,-129.53 1245.56,-136.46"/>
</g>
<!-- Node21 -->
<g id="node21" class="node">
<title>Node21</title>
<g id="a_node21"><a xlink:href="../../df/d8d/scriptexception_8hpp.html" target="_top" xlink:title="Exception class for Script related errors.">
<polygon fill="white" stroke="black" points="1394.24,-112.5 1394.24,-131.5 1507.24,-131.5 1507.24,-112.5 1394.24,-112.5"/>
<text text-anchor="middle" x="1450.74" y="-119.5" font-family="Helvetica,sans-Serif" font-size="10.00">scriptexception.hpp</text>
</a>
</g>
</g>
<!-- Node7&#45;&gt;Node21 -->
<g id="edge37" class="edge">
<title>Node7&#45;&gt;Node21</title>
<path fill="none" stroke="midnightblue" d="M1006.24,-173.99C1094.81,-164.41 1245.88,-148.07 1375.74,-132 1378.39,-131.67 1381.1,-131.33 1383.85,-130.98"/>
<polygon fill="midnightblue" stroke="midnightblue" points="1384.42,-134.43 1393.88,-129.68 1383.52,-127.49 1384.42,-134.43"/>
</g>
<!-- Node22 -->
<g id="node22" class="node">
<title>Node22</title>
<g id="a_node22"><a xlink:href="../../dc/dce/signalexception_8hpp.html" target="_top" xlink:title="Exception class for Signal related errors.">
<polygon fill="white" stroke="black" points="1525.24,-112.5 1525.24,-131.5 1640.24,-131.5 1640.24,-112.5 1525.24,-112.5"/>
<text text-anchor="middle" x="1582.74" y="-119.5" font-family="Helvetica,sans-Serif" font-size="10.00">signalexception.hpp</text>
</a>
</g>
</g>
<!-- Node7&#45;&gt;Node22 -->
<g id="edge40" class="edge">
<title>Node7&#45;&gt;Node22</title>
<path fill="none" stroke="midnightblue" d="M1014.82,-176.04C1127.1,-167.5 1331.95,-151.27 1506.74,-132 1509.43,-131.7 1512.19,-131.39 1514.98,-131.06"/>
<polygon fill="midnightblue" stroke="midnightblue" points="1515.67,-134.5 1525.17,-129.81 1514.82,-127.55 1515.67,-134.5"/>
</g>
<!-- Node8&#45;&gt;Node4 -->
<g id="edge9" class="edge">
<title>Node8&#45;&gt;Node4</title>
<path fill="none" stroke="midnightblue" d="M192.07,-112.44C164.25,-103.17 119.77,-88.34 89.22,-78.16"/>
<polygon fill="midnightblue" stroke="midnightblue" points="90.04,-74.74 79.44,-74.9 87.82,-81.38 90.04,-74.74"/>
</g>
<!-- Node8&#45;&gt;Node9 -->
<g id="edge8" class="edge">
<title>Node8&#45;&gt;Node9</title>
<path fill="none" stroke="midnightblue" d="M225.74,-112.29C239.86,-97.62 270.79,-68.35 303.74,-56 417.08,-13.51 798.84,-10.72 912.53,-10.86"/>
<polygon fill="midnightblue" stroke="midnightblue" points="912.67,-14.36 922.68,-10.88 912.69,-7.36 912.67,-14.36"/>
</g>
<!-- Node12&#45;&gt;Node7 -->
<g id="edge14" class="edge">
<title>Node12&#45;&gt;Node7</title>
<path fill="none" stroke="midnightblue" d="M409.31,-129.84C415.22,-130.6 421.11,-131.34 426.74,-132 569.38,-148.74 734.79,-164.34 836.15,-173.65"/>
<polygon fill="midnightblue" stroke="midnightblue" points="836.08,-177.16 846.36,-174.58 836.72,-170.19 836.08,-177.16"/>
</g>
<!-- Node12&#45;&gt;Node9 -->
<g id="edge18" class="edge">
<title>Node12&#45;&gt;Node9</title>
<path fill="none" stroke="midnightblue" d="M389.32,-112.5C447.52,-99.47 563.04,-74.18 661.74,-56 752.37,-39.3 860.01,-23.21 912.6,-15.59"/>
<polygon fill="midnightblue" stroke="midnightblue" points="913.26,-19.03 922.66,-14.13 912.26,-12.1 913.26,-19.03"/>
</g>
<!-- Node13 -->
<g id="node13" class="node">
<title>Node13</title>
<g id="a_node13"><a xlink:href="../../dd/d35/Colorize_8hpp.html" target="_top" xlink:title=" ">
<polygon fill="white" stroke="black" points="312.74,-56.5 312.74,-75.5 416.74,-75.5 416.74,-56.5 312.74,-56.5"/>
<text text-anchor="middle" x="364.74" y="-63.5" font-family="Helvetica,sans-Serif" font-size="10.00">tools/Colorize.hpp</text>
</a>
</g>
</g>
<!-- Node12&#45;&gt;Node13 -->
<g id="edge15" class="edge">
<title>Node12&#45;&gt;Node13</title>
<path fill="none" stroke="midnightblue" d="M353.88,-112.08C355.61,-104.93 358.09,-94.64 360.24,-85.69"/>
<polygon fill="midnightblue" stroke="midnightblue" points="363.69,-86.29 362.63,-75.75 356.89,-84.65 363.69,-86.29"/>
</g>
<!-- Node13&#45;&gt;Node9 -->
<g id="edge17" class="edge">
<title>Node13&#45;&gt;Node9</title>
<path fill="none" stroke="midnightblue" d="M416.98,-60.14C534.41,-49.2 816.48,-22.94 912.27,-14.02"/>
<polygon fill="midnightblue" stroke="midnightblue" points="912.86,-17.48 922.49,-13.07 912.21,-10.51 912.86,-17.48"/>
</g>
<!-- Node14 -->
<g id="node14" class="node">
<title>Node14</title>
<g id="a_node14"><a xlink:title=" ">
<polygon fill="white" stroke="#bfbfbf" points="335.74,-0.5 335.74,-19.5 391.74,-19.5 391.74,-0.5 335.74,-0.5"/>
<text text-anchor="middle" x="363.74" y="-7.5" font-family="Helvetica,sans-Serif" font-size="10.00">sstream</text>
</a>
</g>
</g>
<!-- Node13&#45;&gt;Node14 -->
<g id="edge16" class="edge">
<title>Node13&#45;&gt;Node14</title>
<path fill="none" stroke="midnightblue" d="M364.57,-56.08C364.44,-49.01 364.25,-38.86 364.09,-29.99"/>
<polygon fill="midnightblue" stroke="midnightblue" points="367.58,-29.68 363.9,-19.75 360.59,-29.81 367.58,-29.68"/>
</g>
<!-- Node15&#45;&gt;Node7 -->
<g id="edge21" class="edge">
<title>Node15&#45;&gt;Node7</title>
<path fill="none" stroke="midnightblue" d="M534.39,-129.46C540.61,-130.32 546.83,-131.19 552.74,-132 660.03,-146.66 784.2,-162.7 860.16,-172.68"/>
<polygon fill="midnightblue" stroke="midnightblue" points="859.72,-176.15 870.09,-173.99 860.63,-169.21 859.72,-176.15"/>
</g>
<!-- Node15&#45;&gt;Node9 -->
<g id="edge20" class="edge">
<title>Node15&#45;&gt;Node9</title>
<path fill="none" stroke="midnightblue" d="M514.44,-112.47C564.58,-99.84 661.81,-75.54 744.74,-56 803.89,-42.07 873.1,-26.7 912.65,-18.01"/>
<polygon fill="midnightblue" stroke="midnightblue" points="913.49,-21.41 922.51,-15.85 911.99,-14.57 913.49,-21.41"/>
</g>
<!-- Node16&#45;&gt;Node7 -->
<g id="edge24" class="edge">
<title>Node16&#45;&gt;Node7</title>
<path fill="none" stroke="midnightblue" d="M662.26,-131.51C721.87,-142.19 820.25,-160.52 879.97,-172.05"/>
<polygon fill="midnightblue" stroke="midnightblue" points="879.45,-175.51 889.93,-173.98 880.78,-168.64 879.45,-175.51"/>
</g>
<!-- Node16&#45;&gt;Node9 -->
<g id="edge23" class="edge">
<title>Node16&#45;&gt;Node9</title>
<path fill="none" stroke="midnightblue" d="M637.59,-112.46C697.79,-92.58 847.17,-43.23 912.87,-21.53"/>
<polygon fill="midnightblue" stroke="midnightblue" points="914.27,-24.75 922.67,-18.29 912.08,-18.1 914.27,-24.75"/>
</g>
<!-- Node17&#45;&gt;Node7 -->
<g id="edge27" class="edge">
<title>Node17&#45;&gt;Node7</title>
<path fill="none" stroke="midnightblue" d="M777.95,-131.51C811.86,-141.75 865.46,-159.02 899.41,-170.58"/>
<polygon fill="midnightblue" stroke="midnightblue" points="898.68,-174.03 909.28,-173.98 900.96,-167.41 898.68,-174.03"/>
</g>
<!-- Node17&#45;&gt;Node9 -->
<g id="edge26" class="edge">
<title>Node17&#45;&gt;Node9</title>
<path fill="none" stroke="midnightblue" d="M762.27,-112.37C796.61,-93.29 879.18,-47.42 920.43,-24.51"/>
<polygon fill="midnightblue" stroke="midnightblue" points="922.23,-27.51 929.27,-19.59 918.83,-21.39 922.23,-27.51"/>
</g>
<!-- Node18&#45;&gt;Node7 -->
<g id="edge30" class="edge">
<title>Node18&#45;&gt;Node7</title>
<path fill="none" stroke="midnightblue" d="M884.22,-131.51C895.27,-140.52 910.22,-154.95 920.37,-166.17"/>
<polygon fill="midnightblue" stroke="midnightblue" points="917.88,-168.65 927.04,-173.98 923.2,-164.1 917.88,-168.65"/>
</g>
<!-- Node18&#45;&gt;Node9 -->
<g id="edge29" class="edge">
<title>Node18&#45;&gt;Node9</title>
<path fill="none" stroke="midnightblue" d="M876.54,-112.37C888.76,-94.22 917.29,-51.8 933.31,-27.99"/>
<polygon fill="midnightblue" stroke="midnightblue" points="936.28,-29.84 938.96,-19.59 930.47,-25.94 936.28,-29.84"/>
</g>
<!-- Node19&#45;&gt;Node7 -->
<g id="edge32" class="edge">
<title>Node19&#45;&gt;Node7</title>
<path fill="none" stroke="midnightblue" d="M986.2,-131.51C979.03,-140.78 964.5,-155.81 951.95,-167.15"/>
<polygon fill="midnightblue" stroke="midnightblue" points="949.35,-164.78 944.09,-173.98 953.94,-170.06 949.35,-164.78"/>
</g>
<!-- Node19&#45;&gt;Node9 -->
<g id="edge33" class="edge">
<title>Node19&#45;&gt;Node9</title>
<path fill="none" stroke="midnightblue" d="M986.21,-112.37C978.88,-94.46 961.89,-52.92 952.08,-28.95"/>
<polygon fill="midnightblue" stroke="midnightblue" points="955.28,-27.52 948.25,-19.59 948.8,-30.17 955.28,-27.52"/>
</g>
<!-- Node20&#45;&gt;Node7 -->
<g id="edge36" class="edge">
<title>Node20&#45;&gt;Node7</title>
<path fill="none" stroke="midnightblue" d="M1264.72,-131.51C1197.27,-142.33 1077.03,-160.97 1000.67,-172.47"/>
<polygon fill="midnightblue" stroke="midnightblue" points="1000.03,-169.03 990.66,-173.98 1001.07,-175.95 1000.03,-169.03"/>
</g>
<!-- Node20&#45;&gt;Node9 -->
<g id="edge35" class="edge">
<title>Node20&#45;&gt;Node9</title>
<path fill="none" stroke="midnightblue" d="M1307.51,-112.09C1295.24,-97.66 1268.83,-69.44 1239.74,-56 1151.15,-15.08 1033.22,-10.01 977.08,-10.19"/>
<polygon fill="midnightblue" stroke="midnightblue" points="976.99,-6.69 967.03,-10.29 977.06,-13.69 976.99,-6.69"/>
</g>
<!-- Node21&#45;&gt;Node7 -->
<g id="edge39" class="edge">
<title>Node21&#45;&gt;Node7</title>
<path fill="none" stroke="midnightblue" d="M1397.56,-131.52C1396.28,-131.68 1395,-131.84 1393.74,-132 1266.35,-147.77 1118.57,-163.78 1024.82,-173.43"/>
<polygon fill="midnightblue" stroke="midnightblue" points="1024.39,-169.96 1014.79,-174.46 1025.1,-176.92 1024.39,-169.96"/>
</g>
<!-- Node21&#45;&gt;Node9 -->
<g id="edge38" class="edge">
<title>Node21&#45;&gt;Node9</title>
<path fill="none" stroke="midnightblue" d="M1430.95,-112.41C1397.96,-98.44 1329.35,-70.87 1268.74,-56 1163.85,-30.28 1036.01,-17.94 977.19,-13.29"/>
<polygon fill="midnightblue" stroke="midnightblue" points="977.27,-9.79 967.03,-12.51 976.74,-16.77 977.27,-9.79"/>
</g>
<!-- Node22&#45;&gt;Node7 -->
<g id="edge42" class="edge">
<title>Node22&#45;&gt;Node7</title>
<path fill="none" stroke="midnightblue" d="M1528.98,-131.52C1527.55,-131.69 1526.14,-131.85 1524.74,-132 1348.75,-151.41 1142.28,-167.73 1024.89,-176.21"/>
<polygon fill="midnightblue" stroke="midnightblue" points="1024.58,-172.73 1014.85,-176.94 1025.08,-179.71 1024.58,-172.73"/>
</g>
<!-- Node22&#45;&gt;Node9 -->
<g id="edge41" class="edge">
<title>Node22&#45;&gt;Node9</title>
<path fill="none" stroke="midnightblue" d="M1552.67,-112.41C1503.65,-98.68 1403.26,-71.75 1316.74,-56 1192.15,-33.33 1041.94,-19.11 977.11,-13.61"/>
<polygon fill="midnightblue" stroke="midnightblue" points="977.36,-10.12 967.1,-12.77 976.77,-17.09 977.36,-10.12"/>
</g>
<!-- Node23&#45;&gt;Node9 -->
<g id="edge49" class="edge">
<title>Node23&#45;&gt;Node9</title>
<path fill="none" stroke="midnightblue" d="M256.78,-57.88C261.48,-57.17 266.21,-56.53 270.74,-56 516.63,-27.37 815.27,-15.36 912.49,-12.03"/>
<polygon fill="midnightblue" stroke="midnightblue" points="912.68,-15.52 922.56,-11.69 912.44,-8.53 912.68,-15.52"/>
</g>
<!-- Node23&#45;&gt;Node14 -->
<g id="edge48" class="edge">
<title>Node23&#45;&gt;Node14</title>
<path fill="none" stroke="midnightblue" d="M240.03,-56.44C264.55,-47.44 303.33,-33.19 330.94,-23.05"/>
<polygon fill="midnightblue" stroke="midnightblue" points="332.37,-26.25 340.55,-19.52 329.96,-19.68 332.37,-26.25"/>
</g>
<!-- Node24 -->
<g id="node24" class="node">
<title>Node24</title>
<g id="a_node24"><a xlink:title=" ">
<polygon fill="white" stroke="#bfbfbf" points="192.74,-0.5 192.74,-19.5 244.74,-19.5 244.74,-0.5 192.74,-0.5"/>
<text text-anchor="middle" x="218.74" y="-7.5" font-family="Helvetica,sans-Serif" font-size="10.00">cassert</text>
</a>
</g>
</g>
<!-- Node23&#45;&gt;Node24 -->
<g id="edge44" class="edge">
<title>Node23&#45;&gt;Node24</title>
<path fill="none" stroke="midnightblue" d="M217.07,-56.08C217.33,-49.01 217.71,-38.86 218.03,-29.99"/>
<polygon fill="midnightblue" stroke="midnightblue" points="221.54,-29.87 218.41,-19.75 214.55,-29.61 221.54,-29.87"/>
</g>
<!-- Node25 -->
<g id="node25" class="node">
<title>Node25</title>
<g id="a_node25"><a xlink:title=" ">
<polygon fill="white" stroke="#bfbfbf" points="263.24,-0.5 263.24,-19.5 314.24,-19.5 314.24,-0.5 263.24,-0.5"/>
<text text-anchor="middle" x="288.74" y="-7.5" font-family="Helvetica,sans-Serif" font-size="10.00">csignal</text>
</a>
</g>
</g>
<!-- Node23&#45;&gt;Node25 -->
<g id="edge45" class="edge">
<title>Node23&#45;&gt;Node25</title>
<path fill="none" stroke="midnightblue" d="M228.31,-56.32C239.16,-48.18 255.62,-35.84 268.62,-26.09"/>
<polygon fill="midnightblue" stroke="midnightblue" points="271.06,-28.63 276.96,-19.83 266.86,-23.03 271.06,-28.63"/>
</g>
<!-- Node26 -->
<g id="node26" class="node">
<title>Node26</title>
<g id="a_node26"><a xlink:title=" ">
<polygon fill="white" stroke="#bfbfbf" points="2.74,-0.5 2.74,-19.5 62.74,-19.5 62.74,-0.5 2.74,-0.5"/>
<text text-anchor="middle" x="32.74" y="-7.5" font-family="Helvetica,sans-Serif" font-size="10.00">iostream</text>
</a>
</g>
</g>
<!-- Node23&#45;&gt;Node26 -->
<g id="edge46" class="edge">
<title>Node23&#45;&gt;Node26</title>
<path fill="none" stroke="midnightblue" d="M187.58,-56.44C156.22,-47.24 106.21,-32.56 71.54,-22.39"/>
<polygon fill="midnightblue" stroke="midnightblue" points="72.34,-18.97 61.76,-19.52 70.37,-25.69 72.34,-18.97"/>
</g>
<!-- Node27 -->
<g id="node27" class="node">
<title>Node27</title>
<g id="a_node27"><a xlink:title=" ">
<polygon fill="white" stroke="#bfbfbf" points="81.24,-0.5 81.24,-19.5 174.24,-19.5 174.24,-0.5 81.24,-0.5"/>
<text text-anchor="middle" x="127.74" y="-7.5" font-family="Helvetica,sans-Serif" font-size="10.00">spdlog/spdlog.h</text>
</a>
</g>
</g>
<!-- Node23&#45;&gt;Node27 -->
<g id="edge47" class="edge">
<title>Node23&#45;&gt;Node27</title>
<path fill="none" stroke="midnightblue" d="M202.44,-56.32C188.56,-47.9 167.25,-34.97 150.93,-25.07"/>
<polygon fill="midnightblue" stroke="midnightblue" points="152.37,-21.85 142,-19.65 148.74,-27.83 152.37,-21.85"/>
</g>
<!-- Node30&#45;&gt;Node9 -->
<g id="edge58" class="edge">
<title>Node30&#45;&gt;Node9</title>
<path fill="none" stroke="midnightblue" d="M1798.71,-235.3C1800.02,-220.9 1801.35,-191.37 1793.74,-168 1775.32,-111.51 1772.14,-85.81 1720.74,-56 1655.74,-18.3 1116.49,-12.14 977.38,-11.17"/>
<polygon fill="midnightblue" stroke="midnightblue" points="977,-7.67 966.97,-11.11 976.95,-14.67 977,-7.67"/>
</g>
<!-- Node31 -->
<g id="node31" class="node">
<title>Node31</title>
<g id="a_node31"><a xlink:title=" ">
<polygon fill="white" stroke="#bfbfbf" points="1734.74,-174 1734.74,-193 1784.74,-193 1784.74,-174 1734.74,-174"/>
<text text-anchor="middle" x="1759.74" y="-181" font-family="Helvetica,sans-Serif" font-size="10.00">dlfcn.h</text>
</a>
</g>
</g>
<!-- Node30&#45;&gt;Node31 -->
<g id="edge57" class="edge">
<title>Node30&#45;&gt;Node31</title>
<path fill="none" stroke="midnightblue" d="M1792.29,-235.48C1786.65,-226.64 1777.68,-212.59 1770.58,-201.48"/>
<polygon fill="midnightblue" stroke="midnightblue" points="1773.5,-199.55 1765.17,-193.01 1767.61,-203.32 1773.5,-199.55"/>
</g>
</g>
</svg>
