<?xml version="1.0" encoding="UTF-8" standalone="no"?>
<!DOCTYPE svg PUBLIC "-//W3C//DTD SVG 1.1//EN"
 "http://www.w3.org/Graphics/SVG/1.1/DTD/svg11.dtd">
<!-- Generated by graphviz version 2.43.0 (0)
 -->
<!-- Title: src/modules/websock&#45;api/Messages.hpp Pages: 1 -->
<!--zoomable 240 -->
<svg id="main" version="1.1" xmlns="http://www.w3.org/2000/svg" xmlns:xlink="http://www.w3.org/1999/xlink" xml:space="preserve" onload="init(evt)">
<style type="text/css"><![CDATA[
.edge:hover path { stroke: red; }
.edge:hover polygon { stroke: red; fill: red; }
]]></style>
<script type="text/javascript"><![CDATA[
var edges = document.getElementsByTagName('g');
if (edges && edges.length) {
  for (var i=0;i<edges.length;i++) {
    if (edges[i].id.substr(0,4)=='edge') {
      edges[i].setAttribute('class','edge');
    }
  }
}
]]></script>
        <defs>
                <circle id="rim" cx="0" cy="0" r="7"/>
                <circle id="rim2" cx="0" cy="0" r="3.5"/>
                <g id="zoomPlus">
                        <use xlink:href="#rim" fill="#404040">
                                <set attributeName="fill" to="#808080" begin="zoomplus.mouseover" end="zoomplus.mouseout"/>
                        </use>
                        <path d="M-4,0h8M0,-4v8" fill="none" stroke="white" stroke-width="1.5" pointer-events="none"/>
                </g>
                <g id="zoomMin">
                        <use xlink:href="#rim" fill="#404040">
                                <set attributeName="fill" to="#808080" begin="zoomminus.mouseover" end="zoomminus.mouseout"/>
                        </use>
                        <path d="M-4,0h8" fill="none" stroke="white" stroke-width="1.5" pointer-events="none"/>
                </g>
                <g id="dirArrow">
                        <path fill="none" stroke="white" stroke-width="1.5" d="M0,-3.0v7 M-2.5,-0.5L0,-3.0L2.5,-0.5"/>
                </g>
               <g id="resetDef">
                       <use xlink:href="#rim2" fill="#404040">
                               <set attributeName="fill" to="#808080" begin="reset.mouseover" end="reset.mouseout"/>
                       </use>
               </g>
        </defs>

<script type="text/javascript">
var viewWidth = 2067;
var viewHeight = 240;
var sectionId = 'dynsection-1';
</script>
<script xlink:href="../../svgpan.js"/>
<svg id="graph" class="graph">
<g id="viewport">
<title>src/modules/websock&#45;api/Messages.hpp</title>
<polygon fill="white" stroke="transparent" points="-4,4 -4,-236 2063,-236 2063,4 -4,4"/>
<!-- Node1 -->
<g id="node1" class="node">
<title>Node1</title>
<g id="a_node1"><a xlink:title=" ">
<polygon fill="#bfbfbf" stroke="black" points="276,-201.5 276,-231.5 398,-231.5 398,-201.5 276,-201.5"/>
<text text-anchor="start" x="284" y="-219.5" font-family="Helvetica,sans-Serif" font-size="10.00">src/modules/websock</text>
<text text-anchor="middle" x="337" y="-208.5" font-family="Helvetica,sans-Serif" font-size="10.00">&#45;api/Messages.hpp</text>
</a>
</g>
</g>
<!-- Node2 -->
<g id="node2" class="node">
<title>Node2</title>
<g id="a_node2"><a xlink:href="../../d6/d95/PFDigitalModule_8cpp.html" target="_top" xlink:title=" ">
<polygon fill="white" stroke="black" points="101,-134.5 101,-164.5 241,-164.5 241,-134.5 101,-134.5"/>
<text text-anchor="start" x="109" y="-152.5" font-family="Helvetica,sans-Serif" font-size="10.00">src/modules/pifacedigital</text>
<text text-anchor="middle" x="171" y="-141.5" font-family="Helvetica,sans-Serif" font-size="10.00">/PFDigitalModule.cpp</text>
</a>
</g>
</g>
<!-- Node1&#45;&gt;Node2 -->
<g id="edge1" class="edge">
<title>Node1&#45;&gt;Node2</title>
<path fill="none" stroke="midnightblue" d="M291.49,-197.68C264.87,-187.26 231.73,-174.28 206.95,-164.58"/>
<polygon fill="midnightblue" stroke="midnightblue" points="290.39,-201.01 300.98,-201.4 292.95,-194.49 290.39,-201.01"/>
</g>
<!-- Node3 -->
<g id="node3" class="node">
<title>Node3</title>
<g id="a_node3"><a xlink:href="../../d7/d6d/ExceptionConverter_8hpp.html" target="_top" xlink:title=" ">
<polygon fill="white" stroke="black" points="259.5,-134.5 259.5,-164.5 414.5,-164.5 414.5,-134.5 259.5,-134.5"/>
<text text-anchor="start" x="267.5" y="-152.5" font-family="Helvetica,sans-Serif" font-size="10.00">src/modules/websock</text>
<text text-anchor="middle" x="337" y="-141.5" font-family="Helvetica,sans-Serif" font-size="10.00">&#45;api/ExceptionConverter.hpp</text>
</a>
</g>
</g>
<!-- Node1&#45;&gt;Node3 -->
<g id="edge2" class="edge">
<title>Node1&#45;&gt;Node3</title>
<path fill="none" stroke="midnightblue" d="M337,-191.11C337,-182.15 337,-172.32 337,-164.58"/>
<polygon fill="midnightblue" stroke="midnightblue" points="333.5,-191.4 337,-201.4 340.5,-191.4 333.5,-191.4"/>
</g>
<!-- Node7 -->
<g id="node7" class="node">
<title>Node7</title>
<g id="a_node7"><a xlink:href="../../d5/dde/WSServer_8hpp.html" target="_top" xlink:title=" ">
<polygon fill="white" stroke="black" points="1099,-134.5 1099,-164.5 1221,-164.5 1221,-134.5 1099,-134.5"/>
<text text-anchor="start" x="1107" y="-152.5" font-family="Helvetica,sans-Serif" font-size="10.00">src/modules/websock</text>
<text text-anchor="middle" x="1160" y="-141.5" font-family="Helvetica,sans-Serif" font-size="10.00">&#45;api/WSServer.hpp</text>
</a>
</g>
</g>
<!-- Node1&#45;&gt;Node7 -->
<g id="edge6" class="edge">
<title>Node1&#45;&gt;Node7</title>
<path fill="none" stroke="midnightblue" d="M408.35,-209.86C567.63,-197.28 949.86,-167.1 1098.97,-155.32"/>
<polygon fill="midnightblue" stroke="midnightblue" points="407.88,-206.39 398.19,-210.67 408.43,-213.37 407.88,-206.39"/>
</g>
<!-- Node4 -->
<g id="node4" class="node">
<title>Node4</title>
<g id="a_node4"><a xlink:href="../../da/d6f/SMTPModule_8cpp.html" target="_top" xlink:title=" ">
<polygon fill="white" stroke="black" points="0,-73 0,-92 190,-92 190,-73 0,-73"/>
<text text-anchor="middle" x="95" y="-80" font-family="Helvetica,sans-Serif" font-size="10.00">src/modules/smtp/SMTPModule.cpp</text>
</a>
</g>
</g>
<!-- Node3&#45;&gt;Node4 -->
<g id="edge3" class="edge">
<title>Node3&#45;&gt;Node4</title>
<path fill="none" stroke="midnightblue" d="M274.94,-131.83C227.58,-119.11 164.27,-102.11 126.75,-92.03"/>
<polygon fill="midnightblue" stroke="midnightblue" points="274.22,-135.26 284.79,-134.48 276.04,-128.5 274.22,-135.26"/>
</g>
<!-- Node5 -->
<g id="node5" class="node">
<title>Node5</title>
<g id="a_node5"><a xlink:href="../../d7/d0b/ExceptionConverter_8cpp.html" target="_top" xlink:title=" ">
<polygon fill="white" stroke="black" points="208,-67.5 208,-97.5 362,-97.5 362,-67.5 208,-67.5"/>
<text text-anchor="start" x="216" y="-85.5" font-family="Helvetica,sans-Serif" font-size="10.00">src/modules/websock</text>
<text text-anchor="middle" x="285" y="-74.5" font-family="Helvetica,sans-Serif" font-size="10.00">&#45;api/ExceptionConverter.cpp</text>
</a>
</g>
</g>
<!-- Node3&#45;&gt;Node5 -->
<g id="edge4" class="edge">
<title>Node3&#45;&gt;Node5</title>
<path fill="none" stroke="midnightblue" d="M319.36,-126.45C311.72,-116.9 303,-106 296.26,-97.58"/>
<polygon fill="midnightblue" stroke="midnightblue" points="316.74,-128.77 325.72,-134.4 322.2,-124.4 316.74,-128.77"/>
</g>
<!-- Node6 -->
<g id="node6" class="node">
<title>Node6</title>
<g id="a_node6"><a xlink:href="../../d4/d2c/WSServer_8cpp.html" target="_top" xlink:title=" ">
<polygon fill="white" stroke="black" points="367,-0.5 367,-30.5 489,-30.5 489,-0.5 367,-0.5"/>
<text text-anchor="start" x="375" y="-18.5" font-family="Helvetica,sans-Serif" font-size="10.00">src/modules/websock</text>
<text text-anchor="middle" x="428" y="-7.5" font-family="Helvetica,sans-Serif" font-size="10.00">&#45;api/WSServer.cpp</text>
</a>
</g>
</g>
<!-- Node3&#45;&gt;Node6 -->
<g id="edge5" class="edge">
<title>Node3&#45;&gt;Node6</title>
<path fill="none" stroke="midnightblue" d="M352.63,-125.83C371.49,-98.47 402.64,-53.28 418.33,-30.52"/>
<polygon fill="midnightblue" stroke="midnightblue" points="349.53,-124.15 346.74,-134.37 355.3,-128.13 349.53,-124.15"/>
</g>
<!-- Node7&#45;&gt;Node6 -->
<g id="edge21" class="edge">
<title>Node7&#45;&gt;Node6</title>
<path fill="none" stroke="midnightblue" d="M1088.63,-148.17C917.62,-146.72 495.05,-138.99 447,-98 427.55,-81.41 425.86,-49.11 426.71,-30.54"/>
<polygon fill="midnightblue" stroke="midnightblue" points="1088.76,-151.67 1098.79,-148.25 1088.82,-144.67 1088.76,-151.67"/>
</g>
<!-- Node8 -->
<g id="node8" class="node">
<title>Node8</title>
<g id="a_node8"><a xlink:href="../../d7/d29/AccessPointCRUD_8cpp.html" target="_top" xlink:title=" ">
<polygon fill="white" stroke="black" points="456,-67.5 456,-97.5 620,-97.5 620,-67.5 456,-67.5"/>
<text text-anchor="start" x="464" y="-85.5" font-family="Helvetica,sans-Serif" font-size="10.00">src/modules/websock</text>
<text text-anchor="middle" x="538" y="-74.5" font-family="Helvetica,sans-Serif" font-size="10.00">&#45;api/api/AccessPointCRUD.cpp</text>
</a>
</g>
</g>
<!-- Node7&#45;&gt;Node8 -->
<g id="edge7" class="edge">
<title>Node7&#45;&gt;Node8</title>
<path fill="none" stroke="midnightblue" d="M1088.75,-143.16C986.7,-135.19 793.08,-118.85 629,-98 626.14,-97.64 623.24,-97.25 620.31,-96.85"/>
<polygon fill="midnightblue" stroke="midnightblue" points="1088.7,-146.67 1098.94,-143.95 1089.24,-139.69 1088.7,-146.67"/>
</g>
<!-- Node9 -->
<g id="node9" class="node">
<title>Node9</title>
<g id="a_node9"><a xlink:href="../../d7/d86/APIAuth_8cpp.html" target="_top" xlink:title=" ">
<polygon fill="white" stroke="black" points="638,-67.5 638,-97.5 760,-97.5 760,-67.5 638,-67.5"/>
<text text-anchor="start" x="646" y="-85.5" font-family="Helvetica,sans-Serif" font-size="10.00">src/modules/websock</text>
<text text-anchor="middle" x="699" y="-74.5" font-family="Helvetica,sans-Serif" font-size="10.00">&#45;api/api/APIAuth.cpp</text>
</a>
</g>
</g>
<!-- Node7&#45;&gt;Node9 -->
<g id="edge8" class="edge">
<title>Node7&#45;&gt;Node9</title>
<path fill="none" stroke="midnightblue" d="M1088.57,-140.92C1009.99,-132.2 880.11,-116.66 769,-98 766.06,-97.51 763.06,-96.98 760.03,-96.43"/>
<polygon fill="midnightblue" stroke="midnightblue" points="1088.51,-144.44 1098.83,-142.05 1089.28,-137.48 1088.51,-144.44"/>
</g>
<!-- Node10 -->
<g id="node10" class="node">
<title>Node10</title>
<g id="a_node10"><a xlink:href="../../d9/d8d/APISession_8cpp.html" target="_top" xlink:title=" ">
<polygon fill="white" stroke="black" points="778,-67.5 778,-97.5 908,-97.5 908,-67.5 778,-67.5"/>
<text text-anchor="start" x="786" y="-85.5" font-family="Helvetica,sans-Serif" font-size="10.00">src/modules/websock</text>
<text text-anchor="middle" x="843" y="-74.5" font-family="Helvetica,sans-Serif" font-size="10.00">&#45;api/api/APISession.cpp</text>
</a>
</g>
</g>
<!-- Node7&#45;&gt;Node10 -->
<g id="edge9" class="edge">
<title>Node7&#45;&gt;Node10</title>
<path fill="none" stroke="midnightblue" d="M1089,-133.94C1034.79,-122.83 960.69,-107.63 908.02,-96.83"/>
<polygon fill="midnightblue" stroke="midnightblue" points="1088.38,-137.39 1098.88,-135.97 1089.79,-130.53 1088.38,-137.39"/>
</g>
<!-- Node11 -->
<g id="node11" class="node">
<title>Node11</title>
<g id="a_node11"><a xlink:href="../../da/d62/AuditGet_8cpp.html" target="_top" xlink:title=" ">
<polygon fill="white" stroke="black" points="926,-67.5 926,-97.5 1048,-97.5 1048,-67.5 926,-67.5"/>
<text text-anchor="start" x="934" y="-85.5" font-family="Helvetica,sans-Serif" font-size="10.00">src/modules/websock</text>
<text text-anchor="middle" x="987" y="-74.5" font-family="Helvetica,sans-Serif" font-size="10.00">&#45;api/api/AuditGet.cpp</text>
</a>
</g>
</g>
<!-- Node7&#45;&gt;Node11 -->
<g id="edge10" class="edge">
<title>Node7&#45;&gt;Node11</title>
<path fill="none" stroke="midnightblue" d="M1112.94,-130.82C1085.13,-120.37 1050.41,-107.32 1024.47,-97.58"/>
<polygon fill="midnightblue" stroke="midnightblue" points="1111.87,-134.16 1122.46,-134.4 1114.33,-127.6 1111.87,-134.16"/>
</g>
<!-- Node12 -->
<g id="node12" class="node">
<title>Node12</title>
<g id="a_node12"><a xlink:href="../../d5/dcb/CRUDResourceHandler_8cpp.html" target="_top" xlink:title=" ">
<polygon fill="white" stroke="black" points="1066,-67.5 1066,-97.5 1254,-97.5 1254,-67.5 1066,-67.5"/>
<text text-anchor="start" x="1074" y="-85.5" font-family="Helvetica,sans-Serif" font-size="10.00">src/modules/websock</text>
<text text-anchor="middle" x="1160" y="-74.5" font-family="Helvetica,sans-Serif" font-size="10.00">&#45;api/api/CRUDResourceHandler.cpp</text>
</a>
</g>
</g>
<!-- Node7&#45;&gt;Node12 -->
<g id="edge11" class="edge">
<title>Node7&#45;&gt;Node12</title>
<path fill="none" stroke="midnightblue" d="M1160,-124.11C1160,-115.15 1160,-105.32 1160,-97.58"/>
<polygon fill="midnightblue" stroke="midnightblue" points="1156.5,-124.4 1160,-134.4 1163.5,-124.4 1156.5,-124.4"/>
</g>
<!-- Node13 -->
<g id="node13" class="node">
<title>Node13</title>
<g id="a_node13"><a xlink:href="../../d9/d7c/MethodHandler_8cpp.html" target="_top" xlink:title=" ">
<polygon fill="white" stroke="black" points="1272.5,-67.5 1272.5,-97.5 1423.5,-97.5 1423.5,-67.5 1272.5,-67.5"/>
<text text-anchor="start" x="1280.5" y="-85.5" font-family="Helvetica,sans-Serif" font-size="10.00">src/modules/websock</text>
<text text-anchor="middle" x="1348" y="-74.5" font-family="Helvetica,sans-Serif" font-size="10.00">&#45;api/api/MethodHandler.cpp</text>
</a>
</g>
</g>
<!-- Node7&#45;&gt;Node13 -->
<g id="edge12" class="edge">
<title>Node7&#45;&gt;Node13</title>
<path fill="none" stroke="midnightblue" d="M1210.35,-131.09C1240.7,-120.6 1278.85,-107.41 1307.29,-97.58"/>
<polygon fill="midnightblue" stroke="midnightblue" points="1209.1,-127.82 1200.79,-134.4 1211.39,-134.44 1209.1,-127.82"/>
</g>
<!-- Node14 -->
<g id="node14" class="node">
<title>Node14</title>
<g id="a_node14"><a xlink:href="../../d7/da0/PasswordChange_8cpp.html" target="_top" xlink:title=" ">
<polygon fill="white" stroke="black" points="1441.5,-67.5 1441.5,-97.5 1600.5,-97.5 1600.5,-67.5 1441.5,-67.5"/>
<text text-anchor="start" x="1449.5" y="-85.5" font-family="Helvetica,sans-Serif" font-size="10.00">src/modules/websock</text>
<text text-anchor="middle" x="1521" y="-74.5" font-family="Helvetica,sans-Serif" font-size="10.00">&#45;api/api/PasswordChange.cpp</text>
</a>
</g>
</g>
<!-- Node7&#45;&gt;Node14 -->
<g id="edge13" class="edge">
<title>Node7&#45;&gt;Node14</title>
<path fill="none" stroke="midnightblue" d="M1231.18,-135.68C1292.25,-124.69 1380.11,-108.87 1443.06,-97.53"/>
<polygon fill="midnightblue" stroke="midnightblue" points="1230.46,-132.26 1221.24,-137.47 1231.7,-139.15 1230.46,-132.26"/>
</g>
<!-- Node15 -->
<g id="node15" class="node">
<title>Node15</title>
<g id="a_node15"><a xlink:href="../../d1/d43/Restart_8cpp.html" target="_top" xlink:title=" ">
<polygon fill="white" stroke="black" points="1619,-67.5 1619,-97.5 1741,-97.5 1741,-67.5 1619,-67.5"/>
<text text-anchor="start" x="1627" y="-85.5" font-family="Helvetica,sans-Serif" font-size="10.00">src/modules/websock</text>
<text text-anchor="middle" x="1680" y="-74.5" font-family="Helvetica,sans-Serif" font-size="10.00">&#45;api/api/Restart.cpp</text>
</a>
</g>
</g>
<!-- Node7&#45;&gt;Node15 -->
<g id="edge14" class="edge">
<title>Node7&#45;&gt;Node15</title>
<path fill="none" stroke="midnightblue" d="M1231.46,-142.45C1320.28,-134.48 1476.34,-118.96 1609,-98 1612.23,-97.49 1615.54,-96.93 1618.87,-96.35"/>
<polygon fill="midnightblue" stroke="midnightblue" points="1230.89,-138.99 1221.24,-143.36 1231.51,-145.96 1230.89,-138.99"/>
</g>
<!-- Node16 -->
<g id="node16" class="node">
<title>Node16</title>
<g id="a_node16"><a xlink:href="../../d9/d90/WebSockAPI_8hpp.html" target="_top" xlink:title=" ">
<polygon fill="white" stroke="black" points="1759,-67.5 1759,-97.5 1881,-97.5 1881,-67.5 1759,-67.5"/>
<text text-anchor="start" x="1767" y="-85.5" font-family="Helvetica,sans-Serif" font-size="10.00">src/modules/websock</text>
<text text-anchor="middle" x="1820" y="-74.5" font-family="Helvetica,sans-Serif" font-size="10.00">&#45;api/WebSockAPI.hpp</text>
</a>
</g>
</g>
<!-- Node7&#45;&gt;Node16 -->
<g id="edge15" class="edge">
<title>Node7&#45;&gt;Node16</title>
<path fill="none" stroke="midnightblue" d="M1231.09,-145.15C1342.25,-139.3 1563.8,-125.16 1750,-98 1752.95,-97.57 1755.96,-97.09 1758.99,-96.58"/>
<polygon fill="midnightblue" stroke="midnightblue" points="1230.81,-141.66 1221,-145.67 1231.17,-148.65 1230.81,-141.66"/>
</g>
<!-- Node18 -->
<g id="node18" class="node">
<title>Node18</title>
<g id="a_node18"><a xlink:href="../../d9/d6b/WebSockAPI_8cpp.html" target="_top" xlink:title=" ">
<polygon fill="white" stroke="black" points="1848,-0.5 1848,-30.5 1970,-30.5 1970,-0.5 1848,-0.5"/>
<text text-anchor="start" x="1856" y="-18.5" font-family="Helvetica,sans-Serif" font-size="10.00">src/modules/websock</text>
<text text-anchor="middle" x="1909" y="-7.5" font-family="Helvetica,sans-Serif" font-size="10.00">&#45;api/WebSockAPI.cpp</text>
</a>
</g>
</g>
<!-- Node7&#45;&gt;Node18 -->
<g id="edge20" class="edge">
<title>Node7&#45;&gt;Node18</title>
<path fill="none" stroke="midnightblue" d="M1231.24,-148.3C1405.1,-147.15 1840.6,-140.07 1890,-98 1909.47,-81.42 1911.15,-49.12 1910.3,-30.55"/>
<polygon fill="midnightblue" stroke="midnightblue" points="1231.14,-144.8 1221.16,-148.36 1231.18,-151.8 1231.14,-144.8"/>
</g>
<!-- Node19 -->
<g id="node19" class="node">
<title>Node19</title>
<g id="a_node19"><a xlink:href="../../d2/dc4/Service_8cpp.html" target="_top" xlink:title=" ">
<polygon fill="white" stroke="black" points="1937,-67.5 1937,-97.5 2059,-97.5 2059,-67.5 1937,-67.5"/>
<text text-anchor="start" x="1945" y="-85.5" font-family="Helvetica,sans-Serif" font-size="10.00">src/modules/websock</text>
<text text-anchor="middle" x="1998" y="-74.5" font-family="Helvetica,sans-Serif" font-size="10.00">&#45;api/Service.cpp</text>
</a>
</g>
</g>
<!-- Node7&#45;&gt;Node19 -->
<g id="edge19" class="edge">
<title>Node7&#45;&gt;Node19</title>
<path fill="none" stroke="midnightblue" d="M1231.31,-146.75C1366.66,-142.77 1669.89,-130.71 1923,-98 1927.47,-97.42 1932.08,-96.74 1936.71,-96"/>
<polygon fill="midnightblue" stroke="midnightblue" points="1230.97,-143.26 1221.08,-147.05 1231.17,-150.26 1230.97,-143.26"/>
</g>
<!-- Node16&#45;&gt;Node6 -->
<g id="edge18" class="edge">
<title>Node16&#45;&gt;Node6</title>
<path fill="none" stroke="midnightblue" d="M1748.57,-67C1481.19,-36.29 712,-21.29 489.14,-17.49"/>
<polygon fill="midnightblue" stroke="midnightblue" points="1748.29,-70.49 1758.64,-68.19 1749.12,-63.54 1748.29,-70.49"/>
</g>
<!-- Node17 -->
<g id="node17" class="node">
<title>Node17</title>
<g id="a_node17"><a xlink:href="../../de/d22/websock-api_2init_8cpp.html" target="_top" xlink:title=" ">
<polygon fill="white" stroke="black" points="1708,-0.5 1708,-30.5 1830,-30.5 1830,-0.5 1708,-0.5"/>
<text text-anchor="start" x="1716" y="-18.5" font-family="Helvetica,sans-Serif" font-size="10.00">src/modules/websock</text>
<text text-anchor="middle" x="1769" y="-7.5" font-family="Helvetica,sans-Serif" font-size="10.00">&#45;api/init.cpp</text>
</a>
</g>
</g>
<!-- Node16&#45;&gt;Node17 -->
<g id="edge16" class="edge">
<title>Node16&#45;&gt;Node17</title>
<path fill="none" stroke="midnightblue" d="M1802.7,-59.45C1795.21,-49.9 1786.66,-39 1780.04,-30.58"/>
<polygon fill="midnightblue" stroke="midnightblue" points="1800.01,-61.69 1808.93,-67.4 1805.51,-57.37 1800.01,-61.69"/>
</g>
<!-- Node16&#45;&gt;Node18 -->
<g id="edge17" class="edge">
<title>Node16&#45;&gt;Node18</title>
<path fill="none" stroke="midnightblue" d="M1847.45,-61.45C1861.14,-51.45 1877.37,-39.6 1889.73,-30.58"/>
<polygon fill="midnightblue" stroke="midnightblue" points="1845.32,-58.67 1839.31,-67.4 1849.45,-64.32 1845.32,-58.67"/>
</g>
</g>
</svg>
        <g id="navigator" transform="translate(0 0)" fill="#404254">
                <rect fill="#f2f5e9" fill-opacity="0.5" stroke="#606060" stroke-width=".5" x="0" y="0" width="60" height="60"/>
                <use id="zoomplus" xlink:href="#zoomPlus" x="17" y="9" onmousedown="handleZoom(evt,'in')"/>
                <use id="zoomminus" xlink:href="#zoomMin" x="42" y="9" onmousedown="handleZoom(evt,'out')"/>
                <use id="reset" xlink:href="#resetDef" x="30" y="36" onmousedown="handleReset()"/>
                <g id="arrowUp" xlink:href="#dirArrow" transform="translate(30 24)" onmousedown="handlePan(0,-1)">
                  <use xlink:href="#rim" fill="#404040">
                        <set attributeName="fill" to="#808080" begin="arrowUp.mouseover" end="arrowUp.mouseout"/>
                  </use>
                  <path fill="none" stroke="white" stroke-width="1.5" d="M0,-3.0v7 M-2.5,-0.5L0,-3.0L2.5,-0.5"/>
                </g>
                <g id="arrowRight" xlink:href="#dirArrow" transform="rotate(90) translate(36 -43)" onmousedown="handlePan(1,0)">
                  <use xlink:href="#rim" fill="#404040">
                        <set attributeName="fill" to="#808080" begin="arrowRight.mouseover" end="arrowRight.mouseout"/>
                  </use>
                  <path fill="none" stroke="white" stroke-width="1.5" d="M0,-3.0v7 M-2.5,-0.5L0,-3.0L2.5,-0.5"/>
                </g>
                <g id="arrowDown" xlink:href="#dirArrow" transform="rotate(180) translate(-30 -48)" onmousedown="handlePan(0,1)">
                  <use xlink:href="#rim" fill="#404040">
                        <set attributeName="fill" to="#808080" begin="arrowDown.mouseover" end="arrowDown.mouseout"/>
                  </use>
                  <path fill="none" stroke="white" stroke-width="1.5" d="M0,-3.0v7 M-2.5,-0.5L0,-3.0L2.5,-0.5"/>
                </g>
                <g id="arrowLeft" xlink:href="#dirArrow" transform="rotate(270) translate(-36 17)" onmousedown="handlePan(-1,0)">
                  <use xlink:href="#rim" fill="#404040">
                        <set attributeName="fill" to="#808080" begin="arrowLeft.mouseover" end="arrowLeft.mouseout"/>
                  </use>
                  <path fill="none" stroke="white" stroke-width="1.5" d="M0,-3.0v7 M-2.5,-0.5L0,-3.0L2.5,-0.5"/>
                </g>
        </g>
        <svg viewBox="0 0 15 15" width="100%" height="30px" preserveAspectRatio="xMaxYMin meet">
         <g id="arrow_out" transform="scale(0.3 0.3)">
          <a xlink:href="Messages_8hpp__dep__incl_org.svg" target="_base">
           <rect id="button" ry="5" rx="5" y="6" x="6" height="38" width="38"
                fill="#f2f5e9" fill-opacity="0.5" stroke="#606060" stroke-width="1.0"/>
           <path id="arrow"
             d="M 11.500037,31.436501 C 11.940474,20.09759 22.043105,11.32322 32.158766,21.979434 L 37.068811,17.246167 C 37.068811,17.246167 37.088388,32 37.088388,32 L 22.160133,31.978069 C 22.160133,31.978069 26.997745,27.140456 26.997745,27.140456 C 18.528582,18.264221 13.291696,25.230495 11.500037,31.436501 z"
             style="fill:#404040;"/>
          </a>
         </g>
        </svg>
</svg>
