<?xml version="1.0" encoding="UTF-8" standalone="no"?>
<!DOCTYPE svg PUBLIC "-//W3C//DTD SVG 1.1//EN"
 "http://www.w3.org/Graphics/SVG/1.1/DTD/svg11.dtd">
<!-- Generated by graphviz version 2.43.0 (0)
 -->
<!-- Title: src/tools/ISchedule.hpp Pages: 1 -->
<svg width="3769pt" height="430pt"
 viewBox="0.00 0.00 3769.00 430.00" xmlns="http://www.w3.org/2000/svg" xmlns:xlink="http://www.w3.org/1999/xlink">
<g id="graph0" class="graph" transform="scale(1 1) rotate(0) translate(4 426)">
<title>src/tools/ISchedule.hpp</title>
<polygon fill="white" stroke="transparent" points="-4,4 -4,-426 3765,-426 3765,4 -4,4"/>
<!-- Node1 -->
<g id="node1" class="node">
<title>Node1</title>
<g id="a_node1"><a xlink:title=" ">
<polygon fill="#bfbfbf" stroke="black" points="2986,-402.5 2986,-421.5 3115,-421.5 3115,-402.5 2986,-402.5"/>
<text text-anchor="middle" x="3050.5" y="-409.5" font-family="Helvetica,sans-Serif" font-size="10.00">src/tools/ISchedule.hpp</text>
</a>
</g>
</g>
<!-- Node2 -->
<g id="node2" class="node">
<title>Node2</title>
<g id="a_node2"><a xlink:href="../../d1/d04/AuthTarget_8hpp.html" target="_top" xlink:title=" ">
<polygon fill="white" stroke="black" points="2158.5,-341 2158.5,-360 2314.5,-360 2314.5,-341 2158.5,-341"/>
<text text-anchor="middle" x="2236.5" y="-348" font-family="Helvetica,sans-Serif" font-size="10.00">src/core/auth/AuthTarget.hpp</text>
</a>
</g>
</g>
<!-- Node1&#45;&gt;Node2 -->
<g id="edge1" class="edge">
<title>Node1&#45;&gt;Node2</title>
<path fill="none" stroke="midnightblue" d="M2975.65,-405.53C2821.76,-394.28 2471.17,-368.65 2314.57,-357.21"/>
<polygon fill="midnightblue" stroke="midnightblue" points="2975.72,-409.04 2985.95,-406.28 2976.23,-402.06 2975.72,-409.04"/>
</g>
<!-- Node53 -->
<g id="node42" class="node">
<title>Node53</title>
<g id="a_node42"><a xlink:href="../../df/dfa/ScheduleCRUD_8cpp.html" target="_top" xlink:title=" ">
<polygon fill="white" stroke="black" points="3465,-268.5 3465,-298.5 3614,-298.5 3614,-268.5 3465,-268.5"/>
<text text-anchor="start" x="3473" y="-286.5" font-family="Helvetica,sans-Serif" font-size="10.00">src/modules/websock</text>
<text text-anchor="middle" x="3539.5" y="-275.5" font-family="Helvetica,sans-Serif" font-size="10.00">&#45;api/api/ScheduleCRUD.cpp</text>
</a>
</g>
</g>
<!-- Node1&#45;&gt;Node53 -->
<g id="edge50" class="edge">
<title>Node1&#45;&gt;Node53</title>
<path fill="none" stroke="midnightblue" d="M3093.5,-399.88C3182.64,-376.82 3387.39,-323.85 3485.35,-298.51"/>
<polygon fill="midnightblue" stroke="midnightblue" points="3092.53,-396.51 3083.73,-402.4 3094.28,-403.29 3092.53,-396.51"/>
</g>
<!-- Node54 -->
<g id="node43" class="node">
<title>Node54</title>
<g id="a_node43"><a xlink:href="../../d9/d58/Schedule_8hpp.html" target="_top" xlink:title=" ">
<polygon fill="white" stroke="black" points="2987.5,-341 2987.5,-360 3113.5,-360 3113.5,-341 2987.5,-341"/>
<text text-anchor="middle" x="3050.5" y="-348" font-family="Helvetica,sans-Serif" font-size="10.00">src/tools/Schedule.hpp</text>
</a>
</g>
</g>
<!-- Node1&#45;&gt;Node54 -->
<g id="edge51" class="edge">
<title>Node1&#45;&gt;Node54</title>
<path fill="none" stroke="midnightblue" d="M3050.5,-392.32C3050.5,-381.5 3050.5,-368.4 3050.5,-360.01"/>
<polygon fill="midnightblue" stroke="midnightblue" points="3047,-392.48 3050.5,-402.48 3054,-392.48 3047,-392.48"/>
</g>
<!-- Node59 -->
<g id="node48" class="node">
<title>Node59</title>
<g id="a_node48"><a xlink:href="../../da/da2/ScheduleSerializer_8hpp.html" target="_top" xlink:title=" ">
<polygon fill="white" stroke="black" points="3474.5,-335.5 3474.5,-365.5 3604.5,-365.5 3604.5,-335.5 3474.5,-335.5"/>
<text text-anchor="start" x="3482.5" y="-353.5" font-family="Helvetica,sans-Serif" font-size="10.00">src/tools/serializers</text>
<text text-anchor="middle" x="3539.5" y="-342.5" font-family="Helvetica,sans-Serif" font-size="10.00">/ScheduleSerializer.hpp</text>
</a>
</g>
</g>
<!-- Node1&#45;&gt;Node59 -->
<g id="edge59" class="edge">
<title>Node1&#45;&gt;Node59</title>
<path fill="none" stroke="midnightblue" d="M3125.32,-401.9C3220.61,-390.3 3383.74,-370.45 3474.22,-359.44"/>
<polygon fill="midnightblue" stroke="midnightblue" points="3124.69,-398.45 3115.18,-403.13 3125.53,-405.4 3124.69,-398.45"/>
</g>
<!-- Node61 -->
<g id="node50" class="node">
<title>Node61</title>
<g id="a_node50"><a xlink:href="../../d4/da0/XmlScheduleLoader_8hpp.html" target="_top" xlink:title=" ">
<polygon fill="white" stroke="black" points="2574.5,-341 2574.5,-360 2752.5,-360 2752.5,-341 2574.5,-341"/>
<text text-anchor="middle" x="2663.5" y="-348" font-family="Helvetica,sans-Serif" font-size="10.00">src/tools/XmlScheduleLoader.hpp</text>
</a>
</g>
</g>
<!-- Node1&#45;&gt;Node61 -->
<g id="edge62" class="edge">
<title>Node1&#45;&gt;Node61</title>
<path fill="none" stroke="midnightblue" d="M2984.81,-400.9C2910,-389.4 2789.06,-370.8 2718.84,-360.01"/>
<polygon fill="midnightblue" stroke="midnightblue" points="2984.64,-404.41 2995.05,-402.48 2985.7,-397.5 2984.64,-404.41"/>
</g>
<!-- Node3 -->
<g id="node3" class="node">
<title>Node3</title>
<g id="a_node3"><a xlink:href="../../dc/d6f/AuthTarget_8cpp.html" target="_top" xlink:title=" ">
<polygon fill="white" stroke="black" points="2159,-274 2159,-293 2314,-293 2314,-274 2159,-274"/>
<text text-anchor="middle" x="2236.5" y="-281" font-family="Helvetica,sans-Serif" font-size="10.00">src/core/auth/AuthTarget.cpp</text>
</a>
</g>
</g>
<!-- Node2&#45;&gt;Node3 -->
<g id="edge2" class="edge">
<title>Node2&#45;&gt;Node3</title>
<path fill="none" stroke="midnightblue" d="M2236.5,-330.54C2236.5,-318.17 2236.5,-302.62 2236.5,-293.13"/>
<polygon fill="midnightblue" stroke="midnightblue" points="2233,-330.73 2236.5,-340.73 2240,-330.73 2233,-330.73"/>
</g>
<!-- Node4 -->
<g id="node4" class="node">
<title>Node4</title>
<g id="a_node4"><a xlink:href="../../d4/d86/IAccessProfile_8hpp.html" target="_top" xlink:title=" ">
<polygon fill="white" stroke="black" points="1730,-268.5 1730,-298.5 1861,-298.5 1861,-268.5 1730,-268.5"/>
<text text-anchor="start" x="1738" y="-286.5" font-family="Helvetica,sans-Serif" font-size="10.00">src/core/auth/Interfaces</text>
<text text-anchor="middle" x="1795.5" y="-275.5" font-family="Helvetica,sans-Serif" font-size="10.00">/IAccessProfile.hpp</text>
</a>
</g>
</g>
<!-- Node2&#45;&gt;Node4 -->
<g id="edge3" class="edge">
<title>Node2&#45;&gt;Node4</title>
<path fill="none" stroke="midnightblue" d="M2168.49,-339.48C2084.86,-327.15 1943.88,-306.37 1861.29,-294.2"/>
<polygon fill="midnightblue" stroke="midnightblue" points="2167.99,-342.94 2178.39,-340.94 2169.01,-336.01 2167.99,-342.94"/>
</g>
<!-- Node19 -->
<g id="node12" class="node">
<title>Node19</title>
<g id="a_node12"><a xlink:href="../../d9/dfe/SimpleAccessProfile_8hpp.html" target="_top" xlink:title=" ">
<polygon fill="white" stroke="black" points="1897.5,-201.5 1897.5,-231.5 2047.5,-231.5 2047.5,-201.5 1897.5,-201.5"/>
<text text-anchor="start" x="1905.5" y="-219.5" font-family="Helvetica,sans-Serif" font-size="10.00">src/core/auth/SimpleAccess</text>
<text text-anchor="middle" x="1972.5" y="-208.5" font-family="Helvetica,sans-Serif" font-size="10.00">Profile.hpp</text>
</a>
</g>
</g>
<!-- Node2&#45;&gt;Node19 -->
<g id="edge41" class="edge">
<title>Node2&#45;&gt;Node19</title>
<path fill="none" stroke="midnightblue" d="M2157.25,-339.5C2101.17,-331.03 2032.09,-317.33 2009.5,-299 1988.39,-281.86 1978.85,-250.07 1974.93,-231.67"/>
<polygon fill="midnightblue" stroke="midnightblue" points="2156.79,-342.97 2167.19,-340.96 2157.81,-336.04 2156.79,-342.97"/>
</g>
<!-- Node45 -->
<g id="node34" class="node">
<title>Node45</title>
<g id="a_node34"><a xlink:href="../../dc/dcc/DoormanDoor_8cpp.html" target="_top" xlink:title=" ">
<polygon fill="white" stroke="black" points="2018.5,-268.5 2018.5,-298.5 2140.5,-298.5 2140.5,-268.5 2018.5,-268.5"/>
<text text-anchor="start" x="2026.5" y="-286.5" font-family="Helvetica,sans-Serif" font-size="10.00">src/modules/doorman</text>
<text text-anchor="middle" x="2079.5" y="-275.5" font-family="Helvetica,sans-Serif" font-size="10.00">/DoormanDoor.cpp</text>
</a>
</g>
</g>
<!-- Node2&#45;&gt;Node45 -->
<g id="edge42" class="edge">
<title>Node2&#45;&gt;Node45</title>
<path fill="none" stroke="midnightblue" d="M2206.1,-336.91C2179.51,-325.91 2140.95,-309.94 2113.38,-298.53"/>
<polygon fill="midnightblue" stroke="midnightblue" points="2205.07,-340.28 2215.65,-340.87 2207.75,-333.81 2205.07,-340.28"/>
</g>
<!-- Node46 -->
<g id="node35" class="node">
<title>Node46</title>
<g id="a_node35"><a xlink:href="../../de/d46/DoormanModule_8hpp.html" target="_top" xlink:title=" ">
<polygon fill="white" stroke="black" points="2332.5,-268.5 2332.5,-298.5 2454.5,-298.5 2454.5,-268.5 2332.5,-268.5"/>
<text text-anchor="start" x="2340.5" y="-286.5" font-family="Helvetica,sans-Serif" font-size="10.00">src/modules/doorman</text>
<text text-anchor="middle" x="2393.5" y="-275.5" font-family="Helvetica,sans-Serif" font-size="10.00">/DoormanModule.hpp</text>
</a>
</g>
</g>
<!-- Node2&#45;&gt;Node46 -->
<g id="edge43" class="edge">
<title>Node2&#45;&gt;Node46</title>
<path fill="none" stroke="midnightblue" d="M2266.9,-336.91C2293.49,-325.91 2332.05,-309.94 2359.62,-298.53"/>
<polygon fill="midnightblue" stroke="midnightblue" points="2265.25,-333.81 2257.35,-340.87 2267.93,-340.28 2265.25,-333.81"/>
</g>
<!-- Node50 -->
<g id="node39" class="node">
<title>Node50</title>
<g id="a_node39"><a xlink:href="../../d3/d6c/EventPublish_8h.html" target="_top" xlink:title=" ">
<polygon fill="white" stroke="black" points="2489.5,-268.5 2489.5,-298.5 2635.5,-298.5 2635.5,-268.5 2489.5,-268.5"/>
<text text-anchor="start" x="2497.5" y="-286.5" font-family="Helvetica,sans-Serif" font-size="10.00">src/modules/event&#45;publish</text>
<text text-anchor="middle" x="2562.5" y="-275.5" font-family="Helvetica,sans-Serif" font-size="10.00">/EventPublish.h</text>
</a>
</g>
</g>
<!-- Node2&#45;&gt;Node50 -->
<g id="edge47" class="edge">
<title>Node2&#45;&gt;Node50</title>
<path fill="none" stroke="midnightblue" d="M2289.36,-338.96C2344.46,-327.98 2431.09,-310.7 2491.99,-298.56"/>
<polygon fill="midnightblue" stroke="midnightblue" points="2288.58,-335.55 2279.45,-340.94 2289.95,-342.41 2288.58,-335.55"/>
</g>
<!-- Node5 -->
<g id="node5" class="node">
<title>Node5</title>
<g id="a_node5"><a xlink:href="../../d7/d86/IDoor_8hpp.html" target="_top" xlink:title=" ">
<polygon fill="white" stroke="black" points="1564,-207 1564,-226 1693,-226 1693,-207 1564,-207"/>
<text text-anchor="middle" x="1628.5" y="-214" font-family="Helvetica,sans-Serif" font-size="10.00">src/core/auth/IDoor.hpp</text>
</a>
</g>
</g>
<!-- Node4&#45;&gt;Node5 -->
<g id="edge4" class="edge">
<title>Node4&#45;&gt;Node5</title>
<path fill="none" stroke="midnightblue" d="M1749.57,-264.62C1717.24,-252.04 1675.43,-235.77 1650.36,-226.01"/>
<polygon fill="midnightblue" stroke="midnightblue" points="1748.67,-268.03 1759.26,-268.4 1751.21,-261.51 1748.67,-268.03"/>
</g>
<!-- Node17 -->
<g id="node10" class="node">
<title>Node17</title>
<g id="a_node10"><a xlink:href="../../de/da4/ProfileMerger_8hpp.html" target="_top" xlink:title=" ">
<polygon fill="white" stroke="black" points="1711.5,-207 1711.5,-226 1879.5,-226 1879.5,-207 1711.5,-207"/>
<text text-anchor="middle" x="1795.5" y="-214" font-family="Helvetica,sans-Serif" font-size="10.00">src/core/auth/ProfileMerger.hpp</text>
</a>
</g>
</g>
<!-- Node4&#45;&gt;Node17 -->
<g id="edge9" class="edge">
<title>Node4&#45;&gt;Node17</title>
<path fill="none" stroke="midnightblue" d="M1795.5,-258.25C1795.5,-247.02 1795.5,-234.38 1795.5,-226.19"/>
<polygon fill="midnightblue" stroke="midnightblue" points="1792,-258.4 1795.5,-268.4 1799,-258.4 1792,-258.4"/>
</g>
<!-- Node4&#45;&gt;Node19 -->
<g id="edge12" class="edge">
<title>Node4&#45;&gt;Node19</title>
<path fill="none" stroke="midnightblue" d="M1843.65,-264.82C1872.1,-254.37 1907.63,-241.32 1934.17,-231.58"/>
<polygon fill="midnightblue" stroke="midnightblue" points="1842.09,-261.66 1833.91,-268.4 1844.5,-268.23 1842.09,-261.66"/>
</g>
<!-- Node29 -->
<g id="node19" class="node">
<title>Node29</title>
<g id="a_node19"><a xlink:href="../../de/dfd/User_8hpp.html" target="_top" xlink:title=" ">
<polygon fill="white" stroke="red" points="1394,-140 1394,-159 1519,-159 1519,-140 1394,-140"/>
<text text-anchor="middle" x="1456.5" y="-147" font-family="Helvetica,sans-Serif" font-size="10.00">src/core/auth/User.hpp</text>
</a>
</g>
</g>
<!-- Node4&#45;&gt;Node29 -->
<g id="edge22" class="edge">
<title>Node4&#45;&gt;Node29</title>
<path fill="none" stroke="midnightblue" d="M1719.7,-275.96C1670.9,-269.52 1607.18,-256.84 1555.5,-232 1516.57,-213.29 1479.79,-176.13 1464.26,-159.23"/>
<polygon fill="midnightblue" stroke="midnightblue" points="1719.52,-279.47 1729.87,-277.24 1720.39,-272.52 1719.52,-279.47"/>
</g>
<!-- Node6 -->
<g id="node6" class="node">
<title>Node6</title>
<g id="a_node6"><a xlink:href="../../d1/d8f/Door_8hpp.html" target="_top" xlink:title=" ">
<polygon fill="white" stroke="red" points="1537.5,-140 1537.5,-159 1663.5,-159 1663.5,-140 1537.5,-140"/>
<text text-anchor="middle" x="1600.5" y="-147" font-family="Helvetica,sans-Serif" font-size="10.00">src/core/auth/Door.hpp</text>
</a>
</g>
</g>
<!-- Node5&#45;&gt;Node6 -->
<g id="edge5" class="edge">
<title>Node5&#45;&gt;Node6</title>
<path fill="none" stroke="midnightblue" d="M1620.66,-197.29C1615.28,-184.81 1608.39,-168.81 1604.22,-159.13"/>
<polygon fill="midnightblue" stroke="midnightblue" points="1617.55,-198.93 1624.72,-206.73 1623.98,-196.16 1617.55,-198.93"/>
</g>
<!-- Node16 -->
<g id="node9" class="node">
<title>Node16</title>
<g id="a_node9"><a xlink:href="../../dc/da8/UserSecurityContext_8cpp.html" target="_top" xlink:title=" ">
<polygon fill="white" stroke="black" points="1682,-140 1682,-159 1861,-159 1861,-140 1682,-140"/>
<text text-anchor="middle" x="1771.5" y="-147" font-family="Helvetica,sans-Serif" font-size="10.00">src/core/UserSecurityContext.cpp</text>
</a>
</g>
</g>
<!-- Node5&#45;&gt;Node16 -->
<g id="edge8" class="edge">
<title>Node5&#45;&gt;Node16</title>
<path fill="none" stroke="midnightblue" d="M1656.85,-202.61C1685.17,-189.74 1727.93,-170.31 1752.43,-159.17"/>
<polygon fill="midnightblue" stroke="midnightblue" points="1655.14,-199.54 1647.49,-206.87 1658.04,-205.92 1655.14,-199.54"/>
</g>
<!-- Node7 -->
<g id="node7" class="node">
<title>Node7</title>
<g id="a_node7"><a xlink:href="../../d4/dbe/AuditFactory_8cpp.html" target="_top" xlink:title=" ">
<polygon fill="white" stroke="black" points="2091,-73 2091,-92 2256,-92 2256,-73 2091,-73"/>
<text text-anchor="middle" x="2173.5" y="-80" font-family="Helvetica,sans-Serif" font-size="10.00">src/core/audit/AuditFactory.cpp</text>
</a>
</g>
</g>
<!-- Node6&#45;&gt;Node7 -->
<g id="edge6" class="edge">
<title>Node6&#45;&gt;Node7</title>
<path fill="none" stroke="midnightblue" d="M1649.39,-138.04C1657.42,-136.54 1665.68,-135.12 1673.5,-134 1851.5,-108.45 1897.94,-119.3 2076.5,-98 2090.79,-96.3 2106.21,-94.14 2120.46,-92.01"/>
<polygon fill="midnightblue" stroke="midnightblue" points="1648.54,-134.64 1639.39,-139.97 1649.87,-141.51 1648.54,-134.64"/>
</g>
<!-- Node12 -->
<g id="node8" class="node">
<title>Node12</title>
<g id="a_node8"><a xlink:href="../../d3/dc5/FileAuthSourceMapper_8cpp.html" target="_top" xlink:title=" ">
<polygon fill="white" stroke="black" points="2517,-67.5 2517,-97.5 2684,-97.5 2684,-67.5 2517,-67.5"/>
<text text-anchor="start" x="2525" y="-85.5" font-family="Helvetica,sans-Serif" font-size="10.00">src/modules/auth/auth</text>
<text text-anchor="middle" x="2600.5" y="-74.5" font-family="Helvetica,sans-Serif" font-size="10.00">&#45;file/FileAuthSourceMapper.cpp</text>
</a>
</g>
</g>
<!-- Node6&#45;&gt;Node12 -->
<g id="edge7" class="edge">
<title>Node6&#45;&gt;Node12</title>
<path fill="none" stroke="midnightblue" d="M1647.69,-138.03C1656.24,-136.45 1665.11,-135.01 1673.5,-134 2041.86,-89.73 2138.3,-134.63 2507.5,-98 2510.59,-97.69 2513.73,-97.35 2516.9,-96.98"/>
<polygon fill="midnightblue" stroke="midnightblue" points="1646.99,-134.6 1637.84,-139.94 1648.32,-141.48 1646.99,-134.6"/>
</g>
<!-- Node17&#45;&gt;Node12 -->
<g id="edge11" class="edge">
<title>Node17&#45;&gt;Node12</title>
<path fill="none" stroke="midnightblue" d="M1817.7,-201.32C1832.83,-191.47 1853.17,-177.86 1870.5,-165 1888,-152.01 1888.2,-141.93 1908.5,-134 2032.72,-85.51 2374.92,-112.29 2507.5,-98 2510.59,-97.67 2513.73,-97.3 2516.9,-96.92"/>
<polygon fill="midnightblue" stroke="midnightblue" points="1815.53,-198.55 1809.03,-206.92 1819.33,-204.43 1815.53,-198.55"/>
</g>
<!-- Node18 -->
<g id="node11" class="node">
<title>Node18</title>
<g id="a_node11"><a xlink:href="../../d9/d35/ProfileMerger_8cpp.html" target="_top" xlink:title=" ">
<polygon fill="white" stroke="black" points="1917,-140 1917,-159 2084,-159 2084,-140 1917,-140"/>
<text text-anchor="middle" x="2000.5" y="-147" font-family="Helvetica,sans-Serif" font-size="10.00">src/core/auth/ProfileMerger.cpp</text>
</a>
</g>
</g>
<!-- Node17&#45;&gt;Node18 -->
<g id="edge10" class="edge">
<title>Node17&#45;&gt;Node18</title>
<path fill="none" stroke="midnightblue" d="M1832.51,-203.77C1873.13,-190.89 1937.36,-170.52 1973.49,-159.06"/>
<polygon fill="midnightblue" stroke="midnightblue" points="1831.2,-200.51 1822.72,-206.87 1833.31,-207.18 1831.2,-200.51"/>
</g>
<!-- Node19&#45;&gt;Node18 -->
<g id="edge13" class="edge">
<title>Node19&#45;&gt;Node18</title>
<path fill="none" stroke="midnightblue" d="M1982.65,-191.94C1987.56,-180.54 1993.16,-167.55 1996.75,-159.19"/>
<polygon fill="midnightblue" stroke="midnightblue" points="1979.32,-190.83 1978.58,-201.4 1985.75,-193.6 1979.32,-190.83"/>
</g>
<!-- Node20 -->
<g id="node13" class="node">
<title>Node20</title>
<g id="a_node13"><a xlink:href="../../d8/dcf/SimpleAccessProfile_8cpp.html" target="_top" xlink:title=" ">
<polygon fill="white" stroke="black" points="2101.5,-134.5 2101.5,-164.5 2251.5,-164.5 2251.5,-134.5 2101.5,-134.5"/>
<text text-anchor="start" x="2109.5" y="-152.5" font-family="Helvetica,sans-Serif" font-size="10.00">src/core/auth/SimpleAccess</text>
<text text-anchor="middle" x="2176.5" y="-141.5" font-family="Helvetica,sans-Serif" font-size="10.00">Profile.cpp</text>
</a>
</g>
</g>
<!-- Node19&#45;&gt;Node20 -->
<g id="edge14" class="edge">
<title>Node19&#45;&gt;Node20</title>
<path fill="none" stroke="midnightblue" d="M2026.46,-198.31C2059.46,-187.79 2101.16,-174.51 2132.21,-164.61"/>
<polygon fill="midnightblue" stroke="midnightblue" points="2024.98,-195.11 2016.51,-201.48 2027.1,-201.77 2024.98,-195.11"/>
</g>
<!-- Node21 -->
<g id="node14" class="node">
<title>Node21</title>
<g id="a_node14"><a xlink:href="../../df/d5d/FileAuthSourceMapper_8hpp.html" target="_top" xlink:title=" ">
<polygon fill="white" stroke="black" points="2737.5,-134.5 2737.5,-164.5 2905.5,-164.5 2905.5,-134.5 2737.5,-134.5"/>
<text text-anchor="start" x="2745.5" y="-152.5" font-family="Helvetica,sans-Serif" font-size="10.00">src/modules/auth/auth</text>
<text text-anchor="middle" x="2821.5" y="-141.5" font-family="Helvetica,sans-Serif" font-size="10.00">&#45;file/FileAuthSourceMapper.hpp</text>
</a>
</g>
</g>
<!-- Node19&#45;&gt;Node21 -->
<g id="edge15" class="edge">
<title>Node19&#45;&gt;Node21</title>
<path fill="none" stroke="midnightblue" d="M2057.67,-200.95C2310.7,-171.32 2598.21,-158.21 2737.47,-153.16"/>
<polygon fill="midnightblue" stroke="midnightblue" points="2057.07,-197.49 2047.55,-202.14 2057.89,-204.45 2057.07,-197.49"/>
</g>
<!-- Node21&#45;&gt;Node12 -->
<g id="edge19" class="edge">
<title>Node21&#45;&gt;Node12</title>
<path fill="none" stroke="midnightblue" d="M2763.97,-131.58C2728.08,-121.02 2682.41,-107.59 2648.48,-97.61"/>
<polygon fill="midnightblue" stroke="midnightblue" points="2763.24,-135.01 2773.82,-134.48 2765.21,-128.3 2763.24,-135.01"/>
</g>
<!-- Node22 -->
<g id="node15" class="node">
<title>Node22</title>
<g id="a_node15"><a xlink:href="../../de/df9/AuthFileInstance_8hpp.html" target="_top" xlink:title=" ">
<polygon fill="white" stroke="red" points="2702.5,-67.5 2702.5,-97.5 2842.5,-97.5 2842.5,-67.5 2702.5,-67.5"/>
<text text-anchor="start" x="2710.5" y="-85.5" font-family="Helvetica,sans-Serif" font-size="10.00">src/modules/auth/auth</text>
<text text-anchor="middle" x="2772.5" y="-74.5" font-family="Helvetica,sans-Serif" font-size="10.00">&#45;file/AuthFileInstance.hpp</text>
</a>
</g>
</g>
<!-- Node21&#45;&gt;Node22 -->
<g id="edge16" class="edge">
<title>Node21&#45;&gt;Node22</title>
<path fill="none" stroke="midnightblue" d="M2804.66,-126.16C2797.51,-116.68 2789.4,-105.92 2783.11,-97.58"/>
<polygon fill="midnightblue" stroke="midnightblue" points="2802.05,-128.52 2810.87,-134.4 2807.64,-124.3 2802.05,-128.52"/>
</g>
<!-- Node23 -->
<g id="node16" class="node">
<title>Node23</title>
<g id="a_node16"><a xlink:href="../../da/d9b/AuthFileInstance_8cpp.html" target="_top" xlink:title=" ">
<polygon fill="white" stroke="black" points="2702.5,-0.5 2702.5,-30.5 2842.5,-30.5 2842.5,-0.5 2702.5,-0.5"/>
<text text-anchor="start" x="2710.5" y="-18.5" font-family="Helvetica,sans-Serif" font-size="10.00">src/modules/auth/auth</text>
<text text-anchor="middle" x="2772.5" y="-7.5" font-family="Helvetica,sans-Serif" font-size="10.00">&#45;file/AuthFileInstance.cpp</text>
</a>
</g>
</g>
<!-- Node21&#45;&gt;Node23 -->
<g id="edge18" class="edge">
<title>Node21&#45;&gt;Node23</title>
<path fill="none" stroke="midnightblue" d="M2839.71,-126.26C2851.15,-109.42 2861.92,-86.03 2851.5,-67 2842.51,-50.58 2825.65,-38.72 2809.81,-30.64"/>
<polygon fill="midnightblue" stroke="midnightblue" points="2836.84,-124.26 2833.78,-134.4 2842.49,-128.38 2836.84,-124.26"/>
</g>
<!-- Node27 -->
<g id="node17" class="node">
<title>Node27</title>
<g id="a_node17"><a xlink:href="../../d5/d58/AuthFile_8cpp.html" target="_top" xlink:title=" ">
<polygon fill="white" stroke="black" points="2400.5,-73 2400.5,-92 2498.5,-92 2498.5,-73 2400.5,-73"/>
<text text-anchor="middle" x="2449.5" y="-80" font-family="Helvetica,sans-Serif" font-size="10.00">test/AuthFile.cpp</text>
</a>
</g>
</g>
<!-- Node21&#45;&gt;Node27 -->
<g id="edge20" class="edge">
<title>Node21&#45;&gt;Node27</title>
<path fill="none" stroke="midnightblue" d="M2727.24,-134.15C2650.77,-122.35 2549.22,-106.27 2508.5,-98 2499.92,-96.26 2490.7,-94.12 2482.16,-92.03"/>
<polygon fill="midnightblue" stroke="midnightblue" points="2726.96,-137.65 2737.38,-135.71 2728.03,-130.73 2726.96,-137.65"/>
</g>
<!-- Node28 -->
<g id="node18" class="node">
<title>Node28</title>
<g id="a_node18"><a xlink:href="../../d9/d75/test_2AuthSourceBuilder_8cpp.html" target="_top" xlink:title=" ">
<polygon fill="white" stroke="black" points="2898.5,-73 2898.5,-92 3046.5,-92 3046.5,-73 2898.5,-73"/>
<text text-anchor="middle" x="2972.5" y="-80" font-family="Helvetica,sans-Serif" font-size="10.00">test/AuthSourceBuilder.cpp</text>
</a>
</g>
</g>
<!-- Node21&#45;&gt;Node28 -->
<g id="edge21" class="edge">
<title>Node21&#45;&gt;Node28</title>
<path fill="none" stroke="midnightblue" d="M2863.79,-130.3C2892.91,-117.76 2930.26,-101.68 2952.74,-92.01"/>
<polygon fill="midnightblue" stroke="midnightblue" points="2862.07,-127.23 2854.26,-134.4 2864.83,-133.66 2862.07,-127.23"/>
</g>
<!-- Node22&#45;&gt;Node23 -->
<g id="edge17" class="edge">
<title>Node22&#45;&gt;Node23</title>
<path fill="none" stroke="midnightblue" d="M2772.5,-57.11C2772.5,-48.15 2772.5,-38.32 2772.5,-30.58"/>
<polygon fill="midnightblue" stroke="midnightblue" points="2769,-57.4 2772.5,-67.4 2776,-57.4 2769,-57.4"/>
</g>
<!-- Node29&#45;&gt;Node7 -->
<g id="edge24" class="edge">
<title>Node29&#45;&gt;Node7</title>
<path fill="none" stroke="midnightblue" d="M1504.15,-137.98C1512.25,-136.46 1520.59,-135.05 1528.5,-134 1770.45,-101.83 1833.82,-124.06 2076.5,-98 2091.31,-96.41 2107.33,-94.21 2122,-92.01"/>
<polygon fill="midnightblue" stroke="midnightblue" points="1503.22,-134.59 1494.08,-139.95 1504.57,-141.46 1503.22,-134.59"/>
</g>
<!-- Node29&#45;&gt;Node12 -->
<g id="edge30" class="edge">
<title>Node29&#45;&gt;Node12</title>
<path fill="none" stroke="midnightblue" d="M1503.03,-137.99C1511.47,-136.41 1520.22,-134.98 1528.5,-134 1960.89,-82.85 2074.09,-139.61 2507.5,-98 2510.59,-97.7 2513.73,-97.37 2516.91,-97.01"/>
<polygon fill="midnightblue" stroke="midnightblue" points="1502.08,-134.6 1492.94,-139.97 1503.43,-141.47 1502.08,-134.6"/>
</g>
<!-- Node29&#45;&gt;Node23 -->
<g id="edge29" class="edge">
<title>Node29&#45;&gt;Node23</title>
<path fill="none" stroke="midnightblue" d="M1504.15,-138C1512.25,-136.48 1520.59,-135.07 1528.5,-134 1642.19,-118.64 1936.57,-139.56 2043.5,-98 2064.14,-89.98 2061.88,-75.06 2082.5,-67 2193.96,-23.47 2549.91,-17.11 2702.24,-16.43"/>
<polygon fill="midnightblue" stroke="midnightblue" points="1503.23,-134.62 1494.09,-139.98 1504.57,-141.49 1503.23,-134.62"/>
</g>
<!-- Node29&#45;&gt;Node27 -->
<g id="edge40" class="edge">
<title>Node29&#45;&gt;Node27</title>
<path fill="none" stroke="midnightblue" d="M1503.31,-137.97C1511.66,-136.4 1520.31,-134.99 1528.5,-134 1909.62,-87.96 2011.55,-152.84 2391.5,-98 2400.95,-96.64 2411.1,-94.38 2420.22,-92.05"/>
<polygon fill="midnightblue" stroke="midnightblue" points="1502.46,-134.57 1493.32,-139.93 1503.81,-141.44 1502.46,-134.57"/>
</g>
<!-- Node30 -->
<g id="node20" class="node">
<title>Node30</title>
<g id="a_node20"><a xlink:href="../../d3/d19/AuditEntry_8cpp.html" target="_top" xlink:title=" ">
<polygon fill="white" stroke="black" points="0,-73 0,-92 155,-92 155,-73 0,-73"/>
<text text-anchor="middle" x="77.5" y="-80" font-family="Helvetica,sans-Serif" font-size="10.00">src/core/audit/AuditEntry.cpp</text>
</a>
</g>
</g>
<!-- Node29&#45;&gt;Node30 -->
<g id="edge23" class="edge">
<title>Node29&#45;&gt;Node30</title>
<path fill="none" stroke="midnightblue" d="M1383.55,-148.86C1186.44,-149.15 626.85,-145.37 164.5,-98 150.64,-96.58 135.64,-94.34 122.06,-92.04"/>
<polygon fill="midnightblue" stroke="midnightblue" points="1383.79,-152.36 1393.78,-148.84 1383.78,-145.36 1383.79,-152.36"/>
</g>
<!-- Node31 -->
<g id="node21" class="node">
<title>Node31</title>
<g id="a_node21"><a xlink:href="../../d2/d8b/UserEvent_8cpp.html" target="_top" xlink:title=" ">
<polygon fill="white" stroke="black" points="173.5,-73 173.5,-92 329.5,-92 329.5,-73 173.5,-73"/>
<text text-anchor="middle" x="251.5" y="-80" font-family="Helvetica,sans-Serif" font-size="10.00">src/core/audit/UserEvent.cpp</text>
</a>
</g>
</g>
<!-- Node29&#45;&gt;Node31 -->
<g id="edge25" class="edge">
<title>Node29&#45;&gt;Node31</title>
<path fill="none" stroke="midnightblue" d="M1383.82,-148.23C1205.32,-146.92 731.33,-139.46 338.5,-98 324.79,-96.55 309.97,-94.33 296.51,-92.06"/>
<polygon fill="midnightblue" stroke="midnightblue" points="1383.85,-151.73 1393.88,-148.3 1383.9,-144.73 1383.85,-151.73"/>
</g>
<!-- Node32 -->
<g id="node22" class="node">
<title>Node32</title>
<g id="a_node22"><a xlink:href="../../d2/de5/WSAPICall_8cpp.html" target="_top" xlink:title=" ">
<polygon fill="white" stroke="black" points="348,-73 348,-92 505,-92 505,-73 348,-73"/>
<text text-anchor="middle" x="426.5" y="-80" font-family="Helvetica,sans-Serif" font-size="10.00">src/core/audit/WSAPICall.cpp</text>
</a>
</g>
</g>
<!-- Node29&#45;&gt;Node32 -->
<g id="edge26" class="edge">
<title>Node29&#45;&gt;Node32</title>
<path fill="none" stroke="midnightblue" d="M1383.86,-147.37C1225.37,-144.3 836.82,-133.49 513.5,-98 499.95,-96.51 485.31,-94.31 471.97,-92.06"/>
<polygon fill="midnightblue" stroke="midnightblue" points="1383.9,-150.87 1393.96,-147.56 1384.03,-143.87 1383.9,-150.87"/>
</g>
<!-- Node33 -->
<g id="node23" class="node">
<title>Node33</title>
<g id="a_node23"><a xlink:href="../../d3/da9/UserSerializer_8cpp.html" target="_top" xlink:title=" ">
<polygon fill="white" stroke="black" points="523,-67.5 523,-97.5 656,-97.5 656,-67.5 523,-67.5"/>
<text text-anchor="start" x="531" y="-85.5" font-family="Helvetica,sans-Serif" font-size="10.00">src/core/auth/serializers</text>
<text text-anchor="middle" x="589.5" y="-74.5" font-family="Helvetica,sans-Serif" font-size="10.00">/UserSerializer.cpp</text>
</a>
</g>
</g>
<!-- Node29&#45;&gt;Node33 -->
<g id="edge27" class="edge">
<title>Node29&#45;&gt;Node33</title>
<path fill="none" stroke="midnightblue" d="M1383.8,-146.89C1244.11,-143.12 928.7,-131.38 665.5,-98 662.44,-97.61 659.31,-97.18 656.15,-96.7"/>
<polygon fill="midnightblue" stroke="midnightblue" points="1383.86,-150.39 1393.95,-147.16 1384.05,-143.39 1383.86,-150.39"/>
</g>
<!-- Node34 -->
<g id="node24" class="node">
<title>Node34</title>
<g id="a_node24"><a xlink:href="../../dd/d24/kernel_8cpp.html" target="_top" xlink:title=" ">
<polygon fill="white" stroke="black" points="2274.5,-73 2274.5,-92 2382.5,-92 2382.5,-73 2274.5,-73"/>
<text text-anchor="middle" x="2328.5" y="-80" font-family="Helvetica,sans-Serif" font-size="10.00">src/core/kernel.cpp</text>
</a>
</g>
</g>
<!-- Node29&#45;&gt;Node34 -->
<g id="edge28" class="edge">
<title>Node29&#45;&gt;Node34</title>
<path fill="none" stroke="midnightblue" d="M1503.31,-138.02C1511.67,-136.45 1520.31,-135.02 1528.5,-134 1853.94,-93.51 1940.65,-142.96 2265.5,-98 2275.62,-96.6 2286.5,-94.36 2296.33,-92.06"/>
<polygon fill="midnightblue" stroke="midnightblue" points="1502.46,-134.62 1493.32,-139.98 1503.81,-141.49 1502.46,-134.62"/>
</g>
<!-- Node35 -->
<g id="node25" class="node">
<title>Node35</title>
<g id="a_node25"><a xlink:href="../../d7/d29/AccessPointCRUD_8cpp.html" target="_top" xlink:title=" ">
<polygon fill="white" stroke="black" points="674.5,-67.5 674.5,-97.5 838.5,-97.5 838.5,-67.5 674.5,-67.5"/>
<text text-anchor="start" x="682.5" y="-85.5" font-family="Helvetica,sans-Serif" font-size="10.00">src/modules/websock</text>
<text text-anchor="middle" x="756.5" y="-74.5" font-family="Helvetica,sans-Serif" font-size="10.00">&#45;api/api/AccessPointCRUD.cpp</text>
</a>
</g>
</g>
<!-- Node29&#45;&gt;Node35 -->
<g id="edge31" class="edge">
<title>Node29&#45;&gt;Node35</title>
<path fill="none" stroke="midnightblue" d="M1383.61,-144.24C1269.17,-137.14 1040.48,-121.34 847.5,-98 844.64,-97.65 841.73,-97.29 838.8,-96.9"/>
<polygon fill="midnightblue" stroke="midnightblue" points="1383.46,-147.73 1393.66,-144.85 1383.89,-140.75 1383.46,-147.73"/>
</g>
<!-- Node36 -->
<g id="node26" class="node">
<title>Node36</title>
<g id="a_node26"><a xlink:href="../../d7/d86/APIAuth_8cpp.html" target="_top" xlink:title=" ">
<polygon fill="white" stroke="black" points="856.5,-67.5 856.5,-97.5 978.5,-97.5 978.5,-67.5 856.5,-67.5"/>
<text text-anchor="start" x="864.5" y="-85.5" font-family="Helvetica,sans-Serif" font-size="10.00">src/modules/websock</text>
<text text-anchor="middle" x="917.5" y="-74.5" font-family="Helvetica,sans-Serif" font-size="10.00">&#45;api/api/APIAuth.cpp</text>
</a>
</g>
</g>
<!-- Node29&#45;&gt;Node36 -->
<g id="edge32" class="edge">
<title>Node29&#45;&gt;Node36</title>
<path fill="none" stroke="midnightblue" d="M1383.57,-142.85C1291.09,-135.19 1126.89,-119.89 987.5,-98 984.56,-97.54 981.55,-97.04 978.52,-96.5"/>
<polygon fill="midnightblue" stroke="midnightblue" points="1383.41,-146.35 1393.66,-143.68 1383.98,-139.38 1383.41,-146.35"/>
</g>
<!-- Node37 -->
<g id="node27" class="node">
<title>Node37</title>
<g id="a_node27"><a xlink:href="../../d9/d8d/APISession_8cpp.html" target="_top" xlink:title=" ">
<polygon fill="white" stroke="black" points="996.5,-67.5 996.5,-97.5 1126.5,-97.5 1126.5,-67.5 996.5,-67.5"/>
<text text-anchor="start" x="1004.5" y="-85.5" font-family="Helvetica,sans-Serif" font-size="10.00">src/modules/websock</text>
<text text-anchor="middle" x="1061.5" y="-74.5" font-family="Helvetica,sans-Serif" font-size="10.00">&#45;api/api/APISession.cpp</text>
</a>
</g>
</g>
<!-- Node29&#45;&gt;Node37 -->
<g id="edge33" class="edge">
<title>Node29&#45;&gt;Node37</title>
<path fill="none" stroke="midnightblue" d="M1387.98,-138.48C1322.9,-128.78 1222.38,-113.34 1135.5,-98 1132.66,-97.5 1129.77,-96.98 1126.85,-96.44"/>
<polygon fill="midnightblue" stroke="midnightblue" points="1387.7,-141.98 1398.11,-139.99 1388.73,-135.05 1387.7,-141.98"/>
</g>
<!-- Node38 -->
<g id="node28" class="node">
<title>Node38</title>
<g id="a_node28"><a xlink:href="../../d7/dde/DoorCRUD_8cpp.html" target="_top" xlink:title=" ">
<polygon fill="white" stroke="black" points="1144.5,-67.5 1144.5,-97.5 1272.5,-97.5 1272.5,-67.5 1144.5,-67.5"/>
<text text-anchor="start" x="1152.5" y="-85.5" font-family="Helvetica,sans-Serif" font-size="10.00">src/modules/websock</text>
<text text-anchor="middle" x="1208.5" y="-74.5" font-family="Helvetica,sans-Serif" font-size="10.00">&#45;api/api/DoorCRUD.cpp</text>
</a>
</g>
</g>
<!-- Node29&#45;&gt;Node38 -->
<g id="edge34" class="edge">
<title>Node29&#45;&gt;Node38</title>
<path fill="none" stroke="midnightblue" d="M1413.91,-137.34C1371.92,-126.33 1307.6,-109.47 1262.14,-97.56"/>
<polygon fill="midnightblue" stroke="midnightblue" points="1413.26,-140.79 1423.82,-139.94 1415.04,-134.01 1413.26,-140.79"/>
</g>
<!-- Node39 -->
<g id="node29" class="node">
<title>Node39</title>
<g id="a_node29"><a xlink:href="../../d1/de1/GroupCRUD_8cpp.html" target="_top" xlink:title=" ">
<polygon fill="white" stroke="black" points="1290.5,-67.5 1290.5,-97.5 1424.5,-97.5 1424.5,-67.5 1290.5,-67.5"/>
<text text-anchor="start" x="1298.5" y="-85.5" font-family="Helvetica,sans-Serif" font-size="10.00">src/modules/websock</text>
<text text-anchor="middle" x="1357.5" y="-74.5" font-family="Helvetica,sans-Serif" font-size="10.00">&#45;api/api/GroupCRUD.cpp</text>
</a>
</g>
</g>
<!-- Node29&#45;&gt;Node39 -->
<g id="edge35" class="edge">
<title>Node29&#45;&gt;Node39</title>
<path fill="none" stroke="midnightblue" d="M1434.65,-134.15C1418.08,-123.27 1395.43,-108.4 1378.96,-97.59"/>
<polygon fill="midnightblue" stroke="midnightblue" points="1432.87,-137.17 1443.15,-139.73 1436.71,-131.32 1432.87,-137.17"/>
</g>
<!-- Node40 -->
<g id="node30" class="node">
<title>Node40</title>
<g id="a_node30"><a xlink:href="../../df/dc4/MembershipCRUD_8cpp.html" target="_top" xlink:title=" ">
<polygon fill="white" stroke="black" points="1442.5,-67.5 1442.5,-97.5 1608.5,-97.5 1608.5,-67.5 1442.5,-67.5"/>
<text text-anchor="start" x="1450.5" y="-85.5" font-family="Helvetica,sans-Serif" font-size="10.00">src/modules/websock</text>
<text text-anchor="middle" x="1525.5" y="-74.5" font-family="Helvetica,sans-Serif" font-size="10.00">&#45;api/api/MembershipCRUD.cpp</text>
</a>
</g>
</g>
<!-- Node29&#45;&gt;Node40 -->
<g id="edge36" class="edge">
<title>Node29&#45;&gt;Node40</title>
<path fill="none" stroke="midnightblue" d="M1473.36,-132.62C1484.73,-121.91 1499.6,-107.9 1510.54,-97.59"/>
<polygon fill="midnightblue" stroke="midnightblue" points="1470.68,-130.33 1465.81,-139.73 1475.48,-135.42 1470.68,-130.33"/>
</g>
<!-- Node41 -->
<g id="node31" class="node">
<title>Node41</title>
<g id="a_node31"><a xlink:href="../../df/df7/UserCRUD_8cpp.html" target="_top" xlink:title=" ">
<polygon fill="white" stroke="black" points="1626.5,-67.5 1626.5,-97.5 1754.5,-97.5 1754.5,-67.5 1626.5,-67.5"/>
<text text-anchor="start" x="1634.5" y="-85.5" font-family="Helvetica,sans-Serif" font-size="10.00">src/modules/websock</text>
<text text-anchor="middle" x="1690.5" y="-74.5" font-family="Helvetica,sans-Serif" font-size="10.00">&#45;api/api/UserCRUD.cpp</text>
</a>
</g>
</g>
<!-- Node29&#45;&gt;Node41 -->
<g id="edge37" class="edge">
<title>Node29&#45;&gt;Node41</title>
<path fill="none" stroke="midnightblue" d="M1497.44,-137.13C1537.11,-126.11 1597.37,-109.37 1640,-97.53"/>
<polygon fill="midnightblue" stroke="midnightblue" points="1496.27,-133.82 1487.57,-139.87 1498.15,-140.56 1496.27,-133.82"/>
</g>
<!-- Node42 -->
<g id="node32" class="node">
<title>Node42</title>
<g id="a_node32"><a xlink:href="../../d6/dd1/Exceptions_8cpp.html" target="_top" xlink:title=" ">
<polygon fill="white" stroke="black" points="1772.5,-67.5 1772.5,-97.5 1894.5,-97.5 1894.5,-67.5 1772.5,-67.5"/>
<text text-anchor="start" x="1780.5" y="-85.5" font-family="Helvetica,sans-Serif" font-size="10.00">src/modules/websock</text>
<text text-anchor="middle" x="1833.5" y="-74.5" font-family="Helvetica,sans-Serif" font-size="10.00">&#45;api/Exceptions.cpp</text>
</a>
</g>
</g>
<!-- Node29&#45;&gt;Node42 -->
<g id="edge38" class="edge">
<title>Node29&#45;&gt;Node42</title>
<path fill="none" stroke="midnightblue" d="M1507.41,-137.94C1514.49,-136.56 1521.67,-135.21 1528.5,-134 1632.54,-115.56 1659.51,-116.72 1763.5,-98 1766.43,-97.47 1769.43,-96.92 1772.45,-96.34"/>
<polygon fill="midnightblue" stroke="midnightblue" points="1506.31,-134.59 1497.18,-139.96 1507.67,-141.46 1506.31,-134.59"/>
</g>
<!-- Node43 -->
<g id="node33" class="node">
<title>Node43</title>
<g id="a_node33"><a xlink:href="../../d4/d2c/WSServer_8cpp.html" target="_top" xlink:title=" ">
<polygon fill="white" stroke="black" points="1912.5,-67.5 1912.5,-97.5 2034.5,-97.5 2034.5,-67.5 1912.5,-67.5"/>
<text text-anchor="start" x="1920.5" y="-85.5" font-family="Helvetica,sans-Serif" font-size="10.00">src/modules/websock</text>
<text text-anchor="middle" x="1973.5" y="-74.5" font-family="Helvetica,sans-Serif" font-size="10.00">&#45;api/WSServer.cpp</text>
</a>
</g>
</g>
<!-- Node29&#45;&gt;Node43 -->
<g id="edge39" class="edge">
<title>Node29&#45;&gt;Node43</title>
<path fill="none" stroke="midnightblue" d="M1505.26,-137.97C1513.01,-136.51 1520.96,-135.12 1528.5,-134 1694.12,-109.44 1737.95,-123.02 1903.5,-98 1906.45,-97.55 1909.45,-97.07 1912.49,-96.55"/>
<polygon fill="midnightblue" stroke="midnightblue" points="1504.37,-134.58 1495.23,-139.94 1505.72,-141.45 1504.37,-134.58"/>
</g>
<!-- Node47 -->
<g id="node36" class="node">
<title>Node47</title>
<g id="a_node36"><a xlink:href="../../d2/d46/DoormanInstance_8cpp.html" target="_top" xlink:title=" ">
<polygon fill="white" stroke="black" points="2065.5,-201.5 2065.5,-231.5 2191.5,-231.5 2191.5,-201.5 2065.5,-201.5"/>
<text text-anchor="start" x="2073.5" y="-219.5" font-family="Helvetica,sans-Serif" font-size="10.00">src/modules/doorman</text>
<text text-anchor="middle" x="2128.5" y="-208.5" font-family="Helvetica,sans-Serif" font-size="10.00">/DoormanInstance.cpp</text>
</a>
</g>
</g>
<!-- Node46&#45;&gt;Node47 -->
<g id="edge44" class="edge">
<title>Node46&#45;&gt;Node47</title>
<path fill="none" stroke="midnightblue" d="M2326.44,-266.05C2283.12,-255.43 2227.33,-241.74 2186.03,-231.61"/>
<polygon fill="midnightblue" stroke="midnightblue" points="2325.78,-269.49 2336.33,-268.48 2327.45,-262.69 2325.78,-269.49"/>
</g>
<!-- Node48 -->
<g id="node37" class="node">
<title>Node48</title>
<g id="a_node37"><a xlink:href="../../d0/d58/DoormanModule_8cpp.html" target="_top" xlink:title=" ">
<polygon fill="white" stroke="black" points="2209.5,-201.5 2209.5,-231.5 2331.5,-231.5 2331.5,-201.5 2209.5,-201.5"/>
<text text-anchor="start" x="2217.5" y="-219.5" font-family="Helvetica,sans-Serif" font-size="10.00">src/modules/doorman</text>
<text text-anchor="middle" x="2270.5" y="-208.5" font-family="Helvetica,sans-Serif" font-size="10.00">/DoormanModule.cpp</text>
</a>
</g>
</g>
<!-- Node46&#45;&gt;Node48 -->
<g id="edge45" class="edge">
<title>Node46&#45;&gt;Node48</title>
<path fill="none" stroke="midnightblue" d="M2357.95,-263.71C2338.55,-253.46 2314.94,-240.98 2297.14,-231.58"/>
<polygon fill="midnightblue" stroke="midnightblue" points="2356.33,-266.82 2366.81,-268.4 2359.6,-260.63 2356.33,-266.82"/>
</g>
<!-- Node49 -->
<g id="node38" class="node">
<title>Node49</title>
<g id="a_node38"><a xlink:href="../../d8/d54/doorman_2init_8cpp.html" target="_top" xlink:title=" ">
<polygon fill="white" stroke="black" points="2349.5,-201.5 2349.5,-231.5 2471.5,-231.5 2471.5,-201.5 2349.5,-201.5"/>
<text text-anchor="start" x="2357.5" y="-219.5" font-family="Helvetica,sans-Serif" font-size="10.00">src/modules/doorman</text>
<text text-anchor="middle" x="2410.5" y="-208.5" font-family="Helvetica,sans-Serif" font-size="10.00">/init.cpp</text>
</a>
</g>
</g>
<!-- Node46&#45;&gt;Node49 -->
<g id="edge46" class="edge">
<title>Node46&#45;&gt;Node49</title>
<path fill="none" stroke="midnightblue" d="M2399.73,-258.7C2402.11,-249.59 2404.75,-239.49 2406.82,-231.58"/>
<polygon fill="midnightblue" stroke="midnightblue" points="2396.33,-257.84 2397.19,-268.4 2403.11,-259.61 2396.33,-257.84"/>
</g>
<!-- Node51 -->
<g id="node40" class="node">
<title>Node51</title>
<g id="a_node40"><a xlink:href="../../d5/dca/EventPublish_8cpp.html" target="_top" xlink:title=" ">
<polygon fill="white" stroke="black" points="2489.5,-201.5 2489.5,-231.5 2635.5,-231.5 2635.5,-201.5 2489.5,-201.5"/>
<text text-anchor="start" x="2497.5" y="-219.5" font-family="Helvetica,sans-Serif" font-size="10.00">src/modules/event&#45;publish</text>
<text text-anchor="middle" x="2562.5" y="-208.5" font-family="Helvetica,sans-Serif" font-size="10.00">/EventPublish.cpp</text>
</a>
</g>
</g>
<!-- Node50&#45;&gt;Node51 -->
<g id="edge48" class="edge">
<title>Node50&#45;&gt;Node51</title>
<path fill="none" stroke="midnightblue" d="M2562.5,-258.11C2562.5,-249.15 2562.5,-239.32 2562.5,-231.58"/>
<polygon fill="midnightblue" stroke="midnightblue" points="2559,-258.4 2562.5,-268.4 2566,-258.4 2559,-258.4"/>
</g>
<!-- Node52 -->
<g id="node41" class="node">
<title>Node52</title>
<g id="a_node41"><a xlink:href="../../dd/dd8/event-publish_2init_8cpp.html" target="_top" xlink:title=" ">
<polygon fill="white" stroke="black" points="2653.5,-201.5 2653.5,-231.5 2799.5,-231.5 2799.5,-201.5 2653.5,-201.5"/>
<text text-anchor="start" x="2661.5" y="-219.5" font-family="Helvetica,sans-Serif" font-size="10.00">src/modules/event&#45;publish</text>
<text text-anchor="middle" x="2726.5" y="-208.5" font-family="Helvetica,sans-Serif" font-size="10.00">/init.cpp</text>
</a>
</g>
</g>
<!-- Node50&#45;&gt;Node52 -->
<g id="edge49" class="edge">
<title>Node50&#45;&gt;Node52</title>
<path fill="none" stroke="midnightblue" d="M2607.46,-264.68C2633.76,-254.26 2666.5,-241.28 2690.98,-231.58"/>
<polygon fill="midnightblue" stroke="midnightblue" points="2606.09,-261.46 2598.09,-268.4 2608.67,-267.97 2606.09,-261.46"/>
</g>
<!-- Node54&#45;&gt;Node12 -->
<g id="edge54" class="edge">
<title>Node54&#45;&gt;Node12</title>
<path fill="none" stroke="midnightblue" d="M3009.43,-337.47C2989.45,-329.6 2966.73,-317.31 2952.5,-299 2906.32,-239.58 2969.46,-185.4 2914.5,-134 2913.44,-133 2776.93,-111.31 2684.28,-96.69"/>
<polygon fill="midnightblue" stroke="midnightblue" points="3008.37,-340.81 3018.96,-340.98 3010.79,-334.24 3008.37,-340.81"/>
</g>
<!-- Node54&#45;&gt;Node34 -->
<g id="edge53" class="edge">
<title>Node54&#45;&gt;Node34</title>
<path fill="none" stroke="midnightblue" d="M3015.7,-337.39C2991.56,-328.34 2959.1,-314.82 2932.5,-299 2872.13,-263.09 2871.62,-231.83 2808.5,-201 2788.12,-191.04 2473.79,-117.34 2365.12,-92.01"/>
<polygon fill="midnightblue" stroke="midnightblue" points="3014.57,-340.71 3025.17,-340.88 3016.99,-334.14 3014.57,-340.71"/>
</g>
<!-- Node54&#45;&gt;Node53 -->
<g id="edge55" class="edge">
<title>Node54&#45;&gt;Node53</title>
<path fill="none" stroke="midnightblue" d="M3123.89,-341.4C3205.13,-332.18 3339.89,-316.18 3455.5,-299 3458.57,-298.54 3461.71,-298.06 3464.87,-297.57"/>
<polygon fill="midnightblue" stroke="midnightblue" points="3123.3,-337.94 3113.76,-342.54 3124.09,-344.9 3123.3,-337.94"/>
</g>
<!-- Node55 -->
<g id="node44" class="node">
<title>Node55</title>
<g id="a_node44"><a xlink:href="../../d8/d89/ScheduleEvent_8cpp.html" target="_top" xlink:title=" ">
<polygon fill="white" stroke="black" points="2961.5,-274 2961.5,-293 3139.5,-293 3139.5,-274 2961.5,-274"/>
<text text-anchor="middle" x="3050.5" y="-281" font-family="Helvetica,sans-Serif" font-size="10.00">src/core/audit/ScheduleEvent.cpp</text>
</a>
</g>
</g>
<!-- Node54&#45;&gt;Node55 -->
<g id="edge52" class="edge">
<title>Node54&#45;&gt;Node55</title>
<path fill="none" stroke="midnightblue" d="M3050.5,-330.54C3050.5,-318.17 3050.5,-302.62 3050.5,-293.13"/>
<polygon fill="midnightblue" stroke="midnightblue" points="3047,-330.73 3050.5,-340.73 3054,-330.73 3047,-330.73"/>
</g>
<!-- Node56 -->
<g id="node45" class="node">
<title>Node56</title>
<g id="a_node45"><a xlink:href="../../d6/d16/Schedule_8cpp.html" target="_top" xlink:title=" ">
<polygon fill="white" stroke="black" points="3157,-274 3157,-293 3282,-293 3282,-274 3157,-274"/>
<text text-anchor="middle" x="3219.5" y="-281" font-family="Helvetica,sans-Serif" font-size="10.00">src/tools/Schedule.cpp</text>
</a>
</g>
</g>
<!-- Node54&#45;&gt;Node56 -->
<g id="edge56" class="edge">
<title>Node54&#45;&gt;Node56</title>
<path fill="none" stroke="midnightblue" d="M3082.3,-337.27C3115.84,-324.37 3167.82,-304.38 3197.23,-293.06"/>
<polygon fill="midnightblue" stroke="midnightblue" points="3081.02,-334.01 3072.94,-340.87 3083.53,-340.55 3081.02,-334.01"/>
</g>
<!-- Node57 -->
<g id="node46" class="node">
<title>Node57</title>
<g id="a_node46"><a xlink:href="../../d0/db9/XmlScheduleLoader_8cpp.html" target="_top" xlink:title=" ">
<polygon fill="white" stroke="black" points="2691,-274 2691,-293 2868,-293 2868,-274 2691,-274"/>
<text text-anchor="middle" x="2779.5" y="-281" font-family="Helvetica,sans-Serif" font-size="10.00">src/tools/XmlScheduleLoader.cpp</text>
</a>
</g>
</g>
<!-- Node54&#45;&gt;Node57 -->
<g id="edge57" class="edge">
<title>Node54&#45;&gt;Node57</title>
<path fill="none" stroke="midnightblue" d="M3004.91,-338.56C2951.48,-325.75 2864.07,-304.78 2815.29,-293.08"/>
<polygon fill="midnightblue" stroke="midnightblue" points="3004.25,-342.01 3014.79,-340.94 3005.88,-335.2 3004.25,-342.01"/>
</g>
<!-- Node58 -->
<g id="node47" class="node">
<title>Node58</title>
<g id="a_node47"><a xlink:href="../../da/d76/ScheduleValidator_8cpp.html" target="_top" xlink:title=" ">
<polygon fill="white" stroke="black" points="3300.5,-274 3300.5,-293 3446.5,-293 3446.5,-274 3300.5,-274"/>
<text text-anchor="middle" x="3373.5" y="-281" font-family="Helvetica,sans-Serif" font-size="10.00">test/ScheduleValidator.cpp</text>
</a>
</g>
</g>
<!-- Node54&#45;&gt;Node58 -->
<g id="edge58" class="edge">
<title>Node54&#45;&gt;Node58</title>
<path fill="none" stroke="midnightblue" d="M3102.88,-338.96C3166.46,-326.16 3272.41,-304.84 3331.1,-293.03"/>
<polygon fill="midnightblue" stroke="midnightblue" points="3102.17,-335.53 3093.06,-340.94 3103.55,-342.39 3102.17,-335.53"/>
</g>
<!-- Node59&#45;&gt;Node53 -->
<g id="edge60" class="edge">
<title>Node59&#45;&gt;Node53</title>
<path fill="none" stroke="midnightblue" d="M3539.5,-325.11C3539.5,-316.15 3539.5,-306.32 3539.5,-298.58"/>
<polygon fill="midnightblue" stroke="midnightblue" points="3536,-325.4 3539.5,-335.4 3543,-325.4 3536,-325.4"/>
</g>
<!-- Node60 -->
<g id="node49" class="node">
<title>Node60</title>
<g id="a_node49"><a xlink:href="../../dc/db6/ScheduleSerializer_8cpp.html" target="_top" xlink:title=" ">
<polygon fill="white" stroke="black" points="3632,-268.5 3632,-298.5 3761,-298.5 3761,-268.5 3632,-268.5"/>
<text text-anchor="start" x="3640" y="-286.5" font-family="Helvetica,sans-Serif" font-size="10.00">src/tools/serializers</text>
<text text-anchor="middle" x="3696.5" y="-275.5" font-family="Helvetica,sans-Serif" font-size="10.00">/ScheduleSerializer.cpp</text>
</a>
</g>
</g>
<!-- Node59&#45;&gt;Node60 -->
<g id="edge61" class="edge">
<title>Node59&#45;&gt;Node60</title>
<path fill="none" stroke="midnightblue" d="M3582.87,-331.54C3607.99,-321.14 3639.16,-308.24 3662.5,-298.58"/>
<polygon fill="midnightblue" stroke="midnightblue" points="3581.47,-328.34 3573.57,-335.4 3584.14,-334.8 3581.47,-328.34"/>
</g>
<!-- Node61&#45;&gt;Node21 -->
<g id="edge63" class="edge">
<title>Node61&#45;&gt;Node21</title>
<path fill="none" stroke="midnightblue" d="M2662.75,-330.76C2663.06,-312.4 2666.49,-284.82 2682.5,-268 2722.66,-225.82 2769.86,-275.58 2808.5,-232 2824.94,-213.45 2825.1,-182.75 2823.47,-164.8"/>
<polygon fill="midnightblue" stroke="midnightblue" points="2659.25,-330.86 2662.87,-340.81 2666.25,-330.77 2659.25,-330.86"/>
</g>
<!-- Node61&#45;&gt;Node46 -->
<g id="edge64" class="edge">
<title>Node61&#45;&gt;Node46</title>
<path fill="none" stroke="midnightblue" d="M2618,-338.55C2572.31,-327.55 2501.71,-310.55 2451.9,-298.56"/>
<polygon fill="midnightblue" stroke="midnightblue" points="2617.38,-342 2627.92,-340.94 2619.02,-335.19 2617.38,-342"/>
</g>
<!-- Node61&#45;&gt;Node50 -->
<g id="edge65" class="edge">
<title>Node61&#45;&gt;Node50</title>
<path fill="none" stroke="midnightblue" d="M2641.21,-335.15C2624.3,-324.27 2601.2,-309.4 2584.39,-298.59"/>
<polygon fill="midnightblue" stroke="midnightblue" points="2639.58,-338.27 2649.88,-340.73 2643.36,-332.38 2639.58,-338.27"/>
</g>
<!-- Node61&#45;&gt;Node57 -->
<g id="edge66" class="edge">
<title>Node61&#45;&gt;Node57</title>
<path fill="none" stroke="midnightblue" d="M2687.97,-335.79C2710.96,-322.9 2744.66,-304.02 2764.1,-293.13"/>
<polygon fill="midnightblue" stroke="midnightblue" points="2686.16,-332.79 2679.14,-340.73 2689.58,-338.9 2686.16,-332.79"/>
</g>
</g>
</svg>
