<?xml version="1.0" encoding="UTF-8" standalone="no"?>
<!DOCTYPE svg PUBLIC "-//W3C//DTD SVG 1.1//EN"
 "http://www.w3.org/Graphics/SVG/1.1/DTD/svg11.dtd">
<!-- Generated by graphviz version 2.43.0 (0)
 -->
<!-- Title: src/tools/ISchedule.hpp Pages: 1 -->
<svg width="3612pt" height="430pt"
 viewBox="0.00 0.00 3612.00 430.00" xmlns="http://www.w3.org/2000/svg" xmlns:xlink="http://www.w3.org/1999/xlink">
<g id="graph0" class="graph" transform="scale(1 1) rotate(0) translate(4 426)">
<title>src/tools/ISchedule.hpp</title>
<polygon fill="white" stroke="transparent" points="-4,4 -4,-426 3608,-426 3608,4 -4,4"/>
<!-- Node1 -->
<g id="node1" class="node">
<title>Node1</title>
<g id="a_node1"><a xlink:title=" ">
<polygon fill="#bfbfbf" stroke="black" points="2877,-402.5 2877,-421.5 3006,-421.5 3006,-402.5 2877,-402.5"/>
<text text-anchor="middle" x="2941.5" y="-409.5" font-family="Helvetica,sans-Serif" font-size="10.00">src/tools/ISchedule.hpp</text>
</a>
</g>
</g>
<!-- Node2 -->
<g id="node2" class="node">
<title>Node2</title>
<g id="a_node2"><a xlink:href="../../d1/d04/AuthTarget_8hpp.html" target="_top" xlink:title=" ">
<polygon fill="white" stroke="black" points="1887.5,-341 1887.5,-360 2043.5,-360 2043.5,-341 1887.5,-341"/>
<text text-anchor="middle" x="1965.5" y="-348" font-family="Helvetica,sans-Serif" font-size="10.00">src/core/auth/AuthTarget.hpp</text>
</a>
</g>
</g>
<!-- Node1&#45;&gt;Node2 -->
<g id="edge1" class="edge">
<title>Node1&#45;&gt;Node2</title>
<path fill="none" stroke="midnightblue" d="M2866.5,-406.43C2685.74,-395.41 2227.44,-367.47 2043.58,-356.26"/>
<polygon fill="midnightblue" stroke="midnightblue" points="2866.51,-409.93 2876.71,-407.05 2866.94,-402.95 2866.51,-409.93"/>
</g>
<!-- Node52 -->
<g id="node42" class="node">
<title>Node52</title>
<g id="a_node42"><a xlink:href="../../df/dfa/ScheduleCRUD_8cpp.html" target="_top" xlink:title=" ">
<polygon fill="white" stroke="black" points="3308,-268.5 3308,-298.5 3457,-298.5 3457,-268.5 3308,-268.5"/>
<text text-anchor="start" x="3316" y="-286.5" font-family="Helvetica,sans-Serif" font-size="10.00">src/modules/websock</text>
<text text-anchor="middle" x="3382.5" y="-275.5" font-family="Helvetica,sans-Serif" font-size="10.00">&#45;api/api/ScheduleCRUD.cpp</text>
</a>
</g>
</g>
<!-- Node1&#45;&gt;Node52 -->
<g id="edge51" class="edge">
<title>Node1&#45;&gt;Node52</title>
<path fill="none" stroke="midnightblue" d="M2981.27,-399.59C3062.17,-376.39 3245.68,-323.75 3333.67,-298.51"/>
<polygon fill="midnightblue" stroke="midnightblue" points="2980.11,-396.28 2971.47,-402.4 2982.04,-403.01 2980.11,-396.28"/>
</g>
<!-- Node53 -->
<g id="node43" class="node">
<title>Node53</title>
<g id="a_node43"><a xlink:href="../../d9/d58/Schedule_8hpp.html" target="_top" xlink:title=" ">
<polygon fill="white" stroke="black" points="2878.5,-341 2878.5,-360 3004.5,-360 3004.5,-341 2878.5,-341"/>
<text text-anchor="middle" x="2941.5" y="-348" font-family="Helvetica,sans-Serif" font-size="10.00">src/tools/Schedule.hpp</text>
</a>
</g>
</g>
<!-- Node1&#45;&gt;Node53 -->
<g id="edge52" class="edge">
<title>Node1&#45;&gt;Node53</title>
<path fill="none" stroke="midnightblue" d="M2941.5,-392.32C2941.5,-381.5 2941.5,-368.4 2941.5,-360.01"/>
<polygon fill="midnightblue" stroke="midnightblue" points="2938,-392.48 2941.5,-402.48 2945,-392.48 2938,-392.48"/>
</g>
<!-- Node58 -->
<g id="node48" class="node">
<title>Node58</title>
<g id="a_node48"><a xlink:href="../../da/da2/ScheduleSerializer_8hpp.html" target="_top" xlink:title=" ">
<polygon fill="white" stroke="black" points="3317.5,-335.5 3317.5,-365.5 3447.5,-365.5 3447.5,-335.5 3317.5,-335.5"/>
<text text-anchor="start" x="3325.5" y="-353.5" font-family="Helvetica,sans-Serif" font-size="10.00">src/tools/serializers</text>
<text text-anchor="middle" x="3382.5" y="-342.5" font-family="Helvetica,sans-Serif" font-size="10.00">/ScheduleSerializer.hpp</text>
</a>
</g>
</g>
<!-- Node1&#45;&gt;Node58 -->
<g id="edge60" class="edge">
<title>Node1&#45;&gt;Node58</title>
<path fill="none" stroke="midnightblue" d="M3014.7,-401.12C3099.07,-389.74 3236.44,-371.21 3317.28,-360.3"/>
<polygon fill="midnightblue" stroke="midnightblue" points="3014.13,-397.67 3004.68,-402.48 3015.06,-404.61 3014.13,-397.67"/>
</g>
<!-- Node60 -->
<g id="node50" class="node">
<title>Node60</title>
<g id="a_node50"><a xlink:href="../../d4/da0/XmlScheduleLoader_8hpp.html" target="_top" xlink:title=" ">
<polygon fill="white" stroke="black" points="2418.5,-341 2418.5,-360 2596.5,-360 2596.5,-341 2418.5,-341"/>
<text text-anchor="middle" x="2507.5" y="-348" font-family="Helvetica,sans-Serif" font-size="10.00">src/tools/XmlScheduleLoader.hpp</text>
</a>
</g>
</g>
<!-- Node1&#45;&gt;Node60 -->
<g id="edge63" class="edge">
<title>Node1&#45;&gt;Node60</title>
<path fill="none" stroke="midnightblue" d="M2869.37,-401.11C2785.6,-389.63 2648.79,-370.87 2569.57,-360.01"/>
<polygon fill="midnightblue" stroke="midnightblue" points="2868.94,-404.58 2879.32,-402.48 2869.89,-397.65 2868.94,-404.58"/>
</g>
<!-- Node3 -->
<g id="node3" class="node">
<title>Node3</title>
<g id="a_node3"><a xlink:href="../../dc/d6f/AuthTarget_8cpp.html" target="_top" xlink:title=" ">
<polygon fill="white" stroke="black" points="1442,-274 1442,-293 1597,-293 1597,-274 1442,-274"/>
<text text-anchor="middle" x="1519.5" y="-281" font-family="Helvetica,sans-Serif" font-size="10.00">src/core/auth/AuthTarget.cpp</text>
</a>
</g>
</g>
<!-- Node2&#45;&gt;Node3 -->
<g id="edge2" class="edge">
<title>Node2&#45;&gt;Node3</title>
<path fill="none" stroke="midnightblue" d="M1891.25,-339.62C1818.6,-329.81 1704.83,-314.11 1606.5,-299 1594.54,-297.16 1581.68,-295.08 1569.61,-293.08"/>
<polygon fill="midnightblue" stroke="midnightblue" points="1890.85,-343.09 1901.23,-340.96 1891.78,-336.16 1890.85,-343.09"/>
</g>
<!-- Node4 -->
<g id="node4" class="node">
<title>Node4</title>
<g id="a_node4"><a xlink:href="../../d4/d86/IAccessProfile_8hpp.html" target="_top" xlink:title=" ">
<polygon fill="white" stroke="black" points="1615,-268.5 1615,-298.5 1746,-298.5 1746,-268.5 1615,-268.5"/>
<text text-anchor="start" x="1623" y="-286.5" font-family="Helvetica,sans-Serif" font-size="10.00">src/core/auth/Interfaces</text>
<text text-anchor="middle" x="1680.5" y="-275.5" font-family="Helvetica,sans-Serif" font-size="10.00">/IAccessProfile.hpp</text>
</a>
</g>
</g>
<!-- Node2&#45;&gt;Node4 -->
<g id="edge3" class="edge">
<title>Node2&#45;&gt;Node4</title>
<path fill="none" stroke="midnightblue" d="M1918.08,-338.69C1869.87,-327.69 1794.94,-310.6 1742.14,-298.56"/>
<polygon fill="midnightblue" stroke="midnightblue" points="1917.42,-342.12 1927.95,-340.94 1918.98,-335.3 1917.42,-342.12"/>
</g>
<!-- Node19 -->
<g id="node13" class="node">
<title>Node19</title>
<g id="a_node13"><a xlink:href="../../d9/dfe/SimpleAccessProfile_8hpp.html" target="_top" xlink:title=" ">
<polygon fill="white" stroke="black" points="1741.5,-201.5 1741.5,-231.5 1891.5,-231.5 1891.5,-201.5 1741.5,-201.5"/>
<text text-anchor="start" x="1749.5" y="-219.5" font-family="Helvetica,sans-Serif" font-size="10.00">src/core/auth/SimpleAccess</text>
<text text-anchor="middle" x="1816.5" y="-208.5" font-family="Helvetica,sans-Serif" font-size="10.00">Profile.hpp</text>
</a>
</g>
</g>
<!-- Node2&#45;&gt;Node19 -->
<g id="edge43" class="edge">
<title>Node2&#45;&gt;Node19</title>
<path fill="none" stroke="midnightblue" d="M1948,-333.99C1918.85,-308.18 1860.82,-256.76 1832.62,-231.78"/>
<polygon fill="midnightblue" stroke="midnightblue" points="1945.92,-336.83 1955.72,-340.84 1950.56,-331.59 1945.92,-336.83"/>
</g>
<!-- Node45 -->
<g id="node35" class="node">
<title>Node45</title>
<g id="a_node35"><a xlink:href="../../de/d46/DoormanModule_8hpp.html" target="_top" xlink:title=" ">
<polygon fill="white" stroke="black" points="2053.5,-268.5 2053.5,-298.5 2175.5,-298.5 2175.5,-268.5 2053.5,-268.5"/>
<text text-anchor="start" x="2061.5" y="-286.5" font-family="Helvetica,sans-Serif" font-size="10.00">src/modules/doorman</text>
<text text-anchor="middle" x="2114.5" y="-275.5" font-family="Helvetica,sans-Serif" font-size="10.00">/DoormanModule.hpp</text>
</a>
</g>
</g>
<!-- Node2&#45;&gt;Node45 -->
<g id="edge44" class="edge">
<title>Node2&#45;&gt;Node45</title>
<path fill="none" stroke="midnightblue" d="M1994.69,-336.77C2019.91,-325.77 2056.29,-309.89 2082.34,-298.53"/>
<polygon fill="midnightblue" stroke="midnightblue" points="1993.05,-333.66 1985.29,-340.87 1995.85,-340.08 1993.05,-333.66"/>
</g>
<!-- Node49 -->
<g id="node39" class="node">
<title>Node49</title>
<g id="a_node39"><a xlink:href="../../d3/d6c/EventPublish_8h.html" target="_top" xlink:title=" ">
<polygon fill="white" stroke="black" points="2333.5,-268.5 2333.5,-298.5 2479.5,-298.5 2479.5,-268.5 2333.5,-268.5"/>
<text text-anchor="start" x="2341.5" y="-286.5" font-family="Helvetica,sans-Serif" font-size="10.00">src/modules/event&#45;publish</text>
<text text-anchor="middle" x="2406.5" y="-275.5" font-family="Helvetica,sans-Serif" font-size="10.00">/EventPublish.h</text>
</a>
</g>
</g>
<!-- Node2&#45;&gt;Node49 -->
<g id="edge48" class="edge">
<title>Node2&#45;&gt;Node49</title>
<path fill="none" stroke="midnightblue" d="M2033.72,-339.45C2114.89,-327.48 2249.87,-307.59 2333.21,-295.3"/>
<polygon fill="midnightblue" stroke="midnightblue" points="2032.99,-336.01 2023.61,-340.94 2034.01,-342.94 2032.99,-336.01"/>
</g>
<!-- Node5 -->
<g id="node5" class="node">
<title>Node5</title>
<g id="a_node5"><a xlink:href="../../d7/d86/IDoor_8hpp.html" target="_top" xlink:title=" ">
<polygon fill="white" stroke="black" points="760,-207 760,-226 889,-226 889,-207 760,-207"/>
<text text-anchor="middle" x="824.5" y="-214" font-family="Helvetica,sans-Serif" font-size="10.00">src/core/auth/IDoor.hpp</text>
</a>
</g>
</g>
<!-- Node4&#45;&gt;Node5 -->
<g id="edge4" class="edge">
<title>Node4&#45;&gt;Node5</title>
<path fill="none" stroke="midnightblue" d="M1604.78,-267.88C1333.98,-233.38 1021.7,-222.25 889.14,-218.86"/>
<polygon fill="midnightblue" stroke="midnightblue" points="1604.44,-271.37 1614.8,-269.17 1605.33,-264.42 1604.44,-271.37"/>
</g>
<!-- Node17 -->
<g id="node11" class="node">
<title>Node17</title>
<g id="a_node11"><a xlink:href="../../de/da4/ProfileMerger_8hpp.html" target="_top" xlink:title=" ">
<polygon fill="white" stroke="black" points="1555.5,-207 1555.5,-226 1723.5,-226 1723.5,-207 1555.5,-207"/>
<text text-anchor="middle" x="1639.5" y="-214" font-family="Helvetica,sans-Serif" font-size="10.00">src/core/auth/ProfileMerger.hpp</text>
</a>
</g>
</g>
<!-- Node4&#45;&gt;Node17 -->
<g id="edge10" class="edge">
<title>Node4&#45;&gt;Node17</title>
<path fill="none" stroke="midnightblue" d="M1666.08,-259.63C1658.78,-248.07 1650.36,-234.71 1644.98,-226.19"/>
<polygon fill="midnightblue" stroke="midnightblue" points="1663.31,-261.81 1671.6,-268.4 1669.23,-258.07 1663.31,-261.81"/>
</g>
<!-- Node4&#45;&gt;Node19 -->
<g id="edge13" class="edge">
<title>Node4&#45;&gt;Node19</title>
<path fill="none" stroke="midnightblue" d="M1719.22,-263.99C1740.78,-253.69 1767.19,-241.07 1787.05,-231.58"/>
<polygon fill="midnightblue" stroke="midnightblue" points="1717.52,-260.93 1710.01,-268.4 1720.54,-267.24 1717.52,-260.93"/>
</g>
<!-- Node29 -->
<g id="node20" class="node">
<title>Node29</title>
<g id="a_node20"><a xlink:href="../../de/dfd/User_8hpp.html" target="_top" xlink:title=" ">
<polygon fill="white" stroke="red" points="1465,-140 1465,-159 1590,-159 1590,-140 1465,-140"/>
<text text-anchor="middle" x="1527.5" y="-147" font-family="Helvetica,sans-Serif" font-size="10.00">src/core/auth/User.hpp</text>
</a>
</g>
</g>
<!-- Node4&#45;&gt;Node29 -->
<g id="edge23" class="edge">
<title>Node4&#45;&gt;Node29</title>
<path fill="none" stroke="midnightblue" d="M1618.84,-265.43C1588.69,-255.9 1556.7,-243.64 1546.5,-232 1528.11,-211.02 1526.62,-175.67 1527.02,-159.3"/>
<polygon fill="midnightblue" stroke="midnightblue" points="1617.96,-268.82 1628.54,-268.43 1620.02,-262.13 1617.96,-268.82"/>
</g>
<!-- Node6 -->
<g id="node6" class="node">
<title>Node6</title>
<g id="a_node6"><a xlink:href="../../d1/d8f/Door_8hpp.html" target="_top" xlink:title=" ">
<polygon fill="white" stroke="red" points="761.5,-140 761.5,-159 887.5,-159 887.5,-140 761.5,-140"/>
<text text-anchor="middle" x="824.5" y="-147" font-family="Helvetica,sans-Serif" font-size="10.00">src/core/auth/Door.hpp</text>
</a>
</g>
</g>
<!-- Node5&#45;&gt;Node6 -->
<g id="edge5" class="edge">
<title>Node5&#45;&gt;Node6</title>
<path fill="none" stroke="midnightblue" d="M824.5,-196.54C824.5,-184.17 824.5,-168.62 824.5,-159.13"/>
<polygon fill="midnightblue" stroke="midnightblue" points="821,-196.73 824.5,-206.73 828,-196.73 821,-196.73"/>
</g>
<!-- Node16 -->
<g id="node10" class="node">
<title>Node16</title>
<g id="a_node10"><a xlink:href="../../dc/da8/UserSecurityContext_8cpp.html" target="_top" xlink:title=" ">
<polygon fill="white" stroke="black" points="564,-140 564,-159 743,-159 743,-140 564,-140"/>
<text text-anchor="middle" x="653.5" y="-147" font-family="Helvetica,sans-Serif" font-size="10.00">src/core/UserSecurityContext.cpp</text>
</a>
</g>
</g>
<!-- Node5&#45;&gt;Node16 -->
<g id="edge9" class="edge">
<title>Node5&#45;&gt;Node16</title>
<path fill="none" stroke="midnightblue" d="M792.33,-203.27C758.39,-190.37 705.79,-170.38 676.03,-159.06"/>
<polygon fill="midnightblue" stroke="midnightblue" points="791.2,-206.59 801.79,-206.87 793.69,-200.04 791.2,-206.59"/>
</g>
<!-- Node7 -->
<g id="node7" class="node">
<title>Node7</title>
<g id="a_node7"><a xlink:href="../../d4/dbe/AuditFactory_8cpp.html" target="_top" xlink:title=" ">
<polygon fill="white" stroke="black" points="0,-73 0,-92 165,-92 165,-73 0,-73"/>
<text text-anchor="middle" x="82.5" y="-80" font-family="Helvetica,sans-Serif" font-size="10.00">src/core/audit/AuditFactory.cpp</text>
</a>
</g>
</g>
<!-- Node6&#45;&gt;Node7 -->
<g id="edge6" class="edge">
<title>Node6&#45;&gt;Node7</title>
<path fill="none" stroke="midnightblue" d="M776.46,-138.01C768.17,-136.47 759.61,-135.05 751.5,-134 496.26,-100.85 429.33,-126.28 173.5,-98 159.51,-96.45 144.38,-94.26 130.56,-92.04"/>
<polygon fill="midnightblue" stroke="midnightblue" points="775.91,-141.47 786.39,-139.93 777.24,-134.6 775.91,-141.47"/>
</g>
<!-- Node12 -->
<g id="node8" class="node">
<title>Node12</title>
<g id="a_node8"><a xlink:href="../../d3/dc5/FileAuthSourceMapper_8cpp.html" target="_top" xlink:title=" ">
<polygon fill="white" stroke="black" points="2459,-67.5 2459,-97.5 2626,-97.5 2626,-67.5 2459,-67.5"/>
<text text-anchor="start" x="2467" y="-85.5" font-family="Helvetica,sans-Serif" font-size="10.00">src/modules/auth/auth</text>
<text text-anchor="middle" x="2542.5" y="-74.5" font-family="Helvetica,sans-Serif" font-size="10.00">&#45;file/FileAuthSourceMapper.cpp</text>
</a>
</g>
</g>
<!-- Node6&#45;&gt;Node12 -->
<g id="edge7" class="edge">
<title>Node6&#45;&gt;Node12</title>
<path fill="none" stroke="midnightblue" d="M897.61,-146.95C1168.11,-141.08 2112,-119.5 2412.5,-98 2427.45,-96.93 2443.33,-95.45 2458.67,-93.84"/>
<polygon fill="midnightblue" stroke="midnightblue" points="897.43,-143.45 887.51,-147.16 897.59,-150.45 897.43,-143.45"/>
</g>
<!-- Node15 -->
<g id="node9" class="node">
<title>Node15</title>
<g id="a_node9"><a xlink:href="../../d7/d01/ScheduleMapping_8cpp.html" target="_top" xlink:title=" ">
<polygon fill="white" stroke="black" points="183,-73 183,-92 350,-92 350,-73 183,-73"/>
<text text-anchor="middle" x="266.5" y="-80" font-family="Helvetica,sans-Serif" font-size="10.00">src/tools/ScheduleMapping.cpp</text>
</a>
</g>
</g>
<!-- Node6&#45;&gt;Node15 -->
<g id="edge8" class="edge">
<title>Node6&#45;&gt;Node15</title>
<path fill="none" stroke="midnightblue" d="M775.6,-138.06C767.57,-136.55 759.32,-135.13 751.5,-134 578.35,-108.92 533.13,-119.49 359.5,-98 345.88,-96.31 331.18,-94.17 317.58,-92.06"/>
<polygon fill="midnightblue" stroke="midnightblue" points="775.13,-141.53 785.61,-139.99 776.46,-134.66 775.13,-141.53"/>
</g>
<!-- Node17&#45;&gt;Node12 -->
<g id="edge12" class="edge">
<title>Node17&#45;&gt;Node12</title>
<path fill="none" stroke="midnightblue" d="M1637.99,-196.78C1637.59,-177.78 1640.38,-149.07 1658.5,-134 1725.8,-78.03 2358.38,-106.48 2445.5,-98 2449.91,-97.57 2454.42,-97.08 2458.97,-96.54"/>
<polygon fill="midnightblue" stroke="midnightblue" points="1634.5,-197.1 1638.51,-206.91 1641.49,-196.74 1634.5,-197.1"/>
</g>
<!-- Node18 -->
<g id="node12" class="node">
<title>Node18</title>
<g id="a_node12"><a xlink:href="../../d9/d35/ProfileMerger_8cpp.html" target="_top" xlink:title=" ">
<polygon fill="white" stroke="black" points="1667,-140 1667,-159 1834,-159 1834,-140 1667,-140"/>
<text text-anchor="middle" x="1750.5" y="-147" font-family="Helvetica,sans-Serif" font-size="10.00">src/core/auth/ProfileMerger.cpp</text>
</a>
</g>
</g>
<!-- Node17&#45;&gt;Node18 -->
<g id="edge11" class="edge">
<title>Node17&#45;&gt;Node18</title>
<path fill="none" stroke="midnightblue" d="M1663.21,-201.62C1685.2,-188.74 1717.24,-169.98 1735.77,-159.13"/>
<polygon fill="midnightblue" stroke="midnightblue" points="1661.33,-198.66 1654.47,-206.73 1664.87,-204.7 1661.33,-198.66"/>
</g>
<!-- Node19&#45;&gt;Node18 -->
<g id="edge14" class="edge">
<title>Node19&#45;&gt;Node18</title>
<path fill="none" stroke="midnightblue" d="M1795.01,-194.34C1782.89,-182.4 1768.41,-168.14 1759.33,-159.19"/>
<polygon fill="midnightblue" stroke="midnightblue" points="1792.6,-196.87 1802.18,-201.4 1797.51,-191.89 1792.6,-196.87"/>
</g>
<!-- Node20 -->
<g id="node14" class="node">
<title>Node20</title>
<g id="a_node14"><a xlink:href="../../d8/dcf/SimpleAccessProfile_8cpp.html" target="_top" xlink:title=" ">
<polygon fill="white" stroke="black" points="1851.5,-134.5 1851.5,-164.5 2001.5,-164.5 2001.5,-134.5 1851.5,-134.5"/>
<text text-anchor="start" x="1859.5" y="-152.5" font-family="Helvetica,sans-Serif" font-size="10.00">src/core/auth/SimpleAccess</text>
<text text-anchor="middle" x="1926.5" y="-141.5" font-family="Helvetica,sans-Serif" font-size="10.00">Profile.cpp</text>
</a>
</g>
</g>
<!-- Node19&#45;&gt;Node20 -->
<g id="edge15" class="edge">
<title>Node19&#45;&gt;Node20</title>
<path fill="none" stroke="midnightblue" d="M1849,-196.3C1866.21,-186.12 1886.98,-173.85 1902.68,-164.58"/>
<polygon fill="midnightblue" stroke="midnightblue" points="1847.2,-193.3 1840.37,-201.4 1850.76,-199.32 1847.2,-193.3"/>
</g>
<!-- Node21 -->
<g id="node15" class="node">
<title>Node21</title>
<g id="a_node15"><a xlink:href="../../df/d5d/FileAuthSourceMapper_8hpp.html" target="_top" xlink:title=" ">
<polygon fill="white" stroke="black" points="2745.5,-134.5 2745.5,-164.5 2913.5,-164.5 2913.5,-134.5 2745.5,-134.5"/>
<text text-anchor="start" x="2753.5" y="-152.5" font-family="Helvetica,sans-Serif" font-size="10.00">src/modules/auth/auth</text>
<text text-anchor="middle" x="2829.5" y="-141.5" font-family="Helvetica,sans-Serif" font-size="10.00">&#45;file/FileAuthSourceMapper.hpp</text>
</a>
</g>
</g>
<!-- Node19&#45;&gt;Node21 -->
<g id="edge16" class="edge">
<title>Node19&#45;&gt;Node21</title>
<path fill="none" stroke="midnightblue" d="M1901.85,-200.94C2218.62,-165.69 2583.7,-154.99 2745.32,-151.79"/>
<polygon fill="midnightblue" stroke="midnightblue" points="1901.09,-197.51 1891.54,-202.1 1901.87,-204.46 1901.09,-197.51"/>
</g>
<!-- Node21&#45;&gt;Node12 -->
<g id="edge20" class="edge">
<title>Node21&#45;&gt;Node12</title>
<path fill="none" stroke="midnightblue" d="M2757.76,-132.25C2710.72,-121.6 2649.82,-107.81 2604.81,-97.61"/>
<polygon fill="midnightblue" stroke="midnightblue" points="2757.05,-135.68 2767.58,-134.48 2758.6,-128.85 2757.05,-135.68"/>
</g>
<!-- Node22 -->
<g id="node16" class="node">
<title>Node22</title>
<g id="a_node16"><a xlink:href="../../de/df9/AuthFileInstance_8hpp.html" target="_top" xlink:title=" ">
<polygon fill="white" stroke="red" points="2759.5,-67.5 2759.5,-97.5 2899.5,-97.5 2899.5,-67.5 2759.5,-67.5"/>
<text text-anchor="start" x="2767.5" y="-85.5" font-family="Helvetica,sans-Serif" font-size="10.00">src/modules/auth/auth</text>
<text text-anchor="middle" x="2829.5" y="-74.5" font-family="Helvetica,sans-Serif" font-size="10.00">&#45;file/AuthFileInstance.hpp</text>
</a>
</g>
</g>
<!-- Node21&#45;&gt;Node22 -->
<g id="edge17" class="edge">
<title>Node21&#45;&gt;Node22</title>
<path fill="none" stroke="midnightblue" d="M2829.5,-124.11C2829.5,-115.15 2829.5,-105.32 2829.5,-97.58"/>
<polygon fill="midnightblue" stroke="midnightblue" points="2826,-124.4 2829.5,-134.4 2833,-124.4 2826,-124.4"/>
</g>
<!-- Node23 -->
<g id="node17" class="node">
<title>Node23</title>
<g id="a_node17"><a xlink:href="../../da/d9b/AuthFileInstance_8cpp.html" target="_top" xlink:title=" ">
<polygon fill="white" stroke="black" points="2759.5,-0.5 2759.5,-30.5 2899.5,-30.5 2899.5,-0.5 2759.5,-0.5"/>
<text text-anchor="start" x="2767.5" y="-18.5" font-family="Helvetica,sans-Serif" font-size="10.00">src/modules/auth/auth</text>
<text text-anchor="middle" x="2829.5" y="-7.5" font-family="Helvetica,sans-Serif" font-size="10.00">&#45;file/AuthFileInstance.cpp</text>
</a>
</g>
</g>
<!-- Node21&#45;&gt;Node23 -->
<g id="edge19" class="edge">
<title>Node21&#45;&gt;Node23</title>
<path fill="none" stroke="midnightblue" d="M2919.55,-132.68C2987.31,-120.33 3069.39,-104.27 3074.5,-98 3124.55,-36.58 2988.7,-21.12 2899.79,-17.44"/>
<polygon fill="midnightblue" stroke="midnightblue" points="2918.88,-129.24 2909.66,-134.47 2920.13,-136.13 2918.88,-129.24"/>
</g>
<!-- Node27 -->
<g id="node18" class="node">
<title>Node27</title>
<g id="a_node18"><a xlink:href="../../d5/d58/AuthFile_8cpp.html" target="_top" xlink:title=" ">
<polygon fill="white" stroke="black" points="2643.5,-73 2643.5,-92 2741.5,-92 2741.5,-73 2643.5,-73"/>
<text text-anchor="middle" x="2692.5" y="-80" font-family="Helvetica,sans-Serif" font-size="10.00">test/AuthFile.cpp</text>
</a>
</g>
</g>
<!-- Node21&#45;&gt;Node27 -->
<g id="edge21" class="edge">
<title>Node21&#45;&gt;Node27</title>
<path fill="none" stroke="midnightblue" d="M2790.44,-129.97C2764.12,-117.48 2730.64,-101.6 2710.43,-92.01"/>
<polygon fill="midnightblue" stroke="midnightblue" points="2789.24,-133.27 2799.77,-134.4 2792.24,-126.95 2789.24,-133.27"/>
</g>
<!-- Node28 -->
<g id="node19" class="node">
<title>Node28</title>
<g id="a_node19"><a xlink:href="../../d9/d75/test_2AuthSourceBuilder_8cpp.html" target="_top" xlink:title=" ">
<polygon fill="white" stroke="black" points="2917.5,-73 2917.5,-92 3065.5,-92 3065.5,-73 2917.5,-73"/>
<text text-anchor="middle" x="2991.5" y="-80" font-family="Helvetica,sans-Serif" font-size="10.00">test/AuthSourceBuilder.cpp</text>
</a>
</g>
</g>
<!-- Node21&#45;&gt;Node28 -->
<g id="edge22" class="edge">
<title>Node21&#45;&gt;Node28</title>
<path fill="none" stroke="midnightblue" d="M2874.06,-130.62C2905.42,-118.04 2945.98,-101.77 2970.3,-92.01"/>
<polygon fill="midnightblue" stroke="midnightblue" points="2872.63,-127.42 2864.65,-134.4 2875.24,-133.92 2872.63,-127.42"/>
</g>
<!-- Node22&#45;&gt;Node23 -->
<g id="edge18" class="edge">
<title>Node22&#45;&gt;Node23</title>
<path fill="none" stroke="midnightblue" d="M2829.5,-57.11C2829.5,-48.15 2829.5,-38.32 2829.5,-30.58"/>
<polygon fill="midnightblue" stroke="midnightblue" points="2826,-57.4 2829.5,-67.4 2833,-57.4 2826,-57.4"/>
</g>
<!-- Node29&#45;&gt;Node7 -->
<g id="edge25" class="edge">
<title>Node29&#45;&gt;Node7</title>
<path fill="none" stroke="midnightblue" d="M1454.76,-146.95C1211.2,-141.57 425.5,-122.69 173.5,-98 159.01,-96.58 143.32,-94.34 129.12,-92.04"/>
<polygon fill="midnightblue" stroke="midnightblue" points="1454.84,-150.45 1464.92,-147.17 1455,-143.45 1454.84,-150.45"/>
</g>
<!-- Node29&#45;&gt;Node12 -->
<g id="edge31" class="edge">
<title>Node29&#45;&gt;Node12</title>
<path fill="none" stroke="midnightblue" d="M1588.38,-138.5C1600.64,-136.76 1613.46,-135.15 1625.5,-134 1988.64,-99.26 2082.39,-133.01 2445.5,-98 2449.91,-97.58 2454.42,-97.09 2458.97,-96.55"/>
<polygon fill="midnightblue" stroke="midnightblue" points="1587.63,-135.07 1578.24,-139.98 1588.64,-142 1587.63,-135.07"/>
</g>
<!-- Node29&#45;&gt;Node15 -->
<g id="edge41" class="edge">
<title>Node29&#45;&gt;Node15</title>
<path fill="none" stroke="midnightblue" d="M1454.47,-146.41C1233.39,-139.92 573.48,-119.24 359.5,-98 344.87,-96.55 329.03,-94.32 314.64,-92.05"/>
<polygon fill="midnightblue" stroke="midnightblue" points="1454.56,-149.91 1464.66,-146.71 1454.77,-142.92 1454.56,-149.91"/>
</g>
<!-- Node29&#45;&gt;Node23 -->
<g id="edge30" class="edge">
<title>Node29&#45;&gt;Node23</title>
<path fill="none" stroke="midnightblue" d="M1594.49,-138.67C1608.35,-136.89 1622.88,-135.22 1636.5,-134 1808.44,-118.6 2251.26,-159.67 2412.5,-98 2432.86,-90.21 2430.5,-75.66 2450.5,-67 2504.49,-43.64 2665.41,-28.42 2759.3,-21.26"/>
<polygon fill="midnightblue" stroke="midnightblue" points="1593.99,-135.2 1584.53,-139.97 1594.9,-142.14 1593.99,-135.2"/>
</g>
<!-- Node29&#45;&gt;Node27 -->
<g id="edge42" class="edge">
<title>Node29&#45;&gt;Node27</title>
<path fill="none" stroke="midnightblue" d="M1600.12,-139.5C1619.1,-137.41 1639.54,-135.4 1658.5,-134 2091.84,-102.08 2205.42,-159.91 2635.5,-98 2644.9,-96.65 2654.99,-94.36 2664.03,-92"/>
<polygon fill="midnightblue" stroke="midnightblue" points="1599.6,-136.04 1590.05,-140.63 1600.38,-142.99 1599.6,-136.04"/>
</g>
<!-- Node30 -->
<g id="node21" class="node">
<title>Node30</title>
<g id="a_node21"><a xlink:href="../../d3/d19/AuditEntry_8cpp.html" target="_top" xlink:title=" ">
<polygon fill="white" stroke="black" points="1747,-73 1747,-92 1902,-92 1902,-73 1747,-73"/>
<text text-anchor="middle" x="1824.5" y="-80" font-family="Helvetica,sans-Serif" font-size="10.00">src/core/audit/AuditEntry.cpp</text>
</a>
</g>
</g>
<!-- Node29&#45;&gt;Node30 -->
<g id="edge24" class="edge">
<title>Node29&#45;&gt;Node30</title>
<path fill="none" stroke="midnightblue" d="M1576.74,-137.72C1635.22,-124.92 1731.59,-103.83 1785.28,-92.08"/>
<polygon fill="midnightblue" stroke="midnightblue" points="1575.65,-134.38 1566.63,-139.94 1577.15,-141.22 1575.65,-134.38"/>
</g>
<!-- Node31 -->
<g id="node22" class="node">
<title>Node31</title>
<g id="a_node22"><a xlink:href="../../d2/d8b/UserEvent_8cpp.html" target="_top" xlink:title=" ">
<polygon fill="white" stroke="black" points="1920.5,-73 1920.5,-92 2076.5,-92 2076.5,-73 1920.5,-73"/>
<text text-anchor="middle" x="1998.5" y="-80" font-family="Helvetica,sans-Serif" font-size="10.00">src/core/audit/UserEvent.cpp</text>
</a>
</g>
</g>
<!-- Node29&#45;&gt;Node31 -->
<g id="edge26" class="edge">
<title>Node29&#45;&gt;Node31</title>
<path fill="none" stroke="midnightblue" d="M1593.76,-138.5C1604.37,-136.95 1615.23,-135.41 1625.5,-134 1752.43,-116.62 1784.73,-116.53 1911.5,-98 1923.77,-96.21 1936.99,-94.1 1949.32,-92.05"/>
<polygon fill="midnightblue" stroke="midnightblue" points="1593.09,-135.06 1583.7,-139.97 1594.1,-141.98 1593.09,-135.06"/>
</g>
<!-- Node32 -->
<g id="node23" class="node">
<title>Node32</title>
<g id="a_node23"><a xlink:href="../../d2/de5/WSAPICall_8cpp.html" target="_top" xlink:title=" ">
<polygon fill="white" stroke="black" points="2095,-73 2095,-92 2252,-92 2252,-73 2095,-73"/>
<text text-anchor="middle" x="2173.5" y="-80" font-family="Helvetica,sans-Serif" font-size="10.00">src/core/audit/WSAPICall.cpp</text>
</a>
</g>
</g>
<!-- Node29&#45;&gt;Node32 -->
<g id="edge27" class="edge">
<title>Node29&#45;&gt;Node32</title>
<path fill="none" stroke="midnightblue" d="M1590.61,-138.51C1602.2,-136.86 1614.2,-135.28 1625.5,-134 1829.27,-110.98 1881.92,-122.69 2085.5,-98 2098.72,-96.4 2112.99,-94.23 2126.11,-92.07"/>
<polygon fill="midnightblue" stroke="midnightblue" points="1589.96,-135.07 1580.56,-139.97 1590.96,-142 1589.96,-135.07"/>
</g>
<!-- Node33 -->
<g id="node24" class="node">
<title>Node33</title>
<g id="a_node24"><a xlink:href="../../d3/da9/UserSerializer_8cpp.html" target="_top" xlink:title=" ">
<polygon fill="white" stroke="black" points="2270,-67.5 2270,-97.5 2403,-97.5 2403,-67.5 2270,-67.5"/>
<text text-anchor="start" x="2278" y="-85.5" font-family="Helvetica,sans-Serif" font-size="10.00">src/core/auth/serializers</text>
<text text-anchor="middle" x="2336.5" y="-74.5" font-family="Helvetica,sans-Serif" font-size="10.00">/UserSerializer.cpp</text>
</a>
</g>
</g>
<!-- Node29&#45;&gt;Node33 -->
<g id="edge28" class="edge">
<title>Node29&#45;&gt;Node33</title>
<path fill="none" stroke="midnightblue" d="M1589.01,-138.53C1601.08,-136.82 1613.67,-135.21 1625.5,-134 1907.16,-105.25 1980.55,-132.95 2261.5,-98 2264.26,-97.66 2267.08,-97.27 2269.92,-96.85"/>
<polygon fill="midnightblue" stroke="midnightblue" points="1588.41,-135.08 1579.01,-139.99 1589.41,-142.01 1588.41,-135.08"/>
</g>
<!-- Node34 -->
<g id="node25" class="node">
<title>Node34</title>
<g id="a_node25"><a xlink:href="../../dd/d24/kernel_8cpp.html" target="_top" xlink:title=" ">
<polygon fill="white" stroke="black" points="3121.5,-73 3121.5,-92 3229.5,-92 3229.5,-73 3121.5,-73"/>
<text text-anchor="middle" x="3175.5" y="-80" font-family="Helvetica,sans-Serif" font-size="10.00">src/core/kernel.cpp</text>
</a>
</g>
</g>
<!-- Node29&#45;&gt;Node34 -->
<g id="edge29" class="edge">
<title>Node29&#45;&gt;Node34</title>
<path fill="none" stroke="midnightblue" d="M1600.11,-139.35C1619.09,-137.27 1639.54,-135.29 1658.5,-134 2286.59,-91.33 2447.18,-150.82 3074.5,-98 3090.83,-96.63 3108.54,-94.35 3124.51,-92.01"/>
<polygon fill="midnightblue" stroke="midnightblue" points="1599.59,-135.89 1590.04,-140.48 1600.37,-142.85 1599.59,-135.89"/>
</g>
<!-- Node35 -->
<g id="node26" class="node">
<title>Node35</title>
<g id="a_node26"><a xlink:href="../../d7/d29/AccessPointCRUD_8cpp.html" target="_top" xlink:title=" ">
<polygon fill="white" stroke="black" points="368.5,-67.5 368.5,-97.5 532.5,-97.5 532.5,-67.5 368.5,-67.5"/>
<text text-anchor="start" x="376.5" y="-85.5" font-family="Helvetica,sans-Serif" font-size="10.00">src/modules/websock</text>
<text text-anchor="middle" x="450.5" y="-74.5" font-family="Helvetica,sans-Serif" font-size="10.00">&#45;api/api/AccessPointCRUD.cpp</text>
</a>
</g>
</g>
<!-- Node29&#45;&gt;Node35 -->
<g id="edge32" class="edge">
<title>Node29&#45;&gt;Node35</title>
<path fill="none" stroke="midnightblue" d="M1454.3,-147.42C1290.4,-144.43 881.58,-133.7 541.5,-98 538.64,-97.7 535.73,-97.37 532.79,-97.02"/>
<polygon fill="midnightblue" stroke="midnightblue" points="1454.68,-150.93 1464.74,-147.61 1454.8,-143.93 1454.68,-150.93"/>
</g>
<!-- Node36 -->
<g id="node27" class="node">
<title>Node36</title>
<g id="a_node27"><a xlink:href="../../d7/d86/APIAuth_8cpp.html" target="_top" xlink:title=" ">
<polygon fill="white" stroke="black" points="550.5,-67.5 550.5,-97.5 672.5,-97.5 672.5,-67.5 550.5,-67.5"/>
<text text-anchor="start" x="558.5" y="-85.5" font-family="Helvetica,sans-Serif" font-size="10.00">src/modules/websock</text>
<text text-anchor="middle" x="611.5" y="-74.5" font-family="Helvetica,sans-Serif" font-size="10.00">&#45;api/api/APIAuth.cpp</text>
</a>
</g>
</g>
<!-- Node29&#45;&gt;Node36 -->
<g id="edge33" class="edge">
<title>Node29&#45;&gt;Node36</title>
<path fill="none" stroke="midnightblue" d="M1454.61,-147.69C1307.72,-145.28 965.84,-135.74 681.5,-98 678.67,-97.62 675.78,-97.2 672.87,-96.74"/>
<polygon fill="midnightblue" stroke="midnightblue" points="1454.8,-151.2 1464.85,-147.85 1454.91,-144.2 1454.8,-151.2"/>
</g>
<!-- Node37 -->
<g id="node28" class="node">
<title>Node37</title>
<g id="a_node28"><a xlink:href="../../d9/d8d/APISession_8cpp.html" target="_top" xlink:title=" ">
<polygon fill="white" stroke="black" points="690.5,-67.5 690.5,-97.5 820.5,-97.5 820.5,-67.5 690.5,-67.5"/>
<text text-anchor="start" x="698.5" y="-85.5" font-family="Helvetica,sans-Serif" font-size="10.00">src/modules/websock</text>
<text text-anchor="middle" x="755.5" y="-74.5" font-family="Helvetica,sans-Serif" font-size="10.00">&#45;api/api/APISession.cpp</text>
</a>
</g>
</g>
<!-- Node29&#45;&gt;Node37 -->
<g id="edge34" class="edge">
<title>Node29&#45;&gt;Node37</title>
<path fill="none" stroke="midnightblue" d="M1454.65,-146.14C1327.36,-141.36 1056.38,-128.32 829.5,-98 826.65,-97.62 823.73,-97.2 820.8,-96.74"/>
<polygon fill="midnightblue" stroke="midnightblue" points="1454.55,-149.64 1464.67,-146.51 1454.81,-142.64 1454.55,-149.64"/>
</g>
<!-- Node38 -->
<g id="node29" class="node">
<title>Node38</title>
<g id="a_node29"><a xlink:href="../../d7/dde/DoorCRUD_8cpp.html" target="_top" xlink:title=" ">
<polygon fill="white" stroke="black" points="838.5,-67.5 838.5,-97.5 966.5,-97.5 966.5,-67.5 838.5,-67.5"/>
<text text-anchor="start" x="846.5" y="-85.5" font-family="Helvetica,sans-Serif" font-size="10.00">src/modules/websock</text>
<text text-anchor="middle" x="902.5" y="-74.5" font-family="Helvetica,sans-Serif" font-size="10.00">&#45;api/api/DoorCRUD.cpp</text>
</a>
</g>
</g>
<!-- Node29&#45;&gt;Node38 -->
<g id="edge35" class="edge">
<title>Node29&#45;&gt;Node38</title>
<path fill="none" stroke="midnightblue" d="M1454.49,-144.27C1348.57,-137.57 1146.25,-122.7 975.5,-98 972.56,-97.57 969.56,-97.11 966.53,-96.61"/>
<polygon fill="midnightblue" stroke="midnightblue" points="1454.55,-147.78 1464.75,-144.91 1454.99,-140.79 1454.55,-147.78"/>
</g>
<!-- Node39 -->
<g id="node30" class="node">
<title>Node39</title>
<g id="a_node30"><a xlink:href="../../d1/de1/GroupCRUD_8cpp.html" target="_top" xlink:title=" ">
<polygon fill="white" stroke="black" points="984.5,-67.5 984.5,-97.5 1118.5,-97.5 1118.5,-67.5 984.5,-67.5"/>
<text text-anchor="start" x="992.5" y="-85.5" font-family="Helvetica,sans-Serif" font-size="10.00">src/modules/websock</text>
<text text-anchor="middle" x="1051.5" y="-74.5" font-family="Helvetica,sans-Serif" font-size="10.00">&#45;api/api/GroupCRUD.cpp</text>
</a>
</g>
</g>
<!-- Node29&#45;&gt;Node39 -->
<g id="edge36" class="edge">
<title>Node29&#45;&gt;Node39</title>
<path fill="none" stroke="midnightblue" d="M1454.97,-140.73C1374.68,-131.81 1241.53,-116.06 1127.5,-98 1124.58,-97.54 1121.6,-97.05 1118.6,-96.54"/>
<polygon fill="midnightblue" stroke="midnightblue" points="1454.65,-144.22 1464.97,-141.84 1455.42,-137.26 1454.65,-144.22"/>
</g>
<!-- Node40 -->
<g id="node31" class="node">
<title>Node40</title>
<g id="a_node31"><a xlink:href="../../df/dc4/MembershipCRUD_8cpp.html" target="_top" xlink:title=" ">
<polygon fill="white" stroke="black" points="1136.5,-67.5 1136.5,-97.5 1302.5,-97.5 1302.5,-67.5 1136.5,-67.5"/>
<text text-anchor="start" x="1144.5" y="-85.5" font-family="Helvetica,sans-Serif" font-size="10.00">src/modules/websock</text>
<text text-anchor="middle" x="1219.5" y="-74.5" font-family="Helvetica,sans-Serif" font-size="10.00">&#45;api/api/MembershipCRUD.cpp</text>
</a>
</g>
</g>
<!-- Node29&#45;&gt;Node40 -->
<g id="edge37" class="edge">
<title>Node29&#45;&gt;Node40</title>
<path fill="none" stroke="midnightblue" d="M1476.91,-137.82C1424.83,-126.83 1343.41,-109.65 1286.12,-97.56"/>
<polygon fill="midnightblue" stroke="midnightblue" points="1476.41,-141.3 1486.92,-139.94 1477.86,-134.45 1476.41,-141.3"/>
</g>
<!-- Node41 -->
<g id="node32" class="node">
<title>Node41</title>
<g id="a_node32"><a xlink:href="../../df/df7/UserCRUD_8cpp.html" target="_top" xlink:title=" ">
<polygon fill="white" stroke="black" points="1320.5,-67.5 1320.5,-97.5 1448.5,-97.5 1448.5,-67.5 1320.5,-67.5"/>
<text text-anchor="start" x="1328.5" y="-85.5" font-family="Helvetica,sans-Serif" font-size="10.00">src/modules/websock</text>
<text text-anchor="middle" x="1384.5" y="-74.5" font-family="Helvetica,sans-Serif" font-size="10.00">&#45;api/api/UserCRUD.cpp</text>
</a>
</g>
</g>
<!-- Node29&#45;&gt;Node41 -->
<g id="edge38" class="edge">
<title>Node29&#45;&gt;Node41</title>
<path fill="none" stroke="midnightblue" d="M1499.17,-135.62C1474.98,-124.63 1440.25,-108.84 1415.36,-97.53"/>
<polygon fill="midnightblue" stroke="midnightblue" points="1497.96,-138.92 1508.51,-139.87 1500.86,-132.54 1497.96,-138.92"/>
</g>
<!-- Node42 -->
<g id="node33" class="node">
<title>Node42</title>
<g id="a_node33"><a xlink:href="../../d6/dd1/Exceptions_8cpp.html" target="_top" xlink:title=" ">
<polygon fill="white" stroke="black" points="1466.5,-67.5 1466.5,-97.5 1588.5,-97.5 1588.5,-67.5 1466.5,-67.5"/>
<text text-anchor="start" x="1474.5" y="-85.5" font-family="Helvetica,sans-Serif" font-size="10.00">src/modules/websock</text>
<text text-anchor="middle" x="1527.5" y="-74.5" font-family="Helvetica,sans-Serif" font-size="10.00">&#45;api/Exceptions.cpp</text>
</a>
</g>
</g>
<!-- Node29&#45;&gt;Node42 -->
<g id="edge39" class="edge">
<title>Node29&#45;&gt;Node42</title>
<path fill="none" stroke="midnightblue" d="M1527.5,-129.41C1527.5,-119.22 1527.5,-106.9 1527.5,-97.59"/>
<polygon fill="midnightblue" stroke="midnightblue" points="1524,-129.73 1527.5,-139.73 1531,-129.73 1524,-129.73"/>
</g>
<!-- Node43 -->
<g id="node34" class="node">
<title>Node43</title>
<g id="a_node34"><a xlink:href="../../d4/d2c/WSServer_8cpp.html" target="_top" xlink:title=" ">
<polygon fill="white" stroke="black" points="1606.5,-67.5 1606.5,-97.5 1728.5,-97.5 1728.5,-67.5 1606.5,-67.5"/>
<text text-anchor="start" x="1614.5" y="-85.5" font-family="Helvetica,sans-Serif" font-size="10.00">src/modules/websock</text>
<text text-anchor="middle" x="1667.5" y="-74.5" font-family="Helvetica,sans-Serif" font-size="10.00">&#45;api/WSServer.cpp</text>
</a>
</g>
</g>
<!-- Node29&#45;&gt;Node43 -->
<g id="edge40" class="edge">
<title>Node29&#45;&gt;Node43</title>
<path fill="none" stroke="midnightblue" d="M1555.24,-135.62C1578.92,-124.63 1612.92,-108.84 1637.29,-97.53"/>
<polygon fill="midnightblue" stroke="midnightblue" points="1553.69,-132.48 1546.09,-139.87 1556.63,-138.83 1553.69,-132.48"/>
</g>
<!-- Node46 -->
<g id="node36" class="node">
<title>Node46</title>
<g id="a_node36"><a xlink:href="../../d2/d46/DoormanInstance_8cpp.html" target="_top" xlink:title=" ">
<polygon fill="white" stroke="black" points="1909.5,-201.5 1909.5,-231.5 2035.5,-231.5 2035.5,-201.5 1909.5,-201.5"/>
<text text-anchor="start" x="1917.5" y="-219.5" font-family="Helvetica,sans-Serif" font-size="10.00">src/modules/doorman</text>
<text text-anchor="middle" x="1972.5" y="-208.5" font-family="Helvetica,sans-Serif" font-size="10.00">/DoormanInstance.cpp</text>
</a>
</g>
</g>
<!-- Node45&#45;&gt;Node46 -->
<g id="edge45" class="edge">
<title>Node45&#45;&gt;Node46</title>
<path fill="none" stroke="midnightblue" d="M2074.37,-264.13C2051.81,-253.8 2024.08,-241.11 2003.25,-231.58"/>
<polygon fill="midnightblue" stroke="midnightblue" points="2073.14,-267.42 2083.69,-268.4 2076.05,-261.05 2073.14,-267.42"/>
</g>
<!-- Node47 -->
<g id="node37" class="node">
<title>Node47</title>
<g id="a_node37"><a xlink:href="../../d0/d58/DoormanModule_8cpp.html" target="_top" xlink:title=" ">
<polygon fill="white" stroke="black" points="2053.5,-201.5 2053.5,-231.5 2175.5,-231.5 2175.5,-201.5 2053.5,-201.5"/>
<text text-anchor="start" x="2061.5" y="-219.5" font-family="Helvetica,sans-Serif" font-size="10.00">src/modules/doorman</text>
<text text-anchor="middle" x="2114.5" y="-208.5" font-family="Helvetica,sans-Serif" font-size="10.00">/DoormanModule.cpp</text>
</a>
</g>
</g>
<!-- Node45&#45;&gt;Node47 -->
<g id="edge46" class="edge">
<title>Node45&#45;&gt;Node47</title>
<path fill="none" stroke="midnightblue" d="M2114.5,-258.11C2114.5,-249.15 2114.5,-239.32 2114.5,-231.58"/>
<polygon fill="midnightblue" stroke="midnightblue" points="2111,-258.4 2114.5,-268.4 2118,-258.4 2111,-258.4"/>
</g>
<!-- Node48 -->
<g id="node38" class="node">
<title>Node48</title>
<g id="a_node38"><a xlink:href="../../d8/d54/doorman_2init_8cpp.html" target="_top" xlink:title=" ">
<polygon fill="white" stroke="black" points="2193.5,-201.5 2193.5,-231.5 2315.5,-231.5 2315.5,-201.5 2193.5,-201.5"/>
<text text-anchor="start" x="2201.5" y="-219.5" font-family="Helvetica,sans-Serif" font-size="10.00">src/modules/doorman</text>
<text text-anchor="middle" x="2254.5" y="-208.5" font-family="Helvetica,sans-Serif" font-size="10.00">/init.cpp</text>
</a>
</g>
</g>
<!-- Node45&#45;&gt;Node48 -->
<g id="edge47" class="edge">
<title>Node45&#45;&gt;Node48</title>
<path fill="none" stroke="midnightblue" d="M2154.07,-264.13C2176.31,-253.8 2203.65,-241.11 2224.18,-231.58"/>
<polygon fill="midnightblue" stroke="midnightblue" points="2152.47,-261.01 2144.88,-268.4 2155.42,-267.36 2152.47,-261.01"/>
</g>
<!-- Node50 -->
<g id="node40" class="node">
<title>Node50</title>
<g id="a_node40"><a xlink:href="../../d5/dca/EventPublish_8cpp.html" target="_top" xlink:title=" ">
<polygon fill="white" stroke="black" points="2333.5,-201.5 2333.5,-231.5 2479.5,-231.5 2479.5,-201.5 2333.5,-201.5"/>
<text text-anchor="start" x="2341.5" y="-219.5" font-family="Helvetica,sans-Serif" font-size="10.00">src/modules/event&#45;publish</text>
<text text-anchor="middle" x="2406.5" y="-208.5" font-family="Helvetica,sans-Serif" font-size="10.00">/EventPublish.cpp</text>
</a>
</g>
</g>
<!-- Node49&#45;&gt;Node50 -->
<g id="edge49" class="edge">
<title>Node49&#45;&gt;Node50</title>
<path fill="none" stroke="midnightblue" d="M2406.5,-258.11C2406.5,-249.15 2406.5,-239.32 2406.5,-231.58"/>
<polygon fill="midnightblue" stroke="midnightblue" points="2403,-258.4 2406.5,-268.4 2410,-258.4 2403,-258.4"/>
</g>
<!-- Node51 -->
<g id="node41" class="node">
<title>Node51</title>
<g id="a_node41"><a xlink:href="../../dd/dd8/event-publish_2init_8cpp.html" target="_top" xlink:title=" ">
<polygon fill="white" stroke="black" points="2497.5,-201.5 2497.5,-231.5 2643.5,-231.5 2643.5,-201.5 2497.5,-201.5"/>
<text text-anchor="start" x="2505.5" y="-219.5" font-family="Helvetica,sans-Serif" font-size="10.00">src/modules/event&#45;publish</text>
<text text-anchor="middle" x="2570.5" y="-208.5" font-family="Helvetica,sans-Serif" font-size="10.00">/init.cpp</text>
</a>
</g>
</g>
<!-- Node49&#45;&gt;Node51 -->
<g id="edge50" class="edge">
<title>Node49&#45;&gt;Node51</title>
<path fill="none" stroke="midnightblue" d="M2451.46,-264.68C2477.76,-254.26 2510.5,-241.28 2534.98,-231.58"/>
<polygon fill="midnightblue" stroke="midnightblue" points="2450.09,-261.46 2442.09,-268.4 2452.67,-267.97 2450.09,-261.46"/>
</g>
<!-- Node53&#45;&gt;Node12 -->
<g id="edge55" class="edge">
<title>Node53&#45;&gt;Node12</title>
<path fill="none" stroke="midnightblue" d="M2871.76,-339.01C2836.15,-331.54 2793.14,-319.14 2758.5,-299 2733.94,-284.72 2598.89,-143.08 2555.75,-97.53"/>
<polygon fill="midnightblue" stroke="midnightblue" points="2871.11,-342.45 2881.6,-340.99 2872.49,-335.59 2871.11,-342.45"/>
</g>
<!-- Node53&#45;&gt;Node34 -->
<g id="edge54" class="edge">
<title>Node53&#45;&gt;Node34</title>
<path fill="none" stroke="midnightblue" d="M2942.53,-331C2944.22,-313.63 2948.69,-287.46 2960.5,-268 3012.93,-181.58 3119.73,-115.02 3159.82,-92.12"/>
<polygon fill="midnightblue" stroke="midnightblue" points="2939.04,-330.76 2941.77,-340.99 2946.02,-331.29 2939.04,-330.76"/>
</g>
<!-- Node53&#45;&gt;Node52 -->
<g id="edge56" class="edge">
<title>Node53&#45;&gt;Node52</title>
<path fill="none" stroke="midnightblue" d="M3014.58,-339.91C3087.01,-330.23 3201.05,-314.54 3299.5,-299 3302.25,-298.57 3305.04,-298.12 3307.86,-297.66"/>
<polygon fill="midnightblue" stroke="midnightblue" points="3014.1,-336.44 3004.65,-341.23 3015.02,-343.38 3014.1,-336.44"/>
</g>
<!-- Node54 -->
<g id="node44" class="node">
<title>Node54</title>
<g id="a_node44"><a xlink:href="../../d8/d89/ScheduleEvent_8cpp.html" target="_top" xlink:title=" ">
<polygon fill="white" stroke="black" points="2969.5,-274 2969.5,-293 3147.5,-293 3147.5,-274 2969.5,-274"/>
<text text-anchor="middle" x="3058.5" y="-281" font-family="Helvetica,sans-Serif" font-size="10.00">src/core/audit/ScheduleEvent.cpp</text>
</a>
</g>
</g>
<!-- Node53&#45;&gt;Node54 -->
<g id="edge53" class="edge">
<title>Node53&#45;&gt;Node54</title>
<path fill="none" stroke="midnightblue" d="M2966.18,-335.79C2989.37,-322.9 3023.36,-304.02 3042.97,-293.13"/>
<polygon fill="midnightblue" stroke="midnightblue" points="2964.32,-332.82 2957.28,-340.73 2967.72,-338.94 2964.32,-332.82"/>
</g>
<!-- Node55 -->
<g id="node45" class="node">
<title>Node55</title>
<g id="a_node45"><a xlink:href="../../d6/d16/Schedule_8cpp.html" target="_top" xlink:title=" ">
<polygon fill="white" stroke="black" points="3165,-274 3165,-293 3290,-293 3290,-274 3165,-274"/>
<text text-anchor="middle" x="3227.5" y="-281" font-family="Helvetica,sans-Serif" font-size="10.00">src/tools/Schedule.cpp</text>
</a>
</g>
</g>
<!-- Node53&#45;&gt;Node55 -->
<g id="edge57" class="edge">
<title>Node53&#45;&gt;Node55</title>
<path fill="none" stroke="midnightblue" d="M2989.27,-338.64C3045.62,-325.84 3138.14,-304.81 3189.73,-293.08"/>
<polygon fill="midnightblue" stroke="midnightblue" points="2988.16,-335.31 2979.18,-340.94 2989.71,-342.13 2988.16,-335.31"/>
</g>
<!-- Node56 -->
<g id="node46" class="node">
<title>Node56</title>
<g id="a_node46"><a xlink:href="../../d0/db9/XmlScheduleLoader_8cpp.html" target="_top" xlink:title=" ">
<polygon fill="white" stroke="black" points="2535,-274 2535,-293 2712,-293 2712,-274 2535,-274"/>
<text text-anchor="middle" x="2623.5" y="-281" font-family="Helvetica,sans-Serif" font-size="10.00">src/tools/XmlScheduleLoader.cpp</text>
</a>
</g>
</g>
<!-- Node53&#45;&gt;Node56 -->
<g id="edge58" class="edge">
<title>Node53&#45;&gt;Node56</title>
<path fill="none" stroke="midnightblue" d="M2889.54,-338.88C2826.91,-326.08 2722.91,-304.82 2665.24,-293.03"/>
<polygon fill="midnightblue" stroke="midnightblue" points="2889.1,-342.36 2899.6,-340.94 2890.5,-335.5 2889.1,-342.36"/>
</g>
<!-- Node57 -->
<g id="node47" class="node">
<title>Node57</title>
<g id="a_node47"><a xlink:href="../../da/d76/ScheduleValidator_8cpp.html" target="_top" xlink:title=" ">
<polygon fill="white" stroke="black" points="2767.5,-274 2767.5,-293 2913.5,-293 2913.5,-274 2767.5,-274"/>
<text text-anchor="middle" x="2840.5" y="-281" font-family="Helvetica,sans-Serif" font-size="10.00">test/ScheduleValidator.cpp</text>
</a>
</g>
</g>
<!-- Node53&#45;&gt;Node57 -->
<g id="edge59" class="edge">
<title>Node53&#45;&gt;Node57</title>
<path fill="none" stroke="midnightblue" d="M2919.39,-335.27C2899.39,-322.4 2870.61,-303.88 2853.91,-293.13"/>
<polygon fill="midnightblue" stroke="midnightblue" points="2917.58,-338.27 2927.88,-340.73 2921.36,-332.38 2917.58,-338.27"/>
</g>
<!-- Node58&#45;&gt;Node52 -->
<g id="edge61" class="edge">
<title>Node58&#45;&gt;Node52</title>
<path fill="none" stroke="midnightblue" d="M3382.5,-325.11C3382.5,-316.15 3382.5,-306.32 3382.5,-298.58"/>
<polygon fill="midnightblue" stroke="midnightblue" points="3379,-325.4 3382.5,-335.4 3386,-325.4 3379,-325.4"/>
</g>
<!-- Node59 -->
<g id="node49" class="node">
<title>Node59</title>
<g id="a_node49"><a xlink:href="../../dc/db6/ScheduleSerializer_8cpp.html" target="_top" xlink:title=" ">
<polygon fill="white" stroke="black" points="3475,-268.5 3475,-298.5 3604,-298.5 3604,-268.5 3475,-268.5"/>
<text text-anchor="start" x="3483" y="-286.5" font-family="Helvetica,sans-Serif" font-size="10.00">src/tools/serializers</text>
<text text-anchor="middle" x="3539.5" y="-275.5" font-family="Helvetica,sans-Serif" font-size="10.00">/ScheduleSerializer.cpp</text>
</a>
</g>
</g>
<!-- Node58&#45;&gt;Node59 -->
<g id="edge62" class="edge">
<title>Node58&#45;&gt;Node59</title>
<path fill="none" stroke="midnightblue" d="M3425.87,-331.54C3450.99,-321.14 3482.16,-308.24 3505.5,-298.58"/>
<polygon fill="midnightblue" stroke="midnightblue" points="3424.47,-328.34 3416.57,-335.4 3427.14,-334.8 3424.47,-328.34"/>
</g>
<!-- Node60&#45;&gt;Node21 -->
<g id="edge64" class="edge">
<title>Node60&#45;&gt;Node21</title>
<path fill="none" stroke="midnightblue" d="M2506.75,-330.76C2507.06,-312.4 2510.49,-284.82 2526.5,-268 2566.66,-225.82 2597.89,-252.24 2652.5,-232 2707.06,-211.78 2768.21,-181.94 2802.46,-164.53"/>
<polygon fill="midnightblue" stroke="midnightblue" points="2503.25,-330.86 2506.87,-340.81 2510.25,-330.77 2503.25,-330.86"/>
</g>
<!-- Node60&#45;&gt;Node45 -->
<g id="edge65" class="edge">
<title>Node60&#45;&gt;Node45</title>
<path fill="none" stroke="midnightblue" d="M2445.64,-339.27C2371.86,-327.07 2249.29,-306.79 2175.77,-294.63"/>
<polygon fill="midnightblue" stroke="midnightblue" points="2445.28,-342.76 2455.72,-340.94 2446.42,-335.85 2445.28,-342.76"/>
</g>
<!-- Node60&#45;&gt;Node49 -->
<g id="edge66" class="edge">
<title>Node60&#45;&gt;Node49</title>
<path fill="none" stroke="midnightblue" d="M2485.21,-335.15C2468.3,-324.27 2445.2,-309.4 2428.39,-298.59"/>
<polygon fill="midnightblue" stroke="midnightblue" points="2483.58,-338.27 2493.88,-340.73 2487.36,-332.38 2483.58,-338.27"/>
</g>
<!-- Node60&#45;&gt;Node56 -->
<g id="edge67" class="edge">
<title>Node60&#45;&gt;Node56</title>
<path fill="none" stroke="midnightblue" d="M2531.97,-335.79C2554.96,-322.9 2588.66,-304.02 2608.1,-293.13"/>
<polygon fill="midnightblue" stroke="midnightblue" points="2530.16,-332.79 2523.14,-340.73 2533.58,-338.9 2530.16,-332.79"/>
</g>
</g>
</svg>
