<?xml version="1.0" encoding="UTF-8" standalone="no"?>
<!DOCTYPE svg PUBLIC "-//W3C//DTD SVG 1.1//EN"
 "http://www.w3.org/Graphics/SVG/1.1/DTD/svg11.dtd">
<!-- Generated by graphviz version 2.43.0 (0)
 -->
<!-- Title: src/core/credentials/CredentialValidator.cpp Pages: 1 -->
<!--zoomable 341 -->
<svg id="main" version="1.1" xmlns="http://www.w3.org/2000/svg" xmlns:xlink="http://www.w3.org/1999/xlink" xml:space="preserve" onload="init(evt)">
<style type="text/css"><![CDATA[
.edge:hover path { stroke: red; }
.edge:hover polygon { stroke: red; fill: red; }
]]></style>
<script type="text/javascript"><![CDATA[
var edges = document.getElementsByTagName('g');
if (edges && edges.length) {
  for (var i=0;i<edges.length;i++) {
    if (edges[i].id.substr(0,4)=='edge') {
      edges[i].setAttribute('class','edge');
    }
  }
}
]]></script>
        <defs>
                <circle id="rim" cx="0" cy="0" r="7"/>
                <circle id="rim2" cx="0" cy="0" r="3.5"/>
                <g id="zoomPlus">
                        <use xlink:href="#rim" fill="#404040">
                                <set attributeName="fill" to="#808080" begin="zoomplus.mouseover" end="zoomplus.mouseout"/>
                        </use>
                        <path d="M-4,0h8M0,-4v8" fill="none" stroke="white" stroke-width="1.5" pointer-events="none"/>
                </g>
                <g id="zoomMin">
                        <use xlink:href="#rim" fill="#404040">
                                <set attributeName="fill" to="#808080" begin="zoomminus.mouseover" end="zoomminus.mouseout"/>
                        </use>
                        <path d="M-4,0h8" fill="none" stroke="white" stroke-width="1.5" pointer-events="none"/>
                </g>
                <g id="dirArrow">
                        <path fill="none" stroke="white" stroke-width="1.5" d="M0,-3.0v7 M-2.5,-0.5L0,-3.0L2.5,-0.5"/>
                </g>
               <g id="resetDef">
                       <use xlink:href="#rim2" fill="#404040">
                               <set attributeName="fill" to="#808080" begin="reset.mouseover" end="reset.mouseout"/>
                       </use>
               </g>
        </defs>

<script type="text/javascript">
var viewWidth = 2042;
var viewHeight = 341;
var sectionId = 'dynsection-0';
</script>
<script xlink:href="../../svgpan.js"/>
<svg id="graph" class="graph">
<g id="viewport">
<title>src/core/credentials/CredentialValidator.cpp</title>
<polygon fill="white" stroke="transparent" points="-4,4 -4,-337 2038.2,-337 2038.2,4 -4,4"/>
<!-- Node1 -->
<g id="node1" class="node">
<title>Node1</title>
<g id="a_node1"><a xlink:title=" ">
<polygon fill="#bfbfbf" stroke="black" points="217.2,-302.5 217.2,-332.5 350.2,-332.5 350.2,-302.5 217.2,-302.5"/>
<text text-anchor="start" x="225.2" y="-320.5" font-family="Helvetica,sans-Serif" font-size="10.00">src/core/credentials</text>
<text text-anchor="middle" x="283.7" y="-309.5" font-family="Helvetica,sans-Serif" font-size="10.00">/CredentialValidator.cpp</text>
</a>
</g>
</g>
<!-- Node2 -->
<g id="node2" class="node">
<title>Node2</title>
<g id="a_node2"><a xlink:href="../../d3/d85/CredentialValidator_8hpp.html" target="_top" xlink:title=" ">
<polygon fill="white" stroke="black" points="31.7,-235.5 31.7,-265.5 179.7,-265.5 179.7,-235.5 31.7,-235.5"/>
<text text-anchor="start" x="39.7" y="-253.5" font-family="Helvetica,sans-Serif" font-size="10.00">core/credentials/Credential</text>
<text text-anchor="middle" x="105.7" y="-242.5" font-family="Helvetica,sans-Serif" font-size="10.00">Validator.hpp</text>
</a>
</g>
</g>
<!-- Node1&#45;&gt;Node2 -->
<g id="edge1" class="edge">
<title>Node1&#45;&gt;Node2</title>
<path fill="none" stroke="midnightblue" d="M245.07,-302.4C218.25,-292.6 182.32,-279.48 153.66,-269.02"/>
<polygon fill="midnightblue" stroke="midnightblue" points="154.84,-265.72 144.24,-265.58 152.44,-272.29 154.84,-265.72"/>
</g>
<!-- Node6 -->
<g id="node6" class="node">
<title>Node6</title>
<g id="a_node6"><a xlink:href="../../d0/db0/ICredential_8hpp.html" target="_top" xlink:title=" ">
<polygon fill="white" stroke="black" points="197.7,-241 197.7,-260 369.7,-260 369.7,-241 197.7,-241"/>
<text text-anchor="middle" x="283.7" y="-248" font-family="Helvetica,sans-Serif" font-size="10.00">core/credentials/ICredential.hpp</text>
</a>
</g>
</g>
<!-- Node1&#45;&gt;Node6 -->
<g id="edge6" class="edge">
<title>Node1&#45;&gt;Node6</title>
<path fill="none" stroke="midnightblue" d="M283.7,-302.4C283.7,-293.06 283.7,-280.71 283.7,-270.52"/>
<polygon fill="midnightblue" stroke="midnightblue" points="287.2,-270.19 283.7,-260.19 280.2,-270.19 287.2,-270.19"/>
</g>
<!-- Node14 -->
<g id="node14" class="node">
<title>Node14</title>
<g id="a_node14"><a xlink:href="../../dc/d5b/ModelException_8hpp.html" target="_top" xlink:title=" ">
<polygon fill="white" stroke="black" points="1188.2,-241 1188.2,-260 1355.2,-260 1355.2,-241 1188.2,-241"/>
<text text-anchor="middle" x="1271.7" y="-248" font-family="Helvetica,sans-Serif" font-size="10.00">exception/ModelException.hpp</text>
</a>
</g>
</g>
<!-- Node1&#45;&gt;Node14 -->
<g id="edge20" class="edge">
<title>Node1&#45;&gt;Node14</title>
<path fill="none" stroke="midnightblue" d="M350.44,-312.11C522.15,-300.81 979.59,-270.72 1177.86,-257.67"/>
<polygon fill="midnightblue" stroke="midnightblue" points="1178.22,-261.16 1187.97,-257.01 1177.76,-254.17 1178.22,-261.16"/>
</g>
<!-- Node3 -->
<g id="node3" class="node">
<title>Node3</title>
<g id="a_node3"><a xlink:href="../../d7/d7f/CredentialFwd_8hpp.html" target="_top" xlink:title=" ">
<polygon fill="white" stroke="black" points="47.7,-168.5 47.7,-198.5 195.7,-198.5 195.7,-168.5 47.7,-168.5"/>
<text text-anchor="start" x="55.7" y="-186.5" font-family="Helvetica,sans-Serif" font-size="10.00">core/credentials/Credential</text>
<text text-anchor="middle" x="121.7" y="-175.5" font-family="Helvetica,sans-Serif" font-size="10.00">Fwd.hpp</text>
</a>
</g>
</g>
<!-- Node2&#45;&gt;Node3 -->
<g id="edge2" class="edge">
<title>Node2&#45;&gt;Node3</title>
<path fill="none" stroke="midnightblue" d="M109.17,-235.4C111.1,-227.56 113.55,-217.6 115.77,-208.57"/>
<polygon fill="midnightblue" stroke="midnightblue" points="119.24,-209.12 118.23,-198.58 112.44,-207.45 119.24,-209.12"/>
</g>
<!-- Node4 -->
<g id="node4" class="node">
<title>Node4</title>
<g id="a_node4"><a xlink:title=" ">
<polygon fill="white" stroke="#bfbfbf" points="92.7,-112.5 92.7,-131.5 150.7,-131.5 150.7,-112.5 92.7,-112.5"/>
<text text-anchor="middle" x="121.7" y="-119.5" font-family="Helvetica,sans-Serif" font-size="10.00">memory</text>
</a>
</g>
</g>
<!-- Node2&#45;&gt;Node4 -->
<g id="edge5" class="edge">
<title>Node2&#45;&gt;Node4</title>
<path fill="none" stroke="midnightblue" d="M53.01,-235.45C34.79,-227.79 16.3,-216.23 5.7,-199 -1.52,-187.27 -2.09,-179.37 5.7,-168 22.77,-143.06 55.84,-131.94 82.31,-126.98"/>
<polygon fill="midnightblue" stroke="midnightblue" points="83.15,-130.39 92.45,-125.32 82.02,-123.48 83.15,-130.39"/>
</g>
<!-- Node3&#45;&gt;Node4 -->
<g id="edge3" class="edge">
<title>Node3&#45;&gt;Node4</title>
<path fill="none" stroke="midnightblue" d="M121.7,-168.4C121.7,-160.47 121.7,-150.46 121.7,-141.86"/>
<polygon fill="midnightblue" stroke="midnightblue" points="125.2,-141.66 121.7,-131.66 118.2,-141.66 125.2,-141.66"/>
</g>
<!-- Node5 -->
<g id="node5" class="node">
<title>Node5</title>
<g id="a_node5"><a xlink:title=" ">
<polygon fill="white" stroke="#bfbfbf" points="221.2,-112.5 221.2,-131.5 316.2,-131.5 316.2,-112.5 221.2,-112.5"/>
<text text-anchor="middle" x="268.7" y="-119.5" font-family="Helvetica,sans-Serif" font-size="10.00">odb/lazy&#45;ptr.hxx</text>
</a>
</g>
</g>
<!-- Node3&#45;&gt;Node5 -->
<g id="edge4" class="edge">
<title>Node3&#45;&gt;Node5</title>
<path fill="none" stroke="midnightblue" d="M156.53,-168.4C181.2,-158.42 213.98,-145.15 237.73,-135.53"/>
<polygon fill="midnightblue" stroke="midnightblue" points="239.35,-138.65 247.31,-131.66 236.72,-132.17 239.35,-138.65"/>
</g>
<!-- Node6&#45;&gt;Node3 -->
<g id="edge11" class="edge">
<title>Node6&#45;&gt;Node3</title>
<path fill="none" stroke="midnightblue" d="M262.18,-240.87C237.77,-231.07 197.29,-214.83 166.03,-202.29"/>
<polygon fill="midnightblue" stroke="midnightblue" points="167.24,-199 156.66,-198.53 164.64,-205.5 167.24,-199"/>
</g>
<!-- Node6&#45;&gt;Node4 -->
<g id="edge19" class="edge">
<title>Node6&#45;&gt;Node4</title>
<path fill="none" stroke="midnightblue" d="M234.53,-241C164.81,-228.71 44.9,-206.62 38.7,-199 29.99,-188.32 31.65,-179.84 38.7,-168 48.37,-151.75 66.18,-141.01 82.83,-134.11"/>
<polygon fill="midnightblue" stroke="midnightblue" points="84.31,-137.29 92.43,-130.48 81.83,-130.74 84.31,-137.29"/>
</g>
<!-- Node7 -->
<g id="node7" class="node">
<title>Node7</title>
<g id="a_node7"><a xlink:href="../../d3/d6f/AuthFwd_8hpp.html" target="_top" xlink:title=" ">
<polygon fill="white" stroke="black" points="342.2,-174 342.2,-193 471.2,-193 471.2,-174 342.2,-174"/>
<text text-anchor="middle" x="406.7" y="-181" font-family="Helvetica,sans-Serif" font-size="10.00">core/auth/AuthFwd.hpp</text>
</a>
</g>
</g>
<!-- Node6&#45;&gt;Node7 -->
<g id="edge7" class="edge">
<title>Node6&#45;&gt;Node7</title>
<path fill="none" stroke="midnightblue" d="M300.03,-240.87C320.8,-229.89 356.88,-210.82 381.27,-197.94"/>
<polygon fill="midnightblue" stroke="midnightblue" points="383.09,-200.93 390.3,-193.17 379.82,-194.75 383.09,-200.93"/>
</g>
<!-- Node9 -->
<g id="node9" class="node">
<title>Node9</title>
<g id="a_node9"><a xlink:href="../../dd/d9d/IVisitable_8hpp.html" target="_top" xlink:title=" ">
<polygon fill="white" stroke="black" points="489.7,-174 489.7,-193 599.7,-193 599.7,-174 489.7,-174"/>
<text text-anchor="middle" x="544.7" y="-181" font-family="Helvetica,sans-Serif" font-size="10.00">tools/IVisitable.hpp</text>
</a>
</g>
</g>
<!-- Node6&#45;&gt;Node9 -->
<g id="edge12" class="edge">
<title>Node6&#45;&gt;Node9</title>
<path fill="none" stroke="midnightblue" d="M318.09,-240.94C364.93,-229.27 448.86,-208.37 500.38,-195.54"/>
<polygon fill="midnightblue" stroke="midnightblue" points="501.37,-198.9 510.23,-193.08 499.68,-192.1 501.37,-198.9"/>
</g>
<!-- Node13 -->
<g id="node13" class="node">
<title>Node13</title>
<g id="a_node13"><a xlink:href="../../d8/d97/ToolsFwd_8hpp.html" target="_top" xlink:title=" ">
<polygon fill="white" stroke="black" points="213.7,-174 213.7,-193 323.7,-193 323.7,-174 213.7,-174"/>
<text text-anchor="middle" x="268.7" y="-181" font-family="Helvetica,sans-Serif" font-size="10.00">tools/ToolsFwd.hpp</text>
</a>
</g>
</g>
<!-- Node6&#45;&gt;Node13 -->
<g id="edge16" class="edge">
<title>Node6&#45;&gt;Node13</title>
<path fill="none" stroke="midnightblue" d="M281.67,-240.73C279.45,-231.09 275.8,-215.3 272.94,-202.91"/>
<polygon fill="midnightblue" stroke="midnightblue" points="276.35,-202.08 270.69,-193.13 269.53,-203.66 276.35,-202.08"/>
</g>
<!-- Node7&#45;&gt;Node4 -->
<g id="edge9" class="edge">
<title>Node7&#45;&gt;Node4</title>
<path fill="none" stroke="midnightblue" d="M365.86,-173.98C311.06,-162.53 214.4,-142.35 160.6,-131.12"/>
<polygon fill="midnightblue" stroke="midnightblue" points="161.26,-127.68 150.76,-129.07 159.83,-134.54 161.26,-127.68"/>
</g>
<!-- Node7&#45;&gt;Node5 -->
<g id="edge10" class="edge">
<title>Node7&#45;&gt;Node5</title>
<path fill="none" stroke="midnightblue" d="M386.92,-173.98C363.56,-163.9 324.48,-147.05 297.69,-135.5"/>
<polygon fill="midnightblue" stroke="midnightblue" points="299,-132.25 288.43,-131.51 296.23,-138.68 299,-132.25"/>
</g>
<!-- Node8 -->
<g id="node8" class="node">
<title>Node8</title>
<g id="a_node8"><a xlink:title=" ">
<polygon fill="white" stroke="#bfbfbf" points="553.2,-112.5 553.2,-131.5 606.2,-131.5 606.2,-112.5 553.2,-112.5"/>
<text text-anchor="middle" x="579.7" y="-119.5" font-family="Helvetica,sans-Serif" font-size="10.00">cstddef</text>
</a>
</g>
</g>
<!-- Node7&#45;&gt;Node8 -->
<g id="edge8" class="edge">
<title>Node7&#45;&gt;Node8</title>
<path fill="none" stroke="midnightblue" d="M431.48,-173.98C461.29,-163.72 511.49,-146.46 545.1,-134.9"/>
<polygon fill="midnightblue" stroke="midnightblue" points="546.64,-138.07 554.96,-131.51 544.36,-131.45 546.64,-138.07"/>
</g>
<!-- Node10 -->
<g id="node10" class="node">
<title>Node10</title>
<g id="a_node10"><a xlink:href="../../d2/d91/Visitor_8hpp.html" target="_top" xlink:title=" ">
<polygon fill="white" stroke="black" points="369.2,-112.5 369.2,-131.5 464.2,-131.5 464.2,-112.5 369.2,-112.5"/>
<text text-anchor="middle" x="416.7" y="-119.5" font-family="Helvetica,sans-Serif" font-size="10.00">tools/Visitor.hpp</text>
</a>
</g>
</g>
<!-- Node9&#45;&gt;Node10 -->
<g id="edge13" class="edge">
<title>Node9&#45;&gt;Node10</title>
<path fill="none" stroke="midnightblue" d="M526.36,-173.98C504.88,-163.99 469.07,-147.35 444.25,-135.81"/>
<polygon fill="midnightblue" stroke="midnightblue" points="445.55,-132.55 435,-131.51 442.59,-138.9 445.55,-132.55"/>
</g>
<!-- Node12 -->
<g id="node12" class="node">
<title>Node12</title>
<g id="a_node12"><a xlink:title=" ">
<polygon fill="white" stroke="#bfbfbf" points="482.7,-112.5 482.7,-131.5 534.7,-131.5 534.7,-112.5 482.7,-112.5"/>
<text text-anchor="middle" x="508.7" y="-119.5" font-family="Helvetica,sans-Serif" font-size="10.00">cassert</text>
</a>
</g>
</g>
<!-- Node9&#45;&gt;Node12 -->
<g id="edge15" class="edge">
<title>Node9&#45;&gt;Node12</title>
<path fill="none" stroke="midnightblue" d="M539.54,-173.98C534.25,-165.23 525.86,-151.37 519.17,-140.31"/>
<polygon fill="midnightblue" stroke="midnightblue" points="522.02,-138.25 513.85,-131.51 516.03,-141.88 522.02,-138.25"/>
</g>
<!-- Node11 -->
<g id="node11" class="node">
<title>Node11</title>
<g id="a_node11"><a xlink:title=" ">
<polygon fill="white" stroke="#bfbfbf" points="382.2,-56.5 382.2,-75.5 451.2,-75.5 451.2,-56.5 382.2,-56.5"/>
<text text-anchor="middle" x="416.7" y="-63.5" font-family="Helvetica,sans-Serif" font-size="10.00">type_traits</text>
</a>
</g>
</g>
<!-- Node10&#45;&gt;Node11 -->
<g id="edge14" class="edge">
<title>Node10&#45;&gt;Node11</title>
<path fill="none" stroke="midnightblue" d="M416.7,-112.08C416.7,-105.01 416.7,-94.86 416.7,-85.99"/>
<polygon fill="midnightblue" stroke="midnightblue" points="420.2,-85.75 416.7,-75.75 413.2,-85.75 420.2,-85.75"/>
</g>
<!-- Node13&#45;&gt;Node4 -->
<g id="edge17" class="edge">
<title>Node13&#45;&gt;Node4</title>
<path fill="none" stroke="midnightblue" d="M247.64,-173.98C222.64,-163.86 180.76,-146.9 152.21,-135.35"/>
<polygon fill="midnightblue" stroke="midnightblue" points="153.3,-132.02 142.72,-131.51 150.68,-138.51 153.3,-132.02"/>
</g>
<!-- Node13&#45;&gt;Node5 -->
<g id="edge18" class="edge">
<title>Node13&#45;&gt;Node5</title>
<path fill="none" stroke="midnightblue" d="M268.7,-173.98C268.7,-165.58 268.7,-152.48 268.7,-141.66"/>
<polygon fill="midnightblue" stroke="midnightblue" points="272.2,-141.51 268.7,-131.51 265.2,-141.51 272.2,-141.51"/>
</g>
<!-- Node15 -->
<g id="node15" class="node">
<title>Node15</title>
<g id="a_node15"><a xlink:href="../../d1/ddd/leosacexception_8hpp.html" target="_top" xlink:title="Exception class for LEOSAC Project related errors.">
<polygon fill="white" stroke="black" points="1187.7,-174 1187.7,-193 1355.7,-193 1355.7,-174 1187.7,-174"/>
<text text-anchor="middle" x="1271.7" y="-181" font-family="Helvetica,sans-Serif" font-size="10.00">exception/leosacexception.hpp</text>
</a>
</g>
</g>
<!-- Node14&#45;&gt;Node15 -->
<g id="edge21" class="edge">
<title>Node14&#45;&gt;Node15</title>
<path fill="none" stroke="midnightblue" d="M1271.7,-240.73C1271.7,-231.18 1271.7,-215.62 1271.7,-203.28"/>
<polygon fill="midnightblue" stroke="midnightblue" points="1275.2,-203.13 1271.7,-193.13 1268.2,-203.13 1275.2,-203.13"/>
</g>
<!-- Node31 -->
<g id="node31" class="node">
<title>Node31</title>
<g id="a_node31"><a xlink:title=" ">
<polygon fill="white" stroke="#bfbfbf" points="1373.7,-174 1373.7,-193 1483.7,-193 1483.7,-174 1373.7,-174"/>
<text text-anchor="middle" x="1428.7" y="-181" font-family="Helvetica,sans-Serif" font-size="10.00">nlohmann/json.hpp</text>
</a>
</g>
</g>
<!-- Node14&#45;&gt;Node31 -->
<g id="edge58" class="edge">
<title>Node14&#45;&gt;Node31</title>
<path fill="none" stroke="midnightblue" d="M1292.55,-240.87C1319.64,-229.65 1367.16,-209.98 1398.28,-197.09"/>
<polygon fill="midnightblue" stroke="midnightblue" points="1399.86,-200.23 1407.76,-193.17 1397.18,-193.76 1399.86,-200.23"/>
</g>
<!-- Node15&#45;&gt;Node8 -->
<g id="edge25" class="edge">
<title>Node15&#45;&gt;Node8</title>
<path fill="none" stroke="midnightblue" d="M1187.54,-180.54C1064.15,-176.67 826.91,-165.41 616.34,-131.81"/>
<polygon fill="midnightblue" stroke="midnightblue" points="616.76,-128.33 606.33,-130.19 615.64,-135.24 616.76,-128.33"/>
</g>
<!-- Node16 -->
<g id="node16" class="node">
<title>Node16</title>
<g id="a_node16"><a xlink:href="../../d6/d2f/Stacktrace_8hpp.html" target="_top" xlink:title=" ">
<polygon fill="white" stroke="black" points="1213.7,-112.5 1213.7,-131.5 1329.7,-131.5 1329.7,-112.5 1213.7,-112.5"/>
<text text-anchor="middle" x="1271.7" y="-119.5" font-family="Helvetica,sans-Serif" font-size="10.00">tools/Stacktrace.hpp</text>
</a>
</g>
</g>
<!-- Node15&#45;&gt;Node16 -->
<g id="edge22" class="edge">
<title>Node15&#45;&gt;Node16</title>
<path fill="none" stroke="midnightblue" d="M1271.7,-173.98C1271.7,-165.58 1271.7,-152.48 1271.7,-141.66"/>
<polygon fill="midnightblue" stroke="midnightblue" points="1275.2,-141.51 1271.7,-131.51 1268.2,-141.51 1275.2,-141.51"/>
</g>
<!-- Node17 -->
<g id="node17" class="node">
<title>Node17</title>
<g id="a_node17"><a xlink:title=" ">
<polygon fill="white" stroke="#bfbfbf" points="1349.7,-0.5 1349.7,-19.5 1393.7,-19.5 1393.7,-0.5 1349.7,-0.5"/>
<text text-anchor="middle" x="1371.7" y="-7.5" font-family="Helvetica,sans-Serif" font-size="10.00">string</text>
</a>
</g>
</g>
<!-- Node15&#45;&gt;Node17 -->
<g id="edge27" class="edge">
<title>Node15&#45;&gt;Node17</title>
<path fill="none" stroke="midnightblue" d="M1322.78,-173.97C1336.38,-171.86 1351.08,-169.71 1364.7,-168 1406.67,-162.74 1715.24,-163.29 1743.7,-132 1842.21,-23.68 1510.95,-11.99 1403.93,-11"/>
<polygon fill="midnightblue" stroke="midnightblue" points="1403.75,-7.5 1393.73,-10.93 1403.7,-14.49 1403.75,-7.5"/>
</g>
<!-- Node19 -->
<g id="node19" class="node">
<title>Node19</title>
<g id="a_node19"><a xlink:title=" ">
<polygon fill="white" stroke="#bfbfbf" points="1130.2,-112.5 1130.2,-131.5 1195.2,-131.5 1195.2,-112.5 1130.2,-112.5"/>
<text text-anchor="middle" x="1162.7" y="-119.5" font-family="Helvetica,sans-Serif" font-size="10.00">exception</text>
</a>
</g>
</g>
<!-- Node15&#45;&gt;Node19 -->
<g id="edge26" class="edge">
<title>Node15&#45;&gt;Node19</title>
<path fill="none" stroke="midnightblue" d="M1256.08,-173.98C1238.11,-164.17 1208.38,-147.93 1187.29,-136.42"/>
<polygon fill="midnightblue" stroke="midnightblue" points="1188.74,-133.23 1178.28,-131.51 1185.39,-139.37 1188.74,-133.23"/>
</g>
<!-- Node20 -->
<g id="node20" class="node">
<title>Node20</title>
<g id="a_node20"><a xlink:href="../../d7/d7a/configexception_8hpp.html" target="_top" xlink:title=" ">
<polygon fill="white" stroke="black" points="624.2,-112.5 624.2,-131.5 739.2,-131.5 739.2,-112.5 624.2,-112.5"/>
<text text-anchor="middle" x="681.7" y="-119.5" font-family="Helvetica,sans-Serif" font-size="10.00">configexception.hpp</text>
</a>
</g>
</g>
<!-- Node15&#45;&gt;Node20 -->
<g id="edge28" class="edge">
<title>Node15&#45;&gt;Node20</title>
<path fill="none" stroke="midnightblue" d="M1187.45,-175.88C1084.48,-167.17 904.93,-150.88 745.45,-132.65"/>
<polygon fill="midnightblue" stroke="midnightblue" points="745.79,-129.17 735.46,-131.5 744.99,-136.12 745.79,-129.17"/>
</g>
<!-- Node23 -->
<g id="node23" class="node">
<title>Node23</title>
<g id="a_node23"><a xlink:href="../../d8/db0/coreexception_8hpp.html" target="_top" xlink:title="Exception class for Core related errors.">
<polygon fill="white" stroke="black" points="1927.2,-112.5 1927.2,-131.5 2034.2,-131.5 2034.2,-112.5 1927.2,-112.5"/>
<text text-anchor="middle" x="1980.7" y="-119.5" font-family="Helvetica,sans-Serif" font-size="10.00">coreexception.hpp</text>
</a>
</g>
</g>
<!-- Node15&#45;&gt;Node23 -->
<g id="edge34" class="edge">
<title>Node15&#45;&gt;Node23</title>
<path fill="none" stroke="midnightblue" d="M1312.18,-174C1325.95,-171.78 1341.4,-169.58 1355.7,-168 1600.51,-141 1663.72,-157.43 1908.7,-132 1911.39,-131.72 1914.14,-131.41 1916.92,-131.08"/>
<polygon fill="midnightblue" stroke="midnightblue" points="1917.6,-134.53 1927.09,-129.82 1916.74,-127.58 1917.6,-134.53"/>
</g>
<!-- Node24 -->
<g id="node24" class="node">
<title>Node24</title>
<g id="a_node24"><a xlink:href="../../d8/d77/deviceexception_8hpp.html" target="_top" xlink:title="Exception class for Device related errors.">
<polygon fill="white" stroke="black" points="1790.7,-112.5 1790.7,-131.5 1908.7,-131.5 1908.7,-112.5 1790.7,-112.5"/>
<text text-anchor="middle" x="1849.7" y="-119.5" font-family="Helvetica,sans-Serif" font-size="10.00">deviceexception.hpp</text>
</a>
</g>
</g>
<!-- Node15&#45;&gt;Node24 -->
<g id="edge37" class="edge">
<title>Node15&#45;&gt;Node24</title>
<path fill="none" stroke="midnightblue" d="M1313.62,-173.98C1327.02,-171.84 1341.91,-169.68 1355.7,-168 1538.16,-145.83 1584.9,-151.25 1767.7,-132 1771.84,-131.56 1776.11,-131.09 1780.43,-130.6"/>
<polygon fill="midnightblue" stroke="midnightblue" points="1781.03,-134.06 1790.56,-129.43 1780.23,-127.1 1781.03,-134.06"/>
</g>
<!-- Node25 -->
<g id="node25" class="node">
<title>Node25</title>
<g id="a_node25"><a xlink:href="../../db/d35/dynlibexception_8hpp.html" target="_top" xlink:title="Exception class for DynLib related errors.">
<polygon fill="white" stroke="black" points="757.7,-112.5 757.7,-131.5 873.7,-131.5 873.7,-112.5 757.7,-112.5"/>
<text text-anchor="middle" x="815.7" y="-119.5" font-family="Helvetica,sans-Serif" font-size="10.00">dynlibexception.hpp</text>
</a>
</g>
</g>
<!-- Node15&#45;&gt;Node25 -->
<g id="edge40" class="edge">
<title>Node15&#45;&gt;Node25</title>
<path fill="none" stroke="midnightblue" d="M1199.33,-173.97C1121.84,-164.24 995.27,-147.81 881.07,-132.84"/>
<polygon fill="midnightblue" stroke="midnightblue" points="881.49,-129.36 871.12,-131.53 880.58,-136.3 881.49,-129.36"/>
</g>
<!-- Node26 -->
<g id="node26" class="node">
<title>Node26</title>
<g id="a_node26"><a xlink:href="../../d0/d4e/fsexception_8hpp.html" target="_top" xlink:title="Exception class for filesystem related errors.">
<polygon fill="white" stroke="black" points="892.2,-112.5 892.2,-131.5 987.2,-131.5 987.2,-112.5 892.2,-112.5"/>
<text text-anchor="middle" x="939.7" y="-119.5" font-family="Helvetica,sans-Serif" font-size="10.00">fsexception.hpp</text>
</a>
</g>
</g>
<!-- Node15&#45;&gt;Node26 -->
<g id="edge43" class="edge">
<title>Node15&#45;&gt;Node26</title>
<path fill="none" stroke="midnightblue" d="M1219.23,-173.98C1157.11,-163.26 1054.44,-144.88 992.27,-133.37"/>
<polygon fill="midnightblue" stroke="midnightblue" points="992.75,-129.9 982.28,-131.51 991.47,-136.78 992.75,-129.9"/>
</g>
<!-- Node27 -->
<g id="node27" class="node">
<title>Node27</title>
<g id="a_node27"><a xlink:href="../../d1/d8e/gpioexception_8hpp.html" target="_top" xlink:title="Exception class for Gpio related errors.">
<polygon fill="white" stroke="black" points="1005.2,-112.5 1005.2,-131.5 1112.2,-131.5 1112.2,-112.5 1005.2,-112.5"/>
<text text-anchor="middle" x="1058.7" y="-119.5" font-family="Helvetica,sans-Serif" font-size="10.00">gpioexception.hpp</text>
</a>
</g>
</g>
<!-- Node15&#45;&gt;Node27 -->
<g id="edge46" class="edge">
<title>Node15&#45;&gt;Node27</title>
<path fill="none" stroke="midnightblue" d="M1236.28,-173.98C1196.76,-163.57 1133.46,-145.94 1093.99,-134.38"/>
<polygon fill="midnightblue" stroke="midnightblue" points="1094.84,-130.98 1084.26,-131.51 1092.86,-137.7 1094.84,-130.98"/>
</g>
<!-- Node28 -->
<g id="node28" class="node">
<title>Node28</title>
<g id="a_node28"><a xlink:href="../../d7/d8c/moduleexception_8hpp.html" target="_top" xlink:title="Exception class for modules.">
<polygon fill="white" stroke="black" points="1347.7,-112.5 1347.7,-131.5 1469.7,-131.5 1469.7,-112.5 1347.7,-112.5"/>
<text text-anchor="middle" x="1408.7" y="-119.5" font-family="Helvetica,sans-Serif" font-size="10.00">moduleexception.hpp</text>
</a>
</g>
</g>
<!-- Node15&#45;&gt;Node28 -->
<g id="edge49" class="edge">
<title>Node15&#45;&gt;Node28</title>
<path fill="none" stroke="midnightblue" d="M1286.43,-173.98C1307.52,-163.86 1346.32,-146.9 1374.66,-135.35"/>
<polygon fill="midnightblue" stroke="midnightblue" points="1376.24,-138.49 1384.21,-131.51 1373.62,-132 1376.24,-138.49"/>
</g>
<!-- Node29 -->
<g id="node29" class="node">
<title>Node29</title>
<g id="a_node29"><a xlink:href="../../df/d8d/scriptexception_8hpp.html" target="_top" xlink:title="Exception class for Script related errors.">
<polygon fill="white" stroke="black" points="1488.2,-112.5 1488.2,-131.5 1601.2,-131.5 1601.2,-112.5 1488.2,-112.5"/>
<text text-anchor="middle" x="1544.7" y="-119.5" font-family="Helvetica,sans-Serif" font-size="10.00">scriptexception.hpp</text>
</a>
</g>
</g>
<!-- Node15&#45;&gt;Node29 -->
<g id="edge52" class="edge">
<title>Node15&#45;&gt;Node29</title>
<path fill="none" stroke="midnightblue" d="M1305.91,-173.98C1352.44,-163.33 1435.9,-145.11 1490.85,-133.58"/>
<polygon fill="midnightblue" stroke="midnightblue" points="1491.69,-136.98 1500.76,-131.51 1490.25,-130.13 1491.69,-136.98"/>
</g>
<!-- Node30 -->
<g id="node30" class="node">
<title>Node30</title>
<g id="a_node30"><a xlink:href="../../dc/dce/signalexception_8hpp.html" target="_top" xlink:title="Exception class for Signal related errors.">
<polygon fill="white" stroke="black" points="1619.2,-112.5 1619.2,-131.5 1734.2,-131.5 1734.2,-112.5 1619.2,-112.5"/>
<text text-anchor="middle" x="1676.7" y="-119.5" font-family="Helvetica,sans-Serif" font-size="10.00">signalexception.hpp</text>
</a>
</g>
</g>
<!-- Node15&#45;&gt;Node30 -->
<g id="edge55" class="edge">
<title>Node15&#45;&gt;Node30</title>
<path fill="none" stroke="midnightblue" d="M1317.03,-173.96C1329.53,-171.98 1343.09,-169.89 1355.7,-168 1442.77,-154.93 1543.64,-140.52 1608.79,-131.61"/>
<polygon fill="midnightblue" stroke="midnightblue" points="1609.5,-135.04 1618.94,-130.23 1608.56,-128.11 1609.5,-135.04"/>
</g>
<!-- Node16&#45;&gt;Node17 -->
<g id="edge23" class="edge">
<title>Node16&#45;&gt;Node17</title>
<path fill="none" stroke="midnightblue" d="M1279.54,-112.37C1296.27,-93.97 1335.63,-50.67 1357.1,-27.05"/>
<polygon fill="midnightblue" stroke="midnightblue" points="1359.75,-29.35 1363.89,-19.59 1354.57,-24.64 1359.75,-29.35"/>
</g>
<!-- Node18 -->
<g id="node18" class="node">
<title>Node18</title>
<g id="a_node18"><a xlink:title=" ">
<polygon fill="white" stroke="#bfbfbf" points="1248.2,-56.5 1248.2,-75.5 1295.2,-75.5 1295.2,-56.5 1248.2,-56.5"/>
<text text-anchor="middle" x="1271.7" y="-63.5" font-family="Helvetica,sans-Serif" font-size="10.00">vector</text>
</a>
</g>
</g>
<!-- Node16&#45;&gt;Node18 -->
<g id="edge24" class="edge">
<title>Node16&#45;&gt;Node18</title>
<path fill="none" stroke="midnightblue" d="M1271.7,-112.08C1271.7,-105.01 1271.7,-94.86 1271.7,-85.99"/>
<polygon fill="midnightblue" stroke="midnightblue" points="1275.2,-85.75 1271.7,-75.75 1268.2,-85.75 1275.2,-85.75"/>
</g>
<!-- Node20&#45;&gt;Node15 -->
<g id="edge29" class="edge">
<title>Node20&#45;&gt;Node15</title>
<path fill="none" stroke="midnightblue" d="M739.27,-129.75C745.51,-130.54 751.75,-131.31 757.7,-132 904.15,-148.9 1074.14,-164.59 1177.31,-173.86"/>
<polygon fill="midnightblue" stroke="midnightblue" points="1177.11,-177.36 1187.39,-174.77 1177.74,-170.39 1177.11,-177.36"/>
</g>
<!-- Node20&#45;&gt;Node17 -->
<g id="edge33" class="edge">
<title>Node20&#45;&gt;Node17</title>
<path fill="none" stroke="midnightblue" d="M719.08,-112.44C778.77,-98.99 899.42,-72.73 1002.7,-56 1126.46,-35.96 1274.87,-20.42 1339.26,-14.09"/>
<polygon fill="midnightblue" stroke="midnightblue" points="1339.95,-17.54 1349.57,-13.09 1339.28,-10.57 1339.95,-17.54"/>
</g>
<!-- Node21 -->
<g id="node21" class="node">
<title>Node21</title>
<g id="a_node21"><a xlink:href="../../dd/d35/Colorize_8hpp.html" target="_top" xlink:title=" ">
<polygon fill="white" stroke="black" points="640.7,-56.5 640.7,-75.5 744.7,-75.5 744.7,-56.5 640.7,-56.5"/>
<text text-anchor="middle" x="692.7" y="-63.5" font-family="Helvetica,sans-Serif" font-size="10.00">tools/Colorize.hpp</text>
</a>
</g>
</g>
<!-- Node20&#45;&gt;Node21 -->
<g id="edge30" class="edge">
<title>Node20&#45;&gt;Node21</title>
<path fill="none" stroke="midnightblue" d="M683.51,-112.08C684.97,-104.93 687.07,-94.64 688.89,-85.69"/>
<polygon fill="midnightblue" stroke="midnightblue" points="692.35,-86.25 690.91,-75.75 685.49,-84.85 692.35,-86.25"/>
</g>
<!-- Node21&#45;&gt;Node17 -->
<g id="edge32" class="edge">
<title>Node21&#45;&gt;Node17</title>
<path fill="none" stroke="midnightblue" d="M744.85,-60.85C878.59,-50.22 1230.84,-22.2 1339.39,-13.57"/>
<polygon fill="midnightblue" stroke="midnightblue" points="1339.71,-17.05 1349.4,-12.77 1339.16,-10.08 1339.71,-17.05"/>
</g>
<!-- Node22 -->
<g id="node22" class="node">
<title>Node22</title>
<g id="a_node22"><a xlink:title=" ">
<polygon fill="white" stroke="#bfbfbf" points="664.7,-0.5 664.7,-19.5 720.7,-19.5 720.7,-0.5 664.7,-0.5"/>
<text text-anchor="middle" x="692.7" y="-7.5" font-family="Helvetica,sans-Serif" font-size="10.00">sstream</text>
</a>
</g>
</g>
<!-- Node21&#45;&gt;Node22 -->
<g id="edge31" class="edge">
<title>Node21&#45;&gt;Node22</title>
<path fill="none" stroke="midnightblue" d="M692.7,-56.08C692.7,-49.01 692.7,-38.86 692.7,-29.99"/>
<polygon fill="midnightblue" stroke="midnightblue" points="696.2,-29.75 692.7,-19.75 689.2,-29.75 696.2,-29.75"/>
</g>
<!-- Node23&#45;&gt;Node15 -->
<g id="edge36" class="edge">
<title>Node23&#45;&gt;Node15</title>
<path fill="none" stroke="midnightblue" d="M1931.03,-131.53C1929.57,-131.7 1928.13,-131.85 1926.7,-132 1681.72,-157.43 1618.51,-141 1373.7,-168 1362.64,-169.22 1350.89,-170.82 1339.43,-172.5"/>
<polygon fill="midnightblue" stroke="midnightblue" points="1338.82,-169.05 1329.45,-174 1339.86,-175.98 1338.82,-169.05"/>
</g>
<!-- Node23&#45;&gt;Node17 -->
<g id="edge35" class="edge">
<title>Node23&#45;&gt;Node17</title>
<path fill="none" stroke="midnightblue" d="M1962.16,-112.39C1930.59,-98.13 1864.02,-69.81 1804.7,-56 1658.01,-21.86 1477.33,-13.6 1404.45,-11.62"/>
<polygon fill="midnightblue" stroke="midnightblue" points="1404.19,-8.11 1394.1,-11.36 1404.01,-15.11 1404.19,-8.11"/>
</g>
<!-- Node24&#45;&gt;Node15 -->
<g id="edge39" class="edge">
<title>Node24&#45;&gt;Node15</title>
<path fill="none" stroke="midnightblue" d="M1790.32,-131.51C1788.76,-131.67 1787.22,-131.84 1785.7,-132 1602.9,-151.25 1556.16,-145.83 1373.7,-168 1363.14,-169.28 1351.94,-170.85 1340.96,-172.48"/>
<polygon fill="midnightblue" stroke="midnightblue" points="1340.33,-169.03 1330.96,-173.98 1341.37,-175.95 1340.33,-169.03"/>
</g>
<!-- Node24&#45;&gt;Node17 -->
<g id="edge38" class="edge">
<title>Node24&#45;&gt;Node17</title>
<path fill="none" stroke="midnightblue" d="M1843.15,-112.43C1831.55,-97.95 1805.84,-68.98 1776.7,-56 1710.07,-26.32 1487.99,-15.26 1404.13,-12.08"/>
<polygon fill="midnightblue" stroke="midnightblue" points="1404.05,-8.57 1393.93,-11.7 1403.79,-15.57 1404.05,-8.57"/>
</g>
<!-- Node25&#45;&gt;Node15 -->
<g id="edge42" class="edge">
<title>Node25&#45;&gt;Node15</title>
<path fill="none" stroke="midnightblue" d="M874.02,-129.55C880.35,-130.38 886.68,-131.21 892.7,-132 1000.99,-146.21 1126.3,-162.49 1202.31,-172.64"/>
<polygon fill="midnightblue" stroke="midnightblue" points="1201.87,-176.11 1212.24,-173.97 1202.79,-169.17 1201.87,-176.11"/>
</g>
<!-- Node25&#45;&gt;Node17 -->
<g id="edge41" class="edge">
<title>Node25&#45;&gt;Node17</title>
<path fill="none" stroke="midnightblue" d="M850.46,-112.45C904.31,-99.37 1011.21,-74 1102.7,-56 1187.93,-39.23 1289.14,-23.39 1339.67,-15.75"/>
<polygon fill="midnightblue" stroke="midnightblue" points="1340.28,-19.2 1349.65,-14.25 1339.24,-12.28 1340.28,-19.2"/>
</g>
<!-- Node26&#45;&gt;Node15 -->
<g id="edge45" class="edge">
<title>Node26&#45;&gt;Node15</title>
<path fill="none" stroke="midnightblue" d="M987.41,-130.71C1048.94,-141.28 1155.4,-160.33 1219.17,-172.14"/>
<polygon fill="midnightblue" stroke="midnightblue" points="1218.56,-175.59 1229.03,-173.98 1219.84,-168.71 1218.56,-175.59"/>
</g>
<!-- Node26&#45;&gt;Node17 -->
<g id="edge44" class="edge">
<title>Node26&#45;&gt;Node17</title>
<path fill="none" stroke="midnightblue" d="M970.05,-112.48C1015.66,-99.75 1104.65,-75.21 1180.7,-56 1236.4,-41.93 1301.6,-26.87 1339.61,-18.23"/>
<polygon fill="midnightblue" stroke="midnightblue" points="1340.6,-21.59 1349.58,-15.97 1339.06,-14.77 1340.6,-21.59"/>
</g>
<!-- Node27&#45;&gt;Node15 -->
<g id="edge47" class="edge">
<title>Node27&#45;&gt;Node15</title>
<path fill="none" stroke="midnightblue" d="M1094.06,-131.51C1133.55,-141.91 1196.85,-159.54 1236.34,-171.1"/>
<polygon fill="midnightblue" stroke="midnightblue" points="1235.5,-174.5 1246.08,-173.98 1237.48,-167.79 1235.5,-174.5"/>
</g>
<!-- Node27&#45;&gt;Node17 -->
<g id="edge48" class="edge">
<title>Node27&#45;&gt;Node17</title>
<path fill="none" stroke="midnightblue" d="M1082.08,-112.46C1116.53,-99.92 1182.97,-75.85 1239.7,-56 1273.74,-44.09 1312.86,-30.8 1339.62,-21.77"/>
<polygon fill="midnightblue" stroke="midnightblue" points="1340.88,-25.04 1349.24,-18.53 1338.64,-18.41 1340.88,-25.04"/>
</g>
<!-- Node28&#45;&gt;Node15 -->
<g id="edge51" class="edge">
<title>Node28&#45;&gt;Node15</title>
<path fill="none" stroke="midnightblue" d="M1394,-131.51C1372.93,-141.62 1334.13,-158.57 1305.77,-170.13"/>
<polygon fill="midnightblue" stroke="midnightblue" points="1304.2,-166.99 1296.23,-173.98 1306.81,-173.49 1304.2,-166.99"/>
</g>
<!-- Node28&#45;&gt;Node17 -->
<g id="edge50" class="edge">
<title>Node28&#45;&gt;Node17</title>
<path fill="none" stroke="midnightblue" d="M1405.79,-112.37C1399.8,-94.54 1385.92,-53.3 1377.84,-29.27"/>
<polygon fill="midnightblue" stroke="midnightblue" points="1381.09,-27.95 1374.59,-19.59 1374.46,-30.19 1381.09,-27.95"/>
</g>
<!-- Node29&#45;&gt;Node15 -->
<g id="edge54" class="edge">
<title>Node29&#45;&gt;Node15</title>
<path fill="none" stroke="midnightblue" d="M1510.55,-131.51C1464.05,-142.15 1380.61,-160.37 1325.63,-171.9"/>
<polygon fill="midnightblue" stroke="midnightblue" points="1324.78,-168.5 1315.71,-173.98 1326.22,-175.36 1324.78,-168.5"/>
</g>
<!-- Node29&#45;&gt;Node17 -->
<g id="edge53" class="edge">
<title>Node29&#45;&gt;Node17</title>
<path fill="none" stroke="midnightblue" d="M1531.12,-112.37C1501.43,-93.49 1430.49,-48.38 1394.09,-25.24"/>
<polygon fill="midnightblue" stroke="midnightblue" points="1395.53,-22 1385.21,-19.59 1391.77,-27.91 1395.53,-22"/>
</g>
<!-- Node30&#45;&gt;Node15 -->
<g id="edge57" class="edge">
<title>Node30&#45;&gt;Node15</title>
<path fill="none" stroke="midnightblue" d="M1623.01,-131.51C1562.4,-140.41 1461.1,-154.88 1373.7,-168 1364.18,-169.43 1354.13,-170.97 1344.17,-172.49"/>
<polygon fill="midnightblue" stroke="midnightblue" points="1343.63,-169.03 1334.27,-174 1344.68,-175.95 1343.63,-169.03"/>
</g>
<!-- Node30&#45;&gt;Node17 -->
<g id="edge56" class="edge">
<title>Node30&#45;&gt;Node17</title>
<path fill="none" stroke="midnightblue" d="M1653.02,-112.46C1598.66,-92.86 1464.9,-44.61 1403.47,-22.46"/>
<polygon fill="midnightblue" stroke="midnightblue" points="1404.51,-19.11 1393.91,-19.01 1402.13,-25.7 1404.51,-19.11"/>
</g>
</g>
</svg>
        <g id="navigator" transform="translate(0 0)" fill="#404254">
                <rect fill="#f2f5e9" fill-opacity="0.5" stroke="#606060" stroke-width=".5" x="0" y="0" width="60" height="60"/>
                <use id="zoomplus" xlink:href="#zoomPlus" x="17" y="9" onmousedown="handleZoom(evt,'in')"/>
                <use id="zoomminus" xlink:href="#zoomMin" x="42" y="9" onmousedown="handleZoom(evt,'out')"/>
                <use id="reset" xlink:href="#resetDef" x="30" y="36" onmousedown="handleReset()"/>
                <g id="arrowUp" xlink:href="#dirArrow" transform="translate(30 24)" onmousedown="handlePan(0,-1)">
                  <use xlink:href="#rim" fill="#404040">
                        <set attributeName="fill" to="#808080" begin="arrowUp.mouseover" end="arrowUp.mouseout"/>
                  </use>
                  <path fill="none" stroke="white" stroke-width="1.5" d="M0,-3.0v7 M-2.5,-0.5L0,-3.0L2.5,-0.5"/>
                </g>
                <g id="arrowRight" xlink:href="#dirArrow" transform="rotate(90) translate(36 -43)" onmousedown="handlePan(1,0)">
                  <use xlink:href="#rim" fill="#404040">
                        <set attributeName="fill" to="#808080" begin="arrowRight.mouseover" end="arrowRight.mouseout"/>
                  </use>
                  <path fill="none" stroke="white" stroke-width="1.5" d="M0,-3.0v7 M-2.5,-0.5L0,-3.0L2.5,-0.5"/>
                </g>
                <g id="arrowDown" xlink:href="#dirArrow" transform="rotate(180) translate(-30 -48)" onmousedown="handlePan(0,1)">
                  <use xlink:href="#rim" fill="#404040">
                        <set attributeName="fill" to="#808080" begin="arrowDown.mouseover" end="arrowDown.mouseout"/>
                  </use>
                  <path fill="none" stroke="white" stroke-width="1.5" d="M0,-3.0v7 M-2.5,-0.5L0,-3.0L2.5,-0.5"/>
                </g>
                <g id="arrowLeft" xlink:href="#dirArrow" transform="rotate(270) translate(-36 17)" onmousedown="handlePan(-1,0)">
                  <use xlink:href="#rim" fill="#404040">
                        <set attributeName="fill" to="#808080" begin="arrowLeft.mouseover" end="arrowLeft.mouseout"/>
                  </use>
                  <path fill="none" stroke="white" stroke-width="1.5" d="M0,-3.0v7 M-2.5,-0.5L0,-3.0L2.5,-0.5"/>
                </g>
        </g>
        <svg viewBox="0 0 15 15" width="100%" height="30px" preserveAspectRatio="xMaxYMin meet">
         <g id="arrow_out" transform="scale(0.3 0.3)">
          <a xlink:href="src_2core_2credentials_2CredentialValidator_8cpp__incl_org.svg" target="_base">
           <rect id="button" ry="5" rx="5" y="6" x="6" height="38" width="38"
                fill="#f2f5e9" fill-opacity="0.5" stroke="#606060" stroke-width="1.0"/>
           <path id="arrow"
             d="M 11.500037,31.436501 C 11.940474,20.09759 22.043105,11.32322 32.158766,21.979434 L 37.068811,17.246167 C 37.068811,17.246167 37.088388,32 37.088388,32 L 22.160133,31.978069 C 22.160133,31.978069 26.997745,27.140456 26.997745,27.140456 C 18.528582,18.264221 13.291696,25.230495 11.500037,31.436501 z"
             style="fill:#404040;"/>
          </a>
         </g>
        </svg>
</svg>
