<?xml version="1.0" encoding="UTF-8" standalone="no"?>
<!DOCTYPE svg PUBLIC "-//W3C//DTD SVG 1.1//EN"
 "http://www.w3.org/Graphics/SVG/1.1/DTD/svg11.dtd">
<!-- Generated by graphviz version 2.43.0 (0)
 -->
<!-- Title: src/modules/websock&#45;api/ExceptionConverter.cpp Pages: 1 -->
<svg width="3008pt" height="330pt"
 viewBox="0.00 0.00 3007.50 330.00" xmlns="http://www.w3.org/2000/svg" xmlns:xlink="http://www.w3.org/1999/xlink">
<g id="graph0" class="graph" transform="scale(1 1) rotate(0) translate(4 326)">
<title>src/modules/websock&#45;api/ExceptionConverter.cpp</title>
<polygon fill="white" stroke="transparent" points="-4,4 -4,-326 3003.5,-326 3003.5,4 -4,4"/>
<!-- Node1 -->
<g id="node1" class="node">
<title>Node1</title>
<g id="a_node1"><a xlink:title=" ">
<polygon fill="#bfbfbf" stroke="black" points="1297.5,-291.5 1297.5,-321.5 1451.5,-321.5 1451.5,-291.5 1297.5,-291.5"/>
<text text-anchor="start" x="1305.5" y="-309.5" font-family="Helvetica,sans-Serif" font-size="10.00">src/modules/websock</text>
<text text-anchor="middle" x="1374.5" y="-298.5" font-family="Helvetica,sans-Serif" font-size="10.00">&#45;api/ExceptionConverter.cpp</text>
</a>
</g>
</g>
<!-- Node2 -->
<g id="node2" class="node">
<title>Node2</title>
<g id="a_node2"><a xlink:href="../../d7/d6d/ExceptionConverter_8hpp.html" target="_top" xlink:title=" ">
<polygon fill="white" stroke="black" points="570,-235.5 570,-254.5 703,-254.5 703,-235.5 570,-235.5"/>
<text text-anchor="middle" x="636.5" y="-242.5" font-family="Helvetica,sans-Serif" font-size="10.00">ExceptionConverter.hpp</text>
</a>
</g>
</g>
<!-- Node1&#45;&gt;Node2 -->
<g id="edge1" class="edge">
<title>Node1&#45;&gt;Node2</title>
<path fill="none" stroke="midnightblue" d="M1297.26,-299.27C1155.46,-287.84 855.16,-263.63 713.52,-252.21"/>
<polygon fill="midnightblue" stroke="midnightblue" points="713.44,-248.69 703.19,-251.38 712.87,-255.67 713.44,-248.69"/>
</g>
<!-- Node12 -->
<g id="node12" class="node">
<title>Node12</title>
<g id="a_node12"><a xlink:href="../../d2/de9/Exceptions_8hpp.html" target="_top" xlink:title=" ">
<polygon fill="white" stroke="black" points="896,-235.5 896,-254.5 987,-254.5 987,-235.5 896,-235.5"/>
<text text-anchor="middle" x="941.5" y="-242.5" font-family="Helvetica,sans-Serif" font-size="10.00">Exceptions.hpp</text>
</a>
</g>
</g>
<!-- Node1&#45;&gt;Node12 -->
<g id="edge11" class="edge">
<title>Node1&#45;&gt;Node12</title>
<path fill="none" stroke="midnightblue" d="M1297.45,-295.98C1223.05,-286.62 1106.93,-271.56 997.08,-255.2"/>
<polygon fill="midnightblue" stroke="midnightblue" points="997.56,-251.73 987.15,-253.72 996.52,-258.66 997.56,-251.73"/>
</g>
<!-- Node29 -->
<g id="node29" class="node">
<title>Node29</title>
<g id="a_node29"><a xlink:href="../../de/d62/EntityNotFound_8hpp.html" target="_top" xlink:title=" ">
<polygon fill="white" stroke="black" points="1573.5,-235.5 1573.5,-254.5 1737.5,-254.5 1737.5,-235.5 1573.5,-235.5"/>
<text text-anchor="middle" x="1655.5" y="-242.5" font-family="Helvetica,sans-Serif" font-size="10.00">exception/EntityNotFound.hpp</text>
</a>
</g>
</g>
<!-- Node1&#45;&gt;Node29 -->
<g id="edge53" class="edge">
<title>Node1&#45;&gt;Node29</title>
<path fill="none" stroke="midnightblue" d="M1440.74,-291.47C1491.12,-280.81 1559.38,-266.35 1605.31,-256.63"/>
<polygon fill="midnightblue" stroke="midnightblue" points="1606.27,-260 1615.33,-254.51 1604.82,-253.15 1606.27,-260"/>
</g>
<!-- Node36 -->
<g id="node36" class="node">
<title>Node36</title>
<g id="a_node36"><a xlink:href="../../de/d99/InvalidArgument_8hpp.html" target="_top" xlink:title=" ">
<polygon fill="white" stroke="black" points="1385.5,-235.5 1385.5,-254.5 1555.5,-254.5 1555.5,-235.5 1385.5,-235.5"/>
<text text-anchor="middle" x="1470.5" y="-242.5" font-family="Helvetica,sans-Serif" font-size="10.00">exception/InvalidArgument.hpp</text>
</a>
</g>
</g>
<!-- Node1&#45;&gt;Node36 -->
<g id="edge62" class="edge">
<title>Node1&#45;&gt;Node36</title>
<path fill="none" stroke="midnightblue" d="M1397.25,-291.4C1412.49,-281.95 1432.49,-269.56 1447.74,-260.11"/>
<polygon fill="midnightblue" stroke="midnightblue" points="1449.88,-262.9 1456.53,-254.66 1446.19,-256.95 1449.88,-262.9"/>
</g>
<!-- Node38 -->
<g id="node38" class="node">
<title>Node38</title>
<g id="a_node38"><a xlink:href="../../dc/d5b/ModelException_8hpp.html" target="_top" xlink:title=" ">
<polygon fill="white" stroke="black" points="1005,-235.5 1005,-254.5 1172,-254.5 1172,-235.5 1005,-235.5"/>
<text text-anchor="middle" x="1088.5" y="-242.5" font-family="Helvetica,sans-Serif" font-size="10.00">exception/ModelException.hpp</text>
</a>
</g>
</g>
<!-- Node1&#45;&gt;Node38 -->
<g id="edge65" class="edge">
<title>Node1&#45;&gt;Node38</title>
<path fill="none" stroke="midnightblue" d="M1307.08,-291.47C1255.7,-280.78 1186.03,-266.29 1139.29,-256.57"/>
<polygon fill="midnightblue" stroke="midnightblue" points="1139.89,-253.12 1129.39,-254.51 1138.47,-259.97 1139.89,-253.12"/>
</g>
<!-- Node39 -->
<g id="node39" class="node">
<title>Node39</title>
<g id="a_node39"><a xlink:href="../../da/dc7/PermissionDenied_8hpp.html" target="_top" xlink:title=" ">
<polygon fill="white" stroke="black" points="1190,-235.5 1190,-254.5 1367,-254.5 1367,-235.5 1190,-235.5"/>
<text text-anchor="middle" x="1278.5" y="-242.5" font-family="Helvetica,sans-Serif" font-size="10.00">exception/PermissionDenied.hpp</text>
</a>
</g>
</g>
<!-- Node1&#45;&gt;Node39 -->
<g id="edge68" class="edge">
<title>Node1&#45;&gt;Node39</title>
<path fill="none" stroke="midnightblue" d="M1351.75,-291.4C1336.51,-281.95 1316.51,-269.56 1301.26,-260.11"/>
<polygon fill="midnightblue" stroke="midnightblue" points="1302.81,-256.95 1292.47,-254.66 1299.12,-262.9 1302.81,-256.95"/>
</g>
<!-- Node40 -->
<g id="node40" class="node">
<title>Node40</title>
<g id="a_node40"><a xlink:href="../../d4/d3d/log_8hpp.html" target="_top" xlink:title=" ">
<polygon fill="white" stroke="black" points="2276.5,-56.5 2276.5,-75.5 2356.5,-75.5 2356.5,-56.5 2276.5,-56.5"/>
<text text-anchor="middle" x="2316.5" y="-63.5" font-family="Helvetica,sans-Serif" font-size="10.00">tools/log.hpp</text>
</a>
</g>
</g>
<!-- Node1&#45;&gt;Node40 -->
<g id="edge70" class="edge">
<title>Node1&#45;&gt;Node40</title>
<path fill="none" stroke="midnightblue" d="M1451.78,-302.3C1739.95,-289.56 2740.07,-237.95 2830.5,-132 2836.27,-125.24 2836.51,-118.55 2830.5,-112 2799.59,-78.27 2490.67,-69.72 2367.15,-67.64"/>
<polygon fill="midnightblue" stroke="midnightblue" points="2366.89,-64.13 2356.83,-67.47 2366.78,-71.13 2366.89,-64.13"/>
</g>
<!-- Node45 -->
<g id="node45" class="node">
<title>Node45</title>
<g id="a_node45"><a xlink:title=" ">
<polygon fill="white" stroke="#bfbfbf" points="2877.5,-235.5 2877.5,-254.5 2999.5,-254.5 2999.5,-235.5 2877.5,-235.5"/>
<text text-anchor="middle" x="2938.5" y="-242.5" font-family="Helvetica,sans-Serif" font-size="10.00">boost/type_index.hpp</text>
</a>
</g>
</g>
<!-- Node1&#45;&gt;Node45 -->
<g id="edge77" class="edge">
<title>Node1&#45;&gt;Node45</title>
<path fill="none" stroke="midnightblue" d="M1451.74,-305.21C1672.36,-303.87 2324.18,-296.43 2863.5,-255 2864.61,-254.91 2865.73,-254.82 2866.86,-254.73"/>
<polygon fill="midnightblue" stroke="midnightblue" points="2867.51,-258.19 2877.15,-253.8 2866.87,-251.22 2867.51,-258.19"/>
</g>
<!-- Node3 -->
<g id="node3" class="node">
<title>Node3</title>
<g id="a_node3"><a xlink:href="../../d5/d0f/Messages_8hpp.html" target="_top" xlink:title=" ">
<polygon fill="white" stroke="black" points="400,-168.5 400,-198.5 523,-198.5 523,-168.5 400,-168.5"/>
<text text-anchor="start" x="408" y="-186.5" font-family="Helvetica,sans-Serif" font-size="10.00">modules/websock&#45;api</text>
<text text-anchor="middle" x="461.5" y="-175.5" font-family="Helvetica,sans-Serif" font-size="10.00">/Messages.hpp</text>
</a>
</g>
</g>
<!-- Node2&#45;&gt;Node3 -->
<g id="edge2" class="edge">
<title>Node2&#45;&gt;Node3</title>
<path fill="none" stroke="midnightblue" d="M611.43,-235.48C585.73,-226.74 545.05,-212.91 512.54,-201.86"/>
<polygon fill="midnightblue" stroke="midnightblue" points="513.34,-198.43 502.74,-198.52 511.09,-205.06 513.34,-198.43"/>
</g>
<!-- Node4 -->
<g id="node4" class="node">
<title>Node4</title>
<g id="a_node4"><a xlink:href="../../d4/dc3/APIStatusCode_8hpp.html" target="_top" xlink:title=" ">
<polygon fill="white" stroke="black" points="0,-112.5 0,-131.5 133,-131.5 133,-112.5 0,-112.5"/>
<text text-anchor="middle" x="66.5" y="-119.5" font-family="Helvetica,sans-Serif" font-size="10.00">core/APIStatusCode.hpp</text>
</a>
</g>
</g>
<!-- Node3&#45;&gt;Node4 -->
<g id="edge3" class="edge">
<title>Node3&#45;&gt;Node4</title>
<path fill="none" stroke="midnightblue" d="M399.78,-173.2C327.35,-162.29 207.71,-144.27 133.19,-133.05"/>
<polygon fill="midnightblue" stroke="midnightblue" points="133.4,-129.54 122.99,-131.51 132.36,-136.46 133.4,-129.54"/>
</g>
<!-- Node5 -->
<g id="node5" class="node">
<title>Node5</title>
<g id="a_node5"><a xlink:href="../../d7/dcf/AuditFwd_8hpp.html" target="_top" xlink:title=" ">
<polygon fill="white" stroke="black" points="151,-112.5 151,-131.5 286,-131.5 286,-112.5 151,-112.5"/>
<text text-anchor="middle" x="218.5" y="-119.5" font-family="Helvetica,sans-Serif" font-size="10.00">core/audit/AuditFwd.hpp</text>
</a>
</g>
</g>
<!-- Node3&#45;&gt;Node5 -->
<g id="edge4" class="edge">
<title>Node3&#45;&gt;Node5</title>
<path fill="none" stroke="midnightblue" d="M404.22,-168.47C361.11,-157.92 302.86,-143.66 263.16,-133.94"/>
<polygon fill="midnightblue" stroke="midnightblue" points="263.79,-130.49 253.24,-131.51 262.12,-137.28 263.79,-130.49"/>
</g>
<!-- Node10 -->
<g id="node10" class="node">
<title>Node10</title>
<g id="a_node10"><a xlink:title=" ">
<polygon fill="white" stroke="#bfbfbf" points="489.5,-112.5 489.5,-131.5 599.5,-131.5 599.5,-112.5 489.5,-112.5"/>
<text text-anchor="middle" x="544.5" y="-119.5" font-family="Helvetica,sans-Serif" font-size="10.00">nlohmann/json.hpp</text>
</a>
</g>
</g>
<!-- Node3&#45;&gt;Node10 -->
<g id="edge9" class="edge">
<title>Node3&#45;&gt;Node10</title>
<path fill="none" stroke="midnightblue" d="M481.17,-168.4C494.1,-159.13 510.99,-147.03 524.07,-137.65"/>
<polygon fill="midnightblue" stroke="midnightblue" points="526.33,-140.33 532.42,-131.66 522.26,-134.64 526.33,-140.33"/>
</g>
<!-- Node11 -->
<g id="node11" class="node">
<title>Node11</title>
<g id="a_node11"><a xlink:title=" ">
<polygon fill="white" stroke="#bfbfbf" points="1493.5,-0.5 1493.5,-19.5 1537.5,-19.5 1537.5,-0.5 1493.5,-0.5"/>
<text text-anchor="middle" x="1515.5" y="-7.5" font-family="Helvetica,sans-Serif" font-size="10.00">string</text>
</a>
</g>
</g>
<!-- Node3&#45;&gt;Node11 -->
<g id="edge10" class="edge">
<title>Node3&#45;&gt;Node11</title>
<path fill="none" stroke="midnightblue" d="M461.03,-168.23C461.33,-152.04 464.52,-126.08 480.5,-112 557.64,-44.05 1316.7,-17.07 1483.29,-11.94"/>
<polygon fill="midnightblue" stroke="midnightblue" points="1483.5,-15.43 1493.39,-11.63 1483.29,-8.43 1483.5,-15.43"/>
</g>
<!-- Node6 -->
<g id="node6" class="node">
<title>Node6</title>
<g id="a_node6"><a xlink:title=" ">
<polygon fill="white" stroke="#bfbfbf" points="371,-56.5 371,-75.5 424,-75.5 424,-56.5 371,-56.5"/>
<text text-anchor="middle" x="397.5" y="-63.5" font-family="Helvetica,sans-Serif" font-size="10.00">cstddef</text>
</a>
</g>
</g>
<!-- Node5&#45;&gt;Node6 -->
<g id="edge5" class="edge">
<title>Node5&#45;&gt;Node6</title>
<path fill="none" stroke="midnightblue" d="M246.86,-112.44C277.68,-103.15 327.04,-88.26 360.79,-78.07"/>
<polygon fill="midnightblue" stroke="midnightblue" points="362.17,-81.31 370.73,-75.08 360.15,-74.61 362.17,-81.31"/>
</g>
<!-- Node7 -->
<g id="node7" class="node">
<title>Node7</title>
<g id="a_node7"><a xlink:title=" ">
<polygon fill="white" stroke="#bfbfbf" points="92,-56.5 92,-75.5 163,-75.5 163,-56.5 92,-56.5"/>
<text text-anchor="middle" x="127.5" y="-63.5" font-family="Helvetica,sans-Serif" font-size="10.00">flagset.hpp</text>
</a>
</g>
</g>
<!-- Node5&#45;&gt;Node7 -->
<g id="edge6" class="edge">
<title>Node5&#45;&gt;Node7</title>
<path fill="none" stroke="midnightblue" d="M203.88,-112.32C189.55,-103.82 167.49,-90.73 150.75,-80.8"/>
<polygon fill="midnightblue" stroke="midnightblue" points="152.47,-77.75 142.08,-75.65 148.9,-83.77 152.47,-77.75"/>
</g>
<!-- Node8 -->
<g id="node8" class="node">
<title>Node8</title>
<g id="a_node8"><a xlink:title=" ">
<polygon fill="white" stroke="#bfbfbf" points="294.5,-56.5 294.5,-75.5 352.5,-75.5 352.5,-56.5 294.5,-56.5"/>
<text text-anchor="middle" x="323.5" y="-63.5" font-family="Helvetica,sans-Serif" font-size="10.00">memory</text>
</a>
</g>
</g>
<!-- Node5&#45;&gt;Node8 -->
<g id="edge7" class="edge">
<title>Node5&#45;&gt;Node8</title>
<path fill="none" stroke="midnightblue" d="M235.37,-112.32C252.21,-103.66 278.31,-90.24 297.74,-80.25"/>
<polygon fill="midnightblue" stroke="midnightblue" points="299.38,-83.34 306.67,-75.65 296.18,-77.12 299.38,-83.34"/>
</g>
<!-- Node9 -->
<g id="node9" class="node">
<title>Node9</title>
<g id="a_node9"><a xlink:title=" ">
<polygon fill="white" stroke="#bfbfbf" points="181,-56.5 181,-75.5 276,-75.5 276,-56.5 181,-56.5"/>
<text text-anchor="middle" x="228.5" y="-63.5" font-family="Helvetica,sans-Serif" font-size="10.00">odb/lazy&#45;ptr.hxx</text>
</a>
</g>
</g>
<!-- Node5&#45;&gt;Node9 -->
<g id="edge8" class="edge">
<title>Node5&#45;&gt;Node9</title>
<path fill="none" stroke="midnightblue" d="M220.15,-112.08C221.48,-104.93 223.38,-94.64 225.04,-85.69"/>
<polygon fill="midnightblue" stroke="midnightblue" points="228.5,-86.22 226.88,-75.75 221.62,-84.95 228.5,-86.22"/>
</g>
<!-- Node13 -->
<g id="node13" class="node">
<title>Node13</title>
<g id="a_node13"><a xlink:href="../../d3/d6f/AuthFwd_8hpp.html" target="_top" xlink:title=" ">
<polygon fill="white" stroke="black" points="304,-112.5 304,-131.5 433,-131.5 433,-112.5 304,-112.5"/>
<text text-anchor="middle" x="368.5" y="-119.5" font-family="Helvetica,sans-Serif" font-size="10.00">core/auth/AuthFwd.hpp</text>
</a>
</g>
</g>
<!-- Node12&#45;&gt;Node13 -->
<g id="edge12" class="edge">
<title>Node12&#45;&gt;Node13</title>
<path fill="none" stroke="midnightblue" d="M901.21,-235.49C799.31,-213.97 531.47,-157.41 419.18,-133.7"/>
<polygon fill="midnightblue" stroke="midnightblue" points="419.64,-130.22 409.13,-131.58 418.19,-137.07 419.64,-130.22"/>
</g>
<!-- Node14 -->
<g id="node14" class="node">
<title>Node14</title>
<g id="a_node14"><a xlink:href="../../d1/ddd/leosacexception_8hpp.html" target="_top" xlink:title="Exception class for LEOSAC Project related errors.">
<polygon fill="white" stroke="black" points="1194.5,-174 1194.5,-193 1362.5,-193 1362.5,-174 1194.5,-174"/>
<text text-anchor="middle" x="1278.5" y="-181" font-family="Helvetica,sans-Serif" font-size="10.00">exception/leosacexception.hpp</text>
</a>
</g>
</g>
<!-- Node12&#45;&gt;Node14 -->
<g id="edge16" class="edge">
<title>Node12&#45;&gt;Node14</title>
<path fill="none" stroke="midnightblue" d="M987.3,-235.91C1047.69,-225.25 1154,-206.48 1220.1,-194.81"/>
<polygon fill="midnightblue" stroke="midnightblue" points="1221.11,-198.19 1230.35,-193 1219.89,-191.29 1221.11,-198.19"/>
</g>
<!-- Node13&#45;&gt;Node6 -->
<g id="edge13" class="edge">
<title>Node13&#45;&gt;Node6</title>
<path fill="none" stroke="midnightblue" d="M373.29,-112.08C377.26,-104.69 383.03,-93.95 387.93,-84.81"/>
<polygon fill="midnightblue" stroke="midnightblue" points="391.15,-86.22 392.8,-75.75 384.99,-82.91 391.15,-86.22"/>
</g>
<!-- Node13&#45;&gt;Node8 -->
<g id="edge14" class="edge">
<title>Node13&#45;&gt;Node8</title>
<path fill="none" stroke="midnightblue" d="M361.07,-112.08C354.65,-104.38 345.19,-93.03 337.38,-83.65"/>
<polygon fill="midnightblue" stroke="midnightblue" points="339.88,-81.19 330.79,-75.75 334.51,-85.67 339.88,-81.19"/>
</g>
<!-- Node13&#45;&gt;Node9 -->
<g id="edge15" class="edge">
<title>Node13&#45;&gt;Node9</title>
<path fill="none" stroke="midnightblue" d="M346.32,-112.44C323.07,-103.48 286.35,-89.31 260.08,-79.18"/>
<polygon fill="midnightblue" stroke="midnightblue" points="261.17,-75.85 250.58,-75.52 258.65,-82.38 261.17,-75.85"/>
</g>
<!-- Node14&#45;&gt;Node6 -->
<g id="edge20" class="edge">
<title>Node14&#45;&gt;Node6</title>
<path fill="none" stroke="midnightblue" d="M1194.46,-179.98C1046.81,-174.85 747,-161.13 646.5,-132 628.17,-126.69 626.45,-118.5 608.5,-112 549.28,-90.57 476.83,-77.88 434.08,-71.69"/>
<polygon fill="midnightblue" stroke="midnightblue" points="434.52,-68.22 424.13,-70.29 433.55,-75.15 434.52,-68.22"/>
</g>
<!-- Node14&#45;&gt;Node11 -->
<g id="edge22" class="edge">
<title>Node14&#45;&gt;Node11</title>
<path fill="none" stroke="midnightblue" d="M1260.89,-173.9C1237.14,-161.11 1199.64,-136.01 1216.5,-112 1277.8,-24.67 1418.85,-11.76 1482.86,-10.58"/>
<polygon fill="midnightblue" stroke="midnightblue" points="1483.19,-14.08 1493.16,-10.48 1483.13,-7.08 1483.19,-14.08"/>
</g>
<!-- Node15 -->
<g id="node15" class="node">
<title>Node15</title>
<g id="a_node15"><a xlink:href="../../d6/d2f/Stacktrace_8hpp.html" target="_top" xlink:title=" ">
<polygon fill="white" stroke="black" points="1433.5,-112.5 1433.5,-131.5 1549.5,-131.5 1549.5,-112.5 1433.5,-112.5"/>
<text text-anchor="middle" x="1491.5" y="-119.5" font-family="Helvetica,sans-Serif" font-size="10.00">tools/Stacktrace.hpp</text>
</a>
</g>
</g>
<!-- Node14&#45;&gt;Node15 -->
<g id="edge17" class="edge">
<title>Node14&#45;&gt;Node15</title>
<path fill="none" stroke="midnightblue" d="M1309.02,-173.98C1346.42,-163.53 1409.93,-145.79 1451.29,-134.23"/>
<polygon fill="midnightblue" stroke="midnightblue" points="1452.35,-137.57 1461.04,-131.51 1450.47,-130.83 1452.35,-137.57"/>
</g>
<!-- Node17 -->
<g id="node17" class="node">
<title>Node17</title>
<g id="a_node17"><a xlink:title=" ">
<polygon fill="white" stroke="#bfbfbf" points="1350,-112.5 1350,-131.5 1415,-131.5 1415,-112.5 1350,-112.5"/>
<text text-anchor="middle" x="1382.5" y="-119.5" font-family="Helvetica,sans-Serif" font-size="10.00">exception</text>
</a>
</g>
</g>
<!-- Node14&#45;&gt;Node17 -->
<g id="edge21" class="edge">
<title>Node14&#45;&gt;Node17</title>
<path fill="none" stroke="midnightblue" d="M1293.4,-173.98C1310.47,-164.21 1338.66,-148.08 1358.76,-136.58"/>
<polygon fill="midnightblue" stroke="midnightblue" points="1360.69,-139.51 1367.63,-131.51 1357.21,-133.44 1360.69,-139.51"/>
</g>
<!-- Node18 -->
<g id="node18" class="node">
<title>Node18</title>
<g id="a_node18"><a xlink:href="../../d7/d7a/configexception_8hpp.html" target="_top" xlink:title=" ">
<polygon fill="white" stroke="black" points="1951,-112.5 1951,-131.5 2066,-131.5 2066,-112.5 1951,-112.5"/>
<text text-anchor="middle" x="2008.5" y="-119.5" font-family="Helvetica,sans-Serif" font-size="10.00">configexception.hpp</text>
</a>
</g>
</g>
<!-- Node14&#45;&gt;Node18 -->
<g id="edge23" class="edge">
<title>Node14&#45;&gt;Node18</title>
<path fill="none" stroke="midnightblue" d="M1343.49,-173.99C1362.76,-171.88 1383.92,-169.72 1403.5,-168 1638.69,-147.3 1698.62,-155.96 1933.5,-132 1935.88,-131.76 1938.3,-131.5 1940.76,-131.22"/>
<polygon fill="midnightblue" stroke="midnightblue" points="1941.43,-134.66 1950.95,-130.01 1940.61,-127.71 1941.43,-134.66"/>
</g>
<!-- Node21 -->
<g id="node21" class="node">
<title>Node21</title>
<g id="a_node21"><a xlink:href="../../d8/db0/coreexception_8hpp.html" target="_top" xlink:title="Exception class for Core related errors.">
<polygon fill="white" stroke="black" points="1225,-112.5 1225,-131.5 1332,-131.5 1332,-112.5 1225,-112.5"/>
<text text-anchor="middle" x="1278.5" y="-119.5" font-family="Helvetica,sans-Serif" font-size="10.00">coreexception.hpp</text>
</a>
</g>
</g>
<!-- Node14&#45;&gt;Node21 -->
<g id="edge29" class="edge">
<title>Node14&#45;&gt;Node21</title>
<path fill="none" stroke="midnightblue" d="M1273.6,-173.98C1271.77,-165.58 1271.3,-152.48 1272.19,-141.66"/>
<polygon fill="midnightblue" stroke="midnightblue" points="1275.69,-141.9 1273.6,-131.51 1268.75,-140.93 1275.69,-141.9"/>
</g>
<!-- Node22 -->
<g id="node22" class="node">
<title>Node22</title>
<g id="a_node22"><a xlink:href="../../d8/d77/deviceexception_8hpp.html" target="_top" xlink:title="Exception class for Device related errors.">
<polygon fill="white" stroke="black" points="1567.5,-112.5 1567.5,-131.5 1685.5,-131.5 1685.5,-112.5 1567.5,-112.5"/>
<text text-anchor="middle" x="1626.5" y="-119.5" font-family="Helvetica,sans-Serif" font-size="10.00">deviceexception.hpp</text>
</a>
</g>
</g>
<!-- Node14&#45;&gt;Node22 -->
<g id="edge32" class="edge">
<title>Node14&#45;&gt;Node22</title>
<path fill="none" stroke="midnightblue" d="M1323.46,-173.98C1384.16,-163.19 1492.49,-144.65 1561.89,-133.15"/>
<polygon fill="midnightblue" stroke="midnightblue" points="1562.54,-136.59 1571.84,-131.51 1561.4,-129.69 1562.54,-136.59"/>
</g>
<!-- Node23 -->
<g id="node23" class="node">
<title>Node23</title>
<g id="a_node23"><a xlink:href="../../db/d35/dynlibexception_8hpp.html" target="_top" xlink:title="Exception class for DynLib related errors.">
<polygon fill="white" stroke="black" points="1703.5,-112.5 1703.5,-131.5 1819.5,-131.5 1819.5,-112.5 1703.5,-112.5"/>
<text text-anchor="middle" x="1761.5" y="-119.5" font-family="Helvetica,sans-Serif" font-size="10.00">dynlibexception.hpp</text>
</a>
</g>
</g>
<!-- Node14&#45;&gt;Node23 -->
<g id="edge35" class="edge">
<title>Node14&#45;&gt;Node23</title>
<path fill="none" stroke="midnightblue" d="M1344.54,-173.98C1425.09,-164.15 1565.16,-147.39 1685.5,-132 1688,-131.68 1690.54,-131.35 1693.12,-131.02"/>
<polygon fill="midnightblue" stroke="midnightblue" points="1693.71,-134.47 1703.18,-129.71 1692.81,-127.53 1693.71,-134.47"/>
</g>
<!-- Node24 -->
<g id="node24" class="node">
<title>Node24</title>
<g id="a_node24"><a xlink:href="../../d0/d4e/fsexception_8hpp.html" target="_top" xlink:title="Exception class for filesystem related errors.">
<polygon fill="white" stroke="black" points="1838,-112.5 1838,-131.5 1933,-131.5 1933,-112.5 1838,-112.5"/>
<text text-anchor="middle" x="1885.5" y="-119.5" font-family="Helvetica,sans-Serif" font-size="10.00">fsexception.hpp</text>
</a>
</g>
</g>
<!-- Node14&#45;&gt;Node24 -->
<g id="edge38" class="edge">
<title>Node14&#45;&gt;Node24</title>
<path fill="none" stroke="midnightblue" d="M1345.93,-173.97C1364.54,-171.94 1384.75,-169.83 1403.5,-168 1588.21,-150.02 1635.29,-154.49 1819.5,-132 1822.16,-131.68 1824.88,-131.32 1827.64,-130.95"/>
<polygon fill="midnightblue" stroke="midnightblue" points="1828.31,-134.39 1837.72,-129.51 1827.33,-127.45 1828.31,-134.39"/>
</g>
<!-- Node25 -->
<g id="node25" class="node">
<title>Node25</title>
<g id="a_node25"><a xlink:href="../../d1/d8e/gpioexception_8hpp.html" target="_top" xlink:title="Exception class for Gpio related errors.">
<polygon fill="white" stroke="black" points="656,-112.5 656,-131.5 763,-131.5 763,-112.5 656,-112.5"/>
<text text-anchor="middle" x="709.5" y="-119.5" font-family="Helvetica,sans-Serif" font-size="10.00">gpioexception.hpp</text>
</a>
</g>
</g>
<!-- Node14&#45;&gt;Node25 -->
<g id="edge41" class="edge">
<title>Node14&#45;&gt;Node25</title>
<path fill="none" stroke="midnightblue" d="M1194.13,-175.74C1094.07,-167.08 922.26,-151.04 769.54,-132.72"/>
<polygon fill="midnightblue" stroke="midnightblue" points="769.86,-129.23 759.51,-131.51 769.02,-136.18 769.86,-129.23"/>
</g>
<!-- Node26 -->
<g id="node26" class="node">
<title>Node26</title>
<g id="a_node26"><a xlink:href="../../d7/d8c/moduleexception_8hpp.html" target="_top" xlink:title="Exception class for modules.">
<polygon fill="white" stroke="black" points="781.5,-112.5 781.5,-131.5 903.5,-131.5 903.5,-112.5 781.5,-112.5"/>
<text text-anchor="middle" x="842.5" y="-119.5" font-family="Helvetica,sans-Serif" font-size="10.00">moduleexception.hpp</text>
</a>
</g>
</g>
<!-- Node14&#45;&gt;Node26 -->
<g id="edge44" class="edge">
<title>Node14&#45;&gt;Node26</title>
<path fill="none" stroke="midnightblue" d="M1211.13,-173.98C1129.2,-163.12 991.86,-144.39 909.91,-132.91"/>
<polygon fill="midnightblue" stroke="midnightblue" points="910.34,-129.43 899.96,-131.51 909.37,-136.37 910.34,-129.43"/>
</g>
<!-- Node27 -->
<g id="node27" class="node">
<title>Node27</title>
<g id="a_node27"><a xlink:href="../../df/d8d/scriptexception_8hpp.html" target="_top" xlink:title="Exception class for Script related errors.">
<polygon fill="white" stroke="black" points="922,-112.5 922,-131.5 1035,-131.5 1035,-112.5 922,-112.5"/>
<text text-anchor="middle" x="978.5" y="-119.5" font-family="Helvetica,sans-Serif" font-size="10.00">scriptexception.hpp</text>
</a>
</g>
</g>
<!-- Node14&#45;&gt;Node27 -->
<g id="edge47" class="edge">
<title>Node14&#45;&gt;Node27</title>
<path fill="none" stroke="midnightblue" d="M1230.62,-173.98C1174.61,-163.33 1082.62,-145.11 1026.54,-133.58"/>
<polygon fill="midnightblue" stroke="midnightblue" points="1027.01,-130.1 1016.51,-131.51 1025.59,-136.96 1027.01,-130.1"/>
</g>
<!-- Node28 -->
<g id="node28" class="node">
<title>Node28</title>
<g id="a_node28"><a xlink:href="../../dc/dce/signalexception_8hpp.html" target="_top" xlink:title="Exception class for Signal related errors.">
<polygon fill="white" stroke="black" points="1053,-112.5 1053,-131.5 1168,-131.5 1168,-112.5 1053,-112.5"/>
<text text-anchor="middle" x="1110.5" y="-119.5" font-family="Helvetica,sans-Serif" font-size="10.00">signalexception.hpp</text>
</a>
</g>
</g>
<!-- Node14&#45;&gt;Node28 -->
<g id="edge50" class="edge">
<title>Node14&#45;&gt;Node28</title>
<path fill="none" stroke="midnightblue" d="M1249.53,-173.98C1218.62,-163.81 1170.24,-146.76 1139.37,-135.2"/>
<polygon fill="midnightblue" stroke="midnightblue" points="1140.22,-131.78 1129.63,-131.51 1137.74,-138.32 1140.22,-131.78"/>
</g>
<!-- Node15&#45;&gt;Node11 -->
<g id="edge18" class="edge">
<title>Node15&#45;&gt;Node11</title>
<path fill="none" stroke="midnightblue" d="M1493.38,-112.37C1497.26,-94.62 1506.19,-53.67 1511.44,-29.6"/>
<polygon fill="midnightblue" stroke="midnightblue" points="1514.91,-30.11 1513.63,-19.59 1508.07,-28.62 1514.91,-30.11"/>
</g>
<!-- Node16 -->
<g id="node16" class="node">
<title>Node16</title>
<g id="a_node16"><a xlink:title=" ">
<polygon fill="white" stroke="#bfbfbf" points="1440,-56.5 1440,-75.5 1487,-75.5 1487,-56.5 1440,-56.5"/>
<text text-anchor="middle" x="1463.5" y="-63.5" font-family="Helvetica,sans-Serif" font-size="10.00">vector</text>
</a>
</g>
</g>
<!-- Node15&#45;&gt;Node16 -->
<g id="edge19" class="edge">
<title>Node15&#45;&gt;Node16</title>
<path fill="none" stroke="midnightblue" d="M1486.88,-112.08C1483.04,-104.69 1477.48,-93.95 1472.74,-84.81"/>
<polygon fill="midnightblue" stroke="midnightblue" points="1475.75,-83.02 1468.04,-75.75 1469.53,-86.24 1475.75,-83.02"/>
</g>
<!-- Node18&#45;&gt;Node11 -->
<g id="edge28" class="edge">
<title>Node18&#45;&gt;Node11</title>
<path fill="none" stroke="midnightblue" d="M1970.23,-112.46C1876.09,-91.46 1634.64,-37.58 1547.48,-18.14"/>
<polygon fill="midnightblue" stroke="midnightblue" points="1548.16,-14.7 1537.64,-15.94 1546.64,-21.53 1548.16,-14.7"/>
</g>
<!-- Node18&#45;&gt;Node14 -->
<g id="edge24" class="edge">
<title>Node18&#45;&gt;Node14</title>
<path fill="none" stroke="midnightblue" d="M1956.03,-131.52C1954.51,-131.69 1953,-131.85 1951.5,-132 1716.62,-155.96 1656.69,-147.3 1421.5,-168 1405.29,-169.43 1387.99,-171.15 1371.21,-172.9"/>
<polygon fill="midnightblue" stroke="midnightblue" points="1370.43,-169.46 1360.85,-173.99 1371.16,-176.43 1370.43,-169.46"/>
</g>
<!-- Node19 -->
<g id="node19" class="node">
<title>Node19</title>
<g id="a_node19"><a xlink:href="../../dd/d35/Colorize_8hpp.html" target="_top" xlink:title=" ">
<polygon fill="white" stroke="black" points="2122.5,-56.5 2122.5,-75.5 2226.5,-75.5 2226.5,-56.5 2122.5,-56.5"/>
<text text-anchor="middle" x="2174.5" y="-63.5" font-family="Helvetica,sans-Serif" font-size="10.00">tools/Colorize.hpp</text>
</a>
</g>
</g>
<!-- Node18&#45;&gt;Node19 -->
<g id="edge25" class="edge">
<title>Node18&#45;&gt;Node19</title>
<path fill="none" stroke="midnightblue" d="M2034.8,-112.44C2062.85,-103.32 2107.44,-88.81 2138.68,-78.65"/>
<polygon fill="midnightblue" stroke="midnightblue" points="2139.89,-81.94 2148.32,-75.52 2137.73,-75.28 2139.89,-81.94"/>
</g>
<!-- Node19&#45;&gt;Node11 -->
<g id="edge27" class="edge">
<title>Node19&#45;&gt;Node11</title>
<path fill="none" stroke="midnightblue" d="M2122.3,-57.59C2117.64,-57.02 2112.98,-56.48 2108.5,-56 1894.9,-33.35 1636.84,-17.8 1547.65,-12.76"/>
<polygon fill="midnightblue" stroke="midnightblue" points="1547.8,-9.26 1537.62,-12.2 1547.41,-16.25 1547.8,-9.26"/>
</g>
<!-- Node20 -->
<g id="node20" class="node">
<title>Node20</title>
<g id="a_node20"><a xlink:title=" ">
<polygon fill="white" stroke="#bfbfbf" points="2146.5,-0.5 2146.5,-19.5 2202.5,-19.5 2202.5,-0.5 2146.5,-0.5"/>
<text text-anchor="middle" x="2174.5" y="-7.5" font-family="Helvetica,sans-Serif" font-size="10.00">sstream</text>
</a>
</g>
</g>
<!-- Node19&#45;&gt;Node20 -->
<g id="edge26" class="edge">
<title>Node19&#45;&gt;Node20</title>
<path fill="none" stroke="midnightblue" d="M2174.5,-56.08C2174.5,-49.01 2174.5,-38.86 2174.5,-29.99"/>
<polygon fill="midnightblue" stroke="midnightblue" points="2178,-29.75 2174.5,-19.75 2171,-29.75 2178,-29.75"/>
</g>
<!-- Node21&#45;&gt;Node11 -->
<g id="edge30" class="edge">
<title>Node21&#45;&gt;Node11</title>
<path fill="none" stroke="midnightblue" d="M1297.1,-112.37C1338.55,-93.13 1438.7,-46.65 1487.64,-23.93"/>
<polygon fill="midnightblue" stroke="midnightblue" points="1489.39,-26.98 1496.99,-19.59 1486.45,-20.63 1489.39,-26.98"/>
</g>
<!-- Node21&#45;&gt;Node14 -->
<g id="edge31" class="edge">
<title>Node21&#45;&gt;Node14</title>
<path fill="none" stroke="midnightblue" d="M1283.4,-131.51C1285.23,-139.9 1285.7,-153 1284.82,-163.82"/>
<polygon fill="midnightblue" stroke="midnightblue" points="1281.31,-163.59 1283.4,-173.98 1288.25,-164.55 1281.31,-163.59"/>
</g>
<!-- Node22&#45;&gt;Node11 -->
<g id="edge33" class="edge">
<title>Node22&#45;&gt;Node11</title>
<path fill="none" stroke="midnightblue" d="M1617.79,-112.37C1599.15,-93.89 1555.15,-50.29 1531.39,-26.74"/>
<polygon fill="midnightblue" stroke="midnightblue" points="1533.74,-24.14 1524.17,-19.59 1528.81,-29.12 1533.74,-24.14"/>
</g>
<!-- Node22&#45;&gt;Node14 -->
<g id="edge34" class="edge">
<title>Node22&#45;&gt;Node14</title>
<path fill="none" stroke="midnightblue" d="M1581.63,-131.51C1520.97,-142.28 1412.65,-160.82 1343.21,-172.33"/>
<polygon fill="midnightblue" stroke="midnightblue" points="1342.56,-168.89 1333.26,-173.98 1343.7,-175.8 1342.56,-168.89"/>
</g>
<!-- Node23&#45;&gt;Node11 -->
<g id="edge36" class="edge">
<title>Node23&#45;&gt;Node11</title>
<path fill="none" stroke="midnightblue" d="M1742.2,-112.37C1699.08,-93.09 1594.79,-46.45 1544.1,-23.79"/>
<polygon fill="midnightblue" stroke="midnightblue" points="1545.27,-20.48 1534.71,-19.59 1542.41,-26.87 1545.27,-20.48"/>
</g>
<!-- Node23&#45;&gt;Node14 -->
<g id="edge37" class="edge">
<title>Node23&#45;&gt;Node14</title>
<path fill="none" stroke="midnightblue" d="M1707.38,-131.5C1706.07,-131.67 1704.78,-131.84 1703.5,-132 1587.75,-146.8 1453.74,-162.88 1367.57,-172.82"/>
<polygon fill="midnightblue" stroke="midnightblue" points="1367.1,-169.35 1357.57,-173.98 1367.9,-176.31 1367.1,-169.35"/>
</g>
<!-- Node24&#45;&gt;Node11 -->
<g id="edge39" class="edge">
<title>Node24&#45;&gt;Node11</title>
<path fill="none" stroke="midnightblue" d="M1856.77,-112.46C1788.81,-92.25 1618.5,-41.62 1547.43,-20.49"/>
<polygon fill="midnightblue" stroke="midnightblue" points="1548.27,-17.09 1537.69,-17.6 1546.28,-23.8 1548.27,-17.09"/>
</g>
<!-- Node24&#45;&gt;Node14 -->
<g id="edge40" class="edge">
<title>Node24&#45;&gt;Node14</title>
<path fill="none" stroke="midnightblue" d="M1841.42,-131.51C1840.1,-131.68 1838.79,-131.84 1837.5,-132 1653.29,-154.49 1606.21,-150.02 1421.5,-168 1405.78,-169.53 1389.04,-171.26 1372.74,-172.98"/>
<polygon fill="midnightblue" stroke="midnightblue" points="1372.23,-169.52 1362.66,-174.05 1372.97,-176.48 1372.23,-169.52"/>
</g>
<!-- Node25&#45;&gt;Node11 -->
<g id="edge43" class="edge">
<title>Node25&#45;&gt;Node11</title>
<path fill="none" stroke="midnightblue" d="M740.32,-112.46C792.17,-98.43 900.31,-70.61 993.5,-56 1177.54,-27.15 1401.21,-15.66 1483.3,-12.22"/>
<polygon fill="midnightblue" stroke="midnightblue" points="1483.64,-15.71 1493.49,-11.8 1483.35,-8.71 1483.64,-15.71"/>
</g>
<!-- Node25&#45;&gt;Node14 -->
<g id="edge42" class="edge">
<title>Node25&#45;&gt;Node14</title>
<path fill="none" stroke="midnightblue" d="M763.13,-129.63C769.35,-130.47 775.58,-131.28 781.5,-132 921.73,-149.01 1084.34,-164.48 1184.37,-173.7"/>
<polygon fill="midnightblue" stroke="midnightblue" points="1184.17,-177.19 1194.45,-174.62 1184.81,-170.22 1184.17,-177.19"/>
</g>
<!-- Node26&#45;&gt;Node11 -->
<g id="edge45" class="edge">
<title>Node26&#45;&gt;Node11</title>
<path fill="none" stroke="midnightblue" d="M868.69,-112.5C912.75,-98.52 1004.72,-70.78 1084.5,-56 1231.91,-28.69 1410.98,-16.63 1483.1,-12.63"/>
<polygon fill="midnightblue" stroke="midnightblue" points="1483.55,-16.11 1493.35,-12.07 1483.17,-9.12 1483.55,-16.11"/>
</g>
<!-- Node26&#45;&gt;Node14 -->
<g id="edge46" class="edge">
<title>Node26&#45;&gt;Node14</title>
<path fill="none" stroke="midnightblue" d="M903.68,-130.71C984.69,-141.41 1126.91,-160.8 1210.98,-172.58"/>
<polygon fill="midnightblue" stroke="midnightblue" points="1210.54,-176.05 1220.93,-173.98 1211.52,-169.12 1210.54,-176.05"/>
</g>
<!-- Node27&#45;&gt;Node11 -->
<g id="edge48" class="edge">
<title>Node27&#45;&gt;Node11</title>
<path fill="none" stroke="midnightblue" d="M996.62,-112.5C1027.48,-98.39 1092.54,-70.31 1150.5,-56 1270.92,-26.28 1418.76,-15.75 1483.06,-12.4"/>
<polygon fill="midnightblue" stroke="midnightblue" points="1483.55,-15.88 1493.36,-11.89 1483.2,-8.89 1483.55,-15.88"/>
</g>
<!-- Node27&#45;&gt;Node14 -->
<g id="edge49" class="edge">
<title>Node27&#45;&gt;Node14</title>
<path fill="none" stroke="midnightblue" d="M1026.3,-131.51C1082.28,-142.15 1174.26,-160.37 1230.38,-171.9"/>
<polygon fill="midnightblue" stroke="midnightblue" points="1229.92,-175.38 1240.42,-173.98 1231.33,-168.53 1229.92,-175.38"/>
</g>
<!-- Node28&#45;&gt;Node11 -->
<g id="edge51" class="edge">
<title>Node28&#45;&gt;Node11</title>
<path fill="none" stroke="midnightblue" d="M1116.96,-112.5C1128.41,-98.13 1153.78,-69.32 1182.5,-56 1235.61,-31.37 1410.11,-17.7 1483.03,-12.94"/>
<polygon fill="midnightblue" stroke="midnightblue" points="1483.67,-16.41 1493.42,-12.28 1483.22,-9.42 1483.67,-16.41"/>
</g>
<!-- Node28&#45;&gt;Node14 -->
<g id="edge52" class="edge">
<title>Node28&#45;&gt;Node14</title>
<path fill="none" stroke="midnightblue" d="M1139.42,-131.51C1170.31,-141.66 1218.7,-158.72 1249.58,-170.28"/>
<polygon fill="midnightblue" stroke="midnightblue" points="1248.74,-173.71 1259.33,-173.98 1251.22,-167.16 1248.74,-173.71"/>
</g>
<!-- Node29&#45;&gt;Node14 -->
<g id="edge54" class="edge">
<title>Node29&#45;&gt;Node14</title>
<path fill="none" stroke="midnightblue" d="M1601.49,-235.48C1533.04,-224.67 1415.22,-206.08 1342.38,-194.58"/>
<polygon fill="midnightblue" stroke="midnightblue" points="1342.84,-191.11 1332.41,-193.01 1341.75,-198.03 1342.84,-191.11"/>
</g>
<!-- Node30 -->
<g id="node30" class="node">
<title>Node30</title>
<g id="a_node30"><a xlink:href="../../dc/dea/Uuid_8hpp.html" target="_top" xlink:title=" ">
<polygon fill="white" stroke="black" points="2313,-174 2313,-193 2400,-193 2400,-174 2313,-174"/>
<text text-anchor="middle" x="2356.5" y="-181" font-family="Helvetica,sans-Serif" font-size="10.00">tools/Uuid.hpp</text>
</a>
</g>
</g>
<!-- Node29&#45;&gt;Node30 -->
<g id="edge55" class="edge">
<title>Node29&#45;&gt;Node30</title>
<path fill="none" stroke="midnightblue" d="M1737.63,-237.03C1882.72,-224.71 2180.56,-199.43 2302.57,-189.08"/>
<polygon fill="midnightblue" stroke="midnightblue" points="2303.11,-192.54 2312.78,-188.21 2302.52,-185.57 2303.11,-192.54"/>
</g>
<!-- Node30&#45;&gt;Node11 -->
<g id="edge61" class="edge">
<title>Node30&#45;&gt;Node11</title>
<path fill="none" stroke="midnightblue" d="M2312.71,-176.97C2263.48,-169.93 2181.67,-155.75 2114.5,-132 2096.13,-125.51 2093.93,-118.3 2075.5,-112 1947.15,-68.15 1908.99,-80.01 1775.5,-56 1693.59,-41.27 1597,-24.78 1547.81,-16.45"/>
<polygon fill="midnightblue" stroke="midnightblue" points="1548.22,-12.97 1537.78,-14.75 1547.05,-19.87 1548.22,-12.97"/>
</g>
<!-- Node31 -->
<g id="node31" class="node">
<title>Node31</title>
<g id="a_node31"><a xlink:title=" ">
<polygon fill="white" stroke="#bfbfbf" points="2123,-112.5 2123,-131.5 2248,-131.5 2248,-112.5 2123,-112.5"/>
<text text-anchor="middle" x="2185.5" y="-119.5" font-family="Helvetica,sans-Serif" font-size="10.00">boost/lexical_cast.hpp</text>
</a>
</g>
</g>
<!-- Node30&#45;&gt;Node31 -->
<g id="edge56" class="edge">
<title>Node30&#45;&gt;Node31</title>
<path fill="none" stroke="midnightblue" d="M2332,-173.98C2302.54,-163.72 2252.92,-146.46 2219.7,-134.9"/>
<polygon fill="midnightblue" stroke="midnightblue" points="2220.55,-131.49 2209.95,-131.51 2218.25,-138.1 2220.55,-131.49"/>
</g>
<!-- Node32 -->
<g id="node32" class="node">
<title>Node32</title>
<g id="a_node32"><a xlink:title=" ">
<polygon fill="white" stroke="#bfbfbf" points="2266,-112.5 2266,-131.5 2447,-131.5 2447,-112.5 2266,-112.5"/>
<text text-anchor="middle" x="2356.5" y="-119.5" font-family="Helvetica,sans-Serif" font-size="10.00">boost/uuid/random_generator.hpp</text>
</a>
</g>
</g>
<!-- Node30&#45;&gt;Node32 -->
<g id="edge57" class="edge">
<title>Node30&#45;&gt;Node32</title>
<path fill="none" stroke="midnightblue" d="M2356.5,-173.98C2356.5,-165.58 2356.5,-152.48 2356.5,-141.66"/>
<polygon fill="midnightblue" stroke="midnightblue" points="2360,-141.51 2356.5,-131.51 2353,-141.51 2360,-141.51"/>
</g>
<!-- Node33 -->
<g id="node33" class="node">
<title>Node33</title>
<g id="a_node33"><a xlink:title=" ">
<polygon fill="white" stroke="#bfbfbf" points="2465,-112.5 2465,-131.5 2578,-131.5 2578,-112.5 2465,-112.5"/>
<text text-anchor="middle" x="2521.5" y="-119.5" font-family="Helvetica,sans-Serif" font-size="10.00">boost/uuid/uuid.hpp</text>
</a>
</g>
</g>
<!-- Node30&#45;&gt;Node33 -->
<g id="edge58" class="edge">
<title>Node30&#45;&gt;Node33</title>
<path fill="none" stroke="midnightblue" d="M2380.14,-173.98C2408.44,-163.77 2456.03,-146.61 2488.09,-135.05"/>
<polygon fill="midnightblue" stroke="midnightblue" points="2489.68,-138.19 2497.9,-131.51 2487.31,-131.61 2489.68,-138.19"/>
</g>
<!-- Node34 -->
<g id="node34" class="node">
<title>Node34</title>
<g id="a_node34"><a xlink:title=" ">
<polygon fill="white" stroke="#bfbfbf" points="2596,-112.5 2596,-131.5 2723,-131.5 2723,-112.5 2596,-112.5"/>
<text text-anchor="middle" x="2659.5" y="-119.5" font-family="Helvetica,sans-Serif" font-size="10.00">boost/uuid/uuid_io.hpp</text>
</a>
</g>
</g>
<!-- Node30&#45;&gt;Node34 -->
<g id="edge59" class="edge">
<title>Node30&#45;&gt;Node34</title>
<path fill="none" stroke="midnightblue" d="M2399.91,-173.98C2454.36,-163.28 2547.68,-144.96 2606.35,-133.44"/>
<polygon fill="midnightblue" stroke="midnightblue" points="2607.03,-136.87 2616.17,-131.51 2605.68,-130 2607.03,-136.87"/>
</g>
<!-- Node35 -->
<g id="node35" class="node">
<title>Node35</title>
<g id="a_node35"><a xlink:title=" ">
<polygon fill="white" stroke="#bfbfbf" points="2741.5,-112.5 2741.5,-131.5 2821.5,-131.5 2821.5,-112.5 2741.5,-112.5"/>
<text text-anchor="middle" x="2781.5" y="-119.5" font-family="Helvetica,sans-Serif" font-size="10.00">odb/core.hxx</text>
</a>
</g>
</g>
<!-- Node30&#45;&gt;Node35 -->
<g id="edge60" class="edge">
<title>Node30&#45;&gt;Node35</title>
<path fill="none" stroke="midnightblue" d="M2400.02,-177.35C2468.31,-169.11 2605.03,-152 2731.19,-132.14"/>
<polygon fill="midnightblue" stroke="midnightblue" points="2732.09,-135.55 2741.42,-130.52 2730.99,-128.63 2732.09,-135.55"/>
</g>
<!-- Node36&#45;&gt;Node14 -->
<g id="edge63" class="edge">
<title>Node36&#45;&gt;Node14</title>
<path fill="none" stroke="midnightblue" d="M1442.99,-235.48C1409.63,-225.14 1353.24,-207.66 1315.94,-196.1"/>
<polygon fill="midnightblue" stroke="midnightblue" points="1316.55,-192.63 1305.96,-193.01 1314.47,-199.31 1316.55,-192.63"/>
</g>
<!-- Node37 -->
<g id="node37" class="node">
<title>Node37</title>
<g id="a_node37"><a xlink:title=" ">
<polygon fill="white" stroke="#bfbfbf" points="1421.5,-174 1421.5,-193 1519.5,-193 1519.5,-174 1421.5,-174"/>
<text text-anchor="middle" x="1470.5" y="-181" font-family="Helvetica,sans-Serif" font-size="10.00">spdlog/fmt/fmt.h</text>
</a>
</g>
</g>
<!-- Node36&#45;&gt;Node37 -->
<g id="edge64" class="edge">
<title>Node36&#45;&gt;Node37</title>
<path fill="none" stroke="midnightblue" d="M1470.5,-235.48C1470.5,-227.08 1470.5,-213.98 1470.5,-203.16"/>
<polygon fill="midnightblue" stroke="midnightblue" points="1474,-203.01 1470.5,-193.01 1467,-203.01 1474,-203.01"/>
</g>
<!-- Node38&#45;&gt;Node10 -->
<g id="edge67" class="edge">
<title>Node38&#45;&gt;Node10</title>
<path fill="none" stroke="midnightblue" d="M1052.64,-235.42C992.39,-221.05 866.97,-191.42 760.5,-168 704.62,-155.71 640.42,-142.44 596.62,-133.52"/>
<polygon fill="midnightblue" stroke="midnightblue" points="597.27,-130.08 586.78,-131.52 595.88,-136.94 597.27,-130.08"/>
</g>
<!-- Node38&#45;&gt;Node14 -->
<g id="edge66" class="edge">
<title>Node38&#45;&gt;Node14</title>
<path fill="none" stroke="midnightblue" d="M1115.72,-235.48C1148.74,-225.14 1204.54,-207.66 1241.45,-196.1"/>
<polygon fill="midnightblue" stroke="midnightblue" points="1242.83,-199.34 1251.33,-193.01 1240.74,-192.66 1242.83,-199.34"/>
</g>
<!-- Node39&#45;&gt;Node14 -->
<g id="edge69" class="edge">
<title>Node39&#45;&gt;Node14</title>
<path fill="none" stroke="midnightblue" d="M1278.5,-235.48C1278.5,-227.08 1278.5,-213.98 1278.5,-203.16"/>
<polygon fill="midnightblue" stroke="midnightblue" points="1282,-203.01 1278.5,-193.01 1275,-203.01 1282,-203.01"/>
</g>
<!-- Node40&#45;&gt;Node11 -->
<g id="edge76" class="edge">
<title>Node40&#45;&gt;Node11</title>
<path fill="none" stroke="midnightblue" d="M2276.16,-60.13C2263.19,-58.67 2248.75,-57.15 2235.5,-56 1970.34,-33 1649.27,-17.18 1547.82,-12.46"/>
<polygon fill="midnightblue" stroke="midnightblue" points="1547.77,-8.96 1537.62,-11.99 1547.45,-15.95 1547.77,-8.96"/>
</g>
<!-- Node40&#45;&gt;Node20 -->
<g id="edge75" class="edge">
<title>Node40&#45;&gt;Node20</title>
<path fill="none" stroke="midnightblue" d="M2294,-56.44C2270.42,-47.48 2233.18,-33.31 2206.54,-23.18"/>
<polygon fill="midnightblue" stroke="midnightblue" points="2207.49,-19.8 2196.9,-19.52 2205,-26.34 2207.49,-19.8"/>
</g>
<!-- Node41 -->
<g id="node41" class="node">
<title>Node41</title>
<g id="a_node41"><a xlink:title=" ">
<polygon fill="white" stroke="#bfbfbf" points="2220.5,-0.5 2220.5,-19.5 2272.5,-19.5 2272.5,-0.5 2220.5,-0.5"/>
<text text-anchor="middle" x="2246.5" y="-7.5" font-family="Helvetica,sans-Serif" font-size="10.00">cassert</text>
</a>
</g>
</g>
<!-- Node40&#45;&gt;Node41 -->
<g id="edge71" class="edge">
<title>Node40&#45;&gt;Node41</title>
<path fill="none" stroke="midnightblue" d="M2305.25,-56.32C2294.7,-48.18 2278.7,-35.84 2266.06,-26.09"/>
<polygon fill="midnightblue" stroke="midnightblue" points="2268.01,-23.17 2257.95,-19.83 2263.73,-28.71 2268.01,-23.17"/>
</g>
<!-- Node42 -->
<g id="node42" class="node">
<title>Node42</title>
<g id="a_node42"><a xlink:title=" ">
<polygon fill="white" stroke="#bfbfbf" points="2291,-0.5 2291,-19.5 2342,-19.5 2342,-0.5 2291,-0.5"/>
<text text-anchor="middle" x="2316.5" y="-7.5" font-family="Helvetica,sans-Serif" font-size="10.00">csignal</text>
</a>
</g>
</g>
<!-- Node40&#45;&gt;Node42 -->
<g id="edge72" class="edge">
<title>Node40&#45;&gt;Node42</title>
<path fill="none" stroke="midnightblue" d="M2316.5,-56.08C2316.5,-49.01 2316.5,-38.86 2316.5,-29.99"/>
<polygon fill="midnightblue" stroke="midnightblue" points="2320,-29.75 2316.5,-19.75 2313,-29.75 2320,-29.75"/>
</g>
<!-- Node43 -->
<g id="node43" class="node">
<title>Node43</title>
<g id="a_node43"><a xlink:title=" ">
<polygon fill="white" stroke="#bfbfbf" points="2360.5,-0.5 2360.5,-19.5 2420.5,-19.5 2420.5,-0.5 2360.5,-0.5"/>
<text text-anchor="middle" x="2390.5" y="-7.5" font-family="Helvetica,sans-Serif" font-size="10.00">iostream</text>
</a>
</g>
</g>
<!-- Node40&#45;&gt;Node43 -->
<g id="edge73" class="edge">
<title>Node40&#45;&gt;Node43</title>
<path fill="none" stroke="midnightblue" d="M2328.39,-56.32C2339.65,-48.11 2356.79,-35.6 2370.21,-25.81"/>
<polygon fill="midnightblue" stroke="midnightblue" points="2372.38,-28.56 2378.39,-19.83 2368.25,-22.9 2372.38,-28.56"/>
</g>
<!-- Node44 -->
<g id="node44" class="node">
<title>Node44</title>
<g id="a_node44"><a xlink:title=" ">
<polygon fill="white" stroke="#bfbfbf" points="2439,-0.5 2439,-19.5 2532,-19.5 2532,-0.5 2439,-0.5"/>
<text text-anchor="middle" x="2485.5" y="-7.5" font-family="Helvetica,sans-Serif" font-size="10.00">spdlog/spdlog.h</text>
</a>
</g>
</g>
<!-- Node40&#45;&gt;Node44 -->
<g id="edge74" class="edge">
<title>Node40&#45;&gt;Node44</title>
<path fill="none" stroke="midnightblue" d="M2343.28,-56.44C2371.83,-47.32 2417.23,-32.81 2449.04,-22.65"/>
<polygon fill="midnightblue" stroke="midnightblue" points="2450.39,-25.89 2458.85,-19.52 2448.26,-19.23 2450.39,-25.89"/>
</g>
</g>
</svg>
