<?xml version="1.0" encoding="UTF-8" standalone="no"?>
<!DOCTYPE svg PUBLIC "-//W3C//DTD SVG 1.1//EN"
 "http://www.w3.org/Graphics/SVG/1.1/DTD/svg11.dtd">
<!-- Generated by graphviz version 2.43.0 (0)
 -->
<!-- Title: src/modules/auth/auth&#45;file Pages: 1 -->
<svg width="136pt" height="295pt"
 viewBox="0.00 0.00 136.00 295.00" xmlns="http://www.w3.org/2000/svg" xmlns:xlink="http://www.w3.org/1999/xlink">
<g id="graph0" class="graph" transform="scale(1 1) rotate(0) translate(4 291)">
<title>src/modules/auth/auth&#45;file</title>
<polygon fill="white" stroke="transparent" points="-4,4 -4,-291 132,-291 132,4 -4,4"/>
<g id="clust1" class="cluster">
<title>clusterdir_05467d6fbfd095955db10f540f768252</title>
<g id="a_clust1"><a xlink:href="dir_05467d6fbfd095955db10f540f768252.html" target="_top" xlink:title="auth">
<polygon fill="#ddddee" stroke="black" points="46,-208 46,-279 120,-279 120,-208 46,-208"/>
<text text-anchor="middle" x="83" y="-267" font-family="Helvetica,sans-Serif" font-size="10.00">auth</text>
</a>
</g>
</g>
<!-- dir_75a07a235112097ef71a85052240bf7d -->
<g id="node1" class="node">
<title>dir_75a07a235112097ef71a85052240bf7d</title>
<g id="a_node1"><a xlink:href="dir_75a07a235112097ef71a85052240bf7d.html" target="_top" xlink:title="auth&#45;file">
<polygon fill="#eeeeff" stroke="black" points="111.5,-252 54.5,-252 54.5,-216 111.5,-216 111.5,-252"/>
<text text-anchor="middle" x="83" y="-231.5" font-family="Helvetica,sans-Serif" font-size="10.00">auth&#45;file</text>
</a>
</g>
</g>
<!-- dir_1563a38af0d3a5e4a6330d6d45e9792a -->
<g id="node2" class="node">
<title>dir_1563a38af0d3a5e4a6330d6d45e9792a</title>
<g id="a_node2"><a xlink:href="dir_1563a38af0d3a5e4a6330d6d45e9792a.html" target="_top" xlink:title="tools">
<polygon fill="white" stroke="red" points="110,-180 56,-180 56,-144 110,-144 110,-180"/>
<text text-anchor="middle" x="83" y="-159.5" font-family="Helvetica,sans-Serif" font-size="10.00">tools</text>
</a>
</g>
</g>
<!-- dir_75a07a235112097ef71a85052240bf7d&#45;&gt;dir_1563a38af0d3a5e4a6330d6d45e9792a -->
<g id="edge1" class="edge">
<title>dir_75a07a235112097ef71a85052240bf7d&#45;&gt;dir_1563a38af0d3a5e4a6330d6d45e9792a</title>
<path fill="none" stroke="black" d="M83,-215.7C83,-207.98 83,-198.71 83,-190.11"/>
<polygon fill="black" stroke="black" points="86.5,-190.1 83,-180.1 79.5,-190.1 86.5,-190.1"/>
<g id="a_edge1&#45;headlabel"><a xlink:href="dir_000007_000054.html" target="_top" xlink:title="12">
<text text-anchor="middle" x="89.34" y="-191.2" font-family="Helvetica,sans-Serif" font-size="10.00">12</text>
</a>
</g>
</g>
<!-- dir_aebb8dcc11953d78e620bbef0b9e2183 -->
<g id="node3" class="node">
<title>dir_aebb8dcc11953d78e620bbef0b9e2183</title>
<g id="a_node3"><a xlink:href="dir_aebb8dcc11953d78e620bbef0b9e2183.html" target="_top" xlink:title="core">
<polygon fill="white" stroke="red" points="54,-108 0,-108 0,-72 54,-72 54,-108"/>
<text text-anchor="middle" x="27" y="-87.5" font-family="Helvetica,sans-Serif" font-size="10.00">core</text>
</a>
</g>
</g>
<!-- dir_75a07a235112097ef71a85052240bf7d&#45;&gt;dir_aebb8dcc11953d78e620bbef0b9e2183 -->
<g id="edge2" class="edge">
<title>dir_75a07a235112097ef71a85052240bf7d&#45;&gt;dir_aebb8dcc11953d78e620bbef0b9e2183</title>
<path fill="none" stroke="black" d="M68.89,-215.83C61.38,-205.9 52.57,-192.86 47,-180 38.46,-160.29 33.36,-136.49 30.44,-118.46"/>
<polygon fill="black" stroke="black" points="33.87,-117.7 28.94,-108.33 26.95,-118.73 33.87,-117.7"/>
<g id="a_edge2&#45;headlabel"><a xlink:href="dir_000007_000028.html" target="_top" xlink:title="26">
<text text-anchor="middle" x="37.21" y="-118.34" font-family="Helvetica,sans-Serif" font-size="10.00">26</text>
</a>
</g>
</g>
<!-- dir_03f4a28f75b8e23e1d457d2da09125b3 -->
<g id="node4" class="node">
<title>dir_03f4a28f75b8e23e1d457d2da09125b3</title>
<g id="a_node4"><a xlink:href="dir_03f4a28f75b8e23e1d457d2da09125b3.html" target="_top" xlink:title="exception">
<polygon fill="none" stroke="black" points="123.5,-36 58.5,-36 58.5,0 123.5,0 123.5,-36"/>
<text text-anchor="middle" x="91" y="-15.5" font-family="Helvetica,sans-Serif" font-size="10.00">exception</text>
</a>
</g>
</g>
<!-- dir_75a07a235112097ef71a85052240bf7d&#45;&gt;dir_03f4a28f75b8e23e1d457d2da09125b3 -->
<g id="edge3" class="edge">
<title>dir_75a07a235112097ef71a85052240bf7d&#45;&gt;dir_03f4a28f75b8e23e1d457d2da09125b3</title>
<path fill="none" stroke="black" d="M98.61,-215.77C106.37,-206.03 114.95,-193.18 119,-180 133.21,-133.8 116.1,-77.78 103.07,-45.48"/>
<polygon fill="black" stroke="black" points="106.29,-44.12 99.2,-36.25 99.84,-46.83 106.29,-44.12"/>
<g id="a_edge3&#45;headlabel"><a xlink:href="dir_000007_000042.html" target="_top" xlink:title="2">
<text text-anchor="middle" x="110.3" y="-43.83" font-family="Helvetica,sans-Serif" font-size="10.00">2</text>
</a>
</g>
</g>
<!-- dir_1563a38af0d3a5e4a6330d6d45e9792a&#45;&gt;dir_aebb8dcc11953d78e620bbef0b9e2183 -->
<g id="edge4" class="edge">
<title>dir_1563a38af0d3a5e4a6330d6d45e9792a&#45;&gt;dir_aebb8dcc11953d78e620bbef0b9e2183</title>
<path fill="none" stroke="black" d="M63.24,-143.7C55.82,-135.47 47.62,-125.48 40.82,-116.42"/>
<polygon fill="black" stroke="black" points="43.49,-114.15 34.79,-108.1 37.82,-118.26 43.49,-114.15"/>
<g id="a_edge4&#45;headlabel"><a xlink:href="dir_000054_000028.html" target="_top" xlink:title="16">
<text text-anchor="middle" x="47.9" y="-112.89" font-family="Helvetica,sans-Serif" font-size="10.00">16</text>
</a>
</g>
</g>
<!-- dir_1563a38af0d3a5e4a6330d6d45e9792a&#45;&gt;dir_03f4a28f75b8e23e1d457d2da09125b3 -->
<g id="edge5" class="edge">
<title>dir_1563a38af0d3a5e4a6330d6d45e9792a&#45;&gt;dir_03f4a28f75b8e23e1d457d2da09125b3</title>
<path fill="none" stroke="black" d="M79.38,-143.87C78.19,-119.67 80.4,-75.21 84,-46.39"/>
<polygon fill="black" stroke="black" points="87.51,-46.58 85.44,-36.19 80.57,-45.6 87.51,-46.58"/>
<g id="a_edge5&#45;headlabel"><a xlink:href="dir_000054_000042.html" target="_top" xlink:title="16">
<text text-anchor="middle" x="89.81" y="-48.04" font-family="Helvetica,sans-Serif" font-size="10.00">16</text>
</a>
</g>
</g>
<!-- dir_aebb8dcc11953d78e620bbef0b9e2183&#45;&gt;dir_1563a38af0d3a5e4a6330d6d45e9792a -->
<g id="edge6" class="edge">
<title>dir_aebb8dcc11953d78e620bbef0b9e2183&#45;&gt;dir_1563a38af0d3a5e4a6330d6d45e9792a</title>
<path fill="none" stroke="black" d="M46.58,-108.1C53.99,-116.3 62.19,-126.28 69.02,-135.36"/>
<polygon fill="black" stroke="black" points="66.36,-137.66 75.07,-143.7 72.03,-133.55 66.36,-137.66"/>
<g id="a_edge6&#45;headlabel"><a xlink:href="dir_000028_000054.html" target="_top" xlink:title="187">
<text text-anchor="middle" x="61.96" y="-133.92" font-family="Helvetica,sans-Serif" font-size="10.00">187</text>
</a>
</g>
</g>
<!-- dir_aebb8dcc11953d78e620bbef0b9e2183&#45;&gt;dir_03f4a28f75b8e23e1d457d2da09125b3 -->
<g id="edge7" class="edge">
<title>dir_aebb8dcc11953d78e620bbef0b9e2183&#45;&gt;dir_03f4a28f75b8e23e1d457d2da09125b3</title>
<path fill="none" stroke="black" d="M42.82,-71.7C50.57,-63.22 60.04,-52.86 68.52,-43.58"/>
<polygon fill="black" stroke="black" points="71.2,-45.85 75.36,-36.1 66.03,-41.12 71.2,-45.85"/>
<g id="a_edge7&#45;headlabel"><a xlink:href="dir_000028_000042.html" target="_top" xlink:title="13">
<text text-anchor="middle" x="70.87" y="-47.92" font-family="Helvetica,sans-Serif" font-size="10.00">13</text>
</a>
</g>
</g>
<!-- dir_03f4a28f75b8e23e1d457d2da09125b3&#45;&gt;dir_1563a38af0d3a5e4a6330d6d45e9792a -->
<g id="edge8" class="edge">
<title>dir_03f4a28f75b8e23e1d457d2da09125b3&#45;&gt;dir_1563a38af0d3a5e4a6330d6d45e9792a</title>
<path fill="none" stroke="black" d="M94.62,-36.19C95.81,-60.42 93.59,-104.89 89.99,-133.68"/>
<polygon fill="black" stroke="black" points="86.49,-133.48 88.55,-143.87 93.42,-134.46 86.49,-133.48"/>
<g id="a_edge8&#45;headlabel"><a xlink:href="dir_000042_000054.html" target="_top" xlink:title="6">
<text text-anchor="middle" x="84.18" y="-127.02" font-family="Helvetica,sans-Serif" font-size="10.00">6</text>
</a>
</g>
</g>
</g>
</svg>
