<?xml version="1.0" encoding="UTF-8" standalone="no"?>
<!DOCTYPE svg PUBLIC "-//W3C//DTD SVG 1.1//EN"
 "http://www.w3.org/Graphics/SVG/1.1/DTD/svg11.dtd">
<!-- Generated by graphviz version 2.43.0 (0)
 -->
<!-- Title: src/modules/websock&#45;api/api Pages: 1 -->
<svg width="320pt" height="375pt"
 viewBox="0.00 0.00 320.00 375.00" xmlns="http://www.w3.org/2000/svg" xmlns:xlink="http://www.w3.org/1999/xlink">
<g id="graph0" class="graph" transform="scale(1 1) rotate(0) translate(4 371)">
<title>src/modules/websock&#45;api/api</title>
<polygon fill="white" stroke="transparent" points="-4,4 -4,-371 316,-371 316,4 -4,4"/>
<g id="clust1" class="cluster">
<title>clusterdir_c4d966a03ca6ea09f7a88bf957c27254</title>
<g id="a_clust1"><a xlink:href="dir_c4d966a03ca6ea09f7a88bf957c27254.html" target="_top" xlink:title="websock&#45;api">
<polygon fill="#ddddee" stroke="black" points="8,-272 8,-359 304,-359 304,-272 8,-272"/>
<text text-anchor="middle" x="156" y="-347" font-family="Helvetica,sans-Serif" font-size="10.00">websock&#45;api</text>
</a>
</g>
</g>
<g id="clust2" class="cluster">
<title>clusterdir_0fc26247198d2bb35f7fe46305736d1c</title>
<g id="a_clust2"><a xlink:href="dir_0fc26247198d2bb35f7fe46305736d1c.html" target="_top">
<polygon fill="#eeeeff" stroke="black" points="16,-280 16,-332 296,-332 296,-280 16,-280"/>
</a>
</g>
</g>
<!-- dir_0fc26247198d2bb35f7fe46305736d1c -->
<g id="node1" class="node">
<title>dir_0fc26247198d2bb35f7fe46305736d1c</title>
<text text-anchor="middle" x="51" y="-303.5" font-family="Helvetica,sans-Serif" font-size="10.00">api</text>
</g>
<!-- dir_1563a38af0d3a5e4a6330d6d45e9792a -->
<g id="node5" class="node">
<title>dir_1563a38af0d3a5e4a6330d6d45e9792a</title>
<g id="a_node5"><a xlink:href="dir_1563a38af0d3a5e4a6330d6d45e9792a.html" target="_top" xlink:title="tools">
<polygon fill="white" stroke="red" points="126,-252 72,-252 72,-216 126,-216 126,-252"/>
<text text-anchor="middle" x="99" y="-231.5" font-family="Helvetica,sans-Serif" font-size="10.00">tools</text>
</a>
</g>
</g>
<!-- dir_0fc26247198d2bb35f7fe46305736d1c&#45;&gt;dir_1563a38af0d3a5e4a6330d6d45e9792a -->
<g id="edge11" class="edge">
<title>dir_0fc26247198d2bb35f7fe46305736d1c&#45;&gt;dir_1563a38af0d3a5e4a6330d6d45e9792a</title>
<path fill="none" stroke="black" d="M62.87,-287.7C68.5,-279.47 75.35,-269.48 81.57,-260.42"/>
<polygon fill="black" stroke="black" points="84.5,-262.33 87.27,-252.1 78.73,-258.37 84.5,-262.33"/>
<g id="a_edge11&#45;headlabel"><a xlink:href="dir_000052_000056.html" target="_top" xlink:title="62">
<text text-anchor="middle" x="84.81" y="-264.4" font-family="Helvetica,sans-Serif" font-size="10.00">62</text>
</a>
</g>
</g>
<!-- dir_aebb8dcc11953d78e620bbef0b9e2183 -->
<g id="node6" class="node">
<title>dir_aebb8dcc11953d78e620bbef0b9e2183</title>
<g id="a_node6"><a xlink:href="dir_aebb8dcc11953d78e620bbef0b9e2183.html" target="_top" xlink:title="core">
<polygon fill="white" stroke="red" points="220,-180 166,-180 166,-144 220,-144 220,-180"/>
<text text-anchor="middle" x="193" y="-159.5" font-family="Helvetica,sans-Serif" font-size="10.00">core</text>
</a>
</g>
</g>
<!-- dir_0fc26247198d2bb35f7fe46305736d1c&#45;&gt;dir_aebb8dcc11953d78e620bbef0b9e2183 -->
<g id="edge12" class="edge">
<title>dir_0fc26247198d2bb35f7fe46305736d1c&#45;&gt;dir_aebb8dcc11953d78e620bbef0b9e2183</title>
<path fill="none" stroke="black" d="M67.21,-287.92C73.08,-282.36 80,-276.47 87,-272 106.48,-259.56 117.23,-266.78 135,-252 155.47,-234.97 171.3,-208.84 181.21,-189.29"/>
<polygon fill="black" stroke="black" points="184.36,-190.82 185.59,-180.29 178.07,-187.75 184.36,-190.82"/>
<g id="a_edge12&#45;headlabel"><a xlink:href="dir_000052_000030.html" target="_top" xlink:title="101">
<text text-anchor="middle" x="185.34" y="-192.79" font-family="Helvetica,sans-Serif" font-size="10.00">101</text>
</a>
</g>
</g>
<!-- dir_03f4a28f75b8e23e1d457d2da09125b3 -->
<g id="node7" class="node">
<title>dir_03f4a28f75b8e23e1d457d2da09125b3</title>
<g id="a_node7"><a xlink:href="dir_03f4a28f75b8e23e1d457d2da09125b3.html" target="_top" xlink:title="exception">
<polygon fill="none" stroke="black" points="123.5,-36 58.5,-36 58.5,0 123.5,0 123.5,-36"/>
<text text-anchor="middle" x="91" y="-15.5" font-family="Helvetica,sans-Serif" font-size="10.00">exception</text>
</a>
</g>
</g>
<!-- dir_0fc26247198d2bb35f7fe46305736d1c&#45;&gt;dir_03f4a28f75b8e23e1d457d2da09125b3 -->
<g id="edge13" class="edge">
<title>dir_0fc26247198d2bb35f7fe46305736d1c&#45;&gt;dir_03f4a28f75b8e23e1d457d2da09125b3</title>
<path fill="none" stroke="black" d="M53.26,-287.93C55.65,-270.01 59.54,-241.02 63,-216 71.39,-155.42 81.56,-84.42 87.04,-46.38"/>
<polygon fill="black" stroke="black" points="90.56,-46.52 88.52,-36.12 83.63,-45.52 90.56,-46.52"/>
<g id="a_edge13&#45;headlabel"><a xlink:href="dir_000052_000044.html" target="_top" xlink:title="10">
<text text-anchor="middle" x="92.86" y="-47.98" font-family="Helvetica,sans-Serif" font-size="10.00">10</text>
</a>
</g>
</g>
<!-- dir_918d4fb4ca0f14fc9c34da52b38ebe31 -->
<g id="node2" class="node">
<title>dir_918d4fb4ca0f14fc9c34da52b38ebe31</title>
<g id="a_node2"><a xlink:href="dir_918d4fb4ca0f14fc9c34da52b38ebe31.html" target="_top" xlink:title="search">
<polygon fill="white" stroke="black" points="288,-324 234,-324 234,-288 288,-288 288,-324"/>
<text text-anchor="middle" x="261" y="-303.5" font-family="Helvetica,sans-Serif" font-size="10.00">search</text>
</a>
</g>
</g>
<!-- dir_59b1e980a670de987a696efba6dbbdbc -->
<g id="node4" class="node">
<title>dir_59b1e980a670de987a696efba6dbbdbc</title>
<g id="a_node4"><a xlink:href="dir_59b1e980a670de987a696efba6dbbdbc.html" target="_top" xlink:title="hardware">
<polygon fill="white" stroke="red" points="228,-108 166,-108 166,-72 228,-72 228,-108"/>
<text text-anchor="middle" x="197" y="-87.5" font-family="Helvetica,sans-Serif" font-size="10.00">hardware</text>
</a>
</g>
</g>
<!-- dir_918d4fb4ca0f14fc9c34da52b38ebe31&#45;&gt;dir_59b1e980a670de987a696efba6dbbdbc -->
<g id="edge3" class="edge">
<title>dir_918d4fb4ca0f14fc9c34da52b38ebe31&#45;&gt;dir_59b1e980a670de987a696efba6dbbdbc</title>
<path fill="none" stroke="black" d="M259.52,-287.53C256.54,-257.37 248.36,-193.96 229,-144 225.41,-134.73 220.23,-125.23 215.08,-116.89"/>
<polygon fill="black" stroke="black" points="217.94,-114.87 209.59,-108.35 212.06,-118.65 217.94,-114.87"/>
<g id="a_edge3&#45;headlabel"><a xlink:href="dir_000053_000045.html" target="_top" xlink:title="1">
<text text-anchor="middle" x="222.28" y="-113.85" font-family="Helvetica,sans-Serif" font-size="10.00">1</text>
</a>
</g>
</g>
<!-- dir_918d4fb4ca0f14fc9c34da52b38ebe31&#45;&gt;dir_1563a38af0d3a5e4a6330d6d45e9792a -->
<g id="edge4" class="edge">
<title>dir_918d4fb4ca0f14fc9c34da52b38ebe31&#45;&gt;dir_1563a38af0d3a5e4a6330d6d45e9792a</title>
<path fill="none" stroke="black" d="M244.9,-287.84C238.81,-282.14 231.52,-276.19 224,-272 196.54,-256.71 162.09,-247.12 136.31,-241.55"/>
<polygon fill="black" stroke="black" points="136.69,-238.05 126.19,-239.47 135.29,-244.91 136.69,-238.05"/>
<g id="a_edge4&#45;headlabel"><a xlink:href="dir_000053_000056.html" target="_top" xlink:title="12">
<text text-anchor="middle" x="140.79" y="-233.49" font-family="Helvetica,sans-Serif" font-size="10.00">12</text>
</a>
</g>
</g>
<!-- dir_918d4fb4ca0f14fc9c34da52b38ebe31&#45;&gt;dir_aebb8dcc11953d78e620bbef0b9e2183 -->
<g id="edge5" class="edge">
<title>dir_918d4fb4ca0f14fc9c34da52b38ebe31&#45;&gt;dir_aebb8dcc11953d78e620bbef0b9e2183</title>
<path fill="none" stroke="black" d="M252.8,-287.87C241.06,-263.35 219.35,-218.03 205.57,-189.26"/>
<polygon fill="black" stroke="black" points="208.71,-187.7 201.23,-180.19 202.39,-190.72 208.71,-187.7"/>
<g id="a_edge5&#45;headlabel"><a xlink:href="dir_000053_000030.html" target="_top" xlink:title="5">
<text text-anchor="middle" x="212.82" y="-187.21" font-family="Helvetica,sans-Serif" font-size="10.00">5</text>
</a>
</g>
</g>
<!-- dir_ebd7308ffd8873c7603937e049b213b2 -->
<g id="node3" class="node">
<title>dir_ebd7308ffd8873c7603937e049b213b2</title>
<g id="a_node3"><a xlink:href="dir_ebd7308ffd8873c7603937e049b213b2.html" target="_top" xlink:title="update&#45;management">
<polygon fill="white" stroke="black" points="215.5,-324 96.5,-324 96.5,-288 215.5,-288 215.5,-324"/>
<text text-anchor="middle" x="156" y="-303.5" font-family="Helvetica,sans-Serif" font-size="10.00">update&#45;management</text>
</a>
</g>
</g>
<!-- dir_ebd7308ffd8873c7603937e049b213b2&#45;&gt;dir_1563a38af0d3a5e4a6330d6d45e9792a -->
<g id="edge1" class="edge">
<title>dir_ebd7308ffd8873c7603937e049b213b2&#45;&gt;dir_1563a38af0d3a5e4a6330d6d45e9792a</title>
<path fill="none" stroke="black" d="M141.91,-287.7C135.08,-279.3 126.74,-269.07 119.24,-259.86"/>
<polygon fill="black" stroke="black" points="121.96,-257.65 112.93,-252.1 116.53,-262.07 121.96,-257.65"/>
<g id="a_edge1&#45;headlabel"><a xlink:href="dir_000054_000056.html" target="_top" xlink:title="4">
<text text-anchor="middle" x="126.43" y="-256.14" font-family="Helvetica,sans-Serif" font-size="10.00">4</text>
</a>
</g>
</g>
<!-- dir_ebd7308ffd8873c7603937e049b213b2&#45;&gt;dir_aebb8dcc11953d78e620bbef0b9e2183 -->
<g id="edge2" class="edge">
<title>dir_ebd7308ffd8873c7603937e049b213b2&#45;&gt;dir_aebb8dcc11953d78e620bbef0b9e2183</title>
<path fill="none" stroke="black" d="M160.46,-287.87C166.8,-263.56 178.46,-218.82 185.96,-190.01"/>
<polygon fill="black" stroke="black" points="189.39,-190.75 188.52,-180.19 182.61,-188.98 189.39,-190.75"/>
<g id="a_edge2&#45;headlabel"><a xlink:href="dir_000054_000030.html" target="_top" xlink:title="23">
<text text-anchor="middle" x="191.23" y="-192.44" font-family="Helvetica,sans-Serif" font-size="10.00">23</text>
</a>
</g>
</g>
<!-- dir_59b1e980a670de987a696efba6dbbdbc&#45;&gt;dir_1563a38af0d3a5e4a6330d6d45e9792a -->
<g id="edge6" class="edge">
<title>dir_59b1e980a670de987a696efba6dbbdbc&#45;&gt;dir_1563a38af0d3a5e4a6330d6d45e9792a</title>
<path fill="none" stroke="black" d="M183.36,-108.44C175.48,-118.67 165.48,-131.92 157,-144 142.38,-164.82 126.68,-189.05 115.3,-206.96"/>
<polygon fill="black" stroke="black" points="112.16,-205.38 109.77,-215.7 118.08,-209.12 112.16,-205.38"/>
<g id="a_edge6&#45;headlabel"><a xlink:href="dir_000045_000056.html" target="_top" xlink:title="23">
<text text-anchor="middle" x="111.68" y="-198.33" font-family="Helvetica,sans-Serif" font-size="10.00">23</text>
</a>
</g>
</g>
<!-- dir_59b1e980a670de987a696efba6dbbdbc&#45;&gt;dir_aebb8dcc11953d78e620bbef0b9e2183 -->
<g id="edge7" class="edge">
<title>dir_59b1e980a670de987a696efba6dbbdbc&#45;&gt;dir_aebb8dcc11953d78e620bbef0b9e2183</title>
<path fill="none" stroke="black" d="M201.92,-108.1C202.28,-115.79 201.99,-125.05 201.17,-133.67"/>
<polygon fill="black" stroke="black" points="197.68,-133.34 199.9,-143.7 204.62,-134.21 197.68,-133.34"/>
<g id="a_edge7&#45;headlabel"><a xlink:href="dir_000045_000030.html" target="_top" xlink:title="4">
<text text-anchor="middle" x="195.31" y="-126.92" font-family="Helvetica,sans-Serif" font-size="10.00">4</text>
</a>
</g>
</g>
<!-- dir_59b1e980a670de987a696efba6dbbdbc&#45;&gt;dir_03f4a28f75b8e23e1d457d2da09125b3 -->
<g id="edge8" class="edge">
<title>dir_59b1e980a670de987a696efba6dbbdbc&#45;&gt;dir_03f4a28f75b8e23e1d457d2da09125b3</title>
<path fill="none" stroke="black" d="M171.07,-71.88C157.34,-62.81 140.29,-51.55 125.46,-41.76"/>
<polygon fill="black" stroke="black" points="127.3,-38.78 117.03,-36.19 123.45,-44.62 127.3,-38.78"/>
<g id="a_edge8&#45;headlabel"><a xlink:href="dir_000045_000044.html" target="_top" xlink:title="2">
<text text-anchor="middle" x="131.87" y="-35.89" font-family="Helvetica,sans-Serif" font-size="10.00">2</text>
</a>
</g>
</g>
<!-- dir_1563a38af0d3a5e4a6330d6d45e9792a&#45;&gt;dir_aebb8dcc11953d78e620bbef0b9e2183 -->
<g id="edge9" class="edge">
<title>dir_1563a38af0d3a5e4a6330d6d45e9792a&#45;&gt;dir_aebb8dcc11953d78e620bbef0b9e2183</title>
<path fill="none" stroke="black" d="M116.32,-215.7C127.88,-206.38 143.31,-194.78 157.36,-184.85"/>
<polygon fill="black" stroke="black" points="159.67,-187.5 165.88,-178.91 155.67,-181.76 159.67,-187.5"/>
<g id="a_edge9&#45;headlabel"><a xlink:href="dir_000056_000030.html" target="_top" xlink:title="16">
<text text-anchor="middle" x="158.35" y="-189.38" font-family="Helvetica,sans-Serif" font-size="10.00">16</text>
</a>
</g>
</g>
<!-- dir_1563a38af0d3a5e4a6330d6d45e9792a&#45;&gt;dir_03f4a28f75b8e23e1d457d2da09125b3 -->
<g id="edge10" class="edge">
<title>dir_1563a38af0d3a5e4a6330d6d45e9792a&#45;&gt;dir_03f4a28f75b8e23e1d457d2da09125b3</title>
<path fill="none" stroke="black" d="M94.48,-215.85C89.56,-178.83 86.01,-91.18 87.33,-46.39"/>
<polygon fill="black" stroke="black" points="90.84,-46.37 87.76,-36.23 83.84,-46.08 90.84,-46.37"/>
<g id="a_edge10&#45;headlabel"><a xlink:href="dir_000056_000044.html" target="_top" xlink:title="16">
<text text-anchor="middle" x="93.52" y="-47.58" font-family="Helvetica,sans-Serif" font-size="10.00">16</text>
</a>
</g>
</g>
<!-- dir_aebb8dcc11953d78e620bbef0b9e2183&#45;&gt;dir_59b1e980a670de987a696efba6dbbdbc -->
<g id="edge14" class="edge">
<title>dir_aebb8dcc11953d78e620bbef0b9e2183&#45;&gt;dir_59b1e980a670de987a696efba6dbbdbc</title>
<path fill="none" stroke="black" d="M188.07,-143.7C187.72,-135.98 188.02,-126.71 188.86,-118.11"/>
<polygon fill="black" stroke="black" points="192.34,-118.47 190.13,-108.1 185.39,-117.58 192.34,-118.47"/>
<g id="a_edge14&#45;headlabel"><a xlink:href="dir_000030_000045.html" target="_top" xlink:title="4">
<text text-anchor="middle" x="194.7" y="-119.89" font-family="Helvetica,sans-Serif" font-size="10.00">4</text>
</a>
</g>
</g>
<!-- dir_aebb8dcc11953d78e620bbef0b9e2183&#45;&gt;dir_1563a38af0d3a5e4a6330d6d45e9792a -->
<g id="edge15" class="edge">
<title>dir_aebb8dcc11953d78e620bbef0b9e2183&#45;&gt;dir_1563a38af0d3a5e4a6330d6d45e9792a</title>
<path fill="none" stroke="black" d="M176,-180.04C164.42,-189.4 148.85,-201.1 134.68,-211.13"/>
<polygon fill="black" stroke="black" points="132.29,-208.53 126.09,-217.12 136.3,-214.27 132.29,-208.53"/>
<g id="a_edge15&#45;headlabel"><a xlink:href="dir_000030_000056.html" target="_top" xlink:title="187">
<text text-anchor="middle" x="133.62" y="-201.64" font-family="Helvetica,sans-Serif" font-size="10.00">187</text>
</a>
</g>
</g>
<!-- dir_aebb8dcc11953d78e620bbef0b9e2183&#45;&gt;dir_03f4a28f75b8e23e1d457d2da09125b3 -->
<g id="edge16" class="edge">
<title>dir_aebb8dcc11953d78e620bbef0b9e2183&#45;&gt;dir_03f4a28f75b8e23e1d457d2da09125b3</title>
<path fill="none" stroke="black" d="M180.7,-143.87C162.93,-119.14 129.96,-73.24 109.33,-44.51"/>
<polygon fill="black" stroke="black" points="112.02,-42.27 103.35,-36.19 106.34,-46.35 112.02,-42.27"/>
<g id="a_edge16&#45;headlabel"><a xlink:href="dir_000030_000044.html" target="_top" xlink:title="13">
<text text-anchor="middle" x="116.43" y="-41.03" font-family="Helvetica,sans-Serif" font-size="10.00">13</text>
</a>
</g>
</g>
<!-- dir_03f4a28f75b8e23e1d457d2da09125b3&#45;&gt;dir_1563a38af0d3a5e4a6330d6d45e9792a -->
<g id="edge17" class="edge">
<title>dir_03f4a28f75b8e23e1d457d2da09125b3&#45;&gt;dir_1563a38af0d3a5e4a6330d6d45e9792a</title>
<path fill="none" stroke="black" d="M95.53,-36.23C100.45,-73.32 103.99,-160.98 102.67,-205.71"/>
<polygon fill="black" stroke="black" points="99.16,-205.71 102.24,-215.85 106.16,-206.01 99.16,-205.71"/>
<g id="a_edge17&#45;headlabel"><a xlink:href="dir_000044_000056.html" target="_top" xlink:title="6">
<text text-anchor="middle" x="96.48" y="-199.5" font-family="Helvetica,sans-Serif" font-size="10.00">6</text>
</a>
</g>
</g>
</g>
</svg>
