<?xml version="1.0" encoding="UTF-8" standalone="no"?>
<!DOCTYPE svg PUBLIC "-//W3C//DTD SVG 1.1//EN"
 "http://www.w3.org/Graphics/SVG/1.1/DTD/svg11.dtd">
<!-- Generated by graphviz version 2.43.0 (0)
 -->
<!-- Title: src/core/credentials Pages: 1 -->
<svg width="267pt" height="252pt"
 viewBox="0.00 0.00 267.00 251.89" xmlns="http://www.w3.org/2000/svg" xmlns:xlink="http://www.w3.org/1999/xlink">
<g id="graph0" class="graph" transform="scale(1 1) rotate(0) translate(4 247.89)">
<title>src/core/credentials</title>
<polygon fill="white" stroke="transparent" points="-4,4 -4,-247.89 263,-247.89 263,4 -4,4"/>
<g id="clust1" class="cluster">
<title>clusterdir_aebb8dcc11953d78e620bbef0b9e2183</title>
<g id="a_clust1"><a xlink:href="dir_aebb8dcc11953d78e620bbef0b9e2183.html" target="_top" xlink:title="core">
<polygon fill="#ddddee" stroke="black" points="8,-128 8,-215 197,-215 197,-128 8,-128"/>
<text text-anchor="middle" x="102.5" y="-203" font-family="Helvetica,sans-Serif" font-size="10.00">core</text>
</a>
</g>
</g>
<g id="clust2" class="cluster">
<title>clusterdir_2a6d67d55e8c89b2b7b5d042685b1c29</title>
<g id="a_clust2"><a xlink:href="dir_2a6d67d55e8c89b2b7b5d042685b1c29.html" target="_top">
<polygon fill="#eeeeff" stroke="black" points="16,-136 16,-188 189,-188 189,-136 16,-136"/>
</a>
</g>
</g>
<!-- dir_2a6d67d55e8c89b2b7b5d042685b1c29 -->
<g id="node1" class="node">
<title>dir_2a6d67d55e8c89b2b7b5d042685b1c29</title>
<text text-anchor="middle" x="60" y="-159.5" font-family="Helvetica,sans-Serif" font-size="10.00">credentials</text>
</g>
<!-- dir_fc6e43284f481c1dffff29eff431ce17 -->
<g id="node3" class="node">
<title>dir_fc6e43284f481c1dffff29eff431ce17</title>
<g id="a_node3"><a xlink:href="dir_fc6e43284f481c1dffff29eff431ce17.html" target="_top" xlink:title="auth">
<polygon fill="white" stroke="red" points="259,-180 205,-180 205,-144 259,-144 259,-180"/>
<text text-anchor="middle" x="232" y="-159.5" font-family="Helvetica,sans-Serif" font-size="10.00">auth</text>
</a>
</g>
</g>
<!-- dir_2a6d67d55e8c89b2b7b5d042685b1c29&#45;&gt;dir_fc6e43284f481c1dffff29eff431ce17 -->
<g id="edge5" class="edge">
<title>dir_2a6d67d55e8c89b2b7b5d042685b1c29&#45;&gt;dir_fc6e43284f481c1dffff29eff431ce17</title>
<path fill="none" stroke="black" d="M67.64,-180.13C75.99,-197.3 91.14,-222.04 113,-233 141.21,-247.14 156.13,-247.8 184,-233 201.3,-223.81 213.51,-205.29 221.28,-189.47"/>
<polygon fill="black" stroke="black" points="224.59,-190.63 225.55,-180.08 218.22,-187.73 224.59,-190.63"/>
<g id="a_edge5&#45;headlabel"><a xlink:href="dir_000035_000031.html" target="_top" xlink:title="4">
<text text-anchor="middle" x="225.69" y="-192.58" font-family="Helvetica,sans-Serif" font-size="10.00">4</text>
</a>
</g>
</g>
<!-- dir_1563a38af0d3a5e4a6330d6d45e9792a -->
<g id="node4" class="node">
<title>dir_1563a38af0d3a5e4a6330d6d45e9792a</title>
<g id="a_node4"><a xlink:href="dir_1563a38af0d3a5e4a6330d6d45e9792a.html" target="_top" xlink:title="tools">
<polygon fill="white" stroke="red" points="181,-108 127,-108 127,-72 181,-72 181,-108"/>
<text text-anchor="middle" x="154" y="-87.5" font-family="Helvetica,sans-Serif" font-size="10.00">tools</text>
</a>
</g>
</g>
<!-- dir_2a6d67d55e8c89b2b7b5d042685b1c29&#45;&gt;dir_1563a38af0d3a5e4a6330d6d45e9792a -->
<g id="edge6" class="edge">
<title>dir_2a6d67d55e8c89b2b7b5d042685b1c29&#45;&gt;dir_1563a38af0d3a5e4a6330d6d45e9792a</title>
<path fill="none" stroke="black" d="M82.82,-143.84C89.62,-138.74 97.11,-133.13 104,-128 110.01,-123.52 116.44,-118.75 122.62,-114.17"/>
<polygon fill="black" stroke="black" points="124.87,-116.86 130.83,-108.1 120.71,-111.24 124.87,-116.86"/>
<g id="a_edge6&#45;headlabel"><a xlink:href="dir_000035_000054.html" target="_top" xlink:title="15">
<text text-anchor="middle" x="123.67" y="-118.78" font-family="Helvetica,sans-Serif" font-size="10.00">15</text>
</a>
</g>
</g>
<!-- dir_03f4a28f75b8e23e1d457d2da09125b3 -->
<g id="node5" class="node">
<title>dir_03f4a28f75b8e23e1d457d2da09125b3</title>
<g id="a_node5"><a xlink:href="dir_03f4a28f75b8e23e1d457d2da09125b3.html" target="_top" xlink:title="exception">
<polygon fill="none" stroke="black" points="186.5,-36 121.5,-36 121.5,0 186.5,0 186.5,-36"/>
<text text-anchor="middle" x="154" y="-15.5" font-family="Helvetica,sans-Serif" font-size="10.00">exception</text>
</a>
</g>
</g>
<!-- dir_2a6d67d55e8c89b2b7b5d042685b1c29&#45;&gt;dir_03f4a28f75b8e23e1d457d2da09125b3 -->
<g id="edge7" class="edge">
<title>dir_2a6d67d55e8c89b2b7b5d042685b1c29&#45;&gt;dir_03f4a28f75b8e23e1d457d2da09125b3</title>
<path fill="none" stroke="black" d="M71.02,-143.87C82.62,-125.91 101.45,-96.87 118,-72 124.01,-62.97 130.66,-53.13 136.6,-44.41"/>
<polygon fill="black" stroke="black" points="139.5,-46.36 142.24,-36.13 133.72,-42.42 139.5,-46.36"/>
<g id="a_edge7&#45;headlabel"><a xlink:href="dir_000035_000042.html" target="_top" xlink:title="3">
<text text-anchor="middle" x="139.82" y="-48.43" font-family="Helvetica,sans-Serif" font-size="10.00">3</text>
</a>
</g>
</g>
<!-- dir_5c2f46608fc398e4b165d248383ba28e -->
<g id="node2" class="node">
<title>dir_5c2f46608fc398e4b165d248383ba28e</title>
<g id="a_node2"><a xlink:href="dir_5c2f46608fc398e4b165d248383ba28e.html" target="_top" xlink:title="serializers">
<polygon fill="white" stroke="black" points="180.5,-180 113.5,-180 113.5,-144 180.5,-144 180.5,-180"/>
<text text-anchor="middle" x="147" y="-159.5" font-family="Helvetica,sans-Serif" font-size="10.00">serializers</text>
</a>
</g>
</g>
<!-- dir_5c2f46608fc398e4b165d248383ba28e&#45;&gt;dir_fc6e43284f481c1dffff29eff431ce17 -->
<g id="edge11" class="edge">
<title>dir_5c2f46608fc398e4b165d248383ba28e&#45;&gt;dir_fc6e43284f481c1dffff29eff431ce17</title>
<path fill="none" stroke="black" d="M180.54,-162C185.18,-162 189.83,-162 194.48,-162"/>
<polygon fill="black" stroke="black" points="194.66,-165.5 204.66,-162 194.66,-158.5 194.66,-165.5"/>
<g id="a_edge11&#45;headlabel"><a xlink:href="dir_000036_000031.html" target="_top" xlink:title="1">
<text text-anchor="middle" x="191.06" y="-165.84" font-family="Helvetica,sans-Serif" font-size="10.00">1</text>
</a>
</g>
</g>
<!-- dir_5c2f46608fc398e4b165d248383ba28e&#45;&gt;dir_1563a38af0d3a5e4a6330d6d45e9792a -->
<g id="edge12" class="edge">
<title>dir_5c2f46608fc398e4b165d248383ba28e&#45;&gt;dir_1563a38af0d3a5e4a6330d6d45e9792a</title>
<path fill="none" stroke="black" d="M142.81,-143.7C142.79,-135.98 143.49,-126.71 144.69,-118.11"/>
<polygon fill="black" stroke="black" points="148.17,-118.55 146.39,-108.1 141.27,-117.38 148.17,-118.55"/>
<g id="a_edge12&#45;headlabel"><a xlink:href="dir_000036_000054.html" target="_top" xlink:title="9">
<text text-anchor="middle" x="150.37" y="-120.07" font-family="Helvetica,sans-Serif" font-size="10.00">9</text>
</a>
</g>
</g>
<!-- dir_fc6e43284f481c1dffff29eff431ce17&#45;&gt;dir_2a6d67d55e8c89b2b7b5d042685b1c29 -->
<g id="edge1" class="edge">
<title>dir_fc6e43284f481c1dffff29eff431ce17&#45;&gt;dir_2a6d67d55e8c89b2b7b5d042685b1c29</title>
<path fill="none" stroke="black" d="M225.55,-180.08C218.35,-197.2 204.89,-221.9 184,-233 156.13,-247.8 141.21,-247.14 113,-233 94.72,-223.84 81.14,-205.05 72.3,-189.1"/>
<polygon fill="black" stroke="black" points="75.36,-187.4 67.64,-180.13 69.15,-190.62 75.36,-187.4"/>
<g id="a_edge1&#45;headlabel"><a xlink:href="dir_000031_000035.html" target="_top" xlink:title="9">
<text text-anchor="middle" x="79.53" y="-186.78" font-family="Helvetica,sans-Serif" font-size="10.00">9</text>
</a>
</g>
</g>
<!-- dir_fc6e43284f481c1dffff29eff431ce17&#45;&gt;dir_5c2f46608fc398e4b165d248383ba28e -->
<g id="edge3" class="edge">
<title>dir_fc6e43284f481c1dffff29eff431ce17&#45;&gt;dir_5c2f46608fc398e4b165d248383ba28e</title>
<path fill="none" stroke="black" d="M204.66,-162C200.01,-162 195.36,-162 190.71,-162"/>
<polygon fill="black" stroke="black" points="190.54,-158.5 180.54,-162 190.54,-165.5 190.54,-158.5"/>
<g id="a_edge3&#45;headlabel"><a xlink:href="dir_000031_000036.html" target="_top" xlink:title="1">
<text text-anchor="middle" x="194.13" y="-153.16" font-family="Helvetica,sans-Serif" font-size="10.00">1</text>
</a>
</g>
</g>
<!-- dir_fc6e43284f481c1dffff29eff431ce17&#45;&gt;dir_1563a38af0d3a5e4a6330d6d45e9792a -->
<g id="edge2" class="edge">
<title>dir_fc6e43284f481c1dffff29eff431ce17&#45;&gt;dir_1563a38af0d3a5e4a6330d6d45e9792a</title>
<path fill="none" stroke="black" d="M206.8,-143.7C196.38,-135.14 184.52,-124.66 174.62,-115.3"/>
<polygon fill="black" stroke="black" points="176.79,-112.53 167.16,-108.1 171.93,-117.57 176.79,-112.53"/>
<g id="a_edge2&#45;headlabel"><a xlink:href="dir_000031_000054.html" target="_top" xlink:title="39">
<text text-anchor="middle" x="181.35" y="-110.49" font-family="Helvetica,sans-Serif" font-size="10.00">39</text>
</a>
</g>
</g>
<!-- dir_fc6e43284f481c1dffff29eff431ce17&#45;&gt;dir_03f4a28f75b8e23e1d457d2da09125b3 -->
<g id="edge4" class="edge">
<title>dir_fc6e43284f481c1dffff29eff431ce17&#45;&gt;dir_03f4a28f75b8e23e1d457d2da09125b3</title>
<path fill="none" stroke="black" d="M224.87,-143.87C217.06,-125.65 203.81,-96.18 190,-72 184.76,-62.82 178.45,-53.16 172.59,-44.63"/>
<polygon fill="black" stroke="black" points="175.31,-42.41 166.71,-36.23 169.57,-46.43 175.31,-42.41"/>
<g id="a_edge4&#45;headlabel"><a xlink:href="dir_000031_000042.html" target="_top" xlink:title="4">
<text text-anchor="middle" x="179.69" y="-41.23" font-family="Helvetica,sans-Serif" font-size="10.00">4</text>
</a>
</g>
</g>
<!-- dir_1563a38af0d3a5e4a6330d6d45e9792a&#45;&gt;dir_5c2f46608fc398e4b165d248383ba28e -->
<g id="edge9" class="edge">
<title>dir_1563a38af0d3a5e4a6330d6d45e9792a&#45;&gt;dir_5c2f46608fc398e4b165d248383ba28e</title>
<path fill="none" stroke="black" d="M158.18,-108.1C158.22,-115.79 157.53,-125.05 156.34,-133.67"/>
<polygon fill="black" stroke="black" points="152.86,-133.25 154.65,-143.7 159.76,-134.42 152.86,-133.25"/>
<g id="a_edge9&#45;headlabel"><a xlink:href="dir_000054_000036.html" target="_top" xlink:title="1">
<text text-anchor="middle" x="150.66" y="-126.74" font-family="Helvetica,sans-Serif" font-size="10.00">1</text>
</a>
</g>
</g>
<!-- dir_1563a38af0d3a5e4a6330d6d45e9792a&#45;&gt;dir_fc6e43284f481c1dffff29eff431ce17 -->
<g id="edge8" class="edge">
<title>dir_1563a38af0d3a5e4a6330d6d45e9792a&#45;&gt;dir_fc6e43284f481c1dffff29eff431ce17</title>
<path fill="none" stroke="black" d="M178.95,-108.1C189.35,-116.64 201.22,-127.11 211.15,-136.48"/>
<polygon fill="black" stroke="black" points="209.01,-139.27 218.63,-143.7 213.87,-134.24 209.01,-139.27"/>
<g id="a_edge8&#45;headlabel"><a xlink:href="dir_000054_000031.html" target="_top" xlink:title="7">
<text text-anchor="middle" x="204.45" y="-136.32" font-family="Helvetica,sans-Serif" font-size="10.00">7</text>
</a>
</g>
</g>
<!-- dir_1563a38af0d3a5e4a6330d6d45e9792a&#45;&gt;dir_03f4a28f75b8e23e1d457d2da09125b3 -->
<g id="edge10" class="edge">
<title>dir_1563a38af0d3a5e4a6330d6d45e9792a&#45;&gt;dir_03f4a28f75b8e23e1d457d2da09125b3</title>
<path fill="none" stroke="black" d="M148.08,-71.7C147.29,-63.98 147.06,-54.71 147.4,-46.11"/>
<polygon fill="black" stroke="black" points="150.9,-46.32 148.1,-36.1 143.92,-45.84 150.9,-46.32"/>
<g id="a_edge10&#45;headlabel"><a xlink:href="dir_000054_000042.html" target="_top" xlink:title="16">
<text text-anchor="middle" x="153.48" y="-47.61" font-family="Helvetica,sans-Serif" font-size="10.00">16</text>
</a>
</g>
</g>
<!-- dir_03f4a28f75b8e23e1d457d2da09125b3&#45;&gt;dir_1563a38af0d3a5e4a6330d6d45e9792a -->
<g id="edge13" class="edge">
<title>dir_03f4a28f75b8e23e1d457d2da09125b3&#45;&gt;dir_1563a38af0d3a5e4a6330d6d45e9792a</title>
<path fill="none" stroke="black" d="M159.9,-36.1C160.7,-43.79 160.94,-53.05 160.6,-61.67"/>
<polygon fill="black" stroke="black" points="157.11,-61.48 159.92,-71.7 164.09,-61.96 157.11,-61.48"/>
<g id="a_edge13&#45;headlabel"><a xlink:href="dir_000042_000054.html" target="_top" xlink:title="6">
<text text-anchor="middle" x="154.52" y="-55.2" font-family="Helvetica,sans-Serif" font-size="10.00">6</text>
</a>
</g>
</g>
</g>
</svg>
