<?xml version="1.0" encoding="UTF-8" standalone="no"?>
<!DOCTYPE svg PUBLIC "-//W3C//DTD SVG 1.1//EN"
 "http://www.w3.org/Graphics/SVG/1.1/DTD/svg11.dtd">
<!-- Generated by graphviz version 2.43.0 (0)
 -->
<!-- Title: src/core/credentials/serializers Pages: 1 -->
<svg width="113pt" height="223pt"
 viewBox="0.00 0.00 113.00 223.00" xmlns="http://www.w3.org/2000/svg" xmlns:xlink="http://www.w3.org/1999/xlink">
<g id="graph0" class="graph" transform="scale(1 1) rotate(0) translate(4 219)">
<title>src/core/credentials/serializers</title>
<polygon fill="white" stroke="transparent" points="-4,4 -4,-219 109,-219 109,4 -4,4"/>
<g id="clust1" class="cluster">
<title>clusterdir_2a6d67d55e8c89b2b7b5d042685b1c29</title>
<g id="a_clust1"><a xlink:href="dir_2a6d67d55e8c89b2b7b5d042685b1c29.html" target="_top" xlink:title="credentials">
<polygon fill="#ddddee" stroke="black" points="13,-136 13,-207 97,-207 97,-136 13,-136"/>
<text text-anchor="middle" x="55" y="-195" font-family="Helvetica,sans-Serif" font-size="10.00">credentials</text>
</a>
</g>
</g>
<!-- dir_5c2f46608fc398e4b165d248383ba28e -->
<g id="node1" class="node">
<title>dir_5c2f46608fc398e4b165d248383ba28e</title>
<g id="a_node1"><a xlink:href="dir_5c2f46608fc398e4b165d248383ba28e.html" target="_top" xlink:title="serializers">
<polygon fill="#eeeeff" stroke="black" points="88.5,-180 21.5,-180 21.5,-144 88.5,-144 88.5,-180"/>
<text text-anchor="middle" x="55" y="-159.5" font-family="Helvetica,sans-Serif" font-size="10.00">serializers</text>
</a>
</g>
</g>
<!-- dir_fc6e43284f481c1dffff29eff431ce17 -->
<g id="node2" class="node">
<title>dir_fc6e43284f481c1dffff29eff431ce17</title>
<g id="a_node2"><a xlink:href="dir_fc6e43284f481c1dffff29eff431ce17.html" target="_top" xlink:title="auth">
<polygon fill="white" stroke="red" points="54,-108 0,-108 0,-72 54,-72 54,-108"/>
<text text-anchor="middle" x="27" y="-87.5" font-family="Helvetica,sans-Serif" font-size="10.00">auth</text>
</a>
</g>
</g>
<!-- dir_5c2f46608fc398e4b165d248383ba28e&#45;&gt;dir_fc6e43284f481c1dffff29eff431ce17 -->
<g id="edge3" class="edge">
<title>dir_5c2f46608fc398e4b165d248383ba28e&#45;&gt;dir_fc6e43284f481c1dffff29eff431ce17</title>
<path fill="none" stroke="black" d="M48.08,-143.7C44.93,-135.81 41.12,-126.3 37.62,-117.55"/>
<polygon fill="black" stroke="black" points="40.81,-116.09 33.84,-108.1 34.31,-118.69 40.81,-116.09"/>
<g id="a_edge3&#45;headlabel"><a xlink:href="dir_000038_000033.html" target="_top" xlink:title="1">
<text text-anchor="middle" x="44.78" y="-115.87" font-family="Helvetica,sans-Serif" font-size="10.00">1</text>
</a>
</g>
</g>
<!-- dir_1563a38af0d3a5e4a6330d6d45e9792a -->
<g id="node3" class="node">
<title>dir_1563a38af0d3a5e4a6330d6d45e9792a</title>
<g id="a_node3"><a xlink:href="dir_1563a38af0d3a5e4a6330d6d45e9792a.html" target="_top" xlink:title="tools">
<polygon fill="white" stroke="red" points="54,-36 0,-36 0,0 54,0 54,-36"/>
<text text-anchor="middle" x="27" y="-15.5" font-family="Helvetica,sans-Serif" font-size="10.00">tools</text>
</a>
</g>
</g>
<!-- dir_5c2f46608fc398e4b165d248383ba28e&#45;&gt;dir_1563a38af0d3a5e4a6330d6d45e9792a -->
<g id="edge4" class="edge">
<title>dir_5c2f46608fc398e4b165d248383ba28e&#45;&gt;dir_1563a38af0d3a5e4a6330d6d45e9792a</title>
<path fill="none" stroke="black" d="M60.34,-143.87C65.16,-125.64 70.43,-96.17 63,-72 59.99,-62.22 54.49,-52.62 48.68,-44.33"/>
<polygon fill="black" stroke="black" points="51.41,-42.13 42.61,-36.23 45.81,-46.33 51.41,-42.13"/>
<g id="a_edge4&#45;headlabel"><a xlink:href="dir_000038_000056.html" target="_top" xlink:title="9">
<text text-anchor="middle" x="55.83" y="-40.8" font-family="Helvetica,sans-Serif" font-size="10.00">9</text>
</a>
</g>
</g>
<!-- dir_fc6e43284f481c1dffff29eff431ce17&#45;&gt;dir_1563a38af0d3a5e4a6330d6d45e9792a -->
<g id="edge1" class="edge">
<title>dir_fc6e43284f481c1dffff29eff431ce17&#45;&gt;dir_1563a38af0d3a5e4a6330d6d45e9792a</title>
<path fill="none" stroke="black" d="M21.08,-71.7C20.29,-63.98 20.06,-54.71 20.4,-46.11"/>
<polygon fill="black" stroke="black" points="23.9,-46.32 21.1,-36.1 16.92,-45.84 23.9,-46.32"/>
<g id="a_edge1&#45;headlabel"><a xlink:href="dir_000033_000056.html" target="_top" xlink:title="39">
<text text-anchor="middle" x="26.48" y="-47.61" font-family="Helvetica,sans-Serif" font-size="10.00">39</text>
</a>
</g>
</g>
<!-- dir_1563a38af0d3a5e4a6330d6d45e9792a&#45;&gt;dir_fc6e43284f481c1dffff29eff431ce17 -->
<g id="edge2" class="edge">
<title>dir_1563a38af0d3a5e4a6330d6d45e9792a&#45;&gt;dir_fc6e43284f481c1dffff29eff431ce17</title>
<path fill="none" stroke="black" d="M32.9,-36.1C33.7,-43.79 33.94,-53.05 33.6,-61.67"/>
<polygon fill="black" stroke="black" points="30.11,-61.48 32.92,-71.7 37.09,-61.96 30.11,-61.48"/>
<g id="a_edge2&#45;headlabel"><a xlink:href="dir_000056_000033.html" target="_top" xlink:title="7">
<text text-anchor="middle" x="27.52" y="-55.2" font-family="Helvetica,sans-Serif" font-size="10.00">7</text>
</a>
</g>
</g>
</g>
</svg>
