<?xml version="1.0" encoding="UTF-8" standalone="no"?>
<!DOCTYPE svg PUBLIC "-//W3C//DTD SVG 1.1//EN"
 "http://www.w3.org/Graphics/SVG/1.1/DTD/svg11.dtd">
<!-- Generated by graphviz version 2.43.0 (0)
 -->
<!-- Title: src/modules/led&#45;buzzer/ws Pages: 1 -->
<svg width="170pt" height="367pt"
 viewBox="0.00 0.00 169.60 367.00" xmlns="http://www.w3.org/2000/svg" xmlns:xlink="http://www.w3.org/1999/xlink">
<g id="graph0" class="graph" transform="scale(1 1) rotate(0) translate(4 363)">
<title>src/modules/led&#45;buzzer/ws</title>
<polygon fill="white" stroke="transparent" points="-4,4 -4,-363 165.6,-363 165.6,4 -4,4"/>
<g id="clust1" class="cluster">
<title>clusterdir_49cc156850dd9f41a29aa6d91fd89743</title>
<g id="a_clust1"><a xlink:href="dir_49cc156850dd9f41a29aa6d91fd89743.html" target="_top" xlink:title="led&#45;buzzer">
<polygon fill="#ddddee" stroke="black" points="36.46,-280 36.46,-351 106.46,-351 106.46,-280 36.46,-280"/>
<text text-anchor="middle" x="71.46" y="-339" font-family="Helvetica,sans-Serif" font-size="10.00">led&#45;buzzer</text>
</a>
</g>
</g>
<!-- dir_36cdca8e58a6b6914afe3b8f504f4bdb -->
<g id="node1" class="node">
<title>dir_36cdca8e58a6b6914afe3b8f504f4bdb</title>
<g id="a_node1"><a xlink:href="dir_36cdca8e58a6b6914afe3b8f504f4bdb.html" target="_top" xlink:title="ws">
<polygon fill="#eeeeff" stroke="black" points="98.46,-324 44.46,-324 44.46,-288 98.46,-288 98.46,-324"/>
<text text-anchor="middle" x="71.46" y="-303.5" font-family="Helvetica,sans-Serif" font-size="10.00">ws</text>
</a>
</g>
</g>
<!-- dir_59b1e980a670de987a696efba6dbbdbc -->
<g id="node2" class="node">
<title>dir_59b1e980a670de987a696efba6dbbdbc</title>
<g id="a_node2"><a xlink:href="dir_59b1e980a670de987a696efba6dbbdbc.html" target="_top" xlink:title="hardware">
<polygon fill="white" stroke="red" points="73.46,-180 11.46,-180 11.46,-144 73.46,-144 73.46,-180"/>
<text text-anchor="middle" x="42.46" y="-159.5" font-family="Helvetica,sans-Serif" font-size="10.00">hardware</text>
</a>
</g>
</g>
<!-- dir_36cdca8e58a6b6914afe3b8f504f4bdb&#45;&gt;dir_59b1e980a670de987a696efba6dbbdbc -->
<g id="edge7" class="edge">
<title>dir_36cdca8e58a6b6914afe3b8f504f4bdb&#45;&gt;dir_59b1e980a670de987a696efba6dbbdbc</title>
<path fill="none" stroke="black" d="M66.53,-287.91C63.64,-277.57 60.07,-264.09 57.46,-252 53.03,-231.45 49.12,-208 46.41,-190.33"/>
<polygon fill="black" stroke="black" points="49.83,-189.52 44.88,-180.15 42.9,-190.56 49.83,-189.52"/>
<g id="a_edge7&#45;headlabel"><a xlink:href="dir_000046_000043.html" target="_top" xlink:title="4">
<text text-anchor="middle" x="53.17" y="-190.15" font-family="Helvetica,sans-Serif" font-size="10.00">4</text>
</a>
</g>
</g>
<!-- dir_1563a38af0d3a5e4a6330d6d45e9792a -->
<g id="node3" class="node">
<title>dir_1563a38af0d3a5e4a6330d6d45e9792a</title>
<g id="a_node3"><a xlink:href="dir_1563a38af0d3a5e4a6330d6d45e9792a.html" target="_top" xlink:title="tools">
<polygon fill="white" stroke="red" points="111.46,-108 57.46,-108 57.46,-72 111.46,-72 111.46,-108"/>
<text text-anchor="middle" x="84.46" y="-87.5" font-family="Helvetica,sans-Serif" font-size="10.00">tools</text>
</a>
</g>
</g>
<!-- dir_36cdca8e58a6b6914afe3b8f504f4bdb&#45;&gt;dir_1563a38af0d3a5e4a6330d6d45e9792a -->
<g id="edge8" class="edge">
<title>dir_36cdca8e58a6b6914afe3b8f504f4bdb&#45;&gt;dir_1563a38af0d3a5e4a6330d6d45e9792a</title>
<path fill="none" stroke="black" d="M98.52,-295.58C117.65,-287.33 141.87,-273.29 153.46,-252 178.66,-205.71 138.12,-148.31 109.3,-116.05"/>
<polygon fill="black" stroke="black" points="111.62,-113.4 102.27,-108.42 106.47,-118.14 111.62,-113.4"/>
<g id="a_edge8&#45;headlabel"><a xlink:href="dir_000046_000054.html" target="_top" xlink:title="3">
<text text-anchor="middle" x="116.14" y="-111.63" font-family="Helvetica,sans-Serif" font-size="10.00">3</text>
</a>
</g>
</g>
<!-- dir_c4d966a03ca6ea09f7a88bf957c27254 -->
<g id="node4" class="node">
<title>dir_c4d966a03ca6ea09f7a88bf957c27254</title>
<g id="a_node4"><a xlink:href="dir_c4d966a03ca6ea09f7a88bf957c27254.html" target="_top" xlink:title="websock&#45;api">
<polygon fill="white" stroke="red" points="144.46,-252 66.46,-252 66.46,-216 144.46,-216 144.46,-252"/>
<text text-anchor="middle" x="105.46" y="-231.5" font-family="Helvetica,sans-Serif" font-size="10.00">websock&#45;api</text>
</a>
</g>
</g>
<!-- dir_36cdca8e58a6b6914afe3b8f504f4bdb&#45;&gt;dir_c4d966a03ca6ea09f7a88bf957c27254 -->
<g id="edge9" class="edge">
<title>dir_36cdca8e58a6b6914afe3b8f504f4bdb&#45;&gt;dir_c4d966a03ca6ea09f7a88bf957c27254</title>
<path fill="none" stroke="black" d="M79.87,-287.7C83.74,-279.73 88.42,-270.1 92.71,-261.26"/>
<polygon fill="black" stroke="black" points="95.94,-262.63 97.16,-252.1 89.64,-259.57 95.94,-262.63"/>
<g id="a_edge9&#45;headlabel"><a xlink:href="dir_000046_000024.html" target="_top" xlink:title="4">
<text text-anchor="middle" x="96.92" y="-264.6" font-family="Helvetica,sans-Serif" font-size="10.00">4</text>
</a>
</g>
</g>
<!-- dir_03f4a28f75b8e23e1d457d2da09125b3 -->
<g id="node5" class="node">
<title>dir_03f4a28f75b8e23e1d457d2da09125b3</title>
<g id="a_node5"><a xlink:href="dir_03f4a28f75b8e23e1d457d2da09125b3.html" target="_top" xlink:title="exception">
<polygon fill="none" stroke="black" points="116.96,-36 51.96,-36 51.96,0 116.96,0 116.96,-36"/>
<text text-anchor="middle" x="84.46" y="-15.5" font-family="Helvetica,sans-Serif" font-size="10.00">exception</text>
</a>
</g>
</g>
<!-- dir_36cdca8e58a6b6914afe3b8f504f4bdb&#45;&gt;dir_03f4a28f75b8e23e1d457d2da09125b3 -->
<g id="edge10" class="edge">
<title>dir_36cdca8e58a6b6914afe3b8f504f4bdb&#45;&gt;dir_03f4a28f75b8e23e1d457d2da09125b3</title>
<path fill="none" stroke="black" d="M55.89,-287.82C31.78,-259.1 -10.53,-199.05 2.46,-144 11.73,-104.74 39.97,-67.07 60.73,-43.54"/>
<polygon fill="black" stroke="black" points="63.33,-45.88 67.45,-36.12 58.14,-41.19 63.33,-45.88"/>
<g id="a_edge10&#45;headlabel"><a xlink:href="dir_000046_000042.html" target="_top" xlink:title="1">
<text text-anchor="middle" x="63.03" y="-47.95" font-family="Helvetica,sans-Serif" font-size="10.00">1</text>
</a>
</g>
</g>
<!-- dir_59b1e980a670de987a696efba6dbbdbc&#45;&gt;dir_1563a38af0d3a5e4a6330d6d45e9792a -->
<g id="edge1" class="edge">
<title>dir_59b1e980a670de987a696efba6dbbdbc&#45;&gt;dir_1563a38af0d3a5e4a6330d6d45e9792a</title>
<path fill="none" stroke="black" d="M52.85,-143.7C57.73,-135.56 63.65,-125.69 69.04,-116.7"/>
<polygon fill="black" stroke="black" points="72.06,-118.48 74.2,-108.1 66.06,-114.88 72.06,-118.48"/>
<g id="a_edge1&#45;headlabel"><a xlink:href="dir_000043_000054.html" target="_top" xlink:title="19">
<text text-anchor="middle" x="72.64" y="-120.52" font-family="Helvetica,sans-Serif" font-size="10.00">19</text>
</a>
</g>
</g>
<!-- dir_59b1e980a670de987a696efba6dbbdbc&#45;&gt;dir_03f4a28f75b8e23e1d457d2da09125b3 -->
<g id="edge2" class="edge">
<title>dir_59b1e980a670de987a696efba6dbbdbc&#45;&gt;dir_03f4a28f75b8e23e1d457d2da09125b3</title>
<path fill="none" stroke="black" d="M41.01,-143.75C40.05,-125.42 40.24,-95.86 48.46,-72 51.8,-62.32 57.39,-52.75 63.18,-44.47"/>
<polygon fill="black" stroke="black" points="66.06,-46.46 69.21,-36.34 60.44,-42.29 66.06,-46.46"/>
<g id="a_edge2&#45;headlabel"><a xlink:href="dir_000043_000042.html" target="_top" xlink:title="2">
<text text-anchor="middle" x="66.2" y="-48.54" font-family="Helvetica,sans-Serif" font-size="10.00">2</text>
</a>
</g>
</g>
<!-- dir_1563a38af0d3a5e4a6330d6d45e9792a&#45;&gt;dir_03f4a28f75b8e23e1d457d2da09125b3 -->
<g id="edge3" class="edge">
<title>dir_1563a38af0d3a5e4a6330d6d45e9792a&#45;&gt;dir_03f4a28f75b8e23e1d457d2da09125b3</title>
<path fill="none" stroke="black" d="M78.55,-71.7C77.75,-63.98 77.53,-54.71 77.87,-46.11"/>
<polygon fill="black" stroke="black" points="81.36,-46.32 78.57,-36.1 74.38,-45.84 81.36,-46.32"/>
<g id="a_edge3&#45;headlabel"><a xlink:href="dir_000054_000042.html" target="_top" xlink:title="16">
<text text-anchor="middle" x="83.94" y="-47.61" font-family="Helvetica,sans-Serif" font-size="10.00">16</text>
</a>
</g>
</g>
<!-- dir_c4d966a03ca6ea09f7a88bf957c27254&#45;&gt;dir_59b1e980a670de987a696efba6dbbdbc -->
<g id="edge4" class="edge">
<title>dir_c4d966a03ca6ea09f7a88bf957c27254&#45;&gt;dir_59b1e980a670de987a696efba6dbbdbc</title>
<path fill="none" stroke="black" d="M89.89,-215.7C82.26,-207.22 72.94,-196.86 64.59,-187.58"/>
<polygon fill="black" stroke="black" points="67.15,-185.2 57.86,-180.1 61.95,-189.88 67.15,-185.2"/>
<g id="a_edge4&#45;headlabel"><a xlink:href="dir_000024_000043.html" target="_top" xlink:title="1">
<text text-anchor="middle" x="71.66" y="-183.47" font-family="Helvetica,sans-Serif" font-size="10.00">1</text>
</a>
</g>
</g>
<!-- dir_c4d966a03ca6ea09f7a88bf957c27254&#45;&gt;dir_1563a38af0d3a5e4a6330d6d45e9792a -->
<g id="edge5" class="edge">
<title>dir_c4d966a03ca6ea09f7a88bf957c27254&#45;&gt;dir_1563a38af0d3a5e4a6330d6d45e9792a</title>
<path fill="none" stroke="black" d="M102.93,-215.87C99.35,-191.67 92.78,-147.21 88.52,-118.39"/>
<polygon fill="black" stroke="black" points="91.93,-117.57 87.01,-108.19 85.01,-118.59 91.93,-117.57"/>
<g id="a_edge5&#45;headlabel"><a xlink:href="dir_000024_000054.html" target="_top" xlink:title="79">
<text text-anchor="middle" x="95.27" y="-118.21" font-family="Helvetica,sans-Serif" font-size="10.00">79</text>
</a>
</g>
</g>
<!-- dir_c4d966a03ca6ea09f7a88bf957c27254&#45;&gt;dir_03f4a28f75b8e23e1d457d2da09125b3 -->
<g id="edge6" class="edge">
<title>dir_c4d966a03ca6ea09f7a88bf957c27254&#45;&gt;dir_03f4a28f75b8e23e1d457d2da09125b3</title>
<path fill="none" stroke="black" d="M111.36,-215.63C120.62,-185.63 135.98,-122.44 120.46,-72 117.46,-62.22 111.96,-52.62 106.15,-44.33"/>
<polygon fill="black" stroke="black" points="108.87,-42.13 100.07,-36.23 103.27,-46.33 108.87,-42.13"/>
<g id="a_edge6&#45;headlabel"><a xlink:href="dir_000024_000042.html" target="_top" xlink:title="19">
<text text-anchor="middle" x="113.3" y="-40.8" font-family="Helvetica,sans-Serif" font-size="10.00">19</text>
</a>
</g>
</g>
<!-- dir_03f4a28f75b8e23e1d457d2da09125b3&#45;&gt;dir_1563a38af0d3a5e4a6330d6d45e9792a -->
<g id="edge11" class="edge">
<title>dir_03f4a28f75b8e23e1d457d2da09125b3&#45;&gt;dir_1563a38af0d3a5e4a6330d6d45e9792a</title>
<path fill="none" stroke="black" d="M90.36,-36.1C91.16,-43.79 91.4,-53.05 91.07,-61.67"/>
<polygon fill="black" stroke="black" points="87.57,-61.48 90.38,-71.7 94.56,-61.96 87.57,-61.48"/>
<g id="a_edge11&#45;headlabel"><a xlink:href="dir_000042_000054.html" target="_top" xlink:title="6">
<text text-anchor="middle" x="84.99" y="-55.2" font-family="Helvetica,sans-Serif" font-size="10.00">6</text>
</a>
</g>
</g>
</g>
</svg>
