<?xml version="1.0" encoding="UTF-8" standalone="no"?>
<!DOCTYPE svg PUBLIC "-//W3C//DTD SVG 1.1//EN"
 "http://www.w3.org/Graphics/SVG/1.1/DTD/svg11.dtd">
<!-- Generated by graphviz version 2.43.0 (0)
 -->
<!-- Title: src/core/audit Pages: 1 -->
<svg width="314pt" height="267pt"
 viewBox="0.00 0.00 314.00 267.00" xmlns="http://www.w3.org/2000/svg" xmlns:xlink="http://www.w3.org/1999/xlink">
<g id="graph0" class="graph" transform="scale(1 1) rotate(0) translate(4 263)">
<title>src/core/audit</title>
<polygon fill="white" stroke="transparent" points="-4,4 -4,-263 310,-263 310,4 -4,4"/>
<g id="clust1" class="cluster">
<title>clusterdir_aebb8dcc11953d78e620bbef0b9e2183</title>
<g id="a_clust1"><a xlink:href="dir_aebb8dcc11953d78e620bbef0b9e2183.html" target="_top" xlink:title="core">
<polygon fill="#ddddee" stroke="black" points="8,-128 8,-215 180,-215 180,-128 8,-128"/>
<text text-anchor="middle" x="94" y="-203" font-family="Helvetica,sans-Serif" font-size="10.00">core</text>
</a>
</g>
</g>
<g id="clust2" class="cluster">
<title>clusterdir_6e399610acf21149161a2424bf394843</title>
<g id="a_clust2"><a xlink:href="dir_6e399610acf21149161a2424bf394843.html" target="_top">
<polygon fill="#eeeeff" stroke="black" points="16,-136 16,-188 172,-188 172,-136 16,-136"/>
</a>
</g>
</g>
<!-- dir_6e399610acf21149161a2424bf394843 -->
<g id="node1" class="node">
<title>dir_6e399610acf21149161a2424bf394843</title>
<text text-anchor="middle" x="51" y="-159.5" font-family="Helvetica,sans-Serif" font-size="10.00">audit</text>
</g>
<!-- dir_fc6e43284f481c1dffff29eff431ce17 -->
<g id="node3" class="node">
<title>dir_fc6e43284f481c1dffff29eff431ce17</title>
<g id="a_node3"><a xlink:href="dir_fc6e43284f481c1dffff29eff431ce17.html" target="_top" xlink:title="auth">
<polygon fill="white" stroke="red" points="306,-259 252,-259 252,-223 306,-223 306,-259"/>
<text text-anchor="middle" x="279" y="-238.5" font-family="Helvetica,sans-Serif" font-size="10.00">auth</text>
</a>
</g>
</g>
<!-- dir_6e399610acf21149161a2424bf394843&#45;&gt;dir_fc6e43284f481c1dffff29eff431ce17 -->
<g id="edge8" class="edge">
<title>dir_6e399610acf21149161a2424bf394843&#45;&gt;dir_fc6e43284f481c1dffff29eff431ce17</title>
<path fill="none" stroke="black" d="M50.77,-180.17C55.2,-191.99 64.78,-206.94 78,-215 104.26,-231.01 191.08,-236.9 241.75,-238.97"/>
<polygon fill="black" stroke="black" points="241.85,-242.47 251.98,-239.35 242.12,-235.48 241.85,-242.47"/>
<g id="a_edge8&#45;headlabel"><a xlink:href="dir_000029_000031.html" target="_top" xlink:title="21">
<text text-anchor="middle" x="238.16" y="-242.67" font-family="Helvetica,sans-Serif" font-size="10.00">21</text>
</a>
</g>
</g>
<!-- dir_82e584bccfefb078d177be117ba8eb49 -->
<g id="node4" class="node">
<title>dir_82e584bccfefb078d177be117ba8eb49</title>
<g id="a_node4"><a xlink:href="dir_82e584bccfefb078d177be117ba8eb49.html" target="_top" xlink:title="update">
<polygon fill="white" stroke="red" points="242,-180 188,-180 188,-144 242,-144 242,-180"/>
<text text-anchor="middle" x="215" y="-159.5" font-family="Helvetica,sans-Serif" font-size="10.00">update</text>
</a>
</g>
</g>
<!-- dir_6e399610acf21149161a2424bf394843&#45;&gt;dir_82e584bccfefb078d177be117ba8eb49 -->
<g id="edge9" class="edge">
<title>dir_6e399610acf21149161a2424bf394843&#45;&gt;dir_82e584bccfefb078d177be117ba8eb49</title>
<path fill="none" stroke="black" d="M59.94,-180.13C66.24,-191.37 75.56,-205.44 87,-215 90.36,-217.81 91.72,-218.09 96,-219 111.43,-222.28 151.57,-222.28 167,-219 182.73,-215.66 194.5,-202.12 202.45,-189.08"/>
<polygon fill="black" stroke="black" points="205.55,-190.7 207.35,-180.26 199.43,-187.31 205.55,-190.7"/>
<g id="a_edge9&#45;headlabel"><a xlink:href="dir_000029_000039.html" target="_top" xlink:title="3">
<text text-anchor="middle" x="206.29" y="-192.72" font-family="Helvetica,sans-Serif" font-size="10.00">3</text>
</a>
</g>
</g>
<!-- dir_2a6d67d55e8c89b2b7b5d042685b1c29 -->
<g id="node5" class="node">
<title>dir_2a6d67d55e8c89b2b7b5d042685b1c29</title>
<g id="a_node5"><a xlink:href="dir_2a6d67d55e8c89b2b7b5d042685b1c29.html" target="_top" xlink:title="credentials">
<polygon fill="white" stroke="red" points="250.5,-36 179.5,-36 179.5,0 250.5,0 250.5,-36"/>
<text text-anchor="middle" x="215" y="-15.5" font-family="Helvetica,sans-Serif" font-size="10.00">credentials</text>
</a>
</g>
</g>
<!-- dir_6e399610acf21149161a2424bf394843&#45;&gt;dir_2a6d67d55e8c89b2b7b5d042685b1c29 -->
<g id="edge10" class="edge">
<title>dir_6e399610acf21149161a2424bf394843&#45;&gt;dir_2a6d67d55e8c89b2b7b5d042685b1c29</title>
<path fill="none" stroke="black" d="M69.57,-143.74C75.13,-138.63 81.28,-133.05 87,-128 120.75,-98.18 160.32,-64.71 186.43,-42.82"/>
<polygon fill="black" stroke="black" points="188.99,-45.24 194.41,-36.14 184.49,-39.87 188.99,-45.24"/>
<g id="a_edge10&#45;headlabel"><a xlink:href="dir_000029_000035.html" target="_top" xlink:title="6">
<text text-anchor="middle" x="188.05" y="-47.23" font-family="Helvetica,sans-Serif" font-size="10.00">6</text>
</a>
</g>
</g>
<!-- dir_1563a38af0d3a5e4a6330d6d45e9792a -->
<g id="node6" class="node">
<title>dir_1563a38af0d3a5e4a6330d6d45e9792a</title>
<g id="a_node6"><a xlink:href="dir_1563a38af0d3a5e4a6330d6d45e9792a.html" target="_top" xlink:title="tools">
<polygon fill="white" stroke="red" points="242,-108 188,-108 188,-72 242,-72 242,-108"/>
<text text-anchor="middle" x="215" y="-87.5" font-family="Helvetica,sans-Serif" font-size="10.00">tools</text>
</a>
</g>
</g>
<!-- dir_6e399610acf21149161a2424bf394843&#45;&gt;dir_1563a38af0d3a5e4a6330d6d45e9792a -->
<g id="edge11" class="edge">
<title>dir_6e399610acf21149161a2424bf394843&#45;&gt;dir_1563a38af0d3a5e4a6330d6d45e9792a</title>
<path fill="none" stroke="black" d="M66.58,-143.8C72.5,-138.09 79.61,-132.15 87,-128 115.4,-112.05 151.28,-102.45 177.83,-97.05"/>
<polygon fill="black" stroke="black" points="178.71,-100.44 187.86,-95.11 177.38,-93.57 178.71,-100.44"/>
<g id="a_edge11&#45;headlabel"><a xlink:href="dir_000029_000054.html" target="_top" xlink:title="62">
<text text-anchor="middle" x="175.71" y="-101.41" font-family="Helvetica,sans-Serif" font-size="10.00">62</text>
</a>
</g>
</g>
<!-- dir_6bb03949a2a5476a14bdd29e107ce044 -->
<g id="node2" class="node">
<title>dir_6bb03949a2a5476a14bdd29e107ce044</title>
<g id="a_node2"><a xlink:href="dir_6bb03949a2a5476a14bdd29e107ce044.html" target="_top" xlink:title="serializers">
<polygon fill="white" stroke="black" points="163.5,-180 96.5,-180 96.5,-144 163.5,-144 163.5,-180"/>
<text text-anchor="middle" x="130" y="-159.5" font-family="Helvetica,sans-Serif" font-size="10.00">serializers</text>
</a>
</g>
</g>
<!-- dir_6bb03949a2a5476a14bdd29e107ce044&#45;&gt;dir_1563a38af0d3a5e4a6330d6d45e9792a -->
<g id="edge14" class="edge">
<title>dir_6bb03949a2a5476a14bdd29e107ce044&#45;&gt;dir_1563a38af0d3a5e4a6330d6d45e9792a</title>
<path fill="none" stroke="black" d="M151.01,-143.7C161.72,-134.88 174.89,-124.03 186.5,-114.47"/>
<polygon fill="black" stroke="black" points="188.74,-117.16 194.23,-108.1 184.29,-111.76 188.74,-117.16"/>
<g id="a_edge14&#45;headlabel"><a xlink:href="dir_000030_000054.html" target="_top" xlink:title="17">
<text text-anchor="middle" x="187.77" y="-119.14" font-family="Helvetica,sans-Serif" font-size="10.00">17</text>
</a>
</g>
</g>
<!-- dir_fc6e43284f481c1dffff29eff431ce17&#45;&gt;dir_6e399610acf21149161a2424bf394843 -->
<g id="edge2" class="edge">
<title>dir_fc6e43284f481c1dffff29eff431ce17&#45;&gt;dir_6e399610acf21149161a2424bf394843</title>
<path fill="none" stroke="black" d="M251.73,-238.9C207.2,-236.77 121.98,-230.83 96,-215 85.88,-208.83 77.89,-198.62 71.36,-188.87"/>
<polygon fill="black" stroke="black" points="74.12,-186.68 65.76,-180.17 68.24,-190.48 74.12,-186.68"/>
<g id="a_edge2&#45;headlabel"><a xlink:href="dir_000031_000029.html" target="_top" xlink:title="1">
<text text-anchor="middle" x="78.45" y="-185.67" font-family="Helvetica,sans-Serif" font-size="10.00">1</text>
</a>
</g>
</g>
<!-- dir_fc6e43284f481c1dffff29eff431ce17&#45;&gt;dir_82e584bccfefb078d177be117ba8eb49 -->
<g id="edge1" class="edge">
<title>dir_fc6e43284f481c1dffff29eff431ce17&#45;&gt;dir_82e584bccfefb078d177be117ba8eb49</title>
<path fill="none" stroke="black" d="M254.09,-222.94C251.61,-220.31 249.22,-217.6 247,-215 239.81,-206.56 232.21,-197.09 226.02,-188.57"/>
<polygon fill="black" stroke="black" points="228.73,-186.34 220.15,-180.12 222.98,-190.33 228.73,-186.34"/>
<g id="a_edge1&#45;headlabel"><a xlink:href="dir_000031_000039.html" target="_top" xlink:title="1">
<text text-anchor="middle" x="233.11" y="-185.18" font-family="Helvetica,sans-Serif" font-size="10.00">1</text>
</a>
</g>
</g>
<!-- dir_fc6e43284f481c1dffff29eff431ce17&#45;&gt;dir_2a6d67d55e8c89b2b7b5d042685b1c29 -->
<g id="edge3" class="edge">
<title>dir_fc6e43284f481c1dffff29eff431ce17&#45;&gt;dir_2a6d67d55e8c89b2b7b5d042685b1c29</title>
<path fill="none" stroke="black" d="M275.55,-222.92C276.09,-220.29 276.64,-217.59 277,-215 282.26,-176.69 287.66,-165.17 277,-128 267.9,-96.28 246.06,-65.26 230.66,-44.47"/>
<polygon fill="black" stroke="black" points="233.29,-42.14 224.51,-36.22 227.67,-46.33 233.29,-42.14"/>
<g id="a_edge3&#45;headlabel"><a xlink:href="dir_000031_000035.html" target="_top" xlink:title="9">
<text text-anchor="middle" x="237.71" y="-40.83" font-family="Helvetica,sans-Serif" font-size="10.00">9</text>
</a>
</g>
</g>
<!-- dir_fc6e43284f481c1dffff29eff431ce17&#45;&gt;dir_1563a38af0d3a5e4a6330d6d45e9792a -->
<g id="edge4" class="edge">
<title>dir_fc6e43284f481c1dffff29eff431ce17&#45;&gt;dir_1563a38af0d3a5e4a6330d6d45e9792a</title>
<path fill="none" stroke="black" d="M271.37,-222.66C265.89,-199.73 259.07,-158.64 242,-128 239.68,-123.84 236.77,-119.8 233.7,-116.03"/>
<polygon fill="black" stroke="black" points="236.09,-113.45 226.87,-108.23 230.82,-118.06 236.09,-113.45"/>
<g id="a_edge4&#45;headlabel"><a xlink:href="dir_000031_000054.html" target="_top" xlink:title="39">
<text text-anchor="middle" x="240.59" y="-111.79" font-family="Helvetica,sans-Serif" font-size="10.00">39</text>
</a>
</g>
</g>
<!-- dir_82e584bccfefb078d177be117ba8eb49&#45;&gt;dir_6e399610acf21149161a2424bf394843 -->
<g id="edge6" class="edge">
<title>dir_82e584bccfefb078d177be117ba8eb49&#45;&gt;dir_6e399610acf21149161a2424bf394843</title>
<path fill="none" stroke="black" d="M207.35,-180.26C199.73,-195.33 186.36,-214.89 167,-219 151.57,-222.28 111.43,-222.28 96,-219 91.72,-218.09 90.36,-217.81 87,-215 78.42,-207.83 71.03,-198.12 65.22,-188.97"/>
<polygon fill="black" stroke="black" points="68.07,-186.92 59.94,-180.13 62.06,-190.51 68.07,-186.92"/>
<g id="a_edge6&#45;headlabel"><a xlink:href="dir_000039_000029.html" target="_top" xlink:title="2">
<text text-anchor="middle" x="72.35" y="-186.06" font-family="Helvetica,sans-Serif" font-size="10.00">2</text>
</a>
</g>
</g>
<!-- dir_82e584bccfefb078d177be117ba8eb49&#45;&gt;dir_fc6e43284f481c1dffff29eff431ce17 -->
<g id="edge5" class="edge">
<title>dir_82e584bccfefb078d177be117ba8eb49&#45;&gt;dir_fc6e43284f481c1dffff29eff431ce17</title>
<path fill="none" stroke="black" d="M235.8,-180.12C244.89,-190.39 255.31,-203.62 265,-215 265.14,-215.16 265.28,-215.33 265.42,-215.49"/>
<polygon fill="black" stroke="black" points="262.69,-217.68 271.88,-222.94 267.97,-213.09 262.69,-217.68"/>
<g id="a_edge5&#45;headlabel"><a xlink:href="dir_000039_000031.html" target="_top" xlink:title="2">
<text text-anchor="middle" x="258.19" y="-214.33" font-family="Helvetica,sans-Serif" font-size="10.00">2</text>
</a>
</g>
</g>
<!-- dir_82e584bccfefb078d177be117ba8eb49&#45;&gt;dir_1563a38af0d3a5e4a6330d6d45e9792a -->
<g id="edge7" class="edge">
<title>dir_82e584bccfefb078d177be117ba8eb49&#45;&gt;dir_1563a38af0d3a5e4a6330d6d45e9792a</title>
<path fill="none" stroke="black" d="M209.08,-143.7C208.29,-135.98 208.06,-126.71 208.4,-118.11"/>
<polygon fill="black" stroke="black" points="211.9,-118.32 209.1,-108.1 204.92,-117.84 211.9,-118.32"/>
<g id="a_edge7&#45;headlabel"><a xlink:href="dir_000039_000054.html" target="_top" xlink:title="9">
<text text-anchor="middle" x="214.48" y="-119.61" font-family="Helvetica,sans-Serif" font-size="10.00">9</text>
</a>
</g>
</g>
<!-- dir_2a6d67d55e8c89b2b7b5d042685b1c29&#45;&gt;dir_fc6e43284f481c1dffff29eff431ce17 -->
<g id="edge12" class="edge">
<title>dir_2a6d67d55e8c89b2b7b5d042685b1c29&#45;&gt;dir_fc6e43284f481c1dffff29eff431ce17</title>
<path fill="none" stroke="black" d="M237.51,-36.22C257.56,-56.41 284.6,-91.75 295,-128 304.83,-162.26 301.01,-174.74 294.93,-212.69"/>
<polygon fill="black" stroke="black" points="291.42,-212.5 293.34,-222.92 298.33,-213.57 291.42,-212.5"/>
<g id="a_edge12&#45;headlabel"><a xlink:href="dir_000035_000031.html" target="_top" xlink:title="4">
<text text-anchor="middle" x="289.16" y="-206.01" font-family="Helvetica,sans-Serif" font-size="10.00">4</text>
</a>
</g>
</g>
<!-- dir_2a6d67d55e8c89b2b7b5d042685b1c29&#45;&gt;dir_1563a38af0d3a5e4a6330d6d45e9792a -->
<g id="edge13" class="edge">
<title>dir_2a6d67d55e8c89b2b7b5d042685b1c29&#45;&gt;dir_1563a38af0d3a5e4a6330d6d45e9792a</title>
<path fill="none" stroke="black" d="M220.9,-36.1C221.7,-43.79 221.94,-53.05 221.6,-61.67"/>
<polygon fill="black" stroke="black" points="218.11,-61.48 220.92,-71.7 225.09,-61.96 218.11,-61.48"/>
<g id="a_edge13&#45;headlabel"><a xlink:href="dir_000035_000054.html" target="_top" xlink:title="15">
<text text-anchor="middle" x="215.52" y="-55.2" font-family="Helvetica,sans-Serif" font-size="10.00">15</text>
</a>
</g>
</g>
<!-- dir_1563a38af0d3a5e4a6330d6d45e9792a&#45;&gt;dir_fc6e43284f481c1dffff29eff431ce17 -->
<g id="edge15" class="edge">
<title>dir_1563a38af0d3a5e4a6330d6d45e9792a&#45;&gt;dir_fc6e43284f481c1dffff29eff431ce17</title>
<path fill="none" stroke="black" d="M242.01,-106.39C248.93,-112.52 255.55,-120.01 260,-128 274.8,-154.57 281.9,-189 283.34,-212.63"/>
<polygon fill="black" stroke="black" points="279.84,-212.76 283.62,-222.66 286.84,-212.57 279.84,-212.76"/>
<g id="a_edge15&#45;headlabel"><a xlink:href="dir_000054_000031.html" target="_top" xlink:title="7">
<text text-anchor="middle" x="276.91" y="-206.74" font-family="Helvetica,sans-Serif" font-size="10.00">7</text>
</a>
</g>
</g>
<!-- dir_1563a38af0d3a5e4a6330d6d45e9792a&#45;&gt;dir_82e584bccfefb078d177be117ba8eb49 -->
<g id="edge16" class="edge">
<title>dir_1563a38af0d3a5e4a6330d6d45e9792a&#45;&gt;dir_82e584bccfefb078d177be117ba8eb49</title>
<path fill="none" stroke="black" d="M220.9,-108.1C221.7,-115.79 221.94,-125.05 221.6,-133.67"/>
<polygon fill="black" stroke="black" points="218.11,-133.48 220.92,-143.7 225.09,-133.96 218.11,-133.48"/>
<g id="a_edge16&#45;headlabel"><a xlink:href="dir_000054_000039.html" target="_top" xlink:title="1">
<text text-anchor="middle" x="215.52" y="-127.2" font-family="Helvetica,sans-Serif" font-size="10.00">1</text>
</a>
</g>
</g>
<!-- dir_1563a38af0d3a5e4a6330d6d45e9792a&#45;&gt;dir_2a6d67d55e8c89b2b7b5d042685b1c29 -->
<g id="edge17" class="edge">
<title>dir_1563a38af0d3a5e4a6330d6d45e9792a&#45;&gt;dir_2a6d67d55e8c89b2b7b5d042685b1c29</title>
<path fill="none" stroke="black" d="M209.08,-71.7C208.29,-63.98 208.06,-54.71 208.4,-46.11"/>
<polygon fill="black" stroke="black" points="211.9,-46.32 209.1,-36.1 204.92,-45.84 211.9,-46.32"/>
<g id="a_edge17&#45;headlabel"><a xlink:href="dir_000054_000035.html" target="_top" xlink:title="4">
<text text-anchor="middle" x="214.48" y="-47.61" font-family="Helvetica,sans-Serif" font-size="10.00">4</text>
</a>
</g>
</g>
</g>
</svg>
