<?xml version="1.0" encoding="UTF-8" standalone="no"?>
<!DOCTYPE svg PUBLIC "-//W3C//DTD SVG 1.1//EN"
 "http://www.w3.org/Graphics/SVG/1.1/DTD/svg11.dtd">
<!-- Generated by graphviz version 2.43.0 (0)
 -->
<!-- Title: src/modules/auth Pages: 1 -->
<svg width="258pt" height="303pt"
 viewBox="0.00 0.00 258.00 303.00" xmlns="http://www.w3.org/2000/svg" xmlns:xlink="http://www.w3.org/1999/xlink">
<g id="graph0" class="graph" transform="scale(1 1) rotate(0) translate(4 299)">
<title>src/modules/auth</title>
<polygon fill="white" stroke="transparent" points="-4,4 -4,-299 254,-299 254,4 -4,4"/>
<g id="clust1" class="cluster">
<title>clusterdir_ddb4d7e95cc2d6c8e1ade10a20d7247d</title>
<g id="a_clust1"><a xlink:href="dir_ddb4d7e95cc2d6c8e1ade10a20d7247d.html" target="_top" xlink:title="modules">
<polygon fill="#ddddee" stroke="black" points="8,-200 8,-287 242,-287 242,-200 8,-200"/>
<text text-anchor="middle" x="125" y="-275" font-family="Helvetica,sans-Serif" font-size="10.00">modules</text>
</a>
</g>
</g>
<g id="clust2" class="cluster">
<title>clusterdir_05467d6fbfd095955db10f540f768252</title>
<g id="a_clust2"><a xlink:href="dir_05467d6fbfd095955db10f540f768252.html" target="_top">
<polygon fill="#eeeeff" stroke="black" points="16,-208 16,-260 234,-260 234,-208 16,-208"/>
</a>
</g>
</g>
<!-- dir_05467d6fbfd095955db10f540f768252 -->
<g id="node1" class="node">
<title>dir_05467d6fbfd095955db10f540f768252</title>
<text text-anchor="middle" x="199" y="-231.5" font-family="Helvetica,sans-Serif" font-size="10.00">auth</text>
</g>
<!-- dir_b5bf6322fb6f22bc2fd5e88a03875496 -->
<g id="node2" class="node">
<title>dir_b5bf6322fb6f22bc2fd5e88a03875496</title>
<g id="a_node2"><a xlink:href="dir_b5bf6322fb6f22bc2fd5e88a03875496.html" target="_top" xlink:title="auth&#45;db">
<polygon fill="white" stroke="black" points="78,-252 24,-252 24,-216 78,-216 78,-252"/>
<text text-anchor="middle" x="51" y="-231.5" font-family="Helvetica,sans-Serif" font-size="10.00">auth&#45;db</text>
</a>
</g>
</g>
<!-- dir_1563a38af0d3a5e4a6330d6d45e9792a -->
<g id="node4" class="node">
<title>dir_1563a38af0d3a5e4a6330d6d45e9792a</title>
<g id="a_node4"><a xlink:href="dir_1563a38af0d3a5e4a6330d6d45e9792a.html" target="_top" xlink:title="tools">
<polygon fill="white" stroke="red" points="152,-180 98,-180 98,-144 152,-144 152,-180"/>
<text text-anchor="middle" x="125" y="-159.5" font-family="Helvetica,sans-Serif" font-size="10.00">tools</text>
</a>
</g>
</g>
<!-- dir_b5bf6322fb6f22bc2fd5e88a03875496&#45;&gt;dir_1563a38af0d3a5e4a6330d6d45e9792a -->
<g id="edge8" class="edge">
<title>dir_b5bf6322fb6f22bc2fd5e88a03875496&#45;&gt;dir_1563a38af0d3a5e4a6330d6d45e9792a</title>
<path fill="none" stroke="black" d="M69.29,-215.7C78.43,-207.05 89.64,-196.45 99.6,-187.03"/>
<polygon fill="black" stroke="black" points="102.06,-189.52 106.92,-180.1 97.25,-184.43 102.06,-189.52"/>
<g id="a_edge8&#45;headlabel"><a xlink:href="dir_000006_000056.html" target="_top" xlink:title="2">
<text text-anchor="middle" x="101.4" y="-191.55" font-family="Helvetica,sans-Serif" font-size="10.00">2</text>
</a>
</g>
</g>
<!-- dir_aebb8dcc11953d78e620bbef0b9e2183 -->
<g id="node5" class="node">
<title>dir_aebb8dcc11953d78e620bbef0b9e2183</title>
<g id="a_node5"><a xlink:href="dir_aebb8dcc11953d78e620bbef0b9e2183.html" target="_top" xlink:title="core">
<polygon fill="white" stroke="red" points="96,-108 42,-108 42,-72 96,-72 96,-108"/>
<text text-anchor="middle" x="69" y="-87.5" font-family="Helvetica,sans-Serif" font-size="10.00">core</text>
</a>
</g>
</g>
<!-- dir_b5bf6322fb6f22bc2fd5e88a03875496&#45;&gt;dir_aebb8dcc11953d78e620bbef0b9e2183 -->
<g id="edge9" class="edge">
<title>dir_b5bf6322fb6f22bc2fd5e88a03875496&#45;&gt;dir_aebb8dcc11953d78e620bbef0b9e2183</title>
<path fill="none" stroke="black" d="M51.03,-215.84C51.28,-197.85 52.29,-168.8 56,-144 57.28,-135.44 59.3,-126.23 61.38,-117.93"/>
<polygon fill="black" stroke="black" points="64.82,-118.59 63.98,-108.03 58.05,-116.81 64.82,-118.59"/>
<g id="a_edge9&#45;headlabel"><a xlink:href="dir_000006_000030.html" target="_top" xlink:title="3">
<text text-anchor="middle" x="66.66" y="-120.28" font-family="Helvetica,sans-Serif" font-size="10.00">3</text>
</a>
</g>
</g>
<!-- dir_75a07a235112097ef71a85052240bf7d -->
<g id="node3" class="node">
<title>dir_75a07a235112097ef71a85052240bf7d</title>
<g id="a_node3"><a xlink:href="dir_75a07a235112097ef71a85052240bf7d.html" target="_top" xlink:title="auth&#45;file">
<polygon fill="white" stroke="black" points="153.5,-252 96.5,-252 96.5,-216 153.5,-216 153.5,-252"/>
<text text-anchor="middle" x="125" y="-231.5" font-family="Helvetica,sans-Serif" font-size="10.00">auth&#45;file</text>
</a>
</g>
</g>
<!-- dir_75a07a235112097ef71a85052240bf7d&#45;&gt;dir_1563a38af0d3a5e4a6330d6d45e9792a -->
<g id="edge1" class="edge">
<title>dir_75a07a235112097ef71a85052240bf7d&#45;&gt;dir_1563a38af0d3a5e4a6330d6d45e9792a</title>
<path fill="none" stroke="black" d="M125,-215.7C125,-207.98 125,-198.71 125,-190.11"/>
<polygon fill="black" stroke="black" points="128.5,-190.1 125,-180.1 121.5,-190.1 128.5,-190.1"/>
<g id="a_edge1&#45;headlabel"><a xlink:href="dir_000007_000056.html" target="_top" xlink:title="12">
<text text-anchor="middle" x="131.34" y="-191.2" font-family="Helvetica,sans-Serif" font-size="10.00">12</text>
</a>
</g>
</g>
<!-- dir_75a07a235112097ef71a85052240bf7d&#45;&gt;dir_aebb8dcc11953d78e620bbef0b9e2183 -->
<g id="edge2" class="edge">
<title>dir_75a07a235112097ef71a85052240bf7d&#45;&gt;dir_aebb8dcc11953d78e620bbef0b9e2183</title>
<path fill="none" stroke="black" d="M110.89,-215.83C103.38,-205.9 94.57,-192.86 89,-180 80.46,-160.29 75.36,-136.49 72.44,-118.46"/>
<polygon fill="black" stroke="black" points="75.87,-117.7 70.94,-108.33 68.95,-118.73 75.87,-117.7"/>
<g id="a_edge2&#45;headlabel"><a xlink:href="dir_000007_000030.html" target="_top" xlink:title="26">
<text text-anchor="middle" x="79.21" y="-118.34" font-family="Helvetica,sans-Serif" font-size="10.00">26</text>
</a>
</g>
</g>
<!-- dir_03f4a28f75b8e23e1d457d2da09125b3 -->
<g id="node6" class="node">
<title>dir_03f4a28f75b8e23e1d457d2da09125b3</title>
<g id="a_node6"><a xlink:href="dir_03f4a28f75b8e23e1d457d2da09125b3.html" target="_top" xlink:title="exception">
<polygon fill="none" stroke="black" points="165.5,-36 100.5,-36 100.5,0 165.5,0 165.5,-36"/>
<text text-anchor="middle" x="133" y="-15.5" font-family="Helvetica,sans-Serif" font-size="10.00">exception</text>
</a>
</g>
</g>
<!-- dir_75a07a235112097ef71a85052240bf7d&#45;&gt;dir_03f4a28f75b8e23e1d457d2da09125b3 -->
<g id="edge3" class="edge">
<title>dir_75a07a235112097ef71a85052240bf7d&#45;&gt;dir_03f4a28f75b8e23e1d457d2da09125b3</title>
<path fill="none" stroke="black" d="M140.61,-215.77C148.37,-206.03 156.95,-193.18 161,-180 175.21,-133.8 158.1,-77.78 145.07,-45.48"/>
<polygon fill="black" stroke="black" points="148.29,-44.12 141.2,-36.25 141.84,-46.83 148.29,-44.12"/>
<g id="a_edge3&#45;headlabel"><a xlink:href="dir_000007_000044.html" target="_top" xlink:title="2">
<text text-anchor="middle" x="152.3" y="-43.83" font-family="Helvetica,sans-Serif" font-size="10.00">2</text>
</a>
</g>
</g>
<!-- dir_1563a38af0d3a5e4a6330d6d45e9792a&#45;&gt;dir_aebb8dcc11953d78e620bbef0b9e2183 -->
<g id="edge4" class="edge">
<title>dir_1563a38af0d3a5e4a6330d6d45e9792a&#45;&gt;dir_aebb8dcc11953d78e620bbef0b9e2183</title>
<path fill="none" stroke="black" d="M105.24,-143.7C97.82,-135.47 89.62,-125.48 82.82,-116.42"/>
<polygon fill="black" stroke="black" points="85.49,-114.15 76.79,-108.1 79.82,-118.26 85.49,-114.15"/>
<g id="a_edge4&#45;headlabel"><a xlink:href="dir_000056_000030.html" target="_top" xlink:title="16">
<text text-anchor="middle" x="89.9" y="-112.89" font-family="Helvetica,sans-Serif" font-size="10.00">16</text>
</a>
</g>
</g>
<!-- dir_1563a38af0d3a5e4a6330d6d45e9792a&#45;&gt;dir_03f4a28f75b8e23e1d457d2da09125b3 -->
<g id="edge5" class="edge">
<title>dir_1563a38af0d3a5e4a6330d6d45e9792a&#45;&gt;dir_03f4a28f75b8e23e1d457d2da09125b3</title>
<path fill="none" stroke="black" d="M121.38,-143.87C120.19,-119.67 122.4,-75.21 126,-46.39"/>
<polygon fill="black" stroke="black" points="129.51,-46.58 127.44,-36.19 122.57,-45.6 129.51,-46.58"/>
<g id="a_edge5&#45;headlabel"><a xlink:href="dir_000056_000044.html" target="_top" xlink:title="16">
<text text-anchor="middle" x="131.81" y="-48.04" font-family="Helvetica,sans-Serif" font-size="10.00">16</text>
</a>
</g>
</g>
<!-- dir_aebb8dcc11953d78e620bbef0b9e2183&#45;&gt;dir_1563a38af0d3a5e4a6330d6d45e9792a -->
<g id="edge6" class="edge">
<title>dir_aebb8dcc11953d78e620bbef0b9e2183&#45;&gt;dir_1563a38af0d3a5e4a6330d6d45e9792a</title>
<path fill="none" stroke="black" d="M88.58,-108.1C95.99,-116.3 104.19,-126.28 111.02,-135.36"/>
<polygon fill="black" stroke="black" points="108.36,-137.66 117.07,-143.7 114.03,-133.55 108.36,-137.66"/>
<g id="a_edge6&#45;headlabel"><a xlink:href="dir_000030_000056.html" target="_top" xlink:title="187">
<text text-anchor="middle" x="103.96" y="-133.92" font-family="Helvetica,sans-Serif" font-size="10.00">187</text>
</a>
</g>
</g>
<!-- dir_aebb8dcc11953d78e620bbef0b9e2183&#45;&gt;dir_03f4a28f75b8e23e1d457d2da09125b3 -->
<g id="edge7" class="edge">
<title>dir_aebb8dcc11953d78e620bbef0b9e2183&#45;&gt;dir_03f4a28f75b8e23e1d457d2da09125b3</title>
<path fill="none" stroke="black" d="M84.82,-71.7C92.57,-63.22 102.04,-52.86 110.52,-43.58"/>
<polygon fill="black" stroke="black" points="113.2,-45.85 117.36,-36.1 108.03,-41.12 113.2,-45.85"/>
<g id="a_edge7&#45;headlabel"><a xlink:href="dir_000030_000044.html" target="_top" xlink:title="13">
<text text-anchor="middle" x="112.87" y="-47.92" font-family="Helvetica,sans-Serif" font-size="10.00">13</text>
</a>
</g>
</g>
<!-- dir_03f4a28f75b8e23e1d457d2da09125b3&#45;&gt;dir_1563a38af0d3a5e4a6330d6d45e9792a -->
<g id="edge10" class="edge">
<title>dir_03f4a28f75b8e23e1d457d2da09125b3&#45;&gt;dir_1563a38af0d3a5e4a6330d6d45e9792a</title>
<path fill="none" stroke="black" d="M136.62,-36.19C137.81,-60.42 135.59,-104.89 131.99,-133.68"/>
<polygon fill="black" stroke="black" points="128.49,-133.48 130.55,-143.87 135.42,-134.46 128.49,-133.48"/>
<g id="a_edge10&#45;headlabel"><a xlink:href="dir_000044_000056.html" target="_top" xlink:title="6">
<text text-anchor="middle" x="126.18" y="-127.02" font-family="Helvetica,sans-Serif" font-size="10.00">6</text>
</a>
</g>
</g>
</g>
</svg>
