<?xml version="1.0" encoding="UTF-8" standalone="no"?>
<!DOCTYPE svg PUBLIC "-//W3C//DTD SVG 1.1//EN"
 "http://www.w3.org/Graphics/SVG/1.1/DTD/svg11.dtd">
<!-- Generated by graphviz version 2.43.0 (0)
 -->
<!-- Title: src/modules/wiegand Pages: 1 -->
<svg width="399pt" height="519pt"
 viewBox="0.00 0.00 399.00 519.00" xmlns="http://www.w3.org/2000/svg" xmlns:xlink="http://www.w3.org/1999/xlink">
<g id="graph0" class="graph" transform="scale(1 1) rotate(0) translate(4 515)">
<title>src/modules/wiegand</title>
<polygon fill="white" stroke="transparent" points="-4,4 -4,-515 395,-515 395,4 -4,4"/>
<g id="clust1" class="cluster">
<title>clusterdir_ddb4d7e95cc2d6c8e1ade10a20d7247d</title>
<g id="a_clust1"><a xlink:href="dir_ddb4d7e95cc2d6c8e1ade10a20d7247d.html" target="_top" xlink:title="modules">
<polygon fill="#ddddee" stroke="black" points="97,-344 97,-503 267,-503 267,-344 97,-344"/>
<text text-anchor="middle" x="182" y="-491" font-family="Helvetica,sans-Serif" font-size="10.00">modules</text>
</a>
</g>
</g>
<g id="clust2" class="cluster">
<title>clusterdir_14969a413ac9f82656810690dbbd0783</title>
<g id="a_clust2"><a xlink:href="dir_14969a413ac9f82656810690dbbd0783.html" target="_top">
<polygon fill="#eeeeff" stroke="black" points="105,-352 105,-476 259,-476 259,-352 105,-352"/>
</a>
</g>
</g>
<!-- dir_14969a413ac9f82656810690dbbd0783 -->
<g id="node1" class="node">
<title>dir_14969a413ac9f82656810690dbbd0783</title>
<text text-anchor="middle" x="184" y="-447.5" font-family="Helvetica,sans-Serif" font-size="10.00">wiegand</text>
</g>
<!-- dir_30e273273487ebca1d7f47e159ef21c9 -->
<g id="node2" class="node">
<title>dir_30e273273487ebca1d7f47e159ef21c9</title>
<g id="a_node2"><a xlink:href="dir_30e273273487ebca1d7f47e159ef21c9.html" target="_top" xlink:title="strategies">
<polygon fill="white" stroke="black" points="178.5,-396 113.5,-396 113.5,-360 178.5,-360 178.5,-396"/>
<text text-anchor="middle" x="146" y="-375.5" font-family="Helvetica,sans-Serif" font-size="10.00">strategies</text>
</a>
</g>
</g>
<!-- dir_14969a413ac9f82656810690dbbd0783&#45;&gt;dir_30e273273487ebca1d7f47e159ef21c9 -->
<g id="edge12" class="edge">
<title>dir_14969a413ac9f82656810690dbbd0783&#45;&gt;dir_30e273273487ebca1d7f47e159ef21c9</title>
<path fill="none" stroke="black" d="M174.61,-431.7C170.24,-423.64 164.94,-413.89 160.1,-404.98"/>
<polygon fill="black" stroke="black" points="163.13,-403.22 155.29,-396.1 156.98,-406.56 163.13,-403.22"/>
<g id="a_edge12&#45;headlabel"><a xlink:href="dir_000027_000055.html" target="_top" xlink:title="4">
<text text-anchor="middle" x="167.34" y="-402.53" font-family="Helvetica,sans-Serif" font-size="10.00">4</text>
</a>
</g>
</g>
<!-- dir_0c9c59909f9eb645a96be0fb1a4c1e6d -->
<g id="node3" class="node">
<title>dir_0c9c59909f9eb645a96be0fb1a4c1e6d</title>
<g id="a_node3"><a xlink:href="dir_0c9c59909f9eb645a96be0fb1a4c1e6d.html" target="_top" xlink:title="ws">
<polygon fill="white" stroke="black" points="251,-396 197,-396 197,-360 251,-360 251,-396"/>
<text text-anchor="middle" x="224" y="-375.5" font-family="Helvetica,sans-Serif" font-size="10.00">ws</text>
</a>
</g>
</g>
<!-- dir_14969a413ac9f82656810690dbbd0783&#45;&gt;dir_0c9c59909f9eb645a96be0fb1a4c1e6d -->
<g id="edge11" class="edge">
<title>dir_14969a413ac9f82656810690dbbd0783&#45;&gt;dir_0c9c59909f9eb645a96be0fb1a4c1e6d</title>
<path fill="none" stroke="black" d="M193.89,-431.7C198.49,-423.64 204.06,-413.89 209.15,-404.98"/>
<polygon fill="black" stroke="black" points="212.3,-406.52 214.23,-396.1 206.23,-403.05 212.3,-406.52"/>
<g id="a_edge11&#45;headlabel"><a xlink:href="dir_000027_000049.html" target="_top" xlink:title="2">
<text text-anchor="middle" x="212.99" y="-408.55" font-family="Helvetica,sans-Serif" font-size="10.00">2</text>
</a>
</g>
</g>
<!-- dir_59b1e980a670de987a696efba6dbbdbc -->
<g id="node4" class="node">
<title>dir_59b1e980a670de987a696efba6dbbdbc</title>
<g id="a_node4"><a xlink:href="dir_59b1e980a670de987a696efba6dbbdbc.html" target="_top" xlink:title="hardware">
<polygon fill="white" stroke="red" points="318,-252 256,-252 256,-216 318,-216 318,-252"/>
<text text-anchor="middle" x="287" y="-231.5" font-family="Helvetica,sans-Serif" font-size="10.00">hardware</text>
</a>
</g>
</g>
<!-- dir_14969a413ac9f82656810690dbbd0783&#45;&gt;dir_59b1e980a670de987a696efba6dbbdbc -->
<g id="edge13" class="edge">
<title>dir_14969a413ac9f82656810690dbbd0783&#45;&gt;dir_59b1e980a670de987a696efba6dbbdbc</title>
<path fill="none" stroke="black" d="M213.35,-433.81C228.87,-424.58 247.29,-411.58 260,-396 291.56,-357.3 292.88,-337.9 291,-288 290.69,-279.67 290.09,-270.61 289.46,-262.38"/>
<polygon fill="black" stroke="black" points="292.93,-261.85 288.62,-252.17 285.95,-262.42 292.93,-261.85"/>
<g id="a_edge13&#45;headlabel"><a xlink:href="dir_000027_000045.html" target="_top" xlink:title="12">
<text text-anchor="middle" x="296.05" y="-262.7" font-family="Helvetica,sans-Serif" font-size="10.00">12</text>
</a>
</g>
</g>
<!-- dir_03f4a28f75b8e23e1d457d2da09125b3 -->
<g id="node8" class="node">
<title>dir_03f4a28f75b8e23e1d457d2da09125b3</title>
<g id="a_node8"><a xlink:href="dir_03f4a28f75b8e23e1d457d2da09125b3.html" target="_top" xlink:title="exception">
<polygon fill="none" stroke="black" points="160.5,-36 95.5,-36 95.5,0 160.5,0 160.5,-36"/>
<text text-anchor="middle" x="128" y="-15.5" font-family="Helvetica,sans-Serif" font-size="10.00">exception</text>
</a>
</g>
</g>
<!-- dir_14969a413ac9f82656810690dbbd0783&#45;&gt;dir_03f4a28f75b8e23e1d457d2da09125b3 -->
<g id="edge14" class="edge">
<title>dir_14969a413ac9f82656810690dbbd0783&#45;&gt;dir_03f4a28f75b8e23e1d457d2da09125b3</title>
<path fill="none" stroke="black" d="M154.84,-441.22C102.96,-425.4 0,-384.27 0,-307 0,-307 0,-307 0,-161 0,-108 49.81,-65.86 87.29,-41.66"/>
<polygon fill="black" stroke="black" points="89.41,-44.46 96.03,-36.19 85.7,-38.53 89.41,-44.46"/>
<g id="a_edge14&#45;headlabel"><a xlink:href="dir_000027_000044.html" target="_top" xlink:title="2">
<text text-anchor="middle" x="87.87" y="-46.28" font-family="Helvetica,sans-Serif" font-size="10.00">2</text>
</a>
</g>
</g>
<!-- dir_1563a38af0d3a5e4a6330d6d45e9792a -->
<g id="node5" class="node">
<title>dir_1563a38af0d3a5e4a6330d6d45e9792a</title>
<g id="a_node5"><a xlink:href="dir_1563a38af0d3a5e4a6330d6d45e9792a.html" target="_top" xlink:title="tools">
<polygon fill="white" stroke="red" points="155,-180 101,-180 101,-144 155,-144 155,-180"/>
<text text-anchor="middle" x="128" y="-159.5" font-family="Helvetica,sans-Serif" font-size="10.00">tools</text>
</a>
</g>
</g>
<!-- dir_30e273273487ebca1d7f47e159ef21c9&#45;&gt;dir_1563a38af0d3a5e4a6330d6d45e9792a -->
<g id="edge6" class="edge">
<title>dir_30e273273487ebca1d7f47e159ef21c9&#45;&gt;dir_1563a38af0d3a5e4a6330d6d45e9792a</title>
<path fill="none" stroke="black" d="M129.03,-359.85C108.16,-337.36 74.03,-295.6 62,-252 57.74,-236.58 55.08,-230.43 62,-216 68.49,-202.46 80.32,-191.28 92.19,-182.74"/>
<polygon fill="black" stroke="black" points="94.4,-185.47 100.76,-176.99 90.51,-179.65 94.4,-185.47"/>
<g id="a_edge6&#45;headlabel"><a xlink:href="dir_000055_000056.html" target="_top" xlink:title="5">
<text text-anchor="middle" x="93" y="-187.33" font-family="Helvetica,sans-Serif" font-size="10.00">5</text>
</a>
</g>
</g>
<!-- dir_aebb8dcc11953d78e620bbef0b9e2183 -->
<g id="node7" class="node">
<title>dir_aebb8dcc11953d78e620bbef0b9e2183</title>
<g id="a_node7"><a xlink:href="dir_aebb8dcc11953d78e620bbef0b9e2183.html" target="_top" xlink:title="core">
<polygon fill="white" stroke="red" points="234,-108 180,-108 180,-72 234,-72 234,-108"/>
<text text-anchor="middle" x="207" y="-87.5" font-family="Helvetica,sans-Serif" font-size="10.00">core</text>
</a>
</g>
</g>
<!-- dir_30e273273487ebca1d7f47e159ef21c9&#45;&gt;dir_aebb8dcc11953d78e620bbef0b9e2183 -->
<g id="edge7" class="edge">
<title>dir_30e273273487ebca1d7f47e159ef21c9&#45;&gt;dir_aebb8dcc11953d78e620bbef0b9e2183</title>
<path fill="none" stroke="black" d="M149.63,-359.97C159.82,-312.19 188.74,-176.62 201.18,-118.27"/>
<polygon fill="black" stroke="black" points="204.65,-118.82 203.31,-108.31 197.8,-117.36 204.65,-118.82"/>
<g id="a_edge7&#45;headlabel"><a xlink:href="dir_000055_000030.html" target="_top" xlink:title="1">
<text text-anchor="middle" x="206.67" y="-120.42" font-family="Helvetica,sans-Serif" font-size="10.00">1</text>
</a>
</g>
</g>
<!-- dir_0c9c59909f9eb645a96be0fb1a4c1e6d&#45;&gt;dir_59b1e980a670de987a696efba6dbbdbc -->
<g id="edge1" class="edge">
<title>dir_0c9c59909f9eb645a96be0fb1a4c1e6d&#45;&gt;dir_59b1e980a670de987a696efba6dbbdbc</title>
<path fill="none" stroke="black" d="M244.26,-359.84C254.18,-350.3 265.39,-337.63 272,-324 281.37,-304.67 285.01,-280.52 286.36,-262.26"/>
<polygon fill="black" stroke="black" points="289.86,-262.44 286.92,-252.26 282.87,-262.05 289.86,-262.44"/>
<g id="a_edge1&#45;headlabel"><a xlink:href="dir_000049_000045.html" target="_top" xlink:title="2">
<text text-anchor="middle" x="292.49" y="-263.69" font-family="Helvetica,sans-Serif" font-size="10.00">2</text>
</a>
</g>
</g>
<!-- dir_0c9c59909f9eb645a96be0fb1a4c1e6d&#45;&gt;dir_1563a38af0d3a5e4a6330d6d45e9792a -->
<g id="edge2" class="edge">
<title>dir_0c9c59909f9eb645a96be0fb1a4c1e6d&#45;&gt;dir_1563a38af0d3a5e4a6330d6d45e9792a</title>
<path fill="none" stroke="black" d="M204.9,-359.96C195.05,-350.27 183.55,-337.41 176,-324 151.59,-280.66 138.4,-223.61 132.32,-190.35"/>
<polygon fill="black" stroke="black" points="135.75,-189.69 130.58,-180.44 128.86,-190.89 135.75,-189.69"/>
<g id="a_edge2&#45;headlabel"><a xlink:href="dir_000049_000056.html" target="_top" xlink:title="4">
<text text-anchor="middle" x="139.17" y="-190.24" font-family="Helvetica,sans-Serif" font-size="10.00">4</text>
</a>
</g>
</g>
<!-- dir_c4d966a03ca6ea09f7a88bf957c27254 -->
<g id="node6" class="node">
<title>dir_c4d966a03ca6ea09f7a88bf957c27254</title>
<g id="a_node6"><a xlink:href="dir_c4d966a03ca6ea09f7a88bf957c27254.html" target="_top" xlink:title="websock&#45;api">
<polygon fill="white" stroke="red" points="263,-324 185,-324 185,-288 263,-288 263,-324"/>
<text text-anchor="middle" x="224" y="-303.5" font-family="Helvetica,sans-Serif" font-size="10.00">websock&#45;api</text>
</a>
</g>
</g>
<!-- dir_0c9c59909f9eb645a96be0fb1a4c1e6d&#45;&gt;dir_c4d966a03ca6ea09f7a88bf957c27254 -->
<g id="edge3" class="edge">
<title>dir_0c9c59909f9eb645a96be0fb1a4c1e6d&#45;&gt;dir_c4d966a03ca6ea09f7a88bf957c27254</title>
<path fill="none" stroke="black" d="M224,-359.7C224,-351.98 224,-342.71 224,-334.11"/>
<polygon fill="black" stroke="black" points="227.5,-334.1 224,-324.1 220.5,-334.1 227.5,-334.1"/>
<g id="a_edge3&#45;headlabel"><a xlink:href="dir_000049_000026.html" target="_top" xlink:title="4">
<text text-anchor="middle" x="230.34" y="-335.2" font-family="Helvetica,sans-Serif" font-size="10.00">4</text>
</a>
</g>
</g>
<!-- dir_0c9c59909f9eb645a96be0fb1a4c1e6d&#45;&gt;dir_aebb8dcc11953d78e620bbef0b9e2183 -->
<g id="edge4" class="edge">
<title>dir_0c9c59909f9eb645a96be0fb1a4c1e6d&#45;&gt;dir_aebb8dcc11953d78e620bbef0b9e2183</title>
<path fill="none" stroke="black" d="M250.8,-359.95C264.09,-350.53 279.68,-337.92 291,-324 322.92,-284.74 343.63,-263.79 327,-216 311.84,-172.43 271.78,-136.2 242.09,-114.15"/>
<polygon fill="black" stroke="black" points="243.79,-111.07 233.64,-108.05 239.69,-116.74 243.79,-111.07"/>
<g id="a_edge4&#45;headlabel"><a xlink:href="dir_000049_000030.html" target="_top" xlink:title="1">
<text text-anchor="middle" x="248.37" y="-108.37" font-family="Helvetica,sans-Serif" font-size="10.00">1</text>
</a>
</g>
</g>
<!-- dir_0c9c59909f9eb645a96be0fb1a4c1e6d&#45;&gt;dir_03f4a28f75b8e23e1d457d2da09125b3 -->
<g id="edge5" class="edge">
<title>dir_0c9c59909f9eb645a96be0fb1a4c1e6d&#45;&gt;dir_03f4a28f75b8e23e1d457d2da09125b3</title>
<path fill="none" stroke="black" d="M251.2,-368.11C298.52,-350.73 391,-307.5 391,-235 391,-235 391,-235 391,-161 391,-62.01 244.94,-31.7 170.52,-22.68"/>
<polygon fill="black" stroke="black" points="170.84,-19.19 160.51,-21.54 170.05,-26.15 170.84,-19.19"/>
<g id="a_edge5&#45;headlabel"><a xlink:href="dir_000049_000044.html" target="_top" xlink:title="1">
<text text-anchor="middle" x="174.74" y="-14.28" font-family="Helvetica,sans-Serif" font-size="10.00">1</text>
</a>
</g>
</g>
<!-- dir_59b1e980a670de987a696efba6dbbdbc&#45;&gt;dir_1563a38af0d3a5e4a6330d6d45e9792a -->
<g id="edge8" class="edge">
<title>dir_59b1e980a670de987a696efba6dbbdbc&#45;&gt;dir_1563a38af0d3a5e4a6330d6d45e9792a</title>
<path fill="none" stroke="black" d="M255.97,-219.34C229.77,-207.81 192.23,-191.28 164.58,-179.1"/>
<polygon fill="black" stroke="black" points="165.81,-175.82 155.25,-174.99 162.99,-182.23 165.81,-175.82"/>
<g id="a_edge8&#45;headlabel"><a xlink:href="dir_000045_000056.html" target="_top" xlink:title="23">
<text text-anchor="middle" x="170.24" y="-172.17" font-family="Helvetica,sans-Serif" font-size="10.00">23</text>
</a>
</g>
</g>
<!-- dir_59b1e980a670de987a696efba6dbbdbc&#45;&gt;dir_aebb8dcc11953d78e620bbef0b9e2183 -->
<g id="edge9" class="edge">
<title>dir_59b1e980a670de987a696efba6dbbdbc&#45;&gt;dir_aebb8dcc11953d78e620bbef0b9e2183</title>
<path fill="none" stroke="black" d="M272.77,-215.87C256.36,-191.35 230.56,-146.03 216.41,-117.26"/>
<polygon fill="black" stroke="black" points="219.55,-115.71 212.09,-108.19 213.23,-118.72 219.55,-115.71"/>
<g id="a_edge9&#45;headlabel"><a xlink:href="dir_000045_000030.html" target="_top" xlink:title="4">
<text text-anchor="middle" x="223.66" y="-115.24" font-family="Helvetica,sans-Serif" font-size="10.00">4</text>
</a>
</g>
</g>
<!-- dir_59b1e980a670de987a696efba6dbbdbc&#45;&gt;dir_03f4a28f75b8e23e1d457d2da09125b3 -->
<g id="edge10" class="edge">
<title>dir_59b1e980a670de987a696efba6dbbdbc&#45;&gt;dir_03f4a28f75b8e23e1d457d2da09125b3</title>
<path fill="none" stroke="black" d="M287.23,-215.99C286.75,-183.67 281.07,-112.96 243,-72 223.6,-51.13 194.36,-37.8 170.21,-29.73"/>
<polygon fill="black" stroke="black" points="171.16,-26.36 160.57,-26.69 169.05,-33.04 171.16,-26.36"/>
<g id="a_edge10&#45;headlabel"><a xlink:href="dir_000045_000044.html" target="_top" xlink:title="2">
<text text-anchor="middle" x="175.44" y="-22.23" font-family="Helvetica,sans-Serif" font-size="10.00">2</text>
</a>
</g>
</g>
<!-- dir_1563a38af0d3a5e4a6330d6d45e9792a&#45;&gt;dir_aebb8dcc11953d78e620bbef0b9e2183 -->
<g id="edge15" class="edge">
<title>dir_1563a38af0d3a5e4a6330d6d45e9792a&#45;&gt;dir_aebb8dcc11953d78e620bbef0b9e2183</title>
<path fill="none" stroke="black" d="M141.61,-143.7C150.57,-134.97 162.5,-124.24 173.77,-114.75"/>
<polygon fill="black" stroke="black" points="176.33,-117.17 181.8,-108.1 171.86,-111.78 176.33,-117.17"/>
<g id="a_edge15&#45;headlabel"><a xlink:href="dir_000056_000030.html" target="_top" xlink:title="16">
<text text-anchor="middle" x="175.37" y="-119.15" font-family="Helvetica,sans-Serif" font-size="10.00">16</text>
</a>
</g>
</g>
<!-- dir_1563a38af0d3a5e4a6330d6d45e9792a&#45;&gt;dir_03f4a28f75b8e23e1d457d2da09125b3 -->
<g id="edge16" class="edge">
<title>dir_1563a38af0d3a5e4a6330d6d45e9792a&#45;&gt;dir_03f4a28f75b8e23e1d457d2da09125b3</title>
<path fill="none" stroke="black" d="M123.42,-143.87C120.86,-119.67 120.57,-75.21 122.54,-46.39"/>
<polygon fill="black" stroke="black" points="126.05,-46.45 123.41,-36.19 119.07,-45.86 126.05,-46.45"/>
<g id="a_edge16&#45;headlabel"><a xlink:href="dir_000056_000044.html" target="_top" xlink:title="16">
<text text-anchor="middle" x="128.57" y="-47.77" font-family="Helvetica,sans-Serif" font-size="10.00">16</text>
</a>
</g>
</g>
<!-- dir_c4d966a03ca6ea09f7a88bf957c27254&#45;&gt;dir_59b1e980a670de987a696efba6dbbdbc -->
<g id="edge17" class="edge">
<title>dir_c4d966a03ca6ea09f7a88bf957c27254&#45;&gt;dir_59b1e980a670de987a696efba6dbbdbc</title>
<path fill="none" stroke="black" d="M239.57,-287.7C247.2,-279.22 256.52,-268.86 264.88,-259.58"/>
<polygon fill="black" stroke="black" points="267.52,-261.88 271.61,-252.1 262.31,-257.2 267.52,-261.88"/>
<g id="a_edge17&#45;headlabel"><a xlink:href="dir_000026_000045.html" target="_top" xlink:title="1">
<text text-anchor="middle" x="267.22" y="-263.95" font-family="Helvetica,sans-Serif" font-size="10.00">1</text>
</a>
</g>
</g>
<!-- dir_c4d966a03ca6ea09f7a88bf957c27254&#45;&gt;dir_1563a38af0d3a5e4a6330d6d45e9792a -->
<g id="edge18" class="edge">
<title>dir_c4d966a03ca6ea09f7a88bf957c27254&#45;&gt;dir_1563a38af0d3a5e4a6330d6d45e9792a</title>
<path fill="none" stroke="black" d="M212.42,-287.87C195.7,-263.14 164.67,-217.24 145.25,-188.51"/>
<polygon fill="black" stroke="black" points="148.12,-186.51 139.62,-180.19 142.32,-190.43 148.12,-186.51"/>
<g id="a_edge18&#45;headlabel"><a xlink:href="dir_000026_000056.html" target="_top" xlink:title="79">
<text text-anchor="middle" x="152.49" y="-185.4" font-family="Helvetica,sans-Serif" font-size="10.00">79</text>
</a>
</g>
</g>
<!-- dir_c4d966a03ca6ea09f7a88bf957c27254&#45;&gt;dir_aebb8dcc11953d78e620bbef0b9e2183 -->
<g id="edge19" class="edge">
<title>dir_c4d966a03ca6ea09f7a88bf957c27254&#45;&gt;dir_aebb8dcc11953d78e620bbef0b9e2183</title>
<path fill="none" stroke="black" d="M222.64,-287.85C219.7,-250.83 212.73,-163.18 209.18,-118.39"/>
<polygon fill="black" stroke="black" points="212.65,-117.92 208.37,-108.23 205.67,-118.48 212.65,-117.92"/>
<g id="a_edge19&#45;headlabel"><a xlink:href="dir_000026_000030.html" target="_top" xlink:title="120">
<text text-anchor="middle" x="215.76" y="-118.78" font-family="Helvetica,sans-Serif" font-size="10.00">120</text>
</a>
</g>
</g>
<!-- dir_c4d966a03ca6ea09f7a88bf957c27254&#45;&gt;dir_03f4a28f75b8e23e1d457d2da09125b3 -->
<g id="edge20" class="edge">
<title>dir_c4d966a03ca6ea09f7a88bf957c27254&#45;&gt;dir_03f4a28f75b8e23e1d457d2da09125b3</title>
<path fill="none" stroke="black" d="M194.29,-287.94C161.71,-267.25 111.47,-228.98 92,-180 73.89,-134.46 96.07,-77.87 112.78,-45.35"/>
<polygon fill="black" stroke="black" points="115.9,-46.92 117.52,-36.45 109.73,-43.63 115.9,-46.92"/>
<g id="a_edge20&#45;headlabel"><a xlink:href="dir_000026_000044.html" target="_top" xlink:title="19">
<text text-anchor="middle" x="116.72" y="-48.93" font-family="Helvetica,sans-Serif" font-size="10.00">19</text>
</a>
</g>
</g>
<!-- dir_aebb8dcc11953d78e620bbef0b9e2183&#45;&gt;dir_59b1e980a670de987a696efba6dbbdbc -->
<g id="edge21" class="edge">
<title>dir_aebb8dcc11953d78e620bbef0b9e2183&#45;&gt;dir_59b1e980a670de987a696efba6dbbdbc</title>
<path fill="none" stroke="black" d="M221.27,-108.19C237.7,-132.74 263.49,-178.07 277.62,-206.81"/>
<polygon fill="black" stroke="black" points="274.48,-208.35 281.93,-215.87 280.8,-205.34 274.48,-208.35"/>
<g id="a_edge21&#45;headlabel"><a xlink:href="dir_000030_000045.html" target="_top" xlink:title="4">
<text text-anchor="middle" x="270.37" y="-203.82" font-family="Helvetica,sans-Serif" font-size="10.00">4</text>
</a>
</g>
</g>
<!-- dir_aebb8dcc11953d78e620bbef0b9e2183&#45;&gt;dir_1563a38af0d3a5e4a6330d6d45e9792a -->
<g id="edge22" class="edge">
<title>dir_aebb8dcc11953d78e620bbef0b9e2183&#45;&gt;dir_1563a38af0d3a5e4a6330d6d45e9792a</title>
<path fill="none" stroke="black" d="M193.59,-108.1C184.6,-116.89 172.54,-127.73 161.16,-137.31"/>
<polygon fill="black" stroke="black" points="158.92,-134.62 153.44,-143.7 163.38,-140.02 158.92,-134.62"/>
<g id="a_edge22&#45;headlabel"><a xlink:href="dir_000030_000056.html" target="_top" xlink:title="187">
<text text-anchor="middle" x="159.88" y="-127.65" font-family="Helvetica,sans-Serif" font-size="10.00">187</text>
</a>
</g>
</g>
<!-- dir_aebb8dcc11953d78e620bbef0b9e2183&#45;&gt;dir_03f4a28f75b8e23e1d457d2da09125b3 -->
<g id="edge23" class="edge">
<title>dir_aebb8dcc11953d78e620bbef0b9e2183&#45;&gt;dir_03f4a28f75b8e23e1d457d2da09125b3</title>
<path fill="none" stroke="black" d="M187.47,-71.7C177.62,-62.97 165.51,-52.24 154.8,-42.75"/>
<polygon fill="black" stroke="black" points="157.11,-40.12 147.3,-36.1 152.47,-45.36 157.11,-40.12"/>
<g id="a_edge23&#45;headlabel"><a xlink:href="dir_000030_000044.html" target="_top" xlink:title="13">
<text text-anchor="middle" x="161.68" y="-37.88" font-family="Helvetica,sans-Serif" font-size="10.00">13</text>
</a>
</g>
</g>
<!-- dir_03f4a28f75b8e23e1d457d2da09125b3&#45;&gt;dir_1563a38af0d3a5e4a6330d6d45e9792a -->
<g id="edge24" class="edge">
<title>dir_03f4a28f75b8e23e1d457d2da09125b3&#45;&gt;dir_1563a38af0d3a5e4a6330d6d45e9792a</title>
<path fill="none" stroke="black" d="M132.59,-36.19C135.15,-60.42 135.43,-104.89 133.45,-133.68"/>
<polygon fill="black" stroke="black" points="129.95,-133.61 132.58,-143.87 136.92,-134.21 129.95,-133.61"/>
<g id="a_edge24&#45;headlabel"><a xlink:href="dir_000044_000056.html" target="_top" xlink:title="6">
<text text-anchor="middle" x="127.42" y="-127.29" font-family="Helvetica,sans-Serif" font-size="10.00">6</text>
</a>
</g>
</g>
</g>
</svg>
