<?xml version="1.0" encoding="UTF-8" standalone="no"?>
<!DOCTYPE svg PUBLIC "-//W3C//DTD SVG 1.1//EN"
 "http://www.w3.org/Graphics/SVG/1.1/DTD/svg11.dtd">
<!-- Generated by graphviz version 2.43.0 (0)
 -->
<!-- Title: src/modules/smtp Pages: 1 -->
<svg width="128pt" height="295pt"
 viewBox="0.00 0.00 127.79 295.00" xmlns="http://www.w3.org/2000/svg" xmlns:xlink="http://www.w3.org/1999/xlink">
<g id="graph0" class="graph" transform="scale(1 1) rotate(0) translate(4 291)">
<title>src/modules/smtp</title>
<polygon fill="white" stroke="transparent" points="-4,4 -4,-291 123.79,-291 123.79,4 -4,4"/>
<g id="clust1" class="cluster">
<title>clusterdir_ddb4d7e95cc2d6c8e1ade10a20d7247d</title>
<g id="a_clust1"><a xlink:href="dir_ddb4d7e95cc2d6c8e1ade10a20d7247d.html" target="_top" xlink:title="modules">
<polygon fill="#ddddee" stroke="black" points="33,-208 33,-279 103,-279 103,-208 33,-208"/>
<text text-anchor="middle" x="68" y="-267" font-family="Helvetica,sans-Serif" font-size="10.00">modules</text>
</a>
</g>
</g>
<!-- dir_827a24ddff81de77e35e919a730f1229 -->
<g id="node1" class="node">
<title>dir_827a24ddff81de77e35e919a730f1229</title>
<g id="a_node1"><a xlink:href="dir_827a24ddff81de77e35e919a730f1229.html" target="_top" xlink:title="smtp">
<polygon fill="#eeeeff" stroke="black" points="95,-252 41,-252 41,-216 95,-216 95,-252"/>
<text text-anchor="middle" x="68" y="-231.5" font-family="Helvetica,sans-Serif" font-size="10.00">smtp</text>
</a>
</g>
</g>
<!-- dir_1563a38af0d3a5e4a6330d6d45e9792a -->
<g id="node2" class="node">
<title>dir_1563a38af0d3a5e4a6330d6d45e9792a</title>
<g id="a_node2"><a xlink:href="dir_1563a38af0d3a5e4a6330d6d45e9792a.html" target="_top" xlink:title="tools">
<polygon fill="white" stroke="red" points="54,-108 0,-108 0,-72 54,-72 54,-108"/>
<text text-anchor="middle" x="27" y="-87.5" font-family="Helvetica,sans-Serif" font-size="10.00">tools</text>
</a>
</g>
</g>
<!-- dir_827a24ddff81de77e35e919a730f1229&#45;&gt;dir_1563a38af0d3a5e4a6330d6d45e9792a -->
<g id="edge1" class="edge">
<title>dir_827a24ddff81de77e35e919a730f1229&#45;&gt;dir_1563a38af0d3a5e4a6330d6d45e9792a</title>
<path fill="none" stroke="black" d="M46.29,-215.79C36.24,-206.41 25.36,-193.9 20,-180 12.36,-160.17 14.91,-136.06 18.93,-117.93"/>
<polygon fill="black" stroke="black" points="22.37,-118.58 21.39,-108.03 15.58,-116.89 22.37,-118.58"/>
<g id="a_edge1&#45;headlabel"><a xlink:href="dir_000019_000054.html" target="_top" xlink:title="14">
<text text-anchor="middle" x="24.26" y="-120.26" font-family="Helvetica,sans-Serif" font-size="10.00">14</text>
</a>
</g>
</g>
<!-- dir_c4d966a03ca6ea09f7a88bf957c27254 -->
<g id="node3" class="node">
<title>dir_c4d966a03ca6ea09f7a88bf957c27254</title>
<g id="a_node3"><a xlink:href="dir_c4d966a03ca6ea09f7a88bf957c27254.html" target="_top" xlink:title="websock&#45;api">
<polygon fill="white" stroke="red" points="107,-180 29,-180 29,-144 107,-144 107,-180"/>
<text text-anchor="middle" x="68" y="-159.5" font-family="Helvetica,sans-Serif" font-size="10.00">websock&#45;api</text>
</a>
</g>
</g>
<!-- dir_827a24ddff81de77e35e919a730f1229&#45;&gt;dir_c4d966a03ca6ea09f7a88bf957c27254 -->
<g id="edge2" class="edge">
<title>dir_827a24ddff81de77e35e919a730f1229&#45;&gt;dir_c4d966a03ca6ea09f7a88bf957c27254</title>
<path fill="none" stroke="black" d="M68,-215.7C68,-207.98 68,-198.71 68,-190.11"/>
<polygon fill="black" stroke="black" points="71.5,-190.1 68,-180.1 64.5,-190.1 71.5,-190.1"/>
<g id="a_edge2&#45;headlabel"><a xlink:href="dir_000019_000024.html" target="_top" xlink:title="5">
<text text-anchor="middle" x="74.34" y="-191.2" font-family="Helvetica,sans-Serif" font-size="10.00">5</text>
</a>
</g>
</g>
<!-- dir_aebb8dcc11953d78e620bbef0b9e2183 -->
<g id="node4" class="node">
<title>dir_aebb8dcc11953d78e620bbef0b9e2183</title>
<g id="a_node4"><a xlink:href="dir_aebb8dcc11953d78e620bbef0b9e2183.html" target="_top" xlink:title="core">
<polygon fill="white" stroke="red" points="81,-36 27,-36 27,0 81,0 81,-36"/>
<text text-anchor="middle" x="54" y="-15.5" font-family="Helvetica,sans-Serif" font-size="10.00">core</text>
</a>
</g>
</g>
<!-- dir_827a24ddff81de77e35e919a730f1229&#45;&gt;dir_aebb8dcc11953d78e620bbef0b9e2183 -->
<g id="edge3" class="edge">
<title>dir_827a24ddff81de77e35e919a730f1229&#45;&gt;dir_aebb8dcc11953d78e620bbef0b9e2183</title>
<path fill="none" stroke="black" d="M89.71,-215.79C99.76,-206.41 110.64,-193.9 116,-180 121.76,-165.07 119.65,-159.58 116,-144 107.42,-107.4 86.46,-69.24 71.28,-44.86"/>
<polygon fill="black" stroke="black" points="74.11,-42.78 65.79,-36.23 68.2,-46.54 74.11,-42.78"/>
<g id="a_edge3&#45;headlabel"><a xlink:href="dir_000019_000028.html" target="_top" xlink:title="12">
<text text-anchor="middle" x="78.43" y="-41.79" font-family="Helvetica,sans-Serif" font-size="10.00">12</text>
</a>
</g>
</g>
<!-- dir_1563a38af0d3a5e4a6330d6d45e9792a&#45;&gt;dir_aebb8dcc11953d78e620bbef0b9e2183 -->
<g id="edge4" class="edge">
<title>dir_1563a38af0d3a5e4a6330d6d45e9792a&#45;&gt;dir_aebb8dcc11953d78e620bbef0b9e2183</title>
<path fill="none" stroke="black" d="M27.76,-71.7C30.01,-63.73 33.51,-54.1 37.31,-45.26"/>
<polygon fill="black" stroke="black" points="40.52,-46.65 41.51,-36.1 34.16,-43.74 40.52,-46.65"/>
<g id="a_edge4&#45;headlabel"><a xlink:href="dir_000054_000028.html" target="_top" xlink:title="16">
<text text-anchor="middle" x="41.61" y="-48.6" font-family="Helvetica,sans-Serif" font-size="10.00">16</text>
</a>
</g>
</g>
<!-- dir_c4d966a03ca6ea09f7a88bf957c27254&#45;&gt;dir_1563a38af0d3a5e4a6330d6d45e9792a -->
<g id="edge5" class="edge">
<title>dir_c4d966a03ca6ea09f7a88bf957c27254&#45;&gt;dir_1563a38af0d3a5e4a6330d6d45e9792a</title>
<path fill="none" stroke="black" d="M57.87,-143.7C53.15,-135.64 47.44,-125.89 42.22,-116.98"/>
<polygon fill="black" stroke="black" points="45.09,-114.96 37.02,-108.1 39.05,-118.5 45.09,-114.96"/>
<g id="a_edge5&#45;headlabel"><a xlink:href="dir_000024_000054.html" target="_top" xlink:title="79">
<text text-anchor="middle" x="49.36" y="-114.13" font-family="Helvetica,sans-Serif" font-size="10.00">79</text>
</a>
</g>
</g>
<!-- dir_c4d966a03ca6ea09f7a88bf957c27254&#45;&gt;dir_aebb8dcc11953d78e620bbef0b9e2183 -->
<g id="edge6" class="edge">
<title>dir_c4d966a03ca6ea09f7a88bf957c27254&#45;&gt;dir_aebb8dcc11953d78e620bbef0b9e2183</title>
<path fill="none" stroke="black" d="M67.61,-143.89C67.06,-125.94 65.81,-96.91 63,-72 62.05,-63.52 60.62,-54.34 59.19,-46.04"/>
<polygon fill="black" stroke="black" points="62.62,-45.34 57.41,-36.12 55.73,-46.58 62.62,-45.34"/>
<g id="a_edge6&#45;headlabel"><a xlink:href="dir_000024_000028.html" target="_top" xlink:title="120">
<text text-anchor="middle" x="66.05" y="-45.87" font-family="Helvetica,sans-Serif" font-size="10.00">120</text>
</a>
</g>
</g>
<!-- dir_aebb8dcc11953d78e620bbef0b9e2183&#45;&gt;dir_1563a38af0d3a5e4a6330d6d45e9792a -->
<g id="edge7" class="edge">
<title>dir_aebb8dcc11953d78e620bbef0b9e2183&#45;&gt;dir_1563a38af0d3a5e4a6330d6d45e9792a</title>
<path fill="none" stroke="black" d="M53.3,-36.1C51.07,-44.04 47.58,-53.67 43.79,-62.51"/>
<polygon fill="black" stroke="black" points="40.56,-61.15 39.59,-71.7 46.93,-64.06 40.56,-61.15"/>
<g id="a_edge7&#45;headlabel"><a xlink:href="dir_000028_000054.html" target="_top" xlink:title="187">
<text text-anchor="middle" x="39.47" y="-54.2" font-family="Helvetica,sans-Serif" font-size="10.00">187</text>
</a>
</g>
</g>
</g>
</svg>
