<?xml version="1.0" encoding="UTF-8" standalone="no"?>
<!DOCTYPE svg PUBLIC "-//W3C//DTD SVG 1.1//EN"
 "http://www.w3.org/Graphics/SVG/1.1/DTD/svg11.dtd">
<!-- Generated by graphviz version 2.43.0 (0)
 -->
<!-- Title: src/modules/websock&#45;api/api/update&#45;management Pages: 1 -->
<svg width="160pt" height="223pt"
 viewBox="0.00 0.00 160.00 223.00" xmlns="http://www.w3.org/2000/svg" xmlns:xlink="http://www.w3.org/1999/xlink">
<g id="graph0" class="graph" transform="scale(1 1) rotate(0) translate(4 219)">
<title>src/modules/websock&#45;api/api/update&#45;management</title>
<polygon fill="white" stroke="transparent" points="-4,4 -4,-219 156,-219 156,4 -4,4"/>
<g id="clust1" class="cluster">
<title>clusterdir_0fc26247198d2bb35f7fe46305736d1c</title>
<g id="a_clust1"><a xlink:href="dir_0fc26247198d2bb35f7fe46305736d1c.html" target="_top" xlink:title="api">
<polygon fill="#ddddee" stroke="black" points="8,-136 8,-207 144,-207 144,-136 8,-136"/>
<text text-anchor="middle" x="76" y="-195" font-family="Helvetica,sans-Serif" font-size="10.00">api</text>
</a>
</g>
</g>
<!-- dir_ebd7308ffd8873c7603937e049b213b2 -->
<g id="node1" class="node">
<title>dir_ebd7308ffd8873c7603937e049b213b2</title>
<g id="a_node1"><a xlink:href="dir_ebd7308ffd8873c7603937e049b213b2.html" target="_top" xlink:title="update&#45;management">
<polygon fill="#eeeeff" stroke="black" points="135.5,-180 16.5,-180 16.5,-144 135.5,-144 135.5,-180"/>
<text text-anchor="middle" x="76" y="-159.5" font-family="Helvetica,sans-Serif" font-size="10.00">update&#45;management</text>
</a>
</g>
</g>
<!-- dir_1563a38af0d3a5e4a6330d6d45e9792a -->
<g id="node2" class="node">
<title>dir_1563a38af0d3a5e4a6330d6d45e9792a</title>
<g id="a_node2"><a xlink:href="dir_1563a38af0d3a5e4a6330d6d45e9792a.html" target="_top" xlink:title="tools">
<polygon fill="white" stroke="red" points="75,-108 21,-108 21,-72 75,-72 75,-108"/>
<text text-anchor="middle" x="48" y="-87.5" font-family="Helvetica,sans-Serif" font-size="10.00">tools</text>
</a>
</g>
</g>
<!-- dir_ebd7308ffd8873c7603937e049b213b2&#45;&gt;dir_1563a38af0d3a5e4a6330d6d45e9792a -->
<g id="edge1" class="edge">
<title>dir_ebd7308ffd8873c7603937e049b213b2&#45;&gt;dir_1563a38af0d3a5e4a6330d6d45e9792a</title>
<path fill="none" stroke="black" d="M69.08,-143.7C65.93,-135.81 62.12,-126.3 58.62,-117.55"/>
<polygon fill="black" stroke="black" points="61.81,-116.09 54.84,-108.1 55.31,-118.69 61.81,-116.09"/>
<g id="a_edge1&#45;headlabel"><a xlink:href="dir_000054_000056.html" target="_top" xlink:title="4">
<text text-anchor="middle" x="65.78" y="-115.87" font-family="Helvetica,sans-Serif" font-size="10.00">4</text>
</a>
</g>
</g>
<!-- dir_aebb8dcc11953d78e620bbef0b9e2183 -->
<g id="node3" class="node">
<title>dir_aebb8dcc11953d78e620bbef0b9e2183</title>
<g id="a_node3"><a xlink:href="dir_aebb8dcc11953d78e620bbef0b9e2183.html" target="_top" xlink:title="core">
<polygon fill="white" stroke="red" points="75,-36 21,-36 21,0 75,0 75,-36"/>
<text text-anchor="middle" x="48" y="-15.5" font-family="Helvetica,sans-Serif" font-size="10.00">core</text>
</a>
</g>
</g>
<!-- dir_ebd7308ffd8873c7603937e049b213b2&#45;&gt;dir_aebb8dcc11953d78e620bbef0b9e2183 -->
<g id="edge2" class="edge">
<title>dir_ebd7308ffd8873c7603937e049b213b2&#45;&gt;dir_aebb8dcc11953d78e620bbef0b9e2183</title>
<path fill="none" stroke="black" d="M81.34,-143.87C86.16,-125.64 91.43,-96.17 84,-72 80.99,-62.22 75.49,-52.62 69.68,-44.33"/>
<polygon fill="black" stroke="black" points="72.41,-42.13 63.61,-36.23 66.81,-46.33 72.41,-42.13"/>
<g id="a_edge2&#45;headlabel"><a xlink:href="dir_000054_000030.html" target="_top" xlink:title="23">
<text text-anchor="middle" x="76.83" y="-40.8" font-family="Helvetica,sans-Serif" font-size="10.00">23</text>
</a>
</g>
</g>
<!-- dir_1563a38af0d3a5e4a6330d6d45e9792a&#45;&gt;dir_aebb8dcc11953d78e620bbef0b9e2183 -->
<g id="edge3" class="edge">
<title>dir_1563a38af0d3a5e4a6330d6d45e9792a&#45;&gt;dir_aebb8dcc11953d78e620bbef0b9e2183</title>
<path fill="none" stroke="black" d="M42.08,-71.7C41.29,-63.98 41.06,-54.71 41.4,-46.11"/>
<polygon fill="black" stroke="black" points="44.9,-46.32 42.1,-36.1 37.92,-45.84 44.9,-46.32"/>
<g id="a_edge3&#45;headlabel"><a xlink:href="dir_000056_000030.html" target="_top" xlink:title="16">
<text text-anchor="middle" x="47.48" y="-47.61" font-family="Helvetica,sans-Serif" font-size="10.00">16</text>
</a>
</g>
</g>
<!-- dir_aebb8dcc11953d78e620bbef0b9e2183&#45;&gt;dir_1563a38af0d3a5e4a6330d6d45e9792a -->
<g id="edge4" class="edge">
<title>dir_aebb8dcc11953d78e620bbef0b9e2183&#45;&gt;dir_1563a38af0d3a5e4a6330d6d45e9792a</title>
<path fill="none" stroke="black" d="M53.9,-36.1C54.7,-43.79 54.94,-53.05 54.6,-61.67"/>
<polygon fill="black" stroke="black" points="51.11,-61.48 53.92,-71.7 58.09,-61.96 51.11,-61.48"/>
<g id="a_edge4&#45;headlabel"><a xlink:href="dir_000030_000056.html" target="_top" xlink:title="187">
<text text-anchor="middle" x="48.52" y="-55.2" font-family="Helvetica,sans-Serif" font-size="10.00">187</text>
</a>
</g>
</g>
</g>
</svg>
