<?xml version="1.0" encoding="UTF-8" standalone="no"?>
<!DOCTYPE svg PUBLIC "-//W3C//DTD SVG 1.1//EN"
 "http://www.w3.org/Graphics/SVG/1.1/DTD/svg11.dtd">
<!-- Generated by graphviz version 2.43.0 (0)
 -->
<!-- Title: Graphical Class Hierarchy Pages: 1 -->
<svg width="410pt" height="28pt"
 viewBox="0.00 0.00 410.00 28.00" xmlns="http://www.w3.org/2000/svg" xmlns:xlink="http://www.w3.org/1999/xlink">
<g id="graph0" class="graph" transform="scale(1 1) rotate(0) translate(4 24)">
<title>Graphical Class Hierarchy</title>
<polygon fill="white" stroke="transparent" points="-4,4 -4,-24 406,-24 406,4 -4,4"/>
<!-- Node65 -->
<g id="node1" class="node">
<title>Node65</title>
<g id="a_node1"><a xlink:title=" ">
<polygon fill="white" stroke="#bfbfbf" points="0,-0.5 0,-19.5 45,-19.5 45,-0.5 0,-0.5"/>
<text text-anchor="middle" x="22.5" y="-7.5" font-family="Helvetica,sans-Serif" font-size="10.00">tracer</text>
</a>
</g>
</g>
<!-- Node0 -->
<g id="node2" class="node">
<title>Node0</title>
<g id="a_node2"><a xlink:href="d7/d49/classLeosac_1_1db_1_1DatabaseTracer.html" target="_top" xlink:title="A Leosac specific base class for tracing database operation.">
<polygon fill="white" stroke="black" points="81,-0.5 81,-19.5 231,-19.5 231,-0.5 81,-0.5"/>
<text text-anchor="middle" x="156" y="-7.5" font-family="Helvetica,sans-Serif" font-size="10.00">Leosac::db::DatabaseTracer</text>
</a>
</g>
</g>
<!-- Node65&#45;&gt;Node0 -->
<g id="edge1" class="edge">
<title>Node65&#45;&gt;Node0</title>
<path fill="none" stroke="midnightblue" d="M55.33,-10C63.21,-10 71.98,-10 80.96,-10"/>
<polygon fill="midnightblue" stroke="midnightblue" points="55.21,-6.5 45.21,-10 55.21,-13.5 55.21,-6.5"/>
</g>
<!-- Node1 -->
<g id="node3" class="node">
<title>Node1</title>
<g id="a_node3"><a xlink:href="d5/dc2/classLeosac_1_1db_1_1PGSQLTracer.html" target="_top" xlink:title="An implementation of odb::tracer that use the logging infrastructure of Leosac.">
<polygon fill="white" stroke="black" points="267,-0.5 267,-19.5 402,-19.5 402,-0.5 267,-0.5"/>
<text text-anchor="middle" x="334.5" y="-7.5" font-family="Helvetica,sans-Serif" font-size="10.00">Leosac::db::PGSQLTracer</text>
</a>
</g>
</g>
<!-- Node0&#45;&gt;Node1 -->
<g id="edge2" class="edge">
<title>Node0&#45;&gt;Node1</title>
<path fill="none" stroke="midnightblue" d="M241.18,-10C249.81,-10 258.5,-10 266.91,-10"/>
<polygon fill="midnightblue" stroke="midnightblue" points="241.08,-6.5 231.08,-10 241.08,-13.5 241.08,-6.5"/>
</g>
</g>
</svg>
