<?xml version="1.0" encoding="UTF-8" standalone="no"?>
<!DOCTYPE svg PUBLIC "-//W3C//DTD SVG 1.1//EN"
 "http://www.w3.org/Graphics/SVG/1.1/DTD/svg11.dtd">
<!-- Generated by graphviz version 2.43.0 (0)
 -->
<!-- Title: Graphical Class Hierarchy Pages: 1 -->
<svg width="478pt" height="253pt"
 viewBox="0.00 0.00 478.00 253.00" xmlns="http://www.w3.org/2000/svg" xmlns:xlink="http://www.w3.org/1999/xlink">
<g id="graph0" class="graph" transform="scale(1 1) rotate(0) translate(4 249)">
<title>Graphical Class Hierarchy</title>
<polygon fill="white" stroke="transparent" points="-4,4 -4,-249 474,-249 474,4 -4,4"/>
<!-- Node71 -->
<g id="node1" class="node">
<title>Node71</title>
<g id="a_node1"><a xlink:title=" ">
<polygon fill="white" stroke="#bfbfbf" points="0,-115.5 0,-134.5 36,-134.5 36,-115.5 0,-115.5"/>
<text text-anchor="middle" x="18" y="-122.5" font-family="Helvetica,sans-Serif" font-size="10.00">Test</text>
</a>
</g>
</g>
<!-- Node0 -->
<g id="node2" class="node">
<title>Node0</title>
<g id="a_node2"><a xlink:href="d5/d85/classLeosac_1_1Test_1_1AuthFileMapperTest.html" target="_top" xlink:title="Test the mapping of wiegand&#45;card to user from a file.">
<polygon fill="white" stroke="black" points="74.5,-225.5 74.5,-244.5 252.5,-244.5 252.5,-225.5 74.5,-225.5"/>
<text text-anchor="middle" x="163.5" y="-232.5" font-family="Helvetica,sans-Serif" font-size="10.00">Leosac::Test::AuthFileMapperTest</text>
</a>
</g>
</g>
<!-- Node71&#45;&gt;Node0 -->
<g id="edge1" class="edge">
<title>Node71&#45;&gt;Node0</title>
<path fill="none" stroke="midnightblue" d="M24.93,-144.26C32.42,-165.26 47.4,-198.24 72,-216 77.34,-219.85 83.29,-222.96 89.51,-225.46"/>
<polygon fill="midnightblue" stroke="midnightblue" points="28.25,-143.15 21.76,-134.77 21.61,-145.37 28.25,-143.15"/>
</g>
<!-- Node73 -->
<g id="node3" class="node">
<title>Node73</title>
<g id="a_node3"><a xlink:href="d4/d8d/classLeosac_1_1Test_1_1AuthSourceBuilderTest.html" target="_top" xlink:title="Test the AuthSourceBuilder ability to create AuthSource object from messages.">
<polygon fill="white" stroke="black" points="95,-176 95,-206 232,-206 232,-176 95,-176"/>
<text text-anchor="start" x="103" y="-194" font-family="Helvetica,sans-Serif" font-size="10.00">Leosac::Test::AuthSource</text>
<text text-anchor="middle" x="163.5" y="-183" font-family="Helvetica,sans-Serif" font-size="10.00">BuilderTest</text>
</a>
</g>
</g>
<!-- Node71&#45;&gt;Node73 -->
<g id="edge2" class="edge">
<title>Node71&#45;&gt;Node73</title>
<path fill="none" stroke="midnightblue" d="M36.88,-141.68C46.63,-150.01 59.29,-159.64 72,-166 79.58,-169.79 87.81,-173.08 96.13,-175.9"/>
<polygon fill="midnightblue" stroke="midnightblue" points="38.93,-138.82 29.13,-134.81 34.29,-144.06 38.93,-138.82"/>
</g>
<!-- Node74 -->
<g id="node4" class="node">
<title>Node74</title>
<g id="a_node4"><a xlink:href="d4/d32/classLeosac_1_1Test_1_1ConfigManagerTest.html" target="_top" xlink:title=" ">
<polygon fill="white" stroke="black" points="76,-137.5 76,-156.5 251,-156.5 251,-137.5 76,-137.5"/>
<text text-anchor="middle" x="163.5" y="-144.5" font-family="Helvetica,sans-Serif" font-size="10.00">Leosac::Test::ConfigManagerTest</text>
</a>
</g>
</g>
<!-- Node71&#45;&gt;Node74 -->
<g id="edge3" class="edge">
<title>Node71&#45;&gt;Node74</title>
<path fill="none" stroke="midnightblue" d="M46.32,-129.19C61.64,-131.54 81.43,-134.57 100.31,-137.47"/>
<polygon fill="midnightblue" stroke="midnightblue" points="46.44,-125.67 36.02,-127.61 45.38,-132.59 46.44,-125.67"/>
</g>
<!-- Node75 -->
<g id="node5" class="node">
<title>Node75</title>
<g id="a_node5"><a xlink:href="d7/d76/classLeosac_1_1Test_1_1Helper_1_1TestHelper.html" target="_top" xlink:title="Base class for test fixtures, it defines a ZMQ context, a BUS and a sub socket connect to the bus.">
<polygon fill="white" stroke="black" points="106.5,-88 106.5,-118 220.5,-118 220.5,-88 106.5,-88"/>
<text text-anchor="start" x="114.5" y="-106" font-family="Helvetica,sans-Serif" font-size="10.00">Leosac::Test::Helper</text>
<text text-anchor="middle" x="163.5" y="-95" font-family="Helvetica,sans-Serif" font-size="10.00">::TestHelper</text>
</a>
</g>
</g>
<!-- Node71&#45;&gt;Node75 -->
<g id="edge4" class="edge">
<title>Node71&#45;&gt;Node75</title>
<path fill="none" stroke="midnightblue" d="M46.33,-120.81C63.34,-118.2 85.83,-114.75 106.5,-111.59"/>
<polygon fill="midnightblue" stroke="midnightblue" points="45.38,-117.41 36.02,-122.39 46.44,-124.33 45.38,-117.41"/>
</g>
<!-- Node79 -->
<g id="node9" class="node">
<title>Node79</title>
<g id="a_node9"><a xlink:href="d1/d5e/classLeosac_1_1Test_1_1RemoteControlSecurityTest.html" target="_top" xlink:title=" ">
<polygon fill="white" stroke="black" points="86,-39 86,-69 241,-69 241,-39 86,-39"/>
<text text-anchor="start" x="94" y="-57" font-family="Helvetica,sans-Serif" font-size="10.00">Leosac::Test::RemoteControl</text>
<text text-anchor="middle" x="163.5" y="-46" font-family="Helvetica,sans-Serif" font-size="10.00">SecurityTest</text>
</a>
</g>
</g>
<!-- Node71&#45;&gt;Node79 -->
<g id="edge8" class="edge">
<title>Node71&#45;&gt;Node79</title>
<path fill="none" stroke="midnightblue" d="M34.42,-107.77C44.26,-97.74 57.8,-85.61 72,-78 78.3,-74.62 85.11,-71.69 92.07,-69.16"/>
<polygon fill="midnightblue" stroke="midnightblue" points="31.69,-105.56 27.38,-115.24 36.78,-110.36 31.69,-105.56"/>
</g>
<!-- Node80 -->
<g id="node10" class="node">
<title>Node80</title>
<g id="a_node10"><a xlink:href="d0/d53/classLeosac_1_1Test_1_1SysFsGpioConfigTest.html" target="_top" xlink:title="Note this class doesnt inherits the TestHelper class.">
<polygon fill="white" stroke="black" points="72,-0.5 72,-19.5 255,-19.5 255,-0.5 72,-0.5"/>
<text text-anchor="middle" x="163.5" y="-7.5" font-family="Helvetica,sans-Serif" font-size="10.00">Leosac::Test::SysFsGpioConfigTest</text>
</a>
</g>
</g>
<!-- Node71&#45;&gt;Node80 -->
<g id="edge9" class="edge">
<title>Node71&#45;&gt;Node80</title>
<path fill="none" stroke="midnightblue" d="M24.31,-105.68C31.42,-83.6 46.22,-48.06 72,-29 77.16,-25.18 82.92,-22.09 88.97,-19.6"/>
<polygon fill="midnightblue" stroke="midnightblue" points="20.94,-104.72 21.42,-115.31 27.65,-106.73 20.94,-104.72"/>
</g>
<!-- Node76 -->
<g id="node6" class="node">
<title>Node76</title>
<g id="a_node6"><a xlink:href="d3/db9/classLeosac_1_1Test_1_1LedTest.html" target="_top" xlink:title=" ">
<polygon fill="white" stroke="black" points="321,-131.5 321,-150.5 440,-150.5 440,-131.5 321,-131.5"/>
<text text-anchor="middle" x="380.5" y="-138.5" font-family="Helvetica,sans-Serif" font-size="10.00">Leosac::Test::LedTest</text>
</a>
</g>
</g>
<!-- Node75&#45;&gt;Node76 -->
<g id="edge5" class="edge">
<title>Node75&#45;&gt;Node76</title>
<path fill="none" stroke="midnightblue" d="M230.8,-114.72C261.18,-120.09 296.75,-126.37 325.47,-131.45"/>
<polygon fill="midnightblue" stroke="midnightblue" points="231.16,-111.23 220.71,-112.93 229.95,-118.12 231.16,-111.23"/>
</g>
<!-- Node77 -->
<g id="node7" class="node">
<title>Node77</title>
<g id="a_node7"><a xlink:href="d9/dd5/classLeosac_1_1Test_1_1RplethTest.html" target="_top" xlink:title=" ">
<polygon fill="white" stroke="black" points="314,-93.5 314,-112.5 447,-112.5 447,-93.5 314,-93.5"/>
<text text-anchor="middle" x="380.5" y="-100.5" font-family="Helvetica,sans-Serif" font-size="10.00">Leosac::Test::RplethTest</text>
</a>
</g>
</g>
<!-- Node75&#45;&gt;Node77 -->
<g id="edge6" class="edge">
<title>Node75&#45;&gt;Node77</title>
<path fill="none" stroke="midnightblue" d="M230.97,-103C257.28,-103 287.46,-103 313.7,-103"/>
<polygon fill="midnightblue" stroke="midnightblue" points="230.71,-99.5 220.71,-103 230.71,-106.5 230.71,-99.5"/>
</g>
<!-- Node78 -->
<g id="node8" class="node">
<title>Node78</title>
<g id="a_node8"><a xlink:href="d5/d2c/classLeosac_1_1Test_1_1WiegandReaderTest.html" target="_top" xlink:title=" ">
<polygon fill="white" stroke="black" points="291,-55.5 291,-74.5 470,-74.5 470,-55.5 291,-55.5"/>
<text text-anchor="middle" x="380.5" y="-62.5" font-family="Helvetica,sans-Serif" font-size="10.00">Leosac::Test::WiegandReaderTest</text>
</a>
</g>
</g>
<!-- Node75&#45;&gt;Node78 -->
<g id="edge7" class="edge">
<title>Node75&#45;&gt;Node78</title>
<path fill="none" stroke="midnightblue" d="M230.8,-91.28C261.18,-85.91 296.75,-79.63 325.47,-74.55"/>
<polygon fill="midnightblue" stroke="midnightblue" points="229.95,-87.88 220.71,-93.07 231.16,-94.77 229.95,-87.88"/>
</g>
</g>
</svg>
