<?xml version="1.0" encoding="UTF-8" standalone="no"?>
<!DOCTYPE svg PUBLIC "-//W3C//DTD SVG 1.1//EN"
 "http://www.w3.org/Graphics/SVG/1.1/DTD/svg11.dtd">
<!-- Generated by graphviz version 2.43.0 (0)
 -->
<!-- Title: src/tools/runtimeoptions.hpp Pages: 1 -->
<svg width="238pt" height="84pt"
 viewBox="0.00 0.00 238.00 84.00" xmlns="http://www.w3.org/2000/svg" xmlns:xlink="http://www.w3.org/1999/xlink">
<g id="graph0" class="graph" transform="scale(1 1) rotate(0) translate(4 80)">
<title>src/tools/runtimeoptions.hpp</title>
<polygon fill="white" stroke="transparent" points="-4,4 -4,-80 234,-80 234,4 -4,4"/>
<!-- Node1 -->
<g id="node1" class="node">
<title>Node1</title>
<g id="a_node1"><a xlink:title="RuntimeOptions class declaration.">
<polygon fill="#bfbfbf" stroke="black" points="40,-56.5 40,-75.5 196,-75.5 196,-56.5 40,-56.5"/>
<text text-anchor="middle" x="118" y="-63.5" font-family="Helvetica,sans-Serif" font-size="10.00">src/tools/runtimeoptions.hpp</text>
</a>
</g>
</g>
<!-- Node2 -->
<g id="node2" class="node">
<title>Node2</title>
<g id="a_node2"><a xlink:title=" ">
<polygon fill="white" stroke="#bfbfbf" points="0,-0.5 0,-19.5 44,-19.5 44,-0.5 0,-0.5"/>
<text text-anchor="middle" x="22" y="-7.5" font-family="Helvetica,sans-Serif" font-size="10.00">bitset</text>
</a>
</g>
</g>
<!-- Node1&#45;&gt;Node2 -->
<g id="edge1" class="edge">
<title>Node1&#45;&gt;Node2</title>
<path fill="none" stroke="midnightblue" d="M102.58,-56.32C87.46,-47.82 64.18,-34.73 46.53,-24.8"/>
<polygon fill="midnightblue" stroke="midnightblue" points="47.82,-21.51 37.39,-19.65 44.39,-27.61 47.82,-21.51"/>
</g>
<!-- Node3 -->
<g id="node3" class="node">
<title>Node3</title>
<g id="a_node3"><a xlink:title=" ">
<polygon fill="white" stroke="#bfbfbf" points="62,-0.5 62,-19.5 112,-19.5 112,-0.5 62,-0.5"/>
<text text-anchor="middle" x="87" y="-7.5" font-family="Helvetica,sans-Serif" font-size="10.00">cstdint</text>
</a>
</g>
</g>
<!-- Node1&#45;&gt;Node3 -->
<g id="edge2" class="edge">
<title>Node1&#45;&gt;Node3</title>
<path fill="none" stroke="midnightblue" d="M112.88,-56.08C108.59,-48.61 102.34,-37.72 97.06,-28.52"/>
<polygon fill="midnightblue" stroke="midnightblue" points="100.04,-26.68 92.02,-19.75 93.97,-30.17 100.04,-26.68"/>
</g>
<!-- Node4 -->
<g id="node4" class="node">
<title>Node4</title>
<g id="a_node4"><a xlink:title=" ">
<polygon fill="white" stroke="#bfbfbf" points="130,-0.5 130,-19.5 168,-19.5 168,-0.5 130,-0.5"/>
<text text-anchor="middle" x="149" y="-7.5" font-family="Helvetica,sans-Serif" font-size="10.00">map</text>
</a>
</g>
</g>
<!-- Node1&#45;&gt;Node4 -->
<g id="edge3" class="edge">
<title>Node1&#45;&gt;Node4</title>
<path fill="none" stroke="midnightblue" d="M123.12,-56.08C127.41,-48.61 133.66,-37.72 138.94,-28.52"/>
<polygon fill="midnightblue" stroke="midnightblue" points="142.03,-30.17 143.98,-19.75 135.96,-26.68 142.03,-30.17"/>
</g>
<!-- Node5 -->
<g id="node5" class="node">
<title>Node5</title>
<g id="a_node5"><a xlink:title=" ">
<polygon fill="white" stroke="#bfbfbf" points="186,-0.5 186,-19.5 230,-19.5 230,-0.5 186,-0.5"/>
<text text-anchor="middle" x="208" y="-7.5" font-family="Helvetica,sans-Serif" font-size="10.00">string</text>
</a>
</g>
</g>
<!-- Node1&#45;&gt;Node5 -->
<g id="edge4" class="edge">
<title>Node1&#45;&gt;Node5</title>
<path fill="none" stroke="midnightblue" d="M132.46,-56.32C146.5,-47.9 168.05,-34.97 184.54,-25.07"/>
<polygon fill="midnightblue" stroke="midnightblue" points="186.8,-27.8 193.58,-19.65 183.2,-21.8 186.8,-27.8"/>
</g>
</g>
</svg>
