<?xml version="1.0" encoding="UTF-8" standalone="no"?>
<!DOCTYPE svg PUBLIC "-//W3C//DTD SVG 1.1//EN"
 "http://www.w3.org/Graphics/SVG/1.1/DTD/svg11.dtd">
<!-- Generated by graphviz version 2.43.0 (0)
 -->
<!-- Title: src/core/audit/serializers/UpdateEventSerializer.cpp Pages: 1 -->
<!--zoomable 330 -->
<svg id="main" version="1.1" xmlns="http://www.w3.org/2000/svg" xmlns:xlink="http://www.w3.org/1999/xlink" xml:space="preserve" onload="init(evt)">
<style type="text/css"><![CDATA[
.edge:hover path { stroke: red; }
.edge:hover polygon { stroke: red; fill: red; }
]]></style>
<script type="text/javascript"><![CDATA[
var edges = document.getElementsByTagName('g');
if (edges && edges.length) {
  for (var i=0;i<edges.length;i++) {
    if (edges[i].id.substr(0,4)=='edge') {
      edges[i].setAttribute('class','edge');
    }
  }
}
]]></script>
        <defs>
                <circle id="rim" cx="0" cy="0" r="7"/>
                <circle id="rim2" cx="0" cy="0" r="3.5"/>
                <g id="zoomPlus">
                        <use xlink:href="#rim" fill="#404040">
                                <set attributeName="fill" to="#808080" begin="zoomplus.mouseover" end="zoomplus.mouseout"/>
                        </use>
                        <path d="M-4,0h8M0,-4v8" fill="none" stroke="white" stroke-width="1.5" pointer-events="none"/>
                </g>
                <g id="zoomMin">
                        <use xlink:href="#rim" fill="#404040">
                                <set attributeName="fill" to="#808080" begin="zoomminus.mouseover" end="zoomminus.mouseout"/>
                        </use>
                        <path d="M-4,0h8" fill="none" stroke="white" stroke-width="1.5" pointer-events="none"/>
                </g>
                <g id="dirArrow">
                        <path fill="none" stroke="white" stroke-width="1.5" d="M0,-3.0v7 M-2.5,-0.5L0,-3.0L2.5,-0.5"/>
                </g>
               <g id="resetDef">
                       <use xlink:href="#rim2" fill="#404040">
                               <set attributeName="fill" to="#808080" begin="reset.mouseover" end="reset.mouseout"/>
                       </use>
               </g>
        </defs>

<script type="text/javascript">
var viewWidth = 2006;
var viewHeight = 330;
var sectionId = 'dynsection-0';
</script>
<script xlink:href="../../svgpan.js"/>
<svg id="graph" class="graph">
<g id="viewport">
<title>src/core/audit/serializers/UpdateEventSerializer.cpp</title>
<polygon fill="white" stroke="transparent" points="-4,4 -4,-326 2001.76,-326 2001.76,4 -4,4"/>
<!-- Node1 -->
<g id="node1" class="node">
<title>Node1</title>
<g id="a_node1"><a xlink:title=" ">
<polygon fill="#bfbfbf" stroke="black" points="966.76,-291.5 966.76,-321.5 1114.76,-321.5 1114.76,-291.5 966.76,-291.5"/>
<text text-anchor="start" x="974.76" y="-309.5" font-family="Helvetica,sans-Serif" font-size="10.00">src/core/audit/serializers</text>
<text text-anchor="middle" x="1040.76" y="-298.5" font-family="Helvetica,sans-Serif" font-size="10.00">/UpdateEventSerializer.cpp</text>
</a>
</g>
</g>
<!-- Node2 -->
<g id="node2" class="node">
<title>Node2</title>
<g id="a_node2"><a xlink:href="../../d8/d52/UpdateEventSerializer_8hpp.html" target="_top" xlink:title=" ">
<polygon fill="white" stroke="black" points="80.76,-179.5 80.76,-198.5 226.76,-198.5 226.76,-179.5 80.76,-179.5"/>
<text text-anchor="middle" x="153.76" y="-186.5" font-family="Helvetica,sans-Serif" font-size="10.00">UpdateEventSerializer.hpp</text>
</a>
</g>
</g>
<!-- Node1&#45;&gt;Node2 -->
<g id="edge1" class="edge">
<title>Node1&#45;&gt;Node2</title>
<path fill="none" stroke="midnightblue" d="M966.55,-297.71C878.84,-288.33 728.53,-271.75 599.76,-255 463.92,-237.33 305.3,-213.43 218.58,-200.08"/>
<polygon fill="midnightblue" stroke="midnightblue" points="219.04,-196.61 208.62,-198.55 217.97,-203.53 219.04,-196.61"/>
</g>
<!-- Node12 -->
<g id="node12" class="node">
<title>Node12</title>
<g id="a_node12"><a xlink:href="../../df/da3/AuditSerializer_8hpp.html" target="_top" xlink:title=" ">
<polygon fill="white" stroke="black" points="244.76,-179.5 244.76,-198.5 352.76,-198.5 352.76,-179.5 244.76,-179.5"/>
<text text-anchor="middle" x="298.76" y="-186.5" font-family="Helvetica,sans-Serif" font-size="10.00">AuditSerializer.hpp</text>
</a>
</g>
</g>
<!-- Node1&#45;&gt;Node12 -->
<g id="edge12" class="edge">
<title>Node1&#45;&gt;Node12</title>
<path fill="none" stroke="midnightblue" d="M966.56,-293.95C821.01,-271.29 500.29,-221.37 363.09,-200.01"/>
<polygon fill="midnightblue" stroke="midnightblue" points="363.56,-196.54 353.14,-198.46 362.48,-203.46 363.56,-196.54"/>
</g>
<!-- Node13 -->
<g id="node13" class="node">
<title>Node13</title>
<g id="a_node13"><a xlink:href="../../d1/d3e/SecurityContext_8hpp.html" target="_top" xlink:title=" ">
<polygon fill="white" stroke="black" points="733.76,-179.5 733.76,-198.5 873.76,-198.5 873.76,-179.5 733.76,-179.5"/>
<text text-anchor="middle" x="803.76" y="-186.5" font-family="Helvetica,sans-Serif" font-size="10.00">core/SecurityContext.hpp</text>
</a>
</g>
</g>
<!-- Node1&#45;&gt;Node13 -->
<g id="edge17" class="edge">
<title>Node1&#45;&gt;Node13</title>
<path fill="none" stroke="midnightblue" d="M1011.7,-291.34C965.3,-268.72 875.13,-224.78 830.34,-202.95"/>
<polygon fill="midnightblue" stroke="midnightblue" points="831.77,-199.76 821.25,-198.52 828.71,-206.05 831.77,-199.76"/>
</g>
<!-- Node25 -->
<g id="node25" class="node">
<title>Node25</title>
<g id="a_node25"><a xlink:href="../../d0/d00/IUpdateEvent_8hpp.html" target="_top" xlink:title=" ">
<polygon fill="white" stroke="black" points="1042.26,-235.5 1042.26,-254.5 1197.26,-254.5 1197.26,-235.5 1042.26,-235.5"/>
<text text-anchor="middle" x="1119.76" y="-242.5" font-family="Helvetica,sans-Serif" font-size="10.00">core/audit/IUpdateEvent.hpp</text>
</a>
</g>
</g>
<!-- Node1&#45;&gt;Node25 -->
<g id="edge40" class="edge">
<title>Node1&#45;&gt;Node25</title>
<path fill="none" stroke="midnightblue" d="M1059.49,-291.4C1071.68,-282.22 1087.56,-270.26 1099.96,-260.92"/>
<polygon fill="midnightblue" stroke="midnightblue" points="1102.39,-263.47 1108.27,-254.66 1098.18,-257.88 1102.39,-263.47"/>
</g>
<!-- Node33 -->
<g id="node33" class="node">
<title>Node33</title>
<g id="a_node33"><a xlink:href="../../d7/d76/IUserEvent_8hpp.html" target="_top" xlink:title=" ">
<polygon fill="white" stroke="black" points="1256.26,-235.5 1256.26,-254.5 1399.26,-254.5 1399.26,-235.5 1256.26,-235.5"/>
<text text-anchor="middle" x="1327.76" y="-242.5" font-family="Helvetica,sans-Serif" font-size="10.00">core/audit/IUserEvent.hpp</text>
</a>
</g>
</g>
<!-- Node1&#45;&gt;Node33 -->
<g id="edge53" class="edge">
<title>Node1&#45;&gt;Node33</title>
<path fill="none" stroke="midnightblue" d="M1108.42,-291.47C1159.98,-280.78 1229.89,-266.29 1276.8,-256.57"/>
<polygon fill="midnightblue" stroke="midnightblue" points="1277.65,-259.96 1286.73,-254.51 1276.23,-253.11 1277.65,-259.96"/>
</g>
<!-- Node34 -->
<g id="node34" class="node">
<title>Node34</title>
<g id="a_node34"><a xlink:href="../../d4/d3d/log_8hpp.html" target="_top" xlink:title=" ">
<polygon fill="white" stroke="black" points="1672.76,-118 1672.76,-137 1752.76,-137 1752.76,-118 1672.76,-118"/>
<text text-anchor="middle" x="1712.76" y="-125" font-family="Helvetica,sans-Serif" font-size="10.00">tools/log.hpp</text>
</a>
</g>
</g>
<!-- Node1&#45;&gt;Node34 -->
<g id="edge56" class="edge">
<title>Node1&#45;&gt;Node34</title>
<path fill="none" stroke="midnightblue" d="M1114.84,-300.96C1189.97,-295.06 1309.04,-282.1 1408.76,-255 1516.3,-225.78 1636.34,-167.71 1687.48,-141.67"/>
<polygon fill="midnightblue" stroke="midnightblue" points="1689.19,-144.73 1696.49,-137.05 1686,-138.5 1689.19,-144.73"/>
</g>
<!-- Node3 -->
<g id="node3" class="node">
<title>Node3</title>
<g id="a_node3"><a xlink:href="../../dc/d49/LeosacFwd_8hpp.html" target="_top" xlink:title=" ">
<polygon fill="white" stroke="black" points="142.76,-118 142.76,-137 234.76,-137 234.76,-118 142.76,-118"/>
<text text-anchor="middle" x="188.76" y="-125" font-family="Helvetica,sans-Serif" font-size="10.00">LeosacFwd.hpp</text>
</a>
</g>
</g>
<!-- Node2&#45;&gt;Node3 -->
<g id="edge2" class="edge">
<title>Node2&#45;&gt;Node3</title>
<path fill="none" stroke="midnightblue" d="M158.78,-179.48C163.93,-170.73 172.08,-156.87 178.58,-145.81"/>
<polygon fill="midnightblue" stroke="midnightblue" points="181.71,-147.4 183.76,-137.01 175.67,-143.85 181.71,-147.4"/>
</g>
<!-- Node6 -->
<g id="node6" class="node">
<title>Node6</title>
<g id="a_node6"><a xlink:href="../../d7/dcf/AuditFwd_8hpp.html" target="_top" xlink:title=" ">
<polygon fill="white" stroke="black" points="463.26,-118 463.26,-137 598.26,-137 598.26,-118 463.26,-118"/>
<text text-anchor="middle" x="530.76" y="-125" font-family="Helvetica,sans-Serif" font-size="10.00">core/audit/AuditFwd.hpp</text>
</a>
</g>
</g>
<!-- Node2&#45;&gt;Node6 -->
<g id="edge5" class="edge">
<title>Node2&#45;&gt;Node6</title>
<path fill="none" stroke="midnightblue" d="M215.06,-179.49C275.77,-170.9 371.33,-156.94 453.76,-143 461.23,-141.74 469.08,-140.34 476.8,-138.93"/>
<polygon fill="midnightblue" stroke="midnightblue" points="477.64,-142.33 486.84,-137.06 476.37,-135.45 477.64,-142.33"/>
</g>
<!-- Node10 -->
<g id="node10" class="node">
<title>Node10</title>
<g id="a_node10"><a xlink:title=" ">
<polygon fill="white" stroke="#bfbfbf" points="14.76,-118 14.76,-137 124.76,-137 124.76,-118 14.76,-118"/>
<text text-anchor="middle" x="69.76" y="-125" font-family="Helvetica,sans-Serif" font-size="10.00">nlohmann/json.hpp</text>
</a>
</g>
</g>
<!-- Node2&#45;&gt;Node10 -->
<g id="edge10" class="edge">
<title>Node2&#45;&gt;Node10</title>
<path fill="none" stroke="midnightblue" d="M141.73,-179.48C128.26,-169.93 106.2,-154.31 90.05,-142.87"/>
<polygon fill="midnightblue" stroke="midnightblue" points="91.96,-139.93 81.78,-137.01 87.91,-145.65 91.96,-139.93"/>
</g>
<!-- Node11 -->
<g id="node11" class="node">
<title>Node11</title>
<g id="a_node11"><a xlink:title=" ">
<polygon fill="white" stroke="#bfbfbf" points="143.76,-0.5 143.76,-19.5 187.76,-19.5 187.76,-0.5 143.76,-0.5"/>
<text text-anchor="middle" x="165.76" y="-7.5" font-family="Helvetica,sans-Serif" font-size="10.00">string</text>
</a>
</g>
</g>
<!-- Node2&#45;&gt;Node11 -->
<g id="edge11" class="edge">
<title>Node2&#45;&gt;Node11</title>
<path fill="none" stroke="midnightblue" d="M80.65,-183.79C52.61,-178.17 23.2,-166.52 5.76,-143 -2.44,-131.93 -0.89,-124.07 5.76,-112 32.99,-62.62 95.65,-34.05 133.97,-20.58"/>
<polygon fill="midnightblue" stroke="midnightblue" points="135.27,-23.84 143.62,-17.33 133.03,-17.21 135.27,-23.84"/>
</g>
<!-- Node4 -->
<g id="node4" class="node">
<title>Node4</title>
<g id="a_node4"><a xlink:title=" ">
<polygon fill="white" stroke="#bfbfbf" points="774.76,-56.5 774.76,-75.5 832.76,-75.5 832.76,-56.5 774.76,-56.5"/>
<text text-anchor="middle" x="803.76" y="-63.5" font-family="Helvetica,sans-Serif" font-size="10.00">memory</text>
</a>
</g>
</g>
<!-- Node3&#45;&gt;Node4 -->
<g id="edge3" class="edge">
<title>Node3&#45;&gt;Node4</title>
<path fill="none" stroke="midnightblue" d="M235.04,-118.64C249.93,-116.29 266.52,-113.84 281.76,-112 461.43,-90.28 677.11,-75.14 764.32,-69.47"/>
<polygon fill="midnightblue" stroke="midnightblue" points="764.79,-72.95 774.55,-68.81 764.34,-65.96 764.79,-72.95"/>
</g>
<!-- Node5 -->
<g id="node5" class="node">
<title>Node5</title>
<g id="a_node5"><a xlink:title=" ">
<polygon fill="white" stroke="#bfbfbf" points="165.26,-56.5 165.26,-75.5 212.26,-75.5 212.26,-56.5 165.26,-56.5"/>
<text text-anchor="middle" x="188.76" y="-63.5" font-family="Helvetica,sans-Serif" font-size="10.00">vector</text>
</a>
</g>
</g>
<!-- Node3&#45;&gt;Node5 -->
<g id="edge4" class="edge">
<title>Node3&#45;&gt;Node5</title>
<path fill="none" stroke="midnightblue" d="M188.76,-117.98C188.76,-109.58 188.76,-96.48 188.76,-85.66"/>
<polygon fill="midnightblue" stroke="midnightblue" points="192.27,-85.51 188.76,-75.51 185.27,-85.51 192.27,-85.51"/>
</g>
<!-- Node6&#45;&gt;Node4 -->
<g id="edge8" class="edge">
<title>Node6&#45;&gt;Node4</title>
<path fill="none" stroke="midnightblue" d="M569.88,-117.98C621.85,-106.65 713.12,-86.76 764.94,-75.46"/>
<polygon fill="midnightblue" stroke="midnightblue" points="765.73,-78.87 774.76,-73.32 764.24,-72.03 765.73,-78.87"/>
</g>
<!-- Node7 -->
<g id="node7" class="node">
<title>Node7</title>
<g id="a_node7"><a xlink:title=" ">
<polygon fill="white" stroke="#bfbfbf" points="1203.26,-56.5 1203.26,-75.5 1256.26,-75.5 1256.26,-56.5 1203.26,-56.5"/>
<text text-anchor="middle" x="1229.76" y="-63.5" font-family="Helvetica,sans-Serif" font-size="10.00">cstddef</text>
</a>
</g>
</g>
<!-- Node6&#45;&gt;Node7 -->
<g id="edge6" class="edge">
<title>Node6&#45;&gt;Node7</title>
<path fill="none" stroke="midnightblue" d="M571.39,-117.95C583.09,-115.74 595.89,-113.54 607.76,-112 828.71,-83.3 1096.36,-71.66 1192.86,-68.2"/>
<polygon fill="midnightblue" stroke="midnightblue" points="1193.11,-71.7 1202.98,-67.85 1192.86,-64.7 1193.11,-71.7"/>
</g>
<!-- Node8 -->
<g id="node8" class="node">
<title>Node8</title>
<g id="a_node8"><a xlink:title=" ">
<polygon fill="white" stroke="#bfbfbf" points="495.26,-56.5 495.26,-75.5 566.26,-75.5 566.26,-56.5 495.26,-56.5"/>
<text text-anchor="middle" x="530.76" y="-63.5" font-family="Helvetica,sans-Serif" font-size="10.00">flagset.hpp</text>
</a>
</g>
</g>
<!-- Node6&#45;&gt;Node8 -->
<g id="edge7" class="edge">
<title>Node6&#45;&gt;Node8</title>
<path fill="none" stroke="midnightblue" d="M530.76,-117.98C530.76,-109.58 530.76,-96.48 530.76,-85.66"/>
<polygon fill="midnightblue" stroke="midnightblue" points="534.27,-85.51 530.76,-75.51 527.27,-85.51 534.27,-85.51"/>
</g>
<!-- Node9 -->
<g id="node9" class="node">
<title>Node9</title>
<g id="a_node9"><a xlink:title=" ">
<polygon fill="white" stroke="#bfbfbf" points="903.26,-56.5 903.26,-75.5 998.26,-75.5 998.26,-56.5 903.26,-56.5"/>
<text text-anchor="middle" x="950.76" y="-63.5" font-family="Helvetica,sans-Serif" font-size="10.00">odb/lazy&#45;ptr.hxx</text>
</a>
</g>
</g>
<!-- Node6&#45;&gt;Node9 -->
<g id="edge9" class="edge">
<title>Node6&#45;&gt;Node9</title>
<path fill="none" stroke="midnightblue" d="M573.86,-117.95C584.89,-115.88 596.75,-113.76 607.76,-112 707.76,-96.04 824.81,-81.58 893.08,-73.57"/>
<polygon fill="midnightblue" stroke="midnightblue" points="893.68,-77.03 903.2,-72.39 892.87,-70.08 893.68,-77.03"/>
</g>
<!-- Node12&#45;&gt;Node3 -->
<g id="edge13" class="edge">
<title>Node12&#45;&gt;Node3</title>
<path fill="none" stroke="midnightblue" d="M283,-179.48C264.79,-169.62 234.59,-153.29 213.3,-141.77"/>
<polygon fill="midnightblue" stroke="midnightblue" points="214.96,-138.69 204.5,-137.01 211.63,-144.85 214.96,-138.69"/>
</g>
<!-- Node12&#45;&gt;Node6 -->
<g id="edge14" class="edge">
<title>Node12&#45;&gt;Node6</title>
<path fill="none" stroke="midnightblue" d="M332,-179.48C373.01,-168.96 442.79,-151.06 487.82,-139.51"/>
<polygon fill="midnightblue" stroke="midnightblue" points="488.77,-142.88 497.59,-137.01 487.03,-136.1 488.77,-142.88"/>
</g>
<!-- Node12&#45;&gt;Node10 -->
<g id="edge15" class="edge">
<title>Node12&#45;&gt;Node10</title>
<path fill="none" stroke="midnightblue" d="M265.95,-179.48C225.57,-168.98 156.89,-151.14 112.44,-139.59"/>
<polygon fill="midnightblue" stroke="midnightblue" points="113.07,-136.14 102.51,-137.01 111.31,-142.91 113.07,-136.14"/>
</g>
<!-- Node12&#45;&gt;Node11 -->
<g id="edge16" class="edge">
<title>Node12&#45;&gt;Node11</title>
<path fill="none" stroke="midnightblue" d="M294.94,-179.3C284.94,-157.14 256.31,-97.4 220.76,-56 210.87,-44.48 197.78,-33.63 186.85,-25.48"/>
<polygon fill="midnightblue" stroke="midnightblue" points="188.8,-22.57 178.65,-19.55 184.7,-28.24 188.8,-22.57"/>
</g>
<!-- Node13&#45;&gt;Node6 -->
<g id="edge18" class="edge">
<title>Node13&#45;&gt;Node6</title>
<path fill="none" stroke="midnightblue" d="M764.65,-179.48C715.9,-168.85 632.55,-150.68 579.64,-139.15"/>
<polygon fill="midnightblue" stroke="midnightblue" points="580.32,-135.72 569.81,-137.01 578.83,-142.56 580.32,-135.72"/>
</g>
<!-- Node14 -->
<g id="node14" class="node">
<title>Node14</title>
<g id="a_node14"><a xlink:href="../../d3/d6f/AuthFwd_8hpp.html" target="_top" xlink:title=" ">
<polygon fill="white" stroke="black" points="1397.26,-118 1397.26,-137 1526.26,-137 1526.26,-118 1397.26,-118"/>
<text text-anchor="middle" x="1461.76" y="-125" font-family="Helvetica,sans-Serif" font-size="10.00">core/auth/AuthFwd.hpp</text>
</a>
</g>
</g>
<!-- Node13&#45;&gt;Node14 -->
<g id="edge19" class="edge">
<title>Node13&#45;&gt;Node14</title>
<path fill="none" stroke="midnightblue" d="M874.11,-183.25C978.19,-175.99 1179.28,-161.05 1349.76,-143 1362.74,-141.63 1376.53,-139.99 1389.85,-138.31"/>
<polygon fill="midnightblue" stroke="midnightblue" points="1390.44,-141.77 1399.91,-137.03 1389.55,-134.82 1390.44,-141.77"/>
</g>
<!-- Node15 -->
<g id="node15" class="node">
<title>Node15</title>
<g id="a_node15"><a xlink:href="../../d7/d7f/CredentialFwd_8hpp.html" target="_top" xlink:title=" ">
<polygon fill="white" stroke="black" points="876.76,-112.5 876.76,-142.5 1024.76,-142.5 1024.76,-112.5 876.76,-112.5"/>
<text text-anchor="start" x="884.76" y="-130.5" font-family="Helvetica,sans-Serif" font-size="10.00">core/credentials/Credential</text>
<text text-anchor="middle" x="950.76" y="-119.5" font-family="Helvetica,sans-Serif" font-size="10.00">Fwd.hpp</text>
</a>
</g>
</g>
<!-- Node13&#45;&gt;Node15 -->
<g id="edge23" class="edge">
<title>Node13&#45;&gt;Node15</title>
<path fill="none" stroke="midnightblue" d="M824.83,-179.48C846.13,-170.85 879.7,-157.26 906.83,-146.29"/>
<polygon fill="midnightblue" stroke="midnightblue" points="908.16,-149.52 916.12,-142.52 905.54,-143.03 908.16,-149.52"/>
</g>
<!-- Node16 -->
<g id="node16" class="node">
<title>Node16</title>
<g id="a_node16"><a xlink:href="../../d9/dc8/HardwareFwd_8hpp.html" target="_top" xlink:title=" ">
<polygon fill="white" stroke="black" points="290.76,-118 290.76,-137 444.76,-137 444.76,-118 290.76,-118"/>
<text text-anchor="middle" x="367.76" y="-125" font-family="Helvetica,sans-Serif" font-size="10.00">hardware/HardwareFwd.hpp</text>
</a>
</g>
</g>
<!-- Node13&#45;&gt;Node16 -->
<g id="edge26" class="edge">
<title>Node13&#45;&gt;Node16</title>
<path fill="none" stroke="midnightblue" d="M733.6,-179.8C662.85,-171.34 550.57,-157.38 453.76,-143 444.86,-141.68 435.44,-140.19 426.24,-138.68"/>
<polygon fill="midnightblue" stroke="midnightblue" points="426.82,-135.22 416.38,-137.04 425.67,-142.13 426.82,-135.22"/>
</g>
<!-- Node23 -->
<g id="node23" class="node">
<title>Node23</title>
<g id="a_node23"><a xlink:href="../../d8/d97/ToolsFwd_8hpp.html" target="_top" xlink:title=" ">
<polygon fill="white" stroke="black" points="748.76,-118 748.76,-137 858.76,-137 858.76,-118 748.76,-118"/>
<text text-anchor="middle" x="803.76" y="-125" font-family="Helvetica,sans-Serif" font-size="10.00">tools/ToolsFwd.hpp</text>
</a>
</g>
</g>
<!-- Node13&#45;&gt;Node23 -->
<g id="edge35" class="edge">
<title>Node13&#45;&gt;Node23</title>
<path fill="none" stroke="midnightblue" d="M803.76,-179.48C803.76,-171.08 803.76,-157.98 803.76,-147.16"/>
<polygon fill="midnightblue" stroke="midnightblue" points="807.27,-147.01 803.76,-137.01 800.27,-147.01 807.27,-147.01"/>
</g>
<!-- Node24 -->
<g id="node24" class="node">
<title>Node24</title>
<g id="a_node24"><a xlink:href="../../d9/d69/db__fwd_8hpp.html" target="_top" xlink:title=" ">
<polygon fill="white" stroke="black" points="616.76,-118 616.76,-137 730.76,-137 730.76,-118 616.76,-118"/>
<text text-anchor="middle" x="673.76" y="-125" font-family="Helvetica,sans-Serif" font-size="10.00">tools/db/db_fwd.hpp</text>
</a>
</g>
</g>
<!-- Node13&#45;&gt;Node24 -->
<g id="edge38" class="edge">
<title>Node13&#45;&gt;Node24</title>
<path fill="none" stroke="midnightblue" d="M785.14,-179.48C763.32,-169.49 726.96,-152.85 701.75,-141.31"/>
<polygon fill="midnightblue" stroke="midnightblue" points="702.91,-137.99 692.36,-137.01 699.99,-144.35 702.91,-137.99"/>
</g>
<!-- Node14&#45;&gt;Node4 -->
<g id="edge21" class="edge">
<title>Node14&#45;&gt;Node4</title>
<path fill="none" stroke="midnightblue" d="M1420.08,-117.98C1408.07,-115.76 1394.94,-113.56 1382.76,-112 1166.61,-84.29 1110.87,-94.84 893.76,-76 877.08,-74.55 858.68,-72.75 842.89,-71.14"/>
<polygon fill="midnightblue" stroke="midnightblue" points="843.24,-67.65 832.93,-70.11 842.52,-74.62 843.24,-67.65"/>
</g>
<!-- Node14&#45;&gt;Node7 -->
<g id="edge20" class="edge">
<title>Node14&#45;&gt;Node7</title>
<path fill="none" stroke="midnightblue" d="M1428.52,-117.98C1385.52,-106.94 1310.84,-87.79 1266.29,-76.37"/>
<polygon fill="midnightblue" stroke="midnightblue" points="1267.01,-72.94 1256.45,-73.84 1265.27,-79.72 1267.01,-72.94"/>
</g>
<!-- Node14&#45;&gt;Node9 -->
<g id="edge22" class="edge">
<title>Node14&#45;&gt;Node9</title>
<path fill="none" stroke="midnightblue" d="M1418.81,-117.99C1407.15,-115.85 1394.5,-113.69 1382.76,-112 1249.31,-92.83 1091.55,-78.49 1008.53,-71.58"/>
<polygon fill="midnightblue" stroke="midnightblue" points="1008.79,-68.09 998.54,-70.75 1008.22,-75.07 1008.79,-68.09"/>
</g>
<!-- Node15&#45;&gt;Node4 -->
<g id="edge24" class="edge">
<title>Node15&#45;&gt;Node4</title>
<path fill="none" stroke="midnightblue" d="M915.93,-112.4C891.26,-102.42 858.48,-89.15 834.73,-79.53"/>
<polygon fill="midnightblue" stroke="midnightblue" points="835.74,-76.17 825.15,-75.66 833.11,-82.65 835.74,-76.17"/>
</g>
<!-- Node15&#45;&gt;Node9 -->
<g id="edge25" class="edge">
<title>Node15&#45;&gt;Node9</title>
<path fill="none" stroke="midnightblue" d="M950.76,-112.4C950.76,-104.47 950.76,-94.46 950.76,-85.86"/>
<polygon fill="midnightblue" stroke="midnightblue" points="954.27,-85.66 950.76,-75.66 947.27,-85.66 954.27,-85.66"/>
</g>
<!-- Node16&#45;&gt;Node4 -->
<g id="edge34" class="edge">
<title>Node16&#45;&gt;Node4</title>
<path fill="none" stroke="midnightblue" d="M416.38,-117.96C428.57,-115.92 441.63,-113.8 453.76,-112 566.28,-95.29 699.69,-79.15 764.5,-71.54"/>
<polygon fill="midnightblue" stroke="midnightblue" points="765.15,-74.99 774.67,-70.35 764.33,-68.04 765.15,-74.99"/>
</g>
<!-- Node17 -->
<g id="node17" class="node">
<title>Node17</title>
<g id="a_node17"><a xlink:href="../../dc/dea/Uuid_8hpp.html" target="_top" xlink:title=" ">
<polygon fill="white" stroke="black" points="357.26,-56.5 357.26,-75.5 444.26,-75.5 444.26,-56.5 357.26,-56.5"/>
<text text-anchor="middle" x="400.76" y="-63.5" font-family="Helvetica,sans-Serif" font-size="10.00">tools/Uuid.hpp</text>
</a>
</g>
</g>
<!-- Node16&#45;&gt;Node17 -->
<g id="edge27" class="edge">
<title>Node16&#45;&gt;Node17</title>
<path fill="none" stroke="midnightblue" d="M372.49,-117.98C377.35,-109.23 385.03,-95.37 391.16,-84.31"/>
<polygon fill="midnightblue" stroke="midnightblue" points="394.26,-85.95 396.05,-75.51 388.13,-82.56 394.26,-85.95"/>
</g>
<!-- Node17&#45;&gt;Node11 -->
<g id="edge33" class="edge">
<title>Node17&#45;&gt;Node11</title>
<path fill="none" stroke="midnightblue" d="M358.38,-56.49C319.09,-48.42 258.8,-35.56 197.85,-20.16"/>
<polygon fill="midnightblue" stroke="midnightblue" points="198.62,-16.74 188.07,-17.66 196.89,-23.53 198.62,-16.74"/>
</g>
<!-- Node18 -->
<g id="node18" class="node">
<title>Node18</title>
<g id="a_node18"><a xlink:title=" ">
<polygon fill="white" stroke="#bfbfbf" points="581.26,-0.5 581.26,-19.5 706.26,-19.5 706.26,-0.5 581.26,-0.5"/>
<text text-anchor="middle" x="643.76" y="-7.5" font-family="Helvetica,sans-Serif" font-size="10.00">boost/lexical_cast.hpp</text>
</a>
</g>
</g>
<!-- Node17&#45;&gt;Node18 -->
<g id="edge28" class="edge">
<title>Node17&#45;&gt;Node18</title>
<path fill="none" stroke="midnightblue" d="M439.27,-56.44C481.57,-47.04 549.58,-31.93 595.44,-21.74"/>
<polygon fill="midnightblue" stroke="midnightblue" points="596.44,-25.1 605.44,-19.52 594.92,-18.27 596.44,-25.1"/>
</g>
<!-- Node19 -->
<g id="node19" class="node">
<title>Node19</title>
<g id="a_node19"><a xlink:title=" ">
<polygon fill="white" stroke="#bfbfbf" points="724.26,-0.5 724.26,-19.5 905.26,-19.5 905.26,-0.5 724.26,-0.5"/>
<text text-anchor="middle" x="814.76" y="-7.5" font-family="Helvetica,sans-Serif" font-size="10.00">boost/uuid/random_generator.hpp</text>
</a>
</g>
</g>
<!-- Node17&#45;&gt;Node19 -->
<g id="edge29" class="edge">
<title>Node17&#45;&gt;Node19</title>
<path fill="none" stroke="midnightblue" d="M444.29,-59.32C514.38,-50.18 653.13,-32.08 739.51,-20.82"/>
<polygon fill="midnightblue" stroke="midnightblue" points="740.06,-24.27 749.52,-19.51 739.15,-17.33 740.06,-24.27"/>
</g>
<!-- Node20 -->
<g id="node20" class="node">
<title>Node20</title>
<g id="a_node20"><a xlink:title=" ">
<polygon fill="white" stroke="#bfbfbf" points="206.26,-0.5 206.26,-19.5 319.26,-19.5 319.26,-0.5 206.26,-0.5"/>
<text text-anchor="middle" x="262.76" y="-7.5" font-family="Helvetica,sans-Serif" font-size="10.00">boost/uuid/uuid.hpp</text>
</a>
</g>
</g>
<!-- Node17&#45;&gt;Node20 -->
<g id="edge30" class="edge">
<title>Node17&#45;&gt;Node20</title>
<path fill="none" stroke="midnightblue" d="M378.9,-56.44C355.99,-47.48 319.79,-33.31 293.9,-23.18"/>
<polygon fill="midnightblue" stroke="midnightblue" points="295.12,-19.9 284.53,-19.52 292.57,-26.42 295.12,-19.9"/>
</g>
<!-- Node21 -->
<g id="node21" class="node">
<title>Node21</title>
<g id="a_node21"><a xlink:title=" ">
<polygon fill="white" stroke="#bfbfbf" points="337.26,-0.5 337.26,-19.5 464.26,-19.5 464.26,-0.5 337.26,-0.5"/>
<text text-anchor="middle" x="400.76" y="-7.5" font-family="Helvetica,sans-Serif" font-size="10.00">boost/uuid/uuid_io.hpp</text>
</a>
</g>
</g>
<!-- Node17&#45;&gt;Node21 -->
<g id="edge31" class="edge">
<title>Node17&#45;&gt;Node21</title>
<path fill="none" stroke="midnightblue" d="M400.76,-56.08C400.76,-49.01 400.76,-38.86 400.76,-29.99"/>
<polygon fill="midnightblue" stroke="midnightblue" points="404.27,-29.75 400.76,-19.75 397.27,-29.75 404.27,-29.75"/>
</g>
<!-- Node22 -->
<g id="node22" class="node">
<title>Node22</title>
<g id="a_node22"><a xlink:title=" ">
<polygon fill="white" stroke="#bfbfbf" points="482.76,-0.5 482.76,-19.5 562.76,-19.5 562.76,-0.5 482.76,-0.5"/>
<text text-anchor="middle" x="522.76" y="-7.5" font-family="Helvetica,sans-Serif" font-size="10.00">odb/core.hxx</text>
</a>
</g>
</g>
<!-- Node17&#45;&gt;Node22 -->
<g id="edge32" class="edge">
<title>Node17&#45;&gt;Node22</title>
<path fill="none" stroke="midnightblue" d="M420.1,-56.44C440.08,-47.6 471.51,-33.69 494.33,-23.59"/>
<polygon fill="midnightblue" stroke="midnightblue" points="495.8,-26.76 503.52,-19.52 492.96,-20.36 495.8,-26.76"/>
</g>
<!-- Node23&#45;&gt;Node4 -->
<g id="edge36" class="edge">
<title>Node23&#45;&gt;Node4</title>
<path fill="none" stroke="midnightblue" d="M803.76,-117.98C803.76,-109.58 803.76,-96.48 803.76,-85.66"/>
<polygon fill="midnightblue" stroke="midnightblue" points="807.27,-85.51 803.76,-75.51 800.27,-85.51 807.27,-85.51"/>
</g>
<!-- Node23&#45;&gt;Node9 -->
<g id="edge37" class="edge">
<title>Node23&#45;&gt;Node9</title>
<path fill="none" stroke="midnightblue" d="M824.83,-117.98C849.82,-107.86 891.71,-90.9 920.25,-79.35"/>
<polygon fill="midnightblue" stroke="midnightblue" points="921.79,-82.51 929.74,-75.51 919.16,-76.02 921.79,-82.51"/>
</g>
<!-- Node24&#45;&gt;Node4 -->
<g id="edge39" class="edge">
<title>Node24&#45;&gt;Node4</title>
<path fill="none" stroke="midnightblue" d="M692.39,-117.98C714.21,-107.99 750.57,-91.35 775.78,-79.81"/>
<polygon fill="midnightblue" stroke="midnightblue" points="777.54,-82.85 785.17,-75.51 774.62,-76.49 777.54,-82.85"/>
</g>
<!-- Node26 -->
<g id="node26" class="node">
<title>Node26</title>
<g id="a_node26"><a xlink:href="../../d3/dd8/IAuditEntry_8hpp.html" target="_top" xlink:title=" ">
<polygon fill="white" stroke="black" points="1282.76,-179.5 1282.76,-198.5 1372.76,-198.5 1372.76,-179.5 1282.76,-179.5"/>
<text text-anchor="middle" x="1327.76" y="-186.5" font-family="Helvetica,sans-Serif" font-size="10.00">IAuditEntry.hpp</text>
</a>
</g>
</g>
<!-- Node25&#45;&gt;Node26 -->
<g id="edge41" class="edge">
<title>Node25&#45;&gt;Node26</title>
<path fill="none" stroke="midnightblue" d="M1152.72,-235.44C1188.55,-226.14 1245.93,-211.25 1285.16,-201.06"/>
<polygon fill="midnightblue" stroke="midnightblue" points="1286.16,-204.42 1294.96,-198.52 1284.4,-197.64 1286.16,-204.42"/>
</g>
<!-- Node32 -->
<g id="node32" class="node">
<title>Node32</title>
<g id="a_node32"><a xlink:href="../../d2/d0e/UpdateFwd_8hpp.html" target="_top" xlink:title=" ">
<polygon fill="white" stroke="black" points="1042.76,-118 1042.76,-137 1196.76,-137 1196.76,-118 1042.76,-118"/>
<text text-anchor="middle" x="1119.76" y="-125" font-family="Helvetica,sans-Serif" font-size="10.00">core/update/UpdateFwd.hpp</text>
</a>
</g>
</g>
<!-- Node25&#45;&gt;Node32 -->
<g id="edge50" class="edge">
<title>Node25&#45;&gt;Node32</title>
<path fill="none" stroke="midnightblue" d="M1119.76,-235.32C1119.76,-216.76 1119.76,-172.84 1119.76,-147.47"/>
<polygon fill="midnightblue" stroke="midnightblue" points="1123.27,-147.28 1119.76,-137.28 1116.27,-147.28 1123.27,-147.28"/>
</g>
<!-- Node26&#45;&gt;Node4 -->
<g id="edge49" class="edge">
<title>Node26&#45;&gt;Node4</title>
<path fill="none" stroke="midnightblue" d="M1334.93,-179.27C1346.78,-163.75 1367.48,-131.17 1349.76,-112 1315.27,-74.67 944.39,-80.53 893.76,-76 877.09,-74.51 858.69,-72.7 842.89,-71.09"/>
<polygon fill="midnightblue" stroke="midnightblue" points="843.24,-67.61 832.93,-70.07 842.53,-74.57 843.24,-67.61"/>
</g>
<!-- Node26&#45;&gt;Node6 -->
<g id="edge42" class="edge">
<title>Node26&#45;&gt;Node6</title>
<path fill="none" stroke="midnightblue" d="M1282.51,-187.11C1168.72,-184.47 861.6,-174.71 607.76,-143 599.04,-141.91 589.8,-140.44 580.88,-138.86"/>
<polygon fill="midnightblue" stroke="midnightblue" points="581.45,-135.41 570.98,-137.05 580.18,-142.29 581.45,-135.41"/>
</g>
<!-- Node26&#45;&gt;Node14 -->
<g id="edge43" class="edge">
<title>Node26&#45;&gt;Node14</title>
<path fill="none" stroke="midnightblue" d="M1346.96,-179.48C1369.55,-169.45 1407.26,-152.7 1433.27,-141.15"/>
<polygon fill="midnightblue" stroke="midnightblue" points="1434.88,-144.27 1442.6,-137.01 1432.04,-137.87 1434.88,-144.27"/>
</g>
<!-- Node27 -->
<g id="node27" class="node">
<title>Node27</title>
<g id="a_node27"><a xlink:href="../../dd/d9d/IVisitable_8hpp.html" target="_top" xlink:title=" ">
<polygon fill="white" stroke="black" points="1544.76,-118 1544.76,-137 1654.76,-137 1654.76,-118 1544.76,-118"/>
<text text-anchor="middle" x="1599.76" y="-125" font-family="Helvetica,sans-Serif" font-size="10.00">tools/IVisitable.hpp</text>
</a>
</g>
</g>
<!-- Node26&#45;&gt;Node27 -->
<g id="edge44" class="edge">
<title>Node26&#45;&gt;Node27</title>
<path fill="none" stroke="midnightblue" d="M1367.67,-179.49C1409.56,-170.52 1477.33,-155.94 1535.76,-143 1541.12,-141.81 1546.72,-140.56 1552.29,-139.31"/>
<polygon fill="midnightblue" stroke="midnightblue" points="1553.23,-142.69 1562.21,-137.07 1551.69,-135.86 1553.23,-142.69"/>
</g>
<!-- Node31 -->
<g id="node31" class="node">
<title>Node31</title>
<g id="a_node31"><a xlink:title=" ">
<polygon fill="white" stroke="#bfbfbf" points="1215.26,-112.5 1215.26,-142.5 1340.26,-142.5 1340.26,-112.5 1215.26,-112.5"/>
<text text-anchor="start" x="1223.26" y="-130.5" font-family="Helvetica,sans-Serif" font-size="10.00">boost/date_time/posix</text>
<text text-anchor="middle" x="1277.76" y="-119.5" font-family="Helvetica,sans-Serif" font-size="10.00">_time/posix_time.hpp</text>
</a>
</g>
</g>
<!-- Node26&#45;&gt;Node31 -->
<g id="edge48" class="edge">
<title>Node26&#45;&gt;Node31</title>
<path fill="none" stroke="midnightblue" d="M1320.6,-179.48C1314.21,-171.87 1304.57,-160.4 1296.05,-150.26"/>
<polygon fill="midnightblue" stroke="midnightblue" points="1298.66,-147.93 1289.55,-142.52 1293.3,-152.43 1298.66,-147.93"/>
</g>
<!-- Node28 -->
<g id="node28" class="node">
<title>Node28</title>
<g id="a_node28"><a xlink:href="../../d2/d91/Visitor_8hpp.html" target="_top" xlink:title=" ">
<polygon fill="white" stroke="black" points="1460.26,-56.5 1460.26,-75.5 1555.26,-75.5 1555.26,-56.5 1460.26,-56.5"/>
<text text-anchor="middle" x="1507.76" y="-63.5" font-family="Helvetica,sans-Serif" font-size="10.00">tools/Visitor.hpp</text>
</a>
</g>
</g>
<!-- Node27&#45;&gt;Node28 -->
<g id="edge45" class="edge">
<title>Node27&#45;&gt;Node28</title>
<path fill="none" stroke="midnightblue" d="M1586.58,-117.98C1571.69,-108.34 1547.22,-92.52 1529.49,-81.05"/>
<polygon fill="midnightblue" stroke="midnightblue" points="1531.22,-78 1520.92,-75.51 1527.42,-83.88 1531.22,-78"/>
</g>
<!-- Node30 -->
<g id="node30" class="node">
<title>Node30</title>
<g id="a_node30"><a xlink:title=" ">
<polygon fill="white" stroke="#bfbfbf" points="1573.76,-56.5 1573.76,-75.5 1625.76,-75.5 1625.76,-56.5 1573.76,-56.5"/>
<text text-anchor="middle" x="1599.76" y="-63.5" font-family="Helvetica,sans-Serif" font-size="10.00">cassert</text>
</a>
</g>
</g>
<!-- Node27&#45;&gt;Node30 -->
<g id="edge47" class="edge">
<title>Node27&#45;&gt;Node30</title>
<path fill="none" stroke="midnightblue" d="M1599.76,-117.98C1599.76,-109.58 1599.76,-96.48 1599.76,-85.66"/>
<polygon fill="midnightblue" stroke="midnightblue" points="1603.27,-85.51 1599.76,-75.51 1596.27,-85.51 1603.27,-85.51"/>
</g>
<!-- Node29 -->
<g id="node29" class="node">
<title>Node29</title>
<g id="a_node29"><a xlink:title=" ">
<polygon fill="white" stroke="#bfbfbf" points="1473.26,-0.5 1473.26,-19.5 1542.26,-19.5 1542.26,-0.5 1473.26,-0.5"/>
<text text-anchor="middle" x="1507.76" y="-7.5" font-family="Helvetica,sans-Serif" font-size="10.00">type_traits</text>
</a>
</g>
</g>
<!-- Node28&#45;&gt;Node29 -->
<g id="edge46" class="edge">
<title>Node28&#45;&gt;Node29</title>
<path fill="none" stroke="midnightblue" d="M1507.76,-56.08C1507.76,-49.01 1507.76,-38.86 1507.76,-29.99"/>
<polygon fill="midnightblue" stroke="midnightblue" points="1511.27,-29.75 1507.76,-19.75 1504.27,-29.75 1511.27,-29.75"/>
</g>
<!-- Node32&#45;&gt;Node4 -->
<g id="edge51" class="edge">
<title>Node32&#45;&gt;Node4</title>
<path fill="none" stroke="midnightblue" d="M1074.49,-117.98C1012.35,-106.27 901.66,-85.43 842.91,-74.37"/>
<polygon fill="midnightblue" stroke="midnightblue" points="843.39,-70.9 832.91,-72.49 842.09,-77.78 843.39,-70.9"/>
</g>
<!-- Node32&#45;&gt;Node9 -->
<g id="edge52" class="edge">
<title>Node32&#45;&gt;Node9</title>
<path fill="none" stroke="midnightblue" d="M1095.55,-117.98C1066.44,-107.72 1017.4,-90.46 984.56,-78.9"/>
<polygon fill="midnightblue" stroke="midnightblue" points="985.53,-75.53 974.93,-75.51 983.2,-82.13 985.53,-75.53"/>
</g>
<!-- Node33&#45;&gt;Node14 -->
<g id="edge55" class="edge">
<title>Node33&#45;&gt;Node14</title>
<path fill="none" stroke="midnightblue" d="M1338.19,-235.46C1349.12,-226.47 1366.75,-211.86 1381.76,-199 1403.55,-180.33 1428.28,-158.43 1444.4,-144.05"/>
<polygon fill="midnightblue" stroke="midnightblue" points="1446.86,-146.54 1451.99,-137.27 1442.2,-141.32 1446.86,-146.54"/>
</g>
<!-- Node33&#45;&gt;Node26 -->
<g id="edge54" class="edge">
<title>Node33&#45;&gt;Node26</title>
<path fill="none" stroke="midnightblue" d="M1327.76,-235.08C1327.76,-228.01 1327.76,-217.86 1327.76,-208.99"/>
<polygon fill="midnightblue" stroke="midnightblue" points="1331.27,-208.75 1327.76,-198.75 1324.27,-208.75 1331.27,-208.75"/>
</g>
<!-- Node34&#45;&gt;Node11 -->
<g id="edge62" class="edge">
<title>Node34&#45;&gt;Node11</title>
<path fill="none" stroke="midnightblue" d="M1706.68,-117.92C1694.91,-102.16 1667.31,-69 1634.76,-56 1489.02,2.21 395.27,-42.79 197.93,-19.54"/>
<polygon fill="midnightblue" stroke="midnightblue" points="198.34,-16.06 187.96,-18.19 197.4,-23 198.34,-16.06"/>
</g>
<!-- Node34&#45;&gt;Node30 -->
<g id="edge57" class="edge">
<title>Node34&#45;&gt;Node30</title>
<path fill="none" stroke="midnightblue" d="M1696.57,-117.98C1677.86,-108.12 1646.84,-91.79 1624.97,-80.27"/>
<polygon fill="midnightblue" stroke="midnightblue" points="1626.4,-77.07 1615.93,-75.51 1623.14,-83.27 1626.4,-77.07"/>
</g>
<!-- Node35 -->
<g id="node35" class="node">
<title>Node35</title>
<g id="a_node35"><a xlink:title=" ">
<polygon fill="white" stroke="#bfbfbf" points="1682.26,-56.5 1682.26,-75.5 1733.26,-75.5 1733.26,-56.5 1682.26,-56.5"/>
<text text-anchor="middle" x="1707.76" y="-63.5" font-family="Helvetica,sans-Serif" font-size="10.00">csignal</text>
</a>
</g>
</g>
<!-- Node34&#45;&gt;Node35 -->
<g id="edge58" class="edge">
<title>Node34&#45;&gt;Node35</title>
<path fill="none" stroke="midnightblue" d="M1712.05,-117.98C1711.34,-109.58 1710.24,-96.48 1709.33,-85.66"/>
<polygon fill="midnightblue" stroke="midnightblue" points="1712.81,-85.18 1708.48,-75.51 1705.83,-85.77 1712.81,-85.18"/>
</g>
<!-- Node36 -->
<g id="node36" class="node">
<title>Node36</title>
<g id="a_node36"><a xlink:title=" ">
<polygon fill="white" stroke="#bfbfbf" points="1751.76,-56.5 1751.76,-75.5 1811.76,-75.5 1811.76,-56.5 1751.76,-56.5"/>
<text text-anchor="middle" x="1781.76" y="-63.5" font-family="Helvetica,sans-Serif" font-size="10.00">iostream</text>
</a>
</g>
</g>
<!-- Node34&#45;&gt;Node36 -->
<g id="edge59" class="edge">
<title>Node34&#45;&gt;Node36</title>
<path fill="none" stroke="midnightblue" d="M1722.65,-117.98C1733.41,-108.7 1750.84,-93.67 1763.99,-82.33"/>
<polygon fill="midnightblue" stroke="midnightblue" points="1766.61,-84.69 1771.9,-75.51 1762.04,-79.39 1766.61,-84.69"/>
</g>
<!-- Node37 -->
<g id="node37" class="node">
<title>Node37</title>
<g id="a_node37"><a xlink:title=" ">
<polygon fill="white" stroke="#bfbfbf" points="1830.26,-56.5 1830.26,-75.5 1923.26,-75.5 1923.26,-56.5 1830.26,-56.5"/>
<text text-anchor="middle" x="1876.76" y="-63.5" font-family="Helvetica,sans-Serif" font-size="10.00">spdlog/spdlog.h</text>
</a>
</g>
</g>
<!-- Node34&#45;&gt;Node37 -->
<g id="edge60" class="edge">
<title>Node34&#45;&gt;Node37</title>
<path fill="none" stroke="midnightblue" d="M1736.26,-117.98C1764.39,-107.77 1811.69,-90.61 1843.55,-79.05"/>
<polygon fill="midnightblue" stroke="midnightblue" points="1845.1,-82.21 1853.31,-75.51 1842.72,-75.63 1845.1,-82.21"/>
</g>
<!-- Node38 -->
<g id="node38" class="node">
<title>Node38</title>
<g id="a_node38"><a xlink:title=" ">
<polygon fill="white" stroke="#bfbfbf" points="1941.76,-56.5 1941.76,-75.5 1997.76,-75.5 1997.76,-56.5 1941.76,-56.5"/>
<text text-anchor="middle" x="1969.76" y="-63.5" font-family="Helvetica,sans-Serif" font-size="10.00">sstream</text>
</a>
</g>
</g>
<!-- Node34&#45;&gt;Node38 -->
<g id="edge61" class="edge">
<title>Node34&#45;&gt;Node38</title>
<path fill="none" stroke="midnightblue" d="M1750.56,-117.98C1792.45,-108.51 1862.26,-92.61 1931.7,-76.23"/>
<polygon fill="midnightblue" stroke="midnightblue" points="1932.56,-79.62 1941.49,-73.92 1930.96,-72.81 1932.56,-79.62"/>
</g>
</g>
</svg>
        <g id="navigator" transform="translate(0 0)" fill="#404254">
                <rect fill="#f2f5e9" fill-opacity="0.5" stroke="#606060" stroke-width=".5" x="0" y="0" width="60" height="60"/>
                <use id="zoomplus" xlink:href="#zoomPlus" x="17" y="9" onmousedown="handleZoom(evt,'in')"/>
                <use id="zoomminus" xlink:href="#zoomMin" x="42" y="9" onmousedown="handleZoom(evt,'out')"/>
                <use id="reset" xlink:href="#resetDef" x="30" y="36" onmousedown="handleReset()"/>
                <g id="arrowUp" xlink:href="#dirArrow" transform="translate(30 24)" onmousedown="handlePan(0,-1)">
                  <use xlink:href="#rim" fill="#404040">
                        <set attributeName="fill" to="#808080" begin="arrowUp.mouseover" end="arrowUp.mouseout"/>
                  </use>
                  <path fill="none" stroke="white" stroke-width="1.5" d="M0,-3.0v7 M-2.5,-0.5L0,-3.0L2.5,-0.5"/>
                </g>
                <g id="arrowRight" xlink:href="#dirArrow" transform="rotate(90) translate(36 -43)" onmousedown="handlePan(1,0)">
                  <use xlink:href="#rim" fill="#404040">
                        <set attributeName="fill" to="#808080" begin="arrowRight.mouseover" end="arrowRight.mouseout"/>
                  </use>
                  <path fill="none" stroke="white" stroke-width="1.5" d="M0,-3.0v7 M-2.5,-0.5L0,-3.0L2.5,-0.5"/>
                </g>
                <g id="arrowDown" xlink:href="#dirArrow" transform="rotate(180) translate(-30 -48)" onmousedown="handlePan(0,1)">
                  <use xlink:href="#rim" fill="#404040">
                        <set attributeName="fill" to="#808080" begin="arrowDown.mouseover" end="arrowDown.mouseout"/>
                  </use>
                  <path fill="none" stroke="white" stroke-width="1.5" d="M0,-3.0v7 M-2.5,-0.5L0,-3.0L2.5,-0.5"/>
                </g>
                <g id="arrowLeft" xlink:href="#dirArrow" transform="rotate(270) translate(-36 17)" onmousedown="handlePan(-1,0)">
                  <use xlink:href="#rim" fill="#404040">
                        <set attributeName="fill" to="#808080" begin="arrowLeft.mouseover" end="arrowLeft.mouseout"/>
                  </use>
                  <path fill="none" stroke="white" stroke-width="1.5" d="M0,-3.0v7 M-2.5,-0.5L0,-3.0L2.5,-0.5"/>
                </g>
        </g>
        <svg viewBox="0 0 15 15" width="100%" height="30px" preserveAspectRatio="xMaxYMin meet">
         <g id="arrow_out" transform="scale(0.3 0.3)">
          <a xlink:href="UpdateEventSerializer_8cpp__incl_org.svg" target="_base">
           <rect id="button" ry="5" rx="5" y="6" x="6" height="38" width="38"
                fill="#f2f5e9" fill-opacity="0.5" stroke="#606060" stroke-width="1.0"/>
           <path id="arrow"
             d="M 11.500037,31.436501 C 11.940474,20.09759 22.043105,11.32322 32.158766,21.979434 L 37.068811,17.246167 C 37.068811,17.246167 37.088388,32 37.088388,32 L 22.160133,31.978069 C 22.160133,31.978069 26.997745,27.140456 26.997745,27.140456 C 18.528582,18.264221 13.291696,25.230495 11.500037,31.436501 z"
             style="fill:#404040;"/>
          </a>
         </g>
        </svg>
</svg>
