<?xml version="1.0" encoding="UTF-8" standalone="no"?>
<!DOCTYPE svg PUBLIC "-//W3C//DTD SVG 1.1//EN"
 "http://www.w3.org/Graphics/SVG/1.1/DTD/svg11.dtd">
<!-- Generated by graphviz version 2.43.0 (0)
 -->
<!-- Title: Leosac::Auth::BaseAuthSource Pages: 1 -->
<svg width="1376pt" height="450pt"
 viewBox="0.00 0.00 1376.00 450.00" xmlns="http://www.w3.org/2000/svg" xmlns:xlink="http://www.w3.org/1999/xlink">
<g id="graph0" class="graph" transform="scale(1 1) rotate(0) translate(4 446)">
<title>Leosac::Auth::BaseAuthSource</title>
<polygon fill="white" stroke="transparent" points="-4,4 -4,-446 1372,-446 1372,4 -4,4"/>
<!-- Node1 -->
<g id="node1" class="node">
<title>Node1</title>
<g id="a_node1"><a xlink:title=" ">
<polygon fill="#bfbfbf" stroke="black" points="1204,-316 1204,-335 1368,-335 1368,-316 1204,-316"/>
<text text-anchor="middle" x="1286" y="-323" font-family="Helvetica,sans-Serif" font-size="10.00">Leosac::Auth::BaseAuthSource</text>
</a>
</g>
</g>
<!-- Node2 -->
<g id="node2" class="node">
<title>Node2</title>
<g id="a_node2"><a xlink:href="../../d6/d6c/classLeosac_1_1Auth_1_1IAuthenticationSource.html" target="_top" xlink:title="An Auth source is a card id, a pin code, a fingerprint, etc...">
<polygon fill="white" stroke="black" points="970,-411.5 970,-441.5 1129,-441.5 1129,-411.5 970,-411.5"/>
<text text-anchor="start" x="978" y="-429.5" font-family="Helvetica,sans-Serif" font-size="10.00">Leosac::Auth::IAuthentication</text>
<text text-anchor="middle" x="1049.5" y="-418.5" font-family="Helvetica,sans-Serif" font-size="10.00">Source</text>
</a>
</g>
</g>
<!-- Node2&#45;&gt;Node1 -->
<g id="edge1" class="edge">
<title>Node2&#45;&gt;Node1</title>
<path fill="none" stroke="midnightblue" d="M1139.15,-412.29C1155.12,-408.22 1171.33,-403.05 1186,-396.5 1221.73,-380.54 1257.52,-350.57 1274.62,-335.17"/>
<polygon fill="midnightblue" stroke="midnightblue" points="1138.16,-408.93 1129.26,-414.69 1139.8,-415.74 1138.16,-408.93"/>
</g>
<!-- Node3 -->
<g id="node3" class="node">
<title>Node3</title>
<g id="a_node3"><a xlink:href="../../d0/d33/classLeosac_1_1Tools_1_1IVisitable.html" target="_top" xlink:title="Base class to make an object visitable.">
<polygon fill="white" stroke="black" points="727,-417 727,-436 860,-436 860,-417 727,-417"/>
<text text-anchor="middle" x="793.5" y="-424" font-family="Helvetica,sans-Serif" font-size="10.00">Leosac::Tools::IVisitable</text>
</a>
</g>
</g>
<!-- Node3&#45;&gt;Node2 -->
<g id="edge2" class="edge">
<title>Node3&#45;&gt;Node2</title>
<path fill="none" stroke="midnightblue" d="M870.26,-426.5C901.71,-426.5 938.19,-426.5 969.92,-426.5"/>
<polygon fill="midnightblue" stroke="midnightblue" points="870.24,-423 860.24,-426.5 870.24,-430 870.24,-423"/>
</g>
<!-- Node4 -->
<g id="node4" class="node">
<title>Node4</title>
<g id="a_node4"><a xlink:title=" ">
<polygon fill="white" stroke="#bfbfbf" points="982.5,-223 982.5,-242 1116.5,-242 1116.5,-223 982.5,-223"/>
<text text-anchor="middle" x="1049.5" y="-230" font-family="Helvetica,sans-Serif" font-size="10.00">std::shared_ptr&lt; User &gt;</text>
</a>
</g>
</g>
<!-- Node4&#45;&gt;Node1 -->
<g id="edge3" class="edge">
<title>Node4&#45;&gt;Node1</title>
<path fill="none" stroke="#9a32cd" stroke-dasharray="5,2" d="M1088.32,-245.37C1115.65,-254.86 1153.34,-268.36 1186,-281.5 1213.57,-292.59 1244.82,-306.75 1264.7,-315.97"/>
<polygon fill="#9a32cd" stroke="#9a32cd" points="1089.34,-242.02 1078.75,-242.06 1087.06,-248.63 1089.34,-242.02"/>
<text text-anchor="middle" x="1166.5" y="-284.5" font-family="Helvetica,sans-Serif" font-size="10.00"> owner_</text>
</g>
<!-- Node5 -->
<g id="node5" class="node">
<title>Node5</title>
<g id="a_node5"><a xlink:href="../../d0/d48/classLeosac_1_1Auth_1_1User.html" target="_top" xlink:title="Represent a user.">
<polygon fill="white" stroke="black" points="740,-147 740,-166 847,-166 847,-147 740,-147"/>
<text text-anchor="middle" x="793.5" y="-154" font-family="Helvetica,sans-Serif" font-size="10.00">Leosac::Auth::User</text>
</a>
</g>
</g>
<!-- Node5&#45;&gt;Node4 -->
<g id="edge4" class="edge">
<title>Node5&#45;&gt;Node4</title>
<path fill="none" stroke="#9a32cd" stroke-dasharray="5,2" d="M836.05,-168.93C886.57,-184.05 970.76,-209.24 1016.52,-222.93"/>
<polygon fill="#9a32cd" stroke="#9a32cd" points="837,-165.56 826.41,-166.05 834.99,-172.27 837,-165.56"/>
<text text-anchor="middle" x="915" y="-206.5" font-family="Helvetica,sans-Serif" font-size="10.00"> ptr</text>
</g>
<!-- Node6 -->
<g id="node6" class="node">
<title>Node6</title>
<g id="a_node6"><a xlink:title=" ">
<polygon fill="white" stroke="#bfbfbf" points="371.5,-49.5 371.5,-79.5 484.5,-79.5 484.5,-49.5 371.5,-49.5"/>
<text text-anchor="start" x="379.5" y="-67.5" font-family="Helvetica,sans-Serif" font-size="10.00">std::enable_shared</text>
<text text-anchor="middle" x="428" y="-56.5" font-family="Helvetica,sans-Serif" font-size="10.00">_from_this&lt; User &gt;</text>
</a>
</g>
</g>
<!-- Node6&#45;&gt;Node5 -->
<g id="edge5" class="edge">
<title>Node6&#45;&gt;Node5</title>
<path fill="none" stroke="midnightblue" d="M494.65,-68.94C552.4,-74.33 638.07,-85.95 709,-110.5 735.12,-119.54 762.7,-136.36 778.71,-146.96"/>
<polygon fill="midnightblue" stroke="midnightblue" points="494.83,-65.45 484.56,-68.04 494.21,-72.42 494.83,-65.45"/>
</g>
<!-- Node7 -->
<g id="node7" class="node">
<title>Node7</title>
<g id="a_node7"><a xlink:title=" ">
<polygon fill="white" stroke="#bfbfbf" points="319,-147.5 319,-177.5 537,-177.5 537,-147.5 319,-147.5"/>
<text text-anchor="start" x="327" y="-165.5" font-family="Helvetica,sans-Serif" font-size="10.00">std::set&lt; UserGroupMembership</text>
<text text-anchor="middle" x="428" y="-154.5" font-family="Helvetica,sans-Serif" font-size="10.00">Ptr, UserGroupMembershipComparator &gt;</text>
</a>
</g>
</g>
<!-- Node7&#45;&gt;Node5 -->
<g id="edge6" class="edge">
<title>Node7&#45;&gt;Node5</title>
<path fill="none" stroke="#9a32cd" stroke-dasharray="5,2" d="M547.28,-148.97C549.88,-148.8 552.45,-148.64 555,-148.5 623.34,-144.71 640.63,-145.23 709,-148.5 719.04,-148.98 729.73,-149.78 739.99,-150.7"/>
<polygon fill="#9a32cd" stroke="#9a32cd" points="546.91,-145.49 537.19,-149.7 547.41,-152.47 546.91,-145.49"/>
<text text-anchor="middle" x="632" y="-151.5" font-family="Helvetica,sans-Serif" font-size="10.00"> membership_</text>
</g>
<!-- Node8 -->
<g id="node8" class="node">
<title>Node8</title>
<g id="a_node8"><a xlink:title="STL class.">
<polygon fill="white" stroke="#bfbfbf" points="99,-306 99,-325 217,-325 217,-306 99,-306"/>
<text text-anchor="middle" x="158" y="-313" font-family="Helvetica,sans-Serif" font-size="10.00">std::shared_ptr&lt; T &gt;</text>
</a>
</g>
</g>
<!-- Node8&#45;&gt;Node7 -->
<g id="edge7" class="edge">
<title>Node8&#45;&gt;Node7</title>
<path fill="none" stroke="#9a32cd" stroke-dasharray="5,2" d="M175.13,-298.35C202.18,-270.65 259.56,-216.29 319,-187.5 326.97,-183.64 335.56,-180.36 344.29,-177.58"/>
<polygon fill="#9a32cd" stroke="#9a32cd" points="172.45,-296.09 168.04,-305.72 177.5,-300.94 172.45,-296.09"/>
<text text-anchor="middle" x="276.5" y="-231.5" font-family="Helvetica,sans-Serif" font-size="10.00"> keys</text>
</g>
<!-- Node17 -->
<g id="node17" class="node">
<title>Node17</title>
<g id="a_node17"><a xlink:title=" ">
<polygon fill="white" stroke="#bfbfbf" points="555,-327.5 555,-357.5 709,-357.5 709,-327.5 555,-327.5"/>
<text text-anchor="start" x="563" y="-345.5" font-family="Helvetica,sans-Serif" font-size="10.00">std::vector&lt; IAuthentication</text>
<text text-anchor="middle" x="632" y="-334.5" font-family="Helvetica,sans-Serif" font-size="10.00">SourcePtr &gt;</text>
</a>
</g>
</g>
<!-- Node8&#45;&gt;Node17 -->
<g id="edge19" class="edge">
<title>Node8&#45;&gt;Node17</title>
<path fill="none" stroke="#9a32cd" stroke-dasharray="5,2" d="M227.38,-319.41C314.4,-324.39 464.26,-332.96 554.84,-338.14"/>
<polygon fill="#9a32cd" stroke="#9a32cd" points="227.53,-315.91 217.35,-318.84 227.13,-322.9 227.53,-315.91"/>
<text text-anchor="middle" x="276.5" y="-325.5" font-family="Helvetica,sans-Serif" font-size="10.00"> elements</text>
</g>
<!-- Node9 -->
<g id="node9" class="node">
<title>Node9</title>
<g id="a_node9"><a xlink:title=" ">
<polygon fill="white" stroke="#bfbfbf" points="0,-306 0,-325 29,-325 29,-306 0,-306"/>
<text text-anchor="middle" x="14.5" y="-313" font-family="Helvetica,sans-Serif" font-size="10.00">T</text>
</a>
</g>
</g>
<!-- Node9&#45;&gt;Node8 -->
<g id="edge8" class="edge">
<title>Node9&#45;&gt;Node8</title>
<path fill="none" stroke="#9a32cd" stroke-dasharray="5,2" d="M39.29,-315.5C55.58,-315.5 77.94,-315.5 98.79,-315.5"/>
<polygon fill="#9a32cd" stroke="#9a32cd" points="39.07,-312 29.07,-315.5 39.07,-319 39.07,-312"/>
<text text-anchor="middle" x="55.5" y="-318.5" font-family="Helvetica,sans-Serif" font-size="10.00"> ptr</text>
</g>
<!-- Node10 -->
<g id="node10" class="node">
<title>Node10</title>
<g id="a_node10"><a xlink:title=" ">
<polygon fill="white" stroke="#bfbfbf" points="374,-98.5 374,-128.5 482,-128.5 482,-98.5 374,-98.5"/>
<text text-anchor="start" x="382" y="-116.5" font-family="Helvetica,sans-Serif" font-size="10.00">std::vector&lt; Cred::</text>
<text text-anchor="middle" x="428" y="-105.5" font-family="Helvetica,sans-Serif" font-size="10.00">CredentialLWPtr &gt;</text>
</a>
</g>
</g>
<!-- Node10&#45;&gt;Node5 -->
<g id="edge9" class="edge">
<title>Node10&#45;&gt;Node5</title>
<path fill="none" stroke="#9a32cd" stroke-dasharray="5,2" d="M492.41,-113.01C549.51,-113.6 635.49,-117.03 709,-130.5 729.01,-134.17 750.95,-141.12 767.32,-146.91"/>
<polygon fill="#9a32cd" stroke="#9a32cd" points="492.12,-109.51 482.1,-112.94 492.07,-116.51 492.12,-109.51"/>
<text text-anchor="middle" x="632" y="-133.5" font-family="Helvetica,sans-Serif" font-size="10.00"> credentials_</text>
</g>
<!-- Node11 -->
<g id="node11" class="node">
<title>Node11</title>
<g id="a_node11"><a xlink:title="STL class.">
<polygon fill="white" stroke="#bfbfbf" points="395.5,-364 395.5,-383 460.5,-383 460.5,-364 395.5,-364"/>
<text text-anchor="middle" x="428" y="-371" font-family="Helvetica,sans-Serif" font-size="10.00">std::string</text>
</a>
</g>
</g>
<!-- Node11&#45;&gt;Node1 -->
<g id="edge16" class="edge">
<title>Node11&#45;&gt;Node1</title>
<path fill="none" stroke="#9a32cd" stroke-dasharray="5,2" d="M470.5,-373.01C525.18,-372.28 624.32,-370.62 709,-367.5 895.8,-360.61 942.33,-355.3 1129,-345.5 1154.33,-344.17 1160.79,-345.32 1186,-342.5 1202.46,-340.66 1220.34,-337.84 1236.32,-335.03"/>
<polygon fill="#9a32cd" stroke="#9a32cd" points="470.46,-369.51 460.5,-373.14 470.55,-376.51 470.46,-369.51"/>
<text text-anchor="middle" x="915" y="-373.5" font-family="Helvetica,sans-Serif" font-size="10.00"> source_name_</text>
<text text-anchor="middle" x="915" y="-362.5" font-family="Helvetica,sans-Serif" font-size="10.00">id_</text>
</g>
<!-- Node11&#45;&gt;Node5 -->
<g id="edge10" class="edge">
<title>Node11&#45;&gt;Node5</title>
<path fill="none" stroke="#9a32cd" stroke-dasharray="5,2" d="M455.2,-358.6C478.22,-344.78 511.87,-322.73 537,-298.5 546.6,-289.25 544.08,-282.16 555,-274.5 613.58,-233.4 646.21,-261.84 709,-227.5 739.72,-210.7 769.42,-181.37 783.69,-166.2"/>
<polygon fill="#9a32cd" stroke="#9a32cd" points="453.17,-355.73 446.34,-363.83 456.73,-361.76 453.17,-355.73"/>
<text text-anchor="middle" x="632" y="-310.5" font-family="Helvetica,sans-Serif" font-size="10.00"> email_</text>
<text text-anchor="middle" x="632" y="-299.5" font-family="Helvetica,sans-Serif" font-size="10.00">firstname_</text>
<text text-anchor="middle" x="632" y="-288.5" font-family="Helvetica,sans-Serif" font-size="10.00">lastname_</text>
<text text-anchor="middle" x="632" y="-277.5" font-family="Helvetica,sans-Serif" font-size="10.00">username_</text>
</g>
<!-- Node12 -->
<g id="node12" class="node">
<title>Node12</title>
<g id="a_node12"><a xlink:title="STL class.">
<polygon fill="white" stroke="#bfbfbf" points="106,-358.5 106,-388.5 210,-388.5 210,-358.5 106,-358.5"/>
<text text-anchor="start" x="114" y="-376.5" font-family="Helvetica,sans-Serif" font-size="10.00">std::basic_string&lt;</text>
<text text-anchor="middle" x="158" y="-365.5" font-family="Helvetica,sans-Serif" font-size="10.00"> char &gt;</text>
</a>
</g>
</g>
<!-- Node12&#45;&gt;Node11 -->
<g id="edge11" class="edge">
<title>Node12&#45;&gt;Node11</title>
<path fill="none" stroke="midnightblue" d="M220.29,-373.5C274.87,-373.5 352.53,-373.5 395.44,-373.5"/>
<polygon fill="midnightblue" stroke="midnightblue" points="220.04,-370 210.04,-373.5 220.04,-377 220.04,-370"/>
</g>
<!-- Node13 -->
<g id="node13" class="node">
<title>Node13</title>
<g id="a_node13"><a xlink:title=" ">
<polygon fill="white" stroke="#bfbfbf" points="354,-196.5 354,-226.5 502,-226.5 502,-196.5 354,-196.5"/>
<text text-anchor="start" x="362" y="-214.5" font-family="Helvetica,sans-Serif" font-size="10.00">std::vector&lt; Tools</text>
<text text-anchor="middle" x="428" y="-203.5" font-family="Helvetica,sans-Serif" font-size="10.00">::ScheduleMappingLWPtr &gt;</text>
</a>
</g>
</g>
<!-- Node13&#45;&gt;Node5 -->
<g id="edge12" class="edge">
<title>Node13&#45;&gt;Node5</title>
<path fill="none" stroke="#9a32cd" stroke-dasharray="5,2" d="M508.96,-194.22C518.43,-192.03 527.94,-189.76 537,-187.5 545.06,-185.49 546.85,-184.07 555,-182.5 617.93,-170.4 691.41,-163.43 739.78,-159.81"/>
<polygon fill="#9a32cd" stroke="#9a32cd" points="508.1,-190.83 499.13,-196.47 509.66,-197.65 508.1,-190.83"/>
<text text-anchor="middle" x="632" y="-185.5" font-family="Helvetica,sans-Serif" font-size="10.00"> schedules_mapping_</text>
</g>
<!-- Node14 -->
<g id="node14" class="node">
<title>Node14</title>
<g id="a_node14"><a xlink:href="../../d9/d24/classLeosac_1_1Auth_1_1ValidityInfo.html" target="_top" xlink:title="A simple class that stores (and can be queried for) the validity of some objects.">
<polygon fill="white" stroke="black" points="358,-270 358,-289 498,-289 498,-270 358,-270"/>
<text text-anchor="middle" x="428" y="-277" font-family="Helvetica,sans-Serif" font-size="10.00">Leosac::Auth::ValidityInfo</text>
</a>
</g>
</g>
<!-- Node14&#45;&gt;Node1 -->
<g id="edge17" class="edge">
<title>Node14&#45;&gt;Node1</title>
<path fill="none" stroke="#9a32cd" stroke-dasharray="5,2" d="M508.28,-289.87C523.76,-291.63 539.87,-293.28 555,-294.5 678.91,-304.49 1041,-317.36 1203.92,-322.84"/>
<polygon fill="#9a32cd" stroke="#9a32cd" points="508.56,-286.38 498.23,-288.7 507.75,-293.33 508.56,-286.38"/>
<text text-anchor="middle" x="915" y="-316.5" font-family="Helvetica,sans-Serif" font-size="10.00"> validity_</text>
</g>
<!-- Node14&#45;&gt;Node5 -->
<g id="edge13" class="edge">
<title>Node14&#45;&gt;Node5</title>
<path fill="none" stroke="#9a32cd" stroke-dasharray="5,2" d="M474.24,-266.68C494.52,-259.67 518.07,-249.68 537,-236.5 546.81,-229.66 544.47,-222.16 555,-216.5 615.96,-183.74 642.54,-212.8 709,-193.5 732.6,-186.64 758.23,-174.53 774.79,-166.03"/>
<polygon fill="#9a32cd" stroke="#9a32cd" points="472.97,-263.41 464.58,-269.88 475.18,-270.06 472.97,-263.41"/>
<text text-anchor="middle" x="632" y="-219.5" font-family="Helvetica,sans-Serif" font-size="10.00"> validity_</text>
</g>
<!-- Node15 -->
<g id="node15" class="node">
<title>Node15</title>
<g id="a_node15"><a xlink:title=" ">
<polygon fill="white" stroke="#bfbfbf" points="359.5,-0.5 359.5,-30.5 496.5,-30.5 496.5,-0.5 359.5,-0.5"/>
<text text-anchor="start" x="367.5" y="-18.5" font-family="Helvetica,sans-Serif" font-size="10.00">std::shared_ptr&lt; IAccess</text>
<text text-anchor="middle" x="428" y="-7.5" font-family="Helvetica,sans-Serif" font-size="10.00">Profile &gt;</text>
</a>
</g>
</g>
<!-- Node15&#45;&gt;Node1 -->
<g id="edge20" class="edge">
<title>Node15&#45;&gt;Node1</title>
<path fill="none" stroke="#9a32cd" stroke-dasharray="5,2" d="M507.05,-11.91C563.81,-11.1 642.1,-13.74 709,-29.5 907.36,-76.25 951.92,-112.63 1129,-213.5 1186.36,-246.17 1248.31,-295.3 1273.44,-315.89"/>
<polygon fill="#9a32cd" stroke="#9a32cd" points="506.65,-8.42 496.71,-12.1 506.77,-15.42 506.65,-8.42"/>
<text text-anchor="middle" x="915" y="-115.5" font-family="Helvetica,sans-Serif" font-size="10.00"> profile_</text>
</g>
<!-- Node15&#45;&gt;Node5 -->
<g id="edge14" class="edge">
<title>Node15&#45;&gt;Node5</title>
<path fill="none" stroke="#9a32cd" stroke-dasharray="5,2" d="M506.72,-22.03C577.23,-29.01 675.16,-41.7 709,-60.5 747.04,-81.63 775.98,-127.09 787.3,-146.92"/>
<polygon fill="#9a32cd" stroke="#9a32cd" points="506.82,-18.52 496.53,-21.04 506.14,-25.49 506.82,-18.52"/>
<text text-anchor="middle" x="632" y="-63.5" font-family="Helvetica,sans-Serif" font-size="10.00"> profile_</text>
</g>
<!-- Node16 -->
<g id="node16" class="node">
<title>Node16</title>
<g id="a_node16"><a xlink:href="../../d5/d20/classLeosac_1_1Auth_1_1IAccessProfile.html" target="_top" xlink:title="Holds information about access permission.">
<polygon fill="white" stroke="black" points="82,-6 82,-25 234,-25 234,-6 82,-6"/>
<text text-anchor="middle" x="158" y="-13" font-family="Helvetica,sans-Serif" font-size="10.00">Leosac::Auth::IAccessProfile</text>
</a>
</g>
</g>
<!-- Node16&#45;&gt;Node15 -->
<g id="edge15" class="edge">
<title>Node16&#45;&gt;Node15</title>
<path fill="none" stroke="#9a32cd" stroke-dasharray="5,2" d="M244.33,-15.5C281.49,-15.5 324.43,-15.5 359.34,-15.5"/>
<polygon fill="#9a32cd" stroke="#9a32cd" points="244.01,-12 234.01,-15.5 244.01,-19 244.01,-12"/>
<text text-anchor="middle" x="276.5" y="-18.5" font-family="Helvetica,sans-Serif" font-size="10.00"> ptr</text>
</g>
<!-- Node17&#45;&gt;Node1 -->
<g id="edge18" class="edge">
<title>Node17&#45;&gt;Node1</title>
<path fill="none" stroke="#9a32cd" stroke-dasharray="5,2" d="M719.11,-340.25C845.64,-336.96 1080.14,-330.84 1203.81,-327.62"/>
<polygon fill="#9a32cd" stroke="#9a32cd" points="718.97,-336.76 709.07,-340.52 719.16,-343.75 718.97,-336.76"/>
<text text-anchor="middle" x="915" y="-338.5" font-family="Helvetica,sans-Serif" font-size="10.00"> subsources_</text>
</g>
</g>
</svg>
