<?xml version="1.0" encoding="UTF-8" standalone="no"?>
<!DOCTYPE svg PUBLIC "-//W3C//DTD SVG 1.1//EN"
 "http://www.w3.org/Graphics/SVG/1.1/DTD/svg11.dtd">
<!-- Generated by graphviz version 2.43.0 (0)
 -->
<!-- Title: Leosac::Module::SMTP::SMTPConfig Pages: 1 -->
<svg width="164pt" height="385pt"
 viewBox="0.00 0.00 164.00 385.00" xmlns="http://www.w3.org/2000/svg" xmlns:xlink="http://www.w3.org/1999/xlink">
<g id="graph0" class="graph" transform="scale(1 1) rotate(0) translate(4 381)">
<title>Leosac::Module::SMTP::SMTPConfig</title>
<polygon fill="white" stroke="transparent" points="-4,4 -4,-381 160,-381 160,4 -4,4"/>
<!-- Node1 -->
<g id="node1" class="node">
<title>Node1</title>
<g id="a_node1"><a xlink:title="Wrapper around the SMTP module configuration.">
<polygon fill="#bfbfbf" stroke="black" points="15.5,-0.5 15.5,-30.5 140.5,-30.5 140.5,-0.5 15.5,-0.5"/>
<text text-anchor="start" x="23.5" y="-18.5" font-family="Helvetica,sans-Serif" font-size="10.00">Leosac::Module::SMTP</text>
<text text-anchor="middle" x="78" y="-7.5" font-family="Helvetica,sans-Serif" font-size="10.00">::SMTPConfig</text>
</a>
</g>
</g>
<!-- Node2 -->
<g id="node2" class="node">
<title>Node2</title>
<g id="a_node2"><a xlink:title=" ">
<polygon fill="white" stroke="#bfbfbf" points="0,-78.5 0,-119.5 156,-119.5 156,-78.5 0,-78.5"/>
<text text-anchor="start" x="8" y="-107.5" font-family="Helvetica,sans-Serif" font-size="10.00">std::vector&lt; Leosac</text>
<text text-anchor="start" x="8" y="-96.5" font-family="Helvetica,sans-Serif" font-size="10.00">::Module::SMTP::SMTPServer</text>
<text text-anchor="middle" x="78" y="-85.5" font-family="Helvetica,sans-Serif" font-size="10.00">Info &gt;</text>
</a>
</g>
</g>
<!-- Node2&#45;&gt;Node1 -->
<g id="edge1" class="edge">
<title>Node2&#45;&gt;Node1</title>
<path fill="none" stroke="#9a32cd" stroke-dasharray="5,2" d="M78,-68.03C78,-55.26 78,-40.97 78,-30.68"/>
<polygon fill="#9a32cd" stroke="#9a32cd" points="74.5,-68.27 78,-78.27 81.5,-68.27 74.5,-68.27"/>
<text text-anchor="middle" x="100.5" y="-52" font-family="Helvetica,sans-Serif" font-size="10.00"> servers_</text>
</g>
<!-- Node3 -->
<g id="node3" class="node">
<title>Node3</title>
<g id="a_node3"><a xlink:href="../../d7/d33/structLeosac_1_1Module_1_1SMTP_1_1SMTPServerInfo.html" target="_top" xlink:title=" ">
<polygon fill="white" stroke="black" points="15.5,-167.5 15.5,-197.5 140.5,-197.5 140.5,-167.5 15.5,-167.5"/>
<text text-anchor="start" x="23.5" y="-185.5" font-family="Helvetica,sans-Serif" font-size="10.00">Leosac::Module::SMTP</text>
<text text-anchor="middle" x="78" y="-174.5" font-family="Helvetica,sans-Serif" font-size="10.00">::SMTPServerInfo</text>
</a>
</g>
</g>
<!-- Node3&#45;&gt;Node2 -->
<g id="edge2" class="edge">
<title>Node3&#45;&gt;Node2</title>
<path fill="none" stroke="#9a32cd" stroke-dasharray="5,2" d="M78,-157.07C78,-145.06 78,-130.79 78,-119.53"/>
<polygon fill="#9a32cd" stroke="#9a32cd" points="74.5,-157.3 78,-167.3 81.5,-157.3 74.5,-157.3"/>
<text text-anchor="middle" x="102.5" y="-141" font-family="Helvetica,sans-Serif" font-size="10.00"> elements</text>
</g>
<!-- Node4 -->
<g id="node4" class="node">
<title>Node4</title>
<g id="a_node4"><a xlink:title="STL class.">
<polygon fill="white" stroke="#bfbfbf" points="45.5,-289.5 45.5,-308.5 110.5,-308.5 110.5,-289.5 45.5,-289.5"/>
<text text-anchor="middle" x="78" y="-296.5" font-family="Helvetica,sans-Serif" font-size="10.00">std::string</text>
</a>
</g>
</g>
<!-- Node4&#45;&gt;Node3 -->
<g id="edge3" class="edge">
<title>Node4&#45;&gt;Node3</title>
<path fill="none" stroke="#9a32cd" stroke-dasharray="5,2" d="M78,-279.29C78,-256.48 78,-218.41 78,-197.81"/>
<polygon fill="#9a32cd" stroke="#9a32cd" points="74.5,-279.39 78,-289.39 81.5,-279.39 74.5,-279.39"/>
<text text-anchor="middle" x="110" y="-263" font-family="Helvetica,sans-Serif" font-size="10.00"> password</text>
<text text-anchor="middle" x="110" y="-252" font-family="Helvetica,sans-Serif" font-size="10.00">url</text>
<text text-anchor="middle" x="110" y="-241" font-family="Helvetica,sans-Serif" font-size="10.00">username</text>
<text text-anchor="middle" x="110" y="-230" font-family="Helvetica,sans-Serif" font-size="10.00">from</text>
<text text-anchor="middle" x="110" y="-219" font-family="Helvetica,sans-Serif" font-size="10.00">CA_info_file_</text>
</g>
<!-- Node5 -->
<g id="node5" class="node">
<title>Node5</title>
<g id="a_node5"><a xlink:title="STL class.">
<polygon fill="white" stroke="#bfbfbf" points="26,-346.5 26,-376.5 130,-376.5 130,-346.5 26,-346.5"/>
<text text-anchor="start" x="34" y="-364.5" font-family="Helvetica,sans-Serif" font-size="10.00">std::basic_string&lt;</text>
<text text-anchor="middle" x="78" y="-353.5" font-family="Helvetica,sans-Serif" font-size="10.00"> char &gt;</text>
</a>
</g>
</g>
<!-- Node5&#45;&gt;Node4 -->
<g id="edge4" class="edge">
<title>Node5&#45;&gt;Node4</title>
<path fill="none" stroke="midnightblue" d="M78,-336.35C78,-326.51 78,-315.78 78,-308.54"/>
<polygon fill="midnightblue" stroke="midnightblue" points="74.5,-336.47 78,-346.47 81.5,-336.47 74.5,-336.47"/>
</g>
</g>
</svg>
