<?xml version="1.0" encoding="UTF-8" standalone="no"?>
<!DOCTYPE svg PUBLIC "-//W3C//DTD SVG 1.1//EN"
 "http://www.w3.org/Graphics/SVG/1.1/DTD/svg11.dtd">
<!-- Generated by graphviz version 2.43.0 (0)
 -->
<!-- Title: Leosac::MailInfo Pages: 1 -->
<svg width="230pt" height="232pt"
 viewBox="0.00 0.00 230.00 232.00" xmlns="http://www.w3.org/2000/svg" xmlns:xlink="http://www.w3.org/1999/xlink">
<g id="graph0" class="graph" transform="scale(1 1) rotate(0) translate(4 228)">
<title>Leosac::MailInfo</title>
<polygon fill="white" stroke="transparent" points="-4,4 -4,-228 226,-228 226,4 -4,4"/>
<!-- Node1 -->
<g id="node1" class="node">
<title>Node1</title>
<g id="a_node1"><a xlink:title=" ">
<polygon fill="#bfbfbf" stroke="black" points="4,-0.5 4,-19.5 100,-19.5 100,-0.5 4,-0.5"/>
<text text-anchor="middle" x="52" y="-7.5" font-family="Helvetica,sans-Serif" font-size="10.00">Leosac::MailInfo</text>
</a>
</g>
</g>
<!-- Node2 -->
<g id="node2" class="node">
<title>Node2</title>
<g id="a_node2"><a xlink:title="STL class.">
<polygon fill="white" stroke="#bfbfbf" points="19.5,-136.5 19.5,-155.5 84.5,-155.5 84.5,-136.5 19.5,-136.5"/>
<text text-anchor="middle" x="52" y="-143.5" font-family="Helvetica,sans-Serif" font-size="10.00">std::string</text>
</a>
</g>
</g>
<!-- Node2&#45;&gt;Node1 -->
<g id="edge1" class="edge">
<title>Node2&#45;&gt;Node1</title>
<path fill="none" stroke="#9a32cd" stroke-dasharray="5,2" d="M48.73,-126.32C46.34,-110.53 43.74,-87.31 45,-67 46.05,-50.18 48.85,-30.68 50.57,-19.7"/>
<polygon fill="#9a32cd" stroke="#9a32cd" points="45.3,-127.05 50.36,-136.36 52.21,-125.92 45.3,-127.05"/>
<text text-anchor="middle" x="59" y="-81" font-family="Helvetica,sans-Serif" font-size="10.00"> body</text>
<text text-anchor="middle" x="59" y="-70" font-family="Helvetica,sans-Serif" font-size="10.00">title</text>
</g>
<!-- Node4 -->
<g id="node4" class="node">
<title>Node4</title>
<g id="a_node4"><a xlink:title=" ">
<polygon fill="white" stroke="#bfbfbf" points="82,-68.5 82,-87.5 222,-87.5 222,-68.5 82,-68.5"/>
<text text-anchor="middle" x="152" y="-75.5" font-family="Helvetica,sans-Serif" font-size="10.00">std::vector&lt; std::string &gt;</text>
</a>
</g>
</g>
<!-- Node2&#45;&gt;Node4 -->
<g id="edge4" class="edge">
<title>Node2&#45;&gt;Node4</title>
<path fill="none" stroke="#9a32cd" stroke-dasharray="5,2" d="M73.5,-130.81C93.38,-117.69 122.3,-98.6 138.92,-87.63"/>
<polygon fill="#9a32cd" stroke="#9a32cd" points="71.49,-127.94 65.07,-136.37 75.35,-133.78 71.49,-127.94"/>
<text text-anchor="middle" x="131.5" y="-110" font-family="Helvetica,sans-Serif" font-size="10.00"> elements</text>
</g>
<!-- Node3 -->
<g id="node3" class="node">
<title>Node3</title>
<g id="a_node3"><a xlink:title="STL class.">
<polygon fill="white" stroke="#bfbfbf" points="0,-193.5 0,-223.5 104,-223.5 104,-193.5 0,-193.5"/>
<text text-anchor="start" x="8" y="-211.5" font-family="Helvetica,sans-Serif" font-size="10.00">std::basic_string&lt;</text>
<text text-anchor="middle" x="52" y="-200.5" font-family="Helvetica,sans-Serif" font-size="10.00"> char &gt;</text>
</a>
</g>
</g>
<!-- Node3&#45;&gt;Node2 -->
<g id="edge2" class="edge">
<title>Node3&#45;&gt;Node2</title>
<path fill="none" stroke="midnightblue" d="M52,-183.35C52,-173.51 52,-162.78 52,-155.54"/>
<polygon fill="midnightblue" stroke="midnightblue" points="48.5,-183.47 52,-193.47 55.5,-183.47 48.5,-183.47"/>
</g>
<!-- Node4&#45;&gt;Node1 -->
<g id="edge3" class="edge">
<title>Node4&#45;&gt;Node1</title>
<path fill="none" stroke="#9a32cd" stroke-dasharray="5,2" d="M130.5,-62.81C110.62,-49.69 81.7,-30.6 65.08,-19.63"/>
<polygon fill="#9a32cd" stroke="#9a32cd" points="128.65,-65.78 138.93,-68.37 132.51,-59.94 128.65,-65.78"/>
<text text-anchor="middle" x="113.5" y="-41" font-family="Helvetica,sans-Serif" font-size="10.00"> to</text>
</g>
</g>
</svg>
