<?xml version="1.0" encoding="UTF-8" standalone="no"?>
<!DOCTYPE svg PUBLIC "-//W3C//DTD SVG 1.1//EN"
 "http://www.w3.org/Graphics/SVG/1.1/DTD/svg11.dtd">
<!-- Generated by graphviz version 2.43.0 (0)
 -->
<!-- Title: src/core/audit/IScheduleEvent.hpp Pages: 1 -->
<svg width="617pt" height="162pt"
 viewBox="0.00 0.00 617.00 162.00" xmlns="http://www.w3.org/2000/svg" xmlns:xlink="http://www.w3.org/1999/xlink">
<g id="graph0" class="graph" transform="scale(1 1) rotate(0) translate(4 158)">
<title>src/core/audit/IScheduleEvent.hpp</title>
<polygon fill="white" stroke="transparent" points="-4,4 -4,-158 613,-158 613,4 -4,4"/>
<!-- Node1 -->
<g id="node1" class="node">
<title>Node1</title>
<g id="a_node1"><a xlink:title=" ">
<polygon fill="#bfbfbf" stroke="black" points="297,-123.5 297,-153.5 430,-153.5 430,-123.5 297,-123.5"/>
<text text-anchor="start" x="305" y="-141.5" font-family="Helvetica,sans-Serif" font-size="10.00">src/core/audit/ISchedule</text>
<text text-anchor="middle" x="363.5" y="-130.5" font-family="Helvetica,sans-Serif" font-size="10.00">Event.hpp</text>
</a>
</g>
</g>
<!-- Node2 -->
<g id="node2" class="node">
<title>Node2</title>
<g id="a_node2"><a xlink:href="../../de/daf/ScheduleEvent_8hpp.html" target="_top" xlink:title=" ">
<polygon fill="white" stroke="black" points="88,-62 88,-81 267,-81 267,-62 88,-62"/>
<text text-anchor="middle" x="177.5" y="-69" font-family="Helvetica,sans-Serif" font-size="10.00">src/core/audit/ScheduleEvent.hpp</text>
</a>
</g>
</g>
<!-- Node1&#45;&gt;Node2 -->
<g id="edge1" class="edge">
<title>Node1&#45;&gt;Node2</title>
<path fill="none" stroke="midnightblue" d="M313.27,-119.95C277.14,-107.32 230.01,-90.85 201.84,-81.01"/>
<polygon fill="midnightblue" stroke="midnightblue" points="312.55,-123.4 323.14,-123.4 314.86,-116.79 312.55,-123.4"/>
</g>
<!-- Node5 -->
<g id="node5" class="node">
<title>Node5</title>
<g id="a_node5"><a xlink:href="../../d7/d97/ScheduleEventSerializer_8cpp.html" target="_top" xlink:title=" ">
<polygon fill="white" stroke="black" points="285,-56.5 285,-86.5 442,-86.5 442,-56.5 285,-56.5"/>
<text text-anchor="start" x="293" y="-74.5" font-family="Helvetica,sans-Serif" font-size="10.00">src/core/audit/serializers</text>
<text text-anchor="middle" x="363.5" y="-63.5" font-family="Helvetica,sans-Serif" font-size="10.00">/ScheduleEventSerializer.cpp</text>
</a>
</g>
</g>
<!-- Node1&#45;&gt;Node5 -->
<g id="edge4" class="edge">
<title>Node1&#45;&gt;Node5</title>
<path fill="none" stroke="midnightblue" d="M363.5,-113.11C363.5,-104.15 363.5,-94.32 363.5,-86.58"/>
<polygon fill="midnightblue" stroke="midnightblue" points="360,-113.4 363.5,-123.4 367,-113.4 360,-113.4"/>
</g>
<!-- Node6 -->
<g id="node6" class="node">
<title>Node6</title>
<g id="a_node6"><a xlink:href="../../df/dfa/ScheduleCRUD_8cpp.html" target="_top" xlink:title=" ">
<polygon fill="white" stroke="black" points="460,-56.5 460,-86.5 609,-86.5 609,-56.5 460,-56.5"/>
<text text-anchor="start" x="468" y="-74.5" font-family="Helvetica,sans-Serif" font-size="10.00">src/modules/websock</text>
<text text-anchor="middle" x="534.5" y="-63.5" font-family="Helvetica,sans-Serif" font-size="10.00">&#45;api/api/ScheduleCRUD.cpp</text>
</a>
</g>
</g>
<!-- Node1&#45;&gt;Node6 -->
<g id="edge5" class="edge">
<title>Node1&#45;&gt;Node6</title>
<path fill="none" stroke="midnightblue" d="M410.02,-119.82C437.5,-109.37 471.83,-96.32 497.47,-86.58"/>
<polygon fill="midnightblue" stroke="midnightblue" points="408.71,-116.57 400.6,-123.4 411.2,-123.11 408.71,-116.57"/>
</g>
<!-- Node3 -->
<g id="node3" class="node">
<title>Node3</title>
<g id="a_node3"><a xlink:href="../../d4/dbe/AuditFactory_8cpp.html" target="_top" xlink:title=" ">
<polygon fill="white" stroke="black" points="0,-0.5 0,-19.5 165,-19.5 165,-0.5 0,-0.5"/>
<text text-anchor="middle" x="82.5" y="-7.5" font-family="Helvetica,sans-Serif" font-size="10.00">src/core/audit/AuditFactory.cpp</text>
</a>
</g>
</g>
<!-- Node2&#45;&gt;Node3 -->
<g id="edge2" class="edge">
<title>Node2&#45;&gt;Node3</title>
<path fill="none" stroke="midnightblue" d="M155.29,-56.59C136.95,-45.1 111.52,-29.18 96.09,-19.51"/>
<polygon fill="midnightblue" stroke="midnightblue" points="153.56,-59.63 163.89,-61.98 157.27,-53.7 153.56,-59.63"/>
</g>
<!-- Node4 -->
<g id="node4" class="node">
<title>Node4</title>
<g id="a_node4"><a xlink:href="../../d8/d89/ScheduleEvent_8cpp.html" target="_top" xlink:title=" ">
<polygon fill="white" stroke="black" points="183.5,-0.5 183.5,-19.5 361.5,-19.5 361.5,-0.5 183.5,-0.5"/>
<text text-anchor="middle" x="272.5" y="-7.5" font-family="Helvetica,sans-Serif" font-size="10.00">src/core/audit/ScheduleEvent.cpp</text>
</a>
</g>
</g>
<!-- Node2&#45;&gt;Node4 -->
<g id="edge3" class="edge">
<title>Node2&#45;&gt;Node4</title>
<path fill="none" stroke="midnightblue" d="M199.71,-56.59C218.05,-45.1 243.48,-29.18 258.91,-19.51"/>
<polygon fill="midnightblue" stroke="midnightblue" points="197.73,-53.7 191.11,-61.98 201.44,-59.63 197.73,-53.7"/>
</g>
</g>
</svg>
