<?xml version="1.0" encoding="UTF-8" standalone="no"?>
<!DOCTYPE svg PUBLIC "-//W3C//DTD SVG 1.1//EN"
 "http://www.w3.org/Graphics/SVG/1.1/DTD/svg11.dtd">
<!-- Generated by graphviz version 2.43.0 (0)
 -->
<!-- Title: src/exception/InvalidArgument.hpp Pages: 1 -->
<!--zoomable 162 -->
<svg id="main" version="1.1" xmlns="http://www.w3.org/2000/svg" xmlns:xlink="http://www.w3.org/1999/xlink" xml:space="preserve" onload="init(evt)">
<style type="text/css"><![CDATA[
.edge:hover path { stroke: red; }
.edge:hover polygon { stroke: red; fill: red; }
]]></style>
<script type="text/javascript"><![CDATA[
var edges = document.getElementsByTagName('g');
if (edges && edges.length) {
  for (var i=0;i<edges.length;i++) {
    if (edges[i].id.substr(0,4)=='edge') {
      edges[i].setAttribute('class','edge');
    }
  }
}
]]></script>
        <defs>
                <circle id="rim" cx="0" cy="0" r="7"/>
                <circle id="rim2" cx="0" cy="0" r="3.5"/>
                <g id="zoomPlus">
                        <use xlink:href="#rim" fill="#404040">
                                <set attributeName="fill" to="#808080" begin="zoomplus.mouseover" end="zoomplus.mouseout"/>
                        </use>
                        <path d="M-4,0h8M0,-4v8" fill="none" stroke="white" stroke-width="1.5" pointer-events="none"/>
                </g>
                <g id="zoomMin">
                        <use xlink:href="#rim" fill="#404040">
                                <set attributeName="fill" to="#808080" begin="zoomminus.mouseover" end="zoomminus.mouseout"/>
                        </use>
                        <path d="M-4,0h8" fill="none" stroke="white" stroke-width="1.5" pointer-events="none"/>
                </g>
                <g id="dirArrow">
                        <path fill="none" stroke="white" stroke-width="1.5" d="M0,-3.0v7 M-2.5,-0.5L0,-3.0L2.5,-0.5"/>
                </g>
               <g id="resetDef">
                       <use xlink:href="#rim2" fill="#404040">
                               <set attributeName="fill" to="#808080" begin="reset.mouseover" end="reset.mouseout"/>
                       </use>
               </g>
        </defs>

<script type="text/javascript">
var viewWidth = 1099;
var viewHeight = 162;
var sectionId = 'dynsection-1';
</script>
<script xlink:href="../../svgpan.js"/>
<svg id="graph" class="graph">
<g id="viewport">
<title>src/exception/InvalidArgument.hpp</title>
<polygon fill="white" stroke="transparent" points="-4,4 -4,-158 1094.5,-158 1094.5,4 -4,4"/>
<!-- Node1 -->
<g id="node1" class="node">
<title>Node1</title>
<g id="a_node1"><a xlink:title=" ">
<polygon fill="#bfbfbf" stroke="black" points="202.5,-134.5 202.5,-153.5 389.5,-153.5 389.5,-134.5 202.5,-134.5"/>
<text text-anchor="middle" x="296" y="-141.5" font-family="Helvetica,sans-Serif" font-size="10.00">src/exception/InvalidArgument.hpp</text>
</a>
</g>
</g>
<!-- Node2 -->
<g id="node2" class="node">
<title>Node2</title>
<g id="a_node2"><a xlink:href="../../da/d62/AuditGet_8cpp.html" target="_top" xlink:title=" ">
<polygon fill="white" stroke="black" points="0,-0.5 0,-30.5 122,-30.5 122,-0.5 0,-0.5"/>
<text text-anchor="start" x="8" y="-18.5" font-family="Helvetica,sans-Serif" font-size="10.00">src/modules/websock</text>
<text text-anchor="middle" x="61" y="-7.5" font-family="Helvetica,sans-Serif" font-size="10.00">&#45;api/api/AuditGet.cpp</text>
</a>
</g>
</g>
<!-- Node1&#45;&gt;Node2 -->
<g id="edge1" class="edge">
<title>Node1&#45;&gt;Node2</title>
<path fill="none" stroke="midnightblue" d="M270.13,-129.62C253.02,-120.73 230.12,-108.77 210,-98 166.45,-74.7 116.1,-47 86.5,-30.63"/>
<polygon fill="midnightblue" stroke="midnightblue" points="268.98,-132.97 279.47,-134.46 272.2,-126.75 268.98,-132.97"/>
</g>
<!-- Node3 -->
<g id="node3" class="node">
<title>Node3</title>
<g id="a_node3"><a xlink:href="../../d7/d0b/ExceptionConverter_8cpp.html" target="_top" xlink:title=" ">
<polygon fill="white" stroke="black" points="219,-67.5 219,-97.5 373,-97.5 373,-67.5 219,-67.5"/>
<text text-anchor="start" x="227" y="-85.5" font-family="Helvetica,sans-Serif" font-size="10.00">src/modules/websock</text>
<text text-anchor="middle" x="296" y="-74.5" font-family="Helvetica,sans-Serif" font-size="10.00">&#45;api/ExceptionConverter.cpp</text>
</a>
</g>
</g>
<!-- Node1&#45;&gt;Node3 -->
<g id="edge2" class="edge">
<title>Node1&#45;&gt;Node3</title>
<path fill="none" stroke="midnightblue" d="M296,-124.23C296,-115.59 296,-105.5 296,-97.52"/>
<polygon fill="midnightblue" stroke="midnightblue" points="292.5,-124.48 296,-134.48 299.5,-124.48 292.5,-124.48"/>
</g>
<!-- Node4 -->
<g id="node4" class="node">
<title>Node4</title>
<g id="a_node4"><a xlink:href="../../dc/da6/enforce_8hpp.html" target="_top" xlink:title=" ">
<polygon fill="white" stroke="black" points="406.5,-73 406.5,-92 525.5,-92 525.5,-73 406.5,-73"/>
<text text-anchor="middle" x="466" y="-80" font-family="Helvetica,sans-Serif" font-size="10.00">src/tools/enforce.hpp</text>
</a>
</g>
</g>
<!-- Node1&#45;&gt;Node4 -->
<g id="edge3" class="edge">
<title>Node1&#45;&gt;Node4</title>
<path fill="none" stroke="midnightblue" d="M330.05,-131.08C363.09,-119.52 412.42,-102.25 441.69,-92.01"/>
<polygon fill="midnightblue" stroke="midnightblue" points="328.64,-127.87 320.36,-134.48 330.95,-134.48 328.64,-127.87"/>
</g>
<!-- Node4&#45;&gt;Node2 -->
<g id="edge7" class="edge">
<title>Node4&#45;&gt;Node2</title>
<path fill="none" stroke="midnightblue" d="M407.97,-71.26C399.27,-69.79 390.41,-68.33 382,-67 270.68,-49.41 242.01,-50.44 131,-31 128.07,-30.49 125.07,-29.94 122.04,-29.38"/>
<polygon fill="midnightblue" stroke="midnightblue" points="407.62,-74.75 418.06,-72.98 408.8,-67.85 407.62,-74.75"/>
</g>
<!-- Node5 -->
<g id="node5" class="node">
<title>Node5</title>
<g id="a_node5"><a xlink:href="../../d0/dc0/src_2core_2auth_2AuthSourceBuilder_8cpp.html" target="_top" xlink:title=" ">
<polygon fill="white" stroke="black" points="140,-0.5 140,-30.5 278,-30.5 278,-0.5 140,-0.5"/>
<text text-anchor="start" x="148" y="-18.5" font-family="Helvetica,sans-Serif" font-size="10.00">src/core/auth/AuthSource</text>
<text text-anchor="middle" x="209" y="-7.5" font-family="Helvetica,sans-Serif" font-size="10.00">Builder.cpp</text>
</a>
</g>
</g>
<!-- Node4&#45;&gt;Node5 -->
<g id="edge4" class="edge">
<title>Node4&#45;&gt;Node5</title>
<path fill="none" stroke="midnightblue" d="M422.42,-70.48C378.91,-59.47 311.9,-42.52 264.59,-30.56"/>
<polygon fill="midnightblue" stroke="midnightblue" points="421.58,-73.88 432.14,-72.94 423.3,-67.09 421.58,-73.88"/>
</g>
<!-- Node6 -->
<g id="node6" class="node">
<title>Node6</title>
<g id="a_node6"><a xlink:href="../../d3/dc5/FileAuthSourceMapper_8cpp.html" target="_top" xlink:title=" ">
<polygon fill="white" stroke="black" points="296.5,-0.5 296.5,-30.5 463.5,-30.5 463.5,-0.5 296.5,-0.5"/>
<text text-anchor="start" x="304.5" y="-18.5" font-family="Helvetica,sans-Serif" font-size="10.00">src/modules/auth/auth</text>
<text text-anchor="middle" x="380" y="-7.5" font-family="Helvetica,sans-Serif" font-size="10.00">&#45;file/FileAuthSourceMapper.cpp</text>
</a>
</g>
</g>
<!-- Node4&#45;&gt;Node6 -->
<g id="edge5" class="edge">
<title>Node4&#45;&gt;Node6</title>
<path fill="none" stroke="midnightblue" d="M446.21,-66.54C431.9,-55.73 412.68,-41.2 398.64,-30.59"/>
<polygon fill="midnightblue" stroke="midnightblue" points="444.31,-69.5 454.4,-72.73 448.53,-63.91 444.31,-69.5"/>
</g>
<!-- Node7 -->
<g id="node7" class="node">
<title>Node7</title>
<g id="a_node7"><a xlink:href="../../d6/d95/PFDigitalModule_8cpp.html" target="_top" xlink:title=" ">
<polygon fill="white" stroke="black" points="482,-0.5 482,-30.5 622,-30.5 622,-0.5 482,-0.5"/>
<text text-anchor="start" x="490" y="-18.5" font-family="Helvetica,sans-Serif" font-size="10.00">src/modules/pifacedigital</text>
<text text-anchor="middle" x="552" y="-7.5" font-family="Helvetica,sans-Serif" font-size="10.00">/PFDigitalModule.cpp</text>
</a>
</g>
</g>
<!-- Node4&#45;&gt;Node7 -->
<g id="edge6" class="edge">
<title>Node4&#45;&gt;Node7</title>
<path fill="none" stroke="midnightblue" d="M485.79,-66.54C500.1,-55.73 519.32,-41.2 533.36,-30.59"/>
<polygon fill="midnightblue" stroke="midnightblue" points="483.47,-63.91 477.6,-72.73 487.69,-69.5 483.47,-63.91"/>
</g>
<!-- Node8 -->
<g id="node8" class="node">
<title>Node8</title>
<g id="a_node8"><a xlink:href="../../d7/dde/DoorCRUD_8cpp.html" target="_top" xlink:title=" ">
<polygon fill="white" stroke="black" points="640,-0.5 640,-30.5 768,-30.5 768,-0.5 640,-0.5"/>
<text text-anchor="start" x="648" y="-18.5" font-family="Helvetica,sans-Serif" font-size="10.00">src/modules/websock</text>
<text text-anchor="middle" x="704" y="-7.5" font-family="Helvetica,sans-Serif" font-size="10.00">&#45;api/api/DoorCRUD.cpp</text>
</a>
</g>
</g>
<!-- Node4&#45;&gt;Node8 -->
<g id="edge8" class="edge">
<title>Node4&#45;&gt;Node8</title>
<path fill="none" stroke="midnightblue" d="M507.38,-70.2C547.73,-59.18 609.19,-42.39 652.64,-30.53"/>
<polygon fill="midnightblue" stroke="midnightblue" points="506.33,-66.86 497.6,-72.87 508.17,-73.61 506.33,-66.86"/>
</g>
<!-- Node9 -->
<g id="node9" class="node">
<title>Node9</title>
<g id="a_node9"><a xlink:href="../../df/dfa/ScheduleCRUD_8cpp.html" target="_top" xlink:title=" ">
<polygon fill="white" stroke="black" points="786.5,-0.5 786.5,-30.5 935.5,-30.5 935.5,-0.5 786.5,-0.5"/>
<text text-anchor="start" x="794.5" y="-18.5" font-family="Helvetica,sans-Serif" font-size="10.00">src/modules/websock</text>
<text text-anchor="middle" x="861" y="-7.5" font-family="Helvetica,sans-Serif" font-size="10.00">&#45;api/api/ScheduleCRUD.cpp</text>
</a>
</g>
</g>
<!-- Node4&#45;&gt;Node9 -->
<g id="edge9" class="edge">
<title>Node4&#45;&gt;Node9</title>
<path fill="none" stroke="midnightblue" d="M529.56,-71.37C592.44,-61.3 691.4,-45.34 777,-31 780.07,-30.49 783.19,-29.96 786.35,-29.43"/>
<polygon fill="midnightblue" stroke="midnightblue" points="528.73,-67.96 519.41,-72.99 529.83,-74.87 528.73,-67.96"/>
</g>
<!-- Node10 -->
<g id="node10" class="node">
<title>Node10</title>
<g id="a_node10"><a xlink:href="../../d3/d3e/ThreadUtils_8cpp.html" target="_top" xlink:title=" ">
<polygon fill="white" stroke="black" points="953.5,-6 953.5,-25 1090.5,-25 1090.5,-6 953.5,-6"/>
<text text-anchor="middle" x="1022" y="-13" font-family="Helvetica,sans-Serif" font-size="10.00">src/tools/ThreadUtils.cpp</text>
</a>
</g>
</g>
<!-- Node4&#45;&gt;Node10 -->
<g id="edge10" class="edge">
<title>Node4&#45;&gt;Node10</title>
<path fill="none" stroke="midnightblue" d="M535.74,-75.93C629.18,-68.07 800.06,-52.25 945,-31 956.44,-29.32 968.77,-27.16 980.14,-25.02"/>
<polygon fill="midnightblue" stroke="midnightblue" points="535.23,-72.46 525.56,-76.78 535.82,-79.44 535.23,-72.46"/>
</g>
</g>
</svg>
        <g id="navigator" transform="translate(0 0)" fill="#404254">
                <rect fill="#f2f5e9" fill-opacity="0.5" stroke="#606060" stroke-width=".5" x="0" y="0" width="60" height="60"/>
                <use id="zoomplus" xlink:href="#zoomPlus" x="17" y="9" onmousedown="handleZoom(evt,'in')"/>
                <use id="zoomminus" xlink:href="#zoomMin" x="42" y="9" onmousedown="handleZoom(evt,'out')"/>
                <use id="reset" xlink:href="#resetDef" x="30" y="36" onmousedown="handleReset()"/>
                <g id="arrowUp" xlink:href="#dirArrow" transform="translate(30 24)" onmousedown="handlePan(0,-1)">
                  <use xlink:href="#rim" fill="#404040">
                        <set attributeName="fill" to="#808080" begin="arrowUp.mouseover" end="arrowUp.mouseout"/>
                  </use>
                  <path fill="none" stroke="white" stroke-width="1.5" d="M0,-3.0v7 M-2.5,-0.5L0,-3.0L2.5,-0.5"/>
                </g>
                <g id="arrowRight" xlink:href="#dirArrow" transform="rotate(90) translate(36 -43)" onmousedown="handlePan(1,0)">
                  <use xlink:href="#rim" fill="#404040">
                        <set attributeName="fill" to="#808080" begin="arrowRight.mouseover" end="arrowRight.mouseout"/>
                  </use>
                  <path fill="none" stroke="white" stroke-width="1.5" d="M0,-3.0v7 M-2.5,-0.5L0,-3.0L2.5,-0.5"/>
                </g>
                <g id="arrowDown" xlink:href="#dirArrow" transform="rotate(180) translate(-30 -48)" onmousedown="handlePan(0,1)">
                  <use xlink:href="#rim" fill="#404040">
                        <set attributeName="fill" to="#808080" begin="arrowDown.mouseover" end="arrowDown.mouseout"/>
                  </use>
                  <path fill="none" stroke="white" stroke-width="1.5" d="M0,-3.0v7 M-2.5,-0.5L0,-3.0L2.5,-0.5"/>
                </g>
                <g id="arrowLeft" xlink:href="#dirArrow" transform="rotate(270) translate(-36 17)" onmousedown="handlePan(-1,0)">
                  <use xlink:href="#rim" fill="#404040">
                        <set attributeName="fill" to="#808080" begin="arrowLeft.mouseover" end="arrowLeft.mouseout"/>
                  </use>
                  <path fill="none" stroke="white" stroke-width="1.5" d="M0,-3.0v7 M-2.5,-0.5L0,-3.0L2.5,-0.5"/>
                </g>
        </g>
        <svg viewBox="0 0 15 15" width="100%" height="30px" preserveAspectRatio="xMaxYMin meet">
         <g id="arrow_out" transform="scale(0.3 0.3)">
          <a xlink:href="InvalidArgument_8hpp__dep__incl_org.svg" target="_base">
           <rect id="button" ry="5" rx="5" y="6" x="6" height="38" width="38"
                fill="#f2f5e9" fill-opacity="0.5" stroke="#606060" stroke-width="1.0"/>
           <path id="arrow"
             d="M 11.500037,31.436501 C 11.940474,20.09759 22.043105,11.32322 32.158766,21.979434 L 37.068811,17.246167 C 37.068811,17.246167 37.088388,32 37.088388,32 L 22.160133,31.978069 C 22.160133,31.978069 26.997745,27.140456 26.997745,27.140456 C 18.528582,18.264221 13.291696,25.230495 11.500037,31.436501 z"
             style="fill:#404040;"/>
          </a>
         </g>
        </svg>
</svg>
