<?xml version="1.0" encoding="UTF-8" standalone="no"?>
<!DOCTYPE svg PUBLIC "-//W3C//DTD SVG 1.1//EN"
 "http://www.w3.org/Graphics/SVG/1.1/DTD/svg11.dtd">
<!-- Generated by graphviz version 2.43.0 (0)
 -->
<!-- Title: src/modules/rpleth/init.cpp Pages: 1 -->
<svg width="2577pt" height="464pt"
 viewBox="0.00 0.00 2577.44 464.00" xmlns="http://www.w3.org/2000/svg" xmlns:xlink="http://www.w3.org/1999/xlink">
<g id="graph0" class="graph" transform="scale(1 1) rotate(0) translate(4 460)">
<title>src/modules/rpleth/init.cpp</title>
<polygon fill="white" stroke="transparent" points="-4,4 -4,-460 2573.44,-460 2573.44,4 -4,4"/>
<!-- Node1 -->
<g id="node1" class="node">
<title>Node1</title>
<g id="a_node1"><a xlink:title="init function for returning a module class to the core">
<polygon fill="#bfbfbf" stroke="black" points="2107.94,-425.5 2107.94,-455.5 2214.94,-455.5 2214.94,-425.5 2107.94,-425.5"/>
<text text-anchor="start" x="2115.94" y="-443.5" font-family="Helvetica,sans-Serif" font-size="10.00">src/modules/rpleth</text>
<text text-anchor="middle" x="2161.44" y="-432.5" font-family="Helvetica,sans-Serif" font-size="10.00">/init.cpp</text>
</a>
</g>
</g>
<!-- Node2 -->
<g id="node2" class="node">
<title>Node2</title>
<g id="a_node2"><a xlink:href="../../d3/d0f/RplethModule_8hpp.html" target="_top" xlink:title=" ">
<polygon fill="white" stroke="black" points="2214.94,-369.5 2214.94,-388.5 2319.94,-388.5 2319.94,-369.5 2214.94,-369.5"/>
<text text-anchor="middle" x="2267.44" y="-376.5" font-family="Helvetica,sans-Serif" font-size="10.00">RplethModule.hpp</text>
</a>
</g>
</g>
<!-- Node1&#45;&gt;Node2 -->
<g id="edge1" class="edge">
<title>Node1&#45;&gt;Node2</title>
<path fill="none" stroke="midnightblue" d="M2186.56,-425.4C2203.71,-415.77 2226.31,-403.09 2243.26,-393.58"/>
<polygon fill="midnightblue" stroke="midnightblue" points="2245.01,-396.6 2252.02,-388.66 2241.59,-390.5 2245.01,-396.6"/>
</g>
<!-- Node5 -->
<g id="node5" class="node">
<title>Node5</title>
<g id="a_node5"><a xlink:title=" ">
<polygon fill="white" stroke="#bfbfbf" points="2117.94,-185 2117.94,-204 2224.94,-204 2224.94,-185 2117.94,-185"/>
<text text-anchor="middle" x="2171.44" y="-192" font-family="Helvetica,sans-Serif" font-size="10.00">zmqpp/zmqpp.hpp</text>
</a>
</g>
</g>
<!-- Node1&#45;&gt;Node5 -->
<g id="edge80" class="edge">
<title>Node1&#45;&gt;Node5</title>
<path fill="none" stroke="midnightblue" d="M2162.02,-425.33C2163.73,-383.61 2168.75,-261.23 2170.68,-214.2"/>
<polygon fill="midnightblue" stroke="midnightblue" points="2174.17,-214.33 2171.09,-204.2 2167.18,-214.04 2174.17,-214.33"/>
</g>
<!-- Node29 -->
<g id="node29" class="node">
<title>Node29</title>
<g id="a_node29"><a xlink:href="../../d4/d3d/log_8hpp.html" target="_top" xlink:title=" ">
<polygon fill="white" stroke="black" points="245.44,-185 245.44,-204 325.44,-204 325.44,-185 245.44,-185"/>
<text text-anchor="middle" x="285.44" y="-192" font-family="Helvetica,sans-Serif" font-size="10.00">tools/log.hpp</text>
</a>
</g>
</g>
<!-- Node1&#45;&gt;Node29 -->
<g id="edge79" class="edge">
<title>Node1&#45;&gt;Node29</title>
<path fill="none" stroke="midnightblue" d="M2107.62,-436.22C1909.92,-423.66 1205.51,-374.36 632.44,-277 520.39,-257.96 390.5,-224.29 326.05,-206.78"/>
<polygon fill="midnightblue" stroke="midnightblue" points="326.85,-203.37 316.28,-204.12 325.01,-210.12 326.85,-203.37"/>
</g>
<!-- Node3 -->
<g id="node3" class="node">
<title>Node3</title>
<g id="a_node3"><a xlink:href="../../de/d0c/FWiegandReader_8hpp.html" target="_top" xlink:title=" ">
<polygon fill="white" stroke="black" points="2189.94,-246.5 2189.94,-276.5 2344.94,-276.5 2344.94,-246.5 2189.94,-246.5"/>
<text text-anchor="start" x="2197.94" y="-264.5" font-family="Helvetica,sans-Serif" font-size="10.00">hardware/facades/FWiegand</text>
<text text-anchor="middle" x="2267.44" y="-253.5" font-family="Helvetica,sans-Serif" font-size="10.00">Reader.hpp</text>
</a>
</g>
</g>
<!-- Node2&#45;&gt;Node3 -->
<g id="edge2" class="edge">
<title>Node2&#45;&gt;Node3</title>
<path fill="none" stroke="midnightblue" d="M2267.44,-369.32C2267.44,-351.97 2267.44,-312.46 2267.44,-286.66"/>
<polygon fill="midnightblue" stroke="midnightblue" points="2270.94,-286.55 2267.44,-276.55 2263.94,-286.55 2270.94,-286.55"/>
</g>
<!-- Node6 -->
<g id="node6" class="node">
<title>Node6</title>
<g id="a_node6"><a xlink:href="../../d0/dc7/BaseModule_8hpp.html" target="_top" xlink:title=" ">
<polygon fill="white" stroke="black" points="1803.94,-313.5 1803.94,-332.5 1946.94,-332.5 1946.94,-313.5 1803.94,-313.5"/>
<text text-anchor="middle" x="1875.44" y="-320.5" font-family="Helvetica,sans-Serif" font-size="10.00">modules/BaseModule.hpp</text>
</a>
</g>
</g>
<!-- Node2&#45;&gt;Node6 -->
<g id="edge5" class="edge">
<title>Node2&#45;&gt;Node6</title>
<path fill="none" stroke="midnightblue" d="M2214.58,-370.72C2145.68,-361.23 2024.89,-344.59 1947.6,-333.94"/>
<polygon fill="midnightblue" stroke="midnightblue" points="1947.85,-330.44 1937.47,-332.54 1946.9,-337.38 1947.85,-330.44"/>
</g>
<!-- Node8 -->
<g id="node8" class="node">
<title>Node8</title>
<g id="a_node8"><a xlink:title=" ">
<polygon fill="white" stroke="#bfbfbf" points="2003.44,-185 2003.44,-204 2061.44,-204 2061.44,-185 2003.44,-185"/>
<text text-anchor="middle" x="2032.44" y="-192" font-family="Helvetica,sans-Serif" font-size="10.00">memory</text>
</a>
</g>
</g>
<!-- Node2&#45;&gt;Node8 -->
<g id="edge77" class="edge">
<title>Node2&#45;&gt;Node8</title>
<path fill="none" stroke="midnightblue" d="M2214.88,-375.58C2150.58,-369.47 2044.18,-348.44 1994.44,-277 1979.88,-256.08 1999.35,-228.69 2015.37,-211.6"/>
<polygon fill="midnightblue" stroke="midnightblue" points="2018.24,-213.67 2022.79,-204.1 2013.26,-208.75 2018.24,-213.67"/>
</g>
<!-- Node9 -->
<g id="node9" class="node">
<title>Node9</title>
<g id="a_node9"><a xlink:title=" ">
<polygon fill="white" stroke="#bfbfbf" points="2141.94,-56.5 2141.94,-75.5 2188.94,-75.5 2188.94,-56.5 2141.94,-56.5"/>
<text text-anchor="middle" x="2165.44" y="-63.5" font-family="Helvetica,sans-Serif" font-size="10.00">vector</text>
</a>
</g>
</g>
<!-- Node2&#45;&gt;Node9 -->
<g id="edge78" class="edge">
<title>Node2&#45;&gt;Node9</title>
<path fill="none" stroke="midnightblue" d="M2280.78,-369.36C2310.18,-349.15 2376.25,-296.68 2354.44,-246 2320.42,-166.91 2232.36,-106.4 2189.53,-80.62"/>
<polygon fill="midnightblue" stroke="midnightblue" points="2191.27,-77.58 2180.88,-75.51 2187.71,-83.61 2191.27,-77.58"/>
</g>
<!-- Node37 -->
<g id="node37" class="node">
<title>Node37</title>
<g id="a_node37"><a xlink:href="../../d4/d66/circularbuffer_8hpp.html" target="_top" xlink:title="simple circular buffer class">
<polygon fill="white" stroke="black" points="2319.94,-112.5 2319.94,-142.5 2452.94,-142.5 2452.94,-112.5 2319.94,-112.5"/>
<text text-anchor="start" x="2327.94" y="-130.5" font-family="Helvetica,sans-Serif" font-size="10.00">modules/rpleth/network</text>
<text text-anchor="middle" x="2386.44" y="-119.5" font-family="Helvetica,sans-Serif" font-size="10.00">/circularbuffer.hpp</text>
</a>
</g>
</g>
<!-- Node2&#45;&gt;Node37 -->
<g id="edge69" class="edge">
<title>Node2&#45;&gt;Node37</title>
<path fill="none" stroke="midnightblue" d="M2320.18,-371.97C2344.92,-366.2 2372.23,-354.95 2387.44,-333 2425.49,-278.1 2407.08,-193.46 2394.64,-152.43"/>
<polygon fill="midnightblue" stroke="midnightblue" points="2397.93,-151.23 2391.57,-142.75 2391.26,-153.34 2397.93,-151.23"/>
</g>
<!-- Node39 -->
<g id="node39" class="node">
<title>Node39</title>
<g id="a_node39"><a xlink:href="../../dd/d17/rplethpacket_8hpp.html" target="_top" xlink:title="Rpleth packet class.">
<polygon fill="white" stroke="black" points="2471.44,-118 2471.44,-137 2569.44,-137 2569.44,-118 2471.44,-118"/>
<text text-anchor="middle" x="2520.44" y="-125" font-family="Helvetica,sans-Serif" font-size="10.00">rplethpacket.hpp</text>
</a>
</g>
</g>
<!-- Node2&#45;&gt;Node39 -->
<g id="edge74" class="edge">
<title>Node2&#45;&gt;Node39</title>
<path fill="none" stroke="midnightblue" d="M2320.14,-370.52C2348.23,-364.33 2381.94,-353.13 2406.44,-333 2468.74,-281.82 2502.94,-187.18 2515.18,-147.15"/>
<polygon fill="midnightblue" stroke="midnightblue" points="2518.59,-147.98 2518.06,-137.39 2511.87,-146 2518.59,-147.98"/>
</g>
<!-- Node4 -->
<g id="node4" class="node">
<title>Node4</title>
<g id="a_node4"><a xlink:title=" ">
<polygon fill="white" stroke="#bfbfbf" points="1101.44,-0.5 1101.44,-19.5 1145.44,-19.5 1145.44,-0.5 1101.44,-0.5"/>
<text text-anchor="middle" x="1123.44" y="-7.5" font-family="Helvetica,sans-Serif" font-size="10.00">string</text>
</a>
</g>
</g>
<!-- Node3&#45;&gt;Node4 -->
<g id="edge3" class="edge">
<title>Node3&#45;&gt;Node4</title>
<path fill="none" stroke="midnightblue" d="M2267.65,-246.29C2267.34,-208.03 2260.64,-102.66 2198.44,-56 2155.72,-23.95 1331.3,-13.25 1156.03,-11.33"/>
<polygon fill="midnightblue" stroke="midnightblue" points="1155.92,-7.83 1145.89,-11.22 1155.85,-14.83 1155.92,-7.83"/>
</g>
<!-- Node3&#45;&gt;Node5 -->
<g id="edge4" class="edge">
<title>Node3&#45;&gt;Node5</title>
<path fill="none" stroke="midnightblue" d="M2246.61,-246.4C2230.66,-235.6 2208.74,-220.76 2192.69,-209.89"/>
<polygon fill="midnightblue" stroke="midnightblue" points="2194.25,-206.72 2184.01,-204.01 2190.33,-212.51 2194.25,-206.72"/>
</g>
<!-- Node6&#45;&gt;Node5 -->
<g id="edge68" class="edge">
<title>Node6&#45;&gt;Node5</title>
<path fill="none" stroke="midnightblue" d="M1946.99,-320.32C1994.55,-316.35 2056.79,-305.46 2104.44,-277 2130.56,-261.4 2150.98,-231.75 2162.11,-212.84"/>
<polygon fill="midnightblue" stroke="midnightblue" points="2165.2,-214.49 2167.07,-204.06 2159.1,-211.05 2165.2,-214.49"/>
</g>
<!-- Node7 -->
<g id="node7" class="node">
<title>Node7</title>
<g id="a_node7"><a xlink:href="../../dc/d49/LeosacFwd_8hpp.html" target="_top" xlink:title=" ">
<polygon fill="white" stroke="black" points="2003.44,-252 2003.44,-271 2095.44,-271 2095.44,-252 2003.44,-252"/>
<text text-anchor="middle" x="2049.44" y="-259" font-family="Helvetica,sans-Serif" font-size="10.00">LeosacFwd.hpp</text>
</a>
</g>
</g>
<!-- Node6&#45;&gt;Node7 -->
<g id="edge6" class="edge">
<title>Node6&#45;&gt;Node7</title>
<path fill="none" stroke="midnightblue" d="M1900.37,-313.48C1930.48,-303.18 1981.28,-285.81 2015.08,-274.25"/>
<polygon fill="midnightblue" stroke="midnightblue" points="2016.23,-277.56 2024.56,-271.01 2013.96,-270.93 2016.23,-277.56"/>
</g>
<!-- Node10 -->
<g id="node10" class="node">
<title>Node10</title>
<g id="a_node10"><a xlink:href="../../db/d33/ConfigChecker_8hpp.html" target="_top" xlink:title=" ">
<polygon fill="white" stroke="black" points="920.94,-252 920.94,-271 1083.94,-271 1083.94,-252 920.94,-252"/>
<text text-anchor="middle" x="1002.44" y="-259" font-family="Helvetica,sans-Serif" font-size="10.00">core/config/ConfigChecker.hpp</text>
</a>
</g>
</g>
<!-- Node6&#45;&gt;Node10 -->
<g id="edge9" class="edge">
<title>Node6&#45;&gt;Node10</title>
<path fill="none" stroke="midnightblue" d="M1803.63,-317.11C1645.87,-306.35 1269.22,-280.68 1094.44,-268.77"/>
<polygon fill="midnightblue" stroke="midnightblue" points="1094.46,-265.26 1084.24,-268.07 1093.98,-272.25 1094.46,-265.26"/>
</g>
<!-- Node13 -->
<g id="node13" class="node">
<title>Node13</title>
<g id="a_node13"><a xlink:href="../../db/d79/ConfigManager_8hpp.html" target="_top" xlink:title=" ">
<polygon fill="white" stroke="black" points="1695.94,-252 1695.94,-271 1862.94,-271 1862.94,-252 1695.94,-252"/>
<text text-anchor="middle" x="1779.44" y="-259" font-family="Helvetica,sans-Serif" font-size="10.00">core/config/ConfigManager.hpp</text>
</a>
</g>
</g>
<!-- Node6&#45;&gt;Node13 -->
<g id="edge12" class="edge">
<title>Node6&#45;&gt;Node13</title>
<path fill="none" stroke="midnightblue" d="M1861.69,-313.48C1846.08,-303.8 1820.38,-287.87 1801.86,-276.39"/>
<polygon fill="midnightblue" stroke="midnightblue" points="1803.52,-273.3 1793.17,-271.01 1799.83,-279.25 1803.52,-273.3"/>
</g>
<!-- Node6&#45;&gt;Node29 -->
<g id="edge66" class="edge">
<title>Node6&#45;&gt;Node29</title>
<path fill="none" stroke="midnightblue" d="M1803.65,-320.68C1643.35,-317.29 1244.19,-306.38 911.44,-277 696.44,-258.02 441.76,-220.01 335.69,-203.48"/>
<polygon fill="midnightblue" stroke="midnightblue" points="336.02,-199.99 325.6,-201.9 334.94,-206.91 336.02,-199.99"/>
</g>
<!-- Node34 -->
<g id="node34" class="node">
<title>Node34</title>
<g id="a_node34"><a xlink:title=" ">
<polygon fill="white" stroke="#bfbfbf" points="1833.94,-179.5 1833.94,-209.5 1946.94,-209.5 1946.94,-179.5 1833.94,-179.5"/>
<text text-anchor="start" x="1841.94" y="-197.5" font-family="Helvetica,sans-Serif" font-size="10.00">boost/property_tree</text>
<text text-anchor="middle" x="1890.44" y="-186.5" font-family="Helvetica,sans-Serif" font-size="10.00">/ptree.hpp</text>
</a>
</g>
</g>
<!-- Node6&#45;&gt;Node34 -->
<g id="edge67" class="edge">
<title>Node6&#45;&gt;Node34</title>
<path fill="none" stroke="midnightblue" d="M1876.47,-313.31C1878.73,-294.3 1884.16,-248.47 1887.55,-219.9"/>
<polygon fill="midnightblue" stroke="midnightblue" points="1891.04,-220.23 1888.74,-209.89 1884.08,-219.41 1891.04,-220.23"/>
</g>
<!-- Node35 -->
<g id="node35" class="node">
<title>Node35</title>
<g id="a_node35"><a xlink:href="../../d1/d91/ThreadUtils_8hpp.html" target="_top" xlink:title=" ">
<polygon fill="white" stroke="black" points="1927.94,-56.5 1927.94,-75.5 2048.94,-75.5 2048.94,-56.5 1927.94,-56.5"/>
<text text-anchor="middle" x="1988.44" y="-63.5" font-family="Helvetica,sans-Serif" font-size="10.00">tools/ThreadUtils.hpp</text>
</a>
</g>
</g>
<!-- Node6&#45;&gt;Node35 -->
<g id="edge63" class="edge">
<title>Node6&#45;&gt;Node35</title>
<path fill="none" stroke="midnightblue" d="M1883.52,-313.49C1899.91,-295.75 1937.13,-252.89 1956.44,-210 1975.36,-168 1983.52,-113.88 1986.68,-85.79"/>
<polygon fill="midnightblue" stroke="midnightblue" points="1990.17,-86.07 1987.72,-75.77 1983.21,-85.35 1990.17,-86.07"/>
</g>
<!-- Node7&#45;&gt;Node8 -->
<g id="edge7" class="edge">
<title>Node7&#45;&gt;Node8</title>
<path fill="none" stroke="midnightblue" d="M2047.15,-251.73C2044.63,-242.09 2040.5,-226.3 2037.26,-213.91"/>
<polygon fill="midnightblue" stroke="midnightblue" points="2040.62,-212.92 2034.7,-204.13 2033.84,-214.69 2040.62,-212.92"/>
</g>
<!-- Node7&#45;&gt;Node9 -->
<g id="edge8" class="edge">
<title>Node7&#45;&gt;Node9</title>
<path fill="none" stroke="midnightblue" d="M2054.58,-251.94C2072.24,-222.48 2130.73,-124.91 2154.87,-84.63"/>
<polygon fill="midnightblue" stroke="midnightblue" points="2157.96,-86.28 2160.1,-75.91 2151.96,-82.68 2157.96,-86.28"/>
</g>
<!-- Node11 -->
<g id="node11" class="node">
<title>Node11</title>
<g id="a_node11"><a xlink:title=" ">
<polygon fill="white" stroke="#bfbfbf" points="983.44,-185 983.44,-204 1021.44,-204 1021.44,-185 983.44,-185"/>
<text text-anchor="middle" x="1002.44" y="-192" font-family="Helvetica,sans-Serif" font-size="10.00">map</text>
</a>
</g>
</g>
<!-- Node10&#45;&gt;Node11 -->
<g id="edge10" class="edge">
<title>Node10&#45;&gt;Node11</title>
<path fill="none" stroke="midnightblue" d="M1002.44,-251.73C1002.44,-242.18 1002.44,-226.62 1002.44,-214.28"/>
<polygon fill="midnightblue" stroke="midnightblue" points="1005.94,-214.13 1002.44,-204.13 998.94,-214.13 1005.94,-214.13"/>
</g>
<!-- Node12 -->
<g id="node12" class="node">
<title>Node12</title>
<g id="a_node12"><a xlink:title=" ">
<polygon fill="white" stroke="#bfbfbf" points="917.44,-185 917.44,-204 965.44,-204 965.44,-185 917.44,-185"/>
<text text-anchor="middle" x="941.44" y="-192" font-family="Helvetica,sans-Serif" font-size="10.00">mutex</text>
</a>
</g>
</g>
<!-- Node10&#45;&gt;Node12 -->
<g id="edge11" class="edge">
<title>Node10&#45;&gt;Node12</title>
<path fill="none" stroke="midnightblue" d="M994.22,-251.73C984.61,-241.5 968.53,-224.36 956.64,-211.69"/>
<polygon fill="midnightblue" stroke="midnightblue" points="958.93,-209.02 949.54,-204.13 953.83,-213.81 958.93,-209.02"/>
</g>
<!-- Node13&#45;&gt;Node4 -->
<g id="edge60" class="edge">
<title>Node13&#45;&gt;Node4</title>
<path fill="none" stroke="midnightblue" d="M1778.67,-251.8C1777.72,-235.59 1777.99,-200.49 1795.44,-179 1821.3,-147.15 1857.79,-177.2 1880.44,-143 1888.05,-131.51 1889.45,-122.42 1880.44,-112 1832.16,-56.15 1294.92,-21.03 1156.05,-12.85"/>
<polygon fill="midnightblue" stroke="midnightblue" points="1155.85,-9.33 1145.66,-12.24 1155.44,-16.32 1155.85,-9.33"/>
</g>
<!-- Node13&#45;&gt;Node5 -->
<g id="edge62" class="edge">
<title>Node13&#45;&gt;Node5</title>
<path fill="none" stroke="midnightblue" d="M1831.09,-251.94C1903.02,-240.01 2033.14,-218.43 2109.97,-205.69"/>
<polygon fill="midnightblue" stroke="midnightblue" points="2110.7,-209.12 2119.99,-204.03 2109.55,-202.21 2110.7,-209.12"/>
</g>
<!-- Node13&#45;&gt;Node8 -->
<g id="edge59" class="edge">
<title>Node13&#45;&gt;Node8</title>
<path fill="none" stroke="midnightblue" d="M1812.78,-251.94C1859.48,-239.94 1944.18,-218.18 1993.65,-205.47"/>
<polygon fill="midnightblue" stroke="midnightblue" points="1994.53,-208.85 2003.35,-202.97 1992.79,-202.07 1994.53,-208.85"/>
</g>
<!-- Node13&#45;&gt;Node9 -->
<g id="edge61" class="edge">
<title>Node13&#45;&gt;Node9</title>
<path fill="none" stroke="midnightblue" d="M1781.94,-251.99C1787.23,-235.49 1801.09,-199 1825.44,-179 1849.94,-158.88 2051.34,-99.69 2132.12,-76.49"/>
<polygon fill="midnightblue" stroke="midnightblue" points="2133.15,-79.83 2141.8,-73.71 2131.22,-73.1 2133.15,-79.83"/>
</g>
<!-- Node13&#45;&gt;Node11 -->
<g id="edge58" class="edge">
<title>Node13&#45;&gt;Node11</title>
<path fill="none" stroke="midnightblue" d="M1695.89,-259.15C1527.63,-255.73 1153.53,-244.41 1030.44,-210 1028.78,-209.53 1027.09,-208.96 1025.42,-208.32"/>
<polygon fill="midnightblue" stroke="midnightblue" points="1026.77,-205.08 1016.22,-204.06 1023.83,-211.43 1026.77,-205.08"/>
</g>
<!-- Node14 -->
<g id="node14" class="node">
<title>Node14</title>
<g id="a_node14"><a xlink:href="../../d1/ddd/leosacexception_8hpp.html" target="_top" xlink:title="Exception class for LEOSAC Project related errors.">
<polygon fill="white" stroke="black" points="1039.44,-185 1039.44,-204 1207.44,-204 1207.44,-185 1039.44,-185"/>
<text text-anchor="middle" x="1123.44" y="-192" font-family="Helvetica,sans-Serif" font-size="10.00">exception/leosacexception.hpp</text>
</a>
</g>
</g>
<!-- Node13&#45;&gt;Node14 -->
<g id="edge13" class="edge">
<title>Node13&#45;&gt;Node14</title>
<path fill="none" stroke="midnightblue" d="M1695.69,-252.2C1573.2,-240.06 1345.84,-217.54 1217.66,-204.84"/>
<polygon fill="midnightblue" stroke="midnightblue" points="1217.77,-201.33 1207.47,-203.83 1217.08,-208.29 1217.77,-201.33"/>
</g>
<!-- Node13&#45;&gt;Node29 -->
<g id="edge50" class="edge">
<title>Node13&#45;&gt;Node29</title>
<path fill="none" stroke="midnightblue" d="M1695.92,-256.87C1421.73,-244.94 554.24,-207.19 335.77,-197.69"/>
<polygon fill="midnightblue" stroke="midnightblue" points="335.7,-194.18 325.56,-197.25 335.4,-201.18 335.7,-194.18"/>
</g>
<!-- Node13&#45;&gt;Node34 -->
<g id="edge57" class="edge">
<title>Node13&#45;&gt;Node34</title>
<path fill="none" stroke="midnightblue" d="M1794.41,-251.73C1810.5,-242.32 1836.56,-227.05 1857.48,-214.8"/>
<polygon fill="midnightblue" stroke="midnightblue" points="1859.52,-217.66 1866.38,-209.59 1855.99,-211.62 1859.52,-217.66"/>
</g>
<!-- Node14&#45;&gt;Node4 -->
<g id="edge19" class="edge">
<title>Node14&#45;&gt;Node4</title>
<path fill="none" stroke="midnightblue" d="M1073.35,-184.94C1059.48,-182.78 1044.4,-180.61 1030.44,-179 977.42,-172.88 587.74,-182.13 551.44,-143 474.67,-60.24 959.07,-21.87 1090.94,-13.03"/>
<polygon fill="midnightblue" stroke="midnightblue" points="1091.45,-16.51 1101.2,-12.36 1090.99,-9.52 1091.45,-16.51"/>
</g>
<!-- Node15 -->
<g id="node15" class="node">
<title>Node15</title>
<g id="a_node15"><a xlink:href="../../d6/d2f/Stacktrace_8hpp.html" target="_top" xlink:title=" ">
<polygon fill="white" stroke="black" points="1467.44,-118 1467.44,-137 1583.44,-137 1583.44,-118 1467.44,-118"/>
<text text-anchor="middle" x="1525.44" y="-125" font-family="Helvetica,sans-Serif" font-size="10.00">tools/Stacktrace.hpp</text>
</a>
</g>
</g>
<!-- Node14&#45;&gt;Node15 -->
<g id="edge14" class="edge">
<title>Node14&#45;&gt;Node15</title>
<path fill="none" stroke="midnightblue" d="M1187.35,-185C1254.71,-175.77 1363.83,-160.04 1457.44,-143 1463.83,-141.84 1470.54,-140.52 1477.15,-139.17"/>
<polygon fill="midnightblue" stroke="midnightblue" points="1478.33,-142.5 1487.4,-137.03 1476.9,-135.65 1478.33,-142.5"/>
</g>
<!-- Node16 -->
<g id="node16" class="node">
<title>Node16</title>
<g id="a_node16"><a xlink:title=" ">
<polygon fill="white" stroke="#bfbfbf" points="1684.94,-118 1684.94,-137 1737.94,-137 1737.94,-118 1684.94,-118"/>
<text text-anchor="middle" x="1711.44" y="-125" font-family="Helvetica,sans-Serif" font-size="10.00">cstddef</text>
</a>
</g>
</g>
<!-- Node14&#45;&gt;Node16 -->
<g id="edge17" class="edge">
<title>Node14&#45;&gt;Node16</title>
<path fill="none" stroke="midnightblue" d="M1207.65,-193.64C1317.2,-192.05 1513.81,-183.13 1676.44,-143 1678.96,-142.38 1681.53,-141.61 1684.07,-140.74"/>
<polygon fill="midnightblue" stroke="midnightblue" points="1685.54,-143.93 1693.63,-137.09 1683.04,-137.39 1685.54,-143.93"/>
</g>
<!-- Node17 -->
<g id="node17" class="node">
<title>Node17</title>
<g id="a_node17"><a xlink:title=" ">
<polygon fill="white" stroke="#bfbfbf" points="1601.94,-118 1601.94,-137 1666.94,-137 1666.94,-118 1601.94,-118"/>
<text text-anchor="middle" x="1634.44" y="-125" font-family="Helvetica,sans-Serif" font-size="10.00">exception</text>
</a>
</g>
</g>
<!-- Node14&#45;&gt;Node17 -->
<g id="edge18" class="edge">
<title>Node14&#45;&gt;Node17</title>
<path fill="none" stroke="midnightblue" d="M1207.82,-190.13C1302.43,-185.04 1459.97,-172.6 1592.44,-143 1595.86,-142.24 1599.38,-141.29 1602.87,-140.24"/>
<polygon fill="midnightblue" stroke="midnightblue" points="1604.05,-143.54 1612.48,-137.13 1601.89,-136.88 1604.05,-143.54"/>
</g>
<!-- Node18 -->
<g id="node18" class="node">
<title>Node18</title>
<g id="a_node18"><a xlink:href="../../d7/d7a/configexception_8hpp.html" target="_top" xlink:title=" ">
<polygon fill="white" stroke="black" points="388.94,-118 388.94,-137 503.94,-137 503.94,-118 388.94,-118"/>
<text text-anchor="middle" x="446.44" y="-125" font-family="Helvetica,sans-Serif" font-size="10.00">configexception.hpp</text>
</a>
</g>
</g>
<!-- Node14&#45;&gt;Node18 -->
<g id="edge20" class="edge">
<title>Node14&#45;&gt;Node18</title>
<path fill="none" stroke="midnightblue" d="M1065.19,-184.97C1050.84,-182.78 1035.57,-180.6 1021.44,-179 794.77,-153.41 735.5,-173.58 509.44,-143 501.54,-141.93 493.19,-140.52 485.23,-138.99"/>
<polygon fill="midnightblue" stroke="midnightblue" points="485.9,-135.56 475.41,-137.02 484.52,-142.42 485.9,-135.56"/>
</g>
<!-- Node21 -->
<g id="node21" class="node">
<title>Node21</title>
<g id="a_node21"><a xlink:href="../../d8/db0/coreexception_8hpp.html" target="_top" xlink:title="Exception class for Core related errors.">
<polygon fill="white" stroke="black" points="560.94,-118 560.94,-137 667.94,-137 667.94,-118 560.94,-118"/>
<text text-anchor="middle" x="614.44" y="-125" font-family="Helvetica,sans-Serif" font-size="10.00">coreexception.hpp</text>
</a>
</g>
</g>
<!-- Node14&#45;&gt;Node21 -->
<g id="edge26" class="edge">
<title>Node14&#45;&gt;Node21</title>
<path fill="none" stroke="midnightblue" d="M1063.17,-184.96C1049.4,-182.87 1034.89,-180.73 1021.44,-179 865.03,-158.85 824.03,-168.74 668.44,-143 662.12,-141.95 655.49,-140.65 649.09,-139.26"/>
<polygon fill="midnightblue" stroke="midnightblue" points="649.85,-135.85 639.32,-137.03 648.29,-142.67 649.85,-135.85"/>
</g>
<!-- Node22 -->
<g id="node22" class="node">
<title>Node22</title>
<g id="a_node22"><a xlink:href="../../d8/d77/deviceexception_8hpp.html" target="_top" xlink:title="Exception class for Device related errors.">
<polygon fill="white" stroke="black" points="686.44,-118 686.44,-137 804.44,-137 804.44,-118 686.44,-118"/>
<text text-anchor="middle" x="745.44" y="-125" font-family="Helvetica,sans-Serif" font-size="10.00">deviceexception.hpp</text>
</a>
</g>
</g>
<!-- Node14&#45;&gt;Node22 -->
<g id="edge29" class="edge">
<title>Node14&#45;&gt;Node22</title>
<path fill="none" stroke="midnightblue" d="M1063.27,-184.99C984.86,-173.11 852.41,-152.01 804.44,-143 798.14,-141.81 791.52,-140.5 785.07,-139.15"/>
<polygon fill="midnightblue" stroke="midnightblue" points="785.65,-135.7 775.14,-137.03 784.19,-142.54 785.65,-135.7"/>
</g>
<!-- Node23 -->
<g id="node23" class="node">
<title>Node23</title>
<g id="a_node23"><a xlink:href="../../db/d35/dynlibexception_8hpp.html" target="_top" xlink:title="Exception class for DynLib related errors.">
<polygon fill="white" stroke="black" points="822.44,-118 822.44,-137 938.44,-137 938.44,-118 822.44,-118"/>
<text text-anchor="middle" x="880.44" y="-125" font-family="Helvetica,sans-Serif" font-size="10.00">dynlibexception.hpp</text>
</a>
</g>
</g>
<!-- Node14&#45;&gt;Node23 -->
<g id="edge32" class="edge">
<title>Node14&#45;&gt;Node23</title>
<path fill="none" stroke="midnightblue" d="M1086.68,-184.94C1040.94,-173.37 963.56,-152.71 917.64,-139.86"/>
<polygon fill="midnightblue" stroke="midnightblue" points="918.36,-136.43 907.78,-137.08 916.46,-143.16 918.36,-136.43"/>
</g>
<!-- Node24 -->
<g id="node24" class="node">
<title>Node24</title>
<g id="a_node24"><a xlink:href="../../d0/d4e/fsexception_8hpp.html" target="_top" xlink:title="Exception class for filesystem related errors.">
<polygon fill="white" stroke="black" points="956.94,-118 956.94,-137 1051.94,-137 1051.94,-118 956.94,-118"/>
<text text-anchor="middle" x="1004.44" y="-125" font-family="Helvetica,sans-Serif" font-size="10.00">fsexception.hpp</text>
</a>
</g>
</g>
<!-- Node14&#45;&gt;Node24 -->
<g id="edge35" class="edge">
<title>Node14&#45;&gt;Node24</title>
<path fill="none" stroke="midnightblue" d="M1102.88,-184.87C1080.75,-174.04 1046.19,-155.33 1024.33,-142.45"/>
<polygon fill="midnightblue" stroke="midnightblue" points="1025.92,-139.32 1015.54,-137.17 1022.31,-145.32 1025.92,-139.32"/>
</g>
<!-- Node25 -->
<g id="node25" class="node">
<title>Node25</title>
<g id="a_node25"><a xlink:href="../../d1/d8e/gpioexception_8hpp.html" target="_top" xlink:title="Exception class for Gpio related errors.">
<polygon fill="white" stroke="black" points="1069.94,-118 1069.94,-137 1176.94,-137 1176.94,-118 1069.94,-118"/>
<text text-anchor="middle" x="1123.44" y="-125" font-family="Helvetica,sans-Serif" font-size="10.00">gpioexception.hpp</text>
</a>
</g>
</g>
<!-- Node14&#45;&gt;Node25 -->
<g id="edge38" class="edge">
<title>Node14&#45;&gt;Node25</title>
<path fill="none" stroke="midnightblue" d="M1118.65,-184.73C1116.64,-175.18 1116.18,-159.62 1117.26,-147.28"/>
<polygon fill="midnightblue" stroke="midnightblue" points="1120.76,-147.52 1118.68,-137.13 1113.83,-146.54 1120.76,-147.52"/>
</g>
<!-- Node26 -->
<g id="node26" class="node">
<title>Node26</title>
<g id="a_node26"><a xlink:href="../../d7/d8c/moduleexception_8hpp.html" target="_top" xlink:title="Exception class for modules.">
<polygon fill="white" stroke="black" points="1195.44,-118 1195.44,-137 1317.44,-137 1317.44,-118 1195.44,-118"/>
<text text-anchor="middle" x="1256.44" y="-125" font-family="Helvetica,sans-Serif" font-size="10.00">moduleexception.hpp</text>
</a>
</g>
</g>
<!-- Node14&#45;&gt;Node26 -->
<g id="edge41" class="edge">
<title>Node14&#45;&gt;Node26</title>
<path fill="none" stroke="midnightblue" d="M1136.59,-184.73C1157.08,-173.57 1196.47,-154.21 1224.6,-141.37"/>
<polygon fill="midnightblue" stroke="midnightblue" points="1226.35,-144.42 1234.03,-137.13 1223.48,-138.04 1226.35,-144.42"/>
</g>
<!-- Node27 -->
<g id="node27" class="node">
<title>Node27</title>
<g id="a_node27"><a xlink:href="../../df/d8d/scriptexception_8hpp.html" target="_top" xlink:title="Exception class for Script related errors.">
<polygon fill="white" stroke="black" points="1335.94,-118 1335.94,-137 1448.94,-137 1448.94,-118 1335.94,-118"/>
<text text-anchor="middle" x="1392.44" y="-125" font-family="Helvetica,sans-Serif" font-size="10.00">scriptexception.hpp</text>
</a>
</g>
</g>
<!-- Node14&#45;&gt;Node27 -->
<g id="edge44" class="edge">
<title>Node14&#45;&gt;Node27</title>
<path fill="none" stroke="midnightblue" d="M1154.14,-184.94C1200.11,-173.22 1286.98,-152.19 1342.24,-139.38"/>
<polygon fill="midnightblue" stroke="midnightblue" points="1343.22,-142.74 1352.17,-137.08 1341.64,-135.92 1343.22,-142.74"/>
</g>
<!-- Node28 -->
<g id="node28" class="node">
<title>Node28</title>
<g id="a_node28"><a xlink:href="../../dc/dce/signalexception_8hpp.html" target="_top" xlink:title="Exception class for Signal related errors.">
<polygon fill="white" stroke="black" points="1755.94,-118 1755.94,-137 1870.94,-137 1870.94,-118 1755.94,-118"/>
<text text-anchor="middle" x="1813.44" y="-125" font-family="Helvetica,sans-Serif" font-size="10.00">signalexception.hpp</text>
</a>
</g>
</g>
<!-- Node14&#45;&gt;Node28 -->
<g id="edge47" class="edge">
<title>Node14&#45;&gt;Node28</title>
<path fill="none" stroke="midnightblue" d="M1207.68,-190.03C1326.54,-184.48 1549.8,-171.22 1738.44,-143 1745.46,-141.95 1752.85,-140.59 1760.16,-139.12"/>
<polygon fill="midnightblue" stroke="midnightblue" points="1760.96,-142.53 1770.03,-137.06 1759.53,-135.67 1760.96,-142.53"/>
</g>
<!-- Node15&#45;&gt;Node4 -->
<g id="edge15" class="edge">
<title>Node15&#45;&gt;Node4</title>
<path fill="none" stroke="midnightblue" d="M1495.56,-117.91C1421.87,-96.74 1231.96,-42.18 1155.78,-20.29"/>
<polygon fill="midnightblue" stroke="midnightblue" points="1156.38,-16.82 1145.8,-17.42 1154.45,-23.55 1156.38,-16.82"/>
</g>
<!-- Node15&#45;&gt;Node9 -->
<g id="edge16" class="edge">
<title>Node15&#45;&gt;Node9</title>
<path fill="none" stroke="midnightblue" d="M1561.28,-117.93C1571.61,-115.71 1582.93,-113.52 1593.44,-112 1798.59,-82.32 1851.83,-92.69 2058.44,-76 2082.92,-74.02 2110.54,-71.7 2131.59,-69.91"/>
<polygon fill="midnightblue" stroke="midnightblue" points="2131.98,-73.38 2141.65,-69.05 2131.39,-66.41 2131.98,-73.38"/>
</g>
<!-- Node18&#45;&gt;Node4 -->
<g id="edge25" class="edge">
<title>Node18&#45;&gt;Node4</title>
<path fill="none" stroke="midnightblue" d="M454.92,-117.83C470.8,-102.23 506.85,-69.75 544.44,-56 646.17,-18.8 985.03,-12.34 1091.29,-11.23"/>
<polygon fill="midnightblue" stroke="midnightblue" points="1091.43,-14.73 1101.39,-11.13 1091.36,-7.73 1091.43,-14.73"/>
</g>
<!-- Node18&#45;&gt;Node14 -->
<g id="edge21" class="edge">
<title>Node18&#45;&gt;Node14</title>
<path fill="none" stroke="midnightblue" d="M492.65,-137.02C504.07,-139.26 516.2,-141.48 527.44,-143 753.5,-173.58 812.77,-153.41 1039.44,-179 1050.15,-180.21 1061.51,-181.76 1072.32,-183.39"/>
<polygon fill="midnightblue" stroke="midnightblue" points="1072.06,-186.89 1082.48,-184.97 1073.14,-179.97 1072.06,-186.89"/>
</g>
<!-- Node19 -->
<g id="node19" class="node">
<title>Node19</title>
<g id="a_node19"><a xlink:href="../../dd/d35/Colorize_8hpp.html" target="_top" xlink:title=" ">
<polygon fill="white" stroke="black" points="388.44,-56.5 388.44,-75.5 492.44,-75.5 492.44,-56.5 388.44,-56.5"/>
<text text-anchor="middle" x="440.44" y="-63.5" font-family="Helvetica,sans-Serif" font-size="10.00">tools/Colorize.hpp</text>
</a>
</g>
</g>
<!-- Node18&#45;&gt;Node19 -->
<g id="edge22" class="edge">
<title>Node18&#45;&gt;Node19</title>
<path fill="none" stroke="midnightblue" d="M445.58,-117.98C444.74,-109.58 443.42,-96.48 442.33,-85.66"/>
<polygon fill="midnightblue" stroke="midnightblue" points="445.79,-85.11 441.3,-75.51 438.82,-85.81 445.79,-85.11"/>
</g>
<!-- Node19&#45;&gt;Node4 -->
<g id="edge24" class="edge">
<title>Node19&#45;&gt;Node4</title>
<path fill="none" stroke="midnightblue" d="M492.65,-57.57C497.31,-57 501.96,-56.47 506.44,-56 729.67,-32.66 999.6,-17.44 1091.23,-12.63"/>
<polygon fill="midnightblue" stroke="midnightblue" points="1091.46,-16.13 1101.26,-12.11 1091.1,-9.14 1091.46,-16.13"/>
</g>
<!-- Node20 -->
<g id="node20" class="node">
<title>Node20</title>
<g id="a_node20"><a xlink:title=" ">
<polygon fill="white" stroke="#bfbfbf" points="188.44,-0.5 188.44,-19.5 244.44,-19.5 244.44,-0.5 188.44,-0.5"/>
<text text-anchor="middle" x="216.44" y="-7.5" font-family="Helvetica,sans-Serif" font-size="10.00">sstream</text>
</a>
</g>
</g>
<!-- Node19&#45;&gt;Node20 -->
<g id="edge23" class="edge">
<title>Node19&#45;&gt;Node20</title>
<path fill="none" stroke="midnightblue" d="M404.95,-56.44C363.92,-46.55 296.66,-30.34 254.55,-20.19"/>
<polygon fill="midnightblue" stroke="midnightblue" points="255.22,-16.75 244.68,-17.81 253.58,-23.55 255.22,-16.75"/>
</g>
<!-- Node21&#45;&gt;Node4 -->
<g id="edge27" class="edge">
<title>Node21&#45;&gt;Node4</title>
<path fill="none" stroke="midnightblue" d="M648.77,-117.93C703.56,-104.32 814.21,-77.16 908.44,-56 973.27,-41.45 1049.45,-25.86 1091.5,-17.39"/>
<polygon fill="midnightblue" stroke="midnightblue" points="1092.31,-20.79 1101.42,-15.39 1090.93,-13.93 1092.31,-20.79"/>
</g>
<!-- Node21&#45;&gt;Node14 -->
<g id="edge28" class="edge">
<title>Node21&#45;&gt;Node14</title>
<path fill="none" stroke="midnightblue" d="M656.61,-137.03C666.45,-139.22 676.81,-141.41 686.44,-143 842.03,-168.74 883.03,-158.85 1039.44,-179 1049.53,-180.3 1060.21,-181.83 1070.47,-183.39"/>
<polygon fill="midnightblue" stroke="midnightblue" points="1070.14,-186.88 1080.55,-184.96 1071.21,-179.96 1070.14,-186.88"/>
</g>
<!-- Node22&#45;&gt;Node4 -->
<g id="edge30" class="edge">
<title>Node22&#45;&gt;Node4</title>
<path fill="none" stroke="midnightblue" d="M773.55,-117.91C842.2,-96.93 1018.16,-43.17 1091.06,-20.9"/>
<polygon fill="midnightblue" stroke="midnightblue" points="1092.5,-24.12 1101.04,-17.85 1090.45,-17.42 1092.5,-24.12"/>
</g>
<!-- Node22&#45;&gt;Node14 -->
<g id="edge31" class="edge">
<title>Node22&#45;&gt;Node14</title>
<path fill="none" stroke="midnightblue" d="M792.57,-137.03C802.5,-139.08 812.83,-141.19 822.44,-143 868.25,-151.61 991.13,-171.24 1065.03,-183.33"/>
<polygon fill="midnightblue" stroke="midnightblue" points="1064.68,-186.82 1075.12,-184.99 1065.82,-179.92 1064.68,-186.82"/>
</g>
<!-- Node23&#45;&gt;Node4 -->
<g id="edge33" class="edge">
<title>Node23&#45;&gt;Node4</title>
<path fill="none" stroke="midnightblue" d="M898.71,-117.82C941.03,-97.7 1046.01,-47.81 1096.06,-24.02"/>
<polygon fill="midnightblue" stroke="midnightblue" points="1097.77,-27.08 1105.3,-19.62 1094.76,-20.76 1097.77,-27.08"/>
</g>
<!-- Node23&#45;&gt;Node14 -->
<g id="edge34" class="edge">
<title>Node23&#45;&gt;Node14</title>
<path fill="none" stroke="midnightblue" d="M917.2,-137.06C962.88,-148.62 1040.12,-169.23 1086.07,-182.09"/>
<polygon fill="midnightblue" stroke="midnightblue" points="1085.36,-185.53 1095.93,-184.87 1087.26,-178.79 1085.36,-185.53"/>
</g>
<!-- Node24&#45;&gt;Node4 -->
<g id="edge36" class="edge">
<title>Node24&#45;&gt;Node4</title>
<path fill="none" stroke="midnightblue" d="M1013.39,-117.82C1033.29,-98.5 1081.47,-51.74 1106.98,-26.98"/>
<polygon fill="midnightblue" stroke="midnightblue" points="1109.66,-29.26 1114.4,-19.78 1104.78,-24.24 1109.66,-29.26"/>
</g>
<!-- Node24&#45;&gt;Node14 -->
<g id="edge37" class="edge">
<title>Node24&#45;&gt;Node14</title>
<path fill="none" stroke="midnightblue" d="M1025,-137.13C1047.07,-147.93 1081.51,-166.57 1103.38,-179.44"/>
<polygon fill="midnightblue" stroke="midnightblue" points="1101.81,-182.58 1112.18,-184.73 1105.41,-176.58 1101.81,-182.58"/>
</g>
<!-- Node25&#45;&gt;Node4 -->
<g id="edge40" class="edge">
<title>Node25&#45;&gt;Node4</title>
<path fill="none" stroke="midnightblue" d="M1123.44,-117.82C1123.44,-99.26 1123.44,-55.34 1123.44,-29.97"/>
<polygon fill="midnightblue" stroke="midnightblue" points="1126.94,-29.78 1123.44,-19.78 1119.94,-29.78 1126.94,-29.78"/>
</g>
<!-- Node25&#45;&gt;Node14 -->
<g id="edge39" class="edge">
<title>Node25&#45;&gt;Node14</title>
<path fill="none" stroke="midnightblue" d="M1128.2,-137.13C1130.23,-146.62 1130.71,-162.17 1129.64,-174.54"/>
<polygon fill="midnightblue" stroke="midnightblue" points="1126.14,-174.35 1128.23,-184.73 1133.07,-175.31 1126.14,-174.35"/>
</g>
<!-- Node26&#45;&gt;Node4 -->
<g id="edge42" class="edge">
<title>Node26&#45;&gt;Node4</title>
<path fill="none" stroke="midnightblue" d="M1246.45,-117.82C1224.01,-98.34 1169.42,-50.92 1141.11,-26.34"/>
<polygon fill="midnightblue" stroke="midnightblue" points="1143.4,-23.7 1133.56,-19.78 1138.81,-28.98 1143.4,-23.7"/>
</g>
<!-- Node26&#45;&gt;Node14 -->
<g id="edge43" class="edge">
<title>Node26&#45;&gt;Node14</title>
<path fill="none" stroke="midnightblue" d="M1243.48,-137.17C1223.05,-148.31 1183.54,-167.74 1155.32,-180.61"/>
<polygon fill="midnightblue" stroke="midnightblue" points="1153.55,-177.57 1145.86,-184.87 1156.42,-183.96 1153.55,-177.57"/>
</g>
<!-- Node27&#45;&gt;Node4 -->
<g id="edge45" class="edge">
<title>Node27&#45;&gt;Node4</title>
<path fill="none" stroke="midnightblue" d="M1372.22,-117.82C1325.08,-97.58 1207.71,-47.18 1152.73,-23.57"/>
<polygon fill="midnightblue" stroke="midnightblue" points="1154.1,-20.35 1143.53,-19.62 1151.34,-26.79 1154.1,-20.35"/>
</g>
<!-- Node27&#45;&gt;Node14 -->
<g id="edge46" class="edge">
<title>Node27&#45;&gt;Node14</title>
<path fill="none" stroke="midnightblue" d="M1361.67,-137.08C1315.66,-148.81 1228.78,-169.84 1173.56,-182.64"/>
<polygon fill="midnightblue" stroke="midnightblue" points="1172.59,-179.28 1163.63,-184.94 1174.16,-186.1 1172.59,-179.28"/>
</g>
<!-- Node28&#45;&gt;Node4 -->
<g id="edge48" class="edge">
<title>Node28&#45;&gt;Node4</title>
<path fill="none" stroke="midnightblue" d="M1776.17,-117.93C1766.81,-115.88 1756.78,-113.78 1747.44,-112 1521.9,-69.01 1248.24,-28.83 1155.75,-15.58"/>
<polygon fill="midnightblue" stroke="midnightblue" points="1156.02,-12.08 1145.63,-14.13 1155.03,-19.01 1156.02,-12.08"/>
</g>
<!-- Node28&#45;&gt;Node14 -->
<g id="edge49" class="edge">
<title>Node28&#45;&gt;Node14</title>
<path fill="none" stroke="midnightblue" d="M1787.3,-137.06C1777.64,-139.28 1766.65,-141.47 1756.44,-143 1566.68,-171.39 1341.9,-184.64 1217.68,-190.13"/>
<polygon fill="midnightblue" stroke="midnightblue" points="1217.29,-186.64 1207.45,-190.57 1217.59,-193.64 1217.29,-186.64"/>
</g>
<!-- Node29&#45;&gt;Node4 -->
<g id="edge56" class="edge">
<title>Node29&#45;&gt;Node4</title>
<path fill="none" stroke="midnightblue" d="M297.28,-184.96C309.4,-175.73 328.16,-160.03 340.44,-143 365.23,-108.63 344.59,-80.1 379.44,-56 438.58,-15.12 955.71,-11.3 1091.11,-11.01"/>
<polygon fill="midnightblue" stroke="midnightblue" points="1091.26,-14.51 1101.25,-10.99 1091.25,-7.51 1091.26,-14.51"/>
</g>
<!-- Node29&#45;&gt;Node20 -->
<g id="edge55" class="edge">
<title>Node29&#45;&gt;Node20</title>
<path fill="none" stroke="midnightblue" d="M245.25,-192.16C176.46,-188.94 40.73,-178.18 11.44,-143 -41.35,-79.59 105.09,-36.22 177.98,-19.13"/>
<polygon fill="midnightblue" stroke="midnightblue" points="179.2,-22.44 188.17,-16.8 177.64,-15.62 179.2,-22.44"/>
</g>
<!-- Node30 -->
<g id="node30" class="node">
<title>Node30</title>
<g id="a_node30"><a xlink:title=" ">
<polygon fill="white" stroke="#bfbfbf" points="20.44,-118 20.44,-137 72.44,-137 72.44,-118 20.44,-118"/>
<text text-anchor="middle" x="46.44" y="-125" font-family="Helvetica,sans-Serif" font-size="10.00">cassert</text>
</a>
</g>
</g>
<!-- Node29&#45;&gt;Node30 -->
<g id="edge51" class="edge">
<title>Node29&#45;&gt;Node30</title>
<path fill="none" stroke="midnightblue" d="M245.07,-185.38C203.55,-176.59 137.25,-161.35 81.44,-143 79.31,-142.3 77.13,-141.53 74.94,-140.72"/>
<polygon fill="midnightblue" stroke="midnightblue" points="76.09,-137.41 65.5,-137 73.53,-143.92 76.09,-137.41"/>
</g>
<!-- Node31 -->
<g id="node31" class="node">
<title>Node31</title>
<g id="a_node31"><a xlink:title=" ">
<polygon fill="white" stroke="#bfbfbf" points="90.94,-118 90.94,-137 141.94,-137 141.94,-118 90.94,-118"/>
<text text-anchor="middle" x="116.44" y="-125" font-family="Helvetica,sans-Serif" font-size="10.00">csignal</text>
</a>
</g>
</g>
<!-- Node29&#45;&gt;Node31 -->
<g id="edge52" class="edge">
<title>Node29&#45;&gt;Node31</title>
<path fill="none" stroke="midnightblue" d="M262.12,-184.97C235.31,-175.11 190.05,-158.27 151.44,-143 149.8,-142.35 148.12,-141.68 146.43,-141"/>
<polygon fill="midnightblue" stroke="midnightblue" points="147.34,-137.59 136.76,-137.05 144.69,-144.07 147.34,-137.59"/>
</g>
<!-- Node32 -->
<g id="node32" class="node">
<title>Node32</title>
<g id="a_node32"><a xlink:title=" ">
<polygon fill="white" stroke="#bfbfbf" points="160.44,-118 160.44,-137 220.44,-137 220.44,-118 160.44,-118"/>
<text text-anchor="middle" x="190.44" y="-125" font-family="Helvetica,sans-Serif" font-size="10.00">iostream</text>
</a>
</g>
</g>
<!-- Node29&#45;&gt;Node32 -->
<g id="edge53" class="edge">
<title>Node29&#45;&gt;Node32</title>
<path fill="none" stroke="midnightblue" d="M272.63,-184.73C256.96,-174.01 230.22,-155.72 211.51,-142.91"/>
<polygon fill="midnightblue" stroke="midnightblue" points="213.28,-139.89 203.05,-137.13 209.33,-145.66 213.28,-139.89"/>
</g>
<!-- Node33 -->
<g id="node33" class="node">
<title>Node33</title>
<g id="a_node33"><a xlink:title=" ">
<polygon fill="white" stroke="#bfbfbf" points="238.94,-118 238.94,-137 331.94,-137 331.94,-118 238.94,-118"/>
<text text-anchor="middle" x="285.44" y="-125" font-family="Helvetica,sans-Serif" font-size="10.00">spdlog/spdlog.h</text>
</a>
</g>
</g>
<!-- Node29&#45;&gt;Node33 -->
<g id="edge54" class="edge">
<title>Node29&#45;&gt;Node33</title>
<path fill="none" stroke="midnightblue" d="M285.44,-184.73C285.44,-175.18 285.44,-159.62 285.44,-147.28"/>
<polygon fill="midnightblue" stroke="midnightblue" points="288.94,-147.13 285.44,-137.13 281.94,-147.13 288.94,-147.13"/>
</g>
<!-- Node35&#45;&gt;Node4 -->
<g id="edge65" class="edge">
<title>Node35&#45;&gt;Node4</title>
<path fill="none" stroke="midnightblue" d="M1927.89,-57.4C1923.01,-56.89 1918.15,-56.42 1913.44,-56 1619.74,-30.04 1263.22,-15.98 1155.66,-12.11"/>
<polygon fill="midnightblue" stroke="midnightblue" points="1155.59,-8.61 1145.47,-11.75 1155.34,-15.6 1155.59,-8.61"/>
</g>
<!-- Node36 -->
<g id="node36" class="node">
<title>Node36</title>
<g id="a_node36"><a xlink:title=" ">
<polygon fill="white" stroke="#bfbfbf" points="2176.44,-0.5 2176.44,-19.5 2226.44,-19.5 2226.44,-0.5 2176.44,-0.5"/>
<text text-anchor="middle" x="2201.44" y="-7.5" font-family="Helvetica,sans-Serif" font-size="10.00">cstdint</text>
</a>
</g>
</g>
<!-- Node35&#45;&gt;Node36 -->
<g id="edge64" class="edge">
<title>Node35&#45;&gt;Node36</title>
<path fill="none" stroke="midnightblue" d="M2022.19,-56.44C2061.58,-46.46 2126.4,-30.03 2166.35,-19.9"/>
<polygon fill="midnightblue" stroke="midnightblue" points="2167.36,-23.25 2176.19,-17.4 2165.63,-16.47 2167.36,-23.25"/>
</g>
<!-- Node37&#45;&gt;Node4 -->
<g id="edge70" class="edge">
<title>Node37&#45;&gt;Node4</title>
<path fill="none" stroke="midnightblue" d="M2375.39,-112.23C2361.27,-95.25 2335.08,-67.74 2305.44,-56 2195.99,-12.65 1334.2,-10.85 1155.73,-10.95"/>
<polygon fill="midnightblue" stroke="midnightblue" points="1155.65,-7.45 1145.66,-10.96 1155.66,-14.45 1155.65,-7.45"/>
</g>
<!-- Node37&#45;&gt;Node9 -->
<g id="edge71" class="edge">
<title>Node37&#45;&gt;Node9</title>
<path fill="none" stroke="midnightblue" d="M2334.35,-112.47C2292.54,-101.22 2235.07,-85.74 2199.1,-76.06"/>
<polygon fill="midnightblue" stroke="midnightblue" points="2199.68,-72.59 2189.12,-73.37 2197.86,-79.35 2199.68,-72.59"/>
</g>
<!-- Node38 -->
<g id="node38" class="node">
<title>Node38</title>
<g id="a_node38"><a xlink:href="../../d4/d90/bufferutils_8hpp.html" target="_top" xlink:title="buffer&#45;related helper functions">
<polygon fill="white" stroke="black" points="2357.44,-56.5 2357.44,-75.5 2471.44,-75.5 2471.44,-56.5 2357.44,-56.5"/>
<text text-anchor="middle" x="2414.44" y="-63.5" font-family="Helvetica,sans-Serif" font-size="10.00">tools/bufferutils.hpp</text>
</a>
</g>
</g>
<!-- Node37&#45;&gt;Node38 -->
<g id="edge72" class="edge">
<title>Node37&#45;&gt;Node38</title>
<path fill="none" stroke="midnightblue" d="M2393.08,-112.4C2396.98,-104.11 2401.95,-93.55 2406.11,-84.71"/>
<polygon fill="midnightblue" stroke="midnightblue" points="2409.28,-86.2 2410.37,-75.66 2402.94,-83.22 2409.28,-86.2"/>
</g>
<!-- Node38&#45;&gt;Node36 -->
<g id="edge73" class="edge">
<title>Node38&#45;&gt;Node36</title>
<path fill="none" stroke="midnightblue" d="M2380.69,-56.44C2341.3,-46.46 2276.49,-30.03 2236.53,-19.9"/>
<polygon fill="midnightblue" stroke="midnightblue" points="2237.25,-16.47 2226.7,-17.4 2235.53,-23.25 2237.25,-16.47"/>
</g>
<!-- Node39&#45;&gt;Node9 -->
<g id="edge76" class="edge">
<title>Node39&#45;&gt;Node9</title>
<path fill="none" stroke="midnightblue" d="M2488.66,-117.98C2480.18,-115.86 2470.99,-113.71 2462.44,-112 2367.57,-93 2254.2,-77.9 2198.99,-71.03"/>
<polygon fill="midnightblue" stroke="midnightblue" points="2199.41,-67.56 2189.06,-69.81 2198.56,-74.5 2199.41,-67.56"/>
</g>
<!-- Node39&#45;&gt;Node38 -->
<g id="edge75" class="edge">
<title>Node39&#45;&gt;Node38</title>
<path fill="none" stroke="midnightblue" d="M2505.26,-117.98C2487.78,-108.17 2458.86,-91.93 2438.36,-80.42"/>
<polygon fill="midnightblue" stroke="midnightblue" points="2440.04,-77.35 2429.6,-75.51 2436.61,-83.46 2440.04,-77.35"/>
</g>
</g>
</svg>
