<?xml version="1.0" encoding="UTF-8" standalone="no"?>
<!DOCTYPE svg PUBLIC "-//W3C//DTD SVG 1.1//EN"
 "http://www.w3.org/Graphics/SVG/1.1/DTD/svg11.dtd">
<!-- Generated by graphviz version 2.43.0 (0)
 -->
<!-- Title: Leosac::Tasks::GetRemoteConfigVersion Pages: 1 -->
<svg width="196pt" height="233pt"
 viewBox="0.00 0.00 195.50 233.00" xmlns="http://www.w3.org/2000/svg" xmlns:xlink="http://www.w3.org/1999/xlink">
<g id="graph0" class="graph" transform="scale(1 1) rotate(0) translate(4 229)">
<title>Leosac::Tasks::GetRemoteConfigVersion</title>
<polygon fill="white" stroke="transparent" points="-4,4 -4,-229 191.5,-229 191.5,4 -4,4"/>
<!-- Node1 -->
<g id="node1" class="node">
<title>Node1</title>
<g id="a_node1"><a xlink:title="Fetch the configuration version of the master server.">
<polygon fill="#bfbfbf" stroke="black" points="29,-0.5 29,-30.5 174,-30.5 174,-0.5 29,-0.5"/>
<text text-anchor="start" x="37" y="-18.5" font-family="Helvetica,sans-Serif" font-size="10.00">Leosac::Tasks::GetRemote</text>
<text text-anchor="middle" x="101.5" y="-7.5" font-family="Helvetica,sans-Serif" font-size="10.00">ConfigVersion</text>
</a>
</g>
</g>
<!-- Node2 -->
<g id="node2" class="node">
<title>Node2</title>
<g id="a_node2"><a xlink:href="../../d5/d9f/classLeosac_1_1Tasks_1_1Task.html" target="_top" xlink:title="A base class for a tasks.">
<polygon fill="white" stroke="black" points="0,-69.5 0,-88.5 111,-88.5 111,-69.5 0,-69.5"/>
<text text-anchor="middle" x="55.5" y="-76.5" font-family="Helvetica,sans-Serif" font-size="10.00">Leosac::Tasks::Task</text>
</a>
</g>
</g>
<!-- Node2&#45;&gt;Node1 -->
<g id="edge1" class="edge">
<title>Node2&#45;&gt;Node1</title>
<path fill="none" stroke="midnightblue" d="M67.89,-61.43C75.09,-51.81 84.06,-39.82 90.92,-30.65"/>
<polygon fill="midnightblue" stroke="midnightblue" points="65.08,-59.34 61.9,-69.45 70.69,-63.54 65.08,-59.34"/>
</g>
<!-- Node3 -->
<g id="node3" class="node">
<title>Node3</title>
<g id="a_node3"><a xlink:title="STL class.">
<polygon fill="white" stroke="#bfbfbf" points="5,-137.5 5,-156.5 74,-156.5 74,-137.5 5,-137.5"/>
<text text-anchor="middle" x="39.5" y="-144.5" font-family="Helvetica,sans-Serif" font-size="10.00">std::mutex</text>
</a>
</g>
</g>
<!-- Node3&#45;&gt;Node2 -->
<g id="edge2" class="edge">
<title>Node3&#45;&gt;Node2</title>
<path fill="none" stroke="#9a32cd" stroke-dasharray="5,2" d="M38.28,-127.25C38.33,-121.03 38.87,-114.14 40.5,-108 42.31,-101.18 46.06,-94.18 49.36,-88.88"/>
<polygon fill="#9a32cd" stroke="#9a32cd" points="34.79,-127.51 38.61,-137.39 41.78,-127.28 34.79,-127.51"/>
<text text-anchor="middle" x="60.5" y="-111" font-family="Helvetica,sans-Serif" font-size="10.00"> mutex_</text>
</g>
<!-- Node4 -->
<g id="node4" class="node">
<title>Node4</title>
<g id="a_node4"><a xlink:title="STL class.">
<polygon fill="white" stroke="#bfbfbf" points="103,-137.5 103,-156.5 168,-156.5 168,-137.5 103,-137.5"/>
<text text-anchor="middle" x="135.5" y="-144.5" font-family="Helvetica,sans-Serif" font-size="10.00">std::string</text>
</a>
</g>
</g>
<!-- Node4&#45;&gt;Node1 -->
<g id="edge5" class="edge">
<title>Node4&#45;&gt;Node1</title>
<path fill="none" stroke="#9a32cd" stroke-dasharray="5,2" d="M135.49,-127.38C135.23,-121.17 134.66,-114.25 133.5,-108 128.25,-79.71 115.74,-48.38 108,-30.71"/>
<polygon fill="#9a32cd" stroke="#9a32cd" points="131.99,-127.54 135.68,-137.47 138.99,-127.41 131.99,-127.54"/>
<text text-anchor="middle" x="153" y="-82" font-family="Helvetica,sans-Serif" font-size="10.00"> pubkey_</text>
<text text-anchor="middle" x="153" y="-71" font-family="Helvetica,sans-Serif" font-size="10.00">endpoint_</text>
</g>
<!-- Node4&#45;&gt;Node2 -->
<g id="edge3" class="edge">
<title>Node4&#45;&gt;Node2</title>
<path fill="none" stroke="#9a32cd" stroke-dasharray="5,2" d="M117,-130.73C101.15,-117.66 78.9,-99.3 65.96,-88.63"/>
<polygon fill="#9a32cd" stroke="#9a32cd" points="115.1,-133.71 125.04,-137.37 119.55,-128.31 115.1,-133.71"/>
<text text-anchor="middle" x="117.5" y="-111" font-family="Helvetica,sans-Serif" font-size="10.00"> guid_</text>
</g>
<!-- Node5 -->
<g id="node5" class="node">
<title>Node5</title>
<g id="a_node5"><a xlink:title="STL class.">
<polygon fill="white" stroke="#bfbfbf" points="83.5,-194.5 83.5,-224.5 187.5,-224.5 187.5,-194.5 83.5,-194.5"/>
<text text-anchor="start" x="91.5" y="-212.5" font-family="Helvetica,sans-Serif" font-size="10.00">std::basic_string&lt;</text>
<text text-anchor="middle" x="135.5" y="-201.5" font-family="Helvetica,sans-Serif" font-size="10.00"> char &gt;</text>
</a>
</g>
</g>
<!-- Node5&#45;&gt;Node4 -->
<g id="edge4" class="edge">
<title>Node5&#45;&gt;Node4</title>
<path fill="none" stroke="midnightblue" d="M135.5,-184.35C135.5,-174.51 135.5,-163.78 135.5,-156.54"/>
<polygon fill="midnightblue" stroke="midnightblue" points="132,-184.47 135.5,-194.47 139,-184.47 132,-184.47"/>
</g>
</g>
</svg>
