<?xml version="1.0" encoding="UTF-8" standalone="no"?>
<!DOCTYPE svg PUBLIC "-//W3C//DTD SVG 1.1//EN"
 "http://www.w3.org/Graphics/SVG/1.1/DTD/svg11.dtd">
<!-- Generated by graphviz version 2.43.0 (0)
 -->
<!-- Title: Leosac::Audit::IScheduleEvent Pages: 1 -->
<svg width="168pt" height="207pt"
 viewBox="0.00 0.00 168.00 207.00" xmlns="http://www.w3.org/2000/svg" xmlns:xlink="http://www.w3.org/1999/xlink">
<g id="graph0" class="graph" transform="scale(1 1) rotate(0) translate(4 203)">
<title>Leosac::Audit::IScheduleEvent</title>
<polygon fill="white" stroke="transparent" points="-4,4 -4,-203 164,-203 164,4 -4,4"/>
<!-- Node1 -->
<g id="node1" class="node">
<title>Node1</title>
<g id="a_node1"><a xlink:title="Audit interface to Schedule related events.">
<polygon fill="#bfbfbf" stroke="black" points="12.5,-56.5 12.5,-86.5 147.5,-86.5 147.5,-56.5 12.5,-56.5"/>
<text text-anchor="start" x="20.5" y="-74.5" font-family="Helvetica,sans-Serif" font-size="10.00">Leosac::Audit::ISchedule</text>
<text text-anchor="middle" x="80" y="-63.5" font-family="Helvetica,sans-Serif" font-size="10.00">Event</text>
</a>
</g>
</g>
<!-- Node4 -->
<g id="node4" class="node">
<title>Node4</title>
<g id="a_node4"><a xlink:href="../../db/ddb/classLeosac_1_1Audit_1_1ScheduleEvent.html" target="_top" xlink:title="Provides an implementation of IScheduleEvent.">
<polygon fill="white" stroke="black" points="0,-0.5 0,-19.5 160,-19.5 160,-0.5 0,-0.5"/>
<text text-anchor="middle" x="80" y="-7.5" font-family="Helvetica,sans-Serif" font-size="10.00">Leosac::Audit::ScheduleEvent</text>
</a>
</g>
</g>
<!-- Node1&#45;&gt;Node4 -->
<g id="edge3" class="edge">
<title>Node1&#45;&gt;Node4</title>
<path fill="none" stroke="midnightblue" d="M80,-46.29C80,-36.86 80,-26.65 80,-19.66"/>
<polygon fill="midnightblue" stroke="midnightblue" points="76.5,-46.4 80,-56.4 83.5,-46.4 76.5,-46.4"/>
</g>
<!-- Node2 -->
<g id="node2" class="node">
<title>Node2</title>
<g id="a_node2"><a xlink:href="../../d1/d44/classLeosac_1_1Audit_1_1IAuditEntry.html" target="_top" xlink:title="Base interface to Audit object.">
<polygon fill="white" stroke="black" points="9,-123.5 9,-142.5 151,-142.5 151,-123.5 9,-123.5"/>
<text text-anchor="middle" x="80" y="-130.5" font-family="Helvetica,sans-Serif" font-size="10.00">Leosac::Audit::IAuditEntry</text>
</a>
</g>
</g>
<!-- Node2&#45;&gt;Node1 -->
<g id="edge1" class="edge">
<title>Node2&#45;&gt;Node1</title>
<path fill="none" stroke="midnightblue" d="M80,-113.23C80,-104.59 80,-94.5 80,-86.52"/>
<polygon fill="midnightblue" stroke="midnightblue" points="76.5,-113.48 80,-123.48 83.5,-113.48 76.5,-113.48"/>
</g>
<!-- Node3 -->
<g id="node3" class="node">
<title>Node3</title>
<g id="a_node3"><a xlink:href="../../d0/d33/classLeosac_1_1Tools_1_1IVisitable.html" target="_top" xlink:title="Base class to make an object visitable.">
<polygon fill="white" stroke="black" points="13.5,-179.5 13.5,-198.5 146.5,-198.5 146.5,-179.5 13.5,-179.5"/>
<text text-anchor="middle" x="80" y="-186.5" font-family="Helvetica,sans-Serif" font-size="10.00">Leosac::Tools::IVisitable</text>
</a>
</g>
</g>
<!-- Node3&#45;&gt;Node2 -->
<g id="edge2" class="edge">
<title>Node3&#45;&gt;Node2</title>
<path fill="none" stroke="midnightblue" d="M80,-168.8C80,-159.91 80,-149.78 80,-142.75"/>
<polygon fill="midnightblue" stroke="midnightblue" points="76.5,-169.08 80,-179.08 83.5,-169.08 76.5,-169.08"/>
</g>
</g>
</svg>
