<?xml version="1.0" encoding="UTF-8" standalone="no"?>
<!DOCTYPE svg PUBLIC "-//W3C//DTD SVG 1.1//EN"
 "http://www.w3.org/Graphics/SVG/1.1/DTD/svg11.dtd">
<!-- Generated by graphviz version 2.43.0 (0)
 -->
<!-- Title: src/core/update/IUpdate.hpp Pages: 1 -->
<svg width="430pt" height="140pt"
 viewBox="0.00 0.00 429.50 140.00" xmlns="http://www.w3.org/2000/svg" xmlns:xlink="http://www.w3.org/1999/xlink">
<g id="graph0" class="graph" transform="scale(1 1) rotate(0) translate(4 136)">
<title>src/core/update/IUpdate.hpp</title>
<polygon fill="white" stroke="transparent" points="-4,4 -4,-136 425.5,-136 425.5,4 -4,4"/>
<!-- Node1 -->
<g id="node1" class="node">
<title>Node1</title>
<g id="a_node1"><a xlink:title=" ">
<polygon fill="#bfbfbf" stroke="black" points="199.5,-112.5 199.5,-131.5 353.5,-131.5 353.5,-112.5 199.5,-112.5"/>
<text text-anchor="middle" x="276.5" y="-119.5" font-family="Helvetica,sans-Serif" font-size="10.00">src/core/update/IUpdate.hpp</text>
</a>
</g>
</g>
<!-- Node2 -->
<g id="node2" class="node">
<title>Node2</title>
<g id="a_node2"><a xlink:href="../../d7/dcf/AuditFwd_8hpp.html" target="_top" xlink:title=" ">
<polygon fill="white" stroke="black" points="46,-56.5 46,-75.5 181,-75.5 181,-56.5 46,-56.5"/>
<text text-anchor="middle" x="113.5" y="-63.5" font-family="Helvetica,sans-Serif" font-size="10.00">core/audit/AuditFwd.hpp</text>
</a>
</g>
</g>
<!-- Node1&#45;&gt;Node2 -->
<g id="edge1" class="edge">
<title>Node1&#45;&gt;Node2</title>
<path fill="none" stroke="midnightblue" d="M250.67,-112.44C223.25,-103.36 179.72,-88.94 149.07,-78.78"/>
<polygon fill="midnightblue" stroke="midnightblue" points="149.8,-75.34 139.21,-75.52 147.6,-81.98 149.8,-75.34"/>
</g>
<!-- Node7 -->
<g id="node7" class="node">
<title>Node7</title>
<g id="a_node7"><a xlink:href="../../d2/d0e/UpdateFwd_8hpp.html" target="_top" xlink:title=" ">
<polygon fill="white" stroke="black" points="199.5,-56.5 199.5,-75.5 353.5,-75.5 353.5,-56.5 199.5,-56.5"/>
<text text-anchor="middle" x="276.5" y="-63.5" font-family="Helvetica,sans-Serif" font-size="10.00">core/update/UpdateFwd.hpp</text>
</a>
</g>
</g>
<!-- Node1&#45;&gt;Node7 -->
<g id="edge6" class="edge">
<title>Node1&#45;&gt;Node7</title>
<path fill="none" stroke="midnightblue" d="M276.5,-112.08C276.5,-105.01 276.5,-94.86 276.5,-85.99"/>
<polygon fill="midnightblue" stroke="midnightblue" points="280,-85.75 276.5,-75.75 273,-85.75 280,-85.75"/>
</g>
<!-- Node8 -->
<g id="node8" class="node">
<title>Node8</title>
<g id="a_node8"><a xlink:title=" ">
<polygon fill="white" stroke="#bfbfbf" points="371.5,-56.5 371.5,-75.5 421.5,-75.5 421.5,-56.5 371.5,-56.5"/>
<text text-anchor="middle" x="396.5" y="-63.5" font-family="Helvetica,sans-Serif" font-size="10.00">chrono</text>
</a>
</g>
</g>
<!-- Node1&#45;&gt;Node8 -->
<g id="edge9" class="edge">
<title>Node1&#45;&gt;Node8</title>
<path fill="none" stroke="midnightblue" d="M295.51,-112.44C315.09,-103.64 345.81,-89.81 368.23,-79.72"/>
<polygon fill="midnightblue" stroke="midnightblue" points="369.89,-82.81 377.57,-75.52 367.02,-76.43 369.89,-82.81"/>
</g>
<!-- Node3 -->
<g id="node3" class="node">
<title>Node3</title>
<g id="a_node3"><a xlink:title=" ">
<polygon fill="white" stroke="#bfbfbf" points="0,-0.5 0,-19.5 53,-19.5 53,-0.5 0,-0.5"/>
<text text-anchor="middle" x="26.5" y="-7.5" font-family="Helvetica,sans-Serif" font-size="10.00">cstddef</text>
</a>
</g>
</g>
<!-- Node2&#45;&gt;Node3 -->
<g id="edge2" class="edge">
<title>Node2&#45;&gt;Node3</title>
<path fill="none" stroke="midnightblue" d="M99.52,-56.32C85.95,-47.9 65.12,-34.97 49.18,-25.07"/>
<polygon fill="midnightblue" stroke="midnightblue" points="50.79,-21.95 40.44,-19.65 47.09,-27.9 50.79,-21.95"/>
</g>
<!-- Node4 -->
<g id="node4" class="node">
<title>Node4</title>
<g id="a_node4"><a xlink:title=" ">
<polygon fill="white" stroke="#bfbfbf" points="71,-0.5 71,-19.5 142,-19.5 142,-0.5 71,-0.5"/>
<text text-anchor="middle" x="106.5" y="-7.5" font-family="Helvetica,sans-Serif" font-size="10.00">flagset.hpp</text>
</a>
</g>
</g>
<!-- Node2&#45;&gt;Node4 -->
<g id="edge3" class="edge">
<title>Node2&#45;&gt;Node4</title>
<path fill="none" stroke="midnightblue" d="M112.34,-56.08C111.42,-48.93 110.08,-38.64 108.92,-29.69"/>
<polygon fill="midnightblue" stroke="midnightblue" points="112.39,-29.22 107.63,-19.75 105.45,-30.12 112.39,-29.22"/>
</g>
<!-- Node5 -->
<g id="node5" class="node">
<title>Node5</title>
<g id="a_node5"><a xlink:title=" ">
<polygon fill="white" stroke="#bfbfbf" points="160.5,-0.5 160.5,-19.5 218.5,-19.5 218.5,-0.5 160.5,-0.5"/>
<text text-anchor="middle" x="189.5" y="-7.5" font-family="Helvetica,sans-Serif" font-size="10.00">memory</text>
</a>
</g>
</g>
<!-- Node2&#45;&gt;Node5 -->
<g id="edge4" class="edge">
<title>Node2&#45;&gt;Node5</title>
<path fill="none" stroke="midnightblue" d="M125.71,-56.32C137.28,-48.11 154.88,-35.6 168.66,-25.81"/>
<polygon fill="midnightblue" stroke="midnightblue" points="170.94,-28.48 177.07,-19.83 166.89,-22.77 170.94,-28.48"/>
</g>
<!-- Node6 -->
<g id="node6" class="node">
<title>Node6</title>
<g id="a_node6"><a xlink:title=" ">
<polygon fill="white" stroke="#bfbfbf" points="237,-0.5 237,-19.5 332,-19.5 332,-0.5 237,-0.5"/>
<text text-anchor="middle" x="284.5" y="-7.5" font-family="Helvetica,sans-Serif" font-size="10.00">odb/lazy&#45;ptr.hxx</text>
</a>
</g>
</g>
<!-- Node2&#45;&gt;Node6 -->
<g id="edge5" class="edge">
<title>Node2&#45;&gt;Node6</title>
<path fill="none" stroke="midnightblue" d="M140.6,-56.44C169.49,-47.32 215.42,-32.81 247.61,-22.65"/>
<polygon fill="midnightblue" stroke="midnightblue" points="249.05,-25.87 257.53,-19.52 246.94,-19.19 249.05,-25.87"/>
</g>
<!-- Node7&#45;&gt;Node5 -->
<g id="edge7" class="edge">
<title>Node7&#45;&gt;Node5</title>
<path fill="none" stroke="midnightblue" d="M262.52,-56.32C248.95,-47.9 228.12,-34.97 212.18,-25.07"/>
<polygon fill="midnightblue" stroke="midnightblue" points="213.79,-21.95 203.44,-19.65 210.09,-27.9 213.79,-21.95"/>
</g>
<!-- Node7&#45;&gt;Node6 -->
<g id="edge8" class="edge">
<title>Node7&#45;&gt;Node6</title>
<path fill="none" stroke="midnightblue" d="M277.82,-56.08C278.88,-48.93 280.41,-38.64 281.73,-29.69"/>
<polygon fill="midnightblue" stroke="midnightblue" points="285.2,-30.16 283.2,-19.75 278.28,-29.13 285.2,-30.16"/>
</g>
</g>
</svg>
