<?xml version="1.0" encoding="UTF-8" standalone="no"?>
<!DOCTYPE svg PUBLIC "-//W3C//DTD SVG 1.1//EN"
 "http://www.w3.org/Graphics/SVG/1.1/DTD/svg11.dtd">
<!-- Generated by graphviz version 2.43.0 (0)
 -->
<!-- Title: src/tools/serializers/ExtensibleSerializer.hpp Pages: 1 -->
<svg width="4052pt" height="184pt"
 viewBox="0.00 0.00 4052.00 184.00" xmlns="http://www.w3.org/2000/svg" xmlns:xlink="http://www.w3.org/1999/xlink">
<g id="graph0" class="graph" transform="scale(1 1) rotate(0) translate(4 180)">
<title>src/tools/serializers/ExtensibleSerializer.hpp</title>
<polygon fill="white" stroke="transparent" points="-4,4 -4,-180 4048,-180 4048,4 -4,4"/>
<!-- Node1 -->
<g id="node1" class="node">
<title>Node1</title>
<g id="a_node1"><a xlink:title=" ">
<polygon fill="#bfbfbf" stroke="black" points="1069.5,-145.5 1069.5,-175.5 1206.5,-175.5 1206.5,-145.5 1069.5,-145.5"/>
<text text-anchor="start" x="1077.5" y="-163.5" font-family="Helvetica,sans-Serif" font-size="10.00">src/tools/serializers</text>
<text text-anchor="middle" x="1138" y="-152.5" font-family="Helvetica,sans-Serif" font-size="10.00">/ExtensibleSerializer.hpp</text>
</a>
</g>
</g>
<!-- Node2 -->
<g id="node2" class="node">
<title>Node2</title>
<g id="a_node2"><a xlink:href="../../d4/dbb/JSONService_8hpp.html" target="_top" xlink:title=" ">
<polygon fill="white" stroke="black" points="647,-78.5 647,-108.5 783,-108.5 783,-78.5 647,-78.5"/>
<text text-anchor="start" x="655" y="-96.5" font-family="Helvetica,sans-Serif" font-size="10.00">src/core/audit/serializers</text>
<text text-anchor="middle" x="715" y="-85.5" font-family="Helvetica,sans-Serif" font-size="10.00">/JSONService.hpp</text>
</a>
</g>
</g>
<!-- Node1&#45;&gt;Node2 -->
<g id="edge1" class="edge">
<title>Node1&#45;&gt;Node2</title>
<path fill="none" stroke="midnightblue" d="M1059.15,-147.38C979.75,-135.18 858.54,-116.56 783.17,-104.98"/>
<polygon fill="midnightblue" stroke="midnightblue" points="1058.68,-150.85 1069.1,-148.91 1059.74,-143.93 1058.68,-150.85"/>
</g>
<!-- Node6 -->
<g id="node6" class="node">
<title>Node6</title>
<g id="a_node6"><a xlink:href="../../de/d09/AccessPointService_8hpp.html" target="_top" xlink:title=" ">
<polygon fill="white" stroke="black" points="374.5,-78.5 374.5,-108.5 515.5,-108.5 515.5,-78.5 374.5,-78.5"/>
<text text-anchor="start" x="382.5" y="-96.5" font-family="Helvetica,sans-Serif" font-size="10.00">src/core/auth/AccessPoint</text>
<text text-anchor="middle" x="445" y="-85.5" font-family="Helvetica,sans-Serif" font-size="10.00">Service.hpp</text>
</a>
</g>
</g>
<!-- Node1&#45;&gt;Node6 -->
<g id="edge5" class="edge">
<title>Node1&#45;&gt;Node6</title>
<path fill="none" stroke="midnightblue" d="M1058.98,-152.09C922.74,-139.31 645.76,-113.33 515.59,-101.12"/>
<polygon fill="midnightblue" stroke="midnightblue" points="1059.05,-155.61 1069.34,-153.06 1059.71,-148.64 1059.05,-155.61"/>
</g>
<!-- Node9 -->
<g id="node9" class="node">
<title>Node9</title>
<g id="a_node9"><a xlink:href="../../d2/d87/UpdateService_8hpp.html" target="_top" xlink:title=" ">
<polygon fill="white" stroke="black" points="1389.5,-84 1389.5,-103 1576.5,-103 1576.5,-84 1389.5,-84"/>
<text text-anchor="middle" x="1483" y="-91" font-family="Helvetica,sans-Serif" font-size="10.00">src/core/update/UpdateService.hpp</text>
</a>
</g>
</g>
<!-- Node1&#45;&gt;Node9 -->
<g id="edge9" class="edge">
<title>Node1&#45;&gt;Node9</title>
<path fill="none" stroke="midnightblue" d="M1216.44,-144.72C1284.76,-131.85 1381.44,-113.63 1437.64,-103.05"/>
<polygon fill="midnightblue" stroke="midnightblue" points="1215.75,-141.29 1206.57,-146.58 1217.05,-148.17 1215.75,-141.29"/>
</g>
<!-- Node19 -->
<g id="node19" class="node">
<title>Node19</title>
<g id="a_node19"><a xlink:href="../../dd/d50/HardwareService_8hpp.html" target="_top" xlink:title=" ">
<polygon fill="white" stroke="black" points="3014.5,-84 3014.5,-103 3201.5,-103 3201.5,-84 3014.5,-84"/>
<text text-anchor="middle" x="3108" y="-91" font-family="Helvetica,sans-Serif" font-size="10.00">src/hardware/HardwareService.hpp</text>
</a>
</g>
</g>
<!-- Node1&#45;&gt;Node19 -->
<g id="edge20" class="edge">
<title>Node1&#45;&gt;Node19</title>
<path fill="none" stroke="midnightblue" d="M1216.99,-156.89C1529.29,-146.59 2677.27,-108.71 3014.35,-97.59"/>
<polygon fill="midnightblue" stroke="midnightblue" points="1216.55,-153.41 1206.67,-157.23 1216.78,-160.4 1216.55,-153.41"/>
</g>
<!-- Node3 -->
<g id="node3" class="node">
<title>Node3</title>
<g id="a_node3"><a xlink:href="../../d5/dce/PolymorphicAuditSerializer_8cpp.html" target="_top" xlink:title=" ">
<polygon fill="white" stroke="black" points="550.5,-6 550.5,-36 721.5,-36 721.5,-6 550.5,-6"/>
<text text-anchor="start" x="558.5" y="-24" font-family="Helvetica,sans-Serif" font-size="10.00">src/core/audit/serializers</text>
<text text-anchor="middle" x="636" y="-13" font-family="Helvetica,sans-Serif" font-size="10.00">/PolymorphicAuditSerializer.cpp</text>
</a>
</g>
</g>
<!-- Node2&#45;&gt;Node3 -->
<g id="edge2" class="edge">
<title>Node2&#45;&gt;Node3</title>
<path fill="none" stroke="midnightblue" d="M691.43,-71.46C678.59,-60 663.05,-46.14 651.69,-36"/>
<polygon fill="midnightblue" stroke="midnightblue" points="689.22,-74.19 699.01,-78.23 693.88,-68.96 689.22,-74.19"/>
</g>
<!-- Node4 -->
<g id="node4" class="node">
<title>Node4</title>
<g id="a_node4"><a xlink:href="../../dd/d24/kernel_8cpp.html" target="_top" xlink:title=" ">
<polygon fill="white" stroke="black" points="740,-11.5 740,-30.5 848,-30.5 848,-11.5 740,-11.5"/>
<text text-anchor="middle" x="794" y="-18.5" font-family="Helvetica,sans-Serif" font-size="10.00">src/core/kernel.cpp</text>
</a>
</g>
</g>
<!-- Node2&#45;&gt;Node4 -->
<g id="edge3" class="edge">
<title>Node2&#45;&gt;Node4</title>
<path fill="none" stroke="midnightblue" d="M738.52,-71.51C753.7,-57.96 772.67,-41.03 784.03,-30.89"/>
<polygon fill="midnightblue" stroke="midnightblue" points="736.12,-68.96 730.99,-78.23 740.78,-74.19 736.12,-68.96"/>
</g>
<!-- Node5 -->
<g id="node5" class="node">
<title>Node5</title>
<g id="a_node5"><a xlink:href="../../da/d6f/SMTPModule_8cpp.html" target="_top" xlink:title=" ">
<polygon fill="white" stroke="black" points="342,-11.5 342,-30.5 532,-30.5 532,-11.5 342,-11.5"/>
<text text-anchor="middle" x="437" y="-18.5" font-family="Helvetica,sans-Serif" font-size="10.00">src/modules/smtp/SMTPModule.cpp</text>
</a>
</g>
</g>
<!-- Node2&#45;&gt;Node5 -->
<g id="edge4" class="edge">
<title>Node2&#45;&gt;Node5</title>
<path fill="none" stroke="midnightblue" d="M649.9,-75.99C593.79,-61.76 515.04,-41.79 470.73,-30.55"/>
<polygon fill="midnightblue" stroke="midnightblue" points="649.19,-79.42 659.74,-78.49 650.91,-72.64 649.19,-79.42"/>
</g>
<!-- Node6&#45;&gt;Node4 -->
<g id="edge7" class="edge">
<title>Node6&#45;&gt;Node4</title>
<path fill="none" stroke="midnightblue" d="M525.6,-81.03C582.99,-72.18 661.72,-58.65 730,-42 743.12,-38.8 757.49,-34.4 769.28,-30.53"/>
<polygon fill="midnightblue" stroke="midnightblue" points="524.86,-77.6 515.5,-82.57 525.91,-84.52 524.86,-77.6"/>
</g>
<!-- Node7 -->
<g id="node7" class="node">
<title>Node7</title>
<g id="a_node7"><a xlink:href="../../dc/d02/AccessPointService_8cpp.html" target="_top" xlink:title=" ">
<polygon fill="white" stroke="black" points="182.5,-6 182.5,-36 323.5,-36 323.5,-6 182.5,-6"/>
<text text-anchor="start" x="190.5" y="-24" font-family="Helvetica,sans-Serif" font-size="10.00">src/core/auth/AccessPoint</text>
<text text-anchor="middle" x="253" y="-13" font-family="Helvetica,sans-Serif" font-size="10.00">Service.cpp</text>
</a>
</g>
</g>
<!-- Node6&#45;&gt;Node7 -->
<g id="edge6" class="edge">
<title>Node6&#45;&gt;Node7</title>
<path fill="none" stroke="midnightblue" d="M396.82,-74.81C364.19,-62.83 321.66,-47.21 291.33,-36.07"/>
<polygon fill="midnightblue" stroke="midnightblue" points="396.01,-78.24 406.61,-78.4 398.43,-71.67 396.01,-78.24"/>
</g>
<!-- Node8 -->
<g id="node8" class="node">
<title>Node8</title>
<g id="a_node8"><a xlink:href="../../d7/d29/AccessPointCRUD_8cpp.html" target="_top" xlink:title=" ">
<polygon fill="white" stroke="black" points="0,-6 0,-36 164,-36 164,-6 0,-6"/>
<text text-anchor="start" x="8" y="-24" font-family="Helvetica,sans-Serif" font-size="10.00">src/modules/websock</text>
<text text-anchor="middle" x="82" y="-13" font-family="Helvetica,sans-Serif" font-size="10.00">&#45;api/api/AccessPointCRUD.cpp</text>
</a>
</g>
</g>
<!-- Node6&#45;&gt;Node8 -->
<g id="edge8" class="edge">
<title>Node6&#45;&gt;Node8</title>
<path fill="none" stroke="midnightblue" d="M364.53,-78.27C310.32,-68.52 237.26,-55.02 173,-42 163.81,-40.14 154.11,-38.09 144.6,-36.04"/>
<polygon fill="midnightblue" stroke="midnightblue" points="363.97,-81.73 374.43,-80.05 365.21,-74.84 363.97,-81.73"/>
</g>
<!-- Node9&#45;&gt;Node4 -->
<g id="edge10" class="edge">
<title>Node9&#45;&gt;Node4</title>
<path fill="none" stroke="midnightblue" d="M1378.97,-91.3C1253.95,-88.21 1038.33,-77.62 857,-42 843.38,-39.32 828.56,-34.71 816.71,-30.59"/>
<polygon fill="midnightblue" stroke="midnightblue" points="1379.21,-94.81 1389.29,-91.54 1379.38,-87.81 1379.21,-94.81"/>
</g>
<!-- Node10 -->
<g id="node10" class="node">
<title>Node10</title>
<g id="a_node10"><a xlink:href="../../d8/d0b/UpdateDescriptorSerializer_8cpp.html" target="_top" xlink:title=" ">
<polygon fill="white" stroke="black" points="1398,-6 1398,-36 1568,-36 1568,-6 1398,-6"/>
<text text-anchor="start" x="1406" y="-24" font-family="Helvetica,sans-Serif" font-size="10.00">src/core/update/serializers</text>
<text text-anchor="middle" x="1483" y="-13" font-family="Helvetica,sans-Serif" font-size="10.00">/UpdateDescriptorSerializer.cpp</text>
</a>
</g>
</g>
<!-- Node9&#45;&gt;Node10 -->
<g id="edge11" class="edge">
<title>Node9&#45;&gt;Node10</title>
<path fill="none" stroke="midnightblue" d="M1483,-73.74C1483,-61.91 1483,-46.88 1483,-36.08"/>
<polygon fill="midnightblue" stroke="midnightblue" points="1479.5,-73.86 1483,-83.86 1486.5,-73.86 1479.5,-73.86"/>
</g>
<!-- Node11 -->
<g id="node11" class="node">
<title>Node11</title>
<g id="a_node11"><a xlink:href="../../de/dd9/UpdateService_8cpp.html" target="_top" xlink:title=" ">
<polygon fill="white" stroke="black" points="1586,-11.5 1586,-30.5 1772,-30.5 1772,-11.5 1586,-11.5"/>
<text text-anchor="middle" x="1679" y="-18.5" font-family="Helvetica,sans-Serif" font-size="10.00">src/core/update/UpdateService.cpp</text>
</a>
</g>
</g>
<!-- Node9&#45;&gt;Node11 -->
<g id="edge12" class="edge">
<title>Node9&#45;&gt;Node11</title>
<path fill="none" stroke="midnightblue" d="M1516.09,-80.6C1555.54,-66.41 1620.5,-43.04 1655.27,-30.53"/>
<polygon fill="midnightblue" stroke="midnightblue" points="1514.87,-77.32 1506.64,-84 1517.24,-83.9 1514.87,-77.32"/>
</g>
<!-- Node12 -->
<g id="node12" class="node">
<title>Node12</title>
<g id="a_node12"><a xlink:href="../../d1/deb/AckUpdate_8cpp.html" target="_top" xlink:title=" ">
<polygon fill="white" stroke="black" points="1789.5,-0.5 1789.5,-41.5 1948.5,-41.5 1948.5,-0.5 1789.5,-0.5"/>
<text text-anchor="start" x="1797.5" y="-29.5" font-family="Helvetica,sans-Serif" font-size="10.00">src/modules/websock</text>
<text text-anchor="start" x="1797.5" y="-18.5" font-family="Helvetica,sans-Serif" font-size="10.00">&#45;api/api/update&#45;management</text>
<text text-anchor="middle" x="1869" y="-7.5" font-family="Helvetica,sans-Serif" font-size="10.00">/AckUpdate.cpp</text>
</a>
</g>
</g>
<!-- Node9&#45;&gt;Node12 -->
<g id="edge13" class="edge">
<title>Node9&#45;&gt;Node12</title>
<path fill="none" stroke="midnightblue" d="M1549.09,-82.38C1609.61,-72.86 1701.57,-57.74 1781,-42 1783.77,-41.45 1786.58,-40.88 1789.42,-40.3"/>
<polygon fill="midnightblue" stroke="midnightblue" points="1548.25,-78.97 1538.92,-83.98 1549.34,-85.88 1548.25,-78.97"/>
</g>
<!-- Node13 -->
<g id="node13" class="node">
<title>Node13</title>
<g id="a_node13"><a xlink:href="../../d0/dcd/CancelUpdate_8cpp.html" target="_top" xlink:title=" ">
<polygon fill="white" stroke="black" points="1966.5,-0.5 1966.5,-41.5 2125.5,-41.5 2125.5,-0.5 1966.5,-0.5"/>
<text text-anchor="start" x="1974.5" y="-29.5" font-family="Helvetica,sans-Serif" font-size="10.00">src/modules/websock</text>
<text text-anchor="start" x="1974.5" y="-18.5" font-family="Helvetica,sans-Serif" font-size="10.00">&#45;api/api/update&#45;management</text>
<text text-anchor="middle" x="2046" y="-7.5" font-family="Helvetica,sans-Serif" font-size="10.00">/CancelUpdate.cpp</text>
</a>
</g>
</g>
<!-- Node9&#45;&gt;Node13 -->
<g id="edge14" class="edge">
<title>Node9&#45;&gt;Node13</title>
<path fill="none" stroke="midnightblue" d="M1586.55,-84.92C1682.89,-77.04 1830.23,-62.93 1957,-42 1959.97,-41.51 1962.99,-40.98 1966.03,-40.43"/>
<polygon fill="midnightblue" stroke="midnightblue" points="1586.2,-81.43 1576.51,-85.73 1586.76,-88.41 1586.2,-81.43"/>
</g>
<!-- Node14 -->
<g id="node14" class="node">
<title>Node14</title>
<g id="a_node14"><a xlink:href="../../d4/d2d/CheckUpdate_8cpp.html" target="_top" xlink:title=" ">
<polygon fill="white" stroke="black" points="2143.5,-0.5 2143.5,-41.5 2302.5,-41.5 2302.5,-0.5 2143.5,-0.5"/>
<text text-anchor="start" x="2151.5" y="-29.5" font-family="Helvetica,sans-Serif" font-size="10.00">src/modules/websock</text>
<text text-anchor="start" x="2151.5" y="-18.5" font-family="Helvetica,sans-Serif" font-size="10.00">&#45;api/api/update&#45;management</text>
<text text-anchor="middle" x="2223" y="-7.5" font-family="Helvetica,sans-Serif" font-size="10.00">/CheckUpdate.cpp</text>
</a>
</g>
</g>
<!-- Node9&#45;&gt;Node14 -->
<g id="edge15" class="edge">
<title>Node9&#45;&gt;Node14</title>
<path fill="none" stroke="midnightblue" d="M1586.99,-89.04C1715.93,-83.69 1942.18,-70.84 2134,-42 2136.98,-41.55 2140,-41.06 2143.05,-40.54"/>
<polygon fill="midnightblue" stroke="midnightblue" points="1586.58,-85.55 1576.73,-89.46 1586.86,-92.55 1586.58,-85.55"/>
</g>
<!-- Node15 -->
<g id="node15" class="node">
<title>Node15</title>
<g id="a_node15"><a xlink:href="../../dd/d7b/CreateUpdate_8cpp.html" target="_top" xlink:title=" ">
<polygon fill="white" stroke="black" points="2320.5,-0.5 2320.5,-41.5 2479.5,-41.5 2479.5,-0.5 2320.5,-0.5"/>
<text text-anchor="start" x="2328.5" y="-29.5" font-family="Helvetica,sans-Serif" font-size="10.00">src/modules/websock</text>
<text text-anchor="start" x="2328.5" y="-18.5" font-family="Helvetica,sans-Serif" font-size="10.00">&#45;api/api/update&#45;management</text>
<text text-anchor="middle" x="2400" y="-7.5" font-family="Helvetica,sans-Serif" font-size="10.00">/CreateUpdate.cpp</text>
</a>
</g>
</g>
<!-- Node9&#45;&gt;Node15 -->
<g id="edge16" class="edge">
<title>Node9&#45;&gt;Node15</title>
<path fill="none" stroke="midnightblue" d="M1586.77,-91.49C1744.12,-88.76 2052.18,-78.73 2311,-42 2313.98,-41.58 2317.01,-41.11 2320.06,-40.6"/>
<polygon fill="midnightblue" stroke="midnightblue" points="1586.56,-87.99 1576.62,-91.66 1586.68,-94.99 1586.56,-87.99"/>
</g>
<!-- Node16 -->
<g id="node16" class="node">
<title>Node16</title>
<g id="a_node16"><a xlink:href="../../d9/d03/PendingUpdateGet_8cpp.html" target="_top" xlink:title=" ">
<polygon fill="white" stroke="black" points="866.5,-0.5 866.5,-41.5 1025.5,-41.5 1025.5,-0.5 866.5,-0.5"/>
<text text-anchor="start" x="874.5" y="-29.5" font-family="Helvetica,sans-Serif" font-size="10.00">src/modules/websock</text>
<text text-anchor="start" x="874.5" y="-18.5" font-family="Helvetica,sans-Serif" font-size="10.00">&#45;api/api/update&#45;management</text>
<text text-anchor="middle" x="946" y="-7.5" font-family="Helvetica,sans-Serif" font-size="10.00">/PendingUpdateGet.cpp</text>
</a>
</g>
</g>
<!-- Node9&#45;&gt;Node16 -->
<g id="edge17" class="edge">
<title>Node9&#45;&gt;Node16</title>
<path fill="none" stroke="midnightblue" d="M1379.2,-84.13C1287.9,-75.99 1151.6,-61.91 1034,-42 1031.22,-41.53 1028.39,-41.03 1025.55,-40.5"/>
<polygon fill="midnightblue" stroke="midnightblue" points="1379,-87.63 1389.27,-85.02 1379.62,-80.66 1379,-87.63"/>
</g>
<!-- Node17 -->
<g id="node17" class="node">
<title>Node17</title>
<g id="a_node17"><a xlink:href="../../d0/d36/UpdateGet_8cpp.html" target="_top" xlink:title=" ">
<polygon fill="white" stroke="black" points="1043.5,-0.5 1043.5,-41.5 1202.5,-41.5 1202.5,-0.5 1043.5,-0.5"/>
<text text-anchor="start" x="1051.5" y="-29.5" font-family="Helvetica,sans-Serif" font-size="10.00">src/modules/websock</text>
<text text-anchor="start" x="1051.5" y="-18.5" font-family="Helvetica,sans-Serif" font-size="10.00">&#45;api/api/update&#45;management</text>
<text text-anchor="middle" x="1123" y="-7.5" font-family="Helvetica,sans-Serif" font-size="10.00">/UpdateGet.cpp</text>
</a>
</g>
</g>
<!-- Node9&#45;&gt;Node17 -->
<g id="edge18" class="edge">
<title>Node9&#45;&gt;Node17</title>
<path fill="none" stroke="midnightblue" d="M1423.79,-82.21C1368.6,-72.45 1284.06,-57.08 1211,-42 1208.24,-41.43 1205.43,-40.84 1202.59,-40.24"/>
<polygon fill="midnightblue" stroke="midnightblue" points="1423.29,-85.68 1433.75,-83.97 1424.51,-78.78 1423.29,-85.68"/>
</g>
<!-- Node18 -->
<g id="node18" class="node">
<title>Node18</title>
<g id="a_node18"><a xlink:href="../../d1/d97/UpdateHistory_8cpp.html" target="_top" xlink:title=" ">
<polygon fill="white" stroke="black" points="1220.5,-0.5 1220.5,-41.5 1379.5,-41.5 1379.5,-0.5 1220.5,-0.5"/>
<text text-anchor="start" x="1228.5" y="-29.5" font-family="Helvetica,sans-Serif" font-size="10.00">src/modules/websock</text>
<text text-anchor="start" x="1228.5" y="-18.5" font-family="Helvetica,sans-Serif" font-size="10.00">&#45;api/api/update&#45;management</text>
<text text-anchor="middle" x="1300" y="-7.5" font-family="Helvetica,sans-Serif" font-size="10.00">/UpdateHistory.cpp</text>
</a>
</g>
</g>
<!-- Node9&#45;&gt;Node18 -->
<g id="edge19" class="edge">
<title>Node9&#45;&gt;Node18</title>
<path fill="none" stroke="midnightblue" d="M1451.37,-80.31C1423.72,-69.66 1383.08,-54.01 1350.87,-41.6"/>
<polygon fill="midnightblue" stroke="midnightblue" points="1450.34,-83.67 1460.93,-84 1452.85,-77.14 1450.34,-83.67"/>
</g>
<!-- Node19&#45;&gt;Node4 -->
<g id="edge21" class="edge">
<title>Node19&#45;&gt;Node4</title>
<path fill="none" stroke="midnightblue" d="M3004.32,-91.91C2590.6,-89.31 1069.89,-77.43 857,-42 842.85,-39.65 827.5,-34.82 815.49,-30.5"/>
<polygon fill="midnightblue" stroke="midnightblue" points="3004.45,-95.41 3014.48,-91.97 3004.5,-88.41 3004.45,-95.41"/>
</g>
<!-- Node20 -->
<g id="node20" class="node">
<title>Node20</title>
<g id="a_node20"><a xlink:href="../../d2/dc0/Device_8cpp.html" target="_top" xlink:title=" ">
<polygon fill="white" stroke="black" points="3039.5,-11.5 3039.5,-30.5 3176.5,-30.5 3176.5,-11.5 3039.5,-11.5"/>
<text text-anchor="middle" x="3108" y="-18.5" font-family="Helvetica,sans-Serif" font-size="10.00">src/hardware/Device.cpp</text>
</a>
</g>
</g>
<!-- Node19&#45;&gt;Node20 -->
<g id="edge22" class="edge">
<title>Node19&#45;&gt;Node20</title>
<path fill="none" stroke="midnightblue" d="M3108,-73.44C3108,-59.53 3108,-41.32 3108,-30.72"/>
<polygon fill="midnightblue" stroke="midnightblue" points="3104.5,-73.86 3108,-83.86 3111.5,-73.86 3104.5,-73.86"/>
</g>
<!-- Node21 -->
<g id="node21" class="node">
<title>Node21</title>
<g id="a_node21"><a xlink:href="../../d9/dab/HardwareService_8cpp.html" target="_top" xlink:title=" ">
<polygon fill="white" stroke="black" points="3195,-11.5 3195,-30.5 3381,-30.5 3381,-11.5 3195,-11.5"/>
<text text-anchor="middle" x="3288" y="-18.5" font-family="Helvetica,sans-Serif" font-size="10.00">src/hardware/HardwareService.cpp</text>
</a>
</g>
</g>
<!-- Node19&#45;&gt;Node21 -->
<g id="edge23" class="edge">
<title>Node19&#45;&gt;Node21</title>
<path fill="none" stroke="midnightblue" d="M3139.31,-80.24C3175.63,-66.01 3234.54,-42.94 3266.21,-30.53"/>
<polygon fill="midnightblue" stroke="midnightblue" points="3137.75,-77.09 3129.71,-84 3140.3,-83.61 3137.75,-77.09"/>
</g>
<!-- Node22 -->
<g id="node22" class="node">
<title>Node22</title>
<g id="a_node22"><a xlink:href="../../d6/d24/BuzzerSerializer_8cpp.html" target="_top" xlink:title=" ">
<polygon fill="white" stroke="black" points="3399.5,-6 3399.5,-36 3532.5,-36 3532.5,-6 3399.5,-6"/>
<text text-anchor="start" x="3407.5" y="-24" font-family="Helvetica,sans-Serif" font-size="10.00">src/hardware/serializers</text>
<text text-anchor="middle" x="3466" y="-13" font-family="Helvetica,sans-Serif" font-size="10.00">/BuzzerSerializer.cpp</text>
</a>
</g>
</g>
<!-- Node19&#45;&gt;Node22 -->
<g id="edge24" class="edge">
<title>Node19&#45;&gt;Node22</title>
<path fill="none" stroke="midnightblue" d="M3173.13,-82.36C3230.47,-73.07 3316.12,-58.31 3390,-42 3398.13,-40.21 3406.7,-38.13 3415.04,-36.01"/>
<polygon fill="midnightblue" stroke="midnightblue" points="3172.43,-78.93 3163.11,-83.97 3173.54,-85.84 3172.43,-78.93"/>
</g>
<!-- Node23 -->
<g id="node23" class="node">
<title>Node23</title>
<g id="a_node23"><a xlink:href="../../d4/d68/LEDSerializer_8cpp.html" target="_top" xlink:title=" ">
<polygon fill="white" stroke="black" points="3550.5,-6 3550.5,-36 3683.5,-36 3683.5,-6 3550.5,-6"/>
<text text-anchor="start" x="3558.5" y="-24" font-family="Helvetica,sans-Serif" font-size="10.00">src/hardware/serializers</text>
<text text-anchor="middle" x="3617" y="-13" font-family="Helvetica,sans-Serif" font-size="10.00">/LEDSerializer.cpp</text>
</a>
</g>
</g>
<!-- Node19&#45;&gt;Node23 -->
<g id="edge25" class="edge">
<title>Node19&#45;&gt;Node23</title>
<path fill="none" stroke="midnightblue" d="M3211.74,-84.68C3300.07,-77.01 3430.07,-63.32 3542,-42 3550.6,-40.36 3559.67,-38.26 3568.42,-36.05"/>
<polygon fill="midnightblue" stroke="midnightblue" points="3211.38,-81.2 3201.72,-85.54 3211.98,-88.17 3211.38,-81.2"/>
</g>
<!-- Node24 -->
<g id="node24" class="node">
<title>Node24</title>
<g id="a_node24"><a xlink:href="../../d6/d18/MqttModule_8cpp.html" target="_top" xlink:title=" ">
<polygon fill="white" stroke="black" points="3702,-11.5 3702,-30.5 3886,-30.5 3886,-11.5 3702,-11.5"/>
<text text-anchor="middle" x="3794" y="-18.5" font-family="Helvetica,sans-Serif" font-size="10.00">src/modules/mqtt/MqttModule.cpp</text>
</a>
</g>
</g>
<!-- Node19&#45;&gt;Node24 -->
<g id="edge26" class="edge">
<title>Node19&#45;&gt;Node24</title>
<path fill="none" stroke="midnightblue" d="M3211.62,-86.99C3328.85,-79.96 3525.3,-65.77 3693,-42 3713.88,-39.04 3736.97,-34.56 3755.8,-30.59"/>
<polygon fill="midnightblue" stroke="midnightblue" points="3211.34,-83.5 3201.57,-87.59 3211.76,-90.49 3211.34,-83.5"/>
</g>
<!-- Node25 -->
<g id="node25" class="node">
<title>Node25</title>
<g id="a_node25"><a xlink:href="../../d6/d95/PFDigitalModule_8cpp.html" target="_top" xlink:title=" ">
<polygon fill="white" stroke="black" points="3904,-6 3904,-36 4044,-36 4044,-6 3904,-6"/>
<text text-anchor="start" x="3912" y="-24" font-family="Helvetica,sans-Serif" font-size="10.00">src/modules/pifacedigital</text>
<text text-anchor="middle" x="3974" y="-13" font-family="Helvetica,sans-Serif" font-size="10.00">/PFDigitalModule.cpp</text>
</a>
</g>
</g>
<!-- Node19&#45;&gt;Node25 -->
<g id="edge27" class="edge">
<title>Node19&#45;&gt;Node25</title>
<path fill="none" stroke="midnightblue" d="M3211.79,-91.9C3362.98,-89.65 3652.23,-80.19 3895,-42 3904.5,-40.51 3914.53,-38.39 3924.14,-36.1"/>
<polygon fill="midnightblue" stroke="midnightblue" points="3211.54,-88.4 3201.59,-92.04 3211.64,-95.4 3211.54,-88.4"/>
</g>
<!-- Node26 -->
<g id="node26" class="node">
<title>Node26</title>
<g id="a_node26"><a xlink:href="../../de/dc2/HardwareSearch_8cpp.html" target="_top" xlink:title=" ">
<polygon fill="white" stroke="black" points="2498,-6 2498,-36 2690,-36 2690,-6 2498,-6"/>
<text text-anchor="start" x="2506" y="-24" font-family="Helvetica,sans-Serif" font-size="10.00">src/modules/websock</text>
<text text-anchor="middle" x="2594" y="-13" font-family="Helvetica,sans-Serif" font-size="10.00">&#45;api/api/search/HardwareSearch.cpp</text>
</a>
</g>
</g>
<!-- Node19&#45;&gt;Node26 -->
<g id="edge28" class="edge">
<title>Node19&#45;&gt;Node26</title>
<path fill="none" stroke="midnightblue" d="M3015.75,-82.85C2932.69,-73.75 2807.39,-59 2699,-42 2687.73,-40.23 2675.81,-38.16 2664.21,-36.03"/>
<polygon fill="midnightblue" stroke="midnightblue" points="3015.59,-86.36 3025.91,-83.96 3016.35,-79.4 3015.59,-86.36"/>
</g>
<!-- Node27 -->
<g id="node27" class="node">
<title>Node27</title>
<g id="a_node27"><a xlink:href="../../d3/de8/wiegand_8cpp.html" target="_top" xlink:title=" ">
<polygon fill="white" stroke="black" points="2708,-6 2708,-36 2828,-36 2828,-6 2708,-6"/>
<text text-anchor="start" x="2716" y="-24" font-family="Helvetica,sans-Serif" font-size="10.00">src/modules/wiegand</text>
<text text-anchor="middle" x="2768" y="-13" font-family="Helvetica,sans-Serif" font-size="10.00">/wiegand.cpp</text>
</a>
</g>
</g>
<!-- Node19&#45;&gt;Node27 -->
<g id="edge29" class="edge">
<title>Node19&#45;&gt;Node27</title>
<path fill="none" stroke="midnightblue" d="M3043.7,-82.34C2988.56,-73.2 2907.14,-58.66 2837,-42 2829.6,-40.24 2821.81,-38.19 2814.23,-36.07"/>
<polygon fill="midnightblue" stroke="midnightblue" points="3043.25,-85.81 3053.68,-83.99 3044.39,-78.91 3043.25,-85.81"/>
</g>
<!-- Node28 -->
<g id="node28" class="node">
<title>Node28</title>
<g id="a_node28"><a xlink:href="../../d6/d48/WiegandConfigSerializer_8cpp.html" target="_top" xlink:title=" ">
<polygon fill="white" stroke="black" points="2846.5,-6 2846.5,-36 3021.5,-36 3021.5,-6 2846.5,-6"/>
<text text-anchor="start" x="2854.5" y="-24" font-family="Helvetica,sans-Serif" font-size="10.00">src/modules/wiegand</text>
<text text-anchor="middle" x="2934" y="-13" font-family="Helvetica,sans-Serif" font-size="10.00">/ws/WiegandConfigSerializer.cpp</text>
</a>
</g>
</g>
<!-- Node19&#45;&gt;Node28 -->
<g id="edge30" class="edge">
<title>Node19&#45;&gt;Node28</title>
<path fill="none" stroke="midnightblue" d="M3077.35,-80.08C3046.91,-67.75 3000.31,-48.87 2968.57,-36.01"/>
<polygon fill="midnightblue" stroke="midnightblue" points="3076.43,-83.48 3087.01,-84 3079.06,-77 3076.43,-83.48"/>
</g>
</g>
</svg>
