<?xml version="1.0" encoding="UTF-8" standalone="no"?>
<!DOCTYPE svg PUBLIC "-//W3C//DTD SVG 1.1//EN"
 "http://www.w3.org/Graphics/SVG/1.1/DTD/svg11.dtd">
<!-- Generated by graphviz version 2.43.0 (0)
 -->
<!-- Title: src/core/audit/serializers/UserGroupMembershipEventSerializer.cpp Pages: 1 -->
<!--zoomable 352 -->
<svg id="main" version="1.1" xmlns="http://www.w3.org/2000/svg" xmlns:xlink="http://www.w3.org/1999/xlink" xml:space="preserve" onload="init(evt)">
<style type="text/css"><![CDATA[
.edge:hover path { stroke: red; }
.edge:hover polygon { stroke: red; fill: red; }
]]></style>
<script type="text/javascript"><![CDATA[
var edges = document.getElementsByTagName('g');
if (edges && edges.length) {
  for (var i=0;i<edges.length;i++) {
    if (edges[i].id.substr(0,4)=='edge') {
      edges[i].setAttribute('class','edge');
    }
  }
}
]]></script>
        <defs>
                <circle id="rim" cx="0" cy="0" r="7"/>
                <circle id="rim2" cx="0" cy="0" r="3.5"/>
                <g id="zoomPlus">
                        <use xlink:href="#rim" fill="#404040">
                                <set attributeName="fill" to="#808080" begin="zoomplus.mouseover" end="zoomplus.mouseout"/>
                        </use>
                        <path d="M-4,0h8M0,-4v8" fill="none" stroke="white" stroke-width="1.5" pointer-events="none"/>
                </g>
                <g id="zoomMin">
                        <use xlink:href="#rim" fill="#404040">
                                <set attributeName="fill" to="#808080" begin="zoomminus.mouseover" end="zoomminus.mouseout"/>
                        </use>
                        <path d="M-4,0h8" fill="none" stroke="white" stroke-width="1.5" pointer-events="none"/>
                </g>
                <g id="dirArrow">
                        <path fill="none" stroke="white" stroke-width="1.5" d="M0,-3.0v7 M-2.5,-0.5L0,-3.0L2.5,-0.5"/>
                </g>
               <g id="resetDef">
                       <use xlink:href="#rim2" fill="#404040">
                               <set attributeName="fill" to="#808080" begin="reset.mouseover" end="reset.mouseout"/>
                       </use>
               </g>
        </defs>

<script type="text/javascript">
var viewWidth = 2087;
var viewHeight = 352;
var sectionId = 'dynsection-0';
</script>
<script xlink:href="../../svgpan.js"/>
<svg id="graph" class="graph">
<g id="viewport">
<title>src/core/audit/serializers/UserGroupMembershipEventSerializer.cpp</title>
<polygon fill="white" stroke="transparent" points="-4,4 -4,-348 2082.5,-348 2082.5,4 -4,4"/>
<!-- Node1 -->
<g id="node1" class="node">
<title>Node1</title>
<g id="a_node1"><a xlink:title=" ">
<polygon fill="#bfbfbf" stroke="black" points="1320,-313.5 1320,-343.5 1545,-343.5 1545,-313.5 1320,-313.5"/>
<text text-anchor="start" x="1328" y="-331.5" font-family="Helvetica,sans-Serif" font-size="10.00">src/core/audit/serializers</text>
<text text-anchor="middle" x="1432.5" y="-320.5" font-family="Helvetica,sans-Serif" font-size="10.00">/UserGroupMembershipEventSerializer.cpp</text>
</a>
</g>
</g>
<!-- Node2 -->
<g id="node2" class="node">
<title>Node2</title>
<g id="a_node2"><a xlink:href="../../de/dc4/UserGroupMembershipEventSerializer_8hpp.html" target="_top" xlink:title=" ">
<polygon fill="white" stroke="black" points="1354,-179.5 1354,-209.5 1511,-209.5 1511,-179.5 1354,-179.5"/>
<text text-anchor="start" x="1362" y="-197.5" font-family="Helvetica,sans-Serif" font-size="10.00">UserGroupMembershipEvent</text>
<text text-anchor="middle" x="1432.5" y="-186.5" font-family="Helvetica,sans-Serif" font-size="10.00">Serializer.hpp</text>
</a>
</g>
</g>
<!-- Node1&#45;&gt;Node2 -->
<g id="edge1" class="edge">
<title>Node1&#45;&gt;Node2</title>
<path fill="none" stroke="midnightblue" d="M1432.5,-313.37C1432.5,-291.04 1432.5,-247.31 1432.5,-219.85"/>
<polygon fill="midnightblue" stroke="midnightblue" points="1436,-219.52 1432.5,-209.52 1429,-219.52 1436,-219.52"/>
</g>
<!-- Node12 -->
<g id="node12" class="node">
<title>Node12</title>
<g id="a_node12"><a xlink:href="../../df/da3/AuditSerializer_8hpp.html" target="_top" xlink:title=" ">
<polygon fill="white" stroke="black" points="1529.5,-185 1529.5,-204 1637.5,-204 1637.5,-185 1529.5,-185"/>
<text text-anchor="middle" x="1583.5" y="-192" font-family="Helvetica,sans-Serif" font-size="10.00">AuditSerializer.hpp</text>
</a>
</g>
</g>
<!-- Node1&#45;&gt;Node12 -->
<g id="edge12" class="edge">
<title>Node1&#45;&gt;Node12</title>
<path fill="none" stroke="midnightblue" d="M1448.66,-313.37C1477.19,-288.43 1536.26,-236.8 1565.83,-210.95"/>
<polygon fill="midnightblue" stroke="midnightblue" points="1568.44,-213.31 1573.67,-204.1 1563.83,-208.04 1568.44,-213.31"/>
</g>
<!-- Node13 -->
<g id="node13" class="node">
<title>Node13</title>
<g id="a_node13"><a xlink:href="../../d1/d3e/SecurityContext_8hpp.html" target="_top" xlink:title=" ">
<polygon fill="white" stroke="black" points="666.5,-185 666.5,-204 806.5,-204 806.5,-185 666.5,-185"/>
<text text-anchor="middle" x="736.5" y="-192" font-family="Helvetica,sans-Serif" font-size="10.00">core/SecurityContext.hpp</text>
</a>
</g>
</g>
<!-- Node1&#45;&gt;Node13 -->
<g id="edge17" class="edge">
<title>Node1&#45;&gt;Node13</title>
<path fill="none" stroke="midnightblue" d="M1319.88,-323.2C1223.23,-317.69 1080.76,-305.19 959.5,-277 887.02,-260.15 805.87,-226.54 764.32,-208.18"/>
<polygon fill="midnightblue" stroke="midnightblue" points="765.67,-204.95 755.11,-204.08 762.82,-211.35 765.67,-204.95"/>
</g>
<!-- Node25 -->
<g id="node25" class="node">
<title>Node25</title>
<g id="a_node25"><a xlink:href="../../d5/dfd/IUserGroupMembershipEvent_8hpp.html" target="_top" xlink:title=" ">
<polygon fill="white" stroke="black" points="968.5,-246.5 968.5,-276.5 1152.5,-276.5 1152.5,-246.5 968.5,-246.5"/>
<text text-anchor="start" x="976.5" y="-264.5" font-family="Helvetica,sans-Serif" font-size="10.00">core/audit/IUserGroupMembership</text>
<text text-anchor="middle" x="1060.5" y="-253.5" font-family="Helvetica,sans-Serif" font-size="10.00">Event.hpp</text>
</a>
</g>
</g>
<!-- Node1&#45;&gt;Node25 -->
<g id="edge40" class="edge">
<title>Node1&#45;&gt;Node25</title>
<path fill="none" stroke="midnightblue" d="M1352.24,-313.48C1293.06,-303.14 1212.49,-289.06 1151.02,-278.32"/>
<polygon fill="midnightblue" stroke="midnightblue" points="1151.39,-274.83 1140.94,-276.55 1150.19,-281.72 1151.39,-274.83"/>
</g>
<!-- Node32 -->
<g id="node32" class="node">
<title>Node32</title>
<g id="a_node32"><a xlink:href="../../d4/d3d/log_8hpp.html" target="_top" xlink:title=" ">
<polygon fill="white" stroke="black" points="1748.5,-118 1748.5,-137 1828.5,-137 1828.5,-118 1748.5,-118"/>
<text text-anchor="middle" x="1788.5" y="-125" font-family="Helvetica,sans-Serif" font-size="10.00">tools/log.hpp</text>
</a>
</g>
</g>
<!-- Node1&#45;&gt;Node32 -->
<g id="edge51" class="edge">
<title>Node1&#45;&gt;Node32</title>
<path fill="none" stroke="midnightblue" d="M1458.61,-313.37C1499.01,-291.46 1579.05,-247.87 1646.5,-210 1688.36,-186.5 1736.8,-158.53 1764.91,-142.22"/>
<polygon fill="midnightblue" stroke="midnightblue" points="1766.74,-145.21 1773.63,-137.16 1763.22,-139.15 1766.74,-145.21"/>
</g>
<!-- Node3 -->
<g id="node3" class="node">
<title>Node3</title>
<g id="a_node3"><a xlink:href="../../dc/d49/LeosacFwd_8hpp.html" target="_top" xlink:title=" ">
<polygon fill="white" stroke="black" points="1460.5,-118 1460.5,-137 1552.5,-137 1552.5,-118 1460.5,-118"/>
<text text-anchor="middle" x="1506.5" y="-125" font-family="Helvetica,sans-Serif" font-size="10.00">LeosacFwd.hpp</text>
</a>
</g>
</g>
<!-- Node2&#45;&gt;Node3 -->
<g id="edge2" class="edge">
<title>Node2&#45;&gt;Node3</title>
<path fill="none" stroke="midnightblue" d="M1448.56,-179.4C1460.44,-168.96 1476.61,-154.75 1488.86,-144"/>
<polygon fill="midnightblue" stroke="midnightblue" points="1491.4,-146.42 1496.6,-137.19 1486.78,-141.16 1491.4,-146.42"/>
</g>
<!-- Node6 -->
<g id="node6" class="node">
<title>Node6</title>
<g id="a_node6"><a xlink:href="../../d7/dcf/AuditFwd_8hpp.html" target="_top" xlink:title=" ">
<polygon fill="white" stroke="black" points="1141,-118 1141,-137 1276,-137 1276,-118 1141,-118"/>
<text text-anchor="middle" x="1208.5" y="-125" font-family="Helvetica,sans-Serif" font-size="10.00">core/audit/AuditFwd.hpp</text>
</a>
</g>
</g>
<!-- Node2&#45;&gt;Node6 -->
<g id="edge5" class="edge">
<title>Node2&#45;&gt;Node6</title>
<path fill="none" stroke="midnightblue" d="M1384.17,-179.48C1343.32,-167.62 1285.55,-150.86 1247.57,-139.84"/>
<polygon fill="midnightblue" stroke="midnightblue" points="1248.47,-136.45 1237.89,-137.03 1246.52,-143.18 1248.47,-136.45"/>
</g>
<!-- Node10 -->
<g id="node10" class="node">
<title>Node10</title>
<g id="a_node10"><a xlink:title=" ">
<polygon fill="white" stroke="#bfbfbf" points="1570.5,-118 1570.5,-137 1680.5,-137 1680.5,-118 1570.5,-118"/>
<text text-anchor="middle" x="1625.5" y="-125" font-family="Helvetica,sans-Serif" font-size="10.00">nlohmann/json.hpp</text>
</a>
</g>
</g>
<!-- Node2&#45;&gt;Node10 -->
<g id="edge10" class="edge">
<title>Node2&#45;&gt;Node10</title>
<path fill="none" stroke="midnightblue" d="M1474.38,-179.4C1509.14,-167.69 1558.01,-151.23 1590.66,-140.23"/>
<polygon fill="midnightblue" stroke="midnightblue" points="1591.88,-143.52 1600.24,-137.01 1589.65,-136.88 1591.88,-143.52"/>
</g>
<!-- Node11 -->
<g id="node11" class="node">
<title>Node11</title>
<g id="a_node11"><a xlink:title=" ">
<polygon fill="white" stroke="#bfbfbf" points="1542.5,-0.5 1542.5,-19.5 1586.5,-19.5 1586.5,-0.5 1542.5,-0.5"/>
<text text-anchor="middle" x="1564.5" y="-7.5" font-family="Helvetica,sans-Serif" font-size="10.00">string</text>
</a>
</g>
</g>
<!-- Node2&#45;&gt;Node11 -->
<g id="edge11" class="edge">
<title>Node2&#45;&gt;Node11</title>
<path fill="none" stroke="midnightblue" d="M1432.9,-179.46C1434.42,-152.15 1441.55,-91.48 1474.5,-56 1490.19,-39.1 1513.63,-27.67 1532.65,-20.55"/>
<polygon fill="midnightblue" stroke="midnightblue" points="1533.86,-23.84 1542.13,-17.22 1531.54,-17.24 1533.86,-23.84"/>
</g>
<!-- Node4 -->
<g id="node4" class="node">
<title>Node4</title>
<g id="a_node4"><a xlink:title=" ">
<polygon fill="white" stroke="#bfbfbf" points="777.5,-56.5 777.5,-75.5 835.5,-75.5 835.5,-56.5 777.5,-56.5"/>
<text text-anchor="middle" x="806.5" y="-63.5" font-family="Helvetica,sans-Serif" font-size="10.00">memory</text>
</a>
</g>
</g>
<!-- Node3&#45;&gt;Node4 -->
<g id="edge3" class="edge">
<title>Node3&#45;&gt;Node4</title>
<path fill="none" stroke="midnightblue" d="M1460.24,-118.53C1445.35,-116.17 1428.76,-113.75 1413.5,-112 1302.79,-99.29 962.48,-76.98 846.05,-69.51"/>
<polygon fill="midnightblue" stroke="midnightblue" points="846.01,-66 835.81,-68.86 845.57,-72.99 846.01,-66"/>
</g>
<!-- Node5 -->
<g id="node5" class="node">
<title>Node5</title>
<g id="a_node5"><a xlink:title=" ">
<polygon fill="white" stroke="#bfbfbf" points="1483,-56.5 1483,-75.5 1530,-75.5 1530,-56.5 1483,-56.5"/>
<text text-anchor="middle" x="1506.5" y="-63.5" font-family="Helvetica,sans-Serif" font-size="10.00">vector</text>
</a>
</g>
</g>
<!-- Node3&#45;&gt;Node5 -->
<g id="edge4" class="edge">
<title>Node3&#45;&gt;Node5</title>
<path fill="none" stroke="midnightblue" d="M1506.5,-117.98C1506.5,-109.58 1506.5,-96.48 1506.5,-85.66"/>
<polygon fill="midnightblue" stroke="midnightblue" points="1510,-85.51 1506.5,-75.51 1503,-85.51 1510,-85.51"/>
</g>
<!-- Node6&#45;&gt;Node4 -->
<g id="edge8" class="edge">
<title>Node6&#45;&gt;Node4</title>
<path fill="none" stroke="midnightblue" d="M1165.96,-117.98C1155.07,-115.92 1143.37,-113.79 1132.5,-112 1029.37,-95.06 907.18,-79.35 845.82,-71.77"/>
<polygon fill="midnightblue" stroke="midnightblue" points="846.15,-68.28 835.8,-70.53 845.3,-75.23 846.15,-68.28"/>
</g>
<!-- Node7 -->
<g id="node7" class="node">
<title>Node7</title>
<g id="a_node7"><a xlink:title=" ">
<polygon fill="white" stroke="#bfbfbf" points="976,-56.5 976,-75.5 1029,-75.5 1029,-56.5 976,-56.5"/>
<text text-anchor="middle" x="1002.5" y="-63.5" font-family="Helvetica,sans-Serif" font-size="10.00">cstddef</text>
</a>
</g>
</g>
<!-- Node6&#45;&gt;Node7 -->
<g id="edge6" class="edge">
<title>Node6&#45;&gt;Node7</title>
<path fill="none" stroke="midnightblue" d="M1178.99,-117.98C1142.04,-107.3 1078.77,-89.03 1038.87,-77.51"/>
<polygon fill="midnightblue" stroke="midnightblue" points="1039.6,-74.07 1029.02,-74.66 1037.65,-80.8 1039.6,-74.07"/>
</g>
<!-- Node8 -->
<g id="node8" class="node">
<title>Node8</title>
<g id="a_node8"><a xlink:title=" ">
<polygon fill="white" stroke="#bfbfbf" points="1173,-56.5 1173,-75.5 1244,-75.5 1244,-56.5 1173,-56.5"/>
<text text-anchor="middle" x="1208.5" y="-63.5" font-family="Helvetica,sans-Serif" font-size="10.00">flagset.hpp</text>
</a>
</g>
</g>
<!-- Node6&#45;&gt;Node8 -->
<g id="edge7" class="edge">
<title>Node6&#45;&gt;Node8</title>
<path fill="none" stroke="midnightblue" d="M1208.5,-117.98C1208.5,-109.58 1208.5,-96.48 1208.5,-85.66"/>
<polygon fill="midnightblue" stroke="midnightblue" points="1212,-85.51 1208.5,-75.51 1205,-85.51 1212,-85.51"/>
</g>
<!-- Node9 -->
<g id="node9" class="node">
<title>Node9</title>
<g id="a_node9"><a xlink:title=" ">
<polygon fill="white" stroke="#bfbfbf" points="567,-56.5 567,-75.5 662,-75.5 662,-56.5 567,-56.5"/>
<text text-anchor="middle" x="614.5" y="-63.5" font-family="Helvetica,sans-Serif" font-size="10.00">odb/lazy&#45;ptr.hxx</text>
</a>
</g>
</g>
<!-- Node6&#45;&gt;Node9 -->
<g id="edge9" class="edge">
<title>Node6&#45;&gt;Node9</title>
<path fill="none" stroke="midnightblue" d="M1168,-117.98C1156.56,-115.79 1144.08,-113.6 1132.5,-112 966.21,-88.97 768.15,-75.65 672.25,-70.09"/>
<polygon fill="midnightblue" stroke="midnightblue" points="672.36,-66.59 662.17,-69.51 671.96,-73.58 672.36,-66.59"/>
</g>
<!-- Node12&#45;&gt;Node3 -->
<g id="edge13" class="edge">
<title>Node12&#45;&gt;Node3</title>
<path fill="none" stroke="midnightblue" d="M1573.12,-184.73C1560.65,-174.21 1539.53,-156.38 1524.41,-143.62"/>
<polygon fill="midnightblue" stroke="midnightblue" points="1526.62,-140.9 1516.72,-137.13 1522.1,-146.25 1526.62,-140.9"/>
</g>
<!-- Node12&#45;&gt;Node6 -->
<g id="edge14" class="edge">
<title>Node12&#45;&gt;Node6</title>
<path fill="none" stroke="midnightblue" d="M1548.61,-184.98C1539.49,-182.89 1529.65,-180.75 1520.5,-179 1416.72,-159.14 1389.66,-160.78 1285.5,-143 1278.04,-141.73 1270.19,-140.32 1262.46,-138.9"/>
<polygon fill="midnightblue" stroke="midnightblue" points="1262.9,-135.42 1252.43,-137.04 1261.62,-142.31 1262.9,-135.42"/>
</g>
<!-- Node12&#45;&gt;Node10 -->
<g id="edge15" class="edge">
<title>Node12&#45;&gt;Node10</title>
<path fill="none" stroke="midnightblue" d="M1589.16,-184.73C1595.59,-174.79 1606.22,-158.34 1614.33,-145.79"/>
<polygon fill="midnightblue" stroke="midnightblue" points="1617.44,-147.43 1619.93,-137.13 1611.56,-143.63 1617.44,-147.43"/>
</g>
<!-- Node12&#45;&gt;Node11 -->
<g id="edge16" class="edge">
<title>Node12&#45;&gt;Node11</title>
<path fill="none" stroke="midnightblue" d="M1625.52,-184.96C1648.66,-177.89 1675.46,-165.24 1689.5,-143 1696.85,-131.35 1693.7,-125.12 1689.5,-112 1680.17,-82.87 1672.52,-76.14 1649.5,-56 1633.85,-42.31 1613.3,-31.29 1596.34,-23.58"/>
<polygon fill="midnightblue" stroke="midnightblue" points="1597.39,-20.22 1586.82,-19.43 1594.59,-26.63 1597.39,-20.22"/>
</g>
<!-- Node13&#45;&gt;Node6 -->
<g id="edge18" class="edge">
<title>Node13&#45;&gt;Node6</title>
<path fill="none" stroke="midnightblue" d="M806.79,-185.86C886.1,-176.94 1018.88,-161.07 1132.5,-143 1140.24,-141.77 1148.4,-140.35 1156.39,-138.88"/>
<polygon fill="midnightblue" stroke="midnightblue" points="1157.18,-142.29 1166.37,-137.02 1155.9,-135.41 1157.18,-142.29"/>
</g>
<!-- Node14 -->
<g id="node14" class="node">
<title>Node14</title>
<g id="a_node14"><a xlink:href="../../d3/d6f/AuthFwd_8hpp.html" target="_top" xlink:title=" ">
<polygon fill="white" stroke="black" points="812,-118 812,-137 941,-137 941,-118 812,-118"/>
<text text-anchor="middle" x="876.5" y="-125" font-family="Helvetica,sans-Serif" font-size="10.00">core/auth/AuthFwd.hpp</text>
</a>
</g>
</g>
<!-- Node13&#45;&gt;Node14 -->
<g id="edge19" class="edge">
<title>Node13&#45;&gt;Node14</title>
<path fill="none" stroke="midnightblue" d="M755.09,-184.87C779.04,-173.75 820.89,-154.32 848.65,-141.43"/>
<polygon fill="midnightblue" stroke="midnightblue" points="850.24,-144.55 857.83,-137.17 847.29,-138.2 850.24,-144.55"/>
</g>
<!-- Node15 -->
<g id="node15" class="node">
<title>Node15</title>
<g id="a_node15"><a xlink:href="../../d7/d7f/CredentialFwd_8hpp.html" target="_top" xlink:title=" ">
<polygon fill="white" stroke="black" points="513.5,-112.5 513.5,-142.5 661.5,-142.5 661.5,-112.5 513.5,-112.5"/>
<text text-anchor="start" x="521.5" y="-130.5" font-family="Helvetica,sans-Serif" font-size="10.00">core/credentials/Credential</text>
<text text-anchor="middle" x="587.5" y="-119.5" font-family="Helvetica,sans-Serif" font-size="10.00">Fwd.hpp</text>
</a>
</g>
</g>
<!-- Node13&#45;&gt;Node15 -->
<g id="edge23" class="edge">
<title>Node13&#45;&gt;Node15</title>
<path fill="none" stroke="midnightblue" d="M716.71,-184.87C694.45,-175.16 657.67,-159.11 629.02,-146.61"/>
<polygon fill="midnightblue" stroke="midnightblue" points="630.22,-143.32 619.66,-142.53 627.42,-149.73 630.22,-143.32"/>
</g>
<!-- Node16 -->
<g id="node16" class="node">
<title>Node16</title>
<g id="a_node16"><a xlink:href="../../d9/dc8/HardwareFwd_8hpp.html" target="_top" xlink:title=" ">
<polygon fill="white" stroke="black" points="213.5,-118 213.5,-137 367.5,-137 367.5,-118 213.5,-118"/>
<text text-anchor="middle" x="290.5" y="-125" font-family="Helvetica,sans-Serif" font-size="10.00">hardware/HardwareFwd.hpp</text>
</a>
</g>
</g>
<!-- Node13&#45;&gt;Node16 -->
<g id="edge26" class="edge">
<title>Node13&#45;&gt;Node16</title>
<path fill="none" stroke="midnightblue" d="M671.71,-184.96C599.58,-175.33 479.57,-158.92 376.5,-143 367.8,-141.66 358.62,-140.18 349.62,-138.69"/>
<polygon fill="midnightblue" stroke="midnightblue" points="350.02,-135.21 339.58,-137.02 348.87,-142.11 350.02,-135.21"/>
</g>
<!-- Node23 -->
<g id="node23" class="node">
<title>Node23</title>
<g id="a_node23"><a xlink:href="../../d8/d97/ToolsFwd_8hpp.html" target="_top" xlink:title=" ">
<polygon fill="white" stroke="black" points="385.5,-118 385.5,-137 495.5,-137 495.5,-118 385.5,-118"/>
<text text-anchor="middle" x="440.5" y="-125" font-family="Helvetica,sans-Serif" font-size="10.00">tools/ToolsFwd.hpp</text>
</a>
</g>
</g>
<!-- Node13&#45;&gt;Node23 -->
<g id="edge35" class="edge">
<title>Node13&#45;&gt;Node23</title>
<path fill="none" stroke="midnightblue" d="M696.66,-184.93C650.42,-174.97 571.9,-157.97 504.5,-143 499.15,-141.81 493.55,-140.56 487.98,-139.3"/>
<polygon fill="midnightblue" stroke="midnightblue" points="488.58,-135.85 478.05,-137.06 487.04,-142.68 488.58,-135.85"/>
</g>
<!-- Node24 -->
<g id="node24" class="node">
<title>Node24</title>
<g id="a_node24"><a xlink:href="../../d9/d69/db__fwd_8hpp.html" target="_top" xlink:title=" ">
<polygon fill="white" stroke="black" points="679.5,-118 679.5,-137 793.5,-137 793.5,-118 679.5,-118"/>
<text text-anchor="middle" x="736.5" y="-125" font-family="Helvetica,sans-Serif" font-size="10.00">tools/db/db_fwd.hpp</text>
</a>
</g>
</g>
<!-- Node13&#45;&gt;Node24 -->
<g id="edge38" class="edge">
<title>Node13&#45;&gt;Node24</title>
<path fill="none" stroke="midnightblue" d="M736.5,-184.73C736.5,-175.18 736.5,-159.62 736.5,-147.28"/>
<polygon fill="midnightblue" stroke="midnightblue" points="740,-147.13 736.5,-137.13 733,-147.13 740,-147.13"/>
</g>
<!-- Node14&#45;&gt;Node4 -->
<g id="edge21" class="edge">
<title>Node14&#45;&gt;Node4</title>
<path fill="none" stroke="midnightblue" d="M866.47,-117.98C855.45,-108.61 837.54,-93.38 824.16,-82.01"/>
<polygon fill="midnightblue" stroke="midnightblue" points="826.4,-79.32 816.51,-75.51 821.86,-84.65 826.4,-79.32"/>
</g>
<!-- Node14&#45;&gt;Node7 -->
<g id="edge20" class="edge">
<title>Node14&#45;&gt;Node7</title>
<path fill="none" stroke="midnightblue" d="M894.55,-117.98C915.7,-107.99 950.94,-91.35 975.38,-79.81"/>
<polygon fill="midnightblue" stroke="midnightblue" points="976.93,-82.94 984.48,-75.51 973.94,-76.61 976.93,-82.94"/>
</g>
<!-- Node14&#45;&gt;Node9 -->
<g id="edge22" class="edge">
<title>Node14&#45;&gt;Node9</title>
<path fill="none" stroke="midnightblue" d="M838.96,-117.98C792.27,-107.37 712.52,-89.26 661.72,-77.72"/>
<polygon fill="midnightblue" stroke="midnightblue" points="662.5,-74.31 651.97,-75.51 660.95,-81.14 662.5,-74.31"/>
</g>
<!-- Node15&#45;&gt;Node4 -->
<g id="edge24" class="edge">
<title>Node15&#45;&gt;Node4</title>
<path fill="none" stroke="midnightblue" d="M639.12,-112.47C678.37,-101.81 731.54,-87.37 767.33,-77.64"/>
<polygon fill="midnightblue" stroke="midnightblue" points="768.66,-80.91 777.39,-74.91 766.82,-74.15 768.66,-80.91"/>
</g>
<!-- Node15&#45;&gt;Node9 -->
<g id="edge25" class="edge">
<title>Node15&#45;&gt;Node9</title>
<path fill="none" stroke="midnightblue" d="M593.9,-112.4C597.62,-104.2 602.35,-93.78 606.33,-84.99"/>
<polygon fill="midnightblue" stroke="midnightblue" points="609.63,-86.21 610.57,-75.66 603.25,-83.32 609.63,-86.21"/>
</g>
<!-- Node16&#45;&gt;Node4 -->
<g id="edge34" class="edge">
<title>Node16&#45;&gt;Node4</title>
<path fill="none" stroke="midnightblue" d="M337.73,-117.99C350.31,-115.87 363.9,-113.72 376.5,-112 520.16,-92.39 691.84,-76.75 767.46,-70.26"/>
<polygon fill="midnightblue" stroke="midnightblue" points="767.82,-73.74 777.48,-69.4 767.22,-66.77 767.82,-73.74"/>
</g>
<!-- Node17 -->
<g id="node17" class="node">
<title>Node17</title>
<g id="a_node17"><a xlink:href="../../dc/dea/Uuid_8hpp.html" target="_top" xlink:title=" ">
<polygon fill="white" stroke="black" points="355,-56.5 355,-75.5 442,-75.5 442,-56.5 355,-56.5"/>
<text text-anchor="middle" x="398.5" y="-63.5" font-family="Helvetica,sans-Serif" font-size="10.00">tools/Uuid.hpp</text>
</a>
</g>
</g>
<!-- Node16&#45;&gt;Node17 -->
<g id="edge27" class="edge">
<title>Node16&#45;&gt;Node17</title>
<path fill="none" stroke="midnightblue" d="M305.97,-117.98C323.78,-108.17 353.24,-91.93 374.13,-80.42"/>
<polygon fill="midnightblue" stroke="midnightblue" points="375.99,-83.4 383.05,-75.51 372.61,-77.27 375.99,-83.4"/>
</g>
<!-- Node17&#45;&gt;Node11 -->
<g id="edge33" class="edge">
<title>Node17&#45;&gt;Node11</title>
<path fill="none" stroke="midnightblue" d="M442.02,-62.38C473.97,-60.49 518.43,-57.95 557.5,-56 928.94,-37.49 1022.03,-37.77 1393.5,-20 1441.73,-17.69 1497.59,-14.69 1531.99,-12.8"/>
<polygon fill="midnightblue" stroke="midnightblue" points="1532.58,-16.28 1542.37,-12.23 1532.19,-9.29 1532.58,-16.28"/>
</g>
<!-- Node18 -->
<g id="node18" class="node">
<title>Node18</title>
<g id="a_node18"><a xlink:title=" ">
<polygon fill="white" stroke="#bfbfbf" points="0,-0.5 0,-19.5 125,-19.5 125,-0.5 0,-0.5"/>
<text text-anchor="middle" x="62.5" y="-7.5" font-family="Helvetica,sans-Serif" font-size="10.00">boost/lexical_cast.hpp</text>
</a>
</g>
</g>
<!-- Node17&#45;&gt;Node18 -->
<g id="edge28" class="edge">
<title>Node17&#45;&gt;Node18</title>
<path fill="none" stroke="midnightblue" d="M354.92,-58C296.48,-48.6 192.35,-31.87 125.41,-21.11"/>
<polygon fill="midnightblue" stroke="midnightblue" points="125.84,-17.63 115.41,-19.5 124.73,-24.55 125.84,-17.63"/>
</g>
<!-- Node19 -->
<g id="node19" class="node">
<title>Node19</title>
<g id="a_node19"><a xlink:title=" ">
<polygon fill="white" stroke="#bfbfbf" points="143,-0.5 143,-19.5 324,-19.5 324,-0.5 143,-0.5"/>
<text text-anchor="middle" x="233.5" y="-7.5" font-family="Helvetica,sans-Serif" font-size="10.00">boost/uuid/random_generator.hpp</text>
</a>
</g>
</g>
<!-- Node17&#45;&gt;Node19 -->
<g id="edge29" class="edge">
<title>Node17&#45;&gt;Node19</title>
<path fill="none" stroke="midnightblue" d="M372.36,-56.44C344.48,-47.32 300.15,-32.81 269.1,-22.65"/>
<polygon fill="midnightblue" stroke="midnightblue" points="270.12,-19.3 259.52,-19.52 267.94,-25.95 270.12,-19.3"/>
</g>
<!-- Node20 -->
<g id="node20" class="node">
<title>Node20</title>
<g id="a_node20"><a xlink:title=" ">
<polygon fill="white" stroke="#bfbfbf" points="342,-0.5 342,-19.5 455,-19.5 455,-0.5 342,-0.5"/>
<text text-anchor="middle" x="398.5" y="-7.5" font-family="Helvetica,sans-Serif" font-size="10.00">boost/uuid/uuid.hpp</text>
</a>
</g>
</g>
<!-- Node17&#45;&gt;Node20 -->
<g id="edge30" class="edge">
<title>Node17&#45;&gt;Node20</title>
<path fill="none" stroke="midnightblue" d="M398.5,-56.08C398.5,-49.01 398.5,-38.86 398.5,-29.99"/>
<polygon fill="midnightblue" stroke="midnightblue" points="402,-29.75 398.5,-19.75 395,-29.75 402,-29.75"/>
</g>
<!-- Node21 -->
<g id="node21" class="node">
<title>Node21</title>
<g id="a_node21"><a xlink:title=" ">
<polygon fill="white" stroke="#bfbfbf" points="473,-0.5 473,-19.5 600,-19.5 600,-0.5 473,-0.5"/>
<text text-anchor="middle" x="536.5" y="-7.5" font-family="Helvetica,sans-Serif" font-size="10.00">boost/uuid/uuid_io.hpp</text>
</a>
</g>
</g>
<!-- Node17&#45;&gt;Node21 -->
<g id="edge31" class="edge">
<title>Node17&#45;&gt;Node21</title>
<path fill="none" stroke="midnightblue" d="M420.37,-56.44C443.28,-47.48 479.48,-33.31 505.37,-23.18"/>
<polygon fill="midnightblue" stroke="midnightblue" points="506.7,-26.42 514.74,-19.52 504.15,-19.9 506.7,-26.42"/>
</g>
<!-- Node22 -->
<g id="node22" class="node">
<title>Node22</title>
<g id="a_node22"><a xlink:title=" ">
<polygon fill="white" stroke="#bfbfbf" points="618.5,-0.5 618.5,-19.5 698.5,-19.5 698.5,-0.5 618.5,-0.5"/>
<text text-anchor="middle" x="658.5" y="-7.5" font-family="Helvetica,sans-Serif" font-size="10.00">odb/core.hxx</text>
</a>
</g>
</g>
<!-- Node17&#45;&gt;Node22 -->
<g id="edge32" class="edge">
<title>Node17&#45;&gt;Node22</title>
<path fill="none" stroke="midnightblue" d="M439.7,-56.44C485.42,-46.95 559.2,-31.62 608.27,-21.43"/>
<polygon fill="midnightblue" stroke="midnightblue" points="609.27,-24.8 618.35,-19.34 607.85,-17.95 609.27,-24.8"/>
</g>
<!-- Node23&#45;&gt;Node4 -->
<g id="edge36" class="edge">
<title>Node23&#45;&gt;Node4</title>
<path fill="none" stroke="midnightblue" d="M475.95,-117.97C485.21,-115.88 495.21,-113.74 504.5,-112 598.18,-94.43 709.25,-79.34 767.07,-71.92"/>
<polygon fill="midnightblue" stroke="midnightblue" points="767.75,-75.36 777.22,-70.62 766.86,-68.42 767.75,-75.36"/>
</g>
<!-- Node23&#45;&gt;Node9 -->
<g id="edge37" class="edge">
<title>Node23&#45;&gt;Node9</title>
<path fill="none" stroke="midnightblue" d="M465.43,-117.98C495.54,-107.68 546.33,-90.31 580.14,-78.75"/>
<polygon fill="midnightblue" stroke="midnightblue" points="581.29,-82.06 589.62,-75.51 579.02,-75.43 581.29,-82.06"/>
</g>
<!-- Node24&#45;&gt;Node4 -->
<g id="edge39" class="edge">
<title>Node24&#45;&gt;Node4</title>
<path fill="none" stroke="midnightblue" d="M746.53,-117.98C757.55,-108.61 775.46,-93.38 788.84,-82.01"/>
<polygon fill="midnightblue" stroke="midnightblue" points="791.14,-84.65 796.49,-75.51 786.6,-79.32 791.14,-84.65"/>
</g>
<!-- Node25&#45;&gt;Node14 -->
<g id="edge50" class="edge">
<title>Node25&#45;&gt;Node14</title>
<path fill="none" stroke="midnightblue" d="M1040.81,-246.37C1005.6,-221.11 932.21,-168.46 896.66,-142.96"/>
<polygon fill="midnightblue" stroke="midnightblue" points="898.65,-140.08 888.48,-137.1 894.57,-145.77 898.65,-140.08"/>
</g>
<!-- Node26 -->
<g id="node26" class="node">
<title>Node26</title>
<g id="a_node26"><a xlink:href="../../d3/dd8/IAuditEntry_8hpp.html" target="_top" xlink:title=" ">
<polygon fill="white" stroke="black" points="1015.5,-185 1015.5,-204 1105.5,-204 1105.5,-185 1015.5,-185"/>
<text text-anchor="middle" x="1060.5" y="-192" font-family="Helvetica,sans-Serif" font-size="10.00">IAuditEntry.hpp</text>
</a>
</g>
</g>
<!-- Node25&#45;&gt;Node26 -->
<g id="edge41" class="edge">
<title>Node25&#45;&gt;Node26</title>
<path fill="none" stroke="midnightblue" d="M1060.5,-246.4C1060.5,-237.06 1060.5,-224.71 1060.5,-214.52"/>
<polygon fill="midnightblue" stroke="midnightblue" points="1064,-214.19 1060.5,-204.19 1057,-214.19 1064,-214.19"/>
</g>
<!-- Node26&#45;&gt;Node4 -->
<g id="edge49" class="edge">
<title>Node26&#45;&gt;Node4</title>
<path fill="none" stroke="midnightblue" d="M1048.04,-184.94C1033.75,-175.05 1009.69,-158.19 989.5,-143 971.81,-129.69 970.07,-122.37 950.5,-112 917.06,-94.28 875.51,-82.23 845.64,-75.09"/>
<polygon fill="midnightblue" stroke="midnightblue" points="846.13,-71.61 835.6,-72.77 844.55,-78.43 846.13,-71.61"/>
</g>
<!-- Node26&#45;&gt;Node6 -->
<g id="edge42" class="edge">
<title>Node26&#45;&gt;Node6</title>
<path fill="none" stroke="midnightblue" d="M1080.15,-184.87C1105.59,-173.7 1150.1,-154.15 1179.45,-141.26"/>
<polygon fill="midnightblue" stroke="midnightblue" points="1181.02,-144.39 1188.77,-137.17 1178.2,-137.98 1181.02,-144.39"/>
</g>
<!-- Node26&#45;&gt;Node14 -->
<g id="edge43" class="edge">
<title>Node26&#45;&gt;Node14</title>
<path fill="none" stroke="midnightblue" d="M1036.07,-184.87C1003.81,-173.47 946.85,-153.35 910.43,-140.49"/>
<polygon fill="midnightblue" stroke="midnightblue" points="911.34,-137.09 900.74,-137.06 909,-143.69 911.34,-137.09"/>
</g>
<!-- Node27 -->
<g id="node27" class="node">
<title>Node27</title>
<g id="a_node27"><a xlink:href="../../dd/d9d/IVisitable_8hpp.html" target="_top" xlink:title=" ">
<polygon fill="white" stroke="black" points="1294.5,-118 1294.5,-137 1404.5,-137 1404.5,-118 1294.5,-118"/>
<text text-anchor="middle" x="1349.5" y="-125" font-family="Helvetica,sans-Serif" font-size="10.00">tools/IVisitable.hpp</text>
</a>
</g>
</g>
<!-- Node26&#45;&gt;Node27 -->
<g id="edge44" class="edge">
<title>Node26&#45;&gt;Node27</title>
<path fill="none" stroke="midnightblue" d="M1098.72,-184.95C1143.49,-174.92 1219.89,-157.8 1285.5,-143 1290.85,-141.79 1296.45,-140.53 1302.01,-139.27"/>
<polygon fill="midnightblue" stroke="midnightblue" points="1302.96,-142.64 1311.94,-137.02 1301.41,-135.82 1302.96,-142.64"/>
</g>
<!-- Node31 -->
<g id="node31" class="node">
<title>Node31</title>
<g id="a_node31"><a xlink:title=" ">
<polygon fill="white" stroke="#bfbfbf" points="998,-112.5 998,-142.5 1123,-142.5 1123,-112.5 998,-112.5"/>
<text text-anchor="start" x="1006" y="-130.5" font-family="Helvetica,sans-Serif" font-size="10.00">boost/date_time/posix</text>
<text text-anchor="middle" x="1060.5" y="-119.5" font-family="Helvetica,sans-Serif" font-size="10.00">_time/posix_time.hpp</text>
</a>
</g>
</g>
<!-- Node26&#45;&gt;Node31 -->
<g id="edge48" class="edge">
<title>Node26&#45;&gt;Node31</title>
<path fill="none" stroke="midnightblue" d="M1060.5,-184.73C1060.5,-176.54 1060.5,-163.92 1060.5,-152.71"/>
<polygon fill="midnightblue" stroke="midnightblue" points="1064,-152.59 1060.5,-142.59 1057,-152.59 1064,-152.59"/>
</g>
<!-- Node28 -->
<g id="node28" class="node">
<title>Node28</title>
<g id="a_node28"><a xlink:href="../../d2/d91/Visitor_8hpp.html" target="_top" xlink:title=" ">
<polygon fill="white" stroke="black" points="1302,-56.5 1302,-75.5 1397,-75.5 1397,-56.5 1302,-56.5"/>
<text text-anchor="middle" x="1349.5" y="-63.5" font-family="Helvetica,sans-Serif" font-size="10.00">tools/Visitor.hpp</text>
</a>
</g>
</g>
<!-- Node27&#45;&gt;Node28 -->
<g id="edge45" class="edge">
<title>Node27&#45;&gt;Node28</title>
<path fill="none" stroke="midnightblue" d="M1349.5,-117.98C1349.5,-109.58 1349.5,-96.48 1349.5,-85.66"/>
<polygon fill="midnightblue" stroke="midnightblue" points="1353,-85.51 1349.5,-75.51 1346,-85.51 1353,-85.51"/>
</g>
<!-- Node30 -->
<g id="node30" class="node">
<title>Node30</title>
<g id="a_node30"><a xlink:title=" ">
<polygon fill="white" stroke="#bfbfbf" points="1588.5,-56.5 1588.5,-75.5 1640.5,-75.5 1640.5,-56.5 1588.5,-56.5"/>
<text text-anchor="middle" x="1614.5" y="-63.5" font-family="Helvetica,sans-Serif" font-size="10.00">cassert</text>
</a>
</g>
</g>
<!-- Node27&#45;&gt;Node30 -->
<g id="edge47" class="edge">
<title>Node27&#45;&gt;Node30</title>
<path fill="none" stroke="midnightblue" d="M1387.47,-117.98C1438.37,-106.55 1528.12,-86.39 1578.18,-75.16"/>
<polygon fill="midnightblue" stroke="midnightblue" points="1579.24,-78.5 1588.23,-72.9 1577.7,-71.67 1579.24,-78.5"/>
</g>
<!-- Node29 -->
<g id="node29" class="node">
<title>Node29</title>
<g id="a_node29"><a xlink:title=" ">
<polygon fill="white" stroke="#bfbfbf" points="1315,-0.5 1315,-19.5 1384,-19.5 1384,-0.5 1315,-0.5"/>
<text text-anchor="middle" x="1349.5" y="-7.5" font-family="Helvetica,sans-Serif" font-size="10.00">type_traits</text>
</a>
</g>
</g>
<!-- Node28&#45;&gt;Node29 -->
<g id="edge46" class="edge">
<title>Node28&#45;&gt;Node29</title>
<path fill="none" stroke="midnightblue" d="M1349.5,-56.08C1349.5,-49.01 1349.5,-38.86 1349.5,-29.99"/>
<polygon fill="midnightblue" stroke="midnightblue" points="1353,-29.75 1349.5,-19.75 1346,-29.75 1353,-29.75"/>
</g>
<!-- Node32&#45;&gt;Node11 -->
<g id="edge57" class="edge">
<title>Node32&#45;&gt;Node11</title>
<path fill="none" stroke="midnightblue" d="M1781.23,-117.81C1768.41,-103.03 1740.33,-72.96 1710.5,-56 1674.3,-35.42 1627.59,-23.16 1596.88,-16.75"/>
<polygon fill="midnightblue" stroke="midnightblue" points="1597.22,-13.25 1586.73,-14.73 1595.85,-20.11 1597.22,-13.25"/>
</g>
<!-- Node32&#45;&gt;Node30 -->
<g id="edge52" class="edge">
<title>Node32&#45;&gt;Node30</title>
<path fill="none" stroke="midnightblue" d="M1763.57,-117.98C1733.46,-107.68 1682.67,-90.31 1648.86,-78.75"/>
<polygon fill="midnightblue" stroke="midnightblue" points="1649.98,-75.43 1639.38,-75.51 1647.71,-82.06 1649.98,-75.43"/>
</g>
<!-- Node33 -->
<g id="node33" class="node">
<title>Node33</title>
<g id="a_node33"><a xlink:title=" ">
<polygon fill="white" stroke="#bfbfbf" points="1763,-56.5 1763,-75.5 1814,-75.5 1814,-56.5 1763,-56.5"/>
<text text-anchor="middle" x="1788.5" y="-63.5" font-family="Helvetica,sans-Serif" font-size="10.00">csignal</text>
</a>
</g>
</g>
<!-- Node32&#45;&gt;Node33 -->
<g id="edge53" class="edge">
<title>Node32&#45;&gt;Node33</title>
<path fill="none" stroke="midnightblue" d="M1788.5,-117.98C1788.5,-109.58 1788.5,-96.48 1788.5,-85.66"/>
<polygon fill="midnightblue" stroke="midnightblue" points="1792,-85.51 1788.5,-75.51 1785,-85.51 1792,-85.51"/>
</g>
<!-- Node34 -->
<g id="node34" class="node">
<title>Node34</title>
<g id="a_node34"><a xlink:title=" ">
<polygon fill="white" stroke="#bfbfbf" points="1832.5,-56.5 1832.5,-75.5 1892.5,-75.5 1892.5,-56.5 1832.5,-56.5"/>
<text text-anchor="middle" x="1862.5" y="-63.5" font-family="Helvetica,sans-Serif" font-size="10.00">iostream</text>
</a>
</g>
</g>
<!-- Node32&#45;&gt;Node34 -->
<g id="edge54" class="edge">
<title>Node32&#45;&gt;Node34</title>
<path fill="none" stroke="midnightblue" d="M1799.1,-117.98C1810.75,-108.61 1829.69,-93.38 1843.83,-82.01"/>
<polygon fill="midnightblue" stroke="midnightblue" points="1846.32,-84.5 1851.92,-75.51 1841.93,-79.05 1846.32,-84.5"/>
</g>
<!-- Node35 -->
<g id="node35" class="node">
<title>Node35</title>
<g id="a_node35"><a xlink:title=" ">
<polygon fill="white" stroke="#bfbfbf" points="1911,-56.5 1911,-75.5 2004,-75.5 2004,-56.5 1911,-56.5"/>
<text text-anchor="middle" x="1957.5" y="-63.5" font-family="Helvetica,sans-Serif" font-size="10.00">spdlog/spdlog.h</text>
</a>
</g>
</g>
<!-- Node32&#45;&gt;Node35 -->
<g id="edge55" class="edge">
<title>Node32&#45;&gt;Node35</title>
<path fill="none" stroke="midnightblue" d="M1812.71,-117.98C1841.83,-107.72 1890.87,-90.46 1923.7,-78.9"/>
<polygon fill="midnightblue" stroke="midnightblue" points="1925.06,-82.13 1933.33,-75.51 1922.74,-75.53 1925.06,-82.13"/>
</g>
<!-- Node36 -->
<g id="node36" class="node">
<title>Node36</title>
<g id="a_node36"><a xlink:title=" ">
<polygon fill="white" stroke="#bfbfbf" points="2022.5,-56.5 2022.5,-75.5 2078.5,-75.5 2078.5,-56.5 2022.5,-56.5"/>
<text text-anchor="middle" x="2050.5" y="-63.5" font-family="Helvetica,sans-Serif" font-size="10.00">sstream</text>
</a>
</g>
</g>
<!-- Node32&#45;&gt;Node36 -->
<g id="edge56" class="edge">
<title>Node32&#45;&gt;Node36</title>
<path fill="none" stroke="midnightblue" d="M1827.57,-117.95C1870.47,-108.52 1941.64,-92.72 2012.27,-76.26"/>
<polygon fill="midnightblue" stroke="midnightblue" points="2013.29,-79.61 2022.23,-73.93 2011.7,-72.8 2013.29,-79.61"/>
</g>
</g>
</svg>
        <g id="navigator" transform="translate(0 0)" fill="#404254">
                <rect fill="#f2f5e9" fill-opacity="0.5" stroke="#606060" stroke-width=".5" x="0" y="0" width="60" height="60"/>
                <use id="zoomplus" xlink:href="#zoomPlus" x="17" y="9" onmousedown="handleZoom(evt,'in')"/>
                <use id="zoomminus" xlink:href="#zoomMin" x="42" y="9" onmousedown="handleZoom(evt,'out')"/>
                <use id="reset" xlink:href="#resetDef" x="30" y="36" onmousedown="handleReset()"/>
                <g id="arrowUp" xlink:href="#dirArrow" transform="translate(30 24)" onmousedown="handlePan(0,-1)">
                  <use xlink:href="#rim" fill="#404040">
                        <set attributeName="fill" to="#808080" begin="arrowUp.mouseover" end="arrowUp.mouseout"/>
                  </use>
                  <path fill="none" stroke="white" stroke-width="1.5" d="M0,-3.0v7 M-2.5,-0.5L0,-3.0L2.5,-0.5"/>
                </g>
                <g id="arrowRight" xlink:href="#dirArrow" transform="rotate(90) translate(36 -43)" onmousedown="handlePan(1,0)">
                  <use xlink:href="#rim" fill="#404040">
                        <set attributeName="fill" to="#808080" begin="arrowRight.mouseover" end="arrowRight.mouseout"/>
                  </use>
                  <path fill="none" stroke="white" stroke-width="1.5" d="M0,-3.0v7 M-2.5,-0.5L0,-3.0L2.5,-0.5"/>
                </g>
                <g id="arrowDown" xlink:href="#dirArrow" transform="rotate(180) translate(-30 -48)" onmousedown="handlePan(0,1)">
                  <use xlink:href="#rim" fill="#404040">
                        <set attributeName="fill" to="#808080" begin="arrowDown.mouseover" end="arrowDown.mouseout"/>
                  </use>
                  <path fill="none" stroke="white" stroke-width="1.5" d="M0,-3.0v7 M-2.5,-0.5L0,-3.0L2.5,-0.5"/>
                </g>
                <g id="arrowLeft" xlink:href="#dirArrow" transform="rotate(270) translate(-36 17)" onmousedown="handlePan(-1,0)">
                  <use xlink:href="#rim" fill="#404040">
                        <set attributeName="fill" to="#808080" begin="arrowLeft.mouseover" end="arrowLeft.mouseout"/>
                  </use>
                  <path fill="none" stroke="white" stroke-width="1.5" d="M0,-3.0v7 M-2.5,-0.5L0,-3.0L2.5,-0.5"/>
                </g>
        </g>
        <svg viewBox="0 0 15 15" width="100%" height="30px" preserveAspectRatio="xMaxYMin meet">
         <g id="arrow_out" transform="scale(0.3 0.3)">
          <a xlink:href="UserGroupMembershipEventSerializer_8cpp__incl_org.svg" target="_base">
           <rect id="button" ry="5" rx="5" y="6" x="6" height="38" width="38"
                fill="#f2f5e9" fill-opacity="0.5" stroke="#606060" stroke-width="1.0"/>
           <path id="arrow"
             d="M 11.500037,31.436501 C 11.940474,20.09759 22.043105,11.32322 32.158766,21.979434 L 37.068811,17.246167 C 37.068811,17.246167 37.088388,32 37.088388,32 L 22.160133,31.978069 C 22.160133,31.978069 26.997745,27.140456 26.997745,27.140456 C 18.528582,18.264221 13.291696,25.230495 11.500037,31.436501 z"
             style="fill:#404040;"/>
          </a>
         </g>
        </svg>
</svg>
