<?xml version="1.0" encoding="UTF-8" standalone="no"?>
<!DOCTYPE svg PUBLIC "-//W3C//DTD SVG 1.1//EN"
 "http://www.w3.org/Graphics/SVG/1.1/DTD/svg11.dtd">
<!-- Generated by graphviz version 2.43.0 (0)
 -->
<!-- Title: ModuleManager::ModuleInfo Pages: 1 -->
<!--zoomable 287 -->
<svg id="main" version="1.1" xmlns="http://www.w3.org/2000/svg" xmlns:xlink="http://www.w3.org/1999/xlink" xml:space="preserve" onload="init(evt)">
<style type="text/css"><![CDATA[
.edge:hover path { stroke: red; }
.edge:hover polygon { stroke: red; fill: red; }
]]></style>
<script type="text/javascript"><![CDATA[
var edges = document.getElementsByTagName('g');
if (edges && edges.length) {
  for (var i=0;i<edges.length;i++) {
    if (edges[i].id.substr(0,4)=='edge') {
      edges[i].setAttribute('class','edge');
    }
  }
}
]]></script>
        <defs>
                <circle id="rim" cx="0" cy="0" r="7"/>
                <circle id="rim2" cx="0" cy="0" r="3.5"/>
                <g id="zoomPlus">
                        <use xlink:href="#rim" fill="#404040">
                                <set attributeName="fill" to="#808080" begin="zoomplus.mouseover" end="zoomplus.mouseout"/>
                        </use>
                        <path d="M-4,0h8M0,-4v8" fill="none" stroke="white" stroke-width="1.5" pointer-events="none"/>
                </g>
                <g id="zoomMin">
                        <use xlink:href="#rim" fill="#404040">
                                <set attributeName="fill" to="#808080" begin="zoomminus.mouseover" end="zoomminus.mouseout"/>
                        </use>
                        <path d="M-4,0h8" fill="none" stroke="white" stroke-width="1.5" pointer-events="none"/>
                </g>
                <g id="dirArrow">
                        <path fill="none" stroke="white" stroke-width="1.5" d="M0,-3.0v7 M-2.5,-0.5L0,-3.0L2.5,-0.5"/>
                </g>
               <g id="resetDef">
                       <use xlink:href="#rim2" fill="#404040">
                               <set attributeName="fill" to="#808080" begin="reset.mouseover" end="reset.mouseout"/>
                       </use>
               </g>
        </defs>

<script type="text/javascript">
var viewWidth = 918;
var viewHeight = 287;
var sectionId = 'dynsection-0';
</script>
<script xlink:href="../../svgpan.js"/>
<svg id="graph" class="graph">
<g id="viewport">
<title>ModuleManager::ModuleInfo</title>
<polygon fill="white" stroke="transparent" points="-4,4 -4,-282.5 914,-282.5 914,4 -4,4"/>
<!-- Node1 -->
<g id="node1" class="node">
<title>Node1</title>
<g id="a_node1"><a xlink:title="Internal helper struct that store informations related to module that are useful to the module manage...">
<polygon fill="#bfbfbf" stroke="black" points="754,-86 754,-105 910,-105 910,-86 754,-86"/>
<text text-anchor="middle" x="832" y="-93" font-family="Helvetica,sans-Serif" font-size="10.00">ModuleManager::ModuleInfo</text>
</a>
</g>
</g>
<!-- Node2 -->
<g id="node2" class="node">
<title>Node2</title>
<g id="a_node2"><a xlink:href="../../d4/d7a/classLeosac_1_1ConfigManager.html" target="_top" xlink:title="That class helps manage the configuration for the application and its module.">
<polygon fill="white" stroke="black" points="547,-168 547,-187 677,-187 677,-168 547,-168"/>
<text text-anchor="middle" x="612" y="-175" font-family="Helvetica,sans-Serif" font-size="10.00">Leosac::ConfigManager</text>
</a>
</g>
</g>
<!-- Node2&#45;&gt;Node1 -->
<g id="edge1" class="edge">
<title>Node2&#45;&gt;Node1</title>
<path fill="none" stroke="#9a32cd" stroke-dasharray="5,2" d="M647.88,-164.38C691.96,-147.8 766.77,-119.66 805.73,-105.01"/>
<polygon fill="#9a32cd" stroke="#9a32cd" points="646.56,-161.14 638.43,-167.93 649.03,-167.69 646.56,-161.14"/>
<text text-anchor="middle" x="719" y="-147.5" font-family="Helvetica,sans-Serif" font-size="10.00"> cfg_</text>
</g>
<!-- Node3 -->
<g id="node3" class="node">
<title>Node3</title>
<g id="a_node3"><a xlink:title=" ">
<polygon fill="white" stroke="#bfbfbf" points="291,-237 291,-278 413,-278 413,-237 291,-237"/>
<text text-anchor="start" x="299" y="-266" font-family="Helvetica,sans-Serif" font-size="10.00">std::map&lt; std::string,</text>
<text text-anchor="start" x="299" y="-255" font-family="Helvetica,sans-Serif" font-size="10.00"> boost::property_tree</text>
<text text-anchor="middle" x="352" y="-244" font-family="Helvetica,sans-Serif" font-size="10.00">::ptree &gt;</text>
</a>
</g>
</g>
<!-- Node3&#45;&gt;Node2 -->
<g id="edge2" class="edge">
<title>Node3&#45;&gt;Node2</title>
<path fill="none" stroke="#9a32cd" stroke-dasharray="5,2" d="M423.26,-246.59C454.04,-240.78 490.3,-232.52 522,-221.5 548.54,-212.28 577.36,-196.96 594.8,-187.05"/>
<polygon fill="#9a32cd" stroke="#9a32cd" points="422.24,-243.22 413.04,-248.47 423.51,-250.1 422.24,-243.22"/>
<text text-anchor="middle" x="476.5" y="-247.5" font-family="Helvetica,sans-Serif" font-size="10.00"> modules_configs_</text>
</g>
<!-- Node4 -->
<g id="node4" class="node">
<title>Node4</title>
<g id="a_node4"><a xlink:title="STL class.">
<polygon fill="white" stroke="#bfbfbf" points="141,-125 141,-144 206,-144 206,-125 141,-125"/>
<text text-anchor="middle" x="173.5" y="-132" font-family="Helvetica,sans-Serif" font-size="10.00">std::string</text>
</a>
</g>
</g>
<!-- Node4&#45;&gt;Node1 -->
<g id="edge11" class="edge">
<title>Node4&#45;&gt;Node1</title>
<path fill="none" stroke="#9a32cd" stroke-dasharray="5,2" d="M216.35,-132.01C324.43,-125.59 614.22,-108.38 753.78,-100.09"/>
<polygon fill="#9a32cd" stroke="#9a32cd" points="215.94,-128.53 206.16,-132.62 216.35,-135.52 215.94,-128.53"/>
<text text-anchor="middle" x="476.5" y="-122.5" font-family="Helvetica,sans-Serif" font-size="10.00"> name_</text>
</g>
<!-- Node4&#45;&gt;Node2 -->
<g id="edge6" class="edge">
<title>Node4&#45;&gt;Node2</title>
<path fill="none" stroke="#9a32cd" stroke-dasharray="5,2" d="M216.47,-138.63C293.17,-146.19 456.37,-162.27 546.99,-171.19"/>
<polygon fill="#9a32cd" stroke="#9a32cd" points="216.54,-135.12 206.24,-137.63 215.85,-142.09 216.54,-135.12"/>
<text text-anchor="middle" x="352" y="-159.5" font-family="Helvetica,sans-Serif" font-size="10.00"> instance_name_</text>
</g>
<!-- Node4&#45;&gt;Node3 -->
<g id="edge3" class="edge">
<title>Node4&#45;&gt;Node3</title>
<path fill="none" stroke="#9a32cd" stroke-dasharray="5,2" d="M194.3,-150.6C217.06,-168.85 255.83,-199.08 291,-222.5 298.33,-227.38 306.35,-232.32 314.09,-236.9"/>
<polygon fill="#9a32cd" stroke="#9a32cd" points="196.38,-147.79 186.4,-144.24 191.99,-153.24 196.38,-147.79"/>
<text text-anchor="middle" x="248.5" y="-211.5" font-family="Helvetica,sans-Serif" font-size="10.00"> keys</text>
</g>
<!-- Node8 -->
<g id="node8" class="node">
<title>Node8</title>
<g id="a_node8"><a xlink:href="../../d9/d4c/classDynamicLibrary.html" target="_top" xlink:title="Wraps a dynamic library handler and provide methods to interact with it.">
<polygon fill="white" stroke="black" points="305,-60 305,-79 399,-79 399,-60 305,-60"/>
<text text-anchor="middle" x="352" y="-67" font-family="Helvetica,sans-Serif" font-size="10.00">DynamicLibrary</text>
</a>
</g>
</g>
<!-- Node4&#45;&gt;Node8 -->
<g id="edge10" class="edge">
<title>Node4&#45;&gt;Node8</title>
<path fill="none" stroke="#9a32cd" stroke-dasharray="5,2" d="M186.79,-116.52C195.7,-105.03 208.81,-90.93 224,-83.5 248.91,-71.31 279.77,-67.69 304.83,-67.17"/>
<polygon fill="#9a32cd" stroke="#9a32cd" points="183.92,-114.51 180.83,-124.64 189.57,-118.65 183.92,-114.51"/>
<text text-anchor="middle" x="248.5" y="-86.5" font-family="Helvetica,sans-Serif" font-size="10.00"> _file</text>
</g>
<!-- Node5 -->
<g id="node5" class="node">
<title>Node5</title>
<g id="a_node5"><a xlink:title="STL class.">
<polygon fill="white" stroke="#bfbfbf" points="0,-119.5 0,-149.5 104,-149.5 104,-119.5 0,-119.5"/>
<text text-anchor="start" x="8" y="-137.5" font-family="Helvetica,sans-Serif" font-size="10.00">std::basic_string&lt;</text>
<text text-anchor="middle" x="52" y="-126.5" font-family="Helvetica,sans-Serif" font-size="10.00"> char &gt;</text>
</a>
</g>
</g>
<!-- Node5&#45;&gt;Node4 -->
<g id="edge4" class="edge">
<title>Node5&#45;&gt;Node4</title>
<path fill="none" stroke="midnightblue" d="M114.1,-134.5C123.41,-134.5 132.68,-134.5 141,-134.5"/>
<polygon fill="midnightblue" stroke="midnightblue" points="114.03,-131 104.03,-134.5 114.03,-138 114.03,-131"/>
</g>
<!-- Node6 -->
<g id="node6" class="node">
<title>Node6</title>
<g id="a_node6"><a xlink:title=" ">
<polygon fill="white" stroke="#bfbfbf" points="152.5,-221 152.5,-240 194.5,-240 194.5,-221 152.5,-221"/>
<text text-anchor="middle" x="173.5" y="-228" font-family="Helvetica,sans-Serif" font-size="10.00">ptree</text>
</a>
</g>
</g>
<!-- Node6&#45;&gt;Node2 -->
<g id="edge7" class="edge">
<title>Node6&#45;&gt;Node2</title>
<path fill="none" stroke="#9a32cd" stroke-dasharray="5,2" d="M204.64,-226.84C274.91,-218.31 450.91,-196.94 546.6,-185.32"/>
<polygon fill="#9a32cd" stroke="#9a32cd" points="204.18,-223.37 194.68,-228.05 205.03,-230.32 204.18,-223.37"/>
<text text-anchor="middle" x="352" y="-218.5" font-family="Helvetica,sans-Serif" font-size="10.00"> kernel_config_</text>
</g>
<!-- Node6&#45;&gt;Node3 -->
<g id="edge5" class="edge">
<title>Node6&#45;&gt;Node3</title>
<path fill="none" stroke="#9a32cd" stroke-dasharray="5,2" d="M204.81,-235.14C228.35,-238.74 261.73,-243.84 290.65,-248.27"/>
<polygon fill="#9a32cd" stroke="#9a32cd" points="205.16,-231.65 194.75,-233.6 204.1,-238.57 205.16,-231.65"/>
<text text-anchor="middle" x="248.5" y="-247.5" font-family="Helvetica,sans-Serif" font-size="10.00"> elements</text>
</g>
<!-- Node7 -->
<g id="node7" class="node">
<title>Node7</title>
<g id="a_node7"><a xlink:title=" ">
<polygon fill="white" stroke="#bfbfbf" points="540,-49.5 540,-79.5 684,-79.5 684,-49.5 540,-49.5"/>
<text text-anchor="start" x="548" y="-67.5" font-family="Helvetica,sans-Serif" font-size="10.00">std::shared_ptr&lt; Dynamic</text>
<text text-anchor="middle" x="612" y="-56.5" font-family="Helvetica,sans-Serif" font-size="10.00">Library &gt;</text>
</a>
</g>
</g>
<!-- Node7&#45;&gt;Node1 -->
<g id="edge8" class="edge">
<title>Node7&#45;&gt;Node1</title>
<path fill="none" stroke="#9a32cd" stroke-dasharray="5,2" d="M694.17,-76.04C717.2,-79.32 742.01,-82.84 764.09,-85.98"/>
<polygon fill="#9a32cd" stroke="#9a32cd" points="694.47,-72.55 684.08,-74.61 693.49,-79.48 694.47,-72.55"/>
<text text-anchor="middle" x="719" y="-85.5" font-family="Helvetica,sans-Serif" font-size="10.00"> lib_</text>
</g>
<!-- Node8&#45;&gt;Node7 -->
<g id="edge9" class="edge">
<title>Node8&#45;&gt;Node7</title>
<path fill="none" stroke="#9a32cd" stroke-dasharray="5,2" d="M409.59,-68.4C447.93,-67.66 498.9,-66.67 539.97,-65.88"/>
<polygon fill="#9a32cd" stroke="#9a32cd" points="409.06,-64.91 399.13,-68.61 409.19,-71.91 409.06,-64.91"/>
<text text-anchor="middle" x="476.5" y="-71.5" font-family="Helvetica,sans-Serif" font-size="10.00"> ptr</text>
</g>
<!-- Node9 -->
<g id="node9" class="node">
<title>Node9</title>
<g id="a_node9"><a xlink:title=" ">
<polygon fill="white" stroke="#bfbfbf" points="545,-0.5 545,-30.5 679,-30.5 679,-0.5 545,-0.5"/>
<text text-anchor="start" x="553" y="-18.5" font-family="Helvetica,sans-Serif" font-size="10.00">std::unique_ptr&lt; zmqpp</text>
<text text-anchor="middle" x="612" y="-7.5" font-family="Helvetica,sans-Serif" font-size="10.00">::actor &gt;</text>
</a>
</g>
</g>
<!-- Node9&#45;&gt;Node1 -->
<g id="edge12" class="edge">
<title>Node9&#45;&gt;Node1</title>
<path fill="none" stroke="#9a32cd" stroke-dasharray="5,2" d="M668.16,-33.92C673.52,-35.78 678.87,-37.66 684,-39.5 727.43,-55.11 777.59,-74.51 806.66,-85.9"/>
<polygon fill="#9a32cd" stroke="#9a32cd" points="669.14,-30.55 658.54,-30.61 666.86,-37.17 669.14,-30.55"/>
<text text-anchor="middle" x="719" y="-60.5" font-family="Helvetica,sans-Serif" font-size="10.00"> actor_</text>
</g>
</g>
</svg>
        <g id="navigator" transform="translate(0 0)" fill="#404254">
                <rect fill="#f2f5e9" fill-opacity="0.5" stroke="#606060" stroke-width=".5" x="0" y="0" width="60" height="60"/>
                <use id="zoomplus" xlink:href="#zoomPlus" x="17" y="9" onmousedown="handleZoom(evt,'in')"/>
                <use id="zoomminus" xlink:href="#zoomMin" x="42" y="9" onmousedown="handleZoom(evt,'out')"/>
                <use id="reset" xlink:href="#resetDef" x="30" y="36" onmousedown="handleReset()"/>
                <g id="arrowUp" xlink:href="#dirArrow" transform="translate(30 24)" onmousedown="handlePan(0,-1)">
                  <use xlink:href="#rim" fill="#404040">
                        <set attributeName="fill" to="#808080" begin="arrowUp.mouseover" end="arrowUp.mouseout"/>
                  </use>
                  <path fill="none" stroke="white" stroke-width="1.5" d="M0,-3.0v7 M-2.5,-0.5L0,-3.0L2.5,-0.5"/>
                </g>
                <g id="arrowRight" xlink:href="#dirArrow" transform="rotate(90) translate(36 -43)" onmousedown="handlePan(1,0)">
                  <use xlink:href="#rim" fill="#404040">
                        <set attributeName="fill" to="#808080" begin="arrowRight.mouseover" end="arrowRight.mouseout"/>
                  </use>
                  <path fill="none" stroke="white" stroke-width="1.5" d="M0,-3.0v7 M-2.5,-0.5L0,-3.0L2.5,-0.5"/>
                </g>
                <g id="arrowDown" xlink:href="#dirArrow" transform="rotate(180) translate(-30 -48)" onmousedown="handlePan(0,1)">
                  <use xlink:href="#rim" fill="#404040">
                        <set attributeName="fill" to="#808080" begin="arrowDown.mouseover" end="arrowDown.mouseout"/>
                  </use>
                  <path fill="none" stroke="white" stroke-width="1.5" d="M0,-3.0v7 M-2.5,-0.5L0,-3.0L2.5,-0.5"/>
                </g>
                <g id="arrowLeft" xlink:href="#dirArrow" transform="rotate(270) translate(-36 17)" onmousedown="handlePan(-1,0)">
                  <use xlink:href="#rim" fill="#404040">
                        <set attributeName="fill" to="#808080" begin="arrowLeft.mouseover" end="arrowLeft.mouseout"/>
                  </use>
                  <path fill="none" stroke="white" stroke-width="1.5" d="M0,-3.0v7 M-2.5,-0.5L0,-3.0L2.5,-0.5"/>
                </g>
        </g>
        <svg viewBox="0 0 15 15" width="100%" height="30px" preserveAspectRatio="xMaxYMin meet">
         <g id="arrow_out" transform="scale(0.3 0.3)">
          <a xlink:href="structModuleManager_1_1ModuleInfo__coll__graph_org.svg" target="_base">
           <rect id="button" ry="5" rx="5" y="6" x="6" height="38" width="38"
                fill="#f2f5e9" fill-opacity="0.5" stroke="#606060" stroke-width="1.0"/>
           <path id="arrow"
             d="M 11.500037,31.436501 C 11.940474,20.09759 22.043105,11.32322 32.158766,21.979434 L 37.068811,17.246167 C 37.068811,17.246167 37.088388,32 37.088388,32 L 22.160133,31.978069 C 22.160133,31.978069 26.997745,27.140456 26.997745,27.140456 C 18.528582,18.264221 13.291696,25.230495 11.500037,31.436501 z"
             style="fill:#404040;"/>
          </a>
         </g>
        </svg>
</svg>
