<?xml version="1.0" encoding="UTF-8" standalone="no"?>
<!DOCTYPE svg PUBLIC "-//W3C//DTD SVG 1.1//EN"
 "http://www.w3.org/Graphics/SVG/1.1/DTD/svg11.dtd">
<!-- Generated by graphviz version 2.43.0 (0)
 -->
<!-- Title: Leosac::Hardware::LED Pages: 1 -->
<svg width="232pt" height="354pt"
 viewBox="0.00 0.00 231.50 354.00" xmlns="http://www.w3.org/2000/svg" xmlns:xlink="http://www.w3.org/1999/xlink">
<g id="graph0" class="graph" transform="scale(1 1) rotate(0) translate(4 350)">
<title>Leosac::Hardware::LED</title>
<polygon fill="white" stroke="transparent" points="-4,4 -4,-350 227.5,-350 227.5,4 -4,4"/>
<!-- Node1 -->
<g id="node1" class="node">
<title>Node1</title>
<g id="a_node1"><a xlink:title="Abstraction of LED device attributes.">
<polygon fill="#bfbfbf" stroke="black" points="11.5,-0.5 11.5,-19.5 139.5,-19.5 139.5,-0.5 11.5,-0.5"/>
<text text-anchor="middle" x="75.5" y="-7.5" font-family="Helvetica,sans-Serif" font-size="10.00">Leosac::Hardware::LED</text>
</a>
</g>
</g>
<!-- Node2 -->
<g id="node2" class="node">
<title>Node2</title>
<g id="a_node2"><a xlink:href="../../d3/d7f/classLeosac_1_1Hardware_1_1Device.html" target="_top" xlink:title="Base class for hardware devices.">
<polygon fill="white" stroke="black" points="0,-191.5 0,-210.5 143,-210.5 143,-191.5 0,-191.5"/>
<text text-anchor="middle" x="71.5" y="-198.5" font-family="Helvetica,sans-Serif" font-size="10.00">Leosac::Hardware::Device</text>
</a>
</g>
</g>
<!-- Node2&#45;&gt;Node1 -->
<g id="edge1" class="edge">
<title>Node2&#45;&gt;Node1</title>
<path fill="none" stroke="midnightblue" d="M71.9,-181.14C72.75,-141 74.71,-48.39 75.32,-19.66"/>
<polygon fill="midnightblue" stroke="midnightblue" points="68.39,-181.32 71.68,-191.39 75.39,-181.46 68.39,-181.32"/>
</g>
<!-- Node7 -->
<g id="node7" class="node">
<title>Node7</title>
<g id="a_node7"><a xlink:href="../../de/d98/classLeosac_1_1Hardware_1_1GPIO.html" target="_top" xlink:title="Abstraction of a GPIO device attributes.">
<polygon fill="white" stroke="black" points="87.5,-134.5 87.5,-153.5 221.5,-153.5 221.5,-134.5 87.5,-134.5"/>
<text text-anchor="middle" x="154.5" y="-141.5" font-family="Helvetica,sans-Serif" font-size="10.00">Leosac::Hardware::GPIO</text>
</a>
</g>
</g>
<!-- Node2&#45;&gt;Node7 -->
<g id="edge7" class="edge">
<title>Node2&#45;&gt;Node7</title>
<path fill="none" stroke="midnightblue" d="M92.89,-185.82C108.31,-175.61 128.62,-162.15 141.62,-153.53"/>
<polygon fill="midnightblue" stroke="midnightblue" points="90.87,-182.96 84.47,-191.41 94.74,-188.8 90.87,-182.96"/>
</g>
<!-- Node3 -->
<g id="node3" class="node">
<title>Node3</title>
<g id="a_node3"><a xlink:href="../../d7/d46/classLeosac_1_1UUID.html" target="_top" xlink:title="Thin wrapper around boost::uuids::uuid.">
<polygon fill="white" stroke="black" points="10.5,-258.5 10.5,-277.5 92.5,-277.5 92.5,-258.5 10.5,-258.5"/>
<text text-anchor="middle" x="51.5" y="-265.5" font-family="Helvetica,sans-Serif" font-size="10.00">Leosac::UUID</text>
</a>
</g>
</g>
<!-- Node3&#45;&gt;Node2 -->
<g id="edge2" class="edge">
<title>Node3&#45;&gt;Node2</title>
<path fill="none" stroke="#9a32cd" stroke-dasharray="5,2" d="M57.22,-248.41C61.04,-235.99 65.89,-220.22 68.85,-210.63"/>
<polygon fill="#9a32cd" stroke="#9a32cd" points="53.79,-247.65 54.2,-258.23 60.48,-249.71 53.79,-247.65"/>
<text text-anchor="middle" x="72.5" y="-232" font-family="Helvetica,sans-Serif" font-size="10.00"> id_</text>
</g>
<!-- Node4 -->
<g id="node4" class="node">
<title>Node4</title>
<g id="a_node4"><a xlink:title="STL class.">
<polygon fill="white" stroke="#bfbfbf" points="111,-258.5 111,-277.5 176,-277.5 176,-258.5 111,-258.5"/>
<text text-anchor="middle" x="143.5" y="-265.5" font-family="Helvetica,sans-Serif" font-size="10.00">std::string</text>
</a>
</g>
</g>
<!-- Node4&#45;&gt;Node2 -->
<g id="edge3" class="edge">
<title>Node4&#45;&gt;Node2</title>
<path fill="none" stroke="#9a32cd" stroke-dasharray="5,2" d="M126.17,-251.36C112.02,-238.58 92.54,-220.99 81.06,-210.63"/>
<polygon fill="#9a32cd" stroke="#9a32cd" points="124.02,-254.13 133.79,-258.23 128.71,-248.93 124.02,-254.13"/>
<text text-anchor="middle" x="130" y="-232" font-family="Helvetica,sans-Serif" font-size="10.00"> name_</text>
</g>
<!-- Node5 -->
<g id="node5" class="node">
<title>Node5</title>
<g id="a_node5"><a xlink:title="STL class.">
<polygon fill="white" stroke="#bfbfbf" points="91.5,-315.5 91.5,-345.5 195.5,-345.5 195.5,-315.5 91.5,-315.5"/>
<text text-anchor="start" x="99.5" y="-333.5" font-family="Helvetica,sans-Serif" font-size="10.00">std::basic_string&lt;</text>
<text text-anchor="middle" x="143.5" y="-322.5" font-family="Helvetica,sans-Serif" font-size="10.00"> char &gt;</text>
</a>
</g>
</g>
<!-- Node5&#45;&gt;Node4 -->
<g id="edge4" class="edge">
<title>Node5&#45;&gt;Node4</title>
<path fill="none" stroke="midnightblue" d="M143.5,-305.35C143.5,-295.51 143.5,-284.78 143.5,-277.54"/>
<polygon fill="midnightblue" stroke="midnightblue" points="140,-305.47 143.5,-315.47 147,-305.47 140,-305.47"/>
</g>
<!-- Node6 -->
<g id="node6" class="node">
<title>Node6</title>
<g id="a_node6"><a xlink:title=" ">
<polygon fill="white" stroke="#bfbfbf" points="87.5,-67.5 87.5,-86.5 223.5,-86.5 223.5,-67.5 87.5,-67.5"/>
<text text-anchor="middle" x="155.5" y="-74.5" font-family="Helvetica,sans-Serif" font-size="10.00">std::shared_ptr&lt; GPIO &gt;</text>
</a>
</g>
</g>
<!-- Node6&#45;&gt;Node1 -->
<g id="edge5" class="edge">
<title>Node6&#45;&gt;Node1</title>
<path fill="none" stroke="#9a32cd" stroke-dasharray="5,2" d="M136.69,-60.71C120.92,-47.91 98.99,-30.09 86.12,-19.63"/>
<polygon fill="#9a32cd" stroke="#9a32cd" points="134.74,-63.64 144.71,-67.23 139.16,-58.21 134.74,-63.64"/>
<text text-anchor="middle" x="134.5" y="-41" font-family="Helvetica,sans-Serif" font-size="10.00"> gpio_</text>
</g>
<!-- Node7&#45;&gt;Node6 -->
<g id="edge6" class="edge">
<title>Node7&#45;&gt;Node6</title>
<path fill="none" stroke="#9a32cd" stroke-dasharray="5,2" d="M154.79,-124.04C154.98,-111.67 155.22,-96.12 155.37,-86.63"/>
<polygon fill="#9a32cd" stroke="#9a32cd" points="151.29,-124.18 154.63,-134.23 158.29,-124.29 151.29,-124.18"/>
<text text-anchor="middle" x="163" y="-108" font-family="Helvetica,sans-Serif" font-size="10.00"> ptr</text>
</g>
</g>
</svg>
