<?xml version="1.0" encoding="UTF-8" standalone="no"?>
<!DOCTYPE svg PUBLIC "-//W3C//DTD SVG 1.1//EN"
 "http://www.w3.org/Graphics/SVG/1.1/DTD/svg11.dtd">
<!-- Generated by graphviz version 2.43.0 (0)
 -->
<!-- Title: src/modules/tcp&#45;notifier/protocols/PushSimpleCardNumber.hpp Pages: 1 -->
<svg width="350pt" height="229pt"
 viewBox="0.00 0.00 349.50 229.00" xmlns="http://www.w3.org/2000/svg" xmlns:xlink="http://www.w3.org/1999/xlink">
<g id="graph0" class="graph" transform="scale(1 1) rotate(0) translate(4 225)">
<title>src/modules/tcp&#45;notifier/protocols/PushSimpleCardNumber.hpp</title>
<polygon fill="white" stroke="transparent" points="-4,4 -4,-225 345.5,-225 345.5,4 -4,4"/>
<!-- Node1 -->
<g id="node1" class="node">
<title>Node1</title>
<g id="a_node1"><a xlink:title=" ">
<polygon fill="#bfbfbf" stroke="black" points="81,-190.5 81,-220.5 287,-220.5 287,-190.5 81,-190.5"/>
<text text-anchor="start" x="89" y="-208.5" font-family="Helvetica,sans-Serif" font-size="10.00">src/modules/tcp&#45;notifier</text>
<text text-anchor="middle" x="184" y="-197.5" font-family="Helvetica,sans-Serif" font-size="10.00">/protocols/PushSimpleCardNumber.hpp</text>
</a>
</g>
</g>
<!-- Node2 -->
<g id="node2" class="node">
<title>Node2</title>
<g id="a_node2"><a xlink:href="../../dc/d76/ProtocolHandler_8hpp.html" target="_top" xlink:title=" ">
<polygon fill="white" stroke="black" points="125,-123.5 125,-153.5 243,-153.5 243,-123.5 125,-123.5"/>
<text text-anchor="start" x="133" y="-141.5" font-family="Helvetica,sans-Serif" font-size="10.00">modules/tcp&#45;notifier</text>
<text text-anchor="middle" x="184" y="-130.5" font-family="Helvetica,sans-Serif" font-size="10.00">/ProtocolHandler.hpp</text>
</a>
</g>
</g>
<!-- Node1&#45;&gt;Node2 -->
<g id="edge1" class="edge">
<title>Node1&#45;&gt;Node2</title>
<path fill="none" stroke="midnightblue" d="M184,-190.4C184,-182.64 184,-172.81 184,-163.86"/>
<polygon fill="midnightblue" stroke="midnightblue" points="187.5,-163.58 184,-153.58 180.5,-163.58 187.5,-163.58"/>
</g>
<!-- Node3 -->
<g id="node3" class="node">
<title>Node3</title>
<g id="a_node3"><a xlink:href="../../dc/d49/LeosacFwd_8hpp.html" target="_top" xlink:title=" ">
<polygon fill="white" stroke="black" points="0,-62 0,-81 92,-81 92,-62 0,-62"/>
<text text-anchor="middle" x="46" y="-69" font-family="Helvetica,sans-Serif" font-size="10.00">LeosacFwd.hpp</text>
</a>
</g>
</g>
<!-- Node2&#45;&gt;Node3 -->
<g id="edge2" class="edge">
<title>Node2&#45;&gt;Node3</title>
<path fill="none" stroke="midnightblue" d="M154.06,-123.4C130.06,-112.09 96.66,-96.36 73.37,-85.39"/>
<polygon fill="midnightblue" stroke="midnightblue" points="74.6,-82.1 64.06,-81.01 71.62,-88.43 74.6,-82.1"/>
</g>
<!-- Node6 -->
<g id="node6" class="node">
<title>Node6</title>
<g id="a_node6"><a xlink:href="../../d7/d7f/CredentialFwd_8hpp.html" target="_top" xlink:title=" ">
<polygon fill="white" stroke="black" points="110,-56.5 110,-86.5 258,-86.5 258,-56.5 110,-56.5"/>
<text text-anchor="start" x="118" y="-74.5" font-family="Helvetica,sans-Serif" font-size="10.00">core/credentials/Credential</text>
<text text-anchor="middle" x="184" y="-63.5" font-family="Helvetica,sans-Serif" font-size="10.00">Fwd.hpp</text>
</a>
</g>
</g>
<!-- Node2&#45;&gt;Node6 -->
<g id="edge5" class="edge">
<title>Node2&#45;&gt;Node6</title>
<path fill="none" stroke="midnightblue" d="M184,-123.4C184,-115.64 184,-105.81 184,-96.86"/>
<polygon fill="midnightblue" stroke="midnightblue" points="187.5,-96.58 184,-86.58 180.5,-96.58 187.5,-96.58"/>
</g>
<!-- Node8 -->
<g id="node8" class="node">
<title>Node8</title>
<g id="a_node8"><a xlink:title=" ">
<polygon fill="white" stroke="#bfbfbf" points="276.5,-62 276.5,-81 341.5,-81 341.5,-62 276.5,-62"/>
<text text-anchor="middle" x="309" y="-69" font-family="Helvetica,sans-Serif" font-size="10.00">stdexcept</text>
</a>
</g>
</g>
<!-- Node2&#45;&gt;Node8 -->
<g id="edge8" class="edge">
<title>Node2&#45;&gt;Node8</title>
<path fill="none" stroke="midnightblue" d="M211.12,-123.4C232.67,-112.19 262.57,-96.64 283.64,-85.69"/>
<polygon fill="midnightblue" stroke="midnightblue" points="285.38,-88.73 292.64,-81.01 282.15,-82.52 285.38,-88.73"/>
</g>
<!-- Node4 -->
<g id="node4" class="node">
<title>Node4</title>
<g id="a_node4"><a xlink:title=" ">
<polygon fill="white" stroke="#bfbfbf" points="74,-0.5 74,-19.5 132,-19.5 132,-0.5 74,-0.5"/>
<text text-anchor="middle" x="103" y="-7.5" font-family="Helvetica,sans-Serif" font-size="10.00">memory</text>
</a>
</g>
</g>
<!-- Node3&#45;&gt;Node4 -->
<g id="edge3" class="edge">
<title>Node3&#45;&gt;Node4</title>
<path fill="none" stroke="midnightblue" d="M54.17,-61.98C62.89,-52.87 76.9,-38.24 87.69,-26.98"/>
<polygon fill="midnightblue" stroke="midnightblue" points="90.46,-29.15 94.85,-19.51 85.4,-24.31 90.46,-29.15"/>
</g>
<!-- Node5 -->
<g id="node5" class="node">
<title>Node5</title>
<g id="a_node5"><a xlink:title=" ">
<polygon fill="white" stroke="#bfbfbf" points="8.5,-0.5 8.5,-19.5 55.5,-19.5 55.5,-0.5 8.5,-0.5"/>
<text text-anchor="middle" x="32" y="-7.5" font-family="Helvetica,sans-Serif" font-size="10.00">vector</text>
</a>
</g>
</g>
<!-- Node3&#45;&gt;Node5 -->
<g id="edge4" class="edge">
<title>Node3&#45;&gt;Node5</title>
<path fill="none" stroke="midnightblue" d="M43.99,-61.98C42,-53.49 38.87,-40.2 36.31,-29.32"/>
<polygon fill="midnightblue" stroke="midnightblue" points="39.7,-28.44 34,-19.51 32.89,-30.04 39.7,-28.44"/>
</g>
<!-- Node6&#45;&gt;Node4 -->
<g id="edge6" class="edge">
<title>Node6&#45;&gt;Node4</title>
<path fill="none" stroke="midnightblue" d="M164.8,-56.4C152.18,-47.13 135.71,-35.03 122.94,-25.65"/>
<polygon fill="midnightblue" stroke="midnightblue" points="124.92,-22.76 114.79,-19.66 120.77,-28.4 124.92,-22.76"/>
</g>
<!-- Node7 -->
<g id="node7" class="node">
<title>Node7</title>
<g id="a_node7"><a xlink:title=" ">
<polygon fill="white" stroke="#bfbfbf" points="150.5,-0.5 150.5,-19.5 245.5,-19.5 245.5,-0.5 150.5,-0.5"/>
<text text-anchor="middle" x="198" y="-7.5" font-family="Helvetica,sans-Serif" font-size="10.00">odb/lazy&#45;ptr.hxx</text>
</a>
</g>
</g>
<!-- Node6&#45;&gt;Node7 -->
<g id="edge7" class="edge">
<title>Node6&#45;&gt;Node7</title>
<path fill="none" stroke="midnightblue" d="M187.32,-56.4C189.21,-48.38 191.59,-38.23 193.63,-29.57"/>
<polygon fill="midnightblue" stroke="midnightblue" points="197.08,-30.19 195.96,-19.66 190.27,-28.59 197.08,-30.19"/>
</g>
</g>
</svg>
