<?xml version="1.0" encoding="UTF-8" standalone="no"?>
<!DOCTYPE svg PUBLIC "-//W3C//DTD SVG 1.1//EN"
 "http://www.w3.org/Graphics/SVG/1.1/DTD/svg11.dtd">
<!-- Generated by graphviz version 2.43.0 (0)
 -->
<!-- Title: src/hardware/Device.hpp Pages: 1 -->
<svg width="921pt" height="196pt"
 viewBox="0.00 0.00 921.00 196.00" xmlns="http://www.w3.org/2000/svg" xmlns:xlink="http://www.w3.org/1999/xlink">
<g id="graph0" class="graph" transform="scale(1 1) rotate(0) translate(4 192)">
<title>src/hardware/Device.hpp</title>
<polygon fill="white" stroke="transparent" points="-4,4 -4,-192 917,-192 917,4 -4,4"/>
<!-- Node1 -->
<g id="node1" class="node">
<title>Node1</title>
<g id="a_node1"><a xlink:title=" ">
<polygon fill="#bfbfbf" stroke="black" points="630,-168.5 630,-187.5 767,-187.5 767,-168.5 630,-168.5"/>
<text text-anchor="middle" x="698.5" y="-175.5" font-family="Helvetica,sans-Serif" font-size="10.00">src/hardware/Device.hpp</text>
</a>
</g>
</g>
<!-- Node2 -->
<g id="node2" class="node">
<title>Node2</title>
<g id="a_node2"><a xlink:href="../../d9/dc8/HardwareFwd_8hpp.html" target="_top" xlink:title=" ">
<polygon fill="white" stroke="black" points="497.5,-112.5 497.5,-131.5 651.5,-131.5 651.5,-112.5 497.5,-112.5"/>
<text text-anchor="middle" x="574.5" y="-119.5" font-family="Helvetica,sans-Serif" font-size="10.00">hardware/HardwareFwd.hpp</text>
</a>
</g>
</g>
<!-- Node1&#45;&gt;Node2 -->
<g id="edge1" class="edge">
<title>Node1&#45;&gt;Node2</title>
<path fill="none" stroke="midnightblue" d="M678.85,-168.44C658.54,-159.6 626.6,-145.69 603.4,-135.59"/>
<polygon fill="midnightblue" stroke="midnightblue" points="604.62,-132.3 594.06,-131.52 601.83,-138.72 604.62,-132.3"/>
</g>
<!-- Node3 -->
<g id="node3" class="node">
<title>Node3</title>
<g id="a_node3"><a xlink:href="../../dc/dea/Uuid_8hpp.html" target="_top" xlink:title=" ">
<polygon fill="white" stroke="black" points="433,-56.5 433,-75.5 520,-75.5 520,-56.5 433,-56.5"/>
<text text-anchor="middle" x="476.5" y="-63.5" font-family="Helvetica,sans-Serif" font-size="10.00">tools/Uuid.hpp</text>
</a>
</g>
</g>
<!-- Node1&#45;&gt;Node3 -->
<g id="edge10" class="edge">
<title>Node1&#45;&gt;Node3</title>
<path fill="none" stroke="midnightblue" d="M629.79,-170.49C576.28,-163.98 507.92,-151.99 488.5,-132 476.89,-120.05 474.59,-100.75 474.77,-86.28"/>
<polygon fill="midnightblue" stroke="midnightblue" points="478.29,-86.11 475.32,-75.94 471.3,-85.74 478.29,-86.11"/>
</g>
<!-- Node8 -->
<g id="node8" class="node">
<title>Node8</title>
<g id="a_node8"><a xlink:title=" ">
<polygon fill="white" stroke="#bfbfbf" points="618.5,-0.5 618.5,-19.5 698.5,-19.5 698.5,-0.5 618.5,-0.5"/>
<text text-anchor="middle" x="658.5" y="-7.5" font-family="Helvetica,sans-Serif" font-size="10.00">odb/core.hxx</text>
</a>
</g>
</g>
<!-- Node1&#45;&gt;Node8 -->
<g id="edge13" class="edge">
<title>Node1&#45;&gt;Node8</title>
<path fill="none" stroke="midnightblue" d="M696.35,-168.08C690.05,-141.95 671.56,-65.21 662.98,-29.58"/>
<polygon fill="midnightblue" stroke="midnightblue" points="666.31,-28.47 660.56,-19.57 659.5,-30.11 666.31,-28.47"/>
</g>
<!-- Node9 -->
<g id="node9" class="node">
<title>Node9</title>
<g id="a_node9"><a xlink:title=" ">
<polygon fill="white" stroke="#bfbfbf" points="716.5,-0.5 716.5,-19.5 760.5,-19.5 760.5,-0.5 716.5,-0.5"/>
<text text-anchor="middle" x="738.5" y="-7.5" font-family="Helvetica,sans-Serif" font-size="10.00">string</text>
</a>
</g>
</g>
<!-- Node1&#45;&gt;Node9 -->
<g id="edge14" class="edge">
<title>Node1&#45;&gt;Node9</title>
<path fill="none" stroke="midnightblue" d="M700.65,-168.08C706.95,-141.95 725.44,-65.21 734.02,-29.58"/>
<polygon fill="midnightblue" stroke="midnightblue" points="737.5,-30.11 736.44,-19.57 730.69,-28.47 737.5,-30.11"/>
</g>
<!-- Node11 -->
<g id="node11" class="node">
<title>Node11</title>
<g id="a_node11"><a xlink:title=" ">
<polygon fill="white" stroke="#bfbfbf" points="745.5,-112.5 745.5,-131.5 795.5,-131.5 795.5,-112.5 745.5,-112.5"/>
<text text-anchor="middle" x="770.5" y="-119.5" font-family="Helvetica,sans-Serif" font-size="10.00">cstdint</text>
</a>
</g>
</g>
<!-- Node1&#45;&gt;Node11 -->
<g id="edge11" class="edge">
<title>Node1&#45;&gt;Node11</title>
<path fill="none" stroke="midnightblue" d="M710.07,-168.32C720.92,-160.18 737.38,-147.84 750.38,-138.09"/>
<polygon fill="midnightblue" stroke="midnightblue" points="752.82,-140.63 758.72,-131.83 748.62,-135.03 752.82,-140.63"/>
</g>
<!-- Node12 -->
<g id="node12" class="node">
<title>Node12</title>
<g id="a_node12"><a xlink:title=" ">
<polygon fill="white" stroke="#bfbfbf" points="814,-112.5 814,-131.5 913,-131.5 913,-112.5 814,-112.5"/>
<text text-anchor="middle" x="863.5" y="-119.5" font-family="Helvetica,sans-Serif" font-size="10.00">odb/callback.hxx</text>
</a>
</g>
</g>
<!-- Node1&#45;&gt;Node12 -->
<g id="edge12" class="edge">
<title>Node1&#45;&gt;Node12</title>
<path fill="none" stroke="midnightblue" d="M724.64,-168.44C752.52,-159.32 796.85,-144.81 827.9,-134.65"/>
<polygon fill="midnightblue" stroke="midnightblue" points="829.06,-137.95 837.48,-131.52 826.88,-131.3 829.06,-137.95"/>
</g>
<!-- Node2&#45;&gt;Node3 -->
<g id="edge2" class="edge">
<title>Node2&#45;&gt;Node3</title>
<path fill="none" stroke="midnightblue" d="M558.75,-112.32C543.18,-103.74 519.12,-90.49 501.04,-80.52"/>
<polygon fill="midnightblue" stroke="midnightblue" points="502.65,-77.42 492.21,-75.65 499.28,-83.55 502.65,-77.42"/>
</g>
<!-- Node10 -->
<g id="node10" class="node">
<title>Node10</title>
<g id="a_node10"><a xlink:title=" ">
<polygon fill="white" stroke="#bfbfbf" points="545.5,-56.5 545.5,-75.5 603.5,-75.5 603.5,-56.5 545.5,-56.5"/>
<text text-anchor="middle" x="574.5" y="-63.5" font-family="Helvetica,sans-Serif" font-size="10.00">memory</text>
</a>
</g>
</g>
<!-- Node2&#45;&gt;Node10 -->
<g id="edge9" class="edge">
<title>Node2&#45;&gt;Node10</title>
<path fill="none" stroke="midnightblue" d="M574.5,-112.08C574.5,-105.01 574.5,-94.86 574.5,-85.99"/>
<polygon fill="midnightblue" stroke="midnightblue" points="578,-85.75 574.5,-75.75 571,-85.75 578,-85.75"/>
</g>
<!-- Node4 -->
<g id="node4" class="node">
<title>Node4</title>
<g id="a_node4"><a xlink:title=" ">
<polygon fill="white" stroke="#bfbfbf" points="276,-0.5 276,-19.5 401,-19.5 401,-0.5 276,-0.5"/>
<text text-anchor="middle" x="338.5" y="-7.5" font-family="Helvetica,sans-Serif" font-size="10.00">boost/lexical_cast.hpp</text>
</a>
</g>
</g>
<!-- Node3&#45;&gt;Node4 -->
<g id="edge3" class="edge">
<title>Node3&#45;&gt;Node4</title>
<path fill="none" stroke="midnightblue" d="M454.63,-56.44C431.72,-47.48 395.52,-33.31 369.63,-23.18"/>
<polygon fill="midnightblue" stroke="midnightblue" points="370.85,-19.9 360.26,-19.52 368.3,-26.42 370.85,-19.9"/>
</g>
<!-- Node5 -->
<g id="node5" class="node">
<title>Node5</title>
<g id="a_node5"><a xlink:title=" ">
<polygon fill="white" stroke="#bfbfbf" points="419,-0.5 419,-19.5 600,-19.5 600,-0.5 419,-0.5"/>
<text text-anchor="middle" x="509.5" y="-7.5" font-family="Helvetica,sans-Serif" font-size="10.00">boost/uuid/random_generator.hpp</text>
</a>
</g>
</g>
<!-- Node3&#45;&gt;Node5 -->
<g id="edge4" class="edge">
<title>Node3&#45;&gt;Node5</title>
<path fill="none" stroke="midnightblue" d="M481.95,-56.08C486.51,-48.61 493.17,-37.72 498.79,-28.52"/>
<polygon fill="midnightblue" stroke="midnightblue" points="501.92,-30.11 504.15,-19.75 495.95,-26.46 501.92,-30.11"/>
</g>
<!-- Node6 -->
<g id="node6" class="node">
<title>Node6</title>
<g id="a_node6"><a xlink:title=" ">
<polygon fill="white" stroke="#bfbfbf" points="0,-0.5 0,-19.5 113,-19.5 113,-0.5 0,-0.5"/>
<text text-anchor="middle" x="56.5" y="-7.5" font-family="Helvetica,sans-Serif" font-size="10.00">boost/uuid/uuid.hpp</text>
</a>
</g>
</g>
<!-- Node3&#45;&gt;Node6 -->
<g id="edge5" class="edge">
<title>Node3&#45;&gt;Node6</title>
<path fill="none" stroke="midnightblue" d="M432.76,-59.62C367.63,-51.57 241.02,-35.79 123.47,-20.25"/>
<polygon fill="midnightblue" stroke="midnightblue" points="123.59,-16.74 113.22,-18.89 122.67,-23.67 123.59,-16.74"/>
</g>
<!-- Node7 -->
<g id="node7" class="node">
<title>Node7</title>
<g id="a_node7"><a xlink:title=" ">
<polygon fill="white" stroke="#bfbfbf" points="131,-0.5 131,-19.5 258,-19.5 258,-0.5 131,-0.5"/>
<text text-anchor="middle" x="194.5" y="-7.5" font-family="Helvetica,sans-Serif" font-size="10.00">boost/uuid/uuid_io.hpp</text>
</a>
</g>
</g>
<!-- Node3&#45;&gt;Node7 -->
<g id="edge6" class="edge">
<title>Node3&#45;&gt;Node7</title>
<path fill="none" stroke="midnightblue" d="M432.75,-56.62C383.33,-47.16 302.85,-31.75 249.29,-21.49"/>
<polygon fill="midnightblue" stroke="midnightblue" points="249.77,-18.02 239.29,-19.58 248.45,-24.89 249.77,-18.02"/>
</g>
<!-- Node3&#45;&gt;Node8 -->
<g id="edge7" class="edge">
<title>Node3&#45;&gt;Node8</title>
<path fill="none" stroke="midnightblue" d="M505.34,-56.44C536.36,-47.24 585.83,-32.56 620.12,-22.39"/>
<polygon fill="midnightblue" stroke="midnightblue" points="621.21,-25.72 629.8,-19.52 619.21,-19.01 621.21,-25.72"/>
</g>
<!-- Node3&#45;&gt;Node9 -->
<g id="edge8" class="edge">
<title>Node3&#45;&gt;Node9</title>
<path fill="none" stroke="midnightblue" d="M520.18,-57.7C564.72,-49.99 636.01,-36.91 706.3,-20.12"/>
<polygon fill="midnightblue" stroke="midnightblue" points="707.31,-23.48 716.21,-17.73 705.67,-16.68 707.31,-23.48"/>
</g>
</g>
</svg>
