<?xml version="1.0" encoding="UTF-8" standalone="no"?>
<!DOCTYPE svg PUBLIC "-//W3C//DTD SVG 1.1//EN"
 "http://www.w3.org/Graphics/SVG/1.1/DTD/svg11.dtd">
<!-- Generated by graphviz version 2.43.0 (0)
 -->
<!-- Title: src/core/config/RemoteConfigCollector.cpp Pages: 1 -->
<svg width="2754pt" height="352pt"
 viewBox="0.00 0.00 2753.50 352.00" xmlns="http://www.w3.org/2000/svg" xmlns:xlink="http://www.w3.org/1999/xlink">
<g id="graph0" class="graph" transform="scale(1 1) rotate(0) translate(4 348)">
<title>src/core/config/RemoteConfigCollector.cpp</title>
<polygon fill="white" stroke="transparent" points="-4,4 -4,-348 2749.5,-348 2749.5,4 -4,4"/>
<!-- Node1 -->
<g id="node1" class="node">
<title>Node1</title>
<g id="a_node1"><a xlink:title=" ">
<polygon fill="#bfbfbf" stroke="black" points="813.5,-313.5 813.5,-343.5 972.5,-343.5 972.5,-313.5 813.5,-313.5"/>
<text text-anchor="start" x="821.5" y="-331.5" font-family="Helvetica,sans-Serif" font-size="10.00">src/core/config/RemoteConfig</text>
<text text-anchor="middle" x="893" y="-320.5" font-family="Helvetica,sans-Serif" font-size="10.00">Collector.cpp</text>
</a>
</g>
</g>
<!-- Node2 -->
<g id="node2" class="node">
<title>Node2</title>
<g id="a_node2"><a xlink:href="../../d9/d79/RemoteConfigCollector_8hpp.html" target="_top" xlink:title=" ">
<polygon fill="white" stroke="black" points="453,-179.5 453,-209.5 595,-209.5 595,-179.5 453,-179.5"/>
<text text-anchor="start" x="461" y="-197.5" font-family="Helvetica,sans-Serif" font-size="10.00">core/config/RemoteConfig</text>
<text text-anchor="middle" x="524" y="-186.5" font-family="Helvetica,sans-Serif" font-size="10.00">Collector.hpp</text>
</a>
</g>
</g>
<!-- Node1&#45;&gt;Node2 -->
<g id="edge1" class="edge">
<title>Node1&#45;&gt;Node2</title>
<path fill="none" stroke="midnightblue" d="M820.96,-313.49C781.65,-304.88 732.47,-292.51 690,-277 686.69,-275.79 609.66,-237.82 561.71,-214.14"/>
<polygon fill="midnightblue" stroke="midnightblue" points="563.05,-210.9 552.54,-209.61 559.95,-217.17 563.05,-210.9"/>
</g>
<!-- Node9 -->
<g id="node9" class="node">
<title>Node9</title>
<g id="a_node9"><a xlink:href="../../db/d79/ConfigManager_8hpp.html" target="_top" xlink:title=" ">
<polygon fill="white" stroke="black" points="698.5,-252 698.5,-271 865.5,-271 865.5,-252 698.5,-252"/>
<text text-anchor="middle" x="782" y="-259" font-family="Helvetica,sans-Serif" font-size="10.00">core/config/ConfigManager.hpp</text>
</a>
</g>
</g>
<!-- Node1&#45;&gt;Node9 -->
<g id="edge8" class="edge">
<title>Node1&#45;&gt;Node9</title>
<path fill="none" stroke="midnightblue" d="M868.91,-313.4C850.04,-302.34 823.94,-287.06 805.28,-276.13"/>
<polygon fill="midnightblue" stroke="midnightblue" points="806.93,-273.04 796.53,-271.01 803.39,-279.08 806.93,-273.04"/>
</g>
<!-- Node25 -->
<g id="node25" class="node">
<title>Node25</title>
<g id="a_node25"><a xlink:href="../../d4/d3d/log_8hpp.html" target="_top" xlink:title=" ">
<polygon fill="white" stroke="black" points="2434,-185 2434,-204 2514,-204 2514,-185 2434,-185"/>
<text text-anchor="middle" x="2474" y="-192" font-family="Helvetica,sans-Serif" font-size="10.00">tools/log.hpp</text>
</a>
</g>
</g>
<!-- Node1&#45;&gt;Node25 -->
<g id="edge77" class="edge">
<title>Node1&#45;&gt;Node25</title>
<path fill="none" stroke="midnightblue" d="M898.11,-313.46C905.94,-294.26 922.92,-260.53 950,-246 1022.23,-207.25 2344.03,-222.74 2425,-210 2429.89,-209.23 2434.98,-208.11 2439.94,-206.82"/>
<polygon fill="midnightblue" stroke="midnightblue" points="2441.2,-210.1 2449.86,-204.01 2439.29,-203.37 2441.2,-210.1"/>
</g>
<!-- Node30 -->
<g id="node30" class="node">
<title>Node30</title>
<g id="a_node30"><a xlink:href="../../d2/df7/FetchRemoteConfig_8hpp.html" target="_top" xlink:title=" ">
<polygon fill="white" stroke="black" points="431,-252 431,-271 617,-271 617,-252 431,-252"/>
<text text-anchor="middle" x="524" y="-259" font-family="Helvetica,sans-Serif" font-size="10.00">core/tasks/FetchRemoteConfig.hpp</text>
</a>
</g>
</g>
<!-- Node1&#45;&gt;Node30 -->
<g id="edge59" class="edge">
<title>Node1&#45;&gt;Node30</title>
<path fill="none" stroke="midnightblue" d="M813.39,-313.48C743.95,-301.24 644.82,-283.78 582.48,-272.8"/>
<polygon fill="midnightblue" stroke="midnightblue" points="582.87,-269.32 572.42,-271.03 581.66,-276.21 582.87,-269.32"/>
</g>
<!-- Node36 -->
<g id="node36" class="node">
<title>Node36</title>
<g id="a_node36"><a xlink:href="../../d0/d4f/GetRemoteConfigVersion_8hpp.html" target="_top" xlink:title=" ">
<polygon fill="white" stroke="black" points="257,-246.5 257,-276.5 413,-276.5 413,-246.5 257,-246.5"/>
<text text-anchor="start" x="265" y="-264.5" font-family="Helvetica,sans-Serif" font-size="10.00">core/tasks/GetRemoteConfig</text>
<text text-anchor="middle" x="335" y="-253.5" font-family="Helvetica,sans-Serif" font-size="10.00">Version.hpp</text>
</a>
</g>
</g>
<!-- Node1&#45;&gt;Node36 -->
<g id="edge69" class="edge">
<title>Node1&#45;&gt;Node36</title>
<path fill="none" stroke="midnightblue" d="M813.24,-320.38C721.63,-311.88 566.57,-296.5 423.5,-277.16"/>
<polygon fill="midnightblue" stroke="midnightblue" points="423.6,-273.64 413.22,-275.76 422.66,-280.58 423.6,-273.64"/>
</g>
<!-- Node37 -->
<g id="node37" class="node">
<title>Node37</title>
<g id="a_node37"><a xlink:href="../../dc/dbd/ExceptionsTools_8hpp.html" target="_top" xlink:title=" ">
<polygon fill="white" stroke="black" points="2248.5,-185 2248.5,-204 2415.5,-204 2415.5,-185 2248.5,-185"/>
<text text-anchor="middle" x="2332" y="-192" font-family="Helvetica,sans-Serif" font-size="10.00">exception/ExceptionsTools.hpp</text>
</a>
</g>
</g>
<!-- Node1&#45;&gt;Node37 -->
<g id="edge72" class="edge">
<title>Node1&#45;&gt;Node37</title>
<path fill="none" stroke="midnightblue" d="M892.54,-313.24C892.8,-294.42 896.43,-261.83 917,-246 975.05,-201.33 2162.03,-216.43 2235,-210 2247.19,-208.93 2260.18,-207.31 2272.56,-205.55"/>
<polygon fill="midnightblue" stroke="midnightblue" points="2273.41,-208.96 2282.79,-204.04 2272.39,-202.03 2273.41,-208.96"/>
</g>
<!-- Node38 -->
<g id="node38" class="node">
<title>Node38</title>
<g id="a_node38"><a xlink:href="../../df/d41/BuildString_8hpp.html" target="_top" xlink:title=" ">
<polygon fill="white" stroke="black" points="959,-252 959,-271 1077,-271 1077,-252 959,-252"/>
<text text-anchor="middle" x="1018" y="-259" font-family="Helvetica,sans-Serif" font-size="10.00">tools/BuildString.hpp</text>
</a>
</g>
</g>
<!-- Node1&#45;&gt;Node38 -->
<g id="edge74" class="edge">
<title>Node1&#45;&gt;Node38</title>
<path fill="none" stroke="midnightblue" d="M920.12,-313.4C941.67,-302.19 971.57,-286.64 992.64,-275.69"/>
<polygon fill="midnightblue" stroke="midnightblue" points="994.38,-278.73 1001.64,-271.01 991.15,-272.52 994.38,-278.73"/>
</g>
<!-- Node39 -->
<g id="node39" class="node">
<title>Node39</title>
<g id="a_node39"><a xlink:href="../../de/d35/XmlPropertyTree_8hpp.html" target="_top" xlink:title=" ">
<polygon fill="white" stroke="black" points="1095,-252 1095,-271 1241,-271 1241,-252 1095,-252"/>
<text text-anchor="middle" x="1168" y="-259" font-family="Helvetica,sans-Serif" font-size="10.00">tools/XmlPropertyTree.hpp</text>
</a>
</g>
</g>
<!-- Node1&#45;&gt;Node39 -->
<g id="edge75" class="edge">
<title>Node1&#45;&gt;Node39</title>
<path fill="none" stroke="midnightblue" d="M952.33,-313.48C1003.23,-301.45 1075.52,-284.36 1122.1,-273.35"/>
<polygon fill="midnightblue" stroke="midnightblue" points="1122.99,-276.74 1131.92,-271.03 1121.38,-269.92 1122.99,-276.74"/>
</g>
<!-- Node41 -->
<g id="node41" class="node">
<title>Node41</title>
<g id="a_node41"><a xlink:title=" ">
<polygon fill="white" stroke="#bfbfbf" points="1259.5,-252 1259.5,-271 1360.5,-271 1360.5,-252 1259.5,-252"/>
<text text-anchor="middle" x="1310" y="-259" font-family="Helvetica,sans-Serif" font-size="10.00">zmqpp/curve.hpp</text>
</a>
</g>
</g>
<!-- Node1&#45;&gt;Node41 -->
<g id="edge78" class="edge">
<title>Node1&#45;&gt;Node41</title>
<path fill="none" stroke="midnightblue" d="M972.77,-318.46C1045.36,-309.69 1155.32,-295.09 1250,-277 1255.53,-275.94 1261.31,-274.71 1267.01,-273.42"/>
<polygon fill="midnightblue" stroke="midnightblue" points="1268.18,-276.74 1277.11,-271.05 1266.58,-269.93 1268.18,-276.74"/>
</g>
<!-- Node3 -->
<g id="node3" class="node">
<title>Node3</title>
<g id="a_node3"><a xlink:title=" ">
<polygon fill="white" stroke="#bfbfbf" points="467.5,-112.5 467.5,-142.5 580.5,-142.5 580.5,-112.5 467.5,-112.5"/>
<text text-anchor="start" x="475.5" y="-130.5" font-family="Helvetica,sans-Serif" font-size="10.00">boost/property_tree</text>
<text text-anchor="middle" x="524" y="-119.5" font-family="Helvetica,sans-Serif" font-size="10.00">/ptree.hpp</text>
</a>
</g>
</g>
<!-- Node2&#45;&gt;Node3 -->
<g id="edge2" class="edge">
<title>Node2&#45;&gt;Node3</title>
<path fill="none" stroke="midnightblue" d="M524,-179.4C524,-171.64 524,-161.81 524,-152.86"/>
<polygon fill="midnightblue" stroke="midnightblue" points="527.5,-152.58 524,-142.58 520.5,-152.58 527.5,-152.58"/>
</g>
<!-- Node4 -->
<g id="node4" class="node">
<title>Node4</title>
<g id="a_node4"><a xlink:title=" ">
<polygon fill="white" stroke="#bfbfbf" points="599,-118 599,-137 637,-137 637,-118 599,-118"/>
<text text-anchor="middle" x="618" y="-125" font-family="Helvetica,sans-Serif" font-size="10.00">map</text>
</a>
</g>
</g>
<!-- Node2&#45;&gt;Node4 -->
<g id="edge3" class="edge">
<title>Node2&#45;&gt;Node4</title>
<path fill="none" stroke="midnightblue" d="M544.4,-179.4C560.01,-168.6 581.48,-153.76 597.19,-142.89"/>
<polygon fill="midnightblue" stroke="midnightblue" points="599.46,-145.57 605.7,-137.01 595.48,-139.82 599.46,-145.57"/>
</g>
<!-- Node5 -->
<g id="node5" class="node">
<title>Node5</title>
<g id="a_node5"><a xlink:title=" ">
<polygon fill="white" stroke="#bfbfbf" points="315,-118 315,-137 373,-137 373,-118 315,-118"/>
<text text-anchor="middle" x="344" y="-125" font-family="Helvetica,sans-Serif" font-size="10.00">memory</text>
</a>
</g>
</g>
<!-- Node2&#45;&gt;Node5 -->
<g id="edge4" class="edge">
<title>Node2&#45;&gt;Node5</title>
<path fill="none" stroke="midnightblue" d="M484.94,-179.4C452.8,-167.79 407.73,-151.51 377.28,-140.52"/>
<polygon fill="midnightblue" stroke="midnightblue" points="378.15,-137.11 367.56,-137.01 375.77,-143.7 378.15,-137.11"/>
</g>
<!-- Node6 -->
<g id="node6" class="node">
<title>Node6</title>
<g id="a_node6"><a xlink:title=" ">
<polygon fill="white" stroke="#bfbfbf" points="1698,-0.5 1698,-19.5 1742,-19.5 1742,-0.5 1698,-0.5"/>
<text text-anchor="middle" x="1720" y="-7.5" font-family="Helvetica,sans-Serif" font-size="10.00">string</text>
</a>
</g>
</g>
<!-- Node2&#45;&gt;Node6 -->
<g id="edge5" class="edge">
<title>Node2&#45;&gt;Node6</title>
<path fill="none" stroke="midnightblue" d="M489.31,-179.34C474.04,-171.15 457.63,-159.21 449,-143 442.53,-130.84 441.28,-123.41 449,-112 486.57,-56.51 523.46,-69.98 589,-56 806.93,-9.52 1526.35,-10.08 1687.7,-10.81"/>
<polygon fill="midnightblue" stroke="midnightblue" points="1687.9,-14.31 1697.92,-10.86 1687.94,-7.31 1687.9,-14.31"/>
</g>
<!-- Node7 -->
<g id="node7" class="node">
<title>Node7</title>
<g id="a_node7"><a xlink:title=" ">
<polygon fill="white" stroke="#bfbfbf" points="598.5,-56.5 598.5,-75.5 645.5,-75.5 645.5,-56.5 598.5,-56.5"/>
<text text-anchor="middle" x="622" y="-63.5" font-family="Helvetica,sans-Serif" font-size="10.00">vector</text>
</a>
</g>
</g>
<!-- Node2&#45;&gt;Node7 -->
<g id="edge6" class="edge">
<title>Node2&#45;&gt;Node7</title>
<path fill="none" stroke="midnightblue" d="M498.47,-179.27C472.86,-163.17 439.67,-136.03 458,-112 473.71,-91.4 544.98,-77.89 588.23,-71.44"/>
<polygon fill="midnightblue" stroke="midnightblue" points="588.91,-74.87 598.31,-69.98 587.91,-67.95 588.91,-74.87"/>
</g>
<!-- Node8 -->
<g id="node8" class="node">
<title>Node8</title>
<g id="a_node8"><a xlink:title=" ">
<polygon fill="white" stroke="#bfbfbf" points="655.5,-118 655.5,-137 762.5,-137 762.5,-118 655.5,-118"/>
<text text-anchor="middle" x="709" y="-125" font-family="Helvetica,sans-Serif" font-size="10.00">zmqpp/zmqpp.hpp</text>
</a>
</g>
</g>
<!-- Node2&#45;&gt;Node8 -->
<g id="edge7" class="edge">
<title>Node2&#45;&gt;Node8</title>
<path fill="none" stroke="midnightblue" d="M564.14,-179.4C597.32,-167.74 643.9,-151.37 675.2,-140.38"/>
<polygon fill="midnightblue" stroke="midnightblue" points="676.51,-143.62 684.79,-137.01 674.19,-137.02 676.51,-143.62"/>
</g>
<!-- Node9&#45;&gt;Node3 -->
<g id="edge53" class="edge">
<title>Node9&#45;&gt;Node3</title>
<path fill="none" stroke="midnightblue" d="M764.99,-251.97C745.07,-241.96 711.1,-224.85 682,-210 640.09,-188.61 592.06,-163.79 560.07,-147.22"/>
<polygon fill="midnightblue" stroke="midnightblue" points="561.57,-144.05 551.08,-142.56 558.35,-150.27 561.57,-144.05"/>
</g>
<!-- Node9&#45;&gt;Node4 -->
<g id="edge54" class="edge">
<title>Node9&#45;&gt;Node4</title>
<path fill="none" stroke="midnightblue" d="M771.24,-251.84C743.78,-229.74 670.85,-171.04 636.45,-143.35"/>
<polygon fill="midnightblue" stroke="midnightblue" points="638.57,-140.56 628.59,-137.02 634.18,-146.02 638.57,-140.56"/>
</g>
<!-- Node9&#45;&gt;Node5 -->
<g id="edge55" class="edge">
<title>Node9&#45;&gt;Node5</title>
<path fill="none" stroke="midnightblue" d="M698.49,-253.12C613.55,-244.72 488.3,-229.57 444,-210 409.2,-194.62 376.56,-163.77 358.53,-144.75"/>
<polygon fill="midnightblue" stroke="midnightblue" points="360.88,-142.14 351.52,-137.17 355.74,-146.89 360.88,-142.14"/>
</g>
<!-- Node9&#45;&gt;Node6 -->
<g id="edge56" class="edge">
<title>Node9&#45;&gt;Node6</title>
<path fill="none" stroke="midnightblue" d="M840.08,-251.98C857.1,-249.73 875.77,-247.52 893,-246 1041.09,-232.96 2128.48,-254.33 2227,-143 2289.28,-72.63 2204.9,-82.68 2115,-56 1984.68,-17.32 1821.07,-11.52 1752.54,-10.9"/>
<polygon fill="midnightblue" stroke="midnightblue" points="1752.4,-7.4 1742.38,-10.85 1752.36,-14.4 1752.4,-7.4"/>
</g>
<!-- Node9&#45;&gt;Node7 -->
<g id="edge57" class="edge">
<title>Node9&#45;&gt;Node7</title>
<path fill="none" stroke="midnightblue" d="M784.35,-251.94C790.6,-227.15 804.96,-154.36 771,-112 743.43,-77.61 690.5,-68.77 655.72,-66.89"/>
<polygon fill="midnightblue" stroke="midnightblue" points="655.68,-63.39 645.56,-66.51 655.42,-70.38 655.68,-63.39"/>
</g>
<!-- Node9&#45;&gt;Node8 -->
<g id="edge58" class="edge">
<title>Node9&#45;&gt;Node8</title>
<path fill="none" stroke="midnightblue" d="M777.21,-251.84C765.35,-230.39 734.43,-174.49 718.62,-145.9"/>
<polygon fill="midnightblue" stroke="midnightblue" points="721.61,-144.08 713.71,-137.02 715.49,-147.47 721.61,-144.08"/>
</g>
<!-- Node10 -->
<g id="node10" class="node">
<title>Node10</title>
<g id="a_node10"><a xlink:href="../../d1/ddd/leosacexception_8hpp.html" target="_top" xlink:title="Exception class for LEOSAC Project related errors.">
<polygon fill="white" stroke="black" points="1503,-185 1503,-204 1671,-204 1671,-185 1503,-185"/>
<text text-anchor="middle" x="1587" y="-192" font-family="Helvetica,sans-Serif" font-size="10.00">exception/leosacexception.hpp</text>
</a>
</g>
</g>
<!-- Node9&#45;&gt;Node10 -->
<g id="edge9" class="edge">
<title>Node9&#45;&gt;Node10</title>
<path fill="none" stroke="midnightblue" d="M834.01,-251.97C848.54,-249.79 864.36,-247.61 879,-246 1098.06,-221.85 1356.58,-206.8 1492.52,-199.92"/>
<polygon fill="midnightblue" stroke="midnightblue" points="1493.08,-203.39 1502.89,-199.39 1492.73,-196.4 1493.08,-203.39"/>
</g>
<!-- Node9&#45;&gt;Node25 -->
<g id="edge46" class="edge">
<title>Node9&#45;&gt;Node25</title>
<path fill="none" stroke="midnightblue" d="M850.93,-251.98C872.09,-249.66 895.48,-247.41 917,-246 1251.49,-224.08 2093.85,-262.01 2425,-210 2429.89,-209.23 2434.98,-208.11 2439.95,-206.82"/>
<polygon fill="midnightblue" stroke="midnightblue" points="2441.2,-210.11 2449.86,-204.02 2439.29,-203.37 2441.2,-210.11"/>
</g>
<!-- Node10&#45;&gt;Node6 -->
<g id="edge15" class="edge">
<title>Node10&#45;&gt;Node6</title>
<path fill="none" stroke="midnightblue" d="M1671.01,-190.41C1798.79,-184.84 2029.87,-170.99 2055,-143 2144.05,-43.82 1852.34,-18.28 1752.38,-12.52"/>
<polygon fill="midnightblue" stroke="midnightblue" points="1752.43,-9.01 1742.25,-11.96 1752.04,-16 1752.43,-9.01"/>
</g>
<!-- Node11 -->
<g id="node11" class="node">
<title>Node11</title>
<g id="a_node11"><a xlink:href="../../d6/d2f/Stacktrace_8hpp.html" target="_top" xlink:title=" ">
<polygon fill="white" stroke="black" points="819,-118 819,-137 935,-137 935,-118 819,-118"/>
<text text-anchor="middle" x="877" y="-125" font-family="Helvetica,sans-Serif" font-size="10.00">tools/Stacktrace.hpp</text>
</a>
</g>
</g>
<!-- Node10&#45;&gt;Node11 -->
<g id="edge10" class="edge">
<title>Node10&#45;&gt;Node11</title>
<path fill="none" stroke="midnightblue" d="M1502.99,-190.42C1379.99,-185.11 1143.88,-171.9 945,-143 937.77,-141.95 930.16,-140.59 922.76,-139.12"/>
<polygon fill="midnightblue" stroke="midnightblue" points="923.34,-135.66 912.84,-137.06 921.92,-142.52 923.34,-135.66"/>
</g>
<!-- Node12 -->
<g id="node12" class="node">
<title>Node12</title>
<g id="a_node12"><a xlink:title=" ">
<polygon fill="white" stroke="#bfbfbf" points="1349.5,-118 1349.5,-137 1402.5,-137 1402.5,-118 1349.5,-118"/>
<text text-anchor="middle" x="1376" y="-125" font-family="Helvetica,sans-Serif" font-size="10.00">cstddef</text>
</a>
</g>
</g>
<!-- Node10&#45;&gt;Node12 -->
<g id="edge13" class="edge">
<title>Node10&#45;&gt;Node12</title>
<path fill="none" stroke="midnightblue" d="M1553.79,-185C1518.35,-175.68 1460.73,-159.8 1412,-143 1410.09,-142.34 1408.13,-141.64 1406.16,-140.91"/>
<polygon fill="midnightblue" stroke="midnightblue" points="1407.01,-137.49 1396.42,-137.15 1404.49,-144.01 1407.01,-137.49"/>
</g>
<!-- Node13 -->
<g id="node13" class="node">
<title>Node13</title>
<g id="a_node13"><a xlink:title=" ">
<polygon fill="white" stroke="#bfbfbf" points="2274.5,-118 2274.5,-137 2339.5,-137 2339.5,-118 2274.5,-118"/>
<text text-anchor="middle" x="2307" y="-125" font-family="Helvetica,sans-Serif" font-size="10.00">exception</text>
</a>
</g>
</g>
<!-- Node10&#45;&gt;Node13 -->
<g id="edge14" class="edge">
<title>Node10&#45;&gt;Node13</title>
<path fill="none" stroke="midnightblue" d="M1671.15,-189.56C1793.77,-183.21 2028.6,-168.74 2227,-143 2239.25,-141.41 2252.47,-139.21 2264.57,-137.01"/>
<polygon fill="midnightblue" stroke="midnightblue" points="2265.23,-140.45 2274.42,-135.17 2263.95,-133.57 2265.23,-140.45"/>
</g>
<!-- Node14 -->
<g id="node14" class="node">
<title>Node14</title>
<g id="a_node14"><a xlink:href="../../d7/d7a/configexception_8hpp.html" target="_top" xlink:title=" ">
<polygon fill="white" stroke="black" points="2102.5,-118 2102.5,-137 2217.5,-137 2217.5,-118 2102.5,-118"/>
<text text-anchor="middle" x="2160" y="-125" font-family="Helvetica,sans-Serif" font-size="10.00">configexception.hpp</text>
</a>
</g>
</g>
<!-- Node10&#45;&gt;Node14 -->
<g id="edge16" class="edge">
<title>Node10&#45;&gt;Node14</title>
<path fill="none" stroke="midnightblue" d="M1671.25,-187.04C1769.47,-179.26 1936.37,-164.5 2079,-143 2086.62,-141.85 2094.66,-140.44 2102.62,-138.94"/>
<polygon fill="midnightblue" stroke="midnightblue" points="2103.44,-142.35 2112.6,-137.03 2102.12,-135.47 2103.44,-142.35"/>
</g>
<!-- Node17 -->
<g id="node17" class="node">
<title>Node17</title>
<g id="a_node17"><a xlink:href="../../d8/db0/coreexception_8hpp.html" target="_top" xlink:title="Exception class for Core related errors.">
<polygon fill="white" stroke="black" points="953.5,-118 953.5,-137 1060.5,-137 1060.5,-118 953.5,-118"/>
<text text-anchor="middle" x="1007" y="-125" font-family="Helvetica,sans-Serif" font-size="10.00">coreexception.hpp</text>
</a>
</g>
</g>
<!-- Node10&#45;&gt;Node17 -->
<g id="edge22" class="edge">
<title>Node10&#45;&gt;Node17</title>
<path fill="none" stroke="midnightblue" d="M1502.89,-189.03C1398.53,-182.48 1215.65,-168.24 1061,-143 1054.68,-141.97 1048.04,-140.67 1041.64,-139.29"/>
<polygon fill="midnightblue" stroke="midnightblue" points="1042.4,-135.87 1031.87,-137.06 1040.84,-142.7 1042.4,-135.87"/>
</g>
<!-- Node18 -->
<g id="node18" class="node">
<title>Node18</title>
<g id="a_node18"><a xlink:href="../../d8/d77/deviceexception_8hpp.html" target="_top" xlink:title="Exception class for Device related errors.">
<polygon fill="white" stroke="black" points="1079,-118 1079,-137 1197,-137 1197,-118 1079,-118"/>
<text text-anchor="middle" x="1138" y="-125" font-family="Helvetica,sans-Serif" font-size="10.00">deviceexception.hpp</text>
</a>
</g>
</g>
<!-- Node10&#45;&gt;Node18 -->
<g id="edge25" class="edge">
<title>Node10&#45;&gt;Node18</title>
<path fill="none" stroke="midnightblue" d="M1502.91,-185.06C1423.58,-176.2 1301.71,-161.07 1197,-143 1190.44,-141.87 1183.56,-140.55 1176.88,-139.18"/>
<polygon fill="midnightblue" stroke="midnightblue" points="1177.14,-135.66 1166.63,-137.01 1175.68,-142.51 1177.14,-135.66"/>
</g>
<!-- Node19 -->
<g id="node19" class="node">
<title>Node19</title>
<g id="a_node19"><a xlink:href="../../db/d35/dynlibexception_8hpp.html" target="_top" xlink:title="Exception class for DynLib related errors.">
<polygon fill="white" stroke="black" points="1215,-118 1215,-137 1331,-137 1331,-118 1215,-118"/>
<text text-anchor="middle" x="1273" y="-125" font-family="Helvetica,sans-Serif" font-size="10.00">dynlibexception.hpp</text>
</a>
</g>
</g>
<!-- Node10&#45;&gt;Node19 -->
<g id="edge28" class="edge">
<title>Node10&#45;&gt;Node19</title>
<path fill="none" stroke="midnightblue" d="M1538.28,-184.93C1486.74,-174.96 1403.48,-157.96 1332,-143 1326.17,-141.78 1320.06,-140.49 1314.07,-139.21"/>
<polygon fill="midnightblue" stroke="midnightblue" points="1314.66,-135.76 1304.15,-137.06 1313.18,-142.6 1314.66,-135.76"/>
</g>
<!-- Node20 -->
<g id="node20" class="node">
<title>Node20</title>
<g id="a_node20"><a xlink:href="../../d0/d4e/fsexception_8hpp.html" target="_top" xlink:title="Exception class for filesystem related errors.">
<polygon fill="white" stroke="black" points="1420.5,-118 1420.5,-137 1515.5,-137 1515.5,-118 1420.5,-118"/>
<text text-anchor="middle" x="1468" y="-125" font-family="Helvetica,sans-Serif" font-size="10.00">fsexception.hpp</text>
</a>
</g>
</g>
<!-- Node10&#45;&gt;Node20 -->
<g id="edge31" class="edge">
<title>Node10&#45;&gt;Node20</title>
<path fill="none" stroke="midnightblue" d="M1566.44,-184.87C1544.3,-174.04 1509.75,-155.33 1487.89,-142.45"/>
<polygon fill="midnightblue" stroke="midnightblue" points="1489.47,-139.32 1479.1,-137.17 1485.86,-145.32 1489.47,-139.32"/>
</g>
<!-- Node21 -->
<g id="node21" class="node">
<title>Node21</title>
<g id="a_node21"><a xlink:href="../../d1/d8e/gpioexception_8hpp.html" target="_top" xlink:title="Exception class for Gpio related errors.">
<polygon fill="white" stroke="black" points="1533.5,-118 1533.5,-137 1640.5,-137 1640.5,-118 1533.5,-118"/>
<text text-anchor="middle" x="1587" y="-125" font-family="Helvetica,sans-Serif" font-size="10.00">gpioexception.hpp</text>
</a>
</g>
</g>
<!-- Node10&#45;&gt;Node21 -->
<g id="edge34" class="edge">
<title>Node10&#45;&gt;Node21</title>
<path fill="none" stroke="midnightblue" d="M1582.21,-184.73C1580.2,-175.18 1579.74,-159.62 1580.82,-147.28"/>
<polygon fill="midnightblue" stroke="midnightblue" points="1584.32,-147.52 1582.24,-137.13 1577.38,-146.54 1584.32,-147.52"/>
</g>
<!-- Node22 -->
<g id="node22" class="node">
<title>Node22</title>
<g id="a_node22"><a xlink:href="../../d7/d8c/moduleexception_8hpp.html" target="_top" xlink:title="Exception class for modules.">
<polygon fill="white" stroke="black" points="1659,-118 1659,-137 1781,-137 1781,-118 1659,-118"/>
<text text-anchor="middle" x="1720" y="-125" font-family="Helvetica,sans-Serif" font-size="10.00">moduleexception.hpp</text>
</a>
</g>
</g>
<!-- Node10&#45;&gt;Node22 -->
<g id="edge37" class="edge">
<title>Node10&#45;&gt;Node22</title>
<path fill="none" stroke="midnightblue" d="M1600.15,-184.73C1620.63,-173.57 1660.02,-154.21 1688.16,-141.37"/>
<polygon fill="midnightblue" stroke="midnightblue" points="1689.9,-144.42 1697.59,-137.13 1687.03,-138.04 1689.9,-144.42"/>
</g>
<!-- Node23 -->
<g id="node23" class="node">
<title>Node23</title>
<g id="a_node23"><a xlink:href="../../df/d8d/scriptexception_8hpp.html" target="_top" xlink:title="Exception class for Script related errors.">
<polygon fill="white" stroke="black" points="1799.5,-118 1799.5,-137 1912.5,-137 1912.5,-118 1799.5,-118"/>
<text text-anchor="middle" x="1856" y="-125" font-family="Helvetica,sans-Serif" font-size="10.00">scriptexception.hpp</text>
</a>
</g>
</g>
<!-- Node10&#45;&gt;Node23 -->
<g id="edge40" class="edge">
<title>Node10&#45;&gt;Node23</title>
<path fill="none" stroke="midnightblue" d="M1617.7,-184.94C1663.67,-173.22 1750.54,-152.19 1805.8,-139.38"/>
<polygon fill="midnightblue" stroke="midnightblue" points="1806.77,-142.74 1815.73,-137.08 1805.2,-135.92 1806.77,-142.74"/>
</g>
<!-- Node24 -->
<g id="node24" class="node">
<title>Node24</title>
<g id="a_node24"><a xlink:href="../../dc/dce/signalexception_8hpp.html" target="_top" xlink:title="Exception class for Signal related errors.">
<polygon fill="white" stroke="black" points="1930.5,-118 1930.5,-137 2045.5,-137 2045.5,-118 1930.5,-118"/>
<text text-anchor="middle" x="1988" y="-125" font-family="Helvetica,sans-Serif" font-size="10.00">signalexception.hpp</text>
</a>
</g>
</g>
<!-- Node10&#45;&gt;Node24 -->
<g id="edge43" class="edge">
<title>Node10&#45;&gt;Node24</title>
<path fill="none" stroke="midnightblue" d="M1645.63,-184.96C1711.05,-175.81 1819.74,-160.25 1913,-143 1919.21,-141.85 1925.72,-140.55 1932.22,-139.2"/>
<polygon fill="midnightblue" stroke="midnightblue" points="1933.32,-142.55 1942.38,-137.06 1931.88,-135.69 1933.32,-142.55"/>
</g>
<!-- Node11&#45;&gt;Node6 -->
<g id="edge11" class="edge">
<title>Node11&#45;&gt;Node6</title>
<path fill="none" stroke="midnightblue" d="M916.16,-117.97C925.59,-115.97 935.65,-113.87 945,-112 1078,-85.41 1110.68,-74.86 1245,-56 1410.7,-32.73 1610.65,-18.17 1687.63,-13.06"/>
<polygon fill="midnightblue" stroke="midnightblue" points="1687.91,-16.55 1697.66,-12.4 1687.45,-9.56 1687.91,-16.55"/>
</g>
<!-- Node11&#45;&gt;Node7 -->
<g id="edge12" class="edge">
<title>Node11&#45;&gt;Node7</title>
<path fill="none" stroke="midnightblue" d="M840.46,-117.98C790.94,-106.42 703.21,-85.95 655.38,-74.79"/>
<polygon fill="midnightblue" stroke="midnightblue" points="656.06,-71.35 645.52,-72.49 654.47,-78.17 656.06,-71.35"/>
</g>
<!-- Node14&#45;&gt;Node6 -->
<g id="edge21" class="edge">
<title>Node14&#45;&gt;Node6</title>
<path fill="none" stroke="midnightblue" d="M2154.08,-117.73C2143.11,-102.26 2117.96,-70.41 2088,-56 2029,-27.62 1831.39,-15.93 1752.72,-12.32"/>
<polygon fill="midnightblue" stroke="midnightblue" points="1752.58,-8.81 1742.43,-11.87 1752.27,-15.81 1752.58,-8.81"/>
</g>
<!-- Node14&#45;&gt;Node10 -->
<g id="edge17" class="edge">
<title>Node14&#45;&gt;Node10</title>
<path fill="none" stroke="midnightblue" d="M2129.92,-137.03C2119.53,-139.19 2107.84,-141.37 2097,-143 1952.9,-164.72 1784.03,-179.57 1681.27,-187.28"/>
<polygon fill="midnightblue" stroke="midnightblue" points="1680.94,-183.8 1671.23,-188.03 1681.46,-190.78 1680.94,-183.8"/>
</g>
<!-- Node15 -->
<g id="node15" class="node">
<title>Node15</title>
<g id="a_node15"><a xlink:href="../../dd/d35/Colorize_8hpp.html" target="_top" xlink:title=" ">
<polygon fill="white" stroke="black" points="2396,-56.5 2396,-75.5 2500,-75.5 2500,-56.5 2396,-56.5"/>
<text text-anchor="middle" x="2448" y="-63.5" font-family="Helvetica,sans-Serif" font-size="10.00">tools/Colorize.hpp</text>
</a>
</g>
</g>
<!-- Node14&#45;&gt;Node15 -->
<g id="edge18" class="edge">
<title>Node14&#45;&gt;Node15</title>
<path fill="none" stroke="midnightblue" d="M2201.26,-117.98C2252.8,-107.33 2340.98,-89.11 2396.79,-77.58"/>
<polygon fill="midnightblue" stroke="midnightblue" points="2397.73,-80.96 2406.81,-75.51 2396.31,-74.1 2397.73,-80.96"/>
</g>
<!-- Node15&#45;&gt;Node6 -->
<g id="edge20" class="edge">
<title>Node15&#45;&gt;Node6</title>
<path fill="none" stroke="midnightblue" d="M2395.8,-57.55C2391.14,-56.99 2386.49,-56.46 2382,-56 2140.61,-31.37 1848.29,-16.81 1752.26,-12.42"/>
<polygon fill="midnightblue" stroke="midnightblue" points="1752.19,-8.91 1742.05,-11.96 1751.88,-15.9 1752.19,-8.91"/>
</g>
<!-- Node16 -->
<g id="node16" class="node">
<title>Node16</title>
<g id="a_node16"><a xlink:title=" ">
<polygon fill="white" stroke="#bfbfbf" points="2529,-0.5 2529,-19.5 2585,-19.5 2585,-0.5 2529,-0.5"/>
<text text-anchor="middle" x="2557" y="-7.5" font-family="Helvetica,sans-Serif" font-size="10.00">sstream</text>
</a>
</g>
</g>
<!-- Node15&#45;&gt;Node16 -->
<g id="edge19" class="edge">
<title>Node15&#45;&gt;Node16</title>
<path fill="none" stroke="midnightblue" d="M2465.51,-56.32C2483.07,-47.62 2510.33,-34.12 2530.53,-24.11"/>
<polygon fill="midnightblue" stroke="midnightblue" points="2532.12,-27.23 2539.53,-19.65 2529.02,-20.96 2532.12,-27.23"/>
</g>
<!-- Node17&#45;&gt;Node6 -->
<g id="edge23" class="edge">
<title>Node17&#45;&gt;Node6</title>
<path fill="none" stroke="midnightblue" d="M1042.92,-117.96C1051.76,-115.93 1061.21,-113.83 1070,-112 1202.79,-84.34 1236.02,-77.1 1370,-56 1486.46,-37.66 1625.62,-21.46 1687.53,-14.55"/>
<polygon fill="midnightblue" stroke="midnightblue" points="1688.27,-17.99 1697.83,-13.41 1687.5,-11.03 1688.27,-17.99"/>
</g>
<!-- Node17&#45;&gt;Node10 -->
<g id="edge24" class="edge">
<title>Node17&#45;&gt;Node10</title>
<path fill="none" stroke="midnightblue" d="M1049.16,-137.06C1059,-139.25 1069.36,-141.43 1079,-143 1222.63,-166.44 1390.62,-180.4 1492.93,-187.51"/>
<polygon fill="midnightblue" stroke="midnightblue" points="1492.71,-191 1502.93,-188.2 1493.19,-184.02 1492.71,-191"/>
</g>
<!-- Node18&#45;&gt;Node6 -->
<g id="edge26" class="edge">
<title>Node18&#45;&gt;Node6</title>
<path fill="none" stroke="midnightblue" d="M1175.67,-117.9C1236.42,-104.13 1359.85,-76.61 1465,-56 1544.94,-40.33 1639.47,-24.3 1687.89,-16.27"/>
<polygon fill="midnightblue" stroke="midnightblue" points="1688.48,-19.72 1697.78,-14.63 1687.34,-12.81 1688.48,-19.72"/>
</g>
<!-- Node18&#45;&gt;Node10 -->
<g id="edge27" class="edge">
<title>Node18&#45;&gt;Node10</title>
<path fill="none" stroke="midnightblue" d="M1183.99,-137.01C1194.25,-139.12 1205.01,-141.28 1215,-143 1314.69,-160.21 1429.94,-174.75 1505.48,-183.74"/>
<polygon fill="midnightblue" stroke="midnightblue" points="1505.53,-187.27 1515.87,-184.97 1506.35,-180.32 1505.53,-187.27"/>
</g>
<!-- Node19&#45;&gt;Node6 -->
<g id="edge29" class="edge">
<title>Node19&#45;&gt;Node6</title>
<path fill="none" stroke="midnightblue" d="M1306.23,-117.91C1389.47,-96.4 1606.09,-40.43 1688,-19.27"/>
<polygon fill="midnightblue" stroke="midnightblue" points="1688.94,-22.64 1697.75,-16.75 1687.19,-15.86 1688.94,-22.64"/>
</g>
<!-- Node19&#45;&gt;Node10 -->
<g id="edge30" class="edge">
<title>Node19&#45;&gt;Node10</title>
<path fill="none" stroke="midnightblue" d="M1321.66,-137.06C1331.13,-139.03 1340.9,-141.1 1350,-143 1416.59,-156.94 1493.41,-172.65 1541.2,-182.79"/>
<polygon fill="midnightblue" stroke="midnightblue" points="1540.73,-186.27 1551.24,-184.93 1542.18,-179.42 1540.73,-186.27"/>
</g>
<!-- Node20&#45;&gt;Node6 -->
<g id="edge32" class="edge">
<title>Node20&#45;&gt;Node6</title>
<path fill="none" stroke="midnightblue" d="M1486.94,-117.82C1530.92,-97.66 1640.15,-47.6 1691.92,-23.87"/>
<polygon fill="midnightblue" stroke="midnightblue" points="1693.55,-26.97 1701.18,-19.62 1690.63,-20.61 1693.55,-26.97"/>
</g>
<!-- Node20&#45;&gt;Node10 -->
<g id="edge33" class="edge">
<title>Node20&#45;&gt;Node10</title>
<path fill="none" stroke="midnightblue" d="M1488.55,-137.13C1510.63,-147.93 1545.06,-166.57 1566.94,-179.44"/>
<polygon fill="midnightblue" stroke="midnightblue" points="1565.37,-182.58 1575.74,-184.73 1568.97,-176.58 1565.37,-182.58"/>
</g>
<!-- Node21&#45;&gt;Node6 -->
<g id="edge36" class="edge">
<title>Node21&#45;&gt;Node6</title>
<path fill="none" stroke="midnightblue" d="M1597,-117.82C1619.43,-98.34 1674.03,-50.92 1702.33,-26.34"/>
<polygon fill="midnightblue" stroke="midnightblue" points="1704.63,-28.98 1709.89,-19.78 1700.04,-23.7 1704.63,-28.98"/>
</g>
<!-- Node21&#45;&gt;Node10 -->
<g id="edge35" class="edge">
<title>Node21&#45;&gt;Node10</title>
<path fill="none" stroke="midnightblue" d="M1591.76,-137.13C1593.78,-146.62 1594.26,-162.17 1593.2,-174.54"/>
<polygon fill="midnightblue" stroke="midnightblue" points="1589.69,-174.35 1591.79,-184.73 1596.63,-175.31 1589.69,-174.35"/>
</g>
<!-- Node22&#45;&gt;Node6 -->
<g id="edge38" class="edge">
<title>Node22&#45;&gt;Node6</title>
<path fill="none" stroke="midnightblue" d="M1720,-117.82C1720,-99.26 1720,-55.34 1720,-29.97"/>
<polygon fill="midnightblue" stroke="midnightblue" points="1723.5,-29.78 1720,-19.78 1716.5,-29.78 1723.5,-29.78"/>
</g>
<!-- Node22&#45;&gt;Node10 -->
<g id="edge39" class="edge">
<title>Node22&#45;&gt;Node10</title>
<path fill="none" stroke="midnightblue" d="M1707.03,-137.17C1686.61,-148.31 1647.09,-167.74 1618.88,-180.61"/>
<polygon fill="midnightblue" stroke="midnightblue" points="1617.1,-177.57 1609.42,-184.87 1619.98,-183.96 1617.1,-177.57"/>
</g>
<!-- Node23&#45;&gt;Node6 -->
<g id="edge41" class="edge">
<title>Node23&#45;&gt;Node6</title>
<path fill="none" stroke="midnightblue" d="M1845.78,-117.82C1822.84,-98.34 1767.01,-50.92 1738.07,-26.34"/>
<polygon fill="midnightblue" stroke="midnightblue" points="1740.23,-23.59 1730.34,-19.78 1735.7,-28.92 1740.23,-23.59"/>
</g>
<!-- Node23&#45;&gt;Node10 -->
<g id="edge42" class="edge">
<title>Node23&#45;&gt;Node10</title>
<path fill="none" stroke="midnightblue" d="M1825.23,-137.08C1779.21,-148.81 1692.34,-169.84 1637.11,-182.64"/>
<polygon fill="midnightblue" stroke="midnightblue" points="1636.15,-179.28 1627.19,-184.94 1637.72,-186.1 1636.15,-179.28"/>
</g>
<!-- Node24&#45;&gt;Node6 -->
<g id="edge44" class="edge">
<title>Node24&#45;&gt;Node6</title>
<path fill="none" stroke="midnightblue" d="M1967.86,-117.82C1920.99,-97.62 1804.44,-47.39 1749.52,-23.72"/>
<polygon fill="midnightblue" stroke="midnightblue" points="1750.58,-20.37 1740.01,-19.62 1747.81,-26.8 1750.58,-20.37"/>
</g>
<!-- Node24&#45;&gt;Node10 -->
<g id="edge45" class="edge">
<title>Node24&#45;&gt;Node10</title>
<path fill="none" stroke="midnightblue" d="M1959.79,-137.06C1950.63,-139.13 1940.46,-141.25 1931,-143 1842.11,-159.45 1739.21,-174.35 1669.21,-183.63"/>
<polygon fill="midnightblue" stroke="midnightblue" points="1668.58,-180.18 1659.13,-184.96 1669.5,-187.12 1668.58,-180.18"/>
</g>
<!-- Node25&#45;&gt;Node6 -->
<g id="edge52" class="edge">
<title>Node25&#45;&gt;Node6</title>
<path fill="none" stroke="midnightblue" d="M2457.49,-184.93C2439.64,-175.44 2410.56,-159.29 2387,-143 2369.07,-130.6 2366.7,-124.72 2349,-112 2311.04,-84.73 2304.33,-70.81 2260,-56 2164.98,-24.26 1854.28,-14.18 1752.56,-11.7"/>
<polygon fill="midnightblue" stroke="midnightblue" points="1752.37,-8.19 1742.29,-11.45 1752.21,-15.19 1752.37,-8.19"/>
</g>
<!-- Node25&#45;&gt;Node16 -->
<g id="edge51" class="edge">
<title>Node25&#45;&gt;Node16</title>
<path fill="none" stroke="midnightblue" d="M2503.68,-184.9C2553.06,-170.57 2646.72,-143.37 2647,-143 2678.29,-101.27 2615.04,-49.61 2579.26,-25.14"/>
<polygon fill="midnightblue" stroke="midnightblue" points="2581.1,-22.15 2570.83,-19.52 2577.22,-27.98 2581.1,-22.15"/>
</g>
<!-- Node26 -->
<g id="node26" class="node">
<title>Node26</title>
<g id="a_node26"><a xlink:title=" ">
<polygon fill="white" stroke="#bfbfbf" points="2586,-118 2586,-137 2638,-137 2638,-118 2586,-118"/>
<text text-anchor="middle" x="2612" y="-125" font-family="Helvetica,sans-Serif" font-size="10.00">cassert</text>
</a>
</g>
</g>
<!-- Node25&#45;&gt;Node26 -->
<g id="edge47" class="edge">
<title>Node25&#45;&gt;Node26</title>
<path fill="none" stroke="midnightblue" d="M2492.33,-184.87C2515.94,-173.75 2557.19,-154.32 2584.55,-141.43"/>
<polygon fill="midnightblue" stroke="midnightblue" points="2586.04,-144.59 2593.6,-137.17 2583.06,-138.26 2586.04,-144.59"/>
</g>
<!-- Node27 -->
<g id="node27" class="node">
<title>Node27</title>
<g id="a_node27"><a xlink:title=" ">
<polygon fill="white" stroke="#bfbfbf" points="2694.5,-118 2694.5,-137 2745.5,-137 2745.5,-118 2694.5,-118"/>
<text text-anchor="middle" x="2720" y="-125" font-family="Helvetica,sans-Serif" font-size="10.00">csignal</text>
</a>
</g>
</g>
<!-- Node25&#45;&gt;Node27 -->
<g id="edge48" class="edge">
<title>Node25&#45;&gt;Node27</title>
<path fill="none" stroke="midnightblue" d="M2502.48,-184.94C2509.5,-182.92 2517,-180.82 2524,-179 2592.86,-161.08 2611.76,-163.16 2680,-143 2682.63,-142.22 2685.34,-141.36 2688.05,-140.47"/>
<polygon fill="midnightblue" stroke="midnightblue" points="2689.43,-143.69 2697.73,-137.11 2687.14,-137.08 2689.43,-143.69"/>
</g>
<!-- Node28 -->
<g id="node28" class="node">
<title>Node28</title>
<g id="a_node28"><a xlink:title=" ">
<polygon fill="white" stroke="#bfbfbf" points="2396,-118 2396,-137 2456,-137 2456,-118 2396,-118"/>
<text text-anchor="middle" x="2426" y="-125" font-family="Helvetica,sans-Serif" font-size="10.00">iostream</text>
</a>
</g>
</g>
<!-- Node25&#45;&gt;Node28 -->
<g id="edge49" class="edge">
<title>Node25&#45;&gt;Node28</title>
<path fill="none" stroke="midnightblue" d="M2467.53,-184.73C2460.11,-174.7 2447.8,-158.01 2438.5,-145.42"/>
<polygon fill="midnightblue" stroke="midnightblue" points="2441.13,-143.09 2432.37,-137.13 2435.5,-147.25 2441.13,-143.09"/>
</g>
<!-- Node29 -->
<g id="node29" class="node">
<title>Node29</title>
<g id="a_node29"><a xlink:title=" ">
<polygon fill="white" stroke="#bfbfbf" points="2474.5,-118 2474.5,-137 2567.5,-137 2567.5,-118 2474.5,-118"/>
<text text-anchor="middle" x="2521" y="-125" font-family="Helvetica,sans-Serif" font-size="10.00">spdlog/spdlog.h</text>
</a>
</g>
</g>
<!-- Node25&#45;&gt;Node29 -->
<g id="edge50" class="edge">
<title>Node25&#45;&gt;Node29</title>
<path fill="none" stroke="midnightblue" d="M2480.34,-184.73C2487.6,-174.7 2499.66,-158.01 2508.76,-145.42"/>
<polygon fill="midnightblue" stroke="midnightblue" points="2511.74,-147.28 2514.76,-137.13 2506.07,-143.18 2511.74,-147.28"/>
</g>
<!-- Node30&#45;&gt;Node2 -->
<g id="edge68" class="edge">
<title>Node30&#45;&gt;Node2</title>
<path fill="none" stroke="midnightblue" d="M524,-251.73C524,-243.54 524,-230.92 524,-219.71"/>
<polygon fill="midnightblue" stroke="midnightblue" points="527.5,-219.59 524,-209.59 520.5,-219.59 527.5,-219.59"/>
</g>
<!-- Node31 -->
<g id="node31" class="node">
<title>Node31</title>
<g id="a_node31"><a xlink:href="../../dc/d49/LeosacFwd_8hpp.html" target="_top" xlink:title=" ">
<polygon fill="white" stroke="black" points="294,-185 294,-204 386,-204 386,-185 294,-185"/>
<text text-anchor="middle" x="340" y="-192" font-family="Helvetica,sans-Serif" font-size="10.00">LeosacFwd.hpp</text>
</a>
</g>
</g>
<!-- Node30&#45;&gt;Node31 -->
<g id="edge60" class="edge">
<title>Node30&#45;&gt;Node31</title>
<path fill="none" stroke="midnightblue" d="M499.57,-251.87C467.31,-240.47 410.35,-220.35 373.93,-207.49"/>
<polygon fill="midnightblue" stroke="midnightblue" points="374.84,-204.09 364.24,-204.06 372.5,-210.69 374.84,-204.09"/>
</g>
<!-- Node32 -->
<g id="node32" class="node">
<title>Node32</title>
<g id="a_node32"><a xlink:href="../../d8/d91/Task_8hpp.html" target="_top" xlink:title=" ">
<polygon fill="white" stroke="black" points="206.5,-185 206.5,-204 265.5,-204 265.5,-185 206.5,-185"/>
<text text-anchor="middle" x="236" y="-192" font-family="Helvetica,sans-Serif" font-size="10.00">Task.hpp</text>
</a>
</g>
</g>
<!-- Node30&#45;&gt;Node32 -->
<g id="edge63" class="edge">
<title>Node30&#45;&gt;Node32</title>
<path fill="none" stroke="midnightblue" d="M478.38,-251.98C430.1,-242.7 351.81,-226.91 285,-210 281.14,-209.02 277.13,-207.94 273.14,-206.83"/>
<polygon fill="midnightblue" stroke="midnightblue" points="273.94,-203.42 263.36,-204.02 272.01,-210.14 273.94,-203.42"/>
</g>
<!-- Node31&#45;&gt;Node5 -->
<g id="edge61" class="edge">
<title>Node31&#45;&gt;Node5</title>
<path fill="none" stroke="midnightblue" d="M340.54,-184.73C341.13,-175.18 342.09,-159.62 342.84,-147.28"/>
<polygon fill="midnightblue" stroke="midnightblue" points="346.35,-147.32 343.47,-137.13 339.36,-146.89 346.35,-147.32"/>
</g>
<!-- Node31&#45;&gt;Node7 -->
<g id="edge62" class="edge">
<title>Node31&#45;&gt;Node7</title>
<path fill="none" stroke="midnightblue" d="M331.07,-184.93C315.48,-168.96 286.71,-134.23 306,-112 342.26,-70.21 514.21,-66.24 588.11,-66.51"/>
<polygon fill="midnightblue" stroke="midnightblue" points="588.25,-70.01 598.28,-66.58 588.3,-63.01 588.25,-70.01"/>
</g>
<!-- Node32&#45;&gt;Node5 -->
<g id="edge66" class="edge">
<title>Node32&#45;&gt;Node5</title>
<path fill="none" stroke="midnightblue" d="M250.57,-184.73C268.62,-173.87 299.61,-155.22 320.92,-142.39"/>
<polygon fill="midnightblue" stroke="midnightblue" points="322.9,-145.28 329.67,-137.13 319.29,-139.29 322.9,-145.28"/>
</g>
<!-- Node33 -->
<g id="node33" class="node">
<title>Node33</title>
<g id="a_node33"><a xlink:title=" ">
<polygon fill="white" stroke="#bfbfbf" points="0,-118 0,-137 50,-137 50,-118 0,-118"/>
<text text-anchor="middle" x="25" y="-125" font-family="Helvetica,sans-Serif" font-size="10.00">atomic</text>
</a>
</g>
</g>
<!-- Node32&#45;&gt;Node33 -->
<g id="edge64" class="edge">
<title>Node32&#45;&gt;Node33</title>
<path fill="none" stroke="midnightblue" d="M206.2,-186.22C170.74,-177.27 109.9,-161.04 59,-143 57.14,-142.34 55.24,-141.63 53.33,-140.89"/>
<polygon fill="midnightblue" stroke="midnightblue" points="54.48,-137.58 43.9,-137.05 51.84,-144.07 54.48,-137.58"/>
</g>
<!-- Node34 -->
<g id="node34" class="node">
<title>Node34</title>
<g id="a_node34"><a xlink:title=" ">
<polygon fill="white" stroke="#bfbfbf" points="68.5,-118 68.5,-137 175.5,-137 175.5,-118 68.5,-118"/>
<text text-anchor="middle" x="122" y="-125" font-family="Helvetica,sans-Serif" font-size="10.00">condition_variable</text>
</a>
</g>
</g>
<!-- Node32&#45;&gt;Node34 -->
<g id="edge65" class="edge">
<title>Node32&#45;&gt;Node34</title>
<path fill="none" stroke="midnightblue" d="M220.63,-184.73C201.48,-173.82 168.56,-155.05 146.06,-142.22"/>
<polygon fill="midnightblue" stroke="midnightblue" points="147.55,-139.04 137.13,-137.13 144.08,-145.12 147.55,-139.04"/>
</g>
<!-- Node35 -->
<g id="node35" class="node">
<title>Node35</title>
<g id="a_node35"><a xlink:title=" ">
<polygon fill="white" stroke="#bfbfbf" points="193.5,-118 193.5,-137 258.5,-137 258.5,-118 193.5,-118"/>
<text text-anchor="middle" x="226" y="-125" font-family="Helvetica,sans-Serif" font-size="10.00">functional</text>
</a>
</g>
</g>
<!-- Node32&#45;&gt;Node35 -->
<g id="edge67" class="edge">
<title>Node32&#45;&gt;Node35</title>
<path fill="none" stroke="midnightblue" d="M234.65,-184.73C233.18,-175.18 230.79,-159.62 228.89,-147.28"/>
<polygon fill="midnightblue" stroke="midnightblue" points="232.31,-146.48 227.33,-137.13 225.39,-147.54 232.31,-146.48"/>
</g>
<!-- Node36&#45;&gt;Node31 -->
<g id="edge70" class="edge">
<title>Node36&#45;&gt;Node31</title>
<path fill="none" stroke="midnightblue" d="M336.08,-246.4C336.81,-236.96 337.77,-224.45 338.56,-214.19"/>
<polygon fill="midnightblue" stroke="midnightblue" points="342.05,-214.43 339.33,-204.19 335.07,-213.9 342.05,-214.43"/>
</g>
<!-- Node36&#45;&gt;Node32 -->
<g id="edge71" class="edge">
<title>Node36&#45;&gt;Node32</title>
<path fill="none" stroke="midnightblue" d="M313.52,-246.4C296.92,-235.5 274.04,-220.48 257.45,-209.58"/>
<polygon fill="midnightblue" stroke="midnightblue" points="259.24,-206.57 248.96,-204.01 255.4,-212.42 259.24,-206.57"/>
</g>
<!-- Node37&#45;&gt;Node13 -->
<g id="edge73" class="edge">
<title>Node37&#45;&gt;Node13</title>
<path fill="none" stroke="midnightblue" d="M2328.63,-184.73C2324.88,-174.99 2318.72,-158.98 2313.94,-146.53"/>
<polygon fill="midnightblue" stroke="midnightblue" points="2317.17,-145.2 2310.32,-137.13 2310.64,-147.72 2317.17,-145.2"/>
</g>
<!-- Node40 -->
<g id="node40" class="node">
<title>Node40</title>
<g id="a_node40"><a xlink:title=" ">
<polygon fill="white" stroke="#bfbfbf" points="2532.5,-179.5 2532.5,-209.5 2645.5,-209.5 2645.5,-179.5 2532.5,-179.5"/>
<text text-anchor="start" x="2540.5" y="-197.5" font-family="Helvetica,sans-Serif" font-size="10.00">boost/property_tree</text>
<text text-anchor="middle" x="2589" y="-186.5" font-family="Helvetica,sans-Serif" font-size="10.00">/ptree_fwd.hpp</text>
</a>
</g>
</g>
<!-- Node39&#45;&gt;Node40 -->
<g id="edge76" class="edge">
<title>Node39&#45;&gt;Node40</title>
<path fill="none" stroke="midnightblue" d="M1210.06,-251.94C1223.13,-249.6 1237.61,-247.35 1251,-246 1810.4,-189.52 1959.91,-277.94 2522.25,-209.9"/>
<polygon fill="midnightblue" stroke="midnightblue" points="2522.73,-213.37 2532.24,-208.68 2521.88,-206.42 2522.73,-213.37"/>
</g>
</g>
</svg>
