<?xml version="1.0" encoding="UTF-8" standalone="no"?>
<!DOCTYPE svg PUBLIC "-//W3C//DTD SVG 1.1//EN"
 "http://www.w3.org/Graphics/SVG/1.1/DTD/svg11.dtd">
<!-- Generated by graphviz version 2.43.0 (0)
 -->
<!-- Title: Leosac::Auth::Door Pages: 1 -->
<svg width="125pt" height="151pt"
 viewBox="0.00 0.00 125.00 151.00" xmlns="http://www.w3.org/2000/svg" xmlns:xlink="http://www.w3.org/1999/xlink">
<g id="graph0" class="graph" transform="scale(1 1) rotate(0) translate(4 147)">
<title>Leosac::Auth::Door</title>
<polygon fill="white" stroke="transparent" points="-4,4 -4,-147 121,-147 121,4 -4,4"/>
<!-- Node1 -->
<g id="node1" class="node">
<title>Node1</title>
<g id="a_node1"><a xlink:title="Represent a door.">
<polygon fill="#bfbfbf" stroke="black" points="4.5,-0.5 4.5,-19.5 112.5,-19.5 112.5,-0.5 4.5,-0.5"/>
<text text-anchor="middle" x="58.5" y="-7.5" font-family="Helvetica,sans-Serif" font-size="10.00">Leosac::Auth::Door</text>
</a>
</g>
</g>
<!-- Node2 -->
<g id="node2" class="node">
<title>Node2</title>
<g id="a_node2"><a xlink:href="../../dd/dbf/classLeosac_1_1Auth_1_1IDoor.html" target="_top" xlink:title="A door.">
<polygon fill="white" stroke="black" points="3,-56.5 3,-75.5 114,-75.5 114,-56.5 3,-56.5"/>
<text text-anchor="middle" x="58.5" y="-63.5" font-family="Helvetica,sans-Serif" font-size="10.00">Leosac::Auth::IDoor</text>
</a>
</g>
</g>
<!-- Node2&#45;&gt;Node1 -->
<g id="edge1" class="edge">
<title>Node2&#45;&gt;Node1</title>
<path fill="none" stroke="midnightblue" d="M58.5,-45.8C58.5,-36.91 58.5,-26.78 58.5,-19.75"/>
<polygon fill="midnightblue" stroke="midnightblue" points="55,-46.08 58.5,-56.08 62,-46.08 55,-46.08"/>
</g>
<!-- Node3 -->
<g id="node3" class="node">
<title>Node3</title>
<g id="a_node3"><a xlink:title=" ">
<polygon fill="white" stroke="#bfbfbf" points="0,-112.5 0,-142.5 117,-142.5 117,-112.5 0,-112.5"/>
<text text-anchor="start" x="8" y="-130.5" font-family="Helvetica,sans-Serif" font-size="10.00">std::enable_shared</text>
<text text-anchor="middle" x="58.5" y="-119.5" font-family="Helvetica,sans-Serif" font-size="10.00">_from_this&lt; IDoor &gt;</text>
</a>
</g>
</g>
<!-- Node3&#45;&gt;Node2 -->
<g id="edge2" class="edge">
<title>Node3&#45;&gt;Node2</title>
<path fill="none" stroke="midnightblue" d="M58.5,-102.29C58.5,-92.86 58.5,-82.65 58.5,-75.66"/>
<polygon fill="midnightblue" stroke="midnightblue" points="55,-102.4 58.5,-112.4 62,-102.4 55,-102.4"/>
</g>
</g>
</svg>
