<?xml version="1.0" encoding="UTF-8" standalone="no"?>
<!DOCTYPE svg PUBLIC "-//W3C//DTD SVG 1.1//EN"
 "http://www.w3.org/Graphics/SVG/1.1/DTD/svg11.dtd">
<!-- Generated by graphviz version 2.43.0 (0)
 -->
<!-- Title: src/core/config/ConfigChecker.hpp Pages: 1 -->
<svg width="4827pt" height="285pt"
 viewBox="0.00 0.00 4827.00 285.00" xmlns="http://www.w3.org/2000/svg" xmlns:xlink="http://www.w3.org/1999/xlink">
<g id="graph0" class="graph" transform="scale(1 1) rotate(0) translate(4 281)">
<title>src/core/config/ConfigChecker.hpp</title>
<polygon fill="white" stroke="transparent" points="-4,4 -4,-281 4823,-281 4823,4 -4,4"/>
<!-- Node1 -->
<g id="node1" class="node">
<title>Node1</title>
<g id="a_node1"><a xlink:title=" ">
<polygon fill="#bfbfbf" stroke="black" points="2794,-257.5 2794,-276.5 2974,-276.5 2974,-257.5 2794,-257.5"/>
<text text-anchor="middle" x="2884" y="-264.5" font-family="Helvetica,sans-Serif" font-size="10.00">src/core/config/ConfigChecker.hpp</text>
</a>
</g>
</g>
<!-- Node2 -->
<g id="node2" class="node">
<title>Node2</title>
<g id="a_node2"><a xlink:href="../../d3/de6/ConfigChecker_8cpp.html" target="_top" xlink:title=" ">
<polygon fill="white" stroke="black" points="2622.5,-201.5 2622.5,-220.5 2801.5,-220.5 2801.5,-201.5 2622.5,-201.5"/>
<text text-anchor="middle" x="2712" y="-208.5" font-family="Helvetica,sans-Serif" font-size="10.00">src/core/config/ConfigChecker.cpp</text>
</a>
</g>
</g>
<!-- Node1&#45;&gt;Node2 -->
<g id="edge1" class="edge">
<title>Node1&#45;&gt;Node2</title>
<path fill="none" stroke="midnightblue" d="M2847.17,-254.44C2814.74,-244.26 2768.26,-229.66 2739.13,-220.52"/>
<polygon fill="midnightblue" stroke="midnightblue" points="2846.16,-257.79 2856.75,-257.44 2848.25,-251.11 2846.16,-257.79"/>
</g>
<!-- Node3 -->
<g id="node3" class="node">
<title>Node3</title>
<g id="a_node3"><a xlink:href="../../df/db8/kernel_8hpp.html" target="_top" xlink:title=" ">
<polygon fill="white" stroke="black" points="1428.5,-140 1428.5,-159 1537.5,-159 1537.5,-140 1428.5,-140"/>
<text text-anchor="middle" x="1483" y="-147" font-family="Helvetica,sans-Serif" font-size="10.00">src/core/kernel.hpp</text>
</a>
</g>
</g>
<!-- Node1&#45;&gt;Node3 -->
<g id="edge2" class="edge">
<title>Node1&#45;&gt;Node3</title>
<path fill="none" stroke="midnightblue" d="M2871.21,-249.25C2858.06,-233.51 2836.02,-210.93 2811,-201 2680.42,-149.15 1686.39,-182.61 1547,-165 1536.49,-163.67 1525.17,-161.4 1515.01,-159.03"/>
<polygon fill="midnightblue" stroke="midnightblue" points="2868.57,-251.56 2877.56,-257.17 2874.03,-247.18 2868.57,-251.56"/>
</g>
<!-- Node23 -->
<g id="node23" class="node">
<title>Node23</title>
<g id="a_node23"><a xlink:href="../../d0/dc7/BaseModule_8hpp.html" target="_top" xlink:title=" ">
<polygon fill="white" stroke="black" points="2858,-201.5 2858,-220.5 3018,-220.5 3018,-201.5 2858,-201.5"/>
<text text-anchor="middle" x="2938" y="-208.5" font-family="Helvetica,sans-Serif" font-size="10.00">src/modules/BaseModule.hpp</text>
</a>
</g>
</g>
<!-- Node1&#45;&gt;Node23 -->
<g id="edge22" class="edge">
<title>Node1&#45;&gt;Node23</title>
<path fill="none" stroke="midnightblue" d="M2900,-250C2909.57,-240.43 2921.36,-228.64 2929.25,-220.75"/>
<polygon fill="midnightblue" stroke="midnightblue" points="2897.51,-247.54 2892.92,-257.08 2902.46,-252.49 2897.51,-247.54"/>
</g>
<!-- Node88 -->
<g id="node50" class="node">
<title>Node88</title>
<g id="a_node50"><a xlink:href="../../d8/dfd/TestHelper_8hpp.html" target="_top" xlink:title=" ">
<polygon fill="white" stroke="black" points="4046,-140 4046,-159 4190,-159 4190,-140 4046,-140"/>
<text text-anchor="middle" x="4118" y="-147" font-family="Helvetica,sans-Serif" font-size="10.00">test/helper/TestHelper.hpp</text>
</a>
</g>
</g>
<!-- Node1&#45;&gt;Node88 -->
<g id="edge55" class="edge">
<title>Node1&#45;&gt;Node88</title>
<path fill="none" stroke="midnightblue" d="M2984.22,-260.26C3184.74,-248.1 3649.35,-216.57 4037,-165 4049.18,-163.38 4062.32,-161.21 4074.39,-159.05"/>
<polygon fill="midnightblue" stroke="midnightblue" points="2983.77,-256.78 2974,-260.88 2984.19,-263.77 2983.77,-256.78"/>
</g>
<!-- Node4 -->
<g id="node4" class="node">
<title>Node4</title>
<g id="a_node4"><a xlink:href="../../d6/dff/src_2core_2config_2ConfigManager_8cpp.html" target="_top" xlink:title=" ">
<polygon fill="white" stroke="black" points="148.5,-73 148.5,-92 331.5,-92 331.5,-73 148.5,-73"/>
<text text-anchor="middle" x="240" y="-80" font-family="Helvetica,sans-Serif" font-size="10.00">src/core/config/ConfigManager.cpp</text>
</a>
</g>
</g>
<!-- Node3&#45;&gt;Node4 -->
<g id="edge3" class="edge">
<title>Node3&#45;&gt;Node4</title>
<path fill="none" stroke="midnightblue" d="M1418.46,-147.87C1244.25,-145.68 750.02,-136.31 341,-98 325.13,-96.51 307.93,-94.28 292.3,-92.01"/>
<polygon fill="midnightblue" stroke="midnightblue" points="1418.44,-151.37 1428.49,-147.99 1418.53,-144.37 1418.44,-151.37"/>
</g>
<!-- Node5 -->
<g id="node5" class="node">
<title>Node5</title>
<g id="a_node5"><a xlink:href="../../d3/d1e/CoreAPI_8cpp.html" target="_top" xlink:title=" ">
<polygon fill="white" stroke="black" points="350,-73 350,-92 466,-92 466,-73 350,-73"/>
<text text-anchor="middle" x="408" y="-80" font-family="Helvetica,sans-Serif" font-size="10.00">src/core/CoreAPI.cpp</text>
</a>
</g>
</g>
<!-- Node3&#45;&gt;Node5 -->
<g id="edge4" class="edge">
<title>Node3&#45;&gt;Node5</title>
<path fill="none" stroke="midnightblue" d="M1418.17,-148.9C1257.59,-149.11 828.76,-144.82 475,-98 464.26,-96.58 452.69,-94.34 442.24,-92.03"/>
<polygon fill="midnightblue" stroke="midnightblue" points="1418.36,-152.4 1428.36,-148.88 1418.35,-145.4 1418.36,-152.4"/>
</g>
<!-- Node6 -->
<g id="node6" class="node">
<title>Node6</title>
<g id="a_node6"><a xlink:href="../../d4/dd4/CoreUtils_8cpp.html" target="_top" xlink:title=" ">
<polygon fill="white" stroke="black" points="484.5,-73 484.5,-92 607.5,-92 607.5,-73 484.5,-73"/>
<text text-anchor="middle" x="546" y="-80" font-family="Helvetica,sans-Serif" font-size="10.00">src/core/CoreUtils.cpp</text>
</a>
</g>
</g>
<!-- Node3&#45;&gt;Node6 -->
<g id="edge5" class="edge">
<title>Node3&#45;&gt;Node6</title>
<path fill="none" stroke="midnightblue" d="M1418.26,-147.89C1273.86,-145.83 914.69,-136.87 617,-98 605.77,-96.53 593.66,-94.31 582.68,-92.03"/>
<polygon fill="midnightblue" stroke="midnightblue" points="1418.24,-151.39 1428.28,-148.02 1418.33,-144.39 1418.24,-151.39"/>
</g>
<!-- Node7 -->
<g id="node7" class="node">
<title>Node7</title>
<g id="a_node7"><a xlink:href="../../d9/d6a/GetServiceRegistry_8cpp.html" target="_top" xlink:title=" ">
<polygon fill="white" stroke="black" points="626,-73 626,-92 796,-92 796,-73 626,-73"/>
<text text-anchor="middle" x="711" y="-80" font-family="Helvetica,sans-Serif" font-size="10.00">src/core/GetServiceRegistry.cpp</text>
</a>
</g>
</g>
<!-- Node3&#45;&gt;Node7 -->
<g id="edge6" class="edge">
<title>Node3&#45;&gt;Node7</title>
<path fill="none" stroke="midnightblue" d="M1418.19,-145.37C1297.34,-139.17 1029.48,-123.63 805,-98 790.89,-96.39 775.65,-94.22 761.64,-92.06"/>
<polygon fill="midnightblue" stroke="midnightblue" points="1418.21,-148.88 1428.38,-145.89 1418.57,-141.89 1418.21,-148.88"/>
</g>
<!-- Node8 -->
<g id="node8" class="node">
<title>Node8</title>
<g id="a_node8"><a xlink:href="../../dd/d24/kernel_8cpp.html" target="_top" xlink:title=" ">
<polygon fill="white" stroke="black" points="814,-73 814,-92 922,-92 922,-73 814,-73"/>
<text text-anchor="middle" x="868" y="-80" font-family="Helvetica,sans-Serif" font-size="10.00">src/core/kernel.cpp</text>
</a>
</g>
</g>
<!-- Node3&#45;&gt;Node8 -->
<g id="edge7" class="edge">
<title>Node3&#45;&gt;Node8</title>
<path fill="none" stroke="midnightblue" d="M1417.95,-145.4C1314.36,-139.82 1105.78,-125.98 931,-98 921.25,-96.44 910.76,-94.24 901.18,-92.02"/>
<polygon fill="midnightblue" stroke="midnightblue" points="1418.07,-148.91 1428.24,-145.94 1418.44,-141.92 1418.07,-148.91"/>
</g>
<!-- Node9 -->
<g id="node9" class="node">
<title>Node9</title>
<g id="a_node9"><a xlink:href="../../d9/d4a/module__manager_8cpp.html" target="_top" xlink:title=" ">
<polygon fill="white" stroke="black" points="940.5,-73 940.5,-92 1103.5,-92 1103.5,-73 940.5,-73"/>
<text text-anchor="middle" x="1022" y="-80" font-family="Helvetica,sans-Serif" font-size="10.00">src/core/module_manager.cpp</text>
</a>
</g>
</g>
<!-- Node3&#45;&gt;Node9 -->
<g id="edge8" class="edge">
<title>Node3&#45;&gt;Node9</title>
<path fill="none" stroke="midnightblue" d="M1418.14,-140.16C1344.03,-130.52 1219.16,-113.92 1112,-98 1099.63,-96.16 1086.33,-94.08 1073.84,-92.07"/>
<polygon fill="midnightblue" stroke="midnightblue" points="1417.88,-143.66 1428.25,-141.47 1418.79,-136.71 1417.88,-143.66"/>
</g>
<!-- Node10 -->
<g id="node10" class="node">
<title>Node10</title>
<g id="a_node10"><a xlink:href="../../d2/d2a/networkconfig_8cpp.html" target="_top" xlink:title="NetworkConfig class implementation.">
<polygon fill="white" stroke="black" points="1121.5,-67.5 1121.5,-97.5 1230.5,-97.5 1230.5,-67.5 1121.5,-67.5"/>
<text text-anchor="start" x="1129.5" y="-85.5" font-family="Helvetica,sans-Serif" font-size="10.00">src/core/netconfig</text>
<text text-anchor="middle" x="1176" y="-74.5" font-family="Helvetica,sans-Serif" font-size="10.00">/networkconfig.cpp</text>
</a>
</g>
</g>
<!-- Node3&#45;&gt;Node10 -->
<g id="edge9" class="edge">
<title>Node3&#45;&gt;Node10</title>
<path fill="none" stroke="midnightblue" d="M1430.72,-137.92C1381.47,-127.88 1305.65,-112.26 1240,-98 1236.99,-97.35 1233.91,-96.67 1230.8,-95.98"/>
<polygon fill="midnightblue" stroke="midnightblue" points="1430.31,-141.41 1440.81,-139.97 1431.71,-134.55 1430.31,-141.41"/>
</g>
<!-- Node11 -->
<g id="node11" class="node">
<title>Node11</title>
<g id="a_node11"><a xlink:href="../../d4/d28/RemoteControl_8cpp.html" target="_top" xlink:title=" ">
<polygon fill="white" stroke="black" points="1249,-73 1249,-92 1401,-92 1401,-73 1249,-73"/>
<text text-anchor="middle" x="1325" y="-80" font-family="Helvetica,sans-Serif" font-size="10.00">src/core/RemoteControl.cpp</text>
</a>
</g>
</g>
<!-- Node3&#45;&gt;Node11 -->
<g id="edge10" class="edge">
<title>Node3&#45;&gt;Node11</title>
<path fill="none" stroke="midnightblue" d="M1452.49,-135.95C1421.21,-123.08 1373.38,-103.4 1346.07,-92.17"/>
<polygon fill="midnightblue" stroke="midnightblue" points="1451.44,-139.3 1462.02,-139.87 1454.1,-132.83 1451.44,-139.3"/>
</g>
<!-- Node12 -->
<g id="node12" class="node">
<title>Node12</title>
<g id="a_node12"><a xlink:href="../../df/dca/GetLocalConfigVersion_8cpp.html" target="_top" xlink:title=" ">
<polygon fill="white" stroke="black" points="1419.5,-67.5 1419.5,-97.5 1580.5,-97.5 1580.5,-67.5 1419.5,-67.5"/>
<text text-anchor="start" x="1427.5" y="-85.5" font-family="Helvetica,sans-Serif" font-size="10.00">src/core/tasks/GetLocalConfig</text>
<text text-anchor="middle" x="1500" y="-74.5" font-family="Helvetica,sans-Serif" font-size="10.00">Version.cpp</text>
</a>
</g>
</g>
<!-- Node3&#45;&gt;Node12 -->
<g id="edge11" class="edge">
<title>Node3&#45;&gt;Node12</title>
<path fill="none" stroke="midnightblue" d="M1487.91,-129.74C1490.59,-119.49 1493.85,-107 1496.32,-97.59"/>
<polygon fill="midnightblue" stroke="midnightblue" points="1484.44,-129.17 1485.29,-139.73 1491.21,-130.94 1484.44,-129.17"/>
</g>
<!-- Node13 -->
<g id="node13" class="node">
<title>Node13</title>
<g id="a_node13"><a xlink:href="../../d7/d6f/GetRemoteConfigVersion_8cpp.html" target="_top" xlink:title=" ">
<polygon fill="white" stroke="black" points="1598.5,-67.5 1598.5,-97.5 1741.5,-97.5 1741.5,-67.5 1598.5,-67.5"/>
<text text-anchor="start" x="1606.5" y="-85.5" font-family="Helvetica,sans-Serif" font-size="10.00">src/core/tasks/GetRemote</text>
<text text-anchor="middle" x="1670" y="-74.5" font-family="Helvetica,sans-Serif" font-size="10.00">ConfigVersion.cpp</text>
</a>
</g>
</g>
<!-- Node3&#45;&gt;Node13 -->
<g id="edge12" class="edge">
<title>Node3&#45;&gt;Node13</title>
<path fill="none" stroke="midnightblue" d="M1517.55,-136.49C1549.25,-125.47 1596.23,-109.14 1629.64,-97.53"/>
<polygon fill="midnightblue" stroke="midnightblue" points="1516.13,-133.28 1507.83,-139.87 1518.43,-139.89 1516.13,-133.28"/>
</g>
<!-- Node14 -->
<g id="node14" class="node">
<title>Node14</title>
<g id="a_node14"><a xlink:href="../../d5/d8e/SyncConfig_8cpp.html" target="_top" xlink:title=" ">
<polygon fill="white" stroke="black" points="1759.5,-73 1759.5,-92 1920.5,-92 1920.5,-73 1759.5,-73"/>
<text text-anchor="middle" x="1840" y="-80" font-family="Helvetica,sans-Serif" font-size="10.00">src/core/tasks/SyncConfig.cpp</text>
</a>
</g>
</g>
<!-- Node3&#45;&gt;Node14 -->
<g id="edge13" class="edge">
<title>Node3&#45;&gt;Node14</title>
<path fill="none" stroke="midnightblue" d="M1529.12,-137.75C1535.13,-136.44 1541.2,-135.16 1547,-134 1592.31,-124.97 1717.5,-103.88 1788.72,-92.01"/>
<polygon fill="midnightblue" stroke="midnightblue" points="1528.15,-134.38 1519.15,-139.97 1529.67,-141.21 1528.15,-134.38"/>
</g>
<!-- Node15 -->
<g id="node15" class="node">
<title>Node15</title>
<g id="a_node15"><a xlink:href="../../df/d0a/main_8cpp.html" target="_top" xlink:title="standard main">
<polygon fill="white" stroke="black" points="1938.5,-73 1938.5,-92 2017.5,-92 2017.5,-73 1938.5,-73"/>
<text text-anchor="middle" x="1978" y="-80" font-family="Helvetica,sans-Serif" font-size="10.00">src/main.cpp</text>
</a>
</g>
</g>
<!-- Node3&#45;&gt;Node15 -->
<g id="edge14" class="edge">
<title>Node3&#45;&gt;Node15</title>
<path fill="none" stroke="midnightblue" d="M1527.24,-137.7C1533.84,-136.31 1540.58,-135.03 1547,-134 1715.84,-107.05 1762.22,-130.88 1930,-98 1937.52,-96.53 1945.54,-94.35 1952.83,-92.13"/>
<polygon fill="midnightblue" stroke="midnightblue" points="1526.07,-134.37 1517.05,-139.93 1527.57,-141.21 1526.07,-134.37"/>
</g>
<!-- Node16 -->
<g id="node16" class="node">
<title>Node16</title>
<g id="a_node16"><a xlink:href="../../df/dac/AuthDBModule_8cpp.html" target="_top" xlink:title=" ">
<polygon fill="white" stroke="black" points="3082,-0.5 3082,-30.5 3210,-30.5 3210,-0.5 3082,-0.5"/>
<text text-anchor="start" x="3090" y="-18.5" font-family="Helvetica,sans-Serif" font-size="10.00">src/modules/auth/auth</text>
<text text-anchor="middle" x="3146" y="-7.5" font-family="Helvetica,sans-Serif" font-size="10.00">&#45;db/AuthDBModule.cpp</text>
</a>
</g>
</g>
<!-- Node3&#45;&gt;Node16 -->
<g id="edge15" class="edge">
<title>Node3&#45;&gt;Node16</title>
<path fill="none" stroke="midnightblue" d="M1526.28,-137.78C1533.18,-136.34 1540.26,-135.01 1547,-134 1652.78,-118.14 1927.4,-137 2027,-98 2047.62,-89.93 2045.27,-74.78 2066,-67 2160.84,-31.39 2863.71,-19.93 3081.71,-17.21"/>
<polygon fill="midnightblue" stroke="midnightblue" points="1525.39,-134.4 1516.37,-139.96 1526.89,-141.23 1525.39,-134.4"/>
</g>
<!-- Node17 -->
<g id="node17" class="node">
<title>Node17</title>
<g id="a_node17"><a xlink:href="../../d8/d37/AuthFileModule_8cpp.html" target="_top" xlink:title=" ">
<polygon fill="white" stroke="black" points="2519,-67.5 2519,-97.5 2653,-97.5 2653,-67.5 2519,-67.5"/>
<text text-anchor="start" x="2527" y="-85.5" font-family="Helvetica,sans-Serif" font-size="10.00">src/modules/auth/auth</text>
<text text-anchor="middle" x="2586" y="-74.5" font-family="Helvetica,sans-Serif" font-size="10.00">&#45;file/AuthFileModule.cpp</text>
</a>
</g>
</g>
<!-- Node3&#45;&gt;Node17 -->
<g id="edge16" class="edge">
<title>Node3&#45;&gt;Node17</title>
<path fill="none" stroke="midnightblue" d="M1525.56,-137.71C1532.68,-136.24 1540.02,-134.92 1547,-134 1962.41,-79.48 2071.85,-137.03 2489,-98 2498.66,-97.1 2508.83,-95.88 2518.8,-94.52"/>
<polygon fill="midnightblue" stroke="midnightblue" points="1524.37,-134.39 1515.35,-139.95 1525.87,-141.22 1524.37,-134.39"/>
</g>
<!-- Node18 -->
<g id="node18" class="node">
<title>Node18</title>
<g id="a_node18"><a xlink:href="../../d0/d58/DoormanModule_8cpp.html" target="_top" xlink:title=" ">
<polygon fill="white" stroke="black" points="2220,-67.5 2220,-97.5 2342,-97.5 2342,-67.5 2220,-67.5"/>
<text text-anchor="start" x="2228" y="-85.5" font-family="Helvetica,sans-Serif" font-size="10.00">src/modules/doorman</text>
<text text-anchor="middle" x="2281" y="-74.5" font-family="Helvetica,sans-Serif" font-size="10.00">/DoormanModule.cpp</text>
</a>
</g>
</g>
<!-- Node3&#45;&gt;Node18 -->
<g id="edge17" class="edge">
<title>Node3&#45;&gt;Node18</title>
<path fill="none" stroke="midnightblue" d="M1525.8,-137.76C1532.85,-136.29 1540.1,-134.96 1547,-134 1839.72,-93.2 1917.92,-136.08 2211,-98 2213.83,-97.63 2216.72,-97.21 2219.63,-96.76"/>
<polygon fill="midnightblue" stroke="midnightblue" points="1524.71,-134.41 1515.69,-139.98 1526.21,-141.25 1524.71,-134.41"/>
</g>
<!-- Node19 -->
<g id="node19" class="node">
<title>Node19</title>
<g id="a_node19"><a xlink:href="../../d7/d36/LEDBuzzerModule_8cpp.html" target="_top" xlink:title=" ">
<polygon fill="white" stroke="black" points="2754,-67.5 2754,-97.5 2884,-97.5 2884,-67.5 2754,-67.5"/>
<text text-anchor="start" x="2762" y="-85.5" font-family="Helvetica,sans-Serif" font-size="10.00">src/modules/led&#45;buzzer</text>
<text text-anchor="middle" x="2819" y="-74.5" font-family="Helvetica,sans-Serif" font-size="10.00">/LEDBuzzerModule.cpp</text>
</a>
</g>
</g>
<!-- Node3&#45;&gt;Node19 -->
<g id="edge18" class="edge">
<title>Node3&#45;&gt;Node19</title>
<path fill="none" stroke="midnightblue" d="M1524.82,-137.83C1532.17,-136.29 1539.77,-134.93 1547,-134 2038.79,-70.94 2167.14,-128.81 2662,-98 2692.19,-96.12 2725.57,-93.16 2753.76,-90.41"/>
<polygon fill="midnightblue" stroke="midnightblue" points="1524.03,-134.42 1515.02,-139.99 1525.54,-141.25 1524.03,-134.42"/>
</g>
<!-- Node20 -->
<g id="node20" class="node">
<title>Node20</title>
<g id="a_node20"><a xlink:href="../../da/d77/SysFsGpioModule_8cpp.html" target="_top" xlink:title=" ">
<polygon fill="white" stroke="black" points="2074.5,-67.5 2074.5,-97.5 2201.5,-97.5 2201.5,-67.5 2074.5,-67.5"/>
<text text-anchor="start" x="2082.5" y="-85.5" font-family="Helvetica,sans-Serif" font-size="10.00">src/modules/sysfsgpio</text>
<text text-anchor="middle" x="2138" y="-74.5" font-family="Helvetica,sans-Serif" font-size="10.00">/SysFsGpioModule.cpp</text>
</a>
</g>
</g>
<!-- Node3&#45;&gt;Node20 -->
<g id="edge19" class="edge">
<title>Node3&#45;&gt;Node20</title>
<path fill="none" stroke="midnightblue" d="M1526.28,-137.76C1533.18,-136.31 1540.26,-134.99 1547,-134 1773.11,-100.65 1833.28,-126.93 2060,-98 2064.65,-97.41 2069.43,-96.72 2074.24,-95.96"/>
<polygon fill="midnightblue" stroke="midnightblue" points="1525.39,-134.37 1516.37,-139.93 1526.88,-141.21 1525.39,-134.37"/>
</g>
<!-- Node21 -->
<g id="node21" class="node">
<title>Node21</title>
<g id="a_node21"><a xlink:href="../../d9/d8d/APISession_8cpp.html" target="_top" xlink:title=" ">
<polygon fill="white" stroke="black" points="0,-67.5 0,-97.5 130,-97.5 130,-67.5 0,-67.5"/>
<text text-anchor="start" x="8" y="-85.5" font-family="Helvetica,sans-Serif" font-size="10.00">src/modules/websock</text>
<text text-anchor="middle" x="65" y="-74.5" font-family="Helvetica,sans-Serif" font-size="10.00">&#45;api/api/APISession.cpp</text>
</a>
</g>
</g>
<!-- Node3&#45;&gt;Node21 -->
<g id="edge20" class="edge">
<title>Node3&#45;&gt;Node21</title>
<path fill="none" stroke="midnightblue" d="M1418.12,-147.4C1185.14,-143.26 391.26,-127.27 139,-98 136.14,-97.67 133.22,-97.29 130.28,-96.87"/>
<polygon fill="midnightblue" stroke="midnightblue" points="1418.07,-150.9 1428.13,-147.58 1418.2,-143.9 1418.07,-150.9"/>
</g>
<!-- Node22 -->
<g id="node22" class="node">
<title>Node22</title>
<g id="a_node22"><a xlink:href="../../d3/de8/wiegand_8cpp.html" target="_top" xlink:title=" ">
<polygon fill="white" stroke="black" points="2360,-67.5 2360,-97.5 2480,-97.5 2480,-67.5 2360,-67.5"/>
<text text-anchor="start" x="2368" y="-85.5" font-family="Helvetica,sans-Serif" font-size="10.00">src/modules/wiegand</text>
<text text-anchor="middle" x="2420" y="-74.5" font-family="Helvetica,sans-Serif" font-size="10.00">/wiegand.cpp</text>
</a>
</g>
</g>
<!-- Node3&#45;&gt;Node22 -->
<g id="edge21" class="edge">
<title>Node3&#45;&gt;Node22</title>
<path fill="none" stroke="midnightblue" d="M1525.56,-137.75C1532.68,-136.27 1540.02,-134.94 1547,-134 1901.5,-86.29 1996.14,-142.93 2351,-98 2353.91,-97.63 2356.89,-97.2 2359.89,-96.73"/>
<polygon fill="midnightblue" stroke="midnightblue" points="1524.37,-134.43 1515.35,-139.99 1525.87,-141.26 1524.37,-134.43"/>
</g>
<!-- Node24 -->
<g id="node24" class="node">
<title>Node24</title>
<g id="a_node24"><a xlink:href="../../db/d85/AsioModule_8hpp.html" target="_top" xlink:title=" ">
<polygon fill="white" stroke="black" points="4334.5,-140 4334.5,-159 4491.5,-159 4491.5,-140 4334.5,-140"/>
<text text-anchor="middle" x="4413" y="-147" font-family="Helvetica,sans-Serif" font-size="10.00">src/modules/AsioModule.hpp</text>
</a>
</g>
</g>
<!-- Node23&#45;&gt;Node24 -->
<g id="edge23" class="edge">
<title>Node23&#45;&gt;Node24</title>
<path fill="none" stroke="midnightblue" d="M3028.38,-208.61C3294.47,-204.29 4072.14,-189.83 4325,-165 4339.18,-163.61 4354.53,-161.34 4368.38,-159.01"/>
<polygon fill="midnightblue" stroke="midnightblue" points="3028.32,-205.11 3018.38,-208.78 3028.43,-212.11 3028.32,-205.11"/>
</g>
<!-- Node35 -->
<g id="node29" class="node">
<title>Node35</title>
<g id="a_node29"><a xlink:href="../../df/d57/AuthFileModule_8hpp.html" target="_top" xlink:title=" ">
<polygon fill="white" stroke="black" points="3112.5,-134.5 3112.5,-164.5 3247.5,-164.5 3247.5,-134.5 3112.5,-134.5"/>
<text text-anchor="start" x="3120.5" y="-152.5" font-family="Helvetica,sans-Serif" font-size="10.00">src/modules/auth/auth</text>
<text text-anchor="middle" x="3180" y="-141.5" font-family="Helvetica,sans-Serif" font-size="10.00">&#45;file/AuthFileModule.hpp</text>
</a>
</g>
</g>
<!-- Node23&#45;&gt;Node35 -->
<g id="edge29" class="edge">
<title>Node23&#45;&gt;Node35</title>
<path fill="none" stroke="midnightblue" d="M2982.56,-199.05C3022.09,-189.33 3080.06,-175.07 3122.97,-164.52"/>
<polygon fill="midnightblue" stroke="midnightblue" points="2981.55,-195.69 2972.67,-201.48 2983.22,-202.49 2981.55,-195.69"/>
</g>
<!-- Node37 -->
<g id="node31" class="node">
<title>Node37</title>
<g id="a_node31"><a xlink:href="../../de/d21/BaseModule_8cpp.html" target="_top" xlink:title=" ">
<polygon fill="white" stroke="black" points="1842.5,-140 1842.5,-159 2001.5,-159 2001.5,-140 1842.5,-140"/>
<text text-anchor="middle" x="1922" y="-147" font-family="Helvetica,sans-Serif" font-size="10.00">src/modules/BaseModule.cpp</text>
</a>
</g>
</g>
<!-- Node23&#45;&gt;Node37 -->
<g id="edge32" class="edge">
<title>Node23&#45;&gt;Node37</title>
<path fill="none" stroke="midnightblue" d="M2847.39,-201.24C2846.26,-201.16 2845.12,-201.08 2844,-201 2474.32,-175.33 2379.63,-202.86 2011,-165 1996.98,-163.56 1981.82,-161.34 1968.05,-159.07"/>
<polygon fill="midnightblue" stroke="midnightblue" points="2847.53,-204.76 2857.77,-202.04 2848.07,-197.78 2847.53,-204.76"/>
</g>
<!-- Node38 -->
<g id="node32" class="node">
<title>Node38</title>
<g id="a_node32"><a xlink:href="../../de/d46/DoormanModule_8hpp.html" target="_top" xlink:title=" ">
<polygon fill="white" stroke="red" points="1702,-134.5 1702,-164.5 1824,-164.5 1824,-134.5 1702,-134.5"/>
<text text-anchor="start" x="1710" y="-152.5" font-family="Helvetica,sans-Serif" font-size="10.00">src/modules/doorman</text>
<text text-anchor="middle" x="1763" y="-141.5" font-family="Helvetica,sans-Serif" font-size="10.00">/DoormanModule.hpp</text>
</a>
</g>
</g>
<!-- Node23&#45;&gt;Node38 -->
<g id="edge33" class="edge">
<title>Node23&#45;&gt;Node38</title>
<path fill="none" stroke="midnightblue" d="M2847.39,-201.23C2846.26,-201.15 2845.12,-201.07 2844,-201 2395.79,-171.58 2280.02,-218.12 1834,-165 1830.75,-164.61 1827.43,-164.16 1824.09,-163.64"/>
<polygon fill="midnightblue" stroke="midnightblue" points="2847.54,-204.75 2857.77,-201.99 2848.06,-197.77 2847.54,-204.75"/>
</g>
<!-- Node41 -->
<g id="node33" class="node">
<title>Node41</title>
<g id="a_node33"><a xlink:href="../../d3/d6c/EventPublish_8h.html" target="_top" xlink:title=" ">
<polygon fill="white" stroke="red" points="2020,-134.5 2020,-164.5 2166,-164.5 2166,-134.5 2020,-134.5"/>
<text text-anchor="start" x="2028" y="-152.5" font-family="Helvetica,sans-Serif" font-size="10.00">src/modules/event&#45;publish</text>
<text text-anchor="middle" x="2093" y="-141.5" font-family="Helvetica,sans-Serif" font-size="10.00">/EventPublish.h</text>
</a>
</g>
</g>
<!-- Node23&#45;&gt;Node41 -->
<g id="edge35" class="edge">
<title>Node23&#45;&gt;Node41</title>
<path fill="none" stroke="midnightblue" d="M2847.39,-201.26C2846.26,-201.17 2845.12,-201.08 2844,-201 2547.51,-178.83 2471.41,-198.64 2176,-165 2172.8,-164.64 2169.54,-164.23 2166.25,-163.78"/>
<polygon fill="midnightblue" stroke="midnightblue" points="2847.52,-204.78 2857.77,-202.09 2848.08,-197.8 2847.52,-204.78"/>
</g>
<!-- Node44 -->
<g id="node34" class="node">
<title>Node44</title>
<g id="a_node34"><a xlink:href="../../d3/d03/InstrumentationModule_8hpp.html" target="_top" xlink:title=" ">
<polygon fill="white" stroke="red" points="2184.5,-134.5 2184.5,-164.5 2341.5,-164.5 2341.5,-134.5 2184.5,-134.5"/>
<text text-anchor="start" x="2192.5" y="-152.5" font-family="Helvetica,sans-Serif" font-size="10.00">src/modules/instrumentation</text>
<text text-anchor="middle" x="2263" y="-141.5" font-family="Helvetica,sans-Serif" font-size="10.00">/InstrumentationModule.hpp</text>
</a>
</g>
</g>
<!-- Node23&#45;&gt;Node44 -->
<g id="edge36" class="edge">
<title>Node23&#45;&gt;Node44</title>
<path fill="none" stroke="midnightblue" d="M2847.39,-201.29C2846.25,-201.19 2845.12,-201.09 2844,-201 2625.08,-182.53 2569.16,-190.89 2351,-165 2347.92,-164.64 2344.79,-164.24 2341.63,-163.82"/>
<polygon fill="midnightblue" stroke="midnightblue" points="2847.49,-204.81 2857.76,-202.2 2848.1,-197.84 2847.49,-204.81"/>
</g>
<!-- Node47 -->
<g id="node35" class="node">
<title>Node47</title>
<g id="a_node35"><a xlink:href="../../dd/d33/LEDBuzzerModule_8hpp.html" target="_top" xlink:title=" ">
<polygon fill="white" stroke="red" points="3898,-134.5 3898,-164.5 4028,-164.5 4028,-134.5 3898,-134.5"/>
<text text-anchor="start" x="3906" y="-152.5" font-family="Helvetica,sans-Serif" font-size="10.00">src/modules/led&#45;buzzer</text>
<text text-anchor="middle" x="3963" y="-141.5" font-family="Helvetica,sans-Serif" font-size="10.00">/LEDBuzzerModule.hpp</text>
</a>
</g>
</g>
<!-- Node23&#45;&gt;Node47 -->
<g id="edge37" class="edge">
<title>Node23&#45;&gt;Node47</title>
<path fill="none" stroke="midnightblue" d="M3028.29,-210.11C3197.68,-209.35 3574.42,-203.06 3889,-165 3891.86,-164.65 3894.77,-164.26 3897.71,-163.83"/>
<polygon fill="midnightblue" stroke="midnightblue" points="3028.16,-206.61 3018.17,-210.15 3028.19,-213.61 3028.16,-206.61"/>
</g>
<!-- Node50 -->
<g id="node37" class="node">
<title>Node50</title>
<g id="a_node37"><a xlink:href="../../d2/dc2/MonitorModule_8hpp.html" target="_top" xlink:title=" ">
<polygon fill="white" stroke="red" points="2498.5,-134.5 2498.5,-164.5 2615.5,-164.5 2615.5,-134.5 2498.5,-134.5"/>
<text text-anchor="start" x="2506.5" y="-152.5" font-family="Helvetica,sans-Serif" font-size="10.00">src/modules/monitor</text>
<text text-anchor="middle" x="2557" y="-141.5" font-family="Helvetica,sans-Serif" font-size="10.00">/MonitorModule.hpp</text>
</a>
</g>
</g>
<!-- Node23&#45;&gt;Node50 -->
<g id="edge40" class="edge">
<title>Node23&#45;&gt;Node50</title>
<path fill="none" stroke="midnightblue" d="M2859.47,-200.2C2796.02,-191.92 2704.52,-179.18 2625,-165 2621.91,-164.45 2618.75,-163.86 2615.56,-163.25"/>
<polygon fill="midnightblue" stroke="midnightblue" points="2859.03,-203.67 2869.4,-201.49 2859.94,-196.73 2859.03,-203.67"/>
</g>
<!-- Node53 -->
<g id="node38" class="node">
<title>Node53</title>
<g id="a_node38"><a xlink:href="../../d7/d36/PFDigitalModule_8hpp.html" target="_top" xlink:title=" ">
<polygon fill="white" stroke="red" points="2634,-134.5 2634,-164.5 2774,-164.5 2774,-134.5 2634,-134.5"/>
<text text-anchor="start" x="2642" y="-152.5" font-family="Helvetica,sans-Serif" font-size="10.00">src/modules/pifacedigital</text>
<text text-anchor="middle" x="2704" y="-141.5" font-family="Helvetica,sans-Serif" font-size="10.00">/PFDigitalModule.hpp</text>
</a>
</g>
</g>
<!-- Node23&#45;&gt;Node53 -->
<g id="edge41" class="edge">
<title>Node23&#45;&gt;Node53</title>
<path fill="none" stroke="midnightblue" d="M2894.67,-198.98C2856.45,-189.27 2800.55,-175.05 2759.15,-164.52"/>
<polygon fill="midnightblue" stroke="midnightblue" points="2893.92,-202.4 2904.47,-201.48 2895.64,-195.62 2893.92,-202.4"/>
</g>
<!-- Node56 -->
<g id="node39" class="node">
<title>Node56</title>
<g id="a_node39"><a xlink:href="../../db/df9/ReplicationModule_8hpp.html" target="_top" xlink:title=" ">
<polygon fill="white" stroke="red" points="2792.5,-134.5 2792.5,-164.5 2923.5,-164.5 2923.5,-134.5 2792.5,-134.5"/>
<text text-anchor="start" x="2800.5" y="-152.5" font-family="Helvetica,sans-Serif" font-size="10.00">src/modules/replication</text>
<text text-anchor="middle" x="2858" y="-141.5" font-family="Helvetica,sans-Serif" font-size="10.00">/ReplicationModule.hpp</text>
</a>
</g>
</g>
<!-- Node23&#45;&gt;Node56 -->
<g id="edge42" class="edge">
<title>Node23&#45;&gt;Node56</title>
<path fill="none" stroke="midnightblue" d="M2918.46,-195.47C2905.79,-186.05 2889.38,-173.84 2876.85,-164.52"/>
<polygon fill="midnightblue" stroke="midnightblue" points="2916.43,-198.32 2926.54,-201.48 2920.6,-192.7 2916.43,-198.32"/>
</g>
<!-- Node59 -->
<g id="node40" class="node">
<title>Node59</title>
<g id="a_node40"><a xlink:href="../../d3/d0f/RplethModule_8hpp.html" target="_top" xlink:title=" ">
<polygon fill="white" stroke="red" points="4208,-134.5 4208,-164.5 4316,-164.5 4316,-134.5 4208,-134.5"/>
<text text-anchor="start" x="4216" y="-152.5" font-family="Helvetica,sans-Serif" font-size="10.00">src/modules/rpleth</text>
<text text-anchor="middle" x="4262" y="-141.5" font-family="Helvetica,sans-Serif" font-size="10.00">/RplethModule.hpp</text>
</a>
</g>
</g>
<!-- Node23&#45;&gt;Node59 -->
<g id="edge43" class="edge">
<title>Node23&#45;&gt;Node59</title>
<path fill="none" stroke="midnightblue" d="M3028.36,-209.01C3277.79,-205.93 3972.46,-194.83 4199,-165 4201.89,-164.62 4204.85,-164.17 4207.82,-163.66"/>
<polygon fill="midnightblue" stroke="midnightblue" points="3028.2,-205.51 3018.24,-209.14 3028.28,-212.51 3028.2,-205.51"/>
</g>
<!-- Node63 -->
<g id="node42" class="node">
<title>Node63</title>
<g id="a_node42"><a xlink:href="../../df/d94/StdinControllerModule_8hpp.html" target="_top" xlink:title=" ">
<polygon fill="white" stroke="red" points="2941.5,-134.5 2941.5,-164.5 3094.5,-164.5 3094.5,-134.5 2941.5,-134.5"/>
<text text-anchor="start" x="2949.5" y="-152.5" font-family="Helvetica,sans-Serif" font-size="10.00">src/modules/stdin&#45;controller</text>
<text text-anchor="middle" x="3018" y="-141.5" font-family="Helvetica,sans-Serif" font-size="10.00">/StdinControllerModule.hpp</text>
</a>
</g>
</g>
<!-- Node23&#45;&gt;Node63 -->
<g id="edge45" class="edge">
<title>Node23&#45;&gt;Node63</title>
<path fill="none" stroke="midnightblue" d="M2957.54,-195.47C2970.21,-186.05 2986.62,-173.84 2999.15,-164.52"/>
<polygon fill="midnightblue" stroke="midnightblue" points="2955.4,-192.7 2949.46,-201.48 2959.57,-198.32 2955.4,-192.7"/>
</g>
<!-- Node66 -->
<g id="node43" class="node">
<title>Node66</title>
<g id="a_node43"><a xlink:href="../../db/dcb/SysFsGpioModule_8hpp.html" target="_top" xlink:title=" ">
<polygon fill="white" stroke="red" points="1556,-134.5 1556,-164.5 1684,-164.5 1684,-134.5 1556,-134.5"/>
<text text-anchor="start" x="1564" y="-152.5" font-family="Helvetica,sans-Serif" font-size="10.00">src/modules/sysfsgpio</text>
<text text-anchor="middle" x="1620" y="-141.5" font-family="Helvetica,sans-Serif" font-size="10.00">/SysFsGpioModule.hpp</text>
</a>
</g>
</g>
<!-- Node23&#45;&gt;Node66 -->
<g id="edge46" class="edge">
<title>Node23&#45;&gt;Node66</title>
<path fill="none" stroke="midnightblue" d="M2847.4,-201.22C2846.26,-201.15 2845.12,-201.07 2844,-201 2333.22,-168.59 2201.5,-223.05 1693,-165 1690.05,-164.66 1687.04,-164.27 1684,-163.83"/>
<polygon fill="midnightblue" stroke="midnightblue" points="2847.55,-204.74 2857.77,-201.97 2848.05,-197.76 2847.55,-204.74"/>
</g>
<!-- Node73 -->
<g id="node44" class="node">
<title>Node73</title>
<g id="a_node44"><a xlink:href="../../d0/dd9/TcpNotifier_8hpp.html" target="_top" xlink:title=" ">
<polygon fill="white" stroke="red" points="3266,-134.5 3266,-164.5 3398,-164.5 3398,-134.5 3266,-134.5"/>
<text text-anchor="start" x="3274" y="-152.5" font-family="Helvetica,sans-Serif" font-size="10.00">src/modules/tcp&#45;notifier</text>
<text text-anchor="middle" x="3332" y="-141.5" font-family="Helvetica,sans-Serif" font-size="10.00">/TcpNotifier.hpp</text>
</a>
</g>
</g>
<!-- Node23&#45;&gt;Node73 -->
<g id="edge48" class="edge">
<title>Node23&#45;&gt;Node73</title>
<path fill="none" stroke="midnightblue" d="M3015.8,-200.15C3080.49,-191.69 3174.92,-178.71 3257,-165 3259.88,-164.52 3262.81,-164.01 3265.78,-163.49"/>
<polygon fill="midnightblue" stroke="midnightblue" points="3015.14,-196.71 3005.67,-201.47 3016.04,-203.65 3015.14,-196.71"/>
</g>
<!-- Node76 -->
<g id="node45" class="node">
<title>Node76</title>
<g id="a_node45"><a xlink:href="../../dc/d15/TestAndResetModule_8hpp.html" target="_top" xlink:title=" ">
<polygon fill="white" stroke="red" points="3416.5,-134.5 3416.5,-164.5 3587.5,-164.5 3587.5,-134.5 3416.5,-134.5"/>
<text text-anchor="start" x="3424.5" y="-152.5" font-family="Helvetica,sans-Serif" font-size="10.00">src/modules/test&#45;and</text>
<text text-anchor="middle" x="3502" y="-141.5" font-family="Helvetica,sans-Serif" font-size="10.00">&#45;reset/TestAndResetModule.hpp</text>
</a>
</g>
</g>
<!-- Node23&#45;&gt;Node76 -->
<g id="edge49" class="edge">
<title>Node23&#45;&gt;Node76</title>
<path fill="none" stroke="midnightblue" d="M3028.33,-202.84C3122.89,-194.99 3275.62,-181.32 3407,-165 3410.06,-164.62 3413.18,-164.22 3416.33,-163.8"/>
<polygon fill="midnightblue" stroke="midnightblue" points="3027.91,-199.36 3018.23,-203.67 3028.49,-206.34 3027.91,-199.36"/>
</g>
<!-- Node79 -->
<g id="node46" class="node">
<title>Node79</title>
<g id="a_node46"><a xlink:href="../../d9/d90/WebSockAPI_8hpp.html" target="_top" xlink:title=" ">
<polygon fill="white" stroke="red" points="3606,-134.5 3606,-164.5 3728,-164.5 3728,-134.5 3606,-134.5"/>
<text text-anchor="start" x="3614" y="-152.5" font-family="Helvetica,sans-Serif" font-size="10.00">src/modules/websock</text>
<text text-anchor="middle" x="3667" y="-141.5" font-family="Helvetica,sans-Serif" font-size="10.00">&#45;api/WebSockAPI.hpp</text>
</a>
</g>
</g>
<!-- Node23&#45;&gt;Node79 -->
<g id="edge50" class="edge">
<title>Node23&#45;&gt;Node79</title>
<path fill="none" stroke="midnightblue" d="M3028.34,-207.72C3155.68,-203.62 3394.98,-192.69 3597,-165 3599.83,-164.61 3602.71,-164.18 3605.62,-163.71"/>
<polygon fill="midnightblue" stroke="midnightblue" points="3028.13,-204.22 3018.24,-208.04 3028.35,-211.22 3028.13,-204.22"/>
</g>
<!-- Node83 -->
<g id="node47" class="node">
<title>Node83</title>
<g id="a_node47"><a xlink:href="../../d0/d6f/wiegand_8hpp.html" target="_top" xlink:title=" ">
<polygon fill="white" stroke="black" points="2360,-134.5 2360,-164.5 2480,-164.5 2480,-134.5 2360,-134.5"/>
<text text-anchor="start" x="2368" y="-152.5" font-family="Helvetica,sans-Serif" font-size="10.00">src/modules/wiegand</text>
<text text-anchor="middle" x="2420" y="-141.5" font-family="Helvetica,sans-Serif" font-size="10.00">/wiegand.hpp</text>
</a>
</g>
</g>
<!-- Node23&#45;&gt;Node83 -->
<g id="edge51" class="edge">
<title>Node23&#45;&gt;Node83</title>
<path fill="none" stroke="midnightblue" d="M2847.84,-201.19C2722.1,-188.86 2507.4,-167.67 2490,-165 2486.81,-164.51 2483.55,-163.97 2480.26,-163.4"/>
<polygon fill="midnightblue" stroke="midnightblue" points="2847.56,-204.68 2857.86,-202.17 2848.25,-197.71 2847.56,-204.68"/>
</g>
<!-- Node85 -->
<g id="node49" class="node">
<title>Node85</title>
<g id="a_node49"><a xlink:href="../../dc/dbe/WebServiceNotifier_8hpp.html" target="_top" xlink:title=" ">
<polygon fill="white" stroke="red" points="3746.5,-134.5 3746.5,-164.5 3879.5,-164.5 3879.5,-134.5 3746.5,-134.5"/>
<text text-anchor="start" x="3754.5" y="-152.5" font-family="Helvetica,sans-Serif" font-size="10.00">src/modules/ws&#45;notifier</text>
<text text-anchor="middle" x="3813" y="-141.5" font-family="Helvetica,sans-Serif" font-size="10.00">/WebServiceNotifier.hpp</text>
</a>
</g>
</g>
<!-- Node23&#45;&gt;Node85 -->
<g id="edge54" class="edge">
<title>Node23&#45;&gt;Node85</title>
<path fill="none" stroke="midnightblue" d="M3028.69,-208.79C3177.24,-205.94 3481.48,-196.43 3737,-165 3740.07,-164.62 3743.2,-164.2 3746.35,-163.73"/>
<polygon fill="midnightblue" stroke="midnightblue" points="3028.2,-205.3 3018.26,-208.99 3028.33,-212.3 3028.2,-205.3"/>
</g>
<!-- Node25 -->
<g id="node25" class="node">
<title>Node25</title>
<g id="a_node25"><a xlink:href="../../d7/d41/AsioModule_8cpp.html" target="_top" xlink:title=" ">
<polygon fill="white" stroke="black" points="4663,-73 4663,-92 4819,-92 4819,-73 4663,-73"/>
<text text-anchor="middle" x="4741" y="-80" font-family="Helvetica,sans-Serif" font-size="10.00">src/modules/AsioModule.cpp</text>
</a>
</g>
</g>
<!-- Node24&#45;&gt;Node25 -->
<g id="edge24" class="edge">
<title>Node24&#45;&gt;Node25</title>
<path fill="none" stroke="midnightblue" d="M4466.2,-137.96C4530.75,-125.16 4638.34,-103.84 4697.95,-92.03"/>
<polygon fill="midnightblue" stroke="midnightblue" points="4465.35,-134.56 4456.22,-139.94 4466.71,-141.42 4465.35,-134.56"/>
</g>
<!-- Node26 -->
<g id="node26" class="node">
<title>Node26</title>
<g id="a_node26"><a xlink:href="../../d7/d6b/AuthDBModule_8hpp.html" target="_top" xlink:title=" ">
<polygon fill="white" stroke="red" points="4181.5,-67.5 4181.5,-97.5 4310.5,-97.5 4310.5,-67.5 4181.5,-67.5"/>
<text text-anchor="start" x="4189.5" y="-85.5" font-family="Helvetica,sans-Serif" font-size="10.00">src/modules/auth/auth</text>
<text text-anchor="middle" x="4246" y="-74.5" font-family="Helvetica,sans-Serif" font-size="10.00">&#45;db/AuthDBModule.hpp</text>
</a>
</g>
</g>
<!-- Node24&#45;&gt;Node26 -->
<g id="edge25" class="edge">
<title>Node24&#45;&gt;Node26</title>
<path fill="none" stroke="midnightblue" d="M4381.4,-136.2C4353.11,-125.19 4311.62,-109.04 4282.04,-97.53"/>
<polygon fill="midnightblue" stroke="midnightblue" points="4380.24,-139.5 4390.82,-139.87 4382.77,-132.98 4380.24,-139.5"/>
</g>
<!-- Node28 -->
<g id="node27" class="node">
<title>Node28</title>
<g id="a_node27"><a xlink:href="../../d0/db8/NotifdModule_8hpp.html" target="_top" xlink:title=" ">
<polygon fill="white" stroke="red" points="4328.5,-67.5 4328.5,-97.5 4435.5,-97.5 4435.5,-67.5 4328.5,-67.5"/>
<text text-anchor="start" x="4336.5" y="-85.5" font-family="Helvetica,sans-Serif" font-size="10.00">src/modules/notifd</text>
<text text-anchor="middle" x="4382" y="-74.5" font-family="Helvetica,sans-Serif" font-size="10.00">/NotifdModule.hpp</text>
</a>
</g>
</g>
<!-- Node24&#45;&gt;Node28 -->
<g id="edge27" class="edge">
<title>Node24&#45;&gt;Node28</title>
<path fill="none" stroke="midnightblue" d="M4404.36,-130.39C4399.42,-120.02 4393.3,-107.2 4388.72,-97.59"/>
<polygon fill="midnightblue" stroke="midnightblue" points="4401.36,-132.21 4408.82,-139.73 4407.67,-129.2 4401.36,-132.21"/>
</g>
<!-- Node31 -->
<g id="node28" class="node">
<title>Node31</title>
<g id="a_node28"><a xlink:href="../../d1/df6/SMTPModule_8hpp.html" target="_top" xlink:title=" ">
<polygon fill="white" stroke="red" points="4453.5,-73 4453.5,-92 4644.5,-92 4644.5,-73 4453.5,-73"/>
<text text-anchor="middle" x="4549" y="-80" font-family="Helvetica,sans-Serif" font-size="10.00">src/modules/smtp/SMTPModule.hpp</text>
</a>
</g>
</g>
<!-- Node24&#45;&gt;Node31 -->
<g id="edge28" class="edge">
<title>Node24&#45;&gt;Node31</title>
<path fill="none" stroke="midnightblue" d="M4440.32,-135.44C4467.26,-122.57 4507.66,-103.26 4530.87,-92.17"/>
<polygon fill="midnightblue" stroke="midnightblue" points="4438.57,-132.4 4431.06,-139.87 4441.59,-138.71 4438.57,-132.4"/>
</g>
<!-- Node26&#45;&gt;Node16 -->
<g id="edge26" class="edge">
<title>Node26&#45;&gt;Node16</title>
<path fill="none" stroke="midnightblue" d="M4171.04,-67.02C3802.3,-22.78 3370.7,-17.02 3210.2,-16.45"/>
<polygon fill="midnightblue" stroke="midnightblue" points="4170.76,-70.51 4181.11,-68.24 4171.61,-63.56 4170.76,-70.51"/>
</g>
<!-- Node35&#45;&gt;Node17 -->
<g id="edge30" class="edge">
<title>Node35&#45;&gt;Node17</title>
<path fill="none" stroke="midnightblue" d="M3102.1,-133.89C3031.58,-125.03 2776.17,-101.11 2653.04,-89.69"/>
<polygon fill="midnightblue" stroke="midnightblue" points="3101.72,-137.37 3112.1,-135.23 3102.65,-130.43 3101.72,-137.37"/>
</g>
<!-- Node36 -->
<g id="node30" class="node">
<title>Node36</title>
<g id="a_node30"><a xlink:href="../../dc/d32/auth_2auth-file_2init_8cpp.html" target="_top" xlink:title=" ">
<polygon fill="white" stroke="black" points="3117.5,-67.5 3117.5,-97.5 3242.5,-97.5 3242.5,-67.5 3117.5,-67.5"/>
<text text-anchor="start" x="3125.5" y="-85.5" font-family="Helvetica,sans-Serif" font-size="10.00">src/modules/auth/auth</text>
<text text-anchor="middle" x="3180" y="-74.5" font-family="Helvetica,sans-Serif" font-size="10.00">&#45;file/init.cpp</text>
</a>
</g>
</g>
<!-- Node35&#45;&gt;Node36 -->
<g id="edge31" class="edge">
<title>Node35&#45;&gt;Node36</title>
<path fill="none" stroke="midnightblue" d="M3180,-124.11C3180,-115.15 3180,-105.32 3180,-97.58"/>
<polygon fill="midnightblue" stroke="midnightblue" points="3176.5,-124.4 3180,-134.4 3183.5,-124.4 3176.5,-124.4"/>
</g>
<!-- Node38&#45;&gt;Node18 -->
<g id="edge34" class="edge">
<title>Node38&#45;&gt;Node18</title>
<path fill="none" stroke="midnightblue" d="M1833.7,-134.05C1833.8,-134.03 1833.9,-134.02 1834,-134 2000.47,-109.13 2044.57,-123.11 2211,-98 2213.95,-97.56 2216.95,-97.07 2219.99,-96.55"/>
<polygon fill="midnightblue" stroke="midnightblue" points="1833.43,-130.54 1824.12,-135.59 1834.55,-137.45 1833.43,-130.54"/>
</g>
<!-- Node47&#45;&gt;Node19 -->
<g id="edge38" class="edge">
<title>Node47&#45;&gt;Node19</title>
<path fill="none" stroke="midnightblue" d="M3887.69,-133.98C3465.8,-85.79 3354.61,-132.08 2935,-98 2918.51,-96.66 2900.77,-94.71 2884.23,-92.66"/>
<polygon fill="midnightblue" stroke="midnightblue" points="3887.38,-137.47 3897.72,-135.14 3888.18,-130.51 3887.38,-137.47"/>
</g>
<!-- Node49 -->
<g id="node36" class="node">
<title>Node49</title>
<g id="a_node36"><a xlink:href="../../d9/d21/Led_8cpp.html" target="_top" xlink:title=" ">
<polygon fill="white" stroke="black" points="3952,-73 3952,-92 4028,-92 4028,-73 3952,-73"/>
<text text-anchor="middle" x="3990" y="-80" font-family="Helvetica,sans-Serif" font-size="10.00">test/Led.cpp</text>
</a>
</g>
</g>
<!-- Node47&#45;&gt;Node49 -->
<g id="edge39" class="edge">
<title>Node47&#45;&gt;Node49</title>
<path fill="none" stroke="midnightblue" d="M3972.79,-124.94C3977.52,-113.54 3982.92,-100.55 3986.39,-92.19"/>
<polygon fill="midnightblue" stroke="midnightblue" points="3969.46,-123.82 3968.86,-134.4 3975.93,-126.5 3969.46,-123.82"/>
</g>
<!-- Node62 -->
<g id="node41" class="node">
<title>Node62</title>
<g id="a_node41"><a xlink:href="../../db/d44/Rpleth_8cpp.html" target="_top" xlink:title=" ">
<polygon fill="white" stroke="black" points="4073,-73 4073,-92 4163,-92 4163,-73 4073,-73"/>
<text text-anchor="middle" x="4118" y="-80" font-family="Helvetica,sans-Serif" font-size="10.00">test/Rpleth.cpp</text>
</a>
</g>
</g>
<!-- Node59&#45;&gt;Node62 -->
<g id="edge44" class="edge">
<title>Node59&#45;&gt;Node62</title>
<path fill="none" stroke="midnightblue" d="M4221.31,-130.13C4193.59,-117.62 4158.19,-101.64 4136.85,-92.01"/>
<polygon fill="midnightblue" stroke="midnightblue" points="4220.2,-133.47 4230.75,-134.4 4223.08,-127.09 4220.2,-133.47"/>
</g>
<!-- Node66&#45;&gt;Node20 -->
<g id="edge47" class="edge">
<title>Node66&#45;&gt;Node20</title>
<path fill="none" stroke="midnightblue" d="M1694.4,-133.89C1856.93,-110.44 1901.06,-120.53 2060,-98 2064.64,-97.34 2069.42,-96.6 2074.22,-95.82"/>
<polygon fill="midnightblue" stroke="midnightblue" points="1693.42,-130.5 1684.03,-135.41 1694.43,-137.43 1693.42,-130.5"/>
</g>
<!-- Node83&#45;&gt;Node22 -->
<g id="edge52" class="edge">
<title>Node83&#45;&gt;Node22</title>
<path fill="none" stroke="midnightblue" d="M2420,-124.11C2420,-115.15 2420,-105.32 2420,-97.58"/>
<polygon fill="midnightblue" stroke="midnightblue" points="2416.5,-124.4 2420,-134.4 2423.5,-124.4 2416.5,-124.4"/>
</g>
<!-- Node84 -->
<g id="node48" class="node">
<title>Node84</title>
<g id="a_node48"><a xlink:href="../../d4/d9b/WiegandReader_8cpp.html" target="_top" xlink:title=" ">
<polygon fill="white" stroke="black" points="2943.5,-73 2943.5,-92 3078.5,-92 3078.5,-73 2943.5,-73"/>
<text text-anchor="middle" x="3011" y="-80" font-family="Helvetica,sans-Serif" font-size="10.00">test/WiegandReader.cpp</text>
</a>
</g>
</g>
<!-- Node83&#45;&gt;Node84 -->
<g id="edge53" class="edge">
<title>Node83&#45;&gt;Node84</title>
<path fill="none" stroke="midnightblue" d="M2490.28,-134.09C2669.61,-108.04 2717.41,-116.63 2893,-98 2909.83,-96.21 2927.99,-94.09 2944.89,-92.02"/>
<polygon fill="midnightblue" stroke="midnightblue" points="2489.64,-130.64 2480.25,-135.56 2490.65,-137.57 2489.64,-130.64"/>
</g>
<!-- Node88&#45;&gt;Node49 -->
<g id="edge56" class="edge">
<title>Node88&#45;&gt;Node49</title>
<path fill="none" stroke="midnightblue" d="M4091.95,-135.27C4066.6,-122.4 4028.81,-103.21 4007.07,-92.17"/>
<polygon fill="midnightblue" stroke="midnightblue" points="4090.5,-138.46 4101,-139.87 4093.67,-132.22 4090.5,-138.46"/>
</g>
<!-- Node88&#45;&gt;Node62 -->
<g id="edge57" class="edge">
<title>Node88&#45;&gt;Node62</title>
<path fill="none" stroke="midnightblue" d="M4118,-129.54C4118,-117.17 4118,-101.62 4118,-92.13"/>
<polygon fill="midnightblue" stroke="midnightblue" points="4114.5,-129.73 4118,-139.73 4121.5,-129.73 4114.5,-129.73"/>
</g>
<!-- Node88&#45;&gt;Node84 -->
<g id="edge58" class="edge">
<title>Node88&#45;&gt;Node84</title>
<path fill="none" stroke="midnightblue" d="M4066.53,-138.19C4056.76,-136.54 4046.59,-135.04 4037,-134 3626.65,-89.53 3519.98,-136.26 3109,-98 3093.5,-96.56 3076.71,-94.32 3061.49,-92.04"/>
<polygon fill="midnightblue" stroke="midnightblue" points="4066.08,-141.66 4076.54,-139.94 4067.29,-134.76 4066.08,-141.66"/>
</g>
</g>
</svg>
