<?xml version="1.0" encoding="UTF-8" standalone="no"?>
<!DOCTYPE svg PUBLIC "-//W3C//DTD SVG 1.1//EN"
 "http://www.w3.org/Graphics/SVG/1.1/DTD/svg11.dtd">
<!-- Generated by graphviz version 2.43.0 (0)
 -->
<!-- Title: src/tools/MyTime.hpp Pages: 1 -->
<svg width="803pt" height="162pt"
 viewBox="0.00 0.00 802.50 162.00" xmlns="http://www.w3.org/2000/svg" xmlns:xlink="http://www.w3.org/1999/xlink">
<g id="graph0" class="graph" transform="scale(1 1) rotate(0) translate(4 158)">
<title>src/tools/MyTime.hpp</title>
<polygon fill="white" stroke="transparent" points="-4,4 -4,-158 798.5,-158 798.5,4 -4,4"/>
<!-- Node1 -->
<g id="node1" class="node">
<title>Node1</title>
<g id="a_node1"><a xlink:title=" ">
<polygon fill="#bfbfbf" stroke="black" points="375,-134.5 375,-153.5 497,-153.5 497,-134.5 375,-134.5"/>
<text text-anchor="middle" x="436" y="-141.5" font-family="Helvetica,sans-Serif" font-size="10.00">src/tools/MyTime.hpp</text>
</a>
</g>
</g>
<!-- Node2 -->
<g id="node2" class="node">
<title>Node2</title>
<g id="a_node2"><a xlink:href="../../da/d6f/SMTPModule_8cpp.html" target="_top" xlink:title=" ">
<polygon fill="white" stroke="black" points="0,-73 0,-92 190,-92 190,-73 0,-73"/>
<text text-anchor="middle" x="95" y="-80" font-family="Helvetica,sans-Serif" font-size="10.00">src/modules/smtp/SMTPModule.cpp</text>
</a>
</g>
</g>
<!-- Node1&#45;&gt;Node2 -->
<g id="edge1" class="edge">
<title>Node1&#45;&gt;Node2</title>
<path fill="none" stroke="midnightblue" d="M376.9,-132.69C310.89,-121.17 205.26,-102.74 143.77,-92.01"/>
<polygon fill="midnightblue" stroke="midnightblue" points="376.69,-136.2 387.14,-134.48 377.89,-129.31 376.69,-136.2"/>
</g>
<!-- Node3 -->
<g id="node3" class="node">
<title>Node3</title>
<g id="a_node3"><a xlink:href="../../d3/d2d/STDDurationODB_8hpp.html" target="_top" xlink:title=" ">
<polygon fill="white" stroke="black" points="208.5,-67.5 208.5,-97.5 345.5,-97.5 345.5,-67.5 208.5,-67.5"/>
<text text-anchor="start" x="216.5" y="-85.5" font-family="Helvetica,sans-Serif" font-size="10.00">src/tools/db/STDDuration</text>
<text text-anchor="middle" x="277" y="-74.5" font-family="Helvetica,sans-Serif" font-size="10.00">ODB.hpp</text>
</a>
</g>
</g>
<!-- Node1&#45;&gt;Node3 -->
<g id="edge2" class="edge">
<title>Node1&#45;&gt;Node3</title>
<path fill="none" stroke="midnightblue" d="M403.53,-130.85C377.7,-121.18 341.53,-107.65 314.47,-97.52"/>
<polygon fill="midnightblue" stroke="midnightblue" points="402.63,-134.25 413.22,-134.48 405.08,-127.69 402.63,-134.25"/>
</g>
<!-- Node5 -->
<g id="node5" class="node">
<title>Node5</title>
<g id="a_node5"><a xlink:href="../../d4/d66/STDTimePointODB_8hpp.html" target="_top" xlink:title=" ">
<polygon fill="white" stroke="black" points="363.5,-67.5 363.5,-97.5 508.5,-97.5 508.5,-67.5 363.5,-67.5"/>
<text text-anchor="start" x="371.5" y="-85.5" font-family="Helvetica,sans-Serif" font-size="10.00">src/tools/db/STDTimePoint</text>
<text text-anchor="middle" x="436" y="-74.5" font-family="Helvetica,sans-Serif" font-size="10.00">ODB.hpp</text>
</a>
</g>
</g>
<!-- Node1&#45;&gt;Node5 -->
<g id="edge4" class="edge">
<title>Node1&#45;&gt;Node5</title>
<path fill="none" stroke="midnightblue" d="M436,-124.23C436,-115.59 436,-105.5 436,-97.52"/>
<polygon fill="midnightblue" stroke="midnightblue" points="432.5,-124.48 436,-134.48 439.5,-124.48 432.5,-124.48"/>
</g>
<!-- Node6 -->
<g id="node6" class="node">
<title>Node6</title>
<g id="a_node6"><a xlink:href="../../df/d40/JSONUtils_8cpp.html" target="_top" xlink:title=" ">
<polygon fill="white" stroke="black" points="527,-73 527,-92 655,-92 655,-73 527,-73"/>
<text text-anchor="middle" x="591" y="-80" font-family="Helvetica,sans-Serif" font-size="10.00">src/tools/JSONUtils.cpp</text>
</a>
</g>
</g>
<!-- Node1&#45;&gt;Node6 -->
<g id="edge6" class="edge">
<title>Node1&#45;&gt;Node6</title>
<path fill="none" stroke="midnightblue" d="M467.83,-130.78C497.95,-119.22 542.38,-102.16 568.83,-92.01"/>
<polygon fill="midnightblue" stroke="midnightblue" points="466.29,-127.62 458.21,-134.48 468.8,-134.16 466.29,-127.62"/>
</g>
<!-- Node7 -->
<g id="node7" class="node">
<title>Node7</title>
<g id="a_node7"><a xlink:href="../../dd/dcc/MyTime_8cpp.html" target="_top" xlink:title=" ">
<polygon fill="white" stroke="black" points="673.5,-73 673.5,-92 794.5,-92 794.5,-73 673.5,-73"/>
<text text-anchor="middle" x="734" y="-80" font-family="Helvetica,sans-Serif" font-size="10.00">src/tools/MyTime.cpp</text>
</a>
</g>
</g>
<!-- Node1&#45;&gt;Node7 -->
<g id="edge7" class="edge">
<title>Node1&#45;&gt;Node7</title>
<path fill="none" stroke="midnightblue" d="M489.83,-132.52C536.05,-123.49 604.44,-110.05 664,-98 673.37,-96.11 683.43,-94.04 692.93,-92.08"/>
<polygon fill="midnightblue" stroke="midnightblue" points="488.88,-129.14 479.73,-134.49 490.22,-136.01 488.88,-129.14"/>
</g>
<!-- Node4 -->
<g id="node4" class="node">
<title>Node4</title>
<g id="a_node4"><a xlink:href="../../de/dee/ODB__Auth__Prologue_8hpp.html" target="_top" xlink:title=" ">
<polygon fill="white" stroke="black" points="293.5,-0.5 293.5,-30.5 418.5,-30.5 418.5,-0.5 293.5,-0.5"/>
<text text-anchor="start" x="301.5" y="-18.5" font-family="Helvetica,sans-Serif" font-size="10.00">src/tools/db/ODB_Auth</text>
<text text-anchor="middle" x="356" y="-7.5" font-family="Helvetica,sans-Serif" font-size="10.00">_Prologue.hpp</text>
</a>
</g>
</g>
<!-- Node3&#45;&gt;Node4 -->
<g id="edge3" class="edge">
<title>Node3&#45;&gt;Node4</title>
<path fill="none" stroke="midnightblue" d="M302.06,-60.88C314.06,-51.01 328.13,-39.43 338.89,-30.58"/>
<polygon fill="midnightblue" stroke="midnightblue" points="299.64,-58.34 294.14,-67.4 304.09,-63.75 299.64,-58.34"/>
</g>
<!-- Node5&#45;&gt;Node4 -->
<g id="edge5" class="edge">
<title>Node5&#45;&gt;Node4</title>
<path fill="none" stroke="midnightblue" d="M410.63,-60.88C398.47,-51.01 384.22,-39.43 373.32,-30.58"/>
<polygon fill="midnightblue" stroke="midnightblue" points="408.67,-63.81 418.64,-67.4 413.09,-58.37 408.67,-63.81"/>
</g>
</g>
</svg>
