<?xml version="1.0" encoding="UTF-8" standalone="no"?>
<!DOCTYPE svg PUBLIC "-//W3C//DTD SVG 1.1//EN"
 "http://www.w3.org/Graphics/SVG/1.1/DTD/svg11.dtd">
<!-- Generated by graphviz version 2.43.0 (0)
 -->
<!-- Title: src/tools/unixfs.cpp Pages: 1 -->
<svg width="1523pt" height="364pt"
 viewBox="0.00 0.00 1523.46 364.00" xmlns="http://www.w3.org/2000/svg" xmlns:xlink="http://www.w3.org/1999/xlink">
<g id="graph0" class="graph" transform="scale(1 1) rotate(0) translate(4 360)">
<title>src/tools/unixfs.cpp</title>
<polygon fill="white" stroke="transparent" points="-4,4 -4,-360 1519.46,-360 1519.46,4 -4,4"/>
<!-- Node1 -->
<g id="node1" class="node">
<title>Node1</title>
<g id="a_node1"><a xlink:title="unix filesystem helper functions">
<polygon fill="#bfbfbf" stroke="black" points="928.5,-336.5 928.5,-355.5 1039.5,-355.5 1039.5,-336.5 928.5,-336.5"/>
<text text-anchor="middle" x="984" y="-343.5" font-family="Helvetica,sans-Serif" font-size="10.00">src/tools/unixfs.cpp</text>
</a>
</g>
</g>
<!-- Node2 -->
<g id="node2" class="node">
<title>Node2</title>
<g id="a_node2"><a xlink:href="../../df/de4/unixfs_8hpp.html" target="_top" xlink:title="unix filesystem helper functions">
<polygon fill="white" stroke="black" points="401,-280.5 401,-299.5 469,-299.5 469,-280.5 401,-280.5"/>
<text text-anchor="middle" x="435" y="-287.5" font-family="Helvetica,sans-Serif" font-size="10.00">unixfs.hpp</text>
</a>
</g>
</g>
<!-- Node1&#45;&gt;Node2 -->
<g id="edge1" class="edge">
<title>Node1&#45;&gt;Node2</title>
<path fill="none" stroke="midnightblue" d="M928.34,-339.53C819.08,-328.78 578.54,-305.12 479.23,-295.35"/>
<polygon fill="midnightblue" stroke="midnightblue" points="479.53,-291.86 469.23,-294.37 478.84,-298.83 479.53,-291.86"/>
</g>
<!-- Node22 -->
<g id="node22" class="node">
<title>Node22</title>
<g id="a_node22"><a xlink:title=" ">
<polygon fill="white" stroke="#bfbfbf" points="921,-280.5 921,-299.5 975,-299.5 975,-280.5 921,-280.5"/>
<text text-anchor="middle" x="948" y="-287.5" font-family="Helvetica,sans-Serif" font-size="10.00">dirent.h</text>
</a>
</g>
</g>
<!-- Node1&#45;&gt;Node22 -->
<g id="edge42" class="edge">
<title>Node1&#45;&gt;Node22</title>
<path fill="none" stroke="midnightblue" d="M978.06,-336.08C973.02,-328.53 965.66,-317.49 959.49,-308.23"/>
<polygon fill="midnightblue" stroke="midnightblue" points="962.29,-306.13 953.83,-299.75 956.47,-310.01 962.29,-306.13"/>
</g>
<!-- Node23 -->
<g id="node23" class="node">
<title>Node23</title>
<g id="a_node23"><a xlink:title=" ">
<polygon fill="white" stroke="#bfbfbf" points="993,-280.5 993,-299.5 1049,-299.5 1049,-280.5 993,-280.5"/>
<text text-anchor="middle" x="1021" y="-287.5" font-family="Helvetica,sans-Serif" font-size="10.00">unistd.h</text>
</a>
</g>
</g>
<!-- Node1&#45;&gt;Node23 -->
<g id="edge43" class="edge">
<title>Node1&#45;&gt;Node23</title>
<path fill="none" stroke="midnightblue" d="M990.11,-336.08C995.28,-328.53 1002.85,-317.49 1009.19,-308.23"/>
<polygon fill="midnightblue" stroke="midnightblue" points="1012.24,-309.98 1015,-299.75 1006.46,-306.02 1012.24,-309.98"/>
</g>
<!-- Node24 -->
<g id="node24" class="node">
<title>Node24</title>
<g id="a_node24"><a xlink:title=" ">
<polygon fill="white" stroke="#bfbfbf" points="1067,-280.5 1067,-299.5 1131,-299.5 1131,-280.5 1067,-280.5"/>
<text text-anchor="middle" x="1099" y="-287.5" font-family="Helvetica,sans-Serif" font-size="10.00">algorithm</text>
</a>
</g>
</g>
<!-- Node1&#45;&gt;Node24 -->
<g id="edge44" class="edge">
<title>Node1&#45;&gt;Node24</title>
<path fill="none" stroke="midnightblue" d="M1002.22,-336.44C1020.9,-327.68 1050.16,-313.94 1071.62,-303.86"/>
<polygon fill="midnightblue" stroke="midnightblue" points="1073.3,-306.93 1080.86,-299.52 1070.32,-300.6 1073.3,-306.93"/>
</g>
<!-- Node25 -->
<g id="node25" class="node">
<title>Node25</title>
<g id="a_node25"><a xlink:title=" ">
<polygon fill="white" stroke="#bfbfbf" points="1149.5,-280.5 1149.5,-299.5 1196.5,-299.5 1196.5,-280.5 1149.5,-280.5"/>
<text text-anchor="middle" x="1173" y="-287.5" font-family="Helvetica,sans-Serif" font-size="10.00">cerrno</text>
</a>
</g>
</g>
<!-- Node1&#45;&gt;Node25 -->
<g id="edge45" class="edge">
<title>Node1&#45;&gt;Node25</title>
<path fill="none" stroke="midnightblue" d="M1013.95,-336.44C1048.15,-326.67 1103.95,-310.73 1139.55,-300.56"/>
<polygon fill="midnightblue" stroke="midnightblue" points="1140.81,-303.84 1149.46,-297.73 1138.89,-297.11 1140.81,-303.84"/>
</g>
<!-- Node26 -->
<g id="node26" class="node">
<title>Node26</title>
<g id="a_node26"><a xlink:href="../../d8/d8e/unixsyscall_8hpp.html" target="_top" xlink:title="unix syscall helper functions">
<polygon fill="white" stroke="black" points="1131,-168.5 1131,-187.5 1223,-187.5 1223,-168.5 1131,-168.5"/>
<text text-anchor="middle" x="1177" y="-175.5" font-family="Helvetica,sans-Serif" font-size="10.00">unixsyscall.hpp</text>
</a>
</g>
</g>
<!-- Node1&#45;&gt;Node26 -->
<g id="edge46" class="edge">
<title>Node1&#45;&gt;Node26</title>
<path fill="none" stroke="midnightblue" d="M960.99,-336.5C934.16,-325.24 895.47,-303.99 912,-280 958.84,-212.02 1058,-189.76 1120.85,-182.5"/>
<polygon fill="midnightblue" stroke="midnightblue" points="1121.42,-185.96 1130.99,-181.42 1120.68,-179 1121.42,-185.96"/>
</g>
<!-- Node3 -->
<g id="node3" class="node">
<title>Node3</title>
<g id="a_node3"><a xlink:title=" ">
<polygon fill="white" stroke="#bfbfbf" points="526.5,-224.5 526.5,-243.5 581.5,-243.5 581.5,-224.5 526.5,-224.5"/>
<text text-anchor="middle" x="554" y="-231.5" font-family="Helvetica,sans-Serif" font-size="10.00">fstream</text>
</a>
</g>
</g>
<!-- Node2&#45;&gt;Node3 -->
<g id="edge2" class="edge">
<title>Node2&#45;&gt;Node3</title>
<path fill="none" stroke="midnightblue" d="M453.86,-280.44C473.27,-271.64 503.73,-257.81 525.96,-247.72"/>
<polygon fill="midnightblue" stroke="midnightblue" points="527.57,-250.84 535.23,-243.52 524.68,-244.46 527.57,-250.84"/>
</g>
<!-- Node4 -->
<g id="node4" class="node">
<title>Node4</title>
<g id="a_node4"><a xlink:title=" ">
<polygon fill="white" stroke="#bfbfbf" points="0,-224.5 0,-243.5 32,-243.5 32,-224.5 0,-224.5"/>
<text text-anchor="middle" x="16" y="-231.5" font-family="Helvetica,sans-Serif" font-size="10.00">list</text>
</a>
</g>
</g>
<!-- Node2&#45;&gt;Node4 -->
<g id="edge3" class="edge">
<title>Node2&#45;&gt;Node4</title>
<path fill="none" stroke="midnightblue" d="M400.86,-287.08C332.77,-282.8 175.51,-270.7 46,-244 44.71,-243.73 43.4,-243.44 42.08,-243.12"/>
<polygon fill="midnightblue" stroke="midnightblue" points="42.63,-239.64 32.06,-240.39 40.78,-246.4 42.63,-239.64"/>
</g>
<!-- Node5 -->
<g id="node5" class="node">
<title>Node5</title>
<g id="a_node5"><a xlink:title=" ">
<polygon fill="white" stroke="#bfbfbf" points="731,-0.5 731,-19.5 775,-19.5 775,-0.5 731,-0.5"/>
<text text-anchor="middle" x="753" y="-7.5" font-family="Helvetica,sans-Serif" font-size="10.00">string</text>
</a>
</g>
</g>
<!-- Node2&#45;&gt;Node5 -->
<g id="edge4" class="edge">
<title>Node2&#45;&gt;Node5</title>
<path fill="none" stroke="midnightblue" d="M400.73,-286.32C308.15,-278.15 60,-249.65 60,-179 60,-179 60,-179 60,-121 60,-63.45 117.04,-73.09 172,-56 275.79,-23.72 614.66,-13.92 720.87,-11.61"/>
<polygon fill="midnightblue" stroke="midnightblue" points="721.04,-15.11 730.97,-11.4 720.89,-8.11 721.04,-15.11"/>
</g>
<!-- Node6 -->
<g id="node6" class="node">
<title>Node6</title>
<g id="a_node6"><a xlink:href="../../d0/d4e/fsexception_8hpp.html" target="_top" xlink:title="Exception class for filesystem related errors.">
<polygon fill="white" stroke="black" points="362,-224.5 362,-243.5 508,-243.5 508,-224.5 362,-224.5"/>
<text text-anchor="middle" x="435" y="-231.5" font-family="Helvetica,sans-Serif" font-size="10.00">exception/fsexception.hpp</text>
</a>
</g>
</g>
<!-- Node2&#45;&gt;Node6 -->
<g id="edge5" class="edge">
<title>Node2&#45;&gt;Node6</title>
<path fill="none" stroke="midnightblue" d="M435,-280.08C435,-273.01 435,-262.86 435,-253.99"/>
<polygon fill="midnightblue" stroke="midnightblue" points="438.5,-253.75 435,-243.75 431.5,-253.75 438.5,-253.75"/>
</g>
<!-- Node6&#45;&gt;Node5 -->
<g id="edge6" class="edge">
<title>Node6&#45;&gt;Node5</title>
<path fill="none" stroke="midnightblue" d="M361.56,-229.93C247.43,-222.5 47.46,-197.25 117,-112 194.09,-17.49 601.77,-10.71 720.52,-10.77"/>
<polygon fill="midnightblue" stroke="midnightblue" points="720.77,-14.27 730.78,-10.8 720.79,-7.27 720.77,-14.27"/>
</g>
<!-- Node7 -->
<g id="node7" class="node">
<title>Node7</title>
<g id="a_node7"><a xlink:href="../../d1/ddd/leosacexception_8hpp.html" target="_top" xlink:title="Exception class for LEOSAC Project related errors.">
<polygon fill="white" stroke="black" points="650.5,-168.5 650.5,-187.5 767.5,-187.5 767.5,-168.5 650.5,-168.5"/>
<text text-anchor="middle" x="709" y="-175.5" font-family="Helvetica,sans-Serif" font-size="10.00">leosacexception.hpp</text>
</a>
</g>
</g>
<!-- Node6&#45;&gt;Node7 -->
<g id="edge7" class="edge">
<title>Node6&#45;&gt;Node7</title>
<path fill="none" stroke="midnightblue" d="M473.33,-224.44C519.44,-214.94 597.12,-199.61 650.67,-189.42"/>
<polygon fill="midnightblue" stroke="midnightblue" points="651.53,-192.82 660.71,-187.52 650.23,-185.94 651.53,-192.82"/>
</g>
<!-- Node7&#45;&gt;Node5 -->
<g id="edge13" class="edge">
<title>Node7&#45;&gt;Node5</title>
<path fill="none" stroke="midnightblue" d="M767.61,-175.94C891.19,-173.1 1169.49,-163.26 1198,-132 1256.48,-67.89 896.9,-25.6 785.29,-14.14"/>
<polygon fill="midnightblue" stroke="midnightblue" points="785.58,-10.65 775.28,-13.13 784.88,-17.62 785.58,-10.65"/>
</g>
<!-- Node7&#45;&gt;Node6 -->
<g id="edge29" class="edge">
<title>Node7&#45;&gt;Node6</title>
<path fill="none" stroke="midnightblue" d="M670.87,-187.52C624.84,-197 547.17,-212.33 493.56,-222.54"/>
<polygon fill="midnightblue" stroke="midnightblue" points="492.68,-219.14 483.5,-224.44 493.98,-226.02 492.68,-219.14"/>
</g>
<!-- Node8 -->
<g id="node8" class="node">
<title>Node8</title>
<g id="a_node8"><a xlink:href="../../d6/d2f/Stacktrace_8hpp.html" target="_top" xlink:title=" ">
<polygon fill="white" stroke="black" points="1245,-112.5 1245,-131.5 1361,-131.5 1361,-112.5 1245,-112.5"/>
<text text-anchor="middle" x="1303" y="-119.5" font-family="Helvetica,sans-Serif" font-size="10.00">tools/Stacktrace.hpp</text>
</a>
</g>
</g>
<!-- Node7&#45;&gt;Node8 -->
<g id="edge8" class="edge">
<title>Node7&#45;&gt;Node8</title>
<path fill="none" stroke="midnightblue" d="M767.78,-172.67C864.5,-165.38 1063.2,-149.71 1231,-132 1232.27,-131.87 1233.55,-131.73 1234.84,-131.59"/>
<polygon fill="midnightblue" stroke="midnightblue" points="1235.32,-135.06 1244.86,-130.46 1234.53,-128.1 1235.32,-135.06"/>
</g>
<!-- Node10 -->
<g id="node10" class="node">
<title>Node10</title>
<g id="a_node10"><a xlink:title=" ">
<polygon fill="white" stroke="#bfbfbf" points="1052.5,-112.5 1052.5,-131.5 1105.5,-131.5 1105.5,-112.5 1052.5,-112.5"/>
<text text-anchor="middle" x="1079" y="-119.5" font-family="Helvetica,sans-Serif" font-size="10.00">cstddef</text>
</a>
</g>
</g>
<!-- Node7&#45;&gt;Node10 -->
<g id="edge11" class="edge">
<title>Node7&#45;&gt;Node10</title>
<path fill="none" stroke="midnightblue" d="M767.54,-171.1C832.39,-164.13 940.18,-151.21 1042.46,-131.9"/>
<polygon fill="midnightblue" stroke="midnightblue" points="1043.17,-135.33 1052.34,-130.02 1041.86,-128.46 1043.17,-135.33"/>
</g>
<!-- Node11 -->
<g id="node11" class="node">
<title>Node11</title>
<g id="a_node11"><a xlink:title=" ">
<polygon fill="white" stroke="#bfbfbf" points="1123.5,-112.5 1123.5,-131.5 1188.5,-131.5 1188.5,-112.5 1123.5,-112.5"/>
<text text-anchor="middle" x="1156" y="-119.5" font-family="Helvetica,sans-Serif" font-size="10.00">exception</text>
</a>
</g>
</g>
<!-- Node7&#45;&gt;Node11 -->
<g id="edge12" class="edge">
<title>Node7&#45;&gt;Node11</title>
<path fill="none" stroke="midnightblue" d="M767.6,-172.35C844.58,-165.83 984.13,-152.58 1113,-132.01"/>
<polygon fill="midnightblue" stroke="midnightblue" points="1113.73,-135.44 1123.04,-130.39 1112.61,-128.53 1113.73,-135.44"/>
</g>
<!-- Node12 -->
<g id="node12" class="node">
<title>Node12</title>
<g id="a_node12"><a xlink:href="../../d7/d7a/configexception_8hpp.html" target="_top" xlink:title=" ">
<polygon fill="white" stroke="black" points="1379.5,-112.5 1379.5,-131.5 1494.5,-131.5 1494.5,-112.5 1379.5,-112.5"/>
<text text-anchor="middle" x="1437" y="-119.5" font-family="Helvetica,sans-Serif" font-size="10.00">configexception.hpp</text>
</a>
</g>
</g>
<!-- Node7&#45;&gt;Node12 -->
<g id="edge14" class="edge">
<title>Node7&#45;&gt;Node12</title>
<path fill="none" stroke="midnightblue" d="M767.66,-174.04C882.05,-168.27 1142.42,-154.1 1361,-132 1363.7,-131.73 1366.46,-131.43 1369.25,-131.12"/>
<polygon fill="midnightblue" stroke="midnightblue" points="1369.92,-134.56 1379.45,-129.91 1369.1,-127.61 1369.92,-134.56"/>
</g>
<!-- Node15 -->
<g id="node15" class="node">
<title>Node15</title>
<g id="a_node15"><a xlink:href="../../d8/db0/coreexception_8hpp.html" target="_top" xlink:title="Exception class for Core related errors.">
<polygon fill="white" stroke="black" points="126.5,-112.5 126.5,-131.5 233.5,-131.5 233.5,-112.5 126.5,-112.5"/>
<text text-anchor="middle" x="180" y="-119.5" font-family="Helvetica,sans-Serif" font-size="10.00">coreexception.hpp</text>
</a>
</g>
</g>
<!-- Node7&#45;&gt;Node15 -->
<g id="edge20" class="edge">
<title>Node7&#45;&gt;Node15</title>
<path fill="none" stroke="midnightblue" d="M650.2,-172.66C562.2,-165.57 391.2,-150.56 240.37,-132.75"/>
<polygon fill="midnightblue" stroke="midnightblue" points="240.35,-129.22 230.01,-131.51 239.53,-136.17 240.35,-129.22"/>
</g>
<!-- Node16 -->
<g id="node16" class="node">
<title>Node16</title>
<g id="a_node16"><a xlink:href="../../d8/d77/deviceexception_8hpp.html" target="_top" xlink:title="Exception class for Device related errors.">
<polygon fill="white" stroke="black" points="252,-112.5 252,-131.5 370,-131.5 370,-112.5 252,-112.5"/>
<text text-anchor="middle" x="311" y="-119.5" font-family="Helvetica,sans-Serif" font-size="10.00">deviceexception.hpp</text>
</a>
</g>
</g>
<!-- Node7&#45;&gt;Node16 -->
<g id="edge23" class="edge">
<title>Node7&#45;&gt;Node16</title>
<path fill="none" stroke="midnightblue" d="M650.11,-169.66C577.64,-160.15 455.02,-143.54 378.73,-132.92"/>
<polygon fill="midnightblue" stroke="midnightblue" points="379.14,-129.44 368.75,-131.52 378.17,-136.37 379.14,-129.44"/>
</g>
<!-- Node17 -->
<g id="node17" class="node">
<title>Node17</title>
<g id="a_node17"><a xlink:href="../../db/d35/dynlibexception_8hpp.html" target="_top" xlink:title="Exception class for DynLib related errors.">
<polygon fill="white" stroke="black" points="388,-112.5 388,-131.5 504,-131.5 504,-112.5 388,-112.5"/>
<text text-anchor="middle" x="446" y="-119.5" font-family="Helvetica,sans-Serif" font-size="10.00">dynlibexception.hpp</text>
</a>
</g>
</g>
<!-- Node7&#45;&gt;Node17 -->
<g id="edge26" class="edge">
<title>Node7&#45;&gt;Node17</title>
<path fill="none" stroke="midnightblue" d="M662.24,-168.44C614.19,-159 540.02,-143.8 492.19,-133.61"/>
<polygon fill="midnightblue" stroke="midnightblue" points="492.91,-130.19 482.4,-131.52 491.44,-137.03 492.91,-130.19"/>
</g>
<!-- Node18 -->
<g id="node18" class="node">
<title>Node18</title>
<g id="a_node18"><a xlink:href="../../d1/d8e/gpioexception_8hpp.html" target="_top" xlink:title="Exception class for Gpio related errors.">
<polygon fill="white" stroke="black" points="522.5,-112.5 522.5,-131.5 629.5,-131.5 629.5,-112.5 522.5,-112.5"/>
<text text-anchor="middle" x="576" y="-119.5" font-family="Helvetica,sans-Serif" font-size="10.00">gpioexception.hpp</text>
</a>
</g>
</g>
<!-- Node7&#45;&gt;Node18 -->
<g id="edge30" class="edge">
<title>Node7&#45;&gt;Node18</title>
<path fill="none" stroke="midnightblue" d="M682.84,-168.44C659.11,-159.6 624.61,-145.69 601.19,-135.59"/>
<polygon fill="midnightblue" stroke="midnightblue" points="602.46,-132.32 591.9,-131.52 599.65,-138.73 602.46,-132.32"/>
</g>
<!-- Node19 -->
<g id="node19" class="node">
<title>Node19</title>
<g id="a_node19"><a xlink:href="../../d7/d8c/moduleexception_8hpp.html" target="_top" xlink:title="Exception class for modules.">
<polygon fill="white" stroke="black" points="648,-112.5 648,-131.5 770,-131.5 770,-112.5 648,-112.5"/>
<text text-anchor="middle" x="709" y="-119.5" font-family="Helvetica,sans-Serif" font-size="10.00">moduleexception.hpp</text>
</a>
</g>
</g>
<!-- Node7&#45;&gt;Node19 -->
<g id="edge33" class="edge">
<title>Node7&#45;&gt;Node19</title>
<path fill="none" stroke="midnightblue" d="M703.83,-168.08C702.32,-160.93 701.89,-150.64 702.54,-141.69"/>
<polygon fill="midnightblue" stroke="midnightblue" points="706.02,-142.13 703.87,-131.75 699.08,-141.2 706.02,-142.13"/>
</g>
<!-- Node20 -->
<g id="node20" class="node">
<title>Node20</title>
<g id="a_node20"><a xlink:href="../../df/d8d/scriptexception_8hpp.html" target="_top" xlink:title="Exception class for Script related errors.">
<polygon fill="white" stroke="black" points="788.5,-112.5 788.5,-131.5 901.5,-131.5 901.5,-112.5 788.5,-112.5"/>
<text text-anchor="middle" x="845" y="-119.5" font-family="Helvetica,sans-Serif" font-size="10.00">scriptexception.hpp</text>
</a>
</g>
</g>
<!-- Node7&#45;&gt;Node20 -->
<g id="edge36" class="edge">
<title>Node7&#45;&gt;Node20</title>
<path fill="none" stroke="midnightblue" d="M725.46,-168.44C746.17,-159.44 781.84,-145.19 808.92,-135.05"/>
<polygon fill="midnightblue" stroke="midnightblue" points="810.31,-138.27 818.47,-131.52 807.88,-131.7 810.31,-138.27"/>
</g>
<!-- Node21 -->
<g id="node21" class="node">
<title>Node21</title>
<g id="a_node21"><a xlink:href="../../dc/dce/signalexception_8hpp.html" target="_top" xlink:title="Exception class for Signal related errors.">
<polygon fill="white" stroke="black" points="919.5,-112.5 919.5,-131.5 1034.5,-131.5 1034.5,-112.5 919.5,-112.5"/>
<text text-anchor="middle" x="977" y="-119.5" font-family="Helvetica,sans-Serif" font-size="10.00">signalexception.hpp</text>
</a>
</g>
</g>
<!-- Node7&#45;&gt;Node21 -->
<g id="edge39" class="edge">
<title>Node7&#45;&gt;Node21</title>
<path fill="none" stroke="midnightblue" d="M746.38,-168.44C791.44,-158.94 867.41,-143.61 919.83,-133.42"/>
<polygon fill="midnightblue" stroke="midnightblue" points="920.5,-136.85 929.65,-131.52 919.17,-129.98 920.5,-136.85"/>
</g>
<!-- Node8&#45;&gt;Node5 -->
<g id="edge9" class="edge">
<title>Node8&#45;&gt;Node5</title>
<path fill="none" stroke="midnightblue" d="M1305.88,-112.49C1309.97,-98.64 1315.46,-71.22 1301,-56 1265.37,-18.5 897.21,-12.24 785.17,-11.2"/>
<polygon fill="midnightblue" stroke="midnightblue" points="785.18,-7.7 775.15,-11.12 785.12,-14.7 785.18,-7.7"/>
</g>
<!-- Node9 -->
<g id="node9" class="node">
<title>Node9</title>
<g id="a_node9"><a xlink:title=" ">
<polygon fill="white" stroke="#bfbfbf" points="1244.5,-56.5 1244.5,-75.5 1291.5,-75.5 1291.5,-56.5 1244.5,-56.5"/>
<text text-anchor="middle" x="1268" y="-63.5" font-family="Helvetica,sans-Serif" font-size="10.00">vector</text>
</a>
</g>
</g>
<!-- Node8&#45;&gt;Node9 -->
<g id="edge10" class="edge">
<title>Node8&#45;&gt;Node9</title>
<path fill="none" stroke="midnightblue" d="M1297.22,-112.08C1292.33,-104.53 1285.17,-93.49 1279.17,-84.23"/>
<polygon fill="midnightblue" stroke="midnightblue" points="1282.05,-82.24 1273.67,-75.75 1276.17,-86.05 1282.05,-82.24"/>
</g>
<!-- Node12&#45;&gt;Node5 -->
<g id="edge19" class="edge">
<title>Node12&#45;&gt;Node5</title>
<path fill="none" stroke="midnightblue" d="M1425.36,-112.35C1405.01,-97.77 1361.12,-68.63 1319,-56 1217.89,-25.67 889.81,-14.59 785.3,-11.78"/>
<polygon fill="midnightblue" stroke="midnightblue" points="785.15,-8.28 775.06,-11.51 784.97,-15.28 785.15,-8.28"/>
</g>
<!-- Node12&#45;&gt;Node7 -->
<g id="edge15" class="edge">
<title>Node12&#45;&gt;Node7</title>
<path fill="none" stroke="midnightblue" d="M1383.6,-131.52C1382.05,-131.69 1380.52,-131.85 1379,-132 1160.22,-154.12 899.57,-168.3 777.85,-174.06"/>
<polygon fill="midnightblue" stroke="midnightblue" points="777.39,-170.58 767.56,-174.54 777.72,-177.57 777.39,-170.58"/>
</g>
<!-- Node13 -->
<g id="node13" class="node">
<title>Node13</title>
<g id="a_node13"><a xlink:href="../../dd/d35/Colorize_8hpp.html" target="_top" xlink:title=" ">
<polygon fill="white" stroke="black" points="1386,-56.5 1386,-75.5 1490,-75.5 1490,-56.5 1386,-56.5"/>
<text text-anchor="middle" x="1438" y="-63.5" font-family="Helvetica,sans-Serif" font-size="10.00">tools/Colorize.hpp</text>
</a>
</g>
</g>
<!-- Node12&#45;&gt;Node13 -->
<g id="edge16" class="edge">
<title>Node12&#45;&gt;Node13</title>
<path fill="none" stroke="midnightblue" d="M1437.17,-112.08C1437.3,-105.01 1437.48,-94.86 1437.65,-85.99"/>
<polygon fill="midnightblue" stroke="midnightblue" points="1441.15,-85.81 1437.84,-75.75 1434.15,-85.68 1441.15,-85.81"/>
</g>
<!-- Node13&#45;&gt;Node5 -->
<g id="edge18" class="edge">
<title>Node13&#45;&gt;Node5</title>
<path fill="none" stroke="midnightblue" d="M1385.8,-57.57C1381.14,-57 1376.49,-56.47 1372,-56 1148.05,-32.61 877.25,-17.42 785.32,-12.63"/>
<polygon fill="midnightblue" stroke="midnightblue" points="785.42,-9.13 775.25,-12.11 785.06,-16.12 785.42,-9.13"/>
</g>
<!-- Node14 -->
<g id="node14" class="node">
<title>Node14</title>
<g id="a_node14"><a xlink:title=" ">
<polygon fill="white" stroke="#bfbfbf" points="1410,-0.5 1410,-19.5 1466,-19.5 1466,-0.5 1410,-0.5"/>
<text text-anchor="middle" x="1438" y="-7.5" font-family="Helvetica,sans-Serif" font-size="10.00">sstream</text>
</a>
</g>
</g>
<!-- Node13&#45;&gt;Node14 -->
<g id="edge17" class="edge">
<title>Node13&#45;&gt;Node14</title>
<path fill="none" stroke="midnightblue" d="M1438,-56.08C1438,-49.01 1438,-38.86 1438,-29.99"/>
<polygon fill="midnightblue" stroke="midnightblue" points="1441.5,-29.75 1438,-19.75 1434.5,-29.75 1441.5,-29.75"/>
</g>
<!-- Node15&#45;&gt;Node5 -->
<g id="edge21" class="edge">
<title>Node15&#45;&gt;Node5</title>
<path fill="none" stroke="midnightblue" d="M217.71,-112.49C275.52,-99.57 389.6,-74.54 487,-56 571.19,-39.97 670.93,-23.87 720.97,-15.98"/>
<polygon fill="midnightblue" stroke="midnightblue" points="721.54,-19.44 730.88,-14.43 720.45,-12.52 721.54,-19.44"/>
</g>
<!-- Node15&#45;&gt;Node7 -->
<g id="edge22" class="edge">
<title>Node15&#45;&gt;Node7</title>
<path fill="none" stroke="midnightblue" d="M233.62,-129.64C239.85,-130.48 246.08,-131.29 252,-132 389.74,-148.48 550.94,-162.99 640.44,-170.83"/>
<polygon fill="midnightblue" stroke="midnightblue" points="640.19,-174.32 650.46,-171.7 640.8,-167.35 640.19,-174.32"/>
</g>
<!-- Node16&#45;&gt;Node5 -->
<g id="edge24" class="edge">
<title>Node16&#45;&gt;Node5</title>
<path fill="none" stroke="midnightblue" d="M344.79,-112.41C394.06,-99.9 488.53,-75.98 569,-56 622.16,-42.8 684.03,-27.73 720.78,-18.81"/>
<polygon fill="midnightblue" stroke="midnightblue" points="722,-22.11 730.9,-16.35 720.35,-15.31 722,-22.11"/>
</g>
<!-- Node16&#45;&gt;Node7 -->
<g id="edge25" class="edge">
<title>Node16&#45;&gt;Node7</title>
<path fill="none" stroke="midnightblue" d="M370.27,-130.39C442.72,-139.9 564.88,-156.45 641.05,-167.05"/>
<polygon fill="midnightblue" stroke="midnightblue" points="640.64,-170.53 651.02,-168.44 641.6,-163.6 640.64,-170.53"/>
</g>
<!-- Node17&#45;&gt;Node5 -->
<g id="edge27" class="edge">
<title>Node17&#45;&gt;Node5</title>
<path fill="none" stroke="midnightblue" d="M469.83,-112.46C524.55,-92.86 659.19,-44.61 721.02,-22.46"/>
<polygon fill="midnightblue" stroke="midnightblue" points="722.41,-25.68 730.64,-19.01 720.05,-19.09 722.41,-25.68"/>
</g>
<!-- Node17&#45;&gt;Node7 -->
<g id="edge28" class="edge">
<title>Node17&#45;&gt;Node7</title>
<path fill="none" stroke="midnightblue" d="M492.56,-131.52C540.53,-140.94 614.7,-156.14 662.61,-166.35"/>
<polygon fill="midnightblue" stroke="midnightblue" points="661.9,-169.77 672.42,-168.44 663.37,-162.93 661.9,-169.77"/>
</g>
<!-- Node18&#45;&gt;Node5 -->
<g id="edge32" class="edge">
<title>Node18&#45;&gt;Node5</title>
<path fill="none" stroke="midnightblue" d="M589.89,-112.37C620.39,-93.41 693.46,-48 730.57,-24.94"/>
<polygon fill="midnightblue" stroke="midnightblue" points="732.53,-27.84 739.18,-19.59 728.83,-21.9 732.53,-27.84"/>
</g>
<!-- Node18&#45;&gt;Node7 -->
<g id="edge31" class="edge">
<title>Node18&#45;&gt;Node7</title>
<path fill="none" stroke="midnightblue" d="M602.06,-131.52C625.75,-140.35 660.25,-154.26 683.7,-164.37"/>
<polygon fill="midnightblue" stroke="midnightblue" points="682.45,-167.64 693.01,-168.44 685.26,-161.23 682.45,-167.64"/>
</g>
<!-- Node19&#45;&gt;Node5 -->
<g id="edge34" class="edge">
<title>Node19&#45;&gt;Node5</title>
<path fill="none" stroke="midnightblue" d="M712.45,-112.37C719.62,-94.46 736.23,-52.92 745.82,-28.95"/>
<polygon fill="midnightblue" stroke="midnightblue" points="749.1,-30.18 749.56,-19.59 742.6,-27.58 749.1,-30.18"/>
</g>
<!-- Node19&#45;&gt;Node7 -->
<g id="edge35" class="edge">
<title>Node19&#45;&gt;Node7</title>
<path fill="none" stroke="midnightblue" d="M714.13,-131.75C715.66,-138.86 716.1,-149.14 715.47,-158.1"/>
<polygon fill="midnightblue" stroke="midnightblue" points="711.99,-157.71 714.17,-168.08 718.93,-158.62 711.99,-157.71"/>
</g>
<!-- Node20&#45;&gt;Node5 -->
<g id="edge37" class="edge">
<title>Node20&#45;&gt;Node5</title>
<path fill="none" stroke="midnightblue" d="M837.78,-112.37C822.46,-94.05 786.5,-51.05 766.68,-27.36"/>
<polygon fill="midnightblue" stroke="midnightblue" points="769.29,-25.02 760.19,-19.59 763.92,-29.51 769.29,-25.02"/>
</g>
<!-- Node20&#45;&gt;Node7 -->
<g id="edge38" class="edge">
<title>Node20&#45;&gt;Node7</title>
<path fill="none" stroke="midnightblue" d="M828.63,-131.52C807.97,-140.51 772.31,-154.75 745.2,-164.91"/>
<polygon fill="midnightblue" stroke="midnightblue" points="743.8,-161.69 735.64,-168.44 746.23,-168.25 743.8,-161.69"/>
</g>
<!-- Node21&#45;&gt;Node5 -->
<g id="edge40" class="edge">
<title>Node21&#45;&gt;Node5</title>
<path fill="none" stroke="midnightblue" d="M959.42,-112.37C920.33,-93.17 825.99,-46.84 779.62,-24.07"/>
<polygon fill="midnightblue" stroke="midnightblue" points="781.01,-20.86 770.5,-19.59 777.93,-27.14 781.01,-20.86"/>
</g>
<!-- Node21&#45;&gt;Node7 -->
<g id="edge41" class="edge">
<title>Node21&#45;&gt;Node7</title>
<path fill="none" stroke="midnightblue" d="M939.81,-131.52C894.84,-141 818.87,-156.33 766.39,-166.54"/>
<polygon fill="midnightblue" stroke="midnightblue" points="765.71,-163.11 756.55,-168.44 767.04,-169.98 765.71,-163.11"/>
</g>
<!-- Node26&#45;&gt;Node5 -->
<g id="edge47" class="edge">
<title>Node26&#45;&gt;Node5</title>
<path fill="none" stroke="midnightblue" d="M1223.22,-177.75C1304.57,-177.97 1468.13,-173.14 1504,-132 1515.57,-118.72 1524.08,-80.37 1499,-56 1473.04,-30.78 925.33,-15.33 785.35,-11.79"/>
<polygon fill="midnightblue" stroke="midnightblue" points="785.34,-8.28 775.26,-11.53 785.16,-15.28 785.34,-8.28"/>
</g>
</g>
</svg>
