<?xml version="1.0" encoding="UTF-8" standalone="no"?>
<!DOCTYPE svg PUBLIC "-//W3C//DTD SVG 1.1//EN"
 "http://www.w3.org/Graphics/SVG/1.1/DTD/svg11.dtd">
<!-- Generated by graphviz version 2.43.0 (0)
 -->
<!-- Title: src/modules/mqtt/MqttConfig.hpp Pages: 1 -->
<svg width="1944pt" height="375pt"
 viewBox="0.00 0.00 1943.50 375.00" xmlns="http://www.w3.org/2000/svg" xmlns:xlink="http://www.w3.org/1999/xlink">
<g id="graph0" class="graph" transform="scale(1 1) rotate(0) translate(4 371)">
<title>src/modules/mqtt/MqttConfig.hpp</title>
<polygon fill="white" stroke="transparent" points="-4,4 -4,-371 1939.5,-371 1939.5,4 -4,4"/>
<!-- Node1 -->
<g id="node1" class="node">
<title>Node1</title>
<g id="a_node1"><a xlink:title=" ">
<polygon fill="#bfbfbf" stroke="black" points="606.5,-347.5 606.5,-366.5 785.5,-366.5 785.5,-347.5 606.5,-347.5"/>
<text text-anchor="middle" x="696" y="-354.5" font-family="Helvetica,sans-Serif" font-size="10.00">src/modules/mqtt/MqttConfig.hpp</text>
</a>
</g>
</g>
<!-- Node2 -->
<g id="node2" class="node">
<title>Node2</title>
<g id="a_node2"><a xlink:href="../../d0/d22/ExternalServer_8hpp.html" target="_top" xlink:title=" ">
<polygon fill="white" stroke="black" points="270,-291.5 270,-310.5 428,-310.5 428,-291.5 270,-291.5"/>
<text text-anchor="middle" x="349" y="-298.5" font-family="Helvetica,sans-Serif" font-size="10.00">hardware/ExternalServer.hpp</text>
</a>
</g>
</g>
<!-- Node1&#45;&gt;Node2 -->
<g id="edge1" class="edge">
<title>Node1&#45;&gt;Node2</title>
<path fill="none" stroke="midnightblue" d="M641.02,-347.44C579.34,-337.85 479.39,-322.29 413.93,-312.1"/>
<polygon fill="midnightblue" stroke="midnightblue" points="414.15,-308.6 403.73,-310.52 413.07,-315.51 414.15,-308.6"/>
</g>
<!-- Node4 -->
<g id="node4" class="node">
<title>Node4</title>
<g id="a_node4"><a xlink:href="../../d9/dc8/HardwareFwd_8hpp.html" target="_top" xlink:title=" ">
<polygon fill="white" stroke="black" points="500,-179.5 500,-198.5 654,-198.5 654,-179.5 500,-179.5"/>
<text text-anchor="middle" x="577" y="-186.5" font-family="Helvetica,sans-Serif" font-size="10.00">hardware/HardwareFwd.hpp</text>
</a>
</g>
</g>
<!-- Node1&#45;&gt;Node4 -->
<g id="edge27" class="edge">
<title>Node1&#45;&gt;Node4</title>
<path fill="none" stroke="midnightblue" d="M689.6,-347.08C670.55,-320.49 613.95,-241.54 589.02,-206.76"/>
<polygon fill="midnightblue" stroke="midnightblue" points="591.81,-204.66 583.14,-198.57 586.12,-208.73 591.81,-204.66"/>
</g>
<!-- Node15 -->
<g id="node15" class="node">
<title>Node15</title>
<g id="a_node15"><a xlink:href="../../d0/d98/ExternalMessage_8hpp.html" target="_top" xlink:title=" ">
<polygon fill="white" stroke="black" points="446,-291.5 446,-310.5 616,-310.5 616,-291.5 446,-291.5"/>
<text text-anchor="middle" x="531" y="-298.5" font-family="Helvetica,sans-Serif" font-size="10.00">hardware/ExternalMessage.hpp</text>
</a>
</g>
</g>
<!-- Node1&#45;&gt;Node15 -->
<g id="edge21" class="edge">
<title>Node1&#45;&gt;Node15</title>
<path fill="none" stroke="midnightblue" d="M669.86,-347.44C641.98,-338.32 597.65,-323.81 566.6,-313.65"/>
<polygon fill="midnightblue" stroke="midnightblue" points="567.62,-310.3 557.02,-310.52 565.44,-316.95 567.62,-310.3"/>
</g>
<!-- Node16 -->
<g id="node16" class="node">
<title>Node16</title>
<g id="a_node16"><a xlink:href="../../d4/d57/MqttFwd_8hpp.html" target="_top" xlink:title=" ">
<polygon fill="white" stroke="black" points="677,-291.5 677,-310.5 829,-310.5 829,-291.5 677,-291.5"/>
<text text-anchor="middle" x="753" y="-298.5" font-family="Helvetica,sans-Serif" font-size="10.00">modules/mqtt/MqttFwd.hpp</text>
</a>
</g>
</g>
<!-- Node1&#45;&gt;Node16 -->
<g id="edge28" class="edge">
<title>Node1&#45;&gt;Node16</title>
<path fill="none" stroke="midnightblue" d="M705.16,-347.32C713.5,-339.42 726.03,-327.55 736.18,-317.94"/>
<polygon fill="midnightblue" stroke="midnightblue" points="738.82,-320.25 743.68,-310.83 734.01,-315.17 738.82,-320.25"/>
</g>
<!-- Node17 -->
<g id="node17" class="node">
<title>Node17</title>
<g id="a_node17"><a xlink:href="../../df/da2/database_8hpp.html" target="_top" xlink:title=" ">
<polygon fill="white" stroke="black" points="903.5,-291.5 903.5,-310.5 1028.5,-310.5 1028.5,-291.5 903.5,-291.5"/>
<text text-anchor="middle" x="966" y="-298.5" font-family="Helvetica,sans-Serif" font-size="10.00">tools/db/database.hpp</text>
</a>
</g>
</g>
<!-- Node1&#45;&gt;Node17 -->
<g id="edge30" class="edge">
<title>Node1&#45;&gt;Node17</title>
<path fill="none" stroke="midnightblue" d="M738.78,-347.44C786.18,-337.96 862.63,-322.67 913.58,-312.48"/>
<polygon fill="midnightblue" stroke="midnightblue" points="914.3,-315.91 923.42,-310.52 912.93,-309.05 914.3,-315.91"/>
</g>
<!-- Node38 -->
<g id="node38" class="node">
<title>Node38</title>
<g id="a_node38"><a xlink:title=" ">
<polygon fill="white" stroke="#bfbfbf" points="1047,-291.5 1047,-310.5 1097,-310.5 1097,-291.5 1047,-291.5"/>
<text text-anchor="middle" x="1072" y="-298.5" font-family="Helvetica,sans-Serif" font-size="10.00">chrono</text>
</a>
</g>
</g>
<!-- Node1&#45;&gt;Node38 -->
<g id="edge65" class="edge">
<title>Node1&#45;&gt;Node38</title>
<path fill="none" stroke="midnightblue" d="M782.65,-347.48C851.86,-339.98 951.12,-327.65 1037,-311 1037.1,-310.98 1037.2,-310.96 1037.3,-310.94"/>
<polygon fill="midnightblue" stroke="midnightblue" points="1037.83,-314.41 1046.85,-308.85 1036.33,-307.57 1037.83,-314.41"/>
</g>
<!-- Node3 -->
<g id="node3" class="node">
<title>Node3</title>
<g id="a_node3"><a xlink:href="../../da/d14/Device_8hpp.html" target="_top" xlink:title=" ">
<polygon fill="white" stroke="black" points="305,-235.5 305,-254.5 425,-254.5 425,-235.5 305,-235.5"/>
<text text-anchor="middle" x="365" y="-242.5" font-family="Helvetica,sans-Serif" font-size="10.00">hardware/Device.hpp</text>
</a>
</g>
</g>
<!-- Node2&#45;&gt;Node3 -->
<g id="edge2" class="edge">
<title>Node2&#45;&gt;Node3</title>
<path fill="none" stroke="midnightblue" d="M351.64,-291.08C353.79,-283.85 356.88,-273.41 359.55,-264.4"/>
<polygon fill="midnightblue" stroke="midnightblue" points="362.92,-265.33 362.41,-254.75 356.21,-263.34 362.92,-265.33"/>
</g>
<!-- Node2&#45;&gt;Node4 -->
<g id="edge17" class="edge">
<title>Node2&#45;&gt;Node4</title>
<path fill="none" stroke="midnightblue" d="M384.79,-291.44C413.14,-283.91 453.28,-271.57 486,-255 513.39,-241.13 541.66,-219.59 559.28,-205.16"/>
<polygon fill="midnightblue" stroke="midnightblue" points="561.58,-207.79 567.02,-198.7 557.09,-202.42 561.58,-207.79"/>
</g>
<!-- Node10 -->
<g id="node10" class="node">
<title>Node10</title>
<g id="a_node10"><a xlink:title=" ">
<polygon fill="white" stroke="#bfbfbf" points="0,-56.5 0,-75.5 80,-75.5 80,-56.5 0,-56.5"/>
<text text-anchor="middle" x="40" y="-63.5" font-family="Helvetica,sans-Serif" font-size="10.00">odb/core.hxx</text>
</a>
</g>
</g>
<!-- Node2&#45;&gt;Node10 -->
<g id="edge19" class="edge">
<title>Node2&#45;&gt;Node10</title>
<path fill="none" stroke="midnightblue" d="M294.16,-291.43C260.46,-284.69 217.16,-273.29 182,-255 147.57,-237.09 139.87,-228.79 115,-199 84.43,-162.38 59.6,-111.57 47.67,-84.93"/>
<polygon fill="midnightblue" stroke="midnightblue" points="50.84,-83.44 43.62,-75.69 44.43,-86.25 50.84,-83.44"/>
</g>
<!-- Node11 -->
<g id="node11" class="node">
<title>Node11</title>
<g id="a_node11"><a xlink:title=" ">
<polygon fill="white" stroke="#bfbfbf" points="717,-56.5 717,-75.5 761,-75.5 761,-56.5 717,-56.5"/>
<text text-anchor="middle" x="739" y="-63.5" font-family="Helvetica,sans-Serif" font-size="10.00">string</text>
</a>
</g>
</g>
<!-- Node2&#45;&gt;Node11 -->
<g id="edge20" class="edge">
<title>Node2&#45;&gt;Node11</title>
<path fill="none" stroke="midnightblue" d="M371.22,-291.46C389.39,-283.75 415.09,-271.16 434,-255 466.1,-227.57 458.06,-205.41 491,-179 526.45,-150.58 648.66,-101.63 707.22,-79.05"/>
<polygon fill="midnightblue" stroke="midnightblue" points="708.64,-82.26 716.72,-75.41 706.13,-75.72 708.64,-82.26"/>
</g>
<!-- Node14 -->
<g id="node14" class="node">
<title>Node14</title>
<g id="a_node14"><a xlink:title=" ">
<polygon fill="white" stroke="#bfbfbf" points="124.5,-179.5 124.5,-198.5 223.5,-198.5 223.5,-179.5 124.5,-179.5"/>
<text text-anchor="middle" x="174" y="-186.5" font-family="Helvetica,sans-Serif" font-size="10.00">odb/callback.hxx</text>
</a>
</g>
</g>
<!-- Node2&#45;&gt;Node14 -->
<g id="edge18" class="edge">
<title>Node2&#45;&gt;Node14</title>
<path fill="none" stroke="midnightblue" d="M274.7,-291.49C248.11,-285.15 219.64,-274.13 199,-255 186,-242.95 179.69,-223.38 176.67,-208.86"/>
<polygon fill="midnightblue" stroke="midnightblue" points="180.11,-208.2 174.95,-198.94 173.21,-209.4 180.11,-208.2"/>
</g>
<!-- Node3&#45;&gt;Node4 -->
<g id="edge3" class="edge">
<title>Node3&#45;&gt;Node4</title>
<path fill="none" stroke="midnightblue" d="M398.59,-235.44C435.19,-226.12 493.84,-211.18 533.83,-201"/>
<polygon fill="midnightblue" stroke="midnightblue" points="534.74,-204.38 543.57,-198.52 533.01,-197.59 534.74,-204.38"/>
</g>
<!-- Node5 -->
<g id="node5" class="node">
<title>Node5</title>
<g id="a_node5"><a xlink:href="../../dc/dea/Uuid_8hpp.html" target="_top" xlink:title=" ">
<polygon fill="white" stroke="black" points="318.5,-118 318.5,-137 405.5,-137 405.5,-118 318.5,-118"/>
<text text-anchor="middle" x="362" y="-125" font-family="Helvetica,sans-Serif" font-size="10.00">tools/Uuid.hpp</text>
</a>
</g>
</g>
<!-- Node3&#45;&gt;Node5 -->
<g id="edge12" class="edge">
<title>Node3&#45;&gt;Node5</title>
<path fill="none" stroke="midnightblue" d="M360.38,-235.34C355.94,-226.49 349.55,-212.22 347,-199 343.57,-181.18 348.84,-160.92 354.05,-146.71"/>
<polygon fill="midnightblue" stroke="midnightblue" points="357.41,-147.74 357.88,-137.16 350.91,-145.14 357.41,-147.74"/>
</g>
<!-- Node3&#45;&gt;Node10 -->
<g id="edge15" class="edge">
<title>Node3&#45;&gt;Node10</title>
<path fill="none" stroke="midnightblue" d="M359.74,-235.45C343.21,-208.84 291.82,-128.25 266,-112 262.25,-109.64 155.62,-89.03 90.18,-76.53"/>
<polygon fill="midnightblue" stroke="midnightblue" points="90.53,-73.04 80.05,-74.6 89.22,-79.91 90.53,-73.04"/>
</g>
<!-- Node3&#45;&gt;Node11 -->
<g id="edge16" class="edge">
<title>Node3&#45;&gt;Node11</title>
<path fill="none" stroke="midnightblue" d="M376.89,-235.41C387.84,-227.05 404,-213.52 415,-199 441.05,-164.62 423.09,-137.33 458,-112 545.94,-48.19 594.8,-96.29 706.76,-75.65"/>
<polygon fill="midnightblue" stroke="midnightblue" points="707.59,-79.06 716.71,-73.67 706.22,-72.19 707.59,-79.06"/>
</g>
<!-- Node13 -->
<g id="node13" class="node">
<title>Node13</title>
<g id="a_node13"><a xlink:title=" ">
<polygon fill="white" stroke="#bfbfbf" points="356,-179.5 356,-198.5 406,-198.5 406,-179.5 356,-179.5"/>
<text text-anchor="middle" x="381" y="-186.5" font-family="Helvetica,sans-Serif" font-size="10.00">cstdint</text>
</a>
</g>
</g>
<!-- Node3&#45;&gt;Node13 -->
<g id="edge13" class="edge">
<title>Node3&#45;&gt;Node13</title>
<path fill="none" stroke="midnightblue" d="M367.64,-235.08C369.79,-227.85 372.88,-217.41 375.55,-208.4"/>
<polygon fill="midnightblue" stroke="midnightblue" points="378.92,-209.33 378.41,-198.75 372.21,-207.34 378.92,-209.33"/>
</g>
<!-- Node3&#45;&gt;Node14 -->
<g id="edge14" class="edge">
<title>Node3&#45;&gt;Node14</title>
<path fill="none" stroke="midnightblue" d="M334.74,-235.44C302.04,-226.2 249.82,-211.44 213.82,-201.26"/>
<polygon fill="midnightblue" stroke="midnightblue" points="214.7,-197.87 204.12,-198.52 212.79,-204.61 214.7,-197.87"/>
</g>
<!-- Node4&#45;&gt;Node5 -->
<g id="edge4" class="edge">
<title>Node4&#45;&gt;Node5</title>
<path fill="none" stroke="midnightblue" d="M546.2,-179.48C508.44,-169.03 444.34,-151.29 402.59,-139.73"/>
<polygon fill="midnightblue" stroke="midnightblue" points="403.32,-136.3 392.75,-137.01 401.45,-143.05 403.32,-136.3"/>
</g>
<!-- Node12 -->
<g id="node12" class="node">
<title>Node12</title>
<g id="a_node12"><a xlink:title=" ">
<polygon fill="white" stroke="#bfbfbf" points="1041,-56.5 1041,-75.5 1099,-75.5 1099,-56.5 1041,-56.5"/>
<text text-anchor="middle" x="1070" y="-63.5" font-family="Helvetica,sans-Serif" font-size="10.00">memory</text>
</a>
</g>
</g>
<!-- Node4&#45;&gt;Node12 -->
<g id="edge11" class="edge">
<title>Node4&#45;&gt;Node12</title>
<path fill="none" stroke="midnightblue" d="M592.08,-179.32C620.69,-163.26 685.26,-129.03 744,-112 844.64,-82.83 968.39,-72.36 1030.49,-68.77"/>
<polygon fill="midnightblue" stroke="midnightblue" points="1030.84,-72.25 1040.63,-68.21 1030.45,-65.26 1030.84,-72.25"/>
</g>
<!-- Node6 -->
<g id="node6" class="node">
<title>Node6</title>
<g id="a_node6"><a xlink:title=" ">
<polygon fill="white" stroke="#bfbfbf" points="243.5,-56.5 243.5,-75.5 368.5,-75.5 368.5,-56.5 243.5,-56.5"/>
<text text-anchor="middle" x="306" y="-63.5" font-family="Helvetica,sans-Serif" font-size="10.00">boost/lexical_cast.hpp</text>
</a>
</g>
</g>
<!-- Node5&#45;&gt;Node6 -->
<g id="edge5" class="edge">
<title>Node5&#45;&gt;Node6</title>
<path fill="none" stroke="midnightblue" d="M353.98,-117.98C345.41,-108.87 331.64,-94.24 321.04,-82.98"/>
<polygon fill="midnightblue" stroke="midnightblue" points="323.41,-80.39 314.01,-75.51 318.31,-85.19 323.41,-80.39"/>
</g>
<!-- Node7 -->
<g id="node7" class="node">
<title>Node7</title>
<g id="a_node7"><a xlink:title=" ">
<polygon fill="white" stroke="#bfbfbf" points="386.5,-56.5 386.5,-75.5 567.5,-75.5 567.5,-56.5 386.5,-56.5"/>
<text text-anchor="middle" x="477" y="-63.5" font-family="Helvetica,sans-Serif" font-size="10.00">boost/uuid/random_generator.hpp</text>
</a>
</g>
</g>
<!-- Node5&#45;&gt;Node7 -->
<g id="edge6" class="edge">
<title>Node5&#45;&gt;Node7</title>
<path fill="none" stroke="midnightblue" d="M378.48,-117.98C397.61,-108.08 429.37,-91.64 451.65,-80.12"/>
<polygon fill="midnightblue" stroke="midnightblue" points="453.28,-83.21 460.55,-75.51 450.06,-77 453.28,-83.21"/>
</g>
<!-- Node8 -->
<g id="node8" class="node">
<title>Node8</title>
<g id="a_node8"><a xlink:title=" ">
<polygon fill="white" stroke="#bfbfbf" points="585.5,-56.5 585.5,-75.5 698.5,-75.5 698.5,-56.5 585.5,-56.5"/>
<text text-anchor="middle" x="642" y="-63.5" font-family="Helvetica,sans-Serif" font-size="10.00">boost/uuid/uuid.hpp</text>
</a>
</g>
</g>
<!-- Node5&#45;&gt;Node8 -->
<g id="edge7" class="edge">
<title>Node5&#45;&gt;Node8</title>
<path fill="none" stroke="midnightblue" d="M395.06,-117.96C403.2,-115.94 411.9,-113.83 420,-112 476.7,-99.17 541.94,-86.16 586.95,-77.44"/>
<polygon fill="midnightblue" stroke="midnightblue" points="587.65,-80.87 596.8,-75.54 586.32,-74 587.65,-80.87"/>
</g>
<!-- Node9 -->
<g id="node9" class="node">
<title>Node9</title>
<g id="a_node9"><a xlink:title=" ">
<polygon fill="white" stroke="#bfbfbf" points="98.5,-56.5 98.5,-75.5 225.5,-75.5 225.5,-56.5 98.5,-56.5"/>
<text text-anchor="middle" x="162" y="-63.5" font-family="Helvetica,sans-Serif" font-size="10.00">boost/uuid/uuid_io.hpp</text>
</a>
</g>
</g>
<!-- Node5&#45;&gt;Node9 -->
<g id="edge8" class="edge">
<title>Node5&#45;&gt;Node9</title>
<path fill="none" stroke="midnightblue" d="M333.34,-117.98C298.44,-107.59 239.35,-90.01 200.5,-78.45"/>
<polygon fill="midnightblue" stroke="midnightblue" points="201.18,-75.01 190.6,-75.51 199.19,-81.72 201.18,-75.01"/>
</g>
<!-- Node5&#45;&gt;Node10 -->
<g id="edge9" class="edge">
<title>Node5&#45;&gt;Node10</title>
<path fill="none" stroke="midnightblue" d="M329.89,-117.99C321.5,-115.9 312.43,-113.76 304,-112 212.3,-92.89 186.15,-92.74 90.24,-76.18"/>
<polygon fill="midnightblue" stroke="midnightblue" points="90.55,-72.69 80.1,-74.42 89.35,-79.58 90.55,-72.69"/>
</g>
<!-- Node5&#45;&gt;Node11 -->
<g id="edge10" class="edge">
<title>Node5&#45;&gt;Node11</title>
<path fill="none" stroke="midnightblue" d="M393.15,-117.98C401.8,-115.82 411.23,-113.64 420,-112 543.16,-88.97 579.18,-100.83 706.58,-75.76"/>
<polygon fill="midnightblue" stroke="midnightblue" points="707.61,-79.12 716.72,-73.72 706.23,-72.26 707.61,-79.12"/>
</g>
<!-- Node15&#45;&gt;Node3 -->
<g id="edge22" class="edge">
<title>Node15&#45;&gt;Node3</title>
<path fill="none" stroke="midnightblue" d="M504.7,-291.44C476.65,-282.32 432.06,-267.81 400.82,-257.65"/>
<polygon fill="midnightblue" stroke="midnightblue" points="401.77,-254.28 391.18,-254.52 399.61,-260.94 401.77,-254.28"/>
</g>
<!-- Node15&#45;&gt;Node4 -->
<g id="edge23" class="edge">
<title>Node15&#45;&gt;Node4</title>
<path fill="none" stroke="midnightblue" d="M534.61,-291.37C542.1,-273.46 559.47,-231.92 569.49,-207.95"/>
<polygon fill="midnightblue" stroke="midnightblue" points="572.78,-209.17 573.41,-198.59 566.32,-206.47 572.78,-209.17"/>
</g>
<!-- Node15&#45;&gt;Node10 -->
<g id="edge25" class="edge">
<title>Node15&#45;&gt;Node10</title>
<path fill="none" stroke="midnightblue" d="M458.19,-291.46C399.7,-283.62 323.01,-270.83 296,-255 257.9,-232.67 265.79,-207.43 232,-179 179.74,-135.02 107.96,-98.32 68.64,-79.85"/>
<polygon fill="midnightblue" stroke="midnightblue" points="69.91,-76.59 59.37,-75.56 66.97,-82.94 69.91,-76.59"/>
</g>
<!-- Node15&#45;&gt;Node11 -->
<g id="edge26" class="edge">
<title>Node15&#45;&gt;Node11</title>
<path fill="none" stroke="midnightblue" d="M546,-291.29C572.23,-275.51 627.04,-240 663,-199 694.56,-163.02 719.48,-111.94 731.37,-85.1"/>
<polygon fill="midnightblue" stroke="midnightblue" points="734.65,-86.34 735.41,-75.78 728.22,-83.56 734.65,-86.34"/>
</g>
<!-- Node15&#45;&gt;Node14 -->
<g id="edge24" class="edge">
<title>Node15&#45;&gt;Node14</title>
<path fill="none" stroke="midnightblue" d="M459.9,-291.46C379.57,-281.44 257.42,-264.93 238,-255 216.28,-243.89 197.53,-222.62 186.04,-207.44"/>
<polygon fill="midnightblue" stroke="midnightblue" points="188.56,-204.95 179.86,-198.91 182.89,-209.06 188.56,-204.95"/>
</g>
<!-- Node16&#45;&gt;Node12 -->
<g id="edge29" class="edge">
<title>Node16&#45;&gt;Node12</title>
<path fill="none" stroke="midnightblue" d="M752.17,-291.46C749.76,-261.19 746.19,-158.3 803,-112 837.17,-84.15 964.59,-72.95 1030.28,-68.96"/>
<polygon fill="midnightblue" stroke="midnightblue" points="1030.87,-72.43 1040.65,-68.36 1030.46,-65.44 1030.87,-72.43"/>
</g>
<!-- Node18 -->
<g id="node18" class="node">
<title>Node18</title>
<g id="a_node18"><a xlink:href="../../d9/d69/db__fwd_8hpp.html" target="_top" xlink:title=" ">
<polygon fill="white" stroke="black" points="786,-179.5 786,-198.5 858,-198.5 858,-179.5 786,-179.5"/>
<text text-anchor="middle" x="822" y="-186.5" font-family="Helvetica,sans-Serif" font-size="10.00">db_fwd.hpp</text>
</a>
</g>
</g>
<!-- Node17&#45;&gt;Node18 -->
<g id="edge31" class="edge">
<title>Node17&#45;&gt;Node18</title>
<path fill="none" stroke="midnightblue" d="M903.13,-298.14C871.33,-293.6 835.27,-282.2 815,-255 805.05,-241.66 808.8,-222.28 813.81,-208.15"/>
<polygon fill="midnightblue" stroke="midnightblue" points="817.19,-209.14 817.69,-198.56 810.7,-206.52 817.19,-209.14"/>
</g>
<!-- Node19 -->
<g id="node19" class="node">
<title>Node19</title>
<g id="a_node19"><a xlink:title=" ">
<polygon fill="white" stroke="#bfbfbf" points="1258,-235.5 1258,-254.5 1362,-254.5 1362,-235.5 1258,-235.5"/>
<text text-anchor="middle" x="1310" y="-242.5" font-family="Helvetica,sans-Serif" font-size="10.00">odb/database.hxx</text>
</a>
</g>
</g>
<!-- Node17&#45;&gt;Node19 -->
<g id="edge33" class="edge">
<title>Node17&#45;&gt;Node19</title>
<path fill="none" stroke="midnightblue" d="M1020.51,-291.44C1082.37,-281.73 1183.07,-265.92 1247.91,-255.75"/>
<polygon fill="midnightblue" stroke="midnightblue" points="1248.66,-259.17 1258,-254.16 1247.58,-252.26 1248.66,-259.17"/>
</g>
<!-- Node20 -->
<g id="node20" class="node">
<title>Node20</title>
<g id="a_node20"><a xlink:title=" ">
<polygon fill="white" stroke="#bfbfbf" points="1380.5,-235.5 1380.5,-254.5 1493.5,-254.5 1493.5,-235.5 1380.5,-235.5"/>
<text text-anchor="middle" x="1437" y="-242.5" font-family="Helvetica,sans-Serif" font-size="10.00">odb/transaction.hxx</text>
</a>
</g>
</g>
<!-- Node17&#45;&gt;Node20 -->
<g id="edge34" class="edge">
<title>Node17&#45;&gt;Node20</title>
<path fill="none" stroke="midnightblue" d="M1028.82,-292.08C1031.92,-291.71 1035,-291.35 1038,-291 1182.68,-274.14 1221.58,-273.1 1370.52,-255.03"/>
<polygon fill="midnightblue" stroke="midnightblue" points="1370.98,-258.5 1380.49,-253.81 1370.14,-251.55 1370.98,-258.5"/>
</g>
<!-- Node21 -->
<g id="node21" class="node">
<title>Node21</title>
<g id="a_node21"><a xlink:href="../../d0/dee/DBService_8hpp.html" target="_top" xlink:title=" ">
<polygon fill="white" stroke="black" points="1110,-235.5 1110,-254.5 1240,-254.5 1240,-235.5 1110,-235.5"/>
<text text-anchor="middle" x="1175" y="-242.5" font-family="Helvetica,sans-Serif" font-size="10.00">tools/db/DBService.hpp</text>
</a>
</g>
</g>
<!-- Node17&#45;&gt;Node21 -->
<g id="edge35" class="edge">
<title>Node17&#45;&gt;Node21</title>
<path fill="none" stroke="midnightblue" d="M999.12,-291.44C1035.12,-282.14 1092.77,-267.25 1132.19,-257.06"/>
<polygon fill="midnightblue" stroke="midnightblue" points="1133.23,-260.41 1142.04,-254.52 1131.48,-253.63 1133.23,-260.41"/>
</g>
<!-- Node36 -->
<g id="node36" class="node">
<title>Node36</title>
<g id="a_node36"><a xlink:title=" ">
<polygon fill="white" stroke="#bfbfbf" points="824,-235.5 824,-254.5 936,-254.5 936,-235.5 824,-235.5"/>
<text text-anchor="middle" x="880" y="-242.5" font-family="Helvetica,sans-Serif" font-size="10.00">odb/connection.hxx</text>
</a>
</g>
</g>
<!-- Node17&#45;&gt;Node36 -->
<g id="edge63" class="edge">
<title>Node17&#45;&gt;Node36</title>
<path fill="none" stroke="midnightblue" d="M952.18,-291.32C938.77,-282.9 918.18,-269.97 902.41,-260.07"/>
<polygon fill="midnightblue" stroke="midnightblue" points="904.11,-257.01 893.78,-254.65 900.39,-262.94 904.11,-257.01"/>
</g>
<!-- Node37 -->
<g id="node37" class="node">
<title>Node37</title>
<g id="a_node37"><a xlink:title=" ">
<polygon fill="white" stroke="#bfbfbf" points="954.5,-235.5 954.5,-254.5 1091.5,-254.5 1091.5,-235.5 954.5,-235.5"/>
<text text-anchor="middle" x="1023" y="-242.5" font-family="Helvetica,sans-Serif" font-size="10.00">odb/schema&#45;catalog.hxx</text>
</a>
</g>
</g>
<!-- Node17&#45;&gt;Node37 -->
<g id="edge64" class="edge">
<title>Node17&#45;&gt;Node37</title>
<path fill="none" stroke="midnightblue" d="M975.16,-291.32C983.5,-283.42 996.03,-271.55 1006.18,-261.94"/>
<polygon fill="midnightblue" stroke="midnightblue" points="1008.82,-264.25 1013.68,-254.83 1004.01,-259.17 1008.82,-264.25"/>
</g>
<!-- Node18&#45;&gt;Node12 -->
<g id="edge32" class="edge">
<title>Node18&#45;&gt;Node12</title>
<path fill="none" stroke="midnightblue" d="M817.62,-179.3C810.51,-163.81 798.82,-131.29 815,-112 842.03,-79.78 965.74,-70.62 1030.39,-68.02"/>
<polygon fill="midnightblue" stroke="midnightblue" points="1030.74,-71.51 1040.61,-67.65 1030.49,-64.52 1030.74,-71.51"/>
</g>
<!-- Node21&#45;&gt;Node18 -->
<g id="edge62" class="edge">
<title>Node21&#45;&gt;Node18</title>
<path fill="none" stroke="midnightblue" d="M1119.07,-235.44C1049.68,-224.83 932.68,-206.93 868.16,-197.06"/>
<polygon fill="midnightblue" stroke="midnightblue" points="868.69,-193.6 858.27,-195.55 867.63,-200.52 868.69,-193.6"/>
</g>
<!-- Node22 -->
<g id="node22" class="node">
<title>Node22</title>
<g id="a_node22"><a xlink:href="../../d3/dd8/IAuditEntry_8hpp.html" target="_top" xlink:title=" ">
<polygon fill="white" stroke="black" points="1377,-179.5 1377,-198.5 1519,-198.5 1519,-179.5 1377,-179.5"/>
<text text-anchor="middle" x="1448" y="-186.5" font-family="Helvetica,sans-Serif" font-size="10.00">core/audit/IAuditEntry.hpp</text>
</a>
</g>
</g>
<!-- Node21&#45;&gt;Node22 -->
<g id="edge36" class="edge">
<title>Node21&#45;&gt;Node22</title>
<path fill="none" stroke="midnightblue" d="M1218.26,-235.44C1266.18,-225.96 1343.48,-210.67 1395,-200.48"/>
<polygon fill="midnightblue" stroke="midnightblue" points="1395.81,-203.89 1404.94,-198.52 1394.46,-197.02 1395.81,-203.89"/>
</g>
<!-- Node27 -->
<g id="node27" class="node">
<title>Node27</title>
<g id="a_node27"><a xlink:href="../../d3/d6f/AuthFwd_8hpp.html" target="_top" xlink:title=" ">
<polygon fill="white" stroke="black" points="1328.5,-118 1328.5,-137 1457.5,-137 1457.5,-118 1328.5,-118"/>
<text text-anchor="middle" x="1393" y="-125" font-family="Helvetica,sans-Serif" font-size="10.00">core/auth/AuthFwd.hpp</text>
</a>
</g>
</g>
<!-- Node21&#45;&gt;Node27 -->
<g id="edge52" class="edge">
<title>Node21&#45;&gt;Node27</title>
<path fill="none" stroke="midnightblue" d="M1191.39,-235.32C1229.2,-215.29 1322.75,-165.72 1367.87,-141.82"/>
<polygon fill="midnightblue" stroke="midnightblue" points="1369.52,-144.9 1376.72,-137.12 1366.25,-138.71 1369.52,-144.9"/>
</g>
<!-- Node33 -->
<g id="node33" class="node">
<title>Node33</title>
<g id="a_node33"><a xlink:href="../../d7/d7f/CredentialFwd_8hpp.html" target="_top" xlink:title=" ">
<polygon fill="white" stroke="black" points="996,-112.5 996,-142.5 1144,-142.5 1144,-112.5 996,-112.5"/>
<text text-anchor="start" x="1004" y="-130.5" font-family="Helvetica,sans-Serif" font-size="10.00">core/credentials/Credential</text>
<text text-anchor="middle" x="1070" y="-119.5" font-family="Helvetica,sans-Serif" font-size="10.00">Fwd.hpp</text>
</a>
</g>
</g>
<!-- Node21&#45;&gt;Node33 -->
<g id="edge53" class="edge">
<title>Node21&#45;&gt;Node33</title>
<path fill="none" stroke="midnightblue" d="M1167.11,-235.32C1150.77,-217.35 1112.82,-175.61 1089.5,-149.95"/>
<polygon fill="midnightblue" stroke="midnightblue" points="1092.09,-147.59 1082.77,-142.55 1086.91,-152.3 1092.09,-147.59"/>
</g>
<!-- Node34 -->
<g id="node34" class="node">
<title>Node34</title>
<g id="a_node34"><a xlink:href="../../d2/d0e/UpdateFwd_8hpp.html" target="_top" xlink:title=" ">
<polygon fill="white" stroke="black" points="824,-118 824,-137 978,-137 978,-118 824,-118"/>
<text text-anchor="middle" x="901" y="-125" font-family="Helvetica,sans-Serif" font-size="10.00">core/update/UpdateFwd.hpp</text>
</a>
</g>
</g>
<!-- Node21&#45;&gt;Node34 -->
<g id="edge56" class="edge">
<title>Node21&#45;&gt;Node34</title>
<path fill="none" stroke="midnightblue" d="M1154.41,-235.32C1106.39,-215.08 986.83,-164.68 930.83,-141.07"/>
<polygon fill="midnightblue" stroke="midnightblue" points="932.03,-137.78 921.46,-137.12 929.31,-144.23 932.03,-137.78"/>
</g>
<!-- Node35 -->
<g id="node35" class="node">
<title>Node35</title>
<g id="a_node35"><a xlink:href="../../d8/d97/ToolsFwd_8hpp.html" target="_top" xlink:title=" ">
<polygon fill="white" stroke="black" points="1200,-118 1200,-137 1310,-137 1310,-118 1200,-118"/>
<text text-anchor="middle" x="1255" y="-125" font-family="Helvetica,sans-Serif" font-size="10.00">tools/ToolsFwd.hpp</text>
</a>
</g>
</g>
<!-- Node21&#45;&gt;Node35 -->
<g id="edge59" class="edge">
<title>Node21&#45;&gt;Node35</title>
<path fill="none" stroke="midnightblue" d="M1181.01,-235.32C1194.16,-216.34 1225.67,-170.85 1243.03,-145.79"/>
<polygon fill="midnightblue" stroke="midnightblue" points="1246.1,-147.5 1248.92,-137.28 1240.35,-143.51 1246.1,-147.5"/>
</g>
<!-- Node22&#45;&gt;Node12 -->
<g id="edge51" class="edge">
<title>Node22&#45;&gt;Node12</title>
<path fill="none" stroke="midnightblue" d="M1376.98,-185.23C1323.71,-180.89 1250.12,-170.03 1191,-143 1171.18,-133.94 1171.1,-124.14 1153,-112 1135.13,-100.02 1113.77,-88.5 1097.19,-80.11"/>
<polygon fill="midnightblue" stroke="midnightblue" points="1098.56,-76.88 1088.05,-75.56 1095.44,-83.15 1098.56,-76.88"/>
</g>
<!-- Node23 -->
<g id="node23" class="node">
<title>Node23</title>
<g id="a_node23"><a xlink:href="../../d7/dcf/AuditFwd_8hpp.html" target="_top" xlink:title=" ">
<polygon fill="white" stroke="black" points="1618.5,-118 1618.5,-137 1753.5,-137 1753.5,-118 1618.5,-118"/>
<text text-anchor="middle" x="1686" y="-125" font-family="Helvetica,sans-Serif" font-size="10.00">core/audit/AuditFwd.hpp</text>
</a>
</g>
</g>
<!-- Node22&#45;&gt;Node23 -->
<g id="edge37" class="edge">
<title>Node22&#45;&gt;Node23</title>
<path fill="none" stroke="midnightblue" d="M1482.1,-179.48C1524.25,-168.94 1596.05,-150.99 1642.23,-139.44"/>
<polygon fill="midnightblue" stroke="midnightblue" points="1643.11,-142.83 1651.96,-137.01 1641.41,-136.04 1643.11,-142.83"/>
</g>
<!-- Node22&#45;&gt;Node27 -->
<g id="edge42" class="edge">
<title>Node22&#45;&gt;Node27</title>
<path fill="none" stroke="midnightblue" d="M1440.12,-179.48C1431.71,-170.37 1418.18,-155.74 1407.77,-144.48"/>
<polygon fill="midnightblue" stroke="midnightblue" points="1410.22,-141.98 1400.87,-137.01 1405.08,-146.73 1410.22,-141.98"/>
</g>
<!-- Node28 -->
<g id="node28" class="node">
<title>Node28</title>
<g id="a_node28"><a xlink:href="../../dd/d9d/IVisitable_8hpp.html" target="_top" xlink:title=" ">
<polygon fill="white" stroke="black" points="1772,-118 1772,-137 1882,-137 1882,-118 1772,-118"/>
<text text-anchor="middle" x="1827" y="-125" font-family="Helvetica,sans-Serif" font-size="10.00">tools/IVisitable.hpp</text>
</a>
</g>
</g>
<!-- Node22&#45;&gt;Node28 -->
<g id="edge46" class="edge">
<title>Node22&#45;&gt;Node28</title>
<path fill="none" stroke="midnightblue" d="M1519.26,-179.49C1583.28,-171.45 1679.74,-158.35 1763,-143 1768.96,-141.9 1775.2,-140.63 1781.35,-139.31"/>
<polygon fill="midnightblue" stroke="midnightblue" points="1782.55,-142.64 1791.56,-137.07 1781.04,-135.8 1782.55,-142.64"/>
</g>
<!-- Node32 -->
<g id="node32" class="node">
<title>Node32</title>
<g id="a_node32"><a xlink:title=" ">
<polygon fill="white" stroke="#bfbfbf" points="1475.5,-112.5 1475.5,-142.5 1600.5,-142.5 1600.5,-112.5 1475.5,-112.5"/>
<text text-anchor="start" x="1483.5" y="-130.5" font-family="Helvetica,sans-Serif" font-size="10.00">boost/date_time/posix</text>
<text text-anchor="middle" x="1538" y="-119.5" font-family="Helvetica,sans-Serif" font-size="10.00">_time/posix_time.hpp</text>
</a>
</g>
</g>
<!-- Node22&#45;&gt;Node32 -->
<g id="edge50" class="edge">
<title>Node22&#45;&gt;Node32</title>
<path fill="none" stroke="midnightblue" d="M1460.89,-179.48C1473.2,-171.34 1492.18,-158.79 1508.23,-148.18"/>
<polygon fill="midnightblue" stroke="midnightblue" points="1510.38,-150.96 1516.79,-142.52 1506.52,-145.12 1510.38,-150.96"/>
</g>
<!-- Node23&#45;&gt;Node12 -->
<g id="edge40" class="edge">
<title>Node23&#45;&gt;Node12</title>
<path fill="none" stroke="midnightblue" d="M1645.5,-117.95C1634.06,-115.76 1621.58,-113.58 1610,-112 1512.92,-98.73 1216.27,-77.26 1109.13,-69.72"/>
<polygon fill="midnightblue" stroke="midnightblue" points="1109.29,-66.22 1099.07,-69.02 1108.8,-73.21 1109.29,-66.22"/>
</g>
<!-- Node24 -->
<g id="node24" class="node">
<title>Node24</title>
<g id="a_node24"><a xlink:title=" ">
<polygon fill="white" stroke="#bfbfbf" points="1472.5,-56.5 1472.5,-75.5 1525.5,-75.5 1525.5,-56.5 1472.5,-56.5"/>
<text text-anchor="middle" x="1499" y="-63.5" font-family="Helvetica,sans-Serif" font-size="10.00">cstddef</text>
</a>
</g>
</g>
<!-- Node23&#45;&gt;Node24 -->
<g id="edge38" class="edge">
<title>Node23&#45;&gt;Node24</title>
<path fill="none" stroke="midnightblue" d="M1659.21,-117.98C1626.71,-107.64 1571.79,-90.16 1535.46,-78.6"/>
<polygon fill="midnightblue" stroke="midnightblue" points="1536.33,-75.21 1525.74,-75.51 1534.21,-81.88 1536.33,-75.21"/>
</g>
<!-- Node25 -->
<g id="node25" class="node">
<title>Node25</title>
<g id="a_node25"><a xlink:title=" ">
<polygon fill="white" stroke="#bfbfbf" points="1650.5,-56.5 1650.5,-75.5 1721.5,-75.5 1721.5,-56.5 1650.5,-56.5"/>
<text text-anchor="middle" x="1686" y="-63.5" font-family="Helvetica,sans-Serif" font-size="10.00">flagset.hpp</text>
</a>
</g>
</g>
<!-- Node23&#45;&gt;Node25 -->
<g id="edge39" class="edge">
<title>Node23&#45;&gt;Node25</title>
<path fill="none" stroke="midnightblue" d="M1686,-117.98C1686,-109.58 1686,-96.48 1686,-85.66"/>
<polygon fill="midnightblue" stroke="midnightblue" points="1689.5,-85.51 1686,-75.51 1682.5,-85.51 1689.5,-85.51"/>
</g>
<!-- Node26 -->
<g id="node26" class="node">
<title>Node26</title>
<g id="a_node26"><a xlink:title=" ">
<polygon fill="white" stroke="#bfbfbf" points="1207.5,-56.5 1207.5,-75.5 1302.5,-75.5 1302.5,-56.5 1207.5,-56.5"/>
<text text-anchor="middle" x="1255" y="-63.5" font-family="Helvetica,sans-Serif" font-size="10.00">odb/lazy&#45;ptr.hxx</text>
</a>
</g>
</g>
<!-- Node23&#45;&gt;Node26 -->
<g id="edge41" class="edge">
<title>Node23&#45;&gt;Node26</title>
<path fill="none" stroke="midnightblue" d="M1643.87,-117.98C1632.87,-115.88 1621.01,-113.75 1610,-112 1505.46,-95.42 1382.84,-80.98 1312.5,-73.17"/>
<polygon fill="midnightblue" stroke="midnightblue" points="1312.83,-69.69 1302.51,-72.07 1312.06,-76.64 1312.83,-69.69"/>
</g>
<!-- Node27&#45;&gt;Node12 -->
<g id="edge44" class="edge">
<title>Node27&#45;&gt;Node12</title>
<path fill="none" stroke="midnightblue" d="M1349.98,-117.96C1339.82,-115.97 1329.03,-113.89 1319,-112 1244.84,-98.03 1158.09,-82.55 1109.04,-73.87"/>
<polygon fill="midnightblue" stroke="midnightblue" points="1109.62,-70.42 1099.16,-72.13 1108.4,-77.31 1109.62,-70.42"/>
</g>
<!-- Node27&#45;&gt;Node24 -->
<g id="edge43" class="edge">
<title>Node27&#45;&gt;Node24</title>
<path fill="none" stroke="midnightblue" d="M1408.19,-117.98C1425.66,-108.17 1454.58,-91.93 1475.08,-80.42"/>
<polygon fill="midnightblue" stroke="midnightblue" points="1476.83,-83.46 1483.84,-75.51 1473.41,-77.35 1476.83,-83.46"/>
</g>
<!-- Node27&#45;&gt;Node26 -->
<g id="edge45" class="edge">
<title>Node27&#45;&gt;Node26</title>
<path fill="none" stroke="midnightblue" d="M1373.23,-117.98C1349.86,-107.9 1310.79,-91.05 1284,-79.5"/>
<polygon fill="midnightblue" stroke="midnightblue" points="1285.3,-76.25 1274.74,-75.51 1282.53,-82.68 1285.3,-76.25"/>
</g>
<!-- Node29 -->
<g id="node29" class="node">
<title>Node29</title>
<g id="a_node29"><a xlink:href="../../d2/d91/Visitor_8hpp.html" target="_top" xlink:title=" ">
<polygon fill="white" stroke="black" points="1840.5,-56.5 1840.5,-75.5 1935.5,-75.5 1935.5,-56.5 1840.5,-56.5"/>
<text text-anchor="middle" x="1888" y="-63.5" font-family="Helvetica,sans-Serif" font-size="10.00">tools/Visitor.hpp</text>
</a>
</g>
</g>
<!-- Node28&#45;&gt;Node29 -->
<g id="edge47" class="edge">
<title>Node28&#45;&gt;Node29</title>
<path fill="none" stroke="midnightblue" d="M1835.74,-117.98C1845.16,-108.78 1860.36,-93.96 1871.95,-82.66"/>
<polygon fill="midnightblue" stroke="midnightblue" points="1874.56,-85 1879.28,-75.51 1869.67,-79.99 1874.56,-85"/>
</g>
<!-- Node31 -->
<g id="node31" class="node">
<title>Node31</title>
<g id="a_node31"><a xlink:title=" ">
<polygon fill="white" stroke="#bfbfbf" points="1770,-56.5 1770,-75.5 1822,-75.5 1822,-56.5 1770,-56.5"/>
<text text-anchor="middle" x="1796" y="-63.5" font-family="Helvetica,sans-Serif" font-size="10.00">cassert</text>
</a>
</g>
</g>
<!-- Node28&#45;&gt;Node31 -->
<g id="edge49" class="edge">
<title>Node28&#45;&gt;Node31</title>
<path fill="none" stroke="midnightblue" d="M1822.56,-117.98C1818.05,-109.32 1810.93,-95.65 1805.19,-84.65"/>
<polygon fill="midnightblue" stroke="midnightblue" points="1808.16,-82.76 1800.43,-75.51 1801.95,-85.99 1808.16,-82.76"/>
</g>
<!-- Node30 -->
<g id="node30" class="node">
<title>Node30</title>
<g id="a_node30"><a xlink:title=" ">
<polygon fill="white" stroke="#bfbfbf" points="1853.5,-0.5 1853.5,-19.5 1922.5,-19.5 1922.5,-0.5 1853.5,-0.5"/>
<text text-anchor="middle" x="1888" y="-7.5" font-family="Helvetica,sans-Serif" font-size="10.00">type_traits</text>
</a>
</g>
</g>
<!-- Node29&#45;&gt;Node30 -->
<g id="edge48" class="edge">
<title>Node29&#45;&gt;Node30</title>
<path fill="none" stroke="midnightblue" d="M1888,-56.08C1888,-49.01 1888,-38.86 1888,-29.99"/>
<polygon fill="midnightblue" stroke="midnightblue" points="1891.5,-29.75 1888,-19.75 1884.5,-29.75 1891.5,-29.75"/>
</g>
<!-- Node33&#45;&gt;Node12 -->
<g id="edge54" class="edge">
<title>Node33&#45;&gt;Node12</title>
<path fill="none" stroke="midnightblue" d="M1070,-112.4C1070,-104.47 1070,-94.46 1070,-85.86"/>
<polygon fill="midnightblue" stroke="midnightblue" points="1073.5,-85.66 1070,-75.66 1066.5,-85.66 1073.5,-85.66"/>
</g>
<!-- Node33&#45;&gt;Node26 -->
<g id="edge55" class="edge">
<title>Node33&#45;&gt;Node26</title>
<path fill="none" stroke="midnightblue" d="M1113.84,-112.4C1145.81,-102.12 1188.62,-88.35 1218.68,-78.68"/>
<polygon fill="midnightblue" stroke="midnightblue" points="1219.9,-81.96 1228.35,-75.57 1217.76,-75.3 1219.9,-81.96"/>
</g>
<!-- Node34&#45;&gt;Node12 -->
<g id="edge57" class="edge">
<title>Node34&#45;&gt;Node12</title>
<path fill="none" stroke="midnightblue" d="M925.21,-117.98C954.33,-107.72 1003.37,-90.46 1036.2,-78.9"/>
<polygon fill="midnightblue" stroke="midnightblue" points="1037.56,-82.13 1045.83,-75.51 1035.24,-75.53 1037.56,-82.13"/>
</g>
<!-- Node34&#45;&gt;Node26 -->
<g id="edge58" class="edge">
<title>Node34&#45;&gt;Node26</title>
<path fill="none" stroke="midnightblue" d="M951.48,-117.98C963.14,-116.02 975.5,-113.93 987,-112 1059.34,-99.83 1142.66,-85.84 1196.95,-76.74"/>
<polygon fill="midnightblue" stroke="midnightblue" points="1197.79,-80.14 1207.07,-75.04 1196.63,-73.24 1197.79,-80.14"/>
</g>
<!-- Node35&#45;&gt;Node12 -->
<g id="edge60" class="edge">
<title>Node35&#45;&gt;Node12</title>
<path fill="none" stroke="midnightblue" d="M1228.49,-117.98C1196.35,-107.64 1142.01,-90.16 1106.07,-78.6"/>
<polygon fill="midnightblue" stroke="midnightblue" points="1107.05,-75.24 1096.46,-75.51 1104.9,-81.9 1107.05,-75.24"/>
</g>
<!-- Node35&#45;&gt;Node26 -->
<g id="edge61" class="edge">
<title>Node35&#45;&gt;Node26</title>
<path fill="none" stroke="midnightblue" d="M1255,-117.98C1255,-109.58 1255,-96.48 1255,-85.66"/>
<polygon fill="midnightblue" stroke="midnightblue" points="1258.5,-85.51 1255,-75.51 1251.5,-85.51 1258.5,-85.51"/>
</g>
</g>
</svg>
