<?xml version="1.0" encoding="UTF-8" standalone="no"?>
<!DOCTYPE svg PUBLIC "-//W3C//DTD SVG 1.1//EN"
 "http://www.w3.org/Graphics/SVG/1.1/DTD/svg11.dtd">
<!-- Generated by graphviz version 2.43.0 (0)
 -->
<!-- Title: Leosac::Auth::User Pages: 1 -->
<!--zoomable 319 -->
<svg id="main" version="1.1" xmlns="http://www.w3.org/2000/svg" xmlns:xlink="http://www.w3.org/1999/xlink" xml:space="preserve" onload="init(evt)">
<style type="text/css"><![CDATA[
.edge:hover path { stroke: red; }
.edge:hover polygon { stroke: red; fill: red; }
]]></style>
<script type="text/javascript"><![CDATA[
var edges = document.getElementsByTagName('g');
if (edges && edges.length) {
  for (var i=0;i<edges.length;i++) {
    if (edges[i].id.substr(0,4)=='edge') {
      edges[i].setAttribute('class','edge');
    }
  }
}
]]></script>
        <defs>
                <circle id="rim" cx="0" cy="0" r="7"/>
                <circle id="rim2" cx="0" cy="0" r="3.5"/>
                <g id="zoomPlus">
                        <use xlink:href="#rim" fill="#404040">
                                <set attributeName="fill" to="#808080" begin="zoomplus.mouseover" end="zoomplus.mouseout"/>
                        </use>
                        <path d="M-4,0h8M0,-4v8" fill="none" stroke="white" stroke-width="1.5" pointer-events="none"/>
                </g>
                <g id="zoomMin">
                        <use xlink:href="#rim" fill="#404040">
                                <set attributeName="fill" to="#808080" begin="zoomminus.mouseover" end="zoomminus.mouseout"/>
                        </use>
                        <path d="M-4,0h8" fill="none" stroke="white" stroke-width="1.5" pointer-events="none"/>
                </g>
                <g id="dirArrow">
                        <path fill="none" stroke="white" stroke-width="1.5" d="M0,-3.0v7 M-2.5,-0.5L0,-3.0L2.5,-0.5"/>
                </g>
               <g id="resetDef">
                       <use xlink:href="#rim2" fill="#404040">
                               <set attributeName="fill" to="#808080" begin="reset.mouseover" end="reset.mouseout"/>
                       </use>
               </g>
        </defs>

<script type="text/javascript">
var viewWidth = 771;
var viewHeight = 319;
var sectionId = 'dynsection-1';
</script>
<script xlink:href="../../svgpan.js"/>
<svg id="graph" class="graph">
<g id="viewport">
<title>Leosac::Auth::User</title>
<polygon fill="white" stroke="transparent" points="-4,4 -4,-315 767,-315 767,4 -4,4"/>
<!-- Node1 -->
<g id="node1" class="node">
<title>Node1</title>
<g id="a_node1"><a xlink:title="Represent a user.">
<polygon fill="#bfbfbf" stroke="black" points="656,-128 656,-147 763,-147 763,-128 656,-128"/>
<text text-anchor="middle" x="709.5" y="-135" font-family="Helvetica,sans-Serif" font-size="10.00">Leosac::Auth::User</text>
</a>
</g>
</g>
<!-- Node2 -->
<g id="node2" class="node">
<title>Node2</title>
<g id="a_node2"><a xlink:title=" ">
<polygon fill="white" stroke="#bfbfbf" points="348.5,-280.5 348.5,-310.5 461.5,-310.5 461.5,-280.5 348.5,-280.5"/>
<text text-anchor="start" x="356.5" y="-298.5" font-family="Helvetica,sans-Serif" font-size="10.00">std::enable_shared</text>
<text text-anchor="middle" x="405" y="-287.5" font-family="Helvetica,sans-Serif" font-size="10.00">_from_this&lt; User &gt;</text>
</a>
</g>
</g>
<!-- Node2&#45;&gt;Node1 -->
<g id="edge1" class="edge">
<title>Node2&#45;&gt;Node1</title>
<path fill="none" stroke="midnightblue" d="M471.99,-299.9C521.71,-299.96 589.39,-292.78 638,-259.5 679.18,-231.31 699.5,-170.58 706.05,-147.07"/>
<polygon fill="midnightblue" stroke="midnightblue" points="472.02,-296.4 461.99,-299.79 471.95,-303.4 472.02,-296.4"/>
</g>
<!-- Node3 -->
<g id="node3" class="node">
<title>Node3</title>
<g id="a_node3"><a xlink:title=" ">
<polygon fill="white" stroke="#bfbfbf" points="296,-231.5 296,-261.5 514,-261.5 514,-231.5 296,-231.5"/>
<text text-anchor="start" x="304" y="-249.5" font-family="Helvetica,sans-Serif" font-size="10.00">std::set&lt; UserGroupMembership</text>
<text text-anchor="middle" x="405" y="-238.5" font-family="Helvetica,sans-Serif" font-size="10.00">Ptr, UserGroupMembershipComparator &gt;</text>
</a>
</g>
</g>
<!-- Node3&#45;&gt;Node1 -->
<g id="edge2" class="edge">
<title>Node3&#45;&gt;Node1</title>
<path fill="none" stroke="#9a32cd" stroke-dasharray="5,2" d="M524.22,-246.59C562.28,-242.55 603.5,-233.65 638,-215.5 668.69,-199.35 692.66,-164.21 702.98,-147.16"/>
<polygon fill="#9a32cd" stroke="#9a32cd" points="523.72,-243.12 514.1,-247.55 524.39,-250.09 523.72,-243.12"/>
<text text-anchor="middle" x="585" y="-247.5" font-family="Helvetica,sans-Serif" font-size="10.00"> membership_</text>
</g>
<!-- Node4 -->
<g id="node4" class="node">
<title>Node4</title>
<g id="a_node4"><a xlink:title="STL class.">
<polygon fill="white" stroke="#bfbfbf" points="99,-237 99,-256 217,-256 217,-237 99,-237"/>
<text text-anchor="middle" x="158" y="-244" font-family="Helvetica,sans-Serif" font-size="10.00">std::shared_ptr&lt; T &gt;</text>
</a>
</g>
</g>
<!-- Node4&#45;&gt;Node3 -->
<g id="edge3" class="edge">
<title>Node4&#45;&gt;Node3</title>
<path fill="none" stroke="#9a32cd" stroke-dasharray="5,2" d="M227.28,-246.5C248.58,-246.5 272.61,-246.5 295.94,-246.5"/>
<polygon fill="#9a32cd" stroke="#9a32cd" points="227.06,-243 217.06,-246.5 227.06,-250 227.06,-243"/>
<text text-anchor="middle" x="265" y="-249.5" font-family="Helvetica,sans-Serif" font-size="10.00"> keys</text>
</g>
<!-- Node5 -->
<g id="node5" class="node">
<title>Node5</title>
<g id="a_node5"><a xlink:title=" ">
<polygon fill="white" stroke="#bfbfbf" points="0,-237 0,-256 29,-256 29,-237 0,-237"/>
<text text-anchor="middle" x="14.5" y="-244" font-family="Helvetica,sans-Serif" font-size="10.00">T</text>
</a>
</g>
</g>
<!-- Node5&#45;&gt;Node4 -->
<g id="edge4" class="edge">
<title>Node5&#45;&gt;Node4</title>
<path fill="none" stroke="#9a32cd" stroke-dasharray="5,2" d="M39.29,-246.5C55.58,-246.5 77.94,-246.5 98.79,-246.5"/>
<polygon fill="#9a32cd" stroke="#9a32cd" points="39.07,-243 29.07,-246.5 39.07,-250 39.07,-243"/>
<text text-anchor="middle" x="55.5" y="-249.5" font-family="Helvetica,sans-Serif" font-size="10.00"> ptr</text>
</g>
<!-- Node6 -->
<g id="node6" class="node">
<title>Node6</title>
<g id="a_node6"><a xlink:title=" ">
<polygon fill="white" stroke="#bfbfbf" points="351,-182.5 351,-212.5 459,-212.5 459,-182.5 351,-182.5"/>
<text text-anchor="start" x="359" y="-200.5" font-family="Helvetica,sans-Serif" font-size="10.00">std::vector&lt; Cred::</text>
<text text-anchor="middle" x="405" y="-189.5" font-family="Helvetica,sans-Serif" font-size="10.00">CredentialLWPtr &gt;</text>
</a>
</g>
</g>
<!-- Node6&#45;&gt;Node1 -->
<g id="edge5" class="edge">
<title>Node6&#45;&gt;Node1</title>
<path fill="none" stroke="#9a32cd" stroke-dasharray="5,2" d="M469.17,-201.8C516.75,-203.05 582.97,-200.51 638,-182.5 661.18,-174.91 684.3,-157.9 697.45,-147.11"/>
<polygon fill="#9a32cd" stroke="#9a32cd" points="469.12,-198.29 459.01,-201.46 468.89,-205.29 469.12,-198.29"/>
<text text-anchor="middle" x="585" y="-203.5" font-family="Helvetica,sans-Serif" font-size="10.00"> credentials_</text>
</g>
<!-- Node7 -->
<g id="node7" class="node">
<title>Node7</title>
<g id="a_node7"><a xlink:title="STL class.">
<polygon fill="white" stroke="#bfbfbf" points="372.5,-138 372.5,-157 437.5,-157 437.5,-138 372.5,-138"/>
<text text-anchor="middle" x="405" y="-145" font-family="Helvetica,sans-Serif" font-size="10.00">std::string</text>
</a>
</g>
</g>
<!-- Node7&#45;&gt;Node1 -->
<g id="edge6" class="edge">
<title>Node7&#45;&gt;Node1</title>
<path fill="none" stroke="#9a32cd" stroke-dasharray="5,2" d="M447.6,-143.84C472.14,-141.85 503.81,-139.59 532,-138.5 573.64,-136.9 620.85,-136.71 655.96,-136.9"/>
<polygon fill="#9a32cd" stroke="#9a32cd" points="447.23,-140.36 437.56,-144.67 447.81,-147.33 447.23,-140.36"/>
<text text-anchor="middle" x="585" y="-174.5" font-family="Helvetica,sans-Serif" font-size="10.00"> email_</text>
<text text-anchor="middle" x="585" y="-163.5" font-family="Helvetica,sans-Serif" font-size="10.00">firstname_</text>
<text text-anchor="middle" x="585" y="-152.5" font-family="Helvetica,sans-Serif" font-size="10.00">lastname_</text>
<text text-anchor="middle" x="585" y="-141.5" font-family="Helvetica,sans-Serif" font-size="10.00">username_</text>
</g>
<!-- Node8 -->
<g id="node8" class="node">
<title>Node8</title>
<g id="a_node8"><a xlink:title="STL class.">
<polygon fill="white" stroke="#bfbfbf" points="106,-132.5 106,-162.5 210,-162.5 210,-132.5 106,-132.5"/>
<text text-anchor="start" x="114" y="-150.5" font-family="Helvetica,sans-Serif" font-size="10.00">std::basic_string&lt;</text>
<text text-anchor="middle" x="158" y="-139.5" font-family="Helvetica,sans-Serif" font-size="10.00"> char &gt;</text>
</a>
</g>
</g>
<!-- Node8&#45;&gt;Node7 -->
<g id="edge7" class="edge">
<title>Node8&#45;&gt;Node7</title>
<path fill="none" stroke="midnightblue" d="M220.11,-147.5C268.47,-147.5 334.06,-147.5 372.43,-147.5"/>
<polygon fill="midnightblue" stroke="midnightblue" points="220.06,-144 210.06,-147.5 220.06,-151 220.06,-144"/>
</g>
<!-- Node9 -->
<g id="node9" class="node">
<title>Node9</title>
<g id="a_node9"><a xlink:title=" ">
<polygon fill="white" stroke="#bfbfbf" points="331,-88.5 331,-118.5 479,-118.5 479,-88.5 331,-88.5"/>
<text text-anchor="start" x="339" y="-106.5" font-family="Helvetica,sans-Serif" font-size="10.00">std::vector&lt; Tools</text>
<text text-anchor="middle" x="405" y="-95.5" font-family="Helvetica,sans-Serif" font-size="10.00">::ScheduleMappingLWPtr &gt;</text>
</a>
</g>
</g>
<!-- Node9&#45;&gt;Node1 -->
<g id="edge8" class="edge">
<title>Node9&#45;&gt;Node1</title>
<path fill="none" stroke="#9a32cd" stroke-dasharray="5,2" d="M489.34,-107.02C533.67,-109.64 588.99,-114.08 638,-121.5 648.8,-123.13 660.4,-125.51 671.01,-127.93"/>
<polygon fill="#9a32cd" stroke="#9a32cd" points="489.38,-103.52 479.19,-106.44 488.98,-110.51 489.38,-103.52"/>
<text text-anchor="middle" x="585" y="-124.5" font-family="Helvetica,sans-Serif" font-size="10.00"> schedules_mapping_</text>
</g>
<!-- Node10 -->
<g id="node10" class="node">
<title>Node10</title>
<g id="a_node10"><a xlink:href="../../d9/d24/classLeosac_1_1Auth_1_1ValidityInfo.html" target="_top" xlink:title="A simple class that stores (and can be queried for) the validity of some objects.">
<polygon fill="white" stroke="black" points="335,-50 335,-69 475,-69 475,-50 335,-50"/>
<text text-anchor="middle" x="405" y="-57" font-family="Helvetica,sans-Serif" font-size="10.00">Leosac::Auth::ValidityInfo</text>
</a>
</g>
</g>
<!-- Node10&#45;&gt;Node1 -->
<g id="edge9" class="edge">
<title>Node10&#45;&gt;Node1</title>
<path fill="none" stroke="#9a32cd" stroke-dasharray="5,2" d="M485.18,-63.63C530.94,-67.93 588.97,-76.68 638,-94.5 660.1,-102.53 682.82,-117.92 696.29,-127.94"/>
<polygon fill="#9a32cd" stroke="#9a32cd" points="485.29,-60.13 475.02,-62.73 484.67,-67.1 485.29,-60.13"/>
<text text-anchor="middle" x="585" y="-97.5" font-family="Helvetica,sans-Serif" font-size="10.00"> validity_</text>
</g>
<!-- Node11 -->
<g id="node11" class="node">
<title>Node11</title>
<g id="a_node11"><a xlink:title=" ">
<polygon fill="white" stroke="#bfbfbf" points="336.5,-0.5 336.5,-30.5 473.5,-30.5 473.5,-0.5 336.5,-0.5"/>
<text text-anchor="start" x="344.5" y="-18.5" font-family="Helvetica,sans-Serif" font-size="10.00">std::shared_ptr&lt; IAccess</text>
<text text-anchor="middle" x="405" y="-7.5" font-family="Helvetica,sans-Serif" font-size="10.00">Profile &gt;</text>
</a>
</g>
</g>
<!-- Node11&#45;&gt;Node1 -->
<g id="edge10" class="edge">
<title>Node11&#45;&gt;Node1</title>
<path fill="none" stroke="#9a32cd" stroke-dasharray="5,2" d="M483.79,-14.86C531.12,-17.6 591.24,-26.88 638,-53.5 669.77,-71.58 693.54,-109.79 703.44,-127.77"/>
<polygon fill="#9a32cd" stroke="#9a32cd" points="483.75,-11.36 473.59,-14.36 483.41,-18.35 483.75,-11.36"/>
<text text-anchor="middle" x="585" y="-56.5" font-family="Helvetica,sans-Serif" font-size="10.00"> profile_</text>
</g>
<!-- Node12 -->
<g id="node12" class="node">
<title>Node12</title>
<g id="a_node12"><a xlink:href="../../d5/d20/classLeosac_1_1Auth_1_1IAccessProfile.html" target="_top" xlink:title="Holds information about access permission.">
<polygon fill="white" stroke="black" points="82,-6 82,-25 234,-25 234,-6 82,-6"/>
<text text-anchor="middle" x="158" y="-13" font-family="Helvetica,sans-Serif" font-size="10.00">Leosac::Auth::IAccessProfile</text>
</a>
</g>
</g>
<!-- Node12&#45;&gt;Node11 -->
<g id="edge11" class="edge">
<title>Node12&#45;&gt;Node11</title>
<path fill="none" stroke="#9a32cd" stroke-dasharray="5,2" d="M244.27,-15.5C274.45,-15.5 307.96,-15.5 336.46,-15.5"/>
<polygon fill="#9a32cd" stroke="#9a32cd" points="244.17,-12 234.17,-15.5 244.17,-19 244.17,-12"/>
<text text-anchor="middle" x="265" y="-18.5" font-family="Helvetica,sans-Serif" font-size="10.00"> ptr</text>
</g>
</g>
</svg>
        <g id="navigator" transform="translate(0 0)" fill="#404254">
                <rect fill="#f2f5e9" fill-opacity="0.5" stroke="#606060" stroke-width=".5" x="0" y="0" width="60" height="60"/>
                <use id="zoomplus" xlink:href="#zoomPlus" x="17" y="9" onmousedown="handleZoom(evt,'in')"/>
                <use id="zoomminus" xlink:href="#zoomMin" x="42" y="9" onmousedown="handleZoom(evt,'out')"/>
                <use id="reset" xlink:href="#resetDef" x="30" y="36" onmousedown="handleReset()"/>
                <g id="arrowUp" xlink:href="#dirArrow" transform="translate(30 24)" onmousedown="handlePan(0,-1)">
                  <use xlink:href="#rim" fill="#404040">
                        <set attributeName="fill" to="#808080" begin="arrowUp.mouseover" end="arrowUp.mouseout"/>
                  </use>
                  <path fill="none" stroke="white" stroke-width="1.5" d="M0,-3.0v7 M-2.5,-0.5L0,-3.0L2.5,-0.5"/>
                </g>
                <g id="arrowRight" xlink:href="#dirArrow" transform="rotate(90) translate(36 -43)" onmousedown="handlePan(1,0)">
                  <use xlink:href="#rim" fill="#404040">
                        <set attributeName="fill" to="#808080" begin="arrowRight.mouseover" end="arrowRight.mouseout"/>
                  </use>
                  <path fill="none" stroke="white" stroke-width="1.5" d="M0,-3.0v7 M-2.5,-0.5L0,-3.0L2.5,-0.5"/>
                </g>
                <g id="arrowDown" xlink:href="#dirArrow" transform="rotate(180) translate(-30 -48)" onmousedown="handlePan(0,1)">
                  <use xlink:href="#rim" fill="#404040">
                        <set attributeName="fill" to="#808080" begin="arrowDown.mouseover" end="arrowDown.mouseout"/>
                  </use>
                  <path fill="none" stroke="white" stroke-width="1.5" d="M0,-3.0v7 M-2.5,-0.5L0,-3.0L2.5,-0.5"/>
                </g>
                <g id="arrowLeft" xlink:href="#dirArrow" transform="rotate(270) translate(-36 17)" onmousedown="handlePan(-1,0)">
                  <use xlink:href="#rim" fill="#404040">
                        <set attributeName="fill" to="#808080" begin="arrowLeft.mouseover" end="arrowLeft.mouseout"/>
                  </use>
                  <path fill="none" stroke="white" stroke-width="1.5" d="M0,-3.0v7 M-2.5,-0.5L0,-3.0L2.5,-0.5"/>
                </g>
        </g>
        <svg viewBox="0 0 15 15" width="100%" height="30px" preserveAspectRatio="xMaxYMin meet">
         <g id="arrow_out" transform="scale(0.3 0.3)">
          <a xlink:href="classLeosac_1_1Auth_1_1User__coll__graph_org.svg" target="_base">
           <rect id="button" ry="5" rx="5" y="6" x="6" height="38" width="38"
                fill="#f2f5e9" fill-opacity="0.5" stroke="#606060" stroke-width="1.0"/>
           <path id="arrow"
             d="M 11.500037,31.436501 C 11.940474,20.09759 22.043105,11.32322 32.158766,21.979434 L 37.068811,17.246167 C 37.068811,17.246167 37.088388,32 37.088388,32 L 22.160133,31.978069 C 22.160133,31.978069 26.997745,27.140456 26.997745,27.140456 C 18.528582,18.264221 13.291696,25.230495 11.500037,31.436501 z"
             style="fill:#404040;"/>
          </a>
         </g>
        </svg>
</svg>
