<?xml version="1.0" encoding="UTF-8" standalone="no"?>
<!DOCTYPE svg PUBLIC "-//W3C//DTD SVG 1.1//EN"
 "http://www.w3.org/Graphics/SVG/1.1/DTD/svg11.dtd">
<!-- Generated by graphviz version 2.43.0 (0)
 -->
<!-- Title: Leosac::Module::LedBuzzer::CRUDHandler&lt; ObjectT, ObjectIdKey, SerializerT &gt; Pages: 1 -->
<svg width="166pt" height="184pt"
 viewBox="0.00 0.00 166.00 184.00" xmlns="http://www.w3.org/2000/svg" xmlns:xlink="http://www.w3.org/1999/xlink">
<g id="graph0" class="graph" transform="scale(1 1) rotate(0) translate(4 180)">
<title>Leosac::Module::LedBuzzer::CRUDHandler&lt; ObjectT, ObjectIdKey, SerializerT &gt;</title>
<polygon fill="white" stroke="transparent" points="-4,4 -4,-180 162,-180 162,4 -4,4"/>
<!-- Node1 -->
<g id="node1" class="node">
<title>Node1</title>
<g id="a_node1"><a xlink:title="CRUD handler for Buzzer and LED.">
<polygon fill="#bfbfbf" stroke="black" points="4.5,-0.5 4.5,-41.5 153.5,-41.5 153.5,-0.5 4.5,-0.5"/>
<text text-anchor="start" x="12.5" y="-29.5" font-family="Helvetica,sans-Serif" font-size="10.00">Leosac::Module::LedBuzzer</text>
<text text-anchor="start" x="12.5" y="-18.5" font-family="Helvetica,sans-Serif" font-size="10.00">::CRUDHandler&lt; ObjectT,</text>
<text text-anchor="middle" x="79" y="-7.5" font-family="Helvetica,sans-Serif" font-size="10.00"> ObjectIdKey, SerializerT &gt;</text>
</a>
</g>
</g>
<!-- Node2 -->
<g id="node2" class="node">
<title>Node2</title>
<g id="a_node2"><a xlink:href="../../da/dc2/classLeosac_1_1Module_1_1WebSockAPI_1_1CRUDResourceHandler.html" target="_top" xlink:title="Base CRUD handler for use within the websocket module.">
<polygon fill="white" stroke="black" points="0,-78.5 0,-108.5 158,-108.5 158,-78.5 0,-78.5"/>
<text text-anchor="start" x="8" y="-96.5" font-family="Helvetica,sans-Serif" font-size="10.00">Leosac::Module::WebSockAPI</text>
<text text-anchor="middle" x="79" y="-85.5" font-family="Helvetica,sans-Serif" font-size="10.00">::CRUDResourceHandler</text>
</a>
</g>
</g>
<!-- Node2&#45;&gt;Node1 -->
<g id="edge1" class="edge">
<title>Node2&#45;&gt;Node1</title>
<path fill="none" stroke="midnightblue" d="M79,-67.98C79,-59.35 79,-49.76 79,-41.59"/>
<polygon fill="midnightblue" stroke="midnightblue" points="75.5,-68.23 79,-78.23 82.5,-68.23 75.5,-68.23"/>
</g>
<!-- Node3 -->
<g id="node3" class="node">
<title>Node3</title>
<g id="a_node3"><a xlink:href="../../d3/dd9/classLeosac_1_1Module_1_1WebSockAPI_1_1ICRUDResourceHandler.html" target="_top" xlink:title="A common interface for CRUD handler.">
<polygon fill="white" stroke="black" points="0,-145.5 0,-175.5 158,-175.5 158,-145.5 0,-145.5"/>
<text text-anchor="start" x="8" y="-163.5" font-family="Helvetica,sans-Serif" font-size="10.00">Leosac::Module::WebSockAPI</text>
<text text-anchor="middle" x="79" y="-152.5" font-family="Helvetica,sans-Serif" font-size="10.00">::ICRUDResourceHandler</text>
</a>
</g>
</g>
<!-- Node3&#45;&gt;Node2 -->
<g id="edge2" class="edge">
<title>Node3&#45;&gt;Node2</title>
<path fill="none" stroke="midnightblue" d="M79,-135.11C79,-126.15 79,-116.32 79,-108.58"/>
<polygon fill="midnightblue" stroke="midnightblue" points="75.5,-135.4 79,-145.4 82.5,-135.4 75.5,-135.4"/>
</g>
</g>
</svg>
