<?xml version="1.0" encoding="UTF-8" standalone="no"?>
<!DOCTYPE svg PUBLIC "-//W3C//DTD SVG 1.1//EN"
 "http://www.w3.org/Graphics/SVG/1.1/DTD/svg11.dtd">
<!-- Generated by graphviz version 2.43.0 (0)
 -->
<!-- Title: Leosac::Auth::AccessPointUpdate Pages: 1 -->
<svg width="411pt" height="242pt"
 viewBox="0.00 0.00 411.00 242.00" xmlns="http://www.w3.org/2000/svg" xmlns:xlink="http://www.w3.org/1999/xlink">
<g id="graph0" class="graph" transform="scale(1 1) rotate(0) translate(4 238)">
<title>Leosac::Auth::AccessPointUpdate</title>
<polygon fill="white" stroke="transparent" points="-4,4 -4,-238 407,-238 407,4 -4,4"/>
<!-- Node1 -->
<g id="node1" class="node">
<title>Node1</title>
<g id="a_node1"><a xlink:title=" ">
<polygon fill="#bfbfbf" stroke="black" points="154.5,-0.5 154.5,-30.5 297.5,-30.5 297.5,-0.5 154.5,-0.5"/>
<text text-anchor="start" x="162.5" y="-18.5" font-family="Helvetica,sans-Serif" font-size="10.00">Leosac::Auth::AccessPoint</text>
<text text-anchor="middle" x="226" y="-7.5" font-family="Helvetica,sans-Serif" font-size="10.00">Update</text>
</a>
</g>
</g>
<!-- Node2 -->
<g id="node2" class="node">
<title>Node2</title>
<g id="a_node2"><a xlink:href="../../db/d6b/classLeosac_1_1update_1_1Update.html" target="_top" xlink:title="Represent an update.">
<polygon fill="white" stroke="black" points="160.5,-68.5 160.5,-87.5 291.5,-87.5 291.5,-68.5 160.5,-68.5"/>
<text text-anchor="middle" x="226" y="-75.5" font-family="Helvetica,sans-Serif" font-size="10.00">Leosac::update::Update</text>
</a>
</g>
</g>
<!-- Node2&#45;&gt;Node1 -->
<g id="edge1" class="edge">
<title>Node2&#45;&gt;Node1</title>
<path fill="none" stroke="midnightblue" d="M226,-58.22C226,-49.36 226,-38.96 226,-30.76"/>
<polygon fill="midnightblue" stroke="midnightblue" points="222.5,-58.33 226,-68.33 229.5,-58.33 222.5,-58.33"/>
</g>
<!-- Node3 -->
<g id="node3" class="node">
<title>Node3</title>
<g id="a_node3"><a xlink:href="../../d4/da6/classLeosac_1_1update_1_1IUpdate.html" target="_top" xlink:title=" ">
<polygon fill="white" stroke="black" points="0,-146.5 0,-165.5 134,-165.5 134,-146.5 0,-146.5"/>
<text text-anchor="middle" x="67" y="-153.5" font-family="Helvetica,sans-Serif" font-size="10.00">Leosac::update::IUpdate</text>
</a>
</g>
</g>
<!-- Node3&#45;&gt;Node2 -->
<g id="edge2" class="edge">
<title>Node3&#45;&gt;Node2</title>
<path fill="none" stroke="midnightblue" d="M94.29,-141.96C126.78,-126.43 180.11,-100.94 207.89,-87.66"/>
<polygon fill="midnightblue" stroke="midnightblue" points="92.44,-138.96 84.93,-146.43 95.46,-145.27 92.44,-138.96"/>
</g>
<!-- Node4 -->
<g id="node4" class="node">
<title>Node4</title>
<g id="a_node4"><a xlink:href="../../d6/d4d/classLeosac_1_1Audit_1_1AuditTracker.html" target="_top" xlink:title="Implementation of IAuditTracker, backed by ODB.">
<polygon fill="white" stroke="black" points="152,-146.5 152,-165.5 300,-165.5 300,-146.5 152,-146.5"/>
<text text-anchor="middle" x="226" y="-153.5" font-family="Helvetica,sans-Serif" font-size="10.00">Leosac::Audit::AuditTracker</text>
</a>
</g>
</g>
<!-- Node4&#45;&gt;Node2 -->
<g id="edge3" class="edge">
<title>Node4&#45;&gt;Node2</title>
<path fill="none" stroke="#9a32cd" stroke-dasharray="5,2" d="M226,-136.22C226,-120.7 226,-99.36 226,-87.62"/>
<polygon fill="#9a32cd" stroke="#9a32cd" points="222.5,-136.28 226,-146.28 229.5,-136.28 222.5,-136.28"/>
<text text-anchor="middle" x="257" y="-114.5" font-family="Helvetica,sans-Serif" font-size="10.00"> checkpoint_</text>
</g>
<!-- Node5 -->
<g id="node5" class="node">
<title>Node5</title>
<g id="a_node5"><a xlink:title="STL class.">
<polygon fill="white" stroke="#bfbfbf" points="318.5,-146.5 318.5,-165.5 383.5,-165.5 383.5,-146.5 318.5,-146.5"/>
<text text-anchor="middle" x="351" y="-153.5" font-family="Helvetica,sans-Serif" font-size="10.00">std::string</text>
</a>
</g>
</g>
<!-- Node5&#45;&gt;Node2 -->
<g id="edge4" class="edge">
<title>Node5&#45;&gt;Node2</title>
<path fill="none" stroke="#9a32cd" stroke-dasharray="5,2" d="M335.09,-139.49C323.76,-129.04 307.8,-115.49 292,-106 279.48,-98.48 264.47,-92.16 251.94,-87.52"/>
<polygon fill="#9a32cd" stroke="#9a32cd" points="332.78,-142.12 342.45,-146.44 337.59,-137.03 332.78,-142.12"/>
<text text-anchor="middle" x="360" y="-120" font-family="Helvetica,sans-Serif" font-size="10.00"> description_</text>
<text text-anchor="middle" x="360" y="-109" font-family="Helvetica,sans-Serif" font-size="10.00">source_module_</text>
</g>
<!-- Node6 -->
<g id="node6" class="node">
<title>Node6</title>
<g id="a_node6"><a xlink:title="STL class.">
<polygon fill="white" stroke="#bfbfbf" points="299,-203.5 299,-233.5 403,-233.5 403,-203.5 299,-203.5"/>
<text text-anchor="start" x="307" y="-221.5" font-family="Helvetica,sans-Serif" font-size="10.00">std::basic_string&lt;</text>
<text text-anchor="middle" x="351" y="-210.5" font-family="Helvetica,sans-Serif" font-size="10.00"> char &gt;</text>
</a>
</g>
</g>
<!-- Node6&#45;&gt;Node5 -->
<g id="edge5" class="edge">
<title>Node6&#45;&gt;Node5</title>
<path fill="none" stroke="midnightblue" d="M351,-193.35C351,-183.51 351,-172.78 351,-165.54"/>
<polygon fill="midnightblue" stroke="midnightblue" points="347.5,-193.47 351,-203.47 354.5,-193.47 347.5,-193.47"/>
</g>
</g>
</svg>
