<?xml version="1.0" encoding="UTF-8" standalone="no"?>
<!DOCTYPE svg PUBLIC "-//W3C//DTD SVG 1.1//EN"
 "http://www.w3.org/Graphics/SVG/1.1/DTD/svg11.dtd">
<!-- Generated by graphviz version 2.43.0 (0)
 -->
<!-- Title: src/core/audit/IZoneEvent.hpp Pages: 1 -->
<svg width="471pt" height="151pt"
 viewBox="0.00 0.00 470.50 151.00" xmlns="http://www.w3.org/2000/svg" xmlns:xlink="http://www.w3.org/1999/xlink">
<g id="graph0" class="graph" transform="scale(1 1) rotate(0) translate(4 147)">
<title>src/core/audit/IZoneEvent.hpp</title>
<polygon fill="white" stroke="transparent" points="-4,4 -4,-147 466.5,-147 466.5,4 -4,4"/>
<!-- Node1 -->
<g id="node1" class="node">
<title>Node1</title>
<g id="a_node1"><a xlink:title=" ">
<polygon fill="#bfbfbf" stroke="black" points="153.5,-123.5 153.5,-142.5 315.5,-142.5 315.5,-123.5 153.5,-123.5"/>
<text text-anchor="middle" x="234.5" y="-130.5" font-family="Helvetica,sans-Serif" font-size="10.00">src/core/audit/IZoneEvent.hpp</text>
</a>
</g>
</g>
<!-- Node2 -->
<g id="node2" class="node">
<title>Node2</title>
<g id="a_node2"><a xlink:href="../../dc/d56/ZoneEventSerializer_8cpp.html" target="_top" xlink:title=" ">
<polygon fill="white" stroke="black" points="0,-56.5 0,-86.5 137,-86.5 137,-56.5 0,-56.5"/>
<text text-anchor="start" x="8" y="-74.5" font-family="Helvetica,sans-Serif" font-size="10.00">src/core/audit/serializers</text>
<text text-anchor="middle" x="68.5" y="-63.5" font-family="Helvetica,sans-Serif" font-size="10.00">/ZoneEventSerializer.cpp</text>
</a>
</g>
</g>
<!-- Node1&#45;&gt;Node2 -->
<g id="edge1" class="edge">
<title>Node1&#45;&gt;Node2</title>
<path fill="none" stroke="midnightblue" d="M200.95,-119.98C173.96,-110.3 135.99,-96.69 107.62,-86.52"/>
<polygon fill="midnightblue" stroke="midnightblue" points="200.12,-123.4 210.72,-123.48 202.48,-116.81 200.12,-123.4"/>
</g>
<!-- Node3 -->
<g id="node3" class="node">
<title>Node3</title>
<g id="a_node3"><a xlink:href="../../df/dcc/ZoneEvent_8hpp.html" target="_top" xlink:title=" ">
<polygon fill="white" stroke="black" points="155,-62 155,-81 314,-81 314,-62 155,-62"/>
<text text-anchor="middle" x="234.5" y="-69" font-family="Helvetica,sans-Serif" font-size="10.00">src/core/audit/ZoneEvent.hpp</text>
</a>
</g>
</g>
<!-- Node1&#45;&gt;Node3 -->
<g id="edge2" class="edge">
<title>Node1&#45;&gt;Node3</title>
<path fill="none" stroke="midnightblue" d="M234.5,-113.32C234.5,-102.5 234.5,-89.4 234.5,-81.01"/>
<polygon fill="midnightblue" stroke="midnightblue" points="231,-113.48 234.5,-123.48 238,-113.48 231,-113.48"/>
</g>
<!-- Node6 -->
<g id="node6" class="node">
<title>Node6</title>
<g id="a_node6"><a xlink:href="../../de/dd7/ZoneCRUD_8cpp.html" target="_top" xlink:title=" ">
<polygon fill="white" stroke="black" points="332.5,-56.5 332.5,-86.5 462.5,-86.5 462.5,-56.5 332.5,-56.5"/>
<text text-anchor="start" x="340.5" y="-74.5" font-family="Helvetica,sans-Serif" font-size="10.00">src/modules/websock</text>
<text text-anchor="middle" x="397.5" y="-63.5" font-family="Helvetica,sans-Serif" font-size="10.00">&#45;api/api/ZoneCRUD.cpp</text>
</a>
</g>
</g>
<!-- Node1&#45;&gt;Node6 -->
<g id="edge5" class="edge">
<title>Node1&#45;&gt;Node6</title>
<path fill="none" stroke="midnightblue" d="M267.44,-119.98C293.94,-110.3 331.23,-96.69 359.08,-86.52"/>
<polygon fill="midnightblue" stroke="midnightblue" points="266.05,-116.76 257.85,-123.48 268.45,-123.33 266.05,-116.76"/>
</g>
<!-- Node4 -->
<g id="node4" class="node">
<title>Node4</title>
<g id="a_node4"><a xlink:href="../../d4/dbe/AuditFactory_8cpp.html" target="_top" xlink:title=" ">
<polygon fill="white" stroke="black" points="62,-0.5 62,-19.5 227,-19.5 227,-0.5 62,-0.5"/>
<text text-anchor="middle" x="144.5" y="-7.5" font-family="Helvetica,sans-Serif" font-size="10.00">src/core/audit/AuditFactory.cpp</text>
</a>
</g>
</g>
<!-- Node3&#45;&gt;Node4 -->
<g id="edge3" class="edge">
<title>Node3&#45;&gt;Node4</title>
<path fill="none" stroke="midnightblue" d="M213.22,-56.43C195.87,-44.96 171.93,-29.13 157.37,-19.51"/>
<polygon fill="midnightblue" stroke="midnightblue" points="211.33,-59.38 221.61,-61.98 215.19,-53.54 211.33,-59.38"/>
</g>
<!-- Node5 -->
<g id="node5" class="node">
<title>Node5</title>
<g id="a_node5"><a xlink:href="../../d5/db2/ZoneEvent_8cpp.html" target="_top" xlink:title=" ">
<polygon fill="white" stroke="black" points="245.5,-0.5 245.5,-19.5 403.5,-19.5 403.5,-0.5 245.5,-0.5"/>
<text text-anchor="middle" x="324.5" y="-7.5" font-family="Helvetica,sans-Serif" font-size="10.00">src/core/audit/ZoneEvent.cpp</text>
</a>
</g>
</g>
<!-- Node3&#45;&gt;Node5 -->
<g id="edge4" class="edge">
<title>Node3&#45;&gt;Node5</title>
<path fill="none" stroke="midnightblue" d="M255.78,-56.43C273.13,-44.96 297.07,-29.13 311.63,-19.51"/>
<polygon fill="midnightblue" stroke="midnightblue" points="253.81,-53.54 247.39,-61.98 257.67,-59.38 253.81,-53.54"/>
</g>
</g>
</svg>
