<?xml version="1.0" encoding="UTF-8" standalone="no"?>
<!DOCTYPE svg PUBLIC "-//W3C//DTD SVG 1.1//EN"
 "http://www.w3.org/Graphics/SVG/1.1/DTD/svg11.dtd">
<!-- Generated by graphviz version 2.43.0 (0)
 -->
<!-- Title: src/modules/libgpiod/LibgpiodPin.hpp Pages: 1 -->
<svg width="403pt" height="240pt"
 viewBox="0.00 0.00 403.00 240.00" xmlns="http://www.w3.org/2000/svg" xmlns:xlink="http://www.w3.org/1999/xlink">
<g id="graph0" class="graph" transform="scale(1 1) rotate(0) translate(4 236)">
<title>src/modules/libgpiod/LibgpiodPin.hpp</title>
<polygon fill="white" stroke="transparent" points="-4,4 -4,-236 399,-236 399,4 -4,4"/>
<!-- Node1 -->
<g id="node1" class="node">
<title>Node1</title>
<g id="a_node1"><a xlink:title=" ">
<polygon fill="#bfbfbf" stroke="black" points="93,-201.5 93,-231.5 211,-231.5 211,-201.5 93,-201.5"/>
<text text-anchor="start" x="101" y="-219.5" font-family="Helvetica,sans-Serif" font-size="10.00">src/modules/libgpiod</text>
<text text-anchor="middle" x="152" y="-208.5" font-family="Helvetica,sans-Serif" font-size="10.00">/LibgpiodPin.hpp</text>
</a>
</g>
</g>
<!-- Node2 -->
<g id="node2" class="node">
<title>Node2</title>
<g id="a_node2"><a xlink:href="../../d8/dca/LibgpiodModule_8hpp.html" target="_top" xlink:title=" ">
<polygon fill="white" stroke="black" points="45,-67.5 45,-97.5 163,-97.5 163,-67.5 45,-67.5"/>
<text text-anchor="start" x="53" y="-85.5" font-family="Helvetica,sans-Serif" font-size="10.00">src/modules/libgpiod</text>
<text text-anchor="middle" x="104" y="-74.5" font-family="Helvetica,sans-Serif" font-size="10.00">/LibgpiodModule.hpp</text>
</a>
</g>
</g>
<!-- Node1&#45;&gt;Node2 -->
<g id="edge1" class="edge">
<title>Node1&#45;&gt;Node2</title>
<path fill="none" stroke="midnightblue" d="M134.15,-192.39C130.17,-183.82 126.33,-174 123,-165 114.34,-141.56 105.06,-114.02 102.16,-97.7"/>
<polygon fill="midnightblue" stroke="midnightblue" points="131.07,-194.06 138.69,-201.42 137.33,-190.91 131.07,-194.06"/>
</g>
<!-- Node5 -->
<g id="node5" class="node">
<title>Node5</title>
<g id="a_node5"><a xlink:href="../../d7/d44/LibgpiodConfig_8hpp.html" target="_top" xlink:title=" ">
<polygon fill="white" stroke="black" points="141,-134.5 141,-164.5 259,-164.5 259,-134.5 141,-134.5"/>
<text text-anchor="start" x="149" y="-152.5" font-family="Helvetica,sans-Serif" font-size="10.00">src/modules/libgpiod</text>
<text text-anchor="middle" x="200" y="-141.5" font-family="Helvetica,sans-Serif" font-size="10.00">/LibgpiodConfig.hpp</text>
</a>
</g>
</g>
<!-- Node1&#45;&gt;Node5 -->
<g id="edge5" class="edge">
<title>Node1&#45;&gt;Node5</title>
<path fill="none" stroke="midnightblue" d="M168.5,-193.16C175.5,-183.68 183.44,-172.92 189.61,-164.58"/>
<polygon fill="midnightblue" stroke="midnightblue" points="165.54,-191.27 162.42,-201.4 171.17,-195.43 165.54,-191.27"/>
</g>
<!-- Node7 -->
<g id="node7" class="node">
<title>Node7</title>
<g id="a_node7"><a xlink:href="../../d7/d4c/LibgpiodPin_8cpp.html" target="_top" xlink:title=" ">
<polygon fill="white" stroke="black" points="277,-134.5 277,-164.5 395,-164.5 395,-134.5 277,-134.5"/>
<text text-anchor="start" x="285" y="-152.5" font-family="Helvetica,sans-Serif" font-size="10.00">src/modules/libgpiod</text>
<text text-anchor="middle" x="336" y="-141.5" font-family="Helvetica,sans-Serif" font-size="10.00">/LibgpiodPin.cpp</text>
</a>
</g>
</g>
<!-- Node1&#45;&gt;Node7 -->
<g id="edge9" class="edge">
<title>Node1&#45;&gt;Node7</title>
<path fill="none" stroke="midnightblue" d="M201.67,-197.96C231.3,-187.48 268.44,-174.37 296.15,-164.58"/>
<polygon fill="midnightblue" stroke="midnightblue" points="200.19,-194.76 191.93,-201.4 202.52,-201.37 200.19,-194.76"/>
</g>
<!-- Node2&#45;&gt;Node1 -->
<g id="edge3" class="edge">
<title>Node2&#45;&gt;Node1</title>
<path fill="none" stroke="midnightblue" d="M119.35,-107.04C126.23,-123.37 133.83,-145.59 141,-165 145.58,-177.38 151.13,-191.33 153.75,-201.42"/>
<polygon fill="midnightblue" stroke="midnightblue" points="122.45,-105.4 115.16,-97.7 116.06,-108.26 122.45,-105.4"/>
</g>
<!-- Node3 -->
<g id="node3" class="node">
<title>Node3</title>
<g id="a_node3"><a xlink:href="../../df/d5b/libgpiod_2init_8cpp.html" target="_top" xlink:title=" ">
<polygon fill="white" stroke="black" points="0,-0.5 0,-30.5 118,-30.5 118,-0.5 0,-0.5"/>
<text text-anchor="start" x="8" y="-18.5" font-family="Helvetica,sans-Serif" font-size="10.00">src/modules/libgpiod</text>
<text text-anchor="middle" x="59" y="-7.5" font-family="Helvetica,sans-Serif" font-size="10.00">/init.cpp</text>
</a>
</g>
</g>
<!-- Node2&#45;&gt;Node3 -->
<g id="edge2" class="edge">
<title>Node2&#45;&gt;Node3</title>
<path fill="none" stroke="midnightblue" d="M88.53,-59.16C81.97,-49.68 74.52,-38.92 68.75,-30.58"/>
<polygon fill="midnightblue" stroke="midnightblue" points="85.67,-61.17 94.24,-67.4 91.42,-57.18 85.67,-61.17"/>
</g>
<!-- Node4 -->
<g id="node4" class="node">
<title>Node4</title>
<g id="a_node4"><a xlink:href="../../db/de7/LibgpiodModule_8cpp.html" target="_top" xlink:title=" ">
<polygon fill="white" stroke="black" points="136,-0.5 136,-30.5 254,-30.5 254,-0.5 136,-0.5"/>
<text text-anchor="start" x="144" y="-18.5" font-family="Helvetica,sans-Serif" font-size="10.00">src/modules/libgpiod</text>
<text text-anchor="middle" x="195" y="-7.5" font-family="Helvetica,sans-Serif" font-size="10.00">/LibgpiodModule.cpp</text>
</a>
</g>
</g>
<!-- Node2&#45;&gt;Node4 -->
<g id="edge4" class="edge">
<title>Node2&#45;&gt;Node4</title>
<path fill="none" stroke="midnightblue" d="M132.07,-61.45C146.07,-51.45 162.66,-39.6 175.29,-30.58"/>
<polygon fill="midnightblue" stroke="midnightblue" points="129.85,-58.74 123.75,-67.4 133.92,-64.43 129.85,-58.74"/>
</g>
<!-- Node5&#45;&gt;Node2 -->
<g id="edge6" class="edge">
<title>Node5&#45;&gt;Node2</title>
<path fill="none" stroke="midnightblue" d="M170.81,-128.73C155.95,-118.68 138.24,-106.68 124.79,-97.58"/>
<polygon fill="midnightblue" stroke="midnightblue" points="168.93,-131.69 179.17,-134.4 172.85,-125.89 168.93,-131.69"/>
</g>
<!-- Node5&#45;&gt;Node4 -->
<g id="edge8" class="edge">
<title>Node5&#45;&gt;Node4</title>
<path fill="none" stroke="midnightblue" d="M199.07,-124.02C198.03,-96.51 196.37,-52.79 195.53,-30.52"/>
<polygon fill="midnightblue" stroke="midnightblue" points="195.59,-124.51 199.46,-134.37 202.58,-124.25 195.59,-124.51"/>
</g>
<!-- Node6 -->
<g id="node6" class="node">
<title>Node6</title>
<g id="a_node6"><a xlink:href="../../d8/d42/LibgpiodConfig_8cpp.html" target="_top" xlink:title=" ">
<polygon fill="white" stroke="black" points="223,-67.5 223,-97.5 341,-97.5 341,-67.5 223,-67.5"/>
<text text-anchor="start" x="231" y="-85.5" font-family="Helvetica,sans-Serif" font-size="10.00">src/modules/libgpiod</text>
<text text-anchor="middle" x="282" y="-74.5" font-family="Helvetica,sans-Serif" font-size="10.00">/LibgpiodConfig.cpp</text>
</a>
</g>
</g>
<!-- Node5&#45;&gt;Node6 -->
<g id="edge7" class="edge">
<title>Node5&#45;&gt;Node6</title>
<path fill="none" stroke="midnightblue" d="M225.65,-128.17C238.19,-118.23 252.97,-106.51 264.24,-97.58"/>
<polygon fill="midnightblue" stroke="midnightblue" points="223.46,-125.44 217.79,-134.4 227.8,-130.93 223.46,-125.44"/>
</g>
</g>
</svg>
