<?xml version="1.0" encoding="UTF-8" standalone="no"?>
<!DOCTYPE svg PUBLIC "-//W3C//DTD SVG 1.1//EN"
 "http://www.w3.org/Graphics/SVG/1.1/DTD/svg11.dtd">
<!-- Generated by graphviz version 2.43.0 (0)
 -->
<!-- Title: src/modules/smtp/SMTPAuditSerializer.hpp Pages: 1 -->
<svg width="1649pt" height="498pt"
 viewBox="0.00 0.00 1648.50 498.00" xmlns="http://www.w3.org/2000/svg" xmlns:xlink="http://www.w3.org/1999/xlink">
<g id="graph0" class="graph" transform="scale(1 1) rotate(0) translate(4 494)">
<title>src/modules/smtp/SMTPAuditSerializer.hpp</title>
<polygon fill="white" stroke="transparent" points="-4,4 -4,-494 1644.5,-494 1644.5,4 -4,4"/>
<!-- Node1 -->
<g id="node1" class="node">
<title>Node1</title>
<g id="a_node1"><a xlink:title=" ">
<polygon fill="#bfbfbf" stroke="black" points="1323.5,-459.5 1323.5,-489.5 1481.5,-489.5 1481.5,-459.5 1323.5,-459.5"/>
<text text-anchor="start" x="1331.5" y="-477.5" font-family="Helvetica,sans-Serif" font-size="10.00">src/modules/smtp/SMTPAudit</text>
<text text-anchor="middle" x="1402.5" y="-466.5" font-family="Helvetica,sans-Serif" font-size="10.00">Serializer.hpp</text>
</a>
</g>
</g>
<!-- Node2 -->
<g id="node2" class="node">
<title>Node2</title>
<g id="a_node2"><a xlink:href="../../dc/d49/LeosacFwd_8hpp.html" target="_top" xlink:title=" ">
<polygon fill="white" stroke="black" points="29.5,-403.5 29.5,-422.5 121.5,-422.5 121.5,-403.5 29.5,-403.5"/>
<text text-anchor="middle" x="75.5" y="-410.5" font-family="Helvetica,sans-Serif" font-size="10.00">LeosacFwd.hpp</text>
</a>
</g>
</g>
<!-- Node1&#45;&gt;Node2 -->
<g id="edge1" class="edge">
<title>Node1&#45;&gt;Node2</title>
<path fill="none" stroke="midnightblue" d="M1323.46,-469.96C1079.43,-459.01 341.67,-425.93 131.77,-416.52"/>
<polygon fill="midnightblue" stroke="midnightblue" points="131.74,-413.02 121.59,-416.07 131.42,-420.01 131.74,-413.02"/>
</g>
<!-- Node5 -->
<g id="node5" class="node">
<title>Node5</title>
<g id="a_node5"><a xlink:href="../../dd/db2/SMTPAudit_8hpp.html" target="_top" xlink:title=" ">
<polygon fill="white" stroke="black" points="942,-403.5 942,-422.5 1031,-422.5 1031,-403.5 942,-403.5"/>
<text text-anchor="middle" x="986.5" y="-410.5" font-family="Helvetica,sans-Serif" font-size="10.00">SMTPAudit.hpp</text>
</a>
</g>
</g>
<!-- Node1&#45;&gt;Node5 -->
<g id="edge4" class="edge">
<title>Node1&#45;&gt;Node5</title>
<path fill="none" stroke="midnightblue" d="M1323.27,-462.17C1240.7,-450.36 1113.49,-432.16 1041.36,-421.85"/>
<polygon fill="midnightblue" stroke="midnightblue" points="1041.53,-418.33 1031.13,-420.38 1040.53,-425.26 1041.53,-418.33"/>
</g>
<!-- Node12 -->
<g id="node12" class="node">
<title>Node12</title>
<g id="a_node12"><a xlink:href="../../d3/dd8/IAuditEntry_8hpp.html" target="_top" xlink:title=" ">
<polygon fill="white" stroke="black" points="1075.5,-179.5 1075.5,-198.5 1217.5,-198.5 1217.5,-179.5 1075.5,-179.5"/>
<text text-anchor="middle" x="1146.5" y="-186.5" font-family="Helvetica,sans-Serif" font-size="10.00">core/audit/IAuditEntry.hpp</text>
</a>
</g>
</g>
<!-- Node1&#45;&gt;Node12 -->
<g id="edge52" class="edge">
<title>Node1&#45;&gt;Node12</title>
<path fill="none" stroke="midnightblue" d="M1394.63,-459.41C1383.5,-438.13 1364.5,-396.21 1364.5,-358 1364.5,-358 1364.5,-358 1364.5,-300 1364.5,-236.45 1289.75,-209.61 1227.79,-198.28"/>
<polygon fill="midnightblue" stroke="midnightblue" points="1228.03,-194.76 1217.58,-196.52 1226.84,-201.66 1228.03,-194.76"/>
</g>
<!-- Node15 -->
<g id="node15" class="node">
<title>Node15</title>
<g id="a_node15"><a xlink:href="../../d2/d91/Visitor_8hpp.html" target="_top" xlink:title=" ">
<polygon fill="white" stroke="black" points="1325,-56.5 1325,-75.5 1420,-75.5 1420,-56.5 1325,-56.5"/>
<text text-anchor="middle" x="1372.5" y="-63.5" font-family="Helvetica,sans-Serif" font-size="10.00">tools/Visitor.hpp</text>
</a>
</g>
</g>
<!-- Node1&#45;&gt;Node15 -->
<g id="edge53" class="edge">
<title>Node1&#45;&gt;Node15</title>
<path fill="none" stroke="midnightblue" d="M1410.37,-459.41C1421.5,-438.13 1440.5,-396.21 1440.5,-358 1440.5,-358 1440.5,-358 1440.5,-188 1440.5,-153.18 1439.29,-141.93 1421.5,-112 1414.56,-100.33 1403.66,-89.89 1393.9,-82.01"/>
<polygon fill="midnightblue" stroke="midnightblue" points="1395.82,-79.07 1385.75,-75.77 1391.57,-84.63 1395.82,-79.07"/>
</g>
<!-- Node33 -->
<g id="node33" class="node">
<title>Node33</title>
<g id="a_node33"><a xlink:title=" ">
<polygon fill="white" stroke="#bfbfbf" points="1468.5,-403.5 1468.5,-422.5 1578.5,-422.5 1578.5,-403.5 1468.5,-403.5"/>
<text text-anchor="middle" x="1523.5" y="-410.5" font-family="Helvetica,sans-Serif" font-size="10.00">nlohmann/json.hpp</text>
</a>
</g>
</g>
<!-- Node1&#45;&gt;Node33 -->
<g id="edge54" class="edge">
<title>Node1&#45;&gt;Node33</title>
<path fill="none" stroke="midnightblue" d="M1431.18,-459.4C1451.02,-449.64 1477.26,-436.74 1496.69,-427.18"/>
<polygon fill="midnightblue" stroke="midnightblue" points="1498.46,-430.21 1505.89,-422.66 1495.38,-423.93 1498.46,-430.21"/>
</g>
<!-- Node34 -->
<g id="node34" class="node">
<title>Node34</title>
<g id="a_node34"><a xlink:title=" ">
<polygon fill="white" stroke="#bfbfbf" points="1596.5,-403.5 1596.5,-422.5 1640.5,-422.5 1640.5,-403.5 1596.5,-403.5"/>
<text text-anchor="middle" x="1618.5" y="-410.5" font-family="Helvetica,sans-Serif" font-size="10.00">string</text>
</a>
</g>
</g>
<!-- Node1&#45;&gt;Node34 -->
<g id="edge55" class="edge">
<title>Node1&#45;&gt;Node34</title>
<path fill="none" stroke="midnightblue" d="M1454.79,-459.47C1489.63,-450.06 1536.68,-437.25 1586.78,-423.17"/>
<polygon fill="midnightblue" stroke="midnightblue" points="1587.82,-426.52 1596.5,-420.44 1585.92,-419.78 1587.82,-426.52"/>
</g>
<!-- Node3 -->
<g id="node3" class="node">
<title>Node3</title>
<g id="a_node3"><a xlink:title=" ">
<polygon fill="white" stroke="#bfbfbf" points="483.5,-56.5 483.5,-75.5 541.5,-75.5 541.5,-56.5 483.5,-56.5"/>
<text text-anchor="middle" x="512.5" y="-63.5" font-family="Helvetica,sans-Serif" font-size="10.00">memory</text>
</a>
</g>
</g>
<!-- Node2&#45;&gt;Node3 -->
<g id="edge2" class="edge">
<title>Node2&#45;&gt;Node3</title>
<path fill="none" stroke="midnightblue" d="M75.5,-403.44C75.5,-384.94 75.5,-339.81 75.5,-302 75.5,-302 75.5,-302 75.5,-188 75.5,-134.62 119.49,-133.16 168.5,-112 222.57,-88.65 394.76,-74.72 473.06,-69.44"/>
<polygon fill="midnightblue" stroke="midnightblue" points="473.72,-72.9 483.47,-68.75 473.26,-65.92 473.72,-72.9"/>
</g>
<!-- Node4 -->
<g id="node4" class="node">
<title>Node4</title>
<g id="a_node4"><a xlink:title=" ">
<polygon fill="white" stroke="#bfbfbf" points="0,-347.5 0,-366.5 47,-366.5 47,-347.5 0,-347.5"/>
<text text-anchor="middle" x="23.5" y="-354.5" font-family="Helvetica,sans-Serif" font-size="10.00">vector</text>
</a>
</g>
</g>
<!-- Node2&#45;&gt;Node4 -->
<g id="edge3" class="edge">
<title>Node2&#45;&gt;Node4</title>
<path fill="none" stroke="midnightblue" d="M66.91,-403.08C59.34,-395.22 48.12,-383.57 38.99,-374.08"/>
<polygon fill="midnightblue" stroke="midnightblue" points="41.38,-371.53 31.93,-366.75 36.34,-376.38 41.38,-371.53"/>
</g>
<!-- Node6 -->
<g id="node6" class="node">
<title>Node6</title>
<g id="a_node6"><a xlink:href="../../da/d3b/SMTPFwd_8hpp.html" target="_top" xlink:title=" ">
<polygon fill="white" stroke="black" points="104,-179.5 104,-198.5 189,-198.5 189,-179.5 104,-179.5"/>
<text text-anchor="middle" x="146.5" y="-186.5" font-family="Helvetica,sans-Serif" font-size="10.00">SMTPFwd.hpp</text>
</a>
</g>
</g>
<!-- Node5&#45;&gt;Node6 -->
<g id="edge5" class="edge">
<title>Node5&#45;&gt;Node6</title>
<path fill="none" stroke="midnightblue" d="M941.94,-409.5C779.78,-400.01 227.51,-364.01 170.5,-311 142.23,-284.71 141.87,-235.46 144.13,-208.61"/>
<polygon fill="midnightblue" stroke="midnightblue" points="147.62,-208.92 145.19,-198.61 140.66,-208.18 147.62,-208.92"/>
</g>
<!-- Node7 -->
<g id="node7" class="node">
<title>Node7</title>
<g id="a_node7"><a xlink:href="../../d4/d93/AuditEntry_8hpp.html" target="_top" xlink:title=" ">
<polygon fill="white" stroke="black" points="917,-347.5 917,-366.5 1056,-366.5 1056,-347.5 917,-347.5"/>
<text text-anchor="middle" x="986.5" y="-354.5" font-family="Helvetica,sans-Serif" font-size="10.00">core/audit/AuditEntry.hpp</text>
</a>
</g>
</g>
<!-- Node5&#45;&gt;Node7 -->
<g id="edge7" class="edge">
<title>Node5&#45;&gt;Node7</title>
<path fill="none" stroke="midnightblue" d="M986.5,-403.08C986.5,-396.01 986.5,-385.86 986.5,-376.99"/>
<polygon fill="midnightblue" stroke="midnightblue" points="990,-376.75 986.5,-366.75 983,-376.75 990,-376.75"/>
</g>
<!-- Node6&#45;&gt;Node3 -->
<g id="edge6" class="edge">
<title>Node6&#45;&gt;Node3</title>
<path fill="none" stroke="midnightblue" d="M150.3,-179.16C157.82,-162.84 176.27,-128.17 203.5,-112 248.37,-85.35 400.52,-73.33 473.21,-69.01"/>
<polygon fill="midnightblue" stroke="midnightblue" points="473.56,-72.5 483.34,-68.43 473.15,-65.51 473.56,-72.5"/>
</g>
<!-- Node7&#45;&gt;Node3 -->
<g id="edge49" class="edge">
<title>Node7&#45;&gt;Node3</title>
<path fill="none" stroke="midnightblue" d="M916.72,-351.98C738.16,-340.96 275.72,-307.57 232.5,-255 210.06,-227.7 217.14,-182.96 325.5,-112 370.5,-82.53 432.92,-72.33 473.02,-68.82"/>
<polygon fill="midnightblue" stroke="midnightblue" points="473.5,-72.29 483.2,-68.03 472.96,-65.31 473.5,-72.29"/>
</g>
<!-- Node8 -->
<g id="node8" class="node">
<title>Node8</title>
<g id="a_node8"><a xlink:href="../../d7/dcf/AuditFwd_8hpp.html" target="_top" xlink:title=" ">
<polygon fill="white" stroke="black" points="1005,-118 1005,-137 1140,-137 1140,-118 1005,-118"/>
<text text-anchor="middle" x="1072.5" y="-125" font-family="Helvetica,sans-Serif" font-size="10.00">core/audit/AuditFwd.hpp</text>
</a>
</g>
</g>
<!-- Node7&#45;&gt;Node8 -->
<g id="edge8" class="edge">
<title>Node7&#45;&gt;Node8</title>
<path fill="none" stroke="midnightblue" d="M988.97,-347.09C992.53,-334.49 999.45,-310.8 1006.5,-291 1025.43,-237.86 1051.52,-176.54 1064.5,-146.7"/>
<polygon fill="midnightblue" stroke="midnightblue" points="1067.85,-147.77 1068.65,-137.2 1061.44,-144.96 1067.85,-147.77"/>
</g>
<!-- Node7&#45;&gt;Node12 -->
<g id="edge13" class="edge">
<title>Node7&#45;&gt;Node12</title>
<path fill="none" stroke="midnightblue" d="M1056.01,-349.79C1107.98,-343.54 1172.84,-331.76 1189.5,-311 1214.96,-279.27 1182.28,-231.29 1161.4,-206.35"/>
<polygon fill="midnightblue" stroke="midnightblue" points="1163.83,-203.81 1154.63,-198.56 1158.54,-208.4 1163.83,-203.81"/>
</g>
<!-- Node13 -->
<g id="node13" class="node">
<title>Node13</title>
<g id="a_node13"><a xlink:href="../../d3/d6f/AuthFwd_8hpp.html" target="_top" xlink:title=" ">
<polygon fill="white" stroke="black" points="858,-118 858,-137 987,-137 987,-118 858,-118"/>
<text text-anchor="middle" x="922.5" y="-125" font-family="Helvetica,sans-Serif" font-size="10.00">core/auth/AuthFwd.hpp</text>
</a>
</g>
</g>
<!-- Node7&#45;&gt;Node13 -->
<g id="edge25" class="edge">
<title>Node7&#45;&gt;Node13</title>
<path fill="none" stroke="midnightblue" d="M983.73,-347.4C980.84,-338.36 976.22,-323.72 972.5,-311 955.1,-251.49 936.18,-180.52 927.44,-147.35"/>
<polygon fill="midnightblue" stroke="midnightblue" points="930.71,-146.05 924.79,-137.27 923.94,-147.83 930.71,-146.05"/>
</g>
<!-- Node18 -->
<g id="node18" class="node">
<title>Node18</title>
<g id="a_node18"><a xlink:title=" ">
<polygon fill="white" stroke="#bfbfbf" points="1287,-112.5 1287,-142.5 1412,-142.5 1412,-112.5 1287,-112.5"/>
<text text-anchor="start" x="1295" y="-130.5" font-family="Helvetica,sans-Serif" font-size="10.00">boost/date_time/posix</text>
<text text-anchor="middle" x="1349.5" y="-119.5" font-family="Helvetica,sans-Serif" font-size="10.00">_time/posix_time.hpp</text>
</a>
</g>
</g>
<!-- Node7&#45;&gt;Node18 -->
<g id="edge48" class="edge">
<title>Node7&#45;&gt;Node18</title>
<path fill="none" stroke="midnightblue" d="M1056.39,-352.08C1155.36,-345.82 1326.49,-332.08 1345.5,-311 1384.89,-267.34 1369.28,-191.09 1357.71,-152.43"/>
<polygon fill="midnightblue" stroke="midnightblue" points="1360.95,-151.07 1354.6,-142.59 1354.27,-153.18 1360.95,-151.07"/>
</g>
<!-- Node19 -->
<g id="node19" class="node">
<title>Node19</title>
<g id="a_node19"><a xlink:href="../../d6/d65/ElapsedTimeCounter_8hpp.html" target="_top" xlink:title=" ">
<polygon fill="white" stroke="black" points="1015,-291.5 1015,-310.5 1180,-310.5 1180,-291.5 1015,-291.5"/>
<text text-anchor="middle" x="1097.5" y="-298.5" font-family="Helvetica,sans-Serif" font-size="10.00">tools/ElapsedTimeCounter.hpp</text>
</a>
</g>
</g>
<!-- Node7&#45;&gt;Node19 -->
<g id="edge26" class="edge">
<title>Node7&#45;&gt;Node19</title>
<path fill="none" stroke="midnightblue" d="M1004.33,-347.32C1022.22,-338.62 1049.98,-325.12 1070.55,-315.11"/>
<polygon fill="midnightblue" stroke="midnightblue" points="1072.25,-318.18 1079.71,-310.65 1069.19,-311.88 1072.25,-318.18"/>
</g>
<!-- Node21 -->
<g id="node21" class="node">
<title>Node21</title>
<g id="a_node21"><a xlink:href="../../df/da2/database_8hpp.html" target="_top" xlink:title=" ">
<polygon fill="white" stroke="black" points="526,-291.5 526,-310.5 651,-310.5 651,-291.5 526,-291.5"/>
<text text-anchor="middle" x="588.5" y="-298.5" font-family="Helvetica,sans-Serif" font-size="10.00">tools/db/database.hpp</text>
</a>
</g>
</g>
<!-- Node7&#45;&gt;Node21 -->
<g id="edge28" class="edge">
<title>Node7&#45;&gt;Node21</title>
<path fill="none" stroke="midnightblue" d="M923.44,-347.44C852.26,-337.79 736.64,-322.1 661.58,-311.92"/>
<polygon fill="midnightblue" stroke="midnightblue" points="661.65,-308.39 651.27,-310.52 660.71,-315.33 661.65,-308.39"/>
</g>
<!-- Node31 -->
<g id="node31" class="node">
<title>Node31</title>
<g id="a_node31"><a xlink:title=" ">
<polygon fill="white" stroke="#bfbfbf" points="1237,-291.5 1237,-310.5 1336,-310.5 1336,-291.5 1237,-291.5"/>
<text text-anchor="middle" x="1286.5" y="-298.5" font-family="Helvetica,sans-Serif" font-size="10.00">odb/callback.hxx</text>
</a>
</g>
</g>
<!-- Node7&#45;&gt;Node31 -->
<g id="edge50" class="edge">
<title>Node7&#45;&gt;Node31</title>
<path fill="none" stroke="midnightblue" d="M1034.04,-347.44C1087.03,-337.9 1172.7,-322.48 1229.32,-312.29"/>
<polygon fill="midnightblue" stroke="midnightblue" points="1229.96,-315.73 1239.19,-310.52 1228.72,-308.84 1229.96,-315.73"/>
</g>
<!-- Node32 -->
<g id="node32" class="node">
<title>Node32</title>
<g id="a_node32"><a xlink:title=" ">
<polygon fill="white" stroke="#bfbfbf" points="840.5,-291.5 840.5,-310.5 920.5,-310.5 920.5,-291.5 840.5,-291.5"/>
<text text-anchor="middle" x="880.5" y="-298.5" font-family="Helvetica,sans-Serif" font-size="10.00">odb/core.hxx</text>
</a>
</g>
</g>
<!-- Node7&#45;&gt;Node32 -->
<g id="edge51" class="edge">
<title>Node7&#45;&gt;Node32</title>
<path fill="none" stroke="midnightblue" d="M969.47,-347.32C952.47,-338.66 926.12,-325.24 906.51,-315.25"/>
<polygon fill="midnightblue" stroke="midnightblue" points="907.99,-312.08 897.49,-310.65 904.81,-318.31 907.99,-312.08"/>
</g>
<!-- Node8&#45;&gt;Node3 -->
<g id="edge11" class="edge">
<title>Node8&#45;&gt;Node3</title>
<path fill="none" stroke="midnightblue" d="M1031.6,-117.95C1020.27,-115.79 1007.94,-113.62 996.5,-112 832,-88.72 634.27,-74.63 551.71,-69.37"/>
<polygon fill="midnightblue" stroke="midnightblue" points="551.73,-65.86 541.53,-68.73 551.29,-72.85 551.73,-65.86"/>
</g>
<!-- Node9 -->
<g id="node9" class="node">
<title>Node9</title>
<g id="a_node9"><a xlink:title=" ">
<polygon fill="white" stroke="#bfbfbf" points="931,-56.5 931,-75.5 984,-75.5 984,-56.5 931,-56.5"/>
<text text-anchor="middle" x="957.5" y="-63.5" font-family="Helvetica,sans-Serif" font-size="10.00">cstddef</text>
</a>
</g>
</g>
<!-- Node8&#45;&gt;Node9 -->
<g id="edge9" class="edge">
<title>Node8&#45;&gt;Node9</title>
<path fill="none" stroke="midnightblue" d="M1056.02,-117.98C1036.89,-108.08 1005.13,-91.64 982.85,-80.12"/>
<polygon fill="midnightblue" stroke="midnightblue" points="984.44,-77 973.95,-75.51 981.22,-83.21 984.44,-77"/>
</g>
<!-- Node10 -->
<g id="node10" class="node">
<title>Node10</title>
<g id="a_node10"><a xlink:title=" ">
<polygon fill="white" stroke="#bfbfbf" points="1037,-56.5 1037,-75.5 1108,-75.5 1108,-56.5 1037,-56.5"/>
<text text-anchor="middle" x="1072.5" y="-63.5" font-family="Helvetica,sans-Serif" font-size="10.00">flagset.hpp</text>
</a>
</g>
</g>
<!-- Node8&#45;&gt;Node10 -->
<g id="edge10" class="edge">
<title>Node8&#45;&gt;Node10</title>
<path fill="none" stroke="midnightblue" d="M1072.5,-117.98C1072.5,-109.58 1072.5,-96.48 1072.5,-85.66"/>
<polygon fill="midnightblue" stroke="midnightblue" points="1076,-85.51 1072.5,-75.51 1069,-85.51 1076,-85.51"/>
</g>
<!-- Node11 -->
<g id="node11" class="node">
<title>Node11</title>
<g id="a_node11"><a xlink:title=" ">
<polygon fill="white" stroke="#bfbfbf" points="699,-56.5 699,-75.5 794,-75.5 794,-56.5 699,-56.5"/>
<text text-anchor="middle" x="746.5" y="-63.5" font-family="Helvetica,sans-Serif" font-size="10.00">odb/lazy&#45;ptr.hxx</text>
</a>
</g>
</g>
<!-- Node8&#45;&gt;Node11 -->
<g id="edge12" class="edge">
<title>Node8&#45;&gt;Node11</title>
<path fill="none" stroke="midnightblue" d="M1028.31,-117.99C1017.88,-116 1006.8,-113.91 996.5,-112 930.78,-99.82 855.25,-86.29 804.57,-77.27"/>
<polygon fill="midnightblue" stroke="midnightblue" points="804.91,-73.78 794.45,-75.48 803.69,-80.67 804.91,-73.78"/>
</g>
<!-- Node12&#45;&gt;Node3 -->
<g id="edge24" class="edge">
<title>Node12&#45;&gt;Node3</title>
<path fill="none" stroke="midnightblue" d="M1075.22,-187.72C1012.94,-185.07 921.33,-175.27 848.5,-143 828.57,-134.17 830.43,-120.83 810.5,-112 724.03,-73.69 611.11,-67.04 552.19,-66.45"/>
<polygon fill="midnightblue" stroke="midnightblue" points="551.86,-62.95 541.84,-66.4 551.83,-69.95 551.86,-62.95"/>
</g>
<!-- Node12&#45;&gt;Node8 -->
<g id="edge14" class="edge">
<title>Node12&#45;&gt;Node8</title>
<path fill="none" stroke="midnightblue" d="M1135.9,-179.48C1124.25,-170.11 1105.31,-154.88 1091.17,-143.51"/>
<polygon fill="midnightblue" stroke="midnightblue" points="1093.07,-140.55 1083.08,-137.01 1088.68,-146 1093.07,-140.55"/>
</g>
<!-- Node12&#45;&gt;Node13 -->
<g id="edge15" class="edge">
<title>Node12&#45;&gt;Node13</title>
<path fill="none" stroke="midnightblue" d="M1114.41,-179.48C1074.9,-168.98 1007.72,-151.14 964.24,-139.59"/>
<polygon fill="midnightblue" stroke="midnightblue" points="965.1,-136.19 954.53,-137.01 963.3,-142.96 965.1,-136.19"/>
</g>
<!-- Node14 -->
<g id="node14" class="node">
<title>Node14</title>
<g id="a_node14"><a xlink:href="../../dd/d9d/IVisitable_8hpp.html" target="_top" xlink:title=" ">
<polygon fill="white" stroke="black" points="1158.5,-118 1158.5,-137 1268.5,-137 1268.5,-118 1158.5,-118"/>
<text text-anchor="middle" x="1213.5" y="-125" font-family="Helvetica,sans-Serif" font-size="10.00">tools/IVisitable.hpp</text>
</a>
</g>
</g>
<!-- Node12&#45;&gt;Node14 -->
<g id="edge19" class="edge">
<title>Node12&#45;&gt;Node14</title>
<path fill="none" stroke="midnightblue" d="M1156.1,-179.48C1166.55,-170.2 1183.47,-155.17 1196.24,-143.83"/>
<polygon fill="midnightblue" stroke="midnightblue" points="1198.77,-146.27 1203.92,-137.01 1194.12,-141.03 1198.77,-146.27"/>
</g>
<!-- Node12&#45;&gt;Node18 -->
<g id="edge23" class="edge">
<title>Node12&#45;&gt;Node18</title>
<path fill="none" stroke="midnightblue" d="M1175.58,-179.48C1205.78,-170.63 1253.8,-156.55 1291.75,-145.43"/>
<polygon fill="midnightblue" stroke="midnightblue" points="1293.05,-148.69 1301.66,-142.52 1291.08,-141.98 1293.05,-148.69"/>
</g>
<!-- Node13&#45;&gt;Node3 -->
<g id="edge17" class="edge">
<title>Node13&#45;&gt;Node3</title>
<path fill="none" stroke="midnightblue" d="M877.86,-117.93C866.66,-115.89 854.65,-113.78 843.5,-112 738.47,-95.23 614.06,-79.39 551.93,-71.76"/>
<polygon fill="midnightblue" stroke="midnightblue" points="552.14,-68.26 541.79,-70.52 551.29,-75.21 552.14,-68.26"/>
</g>
<!-- Node13&#45;&gt;Node9 -->
<g id="edge16" class="edge">
<title>Node13&#45;&gt;Node9</title>
<path fill="none" stroke="midnightblue" d="M927.51,-117.98C932.66,-109.23 940.81,-95.37 947.32,-84.31"/>
<polygon fill="midnightblue" stroke="midnightblue" points="950.44,-85.9 952.49,-75.51 944.41,-82.35 950.44,-85.9"/>
</g>
<!-- Node13&#45;&gt;Node11 -->
<g id="edge18" class="edge">
<title>Node13&#45;&gt;Node11</title>
<path fill="none" stroke="midnightblue" d="M897.28,-117.98C866.83,-107.68 815.45,-90.31 781.26,-78.75"/>
<polygon fill="midnightblue" stroke="midnightblue" points="782.26,-75.4 771.67,-75.51 780.02,-82.03 782.26,-75.4"/>
</g>
<!-- Node14&#45;&gt;Node15 -->
<g id="edge20" class="edge">
<title>Node14&#45;&gt;Node15</title>
<path fill="none" stroke="midnightblue" d="M1236.28,-117.98C1263.55,-107.77 1309.41,-90.61 1340.3,-79.05"/>
<polygon fill="midnightblue" stroke="midnightblue" points="1341.62,-82.29 1349.76,-75.51 1339.17,-75.74 1341.62,-82.29"/>
</g>
<!-- Node17 -->
<g id="node17" class="node">
<title>Node17</title>
<g id="a_node17"><a xlink:title=" ">
<polygon fill="white" stroke="#bfbfbf" points="1187.5,-56.5 1187.5,-75.5 1239.5,-75.5 1239.5,-56.5 1187.5,-56.5"/>
<text text-anchor="middle" x="1213.5" y="-63.5" font-family="Helvetica,sans-Serif" font-size="10.00">cassert</text>
</a>
</g>
</g>
<!-- Node14&#45;&gt;Node17 -->
<g id="edge22" class="edge">
<title>Node14&#45;&gt;Node17</title>
<path fill="none" stroke="midnightblue" d="M1213.5,-117.98C1213.5,-109.58 1213.5,-96.48 1213.5,-85.66"/>
<polygon fill="midnightblue" stroke="midnightblue" points="1217,-85.51 1213.5,-75.51 1210,-85.51 1217,-85.51"/>
</g>
<!-- Node16 -->
<g id="node16" class="node">
<title>Node16</title>
<g id="a_node16"><a xlink:title=" ">
<polygon fill="white" stroke="#bfbfbf" points="1338,-0.5 1338,-19.5 1407,-19.5 1407,-0.5 1338,-0.5"/>
<text text-anchor="middle" x="1372.5" y="-7.5" font-family="Helvetica,sans-Serif" font-size="10.00">type_traits</text>
</a>
</g>
</g>
<!-- Node15&#45;&gt;Node16 -->
<g id="edge21" class="edge">
<title>Node15&#45;&gt;Node16</title>
<path fill="none" stroke="midnightblue" d="M1372.5,-56.08C1372.5,-49.01 1372.5,-38.86 1372.5,-29.99"/>
<polygon fill="midnightblue" stroke="midnightblue" points="1376,-29.75 1372.5,-19.75 1369,-29.75 1376,-29.75"/>
</g>
<!-- Node20 -->
<g id="node20" class="node">
<title>Node20</title>
<g id="a_node20"><a xlink:title=" ">
<polygon fill="white" stroke="#bfbfbf" points="1072.5,-235.5 1072.5,-254.5 1122.5,-254.5 1122.5,-235.5 1072.5,-235.5"/>
<text text-anchor="middle" x="1097.5" y="-242.5" font-family="Helvetica,sans-Serif" font-size="10.00">chrono</text>
</a>
</g>
</g>
<!-- Node19&#45;&gt;Node20 -->
<g id="edge27" class="edge">
<title>Node19&#45;&gt;Node20</title>
<path fill="none" stroke="midnightblue" d="M1097.5,-291.08C1097.5,-284.01 1097.5,-273.86 1097.5,-264.99"/>
<polygon fill="midnightblue" stroke="midnightblue" points="1101,-264.75 1097.5,-254.75 1094,-264.75 1101,-264.75"/>
</g>
<!-- Node22 -->
<g id="node22" class="node">
<title>Node22</title>
<g id="a_node22"><a xlink:href="../../d9/d69/db__fwd_8hpp.html" target="_top" xlink:title=" ">
<polygon fill="white" stroke="black" points="289.5,-179.5 289.5,-198.5 361.5,-198.5 361.5,-179.5 289.5,-179.5"/>
<text text-anchor="middle" x="325.5" y="-186.5" font-family="Helvetica,sans-Serif" font-size="10.00">db_fwd.hpp</text>
</a>
</g>
</g>
<!-- Node21&#45;&gt;Node22 -->
<g id="edge29" class="edge">
<title>Node21&#45;&gt;Node22</title>
<path fill="none" stroke="midnightblue" d="M525.97,-296.3C431.14,-290.05 259.94,-275.99 241.5,-255 222.5,-233.38 257.91,-213.95 288.43,-202.09"/>
<polygon fill="midnightblue" stroke="midnightblue" points="289.93,-205.27 298.1,-198.51 287.5,-198.7 289.93,-205.27"/>
</g>
<!-- Node23 -->
<g id="node23" class="node">
<title>Node23</title>
<g id="a_node23"><a xlink:title=" ">
<polygon fill="white" stroke="#bfbfbf" points="536.5,-235.5 536.5,-254.5 640.5,-254.5 640.5,-235.5 536.5,-235.5"/>
<text text-anchor="middle" x="588.5" y="-242.5" font-family="Helvetica,sans-Serif" font-size="10.00">odb/database.hxx</text>
</a>
</g>
</g>
<!-- Node21&#45;&gt;Node23 -->
<g id="edge31" class="edge">
<title>Node21&#45;&gt;Node23</title>
<path fill="none" stroke="midnightblue" d="M588.5,-291.08C588.5,-284.01 588.5,-273.86 588.5,-264.99"/>
<polygon fill="midnightblue" stroke="midnightblue" points="592,-264.75 588.5,-254.75 585,-264.75 592,-264.75"/>
</g>
<!-- Node24 -->
<g id="node24" class="node">
<title>Node24</title>
<g id="a_node24"><a xlink:title=" ">
<polygon fill="white" stroke="#bfbfbf" points="659,-235.5 659,-254.5 772,-254.5 772,-235.5 659,-235.5"/>
<text text-anchor="middle" x="715.5" y="-242.5" font-family="Helvetica,sans-Serif" font-size="10.00">odb/transaction.hxx</text>
</a>
</g>
</g>
<!-- Node21&#45;&gt;Node24 -->
<g id="edge32" class="edge">
<title>Node21&#45;&gt;Node24</title>
<path fill="none" stroke="midnightblue" d="M608.62,-291.44C629.52,-282.56 662.43,-268.56 686.22,-258.45"/>
<polygon fill="midnightblue" stroke="midnightblue" points="687.64,-261.65 695.47,-254.52 684.9,-255.21 687.64,-261.65"/>
</g>
<!-- Node25 -->
<g id="node25" class="node">
<title>Node25</title>
<g id="a_node25"><a xlink:href="../../d0/dee/DBService_8hpp.html" target="_top" xlink:title=" ">
<polygon fill="white" stroke="black" points="790.5,-235.5 790.5,-254.5 920.5,-254.5 920.5,-235.5 790.5,-235.5"/>
<text text-anchor="middle" x="855.5" y="-242.5" font-family="Helvetica,sans-Serif" font-size="10.00">tools/db/DBService.hpp</text>
</a>
</g>
</g>
<!-- Node21&#45;&gt;Node25 -->
<g id="edge33" class="edge">
<title>Node21&#45;&gt;Node25</title>
<path fill="none" stroke="midnightblue" d="M630.81,-291.44C677.58,-281.98 752.96,-266.74 803.35,-256.55"/>
<polygon fill="midnightblue" stroke="midnightblue" points="804.28,-259.93 813.39,-254.52 802.9,-253.07 804.28,-259.93"/>
</g>
<!-- Node29 -->
<g id="node29" class="node">
<title>Node29</title>
<g id="a_node29"><a xlink:title=" ">
<polygon fill="white" stroke="#bfbfbf" points="250.5,-235.5 250.5,-254.5 362.5,-254.5 362.5,-235.5 250.5,-235.5"/>
<text text-anchor="middle" x="306.5" y="-242.5" font-family="Helvetica,sans-Serif" font-size="10.00">odb/connection.hxx</text>
</a>
</g>
</g>
<!-- Node21&#45;&gt;Node29 -->
<g id="edge46" class="edge">
<title>Node21&#45;&gt;Node29</title>
<path fill="none" stroke="midnightblue" d="M543.82,-291.44C494.21,-281.94 414.14,-266.61 360.91,-256.42"/>
<polygon fill="midnightblue" stroke="midnightblue" points="361.45,-252.96 350.97,-254.52 360.14,-259.83 361.45,-252.96"/>
</g>
<!-- Node30 -->
<g id="node30" class="node">
<title>Node30</title>
<g id="a_node30"><a xlink:title=" ">
<polygon fill="white" stroke="#bfbfbf" points="381,-235.5 381,-254.5 518,-254.5 518,-235.5 381,-235.5"/>
<text text-anchor="middle" x="449.5" y="-242.5" font-family="Helvetica,sans-Serif" font-size="10.00">odb/schema&#45;catalog.hxx</text>
</a>
</g>
</g>
<!-- Node21&#45;&gt;Node30 -->
<g id="edge47" class="edge">
<title>Node21&#45;&gt;Node30</title>
<path fill="none" stroke="midnightblue" d="M566.48,-291.44C543.4,-282.48 506.94,-268.31 480.86,-258.18"/>
<polygon fill="midnightblue" stroke="midnightblue" points="482.01,-254.88 471.42,-254.52 479.48,-261.4 482.01,-254.88"/>
</g>
<!-- Node22&#45;&gt;Node3 -->
<g id="edge30" class="edge">
<title>Node22&#45;&gt;Node3</title>
<path fill="none" stroke="midnightblue" d="M325.03,-179.37C324.67,-163.71 326.29,-130.52 344.5,-112 378.27,-77.66 435.18,-68.64 473.28,-66.72"/>
<polygon fill="midnightblue" stroke="midnightblue" points="473.63,-70.21 483.49,-66.36 473.37,-63.22 473.63,-70.21"/>
</g>
<!-- Node25&#45;&gt;Node12 -->
<g id="edge34" class="edge">
<title>Node25&#45;&gt;Node12</title>
<path fill="none" stroke="midnightblue" d="M901.61,-235.44C952.91,-225.92 1035.77,-210.55 1090.69,-200.36"/>
<polygon fill="midnightblue" stroke="midnightblue" points="1091.41,-203.78 1100.61,-198.52 1090.14,-196.9 1091.41,-203.78"/>
</g>
<!-- Node25&#45;&gt;Node13 -->
<g id="edge35" class="edge">
<title>Node25&#45;&gt;Node13</title>
<path fill="none" stroke="midnightblue" d="M860.54,-235.32C871.5,-216.42 897.7,-171.25 912.28,-146.12"/>
<polygon fill="midnightblue" stroke="midnightblue" points="915.42,-147.69 917.41,-137.28 909.36,-144.18 915.42,-147.69"/>
</g>
<!-- Node25&#45;&gt;Node22 -->
<g id="edge45" class="edge">
<title>Node25&#45;&gt;Node22</title>
<path fill="none" stroke="midnightblue" d="M790.47,-236.11C787.1,-235.73 783.76,-235.36 780.5,-235 631.05,-218.64 453.69,-201.86 371.52,-194.23"/>
<polygon fill="midnightblue" stroke="midnightblue" points="371.79,-190.74 361.51,-193.3 371.14,-197.71 371.79,-190.74"/>
</g>
<!-- Node26 -->
<g id="node26" class="node">
<title>Node26</title>
<g id="a_node26"><a xlink:href="../../d7/d7f/CredentialFwd_8hpp.html" target="_top" xlink:title=" ">
<polygon fill="white" stroke="black" points="353.5,-112.5 353.5,-142.5 501.5,-142.5 501.5,-112.5 353.5,-112.5"/>
<text text-anchor="start" x="361.5" y="-130.5" font-family="Helvetica,sans-Serif" font-size="10.00">core/credentials/Credential</text>
<text text-anchor="middle" x="427.5" y="-119.5" font-family="Helvetica,sans-Serif" font-size="10.00">Fwd.hpp</text>
</a>
</g>
</g>
<!-- Node25&#45;&gt;Node26 -->
<g id="edge36" class="edge">
<title>Node25&#45;&gt;Node26</title>
<path fill="none" stroke="midnightblue" d="M823.68,-235.41C753.02,-216.35 582,-170.19 489.45,-145.22"/>
<polygon fill="midnightblue" stroke="midnightblue" points="490.23,-141.8 479.66,-142.58 488.4,-148.56 490.23,-141.8"/>
</g>
<!-- Node27 -->
<g id="node27" class="node">
<title>Node27</title>
<g id="a_node27"><a xlink:href="../../d2/d0e/UpdateFwd_8hpp.html" target="_top" xlink:title=" ">
<polygon fill="white" stroke="black" points="519.5,-118 519.5,-137 673.5,-137 673.5,-118 519.5,-118"/>
<text text-anchor="middle" x="596.5" y="-125" font-family="Helvetica,sans-Serif" font-size="10.00">core/update/UpdateFwd.hpp</text>
</a>
</g>
</g>
<!-- Node25&#45;&gt;Node27 -->
<g id="edge39" class="edge">
<title>Node25&#45;&gt;Node27</title>
<path fill="none" stroke="midnightblue" d="M836.03,-235.32C790.74,-215.12 678.1,-164.89 625.03,-141.22"/>
<polygon fill="midnightblue" stroke="midnightblue" points="626.4,-138 615.84,-137.12 623.55,-144.39 626.4,-138"/>
</g>
<!-- Node28 -->
<g id="node28" class="node">
<title>Node28</title>
<g id="a_node28"><a xlink:href="../../d8/d97/ToolsFwd_8hpp.html" target="_top" xlink:title=" ">
<polygon fill="white" stroke="black" points="691.5,-118 691.5,-137 801.5,-137 801.5,-118 691.5,-118"/>
<text text-anchor="middle" x="746.5" y="-125" font-family="Helvetica,sans-Serif" font-size="10.00">tools/ToolsFwd.hpp</text>
</a>
</g>
</g>
<!-- Node25&#45;&gt;Node28 -->
<g id="edge42" class="edge">
<title>Node25&#45;&gt;Node28</title>
<path fill="none" stroke="midnightblue" d="M847.31,-235.32C829.16,-216.09 785.33,-169.64 761.89,-144.81"/>
<polygon fill="midnightblue" stroke="midnightblue" points="764.2,-142.15 754.79,-137.28 759.11,-146.96 764.2,-142.15"/>
</g>
<!-- Node26&#45;&gt;Node3 -->
<g id="edge37" class="edge">
<title>Node26&#45;&gt;Node3</title>
<path fill="none" stroke="midnightblue" d="M447.64,-112.4C460.89,-103.13 478.18,-91.03 491.58,-81.65"/>
<polygon fill="midnightblue" stroke="midnightblue" points="493.95,-84.26 500.13,-75.66 489.93,-78.53 493.95,-84.26"/>
</g>
<!-- Node26&#45;&gt;Node11 -->
<g id="edge38" class="edge">
<title>Node26&#45;&gt;Node11</title>
<path fill="none" stroke="midnightblue" d="M501.89,-112.62C559.54,-101.87 638.16,-87.21 690.55,-77.44"/>
<polygon fill="midnightblue" stroke="midnightblue" points="691.47,-80.82 700.66,-75.55 690.19,-73.94 691.47,-80.82"/>
</g>
<!-- Node27&#45;&gt;Node3 -->
<g id="edge40" class="edge">
<title>Node27&#45;&gt;Node3</title>
<path fill="none" stroke="midnightblue" d="M584.46,-117.98C570.99,-108.43 548.93,-92.81 532.78,-81.37"/>
<polygon fill="midnightblue" stroke="midnightblue" points="534.7,-78.43 524.51,-75.51 530.65,-84.15 534.7,-78.43"/>
</g>
<!-- Node27&#45;&gt;Node11 -->
<g id="edge41" class="edge">
<title>Node27&#45;&gt;Node11</title>
<path fill="none" stroke="midnightblue" d="M617.99,-117.98C643.61,-107.81 686.61,-90.76 715.74,-79.2"/>
<polygon fill="midnightblue" stroke="midnightblue" points="717.04,-82.45 725.05,-75.51 714.46,-75.94 717.04,-82.45"/>
</g>
<!-- Node28&#45;&gt;Node3 -->
<g id="edge43" class="edge">
<title>Node28&#45;&gt;Node3</title>
<path fill="none" stroke="midnightblue" d="M712.97,-117.98C670.21,-107.1 596.4,-88.33 551.26,-76.86"/>
<polygon fill="midnightblue" stroke="midnightblue" points="552.09,-73.46 541.54,-74.38 550.37,-80.24 552.09,-73.46"/>
</g>
<!-- Node28&#45;&gt;Node11 -->
<g id="edge44" class="edge">
<title>Node28&#45;&gt;Node11</title>
<path fill="none" stroke="midnightblue" d="M746.5,-117.98C746.5,-109.58 746.5,-96.48 746.5,-85.66"/>
<polygon fill="midnightblue" stroke="midnightblue" points="750,-85.51 746.5,-75.51 743,-85.51 750,-85.51"/>
</g>
</g>
</svg>
