<?xml version="1.0" encoding="UTF-8" standalone="no"?>
<!DOCTYPE svg PUBLIC "-//W3C//DTD SVG 1.1//EN"
 "http://www.w3.org/Graphics/SVG/1.1/DTD/svg11.dtd">
<!-- Generated by graphviz version 2.43.0 (0)
 -->
<!-- Title: src/tools/GenGuid.h Pages: 1 -->
<!--zoomable 95 -->
<svg id="main" version="1.1" xmlns="http://www.w3.org/2000/svg" xmlns:xlink="http://www.w3.org/1999/xlink" xml:space="preserve" onload="init(evt)">
<style type="text/css"><![CDATA[
.edge:hover path { stroke: red; }
.edge:hover polygon { stroke: red; fill: red; }
]]></style>
<script type="text/javascript"><![CDATA[
var edges = document.getElementsByTagName('g');
if (edges && edges.length) {
  for (var i=0;i<edges.length;i++) {
    if (edges[i].id.substr(0,4)=='edge') {
      edges[i].setAttribute('class','edge');
    }
  }
}
]]></script>
        <defs>
                <circle id="rim" cx="0" cy="0" r="7"/>
                <circle id="rim2" cx="0" cy="0" r="3.5"/>
                <g id="zoomPlus">
                        <use xlink:href="#rim" fill="#404040">
                                <set attributeName="fill" to="#808080" begin="zoomplus.mouseover" end="zoomplus.mouseout"/>
                        </use>
                        <path d="M-4,0h8M0,-4v8" fill="none" stroke="white" stroke-width="1.5" pointer-events="none"/>
                </g>
                <g id="zoomMin">
                        <use xlink:href="#rim" fill="#404040">
                                <set attributeName="fill" to="#808080" begin="zoomminus.mouseover" end="zoomminus.mouseout"/>
                        </use>
                        <path d="M-4,0h8" fill="none" stroke="white" stroke-width="1.5" pointer-events="none"/>
                </g>
                <g id="dirArrow">
                        <path fill="none" stroke="white" stroke-width="1.5" d="M0,-3.0v7 M-2.5,-0.5L0,-3.0L2.5,-0.5"/>
                </g>
               <g id="resetDef">
                       <use xlink:href="#rim2" fill="#404040">
                               <set attributeName="fill" to="#808080" begin="reset.mouseover" end="reset.mouseout"/>
                       </use>
               </g>
        </defs>

<script type="text/javascript">
var viewWidth = 1379;
var viewHeight = 95;
var sectionId = 'dynsection-1';
</script>
<script xlink:href="../../svgpan.js"/>
<svg id="graph" class="graph">
<g id="viewport">
<title>src/tools/GenGuid.h</title>
<polygon fill="white" stroke="transparent" points="-4,4 -4,-91 1374.5,-91 1374.5,4 -4,4"/>
<!-- Node1 -->
<g id="node1" class="node">
<title>Node1</title>
<g id="a_node1"><a xlink:title=" ">
<polygon fill="#bfbfbf" stroke="black" points="617,-67.5 617,-86.5 729,-86.5 729,-67.5 617,-67.5"/>
<text text-anchor="middle" x="673" y="-74.5" font-family="Helvetica,sans-Serif" font-size="10.00">src/tools/GenGuid.h</text>
</a>
</g>
</g>
<!-- Node2 -->
<g id="node2" class="node">
<title>Node2</title>
<g id="a_node2"><a xlink:href="../../d3/d1e/CoreAPI_8cpp.html" target="_top" xlink:title=" ">
<polygon fill="white" stroke="black" points="0,-6 0,-25 116,-25 116,-6 0,-6"/>
<text text-anchor="middle" x="58" y="-13" font-family="Helvetica,sans-Serif" font-size="10.00">src/core/CoreAPI.cpp</text>
</a>
</g>
</g>
<!-- Node1&#45;&gt;Node2 -->
<g id="edge1" class="edge">
<title>Node1&#45;&gt;Node2</title>
<path fill="none" stroke="midnightblue" d="M606.42,-73.35C502.96,-68.6 297.53,-56.64 125,-31 114.64,-29.46 103.49,-27.27 93.31,-25.05"/>
<polygon fill="midnightblue" stroke="midnightblue" points="606.56,-76.86 616.71,-73.82 606.88,-69.87 606.56,-76.86"/>
</g>
<!-- Node3 -->
<g id="node3" class="node">
<title>Node3</title>
<g id="a_node3"><a xlink:href="../../dd/d24/kernel_8cpp.html" target="_top" xlink:title=" ">
<polygon fill="white" stroke="black" points="134,-6 134,-25 242,-25 242,-6 134,-6"/>
<text text-anchor="middle" x="188" y="-13" font-family="Helvetica,sans-Serif" font-size="10.00">src/core/kernel.cpp</text>
</a>
</g>
</g>
<!-- Node1&#45;&gt;Node3 -->
<g id="edge2" class="edge">
<title>Node1&#45;&gt;Node3</title>
<path fill="none" stroke="midnightblue" d="M606.64,-71.4C523.23,-65.05 375.86,-51.95 251,-31 241.37,-29.38 231.01,-27.19 221.53,-25"/>
<polygon fill="midnightblue" stroke="midnightblue" points="606.5,-74.9 616.73,-72.16 607.02,-67.92 606.5,-74.9"/>
</g>
<!-- Node4 -->
<g id="node4" class="node">
<title>Node4</title>
<g id="a_node4"><a xlink:href="../../d3/d71/Task_8cpp.html" target="_top" xlink:title=" ">
<polygon fill="white" stroke="black" points="260.5,-6 260.5,-25 389.5,-25 389.5,-6 260.5,-6"/>
<text text-anchor="middle" x="325" y="-13" font-family="Helvetica,sans-Serif" font-size="10.00">src/core/tasks/Task.cpp</text>
</a>
</g>
</g>
<!-- Node1&#45;&gt;Node4 -->
<g id="edge3" class="edge">
<title>Node1&#45;&gt;Node4</title>
<path fill="none" stroke="midnightblue" d="M608.01,-65.9C552.43,-57.13 470.35,-43.85 399,-31 388.69,-29.14 377.6,-27.03 367.22,-25.01"/>
<polygon fill="midnightblue" stroke="midnightblue" points="607.65,-69.39 618.07,-67.49 608.74,-62.47 607.65,-69.39"/>
</g>
<!-- Node5 -->
<g id="node5" class="node">
<title>Node5</title>
<g id="a_node5"><a xlink:href="../../de/dd9/UpdateService_8cpp.html" target="_top" xlink:title=" ">
<polygon fill="white" stroke="black" points="408,-6 408,-25 594,-25 594,-6 408,-6"/>
<text text-anchor="middle" x="501" y="-13" font-family="Helvetica,sans-Serif" font-size="10.00">src/core/update/UpdateService.cpp</text>
</a>
</g>
</g>
<!-- Node1&#45;&gt;Node5 -->
<g id="edge4" class="edge">
<title>Node1&#45;&gt;Node5</title>
<path fill="none" stroke="midnightblue" d="M638.55,-64.08C605.12,-52.52 555.21,-35.25 525.6,-25.01"/>
<polygon fill="midnightblue" stroke="midnightblue" points="637.76,-67.51 648.36,-67.48 640.05,-60.9 637.76,-67.51"/>
</g>
<!-- Node6 -->
<g id="node6" class="node">
<title>Node6</title>
<g id="a_node6"><a xlink:href="../../d7/d86/APIAuth_8cpp.html" target="_top" xlink:title=" ">
<polygon fill="white" stroke="black" points="612,-0.5 612,-30.5 734,-30.5 734,-0.5 612,-0.5"/>
<text text-anchor="start" x="620" y="-18.5" font-family="Helvetica,sans-Serif" font-size="10.00">src/modules/websock</text>
<text text-anchor="middle" x="673" y="-7.5" font-family="Helvetica,sans-Serif" font-size="10.00">&#45;api/api/APIAuth.cpp</text>
</a>
</g>
</g>
<!-- Node1&#45;&gt;Node6 -->
<g id="edge5" class="edge">
<title>Node1&#45;&gt;Node6</title>
<path fill="none" stroke="midnightblue" d="M673,-57.23C673,-48.59 673,-38.5 673,-30.52"/>
<polygon fill="midnightblue" stroke="midnightblue" points="669.5,-57.48 673,-67.48 676.5,-57.48 669.5,-57.48"/>
</g>
<!-- Node7 -->
<g id="node7" class="node">
<title>Node7</title>
<g id="a_node7"><a xlink:href="../../d9/d8d/APISession_8cpp.html" target="_top" xlink:title=" ">
<polygon fill="white" stroke="black" points="752,-0.5 752,-30.5 882,-30.5 882,-0.5 752,-0.5"/>
<text text-anchor="start" x="760" y="-18.5" font-family="Helvetica,sans-Serif" font-size="10.00">src/modules/websock</text>
<text text-anchor="middle" x="817" y="-7.5" font-family="Helvetica,sans-Serif" font-size="10.00">&#45;api/api/APISession.cpp</text>
</a>
</g>
</g>
<!-- Node1&#45;&gt;Node7 -->
<g id="edge6" class="edge">
<title>Node1&#45;&gt;Node7</title>
<path fill="none" stroke="midnightblue" d="M703.03,-63.59C726.38,-53.94 758.78,-40.56 783.06,-30.52"/>
<polygon fill="midnightblue" stroke="midnightblue" points="701.54,-60.42 693.63,-67.48 704.21,-66.89 701.54,-60.42"/>
</g>
<!-- Node8 -->
<g id="node8" class="node">
<title>Node8</title>
<g id="a_node8"><a xlink:href="../../d6/dfd/DatabaseLogSink_8cpp.html" target="_top" xlink:title=" ">
<polygon fill="white" stroke="black" points="900,-6 900,-25 1066,-25 1066,-6 900,-6"/>
<text text-anchor="middle" x="983" y="-13" font-family="Helvetica,sans-Serif" font-size="10.00">src/tools/DatabaseLogSink.cpp</text>
</a>
</g>
</g>
<!-- Node1&#45;&gt;Node8 -->
<g id="edge7" class="edge">
<title>Node1&#45;&gt;Node8</title>
<path fill="none" stroke="midnightblue" d="M727.47,-65.55C787.53,-54.02 883,-35.69 938.67,-25.01"/>
<polygon fill="midnightblue" stroke="midnightblue" points="726.58,-62.15 717.42,-67.48 727.9,-69.03 726.58,-62.15"/>
</g>
<!-- Node9 -->
<g id="node9" class="node">
<title>Node9</title>
<g id="a_node9"><a xlink:href="../../d7/ded/Savepoint_8cpp.html" target="_top" xlink:title=" ">
<polygon fill="white" stroke="black" points="1084.5,-6 1084.5,-25 1229.5,-25 1229.5,-6 1084.5,-6"/>
<text text-anchor="middle" x="1157" y="-13" font-family="Helvetica,sans-Serif" font-size="10.00">src/tools/db/Savepoint.cpp</text>
</a>
</g>
</g>
<!-- Node1&#45;&gt;Node9 -->
<g id="edge8" class="edge">
<title>Node1&#45;&gt;Node9</title>
<path fill="none" stroke="midnightblue" d="M739.47,-69.87C819.32,-62.19 957.26,-47.98 1075,-31 1086.88,-29.29 1099.67,-27.16 1111.54,-25.07"/>
<polygon fill="midnightblue" stroke="midnightblue" points="738.69,-66.42 729.07,-70.86 739.36,-73.39 738.69,-66.42"/>
</g>
<!-- Node10 -->
<g id="node10" class="node">
<title>Node10</title>
<g id="a_node10"><a xlink:href="../../de/d5c/GenGuid_8cpp.html" target="_top" xlink:title=" ">
<polygon fill="white" stroke="black" points="1247.5,-6 1247.5,-25 1370.5,-25 1370.5,-6 1247.5,-6"/>
<text text-anchor="middle" x="1309" y="-13" font-family="Helvetica,sans-Serif" font-size="10.00">src/tools/GenGuid.cpp</text>
</a>
</g>
</g>
<!-- Node1&#45;&gt;Node10 -->
<g id="edge9" class="edge">
<title>Node1&#45;&gt;Node10</title>
<path fill="none" stroke="midnightblue" d="M739.32,-73.42C845.33,-68.68 1059.33,-56.65 1239,-31 1249.81,-29.46 1261.46,-27.26 1272.1,-25.04"/>
<polygon fill="midnightblue" stroke="midnightblue" points="738.93,-69.93 729.09,-73.86 739.23,-76.92 738.93,-69.93"/>
</g>
</g>
</svg>
        <g id="navigator" transform="translate(0 0)" fill="#404254">
                <rect fill="#f2f5e9" fill-opacity="0.5" stroke="#606060" stroke-width=".5" x="0" y="0" width="60" height="60"/>
                <use id="zoomplus" xlink:href="#zoomPlus" x="17" y="9" onmousedown="handleZoom(evt,'in')"/>
                <use id="zoomminus" xlink:href="#zoomMin" x="42" y="9" onmousedown="handleZoom(evt,'out')"/>
                <use id="reset" xlink:href="#resetDef" x="30" y="36" onmousedown="handleReset()"/>
                <g id="arrowUp" xlink:href="#dirArrow" transform="translate(30 24)" onmousedown="handlePan(0,-1)">
                  <use xlink:href="#rim" fill="#404040">
                        <set attributeName="fill" to="#808080" begin="arrowUp.mouseover" end="arrowUp.mouseout"/>
                  </use>
                  <path fill="none" stroke="white" stroke-width="1.5" d="M0,-3.0v7 M-2.5,-0.5L0,-3.0L2.5,-0.5"/>
                </g>
                <g id="arrowRight" xlink:href="#dirArrow" transform="rotate(90) translate(36 -43)" onmousedown="handlePan(1,0)">
                  <use xlink:href="#rim" fill="#404040">
                        <set attributeName="fill" to="#808080" begin="arrowRight.mouseover" end="arrowRight.mouseout"/>
                  </use>
                  <path fill="none" stroke="white" stroke-width="1.5" d="M0,-3.0v7 M-2.5,-0.5L0,-3.0L2.5,-0.5"/>
                </g>
                <g id="arrowDown" xlink:href="#dirArrow" transform="rotate(180) translate(-30 -48)" onmousedown="handlePan(0,1)">
                  <use xlink:href="#rim" fill="#404040">
                        <set attributeName="fill" to="#808080" begin="arrowDown.mouseover" end="arrowDown.mouseout"/>
                  </use>
                  <path fill="none" stroke="white" stroke-width="1.5" d="M0,-3.0v7 M-2.5,-0.5L0,-3.0L2.5,-0.5"/>
                </g>
                <g id="arrowLeft" xlink:href="#dirArrow" transform="rotate(270) translate(-36 17)" onmousedown="handlePan(-1,0)">
                  <use xlink:href="#rim" fill="#404040">
                        <set attributeName="fill" to="#808080" begin="arrowLeft.mouseover" end="arrowLeft.mouseout"/>
                  </use>
                  <path fill="none" stroke="white" stroke-width="1.5" d="M0,-3.0v7 M-2.5,-0.5L0,-3.0L2.5,-0.5"/>
                </g>
        </g>
        <svg viewBox="0 0 15 15" width="100%" height="30px" preserveAspectRatio="xMaxYMin meet">
         <g id="arrow_out" transform="scale(0.3 0.3)">
          <a xlink:href="GenGuid_8h__dep__incl_org.svg" target="_base">
           <rect id="button" ry="5" rx="5" y="6" x="6" height="38" width="38"
                fill="#f2f5e9" fill-opacity="0.5" stroke="#606060" stroke-width="1.0"/>
           <path id="arrow"
             d="M 11.500037,31.436501 C 11.940474,20.09759 22.043105,11.32322 32.158766,21.979434 L 37.068811,17.246167 C 37.068811,17.246167 37.088388,32 37.088388,32 L 22.160133,31.978069 C 22.160133,31.978069 26.997745,27.140456 26.997745,27.140456 C 18.528582,18.264221 13.291696,25.230495 11.500037,31.436501 z"
             style="fill:#404040;"/>
          </a>
         </g>
        </svg>
</svg>
