<?xml version="1.0" encoding="UTF-8" standalone="no"?>
<!DOCTYPE svg PUBLIC "-//W3C//DTD SVG 1.1//EN"
 "http://www.w3.org/Graphics/SVG/1.1/DTD/svg11.dtd">
<!-- Generated by graphviz version 2.43.0 (0)
 -->
<!-- Title: src/tools/ScheduleMapping.hpp Pages: 1 -->
<svg width="1705pt" height="296pt"
 viewBox="0.00 0.00 1705.00 296.00" xmlns="http://www.w3.org/2000/svg" xmlns:xlink="http://www.w3.org/1999/xlink">
<g id="graph0" class="graph" transform="scale(1 1) rotate(0) translate(4 292)">
<title>src/tools/ScheduleMapping.hpp</title>
<polygon fill="white" stroke="transparent" points="-4,4 -4,-292 1701,-292 1701,4 -4,4"/>
<!-- Node1 -->
<g id="node1" class="node">
<title>Node1</title>
<g id="a_node1"><a xlink:title=" ">
<polygon fill="#bfbfbf" stroke="black" points="971,-268.5 971,-287.5 1139,-287.5 1139,-268.5 971,-268.5"/>
<text text-anchor="middle" x="1055" y="-275.5" font-family="Helvetica,sans-Serif" font-size="10.00">src/tools/ScheduleMapping.hpp</text>
</a>
</g>
</g>
<!-- Node2 -->
<g id="node2" class="node">
<title>Node2</title>
<g id="a_node2"><a xlink:href="../../dc/da8/UserSecurityContext_8cpp.html" target="_top" xlink:title=" ">
<polygon fill="white" stroke="black" points="164.5,-207 164.5,-226 343.5,-226 343.5,-207 164.5,-207"/>
<text text-anchor="middle" x="254" y="-214" font-family="Helvetica,sans-Serif" font-size="10.00">src/core/UserSecurityContext.cpp</text>
</a>
</g>
</g>
<!-- Node1&#45;&gt;Node2 -->
<g id="edge1" class="edge">
<title>Node1&#45;&gt;Node2</title>
<path fill="none" stroke="midnightblue" d="M960.49,-273.39C825.49,-267.67 569.77,-254.78 353,-232 337.88,-230.41 321.54,-228.21 306.56,-226.01"/>
<polygon fill="midnightblue" stroke="midnightblue" points="960.66,-276.9 970.8,-273.82 960.95,-269.9 960.66,-276.9"/>
</g>
<!-- Node3 -->
<g id="node3" class="node">
<title>Node3</title>
<g id="a_node3"><a xlink:href="../../df/d5d/FileAuthSourceMapper_8hpp.html" target="_top" xlink:title=" ">
<polygon fill="white" stroke="black" points="362,-201.5 362,-231.5 530,-231.5 530,-201.5 362,-201.5"/>
<text text-anchor="start" x="370" y="-219.5" font-family="Helvetica,sans-Serif" font-size="10.00">src/modules/auth/auth</text>
<text text-anchor="middle" x="446" y="-208.5" font-family="Helvetica,sans-Serif" font-size="10.00">&#45;file/FileAuthSourceMapper.hpp</text>
</a>
</g>
</g>
<!-- Node1&#45;&gt;Node3 -->
<g id="edge2" class="edge">
<title>Node1&#45;&gt;Node3</title>
<path fill="none" stroke="midnightblue" d="M960.87,-267.8C843.07,-256.29 643.09,-236.76 530.15,-225.72"/>
<polygon fill="midnightblue" stroke="midnightblue" points="960.67,-271.3 970.96,-268.79 961.35,-264.33 960.67,-271.3"/>
</g>
<!-- Node12 -->
<g id="node12" class="node">
<title>Node12</title>
<g id="a_node12"><a xlink:href="../../d9/d58/Schedule_8hpp.html" target="_top" xlink:title=" ">
<polygon fill="white" stroke="black" points="910,-207 910,-226 1036,-226 1036,-207 910,-207"/>
<text text-anchor="middle" x="973" y="-214" font-family="Helvetica,sans-Serif" font-size="10.00">src/tools/Schedule.hpp</text>
</a>
</g>
</g>
<!-- Node1&#45;&gt;Node12 -->
<g id="edge12" class="edge">
<title>Node1&#45;&gt;Node12</title>
<path fill="none" stroke="midnightblue" d="M1034.73,-262.29C1019,-250.88 997.75,-235.46 984.73,-226.01"/>
<polygon fill="midnightblue" stroke="midnightblue" points="1033.1,-265.43 1043.25,-268.48 1037.21,-259.77 1033.1,-265.43"/>
</g>
<!-- Node19 -->
<g id="node19" class="node">
<title>Node19</title>
<g id="a_node19"><a xlink:href="../../d7/d01/ScheduleMapping_8cpp.html" target="_top" xlink:title=" ">
<polygon fill="white" stroke="black" points="1054.5,-207 1054.5,-226 1221.5,-226 1221.5,-207 1054.5,-207"/>
<text text-anchor="middle" x="1138" y="-214" font-family="Helvetica,sans-Serif" font-size="10.00">src/tools/ScheduleMapping.cpp</text>
</a>
</g>
</g>
<!-- Node1&#45;&gt;Node19 -->
<g id="edge20" class="edge">
<title>Node1&#45;&gt;Node19</title>
<path fill="none" stroke="midnightblue" d="M1075.07,-262.61C1091.03,-251.17 1112.83,-235.55 1126.13,-226.01"/>
<polygon fill="midnightblue" stroke="midnightblue" points="1072.98,-259.8 1066.89,-268.48 1077.06,-265.49 1072.98,-259.8"/>
</g>
<!-- Node20 -->
<g id="node20" class="node">
<title>Node20</title>
<g id="a_node20"><a xlink:href="../../d4/ded/ScheduleMappingSerializer_8cpp.html" target="_top" xlink:title=" ">
<polygon fill="white" stroke="black" points="1239.5,-201.5 1239.5,-231.5 1410.5,-231.5 1410.5,-201.5 1239.5,-201.5"/>
<text text-anchor="start" x="1247.5" y="-219.5" font-family="Helvetica,sans-Serif" font-size="10.00">src/tools/serializers</text>
<text text-anchor="middle" x="1325" y="-208.5" font-family="Helvetica,sans-Serif" font-size="10.00">/ScheduleMappingSerializer.cpp</text>
</a>
</g>
</g>
<!-- Node1&#45;&gt;Node20 -->
<g id="edge21" class="edge">
<title>Node1&#45;&gt;Node20</title>
<path fill="none" stroke="midnightblue" d="M1103.59,-266.29C1147.72,-256.57 1213.09,-242.16 1261.37,-231.52"/>
<polygon fill="midnightblue" stroke="midnightblue" points="1102.7,-262.9 1093.68,-268.48 1104.2,-269.74 1102.7,-262.9"/>
</g>
<!-- Node21 -->
<g id="node21" class="node">
<title>Node21</title>
<g id="a_node21"><a xlink:href="../../dc/db6/ScheduleSerializer_8cpp.html" target="_top" xlink:title=" ">
<polygon fill="white" stroke="black" points="1428.5,-201.5 1428.5,-231.5 1557.5,-231.5 1557.5,-201.5 1428.5,-201.5"/>
<text text-anchor="start" x="1436.5" y="-219.5" font-family="Helvetica,sans-Serif" font-size="10.00">src/tools/serializers</text>
<text text-anchor="middle" x="1493" y="-208.5" font-family="Helvetica,sans-Serif" font-size="10.00">/ScheduleSerializer.cpp</text>
</a>
</g>
</g>
<!-- Node1&#45;&gt;Node21 -->
<g id="edge22" class="edge">
<title>Node1&#45;&gt;Node21</title>
<path fill="none" stroke="midnightblue" d="M1148.45,-267.39C1222.35,-259.33 1328.03,-246.78 1420,-232 1422.68,-231.57 1425.41,-231.11 1428.17,-230.63"/>
<polygon fill="midnightblue" stroke="midnightblue" points="1147.8,-263.94 1138.24,-268.5 1148.56,-270.9 1147.8,-263.94"/>
</g>
<!-- Node4 -->
<g id="node4" class="node">
<title>Node4</title>
<g id="a_node4"><a xlink:href="../../de/df9/AuthFileInstance_8hpp.html" target="_top" xlink:title=" ">
<polygon fill="white" stroke="black" points="98,-134.5 98,-164.5 238,-164.5 238,-134.5 98,-134.5"/>
<text text-anchor="start" x="106" y="-152.5" font-family="Helvetica,sans-Serif" font-size="10.00">src/modules/auth/auth</text>
<text text-anchor="middle" x="168" y="-141.5" font-family="Helvetica,sans-Serif" font-size="10.00">&#45;file/AuthFileInstance.hpp</text>
</a>
</g>
</g>
<!-- Node3&#45;&gt;Node4 -->
<g id="edge3" class="edge">
<title>Node3&#45;&gt;Node4</title>
<path fill="none" stroke="midnightblue" d="M376.22,-199.19C330.7,-188.54 271.86,-174.78 228.35,-164.61"/>
<polygon fill="midnightblue" stroke="midnightblue" points="375.49,-202.61 386.02,-201.48 377.08,-195.79 375.49,-202.61"/>
</g>
<!-- Node5 -->
<g id="node5" class="node">
<title>Node5</title>
<g id="a_node5"><a xlink:href="../../da/d9b/AuthFileInstance_8cpp.html" target="_top" xlink:title=" ">
<polygon fill="white" stroke="black" points="0,-67.5 0,-97.5 140,-97.5 140,-67.5 0,-67.5"/>
<text text-anchor="start" x="8" y="-85.5" font-family="Helvetica,sans-Serif" font-size="10.00">src/modules/auth/auth</text>
<text text-anchor="middle" x="70" y="-74.5" font-family="Helvetica,sans-Serif" font-size="10.00">&#45;file/AuthFileInstance.cpp</text>
</a>
</g>
</g>
<!-- Node3&#45;&gt;Node5 -->
<g id="edge8" class="edge">
<title>Node3&#45;&gt;Node5</title>
<path fill="none" stroke="midnightblue" d="M352.31,-201.04C352.2,-201.03 352.1,-201.01 352,-201 293.63,-192.5 132.61,-204.73 89,-165 70.21,-147.88 68.23,-116.08 68.86,-97.67"/>
<polygon fill="midnightblue" stroke="midnightblue" points="351.56,-204.47 361.96,-202.46 352.58,-197.55 351.56,-204.47"/>
</g>
<!-- Node9 -->
<g id="node9" class="node">
<title>Node9</title>
<g id="a_node9"><a xlink:href="../../d3/dc5/FileAuthSourceMapper_8cpp.html" target="_top" xlink:title=" ">
<polygon fill="white" stroke="black" points="538.5,-134.5 538.5,-164.5 705.5,-164.5 705.5,-134.5 538.5,-134.5"/>
<text text-anchor="start" x="546.5" y="-152.5" font-family="Helvetica,sans-Serif" font-size="10.00">src/modules/auth/auth</text>
<text text-anchor="middle" x="622" y="-141.5" font-family="Helvetica,sans-Serif" font-size="10.00">&#45;file/FileAuthSourceMapper.cpp</text>
</a>
</g>
</g>
<!-- Node3&#45;&gt;Node9 -->
<g id="edge9" class="edge">
<title>Node3&#45;&gt;Node9</title>
<path fill="none" stroke="midnightblue" d="M493.88,-197.82C522.17,-187.37 557.49,-174.32 583.89,-164.58"/>
<polygon fill="midnightblue" stroke="midnightblue" points="492.36,-194.65 484.19,-201.4 494.78,-201.21 492.36,-194.65"/>
</g>
<!-- Node10 -->
<g id="node10" class="node">
<title>Node10</title>
<g id="a_node10"><a xlink:href="../../d5/d58/AuthFile_8cpp.html" target="_top" xlink:title=" ">
<polygon fill="white" stroke="black" points="256,-140 256,-159 354,-159 354,-140 256,-140"/>
<text text-anchor="middle" x="305" y="-147" font-family="Helvetica,sans-Serif" font-size="10.00">test/AuthFile.cpp</text>
</a>
</g>
</g>
<!-- Node3&#45;&gt;Node10 -->
<g id="edge10" class="edge">
<title>Node3&#45;&gt;Node10</title>
<path fill="none" stroke="midnightblue" d="M406.15,-197.13C379.02,-184.62 344.35,-168.64 323.45,-159.01"/>
<polygon fill="midnightblue" stroke="midnightblue" points="404.86,-200.39 415.41,-201.4 407.79,-194.03 404.86,-200.39"/>
</g>
<!-- Node11 -->
<g id="node11" class="node">
<title>Node11</title>
<g id="a_node11"><a xlink:href="../../d9/d75/test_2AuthSourceBuilder_8cpp.html" target="_top" xlink:title=" ">
<polygon fill="white" stroke="black" points="372,-140 372,-159 520,-159 520,-140 372,-140"/>
<text text-anchor="middle" x="446" y="-147" font-family="Helvetica,sans-Serif" font-size="10.00">test/AuthSourceBuilder.cpp</text>
</a>
</g>
</g>
<!-- Node3&#45;&gt;Node11 -->
<g id="edge11" class="edge">
<title>Node3&#45;&gt;Node11</title>
<path fill="none" stroke="midnightblue" d="M446,-191.25C446,-180.02 446,-167.38 446,-159.19"/>
<polygon fill="midnightblue" stroke="midnightblue" points="442.5,-191.4 446,-201.4 449.5,-191.4 442.5,-191.4"/>
</g>
<!-- Node4&#45;&gt;Node5 -->
<g id="edge4" class="edge">
<title>Node4&#45;&gt;Node5</title>
<path fill="none" stroke="midnightblue" d="M138.2,-128.73C123.03,-118.68 104.96,-106.68 91.22,-97.58"/>
<polygon fill="midnightblue" stroke="midnightblue" points="136.47,-131.79 146.74,-134.4 140.34,-125.95 136.47,-131.79"/>
</g>
<!-- Node6 -->
<g id="node6" class="node">
<title>Node6</title>
<g id="a_node6"><a xlink:href="../../df/d57/AuthFileModule_8hpp.html" target="_top" xlink:title=" ">
<polygon fill="white" stroke="black" points="158.5,-67.5 158.5,-97.5 293.5,-97.5 293.5,-67.5 158.5,-67.5"/>
<text text-anchor="start" x="166.5" y="-85.5" font-family="Helvetica,sans-Serif" font-size="10.00">src/modules/auth/auth</text>
<text text-anchor="middle" x="226" y="-74.5" font-family="Helvetica,sans-Serif" font-size="10.00">&#45;file/AuthFileModule.hpp</text>
</a>
</g>
</g>
<!-- Node4&#45;&gt;Node6 -->
<g id="edge5" class="edge">
<title>Node4&#45;&gt;Node6</title>
<path fill="none" stroke="midnightblue" d="M187.42,-126.74C196,-117.12 205.84,-106.09 213.44,-97.58"/>
<polygon fill="midnightblue" stroke="midnightblue" points="184.63,-124.6 180.59,-134.4 189.85,-129.26 184.63,-124.6"/>
</g>
<!-- Node7 -->
<g id="node7" class="node">
<title>Node7</title>
<g id="a_node7"><a xlink:href="../../d8/d37/AuthFileModule_8cpp.html" target="_top" xlink:title=" ">
<polygon fill="white" stroke="black" points="85,-0.5 85,-30.5 219,-30.5 219,-0.5 85,-0.5"/>
<text text-anchor="start" x="93" y="-18.5" font-family="Helvetica,sans-Serif" font-size="10.00">src/modules/auth/auth</text>
<text text-anchor="middle" x="152" y="-7.5" font-family="Helvetica,sans-Serif" font-size="10.00">&#45;file/AuthFileModule.cpp</text>
</a>
</g>
</g>
<!-- Node6&#45;&gt;Node7 -->
<g id="edge6" class="edge">
<title>Node6&#45;&gt;Node7</title>
<path fill="none" stroke="midnightblue" d="M202.2,-60.6C191.03,-50.78 178.01,-39.34 168.03,-30.58"/>
<polygon fill="midnightblue" stroke="midnightblue" points="200.12,-63.43 209.94,-67.4 204.74,-58.17 200.12,-63.43"/>
</g>
<!-- Node8 -->
<g id="node8" class="node">
<title>Node8</title>
<g id="a_node8"><a xlink:href="../../dc/d32/auth_2auth-file_2init_8cpp.html" target="_top" xlink:title=" ">
<polygon fill="white" stroke="black" points="237.5,-0.5 237.5,-30.5 362.5,-30.5 362.5,-0.5 237.5,-0.5"/>
<text text-anchor="start" x="245.5" y="-18.5" font-family="Helvetica,sans-Serif" font-size="10.00">src/modules/auth/auth</text>
<text text-anchor="middle" x="300" y="-7.5" font-family="Helvetica,sans-Serif" font-size="10.00">&#45;file/init.cpp</text>
</a>
</g>
</g>
<!-- Node6&#45;&gt;Node8 -->
<g id="edge7" class="edge">
<title>Node6&#45;&gt;Node8</title>
<path fill="none" stroke="midnightblue" d="M249.8,-60.6C260.97,-50.78 273.99,-39.34 283.97,-30.58"/>
<polygon fill="midnightblue" stroke="midnightblue" points="247.26,-58.17 242.06,-67.4 251.88,-63.43 247.26,-58.17"/>
</g>
<!-- Node12&#45;&gt;Node9 -->
<g id="edge15" class="edge">
<title>Node12&#45;&gt;Node9</title>
<path fill="none" stroke="midnightblue" d="M916.82,-205.1C857.54,-194.12 763.76,-176.75 697.92,-164.56"/>
<polygon fill="midnightblue" stroke="midnightblue" points="916.28,-208.56 926.75,-206.94 917.56,-201.67 916.28,-208.56"/>
</g>
<!-- Node13 -->
<g id="node13" class="node">
<title>Node13</title>
<g id="a_node13"><a xlink:href="../../d8/d89/ScheduleEvent_8cpp.html" target="_top" xlink:title=" ">
<polygon fill="white" stroke="black" points="723,-140 723,-159 901,-159 901,-140 723,-140"/>
<text text-anchor="middle" x="812" y="-147" font-family="Helvetica,sans-Serif" font-size="10.00">src/core/audit/ScheduleEvent.cpp</text>
</a>
</g>
</g>
<!-- Node12&#45;&gt;Node13 -->
<g id="edge13" class="edge">
<title>Node12&#45;&gt;Node13</title>
<path fill="none" stroke="midnightblue" d="M942.3,-203.1C910.33,-190.2 861.11,-170.33 833.21,-159.06"/>
<polygon fill="midnightblue" stroke="midnightblue" points="941.04,-206.37 951.62,-206.87 943.66,-199.88 941.04,-206.37"/>
</g>
<!-- Node14 -->
<g id="node14" class="node">
<title>Node14</title>
<g id="a_node14"><a xlink:href="../../dd/d24/kernel_8cpp.html" target="_top" xlink:title=" ">
<polygon fill="white" stroke="black" points="919,-140 919,-159 1027,-159 1027,-140 919,-140"/>
<text text-anchor="middle" x="973" y="-147" font-family="Helvetica,sans-Serif" font-size="10.00">src/core/kernel.cpp</text>
</a>
</g>
</g>
<!-- Node12&#45;&gt;Node14 -->
<g id="edge14" class="edge">
<title>Node12&#45;&gt;Node14</title>
<path fill="none" stroke="midnightblue" d="M973,-196.54C973,-184.17 973,-168.62 973,-159.13"/>
<polygon fill="midnightblue" stroke="midnightblue" points="969.5,-196.73 973,-206.73 976.5,-196.73 969.5,-196.73"/>
</g>
<!-- Node15 -->
<g id="node15" class="node">
<title>Node15</title>
<g id="a_node15"><a xlink:href="../../df/dfa/ScheduleCRUD_8cpp.html" target="_top" xlink:title=" ">
<polygon fill="white" stroke="black" points="1045.5,-134.5 1045.5,-164.5 1194.5,-164.5 1194.5,-134.5 1045.5,-134.5"/>
<text text-anchor="start" x="1053.5" y="-152.5" font-family="Helvetica,sans-Serif" font-size="10.00">src/modules/websock</text>
<text text-anchor="middle" x="1120" y="-141.5" font-family="Helvetica,sans-Serif" font-size="10.00">&#45;api/api/ScheduleCRUD.cpp</text>
</a>
</g>
</g>
<!-- Node12&#45;&gt;Node15 -->
<g id="edge16" class="edge">
<title>Node12&#45;&gt;Node15</title>
<path fill="none" stroke="midnightblue" d="M1001.8,-202.77C1026.68,-191.77 1062.58,-175.89 1088.27,-164.53"/>
<polygon fill="midnightblue" stroke="midnightblue" points="1000.25,-199.62 992.52,-206.87 1003.08,-206.03 1000.25,-199.62"/>
</g>
<!-- Node16 -->
<g id="node16" class="node">
<title>Node16</title>
<g id="a_node16"><a xlink:href="../../d6/d16/Schedule_8cpp.html" target="_top" xlink:title=" ">
<polygon fill="white" stroke="black" points="1212.5,-140 1212.5,-159 1337.5,-159 1337.5,-140 1212.5,-140"/>
<text text-anchor="middle" x="1275" y="-147" font-family="Helvetica,sans-Serif" font-size="10.00">src/tools/Schedule.cpp</text>
</a>
</g>
</g>
<!-- Node12&#45;&gt;Node16 -->
<g id="edge17" class="edge">
<title>Node12&#45;&gt;Node16</title>
<path fill="none" stroke="midnightblue" d="M1022.7,-204.8C1082.13,-192.01 1180.41,-170.86 1235.12,-159.08"/>
<polygon fill="midnightblue" stroke="midnightblue" points="1021.83,-201.41 1012.79,-206.94 1023.3,-208.25 1021.83,-201.41"/>
</g>
<!-- Node17 -->
<g id="node17" class="node">
<title>Node17</title>
<g id="a_node17"><a xlink:href="../../d0/db9/XmlScheduleLoader_8cpp.html" target="_top" xlink:title=" ">
<polygon fill="white" stroke="black" points="1355.5,-140 1355.5,-159 1532.5,-159 1532.5,-140 1355.5,-140"/>
<text text-anchor="middle" x="1444" y="-147" font-family="Helvetica,sans-Serif" font-size="10.00">src/tools/XmlScheduleLoader.cpp</text>
</a>
</g>
</g>
<!-- Node12&#45;&gt;Node17 -->
<g id="edge18" class="edge">
<title>Node12&#45;&gt;Node17</title>
<path fill="none" stroke="midnightblue" d="M1023.01,-205.04C1030.69,-203.58 1038.55,-202.18 1046,-201 1179.06,-179.86 1213.47,-182.96 1347,-165 1360.58,-163.17 1375.22,-161.06 1388.9,-159.02"/>
<polygon fill="midnightblue" stroke="midnightblue" points="1022.21,-201.63 1013.06,-206.97 1023.55,-208.5 1022.21,-201.63"/>
</g>
<!-- Node18 -->
<g id="node18" class="node">
<title>Node18</title>
<g id="a_node18"><a xlink:href="../../da/d76/ScheduleValidator_8cpp.html" target="_top" xlink:title=" ">
<polygon fill="white" stroke="black" points="1551,-140 1551,-159 1697,-159 1697,-140 1551,-140"/>
<text text-anchor="middle" x="1624" y="-147" font-family="Helvetica,sans-Serif" font-size="10.00">test/ScheduleValidator.cpp</text>
</a>
</g>
</g>
<!-- Node12&#45;&gt;Node18 -->
<g id="edge19" class="edge">
<title>Node12&#45;&gt;Node18</title>
<path fill="none" stroke="midnightblue" d="M1021.33,-205.03C1029.53,-203.5 1037.99,-202.08 1046,-201 1265.04,-171.41 1322.67,-192.28 1542,-165 1554.62,-163.43 1568.26,-161.23 1580.72,-159.01"/>
<polygon fill="midnightblue" stroke="midnightblue" points="1020.65,-201.6 1011.49,-206.93 1021.98,-208.47 1020.65,-201.6"/>
</g>
</g>
</svg>
