<?xml version="1.0" encoding="UTF-8" standalone="no"?>
<!DOCTYPE svg PUBLIC "-//W3C//DTD SVG 1.1//EN"
 "http://www.w3.org/Graphics/SVG/1.1/DTD/svg11.dtd">
<!-- Generated by graphviz version 2.43.0 (0)
 -->
<!-- Title: src/modules/wiegand/strategies/PinReading.hpp Pages: 1 -->
<svg width="532pt" height="263pt"
 viewBox="0.00 0.00 532.00 263.00" xmlns="http://www.w3.org/2000/svg" xmlns:xlink="http://www.w3.org/1999/xlink">
<g id="graph0" class="graph" transform="scale(1 1) rotate(0) translate(4 259)">
<title>src/modules/wiegand/strategies/PinReading.hpp</title>
<polygon fill="white" stroke="transparent" points="-4,4 -4,-259 528,-259 528,4 -4,4"/>
<!-- Node1 -->
<g id="node1" class="node">
<title>Node1</title>
<g id="a_node1"><a xlink:title=" ">
<polygon fill="#bfbfbf" stroke="black" points="117.5,-224.5 117.5,-254.5 264.5,-254.5 264.5,-224.5 117.5,-224.5"/>
<text text-anchor="start" x="125.5" y="-242.5" font-family="Helvetica,sans-Serif" font-size="10.00">src/modules/wiegand</text>
<text text-anchor="middle" x="191" y="-231.5" font-family="Helvetica,sans-Serif" font-size="10.00">/strategies/PinReading.hpp</text>
</a>
</g>
</g>
<!-- Node2 -->
<g id="node2" class="node">
<title>Node2</title>
<g id="a_node2"><a xlink:href="../../db/dd7/StrategiesFwd_8hpp.html" target="_top" xlink:title=" ">
<polygon fill="white" stroke="black" points="71.5,-168.5 71.5,-187.5 178.5,-187.5 178.5,-168.5 71.5,-168.5"/>
<text text-anchor="middle" x="125" y="-175.5" font-family="Helvetica,sans-Serif" font-size="10.00">StrategiesFwd.hpp</text>
</a>
</g>
</g>
<!-- Node1&#45;&gt;Node2 -->
<g id="edge1" class="edge">
<title>Node1&#45;&gt;Node2</title>
<path fill="none" stroke="midnightblue" d="M175.36,-224.4C165.37,-215.4 152.42,-203.72 142.15,-194.47"/>
<polygon fill="midnightblue" stroke="midnightblue" points="144.37,-191.75 134.6,-187.66 139.69,-196.95 144.37,-191.75"/>
</g>
<!-- Node4 -->
<g id="node4" class="node">
<title>Node4</title>
<g id="a_node4"><a xlink:href="../../dd/d5c/WiegandStrategy_8hpp.html" target="_top" xlink:title=" ">
<polygon fill="white" stroke="black" points="235,-168.5 235,-187.5 355,-187.5 355,-168.5 235,-168.5"/>
<text text-anchor="middle" x="295" y="-175.5" font-family="Helvetica,sans-Serif" font-size="10.00">WiegandStrategy.hpp</text>
</a>
</g>
</g>
<!-- Node1&#45;&gt;Node4 -->
<g id="edge3" class="edge">
<title>Node1&#45;&gt;Node4</title>
<path fill="none" stroke="midnightblue" d="M215.65,-224.4C232.32,-214.86 254.23,-202.32 270.81,-192.84"/>
<polygon fill="midnightblue" stroke="midnightblue" points="272.93,-195.66 279.87,-187.66 269.45,-189.59 272.93,-195.66"/>
</g>
<!-- Node3 -->
<g id="node3" class="node">
<title>Node3</title>
<g id="a_node3"><a xlink:title=" ">
<polygon fill="white" stroke="#bfbfbf" points="0,-0.5 0,-19.5 58,-19.5 58,-0.5 0,-0.5"/>
<text text-anchor="middle" x="29" y="-7.5" font-family="Helvetica,sans-Serif" font-size="10.00">memory</text>
</a>
</g>
</g>
<!-- Node2&#45;&gt;Node3 -->
<g id="edge2" class="edge">
<title>Node2&#45;&gt;Node3</title>
<path fill="none" stroke="midnightblue" d="M98.68,-168.38C81.48,-161.35 60.04,-149.65 48,-132 26.8,-100.93 25.82,-55.02 27.25,-29.62"/>
<polygon fill="midnightblue" stroke="midnightblue" points="30.75,-29.75 28.01,-19.51 23.77,-29.22 30.75,-29.75"/>
</g>
<!-- Node5 -->
<g id="node5" class="node">
<title>Node5</title>
<g id="a_node5"><a xlink:href="../../dc/d74/Auth_8hpp.html" target="_top" xlink:title=" ">
<polygon fill="white" stroke="black" points="57.5,-112.5 57.5,-131.5 166.5,-131.5 166.5,-112.5 57.5,-112.5"/>
<text text-anchor="middle" x="112" y="-119.5" font-family="Helvetica,sans-Serif" font-size="10.00">core/auth/Auth.hpp</text>
</a>
</g>
</g>
<!-- Node4&#45;&gt;Node5 -->
<g id="edge4" class="edge">
<title>Node4&#45;&gt;Node5</title>
<path fill="none" stroke="midnightblue" d="M266,-168.44C234.82,-159.24 185.07,-144.56 150.59,-134.39"/>
<polygon fill="midnightblue" stroke="midnightblue" points="151.44,-130.99 140.86,-131.52 149.46,-137.7 151.44,-130.99"/>
</g>
<!-- Node10 -->
<g id="node10" class="node">
<title>Node10</title>
<g id="a_node10"><a xlink:title=" ">
<polygon fill="white" stroke="#bfbfbf" points="184.5,-112.5 184.5,-131.5 291.5,-131.5 291.5,-112.5 184.5,-112.5"/>
<text text-anchor="middle" x="238" y="-119.5" font-family="Helvetica,sans-Serif" font-size="10.00">zmqpp/zmqpp.hpp</text>
</a>
</g>
</g>
<!-- Node4&#45;&gt;Node10 -->
<g id="edge10" class="edge">
<title>Node4&#45;&gt;Node10</title>
<path fill="none" stroke="midnightblue" d="M285.84,-168.32C277.5,-160.42 264.97,-148.55 254.82,-138.94"/>
<polygon fill="midnightblue" stroke="midnightblue" points="256.99,-136.17 247.32,-131.83 252.18,-141.25 256.99,-136.17"/>
</g>
<!-- Node11 -->
<g id="node11" class="node">
<title>Node11</title>
<g id="a_node11"><a xlink:title=" ">
<polygon fill="white" stroke="#bfbfbf" points="310,-112.5 310,-131.5 394,-131.5 394,-112.5 310,-112.5"/>
<text text-anchor="middle" x="352" y="-119.5" font-family="Helvetica,sans-Serif" font-size="10.00">boost/any.hpp</text>
</a>
</g>
</g>
<!-- Node4&#45;&gt;Node11 -->
<g id="edge11" class="edge">
<title>Node4&#45;&gt;Node11</title>
<path fill="none" stroke="midnightblue" d="M304.16,-168.32C312.5,-160.42 325.03,-148.55 335.18,-138.94"/>
<polygon fill="midnightblue" stroke="midnightblue" points="337.82,-141.25 342.68,-131.83 333.01,-136.17 337.82,-141.25"/>
</g>
<!-- Node12 -->
<g id="node12" class="node">
<title>Node12</title>
<g id="a_node12"><a xlink:title=" ">
<polygon fill="white" stroke="#bfbfbf" points="412,-112.5 412,-131.5 462,-131.5 462,-112.5 412,-112.5"/>
<text text-anchor="middle" x="437" y="-119.5" font-family="Helvetica,sans-Serif" font-size="10.00">chrono</text>
</a>
</g>
</g>
<!-- Node4&#45;&gt;Node12 -->
<g id="edge12" class="edge">
<title>Node4&#45;&gt;Node12</title>
<path fill="none" stroke="midnightblue" d="M317.5,-168.44C341.08,-159.48 378.32,-145.31 404.96,-135.18"/>
<polygon fill="midnightblue" stroke="midnightblue" points="406.5,-138.34 414.6,-131.52 404.01,-131.8 406.5,-138.34"/>
</g>
<!-- Node13 -->
<g id="node13" class="node">
<title>Node13</title>
<g id="a_node13"><a xlink:title=" ">
<polygon fill="white" stroke="#bfbfbf" points="480,-112.5 480,-131.5 524,-131.5 524,-112.5 480,-112.5"/>
<text text-anchor="middle" x="502" y="-119.5" font-family="Helvetica,sans-Serif" font-size="10.00">string</text>
</a>
</g>
</g>
<!-- Node4&#45;&gt;Node13 -->
<g id="edge13" class="edge">
<title>Node4&#45;&gt;Node13</title>
<path fill="none" stroke="midnightblue" d="M329.82,-168.45C363.37,-160.13 415.8,-146.93 469.91,-132.24"/>
<polygon fill="midnightblue" stroke="midnightblue" points="470.95,-135.58 479.67,-129.58 469.1,-128.83 470.95,-135.58"/>
</g>
<!-- Node6 -->
<g id="node6" class="node">
<title>Node6</title>
<g id="a_node6"><a xlink:href="../../d3/d6f/AuthFwd_8hpp.html" target="_top" xlink:title=" ">
<polygon fill="white" stroke="black" points="63,-56.5 63,-75.5 143,-75.5 143,-56.5 63,-56.5"/>
<text text-anchor="middle" x="103" y="-63.5" font-family="Helvetica,sans-Serif" font-size="10.00">AuthFwd.hpp</text>
</a>
</g>
</g>
<!-- Node5&#45;&gt;Node6 -->
<g id="edge5" class="edge">
<title>Node5&#45;&gt;Node6</title>
<path fill="none" stroke="midnightblue" d="M110.51,-112.08C109.32,-104.93 107.61,-94.64 106.12,-85.69"/>
<polygon fill="midnightblue" stroke="midnightblue" points="109.55,-85.04 104.46,-75.75 102.65,-86.19 109.55,-85.04"/>
</g>
<!-- Node9 -->
<g id="node9" class="node">
<title>Node9</title>
<g id="a_node9"><a xlink:title=" ">
<polygon fill="white" stroke="#bfbfbf" points="161,-56.5 161,-75.5 279,-75.5 279,-56.5 161,-56.5"/>
<text text-anchor="middle" x="220" y="-63.5" font-family="Helvetica,sans-Serif" font-size="10.00">zmqpp/message.hpp</text>
</a>
</g>
</g>
<!-- Node5&#45;&gt;Node9 -->
<g id="edge9" class="edge">
<title>Node5&#45;&gt;Node9</title>
<path fill="none" stroke="midnightblue" d="M129.35,-112.32C146.67,-103.66 173.52,-90.24 193.5,-80.25"/>
<polygon fill="midnightblue" stroke="midnightblue" points="195.31,-83.26 202.69,-75.65 192.18,-77 195.31,-83.26"/>
</g>
<!-- Node6&#45;&gt;Node3 -->
<g id="edge7" class="edge">
<title>Node6&#45;&gt;Node3</title>
<path fill="none" stroke="midnightblue" d="M91.11,-56.32C79.85,-48.11 62.71,-35.6 49.29,-25.81"/>
<polygon fill="midnightblue" stroke="midnightblue" points="51.25,-22.9 41.11,-19.83 47.12,-28.56 51.25,-22.9"/>
</g>
<!-- Node7 -->
<g id="node7" class="node">
<title>Node7</title>
<g id="a_node7"><a xlink:title=" ">
<polygon fill="white" stroke="#bfbfbf" points="76.5,-0.5 76.5,-19.5 129.5,-19.5 129.5,-0.5 76.5,-0.5"/>
<text text-anchor="middle" x="103" y="-7.5" font-family="Helvetica,sans-Serif" font-size="10.00">cstddef</text>
</a>
</g>
</g>
<!-- Node6&#45;&gt;Node7 -->
<g id="edge6" class="edge">
<title>Node6&#45;&gt;Node7</title>
<path fill="none" stroke="midnightblue" d="M103,-56.08C103,-49.01 103,-38.86 103,-29.99"/>
<polygon fill="midnightblue" stroke="midnightblue" points="106.5,-29.75 103,-19.75 99.5,-29.75 106.5,-29.75"/>
</g>
<!-- Node8 -->
<g id="node8" class="node">
<title>Node8</title>
<g id="a_node8"><a xlink:title=" ">
<polygon fill="white" stroke="#bfbfbf" points="147.5,-0.5 147.5,-19.5 242.5,-19.5 242.5,-0.5 147.5,-0.5"/>
<text text-anchor="middle" x="195" y="-7.5" font-family="Helvetica,sans-Serif" font-size="10.00">odb/lazy&#45;ptr.hxx</text>
</a>
</g>
</g>
<!-- Node6&#45;&gt;Node8 -->
<g id="edge8" class="edge">
<title>Node6&#45;&gt;Node8</title>
<path fill="none" stroke="midnightblue" d="M117.78,-56.32C132.27,-47.82 154.57,-34.73 171.49,-24.8"/>
<polygon fill="midnightblue" stroke="midnightblue" points="173.4,-27.74 180.26,-19.65 169.86,-21.7 173.4,-27.74"/>
</g>
</g>
</svg>
