<?xml version="1.0" encoding="UTF-8" standalone="no"?>
<!DOCTYPE svg PUBLIC "-//W3C//DTD SVG 1.1//EN"
 "http://www.w3.org/Graphics/SVG/1.1/DTD/svg11.dtd">
<!-- Generated by graphviz version 2.43.0 (0)
 -->
<!-- Title: src/modules/rpleth/rplethprotocol.cpp Pages: 1 -->
<svg width="793pt" height="263pt"
 viewBox="0.00 0.00 792.91 263.00" xmlns="http://www.w3.org/2000/svg" xmlns:xlink="http://www.w3.org/1999/xlink">
<g id="graph0" class="graph" transform="scale(1 1) rotate(0) translate(4 259)">
<title>src/modules/rpleth/rplethprotocol.cpp</title>
<polygon fill="white" stroke="transparent" points="-4,4 -4,-259 788.91,-259 788.91,4 -4,4"/>
<!-- Node1 -->
<g id="node1" class="node">
<title>Node1</title>
<g id="a_node1"><a xlink:title="Rpleth protocol implementation.">
<polygon fill="#bfbfbf" stroke="black" points="377.41,-224.5 377.41,-254.5 485.41,-254.5 485.41,-224.5 377.41,-224.5"/>
<text text-anchor="start" x="385.41" y="-242.5" font-family="Helvetica,sans-Serif" font-size="10.00">src/modules/rpleth</text>
<text text-anchor="middle" x="431.41" y="-231.5" font-family="Helvetica,sans-Serif" font-size="10.00">/rplethprotocol.cpp</text>
</a>
</g>
</g>
<!-- Node2 -->
<g id="node2" class="node">
<title>Node2</title>
<g id="a_node2"><a xlink:href="../../d9/dda/rplethprotocol_8hpp.html" target="_top" xlink:title="Rpleth protocol implementation.">
<polygon fill="white" stroke="black" points="547.41,-168.5 547.41,-187.5 653.41,-187.5 653.41,-168.5 547.41,-168.5"/>
<text text-anchor="middle" x="600.41" y="-175.5" font-family="Helvetica,sans-Serif" font-size="10.00">rplethprotocol.hpp</text>
</a>
</g>
</g>
<!-- Node1&#45;&gt;Node2 -->
<g id="edge1" class="edge">
<title>Node1&#45;&gt;Node2</title>
<path fill="none" stroke="midnightblue" d="M471.46,-224.4C500.32,-214.24 538.85,-200.67 566.26,-191.02"/>
<polygon fill="midnightblue" stroke="midnightblue" points="567.55,-194.28 575.82,-187.66 565.22,-187.68 567.55,-194.28"/>
</g>
<!-- Node5 -->
<g id="node5" class="node">
<title>Node5</title>
<g id="a_node5"><a xlink:title=" ">
<polygon fill="white" stroke="#bfbfbf" points="507.91,-56.5 507.91,-75.5 554.91,-75.5 554.91,-56.5 507.91,-56.5"/>
<text text-anchor="middle" x="531.41" y="-63.5" font-family="Helvetica,sans-Serif" font-size="10.00">vector</text>
</a>
</g>
</g>
<!-- Node1&#45;&gt;Node5 -->
<g id="edge18" class="edge">
<title>Node1&#45;&gt;Node5</title>
<path fill="none" stroke="midnightblue" d="M429.71,-224.13C427.53,-199 426.49,-146.49 450.41,-112 461.75,-95.65 481.05,-84.59 497.96,-77.53"/>
<polygon fill="midnightblue" stroke="midnightblue" points="499.5,-80.69 507.57,-73.82 496.98,-74.16 499.5,-80.69"/>
</g>
<!-- Node10 -->
<g id="node10" class="node">
<title>Node10</title>
<g id="a_node10"><a xlink:href="../../d4/d3d/log_8hpp.html" target="_top" xlink:title=" ">
<polygon fill="white" stroke="black" points="147.41,-168.5 147.41,-187.5 227.41,-187.5 227.41,-168.5 147.41,-168.5"/>
<text text-anchor="middle" x="187.41" y="-175.5" font-family="Helvetica,sans-Serif" font-size="10.00">tools/log.hpp</text>
</a>
</g>
</g>
<!-- Node1&#45;&gt;Node10 -->
<g id="edge11" class="edge">
<title>Node1&#45;&gt;Node10</title>
<path fill="none" stroke="midnightblue" d="M377.26,-225.3C333.77,-214.69 273.41,-199.97 232.52,-190"/>
<polygon fill="midnightblue" stroke="midnightblue" points="233.11,-186.54 222.56,-187.57 231.45,-193.34 233.11,-186.54"/>
</g>
<!-- Node3 -->
<g id="node3" class="node">
<title>Node3</title>
<g id="a_node3"><a xlink:href="../../d4/d66/circularbuffer_8hpp.html" target="_top" xlink:title="simple circular buffer class">
<polygon fill="white" stroke="black" points="459.41,-112.5 459.41,-131.5 603.41,-131.5 603.41,-112.5 459.41,-112.5"/>
<text text-anchor="middle" x="531.41" y="-119.5" font-family="Helvetica,sans-Serif" font-size="10.00">network/circularbuffer.hpp</text>
</a>
</g>
</g>
<!-- Node2&#45;&gt;Node3 -->
<g id="edge2" class="edge">
<title>Node2&#45;&gt;Node3</title>
<path fill="none" stroke="midnightblue" d="M589.32,-168.32C578.92,-160.18 563.15,-147.84 550.69,-138.09"/>
<polygon fill="midnightblue" stroke="midnightblue" points="552.73,-135.24 542.69,-131.83 548.41,-140.75 552.73,-135.24"/>
</g>
<!-- Node8 -->
<g id="node8" class="node">
<title>Node8</title>
<g id="a_node8"><a xlink:href="../../dd/d17/rplethpacket_8hpp.html" target="_top" xlink:title="Rpleth packet class.">
<polygon fill="white" stroke="black" points="621.41,-112.5 621.41,-131.5 719.41,-131.5 719.41,-112.5 621.41,-112.5"/>
<text text-anchor="middle" x="670.41" y="-119.5" font-family="Helvetica,sans-Serif" font-size="10.00">rplethpacket.hpp</text>
</a>
</g>
</g>
<!-- Node2&#45;&gt;Node8 -->
<g id="edge7" class="edge">
<title>Node2&#45;&gt;Node8</title>
<path fill="none" stroke="midnightblue" d="M611.65,-168.32C622.2,-160.18 638.21,-147.84 650.85,-138.09"/>
<polygon fill="midnightblue" stroke="midnightblue" points="653.18,-140.71 658.96,-131.83 648.9,-135.17 653.18,-140.71"/>
</g>
<!-- Node9 -->
<g id="node9" class="node">
<title>Node9</title>
<g id="a_node9"><a xlink:title=" ">
<polygon fill="white" stroke="#bfbfbf" points="737.91,-112.5 737.91,-131.5 784.91,-131.5 784.91,-112.5 737.91,-112.5"/>
<text text-anchor="middle" x="761.41" y="-119.5" font-family="Helvetica,sans-Serif" font-size="10.00">queue</text>
</a>
</g>
</g>
<!-- Node2&#45;&gt;Node9 -->
<g id="edge10" class="edge">
<title>Node2&#45;&gt;Node9</title>
<path fill="none" stroke="midnightblue" d="M625.92,-168.44C653.56,-159.17 697.77,-144.34 728.13,-134.16"/>
<polygon fill="midnightblue" stroke="midnightblue" points="729.48,-137.4 737.85,-130.9 727.25,-130.76 729.48,-137.4"/>
</g>
<!-- Node4 -->
<g id="node4" class="node">
<title>Node4</title>
<g id="a_node4"><a xlink:title=" ">
<polygon fill="white" stroke="#bfbfbf" points="206.41,-56.5 206.41,-75.5 250.41,-75.5 250.41,-56.5 206.41,-56.5"/>
<text text-anchor="middle" x="228.41" y="-63.5" font-family="Helvetica,sans-Serif" font-size="10.00">string</text>
</a>
</g>
</g>
<!-- Node3&#45;&gt;Node4 -->
<g id="edge3" class="edge">
<title>Node3&#45;&gt;Node4</title>
<path fill="none" stroke="midnightblue" d="M483.4,-112.44C420.98,-101.32 313.66,-82.19 260.37,-72.7"/>
<polygon fill="midnightblue" stroke="midnightblue" points="260.92,-69.24 250.46,-70.93 259.69,-76.13 260.92,-69.24"/>
</g>
<!-- Node3&#45;&gt;Node5 -->
<g id="edge4" class="edge">
<title>Node3&#45;&gt;Node5</title>
<path fill="none" stroke="midnightblue" d="M531.41,-112.08C531.41,-105.01 531.41,-94.86 531.41,-85.99"/>
<polygon fill="midnightblue" stroke="midnightblue" points="534.91,-85.75 531.41,-75.75 527.91,-85.75 534.91,-85.75"/>
</g>
<!-- Node6 -->
<g id="node6" class="node">
<title>Node6</title>
<g id="a_node6"><a xlink:href="../../d4/d90/bufferutils_8hpp.html" target="_top" xlink:title="buffer&#45;related helper functions">
<polygon fill="white" stroke="black" points="593.41,-56.5 593.41,-75.5 707.41,-75.5 707.41,-56.5 593.41,-56.5"/>
<text text-anchor="middle" x="650.41" y="-63.5" font-family="Helvetica,sans-Serif" font-size="10.00">tools/bufferutils.hpp</text>
</a>
</g>
</g>
<!-- Node3&#45;&gt;Node6 -->
<g id="edge5" class="edge">
<title>Node3&#45;&gt;Node6</title>
<path fill="none" stroke="midnightblue" d="M550.26,-112.44C569.67,-103.64 600.14,-89.81 622.37,-79.72"/>
<polygon fill="midnightblue" stroke="midnightblue" points="623.98,-82.84 631.64,-75.52 621.09,-76.46 623.98,-82.84"/>
</g>
<!-- Node7 -->
<g id="node7" class="node">
<title>Node7</title>
<g id="a_node7"><a xlink:title=" ">
<polygon fill="white" stroke="#bfbfbf" points="625.41,-0.5 625.41,-19.5 675.41,-19.5 675.41,-0.5 625.41,-0.5"/>
<text text-anchor="middle" x="650.41" y="-7.5" font-family="Helvetica,sans-Serif" font-size="10.00">cstdint</text>
</a>
</g>
</g>
<!-- Node6&#45;&gt;Node7 -->
<g id="edge6" class="edge">
<title>Node6&#45;&gt;Node7</title>
<path fill="none" stroke="midnightblue" d="M650.41,-56.08C650.41,-49.01 650.41,-38.86 650.41,-29.99"/>
<polygon fill="midnightblue" stroke="midnightblue" points="653.91,-29.75 650.41,-19.75 646.91,-29.75 653.91,-29.75"/>
</g>
<!-- Node8&#45;&gt;Node5 -->
<g id="edge9" class="edge">
<title>Node8&#45;&gt;Node5</title>
<path fill="none" stroke="midnightblue" d="M648.38,-112.44C625.3,-103.48 588.84,-89.31 562.77,-79.18"/>
<polygon fill="midnightblue" stroke="midnightblue" points="563.92,-75.88 553.33,-75.52 561.38,-82.4 563.92,-75.88"/>
</g>
<!-- Node8&#45;&gt;Node6 -->
<g id="edge8" class="edge">
<title>Node8&#45;&gt;Node6</title>
<path fill="none" stroke="midnightblue" d="M667.1,-112.08C664.42,-104.85 660.56,-94.41 657.22,-85.4"/>
<polygon fill="midnightblue" stroke="midnightblue" points="660.4,-83.91 653.65,-75.75 653.84,-86.34 660.4,-83.91"/>
</g>
<!-- Node10&#45;&gt;Node4 -->
<g id="edge17" class="edge">
<title>Node10&#45;&gt;Node4</title>
<path fill="none" stroke="midnightblue" d="M147.4,-175.84C83.45,-172.57 -30.79,-160.03 8.41,-112 31.69,-83.47 140.41,-72.54 195.79,-68.77"/>
<polygon fill="midnightblue" stroke="midnightblue" points="196.36,-72.25 206.12,-68.11 195.91,-65.26 196.36,-72.25"/>
</g>
<!-- Node11 -->
<g id="node11" class="node">
<title>Node11</title>
<g id="a_node11"><a xlink:title=" ">
<polygon fill="white" stroke="#bfbfbf" points="17.41,-112.5 17.41,-131.5 69.41,-131.5 69.41,-112.5 17.41,-112.5"/>
<text text-anchor="middle" x="43.41" y="-119.5" font-family="Helvetica,sans-Serif" font-size="10.00">cassert</text>
</a>
</g>
</g>
<!-- Node10&#45;&gt;Node11 -->
<g id="edge12" class="edge">
<title>Node10&#45;&gt;Node11</title>
<path fill="none" stroke="midnightblue" d="M164.59,-168.44C140.58,-159.44 102.58,-145.19 75.54,-135.05"/>
<polygon fill="midnightblue" stroke="midnightblue" points="76.71,-131.75 66.12,-131.52 74.25,-138.3 76.71,-131.75"/>
</g>
<!-- Node12 -->
<g id="node12" class="node">
<title>Node12</title>
<g id="a_node12"><a xlink:title=" ">
<polygon fill="white" stroke="#bfbfbf" points="87.91,-112.5 87.91,-131.5 138.91,-131.5 138.91,-112.5 87.91,-112.5"/>
<text text-anchor="middle" x="113.41" y="-119.5" font-family="Helvetica,sans-Serif" font-size="10.00">csignal</text>
</a>
</g>
</g>
<!-- Node10&#45;&gt;Node12 -->
<g id="edge13" class="edge">
<title>Node10&#45;&gt;Node12</title>
<path fill="none" stroke="midnightblue" d="M175.52,-168.32C164.26,-160.11 147.12,-147.6 133.7,-137.81"/>
<polygon fill="midnightblue" stroke="midnightblue" points="135.65,-134.9 125.51,-131.83 131.53,-140.56 135.65,-134.9"/>
</g>
<!-- Node13 -->
<g id="node13" class="node">
<title>Node13</title>
<g id="a_node13"><a xlink:title=" ">
<polygon fill="white" stroke="#bfbfbf" points="157.41,-112.5 157.41,-131.5 217.41,-131.5 217.41,-112.5 157.41,-112.5"/>
<text text-anchor="middle" x="187.41" y="-119.5" font-family="Helvetica,sans-Serif" font-size="10.00">iostream</text>
</a>
</g>
</g>
<!-- Node10&#45;&gt;Node13 -->
<g id="edge14" class="edge">
<title>Node10&#45;&gt;Node13</title>
<path fill="none" stroke="midnightblue" d="M187.41,-168.08C187.41,-161.01 187.41,-150.86 187.41,-141.99"/>
<polygon fill="midnightblue" stroke="midnightblue" points="190.91,-141.75 187.41,-131.75 183.91,-141.75 190.91,-141.75"/>
</g>
<!-- Node14 -->
<g id="node14" class="node">
<title>Node14</title>
<g id="a_node14"><a xlink:title=" ">
<polygon fill="white" stroke="#bfbfbf" points="235.91,-112.5 235.91,-131.5 328.91,-131.5 328.91,-112.5 235.91,-112.5"/>
<text text-anchor="middle" x="282.41" y="-119.5" font-family="Helvetica,sans-Serif" font-size="10.00">spdlog/spdlog.h</text>
</a>
</g>
</g>
<!-- Node10&#45;&gt;Node14 -->
<g id="edge15" class="edge">
<title>Node10&#45;&gt;Node14</title>
<path fill="none" stroke="midnightblue" d="M202.67,-168.32C217.63,-159.82 240.66,-146.73 258.13,-136.8"/>
<polygon fill="midnightblue" stroke="midnightblue" points="260.22,-139.64 267.18,-131.65 256.76,-133.55 260.22,-139.64"/>
</g>
<!-- Node15 -->
<g id="node15" class="node">
<title>Node15</title>
<g id="a_node15"><a xlink:title=" ">
<polygon fill="white" stroke="#bfbfbf" points="347.41,-112.5 347.41,-131.5 403.41,-131.5 403.41,-112.5 347.41,-112.5"/>
<text text-anchor="middle" x="375.41" y="-119.5" font-family="Helvetica,sans-Serif" font-size="10.00">sstream</text>
</a>
</g>
</g>
<!-- Node10&#45;&gt;Node15 -->
<g id="edge16" class="edge">
<title>Node10&#45;&gt;Node15</title>
<path fill="none" stroke="midnightblue" d="M217.2,-168.44C249.71,-159.11 301.85,-144.13 337.31,-133.94"/>
<polygon fill="midnightblue" stroke="midnightblue" points="338.65,-137.2 347.29,-131.08 336.71,-130.47 338.65,-137.2"/>
</g>
</g>
</svg>
