<?xml version="1.0" encoding="UTF-8" standalone="no"?>
<!DOCTYPE svg PUBLIC "-//W3C//DTD SVG 1.1//EN"
 "http://www.w3.org/Graphics/SVG/1.1/DTD/svg11.dtd">
<!-- Generated by graphviz version 2.43.0 (0)
 -->
<!-- Title: Leosac::Tools::DatabaseLogSink Pages: 1 -->
<svg width="355pt" height="174pt"
 viewBox="0.00 0.00 354.50 174.00" xmlns="http://www.w3.org/2000/svg" xmlns:xlink="http://www.w3.org/1999/xlink">
<g id="graph0" class="graph" transform="scale(1 1) rotate(0) translate(4 170)">
<title>Leosac::Tools::DatabaseLogSink</title>
<polygon fill="white" stroke="transparent" points="-4,4 -4,-170 350.5,-170 350.5,4 -4,4"/>
<!-- Node1 -->
<g id="node1" class="node">
<title>Node1</title>
<g id="a_node1"><a xlink:title="A custom sink that write LogEntry object to a SQLite database.">
<polygon fill="#bfbfbf" stroke="black" points="98.5,-0.5 98.5,-19.5 270.5,-19.5 270.5,-0.5 98.5,-0.5"/>
<text text-anchor="middle" x="184.5" y="-7.5" font-family="Helvetica,sans-Serif" font-size="10.00">Leosac::Tools::DatabaseLogSink</text>
</a>
</g>
</g>
<!-- Node2 -->
<g id="node2" class="node">
<title>Node2</title>
<g id="a_node2"><a xlink:title=" ">
<polygon fill="white" stroke="#bfbfbf" points="0,-73 0,-92 107,-92 107,-73 0,-73"/>
<text text-anchor="middle" x="53.5" y="-80" font-family="Helvetica,sans-Serif" font-size="10.00">spdlog::sinks::sink</text>
</a>
</g>
</g>
<!-- Node2&#45;&gt;Node1 -->
<g id="edge1" class="edge">
<title>Node2&#45;&gt;Node1</title>
<path fill="none" stroke="midnightblue" d="M78.35,-68.12C104.9,-53.84 146.19,-31.62 168.64,-19.53"/>
<polygon fill="midnightblue" stroke="midnightblue" points="76.45,-65.17 69.3,-73 79.77,-71.34 76.45,-65.17"/>
</g>
<!-- Node3 -->
<g id="node3" class="node">
<title>Node3</title>
<g id="a_node3"><a xlink:title=" ">
<polygon fill="white" stroke="#bfbfbf" points="125,-67.5 125,-97.5 244,-97.5 244,-67.5 125,-67.5"/>
<text text-anchor="start" x="133" y="-85.5" font-family="Helvetica,sans-Serif" font-size="10.00">std::shared_ptr&lt; odb</text>
<text text-anchor="middle" x="184.5" y="-74.5" font-family="Helvetica,sans-Serif" font-size="10.00">::database &gt;</text>
</a>
</g>
</g>
<!-- Node3&#45;&gt;Node1 -->
<g id="edge2" class="edge">
<title>Node3&#45;&gt;Node1</title>
<path fill="none" stroke="#9a32cd" stroke-dasharray="5,2" d="M184.5,-57.09C184.5,-44.21 184.5,-29.2 184.5,-19.89"/>
<polygon fill="#9a32cd" stroke="#9a32cd" points="181,-57.23 184.5,-67.23 188,-57.23 181,-57.23"/>
<text text-anchor="middle" x="211.5" y="-41" font-family="Helvetica,sans-Serif" font-size="10.00"> database_</text>
</g>
<!-- Node4 -->
<g id="node4" class="node">
<title>Node4</title>
<g id="a_node4"><a xlink:title="STL class.">
<polygon fill="white" stroke="#bfbfbf" points="262,-73 262,-92 327,-92 327,-73 262,-73"/>
<text text-anchor="middle" x="294.5" y="-80" font-family="Helvetica,sans-Serif" font-size="10.00">std::string</text>
</a>
</g>
</g>
<!-- Node4&#45;&gt;Node1 -->
<g id="edge3" class="edge">
<title>Node4&#45;&gt;Node1</title>
<path fill="none" stroke="#9a32cd" stroke-dasharray="5,2" d="M278.07,-65.84C268.24,-56.98 255.23,-46.09 242.5,-38 231.16,-30.79 217.58,-24.37 206.41,-19.59"/>
<polygon fill="#9a32cd" stroke="#9a32cd" points="275.77,-68.48 285.49,-72.7 280.52,-63.34 275.77,-68.48"/>
<text text-anchor="middle" x="277" y="-41" font-family="Helvetica,sans-Serif" font-size="10.00"> run_id_</text>
</g>
<!-- Node5 -->
<g id="node5" class="node">
<title>Node5</title>
<g id="a_node5"><a xlink:title="STL class.">
<polygon fill="white" stroke="#bfbfbf" points="242.5,-135.5 242.5,-165.5 346.5,-165.5 346.5,-135.5 242.5,-135.5"/>
<text text-anchor="start" x="250.5" y="-153.5" font-family="Helvetica,sans-Serif" font-size="10.00">std::basic_string&lt;</text>
<text text-anchor="middle" x="294.5" y="-142.5" font-family="Helvetica,sans-Serif" font-size="10.00"> char &gt;</text>
</a>
</g>
</g>
<!-- Node5&#45;&gt;Node4 -->
<g id="edge4" class="edge">
<title>Node5&#45;&gt;Node4</title>
<path fill="none" stroke="midnightblue" d="M294.5,-124.88C294.5,-113.47 294.5,-100.64 294.5,-92.33"/>
<polygon fill="midnightblue" stroke="midnightblue" points="291,-125.18 294.5,-135.18 298,-125.18 291,-125.18"/>
</g>
</g>
</svg>
