<?xml version="1.0" encoding="UTF-8" standalone="no"?>
<!DOCTYPE svg PUBLIC "-//W3C//DTD SVG 1.1//EN"
 "http://www.w3.org/Graphics/SVG/1.1/DTD/svg11.dtd">
<!-- Generated by graphviz version 2.43.0 (0)
 -->
<!-- Title: Leosac::Audit::IAuditEntry Pages: 1 -->
<svg width="705pt" height="455pt"
 viewBox="0.00 0.00 705.00 454.50" xmlns="http://www.w3.org/2000/svg" xmlns:xlink="http://www.w3.org/1999/xlink">
<g id="graph0" class="graph" transform="scale(1 1) rotate(0) translate(4 450.5)">
<title>Leosac::Audit::IAuditEntry</title>
<polygon fill="white" stroke="transparent" points="-4,4 -4,-450.5 701,-450.5 701,4 -4,4"/>
<!-- Node1 -->
<g id="node1" class="node">
<title>Node1</title>
<g id="a_node1"><a xlink:title="Base interface to Audit object.">
<polygon fill="#bfbfbf" stroke="black" points="169,-202.5 169,-221.5 311,-221.5 311,-202.5 169,-202.5"/>
<text text-anchor="middle" x="240" y="-209.5" font-family="Helvetica,sans-Serif" font-size="10.00">Leosac::Audit::IAuditEntry</text>
</a>
</g>
</g>
<!-- Node3 -->
<g id="node3" class="node">
<title>Node3</title>
<g id="a_node3"><a xlink:href="../../d0/d20/classLeosac_1_1Audit_1_1AuditEntry.html" target="_top" xlink:title="Implementation of IAuditEntry, backed by ODB.">
<polygon fill="white" stroke="black" points="354.5,-202.5 354.5,-221.5 493.5,-221.5 493.5,-202.5 354.5,-202.5"/>
<text text-anchor="middle" x="424" y="-209.5" font-family="Helvetica,sans-Serif" font-size="10.00">Leosac::Audit::AuditEntry</text>
</a>
</g>
</g>
<!-- Node1&#45;&gt;Node3 -->
<g id="edge2" class="edge">
<title>Node1&#45;&gt;Node3</title>
<path fill="none" stroke="midnightblue" d="M321.2,-212C332.29,-212 343.58,-212 354.43,-212"/>
<polygon fill="midnightblue" stroke="midnightblue" points="321.11,-208.5 311.11,-212 321.11,-215.5 321.11,-208.5"/>
</g>
<!-- Node15 -->
<g id="node15" class="node">
<title>Node15</title>
<g id="a_node15"><a xlink:href="../../d8/d9b/classLeosac_1_1Audit_1_1IAccessPointEvent.html" target="_top" xlink:title="Interface that describes an Audit object for AccessPoint related event.">
<polygon fill="white" stroke="black" points="349.5,-416 349.5,-446 498.5,-446 498.5,-416 349.5,-416"/>
<text text-anchor="start" x="357.5" y="-434" font-family="Helvetica,sans-Serif" font-size="10.00">Leosac::Audit::IAccessPoint</text>
<text text-anchor="middle" x="424" y="-423" font-family="Helvetica,sans-Serif" font-size="10.00">Event</text>
</a>
</g>
</g>
<!-- Node1&#45;&gt;Node15 -->
<g id="edge14" class="edge">
<title>Node1&#45;&gt;Node15</title>
<path fill="none" stroke="midnightblue" d="M246.2,-231.43C257.67,-270.53 288.84,-359.06 347,-407 351.16,-410.43 355.82,-413.38 360.73,-415.9"/>
<polygon fill="midnightblue" stroke="midnightblue" points="249.57,-230.46 243.49,-221.79 242.83,-232.36 249.57,-230.46"/>
</g>
<!-- Node16 -->
<g id="node16" class="node">
<title>Node16</title>
<g id="a_node16"><a xlink:href="../../d0/d87/classLeosac_1_1Audit_1_1ICredentialEvent.html" target="_top" xlink:title="Audit interface to Credential related events.">
<polygon fill="white" stroke="black" points="353.5,-367 353.5,-397 494.5,-397 494.5,-367 353.5,-367"/>
<text text-anchor="start" x="361.5" y="-385" font-family="Helvetica,sans-Serif" font-size="10.00">Leosac::Audit::ICredential</text>
<text text-anchor="middle" x="424" y="-374" font-family="Helvetica,sans-Serif" font-size="10.00">Event</text>
</a>
</g>
</g>
<!-- Node1&#45;&gt;Node16 -->
<g id="edge16" class="edge">
<title>Node1&#45;&gt;Node16</title>
<path fill="none" stroke="midnightblue" d="M249.93,-230.96C265.4,-261.82 300.09,-322.9 347,-357 352.28,-360.84 358.18,-364.11 364.3,-366.9"/>
<polygon fill="midnightblue" stroke="midnightblue" points="252.96,-229.18 245.43,-221.73 246.66,-232.25 252.96,-229.18"/>
</g>
<!-- Node17 -->
<g id="node17" class="node">
<title>Node17</title>
<g id="a_node17"><a xlink:href="../../db/dcb/classLeosac_1_1Audit_1_1IDoorEvent.html" target="_top" xlink:title="Interface that describes an Audit object for door related event.">
<polygon fill="white" stroke="black" points="353,-328.5 353,-347.5 495,-347.5 495,-328.5 353,-328.5"/>
<text text-anchor="middle" x="424" y="-335.5" font-family="Helvetica,sans-Serif" font-size="10.00">Leosac::Audit::IDoorEvent</text>
</a>
</g>
</g>
<!-- Node1&#45;&gt;Node17 -->
<g id="edge18" class="edge">
<title>Node1&#45;&gt;Node17</title>
<path fill="none" stroke="midnightblue" d="M253.73,-229.96C271.72,-253.98 306.9,-296.17 347,-319 353.86,-322.9 361.51,-326.01 369.24,-328.49"/>
<polygon fill="midnightblue" stroke="midnightblue" points="256.43,-227.73 247.7,-221.72 250.78,-231.86 256.43,-227.73"/>
</g>
<!-- Node18 -->
<g id="node18" class="node">
<title>Node18</title>
<g id="a_node18"><a xlink:href="../../d1/df4/classLeosac_1_1Audit_1_1IGroupEvent.html" target="_top" xlink:title="Interface that describes an Audit object for group related event.">
<polygon fill="white" stroke="black" points="350,-290.5 350,-309.5 498,-309.5 498,-290.5 350,-290.5"/>
<text text-anchor="middle" x="424" y="-297.5" font-family="Helvetica,sans-Serif" font-size="10.00">Leosac::Audit::IGroupEvent</text>
</a>
</g>
</g>
<!-- Node1&#45;&gt;Node18 -->
<g id="edge20" class="edge">
<title>Node1&#45;&gt;Node18</title>
<path fill="none" stroke="midnightblue" d="M260.9,-227.87C281.39,-243.48 314.77,-266.95 347,-281 355.6,-284.75 365.09,-287.86 374.36,-290.4"/>
<polygon fill="midnightblue" stroke="midnightblue" points="263,-225.07 252.96,-221.72 258.72,-230.61 263,-225.07"/>
</g>
<!-- Node19 -->
<g id="node19" class="node">
<title>Node19</title>
<g id="a_node19"><a xlink:href="../../d7/d97/classLeosac_1_1Audit_1_1IScheduleEvent.html" target="_top" xlink:title="Audit interface to Schedule related events.">
<polygon fill="white" stroke="black" points="356.5,-241 356.5,-271 491.5,-271 491.5,-241 356.5,-241"/>
<text text-anchor="start" x="364.5" y="-259" font-family="Helvetica,sans-Serif" font-size="10.00">Leosac::Audit::ISchedule</text>
<text text-anchor="middle" x="424" y="-248" font-family="Helvetica,sans-Serif" font-size="10.00">Event</text>
</a>
</g>
</g>
<!-- Node1&#45;&gt;Node19 -->
<g id="edge22" class="edge">
<title>Node1&#45;&gt;Node19</title>
<path fill="none" stroke="midnightblue" d="M290.45,-223.96C312.1,-229.19 337.75,-235.39 360.68,-240.93"/>
<polygon fill="midnightblue" stroke="midnightblue" points="291.03,-220.5 280.49,-221.55 289.39,-227.3 291.03,-220.5"/>
</g>
<!-- Node20 -->
<g id="node20" class="node">
<title>Node20</title>
<g id="a_node20"><a xlink:href="../../d4/d99/classLeosac_1_1Audit_1_1IUpdateEvent.html" target="_top" xlink:title="Interface for update&#45;related event.">
<polygon fill="white" stroke="black" points="347,-164.5 347,-183.5 501,-183.5 501,-164.5 347,-164.5"/>
<text text-anchor="middle" x="424" y="-171.5" font-family="Helvetica,sans-Serif" font-size="10.00">Leosac::Audit::IUpdateEvent</text>
</a>
</g>
</g>
<!-- Node1&#45;&gt;Node20 -->
<g id="edge24" class="edge">
<title>Node1&#45;&gt;Node20</title>
<path fill="none" stroke="midnightblue" d="M296.95,-200.32C322.76,-194.93 353.01,-188.61 377.4,-183.52"/>
<polygon fill="midnightblue" stroke="midnightblue" points="296,-196.94 286.93,-202.41 297.43,-203.79 296,-196.94"/>
</g>
<!-- Node21 -->
<g id="node21" class="node">
<title>Node21</title>
<g id="a_node21"><a xlink:href="../../df/df5/classLeosac_1_1Audit_1_1IUserEvent.html" target="_top" xlink:title="Interface that describes an Audit object when a user&#45;related event happens.">
<polygon fill="white" stroke="black" points="353.5,-126.5 353.5,-145.5 494.5,-145.5 494.5,-126.5 353.5,-126.5"/>
<text text-anchor="middle" x="424" y="-133.5" font-family="Helvetica,sans-Serif" font-size="10.00">Leosac::Audit::IUserEvent</text>
</a>
</g>
</g>
<!-- Node1&#45;&gt;Node21 -->
<g id="edge26" class="edge">
<title>Node1&#45;&gt;Node21</title>
<path fill="none" stroke="midnightblue" d="M264.42,-197.21C285.38,-184.51 317.29,-166.49 347,-155 356.51,-151.32 366.98,-148.16 377.01,-145.54"/>
<polygon fill="midnightblue" stroke="midnightblue" points="262.57,-194.24 255.88,-202.45 266.23,-200.2 262.57,-194.24"/>
</g>
<!-- Node22 -->
<g id="node22" class="node">
<title>Node22</title>
<g id="a_node22"><a xlink:href="../../d3/d84/classLeosac_1_1Audit_1_1IUserGroupMembershipEvent.html" target="_top" xlink:title="Interface to audit object that take care of tracking user/group membership change.">
<polygon fill="white" stroke="black" points="352.5,-77 352.5,-107 495.5,-107 495.5,-77 352.5,-77"/>
<text text-anchor="start" x="360.5" y="-95" font-family="Helvetica,sans-Serif" font-size="10.00">Leosac::Audit::IUserGroup</text>
<text text-anchor="middle" x="424" y="-84" font-family="Helvetica,sans-Serif" font-size="10.00">MembershipEvent</text>
</a>
</g>
</g>
<!-- Node1&#45;&gt;Node22 -->
<g id="edge28" class="edge">
<title>Node1&#45;&gt;Node22</title>
<path fill="none" stroke="midnightblue" d="M255.81,-194.95C274.94,-173.91 310.17,-138.3 347,-117 353.49,-113.25 360.63,-109.96 367.85,-107.12"/>
<polygon fill="midnightblue" stroke="midnightblue" points="253.13,-192.71 249.08,-202.5 258.35,-197.37 253.13,-192.71"/>
</g>
<!-- Node23 -->
<g id="node23" class="node">
<title>Node23</title>
<g id="a_node23"><a xlink:href="../../d9/db5/classLeosac_1_1Audit_1_1IWSAPICall.html" target="_top" xlink:title="An audit entry dedicated to tracing API call.">
<polygon fill="white" stroke="black" points="353,-38.5 353,-57.5 495,-57.5 495,-38.5 353,-38.5"/>
<text text-anchor="middle" x="424" y="-45.5" font-family="Helvetica,sans-Serif" font-size="10.00">Leosac::Audit::IWSAPICall</text>
</a>
</g>
</g>
<!-- Node1&#45;&gt;Node23 -->
<g id="edge30" class="edge">
<title>Node1&#45;&gt;Node23</title>
<path fill="none" stroke="midnightblue" d="M249.44,-193.11C264.41,-161.83 298.65,-99.53 347,-67 352.75,-63.13 359.23,-60.04 365.92,-57.59"/>
<polygon fill="midnightblue" stroke="midnightblue" points="246.14,-191.89 245.11,-202.44 252.49,-194.84 246.14,-191.89"/>
</g>
<!-- Node24 -->
<g id="node24" class="node">
<title>Node24</title>
<g id="a_node24"><a xlink:href="../../d1/d20/classLeosac_1_1Audit_1_1IZoneEvent.html" target="_top" xlink:title="Interface that describes an Audit object for zone related event.">
<polygon fill="white" stroke="black" points="352.5,-0.5 352.5,-19.5 495.5,-19.5 495.5,-0.5 352.5,-0.5"/>
<text text-anchor="middle" x="424" y="-7.5" font-family="Helvetica,sans-Serif" font-size="10.00">Leosac::Audit::IZoneEvent</text>
</a>
</g>
</g>
<!-- Node1&#45;&gt;Node24 -->
<g id="edge32" class="edge">
<title>Node1&#45;&gt;Node24</title>
<path fill="none" stroke="midnightblue" d="M246.65,-192.46C258.61,-154.73 290.14,-71.81 347,-29 352.11,-25.16 357.9,-22.08 363.96,-19.63"/>
<polygon fill="midnightblue" stroke="midnightblue" points="243.24,-191.64 243.68,-202.23 249.94,-193.68 243.24,-191.64"/>
</g>
<!-- Node2 -->
<g id="node2" class="node">
<title>Node2</title>
<g id="a_node2"><a xlink:href="../../d0/d33/classLeosac_1_1Tools_1_1IVisitable.html" target="_top" xlink:title="Base class to make an object visitable.">
<polygon fill="white" stroke="black" points="0,-202.5 0,-221.5 133,-221.5 133,-202.5 0,-202.5"/>
<text text-anchor="middle" x="66.5" y="-209.5" font-family="Helvetica,sans-Serif" font-size="10.00">Leosac::Tools::IVisitable</text>
</a>
</g>
</g>
<!-- Node2&#45;&gt;Node1 -->
<g id="edge1" class="edge">
<title>Node2&#45;&gt;Node1</title>
<path fill="none" stroke="midnightblue" d="M143.5,-212C151.92,-212 160.46,-212 168.8,-212"/>
<polygon fill="midnightblue" stroke="midnightblue" points="143.32,-208.5 133.32,-212 143.32,-215.5 143.32,-208.5"/>
</g>
<!-- Node4 -->
<g id="node4" class="node">
<title>Node4</title>
<g id="a_node4"><a xlink:href="../../d1/de7/classLeosac_1_1Audit_1_1AccessPointEvent.html" target="_top" xlink:title="Provides an implementation of IAccessPointEvent.">
<polygon fill="white" stroke="black" points="544,-416 544,-446 690,-446 690,-416 544,-416"/>
<text text-anchor="start" x="552" y="-434" font-family="Helvetica,sans-Serif" font-size="10.00">Leosac::Audit::AccessPoint</text>
<text text-anchor="middle" x="617" y="-423" font-family="Helvetica,sans-Serif" font-size="10.00">Event</text>
</a>
</g>
</g>
<!-- Node3&#45;&gt;Node4 -->
<g id="edge3" class="edge">
<title>Node3&#45;&gt;Node4</title>
<path fill="none" stroke="midnightblue" d="M497,-227.3C498.4,-228.45 499.74,-229.68 501,-231 556.22,-288.66 483.23,-347.98 537,-407 540.09,-410.39 543.64,-413.31 547.49,-415.82"/>
<polygon fill="midnightblue" stroke="midnightblue" points="498.61,-224.17 488.34,-221.55 494.73,-230 498.61,-224.17"/>
</g>
<!-- Node5 -->
<g id="node5" class="node">
<title>Node5</title>
<g id="a_node5"><a xlink:href="../../d3/d8c/classLeosac_1_1Audit_1_1CredentialEvent.html" target="_top" xlink:title="Provides an implementation of ICredentialEvent.">
<polygon fill="white" stroke="black" points="548,-367 548,-397 686,-397 686,-367 548,-367"/>
<text text-anchor="start" x="556" y="-385" font-family="Helvetica,sans-Serif" font-size="10.00">Leosac::Audit::Credential</text>
<text text-anchor="middle" x="617" y="-374" font-family="Helvetica,sans-Serif" font-size="10.00">Event</text>
</a>
</g>
</g>
<!-- Node3&#45;&gt;Node5 -->
<g id="edge4" class="edge">
<title>Node3&#45;&gt;Node5</title>
<path fill="none" stroke="midnightblue" d="M496.35,-227.04C497.98,-228.26 499.53,-229.58 501,-231 542.86,-271.49 496.4,-315.24 537,-357 540.71,-360.82 545,-364.05 549.62,-366.79"/>
<polygon fill="midnightblue" stroke="midnightblue" points="498.01,-223.95 487.66,-221.68 494.33,-229.91 498.01,-223.95"/>
</g>
<!-- Node6 -->
<g id="node6" class="node">
<title>Node6</title>
<g id="a_node6"><a xlink:href="../../d3/dea/classLeosac_1_1Audit_1_1DoorEvent.html" target="_top" xlink:title="Provides an implementation of IDoorEvent.">
<polygon fill="white" stroke="black" points="547.5,-328.5 547.5,-347.5 686.5,-347.5 686.5,-328.5 547.5,-328.5"/>
<text text-anchor="middle" x="617" y="-335.5" font-family="Helvetica,sans-Serif" font-size="10.00">Leosac::Audit::DoorEvent</text>
</a>
</g>
</g>
<!-- Node3&#45;&gt;Node6 -->
<g id="edge5" class="edge">
<title>Node3&#45;&gt;Node6</title>
<path fill="none" stroke="midnightblue" d="M495.31,-226.7C497.3,-228.01 499.2,-229.44 501,-231 532.94,-258.66 504.93,-291.48 537,-319 541.5,-322.86 546.64,-325.96 552.11,-328.46"/>
<polygon fill="midnightblue" stroke="midnightblue" points="496.55,-223.38 486.11,-221.62 493.17,-229.51 496.55,-223.38"/>
</g>
<!-- Node7 -->
<g id="node7" class="node">
<title>Node7</title>
<g id="a_node7"><a xlink:href="../../df/d1d/classLeosac_1_1Audit_1_1GroupEvent.html" target="_top" xlink:title="Provides an implementation of IGroupEvent.">
<polygon fill="white" stroke="black" points="544.5,-290.5 544.5,-309.5 689.5,-309.5 689.5,-290.5 544.5,-290.5"/>
<text text-anchor="middle" x="617" y="-297.5" font-family="Helvetica,sans-Serif" font-size="10.00">Leosac::Audit::GroupEvent</text>
</a>
</g>
</g>
<!-- Node3&#45;&gt;Node7 -->
<g id="edge6" class="edge">
<title>Node3&#45;&gt;Node7</title>
<path fill="none" stroke="midnightblue" d="M491.61,-225.59C494.89,-227.2 498.04,-228.99 501,-231 523.66,-246.37 514.27,-265.73 537,-281 542.74,-284.85 549.17,-287.93 555.83,-290.38"/>
<polygon fill="midnightblue" stroke="midnightblue" points="492.68,-222.24 482.11,-221.55 489.94,-228.69 492.68,-222.24"/>
</g>
<!-- Node8 -->
<g id="node8" class="node">
<title>Node8</title>
<g id="a_node8"><a xlink:href="../../db/ddb/classLeosac_1_1Audit_1_1ScheduleEvent.html" target="_top" xlink:title="Provides an implementation of IScheduleEvent.">
<polygon fill="white" stroke="black" points="537,-252.5 537,-271.5 697,-271.5 697,-252.5 537,-252.5"/>
<text text-anchor="middle" x="617" y="-259.5" font-family="Helvetica,sans-Serif" font-size="10.00">Leosac::Audit::ScheduleEvent</text>
</a>
</g>
</g>
<!-- Node3&#45;&gt;Node8 -->
<g id="edge7" class="edge">
<title>Node3&#45;&gt;Node8</title>
<path fill="none" stroke="midnightblue" d="M474.7,-224.03C483.48,-226.27 492.53,-228.65 501,-231 517.12,-235.47 520.89,-237.5 537,-242 549.81,-245.58 563.86,-249.22 576.52,-252.41"/>
<polygon fill="midnightblue" stroke="midnightblue" points="475.49,-220.62 464.94,-221.57 473.78,-227.41 475.49,-220.62"/>
</g>
<!-- Node9 -->
<g id="node9" class="node">
<title>Node9</title>
<g id="a_node9"><a xlink:href="../../df/d03/classLeosac_1_1Audit_1_1UpdateEvent.html" target="_top" xlink:title="Provides an implementation of IUpdateEvent.">
<polygon fill="white" stroke="black" points="541.5,-164.5 541.5,-183.5 692.5,-183.5 692.5,-164.5 541.5,-164.5"/>
<text text-anchor="middle" x="617" y="-171.5" font-family="Helvetica,sans-Serif" font-size="10.00">Leosac::Audit::UpdateEvent</text>
</a>
</g>
</g>
<!-- Node3&#45;&gt;Node9 -->
<g id="edge8" class="edge">
<title>Node3&#45;&gt;Node9</title>
<path fill="none" stroke="midnightblue" d="M483.35,-200.39C510.52,-194.99 542.43,-188.64 568.15,-183.52"/>
<polygon fill="midnightblue" stroke="midnightblue" points="482.32,-197.03 473.2,-202.41 483.69,-203.89 482.32,-197.03"/>
</g>
<!-- Node10 -->
<g id="node10" class="node">
<title>Node10</title>
<g id="a_node10"><a xlink:href="../../db/d18/classLeosac_1_1Audit_1_1UserEvent.html" target="_top" xlink:title="Provides an implementation of IUserEvent.">
<polygon fill="white" stroke="black" points="548,-126.5 548,-145.5 686,-145.5 686,-126.5 548,-126.5"/>
<text text-anchor="middle" x="617" y="-133.5" font-family="Helvetica,sans-Serif" font-size="10.00">Leosac::Audit::UserEvent</text>
</a>
</g>
</g>
<!-- Node3&#45;&gt;Node10 -->
<g id="edge9" class="edge">
<title>Node3&#45;&gt;Node10</title>
<path fill="none" stroke="midnightblue" d="M488.73,-199.01C493,-197.25 497.13,-195.26 501,-193 521.09,-181.27 516.86,-166.64 537,-155 543.72,-151.12 551.19,-148.02 558.79,-145.56"/>
<polygon fill="midnightblue" stroke="midnightblue" points="487.42,-195.76 479.24,-202.49 489.83,-202.34 487.42,-195.76"/>
</g>
<!-- Node11 -->
<g id="node11" class="node">
<title>Node11</title>
<g id="a_node11"><a xlink:href="../../d8/db4/classLeosac_1_1Audit_1_1UserGroupMembershipEvent.html" target="_top" xlink:title="Provides an implementation of IUserGroupMembershipEvent.">
<polygon fill="white" stroke="black" points="547,-77 547,-107 687,-107 687,-77 547,-77"/>
<text text-anchor="start" x="555" y="-95" font-family="Helvetica,sans-Serif" font-size="10.00">Leosac::Audit::UserGroup</text>
<text text-anchor="middle" x="617" y="-84" font-family="Helvetica,sans-Serif" font-size="10.00">MembershipEvent</text>
</a>
</g>
</g>
<!-- Node3&#45;&gt;Node11 -->
<g id="edge10" class="edge">
<title>Node3&#45;&gt;Node11</title>
<path fill="none" stroke="midnightblue" d="M494.43,-197.66C496.73,-196.25 498.93,-194.7 501,-193 529.9,-169.3 508.84,-141.57 537,-117 541.44,-113.12 546.49,-109.85 551.83,-107.08"/>
<polygon fill="midnightblue" stroke="midnightblue" points="492.41,-194.76 485.13,-202.46 495.63,-200.98 492.41,-194.76"/>
</g>
<!-- Node12 -->
<g id="node12" class="node">
<title>Node12</title>
<g id="a_node12"><a xlink:href="../../d5/d44/classLeosac_1_1Audit_1_1WSAPICall.html" target="_top" xlink:title="Provides the implementation of IWSAPICall.">
<polygon fill="white" stroke="black" points="547.5,-38.5 547.5,-57.5 686.5,-57.5 686.5,-38.5 547.5,-38.5"/>
<text text-anchor="middle" x="617" y="-45.5" font-family="Helvetica,sans-Serif" font-size="10.00">Leosac::Audit::WSAPICall</text>
</a>
</g>
</g>
<!-- Node3&#45;&gt;Node12 -->
<g id="edge11" class="edge">
<title>Node3&#45;&gt;Node12</title>
<path fill="none" stroke="midnightblue" d="M496.35,-196.96C497.98,-195.74 499.53,-194.42 501,-193 542.86,-152.51 494.96,-107.3 537,-67 540.97,-63.19 545.57,-60.1 550.5,-57.61"/>
<polygon fill="midnightblue" stroke="midnightblue" points="494.33,-194.09 487.66,-202.32 498.01,-200.05 494.33,-194.09"/>
</g>
<!-- Node13 -->
<g id="node13" class="node">
<title>Node13</title>
<g id="a_node13"><a xlink:href="../../df/dc9/classLeosac_1_1Audit_1_1ZoneEvent.html" target="_top" xlink:title="Provides an implementation of IZoneEvent.">
<polygon fill="white" stroke="black" points="547,-0.5 547,-19.5 687,-19.5 687,-0.5 547,-0.5"/>
<text text-anchor="middle" x="617" y="-7.5" font-family="Helvetica,sans-Serif" font-size="10.00">Leosac::Audit::ZoneEvent</text>
</a>
</g>
</g>
<!-- Node3&#45;&gt;Node13 -->
<g id="edge12" class="edge">
<title>Node3&#45;&gt;Node13</title>
<path fill="none" stroke="midnightblue" d="M496.97,-196.67C498.38,-195.53 499.73,-194.31 501,-193 553,-139.48 484.76,-82.29 537,-29 540.75,-25.17 545.13,-22.06 549.87,-19.54"/>
<polygon fill="midnightblue" stroke="midnightblue" points="494.71,-193.97 488.28,-202.39 498.56,-199.82 494.71,-193.97"/>
</g>
<!-- Node14 -->
<g id="node14" class="node">
<title>Node14</title>
<g id="a_node14"><a xlink:href="../../d3/dc8/classLeosac_1_1Module_1_1SMTP_1_1SMTPAudit.html" target="_top" xlink:title="Keeps track of SMTP event.">
<polygon fill="white" stroke="black" points="554.5,-203 554.5,-233 679.5,-233 679.5,-203 554.5,-203"/>
<text text-anchor="start" x="562.5" y="-221" font-family="Helvetica,sans-Serif" font-size="10.00">Leosac::Module::SMTP</text>
<text text-anchor="middle" x="617" y="-210" font-family="Helvetica,sans-Serif" font-size="10.00">::SMTPAudit</text>
</a>
</g>
</g>
<!-- Node3&#45;&gt;Node14 -->
<g id="edge13" class="edge">
<title>Node3&#45;&gt;Node14</title>
<path fill="none" stroke="midnightblue" d="M504.02,-214.48C520.78,-215.01 538.25,-215.56 554.26,-216.06"/>
<polygon fill="midnightblue" stroke="midnightblue" points="503.79,-210.97 493.69,-214.16 503.57,-217.97 503.79,-210.97"/>
</g>
<!-- Node15&#45;&gt;Node4 -->
<g id="edge15" class="edge">
<title>Node15&#45;&gt;Node4</title>
<path fill="none" stroke="midnightblue" d="M508.74,-431C520.4,-431 532.3,-431 543.72,-431"/>
<polygon fill="midnightblue" stroke="midnightblue" points="508.57,-427.5 498.57,-431 508.57,-434.5 508.57,-427.5"/>
</g>
<!-- Node16&#45;&gt;Node5 -->
<g id="edge17" class="edge">
<title>Node16&#45;&gt;Node5</title>
<path fill="none" stroke="midnightblue" d="M505,-382C519.2,-382 533.86,-382 547.7,-382"/>
<polygon fill="midnightblue" stroke="midnightblue" points="504.77,-378.5 494.77,-382 504.77,-385.5 504.77,-378.5"/>
</g>
<!-- Node17&#45;&gt;Node6 -->
<g id="edge19" class="edge">
<title>Node17&#45;&gt;Node6</title>
<path fill="none" stroke="midnightblue" d="M505.13,-338C519.13,-338 533.59,-338 547.25,-338"/>
<polygon fill="midnightblue" stroke="midnightblue" points="505.04,-334.5 495.04,-338 505.04,-341.5 505.04,-334.5"/>
</g>
<!-- Node18&#45;&gt;Node7 -->
<g id="edge21" class="edge">
<title>Node18&#45;&gt;Node7</title>
<path fill="none" stroke="midnightblue" d="M508.08,-300C520.14,-300 532.47,-300 544.28,-300"/>
<polygon fill="midnightblue" stroke="midnightblue" points="508.03,-296.5 498.03,-300 508.03,-303.5 508.03,-296.5"/>
</g>
<!-- Node19&#45;&gt;Node8 -->
<g id="edge23" class="edge">
<title>Node19&#45;&gt;Node8</title>
<path fill="none" stroke="midnightblue" d="M501.62,-258.41C513.24,-258.77 525.24,-259.15 536.9,-259.52"/>
<polygon fill="midnightblue" stroke="midnightblue" points="501.64,-254.91 491.53,-258.09 501.42,-261.9 501.64,-254.91"/>
</g>
<!-- Node20&#45;&gt;Node9 -->
<g id="edge25" class="edge">
<title>Node20&#45;&gt;Node9</title>
<path fill="none" stroke="midnightblue" d="M511.11,-174C521.24,-174 531.51,-174 541.47,-174"/>
<polygon fill="midnightblue" stroke="midnightblue" points="511.04,-170.5 501.04,-174 511.04,-177.5 511.04,-170.5"/>
</g>
<!-- Node21&#45;&gt;Node10 -->
<g id="edge27" class="edge">
<title>Node21&#45;&gt;Node10</title>
<path fill="none" stroke="midnightblue" d="M505,-136C519.2,-136 533.86,-136 547.7,-136"/>
<polygon fill="midnightblue" stroke="midnightblue" points="504.77,-132.5 494.77,-136 504.77,-139.5 504.77,-132.5"/>
</g>
<!-- Node22&#45;&gt;Node11 -->
<g id="edge29" class="edge">
<title>Node22&#45;&gt;Node11</title>
<path fill="none" stroke="midnightblue" d="M505.93,-92C519.59,-92 533.66,-92 546.98,-92"/>
<polygon fill="midnightblue" stroke="midnightblue" points="505.58,-88.5 495.58,-92 505.58,-95.5 505.58,-88.5"/>
</g>
<!-- Node23&#45;&gt;Node12 -->
<g id="edge31" class="edge">
<title>Node23&#45;&gt;Node12</title>
<path fill="none" stroke="midnightblue" d="M505.13,-48C519.13,-48 533.59,-48 547.25,-48"/>
<polygon fill="midnightblue" stroke="midnightblue" points="505.04,-44.5 495.04,-48 505.04,-51.5 505.04,-44.5"/>
</g>
<!-- Node24&#45;&gt;Node13 -->
<g id="edge33" class="edge">
<title>Node24&#45;&gt;Node13</title>
<path fill="none" stroke="midnightblue" d="M505.93,-10C519.59,-10 533.66,-10 546.98,-10"/>
<polygon fill="midnightblue" stroke="midnightblue" points="505.58,-6.5 495.58,-10 505.58,-13.5 505.58,-6.5"/>
</g>
</g>
</svg>
