<?xml version="1.0" encoding="UTF-8" standalone="no"?>
<!DOCTYPE svg PUBLIC "-//W3C//DTD SVG 1.1//EN"
 "http://www.w3.org/Graphics/SVG/1.1/DTD/svg11.dtd">
<!-- Generated by graphviz version 2.43.0 (0)
 -->
<!-- Title: src/hardware/RFIDReader.hpp Pages: 1 -->
<svg width="845pt" height="252pt"
 viewBox="0.00 0.00 844.87 252.00" xmlns="http://www.w3.org/2000/svg" xmlns:xlink="http://www.w3.org/1999/xlink">
<g id="graph0" class="graph" transform="scale(1 1) rotate(0) translate(4 248)">
<title>src/hardware/RFIDReader.hpp</title>
<polygon fill="white" stroke="transparent" points="-4,4 -4,-248 840.87,-248 840.87,4 -4,4"/>
<!-- Node1 -->
<g id="node1" class="node">
<title>Node1</title>
<g id="a_node1"><a xlink:title=" ">
<polygon fill="#bfbfbf" stroke="black" points="622,-224.5 622,-243.5 783,-243.5 783,-224.5 622,-224.5"/>
<text text-anchor="middle" x="702.5" y="-231.5" font-family="Helvetica,sans-Serif" font-size="10.00">src/hardware/RFIDReader.hpp</text>
</a>
</g>
</g>
<!-- Node2 -->
<g id="node2" class="node">
<title>Node2</title>
<g id="a_node2"><a xlink:href="../../da/d14/Device_8hpp.html" target="_top" xlink:title=" ">
<polygon fill="white" stroke="black" points="515.5,-168.5 515.5,-187.5 635.5,-187.5 635.5,-168.5 515.5,-168.5"/>
<text text-anchor="middle" x="575.5" y="-175.5" font-family="Helvetica,sans-Serif" font-size="10.00">hardware/Device.hpp</text>
</a>
</g>
</g>
<!-- Node1&#45;&gt;Node2 -->
<g id="edge1" class="edge">
<title>Node1&#45;&gt;Node2</title>
<path fill="none" stroke="midnightblue" d="M682.38,-224.44C661.48,-215.56 628.57,-201.56 604.78,-191.45"/>
<polygon fill="midnightblue" stroke="midnightblue" points="606.1,-188.21 595.53,-187.52 603.36,-194.65 606.1,-188.21"/>
</g>
<!-- Node3 -->
<g id="node3" class="node">
<title>Node3</title>
<g id="a_node3"><a xlink:href="../../d9/dc8/HardwareFwd_8hpp.html" target="_top" xlink:title=" ">
<polygon fill="white" stroke="black" points="317.5,-112.5 317.5,-131.5 471.5,-131.5 471.5,-112.5 317.5,-112.5"/>
<text text-anchor="middle" x="394.5" y="-119.5" font-family="Helvetica,sans-Serif" font-size="10.00">hardware/HardwareFwd.hpp</text>
</a>
</g>
</g>
<!-- Node1&#45;&gt;Node3 -->
<g id="edge16" class="edge">
<title>Node1&#45;&gt;Node3</title>
<path fill="none" stroke="midnightblue" d="M644.96,-224.48C605.16,-217.46 551.48,-205.75 506.5,-188 472.65,-174.64 436.82,-152.19 415.06,-137.48"/>
<polygon fill="midnightblue" stroke="midnightblue" points="416.86,-134.48 406.64,-131.7 412.9,-140.25 416.86,-134.48"/>
</g>
<!-- Node9 -->
<g id="node9" class="node">
<title>Node9</title>
<g id="a_node9"><a xlink:title=" ">
<polygon fill="white" stroke="#bfbfbf" points="618.5,-0.5 618.5,-19.5 698.5,-19.5 698.5,-0.5 618.5,-0.5"/>
<text text-anchor="middle" x="658.5" y="-7.5" font-family="Helvetica,sans-Serif" font-size="10.00">odb/core.hxx</text>
</a>
</g>
</g>
<!-- Node1&#45;&gt;Node9 -->
<g id="edge19" class="edge">
<title>Node1&#45;&gt;Node9</title>
<path fill="none" stroke="midnightblue" d="M715.53,-224.37C742.79,-205.16 801.67,-157.01 780.5,-112 761.07,-70.69 715.53,-40.48 685.91,-24.35"/>
<polygon fill="midnightblue" stroke="midnightblue" points="687.39,-21.17 676.91,-19.61 684.13,-27.36 687.39,-21.17"/>
</g>
<!-- Node10 -->
<g id="node10" class="node">
<title>Node10</title>
<g id="a_node10"><a xlink:title=" ">
<polygon fill="white" stroke="#bfbfbf" points="716.5,-0.5 716.5,-19.5 760.5,-19.5 760.5,-0.5 716.5,-0.5"/>
<text text-anchor="middle" x="738.5" y="-7.5" font-family="Helvetica,sans-Serif" font-size="10.00">string</text>
</a>
</g>
</g>
<!-- Node1&#45;&gt;Node10 -->
<g id="edge20" class="edge">
<title>Node1&#45;&gt;Node10</title>
<path fill="none" stroke="midnightblue" d="M756.58,-224.47C778.02,-218.15 800.6,-207.14 813.5,-188 846.28,-139.34 842.4,-107.05 813.5,-56 804.21,-39.59 786.27,-28.51 770.27,-21.45"/>
<polygon fill="midnightblue" stroke="midnightblue" points="771.24,-18.06 760.66,-17.56 768.62,-24.55 771.24,-18.06"/>
</g>
<!-- Node12 -->
<g id="node12" class="node">
<title>Node12</title>
<g id="a_node12"><a xlink:title=" ">
<polygon fill="white" stroke="#bfbfbf" points="603.5,-112.5 603.5,-131.5 653.5,-131.5 653.5,-112.5 603.5,-112.5"/>
<text text-anchor="middle" x="628.5" y="-119.5" font-family="Helvetica,sans-Serif" font-size="10.00">cstdint</text>
</a>
</g>
</g>
<!-- Node1&#45;&gt;Node12 -->
<g id="edge17" class="edge">
<title>Node1&#45;&gt;Node12</title>
<path fill="none" stroke="midnightblue" d="M696.69,-224.37C684.48,-206.22 655.95,-163.8 639.93,-139.99"/>
<polygon fill="midnightblue" stroke="midnightblue" points="642.77,-137.94 634.28,-131.59 636.96,-141.84 642.77,-137.94"/>
</g>
<!-- Node13 -->
<g id="node13" class="node">
<title>Node13</title>
<g id="a_node13"><a xlink:title=" ">
<polygon fill="white" stroke="#bfbfbf" points="672,-112.5 672,-131.5 771,-131.5 771,-112.5 672,-112.5"/>
<text text-anchor="middle" x="721.5" y="-119.5" font-family="Helvetica,sans-Serif" font-size="10.00">odb/callback.hxx</text>
</a>
</g>
</g>
<!-- Node1&#45;&gt;Node13 -->
<g id="edge18" class="edge">
<title>Node1&#45;&gt;Node13</title>
<path fill="none" stroke="midnightblue" d="M703.99,-224.37C707.06,-206.62 714.13,-165.67 718.29,-141.6"/>
<polygon fill="midnightblue" stroke="midnightblue" points="721.76,-142.04 720.02,-131.59 714.86,-140.85 721.76,-142.04"/>
</g>
<!-- Node2&#45;&gt;Node3 -->
<g id="edge2" class="edge">
<title>Node2&#45;&gt;Node3</title>
<path fill="none" stroke="midnightblue" d="M546.82,-168.44C515.97,-159.24 466.77,-144.56 432.67,-134.39"/>
<polygon fill="midnightblue" stroke="midnightblue" points="433.63,-131.02 423.05,-131.52 431.63,-137.73 433.63,-131.02"/>
</g>
<!-- Node4 -->
<g id="node4" class="node">
<title>Node4</title>
<g id="a_node4"><a xlink:href="../../dc/dea/Uuid_8hpp.html" target="_top" xlink:title=" ">
<polygon fill="white" stroke="black" points="422,-56.5 422,-75.5 509,-75.5 509,-56.5 422,-56.5"/>
<text text-anchor="middle" x="465.5" y="-63.5" font-family="Helvetica,sans-Serif" font-size="10.00">tools/Uuid.hpp</text>
</a>
</g>
</g>
<!-- Node2&#45;&gt;Node4 -->
<g id="edge11" class="edge">
<title>Node2&#45;&gt;Node4</title>
<path fill="none" stroke="midnightblue" d="M564.79,-168.42C554.02,-159.63 537.11,-145.4 523.5,-132 507.59,-116.33 490.74,-97.11 479.32,-83.65"/>
<polygon fill="midnightblue" stroke="midnightblue" points="481.78,-81.14 472.67,-75.73 476.42,-85.64 481.78,-81.14"/>
</g>
<!-- Node2&#45;&gt;Node9 -->
<g id="edge14" class="edge">
<title>Node2&#45;&gt;Node9</title>
<path fill="none" stroke="midnightblue" d="M570.98,-168.24C560.74,-147.07 538.4,-92.18 561.5,-56 572.04,-39.5 590.36,-28.95 608.26,-22.26"/>
<polygon fill="midnightblue" stroke="midnightblue" points="609.76,-25.45 618.1,-18.93 607.51,-18.82 609.76,-25.45"/>
</g>
<!-- Node2&#45;&gt;Node10 -->
<g id="edge15" class="edge">
<title>Node2&#45;&gt;Node10</title>
<path fill="none" stroke="midnightblue" d="M576.22,-168.21C577.69,-154.91 582.04,-129.39 594.5,-112 624.37,-70.32 677.01,-39.86 709.7,-23.84"/>
<polygon fill="midnightblue" stroke="midnightblue" points="711.24,-26.98 718.76,-19.52 708.22,-20.66 711.24,-26.98"/>
</g>
<!-- Node2&#45;&gt;Node12 -->
<g id="edge12" class="edge">
<title>Node2&#45;&gt;Node12</title>
<path fill="none" stroke="midnightblue" d="M584.25,-168.08C591.97,-160.22 603.4,-148.57 612.72,-139.08"/>
<polygon fill="midnightblue" stroke="midnightblue" points="615.4,-141.34 619.91,-131.75 610.41,-136.44 615.4,-141.34"/>
</g>
<!-- Node2&#45;&gt;Node13 -->
<g id="edge13" class="edge">
<title>Node2&#45;&gt;Node13</title>
<path fill="none" stroke="midnightblue" d="M598.63,-168.44C622.98,-159.44 661.51,-145.19 688.92,-135.05"/>
<polygon fill="midnightblue" stroke="midnightblue" points="690.31,-138.27 698.47,-131.52 687.88,-131.7 690.31,-138.27"/>
</g>
<!-- Node3&#45;&gt;Node4 -->
<g id="edge3" class="edge">
<title>Node3&#45;&gt;Node4</title>
<path fill="none" stroke="midnightblue" d="M405.91,-112.32C416.61,-104.18 432.84,-91.84 445.66,-82.09"/>
<polygon fill="midnightblue" stroke="midnightblue" points="448.04,-84.67 453.89,-75.83 443.81,-79.1 448.04,-84.67"/>
</g>
<!-- Node11 -->
<g id="node11" class="node">
<title>Node11</title>
<g id="a_node11"><a xlink:title=" ">
<polygon fill="white" stroke="#bfbfbf" points="345.5,-56.5 345.5,-75.5 403.5,-75.5 403.5,-56.5 345.5,-56.5"/>
<text text-anchor="middle" x="374.5" y="-63.5" font-family="Helvetica,sans-Serif" font-size="10.00">memory</text>
</a>
</g>
</g>
<!-- Node3&#45;&gt;Node11 -->
<g id="edge10" class="edge">
<title>Node3&#45;&gt;Node11</title>
<path fill="none" stroke="midnightblue" d="M391.2,-112.08C388.52,-104.85 384.65,-94.41 381.31,-85.4"/>
<polygon fill="midnightblue" stroke="midnightblue" points="384.5,-83.91 377.74,-75.75 377.93,-86.34 384.5,-83.91"/>
</g>
<!-- Node5 -->
<g id="node5" class="node">
<title>Node5</title>
<g id="a_node5"><a xlink:title=" ">
<polygon fill="white" stroke="#bfbfbf" points="475,-0.5 475,-19.5 600,-19.5 600,-0.5 475,-0.5"/>
<text text-anchor="middle" x="537.5" y="-7.5" font-family="Helvetica,sans-Serif" font-size="10.00">boost/lexical_cast.hpp</text>
</a>
</g>
</g>
<!-- Node4&#45;&gt;Node5 -->
<g id="edge4" class="edge">
<title>Node4&#45;&gt;Node5</title>
<path fill="none" stroke="midnightblue" d="M477.07,-56.32C487.92,-48.18 504.38,-35.84 517.38,-26.09"/>
<polygon fill="midnightblue" stroke="midnightblue" points="519.82,-28.63 525.72,-19.83 515.62,-23.03 519.82,-28.63"/>
</g>
<!-- Node6 -->
<g id="node6" class="node">
<title>Node6</title>
<g id="a_node6"><a xlink:title=" ">
<polygon fill="white" stroke="#bfbfbf" points="0,-0.5 0,-19.5 181,-19.5 181,-0.5 0,-0.5"/>
<text text-anchor="middle" x="90.5" y="-7.5" font-family="Helvetica,sans-Serif" font-size="10.00">boost/uuid/random_generator.hpp</text>
</a>
</g>
</g>
<!-- Node4&#45;&gt;Node6 -->
<g id="edge5" class="edge">
<title>Node4&#45;&gt;Node6</title>
<path fill="none" stroke="midnightblue" d="M421.84,-57.48C418.68,-56.97 415.54,-56.47 412.5,-56 328.18,-42.95 231.17,-29.62 165.85,-20.89"/>
<polygon fill="midnightblue" stroke="midnightblue" points="166.02,-17.39 155.65,-19.53 165.1,-24.32 166.02,-17.39"/>
</g>
<!-- Node7 -->
<g id="node7" class="node">
<title>Node7</title>
<g id="a_node7"><a xlink:title=" ">
<polygon fill="white" stroke="#bfbfbf" points="199,-0.5 199,-19.5 312,-19.5 312,-0.5 199,-0.5"/>
<text text-anchor="middle" x="255.5" y="-7.5" font-family="Helvetica,sans-Serif" font-size="10.00">boost/uuid/uuid.hpp</text>
</a>
</g>
</g>
<!-- Node4&#45;&gt;Node7 -->
<g id="edge6" class="edge">
<title>Node4&#45;&gt;Node7</title>
<path fill="none" stroke="midnightblue" d="M432.22,-56.44C396.05,-47.14 338.12,-32.25 298.52,-22.06"/>
<polygon fill="midnightblue" stroke="midnightblue" points="299.18,-18.62 288.62,-19.52 297.43,-25.4 299.18,-18.62"/>
</g>
<!-- Node8 -->
<g id="node8" class="node">
<title>Node8</title>
<g id="a_node8"><a xlink:title=" ">
<polygon fill="white" stroke="#bfbfbf" points="330,-0.5 330,-19.5 457,-19.5 457,-0.5 330,-0.5"/>
<text text-anchor="middle" x="393.5" y="-7.5" font-family="Helvetica,sans-Serif" font-size="10.00">boost/uuid/uuid_io.hpp</text>
</a>
</g>
</g>
<!-- Node4&#45;&gt;Node8 -->
<g id="edge7" class="edge">
<title>Node4&#45;&gt;Node8</title>
<path fill="none" stroke="midnightblue" d="M453.93,-56.32C443.08,-48.18 426.62,-35.84 413.62,-26.09"/>
<polygon fill="midnightblue" stroke="midnightblue" points="415.38,-23.03 405.28,-19.83 411.18,-28.63 415.38,-23.03"/>
</g>
<!-- Node4&#45;&gt;Node9 -->
<g id="edge8" class="edge">
<title>Node4&#45;&gt;Node9</title>
<path fill="none" stroke="midnightblue" d="M496.08,-56.44C529.11,-47.2 581.89,-32.44 618.27,-22.26"/>
<polygon fill="midnightblue" stroke="midnightblue" points="619.37,-25.58 628.06,-19.52 617.49,-18.84 619.37,-25.58"/>
</g>
<!-- Node4&#45;&gt;Node10 -->
<g id="edge9" class="edge">
<title>Node4&#45;&gt;Node10</title>
<path fill="none" stroke="midnightblue" d="M509.05,-58.23C555.62,-50.7 631.79,-37.54 706.21,-20.12"/>
<polygon fill="midnightblue" stroke="midnightblue" points="707.29,-23.46 716.22,-17.75 705.68,-16.65 707.29,-23.46"/>
</g>
</g>
</svg>
