<?xml version="1.0" encoding="UTF-8" standalone="no"?>
<!DOCTYPE svg PUBLIC "-//W3C//DTD SVG 1.1//EN"
 "http://www.w3.org/Graphics/SVG/1.1/DTD/svg11.dtd">
<!-- Generated by graphviz version 2.43.0 (0)
 -->
<!-- Title: src/core/CoreAPI.hpp Pages: 1 -->
<!--zoomable 285 -->
<svg id="main" version="1.1" xmlns="http://www.w3.org/2000/svg" xmlns:xlink="http://www.w3.org/1999/xlink" xml:space="preserve" onload="init(evt)">
<style type="text/css"><![CDATA[
.edge:hover path { stroke: red; }
.edge:hover polygon { stroke: red; fill: red; }
]]></style>
<script type="text/javascript"><![CDATA[
var edges = document.getElementsByTagName('g');
if (edges && edges.length) {
  for (var i=0;i<edges.length;i++) {
    if (edges[i].id.substr(0,4)=='edge') {
      edges[i].setAttribute('class','edge');
    }
  }
}
]]></script>
        <defs>
                <circle id="rim" cx="0" cy="0" r="7"/>
                <circle id="rim2" cx="0" cy="0" r="3.5"/>
                <g id="zoomPlus">
                        <use xlink:href="#rim" fill="#404040">
                                <set attributeName="fill" to="#808080" begin="zoomplus.mouseover" end="zoomplus.mouseout"/>
                        </use>
                        <path d="M-4,0h8M0,-4v8" fill="none" stroke="white" stroke-width="1.5" pointer-events="none"/>
                </g>
                <g id="zoomMin">
                        <use xlink:href="#rim" fill="#404040">
                                <set attributeName="fill" to="#808080" begin="zoomminus.mouseover" end="zoomminus.mouseout"/>
                        </use>
                        <path d="M-4,0h8" fill="none" stroke="white" stroke-width="1.5" pointer-events="none"/>
                </g>
                <g id="dirArrow">
                        <path fill="none" stroke="white" stroke-width="1.5" d="M0,-3.0v7 M-2.5,-0.5L0,-3.0L2.5,-0.5"/>
                </g>
               <g id="resetDef">
                       <use xlink:href="#rim2" fill="#404040">
                               <set attributeName="fill" to="#808080" begin="reset.mouseover" end="reset.mouseout"/>
                       </use>
               </g>
        </defs>

<script type="text/javascript">
var viewWidth = 4304;
var viewHeight = 285;
var sectionId = 'dynsection-1';
</script>
<script xlink:href="../../svgpan.js"/>
<svg id="graph" class="graph">
<g id="viewport">
<title>src/core/CoreAPI.hpp</title>
<polygon fill="white" stroke="transparent" points="-4,4 -4,-281 4300,-281 4300,4 -4,4"/>
<!-- Node1 -->
<g id="node1" class="node">
<title>Node1</title>
<g id="a_node1"><a xlink:title=" ">
<polygon fill="#bfbfbf" stroke="black" points="3896.5,-257.5 3896.5,-276.5 4013.5,-276.5 4013.5,-257.5 3896.5,-257.5"/>
<text text-anchor="middle" x="3955" y="-264.5" font-family="Helvetica,sans-Serif" font-size="10.00">src/core/CoreAPI.hpp</text>
</a>
</g>
</g>
<!-- Node2 -->
<g id="node2" class="node">
<title>Node2</title>
<g id="a_node2"><a xlink:href="../../d3/d1e/CoreAPI_8cpp.html" target="_top" xlink:title=" ">
<polygon fill="white" stroke="black" points="0,-73 0,-92 116,-92 116,-73 0,-73"/>
<text text-anchor="middle" x="58" y="-80" font-family="Helvetica,sans-Serif" font-size="10.00">src/core/CoreAPI.cpp</text>
</a>
</g>
</g>
<!-- Node1&#45;&gt;Node2 -->
<g id="edge1" class="edge">
<title>Node1&#45;&gt;Node2</title>
<path fill="none" stroke="midnightblue" d="M3886.15,-264.91C3469.83,-258.16 1284.27,-220.55 616,-165 396.51,-146.76 341.9,-136.21 125,-98 115.27,-96.29 104.81,-94.16 95.11,-92.07"/>
<polygon fill="midnightblue" stroke="midnightblue" points="3886.18,-268.41 3896.24,-265.07 3886.29,-261.41 3886.18,-268.41"/>
</g>
<!-- Node3 -->
<g id="node3" class="node">
<title>Node3</title>
<g id="a_node3"><a xlink:href="../../d6/de5/CoreUtils_8hpp.html" target="_top" xlink:title=" ">
<polygon fill="white" stroke="black" points="3135,-201.5 3135,-220.5 3259,-220.5 3259,-201.5 3135,-201.5"/>
<text text-anchor="middle" x="3197" y="-208.5" font-family="Helvetica,sans-Serif" font-size="10.00">src/core/CoreUtils.hpp</text>
</a>
</g>
</g>
<!-- Node1&#45;&gt;Node3 -->
<g id="edge2" class="edge">
<title>Node1&#45;&gt;Node3</title>
<path fill="none" stroke="midnightblue" d="M3886.27,-261.1C3739.88,-250.68 3399.29,-226.41 3259.04,-216.42"/>
<polygon fill="midnightblue" stroke="midnightblue" points="3886.24,-264.61 3896.47,-261.83 3886.74,-257.63 3886.24,-264.61"/>
</g>
<!-- Node32 -->
<g id="node32" class="node">
<title>Node32</title>
<g id="a_node32"><a xlink:href="../../d7/d86/APIAuth_8cpp.html" target="_top" xlink:title=" ">
<polygon fill="white" stroke="black" points="3894,-134.5 3894,-164.5 4016,-164.5 4016,-134.5 3894,-134.5"/>
<text text-anchor="start" x="3902" y="-152.5" font-family="Helvetica,sans-Serif" font-size="10.00">src/modules/websock</text>
<text text-anchor="middle" x="3955" y="-141.5" font-family="Helvetica,sans-Serif" font-size="10.00">&#45;api/api/APIAuth.cpp</text>
</a>
</g>
</g>
<!-- Node1&#45;&gt;Node32 -->
<g id="edge57" class="edge">
<title>Node1&#45;&gt;Node32</title>
<path fill="none" stroke="midnightblue" d="M3955,-247.07C3955,-223.9 3955,-185.22 3955,-164.55"/>
<polygon fill="midnightblue" stroke="midnightblue" points="3951.5,-247.32 3955,-257.32 3958.5,-247.32 3951.5,-247.32"/>
</g>
<!-- Node34 -->
<g id="node34" class="node">
<title>Node34</title>
<g id="a_node34"><a xlink:href="../../d1/d43/Restart_8cpp.html" target="_top" xlink:title=" ">
<polygon fill="white" stroke="black" points="4034,-134.5 4034,-164.5 4156,-164.5 4156,-134.5 4034,-134.5"/>
<text text-anchor="start" x="4042" y="-152.5" font-family="Helvetica,sans-Serif" font-size="10.00">src/modules/websock</text>
<text text-anchor="middle" x="4095" y="-141.5" font-family="Helvetica,sans-Serif" font-size="10.00">&#45;api/api/Restart.cpp</text>
</a>
</g>
</g>
<!-- Node1&#45;&gt;Node34 -->
<g id="edge58" class="edge">
<title>Node1&#45;&gt;Node34</title>
<path fill="none" stroke="midnightblue" d="M3973.51,-250.73C4000.82,-228.2 4051.54,-186.36 4077.98,-164.55"/>
<polygon fill="midnightblue" stroke="midnightblue" points="3971.01,-248.26 3965.52,-257.32 3975.46,-253.65 3971.01,-248.26"/>
</g>
<!-- Node35 -->
<g id="node35" class="node">
<title>Node35</title>
<g id="a_node35"><a xlink:href="../../d9/d6b/WebSockAPI_8cpp.html" target="_top" xlink:title=" ">
<polygon fill="white" stroke="black" points="4174,-134.5 4174,-164.5 4296,-164.5 4296,-134.5 4174,-134.5"/>
<text text-anchor="start" x="4182" y="-152.5" font-family="Helvetica,sans-Serif" font-size="10.00">src/modules/websock</text>
<text text-anchor="middle" x="4235" y="-141.5" font-family="Helvetica,sans-Serif" font-size="10.00">&#45;api/WebSockAPI.cpp</text>
</a>
</g>
</g>
<!-- Node1&#45;&gt;Node35 -->
<g id="edge59" class="edge">
<title>Node1&#45;&gt;Node35</title>
<path fill="none" stroke="midnightblue" d="M3985.52,-253.41C4038.22,-231.67 4145.9,-187.25 4200.95,-164.55"/>
<polygon fill="midnightblue" stroke="midnightblue" points="3983.96,-250.27 3976.05,-257.32 3986.62,-256.74 3983.96,-250.27"/>
</g>
<!-- Node4 -->
<g id="node4" class="node">
<title>Node4</title>
<g id="a_node4"><a xlink:href="../../df/db8/kernel_8hpp.html" target="_top" xlink:title=" ">
<polygon fill="white" stroke="black" points="1479.5,-140 1479.5,-159 1588.5,-159 1588.5,-140 1479.5,-140"/>
<text text-anchor="middle" x="1534" y="-147" font-family="Helvetica,sans-Serif" font-size="10.00">src/core/kernel.hpp</text>
</a>
</g>
</g>
<!-- Node3&#45;&gt;Node4 -->
<g id="edge3" class="edge">
<title>Node3&#45;&gt;Node4</title>
<path fill="none" stroke="midnightblue" d="M3124.81,-207.42C2845.02,-197.41 1835.52,-161.29 1588.72,-152.46"/>
<polygon fill="midnightblue" stroke="midnightblue" points="3124.72,-210.92 3134.84,-207.78 3124.98,-203.92 3124.72,-210.92"/>
</g>
<!-- Node6 -->
<g id="node6" class="node">
<title>Node6</title>
<g id="a_node6"><a xlink:href="../../d4/dd4/CoreUtils_8cpp.html" target="_top" xlink:title=" ">
<polygon fill="white" stroke="black" points="2423.5,-73 2423.5,-92 2546.5,-92 2546.5,-73 2423.5,-73"/>
<text text-anchor="middle" x="2485" y="-80" font-family="Helvetica,sans-Serif" font-size="10.00">src/core/CoreUtils.cpp</text>
</a>
</g>
</g>
<!-- Node3&#45;&gt;Node6 -->
<g id="edge25" class="edge">
<title>Node3&#45;&gt;Node6</title>
<path fill="none" stroke="midnightblue" d="M3124.72,-208.56C3011.86,-205.39 2799.62,-195.46 2731,-165 2712.31,-156.7 2715.08,-143.56 2697,-134 2681.91,-126.02 2582.71,-104.19 2525.5,-92"/>
<polygon fill="midnightblue" stroke="midnightblue" points="3124.9,-212.07 3134.99,-208.84 3125.09,-205.07 3124.9,-212.07"/>
</g>
<!-- Node11 -->
<g id="node11" class="node">
<title>Node11</title>
<g id="a_node11"><a xlink:href="../../d4/d28/RemoteControl_8cpp.html" target="_top" xlink:title=" ">
<polygon fill="white" stroke="black" points="2565,-73 2565,-92 2717,-92 2717,-73 2565,-73"/>
<text text-anchor="middle" x="2641" y="-80" font-family="Helvetica,sans-Serif" font-size="10.00">src/core/RemoteControl.cpp</text>
</a>
</g>
</g>
<!-- Node3&#45;&gt;Node11 -->
<g id="edge26" class="edge">
<title>Node3&#45;&gt;Node11</title>
<path fill="none" stroke="midnightblue" d="M3124.65,-208.66C3046.02,-205.58 2917.38,-195.77 2811,-165 2749.69,-147.27 2683.14,-109.26 2654.91,-92.16"/>
<polygon fill="midnightblue" stroke="midnightblue" points="3124.81,-212.17 3134.93,-209.04 3125.06,-205.17 3124.81,-212.17"/>
</g>
<!-- Node16 -->
<g id="node16" class="node">
<title>Node16</title>
<g id="a_node16"><a xlink:href="../../df/dac/AuthDBModule_8cpp.html" target="_top" xlink:title=" ">
<polygon fill="white" stroke="black" points="2735,-67.5 2735,-97.5 2863,-97.5 2863,-67.5 2735,-67.5"/>
<text text-anchor="start" x="2743" y="-85.5" font-family="Helvetica,sans-Serif" font-size="10.00">src/modules/auth/auth</text>
<text text-anchor="middle" x="2799" y="-74.5" font-family="Helvetica,sans-Serif" font-size="10.00">&#45;db/AuthDBModule.cpp</text>
</a>
</g>
</g>
<!-- Node3&#45;&gt;Node16 -->
<g id="edge27" class="edge">
<title>Node3&#45;&gt;Node16</title>
<path fill="none" stroke="midnightblue" d="M3124.44,-208.86C3033.29,-206.1 2883.43,-196.71 2839,-165 2816.42,-148.89 2805.98,-116.41 2801.66,-97.68"/>
<polygon fill="midnightblue" stroke="midnightblue" points="3124.61,-212.37 3134.7,-209.16 3124.81,-205.37 3124.61,-212.37"/>
</g>
<!-- Node17 -->
<g id="node17" class="node">
<title>Node17</title>
<g id="a_node17"><a xlink:href="../../d8/d37/AuthFileModule_8cpp.html" target="_top" xlink:title=" ">
<polygon fill="white" stroke="black" points="2881,-67.5 2881,-97.5 3015,-97.5 3015,-67.5 2881,-67.5"/>
<text text-anchor="start" x="2889" y="-85.5" font-family="Helvetica,sans-Serif" font-size="10.00">src/modules/auth/auth</text>
<text text-anchor="middle" x="2948" y="-74.5" font-family="Helvetica,sans-Serif" font-size="10.00">&#45;file/AuthFileModule.cpp</text>
</a>
</g>
</g>
<!-- Node3&#45;&gt;Node17 -->
<g id="edge29" class="edge">
<title>Node3&#45;&gt;Node17</title>
<path fill="none" stroke="midnightblue" d="M3124.67,-205.68C3028.06,-199.16 2866.89,-185.36 2849,-165 2825.26,-138 2870.88,-112.63 2907.79,-97.58"/>
<polygon fill="midnightblue" stroke="midnightblue" points="3124.47,-209.17 3134.68,-206.34 3124.93,-202.19 3124.47,-209.17"/>
</g>
<!-- Node23 -->
<g id="node23" class="node">
<title>Node23</title>
<g id="a_node23"><a xlink:href="../../d9/d8d/APISession_8cpp.html" target="_top" xlink:title=" ">
<polygon fill="white" stroke="black" points="134,-67.5 134,-97.5 264,-97.5 264,-67.5 134,-67.5"/>
<text text-anchor="start" x="142" y="-85.5" font-family="Helvetica,sans-Serif" font-size="10.00">src/modules/websock</text>
<text text-anchor="middle" x="199" y="-74.5" font-family="Helvetica,sans-Serif" font-size="10.00">&#45;api/api/APISession.cpp</text>
</a>
</g>
</g>
<!-- Node3&#45;&gt;Node23 -->
<g id="edge38" class="edge">
<title>Node3&#45;&gt;Node23</title>
<path fill="none" stroke="midnightblue" d="M3124.4,-208.88C2886.84,-205.07 2111.14,-191.29 1470,-165 937.61,-143.17 801.69,-164.27 273,-98 270.14,-97.64 267.23,-97.24 264.29,-96.8"/>
<polygon fill="midnightblue" stroke="midnightblue" points="3124.58,-212.39 3134.63,-209.05 3124.69,-205.39 3124.58,-212.39"/>
</g>
<!-- Node25 -->
<g id="node25" class="node">
<title>Node25</title>
<g id="a_node25"><a xlink:href="../../da/d9b/AuthFileInstance_8cpp.html" target="_top" xlink:title=" ">
<polygon fill="white" stroke="black" points="2371,-134.5 2371,-164.5 2511,-164.5 2511,-134.5 2371,-134.5"/>
<text text-anchor="start" x="2379" y="-152.5" font-family="Helvetica,sans-Serif" font-size="10.00">src/modules/auth/auth</text>
<text text-anchor="middle" x="2441" y="-141.5" font-family="Helvetica,sans-Serif" font-size="10.00">&#45;file/AuthFileInstance.cpp</text>
</a>
</g>
</g>
<!-- Node3&#45;&gt;Node25 -->
<g id="edge28" class="edge">
<title>Node3&#45;&gt;Node25</title>
<path fill="none" stroke="midnightblue" d="M3124.56,-207.92C3000.4,-203.75 2739.15,-192.3 2520,-165 2517.09,-164.64 2514.13,-164.24 2511.15,-163.81"/>
<polygon fill="midnightblue" stroke="midnightblue" points="3124.59,-211.43 3134.7,-208.26 3124.82,-204.43 3124.59,-211.43"/>
</g>
<!-- Node26 -->
<g id="node26" class="node">
<title>Node26</title>
<g id="a_node26"><a xlink:href="../../de/d21/BaseModule_8cpp.html" target="_top" xlink:title=" ">
<polygon fill="white" stroke="black" points="2529.5,-140 2529.5,-159 2688.5,-159 2688.5,-140 2529.5,-140"/>
<text text-anchor="middle" x="2609" y="-147" font-family="Helvetica,sans-Serif" font-size="10.00">src/modules/BaseModule.cpp</text>
</a>
</g>
</g>
<!-- Node3&#45;&gt;Node26 -->
<g id="edge30" class="edge">
<title>Node3&#45;&gt;Node26</title>
<path fill="none" stroke="midnightblue" d="M3124.5,-204.87C3027.91,-197.7 2851.77,-183.46 2702,-165 2688.38,-163.32 2673.68,-161.18 2660.08,-159.07"/>
<polygon fill="midnightblue" stroke="midnightblue" points="3124.51,-208.38 3134.74,-205.63 3125.02,-201.4 3124.51,-208.38"/>
</g>
<!-- Node27 -->
<g id="node27" class="node">
<title>Node27</title>
<g id="a_node27"><a xlink:href="../../d6/d95/PFDigitalModule_8cpp.html" target="_top" xlink:title=" ">
<polygon fill="white" stroke="black" points="3504,-0.5 3504,-30.5 3644,-30.5 3644,-0.5 3504,-0.5"/>
<text text-anchor="start" x="3512" y="-18.5" font-family="Helvetica,sans-Serif" font-size="10.00">src/modules/pifacedigital</text>
<text text-anchor="middle" x="3574" y="-7.5" font-family="Helvetica,sans-Serif" font-size="10.00">/PFDigitalModule.cpp</text>
</a>
</g>
</g>
<!-- Node3&#45;&gt;Node27 -->
<g id="edge31" class="edge">
<title>Node3&#45;&gt;Node27</title>
<path fill="none" stroke="midnightblue" d="M3269.16,-207.27C3346.22,-202.97 3461.86,-192.09 3496,-165 3532.72,-135.86 3511.78,-107.72 3535,-67 3542.46,-53.91 3553,-40.48 3561.24,-30.76"/>
<polygon fill="midnightblue" stroke="midnightblue" points="3268.83,-203.78 3259.03,-207.81 3269.2,-210.77 3268.83,-203.78"/>
</g>
<!-- Node28 -->
<g id="node28" class="node">
<title>Node28</title>
<g id="a_node28"><a xlink:href="../../db/df9/ReplicationModule_8hpp.html" target="_top" xlink:title=" ">
<polygon fill="white" stroke="black" points="3544.5,-134.5 3544.5,-164.5 3675.5,-164.5 3675.5,-134.5 3544.5,-134.5"/>
<text text-anchor="start" x="3552.5" y="-152.5" font-family="Helvetica,sans-Serif" font-size="10.00">src/modules/replication</text>
<text text-anchor="middle" x="3610" y="-141.5" font-family="Helvetica,sans-Serif" font-size="10.00">/ReplicationModule.hpp</text>
</a>
</g>
</g>
<!-- Node3&#45;&gt;Node28 -->
<g id="edge32" class="edge">
<title>Node3&#45;&gt;Node28</title>
<path fill="none" stroke="midnightblue" d="M3269.22,-201.19C3336.76,-192.73 3440.39,-179.17 3530,-165 3534.6,-164.27 3539.34,-163.49 3544.12,-162.68"/>
<polygon fill="midnightblue" stroke="midnightblue" points="3268.6,-197.74 3259.11,-202.45 3269.47,-204.69 3268.6,-197.74"/>
</g>
<!-- Node30 -->
<g id="node30" class="node">
<title>Node30</title>
<g id="a_node30"><a xlink:href="../../d2/dac/ReplicationModule_8cpp.html" target="_top" xlink:title=" ">
<polygon fill="white" stroke="black" points="3693.5,-67.5 3693.5,-97.5 3824.5,-97.5 3824.5,-67.5 3693.5,-67.5"/>
<text text-anchor="start" x="3701.5" y="-85.5" font-family="Helvetica,sans-Serif" font-size="10.00">src/modules/replication</text>
<text text-anchor="middle" x="3759" y="-74.5" font-family="Helvetica,sans-Serif" font-size="10.00">/ReplicationModule.cpp</text>
</a>
</g>
</g>
<!-- Node3&#45;&gt;Node30 -->
<g id="edge35" class="edge">
<title>Node3&#45;&gt;Node30</title>
<path fill="none" stroke="midnightblue" d="M3269.74,-209.61C3387.3,-207.94 3613.08,-200.09 3684,-165 3699.77,-157.2 3731.32,-118.9 3748.03,-97.7"/>
<polygon fill="midnightblue" stroke="midnightblue" points="3269.35,-206.12 3259.4,-209.75 3269.44,-213.12 3269.35,-206.12"/>
</g>
<!-- Node31 -->
<g id="node31" class="node">
<title>Node31</title>
<g id="a_node31"><a xlink:href="../../da/d6f/SMTPModule_8cpp.html" target="_top" xlink:title=" ">
<polygon fill="white" stroke="black" points="2858,-140 2858,-159 3048,-159 3048,-140 2858,-140"/>
<text text-anchor="middle" x="2953" y="-147" font-family="Helvetica,sans-Serif" font-size="10.00">src/modules/smtp/SMTPModule.cpp</text>
</a>
</g>
</g>
<!-- Node3&#45;&gt;Node31 -->
<g id="edge36" class="edge">
<title>Node3&#45;&gt;Node31</title>
<path fill="none" stroke="midnightblue" d="M3152.06,-199.04C3104.69,-187.49 3031.08,-169.54 2987.89,-159.01"/>
<polygon fill="midnightblue" stroke="midnightblue" points="3151.5,-202.51 3162.04,-201.48 3153.15,-195.71 3151.5,-202.51"/>
</g>
<!-- Node3&#45;&gt;Node32 -->
<g id="edge37" class="edge">
<title>Node3&#45;&gt;Node32</title>
<path fill="none" stroke="midnightblue" d="M3269.71,-208.56C3395.59,-205.33 3662.05,-195.23 3885,-165 3887.83,-164.62 3890.71,-164.18 3893.62,-163.72"/>
<polygon fill="midnightblue" stroke="midnightblue" points="3269.34,-205.07 3259.43,-208.82 3269.51,-212.07 3269.34,-205.07"/>
</g>
<!-- Node33 -->
<g id="node33" class="node">
<title>Node33</title>
<g id="a_node33"><a xlink:href="../../da/d62/AuditGet_8cpp.html" target="_top" xlink:title=" ">
<polygon fill="white" stroke="black" points="3066,-134.5 3066,-164.5 3188,-164.5 3188,-134.5 3066,-134.5"/>
<text text-anchor="start" x="3074" y="-152.5" font-family="Helvetica,sans-Serif" font-size="10.00">src/modules/websock</text>
<text text-anchor="middle" x="3127" y="-141.5" font-family="Helvetica,sans-Serif" font-size="10.00">&#45;api/api/AuditGet.cpp</text>
</a>
</g>
</g>
<!-- Node3&#45;&gt;Node33 -->
<g id="edge39" class="edge">
<title>Node3&#45;&gt;Node33</title>
<path fill="none" stroke="midnightblue" d="M3179.26,-194.92C3168.27,-185.58 3154.25,-173.66 3143.5,-164.52"/>
<polygon fill="midnightblue" stroke="midnightblue" points="3177.08,-197.67 3186.97,-201.48 3181.62,-192.33 3177.08,-197.67"/>
</g>
<!-- Node3&#45;&gt;Node34 -->
<g id="edge40" class="edge">
<title>Node3&#45;&gt;Node34</title>
<path fill="none" stroke="midnightblue" d="M3269.15,-209.71C3413.36,-208.33 3747.22,-201.11 4025,-165 4027.83,-164.63 4030.72,-164.21 4033.63,-163.76"/>
<polygon fill="midnightblue" stroke="midnightblue" points="3269.06,-206.21 3259.09,-209.8 3269.12,-213.21 3269.06,-206.21"/>
</g>
<!-- Node3&#45;&gt;Node35 -->
<g id="edge41" class="edge">
<title>Node3&#45;&gt;Node35</title>
<path fill="none" stroke="midnightblue" d="M3269.29,-210.52C3430.66,-210.85 3832.21,-206.94 4165,-165 4167.83,-164.64 4170.72,-164.23 4173.63,-163.78"/>
<polygon fill="midnightblue" stroke="midnightblue" points="3269.02,-207.02 3259.01,-210.5 3269,-214.02 3269.02,-207.02"/>
</g>
<!-- Node36 -->
<g id="node36" class="node">
<title>Node36</title>
<g id="a_node36"><a xlink:href="../../da/df4/websock-api_2WSHelperThread_8hpp.html" target="_top" xlink:title=" ">
<polygon fill="white" stroke="black" points="3346.5,-134.5 3346.5,-164.5 3487.5,-164.5 3487.5,-134.5 3346.5,-134.5"/>
<text text-anchor="start" x="3354.5" y="-152.5" font-family="Helvetica,sans-Serif" font-size="10.00">src/modules/websock</text>
<text text-anchor="middle" x="3417" y="-141.5" font-family="Helvetica,sans-Serif" font-size="10.00">&#45;api/WSHelperThread.hpp</text>
</a>
</g>
</g>
<!-- Node3&#45;&gt;Node36 -->
<g id="edge42" class="edge">
<title>Node3&#45;&gt;Node36</title>
<path fill="none" stroke="midnightblue" d="M3238.19,-198.86C3274.11,-189.14 3326.39,-175.01 3365.15,-164.52"/>
<polygon fill="midnightblue" stroke="midnightblue" points="3237.26,-195.49 3228.52,-201.48 3239.09,-202.24 3237.26,-195.49"/>
</g>
<!-- Node43 -->
<g id="node43" class="node">
<title>Node43</title>
<g id="a_node43"><a xlink:href="../../d4/d2c/WSServer_8cpp.html" target="_top" xlink:title=" ">
<polygon fill="white" stroke="black" points="3206,-134.5 3206,-164.5 3328,-164.5 3328,-134.5 3206,-134.5"/>
<text text-anchor="start" x="3214" y="-152.5" font-family="Helvetica,sans-Serif" font-size="10.00">src/modules/websock</text>
<text text-anchor="middle" x="3267" y="-141.5" font-family="Helvetica,sans-Serif" font-size="10.00">&#45;api/WSServer.cpp</text>
</a>
</g>
</g>
<!-- Node3&#45;&gt;Node43 -->
<g id="edge52" class="edge">
<title>Node3&#45;&gt;Node43</title>
<path fill="none" stroke="midnightblue" d="M3214.74,-194.92C3225.73,-185.58 3239.75,-173.66 3250.5,-164.52"/>
<polygon fill="midnightblue" stroke="midnightblue" points="3212.38,-192.33 3207.03,-201.48 3216.92,-197.67 3212.38,-192.33"/>
</g>
<!-- Node44 -->
<g id="node44" class="node">
<title>Node44</title>
<g id="a_node44"><a xlink:href="../../d8/dfd/TestHelper_8hpp.html" target="_top" xlink:title=" ">
<polygon fill="white" stroke="black" points="3732,-140 3732,-159 3876,-159 3876,-140 3732,-140"/>
<text text-anchor="middle" x="3804" y="-147" font-family="Helvetica,sans-Serif" font-size="10.00">test/helper/TestHelper.hpp</text>
</a>
</g>
</g>
<!-- Node3&#45;&gt;Node44 -->
<g id="edge53" class="edge">
<title>Node3&#45;&gt;Node44</title>
<path fill="none" stroke="midnightblue" d="M3269.4,-205.6C3370.2,-199.06 3558.44,-185.31 3718,-165 3730.92,-163.36 3744.86,-161.18 3757.68,-159.02"/>
<polygon fill="midnightblue" stroke="midnightblue" points="3269.08,-202.12 3259.33,-206.25 3269.53,-209.1 3269.08,-202.12"/>
</g>
<!-- Node4&#45;&gt;Node2 -->
<g id="edge5" class="edge">
<title>Node4&#45;&gt;Node2</title>
<path fill="none" stroke="midnightblue" d="M1468.84,-147.7C1228.25,-144.5 390.2,-131.18 125,-98 114.14,-96.64 102.43,-94.39 91.88,-92.05"/>
<polygon fill="midnightblue" stroke="midnightblue" points="1469.12,-151.2 1479.17,-147.83 1469.21,-144.2 1469.12,-151.2"/>
</g>
<!-- Node5 -->
<g id="node5" class="node">
<title>Node5</title>
<g id="a_node5"><a xlink:href="../../d6/dff/src_2core_2config_2ConfigManager_8cpp.html" target="_top" xlink:title=" ">
<polygon fill="white" stroke="black" points="1382.5,-73 1382.5,-92 1565.5,-92 1565.5,-73 1382.5,-73"/>
<text text-anchor="middle" x="1474" y="-80" font-family="Helvetica,sans-Serif" font-size="10.00">src/core/config/ConfigManager.cpp</text>
</a>
</g>
</g>
<!-- Node4&#45;&gt;Node5 -->
<g id="edge4" class="edge">
<title>Node4&#45;&gt;Node5</title>
<path fill="none" stroke="midnightblue" d="M1518.89,-132.13C1507.16,-119.42 1491.35,-102.3 1481.96,-92.13"/>
<polygon fill="midnightblue" stroke="midnightblue" points="1516.55,-134.76 1525.91,-139.73 1521.7,-130.01 1516.55,-134.76"/>
</g>
<!-- Node4&#45;&gt;Node6 -->
<g id="edge6" class="edge">
<title>Node4&#45;&gt;Node6</title>
<path fill="none" stroke="midnightblue" d="M1598.71,-147.97C1744.74,-146.09 2110.76,-137.46 2414,-98 2425.23,-96.54 2437.34,-94.31 2448.32,-92.04"/>
<polygon fill="midnightblue" stroke="midnightblue" points="1598.54,-144.47 1588.58,-148.1 1598.62,-151.47 1598.54,-144.47"/>
</g>
<!-- Node7 -->
<g id="node7" class="node">
<title>Node7</title>
<g id="a_node7"><a xlink:href="../../d9/d6a/GetServiceRegistry_8cpp.html" target="_top" xlink:title=" ">
<polygon fill="white" stroke="black" points="1622,-73 1622,-92 1792,-92 1792,-73 1622,-73"/>
<text text-anchor="middle" x="1707" y="-80" font-family="Helvetica,sans-Serif" font-size="10.00">src/core/GetServiceRegistry.cpp</text>
</a>
</g>
</g>
<!-- Node4&#45;&gt;Node7 -->
<g id="edge7" class="edge">
<title>Node4&#45;&gt;Node7</title>
<path fill="none" stroke="midnightblue" d="M1566.55,-136.27C1600.88,-123.37 1654.1,-103.38 1684.21,-92.06"/>
<polygon fill="midnightblue" stroke="midnightblue" points="1565.1,-133.07 1556.97,-139.87 1567.57,-139.63 1565.1,-133.07"/>
</g>
<!-- Node8 -->
<g id="node8" class="node">
<title>Node8</title>
<g id="a_node8"><a xlink:href="../../dd/d24/kernel_8cpp.html" target="_top" xlink:title=" ">
<polygon fill="white" stroke="black" points="1810,-73 1810,-92 1918,-92 1918,-73 1810,-73"/>
<text text-anchor="middle" x="1864" y="-80" font-family="Helvetica,sans-Serif" font-size="10.00">src/core/kernel.cpp</text>
</a>
</g>
</g>
<!-- Node4&#45;&gt;Node8 -->
<g id="edge8" class="edge">
<title>Node4&#45;&gt;Node8</title>
<path fill="none" stroke="midnightblue" d="M1592.46,-138.13C1646.64,-128.35 1729.43,-113 1801,-98 1809.79,-96.16 1819.24,-94.05 1828.07,-92.03"/>
<polygon fill="midnightblue" stroke="midnightblue" points="1591.57,-134.73 1582.35,-139.95 1592.81,-141.62 1591.57,-134.73"/>
</g>
<!-- Node9 -->
<g id="node9" class="node">
<title>Node9</title>
<g id="a_node9"><a xlink:href="../../d9/d4a/module__manager_8cpp.html" target="_top" xlink:title=" ">
<polygon fill="white" stroke="black" points="1936.5,-73 1936.5,-92 2099.5,-92 2099.5,-73 1936.5,-73"/>
<text text-anchor="middle" x="2018" y="-80" font-family="Helvetica,sans-Serif" font-size="10.00">src/core/module_manager.cpp</text>
</a>
</g>
</g>
<!-- Node4&#45;&gt;Node9 -->
<g id="edge9" class="edge">
<title>Node4&#45;&gt;Node9</title>
<path fill="none" stroke="midnightblue" d="M1598.9,-140.77C1676.89,-131.34 1811.66,-114.6 1927,-98 1939.67,-96.18 1953.31,-94.08 1966.07,-92.05"/>
<polygon fill="midnightblue" stroke="midnightblue" points="1598.26,-137.32 1588.75,-141.99 1599.09,-144.27 1598.26,-137.32"/>
</g>
<!-- Node10 -->
<g id="node10" class="node">
<title>Node10</title>
<g id="a_node10"><a xlink:href="../../d2/d2a/networkconfig_8cpp.html" target="_top" xlink:title="NetworkConfig class implementation.">
<polygon fill="white" stroke="black" points="2117.5,-67.5 2117.5,-97.5 2226.5,-97.5 2226.5,-67.5 2117.5,-67.5"/>
<text text-anchor="start" x="2125.5" y="-85.5" font-family="Helvetica,sans-Serif" font-size="10.00">src/core/netconfig</text>
<text text-anchor="middle" x="2172" y="-74.5" font-family="Helvetica,sans-Serif" font-size="10.00">/networkconfig.cpp</text>
</a>
</g>
</g>
<!-- Node4&#45;&gt;Node10 -->
<g id="edge10" class="edge">
<title>Node4&#45;&gt;Node10</title>
<path fill="none" stroke="midnightblue" d="M1598.79,-145.66C1705.47,-140.33 1924.59,-126.71 2108,-98 2111.04,-97.52 2114.15,-96.99 2117.28,-96.41"/>
<polygon fill="midnightblue" stroke="midnightblue" points="1598.32,-142.17 1588.51,-146.16 1598.67,-149.17 1598.32,-142.17"/>
</g>
<!-- Node4&#45;&gt;Node11 -->
<g id="edge11" class="edge">
<title>Node4&#45;&gt;Node11</title>
<path fill="none" stroke="midnightblue" d="M1598.96,-147.93C1760.87,-145.95 2195.25,-137.09 2555,-98 2568.55,-96.53 2583.2,-94.3 2596.5,-92.03"/>
<polygon fill="midnightblue" stroke="midnightblue" points="1598.65,-144.44 1588.69,-148.05 1598.73,-151.44 1598.65,-144.44"/>
</g>
<!-- Node12 -->
<g id="node12" class="node">
<title>Node12</title>
<g id="a_node12"><a xlink:href="../../df/dca/GetLocalConfigVersion_8cpp.html" target="_top" xlink:title=" ">
<polygon fill="white" stroke="black" points="2244.5,-67.5 2244.5,-97.5 2405.5,-97.5 2405.5,-67.5 2244.5,-67.5"/>
<text text-anchor="start" x="2252.5" y="-85.5" font-family="Helvetica,sans-Serif" font-size="10.00">src/core/tasks/GetLocalConfig</text>
<text text-anchor="middle" x="2325" y="-74.5" font-family="Helvetica,sans-Serif" font-size="10.00">Version.cpp</text>
</a>
</g>
</g>
<!-- Node4&#45;&gt;Node12 -->
<g id="edge12" class="edge">
<title>Node4&#45;&gt;Node12</title>
<path fill="none" stroke="midnightblue" d="M1598.76,-145.74C1722.64,-140.03 2001.59,-125.16 2235,-98 2237.99,-97.65 2241.03,-97.28 2244.09,-96.88"/>
<polygon fill="midnightblue" stroke="midnightblue" points="1598.52,-142.25 1588.69,-146.2 1598.84,-149.24 1598.52,-142.25"/>
</g>
<!-- Node13 -->
<g id="node13" class="node">
<title>Node13</title>
<g id="a_node13"><a xlink:href="../../d7/d6f/GetRemoteConfigVersion_8cpp.html" target="_top" xlink:title=" ">
<polygon fill="white" stroke="black" points="282.5,-67.5 282.5,-97.5 425.5,-97.5 425.5,-67.5 282.5,-67.5"/>
<text text-anchor="start" x="290.5" y="-85.5" font-family="Helvetica,sans-Serif" font-size="10.00">src/core/tasks/GetRemote</text>
<text text-anchor="middle" x="354" y="-74.5" font-family="Helvetica,sans-Serif" font-size="10.00">ConfigVersion.cpp</text>
</a>
</g>
</g>
<!-- Node4&#45;&gt;Node13 -->
<g id="edge13" class="edge">
<title>Node4&#45;&gt;Node13</title>
<path fill="none" stroke="midnightblue" d="M1469.18,-146.03C1248.81,-137.56 536.55,-109.6 434,-98 431.34,-97.7 428.63,-97.36 425.89,-97"/>
<polygon fill="midnightblue" stroke="midnightblue" points="1469.17,-149.53 1479.3,-146.42 1469.44,-142.54 1469.17,-149.53"/>
</g>
<!-- Node14 -->
<g id="node14" class="node">
<title>Node14</title>
<g id="a_node14"><a xlink:href="../../d5/d8e/SyncConfig_8cpp.html" target="_top" xlink:title=" ">
<polygon fill="white" stroke="black" points="443.5,-73 443.5,-92 604.5,-92 604.5,-73 443.5,-73"/>
<text text-anchor="middle" x="524" y="-80" font-family="Helvetica,sans-Serif" font-size="10.00">src/core/tasks/SyncConfig.cpp</text>
</a>
</g>
</g>
<!-- Node4&#45;&gt;Node14 -->
<g id="edge14" class="edge">
<title>Node4&#45;&gt;Node14</title>
<path fill="none" stroke="midnightblue" d="M1469.26,-145.85C1288.27,-138.31 779.42,-116.07 613,-98 599.15,-96.5 584.17,-94.29 570.52,-92.04"/>
<polygon fill="midnightblue" stroke="midnightblue" points="1469.29,-149.36 1479.43,-146.27 1469.58,-142.36 1469.29,-149.36"/>
</g>
<!-- Node15 -->
<g id="node15" class="node">
<title>Node15</title>
<g id="a_node15"><a xlink:href="../../df/d0a/main_8cpp.html" target="_top" xlink:title="standard main">
<polygon fill="white" stroke="black" points="622.5,-73 622.5,-92 701.5,-92 701.5,-73 622.5,-73"/>
<text text-anchor="middle" x="662" y="-80" font-family="Helvetica,sans-Serif" font-size="10.00">src/main.cpp</text>
</a>
</g>
</g>
<!-- Node4&#45;&gt;Node15 -->
<g id="edge15" class="edge">
<title>Node4&#45;&gt;Node15</title>
<path fill="none" stroke="midnightblue" d="M1469.14,-146.42C1301.42,-140.73 856.34,-123.62 711,-98 703.05,-96.6 694.56,-94.36 686.92,-92.06"/>
<polygon fill="midnightblue" stroke="midnightblue" points="1469.2,-149.92 1479.31,-146.76 1469.43,-142.93 1469.2,-149.92"/>
</g>
<!-- Node4&#45;&gt;Node16 -->
<g id="edge16" class="edge">
<title>Node4&#45;&gt;Node16</title>
<path fill="none" stroke="midnightblue" d="M1598.98,-147.07C1814.55,-142.1 2504.94,-124.48 2726,-98 2728.95,-97.65 2731.96,-97.24 2735,-96.79"/>
<polygon fill="midnightblue" stroke="midnightblue" points="1598.69,-143.57 1588.78,-147.3 1598.85,-150.57 1598.69,-143.57"/>
</g>
<!-- Node4&#45;&gt;Node17 -->
<g id="edge17" class="edge">
<title>Node4&#45;&gt;Node17</title>
<path fill="none" stroke="midnightblue" d="M1598.93,-147.35C1831.3,-143.02 2620.92,-126.52 2872,-98 2874.94,-97.67 2877.93,-97.28 2880.95,-96.86"/>
<polygon fill="midnightblue" stroke="midnightblue" points="1598.55,-143.85 1588.62,-147.54 1598.68,-150.85 1598.55,-143.85"/>
</g>
<!-- Node18 -->
<g id="node18" class="node">
<title>Node18</title>
<g id="a_node18"><a xlink:href="../../d0/d58/DoormanModule_8cpp.html" target="_top" xlink:title=" ">
<polygon fill="white" stroke="black" points="720,-67.5 720,-97.5 842,-97.5 842,-67.5 720,-67.5"/>
<text text-anchor="start" x="728" y="-85.5" font-family="Helvetica,sans-Serif" font-size="10.00">src/modules/doorman</text>
<text text-anchor="middle" x="781" y="-74.5" font-family="Helvetica,sans-Serif" font-size="10.00">/DoormanModule.cpp</text>
</a>
</g>
</g>
<!-- Node4&#45;&gt;Node18 -->
<g id="edge18" class="edge">
<title>Node4&#45;&gt;Node18</title>
<path fill="none" stroke="midnightblue" d="M1469.03,-146.52C1347.28,-142.18 1076.69,-129.58 851,-98 848.05,-97.59 845.04,-97.12 842,-96.62"/>
<polygon fill="midnightblue" stroke="midnightblue" points="1469.18,-150.03 1479.29,-146.88 1469.42,-143.03 1469.18,-150.03"/>
</g>
<!-- Node19 -->
<g id="node19" class="node">
<title>Node19</title>
<g id="a_node19"><a xlink:href="../../d7/d36/LEDBuzzerModule_8cpp.html" target="_top" xlink:title=" ">
<polygon fill="white" stroke="black" points="2207,-0.5 2207,-30.5 2337,-30.5 2337,-0.5 2207,-0.5"/>
<text text-anchor="start" x="2215" y="-18.5" font-family="Helvetica,sans-Serif" font-size="10.00">src/modules/led&#45;buzzer</text>
<text text-anchor="middle" x="2272" y="-7.5" font-family="Helvetica,sans-Serif" font-size="10.00">/LEDBuzzerModule.cpp</text>
</a>
</g>
</g>
<!-- Node4&#45;&gt;Node19 -->
<g id="edge19" class="edge">
<title>Node4&#45;&gt;Node19</title>
<path fill="none" stroke="midnightblue" d="M1547.27,-132.26C1565.31,-110.67 1597.14,-74.35 1613,-67 1721.52,-16.71 2030.91,-42.06 2150,-31 2168.48,-29.28 2188.49,-27.06 2206.85,-24.87"/>
<polygon fill="midnightblue" stroke="midnightblue" points="1544.56,-130.05 1540.88,-139.98 1549.96,-134.51 1544.56,-130.05"/>
</g>
<!-- Node20 -->
<g id="node20" class="node">
<title>Node20</title>
<g id="a_node20"><a xlink:href="../../db/de7/LibgpiodModule_8cpp.html" target="_top" xlink:title=" ">
<polygon fill="white" stroke="black" points="860,-67.5 860,-97.5 978,-97.5 978,-67.5 860,-67.5"/>
<text text-anchor="start" x="868" y="-85.5" font-family="Helvetica,sans-Serif" font-size="10.00">src/modules/libgpiod</text>
<text text-anchor="middle" x="919" y="-74.5" font-family="Helvetica,sans-Serif" font-size="10.00">/LibgpiodModule.cpp</text>
</a>
</g>
</g>
<!-- Node4&#45;&gt;Node20 -->
<g id="edge20" class="edge">
<title>Node4&#45;&gt;Node20</title>
<path fill="none" stroke="midnightblue" d="M1469.18,-145C1366.47,-138.9 1160.19,-124.37 987,-98 984.14,-97.56 981.21,-97.08 978.26,-96.57"/>
<polygon fill="midnightblue" stroke="midnightblue" points="1469.21,-148.51 1479.39,-145.6 1469.62,-141.52 1469.21,-148.51"/>
</g>
<!-- Node21 -->
<g id="node21" class="node">
<title>Node21</title>
<g id="a_node21"><a xlink:href="../../d6/d18/MqttModule_8cpp.html" target="_top" xlink:title=" ">
<polygon fill="white" stroke="black" points="996,-73 996,-92 1180,-92 1180,-73 996,-73"/>
<text text-anchor="middle" x="1088" y="-80" font-family="Helvetica,sans-Serif" font-size="10.00">src/modules/mqtt/MqttModule.cpp</text>
</a>
</g>
</g>
<!-- Node4&#45;&gt;Node21 -->
<g id="edge21" class="edge">
<title>Node4&#45;&gt;Node21</title>
<path fill="none" stroke="midnightblue" d="M1469.34,-139.08C1382.69,-126.45 1230.17,-104.22 1146.68,-92.05"/>
<polygon fill="midnightblue" stroke="midnightblue" points="1468.91,-142.55 1479.31,-140.53 1469.92,-135.62 1468.91,-142.55"/>
</g>
<!-- Node22 -->
<g id="node22" class="node">
<title>Node22</title>
<g id="a_node22"><a xlink:href="../../da/d77/SysFsGpioModule_8cpp.html" target="_top" xlink:title=" ">
<polygon fill="white" stroke="black" points="1198.5,-67.5 1198.5,-97.5 1325.5,-97.5 1325.5,-67.5 1198.5,-67.5"/>
<text text-anchor="start" x="1206.5" y="-85.5" font-family="Helvetica,sans-Serif" font-size="10.00">src/modules/sysfsgpio</text>
<text text-anchor="middle" x="1262" y="-74.5" font-family="Helvetica,sans-Serif" font-size="10.00">/SysFsGpioModule.cpp</text>
</a>
</g>
</g>
<!-- Node4&#45;&gt;Node22 -->
<g id="edge22" class="edge">
<title>Node4&#45;&gt;Node22</title>
<path fill="none" stroke="midnightblue" d="M1488.17,-137.55C1442.13,-126.55 1371.01,-109.55 1320.83,-97.56"/>
<polygon fill="midnightblue" stroke="midnightblue" points="1487.62,-141.02 1498.16,-139.94 1489.25,-134.21 1487.62,-141.02"/>
</g>
<!-- Node4&#45;&gt;Node23 -->
<g id="edge23" class="edge">
<title>Node4&#45;&gt;Node23</title>
<path fill="none" stroke="midnightblue" d="M1469.17,-146.18C1219.72,-137.22 332.8,-105.01 273,-98 270.14,-97.66 267.22,-97.28 264.28,-96.86"/>
<polygon fill="midnightblue" stroke="midnightblue" points="1469.05,-149.68 1479.17,-146.54 1469.3,-142.68 1469.05,-149.68"/>
</g>
<!-- Node24 -->
<g id="node24" class="node">
<title>Node24</title>
<g id="a_node24"><a xlink:href="../../d3/de8/wiegand_8cpp.html" target="_top" xlink:title=" ">
<polygon fill="white" stroke="black" points="2021,-0.5 2021,-30.5 2141,-30.5 2141,-0.5 2021,-0.5"/>
<text text-anchor="start" x="2029" y="-18.5" font-family="Helvetica,sans-Serif" font-size="10.00">src/modules/wiegand</text>
<text text-anchor="middle" x="2081" y="-7.5" font-family="Helvetica,sans-Serif" font-size="10.00">/wiegand.cpp</text>
</a>
</g>
</g>
<!-- Node4&#45;&gt;Node24 -->
<g id="edge24" class="edge">
<title>Node4&#45;&gt;Node24</title>
<path fill="none" stroke="midnightblue" d="M1469.42,-138.34C1410.9,-126.55 1338.69,-103.84 1373,-67 1416.72,-20.05 1857.83,-16.07 2020.86,-16.21"/>
<polygon fill="midnightblue" stroke="midnightblue" points="1468.93,-141.81 1479.41,-140.28 1470.26,-134.94 1468.93,-141.81"/>
</g>
<!-- Node29 -->
<g id="node29" class="node">
<title>Node29</title>
<g id="a_node29"><a xlink:href="../../d5/d63/replication_2init_8cpp.html" target="_top" xlink:title=" ">
<polygon fill="white" stroke="black" points="3544.5,-67.5 3544.5,-97.5 3675.5,-97.5 3675.5,-67.5 3544.5,-67.5"/>
<text text-anchor="start" x="3552.5" y="-85.5" font-family="Helvetica,sans-Serif" font-size="10.00">src/modules/replication</text>
<text text-anchor="middle" x="3610" y="-74.5" font-family="Helvetica,sans-Serif" font-size="10.00">/init.cpp</text>
</a>
</g>
</g>
<!-- Node28&#45;&gt;Node29 -->
<g id="edge33" class="edge">
<title>Node28&#45;&gt;Node29</title>
<path fill="none" stroke="midnightblue" d="M3610,-124.11C3610,-115.15 3610,-105.32 3610,-97.58"/>
<polygon fill="midnightblue" stroke="midnightblue" points="3606.5,-124.4 3610,-134.4 3613.5,-124.4 3606.5,-124.4"/>
</g>
<!-- Node28&#45;&gt;Node30 -->
<g id="edge34" class="edge">
<title>Node28&#45;&gt;Node30</title>
<path fill="none" stroke="midnightblue" d="M3651.79,-130.27C3675.52,-119.92 3704.78,-107.15 3726.73,-97.58"/>
<polygon fill="midnightblue" stroke="midnightblue" points="3650.1,-127.19 3642.33,-134.4 3652.9,-133.61 3650.1,-127.19"/>
</g>
<!-- Node37 -->
<g id="node37" class="node">
<title>Node37</title>
<g id="a_node37"><a xlink:href="../../dc/d31/led-buzzer_2ws_2WSHelperThread_8hpp.html" target="_top" xlink:title=" ">
<polygon fill="white" stroke="black" points="3190.5,-67.5 3190.5,-97.5 3329.5,-97.5 3329.5,-67.5 3190.5,-67.5"/>
<text text-anchor="start" x="3198.5" y="-85.5" font-family="Helvetica,sans-Serif" font-size="10.00">src/modules/led&#45;buzzer</text>
<text text-anchor="middle" x="3260" y="-74.5" font-family="Helvetica,sans-Serif" font-size="10.00">/ws/WSHelperThread.hpp</text>
</a>
</g>
</g>
<!-- Node36&#45;&gt;Node37 -->
<g id="edge43" class="edge">
<title>Node36&#45;&gt;Node37</title>
<path fill="none" stroke="midnightblue" d="M3373.63,-130.54C3348.51,-120.14 3317.34,-107.24 3294,-97.58"/>
<polygon fill="midnightblue" stroke="midnightblue" points="3372.36,-133.8 3382.93,-134.4 3375.03,-127.34 3372.36,-133.8"/>
</g>
<!-- Node39 -->
<g id="node39" class="node">
<title>Node39</title>
<g id="a_node39"><a xlink:href="../../d7/d36/PFDigitalModule_8hpp.html" target="_top" xlink:title=" ">
<polygon fill="white" stroke="black" points="3348,-67.5 3348,-97.5 3488,-97.5 3488,-67.5 3348,-67.5"/>
<text text-anchor="start" x="3356" y="-85.5" font-family="Helvetica,sans-Serif" font-size="10.00">src/modules/pifacedigital</text>
<text text-anchor="middle" x="3418" y="-74.5" font-family="Helvetica,sans-Serif" font-size="10.00">/PFDigitalModule.hpp</text>
</a>
</g>
</g>
<!-- Node36&#45;&gt;Node39 -->
<g id="edge46" class="edge">
<title>Node36&#45;&gt;Node39</title>
<path fill="none" stroke="midnightblue" d="M3417.38,-124.11C3417.51,-115.15 3417.66,-105.32 3417.78,-97.58"/>
<polygon fill="midnightblue" stroke="midnightblue" points="3413.87,-124.34 3417.22,-134.4 3420.87,-124.45 3413.87,-124.34"/>
</g>
<!-- Node41 -->
<g id="node41" class="node">
<title>Node41</title>
<g id="a_node41"><a xlink:href="../../d4/df3/wiegand_2ws_2WSHelperThread_8hpp.html" target="_top" xlink:title=" ">
<polygon fill="white" stroke="black" points="3033.5,-67.5 3033.5,-97.5 3172.5,-97.5 3172.5,-67.5 3033.5,-67.5"/>
<text text-anchor="start" x="3041.5" y="-85.5" font-family="Helvetica,sans-Serif" font-size="10.00">src/modules/wiegand</text>
<text text-anchor="middle" x="3103" y="-74.5" font-family="Helvetica,sans-Serif" font-size="10.00">/ws/WSHelperThread.hpp</text>
</a>
</g>
</g>
<!-- Node36&#45;&gt;Node41 -->
<g id="edge49" class="edge">
<title>Node36&#45;&gt;Node41</title>
<path fill="none" stroke="midnightblue" d="M3339.14,-132.38C3287.49,-121.69 3220.37,-107.8 3170.9,-97.55"/>
<polygon fill="midnightblue" stroke="midnightblue" points="3338.75,-135.88 3349.25,-134.48 3340.17,-129.02 3338.75,-135.88"/>
</g>
<!-- Node37&#45;&gt;Node19 -->
<g id="edge44" class="edge">
<title>Node37&#45;&gt;Node19</title>
<path fill="none" stroke="midnightblue" d="M3180.3,-67.03C2858.57,-29.33 2485.44,-19.75 2337.28,-17.31"/>
<polygon fill="midnightblue" stroke="midnightblue" points="3179.94,-70.51 3190.29,-68.21 3180.77,-63.56 3179.94,-70.51"/>
</g>
<!-- Node38 -->
<g id="node38" class="node">
<title>Node38</title>
<g id="a_node38"><a xlink:href="../../dd/d4b/led-buzzer_2ws_2WSHelperThread_8cpp.html" target="_top" xlink:title=" ">
<polygon fill="white" stroke="black" points="3190,-0.5 3190,-30.5 3328,-30.5 3328,-0.5 3190,-0.5"/>
<text text-anchor="start" x="3198" y="-18.5" font-family="Helvetica,sans-Serif" font-size="10.00">src/modules/led&#45;buzzer</text>
<text text-anchor="middle" x="3259" y="-7.5" font-family="Helvetica,sans-Serif" font-size="10.00">/ws/WSHelperThread.cpp</text>
</a>
</g>
</g>
<!-- Node37&#45;&gt;Node38 -->
<g id="edge45" class="edge">
<title>Node37&#45;&gt;Node38</title>
<path fill="none" stroke="midnightblue" d="M3259.62,-57.11C3259.49,-48.15 3259.34,-38.32 3259.22,-30.58"/>
<polygon fill="midnightblue" stroke="midnightblue" points="3256.13,-57.45 3259.78,-67.4 3263.13,-57.34 3256.13,-57.45"/>
</g>
<!-- Node39&#45;&gt;Node27 -->
<g id="edge48" class="edge">
<title>Node39&#45;&gt;Node27</title>
<path fill="none" stroke="midnightblue" d="M3461.09,-63.54C3486.06,-53.14 3517.03,-40.24 3540.22,-30.58"/>
<polygon fill="midnightblue" stroke="midnightblue" points="3459.73,-60.32 3451.85,-67.4 3462.43,-66.78 3459.73,-60.32"/>
</g>
<!-- Node40 -->
<g id="node40" class="node">
<title>Node40</title>
<g id="a_node40"><a xlink:href="../../d6/d6d/pifacedigital_2init_8cpp.html" target="_top" xlink:title=" ">
<polygon fill="white" stroke="black" points="3346,-0.5 3346,-30.5 3486,-30.5 3486,-0.5 3346,-0.5"/>
<text text-anchor="start" x="3354" y="-18.5" font-family="Helvetica,sans-Serif" font-size="10.00">src/modules/pifacedigital</text>
<text text-anchor="middle" x="3416" y="-7.5" font-family="Helvetica,sans-Serif" font-size="10.00">/init.cpp</text>
</a>
</g>
</g>
<!-- Node39&#45;&gt;Node40 -->
<g id="edge47" class="edge">
<title>Node39&#45;&gt;Node40</title>
<path fill="none" stroke="midnightblue" d="M3417.25,-57.11C3416.97,-48.15 3416.67,-38.32 3416.43,-30.58"/>
<polygon fill="midnightblue" stroke="midnightblue" points="3413.76,-57.51 3417.57,-67.4 3420.76,-57.29 3413.76,-57.51"/>
</g>
<!-- Node41&#45;&gt;Node24 -->
<g id="edge50" class="edge">
<title>Node41&#45;&gt;Node24</title>
<path fill="none" stroke="midnightblue" d="M3023.21,-67.04C2657.13,-26.38 2560.87,-61.34 2198,-31 2179.44,-29.45 2159.29,-27.17 2141.03,-24.87"/>
<polygon fill="midnightblue" stroke="midnightblue" points="3022.96,-70.53 3033.29,-68.17 3023.74,-63.57 3022.96,-70.53"/>
</g>
<!-- Node42 -->
<g id="node42" class="node">
<title>Node42</title>
<g id="a_node42"><a xlink:href="../../d8/d9e/wiegand_2ws_2WSHelperThread_8cpp.html" target="_top" xlink:title=" ">
<polygon fill="white" stroke="black" points="3034,-0.5 3034,-30.5 3172,-30.5 3172,-0.5 3034,-0.5"/>
<text text-anchor="start" x="3042" y="-18.5" font-family="Helvetica,sans-Serif" font-size="10.00">src/modules/wiegand</text>
<text text-anchor="middle" x="3103" y="-7.5" font-family="Helvetica,sans-Serif" font-size="10.00">/ws/WSHelperThread.cpp</text>
</a>
</g>
</g>
<!-- Node41&#45;&gt;Node42 -->
<g id="edge51" class="edge">
<title>Node41&#45;&gt;Node42</title>
<path fill="none" stroke="midnightblue" d="M3103,-57.11C3103,-48.15 3103,-38.32 3103,-30.58"/>
<polygon fill="midnightblue" stroke="midnightblue" points="3099.5,-57.4 3103,-67.4 3106.5,-57.4 3099.5,-57.4"/>
</g>
<!-- Node45 -->
<g id="node45" class="node">
<title>Node45</title>
<g id="a_node45"><a xlink:href="../../d9/d21/Led_8cpp.html" target="_top" xlink:title=" ">
<polygon fill="white" stroke="black" points="3843,-73 3843,-92 3919,-92 3919,-73 3843,-73"/>
<text text-anchor="middle" x="3881" y="-80" font-family="Helvetica,sans-Serif" font-size="10.00">test/Led.cpp</text>
</a>
</g>
</g>
<!-- Node44&#45;&gt;Node45 -->
<g id="edge54" class="edge">
<title>Node44&#45;&gt;Node45</title>
<path fill="none" stroke="midnightblue" d="M3822.11,-133.21C3837.28,-120.41 3858.39,-102.59 3870.78,-92.13"/>
<polygon fill="midnightblue" stroke="midnightblue" points="3819.77,-130.61 3814.38,-139.73 3824.28,-135.96 3819.77,-130.61"/>
</g>
<!-- Node46 -->
<g id="node46" class="node">
<title>Node46</title>
<g id="a_node46"><a xlink:href="../../db/d44/Rpleth_8cpp.html" target="_top" xlink:title=" ">
<polygon fill="white" stroke="black" points="3937,-73 3937,-92 4027,-92 4027,-73 3937,-73"/>
<text text-anchor="middle" x="3982" y="-80" font-family="Helvetica,sans-Serif" font-size="10.00">test/Rpleth.cpp</text>
</a>
</g>
</g>
<!-- Node44&#45;&gt;Node46 -->
<g id="edge55" class="edge">
<title>Node44&#45;&gt;Node46</title>
<path fill="none" stroke="midnightblue" d="M3837.04,-136.44C3872.35,-123.54 3927.44,-103.42 3958.55,-92.06"/>
<polygon fill="midnightblue" stroke="midnightblue" points="3835.83,-133.15 3827.64,-139.87 3838.23,-139.73 3835.83,-133.15"/>
</g>
<!-- Node47 -->
<g id="node47" class="node">
<title>Node47</title>
<g id="a_node47"><a xlink:href="../../d4/d9b/WiegandReader_8cpp.html" target="_top" xlink:title=" ">
<polygon fill="white" stroke="black" points="4045.5,-73 4045.5,-92 4180.5,-92 4180.5,-73 4045.5,-73"/>
<text text-anchor="middle" x="4113" y="-80" font-family="Helvetica,sans-Serif" font-size="10.00">test/WiegandReader.cpp</text>
</a>
</g>
</g>
<!-- Node44&#45;&gt;Node47 -->
<g id="edge56" class="edge">
<title>Node44&#45;&gt;Node47</title>
<path fill="none" stroke="midnightblue" d="M3854.85,-137.8C3915.66,-125.01 4016.22,-103.86 4072.2,-92.08"/>
<polygon fill="midnightblue" stroke="midnightblue" points="3853.78,-134.45 3844.71,-139.94 3855.22,-141.3 3853.78,-134.45"/>
</g>
</g>
</svg>
        <g id="navigator" transform="translate(0 0)" fill="#404254">
                <rect fill="#f2f5e9" fill-opacity="0.5" stroke="#606060" stroke-width=".5" x="0" y="0" width="60" height="60"/>
                <use id="zoomplus" xlink:href="#zoomPlus" x="17" y="9" onmousedown="handleZoom(evt,'in')"/>
                <use id="zoomminus" xlink:href="#zoomMin" x="42" y="9" onmousedown="handleZoom(evt,'out')"/>
                <use id="reset" xlink:href="#resetDef" x="30" y="36" onmousedown="handleReset()"/>
                <g id="arrowUp" xlink:href="#dirArrow" transform="translate(30 24)" onmousedown="handlePan(0,-1)">
                  <use xlink:href="#rim" fill="#404040">
                        <set attributeName="fill" to="#808080" begin="arrowUp.mouseover" end="arrowUp.mouseout"/>
                  </use>
                  <path fill="none" stroke="white" stroke-width="1.5" d="M0,-3.0v7 M-2.5,-0.5L0,-3.0L2.5,-0.5"/>
                </g>
                <g id="arrowRight" xlink:href="#dirArrow" transform="rotate(90) translate(36 -43)" onmousedown="handlePan(1,0)">
                  <use xlink:href="#rim" fill="#404040">
                        <set attributeName="fill" to="#808080" begin="arrowRight.mouseover" end="arrowRight.mouseout"/>
                  </use>
                  <path fill="none" stroke="white" stroke-width="1.5" d="M0,-3.0v7 M-2.5,-0.5L0,-3.0L2.5,-0.5"/>
                </g>
                <g id="arrowDown" xlink:href="#dirArrow" transform="rotate(180) translate(-30 -48)" onmousedown="handlePan(0,1)">
                  <use xlink:href="#rim" fill="#404040">
                        <set attributeName="fill" to="#808080" begin="arrowDown.mouseover" end="arrowDown.mouseout"/>
                  </use>
                  <path fill="none" stroke="white" stroke-width="1.5" d="M0,-3.0v7 M-2.5,-0.5L0,-3.0L2.5,-0.5"/>
                </g>
                <g id="arrowLeft" xlink:href="#dirArrow" transform="rotate(270) translate(-36 17)" onmousedown="handlePan(-1,0)">
                  <use xlink:href="#rim" fill="#404040">
                        <set attributeName="fill" to="#808080" begin="arrowLeft.mouseover" end="arrowLeft.mouseout"/>
                  </use>
                  <path fill="none" stroke="white" stroke-width="1.5" d="M0,-3.0v7 M-2.5,-0.5L0,-3.0L2.5,-0.5"/>
                </g>
        </g>
        <svg viewBox="0 0 15 15" width="100%" height="30px" preserveAspectRatio="xMaxYMin meet">
         <g id="arrow_out" transform="scale(0.3 0.3)">
          <a xlink:href="CoreAPI_8hpp__dep__incl_org.svg" target="_base">
           <rect id="button" ry="5" rx="5" y="6" x="6" height="38" width="38"
                fill="#f2f5e9" fill-opacity="0.5" stroke="#606060" stroke-width="1.0"/>
           <path id="arrow"
             d="M 11.500037,31.436501 C 11.940474,20.09759 22.043105,11.32322 32.158766,21.979434 L 37.068811,17.246167 C 37.068811,17.246167 37.088388,32 37.088388,32 L 22.160133,31.978069 C 22.160133,31.978069 26.997745,27.140456 26.997745,27.140456 C 18.528582,18.264221 13.291696,25.230495 11.500037,31.436501 z"
             style="fill:#404040;"/>
          </a>
         </g>
        </svg>
</svg>
