<?xml version="1.0" encoding="UTF-8" standalone="no"?>
<!DOCTYPE svg PUBLIC "-//W3C//DTD SVG 1.1//EN"
 "http://www.w3.org/Graphics/SVG/1.1/DTD/svg11.dtd">
<!-- Generated by graphviz version 2.43.0 (0)
 -->
<!-- Title: src/core/audit/Audit.hpp Pages: 1 -->
<!--zoomable 319 -->
<svg id="main" version="1.1" xmlns="http://www.w3.org/2000/svg" xmlns:xlink="http://www.w3.org/1999/xlink" xml:space="preserve" onload="init(evt)">
<style type="text/css"><![CDATA[
.edge:hover path { stroke: red; }
.edge:hover polygon { stroke: red; fill: red; }
]]></style>
<script type="text/javascript"><![CDATA[
var edges = document.getElementsByTagName('g');
if (edges && edges.length) {
  for (var i=0;i<edges.length;i++) {
    if (edges[i].id.substr(0,4)=='edge') {
      edges[i].setAttribute('class','edge');
    }
  }
}
]]></script>
        <defs>
                <circle id="rim" cx="0" cy="0" r="7"/>
                <circle id="rim2" cx="0" cy="0" r="3.5"/>
                <g id="zoomPlus">
                        <use xlink:href="#rim" fill="#404040">
                                <set attributeName="fill" to="#808080" begin="zoomplus.mouseover" end="zoomplus.mouseout"/>
                        </use>
                        <path d="M-4,0h8M0,-4v8" fill="none" stroke="white" stroke-width="1.5" pointer-events="none"/>
                </g>
                <g id="zoomMin">
                        <use xlink:href="#rim" fill="#404040">
                                <set attributeName="fill" to="#808080" begin="zoomminus.mouseover" end="zoomminus.mouseout"/>
                        </use>
                        <path d="M-4,0h8" fill="none" stroke="white" stroke-width="1.5" pointer-events="none"/>
                </g>
                <g id="dirArrow">
                        <path fill="none" stroke="white" stroke-width="1.5" d="M0,-3.0v7 M-2.5,-0.5L0,-3.0L2.5,-0.5"/>
                </g>
               <g id="resetDef">
                       <use xlink:href="#rim2" fill="#404040">
                               <set attributeName="fill" to="#808080" begin="reset.mouseover" end="reset.mouseout"/>
                       </use>
               </g>
        </defs>

<script type="text/javascript">
var viewWidth = 1216;
var viewHeight = 319;
var sectionId = 'dynsection-0';
</script>
<script xlink:href="../../svgpan.js"/>
<svg id="graph" class="graph">
<g id="viewport">
<title>src/core/audit/Audit.hpp</title>
<polygon fill="white" stroke="transparent" points="-4,4 -4,-315 1211.5,-315 1211.5,4 -4,4"/>
<!-- Node1 -->
<g id="node1" class="node">
<title>Node1</title>
<g id="a_node1"><a xlink:title=" ">
<polygon fill="#bfbfbf" stroke="black" points="273.5,-291.5 273.5,-310.5 405.5,-310.5 405.5,-291.5 273.5,-291.5"/>
<text text-anchor="middle" x="339.5" y="-298.5" font-family="Helvetica,sans-Serif" font-size="10.00">src/core/audit/Audit.hpp</text>
</a>
</g>
</g>
<!-- Node2 -->
<g id="node2" class="node">
<title>Node2</title>
<g id="a_node2"><a xlink:href="../../dd/d64/AuditFactory_8hpp.html" target="_top" xlink:title=" ">
<polygon fill="white" stroke="black" points="315,-179.5 315,-198.5 464,-198.5 464,-179.5 315,-179.5"/>
<text text-anchor="middle" x="389.5" y="-186.5" font-family="Helvetica,sans-Serif" font-size="10.00">core/audit/AuditFactory.hpp</text>
</a>
</g>
</g>
<!-- Node1&#45;&gt;Node2 -->
<g id="edge1" class="edge">
<title>Node1&#45;&gt;Node2</title>
<path fill="none" stroke="midnightblue" d="M346.82,-291.22C353.76,-282.51 364.06,-268.54 370.5,-255 377.6,-240.07 382.63,-221.93 385.73,-208.61"/>
<polygon fill="midnightblue" stroke="midnightblue" points="389.17,-209.25 387.87,-198.73 382.33,-207.76 389.17,-209.25"/>
</g>
<!-- Node3 -->
<g id="node3" class="node">
<title>Node3</title>
<g id="a_node3"><a xlink:href="../../d7/dcf/AuditFwd_8hpp.html" target="_top" xlink:title=" ">
<polygon fill="white" stroke="black" points="0,-118 0,-137 135,-137 135,-118 0,-118"/>
<text text-anchor="middle" x="67.5" y="-125" font-family="Helvetica,sans-Serif" font-size="10.00">core/audit/AuditFwd.hpp</text>
</a>
</g>
</g>
<!-- Node1&#45;&gt;Node3 -->
<g id="edge22" class="edge">
<title>Node1&#45;&gt;Node3</title>
<path fill="none" stroke="midnightblue" d="M302.81,-291.46C275.81,-284.21 238.86,-272.22 209.5,-255 156.56,-223.95 105.64,-171.3 81.71,-144.78"/>
<polygon fill="midnightblue" stroke="midnightblue" points="84.18,-142.3 74.92,-137.15 78.95,-146.95 84.18,-142.3"/>
</g>
<!-- Node13 -->
<g id="node13" class="node">
<title>Node13</title>
<g id="a_node13"><a xlink:href="../../d7/d76/IUserEvent_8hpp.html" target="_top" xlink:title=" ">
<polygon fill="white" stroke="black" points="218,-235.5 218,-254.5 361,-254.5 361,-235.5 218,-235.5"/>
<text text-anchor="middle" x="289.5" y="-242.5" font-family="Helvetica,sans-Serif" font-size="10.00">core/audit/IUserEvent.hpp</text>
</a>
</g>
</g>
<!-- Node1&#45;&gt;Node13 -->
<g id="edge23" class="edge">
<title>Node1&#45;&gt;Node13</title>
<path fill="none" stroke="midnightblue" d="M331.24,-291.08C324.04,-283.3 313.39,-271.8 304.65,-262.37"/>
<polygon fill="midnightblue" stroke="midnightblue" points="306.97,-259.71 297.6,-254.75 301.83,-264.47 306.97,-259.71"/>
</g>
<!-- Node20 -->
<g id="node20" class="node">
<title>Node20</title>
<g id="a_node20"><a xlink:href="../../dd/dd8/IWSAPICall_8hpp.html" target="_top" xlink:title=" ">
<polygon fill="white" stroke="black" points="620,-235.5 620,-254.5 763,-254.5 763,-235.5 620,-235.5"/>
<text text-anchor="middle" x="691.5" y="-242.5" font-family="Helvetica,sans-Serif" font-size="10.00">core/audit/IWSAPICall.hpp</text>
</a>
</g>
</g>
<!-- Node1&#45;&gt;Node20 -->
<g id="edge34" class="edge">
<title>Node1&#45;&gt;Node20</title>
<path fill="none" stroke="midnightblue" d="M395.28,-291.44C457.97,-281.83 559.65,-266.23 626.05,-256.04"/>
<polygon fill="midnightblue" stroke="midnightblue" points="626.63,-259.49 635.99,-254.52 625.57,-252.57 626.63,-259.49"/>
</g>
<!-- Node2&#45;&gt;Node3 -->
<g id="edge2" class="edge">
<title>Node2&#45;&gt;Node3</title>
<path fill="none" stroke="midnightblue" d="M342.32,-179.48C292.79,-170.51 212.64,-155.92 143.5,-143 136.67,-141.72 129.5,-140.37 122.4,-139.02"/>
<polygon fill="midnightblue" stroke="midnightblue" points="122.57,-135.5 112.1,-137.07 121.27,-142.37 122.57,-135.5"/>
</g>
<!-- Node8 -->
<g id="node8" class="node">
<title>Node8</title>
<g id="a_node8"><a xlink:href="../../d3/d6f/AuthFwd_8hpp.html" target="_top" xlink:title=" ">
<polygon fill="white" stroke="black" points="153,-118 153,-137 282,-137 282,-118 153,-118"/>
<text text-anchor="middle" x="217.5" y="-125" font-family="Helvetica,sans-Serif" font-size="10.00">core/auth/AuthFwd.hpp</text>
</a>
</g>
</g>
<!-- Node2&#45;&gt;Node8 -->
<g id="edge7" class="edge">
<title>Node2&#45;&gt;Node8</title>
<path fill="none" stroke="midnightblue" d="M364.86,-179.48C335.22,-169.22 285.32,-151.96 251.9,-140.4"/>
<polygon fill="midnightblue" stroke="midnightblue" points="252.69,-136.97 242.1,-137.01 250.4,-143.59 252.69,-136.97"/>
</g>
<!-- Node9 -->
<g id="node9" class="node">
<title>Node9</title>
<g id="a_node9"><a xlink:href="../../d7/d7f/CredentialFwd_8hpp.html" target="_top" xlink:title=" ">
<polygon fill="white" stroke="black" points="600.5,-112.5 600.5,-142.5 748.5,-142.5 748.5,-112.5 600.5,-112.5"/>
<text text-anchor="start" x="608.5" y="-130.5" font-family="Helvetica,sans-Serif" font-size="10.00">core/credentials/Credential</text>
<text text-anchor="middle" x="674.5" y="-119.5" font-family="Helvetica,sans-Serif" font-size="10.00">Fwd.hpp</text>
</a>
</g>
</g>
<!-- Node2&#45;&gt;Node9 -->
<g id="edge11" class="edge">
<title>Node2&#45;&gt;Node9</title>
<path fill="none" stroke="midnightblue" d="M430.33,-179.48C473.8,-170.4 543.61,-155.83 597.47,-144.58"/>
<polygon fill="midnightblue" stroke="midnightblue" points="598.26,-147.99 607.33,-142.52 596.83,-141.14 598.26,-147.99"/>
</g>
<!-- Node10 -->
<g id="node10" class="node">
<title>Node10</title>
<g id="a_node10"><a xlink:href="../../d8/d97/ToolsFwd_8hpp.html" target="_top" xlink:title=" ">
<polygon fill="white" stroke="black" points="300.5,-118 300.5,-137 410.5,-137 410.5,-118 300.5,-118"/>
<text text-anchor="middle" x="355.5" y="-125" font-family="Helvetica,sans-Serif" font-size="10.00">tools/ToolsFwd.hpp</text>
</a>
</g>
</g>
<!-- Node2&#45;&gt;Node10 -->
<g id="edge14" class="edge">
<title>Node2&#45;&gt;Node10</title>
<path fill="none" stroke="midnightblue" d="M384.63,-179.48C379.63,-170.73 371.71,-156.87 365.39,-145.81"/>
<polygon fill="midnightblue" stroke="midnightblue" points="368.36,-143.96 360.36,-137.01 362.28,-147.43 368.36,-143.96"/>
</g>
<!-- Node11 -->
<g id="node11" class="node">
<title>Node11</title>
<g id="a_node11"><a xlink:href="../../d9/d69/db__fwd_8hpp.html" target="_top" xlink:title=" ">
<polygon fill="white" stroke="black" points="766.5,-118 766.5,-137 880.5,-137 880.5,-118 766.5,-118"/>
<text text-anchor="middle" x="823.5" y="-125" font-family="Helvetica,sans-Serif" font-size="10.00">tools/db/db_fwd.hpp</text>
</a>
</g>
</g>
<!-- Node2&#45;&gt;Node11 -->
<g id="edge17" class="edge">
<title>Node2&#45;&gt;Node11</title>
<path fill="none" stroke="midnightblue" d="M464.16,-180.96C538.72,-173.44 656.46,-160.24 757.5,-143 764.1,-141.87 771.05,-140.53 777.85,-139.12"/>
<polygon fill="midnightblue" stroke="midnightblue" points="778.61,-142.53 787.65,-137.02 777.14,-135.69 778.61,-142.53"/>
</g>
<!-- Node12 -->
<g id="node12" class="node">
<title>Node12</title>
<g id="a_node12"><a xlink:href="../../d2/d0e/UpdateFwd_8hpp.html" target="_top" xlink:title=" ">
<polygon fill="white" stroke="black" points="428.5,-118 428.5,-137 582.5,-137 582.5,-118 428.5,-118"/>
<text text-anchor="middle" x="505.5" y="-125" font-family="Helvetica,sans-Serif" font-size="10.00">core/update/UpdateFwd.hpp</text>
</a>
</g>
</g>
<!-- Node2&#45;&gt;Node12 -->
<g id="edge19" class="edge">
<title>Node2&#45;&gt;Node12</title>
<path fill="none" stroke="midnightblue" d="M406.12,-179.48C425.42,-169.58 457.46,-153.14 479.93,-141.62"/>
<polygon fill="midnightblue" stroke="midnightblue" points="481.61,-144.69 488.91,-137.01 478.42,-138.46 481.61,-144.69"/>
</g>
<!-- Node4 -->
<g id="node4" class="node">
<title>Node4</title>
<g id="a_node4"><a xlink:title=" ">
<polygon fill="white" stroke="#bfbfbf" points="156,-56.5 156,-75.5 209,-75.5 209,-56.5 156,-56.5"/>
<text text-anchor="middle" x="182.5" y="-63.5" font-family="Helvetica,sans-Serif" font-size="10.00">cstddef</text>
</a>
</g>
</g>
<!-- Node3&#45;&gt;Node4 -->
<g id="edge3" class="edge">
<title>Node3&#45;&gt;Node4</title>
<path fill="none" stroke="midnightblue" d="M83.98,-117.98C103.11,-108.08 134.87,-91.64 157.15,-80.12"/>
<polygon fill="midnightblue" stroke="midnightblue" points="158.78,-83.21 166.05,-75.51 155.56,-77 158.78,-83.21"/>
</g>
<!-- Node5 -->
<g id="node5" class="node">
<title>Node5</title>
<g id="a_node5"><a xlink:title=" ">
<polygon fill="white" stroke="#bfbfbf" points="32,-56.5 32,-75.5 103,-75.5 103,-56.5 32,-56.5"/>
<text text-anchor="middle" x="67.5" y="-63.5" font-family="Helvetica,sans-Serif" font-size="10.00">flagset.hpp</text>
</a>
</g>
</g>
<!-- Node3&#45;&gt;Node5 -->
<g id="edge4" class="edge">
<title>Node3&#45;&gt;Node5</title>
<path fill="none" stroke="midnightblue" d="M67.5,-117.98C67.5,-109.58 67.5,-96.48 67.5,-85.66"/>
<polygon fill="midnightblue" stroke="midnightblue" points="71,-85.51 67.5,-75.51 64,-85.51 71,-85.51"/>
</g>
<!-- Node6 -->
<g id="node6" class="node">
<title>Node6</title>
<g id="a_node6"><a xlink:title=" ">
<polygon fill="white" stroke="#bfbfbf" points="476.5,-56.5 476.5,-75.5 534.5,-75.5 534.5,-56.5 476.5,-56.5"/>
<text text-anchor="middle" x="505.5" y="-63.5" font-family="Helvetica,sans-Serif" font-size="10.00">memory</text>
</a>
</g>
</g>
<!-- Node3&#45;&gt;Node6 -->
<g id="edge5" class="edge">
<title>Node3&#45;&gt;Node6</title>
<path fill="none" stroke="midnightblue" d="M109.62,-117.96C120.63,-115.87 132.49,-113.73 143.5,-112 260.49,-93.59 399.72,-78.06 466.27,-71.03"/>
<polygon fill="midnightblue" stroke="midnightblue" points="466.74,-74.5 476.32,-69.98 466.01,-67.54 466.74,-74.5"/>
</g>
<!-- Node7 -->
<g id="node7" class="node">
<title>Node7</title>
<g id="a_node7"><a xlink:title=" ">
<polygon fill="white" stroke="#bfbfbf" points="308,-56.5 308,-75.5 403,-75.5 403,-56.5 308,-56.5"/>
<text text-anchor="middle" x="355.5" y="-63.5" font-family="Helvetica,sans-Serif" font-size="10.00">odb/lazy&#45;ptr.hxx</text>
</a>
</g>
</g>
<!-- Node3&#45;&gt;Node7 -->
<g id="edge6" class="edge">
<title>Node3&#45;&gt;Node7</title>
<path fill="none" stroke="midnightblue" d="M108.76,-117.98C160.3,-107.33 248.48,-89.11 304.29,-77.58"/>
<polygon fill="midnightblue" stroke="midnightblue" points="305.23,-80.96 314.31,-75.51 303.81,-74.1 305.23,-80.96"/>
</g>
<!-- Node8&#45;&gt;Node4 -->
<g id="edge8" class="edge">
<title>Node8&#45;&gt;Node4</title>
<path fill="none" stroke="midnightblue" d="M212.49,-117.98C207.34,-109.23 199.19,-95.37 192.68,-84.31"/>
<polygon fill="midnightblue" stroke="midnightblue" points="195.59,-82.35 187.51,-75.51 189.56,-85.9 195.59,-82.35"/>
</g>
<!-- Node8&#45;&gt;Node6 -->
<g id="edge9" class="edge">
<title>Node8&#45;&gt;Node6</title>
<path fill="none" stroke="midnightblue" d="M258.76,-117.98C314.14,-106.53 411.82,-86.35 466.19,-75.12"/>
<polygon fill="midnightblue" stroke="midnightblue" points="467.05,-78.52 476.13,-73.07 465.63,-71.66 467.05,-78.52"/>
</g>
<!-- Node8&#45;&gt;Node7 -->
<g id="edge10" class="edge">
<title>Node8&#45;&gt;Node7</title>
<path fill="none" stroke="midnightblue" d="M237.27,-117.98C260.64,-107.9 299.71,-91.05 326.5,-79.5"/>
<polygon fill="midnightblue" stroke="midnightblue" points="327.97,-82.68 335.76,-75.51 325.2,-76.25 327.97,-82.68"/>
</g>
<!-- Node9&#45;&gt;Node6 -->
<g id="edge12" class="edge">
<title>Node9&#45;&gt;Node6</title>
<path fill="none" stroke="midnightblue" d="M634.45,-112.4C605.59,-102.24 567.05,-88.67 539.65,-79.02"/>
<polygon fill="midnightblue" stroke="midnightblue" points="540.69,-75.68 530.09,-75.66 538.36,-82.28 540.69,-75.68"/>
</g>
<!-- Node9&#45;&gt;Node7 -->
<g id="edge13" class="edge">
<title>Node9&#45;&gt;Node7</title>
<path fill="none" stroke="midnightblue" d="M600.11,-112.62C542.46,-101.87 463.84,-87.21 411.45,-77.44"/>
<polygon fill="midnightblue" stroke="midnightblue" points="411.81,-73.94 401.34,-75.55 410.53,-80.82 411.81,-73.94"/>
</g>
<!-- Node10&#45;&gt;Node6 -->
<g id="edge15" class="edge">
<title>Node10&#45;&gt;Node6</title>
<path fill="none" stroke="midnightblue" d="M376.99,-117.98C402.61,-107.81 445.61,-90.76 474.74,-79.2"/>
<polygon fill="midnightblue" stroke="midnightblue" points="476.04,-82.45 484.05,-75.51 473.46,-75.94 476.04,-82.45"/>
</g>
<!-- Node10&#45;&gt;Node7 -->
<g id="edge16" class="edge">
<title>Node10&#45;&gt;Node7</title>
<path fill="none" stroke="midnightblue" d="M355.5,-117.98C355.5,-109.58 355.5,-96.48 355.5,-85.66"/>
<polygon fill="midnightblue" stroke="midnightblue" points="359,-85.51 355.5,-75.51 352,-85.51 359,-85.51"/>
</g>
<!-- Node11&#45;&gt;Node6 -->
<g id="edge18" class="edge">
<title>Node11&#45;&gt;Node6</title>
<path fill="none" stroke="midnightblue" d="M785.86,-117.96C776.6,-115.94 766.7,-113.83 757.5,-112 682.42,-97.06 594.29,-81.85 544.66,-73.5"/>
<polygon fill="midnightblue" stroke="midnightblue" points="545.11,-70.03 534.67,-71.82 543.96,-76.93 545.11,-70.03"/>
</g>
<!-- Node12&#45;&gt;Node6 -->
<g id="edge20" class="edge">
<title>Node12&#45;&gt;Node6</title>
<path fill="none" stroke="midnightblue" d="M505.5,-117.98C505.5,-109.58 505.5,-96.48 505.5,-85.66"/>
<polygon fill="midnightblue" stroke="midnightblue" points="509,-85.51 505.5,-75.51 502,-85.51 509,-85.51"/>
</g>
<!-- Node12&#45;&gt;Node7 -->
<g id="edge21" class="edge">
<title>Node12&#45;&gt;Node7</title>
<path fill="none" stroke="midnightblue" d="M484.01,-117.98C458.39,-107.81 415.39,-90.76 386.26,-79.2"/>
<polygon fill="midnightblue" stroke="midnightblue" points="387.54,-75.94 376.95,-75.51 384.96,-82.45 387.54,-75.94"/>
</g>
<!-- Node13&#45;&gt;Node8 -->
<g id="edge33" class="edge">
<title>Node13&#45;&gt;Node8</title>
<path fill="none" stroke="midnightblue" d="M284.09,-235.32C272.26,-216.34 243.9,-170.85 228.28,-145.79"/>
<polygon fill="midnightblue" stroke="midnightblue" points="231.23,-143.92 222.97,-137.28 225.29,-147.62 231.23,-143.92"/>
</g>
<!-- Node14 -->
<g id="node14" class="node">
<title>Node14</title>
<g id="a_node14"><a xlink:href="../../d3/dd8/IAuditEntry_8hpp.html" target="_top" xlink:title=" ">
<polygon fill="white" stroke="black" points="610.5,-179.5 610.5,-198.5 700.5,-198.5 700.5,-179.5 610.5,-179.5"/>
<text text-anchor="middle" x="655.5" y="-186.5" font-family="Helvetica,sans-Serif" font-size="10.00">IAuditEntry.hpp</text>
</a>
</g>
</g>
<!-- Node13&#45;&gt;Node14 -->
<g id="edge24" class="edge">
<title>Node13&#45;&gt;Node14</title>
<path fill="none" stroke="midnightblue" d="M347.49,-235.44C416.9,-225.2 532.25,-208.18 600.37,-198.13"/>
<polygon fill="midnightblue" stroke="midnightblue" points="601.09,-201.57 610.47,-196.64 600.07,-194.64 601.09,-201.57"/>
</g>
<!-- Node14&#45;&gt;Node3 -->
<g id="edge25" class="edge">
<title>Node14&#45;&gt;Node3</title>
<path fill="none" stroke="midnightblue" d="M610.47,-185.57C521.11,-180.42 315.18,-166.86 143.5,-143 135.18,-141.84 126.39,-140.39 117.86,-138.85"/>
<polygon fill="midnightblue" stroke="midnightblue" points="118.47,-135.4 108,-137.01 117.19,-142.28 118.47,-135.4"/>
</g>
<!-- Node14&#45;&gt;Node6 -->
<g id="edge32" class="edge">
<title>Node14&#45;&gt;Node6</title>
<path fill="none" stroke="midnightblue" d="M700.69,-183.41C799.82,-173.23 1028.01,-149.18 1033.5,-143 1042.65,-132.7 1042.82,-122.15 1033.5,-112 1000.61,-76.19 661.99,-68.84 545,-67.36"/>
<polygon fill="midnightblue" stroke="midnightblue" points="544.75,-63.86 534.71,-67.24 544.66,-70.86 544.75,-63.86"/>
</g>
<!-- Node14&#45;&gt;Node8 -->
<g id="edge26" class="edge">
<title>Node14&#45;&gt;Node8</title>
<path fill="none" stroke="midnightblue" d="M610.24,-183.44C541.27,-176.26 405.78,-161.24 291.5,-143 284.04,-141.81 276.18,-140.42 268.49,-138.98"/>
<polygon fill="midnightblue" stroke="midnightblue" points="268.99,-135.51 258.51,-137.07 267.67,-142.39 268.99,-135.51"/>
</g>
<!-- Node15 -->
<g id="node15" class="node">
<title>Node15</title>
<g id="a_node15"><a xlink:href="../../dd/d9d/IVisitable_8hpp.html" target="_top" xlink:title=" ">
<polygon fill="white" stroke="black" points="1080.5,-118 1080.5,-137 1190.5,-137 1190.5,-118 1080.5,-118"/>
<text text-anchor="middle" x="1135.5" y="-125" font-family="Helvetica,sans-Serif" font-size="10.00">tools/IVisitable.hpp</text>
</a>
</g>
</g>
<!-- Node14&#45;&gt;Node15 -->
<g id="edge27" class="edge">
<title>Node14&#45;&gt;Node15</title>
<path fill="none" stroke="midnightblue" d="M700.85,-183.6C792.5,-174.62 996.94,-154.09 1066.5,-143 1073.4,-141.9 1080.66,-140.57 1087.77,-139.16"/>
<polygon fill="midnightblue" stroke="midnightblue" points="1088.92,-142.5 1098.02,-137.07 1087.52,-135.64 1088.92,-142.5"/>
</g>
<!-- Node19 -->
<g id="node19" class="node">
<title>Node19</title>
<g id="a_node19"><a xlink:title=" ">
<polygon fill="white" stroke="#bfbfbf" points="899,-112.5 899,-142.5 1024,-142.5 1024,-112.5 899,-112.5"/>
<text text-anchor="start" x="907" y="-130.5" font-family="Helvetica,sans-Serif" font-size="10.00">boost/date_time/posix</text>
<text text-anchor="middle" x="961.5" y="-119.5" font-family="Helvetica,sans-Serif" font-size="10.00">_time/posix_time.hpp</text>
</a>
</g>
</g>
<!-- Node14&#45;&gt;Node19 -->
<g id="edge31" class="edge">
<title>Node14&#45;&gt;Node19</title>
<path fill="none" stroke="midnightblue" d="M700.38,-179.49C745.39,-170.93 816.95,-157.24 888.57,-143.17"/>
<polygon fill="midnightblue" stroke="midnightblue" points="889.54,-146.55 898.68,-141.19 888.19,-139.68 889.54,-146.55"/>
</g>
<!-- Node16 -->
<g id="node16" class="node">
<title>Node16</title>
<g id="a_node16"><a xlink:href="../../d2/d91/Visitor_8hpp.html" target="_top" xlink:title=" ">
<polygon fill="white" stroke="black" points="1042,-56.5 1042,-75.5 1137,-75.5 1137,-56.5 1042,-56.5"/>
<text text-anchor="middle" x="1089.5" y="-63.5" font-family="Helvetica,sans-Serif" font-size="10.00">tools/Visitor.hpp</text>
</a>
</g>
</g>
<!-- Node15&#45;&gt;Node16 -->
<g id="edge28" class="edge">
<title>Node15&#45;&gt;Node16</title>
<path fill="none" stroke="midnightblue" d="M1128.91,-117.98C1122.01,-109.05 1111,-94.81 1102.37,-83.64"/>
<polygon fill="midnightblue" stroke="midnightblue" points="1104.96,-81.28 1096.08,-75.51 1099.43,-85.56 1104.96,-81.28"/>
</g>
<!-- Node18 -->
<g id="node18" class="node">
<title>Node18</title>
<g id="a_node18"><a xlink:title=" ">
<polygon fill="white" stroke="#bfbfbf" points="1155.5,-56.5 1155.5,-75.5 1207.5,-75.5 1207.5,-56.5 1155.5,-56.5"/>
<text text-anchor="middle" x="1181.5" y="-63.5" font-family="Helvetica,sans-Serif" font-size="10.00">cassert</text>
</a>
</g>
</g>
<!-- Node15&#45;&gt;Node18 -->
<g id="edge30" class="edge">
<title>Node15&#45;&gt;Node18</title>
<path fill="none" stroke="midnightblue" d="M1142.09,-117.98C1148.99,-109.05 1160,-94.81 1168.63,-83.64"/>
<polygon fill="midnightblue" stroke="midnightblue" points="1171.57,-85.56 1174.92,-75.51 1166.04,-81.28 1171.57,-85.56"/>
</g>
<!-- Node17 -->
<g id="node17" class="node">
<title>Node17</title>
<g id="a_node17"><a xlink:title=" ">
<polygon fill="white" stroke="#bfbfbf" points="1055,-0.5 1055,-19.5 1124,-19.5 1124,-0.5 1055,-0.5"/>
<text text-anchor="middle" x="1089.5" y="-7.5" font-family="Helvetica,sans-Serif" font-size="10.00">type_traits</text>
</a>
</g>
</g>
<!-- Node16&#45;&gt;Node17 -->
<g id="edge29" class="edge">
<title>Node16&#45;&gt;Node17</title>
<path fill="none" stroke="midnightblue" d="M1089.5,-56.08C1089.5,-49.01 1089.5,-38.86 1089.5,-29.99"/>
<polygon fill="midnightblue" stroke="midnightblue" points="1093,-29.75 1089.5,-19.75 1086,-29.75 1093,-29.75"/>
</g>
<!-- Node20&#45;&gt;Node11 -->
<g id="edge37" class="edge">
<title>Node20&#45;&gt;Node11</title>
<path fill="none" stroke="midnightblue" d="M697.89,-235.37C707.84,-222.29 727.99,-197.05 748.5,-179 764.31,-165.09 784.14,-151.89 799.45,-142.47"/>
<polygon fill="midnightblue" stroke="midnightblue" points="801.55,-145.29 808.31,-137.13 797.94,-139.3 801.55,-145.29"/>
</g>
<!-- Node20&#45;&gt;Node14 -->
<g id="edge35" class="edge">
<title>Node20&#45;&gt;Node14</title>
<path fill="none" stroke="midnightblue" d="M685.56,-235.08C680.52,-227.53 673.16,-216.49 666.99,-207.23"/>
<polygon fill="midnightblue" stroke="midnightblue" points="669.79,-205.13 661.33,-198.75 663.97,-209.01 669.79,-205.13"/>
</g>
<!-- Node21 -->
<g id="node21" class="node">
<title>Node21</title>
<g id="a_node21"><a xlink:href="../../d4/dc3/APIStatusCode_8hpp.html" target="_top" xlink:title=" ">
<polygon fill="white" stroke="black" points="757,-179.5 757,-198.5 890,-198.5 890,-179.5 757,-179.5"/>
<text text-anchor="middle" x="823.5" y="-186.5" font-family="Helvetica,sans-Serif" font-size="10.00">core/APIStatusCode.hpp</text>
</a>
</g>
</g>
<!-- Node20&#45;&gt;Node21 -->
<g id="edge36" class="edge">
<title>Node20&#45;&gt;Node21</title>
<path fill="none" stroke="midnightblue" d="M712.42,-235.44C734.24,-226.52 768.65,-212.44 793.39,-202.32"/>
<polygon fill="midnightblue" stroke="midnightblue" points="794.75,-205.54 802.68,-198.52 792.1,-199.06 794.75,-205.54"/>
</g>
</g>
</svg>
        <g id="navigator" transform="translate(0 0)" fill="#404254">
                <rect fill="#f2f5e9" fill-opacity="0.5" stroke="#606060" stroke-width=".5" x="0" y="0" width="60" height="60"/>
                <use id="zoomplus" xlink:href="#zoomPlus" x="17" y="9" onmousedown="handleZoom(evt,'in')"/>
                <use id="zoomminus" xlink:href="#zoomMin" x="42" y="9" onmousedown="handleZoom(evt,'out')"/>
                <use id="reset" xlink:href="#resetDef" x="30" y="36" onmousedown="handleReset()"/>
                <g id="arrowUp" xlink:href="#dirArrow" transform="translate(30 24)" onmousedown="handlePan(0,-1)">
                  <use xlink:href="#rim" fill="#404040">
                        <set attributeName="fill" to="#808080" begin="arrowUp.mouseover" end="arrowUp.mouseout"/>
                  </use>
                  <path fill="none" stroke="white" stroke-width="1.5" d="M0,-3.0v7 M-2.5,-0.5L0,-3.0L2.5,-0.5"/>
                </g>
                <g id="arrowRight" xlink:href="#dirArrow" transform="rotate(90) translate(36 -43)" onmousedown="handlePan(1,0)">
                  <use xlink:href="#rim" fill="#404040">
                        <set attributeName="fill" to="#808080" begin="arrowRight.mouseover" end="arrowRight.mouseout"/>
                  </use>
                  <path fill="none" stroke="white" stroke-width="1.5" d="M0,-3.0v7 M-2.5,-0.5L0,-3.0L2.5,-0.5"/>
                </g>
                <g id="arrowDown" xlink:href="#dirArrow" transform="rotate(180) translate(-30 -48)" onmousedown="handlePan(0,1)">
                  <use xlink:href="#rim" fill="#404040">
                        <set attributeName="fill" to="#808080" begin="arrowDown.mouseover" end="arrowDown.mouseout"/>
                  </use>
                  <path fill="none" stroke="white" stroke-width="1.5" d="M0,-3.0v7 M-2.5,-0.5L0,-3.0L2.5,-0.5"/>
                </g>
                <g id="arrowLeft" xlink:href="#dirArrow" transform="rotate(270) translate(-36 17)" onmousedown="handlePan(-1,0)">
                  <use xlink:href="#rim" fill="#404040">
                        <set attributeName="fill" to="#808080" begin="arrowLeft.mouseover" end="arrowLeft.mouseout"/>
                  </use>
                  <path fill="none" stroke="white" stroke-width="1.5" d="M0,-3.0v7 M-2.5,-0.5L0,-3.0L2.5,-0.5"/>
                </g>
        </g>
        <svg viewBox="0 0 15 15" width="100%" height="30px" preserveAspectRatio="xMaxYMin meet">
         <g id="arrow_out" transform="scale(0.3 0.3)">
          <a xlink:href="Audit_8hpp__incl_org.svg" target="_base">
           <rect id="button" ry="5" rx="5" y="6" x="6" height="38" width="38"
                fill="#f2f5e9" fill-opacity="0.5" stroke="#606060" stroke-width="1.0"/>
           <path id="arrow"
             d="M 11.500037,31.436501 C 11.940474,20.09759 22.043105,11.32322 32.158766,21.979434 L 37.068811,17.246167 C 37.068811,17.246167 37.088388,32 37.088388,32 L 22.160133,31.978069 C 22.160133,31.978069 26.997745,27.140456 26.997745,27.140456 C 18.528582,18.264221 13.291696,25.230495 11.500037,31.436501 z"
             style="fill:#404040;"/>
          </a>
         </g>
        </svg>
</svg>
