<?xml version="1.0" encoding="UTF-8" standalone="no"?>
<!DOCTYPE svg PUBLIC "-//W3C//DTD SVG 1.1//EN"
 "http://www.w3.org/Graphics/SVG/1.1/DTD/svg11.dtd">
<!-- Generated by graphviz version 2.43.0 (0)
 -->
<!-- Title: src/core/update/UpdateService.hpp Pages: 1 -->
<svg width="1747pt" height="106pt"
 viewBox="0.00 0.00 1746.50 106.00" xmlns="http://www.w3.org/2000/svg" xmlns:xlink="http://www.w3.org/1999/xlink">
<g id="graph0" class="graph" transform="scale(1 1) rotate(0) translate(4 102)">
<title>src/core/update/UpdateService.hpp</title>
<polygon fill="white" stroke="transparent" points="-4,4 -4,-102 1742.5,-102 1742.5,4 -4,4"/>
<!-- Node1 -->
<g id="node1" class="node">
<title>Node1</title>
<g id="a_node1"><a xlink:title=" ">
<polygon fill="#bfbfbf" stroke="black" points="768.5,-78.5 768.5,-97.5 955.5,-97.5 955.5,-78.5 768.5,-78.5"/>
<text text-anchor="middle" x="862" y="-85.5" font-family="Helvetica,sans-Serif" font-size="10.00">src/core/update/UpdateService.hpp</text>
</a>
</g>
</g>
<!-- Node2 -->
<g id="node2" class="node">
<title>Node2</title>
<g id="a_node2"><a xlink:href="../../dd/d24/kernel_8cpp.html" target="_top" xlink:title=" ">
<polygon fill="white" stroke="black" points="0,-11.5 0,-30.5 108,-30.5 108,-11.5 0,-11.5"/>
<text text-anchor="middle" x="54" y="-18.5" font-family="Helvetica,sans-Serif" font-size="10.00">src/core/kernel.cpp</text>
</a>
</g>
</g>
<!-- Node1&#45;&gt;Node2 -->
<g id="edge1" class="edge">
<title>Node1&#45;&gt;Node2</title>
<path fill="none" stroke="midnightblue" d="M757.93,-83.89C582.87,-78.12 236.83,-64.28 117,-42 103.24,-39.44 88.28,-34.78 76.4,-30.6"/>
<polygon fill="midnightblue" stroke="midnightblue" points="758.08,-87.39 768.19,-84.22 758.31,-80.4 758.08,-87.39"/>
</g>
<!-- Node3 -->
<g id="node3" class="node">
<title>Node3</title>
<g id="a_node3"><a xlink:href="../../d8/d0b/UpdateDescriptorSerializer_8cpp.html" target="_top" xlink:title=" ">
<polygon fill="white" stroke="black" points="126,-6 126,-36 296,-36 296,-6 126,-6"/>
<text text-anchor="start" x="134" y="-24" font-family="Helvetica,sans-Serif" font-size="10.00">src/core/update/serializers</text>
<text text-anchor="middle" x="211" y="-13" font-family="Helvetica,sans-Serif" font-size="10.00">/UpdateDescriptorSerializer.cpp</text>
</a>
</g>
</g>
<!-- Node1&#45;&gt;Node3 -->
<g id="edge2" class="edge">
<title>Node1&#45;&gt;Node3</title>
<path fill="none" stroke="midnightblue" d="M758.16,-82.62C645.94,-76.95 462.09,-64.96 305,-42 294.02,-40.4 282.4,-38.27 271.22,-36.01"/>
<polygon fill="midnightblue" stroke="midnightblue" points="758.29,-86.13 768.45,-83.13 758.64,-79.14 758.29,-86.13"/>
</g>
<!-- Node4 -->
<g id="node4" class="node">
<title>Node4</title>
<g id="a_node4"><a xlink:href="../../de/dd9/UpdateService_8cpp.html" target="_top" xlink:title=" ">
<polygon fill="white" stroke="black" points="314,-11.5 314,-30.5 500,-30.5 500,-11.5 314,-11.5"/>
<text text-anchor="middle" x="407" y="-18.5" font-family="Helvetica,sans-Serif" font-size="10.00">src/core/update/UpdateService.cpp</text>
</a>
</g>
</g>
<!-- Node1&#45;&gt;Node4 -->
<g id="edge3" class="edge">
<title>Node1&#45;&gt;Node4</title>
<path fill="none" stroke="midnightblue" d="M771.99,-77.3C700.3,-69.15 597.47,-56.53 508,-42 487.71,-38.71 465.27,-34.33 446.7,-30.52"/>
<polygon fill="midnightblue" stroke="midnightblue" points="772.01,-80.82 782.34,-78.46 772.79,-73.86 772.01,-80.82"/>
</g>
<!-- Node5 -->
<g id="node5" class="node">
<title>Node5</title>
<g id="a_node5"><a xlink:href="../../d1/deb/AckUpdate_8cpp.html" target="_top" xlink:title=" ">
<polygon fill="white" stroke="black" points="517.5,-0.5 517.5,-41.5 676.5,-41.5 676.5,-0.5 517.5,-0.5"/>
<text text-anchor="start" x="525.5" y="-29.5" font-family="Helvetica,sans-Serif" font-size="10.00">src/modules/websock</text>
<text text-anchor="start" x="525.5" y="-18.5" font-family="Helvetica,sans-Serif" font-size="10.00">&#45;api/api/update&#45;management</text>
<text text-anchor="middle" x="597" y="-7.5" font-family="Helvetica,sans-Serif" font-size="10.00">/AckUpdate.cpp</text>
</a>
</g>
</g>
<!-- Node1&#45;&gt;Node5 -->
<g id="edge4" class="edge">
<title>Node1&#45;&gt;Node5</title>
<path fill="none" stroke="midnightblue" d="M817.24,-76.02C778.87,-66.61 722.66,-52.82 676.63,-41.53"/>
<polygon fill="midnightblue" stroke="midnightblue" points="816.54,-79.45 827.08,-78.44 818.21,-72.65 816.54,-79.45"/>
</g>
<!-- Node6 -->
<g id="node6" class="node">
<title>Node6</title>
<g id="a_node6"><a xlink:href="../../d0/dcd/CancelUpdate_8cpp.html" target="_top" xlink:title=" ">
<polygon fill="white" stroke="black" points="694.5,-0.5 694.5,-41.5 853.5,-41.5 853.5,-0.5 694.5,-0.5"/>
<text text-anchor="start" x="702.5" y="-29.5" font-family="Helvetica,sans-Serif" font-size="10.00">src/modules/websock</text>
<text text-anchor="start" x="702.5" y="-18.5" font-family="Helvetica,sans-Serif" font-size="10.00">&#45;api/api/update&#45;management</text>
<text text-anchor="middle" x="774" y="-7.5" font-family="Helvetica,sans-Serif" font-size="10.00">/CancelUpdate.cpp</text>
</a>
</g>
</g>
<!-- Node1&#45;&gt;Node6 -->
<g id="edge5" class="edge">
<title>Node1&#45;&gt;Node6</title>
<path fill="none" stroke="midnightblue" d="M841.9,-72.16C829.62,-63.08 813.76,-51.37 800.46,-41.54"/>
<polygon fill="midnightblue" stroke="midnightblue" points="840.01,-75.11 850.13,-78.23 844.17,-69.48 840.01,-75.11"/>
</g>
<!-- Node7 -->
<g id="node7" class="node">
<title>Node7</title>
<g id="a_node7"><a xlink:href="../../d4/d2d/CheckUpdate_8cpp.html" target="_top" xlink:title=" ">
<polygon fill="white" stroke="black" points="871.5,-0.5 871.5,-41.5 1030.5,-41.5 1030.5,-0.5 871.5,-0.5"/>
<text text-anchor="start" x="879.5" y="-29.5" font-family="Helvetica,sans-Serif" font-size="10.00">src/modules/websock</text>
<text text-anchor="start" x="879.5" y="-18.5" font-family="Helvetica,sans-Serif" font-size="10.00">&#45;api/api/update&#45;management</text>
<text text-anchor="middle" x="951" y="-7.5" font-family="Helvetica,sans-Serif" font-size="10.00">/CheckUpdate.cpp</text>
</a>
</g>
</g>
<!-- Node1&#45;&gt;Node7 -->
<g id="edge6" class="edge">
<title>Node1&#45;&gt;Node7</title>
<path fill="none" stroke="midnightblue" d="M882.32,-72.16C894.75,-63.08 910.79,-51.37 924.24,-41.54"/>
<polygon fill="midnightblue" stroke="midnightblue" points="880.01,-69.51 874,-78.23 884.14,-75.16 880.01,-69.51"/>
</g>
<!-- Node8 -->
<g id="node8" class="node">
<title>Node8</title>
<g id="a_node8"><a xlink:href="../../dd/d7b/CreateUpdate_8cpp.html" target="_top" xlink:title=" ">
<polygon fill="white" stroke="black" points="1048.5,-0.5 1048.5,-41.5 1207.5,-41.5 1207.5,-0.5 1048.5,-0.5"/>
<text text-anchor="start" x="1056.5" y="-29.5" font-family="Helvetica,sans-Serif" font-size="10.00">src/modules/websock</text>
<text text-anchor="start" x="1056.5" y="-18.5" font-family="Helvetica,sans-Serif" font-size="10.00">&#45;api/api/update&#45;management</text>
<text text-anchor="middle" x="1128" y="-7.5" font-family="Helvetica,sans-Serif" font-size="10.00">/CreateUpdate.cpp</text>
</a>
</g>
</g>
<!-- Node1&#45;&gt;Node8 -->
<g id="edge7" class="edge">
<title>Node1&#45;&gt;Node8</title>
<path fill="none" stroke="midnightblue" d="M906.95,-76.02C945.54,-66.59 1002.11,-52.76 1048.35,-41.46"/>
<polygon fill="midnightblue" stroke="midnightblue" points="905.93,-72.66 897.05,-78.44 907.59,-79.46 905.93,-72.66"/>
</g>
<!-- Node9 -->
<g id="node9" class="node">
<title>Node9</title>
<g id="a_node9"><a xlink:href="../../d9/d03/PendingUpdateGet_8cpp.html" target="_top" xlink:title=" ">
<polygon fill="white" stroke="black" points="1225.5,-0.5 1225.5,-41.5 1384.5,-41.5 1384.5,-0.5 1225.5,-0.5"/>
<text text-anchor="start" x="1233.5" y="-29.5" font-family="Helvetica,sans-Serif" font-size="10.00">src/modules/websock</text>
<text text-anchor="start" x="1233.5" y="-18.5" font-family="Helvetica,sans-Serif" font-size="10.00">&#45;api/api/update&#45;management</text>
<text text-anchor="middle" x="1305" y="-7.5" font-family="Helvetica,sans-Serif" font-size="10.00">/PendingUpdateGet.cpp</text>
</a>
</g>
</g>
<!-- Node1&#45;&gt;Node9 -->
<g id="edge8" class="edge">
<title>Node1&#45;&gt;Node9</title>
<path fill="none" stroke="midnightblue" d="M958.43,-77.34C1030.05,-69.55 1129.97,-57.37 1217,-42 1219.78,-41.51 1222.6,-40.99 1225.45,-40.45"/>
<polygon fill="midnightblue" stroke="midnightblue" points="957.64,-73.91 948.07,-78.46 958.39,-80.87 957.64,-73.91"/>
</g>
<!-- Node10 -->
<g id="node10" class="node">
<title>Node10</title>
<g id="a_node10"><a xlink:href="../../d0/d36/UpdateGet_8cpp.html" target="_top" xlink:title=" ">
<polygon fill="white" stroke="black" points="1402.5,-0.5 1402.5,-41.5 1561.5,-41.5 1561.5,-0.5 1402.5,-0.5"/>
<text text-anchor="start" x="1410.5" y="-29.5" font-family="Helvetica,sans-Serif" font-size="10.00">src/modules/websock</text>
<text text-anchor="start" x="1410.5" y="-18.5" font-family="Helvetica,sans-Serif" font-size="10.00">&#45;api/api/update&#45;management</text>
<text text-anchor="middle" x="1482" y="-7.5" font-family="Helvetica,sans-Serif" font-size="10.00">/UpdateGet.cpp</text>
</a>
</g>
</g>
<!-- Node1&#45;&gt;Node10 -->
<g id="edge9" class="edge">
<title>Node1&#45;&gt;Node10</title>
<path fill="none" stroke="midnightblue" d="M965.89,-82.49C1073.5,-76.82 1246.26,-64.92 1394,-42 1396.79,-41.57 1399.62,-41.1 1402.47,-40.6"/>
<polygon fill="midnightblue" stroke="midnightblue" points="965.49,-79.01 955.69,-83.02 965.85,-86 965.49,-79.01"/>
</g>
<!-- Node11 -->
<g id="node11" class="node">
<title>Node11</title>
<g id="a_node11"><a xlink:href="../../d1/d97/UpdateHistory_8cpp.html" target="_top" xlink:title=" ">
<polygon fill="white" stroke="black" points="1579.5,-0.5 1579.5,-41.5 1738.5,-41.5 1738.5,-0.5 1579.5,-0.5"/>
<text text-anchor="start" x="1587.5" y="-29.5" font-family="Helvetica,sans-Serif" font-size="10.00">src/modules/websock</text>
<text text-anchor="start" x="1587.5" y="-18.5" font-family="Helvetica,sans-Serif" font-size="10.00">&#45;api/api/update&#45;management</text>
<text text-anchor="middle" x="1659" y="-7.5" font-family="Helvetica,sans-Serif" font-size="10.00">/UpdateHistory.cpp</text>
</a>
</g>
</g>
<!-- Node1&#45;&gt;Node11 -->
<g id="edge10" class="edge">
<title>Node1&#45;&gt;Node11</title>
<path fill="none" stroke="midnightblue" d="M965.87,-85.6C1104.51,-82.55 1357.38,-72.85 1571,-42 1573.79,-41.6 1576.62,-41.15 1579.48,-40.67"/>
<polygon fill="midnightblue" stroke="midnightblue" points="965.61,-82.11 955.68,-85.82 965.75,-89.1 965.61,-82.11"/>
</g>
</g>
</svg>
