<?xml version="1.0" encoding="UTF-8" standalone="no"?>
<!DOCTYPE svg PUBLIC "-//W3C//DTD SVG 1.1//EN"
 "http://www.w3.org/Graphics/SVG/1.1/DTD/svg11.dtd">
<!-- Generated by graphviz version 2.43.0 (0)
 -->
<!-- Title: src/core/netconfig/networkconfig.hpp Pages: 1 -->
<!--zoomable 162 -->
<svg id="main" version="1.1" xmlns="http://www.w3.org/2000/svg" xmlns:xlink="http://www.w3.org/1999/xlink" xml:space="preserve" onload="init(evt)">
<style type="text/css"><![CDATA[
.edge:hover path { stroke: red; }
.edge:hover polygon { stroke: red; fill: red; }
]]></style>
<script type="text/javascript"><![CDATA[
var edges = document.getElementsByTagName('g');
if (edges && edges.length) {
  for (var i=0;i<edges.length;i++) {
    if (edges[i].id.substr(0,4)=='edge') {
      edges[i].setAttribute('class','edge');
    }
  }
}
]]></script>
        <defs>
                <circle id="rim" cx="0" cy="0" r="7"/>
                <circle id="rim2" cx="0" cy="0" r="3.5"/>
                <g id="zoomPlus">
                        <use xlink:href="#rim" fill="#404040">
                                <set attributeName="fill" to="#808080" begin="zoomplus.mouseover" end="zoomplus.mouseout"/>
                        </use>
                        <path d="M-4,0h8M0,-4v8" fill="none" stroke="white" stroke-width="1.5" pointer-events="none"/>
                </g>
                <g id="zoomMin">
                        <use xlink:href="#rim" fill="#404040">
                                <set attributeName="fill" to="#808080" begin="zoomminus.mouseover" end="zoomminus.mouseout"/>
                        </use>
                        <path d="M-4,0h8" fill="none" stroke="white" stroke-width="1.5" pointer-events="none"/>
                </g>
                <g id="dirArrow">
                        <path fill="none" stroke="white" stroke-width="1.5" d="M0,-3.0v7 M-2.5,-0.5L0,-3.0L2.5,-0.5"/>
                </g>
               <g id="resetDef">
                       <use xlink:href="#rim2" fill="#404040">
                               <set attributeName="fill" to="#808080" begin="reset.mouseover" end="reset.mouseout"/>
                       </use>
               </g>
        </defs>

<script type="text/javascript">
var viewWidth = 2896;
var viewHeight = 162;
var sectionId = 'dynsection-1';
</script>
<script xlink:href="../../svgpan.js"/>
<svg id="graph" class="graph">
<g id="viewport">
<title>src/core/netconfig/networkconfig.hpp</title>
<polygon fill="white" stroke="transparent" points="-4,4 -4,-158 2891.5,-158 2891.5,4 -4,4"/>
<!-- Node1 -->
<g id="node1" class="node">
<title>Node1</title>
<g id="a_node1"><a xlink:title="NetworkConfig class declaration.">
<polygon fill="#bfbfbf" stroke="black" points="732.5,-123.5 732.5,-153.5 842.5,-153.5 842.5,-123.5 732.5,-123.5"/>
<text text-anchor="start" x="740.5" y="-141.5" font-family="Helvetica,sans-Serif" font-size="10.00">src/core/netconfig</text>
<text text-anchor="middle" x="787.5" y="-130.5" font-family="Helvetica,sans-Serif" font-size="10.00">/networkconfig.hpp</text>
</a>
</g>
</g>
<!-- Node2 -->
<g id="node2" class="node">
<title>Node2</title>
<g id="a_node2"><a xlink:href="../../df/db8/kernel_8hpp.html" target="_top" xlink:title=" ">
<polygon fill="white" stroke="black" points="1382,-67.5 1382,-86.5 1491,-86.5 1491,-67.5 1382,-67.5"/>
<text text-anchor="middle" x="1436.5" y="-74.5" font-family="Helvetica,sans-Serif" font-size="10.00">src/core/kernel.hpp</text>
</a>
</g>
</g>
<!-- Node1&#45;&gt;Node2 -->
<g id="edge1" class="edge">
<title>Node1&#45;&gt;Node2</title>
<path fill="none" stroke="midnightblue" d="M852.6,-131.53C980.53,-119.8 1262.59,-93.94 1381.7,-83.02"/>
<polygon fill="midnightblue" stroke="midnightblue" points="852.19,-128.05 842.55,-132.45 852.83,-135.03 852.19,-128.05"/>
</g>
<!-- Node9 -->
<g id="node9" class="node">
<title>Node9</title>
<g id="a_node9"><a xlink:href="../../d2/d2a/networkconfig_8cpp.html" target="_top" xlink:title="NetworkConfig class implementation.">
<polygon fill="white" stroke="black" points="0,-0.5 0,-30.5 109,-30.5 109,-0.5 0,-0.5"/>
<text text-anchor="start" x="8" y="-18.5" font-family="Helvetica,sans-Serif" font-size="10.00">src/core/netconfig</text>
<text text-anchor="middle" x="54.5" y="-7.5" font-family="Helvetica,sans-Serif" font-size="10.00">/networkconfig.cpp</text>
</a>
</g>
</g>
<!-- Node1&#45;&gt;Node9 -->
<g id="edge21" class="edge">
<title>Node1&#45;&gt;Node9</title>
<path fill="none" stroke="midnightblue" d="M721.98,-128.61C601.75,-111.95 337.97,-73.84 117.5,-31 114.75,-30.46 111.93,-29.9 109.09,-29.3"/>
<polygon fill="midnightblue" stroke="midnightblue" points="721.74,-132.11 732.12,-130.01 722.7,-125.17 721.74,-132.11"/>
</g>
<!-- Node3 -->
<g id="node3" class="node">
<title>Node3</title>
<g id="a_node3"><a xlink:href="../../d6/dff/src_2core_2config_2ConfigManager_8cpp.html" target="_top" xlink:title=" ">
<polygon fill="white" stroke="black" points="127,-6 127,-25 310,-25 310,-6 127,-6"/>
<text text-anchor="middle" x="218.5" y="-13" font-family="Helvetica,sans-Serif" font-size="10.00">src/core/config/ConfigManager.cpp</text>
</a>
</g>
</g>
<!-- Node2&#45;&gt;Node3 -->
<g id="edge2" class="edge">
<title>Node2&#45;&gt;Node3</title>
<path fill="none" stroke="midnightblue" d="M1371.59,-75.7C1199.64,-74.42 718.19,-67.55 319.5,-31 303.54,-29.54 286.24,-27.3 270.54,-25.01"/>
<polygon fill="midnightblue" stroke="midnightblue" points="1371.72,-79.2 1381.74,-75.78 1371.77,-72.2 1371.72,-79.2"/>
</g>
<!-- Node4 -->
<g id="node4" class="node">
<title>Node4</title>
<g id="a_node4"><a xlink:href="../../d3/d1e/CoreAPI_8cpp.html" target="_top" xlink:title=" ">
<polygon fill="white" stroke="black" points="328.5,-6 328.5,-25 444.5,-25 444.5,-6 328.5,-6"/>
<text text-anchor="middle" x="386.5" y="-13" font-family="Helvetica,sans-Serif" font-size="10.00">src/core/CoreAPI.cpp</text>
</a>
</g>
</g>
<!-- Node2&#45;&gt;Node4 -->
<g id="edge3" class="edge">
<title>Node2&#45;&gt;Node4</title>
<path fill="none" stroke="midnightblue" d="M1371.47,-76.7C1213.6,-77.6 797.85,-75.17 454.5,-31 443.61,-29.6 431.86,-27.36 421.25,-25.06"/>
<polygon fill="midnightblue" stroke="midnightblue" points="1371.96,-80.2 1381.94,-76.63 1371.91,-73.2 1371.96,-80.2"/>
</g>
<!-- Node5 -->
<g id="node5" class="node">
<title>Node5</title>
<g id="a_node5"><a xlink:href="../../d4/dd4/CoreUtils_8cpp.html" target="_top" xlink:title=" ">
<polygon fill="white" stroke="black" points="463,-6 463,-25 586,-25 586,-6 463,-6"/>
<text text-anchor="middle" x="524.5" y="-13" font-family="Helvetica,sans-Serif" font-size="10.00">src/core/CoreUtils.cpp</text>
</a>
</g>
</g>
<!-- Node2&#45;&gt;Node5 -->
<g id="edge4" class="edge">
<title>Node2&#45;&gt;Node5</title>
<path fill="none" stroke="midnightblue" d="M1371.39,-75.79C1229.72,-74.61 883.08,-67.85 595.5,-31 584.27,-29.56 572.16,-27.34 561.18,-25.07"/>
<polygon fill="midnightblue" stroke="midnightblue" points="1371.61,-79.29 1381.64,-75.87 1371.67,-72.29 1371.61,-79.29"/>
</g>
<!-- Node6 -->
<g id="node6" class="node">
<title>Node6</title>
<g id="a_node6"><a xlink:href="../../d9/d6a/GetServiceRegistry_8cpp.html" target="_top" xlink:title=" ">
<polygon fill="white" stroke="black" points="604.5,-6 604.5,-25 774.5,-25 774.5,-6 604.5,-6"/>
<text text-anchor="middle" x="689.5" y="-13" font-family="Helvetica,sans-Serif" font-size="10.00">src/core/GetServiceRegistry.cpp</text>
</a>
</g>
</g>
<!-- Node2&#45;&gt;Node6 -->
<g id="edge5" class="edge">
<title>Node2&#45;&gt;Node6</title>
<path fill="none" stroke="midnightblue" d="M1371.49,-73.34C1253.89,-68.11 998.1,-54.9 783.5,-31 769.22,-29.41 753.79,-27.23 739.64,-25.04"/>
<polygon fill="midnightblue" stroke="midnightblue" points="1371.61,-76.84 1381.75,-73.79 1371.92,-69.85 1371.61,-76.84"/>
</g>
<!-- Node7 -->
<g id="node7" class="node">
<title>Node7</title>
<g id="a_node7"><a xlink:href="../../dd/d24/kernel_8cpp.html" target="_top" xlink:title=" ">
<polygon fill="white" stroke="black" points="792.5,-6 792.5,-25 900.5,-25 900.5,-6 792.5,-6"/>
<text text-anchor="middle" x="846.5" y="-13" font-family="Helvetica,sans-Serif" font-size="10.00">src/core/kernel.cpp</text>
</a>
</g>
</g>
<!-- Node2&#45;&gt;Node7 -->
<g id="edge6" class="edge">
<title>Node2&#45;&gt;Node7</title>
<path fill="none" stroke="midnightblue" d="M1371.47,-73.32C1271.77,-68.55 1075.38,-56.61 910.5,-31 900.59,-29.46 889.93,-27.27 880.21,-25.05"/>
<polygon fill="midnightblue" stroke="midnightblue" points="1371.53,-76.82 1381.68,-73.79 1371.86,-69.83 1371.53,-76.82"/>
</g>
<!-- Node8 -->
<g id="node8" class="node">
<title>Node8</title>
<g id="a_node8"><a xlink:href="../../d9/d4a/module__manager_8cpp.html" target="_top" xlink:title=" ">
<polygon fill="white" stroke="black" points="919,-6 919,-25 1082,-25 1082,-6 919,-6"/>
<text text-anchor="middle" x="1000.5" y="-13" font-family="Helvetica,sans-Serif" font-size="10.00">src/core/module_manager.cpp</text>
</a>
</g>
</g>
<!-- Node2&#45;&gt;Node8 -->
<g id="edge7" class="edge">
<title>Node2&#45;&gt;Node8</title>
<path fill="none" stroke="midnightblue" d="M1371.42,-68.07C1302.01,-59.48 1188.87,-45.11 1091.5,-31 1078.83,-29.17 1065.2,-27.06 1052.43,-25.04"/>
<polygon fill="midnightblue" stroke="midnightblue" points="1371.41,-71.59 1381.76,-69.35 1372.27,-64.65 1371.41,-71.59"/>
</g>
<!-- Node2&#45;&gt;Node9 -->
<g id="edge8" class="edge">
<title>Node2&#45;&gt;Node9</title>
<path fill="none" stroke="midnightblue" d="M1371.67,-75.44C1141.5,-73.18 364.18,-63.29 117.5,-31 114.72,-30.64 111.88,-30.2 109.02,-29.72"/>
<polygon fill="midnightblue" stroke="midnightblue" points="1371.86,-78.94 1381.89,-75.54 1371.93,-71.94 1371.86,-78.94"/>
</g>
<!-- Node10 -->
<g id="node10" class="node">
<title>Node10</title>
<g id="a_node10"><a xlink:href="../../d4/d28/RemoteControl_8cpp.html" target="_top" xlink:title=" ">
<polygon fill="white" stroke="black" points="1100.5,-6 1100.5,-25 1252.5,-25 1252.5,-6 1100.5,-6"/>
<text text-anchor="middle" x="1176.5" y="-13" font-family="Helvetica,sans-Serif" font-size="10.00">src/core/RemoteControl.cpp</text>
</a>
</g>
</g>
<!-- Node2&#45;&gt;Node10 -->
<g id="edge9" class="edge">
<title>Node2&#45;&gt;Node10</title>
<path fill="none" stroke="midnightblue" d="M1389.25,-65.19C1338.8,-53.64 1259.89,-35.58 1213.68,-25.01"/>
<polygon fill="midnightblue" stroke="midnightblue" points="1388.72,-68.66 1399.25,-67.48 1390.28,-61.83 1388.72,-68.66"/>
</g>
<!-- Node11 -->
<g id="node11" class="node">
<title>Node11</title>
<g id="a_node11"><a xlink:href="../../df/dca/GetLocalConfigVersion_8cpp.html" target="_top" xlink:title=" ">
<polygon fill="white" stroke="black" points="1271,-0.5 1271,-30.5 1432,-30.5 1432,-0.5 1271,-0.5"/>
<text text-anchor="start" x="1279" y="-18.5" font-family="Helvetica,sans-Serif" font-size="10.00">src/core/tasks/GetLocalConfig</text>
<text text-anchor="middle" x="1351.5" y="-7.5" font-family="Helvetica,sans-Serif" font-size="10.00">Version.cpp</text>
</a>
</g>
</g>
<!-- Node2&#45;&gt;Node11 -->
<g id="edge10" class="edge">
<title>Node2&#45;&gt;Node11</title>
<path fill="none" stroke="midnightblue" d="M1416.13,-61.74C1402.62,-52.28 1384.97,-39.93 1371.53,-30.52"/>
<polygon fill="midnightblue" stroke="midnightblue" points="1414.12,-64.61 1424.32,-67.48 1418.14,-58.87 1414.12,-64.61"/>
</g>
<!-- Node12 -->
<g id="node12" class="node">
<title>Node12</title>
<g id="a_node12"><a xlink:href="../../d7/d6f/GetRemoteConfigVersion_8cpp.html" target="_top" xlink:title=" ">
<polygon fill="white" stroke="black" points="1450,-0.5 1450,-30.5 1593,-30.5 1593,-0.5 1450,-0.5"/>
<text text-anchor="start" x="1458" y="-18.5" font-family="Helvetica,sans-Serif" font-size="10.00">src/core/tasks/GetRemote</text>
<text text-anchor="middle" x="1521.5" y="-7.5" font-family="Helvetica,sans-Serif" font-size="10.00">ConfigVersion.cpp</text>
</a>
</g>
</g>
<!-- Node2&#45;&gt;Node12 -->
<g id="edge11" class="edge">
<title>Node2&#45;&gt;Node12</title>
<path fill="none" stroke="midnightblue" d="M1456.87,-61.74C1470.38,-52.28 1488.03,-39.93 1501.47,-30.52"/>
<polygon fill="midnightblue" stroke="midnightblue" points="1454.86,-58.87 1448.68,-67.48 1458.88,-64.61 1454.86,-58.87"/>
</g>
<!-- Node13 -->
<g id="node13" class="node">
<title>Node13</title>
<g id="a_node13"><a xlink:href="../../d5/d8e/SyncConfig_8cpp.html" target="_top" xlink:title=" ">
<polygon fill="white" stroke="black" points="1611,-6 1611,-25 1772,-25 1772,-6 1611,-6"/>
<text text-anchor="middle" x="1691.5" y="-13" font-family="Helvetica,sans-Serif" font-size="10.00">src/core/tasks/SyncConfig.cpp</text>
</a>
</g>
</g>
<!-- Node2&#45;&gt;Node13 -->
<g id="edge12" class="edge">
<title>Node2&#45;&gt;Node13</title>
<path fill="none" stroke="midnightblue" d="M1482.85,-65.19C1532.33,-53.64 1609.71,-35.58 1655.03,-25.01"/>
<polygon fill="midnightblue" stroke="midnightblue" points="1481.98,-61.79 1473.04,-67.48 1483.57,-68.61 1481.98,-61.79"/>
</g>
<!-- Node14 -->
<g id="node14" class="node">
<title>Node14</title>
<g id="a_node14"><a xlink:href="../../df/d0a/main_8cpp.html" target="_top" xlink:title="standard main">
<polygon fill="white" stroke="black" points="1790,-6 1790,-25 1869,-25 1869,-6 1790,-6"/>
<text text-anchor="middle" x="1829.5" y="-13" font-family="Helvetica,sans-Serif" font-size="10.00">src/main.cpp</text>
</a>
</g>
</g>
<!-- Node2&#45;&gt;Node14 -->
<g id="edge13" class="edge">
<title>Node2&#45;&gt;Node14</title>
<path fill="none" stroke="midnightblue" d="M1501.43,-70.73C1571.19,-64.32 1685.02,-51.72 1781.5,-31 1788.9,-29.41 1796.82,-27.23 1804.04,-25.04"/>
<polygon fill="midnightblue" stroke="midnightblue" points="1500.69,-67.28 1491.05,-71.66 1501.32,-74.25 1500.69,-67.28"/>
</g>
<!-- Node15 -->
<g id="node15" class="node">
<title>Node15</title>
<g id="a_node15"><a xlink:href="../../df/dac/AuthDBModule_8cpp.html" target="_top" xlink:title=" ">
<polygon fill="white" stroke="black" points="1887.5,-0.5 1887.5,-30.5 2015.5,-30.5 2015.5,-0.5 1887.5,-0.5"/>
<text text-anchor="start" x="1895.5" y="-18.5" font-family="Helvetica,sans-Serif" font-size="10.00">src/modules/auth/auth</text>
<text text-anchor="middle" x="1951.5" y="-7.5" font-family="Helvetica,sans-Serif" font-size="10.00">&#45;db/AuthDBModule.cpp</text>
</a>
</g>
</g>
<!-- Node2&#45;&gt;Node15 -->
<g id="edge14" class="edge">
<title>Node2&#45;&gt;Node15</title>
<path fill="none" stroke="midnightblue" d="M1501.32,-71.33C1587.68,-64.67 1745.09,-50.99 1878.5,-31 1881.44,-30.56 1884.44,-30.08 1887.47,-29.58"/>
<polygon fill="midnightblue" stroke="midnightblue" points="1500.85,-67.86 1491.14,-72.11 1501.38,-74.84 1500.85,-67.86"/>
</g>
<!-- Node16 -->
<g id="node16" class="node">
<title>Node16</title>
<g id="a_node16"><a xlink:href="../../d8/d37/AuthFileModule_8cpp.html" target="_top" xlink:title=" ">
<polygon fill="white" stroke="black" points="2033.5,-0.5 2033.5,-30.5 2167.5,-30.5 2167.5,-0.5 2033.5,-0.5"/>
<text text-anchor="start" x="2041.5" y="-18.5" font-family="Helvetica,sans-Serif" font-size="10.00">src/modules/auth/auth</text>
<text text-anchor="middle" x="2100.5" y="-7.5" font-family="Helvetica,sans-Serif" font-size="10.00">&#45;file/AuthFileModule.cpp</text>
</a>
</g>
</g>
<!-- Node2&#45;&gt;Node16 -->
<g id="edge15" class="edge">
<title>Node2&#45;&gt;Node16</title>
<path fill="none" stroke="midnightblue" d="M1501.16,-73.43C1609.7,-68.57 1835.25,-56.21 2024.5,-31 2027.43,-30.61 2030.42,-30.18 2033.43,-29.72"/>
<polygon fill="midnightblue" stroke="midnightblue" points="1500.86,-69.93 1491.03,-73.87 1501.17,-76.93 1500.86,-69.93"/>
</g>
<!-- Node17 -->
<g id="node17" class="node">
<title>Node17</title>
<g id="a_node17"><a xlink:href="../../d0/d58/DoormanModule_8cpp.html" target="_top" xlink:title=" ">
<polygon fill="white" stroke="black" points="2185.5,-0.5 2185.5,-30.5 2307.5,-30.5 2307.5,-0.5 2185.5,-0.5"/>
<text text-anchor="start" x="2193.5" y="-18.5" font-family="Helvetica,sans-Serif" font-size="10.00">src/modules/doorman</text>
<text text-anchor="middle" x="2246.5" y="-7.5" font-family="Helvetica,sans-Serif" font-size="10.00">/DoormanModule.cpp</text>
</a>
</g>
</g>
<!-- Node2&#45;&gt;Node17 -->
<g id="edge16" class="edge">
<title>Node2&#45;&gt;Node17</title>
<path fill="none" stroke="midnightblue" d="M1501.17,-75.18C1630.16,-72.86 1928.38,-64.07 2176.5,-31 2179.33,-30.62 2182.22,-30.2 2185.13,-29.73"/>
<polygon fill="midnightblue" stroke="midnightblue" points="1501.01,-71.68 1491.07,-75.36 1501.13,-78.68 1501.01,-71.68"/>
</g>
<!-- Node18 -->
<g id="node18" class="node">
<title>Node18</title>
<g id="a_node18"><a xlink:href="../../d7/d36/LEDBuzzerModule_8cpp.html" target="_top" xlink:title=" ">
<polygon fill="white" stroke="black" points="2325.5,-0.5 2325.5,-30.5 2455.5,-30.5 2455.5,-0.5 2325.5,-0.5"/>
<text text-anchor="start" x="2333.5" y="-18.5" font-family="Helvetica,sans-Serif" font-size="10.00">src/modules/led&#45;buzzer</text>
<text text-anchor="middle" x="2390.5" y="-7.5" font-family="Helvetica,sans-Serif" font-size="10.00">/LEDBuzzerModule.cpp</text>
</a>
</g>
</g>
<!-- Node2&#45;&gt;Node18 -->
<g id="edge17" class="edge">
<title>Node2&#45;&gt;Node18</title>
<path fill="none" stroke="midnightblue" d="M1501.19,-75.84C1647.16,-74.78 2013.09,-68.29 2316.5,-31 2319.36,-30.65 2322.27,-30.25 2325.21,-29.82"/>
<polygon fill="midnightblue" stroke="midnightblue" points="1501.04,-72.34 1491.06,-75.9 1501.08,-79.34 1501.04,-72.34"/>
</g>
<!-- Node19 -->
<g id="node19" class="node">
<title>Node19</title>
<g id="a_node19"><a xlink:href="../../da/d77/SysFsGpioModule_8cpp.html" target="_top" xlink:title=" ">
<polygon fill="white" stroke="black" points="2474,-0.5 2474,-30.5 2601,-30.5 2601,-0.5 2474,-0.5"/>
<text text-anchor="start" x="2482" y="-18.5" font-family="Helvetica,sans-Serif" font-size="10.00">src/modules/sysfsgpio</text>
<text text-anchor="middle" x="2537.5" y="-7.5" font-family="Helvetica,sans-Serif" font-size="10.00">/SysFsGpioModule.cpp</text>
</a>
</g>
</g>
<!-- Node2&#45;&gt;Node19 -->
<g id="edge18" class="edge">
<title>Node2&#45;&gt;Node19</title>
<path fill="none" stroke="midnightblue" d="M1501.39,-76.58C1664.11,-77.29 2102.43,-74.63 2464.5,-31 2467.58,-30.63 2470.72,-30.2 2473.89,-29.73"/>
<polygon fill="midnightblue" stroke="midnightblue" points="1501.09,-73.08 1491.07,-76.53 1501.05,-80.08 1501.09,-73.08"/>
</g>
<!-- Node20 -->
<g id="node20" class="node">
<title>Node20</title>
<g id="a_node20"><a xlink:href="../../d9/d8d/APISession_8cpp.html" target="_top" xlink:title=" ">
<polygon fill="white" stroke="black" points="2619.5,-0.5 2619.5,-30.5 2749.5,-30.5 2749.5,-0.5 2619.5,-0.5"/>
<text text-anchor="start" x="2627.5" y="-18.5" font-family="Helvetica,sans-Serif" font-size="10.00">src/modules/websock</text>
<text text-anchor="middle" x="2684.5" y="-7.5" font-family="Helvetica,sans-Serif" font-size="10.00">&#45;api/api/APISession.cpp</text>
</a>
</g>
</g>
<!-- Node2&#45;&gt;Node20 -->
<g id="edge19" class="edge">
<title>Node2&#45;&gt;Node20</title>
<path fill="none" stroke="midnightblue" d="M1501.23,-74.84C1714.36,-70.83 2392.97,-56.33 2610.5,-31 2613.36,-30.67 2616.28,-30.28 2619.22,-29.86"/>
<polygon fill="midnightblue" stroke="midnightblue" points="1501.07,-71.35 1491.13,-75.03 1501.2,-78.34 1501.07,-71.35"/>
</g>
<!-- Node21 -->
<g id="node21" class="node">
<title>Node21</title>
<g id="a_node21"><a xlink:href="../../d3/de8/wiegand_8cpp.html" target="_top" xlink:title=" ">
<polygon fill="white" stroke="black" points="2767.5,-0.5 2767.5,-30.5 2887.5,-30.5 2887.5,-0.5 2767.5,-0.5"/>
<text text-anchor="start" x="2775.5" y="-18.5" font-family="Helvetica,sans-Serif" font-size="10.00">src/modules/wiegand</text>
<text text-anchor="middle" x="2827.5" y="-7.5" font-family="Helvetica,sans-Serif" font-size="10.00">/wiegand.cpp</text>
</a>
</g>
</g>
<!-- Node2&#45;&gt;Node21 -->
<g id="edge20" class="edge">
<title>Node2&#45;&gt;Node21</title>
<path fill="none" stroke="midnightblue" d="M1501.46,-75.28C1732.08,-72.48 2510.96,-60.99 2758.5,-31 2761.42,-30.65 2764.39,-30.23 2767.39,-29.77"/>
<polygon fill="midnightblue" stroke="midnightblue" points="1501.17,-71.78 1491.21,-75.4 1501.26,-78.78 1501.17,-71.78"/>
</g>
</g>
</svg>
        <g id="navigator" transform="translate(0 0)" fill="#404254">
                <rect fill="#f2f5e9" fill-opacity="0.5" stroke="#606060" stroke-width=".5" x="0" y="0" width="60" height="60"/>
                <use id="zoomplus" xlink:href="#zoomPlus" x="17" y="9" onmousedown="handleZoom(evt,'in')"/>
                <use id="zoomminus" xlink:href="#zoomMin" x="42" y="9" onmousedown="handleZoom(evt,'out')"/>
                <use id="reset" xlink:href="#resetDef" x="30" y="36" onmousedown="handleReset()"/>
                <g id="arrowUp" xlink:href="#dirArrow" transform="translate(30 24)" onmousedown="handlePan(0,-1)">
                  <use xlink:href="#rim" fill="#404040">
                        <set attributeName="fill" to="#808080" begin="arrowUp.mouseover" end="arrowUp.mouseout"/>
                  </use>
                  <path fill="none" stroke="white" stroke-width="1.5" d="M0,-3.0v7 M-2.5,-0.5L0,-3.0L2.5,-0.5"/>
                </g>
                <g id="arrowRight" xlink:href="#dirArrow" transform="rotate(90) translate(36 -43)" onmousedown="handlePan(1,0)">
                  <use xlink:href="#rim" fill="#404040">
                        <set attributeName="fill" to="#808080" begin="arrowRight.mouseover" end="arrowRight.mouseout"/>
                  </use>
                  <path fill="none" stroke="white" stroke-width="1.5" d="M0,-3.0v7 M-2.5,-0.5L0,-3.0L2.5,-0.5"/>
                </g>
                <g id="arrowDown" xlink:href="#dirArrow" transform="rotate(180) translate(-30 -48)" onmousedown="handlePan(0,1)">
                  <use xlink:href="#rim" fill="#404040">
                        <set attributeName="fill" to="#808080" begin="arrowDown.mouseover" end="arrowDown.mouseout"/>
                  </use>
                  <path fill="none" stroke="white" stroke-width="1.5" d="M0,-3.0v7 M-2.5,-0.5L0,-3.0L2.5,-0.5"/>
                </g>
                <g id="arrowLeft" xlink:href="#dirArrow" transform="rotate(270) translate(-36 17)" onmousedown="handlePan(-1,0)">
                  <use xlink:href="#rim" fill="#404040">
                        <set attributeName="fill" to="#808080" begin="arrowLeft.mouseover" end="arrowLeft.mouseout"/>
                  </use>
                  <path fill="none" stroke="white" stroke-width="1.5" d="M0,-3.0v7 M-2.5,-0.5L0,-3.0L2.5,-0.5"/>
                </g>
        </g>
        <svg viewBox="0 0 15 15" width="100%" height="30px" preserveAspectRatio="xMaxYMin meet">
         <g id="arrow_out" transform="scale(0.3 0.3)">
          <a xlink:href="networkconfig_8hpp__dep__incl_org.svg" target="_base">
           <rect id="button" ry="5" rx="5" y="6" x="6" height="38" width="38"
                fill="#f2f5e9" fill-opacity="0.5" stroke="#606060" stroke-width="1.0"/>
           <path id="arrow"
             d="M 11.500037,31.436501 C 11.940474,20.09759 22.043105,11.32322 32.158766,21.979434 L 37.068811,17.246167 C 37.068811,17.246167 37.088388,32 37.088388,32 L 22.160133,31.978069 C 22.160133,31.978069 26.997745,27.140456 26.997745,27.140456 C 18.528582,18.264221 13.291696,25.230495 11.500037,31.436501 z"
             style="fill:#404040;"/>
          </a>
         </g>
        </svg>
</svg>
