<?xml version="1.0" encoding="UTF-8" standalone="no"?>
<!DOCTYPE svg PUBLIC "-//W3C//DTD SVG 1.1//EN"
 "http://www.w3.org/Graphics/SVG/1.1/DTD/svg11.dtd">
<!-- Generated by graphviz version 2.43.0 (0)
 -->
<!-- Title: src/core/auth/serializers/UserSerializer.hpp Pages: 1 -->
<svg width="438pt" height="151pt"
 viewBox="0.00 0.00 438.00 151.00" xmlns="http://www.w3.org/2000/svg" xmlns:xlink="http://www.w3.org/1999/xlink">
<g id="graph0" class="graph" transform="scale(1 1) rotate(0) translate(4 147)">
<title>src/core/auth/serializers/UserSerializer.hpp</title>
<polygon fill="white" stroke="transparent" points="-4,4 -4,-147 434,-147 434,4 -4,4"/>
<!-- Node1 -->
<g id="node1" class="node">
<title>Node1</title>
<g id="a_node1"><a xlink:title=" ">
<polygon fill="#bfbfbf" stroke="black" points="177.5,-112.5 177.5,-142.5 310.5,-142.5 310.5,-112.5 177.5,-112.5"/>
<text text-anchor="start" x="185.5" y="-130.5" font-family="Helvetica,sans-Serif" font-size="10.00">src/core/auth/serializers</text>
<text text-anchor="middle" x="244" y="-119.5" font-family="Helvetica,sans-Serif" font-size="10.00">/UserSerializer.hpp</text>
</a>
</g>
</g>
<!-- Node2 -->
<g id="node2" class="node">
<title>Node2</title>
<g id="a_node2"><a xlink:href="../../dc/d49/LeosacFwd_8hpp.html" target="_top" xlink:title=" ">
<polygon fill="white" stroke="black" points="0,-56.5 0,-75.5 92,-75.5 92,-56.5 0,-56.5"/>
<text text-anchor="middle" x="46" y="-63.5" font-family="Helvetica,sans-Serif" font-size="10.00">LeosacFwd.hpp</text>
</a>
</g>
</g>
<!-- Node1&#45;&gt;Node2 -->
<g id="edge1" class="edge">
<title>Node1&#45;&gt;Node2</title>
<path fill="none" stroke="midnightblue" d="M197.33,-112.47C162.87,-102.12 116.54,-88.2 84.26,-78.5"/>
<polygon fill="midnightblue" stroke="midnightblue" points="84.89,-75.03 74.31,-75.51 82.88,-81.74 84.89,-75.03"/>
</g>
<!-- Node5 -->
<g id="node5" class="node">
<title>Node5</title>
<g id="a_node5"><a xlink:href="../../d3/d6f/AuthFwd_8hpp.html" target="_top" xlink:title=" ">
<polygon fill="white" stroke="black" points="110.5,-56.5 110.5,-75.5 239.5,-75.5 239.5,-56.5 110.5,-56.5"/>
<text text-anchor="middle" x="175" y="-63.5" font-family="Helvetica,sans-Serif" font-size="10.00">core/auth/AuthFwd.hpp</text>
</a>
</g>
</g>
<!-- Node1&#45;&gt;Node5 -->
<g id="edge4" class="edge">
<title>Node1&#45;&gt;Node5</title>
<path fill="none" stroke="midnightblue" d="M227.65,-112.4C217.1,-103.31 203.4,-91.49 192.62,-82.19"/>
<polygon fill="midnightblue" stroke="midnightblue" points="194.9,-79.54 185.04,-75.66 190.33,-84.84 194.9,-79.54"/>
</g>
<!-- Node8 -->
<g id="node8" class="node">
<title>Node8</title>
<g id="a_node8"><a xlink:title=" ">
<polygon fill="white" stroke="#bfbfbf" points="258,-56.5 258,-75.5 368,-75.5 368,-56.5 258,-56.5"/>
<text text-anchor="middle" x="313" y="-63.5" font-family="Helvetica,sans-Serif" font-size="10.00">nlohmann/json.hpp</text>
</a>
</g>
</g>
<!-- Node1&#45;&gt;Node8 -->
<g id="edge8" class="edge">
<title>Node1&#45;&gt;Node8</title>
<path fill="none" stroke="midnightblue" d="M260.35,-112.4C270.9,-103.31 284.6,-91.49 295.38,-82.19"/>
<polygon fill="midnightblue" stroke="midnightblue" points="297.67,-84.84 302.96,-75.66 293.1,-79.54 297.67,-84.84"/>
</g>
<!-- Node9 -->
<g id="node9" class="node">
<title>Node9</title>
<g id="a_node9"><a xlink:title=" ">
<polygon fill="white" stroke="#bfbfbf" points="386,-56.5 386,-75.5 430,-75.5 430,-56.5 386,-56.5"/>
<text text-anchor="middle" x="408" y="-63.5" font-family="Helvetica,sans-Serif" font-size="10.00">string</text>
</a>
</g>
</g>
<!-- Node1&#45;&gt;Node9 -->
<g id="edge9" class="edge">
<title>Node1&#45;&gt;Node9</title>
<path fill="none" stroke="midnightblue" d="M282.87,-112.4C311.25,-102.1 349.29,-88.3 375.94,-78.63"/>
<polygon fill="midnightblue" stroke="midnightblue" points="377.35,-81.84 385.56,-75.14 374.96,-75.26 377.35,-81.84"/>
</g>
<!-- Node3 -->
<g id="node3" class="node">
<title>Node3</title>
<g id="a_node3"><a xlink:title=" ">
<polygon fill="white" stroke="#bfbfbf" points="72,-0.5 72,-19.5 130,-19.5 130,-0.5 72,-0.5"/>
<text text-anchor="middle" x="101" y="-7.5" font-family="Helvetica,sans-Serif" font-size="10.00">memory</text>
</a>
</g>
</g>
<!-- Node2&#45;&gt;Node3 -->
<g id="edge2" class="edge">
<title>Node2&#45;&gt;Node3</title>
<path fill="none" stroke="midnightblue" d="M55.08,-56.08C63.17,-48.14 75.2,-36.34 84.91,-26.8"/>
<polygon fill="midnightblue" stroke="midnightblue" points="87.4,-29.25 92.09,-19.75 82.5,-24.26 87.4,-29.25"/>
</g>
<!-- Node4 -->
<g id="node4" class="node">
<title>Node4</title>
<g id="a_node4"><a xlink:title=" ">
<polygon fill="white" stroke="#bfbfbf" points="6.5,-0.5 6.5,-19.5 53.5,-19.5 53.5,-0.5 6.5,-0.5"/>
<text text-anchor="middle" x="30" y="-7.5" font-family="Helvetica,sans-Serif" font-size="10.00">vector</text>
</a>
</g>
</g>
<!-- Node2&#45;&gt;Node4 -->
<g id="edge3" class="edge">
<title>Node2&#45;&gt;Node4</title>
<path fill="none" stroke="midnightblue" d="M43.36,-56.08C41.21,-48.85 38.12,-38.41 35.45,-29.4"/>
<polygon fill="midnightblue" stroke="midnightblue" points="38.79,-28.34 32.59,-19.75 32.08,-30.33 38.79,-28.34"/>
</g>
<!-- Node5&#45;&gt;Node3 -->
<g id="edge6" class="edge">
<title>Node5&#45;&gt;Node3</title>
<path fill="none" stroke="midnightblue" d="M163.11,-56.32C151.85,-48.11 134.71,-35.6 121.29,-25.81"/>
<polygon fill="midnightblue" stroke="midnightblue" points="123.25,-22.9 113.11,-19.83 119.12,-28.56 123.25,-22.9"/>
</g>
<!-- Node6 -->
<g id="node6" class="node">
<title>Node6</title>
<g id="a_node6"><a xlink:title=" ">
<polygon fill="white" stroke="#bfbfbf" points="148.5,-0.5 148.5,-19.5 201.5,-19.5 201.5,-0.5 148.5,-0.5"/>
<text text-anchor="middle" x="175" y="-7.5" font-family="Helvetica,sans-Serif" font-size="10.00">cstddef</text>
</a>
</g>
</g>
<!-- Node5&#45;&gt;Node6 -->
<g id="edge5" class="edge">
<title>Node5&#45;&gt;Node6</title>
<path fill="none" stroke="midnightblue" d="M175,-56.08C175,-49.01 175,-38.86 175,-29.99"/>
<polygon fill="midnightblue" stroke="midnightblue" points="178.5,-29.75 175,-19.75 171.5,-29.75 178.5,-29.75"/>
</g>
<!-- Node7 -->
<g id="node7" class="node">
<title>Node7</title>
<g id="a_node7"><a xlink:title=" ">
<polygon fill="white" stroke="#bfbfbf" points="219.5,-0.5 219.5,-19.5 314.5,-19.5 314.5,-0.5 219.5,-0.5"/>
<text text-anchor="middle" x="267" y="-7.5" font-family="Helvetica,sans-Serif" font-size="10.00">odb/lazy&#45;ptr.hxx</text>
</a>
</g>
</g>
<!-- Node5&#45;&gt;Node7 -->
<g id="edge7" class="edge">
<title>Node5&#45;&gt;Node7</title>
<path fill="none" stroke="midnightblue" d="M189.78,-56.32C204.27,-47.82 226.57,-34.73 243.49,-24.8"/>
<polygon fill="midnightblue" stroke="midnightblue" points="245.4,-27.74 252.26,-19.65 241.86,-21.7 245.4,-27.74"/>
</g>
</g>
</svg>
