<?xml version="1.0" encoding="UTF-8" standalone="no"?>
<!DOCTYPE svg PUBLIC "-//W3C//DTD SVG 1.1//EN"
 "http://www.w3.org/Graphics/SVG/1.1/DTD/svg11.dtd">
<!-- Generated by graphviz version 2.38.0 (20140413.2041)
 -->
<!-- Title: src/hardware/LED.hpp Pages: 1 -->
<!--zoomable 229 -->
<svg id="main" version="1.1" xmlns="http://www.w3.org/2000/svg" xmlns:xlink="http://www.w3.org/1999/xlink" xml:space="preserve" onload="init(evt)">
<style type="text/css"><![CDATA[
.edge:hover path { stroke: red; }
.edge:hover polygon { stroke: red; fill: red; }
]]></style>
<script type="text/javascript"><![CDATA[
var edges = document.getElementsByTagName('g');
if (edges && edges.length) {
  for (var i=0;i<edges.length;i++) {
    if (edges[i].id.substr(0,4)=='edge') {
      edges[i].setAttribute('class','edge');
    }
  }
}
]]></script>
        <defs>
                <circle id="rim" cx="0" cy="0" r="7"/>
                <circle id="rim2" cx="0" cy="0" r="3.5"/>
                <g id="zoomPlus">
                        <use xlink:href="#rim" fill="#404040">
                                <set attributeName="fill" to="#808080" begin="zoomplus.mouseover" end="zoomplus.mouseout"/>
                        </use>
                        <path d="M-4,0h8M0,-4v8" fill="none" stroke="white" stroke-width="1.5" pointer-events="none"/>
                </g>
                <g id="zoomMin">
                        <use xlink:href="#rim" fill="#404040">
                                <set attributeName="fill" to="#808080" begin="zoomminus.mouseover" end="zoomminus.mouseout"/>
                        </use>
                        <path d="M-4,0h8" fill="none" stroke="white" stroke-width="1.5" pointer-events="none"/>
                </g>
                <g id="dirArrow">
                        <path fill="none" stroke="white" stroke-width="1.5" d="M0,-3.0v7 M-2.5,-0.5L0,-3.0L2.5,-0.5"/>
                </g>
               <g id="resetDef">
                       <use xlink:href="#rim2" fill="#404040">
                               <set attributeName="fill" to="#808080" begin="reset.mouseover" end="reset.mouseout"/>
                       </use>
               </g>
        </defs>

<script type="text/javascript">
var viewWidth = 841;
var viewHeight = 229;
var sectionId = 'dynsection-1';
</script>
<script xlink:href="../../svgpan.js"/>
<svg id="graph" class="graph">
<g id="viewport">
<title>src/hardware/LED.hpp</title>
<polygon fill="white" stroke="none" points="-4,4 -4,-225 836.5,-225 836.5,4 -4,4"/>
<!-- Node12 -->
<g id="node1" class="node"><title>Node12</title>
<polygon fill="#bfbfbf" stroke="black" points="323,-201.5 323,-220.5 437,-220.5 437,-201.5 323,-201.5"/>
<text text-anchor="middle" x="380" y="-208.5" font-family="Helvetica,sans-Serif" font-size="10.00">src/hardware/LED.hpp</text>
</g>
<!-- Node13 -->
<g id="node2" class="node"><title>Node13</title>
<g id="a_node2"><a xlink:href="../../d9/dab/HardwareService_8cpp.html" target="_top" xlink:title="src/hardware/HardwareService.cpp">
<polygon fill="white" stroke="black" points="0,-140 0,-159 170,-159 170,-140 0,-140"/>
<text text-anchor="middle" x="85" y="-147" font-family="Helvetica,sans-Serif" font-size="10.00">src/hardware/HardwareService.cpp</text>
</a>
</g>
</g>
<!-- Node12&#45;&gt;Node13 -->
<g id="edge1" class="edge"><title>Node12&#45;&gt;Node13</title>
<path fill="none" stroke="midnightblue" d="M327.812,-199.474C270.64,-187.943 180.054,-169.672 127.188,-159.009"/>
<polygon fill="midnightblue" stroke="midnightblue" points="327.239,-202.929 337.734,-201.475 328.623,-196.067 327.239,-202.929"/>
</g>
<!-- Node14 -->
<g id="node3" class="node"><title>Node14</title>
<g id="a_node3"><a xlink:href="../../d5/d00/LED_8cpp.html" target="_top" xlink:title="src/hardware/LED.cpp">
<polygon fill="white" stroke="black" points="188,-140 188,-159 302,-159 302,-140 188,-140"/>
<text text-anchor="middle" x="245" y="-147" font-family="Helvetica,sans-Serif" font-size="10.00">src/hardware/LED.cpp</text>
</a>
</g>
</g>
<!-- Node12&#45;&gt;Node14 -->
<g id="edge2" class="edge"><title>Node12&#45;&gt;Node14</title>
<path fill="none" stroke="midnightblue" d="M351.247,-197.327C325.038,-185.776 287.047,-169.032 264.306,-159.009"/>
<polygon fill="midnightblue" stroke="midnightblue" points="350.096,-200.645 360.658,-201.475 352.919,-194.239 350.096,-200.645"/>
</g>
<!-- Node15 -->
<g id="node4" class="node"><title>Node15</title>
<g id="a_node4"><a xlink:href="../../d4/d68/LEDSerializer_8cpp.html" target="_top" xlink:title="src/hardware/serializers\l/LEDSerializer.cpp">
<polygon fill="white" stroke="black" points="320,-134.5 320,-164.5 440,-164.5 440,-134.5 320,-134.5"/>
<text text-anchor="start" x="328" y="-152.5" font-family="Helvetica,sans-Serif" font-size="10.00">src/hardware/serializers</text>
<text text-anchor="middle" x="380" y="-141.5" font-family="Helvetica,sans-Serif" font-size="10.00">/LEDSerializer.cpp</text>
</a>
</g>
</g>
<!-- Node12&#45;&gt;Node15 -->
<g id="edge3" class="edge"><title>Node12&#45;&gt;Node15</title>
<path fill="none" stroke="midnightblue" d="M380,-191.235C380,-182.586 380,-172.497 380,-164.523"/>
<polygon fill="midnightblue" stroke="midnightblue" points="376.5,-191.475 380,-201.475 383.5,-191.475 376.5,-191.475"/>
</g>
<!-- Node16 -->
<g id="node5" class="node"><title>Node16</title>
<g id="a_node5"><a xlink:href="../../d3/de8/wiegand_8cpp.html" target="_top" xlink:title="src/modules/wiegand\l/wiegand.cpp">
<polygon fill="white" stroke="black" points="407.5,-0.5 407.5,-30.5 516.5,-30.5 516.5,-0.5 407.5,-0.5"/>
<text text-anchor="start" x="415.5" y="-18.5" font-family="Helvetica,sans-Serif" font-size="10.00">src/modules/wiegand</text>
<text text-anchor="middle" x="462" y="-7.5" font-family="Helvetica,sans-Serif" font-size="10.00">/wiegand.cpp</text>
</a>
</g>
</g>
<!-- Node12&#45;&gt;Node16 -->
<g id="edge4" class="edge"><title>Node12&#45;&gt;Node16</title>
<path fill="none" stroke="midnightblue" d="M412.197,-196.838C425.872,-189.539 440.575,-179.052 449,-165 474.818,-121.94 468.971,-58.8622 464.625,-30.8346"/>
<polygon fill="midnightblue" stroke="midnightblue" points="410.402,-193.821 402.985,-201.386 413.501,-200.098 410.402,-193.821"/>
</g>
<!-- Node17 -->
<g id="node6" class="node"><title>Node17</title>
<g id="a_node6"><a xlink:href="../../d8/df5/WiegandConfig_8hpp.html" target="_top" xlink:title="src/modules/wiegand\l/WiegandConfig.hpp">
<polygon fill="white" stroke="black" points="533.5,-134.5 533.5,-164.5 642.5,-164.5 642.5,-134.5 533.5,-134.5"/>
<text text-anchor="start" x="541.5" y="-152.5" font-family="Helvetica,sans-Serif" font-size="10.00">src/modules/wiegand</text>
<text text-anchor="middle" x="588" y="-141.5" font-family="Helvetica,sans-Serif" font-size="10.00">/WiegandConfig.hpp</text>
</a>
</g>
</g>
<!-- Node12&#45;&gt;Node17 -->
<g id="edge5" class="edge"><title>Node12&#45;&gt;Node17</title>
<path fill="none" stroke="midnightblue" d="M419.821,-198.609C453.752,-188.903 502.647,-174.916 538.979,-164.523"/>
<polygon fill="midnightblue" stroke="midnightblue" points="418.453,-195.36 409.801,-201.475 420.378,-202.09 418.453,-195.36"/>
</g>
<!-- Node18 -->
<g id="node7" class="node"><title>Node18</title>
<g id="a_node7"><a xlink:href="../../de/d9c/WiegandConfigSerializer_8hpp.html" target="_top" xlink:title="src/modules/wiegand\l/ws/WiegandConfigSerializer.hpp">
<polygon fill="white" stroke="black" points="507.5,-67.5 507.5,-97.5 668.5,-97.5 668.5,-67.5 507.5,-67.5"/>
<text text-anchor="start" x="515.5" y="-85.5" font-family="Helvetica,sans-Serif" font-size="10.00">src/modules/wiegand</text>
<text text-anchor="middle" x="588" y="-74.5" font-family="Helvetica,sans-Serif" font-size="10.00">/ws/WiegandConfigSerializer.hpp</text>
</a>
</g>
</g>
<!-- Node17&#45;&gt;Node18 -->
<g id="edge6" class="edge"><title>Node17&#45;&gt;Node18</title>
<path fill="none" stroke="midnightblue" d="M588,-124.108C588,-115.154 588,-105.323 588,-97.5765"/>
<polygon fill="midnightblue" stroke="midnightblue" points="584.5,-124.396 588,-134.396 591.5,-124.396 584.5,-124.396"/>
</g>
<!-- Node21 -->
<g id="node10" class="node"><title>Node21</title>
<g id="a_node10"><a xlink:href="../../d4/d9b/WiegandReader_8cpp.html" target="_top" xlink:title="test/WiegandReader.cpp">
<polygon fill="white" stroke="black" points="686.5,-73 686.5,-92 811.5,-92 811.5,-73 686.5,-73"/>
<text text-anchor="middle" x="749" y="-80" font-family="Helvetica,sans-Serif" font-size="10.00">test/WiegandReader.cpp</text>
</a>
</g>
</g>
<!-- Node17&#45;&gt;Node21 -->
<g id="edge10" class="edge"><title>Node17&#45;&gt;Node21</title>
<path fill="none" stroke="midnightblue" d="M632.284,-130.621C663.446,-118.04 703.756,-101.766 727.929,-92.007"/>
<polygon fill="midnightblue" stroke="midnightblue" points="630.897,-127.407 622.935,-134.396 633.518,-133.898 630.897,-127.407"/>
</g>
<!-- Node18&#45;&gt;Node16 -->
<g id="edge7" class="edge"><title>Node18&#45;&gt;Node16</title>
<path fill="none" stroke="midnightblue" d="M551.585,-62.7143C531.713,-52.4631 507.52,-39.9826 489.287,-30.5765"/>
<polygon fill="midnightblue" stroke="midnightblue" points="550.168,-65.9218 560.66,-67.396 553.377,-59.7008 550.168,-65.9218"/>
</g>
<!-- Node19 -->
<g id="node8" class="node"><title>Node19</title>
<g id="a_node8"><a xlink:href="../../d9/d74/wiegand_2ws_2CRUDHandler_8cpp.html" target="_top" xlink:title="src/modules/wiegand\l/ws/CRUDHandler.cpp">
<polygon fill="white" stroke="black" points="535,-0.5 535,-30.5 653,-30.5 653,-0.5 535,-0.5"/>
<text text-anchor="start" x="543" y="-18.5" font-family="Helvetica,sans-Serif" font-size="10.00">src/modules/wiegand</text>
<text text-anchor="middle" x="594" y="-7.5" font-family="Helvetica,sans-Serif" font-size="10.00">/ws/CRUDHandler.cpp</text>
</a>
</g>
</g>
<!-- Node18&#45;&gt;Node19 -->
<g id="edge8" class="edge"><title>Node18&#45;&gt;Node19</title>
<path fill="none" stroke="midnightblue" d="M590.224,-57.4029C591.058,-48.3703 591.978,-38.4078 592.701,-30.5765"/>
<polygon fill="midnightblue" stroke="midnightblue" points="586.736,-57.1166 589.302,-67.396 593.706,-57.76 586.736,-57.1166"/>
</g>
<!-- Node20 -->
<g id="node9" class="node"><title>Node20</title>
<g id="a_node9"><a xlink:href="../../d6/d48/WiegandConfigSerializer_8cpp.html" target="_top" xlink:title="src/modules/wiegand\l/ws/WiegandConfigSerializer.cpp">
<polygon fill="white" stroke="black" points="671.5,-0.5 671.5,-30.5 832.5,-30.5 832.5,-0.5 671.5,-0.5"/>
<text text-anchor="start" x="679.5" y="-18.5" font-family="Helvetica,sans-Serif" font-size="10.00">src/modules/wiegand</text>
<text text-anchor="middle" x="752" y="-7.5" font-family="Helvetica,sans-Serif" font-size="10.00">/ws/WiegandConfigSerializer.cpp</text>
</a>
</g>
</g>
<!-- Node18&#45;&gt;Node20 -->
<g id="edge9" class="edge"><title>Node18&#45;&gt;Node20</title>
<path fill="none" stroke="midnightblue" d="M632.957,-63.6815C659.26,-53.2568 692,-40.2805 716.484,-30.5765"/>
<polygon fill="midnightblue" stroke="midnightblue" points="631.592,-60.4576 623.586,-67.396 634.172,-66.9651 631.592,-60.4576"/>
</g>
</g>
</svg>
        <g id="navigator" transform="translate(0 0)" fill="#404254">
                <rect fill="#f2f5e9" fill-opacity="0.5" stroke="#606060" stroke-width=".5" x="0" y="0" width="60" height="60"/>
                <use id="zoomplus" xlink:href="#zoomPlus" x="17" y="9" onmousedown="handleZoom(evt,'in')"/>
                <use id="zoomminus" xlink:href="#zoomMin" x="42" y="9" onmousedown="handleZoom(evt,'out')"/>
                <use id="reset" xlink:href="#resetDef" x="30" y="36" onmousedown="handleReset()"/>
                <g id="arrowUp" xlink:href="#dirArrow" transform="translate(30 24)" onmousedown="handlePan(0,-1)">
                  <use xlink:href="#rim" fill="#404040">
                        <set attributeName="fill" to="#808080" begin="arrowUp.mouseover" end="arrowUp.mouseout"/>
                  </use>
                  <path fill="none" stroke="white" stroke-width="1.5" d="M0,-3.0v7 M-2.5,-0.5L0,-3.0L2.5,-0.5"/>
                </g>
                <g id="arrowRight" xlink:href="#dirArrow" transform="rotate(90) translate(36 -43)" onmousedown="handlePan(1,0)">
                  <use xlink:href="#rim" fill="#404040">
                        <set attributeName="fill" to="#808080" begin="arrowRight.mouseover" end="arrowRight.mouseout"/>
                  </use>
                  <path fill="none" stroke="white" stroke-width="1.5" d="M0,-3.0v7 M-2.5,-0.5L0,-3.0L2.5,-0.5"/>
                </g>
                <g id="arrowDown" xlink:href="#dirArrow" transform="rotate(180) translate(-30 -48)" onmousedown="handlePan(0,1)">
                  <use xlink:href="#rim" fill="#404040">
                        <set attributeName="fill" to="#808080" begin="arrowDown.mouseover" end="arrowDown.mouseout"/>
                  </use>
                  <path fill="none" stroke="white" stroke-width="1.5" d="M0,-3.0v7 M-2.5,-0.5L0,-3.0L2.5,-0.5"/>
                </g>
                <g id="arrowLeft" xlink:href="#dirArrow" transform="rotate(270) translate(-36 17)" onmousedown="handlePan(-1,0)">
                  <use xlink:href="#rim" fill="#404040">
                        <set attributeName="fill" to="#808080" begin="arrowLeft.mouseover" end="arrowLeft.mouseout"/>
                  </use>
                  <path fill="none" stroke="white" stroke-width="1.5" d="M0,-3.0v7 M-2.5,-0.5L0,-3.0L2.5,-0.5"/>
                </g>
        </g>
        <svg viewBox="0 0 15 15" width="100%" height="30px" preserveAspectRatio="xMaxYMin meet">
         <g id="arrow_out" transform="scale(0.3 0.3)">
          <a xlink:href="LED_8hpp__dep__incl_org.svg" target="_base">
           <rect id="button" ry="5" rx="5" y="6" x="6" height="38" width="38"
                fill="#f2f5e9" fill-opacity="0.5" stroke="#606060" stroke-width="1.0"/>
           <path id="arrow"
             d="M 11.500037,31.436501 C 11.940474,20.09759 22.043105,11.32322 32.158766,21.979434 L 37.068811,17.246167 C 37.068811,17.246167 37.088388,32 37.088388,32 L 22.160133,31.978069 C 22.160133,31.978069 26.997745,27.140456 26.997745,27.140456 C 18.528582,18.264221 13.291696,25.230495 11.500037,31.436501 z"
             style="fill:#404040;"/>
          </a>
         </g>
        </svg>
</svg>
