<?xml version="1.0" encoding="UTF-8" standalone="no"?>
<!DOCTYPE svg PUBLIC "-//W3C//DTD SVG 1.1//EN"
 "http://www.w3.org/Graphics/SVG/1.1/DTD/svg11.dtd">
<!-- Generated by graphviz version 2.43.0 (0)
 -->
<!-- Title: src/hardware/LED.hpp Pages: 1 -->
<svg width="897pt" height="229pt"
 viewBox="0.00 0.00 896.50 229.00" xmlns="http://www.w3.org/2000/svg" xmlns:xlink="http://www.w3.org/1999/xlink">
<g id="graph0" class="graph" transform="scale(1 1) rotate(0) translate(4 225)">
<title>src/hardware/LED.hpp</title>
<polygon fill="white" stroke="transparent" points="-4,4 -4,-225 892.5,-225 892.5,4 -4,4"/>
<!-- Node1 -->
<g id="node1" class="node">
<title>Node1</title>
<g id="a_node1"><a xlink:title=" ">
<polygon fill="#bfbfbf" stroke="black" points="350,-201.5 350,-220.5 472,-220.5 472,-201.5 350,-201.5"/>
<text text-anchor="middle" x="411" y="-208.5" font-family="Helvetica,sans-Serif" font-size="10.00">src/hardware/LED.hpp</text>
</a>
</g>
</g>
<!-- Node2 -->
<g id="node2" class="node">
<title>Node2</title>
<g id="a_node2"><a xlink:href="../../d9/dab/HardwareService_8cpp.html" target="_top" xlink:title=" ">
<polygon fill="white" stroke="black" points="0,-140 0,-159 186,-159 186,-140 0,-140"/>
<text text-anchor="middle" x="93" y="-147" font-family="Helvetica,sans-Serif" font-size="10.00">src/hardware/HardwareService.cpp</text>
</a>
</g>
</g>
<!-- Node1&#45;&gt;Node2 -->
<g id="edge1" class="edge">
<title>Node1&#45;&gt;Node2</title>
<path fill="none" stroke="midnightblue" d="M355.51,-199.62C293.92,-188.09 195.7,-169.72 138.48,-159.01"/>
<polygon fill="midnightblue" stroke="midnightblue" points="354.97,-203.08 365.44,-201.48 356.25,-196.2 354.97,-203.08"/>
</g>
<!-- Node3 -->
<g id="node3" class="node">
<title>Node3</title>
<g id="a_node3"><a xlink:href="../../d5/d00/LED_8cpp.html" target="_top" xlink:title=" ">
<polygon fill="white" stroke="black" points="204,-140 204,-159 326,-159 326,-140 204,-140"/>
<text text-anchor="middle" x="265" y="-147" font-family="Helvetica,sans-Serif" font-size="10.00">src/hardware/LED.cpp</text>
</a>
</g>
</g>
<!-- Node1&#45;&gt;Node3 -->
<g id="edge2" class="edge">
<title>Node1&#45;&gt;Node3</title>
<path fill="none" stroke="midnightblue" d="M380.65,-197.63C352.29,-186.07 310.69,-169.12 285.88,-159.01"/>
<polygon fill="midnightblue" stroke="midnightblue" points="379.5,-200.94 390.08,-201.48 382.14,-194.46 379.5,-200.94"/>
</g>
<!-- Node4 -->
<g id="node4" class="node">
<title>Node4</title>
<g id="a_node4"><a xlink:href="../../d4/d68/LEDSerializer_8cpp.html" target="_top" xlink:title=" ">
<polygon fill="white" stroke="black" points="344.5,-134.5 344.5,-164.5 477.5,-164.5 477.5,-134.5 344.5,-134.5"/>
<text text-anchor="start" x="352.5" y="-152.5" font-family="Helvetica,sans-Serif" font-size="10.00">src/hardware/serializers</text>
<text text-anchor="middle" x="411" y="-141.5" font-family="Helvetica,sans-Serif" font-size="10.00">/LEDSerializer.cpp</text>
</a>
</g>
</g>
<!-- Node1&#45;&gt;Node4 -->
<g id="edge3" class="edge">
<title>Node1&#45;&gt;Node4</title>
<path fill="none" stroke="midnightblue" d="M411,-191.23C411,-182.59 411,-172.5 411,-164.52"/>
<polygon fill="midnightblue" stroke="midnightblue" points="407.5,-191.48 411,-201.48 414.5,-191.48 407.5,-191.48"/>
</g>
<!-- Node5 -->
<g id="node5" class="node">
<title>Node5</title>
<g id="a_node5"><a xlink:href="../../d3/de8/wiegand_8cpp.html" target="_top" xlink:title=" ">
<polygon fill="white" stroke="black" points="435,-0.5 435,-30.5 555,-30.5 555,-0.5 435,-0.5"/>
<text text-anchor="start" x="443" y="-18.5" font-family="Helvetica,sans-Serif" font-size="10.00">src/modules/wiegand</text>
<text text-anchor="middle" x="495" y="-7.5" font-family="Helvetica,sans-Serif" font-size="10.00">/wiegand.cpp</text>
</a>
</g>
</g>
<!-- Node1&#45;&gt;Node5 -->
<g id="edge4" class="edge">
<title>Node1&#45;&gt;Node5</title>
<path fill="none" stroke="midnightblue" d="M447.81,-197.16C462.56,-190.05 478.13,-179.63 487,-165 512.97,-122.17 504.17,-58.97 498.39,-30.87"/>
<polygon fill="midnightblue" stroke="midnightblue" points="446.04,-194.11 438.32,-201.36 448.88,-200.52 446.04,-194.11"/>
</g>
<!-- Node6 -->
<g id="node6" class="node">
<title>Node6</title>
<g id="a_node6"><a xlink:href="../../d8/df5/WiegandConfig_8hpp.html" target="_top" xlink:title=" ">
<polygon fill="white" stroke="black" points="568,-134.5 568,-164.5 688,-164.5 688,-134.5 568,-134.5"/>
<text text-anchor="start" x="576" y="-152.5" font-family="Helvetica,sans-Serif" font-size="10.00">src/modules/wiegand</text>
<text text-anchor="middle" x="628" y="-141.5" font-family="Helvetica,sans-Serif" font-size="10.00">/WiegandConfig.hpp</text>
</a>
</g>
</g>
<!-- Node1&#45;&gt;Node6 -->
<g id="edge5" class="edge">
<title>Node1&#45;&gt;Node6</title>
<path fill="none" stroke="midnightblue" d="M452.09,-198.73C487.5,-189.02 538.79,-174.96 576.86,-164.52"/>
<polygon fill="midnightblue" stroke="midnightblue" points="450.81,-195.46 442.09,-201.48 452.66,-202.21 450.81,-195.46"/>
</g>
<!-- Node7 -->
<g id="node7" class="node">
<title>Node7</title>
<g id="a_node7"><a xlink:href="../../de/d9c/WiegandConfigSerializer_8hpp.html" target="_top" xlink:title=" ">
<polygon fill="white" stroke="black" points="540,-67.5 540,-97.5 716,-97.5 716,-67.5 540,-67.5"/>
<text text-anchor="start" x="548" y="-85.5" font-family="Helvetica,sans-Serif" font-size="10.00">src/modules/wiegand</text>
<text text-anchor="middle" x="628" y="-74.5" font-family="Helvetica,sans-Serif" font-size="10.00">/ws/WiegandConfigSerializer.hpp</text>
</a>
</g>
</g>
<!-- Node6&#45;&gt;Node7 -->
<g id="edge6" class="edge">
<title>Node6&#45;&gt;Node7</title>
<path fill="none" stroke="midnightblue" d="M628,-124.11C628,-115.15 628,-105.32 628,-97.58"/>
<polygon fill="midnightblue" stroke="midnightblue" points="624.5,-124.4 628,-134.4 631.5,-124.4 624.5,-124.4"/>
</g>
<!-- Node10 -->
<g id="node10" class="node">
<title>Node10</title>
<g id="a_node10"><a xlink:href="../../d4/d9b/WiegandReader_8cpp.html" target="_top" xlink:title=" ">
<polygon fill="white" stroke="black" points="734.5,-73 734.5,-92 869.5,-92 869.5,-73 734.5,-73"/>
<text text-anchor="middle" x="802" y="-80" font-family="Helvetica,sans-Serif" font-size="10.00">test/WiegandReader.cpp</text>
</a>
</g>
</g>
<!-- Node6&#45;&gt;Node10 -->
<g id="edge10" class="edge">
<title>Node6&#45;&gt;Node10</title>
<path fill="none" stroke="midnightblue" d="M675.42,-130.78C709.16,-118.18 752.99,-101.81 779.23,-92.01"/>
<polygon fill="midnightblue" stroke="midnightblue" points="673.9,-127.62 665.76,-134.4 676.35,-134.18 673.9,-127.62"/>
</g>
<!-- Node7&#45;&gt;Node5 -->
<g id="edge7" class="edge">
<title>Node7&#45;&gt;Node5</title>
<path fill="none" stroke="midnightblue" d="M590.13,-62.99C569.05,-52.69 543.22,-40.07 523.8,-30.58"/>
<polygon fill="midnightblue" stroke="midnightblue" points="588.62,-66.15 599.14,-67.4 591.69,-59.86 588.62,-66.15"/>
</g>
<!-- Node8 -->
<g id="node8" class="node">
<title>Node8</title>
<g id="a_node8"><a xlink:href="../../d9/d74/wiegand_2ws_2CRUDHandler_8cpp.html" target="_top" xlink:title=" ">
<polygon fill="white" stroke="black" points="573,-0.5 573,-30.5 695,-30.5 695,-0.5 573,-0.5"/>
<text text-anchor="start" x="581" y="-18.5" font-family="Helvetica,sans-Serif" font-size="10.00">src/modules/wiegand</text>
<text text-anchor="middle" x="634" y="-7.5" font-family="Helvetica,sans-Serif" font-size="10.00">/ws/CRUDHandler.cpp</text>
</a>
</g>
</g>
<!-- Node7&#45;&gt;Node8 -->
<g id="edge8" class="edge">
<title>Node7&#45;&gt;Node8</title>
<path fill="none" stroke="midnightblue" d="M630.22,-57.4C631.06,-48.37 631.98,-38.41 632.7,-30.58"/>
<polygon fill="midnightblue" stroke="midnightblue" points="626.74,-57.12 629.3,-67.4 633.71,-57.76 626.74,-57.12"/>
</g>
<!-- Node9 -->
<g id="node9" class="node">
<title>Node9</title>
<g id="a_node9"><a xlink:href="../../d6/d48/WiegandConfigSerializer_8cpp.html" target="_top" xlink:title=" ">
<polygon fill="white" stroke="black" points="713.5,-0.5 713.5,-30.5 888.5,-30.5 888.5,-0.5 713.5,-0.5"/>
<text text-anchor="start" x="721.5" y="-18.5" font-family="Helvetica,sans-Serif" font-size="10.00">src/modules/wiegand</text>
<text text-anchor="middle" x="801" y="-7.5" font-family="Helvetica,sans-Serif" font-size="10.00">/ws/WiegandConfigSerializer.cpp</text>
</a>
</g>
</g>
<!-- Node7&#45;&gt;Node9 -->
<g id="edge9" class="edge">
<title>Node7&#45;&gt;Node9</title>
<path fill="none" stroke="midnightblue" d="M675.06,-63.82C702.87,-53.37 737.59,-40.32 763.53,-30.58"/>
<polygon fill="midnightblue" stroke="midnightblue" points="673.67,-60.6 665.54,-67.4 676.13,-67.16 673.67,-60.6"/>
</g>
</g>
</svg>
