<?xml version="1.0" encoding="UTF-8" standalone="no"?>
<!DOCTYPE svg PUBLIC "-//W3C//DTD SVG 1.1//EN"
 "http://www.w3.org/Graphics/SVG/1.1/DTD/svg11.dtd">
<!-- Generated by graphviz version 2.43.0 (0)
 -->
<!-- Title: Leosac::Auth::SimpleAccessProfile Pages: 1 -->
<svg width="880pt" height="121pt"
 viewBox="0.00 0.00 880.00 120.50" xmlns="http://www.w3.org/2000/svg" xmlns:xlink="http://www.w3.org/1999/xlink">
<g id="graph0" class="graph" transform="scale(1 1) rotate(0) translate(4 116.5)">
<title>Leosac::Auth::SimpleAccessProfile</title>
<polygon fill="white" stroke="transparent" points="-4,4 -4,-116.5 876,-116.5 876,4 -4,4"/>
<!-- Node1 -->
<g id="node1" class="node">
<title>Node1</title>
<g id="a_node1"><a xlink:title="Concrete implementation of a simple access control class.">
<polygon fill="#bfbfbf" stroke="black" points="720,-38.5 720,-68.5 872,-68.5 872,-38.5 720,-38.5"/>
<text text-anchor="start" x="728" y="-56.5" font-family="Helvetica,sans-Serif" font-size="10.00">Leosac::Auth::SimpleAccess</text>
<text text-anchor="middle" x="796" y="-45.5" font-family="Helvetica,sans-Serif" font-size="10.00">Profile</text>
</a>
</g>
</g>
<!-- Node2 -->
<g id="node2" class="node">
<title>Node2</title>
<g id="a_node2"><a xlink:href="../../d5/d20/classLeosac_1_1Auth_1_1IAccessProfile.html" target="_top" xlink:title="Holds information about access permission.">
<polygon fill="white" stroke="black" points="474,-93 474,-112 626,-112 626,-93 474,-93"/>
<text text-anchor="middle" x="550" y="-100" font-family="Helvetica,sans-Serif" font-size="10.00">Leosac::Auth::IAccessProfile</text>
</a>
</g>
</g>
<!-- Node2&#45;&gt;Node1 -->
<g id="edge1" class="edge">
<title>Node2&#45;&gt;Node1</title>
<path fill="none" stroke="midnightblue" d="M608.36,-90.98C641.67,-84.29 684.02,-75.79 719.95,-68.57"/>
<polygon fill="midnightblue" stroke="midnightblue" points="607.45,-87.59 598.33,-92.99 608.83,-94.46 607.45,-87.59"/>
</g>
<!-- Node3 -->
<g id="node3" class="node">
<title>Node3</title>
<g id="a_node3"><a xlink:title=" ">
<polygon fill="white" stroke="#bfbfbf" points="489,-33 489,-74 611,-74 611,-33 489,-33"/>
<text text-anchor="start" x="497" y="-62" font-family="Helvetica,sans-Serif" font-size="10.00">std::map&lt; std::string,</text>
<text text-anchor="start" x="497" y="-51" font-family="Helvetica,sans-Serif" font-size="10.00"> std::vector&lt; Tools::</text>
<text text-anchor="middle" x="550" y="-40" font-family="Helvetica,sans-Serif" font-size="10.00">IScheduleCPtr &gt; &gt;</text>
</a>
</g>
</g>
<!-- Node3&#45;&gt;Node1 -->
<g id="edge2" class="edge">
<title>Node3&#45;&gt;Node1</title>
<path fill="none" stroke="#9a32cd" stroke-dasharray="5,2" d="M621.26,-53.5C652.16,-53.5 688.49,-53.5 719.92,-53.5"/>
<polygon fill="#9a32cd" stroke="#9a32cd" points="621,-50 611,-53.5 621,-57 621,-50"/>
<text text-anchor="middle" x="673" y="-56.5" font-family="Helvetica,sans-Serif" font-size="10.00"> schedules_</text>
</g>
<!-- Node4 -->
<g id="node4" class="node">
<title>Node4</title>
<g id="a_node4"><a xlink:title="STL class.">
<polygon fill="white" stroke="#bfbfbf" points="304.5,-61 304.5,-80 369.5,-80 369.5,-61 304.5,-61"/>
<text text-anchor="middle" x="337" y="-68" font-family="Helvetica,sans-Serif" font-size="10.00">std::string</text>
</a>
</g>
</g>
<!-- Node4&#45;&gt;Node3 -->
<g id="edge3" class="edge">
<title>Node4&#45;&gt;Node3</title>
<path fill="none" stroke="#9a32cd" stroke-dasharray="5,2" d="M379.67,-67.14C410.81,-64.63 453.84,-61.17 488.73,-58.36"/>
<polygon fill="#9a32cd" stroke="#9a32cd" points="379.28,-63.66 369.59,-67.95 379.84,-70.64 379.28,-63.66"/>
<text text-anchor="middle" x="431.5" y="-67.5" font-family="Helvetica,sans-Serif" font-size="10.00"> keys</text>
</g>
<!-- Node5 -->
<g id="node5" class="node">
<title>Node5</title>
<g id="a_node5"><a xlink:title="STL class.">
<polygon fill="white" stroke="#bfbfbf" points="89,-55.5 89,-85.5 193,-85.5 193,-55.5 89,-55.5"/>
<text text-anchor="start" x="97" y="-73.5" font-family="Helvetica,sans-Serif" font-size="10.00">std::basic_string&lt;</text>
<text text-anchor="middle" x="141" y="-62.5" font-family="Helvetica,sans-Serif" font-size="10.00"> char &gt;</text>
</a>
</g>
</g>
<!-- Node5&#45;&gt;Node4 -->
<g id="edge4" class="edge">
<title>Node5&#45;&gt;Node4</title>
<path fill="none" stroke="midnightblue" d="M203.39,-70.5C236.91,-70.5 277.01,-70.5 304.27,-70.5"/>
<polygon fill="midnightblue" stroke="midnightblue" points="203.23,-67 193.22,-70.5 203.22,-74 203.23,-67"/>
</g>
<!-- Node6 -->
<g id="node6" class="node">
<title>Node6</title>
<g id="a_node6"><a xlink:title=" ">
<polygon fill="white" stroke="#bfbfbf" points="285,-0.5 285,-30.5 389,-30.5 389,-0.5 285,-0.5"/>
<text text-anchor="start" x="293" y="-18.5" font-family="Helvetica,sans-Serif" font-size="10.00">std::vector&lt; Tools</text>
<text text-anchor="middle" x="337" y="-7.5" font-family="Helvetica,sans-Serif" font-size="10.00">::IScheduleCPtr &gt;</text>
</a>
</g>
</g>
<!-- Node6&#45;&gt;Node1 -->
<g id="edge8" class="edge">
<title>Node6&#45;&gt;Node1</title>
<path fill="none" stroke="#9a32cd" stroke-dasharray="5,2" d="M399.16,-13.86C422.57,-13.31 449.52,-12.77 474,-12.5 541.55,-11.76 558.92,-4.48 626,-12.5 667.22,-17.43 712.91,-28.89 746.39,-38.45"/>
<polygon fill="#9a32cd" stroke="#9a32cd" points="398.93,-10.37 389.02,-14.11 399.1,-17.37 398.93,-10.37"/>
<text text-anchor="middle" x="550" y="-15.5" font-family="Helvetica,sans-Serif" font-size="10.00"> default_schedule_</text>
</g>
<!-- Node6&#45;&gt;Node3 -->
<g id="edge5" class="edge">
<title>Node6&#45;&gt;Node3</title>
<path fill="none" stroke="#9a32cd" stroke-dasharray="5,2" d="M399.19,-26.52C427.33,-31.59 460.61,-37.58 488.65,-42.63"/>
<polygon fill="#9a32cd" stroke="#9a32cd" points="399.54,-23.03 389.08,-24.7 398.3,-29.92 399.54,-23.03"/>
<text text-anchor="middle" x="431.5" y="-39.5" font-family="Helvetica,sans-Serif" font-size="10.00"> elements</text>
</g>
<!-- Node7 -->
<g id="node7" class="node">
<title>Node7</title>
<g id="a_node7"><a xlink:title="STL class.">
<polygon fill="white" stroke="#bfbfbf" points="82,-6 82,-25 200,-25 200,-6 82,-6"/>
<text text-anchor="middle" x="141" y="-13" font-family="Helvetica,sans-Serif" font-size="10.00">std::shared_ptr&lt; T &gt;</text>
</a>
</g>
</g>
<!-- Node7&#45;&gt;Node6 -->
<g id="edge6" class="edge">
<title>Node7&#45;&gt;Node6</title>
<path fill="none" stroke="#9a32cd" stroke-dasharray="5,2" d="M210.5,-15.5C234.93,-15.5 262.01,-15.5 284.75,-15.5"/>
<polygon fill="#9a32cd" stroke="#9a32cd" points="210.21,-12 200.21,-15.5 210.21,-19 210.21,-12"/>
<text text-anchor="middle" x="242.5" y="-18.5" font-family="Helvetica,sans-Serif" font-size="10.00"> elements</text>
</g>
<!-- Node8 -->
<g id="node8" class="node">
<title>Node8</title>
<g id="a_node8"><a xlink:title=" ">
<polygon fill="white" stroke="#bfbfbf" points="0,-6 0,-25 29,-25 29,-6 0,-6"/>
<text text-anchor="middle" x="14.5" y="-13" font-family="Helvetica,sans-Serif" font-size="10.00">T</text>
</a>
</g>
</g>
<!-- Node8&#45;&gt;Node7 -->
<g id="edge7" class="edge">
<title>Node8&#45;&gt;Node7</title>
<path fill="none" stroke="#9a32cd" stroke-dasharray="5,2" d="M39.42,-15.5C51.53,-15.5 66.79,-15.5 81.75,-15.5"/>
<polygon fill="#9a32cd" stroke="#9a32cd" points="39.3,-12 29.3,-15.5 39.3,-19 39.3,-12"/>
<text text-anchor="middle" x="55.5" y="-18.5" font-family="Helvetica,sans-Serif" font-size="10.00"> ptr</text>
</g>
</g>
</svg>
