<?xml version="1.0" encoding="UTF-8" standalone="no"?>
<!DOCTYPE svg PUBLIC "-//W3C//DTD SVG 1.1//EN"
 "http://www.w3.org/Graphics/SVG/1.1/DTD/svg11.dtd">
<!-- Generated by graphviz version 2.43.0 (0)
 -->
<!-- Title: src/modules/websock&#45;api/api/MethodHandler.hpp Pages: 1 -->
<svg width="1223pt" height="330pt"
 viewBox="0.00 0.00 1222.50 330.00" xmlns="http://www.w3.org/2000/svg" xmlns:xlink="http://www.w3.org/1999/xlink">
<g id="graph0" class="graph" transform="scale(1 1) rotate(0) translate(4 326)">
<title>src/modules/websock&#45;api/api/MethodHandler.hpp</title>
<polygon fill="white" stroke="transparent" points="-4,4 -4,-326 1218.5,-326 1218.5,4 -4,4"/>
<!-- Node1 -->
<g id="node1" class="node">
<title>Node1</title>
<g id="a_node1"><a xlink:title=" ">
<polygon fill="#bfbfbf" stroke="black" points="592.5,-291.5 592.5,-321.5 744.5,-321.5 744.5,-291.5 592.5,-291.5"/>
<text text-anchor="start" x="600.5" y="-309.5" font-family="Helvetica,sans-Serif" font-size="10.00">src/modules/websock</text>
<text text-anchor="middle" x="668.5" y="-298.5" font-family="Helvetica,sans-Serif" font-size="10.00">&#45;api/api/MethodHandler.hpp</text>
</a>
</g>
</g>
<!-- Node2 -->
<g id="node2" class="node">
<title>Node2</title>
<g id="a_node2"><a xlink:href="../../de/d95/ActionActionParam_8hpp.html" target="_top" xlink:title=" ">
<polygon fill="white" stroke="black" points="603.5,-235.5 603.5,-254.5 733.5,-254.5 733.5,-235.5 603.5,-235.5"/>
<text text-anchor="middle" x="668.5" y="-242.5" font-family="Helvetica,sans-Serif" font-size="10.00">ActionActionParam.hpp</text>
</a>
</g>
</g>
<!-- Node1&#45;&gt;Node2 -->
<g id="edge1" class="edge">
<title>Node1&#45;&gt;Node2</title>
<path fill="none" stroke="midnightblue" d="M668.5,-291.4C668.5,-283.47 668.5,-273.46 668.5,-264.86"/>
<polygon fill="midnightblue" stroke="midnightblue" points="672,-264.66 668.5,-254.66 665,-264.66 672,-264.66"/>
</g>
<!-- Node3 -->
<g id="node3" class="node">
<title>Node3</title>
<g id="a_node3"><a xlink:href="../../d1/d3e/SecurityContext_8hpp.html" target="_top" xlink:title=" ">
<polygon fill="white" stroke="black" points="451.5,-179.5 451.5,-198.5 591.5,-198.5 591.5,-179.5 451.5,-179.5"/>
<text text-anchor="middle" x="521.5" y="-186.5" font-family="Helvetica,sans-Serif" font-size="10.00">core/SecurityContext.hpp</text>
</a>
</g>
</g>
<!-- Node1&#45;&gt;Node3 -->
<g id="edge39" class="edge">
<title>Node1&#45;&gt;Node3</title>
<path fill="none" stroke="midnightblue" d="M646.28,-291.41C631.3,-281.66 611.29,-268.12 594.5,-255 574.38,-239.28 552.69,-219.58 538.23,-206.02"/>
<polygon fill="midnightblue" stroke="midnightblue" points="540.29,-203.14 530.62,-198.81 535.47,-208.23 540.29,-203.14"/>
</g>
<!-- Node21 -->
<g id="node21" class="node">
<title>Node21</title>
<g id="a_node21"><a xlink:href="../../dd/d46/RequestContext_8hpp.html" target="_top" xlink:title=" ">
<polygon fill="white" stroke="black" points="765.5,-179.5 765.5,-198.5 881.5,-198.5 881.5,-179.5 765.5,-179.5"/>
<text text-anchor="middle" x="823.5" y="-186.5" font-family="Helvetica,sans-Serif" font-size="10.00">RequestContext.hpp</text>
</a>
</g>
</g>
<!-- Node1&#45;&gt;Node21 -->
<g id="edge29" class="edge">
<title>Node1&#45;&gt;Node21</title>
<path fill="none" stroke="midnightblue" d="M690.18,-291.35C705.1,-281.45 725.25,-267.78 742.5,-255 764.5,-238.7 788.91,-218.86 805.12,-205.42"/>
<polygon fill="midnightblue" stroke="midnightblue" points="807.78,-207.77 813.22,-198.68 803.29,-202.39 807.78,-207.77"/>
</g>
<!-- Node26 -->
<g id="node26" class="node">
<title>Node26</title>
<g id="a_node26"><a xlink:title=" ">
<polygon fill="white" stroke="#bfbfbf" points="1104.5,-56.5 1104.5,-75.5 1214.5,-75.5 1214.5,-56.5 1104.5,-56.5"/>
<text text-anchor="middle" x="1159.5" y="-63.5" font-family="Helvetica,sans-Serif" font-size="10.00">nlohmann/json.hpp</text>
</a>
</g>
</g>
<!-- Node1&#45;&gt;Node26 -->
<g id="edge43" class="edge">
<title>Node1&#45;&gt;Node26</title>
<path fill="none" stroke="midnightblue" d="M744.89,-295.28C842.14,-278.73 1010.57,-237.79 1119.5,-143 1137.12,-127.66 1148.16,-102.63 1154.07,-85.52"/>
<polygon fill="midnightblue" stroke="midnightblue" points="1157.53,-86.19 1157.23,-75.6 1150.86,-84.06 1157.53,-86.19"/>
</g>
<!-- Node27 -->
<g id="node27" class="node">
<title>Node27</title>
<g id="a_node27"><a xlink:href="../../df/d2f/UserSecurityContext_8hpp.html" target="_top" xlink:title=" ">
<polygon fill="white" stroke="black" points="385.5,-235.5 385.5,-254.5 547.5,-254.5 547.5,-235.5 385.5,-235.5"/>
<text text-anchor="middle" x="466.5" y="-242.5" font-family="Helvetica,sans-Serif" font-size="10.00">core/UserSecurityContext.hpp</text>
</a>
</g>
</g>
<!-- Node1&#45;&gt;Node27 -->
<g id="edge40" class="edge">
<title>Node1&#45;&gt;Node27</title>
<path fill="none" stroke="midnightblue" d="M620.88,-291.47C585.58,-281.08 538.06,-267.08 505.11,-257.37"/>
<polygon fill="midnightblue" stroke="midnightblue" points="505.96,-253.97 495.38,-254.51 503.98,-260.69 505.96,-253.97"/>
</g>
<!-- Node2&#45;&gt;Node3 -->
<g id="edge2" class="edge">
<title>Node2&#45;&gt;Node3</title>
<path fill="none" stroke="midnightblue" d="M645.21,-235.44C620.69,-226.44 581.9,-212.19 554.3,-202.05"/>
<polygon fill="midnightblue" stroke="midnightblue" points="555.28,-198.68 544.68,-198.52 552.86,-205.25 555.28,-198.68"/>
</g>
<!-- Node4 -->
<g id="node4" class="node">
<title>Node4</title>
<g id="a_node4"><a xlink:href="../../d7/dcf/AuditFwd_8hpp.html" target="_top" xlink:title=" ">
<polygon fill="white" stroke="black" points="147,-118 147,-137 282,-137 282,-118 147,-118"/>
<text text-anchor="middle" x="214.5" y="-125" font-family="Helvetica,sans-Serif" font-size="10.00">core/audit/AuditFwd.hpp</text>
</a>
</g>
</g>
<!-- Node3&#45;&gt;Node4 -->
<g id="edge3" class="edge">
<title>Node3&#45;&gt;Node4</title>
<path fill="none" stroke="midnightblue" d="M477.51,-179.48C422.35,-168.78 327.8,-150.46 268.35,-138.94"/>
<polygon fill="midnightblue" stroke="midnightblue" points="268.89,-135.48 258.4,-137.01 267.56,-142.35 268.89,-135.48"/>
</g>
<!-- Node9 -->
<g id="node9" class="node">
<title>Node9</title>
<g id="a_node9"><a xlink:href="../../d3/d6f/AuthFwd_8hpp.html" target="_top" xlink:title=" ">
<polygon fill="white" stroke="black" points="0,-118 0,-137 129,-137 129,-118 0,-118"/>
<text text-anchor="middle" x="64.5" y="-125" font-family="Helvetica,sans-Serif" font-size="10.00">core/auth/AuthFwd.hpp</text>
</a>
</g>
</g>
<!-- Node3&#45;&gt;Node9 -->
<g id="edge8" class="edge">
<title>Node3&#45;&gt;Node9</title>
<path fill="none" stroke="midnightblue" d="M451.2,-181.45C374.02,-173.87 246.57,-160.2 137.5,-143 130.05,-141.82 122.19,-140.43 114.51,-138.98"/>
<polygon fill="midnightblue" stroke="midnightblue" points="115.04,-135.52 104.56,-137.05 113.71,-142.39 115.04,-135.52"/>
</g>
<!-- Node10 -->
<g id="node10" class="node">
<title>Node10</title>
<g id="a_node10"><a xlink:href="../../d7/d7f/CredentialFwd_8hpp.html" target="_top" xlink:title=" ">
<polygon fill="white" stroke="black" points="300.5,-112.5 300.5,-142.5 448.5,-142.5 448.5,-112.5 300.5,-112.5"/>
<text text-anchor="start" x="308.5" y="-130.5" font-family="Helvetica,sans-Serif" font-size="10.00">core/credentials/Credential</text>
<text text-anchor="middle" x="374.5" y="-119.5" font-family="Helvetica,sans-Serif" font-size="10.00">Fwd.hpp</text>
</a>
</g>
</g>
<!-- Node3&#45;&gt;Node10 -->
<g id="edge12" class="edge">
<title>Node3&#45;&gt;Node10</title>
<path fill="none" stroke="midnightblue" d="M500.44,-179.48C479.13,-170.85 445.56,-157.26 418.44,-146.29"/>
<polygon fill="midnightblue" stroke="midnightblue" points="419.73,-143.03 409.14,-142.52 417.1,-149.52 419.73,-143.03"/>
</g>
<!-- Node11 -->
<g id="node11" class="node">
<title>Node11</title>
<g id="a_node11"><a xlink:href="../../d9/dc8/HardwareFwd_8hpp.html" target="_top" xlink:title=" ">
<polygon fill="white" stroke="black" points="594.5,-118 594.5,-137 748.5,-137 748.5,-118 594.5,-118"/>
<text text-anchor="middle" x="671.5" y="-125" font-family="Helvetica,sans-Serif" font-size="10.00">hardware/HardwareFwd.hpp</text>
</a>
</g>
</g>
<!-- Node3&#45;&gt;Node11 -->
<g id="edge15" class="edge">
<title>Node3&#45;&gt;Node11</title>
<path fill="none" stroke="midnightblue" d="M542.99,-179.48C568.61,-169.31 611.61,-152.26 640.74,-140.7"/>
<polygon fill="midnightblue" stroke="midnightblue" points="642.04,-143.95 650.05,-137.01 639.46,-137.44 642.04,-143.95"/>
</g>
<!-- Node19 -->
<g id="node19" class="node">
<title>Node19</title>
<g id="a_node19"><a xlink:href="../../d8/d97/ToolsFwd_8hpp.html" target="_top" xlink:title=" ">
<polygon fill="white" stroke="black" points="466.5,-118 466.5,-137 576.5,-137 576.5,-118 466.5,-118"/>
<text text-anchor="middle" x="521.5" y="-125" font-family="Helvetica,sans-Serif" font-size="10.00">tools/ToolsFwd.hpp</text>
</a>
</g>
</g>
<!-- Node3&#45;&gt;Node19 -->
<g id="edge24" class="edge">
<title>Node3&#45;&gt;Node19</title>
<path fill="none" stroke="midnightblue" d="M521.5,-179.48C521.5,-171.08 521.5,-157.98 521.5,-147.16"/>
<polygon fill="midnightblue" stroke="midnightblue" points="525,-147.01 521.5,-137.01 518,-147.01 525,-147.01"/>
</g>
<!-- Node20 -->
<g id="node20" class="node">
<title>Node20</title>
<g id="a_node20"><a xlink:href="../../d9/d69/db__fwd_8hpp.html" target="_top" xlink:title=" ">
<polygon fill="white" stroke="black" points="766.5,-118 766.5,-137 880.5,-137 880.5,-118 766.5,-118"/>
<text text-anchor="middle" x="823.5" y="-125" font-family="Helvetica,sans-Serif" font-size="10.00">tools/db/db_fwd.hpp</text>
</a>
</g>
</g>
<!-- Node3&#45;&gt;Node20 -->
<g id="edge27" class="edge">
<title>Node3&#45;&gt;Node20</title>
<path fill="none" stroke="midnightblue" d="M568.59,-179.42C616.28,-170.64 692.12,-156.41 757.5,-143 763.32,-141.81 769.41,-140.52 775.45,-139.22"/>
<polygon fill="midnightblue" stroke="midnightblue" points="776.47,-142.58 785.5,-137.04 774.98,-135.74 776.47,-142.58"/>
</g>
<!-- Node5 -->
<g id="node5" class="node">
<title>Node5</title>
<g id="a_node5"><a xlink:title=" ">
<polygon fill="white" stroke="#bfbfbf" points="73,-56.5 73,-75.5 126,-75.5 126,-56.5 73,-56.5"/>
<text text-anchor="middle" x="99.5" y="-63.5" font-family="Helvetica,sans-Serif" font-size="10.00">cstddef</text>
</a>
</g>
</g>
<!-- Node4&#45;&gt;Node5 -->
<g id="edge4" class="edge">
<title>Node4&#45;&gt;Node5</title>
<path fill="none" stroke="midnightblue" d="M198.02,-117.98C178.89,-108.08 147.13,-91.64 124.85,-80.12"/>
<polygon fill="midnightblue" stroke="midnightblue" points="126.44,-77 115.95,-75.51 123.22,-83.21 126.44,-77"/>
</g>
<!-- Node6 -->
<g id="node6" class="node">
<title>Node6</title>
<g id="a_node6"><a xlink:title=" ">
<polygon fill="white" stroke="#bfbfbf" points="179,-56.5 179,-75.5 250,-75.5 250,-56.5 179,-56.5"/>
<text text-anchor="middle" x="214.5" y="-63.5" font-family="Helvetica,sans-Serif" font-size="10.00">flagset.hpp</text>
</a>
</g>
</g>
<!-- Node4&#45;&gt;Node6 -->
<g id="edge5" class="edge">
<title>Node4&#45;&gt;Node6</title>
<path fill="none" stroke="midnightblue" d="M214.5,-117.98C214.5,-109.58 214.5,-96.48 214.5,-85.66"/>
<polygon fill="midnightblue" stroke="midnightblue" points="218,-85.51 214.5,-75.51 211,-85.51 218,-85.51"/>
</g>
<!-- Node7 -->
<g id="node7" class="node">
<title>Node7</title>
<g id="a_node7"><a xlink:title=" ">
<polygon fill="white" stroke="#bfbfbf" points="521.5,-56.5 521.5,-75.5 579.5,-75.5 579.5,-56.5 521.5,-56.5"/>
<text text-anchor="middle" x="550.5" y="-63.5" font-family="Helvetica,sans-Serif" font-size="10.00">memory</text>
</a>
</g>
</g>
<!-- Node4&#45;&gt;Node7 -->
<g id="edge6" class="edge">
<title>Node4&#45;&gt;Node7</title>
<path fill="none" stroke="midnightblue" d="M259.27,-117.96C269.83,-115.97 281.06,-113.89 291.5,-112 369.44,-97.89 460.73,-82.23 511.46,-73.61"/>
<polygon fill="midnightblue" stroke="midnightblue" points="512.07,-77.05 521.34,-71.93 510.9,-70.15 512.07,-77.05"/>
</g>
<!-- Node8 -->
<g id="node8" class="node">
<title>Node8</title>
<g id="a_node8"><a xlink:title=" ">
<polygon fill="white" stroke="#bfbfbf" points="298,-56.5 298,-75.5 393,-75.5 393,-56.5 298,-56.5"/>
<text text-anchor="middle" x="345.5" y="-63.5" font-family="Helvetica,sans-Serif" font-size="10.00">odb/lazy&#45;ptr.hxx</text>
</a>
</g>
</g>
<!-- Node4&#45;&gt;Node8 -->
<g id="edge7" class="edge">
<title>Node4&#45;&gt;Node8</title>
<path fill="none" stroke="midnightblue" d="M233.27,-117.98C255.35,-107.95 292.22,-91.2 317.64,-79.65"/>
<polygon fill="midnightblue" stroke="midnightblue" points="319.11,-82.83 326.77,-75.51 316.21,-76.46 319.11,-82.83"/>
</g>
<!-- Node9&#45;&gt;Node5 -->
<g id="edge9" class="edge">
<title>Node9&#45;&gt;Node5</title>
<path fill="none" stroke="midnightblue" d="M69.51,-117.98C74.66,-109.23 82.81,-95.37 89.32,-84.31"/>
<polygon fill="midnightblue" stroke="midnightblue" points="92.44,-85.9 94.49,-75.51 86.41,-82.35 92.44,-85.9"/>
</g>
<!-- Node9&#45;&gt;Node7 -->
<g id="edge10" class="edge">
<title>Node9&#45;&gt;Node7</title>
<path fill="none" stroke="midnightblue" d="M104.17,-117.96C114.95,-115.82 126.64,-113.67 137.5,-112 274.08,-91.04 437.53,-76.25 511.15,-70.13"/>
<polygon fill="midnightblue" stroke="midnightblue" points="511.66,-73.6 521.34,-69.29 511.09,-66.63 511.66,-73.6"/>
</g>
<!-- Node9&#45;&gt;Node8 -->
<g id="edge11" class="edge">
<title>Node9&#45;&gt;Node8</title>
<path fill="none" stroke="midnightblue" d="M104.76,-117.98C154.94,-107.35 240.73,-89.18 295.19,-77.65"/>
<polygon fill="midnightblue" stroke="midnightblue" points="296.26,-81 305.31,-75.51 294.81,-74.16 296.26,-81"/>
</g>
<!-- Node10&#45;&gt;Node7 -->
<g id="edge13" class="edge">
<title>Node10&#45;&gt;Node7</title>
<path fill="none" stroke="midnightblue" d="M416.21,-112.4C446.49,-102.16 486.99,-88.47 515.57,-78.81"/>
<polygon fill="midnightblue" stroke="midnightblue" points="516.8,-82.09 525.15,-75.57 514.55,-75.46 516.8,-82.09"/>
</g>
<!-- Node10&#45;&gt;Node8 -->
<g id="edge14" class="edge">
<title>Node10&#45;&gt;Node8</title>
<path fill="none" stroke="midnightblue" d="M367.63,-112.4C363.59,-104.11 358.44,-93.55 354.13,-84.71"/>
<polygon fill="midnightblue" stroke="midnightblue" points="357.25,-83.11 349.72,-75.66 350.95,-86.18 357.25,-83.11"/>
</g>
<!-- Node11&#45;&gt;Node7 -->
<g id="edge23" class="edge">
<title>Node11&#45;&gt;Node7</title>
<path fill="none" stroke="midnightblue" d="M654.16,-117.98C633.95,-108.03 600.31,-91.49 576.86,-79.96"/>
<polygon fill="midnightblue" stroke="midnightblue" points="578.32,-76.78 567.8,-75.51 575.23,-83.06 578.32,-76.78"/>
</g>
<!-- Node12 -->
<g id="node12" class="node">
<title>Node12</title>
<g id="a_node12"><a xlink:href="../../dc/dea/Uuid_8hpp.html" target="_top" xlink:title=" ">
<polygon fill="white" stroke="black" points="628,-56.5 628,-75.5 715,-75.5 715,-56.5 628,-56.5"/>
<text text-anchor="middle" x="671.5" y="-63.5" font-family="Helvetica,sans-Serif" font-size="10.00">tools/Uuid.hpp</text>
</a>
</g>
</g>
<!-- Node11&#45;&gt;Node12 -->
<g id="edge16" class="edge">
<title>Node11&#45;&gt;Node12</title>
<path fill="none" stroke="midnightblue" d="M671.5,-117.98C671.5,-109.58 671.5,-96.48 671.5,-85.66"/>
<polygon fill="midnightblue" stroke="midnightblue" points="675,-85.51 671.5,-75.51 668,-85.51 675,-85.51"/>
</g>
<!-- Node13 -->
<g id="node13" class="node">
<title>Node13</title>
<g id="a_node13"><a xlink:title=" ">
<polygon fill="white" stroke="#bfbfbf" points="204,-0.5 204,-19.5 329,-19.5 329,-0.5 204,-0.5"/>
<text text-anchor="middle" x="266.5" y="-7.5" font-family="Helvetica,sans-Serif" font-size="10.00">boost/lexical_cast.hpp</text>
</a>
</g>
</g>
<!-- Node12&#45;&gt;Node13 -->
<g id="edge17" class="edge">
<title>Node12&#45;&gt;Node13</title>
<path fill="none" stroke="midnightblue" d="M627.77,-59.17C558.59,-49.95 423.14,-31.89 339.17,-20.69"/>
<polygon fill="midnightblue" stroke="midnightblue" points="339.57,-17.21 329.2,-19.36 338.65,-24.15 339.57,-17.21"/>
</g>
<!-- Node14 -->
<g id="node14" class="node">
<title>Node14</title>
<g id="a_node14"><a xlink:title=" ">
<polygon fill="white" stroke="#bfbfbf" points="347,-0.5 347,-19.5 528,-19.5 528,-0.5 347,-0.5"/>
<text text-anchor="middle" x="437.5" y="-7.5" font-family="Helvetica,sans-Serif" font-size="10.00">boost/uuid/random_generator.hpp</text>
</a>
</g>
</g>
<!-- Node12&#45;&gt;Node14 -->
<g id="edge18" class="edge">
<title>Node12&#45;&gt;Node14</title>
<path fill="none" stroke="midnightblue" d="M634.42,-56.44C593.77,-47.06 528.47,-31.99 484.32,-21.8"/>
<polygon fill="midnightblue" stroke="midnightblue" points="484.94,-18.35 474.4,-19.52 483.36,-25.18 484.94,-18.35"/>
</g>
<!-- Node15 -->
<g id="node15" class="node">
<title>Node15</title>
<g id="a_node15"><a xlink:title=" ">
<polygon fill="white" stroke="#bfbfbf" points="546,-0.5 546,-19.5 659,-19.5 659,-0.5 546,-0.5"/>
<text text-anchor="middle" x="602.5" y="-7.5" font-family="Helvetica,sans-Serif" font-size="10.00">boost/uuid/uuid.hpp</text>
</a>
</g>
</g>
<!-- Node12&#45;&gt;Node15 -->
<g id="edge19" class="edge">
<title>Node12&#45;&gt;Node15</title>
<path fill="none" stroke="midnightblue" d="M660.41,-56.32C650.01,-48.18 634.24,-35.84 621.78,-26.09"/>
<polygon fill="midnightblue" stroke="midnightblue" points="623.82,-23.24 613.79,-19.83 619.51,-28.75 623.82,-23.24"/>
</g>
<!-- Node16 -->
<g id="node16" class="node">
<title>Node16</title>
<g id="a_node16"><a xlink:title=" ">
<polygon fill="white" stroke="#bfbfbf" points="677,-0.5 677,-19.5 804,-19.5 804,-0.5 677,-0.5"/>
<text text-anchor="middle" x="740.5" y="-7.5" font-family="Helvetica,sans-Serif" font-size="10.00">boost/uuid/uuid_io.hpp</text>
</a>
</g>
</g>
<!-- Node12&#45;&gt;Node16 -->
<g id="edge20" class="edge">
<title>Node12&#45;&gt;Node16</title>
<path fill="none" stroke="midnightblue" d="M682.59,-56.32C692.99,-48.18 708.76,-35.84 721.22,-26.09"/>
<polygon fill="midnightblue" stroke="midnightblue" points="723.49,-28.75 729.21,-19.83 719.18,-23.24 723.49,-28.75"/>
</g>
<!-- Node17 -->
<g id="node17" class="node">
<title>Node17</title>
<g id="a_node17"><a xlink:title=" ">
<polygon fill="white" stroke="#bfbfbf" points="822.5,-0.5 822.5,-19.5 902.5,-19.5 902.5,-0.5 822.5,-0.5"/>
<text text-anchor="middle" x="862.5" y="-7.5" font-family="Helvetica,sans-Serif" font-size="10.00">odb/core.hxx</text>
</a>
</g>
</g>
<!-- Node12&#45;&gt;Node17 -->
<g id="edge21" class="edge">
<title>Node12&#45;&gt;Node17</title>
<path fill="none" stroke="midnightblue" d="M701.76,-56.44C734.46,-47.2 786.68,-32.44 822.68,-22.26"/>
<polygon fill="midnightblue" stroke="midnightblue" points="823.71,-25.61 832.38,-19.52 821.8,-18.87 823.71,-25.61"/>
</g>
<!-- Node18 -->
<g id="node18" class="node">
<title>Node18</title>
<g id="a_node18"><a xlink:title=" ">
<polygon fill="white" stroke="#bfbfbf" points="920.5,-0.5 920.5,-19.5 964.5,-19.5 964.5,-0.5 920.5,-0.5"/>
<text text-anchor="middle" x="942.5" y="-7.5" font-family="Helvetica,sans-Serif" font-size="10.00">string</text>
</a>
</g>
</g>
<!-- Node12&#45;&gt;Node18 -->
<g id="edge22" class="edge">
<title>Node12&#45;&gt;Node18</title>
<path fill="none" stroke="midnightblue" d="M715.12,-58.13C761.35,-50.56 836.64,-37.41 910.31,-20.11"/>
<polygon fill="midnightblue" stroke="midnightblue" points="911.3,-23.47 920.22,-17.75 909.68,-16.66 911.3,-23.47"/>
</g>
<!-- Node19&#45;&gt;Node7 -->
<g id="edge25" class="edge">
<title>Node19&#45;&gt;Node7</title>
<path fill="none" stroke="midnightblue" d="M525.65,-117.98C529.88,-109.32 536.54,-95.65 541.9,-84.65"/>
<polygon fill="midnightblue" stroke="midnightblue" points="545.12,-86.03 546.35,-75.51 538.83,-82.96 545.12,-86.03"/>
</g>
<!-- Node19&#45;&gt;Node8 -->
<g id="edge26" class="edge">
<title>Node19&#45;&gt;Node8</title>
<path fill="none" stroke="midnightblue" d="M496.28,-117.98C465.83,-107.68 414.45,-90.31 380.26,-78.75"/>
<polygon fill="midnightblue" stroke="midnightblue" points="381.26,-75.4 370.67,-75.51 379.02,-82.03 381.26,-75.4"/>
</g>
<!-- Node20&#45;&gt;Node7 -->
<g id="edge28" class="edge">
<title>Node20&#45;&gt;Node7</title>
<path fill="none" stroke="midnightblue" d="M784.76,-117.98C775.81,-116.01 766.33,-113.93 757.5,-112 699.04,-99.22 631.27,-84.51 589.64,-75.48"/>
<polygon fill="midnightblue" stroke="midnightblue" points="590.16,-72.01 579.64,-73.31 588.67,-78.85 590.16,-72.01"/>
</g>
<!-- Node21&#45;&gt;Node4 -->
<g id="edge37" class="edge">
<title>Node21&#45;&gt;Node4</title>
<path fill="none" stroke="midnightblue" d="M765.43,-185.03C667.4,-179.58 463.02,-166.34 291.5,-143 283.07,-141.85 274.17,-140.4 265.52,-138.86"/>
<polygon fill="midnightblue" stroke="midnightblue" points="266,-135.39 255.53,-137.03 264.74,-142.28 266,-135.39"/>
</g>
<!-- Node21&#45;&gt;Node20 -->
<g id="edge38" class="edge">
<title>Node21&#45;&gt;Node20</title>
<path fill="none" stroke="midnightblue" d="M823.5,-179.48C823.5,-171.08 823.5,-157.98 823.5,-147.16"/>
<polygon fill="midnightblue" stroke="midnightblue" points="827,-147.01 823.5,-137.01 820,-147.01 827,-147.01"/>
</g>
<!-- Node22 -->
<g id="node22" class="node">
<title>Node22</title>
<g id="a_node22"><a xlink:href="../../dc/d49/LeosacFwd_8hpp.html" target="_top" xlink:title=" ">
<polygon fill="white" stroke="black" points="898.5,-118 898.5,-137 990.5,-137 990.5,-118 898.5,-118"/>
<text text-anchor="middle" x="944.5" y="-125" font-family="Helvetica,sans-Serif" font-size="10.00">LeosacFwd.hpp</text>
</a>
</g>
</g>
<!-- Node21&#45;&gt;Node22 -->
<g id="edge30" class="edge">
<title>Node21&#45;&gt;Node22</title>
<path fill="none" stroke="midnightblue" d="M840.84,-179.48C861.05,-169.53 894.69,-152.99 918.14,-141.46"/>
<polygon fill="midnightblue" stroke="midnightblue" points="919.77,-144.56 927.2,-137.01 916.68,-138.28 919.77,-144.56"/>
</g>
<!-- Node24 -->
<g id="node24" class="node">
<title>Node24</title>
<g id="a_node24"><a xlink:href="../../d8/d8b/WebSockFwd_8hpp.html" target="_top" xlink:title=" ">
<polygon fill="white" stroke="black" points="1008.5,-118 1008.5,-137 1110.5,-137 1110.5,-118 1008.5,-118"/>
<text text-anchor="middle" x="1059.5" y="-125" font-family="Helvetica,sans-Serif" font-size="10.00">WebSockFwd.hpp</text>
</a>
</g>
</g>
<!-- Node21&#45;&gt;Node24 -->
<g id="edge33" class="edge">
<title>Node21&#45;&gt;Node24</title>
<path fill="none" stroke="midnightblue" d="M857.31,-179.48C899.02,-168.96 970.01,-151.06 1015.81,-139.51"/>
<polygon fill="midnightblue" stroke="midnightblue" points="1016.91,-142.85 1025.75,-137.01 1015.2,-136.06 1016.91,-142.85"/>
</g>
<!-- Node22&#45;&gt;Node7 -->
<g id="edge31" class="edge">
<title>Node22&#45;&gt;Node7</title>
<path fill="none" stroke="midnightblue" d="M914.97,-117.99C906.77,-115.82 897.83,-113.64 889.5,-112 882.18,-110.56 677.22,-83.62 589.61,-72.13"/>
<polygon fill="midnightblue" stroke="midnightblue" points="589.9,-68.63 579.52,-70.8 588.98,-75.57 589.9,-68.63"/>
</g>
<!-- Node23 -->
<g id="node23" class="node">
<title>Node23</title>
<g id="a_node23"><a xlink:title=" ">
<polygon fill="white" stroke="#bfbfbf" points="914,-56.5 914,-75.5 961,-75.5 961,-56.5 914,-56.5"/>
<text text-anchor="middle" x="937.5" y="-63.5" font-family="Helvetica,sans-Serif" font-size="10.00">vector</text>
</a>
</g>
</g>
<!-- Node22&#45;&gt;Node23 -->
<g id="edge32" class="edge">
<title>Node22&#45;&gt;Node23</title>
<path fill="none" stroke="midnightblue" d="M943.5,-117.98C942.51,-109.58 940.97,-96.48 939.7,-85.66"/>
<polygon fill="midnightblue" stroke="midnightblue" points="943.15,-85.03 938.5,-75.51 936.19,-85.85 943.15,-85.03"/>
</g>
<!-- Node24&#45;&gt;Node7 -->
<g id="edge36" class="edge">
<title>Node24&#45;&gt;Node7</title>
<path fill="none" stroke="midnightblue" d="M1027.91,-117.97C1018.8,-115.76 1008.8,-113.56 999.5,-112 832.18,-84 788.08,-94.97 619.5,-76 609.89,-74.92 599.54,-73.63 589.86,-72.38"/>
<polygon fill="midnightblue" stroke="midnightblue" points="590.05,-68.87 579.68,-71.04 589.14,-75.81 590.05,-68.87"/>
</g>
<!-- Node25 -->
<g id="node25" class="node">
<title>Node25</title>
<g id="a_node25"><a xlink:title=" ">
<polygon fill="white" stroke="#bfbfbf" points="979,-56.5 979,-75.5 1086,-75.5 1086,-56.5 979,-56.5"/>
<text text-anchor="middle" x="1032.5" y="-63.5" font-family="Helvetica,sans-Serif" font-size="10.00">boost/optional.hpp</text>
</a>
</g>
</g>
<!-- Node24&#45;&gt;Node25 -->
<g id="edge34" class="edge">
<title>Node24&#45;&gt;Node25</title>
<path fill="none" stroke="midnightblue" d="M1055.63,-117.98C1051.7,-109.32 1045.5,-95.65 1040.51,-84.65"/>
<polygon fill="midnightblue" stroke="midnightblue" points="1043.68,-83.17 1036.36,-75.51 1037.31,-86.06 1043.68,-83.17"/>
</g>
<!-- Node24&#45;&gt;Node26 -->
<g id="edge35" class="edge">
<title>Node24&#45;&gt;Node26</title>
<path fill="none" stroke="midnightblue" d="M1073.83,-117.98C1090.16,-108.25 1117.1,-92.23 1136.41,-80.74"/>
<polygon fill="midnightblue" stroke="midnightblue" points="1138.39,-83.63 1145.2,-75.51 1134.82,-77.61 1138.39,-83.63"/>
</g>
<!-- Node27&#45;&gt;Node3 -->
<g id="edge41" class="edge">
<title>Node27&#45;&gt;Node3</title>
<path fill="none" stroke="midnightblue" d="M475.58,-235.08C483.67,-227.14 495.7,-215.34 505.41,-205.8"/>
<polygon fill="midnightblue" stroke="midnightblue" points="507.9,-208.25 512.59,-198.75 503,-203.26 507.9,-208.25"/>
</g>
<!-- Node27&#45;&gt;Node9 -->
<g id="edge42" class="edge">
<title>Node27&#45;&gt;Node9</title>
<path fill="none" stroke="midnightblue" d="M436.61,-235.41C365.16,-214.88 184.4,-162.95 104.05,-139.86"/>
<polygon fill="midnightblue" stroke="midnightblue" points="104.89,-136.46 94.31,-137.06 102.96,-143.19 104.89,-136.46"/>
</g>
</g>
</svg>
