<?xml version="1.0" encoding="UTF-8" standalone="no"?>
<!DOCTYPE svg PUBLIC "-//W3C//DTD SVG 1.1//EN"
 "http://www.w3.org/Graphics/SVG/1.1/DTD/svg11.dtd">
<!-- Generated by graphviz version 2.43.0 (0)
 -->
<!-- Title: Leosac::Module::LedBuzzer::SM::LedBuzzerSM_ Pages: 1 -->
<svg width="692pt" height="132pt"
 viewBox="0.00 0.00 692.00 132.00" xmlns="http://www.w3.org/2000/svg" xmlns:xlink="http://www.w3.org/1999/xlink">
<g id="graph0" class="graph" transform="scale(1 1) rotate(0) translate(4 128)">
<title>Leosac::Module::LedBuzzer::SM::LedBuzzerSM_</title>
<polygon fill="white" stroke="transparent" points="-4,4 -4,-128 688,-128 688,4 -4,4"/>
<!-- Node1 -->
<g id="node1" class="node">
<title>Node1</title>
<g id="a_node1"><a xlink:title=" ">
<polygon fill="#bfbfbf" stroke="black" points="535,-44.5 535,-74.5 684,-74.5 684,-44.5 535,-44.5"/>
<text text-anchor="start" x="543" y="-62.5" font-family="Helvetica,sans-Serif" font-size="10.00">Leosac::Module::LedBuzzer</text>
<text text-anchor="middle" x="609.5" y="-51.5" font-family="Helvetica,sans-Serif" font-size="10.00">::SM::LedBuzzerSM_</text>
</a>
</g>
</g>
<!-- Node2 -->
<g id="node2" class="node">
<title>Node2</title>
<g id="a_node2"><a xlink:title=" ">
<polygon fill="white" stroke="#bfbfbf" points="309.5,-93.5 309.5,-123.5 440.5,-123.5 440.5,-93.5 309.5,-93.5"/>
<text text-anchor="start" x="317.5" y="-111.5" font-family="Helvetica,sans-Serif" font-size="10.00">msmf::state_machine</text>
<text text-anchor="middle" x="375" y="-100.5" font-family="Helvetica,sans-Serif" font-size="10.00">_def&lt; LedBuzzerSM_ &gt;</text>
</a>
</g>
</g>
<!-- Node2&#45;&gt;Node1 -->
<g id="edge1" class="edge">
<title>Node2&#45;&gt;Node1</title>
<path fill="none" stroke="midnightblue" d="M450.79,-92.74C478.47,-86.9 509.77,-80.31 537.14,-74.54"/>
<polygon fill="midnightblue" stroke="midnightblue" points="449.83,-89.36 440.76,-94.85 451.27,-96.21 449.83,-89.36"/>
</g>
<!-- Node3 -->
<g id="node3" class="node">
<title>Node3</title>
<g id="a_node3"><a xlink:href="../../d8/d84/structLeosac_1_1Hardware_1_1FLED_1_1State.html" target="_top" xlink:title=" ">
<polygon fill="white" stroke="black" points="308,-44.5 308,-74.5 442,-74.5 442,-44.5 308,-44.5"/>
<text text-anchor="start" x="316" y="-62.5" font-family="Helvetica,sans-Serif" font-size="10.00">Leosac::Hardware::FLED</text>
<text text-anchor="middle" x="375" y="-51.5" font-family="Helvetica,sans-Serif" font-size="10.00">::State</text>
</a>
</g>
</g>
<!-- Node3&#45;&gt;Node1 -->
<g id="edge2" class="edge">
<title>Node3&#45;&gt;Node1</title>
<path fill="none" stroke="#9a32cd" stroke-dasharray="5,2" d="M452.04,-59.5C478.69,-59.5 508.54,-59.5 534.98,-59.5"/>
<polygon fill="#9a32cd" stroke="#9a32cd" points="452,-56 442,-59.5 452,-63 452,-56"/>
<text text-anchor="middle" x="490" y="-62.5" font-family="Helvetica,sans-Serif" font-size="10.00"> led_state_</text>
</g>
<!-- Node4 -->
<g id="node4" class="node">
<title>Node4</title>
<g id="a_node4"><a xlink:href="../../d0/dea/classLeosac_1_1Hardware_1_1FGPIO.html" target="_top" xlink:title="A Facade to a GPIO object.">
<polygon fill="white" stroke="black" points="305,-6 305,-25 445,-25 445,-6 305,-6"/>
<text text-anchor="middle" x="375" y="-13" font-family="Helvetica,sans-Serif" font-size="10.00">Leosac::Hardware::FGPIO</text>
</a>
</g>
</g>
<!-- Node4&#45;&gt;Node1 -->
<g id="edge3" class="edge">
<title>Node4&#45;&gt;Node1</title>
<path fill="none" stroke="#9a32cd" stroke-dasharray="5,2" d="M436.38,-26.93C466.44,-32.62 503.04,-39.54 534.75,-45.54"/>
<polygon fill="#9a32cd" stroke="#9a32cd" points="436.93,-23.47 426.45,-25.05 435.62,-30.35 436.93,-23.47"/>
<text text-anchor="middle" x="490" y="-44.5" font-family="Helvetica,sans-Serif" font-size="10.00"> gpio_</text>
</g>
<!-- Node5 -->
<g id="node5" class="node">
<title>Node5</title>
<g id="a_node5"><a xlink:title="STL class.">
<polygon fill="white" stroke="#bfbfbf" points="141,-6 141,-25 206,-25 206,-6 141,-6"/>
<text text-anchor="middle" x="173.5" y="-13" font-family="Helvetica,sans-Serif" font-size="10.00">std::string</text>
</a>
</g>
</g>
<!-- Node5&#45;&gt;Node4 -->
<g id="edge4" class="edge">
<title>Node5&#45;&gt;Node4</title>
<path fill="none" stroke="#9a32cd" stroke-dasharray="5,2" d="M216.24,-15.5C241.9,-15.5 275.41,-15.5 304.94,-15.5"/>
<polygon fill="#9a32cd" stroke="#9a32cd" points="216.11,-12 206.11,-15.5 216.11,-19 216.11,-12"/>
<text text-anchor="middle" x="255.5" y="-18.5" font-family="Helvetica,sans-Serif" font-size="10.00"> gpio_name_</text>
</g>
<!-- Node6 -->
<g id="node6" class="node">
<title>Node6</title>
<g id="a_node6"><a xlink:title="STL class.">
<polygon fill="white" stroke="#bfbfbf" points="0,-0.5 0,-30.5 104,-30.5 104,-0.5 0,-0.5"/>
<text text-anchor="start" x="8" y="-18.5" font-family="Helvetica,sans-Serif" font-size="10.00">std::basic_string&lt;</text>
<text text-anchor="middle" x="52" y="-7.5" font-family="Helvetica,sans-Serif" font-size="10.00"> char &gt;</text>
</a>
</g>
</g>
<!-- Node6&#45;&gt;Node5 -->
<g id="edge5" class="edge">
<title>Node6&#45;&gt;Node5</title>
<path fill="none" stroke="midnightblue" d="M114.1,-15.5C123.41,-15.5 132.68,-15.5 141,-15.5"/>
<polygon fill="midnightblue" stroke="midnightblue" points="114.03,-12 104.03,-15.5 114.03,-19 114.03,-12"/>
</g>
</g>
</svg>
