<?xml version="1.0" encoding="UTF-8" standalone="no"?>
<!DOCTYPE svg PUBLIC "-//W3C//DTD SVG 1.1//EN"
 "http://www.w3.org/Graphics/SVG/1.1/DTD/svg11.dtd">
<!-- Generated by graphviz version 2.43.0 (0)
 -->
<!-- Title: src/core/credentials/IPinCode.hpp Pages: 1 -->
<svg width="1011pt" height="240pt"
 viewBox="0.00 0.00 1011.00 240.00" xmlns="http://www.w3.org/2000/svg" xmlns:xlink="http://www.w3.org/1999/xlink">
<g id="graph0" class="graph" transform="scale(1 1) rotate(0) translate(4 236)">
<title>src/core/credentials/IPinCode.hpp</title>
<polygon fill="white" stroke="transparent" points="-4,4 -4,-236 1007,-236 1007,4 -4,4"/>
<!-- Node1 -->
<g id="node1" class="node">
<title>Node1</title>
<g id="a_node1"><a xlink:title=" ">
<polygon fill="#bfbfbf" stroke="black" points="525,-201.5 525,-231.5 637,-231.5 637,-201.5 525,-201.5"/>
<text text-anchor="start" x="533" y="-219.5" font-family="Helvetica,sans-Serif" font-size="10.00">src/core/credentials</text>
<text text-anchor="middle" x="581" y="-208.5" font-family="Helvetica,sans-Serif" font-size="10.00">/IPinCode.hpp</text>
</a>
</g>
</g>
<!-- Node2 -->
<g id="node2" class="node">
<title>Node2</title>
<g id="a_node2"><a xlink:href="../../db/d3d/PinCode_8hpp.html" target="_top" xlink:title=" ">
<polygon fill="white" stroke="black" points="444,-134.5 444,-164.5 556,-164.5 556,-134.5 444,-134.5"/>
<text text-anchor="start" x="452" y="-152.5" font-family="Helvetica,sans-Serif" font-size="10.00">src/core/credentials</text>
<text text-anchor="middle" x="500" y="-141.5" font-family="Helvetica,sans-Serif" font-size="10.00">/PinCode.hpp</text>
</a>
</g>
</g>
<!-- Node1&#45;&gt;Node2 -->
<g id="edge1" class="edge">
<title>Node1&#45;&gt;Node2</title>
<path fill="none" stroke="midnightblue" d="M555.31,-194.88C543,-185.01 528.57,-173.43 517.54,-164.58"/>
<polygon fill="midnightblue" stroke="midnightblue" points="553.43,-197.87 563.42,-201.4 557.82,-192.41 553.43,-197.87"/>
</g>
<!-- Node12 -->
<g id="node12" class="node">
<title>Node12</title>
<g id="a_node12"><a xlink:href="../../d8/d1b/PinCodeSerializer_8cpp.html" target="_top" xlink:title=" ">
<polygon fill="white" stroke="black" points="574,-134.5 574,-164.5 752,-164.5 752,-134.5 574,-134.5"/>
<text text-anchor="start" x="582" y="-152.5" font-family="Helvetica,sans-Serif" font-size="10.00">src/core/credentials</text>
<text text-anchor="middle" x="663" y="-141.5" font-family="Helvetica,sans-Serif" font-size="10.00">/serializers/PinCodeSerializer.cpp</text>
</a>
</g>
</g>
<!-- Node1&#45;&gt;Node12 -->
<g id="edge15" class="edge">
<title>Node1&#45;&gt;Node12</title>
<path fill="none" stroke="midnightblue" d="M606.65,-195.17C619.19,-185.23 633.97,-173.51 645.24,-164.58"/>
<polygon fill="midnightblue" stroke="midnightblue" points="604.46,-192.44 598.79,-201.4 608.8,-197.93 604.46,-192.44"/>
</g>
<!-- Node3 -->
<g id="node3" class="node">
<title>Node3</title>
<g id="a_node3"><a xlink:href="../../d0/dc0/src_2core_2auth_2AuthSourceBuilder_8cpp.html" target="_top" xlink:title=" ">
<polygon fill="white" stroke="black" points="0,-0.5 0,-30.5 138,-30.5 138,-0.5 0,-0.5"/>
<text text-anchor="start" x="8" y="-18.5" font-family="Helvetica,sans-Serif" font-size="10.00">src/core/auth/AuthSource</text>
<text text-anchor="middle" x="69" y="-7.5" font-family="Helvetica,sans-Serif" font-size="10.00">Builder.cpp</text>
</a>
</g>
</g>
<!-- Node2&#45;&gt;Node3 -->
<g id="edge2" class="edge">
<title>Node2&#45;&gt;Node3</title>
<path fill="none" stroke="midnightblue" d="M433.85,-134.93C391.75,-125.75 336.26,-112.67 288,-98 221.24,-77.71 145.33,-47.89 102.7,-30.51"/>
<polygon fill="midnightblue" stroke="midnightblue" points="433.19,-138.37 443.7,-137.06 434.67,-131.52 433.19,-138.37"/>
</g>
<!-- Node4 -->
<g id="node4" class="node">
<title>Node4</title>
<g id="a_node4"><a xlink:href="../../d5/d2f/PinCode_8cpp.html" target="_top" xlink:title=" ">
<polygon fill="white" stroke="black" points="547,-67.5 547,-97.5 659,-97.5 659,-67.5 547,-67.5"/>
<text text-anchor="start" x="555" y="-85.5" font-family="Helvetica,sans-Serif" font-size="10.00">src/core/credentials</text>
<text text-anchor="middle" x="603" y="-74.5" font-family="Helvetica,sans-Serif" font-size="10.00">/PinCode.cpp</text>
</a>
</g>
</g>
<!-- Node2&#45;&gt;Node4 -->
<g id="edge3" class="edge">
<title>Node2&#45;&gt;Node4</title>
<path fill="none" stroke="midnightblue" d="M530.88,-129.02C546.9,-118.9 566.13,-106.77 580.69,-97.58"/>
<polygon fill="midnightblue" stroke="midnightblue" points="528.94,-126.1 522.35,-134.4 532.67,-132.02 528.94,-126.1"/>
</g>
<!-- Node5 -->
<g id="node5" class="node">
<title>Node5</title>
<g id="a_node5"><a xlink:href="../../da/d24/RFIDCardPin_8hpp.html" target="_top" xlink:title=" ">
<polygon fill="white" stroke="black" points="341,-67.5 341,-97.5 453,-97.5 453,-67.5 341,-67.5"/>
<text text-anchor="start" x="349" y="-85.5" font-family="Helvetica,sans-Serif" font-size="10.00">src/core/credentials</text>
<text text-anchor="middle" x="397" y="-74.5" font-family="Helvetica,sans-Serif" font-size="10.00">/RFIDCardPin.hpp</text>
</a>
</g>
</g>
<!-- Node2&#45;&gt;Node5 -->
<g id="edge4" class="edge">
<title>Node2&#45;&gt;Node5</title>
<path fill="none" stroke="midnightblue" d="M469.12,-129.02C453.1,-118.9 433.87,-106.77 419.31,-97.58"/>
<polygon fill="midnightblue" stroke="midnightblue" points="467.33,-132.02 477.65,-134.4 471.06,-126.1 467.33,-132.02"/>
</g>
<!-- Node7 -->
<g id="node7" class="node">
<title>Node7</title>
<g id="a_node7"><a xlink:href="../../d3/dc5/FileAuthSourceMapper_8cpp.html" target="_top" xlink:title=" ">
<polygon fill="white" stroke="black" points="156.5,-0.5 156.5,-30.5 323.5,-30.5 323.5,-0.5 156.5,-0.5"/>
<text text-anchor="start" x="164.5" y="-18.5" font-family="Helvetica,sans-Serif" font-size="10.00">src/modules/auth/auth</text>
<text text-anchor="middle" x="240" y="-7.5" font-family="Helvetica,sans-Serif" font-size="10.00">&#45;file/FileAuthSourceMapper.cpp</text>
</a>
</g>
</g>
<!-- Node2&#45;&gt;Node7 -->
<g id="edge10" class="edge">
<title>Node2&#45;&gt;Node7</title>
<path fill="none" stroke="midnightblue" d="M434.13,-135.69C402,-127.74 363.58,-115.6 332,-98 299.57,-79.92 268.72,-48.77 252.29,-30.67"/>
<polygon fill="midnightblue" stroke="midnightblue" points="433.34,-139.1 443.88,-138.03 434.97,-132.3 433.34,-139.1"/>
</g>
<!-- Node8 -->
<g id="node8" class="node">
<title>Node8</title>
<g id="a_node8"><a xlink:href="../../d5/d58/AuthFile_8cpp.html" target="_top" xlink:title=" ">
<polygon fill="white" stroke="black" points="471,-6 471,-25 569,-25 569,-6 471,-6"/>
<text text-anchor="middle" x="520" y="-13" font-family="Helvetica,sans-Serif" font-size="10.00">test/AuthFile.cpp</text>
</a>
</g>
</g>
<!-- Node2&#45;&gt;Node8 -->
<g id="edge12" class="edge">
<title>Node2&#45;&gt;Node8</title>
<path fill="none" stroke="midnightblue" d="M500.06,-123.97C500.45,-107.7 501.65,-85.94 505,-67 507.64,-52.05 513.17,-35.25 516.72,-25.29"/>
<polygon fill="midnightblue" stroke="midnightblue" points="496.55,-124.2 499.9,-134.25 503.55,-124.31 496.55,-124.2"/>
</g>
<!-- Node9 -->
<g id="node9" class="node">
<title>Node9</title>
<g id="a_node9"><a xlink:href="../../d9/d75/test_2AuthSourceBuilder_8cpp.html" target="_top" xlink:title=" ">
<polygon fill="white" stroke="black" points="587,-6 587,-25 735,-25 735,-6 587,-6"/>
<text text-anchor="middle" x="661" y="-13" font-family="Helvetica,sans-Serif" font-size="10.00">test/AuthSourceBuilder.cpp</text>
</a>
</g>
</g>
<!-- Node2&#45;&gt;Node9 -->
<g id="edge13" class="edge">
<title>Node2&#45;&gt;Node9</title>
<path fill="none" stroke="midnightblue" d="M506.05,-124.49C511.66,-106.57 521.67,-82.59 538,-67 560.79,-45.25 594.25,-32.33 620.52,-25.02"/>
<polygon fill="midnightblue" stroke="midnightblue" points="502.64,-123.66 503.23,-134.23 509.37,-125.6 502.64,-123.66"/>
</g>
<!-- Node10 -->
<g id="node10" class="node">
<title>Node10</title>
<g id="a_node10"><a xlink:href="../../d2/df6/CredentialCRUD_8cpp.html" target="_top" xlink:title=" ">
<polygon fill="white" stroke="black" points="677.5,-67.5 677.5,-97.5 832.5,-97.5 832.5,-67.5 677.5,-67.5"/>
<text text-anchor="start" x="685.5" y="-85.5" font-family="Helvetica,sans-Serif" font-size="10.00">src/modules/websock</text>
<text text-anchor="middle" x="755" y="-74.5" font-family="Helvetica,sans-Serif" font-size="10.00">&#45;api/api/CredentialCRUD.cpp</text>
</a>
</g>
</g>
<!-- Node2&#45;&gt;Node10 -->
<g id="edge11" class="edge">
<title>Node2&#45;&gt;Node10</title>
<path fill="none" stroke="midnightblue" d="M564.79,-131.98C606.44,-121.37 659.98,-107.72 699.64,-97.61"/>
<polygon fill="midnightblue" stroke="midnightblue" points="563.84,-128.61 555.02,-134.48 565.57,-135.4 563.84,-128.61"/>
</g>
<!-- Node11 -->
<g id="node11" class="node">
<title>Node11</title>
<g id="a_node11"><a xlink:href="../../dc/db5/test_2CredentialValidator_8cpp.html" target="_top" xlink:title=" ">
<polygon fill="white" stroke="black" points="851,-73 851,-92 1003,-92 1003,-73 851,-73"/>
<text text-anchor="middle" x="927" y="-80" font-family="Helvetica,sans-Serif" font-size="10.00">test/CredentialValidator.cpp</text>
</a>
</g>
</g>
<!-- Node2&#45;&gt;Node11 -->
<g id="edge14" class="edge">
<title>Node2&#45;&gt;Node11</title>
<path fill="none" stroke="midnightblue" d="M566.46,-133.84C689.01,-112.66 722.47,-115.96 842,-98 853.99,-96.2 866.9,-94.09 878.95,-92.04"/>
<polygon fill="midnightblue" stroke="midnightblue" points="565.56,-130.44 556.31,-135.61 566.76,-137.34 565.56,-130.44"/>
</g>
<!-- Node5&#45;&gt;Node3 -->
<g id="edge5" class="edge">
<title>Node5&#45;&gt;Node3</title>
<path fill="none" stroke="midnightblue" d="M331.18,-68.46C275.2,-57.36 195.08,-41.49 138.17,-30.21"/>
<polygon fill="midnightblue" stroke="midnightblue" points="330.5,-71.89 340.99,-70.4 331.86,-65.02 330.5,-71.89"/>
</g>
<!-- Node6 -->
<g id="node6" class="node">
<title>Node6</title>
<g id="a_node6"><a xlink:href="../../d5/da8/RFIDCardPin_8cpp.html" target="_top" xlink:title=" ">
<polygon fill="white" stroke="black" points="341,-0.5 341,-30.5 453,-30.5 453,-0.5 341,-0.5"/>
<text text-anchor="start" x="349" y="-18.5" font-family="Helvetica,sans-Serif" font-size="10.00">src/core/credentials</text>
<text text-anchor="middle" x="397" y="-7.5" font-family="Helvetica,sans-Serif" font-size="10.00">/RFIDCardPin.cpp</text>
</a>
</g>
</g>
<!-- Node5&#45;&gt;Node6 -->
<g id="edge6" class="edge">
<title>Node5&#45;&gt;Node6</title>
<path fill="none" stroke="midnightblue" d="M397,-57.11C397,-48.15 397,-38.32 397,-30.58"/>
<polygon fill="midnightblue" stroke="midnightblue" points="393.5,-57.4 397,-67.4 400.5,-57.4 393.5,-57.4"/>
</g>
<!-- Node5&#45;&gt;Node7 -->
<g id="edge7" class="edge">
<title>Node5&#45;&gt;Node7</title>
<path fill="none" stroke="midnightblue" d="M353.63,-63.54C328.51,-53.14 297.34,-40.24 274,-30.58"/>
<polygon fill="midnightblue" stroke="midnightblue" points="352.36,-66.8 362.93,-67.4 355.03,-60.34 352.36,-66.8"/>
</g>
<!-- Node5&#45;&gt;Node8 -->
<g id="edge8" class="edge">
<title>Node5&#45;&gt;Node8</title>
<path fill="none" stroke="midnightblue" d="M432.69,-62.64C456.22,-50.2 485.91,-34.51 503.9,-25.01"/>
<polygon fill="midnightblue" stroke="midnightblue" points="430.9,-59.63 423.69,-67.4 434.17,-65.82 430.9,-59.63"/>
</g>
<!-- Node5&#45;&gt;Node9 -->
<g id="edge9" class="edge">
<title>Node5&#45;&gt;Node9</title>
<path fill="none" stroke="midnightblue" d="M463.08,-65.23C514.84,-52.49 584.8,-35.26 626.18,-25.07"/>
<polygon fill="midnightblue" stroke="midnightblue" points="462.18,-61.85 453.31,-67.64 463.86,-68.64 462.18,-61.85"/>
</g>
</g>
</svg>
