<?xml version="1.0" encoding="UTF-8" standalone="no"?>
<!DOCTYPE svg PUBLIC "-//W3C//DTD SVG 1.1//EN"
 "http://www.w3.org/Graphics/SVG/1.1/DTD/svg11.dtd">
<!-- Generated by graphviz version 2.43.0 (0)
 -->
<!-- Title: src/core/SecurityContext.cpp Pages: 1 -->
<!--zoomable 319 -->
<svg id="main" version="1.1" xmlns="http://www.w3.org/2000/svg" xmlns:xlink="http://www.w3.org/1999/xlink" xml:space="preserve" onload="init(evt)">
<style type="text/css"><![CDATA[
.edge:hover path { stroke: red; }
.edge:hover polygon { stroke: red; fill: red; }
]]></style>
<script type="text/javascript"><![CDATA[
var edges = document.getElementsByTagName('g');
if (edges && edges.length) {
  for (var i=0;i<edges.length;i++) {
    if (edges[i].id.substr(0,4)=='edge') {
      edges[i].setAttribute('class','edge');
    }
  }
}
]]></script>
        <defs>
                <circle id="rim" cx="0" cy="0" r="7"/>
                <circle id="rim2" cx="0" cy="0" r="3.5"/>
                <g id="zoomPlus">
                        <use xlink:href="#rim" fill="#404040">
                                <set attributeName="fill" to="#808080" begin="zoomplus.mouseover" end="zoomplus.mouseout"/>
                        </use>
                        <path d="M-4,0h8M0,-4v8" fill="none" stroke="white" stroke-width="1.5" pointer-events="none"/>
                </g>
                <g id="zoomMin">
                        <use xlink:href="#rim" fill="#404040">
                                <set attributeName="fill" to="#808080" begin="zoomminus.mouseover" end="zoomminus.mouseout"/>
                        </use>
                        <path d="M-4,0h8" fill="none" stroke="white" stroke-width="1.5" pointer-events="none"/>
                </g>
                <g id="dirArrow">
                        <path fill="none" stroke="white" stroke-width="1.5" d="M0,-3.0v7 M-2.5,-0.5L0,-3.0L2.5,-0.5"/>
                </g>
               <g id="resetDef">
                       <use xlink:href="#rim2" fill="#404040">
                               <set attributeName="fill" to="#808080" begin="reset.mouseover" end="reset.mouseout"/>
                       </use>
               </g>
        </defs>

<script type="text/javascript">
var viewWidth = 2324;
var viewHeight = 319;
var sectionId = 'dynsection-0';
</script>
<script xlink:href="../../svgpan.js"/>
<svg id="graph" class="graph">
<g id="viewport">
<title>src/core/SecurityContext.cpp</title>
<polygon fill="white" stroke="transparent" points="-4,4 -4,-315 2320,-315 2320,4 -4,4"/>
<!-- Node1 -->
<g id="node1" class="node">
<title>Node1</title>
<g id="a_node1"><a xlink:title=" ">
<polygon fill="#bfbfbf" stroke="black" points="643.5,-291.5 643.5,-310.5 799.5,-310.5 799.5,-291.5 643.5,-291.5"/>
<text text-anchor="middle" x="721.5" y="-298.5" font-family="Helvetica,sans-Serif" font-size="10.00">src/core/SecurityContext.cpp</text>
</a>
</g>
</g>
<!-- Node2 -->
<g id="node2" class="node">
<title>Node2</title>
<g id="a_node2"><a xlink:href="../../d1/d3e/SecurityContext_8hpp.html" target="_top" xlink:title=" ">
<polygon fill="white" stroke="black" points="563.5,-235.5 563.5,-254.5 703.5,-254.5 703.5,-235.5 563.5,-235.5"/>
<text text-anchor="middle" x="633.5" y="-242.5" font-family="Helvetica,sans-Serif" font-size="10.00">core/SecurityContext.hpp</text>
</a>
</g>
</g>
<!-- Node1&#45;&gt;Node2 -->
<g id="edge1" class="edge">
<title>Node1&#45;&gt;Node2</title>
<path fill="none" stroke="midnightblue" d="M707.36,-291.32C693.63,-282.9 672.56,-269.97 656.44,-260.07"/>
<polygon fill="midnightblue" stroke="midnightblue" points="657.96,-256.9 647.6,-254.65 654.3,-262.87 657.96,-256.9"/>
</g>
<!-- Node20 -->
<g id="node20" class="node">
<title>Node20</title>
<g id="a_node20"><a xlink:href="../../da/dc7/PermissionDenied_8hpp.html" target="_top" xlink:title=" ">
<polygon fill="white" stroke="black" points="1052,-235.5 1052,-254.5 1229,-254.5 1229,-235.5 1052,-235.5"/>
<text text-anchor="middle" x="1140.5" y="-242.5" font-family="Helvetica,sans-Serif" font-size="10.00">exception/PermissionDenied.hpp</text>
</a>
</g>
</g>
<!-- Node1&#45;&gt;Node20 -->
<g id="edge28" class="edge">
<title>Node1&#45;&gt;Node20</title>
<path fill="none" stroke="midnightblue" d="M787.89,-291.44C862.98,-281.77 985.04,-266.04 1064.05,-255.85"/>
<polygon fill="midnightblue" stroke="midnightblue" points="1064.95,-259.27 1074.42,-254.52 1064.05,-252.32 1064.95,-259.27"/>
</g>
<!-- Node3 -->
<g id="node3" class="node">
<title>Node3</title>
<g id="a_node3"><a xlink:href="../../d7/dcf/AuditFwd_8hpp.html" target="_top" xlink:title=" ">
<polygon fill="white" stroke="black" points="854,-174 854,-193 989,-193 989,-174 854,-174"/>
<text text-anchor="middle" x="921.5" y="-181" font-family="Helvetica,sans-Serif" font-size="10.00">core/audit/AuditFwd.hpp</text>
</a>
</g>
</g>
<!-- Node2&#45;&gt;Node3 -->
<g id="edge2" class="edge">
<title>Node2&#45;&gt;Node3</title>
<path fill="none" stroke="midnightblue" d="M674.76,-235.48C726.3,-224.83 814.48,-206.61 870.29,-195.08"/>
<polygon fill="midnightblue" stroke="midnightblue" points="871.23,-198.46 880.31,-193.01 869.81,-191.6 871.23,-198.46"/>
</g>
<!-- Node8 -->
<g id="node8" class="node">
<title>Node8</title>
<g id="a_node8"><a xlink:href="../../d3/d6f/AuthFwd_8hpp.html" target="_top" xlink:title=" ">
<polygon fill="white" stroke="black" points="707,-174 707,-193 836,-193 836,-174 707,-174"/>
<text text-anchor="middle" x="771.5" y="-181" font-family="Helvetica,sans-Serif" font-size="10.00">core/auth/AuthFwd.hpp</text>
</a>
</g>
</g>
<!-- Node2&#45;&gt;Node8 -->
<g id="edge7" class="edge">
<title>Node2&#45;&gt;Node8</title>
<path fill="none" stroke="midnightblue" d="M653.27,-235.48C676.64,-225.4 715.71,-208.55 742.5,-197"/>
<polygon fill="midnightblue" stroke="midnightblue" points="743.97,-200.18 751.76,-193.01 741.2,-193.75 743.97,-200.18"/>
</g>
<!-- Node9 -->
<g id="node9" class="node">
<title>Node9</title>
<g id="a_node9"><a xlink:href="../../d7/d7f/CredentialFwd_8hpp.html" target="_top" xlink:title=" ">
<polygon fill="white" stroke="black" points="412.5,-168.5 412.5,-198.5 560.5,-198.5 560.5,-168.5 412.5,-168.5"/>
<text text-anchor="start" x="420.5" y="-186.5" font-family="Helvetica,sans-Serif" font-size="10.00">core/credentials/Credential</text>
<text text-anchor="middle" x="486.5" y="-175.5" font-family="Helvetica,sans-Serif" font-size="10.00">Fwd.hpp</text>
</a>
</g>
</g>
<!-- Node2&#45;&gt;Node9 -->
<g id="edge11" class="edge">
<title>Node2&#45;&gt;Node9</title>
<path fill="none" stroke="midnightblue" d="M612.44,-235.48C591.13,-226.85 557.56,-213.26 530.44,-202.29"/>
<polygon fill="midnightblue" stroke="midnightblue" points="531.73,-199.03 521.14,-198.52 529.1,-205.52 531.73,-199.03"/>
</g>
<!-- Node10 -->
<g id="node10" class="node">
<title>Node10</title>
<g id="a_node10"><a xlink:href="../../d9/dc8/HardwareFwd_8hpp.html" target="_top" xlink:title=" ">
<polygon fill="white" stroke="black" points="108.5,-174 108.5,-193 262.5,-193 262.5,-174 108.5,-174"/>
<text text-anchor="middle" x="185.5" y="-181" font-family="Helvetica,sans-Serif" font-size="10.00">hardware/HardwareFwd.hpp</text>
</a>
</g>
</g>
<!-- Node2&#45;&gt;Node10 -->
<g id="edge14" class="edge">
<title>Node2&#45;&gt;Node10</title>
<path fill="none" stroke="midnightblue" d="M563.3,-236.19C490.28,-227.85 372.7,-213.81 271.5,-199 262.59,-197.7 253.17,-196.21 243.97,-194.71"/>
<polygon fill="midnightblue" stroke="midnightblue" points="244.54,-191.26 234.11,-193.07 243.4,-198.16 244.54,-191.26"/>
</g>
<!-- Node18 -->
<g id="node18" class="node">
<title>Node18</title>
<g id="a_node18"><a xlink:href="../../d8/d97/ToolsFwd_8hpp.html" target="_top" xlink:title=" ">
<polygon fill="white" stroke="black" points="578.5,-174 578.5,-193 688.5,-193 688.5,-174 578.5,-174"/>
<text text-anchor="middle" x="633.5" y="-181" font-family="Helvetica,sans-Serif" font-size="10.00">tools/ToolsFwd.hpp</text>
</a>
</g>
</g>
<!-- Node2&#45;&gt;Node18 -->
<g id="edge23" class="edge">
<title>Node2&#45;&gt;Node18</title>
<path fill="none" stroke="midnightblue" d="M633.5,-235.48C633.5,-227.08 633.5,-213.98 633.5,-203.16"/>
<polygon fill="midnightblue" stroke="midnightblue" points="637,-203.01 633.5,-193.01 630,-203.01 637,-203.01"/>
</g>
<!-- Node19 -->
<g id="node19" class="node">
<title>Node19</title>
<g id="a_node19"><a xlink:href="../../d9/d69/db__fwd_8hpp.html" target="_top" xlink:title=" ">
<polygon fill="white" stroke="black" points="280.5,-174 280.5,-193 394.5,-193 394.5,-174 280.5,-174"/>
<text text-anchor="middle" x="337.5" y="-181" font-family="Helvetica,sans-Serif" font-size="10.00">tools/db/db_fwd.hpp</text>
</a>
</g>
</g>
<!-- Node2&#45;&gt;Node19 -->
<g id="edge26" class="edge">
<title>Node2&#45;&gt;Node19</title>
<path fill="none" stroke="midnightblue" d="M588.05,-235.43C541.61,-226.59 467.44,-212.28 403.5,-199 397.69,-197.79 391.59,-196.5 385.56,-195.19"/>
<polygon fill="midnightblue" stroke="midnightblue" points="386.03,-191.71 375.51,-193.01 384.54,-198.55 386.03,-191.71"/>
</g>
<!-- Node4 -->
<g id="node4" class="node">
<title>Node4</title>
<g id="a_node4"><a xlink:title=" ">
<polygon fill="white" stroke="#bfbfbf" points="745,-112.5 745,-131.5 798,-131.5 798,-112.5 745,-112.5"/>
<text text-anchor="middle" x="771.5" y="-119.5" font-family="Helvetica,sans-Serif" font-size="10.00">cstddef</text>
</a>
</g>
</g>
<!-- Node3&#45;&gt;Node4 -->
<g id="edge3" class="edge">
<title>Node3&#45;&gt;Node4</title>
<path fill="none" stroke="midnightblue" d="M900.01,-173.98C874.39,-163.81 831.39,-146.76 802.26,-135.2"/>
<polygon fill="midnightblue" stroke="midnightblue" points="803.54,-131.94 792.95,-131.51 800.96,-138.45 803.54,-131.94"/>
</g>
<!-- Node5 -->
<g id="node5" class="node">
<title>Node5</title>
<g id="a_node5"><a xlink:title=" ">
<polygon fill="white" stroke="#bfbfbf" points="816,-112.5 816,-131.5 887,-131.5 887,-112.5 816,-112.5"/>
<text text-anchor="middle" x="851.5" y="-119.5" font-family="Helvetica,sans-Serif" font-size="10.00">flagset.hpp</text>
</a>
</g>
</g>
<!-- Node3&#45;&gt;Node5 -->
<g id="edge4" class="edge">
<title>Node3&#45;&gt;Node5</title>
<path fill="none" stroke="midnightblue" d="M911.47,-173.98C900.45,-164.61 882.54,-149.38 869.16,-138.01"/>
<polygon fill="midnightblue" stroke="midnightblue" points="871.4,-135.32 861.51,-131.51 866.86,-140.65 871.4,-135.32"/>
</g>
<!-- Node6 -->
<g id="node6" class="node">
<title>Node6</title>
<g id="a_node6"><a xlink:title=" ">
<polygon fill="white" stroke="#bfbfbf" points="483.5,-112.5 483.5,-131.5 541.5,-131.5 541.5,-112.5 483.5,-112.5"/>
<text text-anchor="middle" x="512.5" y="-119.5" font-family="Helvetica,sans-Serif" font-size="10.00">memory</text>
</a>
</g>
</g>
<!-- Node3&#45;&gt;Node6 -->
<g id="edge5" class="edge">
<title>Node3&#45;&gt;Node6</title>
<path fill="none" stroke="midnightblue" d="M878.96,-173.96C868.08,-171.89 856.37,-169.77 845.5,-168 739.63,-150.76 614.06,-135.07 551.7,-127.6"/>
<polygon fill="midnightblue" stroke="midnightblue" points="551.88,-124.09 541.53,-126.39 551.05,-131.05 551.88,-124.09"/>
</g>
<!-- Node7 -->
<g id="node7" class="node">
<title>Node7</title>
<g id="a_node7"><a xlink:title=" ">
<polygon fill="white" stroke="#bfbfbf" points="609,-112.5 609,-131.5 704,-131.5 704,-112.5 609,-112.5"/>
<text text-anchor="middle" x="656.5" y="-119.5" font-family="Helvetica,sans-Serif" font-size="10.00">odb/lazy&#45;ptr.hxx</text>
</a>
</g>
</g>
<!-- Node3&#45;&gt;Node7 -->
<g id="edge6" class="edge">
<title>Node3&#45;&gt;Node7</title>
<path fill="none" stroke="midnightblue" d="M883.53,-173.98C836.3,-163.37 755.64,-145.26 704.26,-133.72"/>
<polygon fill="midnightblue" stroke="midnightblue" points="704.92,-130.28 694.4,-131.51 703.39,-137.11 704.92,-130.28"/>
</g>
<!-- Node8&#45;&gt;Node4 -->
<g id="edge8" class="edge">
<title>Node8&#45;&gt;Node4</title>
<path fill="none" stroke="midnightblue" d="M771.5,-173.98C771.5,-165.58 771.5,-152.48 771.5,-141.66"/>
<polygon fill="midnightblue" stroke="midnightblue" points="775,-141.51 771.5,-131.51 768,-141.51 775,-141.51"/>
</g>
<!-- Node8&#45;&gt;Node6 -->
<g id="edge9" class="edge">
<title>Node8&#45;&gt;Node6</title>
<path fill="none" stroke="midnightblue" d="M734.39,-173.98C685.81,-162.82 601.04,-143.34 551.53,-131.97"/>
<polygon fill="midnightblue" stroke="midnightblue" points="552.06,-128.5 541.53,-129.67 550.49,-135.32 552.06,-128.5"/>
</g>
<!-- Node8&#45;&gt;Node7 -->
<g id="edge10" class="edge">
<title>Node8&#45;&gt;Node7</title>
<path fill="none" stroke="midnightblue" d="M755.02,-173.98C735.89,-164.08 704.13,-147.64 681.85,-136.12"/>
<polygon fill="midnightblue" stroke="midnightblue" points="683.44,-133 672.95,-131.51 680.22,-139.21 683.44,-133"/>
</g>
<!-- Node9&#45;&gt;Node6 -->
<g id="edge12" class="edge">
<title>Node9&#45;&gt;Node6</title>
<path fill="none" stroke="midnightblue" d="M492.66,-168.4C496.24,-160.2 500.8,-149.78 504.64,-140.99"/>
<polygon fill="midnightblue" stroke="midnightblue" points="507.92,-142.22 508.72,-131.66 501.51,-139.42 507.92,-142.22"/>
</g>
<!-- Node9&#45;&gt;Node7 -->
<g id="edge13" class="edge">
<title>Node9&#45;&gt;Node7</title>
<path fill="none" stroke="midnightblue" d="M526.79,-168.4C555.82,-158.24 594.58,-144.67 622.15,-135.02"/>
<polygon fill="midnightblue" stroke="midnightblue" points="623.48,-138.26 631.76,-131.66 621.17,-131.66 623.48,-138.26"/>
</g>
<!-- Node10&#45;&gt;Node6 -->
<g id="edge22" class="edge">
<title>Node10&#45;&gt;Node6</title>
<path fill="none" stroke="midnightblue" d="M232.35,-173.98C297.12,-162.19 412.86,-141.13 473.31,-130.13"/>
<polygon fill="midnightblue" stroke="midnightblue" points="474.01,-133.56 483.22,-128.33 472.76,-126.67 474.01,-133.56"/>
</g>
<!-- Node11 -->
<g id="node11" class="node">
<title>Node11</title>
<g id="a_node11"><a xlink:href="../../dc/dea/Uuid_8hpp.html" target="_top" xlink:title=" ">
<polygon fill="white" stroke="black" points="273,-112.5 273,-131.5 360,-131.5 360,-112.5 273,-112.5"/>
<text text-anchor="middle" x="316.5" y="-119.5" font-family="Helvetica,sans-Serif" font-size="10.00">tools/Uuid.hpp</text>
</a>
</g>
</g>
<!-- Node10&#45;&gt;Node11 -->
<g id="edge15" class="edge">
<title>Node10&#45;&gt;Node11</title>
<path fill="none" stroke="midnightblue" d="M204.27,-173.98C226.35,-163.95 263.22,-147.2 288.64,-135.65"/>
<polygon fill="midnightblue" stroke="midnightblue" points="290.11,-138.83 297.77,-131.51 287.21,-132.46 290.11,-138.83"/>
</g>
<!-- Node12 -->
<g id="node12" class="node">
<title>Node12</title>
<g id="a_node12"><a xlink:title=" ">
<polygon fill="white" stroke="#bfbfbf" points="375,-56.5 375,-75.5 500,-75.5 500,-56.5 375,-56.5"/>
<text text-anchor="middle" x="437.5" y="-63.5" font-family="Helvetica,sans-Serif" font-size="10.00">boost/lexical_cast.hpp</text>
</a>
</g>
</g>
<!-- Node11&#45;&gt;Node12 -->
<g id="edge16" class="edge">
<title>Node11&#45;&gt;Node12</title>
<path fill="none" stroke="midnightblue" d="M335.67,-112.44C355.41,-103.64 386.39,-89.81 408.99,-79.72"/>
<polygon fill="midnightblue" stroke="midnightblue" points="410.71,-82.79 418.42,-75.52 407.86,-76.4 410.71,-82.79"/>
</g>
<!-- Node13 -->
<g id="node13" class="node">
<title>Node13</title>
<g id="a_node13"><a xlink:title=" ">
<polygon fill="white" stroke="#bfbfbf" points="557,-56.5 557,-75.5 738,-75.5 738,-56.5 557,-56.5"/>
<text text-anchor="middle" x="647.5" y="-63.5" font-family="Helvetica,sans-Serif" font-size="10.00">boost/uuid/random_generator.hpp</text>
</a>
</g>
</g>
<!-- Node11&#45;&gt;Node13 -->
<g id="edge17" class="edge">
<title>Node11&#45;&gt;Node13</title>
<path fill="none" stroke="midnightblue" d="M360.11,-113.88C417.68,-104.49 519.41,-87.9 585.11,-77.18"/>
<polygon fill="midnightblue" stroke="midnightblue" points="586.03,-80.58 595.33,-75.51 584.9,-73.67 586.03,-80.58"/>
</g>
<!-- Node14 -->
<g id="node14" class="node">
<title>Node14</title>
<g id="a_node14"><a xlink:title=" ">
<polygon fill="white" stroke="#bfbfbf" points="0,-56.5 0,-75.5 113,-75.5 113,-56.5 0,-56.5"/>
<text text-anchor="middle" x="56.5" y="-63.5" font-family="Helvetica,sans-Serif" font-size="10.00">boost/uuid/uuid.hpp</text>
</a>
</g>
</g>
<!-- Node11&#45;&gt;Node14 -->
<g id="edge18" class="edge">
<title>Node11&#45;&gt;Node14</title>
<path fill="none" stroke="midnightblue" d="M275.3,-112.44C229.85,-103 156.66,-87.8 107.59,-77.61"/>
<polygon fill="midnightblue" stroke="midnightblue" points="108.01,-74.12 97.51,-75.52 106.58,-80.98 108.01,-74.12"/>
</g>
<!-- Node15 -->
<g id="node15" class="node">
<title>Node15</title>
<g id="a_node15"><a xlink:title=" ">
<polygon fill="white" stroke="#bfbfbf" points="131,-56.5 131,-75.5 258,-75.5 258,-56.5 131,-56.5"/>
<text text-anchor="middle" x="194.5" y="-63.5" font-family="Helvetica,sans-Serif" font-size="10.00">boost/uuid/uuid_io.hpp</text>
</a>
</g>
</g>
<!-- Node11&#45;&gt;Node15 -->
<g id="edge19" class="edge">
<title>Node11&#45;&gt;Node15</title>
<path fill="none" stroke="midnightblue" d="M297.17,-112.44C277.18,-103.6 245.76,-89.69 222.94,-79.59"/>
<polygon fill="midnightblue" stroke="midnightblue" points="224.3,-76.36 213.74,-75.52 221.47,-82.76 224.3,-76.36"/>
</g>
<!-- Node16 -->
<g id="node16" class="node">
<title>Node16</title>
<g id="a_node16"><a xlink:title=" ">
<polygon fill="white" stroke="#bfbfbf" points="276.5,-56.5 276.5,-75.5 356.5,-75.5 356.5,-56.5 276.5,-56.5"/>
<text text-anchor="middle" x="316.5" y="-63.5" font-family="Helvetica,sans-Serif" font-size="10.00">odb/core.hxx</text>
</a>
</g>
</g>
<!-- Node11&#45;&gt;Node16 -->
<g id="edge20" class="edge">
<title>Node11&#45;&gt;Node16</title>
<path fill="none" stroke="midnightblue" d="M316.5,-112.08C316.5,-105.01 316.5,-94.86 316.5,-85.99"/>
<polygon fill="midnightblue" stroke="midnightblue" points="320,-85.75 316.5,-75.75 313,-85.75 320,-85.75"/>
</g>
<!-- Node17 -->
<g id="node17" class="node">
<title>Node17</title>
<g id="a_node17"><a xlink:title=" ">
<polygon fill="white" stroke="#bfbfbf" points="1533.5,-0.5 1533.5,-19.5 1577.5,-19.5 1577.5,-0.5 1533.5,-0.5"/>
<text text-anchor="middle" x="1555.5" y="-7.5" font-family="Helvetica,sans-Serif" font-size="10.00">string</text>
</a>
</g>
</g>
<!-- Node11&#45;&gt;Node17 -->
<g id="edge21" class="edge">
<title>Node11&#45;&gt;Node17</title>
<path fill="none" stroke="midnightblue" d="M360.31,-113.95C400.02,-106.82 459.75,-94.24 509.5,-76 527.79,-69.29 529.67,-60.99 548.5,-56 644.4,-30.56 1360.69,-14.88 1522.9,-11.63"/>
<polygon fill="midnightblue" stroke="midnightblue" points="1523.27,-15.12 1533.19,-11.43 1523.13,-8.13 1523.27,-15.12"/>
</g>
<!-- Node18&#45;&gt;Node6 -->
<g id="edge24" class="edge">
<title>Node18&#45;&gt;Node6</title>
<path fill="none" stroke="midnightblue" d="M616.16,-173.98C595.95,-164.03 562.31,-147.49 538.86,-135.96"/>
<polygon fill="midnightblue" stroke="midnightblue" points="540.32,-132.78 529.8,-131.51 537.23,-139.06 540.32,-132.78"/>
</g>
<!-- Node18&#45;&gt;Node7 -->
<g id="edge25" class="edge">
<title>Node18&#45;&gt;Node7</title>
<path fill="none" stroke="midnightblue" d="M636.8,-173.98C640.11,-165.4 645.32,-151.93 649.55,-140.98"/>
<polygon fill="midnightblue" stroke="midnightblue" points="652.87,-142.1 653.21,-131.51 646.34,-139.57 652.87,-142.1"/>
</g>
<!-- Node19&#45;&gt;Node6 -->
<g id="edge27" class="edge">
<title>Node19&#45;&gt;Node6</title>
<path fill="none" stroke="midnightblue" d="M362.57,-173.98C392.85,-163.68 443.94,-146.31 477.94,-134.75"/>
<polygon fill="midnightblue" stroke="midnightblue" points="479.13,-138.04 487.47,-131.51 476.88,-131.41 479.13,-138.04"/>
</g>
<!-- Node21 -->
<g id="node21" class="node">
<title>Node21</title>
<g id="a_node21"><a xlink:href="../../d1/ddd/leosacexception_8hpp.html" target="_top" xlink:title="Exception class for LEOSAC Project related errors.">
<polygon fill="white" stroke="black" points="1386.5,-174 1386.5,-193 1554.5,-193 1554.5,-174 1386.5,-174"/>
<text text-anchor="middle" x="1470.5" y="-181" font-family="Helvetica,sans-Serif" font-size="10.00">exception/leosacexception.hpp</text>
</a>
</g>
</g>
<!-- Node20&#45;&gt;Node21 -->
<g id="edge29" class="edge">
<title>Node20&#45;&gt;Node21</title>
<path fill="none" stroke="midnightblue" d="M1187.78,-235.48C1247.33,-224.74 1349.56,-206.31 1413.4,-194.79"/>
<polygon fill="midnightblue" stroke="midnightblue" points="1414.09,-198.23 1423.31,-193.01 1412.84,-191.34 1414.09,-198.23"/>
</g>
<!-- Node21&#45;&gt;Node4 -->
<g id="edge33" class="edge">
<title>Node21&#45;&gt;Node4</title>
<path fill="none" stroke="midnightblue" d="M1386.5,-180.64C1262.1,-176.89 1021.56,-165.77 808.27,-131.82"/>
<polygon fill="midnightblue" stroke="midnightblue" points="808.56,-128.33 798.13,-130.19 807.45,-135.24 808.56,-128.33"/>
</g>
<!-- Node21&#45;&gt;Node17 -->
<g id="edge35" class="edge">
<title>Node21&#45;&gt;Node17</title>
<path fill="none" stroke="midnightblue" d="M1386.41,-180.65C1243.37,-176.62 965.21,-164.65 935.5,-132 929.52,-125.43 929.77,-118.8 935.5,-112 1012.03,-21.25 1406.77,-11.81 1523.16,-11.01"/>
<polygon fill="midnightblue" stroke="midnightblue" points="1523.25,-14.51 1533.23,-10.96 1523.22,-7.51 1523.25,-14.51"/>
</g>
<!-- Node22 -->
<g id="node22" class="node">
<title>Node22</title>
<g id="a_node22"><a xlink:href="../../d6/d2f/Stacktrace_8hpp.html" target="_top" xlink:title=" ">
<polygon fill="white" stroke="black" points="1536.5,-112.5 1536.5,-131.5 1652.5,-131.5 1652.5,-112.5 1536.5,-112.5"/>
<text text-anchor="middle" x="1594.5" y="-119.5" font-family="Helvetica,sans-Serif" font-size="10.00">tools/Stacktrace.hpp</text>
</a>
</g>
</g>
<!-- Node21&#45;&gt;Node22 -->
<g id="edge30" class="edge">
<title>Node21&#45;&gt;Node22</title>
<path fill="none" stroke="midnightblue" d="M1488.27,-173.98C1508.98,-164.03 1543.45,-147.49 1567.49,-135.96"/>
<polygon fill="midnightblue" stroke="midnightblue" points="1569.27,-138.99 1576.77,-131.51 1566.24,-132.68 1569.27,-138.99"/>
</g>
<!-- Node24 -->
<g id="node24" class="node">
<title>Node24</title>
<g id="a_node24"><a xlink:title=" ">
<polygon fill="white" stroke="#bfbfbf" points="944,-112.5 944,-131.5 1009,-131.5 1009,-112.5 944,-112.5"/>
<text text-anchor="middle" x="976.5" y="-119.5" font-family="Helvetica,sans-Serif" font-size="10.00">exception</text>
</a>
</g>
</g>
<!-- Node21&#45;&gt;Node24 -->
<g id="edge34" class="edge">
<title>Node21&#45;&gt;Node24</title>
<path fill="none" stroke="midnightblue" d="M1386.44,-175.64C1297.64,-167.81 1153.38,-153.47 1019.49,-132.01"/>
<polygon fill="midnightblue" stroke="midnightblue" points="1019.89,-128.53 1009.46,-130.39 1018.77,-135.44 1019.89,-128.53"/>
</g>
<!-- Node25 -->
<g id="node25" class="node">
<title>Node25</title>
<g id="a_node25"><a xlink:href="../../d7/d7a/configexception_8hpp.html" target="_top" xlink:title=" ">
<polygon fill="white" stroke="black" points="2201,-112.5 2201,-131.5 2316,-131.5 2316,-112.5 2201,-112.5"/>
<text text-anchor="middle" x="2258.5" y="-119.5" font-family="Helvetica,sans-Serif" font-size="10.00">configexception.hpp</text>
</a>
</g>
</g>
<!-- Node21&#45;&gt;Node25 -->
<g id="edge36" class="edge">
<title>Node21&#45;&gt;Node25</title>
<path fill="none" stroke="midnightblue" d="M1554.64,-178.11C1688.17,-171.01 1956.48,-155.39 2183.5,-132 2185.88,-131.75 2188.3,-131.49 2190.75,-131.21"/>
<polygon fill="midnightblue" stroke="midnightblue" points="2191.43,-134.66 2200.95,-130 2190.6,-127.71 2191.43,-134.66"/>
</g>
<!-- Node28 -->
<g id="node28" class="node">
<title>Node28</title>
<g id="a_node28"><a xlink:href="../../d8/db0/coreexception_8hpp.html" target="_top" xlink:title="Exception class for Core related errors.">
<polygon fill="white" stroke="black" points="1027,-112.5 1027,-131.5 1134,-131.5 1134,-112.5 1027,-112.5"/>
<text text-anchor="middle" x="1080.5" y="-119.5" font-family="Helvetica,sans-Serif" font-size="10.00">coreexception.hpp</text>
</a>
</g>
</g>
<!-- Node21&#45;&gt;Node28 -->
<g id="edge42" class="edge">
<title>Node21&#45;&gt;Node28</title>
<path fill="none" stroke="midnightblue" d="M1409.72,-173.98C1336.56,-163.17 1214.58,-144.58 1141.37,-133.08"/>
<polygon fill="midnightblue" stroke="midnightblue" points="1141.8,-129.61 1131.38,-131.51 1140.71,-136.52 1141.8,-129.61"/>
</g>
<!-- Node29 -->
<g id="node29" class="node">
<title>Node29</title>
<g id="a_node29"><a xlink:href="../../d8/d77/deviceexception_8hpp.html" target="_top" xlink:title="Exception class for Device related errors.">
<polygon fill="white" stroke="black" points="1152.5,-112.5 1152.5,-131.5 1270.5,-131.5 1270.5,-112.5 1152.5,-112.5"/>
<text text-anchor="middle" x="1211.5" y="-119.5" font-family="Helvetica,sans-Serif" font-size="10.00">deviceexception.hpp</text>
</a>
</g>
</g>
<!-- Node21&#45;&gt;Node29 -->
<g id="edge45" class="edge">
<title>Node21&#45;&gt;Node29</title>
<path fill="none" stroke="midnightblue" d="M1428.49,-173.98C1380.22,-163.42 1301.7,-145.41 1253.46,-133.87"/>
<polygon fill="midnightblue" stroke="midnightblue" points="1254.18,-130.44 1243.64,-131.51 1252.55,-137.25 1254.18,-130.44"/>
</g>
<!-- Node30 -->
<g id="node30" class="node">
<title>Node30</title>
<g id="a_node30"><a xlink:href="../../db/d35/dynlibexception_8hpp.html" target="_top" xlink:title="Exception class for DynLib related errors.">
<polygon fill="white" stroke="black" points="1288.5,-112.5 1288.5,-131.5 1404.5,-131.5 1404.5,-112.5 1288.5,-112.5"/>
<text text-anchor="middle" x="1346.5" y="-119.5" font-family="Helvetica,sans-Serif" font-size="10.00">dynlibexception.hpp</text>
</a>
</g>
</g>
<!-- Node21&#45;&gt;Node30 -->
<g id="edge48" class="edge">
<title>Node21&#45;&gt;Node30</title>
<path fill="none" stroke="midnightblue" d="M1447.83,-173.98C1425.15,-164.12 1390.83,-147.79 1368.43,-136.27"/>
<polygon fill="midnightblue" stroke="midnightblue" points="1369.82,-133.05 1359.34,-131.51 1366.57,-139.25 1369.82,-133.05"/>
</g>
<!-- Node31 -->
<g id="node31" class="node">
<title>Node31</title>
<g id="a_node31"><a xlink:href="../../d0/d4e/fsexception_8hpp.html" target="_top" xlink:title="Exception class for filesystem related errors.">
<polygon fill="white" stroke="black" points="1423,-112.5 1423,-131.5 1518,-131.5 1518,-112.5 1423,-112.5"/>
<text text-anchor="middle" x="1470.5" y="-119.5" font-family="Helvetica,sans-Serif" font-size="10.00">fsexception.hpp</text>
</a>
</g>
</g>
<!-- Node21&#45;&gt;Node31 -->
<g id="edge51" class="edge">
<title>Node21&#45;&gt;Node31</title>
<path fill="none" stroke="midnightblue" d="M1465.6,-173.98C1463.77,-165.58 1463.3,-152.48 1464.19,-141.66"/>
<polygon fill="midnightblue" stroke="midnightblue" points="1467.69,-141.9 1465.6,-131.51 1460.75,-140.93 1467.69,-141.9"/>
</g>
<!-- Node32 -->
<g id="node32" class="node">
<title>Node32</title>
<g id="a_node32"><a xlink:href="../../d1/d8e/gpioexception_8hpp.html" target="_top" xlink:title="Exception class for Gpio related errors.">
<polygon fill="white" stroke="black" points="1671,-112.5 1671,-131.5 1778,-131.5 1778,-112.5 1671,-112.5"/>
<text text-anchor="middle" x="1724.5" y="-119.5" font-family="Helvetica,sans-Serif" font-size="10.00">gpioexception.hpp</text>
</a>
</g>
</g>
<!-- Node21&#45;&gt;Node32 -->
<g id="edge54" class="edge">
<title>Node21&#45;&gt;Node32</title>
<path fill="none" stroke="midnightblue" d="M1501.99,-173.98C1544.95,-163.37 1622.12,-145.26 1673.39,-133.72"/>
<polygon fill="midnightblue" stroke="midnightblue" points="1674.29,-137.11 1683.28,-131.51 1672.76,-130.28 1674.29,-137.11"/>
</g>
<!-- Node33 -->
<g id="node33" class="node">
<title>Node33</title>
<g id="a_node33"><a xlink:href="../../d7/d8c/moduleexception_8hpp.html" target="_top" xlink:title="Exception class for modules.">
<polygon fill="white" stroke="black" points="1796.5,-112.5 1796.5,-131.5 1918.5,-131.5 1918.5,-112.5 1796.5,-112.5"/>
<text text-anchor="middle" x="1857.5" y="-119.5" font-family="Helvetica,sans-Serif" font-size="10.00">moduleexception.hpp</text>
</a>
</g>
</g>
<!-- Node21&#45;&gt;Node33 -->
<g id="edge57" class="edge">
<title>Node21&#45;&gt;Node33</title>
<path fill="none" stroke="midnightblue" d="M1521.05,-173.98C1589.09,-163.15 1710.28,-144.5 1787.18,-133.01"/>
<polygon fill="midnightblue" stroke="midnightblue" points="1787.88,-136.45 1797.26,-131.51 1786.85,-129.52 1787.88,-136.45"/>
</g>
<!-- Node34 -->
<g id="node34" class="node">
<title>Node34</title>
<g id="a_node34"><a xlink:href="../../df/d8d/scriptexception_8hpp.html" target="_top" xlink:title="Exception class for Script related errors.">
<polygon fill="white" stroke="black" points="1937,-112.5 1937,-131.5 2050,-131.5 2050,-112.5 1937,-112.5"/>
<text text-anchor="middle" x="1993.5" y="-119.5" font-family="Helvetica,sans-Serif" font-size="10.00">scriptexception.hpp</text>
</a>
</g>
</g>
<!-- Node21&#45;&gt;Node34 -->
<g id="edge60" class="edge">
<title>Node21&#45;&gt;Node34</title>
<path fill="none" stroke="midnightblue" d="M1546.95,-173.97C1636.18,-164.4 1787.98,-148.11 1918.5,-132 1921.15,-131.67 1923.86,-131.33 1926.61,-130.98"/>
<polygon fill="midnightblue" stroke="midnightblue" points="1927.18,-134.44 1936.65,-129.68 1926.28,-127.49 1927.18,-134.44"/>
</g>
<!-- Node35 -->
<g id="node35" class="node">
<title>Node35</title>
<g id="a_node35"><a xlink:href="../../dc/dce/signalexception_8hpp.html" target="_top" xlink:title="Exception class for Signal related errors.">
<polygon fill="white" stroke="black" points="2068,-112.5 2068,-131.5 2183,-131.5 2183,-112.5 2068,-112.5"/>
<text text-anchor="middle" x="2125.5" y="-119.5" font-family="Helvetica,sans-Serif" font-size="10.00">signalexception.hpp</text>
</a>
</g>
</g>
<!-- Node21&#45;&gt;Node35 -->
<g id="edge63" class="edge">
<title>Node21&#45;&gt;Node35</title>
<path fill="none" stroke="midnightblue" d="M1554.71,-176.16C1667.68,-167.72 1874.28,-151.56 2050.5,-132 2052.88,-131.74 2055.3,-131.46 2057.75,-131.16"/>
<polygon fill="midnightblue" stroke="midnightblue" points="2058.44,-134.61 2067.94,-129.91 2057.59,-127.66 2058.44,-134.61"/>
</g>
<!-- Node22&#45;&gt;Node17 -->
<g id="edge31" class="edge">
<title>Node22&#45;&gt;Node17</title>
<path fill="none" stroke="midnightblue" d="M1590.6,-112.48C1586.56,-103.5 1580.2,-88.91 1575.5,-76 1569.82,-60.4 1564.35,-42.32 1560.57,-29.2"/>
<polygon fill="midnightblue" stroke="midnightblue" points="1563.91,-28.17 1557.82,-19.5 1557.18,-30.08 1563.91,-28.17"/>
</g>
<!-- Node23 -->
<g id="node23" class="node">
<title>Node23</title>
<g id="a_node23"><a xlink:title=" ">
<polygon fill="white" stroke="#bfbfbf" points="1584,-56.5 1584,-75.5 1631,-75.5 1631,-56.5 1584,-56.5"/>
<text text-anchor="middle" x="1607.5" y="-63.5" font-family="Helvetica,sans-Serif" font-size="10.00">vector</text>
</a>
</g>
</g>
<!-- Node22&#45;&gt;Node23 -->
<g id="edge32" class="edge">
<title>Node22&#45;&gt;Node23</title>
<path fill="none" stroke="midnightblue" d="M1596.65,-112.08C1598.37,-104.93 1600.85,-94.64 1603,-85.69"/>
<polygon fill="midnightblue" stroke="midnightblue" points="1606.46,-86.29 1605.39,-75.75 1599.65,-84.65 1606.46,-86.29"/>
</g>
<!-- Node25&#45;&gt;Node17 -->
<g id="edge41" class="edge">
<title>Node25&#45;&gt;Node17</title>
<path fill="none" stroke="midnightblue" d="M2206.55,-112.47C2129.66,-99.88 1981.03,-75.7 1854.5,-56 1757.49,-40.9 1642.63,-23.84 1587.79,-15.75"/>
<polygon fill="midnightblue" stroke="midnightblue" points="1588.05,-12.25 1577.64,-14.25 1587.03,-19.18 1588.05,-12.25"/>
</g>
<!-- Node25&#45;&gt;Node21 -->
<g id="edge37" class="edge">
<title>Node25&#45;&gt;Node21</title>
<path fill="none" stroke="midnightblue" d="M2206.03,-131.52C2204.51,-131.68 2203,-131.85 2201.5,-132 1973.78,-155.46 1704.5,-171.11 1564.91,-178.18"/>
<polygon fill="midnightblue" stroke="midnightblue" points="1564.49,-174.7 1554.68,-178.69 1564.84,-181.69 1564.49,-174.7"/>
</g>
<!-- Node26 -->
<g id="node26" class="node">
<title>Node26</title>
<g id="a_node26"><a xlink:href="../../dd/d35/Colorize_8hpp.html" target="_top" xlink:title=" ">
<polygon fill="white" stroke="black" points="2193.5,-56.5 2193.5,-75.5 2297.5,-75.5 2297.5,-56.5 2193.5,-56.5"/>
<text text-anchor="middle" x="2245.5" y="-63.5" font-family="Helvetica,sans-Serif" font-size="10.00">tools/Colorize.hpp</text>
</a>
</g>
</g>
<!-- Node25&#45;&gt;Node26 -->
<g id="edge38" class="edge">
<title>Node25&#45;&gt;Node26</title>
<path fill="none" stroke="midnightblue" d="M2256.35,-112.08C2254.63,-104.93 2252.15,-94.64 2250,-85.69"/>
<polygon fill="midnightblue" stroke="midnightblue" points="2253.35,-84.65 2247.61,-75.75 2246.54,-86.29 2253.35,-84.65"/>
</g>
<!-- Node26&#45;&gt;Node17 -->
<g id="edge40" class="edge">
<title>Node26&#45;&gt;Node17</title>
<path fill="none" stroke="midnightblue" d="M2193.46,-59.7C2180.42,-58.43 2166.45,-57.12 2153.5,-56 1937.46,-37.31 1677.11,-19.24 1587.57,-13.16"/>
<polygon fill="midnightblue" stroke="midnightblue" points="1587.72,-9.66 1577.51,-12.48 1587.25,-16.65 1587.72,-9.66"/>
</g>
<!-- Node27 -->
<g id="node27" class="node">
<title>Node27</title>
<g id="a_node27"><a xlink:title=" ">
<polygon fill="white" stroke="#bfbfbf" points="2217.5,-0.5 2217.5,-19.5 2273.5,-19.5 2273.5,-0.5 2217.5,-0.5"/>
<text text-anchor="middle" x="2245.5" y="-7.5" font-family="Helvetica,sans-Serif" font-size="10.00">sstream</text>
</a>
</g>
</g>
<!-- Node26&#45;&gt;Node27 -->
<g id="edge39" class="edge">
<title>Node26&#45;&gt;Node27</title>
<path fill="none" stroke="midnightblue" d="M2245.5,-56.08C2245.5,-49.01 2245.5,-38.86 2245.5,-29.99"/>
<polygon fill="midnightblue" stroke="midnightblue" points="2249,-29.75 2245.5,-19.75 2242,-29.75 2249,-29.75"/>
</g>
<!-- Node28&#45;&gt;Node17 -->
<g id="edge43" class="edge">
<title>Node28&#45;&gt;Node17</title>
<path fill="none" stroke="midnightblue" d="M1114.71,-112.43C1165.59,-99.74 1264.28,-75.36 1348.5,-56 1410.32,-41.79 1482.81,-26.3 1523.52,-17.7"/>
<polygon fill="midnightblue" stroke="midnightblue" points="1524.34,-21.11 1533.4,-15.62 1522.9,-14.26 1524.34,-21.11"/>
</g>
<!-- Node28&#45;&gt;Node21 -->
<g id="edge44" class="edge">
<title>Node28&#45;&gt;Node21</title>
<path fill="none" stroke="midnightblue" d="M1134.15,-130.47C1206.15,-141.06 1333.51,-160.47 1409.2,-172.35"/>
<polygon fill="midnightblue" stroke="midnightblue" points="1409.1,-175.88 1419.52,-173.98 1410.19,-168.96 1409.1,-175.88"/>
</g>
<!-- Node29&#45;&gt;Node17 -->
<g id="edge46" class="edge">
<title>Node29&#45;&gt;Node17</title>
<path fill="none" stroke="midnightblue" d="M1238.21,-112.46C1300.67,-92.49 1456.09,-42.79 1523.49,-21.24"/>
<polygon fill="midnightblue" stroke="midnightblue" points="1524.69,-24.53 1533.14,-18.15 1522.55,-17.86 1524.69,-24.53"/>
</g>
<!-- Node29&#45;&gt;Node21 -->
<g id="edge47" class="edge">
<title>Node29&#45;&gt;Node21</title>
<path fill="none" stroke="midnightblue" d="M1253.44,-131.51C1301.68,-142.06 1380.2,-160.07 1428.47,-171.61"/>
<polygon fill="midnightblue" stroke="midnightblue" points="1427.75,-175.04 1438.29,-173.98 1429.39,-168.23 1427.75,-175.04"/>
</g>
<!-- Node30&#45;&gt;Node17 -->
<g id="edge49" class="edge">
<title>Node30&#45;&gt;Node17</title>
<path fill="none" stroke="midnightblue" d="M1362.9,-112.37C1399.22,-93.25 1486.66,-47.23 1530.11,-24.36"/>
<polygon fill="midnightblue" stroke="midnightblue" points="1531.96,-27.35 1539.18,-19.59 1528.7,-21.15 1531.96,-27.35"/>
</g>
<!-- Node30&#45;&gt;Node21 -->
<g id="edge50" class="edge">
<title>Node30&#45;&gt;Node21</title>
<path fill="none" stroke="midnightblue" d="M1369.13,-131.51C1391.8,-141.36 1426.12,-157.69 1448.54,-169.21"/>
<polygon fill="midnightblue" stroke="midnightblue" points="1447.15,-172.44 1457.63,-173.98 1450.4,-166.24 1447.15,-172.44"/>
</g>
<!-- Node31&#45;&gt;Node17 -->
<g id="edge52" class="edge">
<title>Node31&#45;&gt;Node17</title>
<path fill="none" stroke="midnightblue" d="M1477.17,-112.37C1491.26,-94.14 1524.26,-51.43 1542.61,-27.68"/>
<polygon fill="midnightblue" stroke="midnightblue" points="1545.52,-29.64 1548.86,-19.59 1539.98,-25.36 1545.52,-29.64"/>
</g>
<!-- Node31&#45;&gt;Node21 -->
<g id="edge53" class="edge">
<title>Node31&#45;&gt;Node21</title>
<path fill="none" stroke="midnightblue" d="M1475.4,-131.51C1477.23,-139.9 1477.7,-153 1476.82,-163.82"/>
<polygon fill="midnightblue" stroke="midnightblue" points="1473.31,-163.59 1475.4,-173.98 1480.25,-164.55 1473.31,-163.59"/>
</g>
<!-- Node32&#45;&gt;Node17 -->
<g id="edge56" class="edge">
<title>Node32&#45;&gt;Node17</title>
<path fill="none" stroke="midnightblue" d="M1714.57,-112.41C1699.26,-99.37 1668.7,-74.19 1640.5,-56 1622.08,-44.12 1600.21,-32.6 1583.26,-24.18"/>
<polygon fill="midnightblue" stroke="midnightblue" points="1584.44,-20.86 1573.92,-19.61 1581.36,-27.15 1584.44,-20.86"/>
</g>
<!-- Node32&#45;&gt;Node21 -->
<g id="edge55" class="edge">
<title>Node32&#45;&gt;Node21</title>
<path fill="none" stroke="midnightblue" d="M1693.07,-131.51C1650.15,-142.11 1572.99,-160.22 1521.69,-171.76"/>
<polygon fill="midnightblue" stroke="midnightblue" points="1520.79,-168.37 1511.79,-173.98 1522.32,-175.2 1520.79,-168.37"/>
</g>
<!-- Node33&#45;&gt;Node17 -->
<g id="edge58" class="edge">
<title>Node33&#45;&gt;Node17</title>
<path fill="none" stroke="midnightblue" d="M1833.8,-112.37C1779.93,-92.75 1648.23,-44.78 1587.34,-22.6"/>
<polygon fill="midnightblue" stroke="midnightblue" points="1588.45,-19.28 1577.85,-19.14 1586.05,-25.85 1588.45,-19.28"/>
</g>
<!-- Node33&#45;&gt;Node21 -->
<g id="edge59" class="edge">
<title>Node33&#45;&gt;Node21</title>
<path fill="none" stroke="midnightblue" d="M1807.05,-131.51C1739.06,-142.33 1617.87,-160.97 1540.93,-172.47"/>
<polygon fill="midnightblue" stroke="midnightblue" points="1540.22,-169.04 1530.85,-173.98 1541.26,-175.96 1540.22,-169.04"/>
</g>
<!-- Node34&#45;&gt;Node17 -->
<g id="edge61" class="edge">
<title>Node34&#45;&gt;Node17</title>
<path fill="none" stroke="midnightblue" d="M1959.5,-112.46C1877.17,-91.78 1668,-39.25 1587.63,-19.07"/>
<polygon fill="midnightblue" stroke="midnightblue" points="1588.16,-15.59 1577.61,-16.55 1586.45,-22.38 1588.16,-15.59"/>
</g>
<!-- Node34&#45;&gt;Node21 -->
<g id="edge62" class="edge">
<title>Node34&#45;&gt;Node21</title>
<path fill="none" stroke="midnightblue" d="M1940.32,-131.52C1939.04,-131.69 1937.76,-131.84 1936.5,-132 1808.09,-147.85 1659.07,-163.87 1564.74,-173.5"/>
<polygon fill="midnightblue" stroke="midnightblue" points="1564.25,-170.03 1554.65,-174.52 1564.96,-176.99 1564.25,-170.03"/>
</g>
<!-- Node35&#45;&gt;Node17 -->
<g id="edge64" class="edge">
<title>Node35&#45;&gt;Node17</title>
<path fill="none" stroke="midnightblue" d="M2081.25,-112.46C1970.57,-91.1 1683.74,-35.75 1587.51,-17.18"/>
<polygon fill="midnightblue" stroke="midnightblue" points="1587.99,-13.71 1577.51,-15.25 1586.67,-20.58 1587.99,-13.71"/>
</g>
<!-- Node35&#45;&gt;Node21 -->
<g id="edge65" class="edge">
<title>Node35&#45;&gt;Node21</title>
<path fill="none" stroke="midnightblue" d="M2072.68,-131.53C2071.27,-131.69 2069.88,-131.85 2068.5,-132 1891.08,-151.69 1682.86,-167.94 1564.76,-176.33"/>
<polygon fill="midnightblue" stroke="midnightblue" points="1564.4,-172.85 1554.67,-177.04 1564.89,-179.83 1564.4,-172.85"/>
</g>
</g>
</svg>
        <g id="navigator" transform="translate(0 0)" fill="#404254">
                <rect fill="#f2f5e9" fill-opacity="0.5" stroke="#606060" stroke-width=".5" x="0" y="0" width="60" height="60"/>
                <use id="zoomplus" xlink:href="#zoomPlus" x="17" y="9" onmousedown="handleZoom(evt,'in')"/>
                <use id="zoomminus" xlink:href="#zoomMin" x="42" y="9" onmousedown="handleZoom(evt,'out')"/>
                <use id="reset" xlink:href="#resetDef" x="30" y="36" onmousedown="handleReset()"/>
                <g id="arrowUp" xlink:href="#dirArrow" transform="translate(30 24)" onmousedown="handlePan(0,-1)">
                  <use xlink:href="#rim" fill="#404040">
                        <set attributeName="fill" to="#808080" begin="arrowUp.mouseover" end="arrowUp.mouseout"/>
                  </use>
                  <path fill="none" stroke="white" stroke-width="1.5" d="M0,-3.0v7 M-2.5,-0.5L0,-3.0L2.5,-0.5"/>
                </g>
                <g id="arrowRight" xlink:href="#dirArrow" transform="rotate(90) translate(36 -43)" onmousedown="handlePan(1,0)">
                  <use xlink:href="#rim" fill="#404040">
                        <set attributeName="fill" to="#808080" begin="arrowRight.mouseover" end="arrowRight.mouseout"/>
                  </use>
                  <path fill="none" stroke="white" stroke-width="1.5" d="M0,-3.0v7 M-2.5,-0.5L0,-3.0L2.5,-0.5"/>
                </g>
                <g id="arrowDown" xlink:href="#dirArrow" transform="rotate(180) translate(-30 -48)" onmousedown="handlePan(0,1)">
                  <use xlink:href="#rim" fill="#404040">
                        <set attributeName="fill" to="#808080" begin="arrowDown.mouseover" end="arrowDown.mouseout"/>
                  </use>
                  <path fill="none" stroke="white" stroke-width="1.5" d="M0,-3.0v7 M-2.5,-0.5L0,-3.0L2.5,-0.5"/>
                </g>
                <g id="arrowLeft" xlink:href="#dirArrow" transform="rotate(270) translate(-36 17)" onmousedown="handlePan(-1,0)">
                  <use xlink:href="#rim" fill="#404040">
                        <set attributeName="fill" to="#808080" begin="arrowLeft.mouseover" end="arrowLeft.mouseout"/>
                  </use>
                  <path fill="none" stroke="white" stroke-width="1.5" d="M0,-3.0v7 M-2.5,-0.5L0,-3.0L2.5,-0.5"/>
                </g>
        </g>
        <svg viewBox="0 0 15 15" width="100%" height="30px" preserveAspectRatio="xMaxYMin meet">
         <g id="arrow_out" transform="scale(0.3 0.3)">
          <a xlink:href="SecurityContext_8cpp__incl_org.svg" target="_base">
           <rect id="button" ry="5" rx="5" y="6" x="6" height="38" width="38"
                fill="#f2f5e9" fill-opacity="0.5" stroke="#606060" stroke-width="1.0"/>
           <path id="arrow"
             d="M 11.500037,31.436501 C 11.940474,20.09759 22.043105,11.32322 32.158766,21.979434 L 37.068811,17.246167 C 37.068811,17.246167 37.088388,32 37.088388,32 L 22.160133,31.978069 C 22.160133,31.978069 26.997745,27.140456 26.997745,27.140456 C 18.528582,18.264221 13.291696,25.230495 11.500037,31.436501 z"
             style="fill:#404040;"/>
          </a>
         </g>
        </svg>
</svg>
