<?xml version="1.0" encoding="UTF-8" standalone="no"?>
<!DOCTYPE svg PUBLIC "-//W3C//DTD SVG 1.1//EN"
 "http://www.w3.org/Graphics/SVG/1.1/DTD/svg11.dtd">
<!-- Generated by graphviz version 2.43.0 (0)
 -->
<!-- Title: src/core/audit/serializers/ScheduleEventSerializer.cpp Pages: 1 -->
<svg width="2035pt" height="330pt"
 viewBox="0.00 0.00 2034.50 330.00" xmlns="http://www.w3.org/2000/svg" xmlns:xlink="http://www.w3.org/1999/xlink">
<g id="graph0" class="graph" transform="scale(1 1) rotate(0) translate(4 326)">
<title>src/core/audit/serializers/ScheduleEventSerializer.cpp</title>
<polygon fill="white" stroke="transparent" points="-4,4 -4,-326 2030.5,-326 2030.5,4 -4,4"/>
<!-- Node1 -->
<g id="node1" class="node">
<title>Node1</title>
<g id="a_node1"><a xlink:title=" ">
<polygon fill="#bfbfbf" stroke="black" points="1290,-291.5 1290,-321.5 1447,-321.5 1447,-291.5 1290,-291.5"/>
<text text-anchor="start" x="1298" y="-309.5" font-family="Helvetica,sans-Serif" font-size="10.00">src/core/audit/serializers</text>
<text text-anchor="middle" x="1368.5" y="-298.5" font-family="Helvetica,sans-Serif" font-size="10.00">/ScheduleEventSerializer.cpp</text>
</a>
</g>
</g>
<!-- Node2 -->
<g id="node2" class="node">
<title>Node2</title>
<g id="a_node2"><a xlink:href="../../da/d6e/ScheduleEventSerializer_8hpp.html" target="_top" xlink:title=" ">
<polygon fill="white" stroke="black" points="1291,-179.5 1291,-198.5 1446,-198.5 1446,-179.5 1291,-179.5"/>
<text text-anchor="middle" x="1368.5" y="-186.5" font-family="Helvetica,sans-Serif" font-size="10.00">ScheduleEventSerializer.hpp</text>
</a>
</g>
</g>
<!-- Node1&#45;&gt;Node2 -->
<g id="edge1" class="edge">
<title>Node1&#45;&gt;Node2</title>
<path fill="none" stroke="midnightblue" d="M1368.5,-291.34C1368.5,-270.62 1368.5,-232.02 1368.5,-208.9"/>
<polygon fill="midnightblue" stroke="midnightblue" points="1372,-208.67 1368.5,-198.67 1365,-208.67 1372,-208.67"/>
</g>
<!-- Node12 -->
<g id="node12" class="node">
<title>Node12</title>
<g id="a_node12"><a xlink:href="../../df/da3/AuditSerializer_8hpp.html" target="_top" xlink:title=" ">
<polygon fill="white" stroke="black" points="1464.5,-179.5 1464.5,-198.5 1572.5,-198.5 1572.5,-179.5 1464.5,-179.5"/>
<text text-anchor="middle" x="1518.5" y="-186.5" font-family="Helvetica,sans-Serif" font-size="10.00">AuditSerializer.hpp</text>
</a>
</g>
</g>
<!-- Node1&#45;&gt;Node12 -->
<g id="edge12" class="edge">
<title>Node1&#45;&gt;Node12</title>
<path fill="none" stroke="midnightblue" d="M1386.89,-291.34C1415.39,-269.39 1469.97,-227.37 1499.08,-204.95"/>
<polygon fill="midnightblue" stroke="midnightblue" points="1501.45,-207.54 1507.24,-198.67 1497.18,-202 1501.45,-207.54"/>
</g>
<!-- Node13 -->
<g id="node13" class="node">
<title>Node13</title>
<g id="a_node13"><a xlink:href="../../d1/d3e/SecurityContext_8hpp.html" target="_top" xlink:title=" ">
<polygon fill="white" stroke="black" points="602.5,-179.5 602.5,-198.5 742.5,-198.5 742.5,-179.5 602.5,-179.5"/>
<text text-anchor="middle" x="672.5" y="-186.5" font-family="Helvetica,sans-Serif" font-size="10.00">core/SecurityContext.hpp</text>
</a>
</g>
</g>
<!-- Node1&#45;&gt;Node13 -->
<g id="edge17" class="edge">
<title>Node1&#45;&gt;Node13</title>
<path fill="none" stroke="midnightblue" d="M1320.71,-291.36C1265.14,-275.43 1170.43,-249.83 1087.5,-235 971.99,-214.35 836.58,-201.82 752.65,-195.4"/>
<polygon fill="midnightblue" stroke="midnightblue" points="752.91,-191.91 742.68,-194.65 752.38,-198.89 752.91,-191.91"/>
</g>
<!-- Node25 -->
<g id="node25" class="node">
<title>Node25</title>
<g id="a_node25"><a xlink:href="../../d4/dcb/IScheduleEvent_8hpp.html" target="_top" xlink:title=" ">
<polygon fill="white" stroke="black" points="914.5,-235.5 914.5,-254.5 1078.5,-254.5 1078.5,-235.5 914.5,-235.5"/>
<text text-anchor="middle" x="996.5" y="-242.5" font-family="Helvetica,sans-Serif" font-size="10.00">core/audit/IScheduleEvent.hpp</text>
</a>
</g>
</g>
<!-- Node1&#45;&gt;Node25 -->
<g id="edge40" class="edge">
<title>Node1&#45;&gt;Node25</title>
<path fill="none" stroke="midnightblue" d="M1289.61,-292.88C1221.08,-281.92 1123.13,-266.25 1059.67,-256.1"/>
<polygon fill="midnightblue" stroke="midnightblue" points="1060.22,-252.65 1049.79,-254.52 1059.11,-259.56 1060.22,-252.65"/>
</g>
<!-- Node32 -->
<g id="node32" class="node">
<title>Node32</title>
<g id="a_node32"><a xlink:href="../../d4/d3d/log_8hpp.html" target="_top" xlink:title=" ">
<polygon fill="white" stroke="black" points="1696.5,-118 1696.5,-137 1776.5,-137 1776.5,-118 1696.5,-118"/>
<text text-anchor="middle" x="1736.5" y="-125" font-family="Helvetica,sans-Serif" font-size="10.00">tools/log.hpp</text>
</a>
</g>
</g>
<!-- Node1&#45;&gt;Node32 -->
<g id="edge51" class="edge">
<title>Node1&#45;&gt;Node32</title>
<path fill="none" stroke="midnightblue" d="M1397.68,-291.46C1467.2,-258.03 1641.77,-174.06 1709.27,-141.6"/>
<polygon fill="midnightblue" stroke="midnightblue" points="1710.93,-144.68 1718.42,-137.19 1707.9,-138.37 1710.93,-144.68"/>
</g>
<!-- Node3 -->
<g id="node3" class="node">
<title>Node3</title>
<g id="a_node3"><a xlink:href="../../dc/d49/LeosacFwd_8hpp.html" target="_top" xlink:title=" ">
<polygon fill="white" stroke="black" points="1524.5,-118 1524.5,-137 1616.5,-137 1616.5,-118 1524.5,-118"/>
<text text-anchor="middle" x="1570.5" y="-125" font-family="Helvetica,sans-Serif" font-size="10.00">LeosacFwd.hpp</text>
</a>
</g>
</g>
<!-- Node2&#45;&gt;Node3 -->
<g id="edge2" class="edge">
<title>Node2&#45;&gt;Node3</title>
<path fill="none" stroke="midnightblue" d="M1397.44,-179.48C1432.77,-169.07 1492.63,-151.44 1531.86,-139.88"/>
<polygon fill="midnightblue" stroke="midnightblue" points="1533.01,-143.19 1541.61,-137.01 1531.03,-136.48 1533.01,-143.19"/>
</g>
<!-- Node6 -->
<g id="node6" class="node">
<title>Node6</title>
<g id="a_node6"><a xlink:href="../../d7/dcf/AuditFwd_8hpp.html" target="_top" xlink:title=" ">
<polygon fill="white" stroke="black" points="1077,-118 1077,-137 1212,-137 1212,-118 1077,-118"/>
<text text-anchor="middle" x="1144.5" y="-125" font-family="Helvetica,sans-Serif" font-size="10.00">core/audit/AuditFwd.hpp</text>
</a>
</g>
</g>
<!-- Node2&#45;&gt;Node6 -->
<g id="edge5" class="edge">
<title>Node2&#45;&gt;Node6</title>
<path fill="none" stroke="midnightblue" d="M1336.41,-179.48C1296.9,-168.98 1229.72,-151.14 1186.24,-139.59"/>
<polygon fill="midnightblue" stroke="midnightblue" points="1187.1,-136.19 1176.53,-137.01 1185.3,-142.96 1187.1,-136.19"/>
</g>
<!-- Node10 -->
<g id="node10" class="node">
<title>Node10</title>
<g id="a_node10"><a xlink:title=" ">
<polygon fill="white" stroke="#bfbfbf" points="1396.5,-118 1396.5,-137 1506.5,-137 1506.5,-118 1396.5,-118"/>
<text text-anchor="middle" x="1451.5" y="-125" font-family="Helvetica,sans-Serif" font-size="10.00">nlohmann/json.hpp</text>
</a>
</g>
</g>
<!-- Node2&#45;&gt;Node10 -->
<g id="edge10" class="edge">
<title>Node2&#45;&gt;Node10</title>
<path fill="none" stroke="midnightblue" d="M1380.39,-179.48C1393.7,-169.93 1415.5,-154.31 1431.46,-142.87"/>
<polygon fill="midnightblue" stroke="midnightblue" points="1433.54,-145.68 1439.63,-137.01 1429.46,-139.99 1433.54,-145.68"/>
</g>
<!-- Node11 -->
<g id="node11" class="node">
<title>Node11</title>
<g id="a_node11"><a xlink:title=" ">
<polygon fill="white" stroke="#bfbfbf" points="1484.5,-0.5 1484.5,-19.5 1528.5,-19.5 1528.5,-0.5 1484.5,-0.5"/>
<text text-anchor="middle" x="1506.5" y="-7.5" font-family="Helvetica,sans-Serif" font-size="10.00">string</text>
</a>
</g>
</g>
<!-- Node2&#45;&gt;Node11 -->
<g id="edge11" class="edge">
<title>Node2&#45;&gt;Node11</title>
<path fill="none" stroke="midnightblue" d="M1368.95,-179.36C1370.08,-164.52 1374,-133.72 1387.5,-112 1411.53,-73.33 1455.27,-41.92 1482.5,-24.89"/>
<polygon fill="midnightblue" stroke="midnightblue" points="1484.34,-27.87 1491.05,-19.68 1480.69,-21.89 1484.34,-27.87"/>
</g>
<!-- Node4 -->
<g id="node4" class="node">
<title>Node4</title>
<g id="a_node4"><a xlink:title=" ">
<polygon fill="white" stroke="#bfbfbf" points="713.5,-56.5 713.5,-75.5 771.5,-75.5 771.5,-56.5 713.5,-56.5"/>
<text text-anchor="middle" x="742.5" y="-63.5" font-family="Helvetica,sans-Serif" font-size="10.00">memory</text>
</a>
</g>
</g>
<!-- Node3&#45;&gt;Node4 -->
<g id="edge3" class="edge">
<title>Node3&#45;&gt;Node4</title>
<path fill="none" stroke="midnightblue" d="M1542.47,-117.96C1533.89,-115.65 1524.37,-113.41 1515.5,-112 1506.34,-110.54 938.56,-78.16 782.06,-69.25"/>
<polygon fill="midnightblue" stroke="midnightblue" points="782.12,-65.75 771.94,-68.67 781.72,-72.74 782.12,-65.75"/>
</g>
<!-- Node5 -->
<g id="node5" class="node">
<title>Node5</title>
<g id="a_node5"><a xlink:title=" ">
<polygon fill="white" stroke="#bfbfbf" points="1499,-56.5 1499,-75.5 1546,-75.5 1546,-56.5 1499,-56.5"/>
<text text-anchor="middle" x="1522.5" y="-63.5" font-family="Helvetica,sans-Serif" font-size="10.00">vector</text>
</a>
</g>
</g>
<!-- Node3&#45;&gt;Node5 -->
<g id="edge4" class="edge">
<title>Node3&#45;&gt;Node5</title>
<path fill="none" stroke="midnightblue" d="M1563.62,-117.98C1556.35,-108.96 1544.7,-94.52 1535.66,-83.31"/>
<polygon fill="midnightblue" stroke="midnightblue" points="1538.37,-81.09 1529.36,-75.51 1532.92,-85.49 1538.37,-81.09"/>
</g>
<!-- Node6&#45;&gt;Node4 -->
<g id="edge8" class="edge">
<title>Node6&#45;&gt;Node4</title>
<path fill="none" stroke="midnightblue" d="M1101.96,-117.98C1091.07,-115.92 1079.37,-113.79 1068.5,-112 965.37,-95.06 843.18,-79.35 781.82,-71.77"/>
<polygon fill="midnightblue" stroke="midnightblue" points="782.15,-68.28 771.8,-70.53 781.3,-75.23 782.15,-68.28"/>
</g>
<!-- Node7 -->
<g id="node7" class="node">
<title>Node7</title>
<g id="a_node7"><a xlink:title=" ">
<polygon fill="white" stroke="#bfbfbf" points="912,-56.5 912,-75.5 965,-75.5 965,-56.5 912,-56.5"/>
<text text-anchor="middle" x="938.5" y="-63.5" font-family="Helvetica,sans-Serif" font-size="10.00">cstddef</text>
</a>
</g>
</g>
<!-- Node6&#45;&gt;Node7 -->
<g id="edge6" class="edge">
<title>Node6&#45;&gt;Node7</title>
<path fill="none" stroke="midnightblue" d="M1114.99,-117.98C1078.04,-107.3 1014.77,-89.03 974.87,-77.51"/>
<polygon fill="midnightblue" stroke="midnightblue" points="975.6,-74.07 965.02,-74.66 973.65,-80.8 975.6,-74.07"/>
</g>
<!-- Node8 -->
<g id="node8" class="node">
<title>Node8</title>
<g id="a_node8"><a xlink:title=" ">
<polygon fill="white" stroke="#bfbfbf" points="1109,-56.5 1109,-75.5 1180,-75.5 1180,-56.5 1109,-56.5"/>
<text text-anchor="middle" x="1144.5" y="-63.5" font-family="Helvetica,sans-Serif" font-size="10.00">flagset.hpp</text>
</a>
</g>
</g>
<!-- Node6&#45;&gt;Node8 -->
<g id="edge7" class="edge">
<title>Node6&#45;&gt;Node8</title>
<path fill="none" stroke="midnightblue" d="M1144.5,-117.98C1144.5,-109.58 1144.5,-96.48 1144.5,-85.66"/>
<polygon fill="midnightblue" stroke="midnightblue" points="1148,-85.51 1144.5,-75.51 1141,-85.51 1148,-85.51"/>
</g>
<!-- Node9 -->
<g id="node9" class="node">
<title>Node9</title>
<g id="a_node9"><a xlink:title=" ">
<polygon fill="white" stroke="#bfbfbf" points="503,-56.5 503,-75.5 598,-75.5 598,-56.5 503,-56.5"/>
<text text-anchor="middle" x="550.5" y="-63.5" font-family="Helvetica,sans-Serif" font-size="10.00">odb/lazy&#45;ptr.hxx</text>
</a>
</g>
</g>
<!-- Node6&#45;&gt;Node9 -->
<g id="edge9" class="edge">
<title>Node6&#45;&gt;Node9</title>
<path fill="none" stroke="midnightblue" d="M1104,-117.98C1092.56,-115.79 1080.08,-113.6 1068.5,-112 902.21,-88.97 704.15,-75.65 608.25,-70.09"/>
<polygon fill="midnightblue" stroke="midnightblue" points="608.36,-66.59 598.17,-69.51 607.96,-73.58 608.36,-66.59"/>
</g>
<!-- Node12&#45;&gt;Node3 -->
<g id="edge13" class="edge">
<title>Node12&#45;&gt;Node3</title>
<path fill="none" stroke="midnightblue" d="M1525.95,-179.48C1533.83,-170.46 1546.44,-156.02 1556.24,-144.81"/>
<polygon fill="midnightblue" stroke="midnightblue" points="1559.12,-146.84 1563.06,-137.01 1553.85,-142.24 1559.12,-146.84"/>
</g>
<!-- Node12&#45;&gt;Node6 -->
<g id="edge14" class="edge">
<title>Node12&#45;&gt;Node6</title>
<path fill="none" stroke="midnightblue" d="M1464.41,-180.04C1391.91,-169.33 1267.07,-150.74 1221.5,-143 1214.04,-141.73 1206.19,-140.33 1198.46,-138.91"/>
<polygon fill="midnightblue" stroke="midnightblue" points="1198.9,-135.44 1188.43,-137.05 1197.62,-142.32 1198.9,-135.44"/>
</g>
<!-- Node12&#45;&gt;Node10 -->
<g id="edge15" class="edge">
<title>Node12&#45;&gt;Node10</title>
<path fill="none" stroke="midnightblue" d="M1508.9,-179.48C1498.45,-170.2 1481.53,-155.17 1468.76,-143.83"/>
<polygon fill="midnightblue" stroke="midnightblue" points="1470.88,-141.03 1461.08,-137.01 1466.23,-146.27 1470.88,-141.03"/>
</g>
<!-- Node12&#45;&gt;Node11 -->
<g id="edge16" class="edge">
<title>Node12&#45;&gt;Node11</title>
<path fill="none" stroke="midnightblue" d="M1569.01,-179.49C1590.18,-173.15 1612.79,-162.14 1625.5,-143 1646.9,-110.79 1647.48,-87.81 1625.5,-56 1606.13,-27.96 1566.88,-17.38 1538.75,-13.39"/>
<polygon fill="midnightblue" stroke="midnightblue" points="1538.93,-9.88 1528.58,-12.16 1538.09,-16.83 1538.93,-9.88"/>
</g>
<!-- Node13&#45;&gt;Node6 -->
<g id="edge18" class="edge">
<title>Node13&#45;&gt;Node6</title>
<path fill="none" stroke="midnightblue" d="M742.81,-181.62C822.15,-174.06 954.94,-160.26 1068.5,-143 1076.34,-141.81 1084.61,-140.39 1092.69,-138.92"/>
<polygon fill="midnightblue" stroke="midnightblue" points="1093.59,-142.32 1102.78,-137.04 1092.31,-135.44 1093.59,-142.32"/>
</g>
<!-- Node14 -->
<g id="node14" class="node">
<title>Node14</title>
<g id="a_node14"><a xlink:href="../../d3/d6f/AuthFwd_8hpp.html" target="_top" xlink:title=" ">
<polygon fill="white" stroke="black" points="748,-118 748,-137 877,-137 877,-118 748,-118"/>
<text text-anchor="middle" x="812.5" y="-125" font-family="Helvetica,sans-Serif" font-size="10.00">core/auth/AuthFwd.hpp</text>
</a>
</g>
</g>
<!-- Node13&#45;&gt;Node14 -->
<g id="edge19" class="edge">
<title>Node13&#45;&gt;Node14</title>
<path fill="none" stroke="midnightblue" d="M692.56,-179.48C716.26,-169.4 755.91,-152.55 783.08,-141"/>
<polygon fill="midnightblue" stroke="midnightblue" points="784.64,-144.14 792.48,-137.01 781.91,-137.7 784.64,-144.14"/>
</g>
<!-- Node15 -->
<g id="node15" class="node">
<title>Node15</title>
<g id="a_node15"><a xlink:href="../../d7/d7f/CredentialFwd_8hpp.html" target="_top" xlink:title=" ">
<polygon fill="white" stroke="black" points="449.5,-112.5 449.5,-142.5 597.5,-142.5 597.5,-112.5 449.5,-112.5"/>
<text text-anchor="start" x="457.5" y="-130.5" font-family="Helvetica,sans-Serif" font-size="10.00">core/credentials/Credential</text>
<text text-anchor="middle" x="523.5" y="-119.5" font-family="Helvetica,sans-Serif" font-size="10.00">Fwd.hpp</text>
</a>
</g>
</g>
<!-- Node13&#45;&gt;Node15 -->
<g id="edge23" class="edge">
<title>Node13&#45;&gt;Node15</title>
<path fill="none" stroke="midnightblue" d="M651.15,-179.48C629.56,-170.85 595.53,-157.26 568.04,-146.29"/>
<polygon fill="midnightblue" stroke="midnightblue" points="569.2,-142.98 558.62,-142.52 566.61,-149.48 569.2,-142.98"/>
</g>
<!-- Node16 -->
<g id="node16" class="node">
<title>Node16</title>
<g id="a_node16"><a xlink:href="../../d9/dc8/HardwareFwd_8hpp.html" target="_top" xlink:title=" ">
<polygon fill="white" stroke="black" points="277.5,-118 277.5,-137 431.5,-137 431.5,-118 277.5,-118"/>
<text text-anchor="middle" x="354.5" y="-125" font-family="Helvetica,sans-Serif" font-size="10.00">hardware/HardwareFwd.hpp</text>
</a>
</g>
</g>
<!-- Node13&#45;&gt;Node16 -->
<g id="edge26" class="edge">
<title>Node13&#45;&gt;Node16</title>
<path fill="none" stroke="midnightblue" d="M626.94,-179.48C569.67,-168.76 471.45,-150.38 409.9,-138.87"/>
<polygon fill="midnightblue" stroke="midnightblue" points="410.45,-135.41 399.98,-137.01 409.16,-142.29 410.45,-135.41"/>
</g>
<!-- Node23 -->
<g id="node23" class="node">
<title>Node23</title>
<g id="a_node23"><a xlink:href="../../d8/d97/ToolsFwd_8hpp.html" target="_top" xlink:title=" ">
<polygon fill="white" stroke="black" points="149.5,-118 149.5,-137 259.5,-137 259.5,-118 149.5,-118"/>
<text text-anchor="middle" x="204.5" y="-125" font-family="Helvetica,sans-Serif" font-size="10.00">tools/ToolsFwd.hpp</text>
</a>
</g>
</g>
<!-- Node13&#45;&gt;Node23 -->
<g id="edge35" class="edge">
<title>Node13&#45;&gt;Node23</title>
<path fill="none" stroke="midnightblue" d="M602.47,-182.59C521.64,-175.8 384.89,-162.6 268.5,-143 262.16,-141.93 255.5,-140.63 248.98,-139.25"/>
<polygon fill="midnightblue" stroke="midnightblue" points="249.42,-135.76 238.9,-137.04 247.92,-142.6 249.42,-135.76"/>
</g>
<!-- Node24 -->
<g id="node24" class="node">
<title>Node24</title>
<g id="a_node24"><a xlink:href="../../d9/d69/db__fwd_8hpp.html" target="_top" xlink:title=" ">
<polygon fill="white" stroke="black" points="615.5,-118 615.5,-137 729.5,-137 729.5,-118 615.5,-118"/>
<text text-anchor="middle" x="672.5" y="-125" font-family="Helvetica,sans-Serif" font-size="10.00">tools/db/db_fwd.hpp</text>
</a>
</g>
</g>
<!-- Node13&#45;&gt;Node24 -->
<g id="edge38" class="edge">
<title>Node13&#45;&gt;Node24</title>
<path fill="none" stroke="midnightblue" d="M672.5,-179.48C672.5,-171.08 672.5,-157.98 672.5,-147.16"/>
<polygon fill="midnightblue" stroke="midnightblue" points="676,-147.01 672.5,-137.01 669,-147.01 676,-147.01"/>
</g>
<!-- Node14&#45;&gt;Node4 -->
<g id="edge21" class="edge">
<title>Node14&#45;&gt;Node4</title>
<path fill="none" stroke="midnightblue" d="M802.47,-117.98C791.45,-108.61 773.54,-93.38 760.16,-82.01"/>
<polygon fill="midnightblue" stroke="midnightblue" points="762.4,-79.32 752.51,-75.51 757.86,-84.65 762.4,-79.32"/>
</g>
<!-- Node14&#45;&gt;Node7 -->
<g id="edge20" class="edge">
<title>Node14&#45;&gt;Node7</title>
<path fill="none" stroke="midnightblue" d="M830.55,-117.98C851.7,-107.99 886.94,-91.35 911.38,-79.81"/>
<polygon fill="midnightblue" stroke="midnightblue" points="912.93,-82.94 920.48,-75.51 909.94,-76.61 912.93,-82.94"/>
</g>
<!-- Node14&#45;&gt;Node9 -->
<g id="edge22" class="edge">
<title>Node14&#45;&gt;Node9</title>
<path fill="none" stroke="midnightblue" d="M774.96,-117.98C728.27,-107.37 648.52,-89.26 597.72,-77.72"/>
<polygon fill="midnightblue" stroke="midnightblue" points="598.5,-74.31 587.97,-75.51 596.95,-81.14 598.5,-74.31"/>
</g>
<!-- Node15&#45;&gt;Node4 -->
<g id="edge24" class="edge">
<title>Node15&#45;&gt;Node4</title>
<path fill="none" stroke="midnightblue" d="M575.12,-112.47C614.37,-101.81 667.54,-87.37 703.33,-77.64"/>
<polygon fill="midnightblue" stroke="midnightblue" points="704.66,-80.91 713.39,-74.91 702.82,-74.15 704.66,-80.91"/>
</g>
<!-- Node15&#45;&gt;Node9 -->
<g id="edge25" class="edge">
<title>Node15&#45;&gt;Node9</title>
<path fill="none" stroke="midnightblue" d="M529.9,-112.4C533.62,-104.2 538.35,-93.78 542.33,-84.99"/>
<polygon fill="midnightblue" stroke="midnightblue" points="545.63,-86.21 546.57,-75.66 539.25,-83.32 545.63,-86.21"/>
</g>
<!-- Node16&#45;&gt;Node4 -->
<g id="edge34" class="edge">
<title>Node16&#45;&gt;Node4</title>
<path fill="none" stroke="midnightblue" d="M404.04,-117.98C415.97,-115.97 428.69,-113.88 440.5,-112 534.64,-97.05 645.52,-80.9 703.19,-72.61"/>
<polygon fill="midnightblue" stroke="midnightblue" points="703.92,-76.04 713.32,-71.16 702.92,-69.12 703.92,-76.04"/>
</g>
<!-- Node17 -->
<g id="node17" class="node">
<title>Node17</title>
<g id="a_node17"><a xlink:href="../../dc/dea/Uuid_8hpp.html" target="_top" xlink:title=" ">
<polygon fill="white" stroke="black" points="355,-56.5 355,-75.5 442,-75.5 442,-56.5 355,-56.5"/>
<text text-anchor="middle" x="398.5" y="-63.5" font-family="Helvetica,sans-Serif" font-size="10.00">tools/Uuid.hpp</text>
</a>
</g>
</g>
<!-- Node16&#45;&gt;Node17 -->
<g id="edge27" class="edge">
<title>Node16&#45;&gt;Node17</title>
<path fill="none" stroke="midnightblue" d="M360.8,-117.98C367.4,-109.05 377.94,-94.81 386.19,-83.64"/>
<polygon fill="midnightblue" stroke="midnightblue" points="389.08,-85.63 392.21,-75.51 383.45,-81.47 389.08,-85.63"/>
</g>
<!-- Node17&#45;&gt;Node11 -->
<g id="edge33" class="edge">
<title>Node17&#45;&gt;Node11</title>
<path fill="none" stroke="midnightblue" d="M442.45,-60.36C458.5,-58.79 476.81,-57.15 493.5,-56 864.52,-30.45 958.01,-37.44 1329.5,-20 1380.05,-17.63 1438.72,-14.59 1474.2,-12.72"/>
<polygon fill="midnightblue" stroke="midnightblue" points="1474.63,-16.2 1484.43,-12.18 1474.26,-9.21 1474.63,-16.2"/>
</g>
<!-- Node18 -->
<g id="node18" class="node">
<title>Node18</title>
<g id="a_node18"><a xlink:title=" ">
<polygon fill="white" stroke="#bfbfbf" points="0,-0.5 0,-19.5 125,-19.5 125,-0.5 0,-0.5"/>
<text text-anchor="middle" x="62.5" y="-7.5" font-family="Helvetica,sans-Serif" font-size="10.00">boost/lexical_cast.hpp</text>
</a>
</g>
</g>
<!-- Node17&#45;&gt;Node18 -->
<g id="edge28" class="edge">
<title>Node17&#45;&gt;Node18</title>
<path fill="none" stroke="midnightblue" d="M354.92,-58C296.48,-48.6 192.35,-31.87 125.41,-21.11"/>
<polygon fill="midnightblue" stroke="midnightblue" points="125.84,-17.63 115.41,-19.5 124.73,-24.55 125.84,-17.63"/>
</g>
<!-- Node19 -->
<g id="node19" class="node">
<title>Node19</title>
<g id="a_node19"><a xlink:title=" ">
<polygon fill="white" stroke="#bfbfbf" points="143,-0.5 143,-19.5 324,-19.5 324,-0.5 143,-0.5"/>
<text text-anchor="middle" x="233.5" y="-7.5" font-family="Helvetica,sans-Serif" font-size="10.00">boost/uuid/random_generator.hpp</text>
</a>
</g>
</g>
<!-- Node17&#45;&gt;Node19 -->
<g id="edge29" class="edge">
<title>Node17&#45;&gt;Node19</title>
<path fill="none" stroke="midnightblue" d="M372.36,-56.44C344.48,-47.32 300.15,-32.81 269.1,-22.65"/>
<polygon fill="midnightblue" stroke="midnightblue" points="270.12,-19.3 259.52,-19.52 267.94,-25.95 270.12,-19.3"/>
</g>
<!-- Node20 -->
<g id="node20" class="node">
<title>Node20</title>
<g id="a_node20"><a xlink:title=" ">
<polygon fill="white" stroke="#bfbfbf" points="342,-0.5 342,-19.5 455,-19.5 455,-0.5 342,-0.5"/>
<text text-anchor="middle" x="398.5" y="-7.5" font-family="Helvetica,sans-Serif" font-size="10.00">boost/uuid/uuid.hpp</text>
</a>
</g>
</g>
<!-- Node17&#45;&gt;Node20 -->
<g id="edge30" class="edge">
<title>Node17&#45;&gt;Node20</title>
<path fill="none" stroke="midnightblue" d="M398.5,-56.08C398.5,-49.01 398.5,-38.86 398.5,-29.99"/>
<polygon fill="midnightblue" stroke="midnightblue" points="402,-29.75 398.5,-19.75 395,-29.75 402,-29.75"/>
</g>
<!-- Node21 -->
<g id="node21" class="node">
<title>Node21</title>
<g id="a_node21"><a xlink:title=" ">
<polygon fill="white" stroke="#bfbfbf" points="473,-0.5 473,-19.5 600,-19.5 600,-0.5 473,-0.5"/>
<text text-anchor="middle" x="536.5" y="-7.5" font-family="Helvetica,sans-Serif" font-size="10.00">boost/uuid/uuid_io.hpp</text>
</a>
</g>
</g>
<!-- Node17&#45;&gt;Node21 -->
<g id="edge31" class="edge">
<title>Node17&#45;&gt;Node21</title>
<path fill="none" stroke="midnightblue" d="M420.37,-56.44C443.28,-47.48 479.48,-33.31 505.37,-23.18"/>
<polygon fill="midnightblue" stroke="midnightblue" points="506.7,-26.42 514.74,-19.52 504.15,-19.9 506.7,-26.42"/>
</g>
<!-- Node22 -->
<g id="node22" class="node">
<title>Node22</title>
<g id="a_node22"><a xlink:title=" ">
<polygon fill="white" stroke="#bfbfbf" points="618.5,-0.5 618.5,-19.5 698.5,-19.5 698.5,-0.5 618.5,-0.5"/>
<text text-anchor="middle" x="658.5" y="-7.5" font-family="Helvetica,sans-Serif" font-size="10.00">odb/core.hxx</text>
</a>
</g>
</g>
<!-- Node17&#45;&gt;Node22 -->
<g id="edge32" class="edge">
<title>Node17&#45;&gt;Node22</title>
<path fill="none" stroke="midnightblue" d="M439.7,-56.44C485.42,-46.95 559.2,-31.62 608.27,-21.43"/>
<polygon fill="midnightblue" stroke="midnightblue" points="609.27,-24.8 618.35,-19.34 607.85,-17.95 609.27,-24.8"/>
</g>
<!-- Node23&#45;&gt;Node4 -->
<g id="edge36" class="edge">
<title>Node23&#45;&gt;Node4</title>
<path fill="none" stroke="midnightblue" d="M238.55,-117.93C248.19,-115.74 258.71,-113.57 268.5,-112 352.08,-98.62 605.26,-77.85 703.22,-70.08"/>
<polygon fill="midnightblue" stroke="midnightblue" points="703.6,-73.56 713.29,-69.28 703.05,-66.58 703.6,-73.56"/>
</g>
<!-- Node23&#45;&gt;Node9 -->
<g id="edge37" class="edge">
<title>Node23&#45;&gt;Node9</title>
<path fill="none" stroke="midnightblue" d="M240.29,-117.96C249.46,-115.89 259.33,-113.77 268.5,-112 345.88,-97.08 435.89,-83.34 493.01,-75.06"/>
<polygon fill="midnightblue" stroke="midnightblue" points="493.54,-78.52 502.94,-73.63 492.54,-71.6 493.54,-78.52"/>
</g>
<!-- Node24&#45;&gt;Node4 -->
<g id="edge39" class="edge">
<title>Node24&#45;&gt;Node4</title>
<path fill="none" stroke="midnightblue" d="M682.53,-117.98C693.55,-108.61 711.46,-93.38 724.84,-82.01"/>
<polygon fill="midnightblue" stroke="midnightblue" points="727.14,-84.65 732.49,-75.51 722.6,-79.32 727.14,-84.65"/>
</g>
<!-- Node25&#45;&gt;Node23 -->
<g id="edge50" class="edge">
<title>Node25&#45;&gt;Node23</title>
<path fill="none" stroke="midnightblue" d="M914.12,-236.25C832.54,-228.23 704.15,-214.7 593.5,-199 448.38,-178.41 412.25,-171.65 268.5,-143 262.7,-141.84 256.63,-140.56 250.62,-139.25"/>
<polygon fill="midnightblue" stroke="midnightblue" points="251.17,-135.79 240.65,-137.04 249.65,-142.62 251.17,-135.79"/>
</g>
<!-- Node26 -->
<g id="node26" class="node">
<title>Node26</title>
<g id="a_node26"><a xlink:href="../../d3/dd8/IAuditEntry_8hpp.html" target="_top" xlink:title=" ">
<polygon fill="white" stroke="black" points="951.5,-179.5 951.5,-198.5 1041.5,-198.5 1041.5,-179.5 951.5,-179.5"/>
<text text-anchor="middle" x="996.5" y="-186.5" font-family="Helvetica,sans-Serif" font-size="10.00">IAuditEntry.hpp</text>
</a>
</g>
</g>
<!-- Node25&#45;&gt;Node26 -->
<g id="edge41" class="edge">
<title>Node25&#45;&gt;Node26</title>
<path fill="none" stroke="midnightblue" d="M996.5,-235.08C996.5,-228.01 996.5,-217.86 996.5,-208.99"/>
<polygon fill="midnightblue" stroke="midnightblue" points="1000,-208.75 996.5,-198.75 993,-208.75 1000,-208.75"/>
</g>
<!-- Node26&#45;&gt;Node4 -->
<g id="edge49" class="edge">
<title>Node26&#45;&gt;Node4</title>
<path fill="none" stroke="midnightblue" d="M982.06,-179.47C967.51,-170.73 944.53,-156.53 925.5,-143 907.46,-130.17 906.07,-122.37 886.5,-112 853.06,-94.28 811.51,-82.23 781.64,-75.09"/>
<polygon fill="midnightblue" stroke="midnightblue" points="782.13,-71.61 771.6,-72.77 780.55,-78.43 782.13,-71.61"/>
</g>
<!-- Node26&#45;&gt;Node6 -->
<g id="edge42" class="edge">
<title>Node26&#45;&gt;Node6</title>
<path fill="none" stroke="midnightblue" d="M1017.7,-179.48C1042.87,-169.36 1085.04,-152.4 1113.78,-140.85"/>
<polygon fill="midnightblue" stroke="midnightblue" points="1115.36,-143.99 1123.33,-137.01 1112.75,-137.49 1115.36,-143.99"/>
</g>
<!-- Node26&#45;&gt;Node14 -->
<g id="edge43" class="edge">
<title>Node26&#45;&gt;Node14</title>
<path fill="none" stroke="midnightblue" d="M970.14,-179.48C938.16,-169.14 884.12,-151.66 848.38,-140.1"/>
<polygon fill="midnightblue" stroke="midnightblue" points="849.41,-136.76 838.81,-137.01 847.25,-143.42 849.41,-136.76"/>
</g>
<!-- Node27 -->
<g id="node27" class="node">
<title>Node27</title>
<g id="a_node27"><a xlink:href="../../dd/d9d/IVisitable_8hpp.html" target="_top" xlink:title=" ">
<polygon fill="white" stroke="black" points="1230.5,-118 1230.5,-137 1340.5,-137 1340.5,-118 1230.5,-118"/>
<text text-anchor="middle" x="1285.5" y="-125" font-family="Helvetica,sans-Serif" font-size="10.00">tools/IVisitable.hpp</text>
</a>
</g>
</g>
<!-- Node26&#45;&gt;Node27 -->
<g id="edge44" class="edge">
<title>Node26&#45;&gt;Node27</title>
<path fill="none" stroke="midnightblue" d="M1040.97,-179.45C1086.41,-170.64 1158.97,-156.33 1221.5,-143 1227,-141.83 1232.76,-140.57 1238.48,-139.3"/>
<polygon fill="midnightblue" stroke="midnightblue" points="1239.65,-142.62 1248.65,-137.02 1238.12,-135.79 1239.65,-142.62"/>
</g>
<!-- Node31 -->
<g id="node31" class="node">
<title>Node31</title>
<g id="a_node31"><a xlink:title=" ">
<polygon fill="white" stroke="#bfbfbf" points="934,-112.5 934,-142.5 1059,-142.5 1059,-112.5 934,-112.5"/>
<text text-anchor="start" x="942" y="-130.5" font-family="Helvetica,sans-Serif" font-size="10.00">boost/date_time/posix</text>
<text text-anchor="middle" x="996.5" y="-119.5" font-family="Helvetica,sans-Serif" font-size="10.00">_time/posix_time.hpp</text>
</a>
</g>
</g>
<!-- Node26&#45;&gt;Node31 -->
<g id="edge48" class="edge">
<title>Node26&#45;&gt;Node31</title>
<path fill="none" stroke="midnightblue" d="M996.5,-179.48C996.5,-172.47 996.5,-162.19 996.5,-152.7"/>
<polygon fill="midnightblue" stroke="midnightblue" points="1000,-152.52 996.5,-142.52 993,-152.52 1000,-152.52"/>
</g>
<!-- Node28 -->
<g id="node28" class="node">
<title>Node28</title>
<g id="a_node28"><a xlink:href="../../d2/d91/Visitor_8hpp.html" target="_top" xlink:title=" ">
<polygon fill="white" stroke="black" points="1238,-56.5 1238,-75.5 1333,-75.5 1333,-56.5 1238,-56.5"/>
<text text-anchor="middle" x="1285.5" y="-63.5" font-family="Helvetica,sans-Serif" font-size="10.00">tools/Visitor.hpp</text>
</a>
</g>
</g>
<!-- Node27&#45;&gt;Node28 -->
<g id="edge45" class="edge">
<title>Node27&#45;&gt;Node28</title>
<path fill="none" stroke="midnightblue" d="M1285.5,-117.98C1285.5,-109.58 1285.5,-96.48 1285.5,-85.66"/>
<polygon fill="midnightblue" stroke="midnightblue" points="1289,-85.51 1285.5,-75.51 1282,-85.51 1289,-85.51"/>
</g>
<!-- Node30 -->
<g id="node30" class="node">
<title>Node30</title>
<g id="a_node30"><a xlink:title=" ">
<polygon fill="white" stroke="#bfbfbf" points="1564.5,-56.5 1564.5,-75.5 1616.5,-75.5 1616.5,-56.5 1564.5,-56.5"/>
<text text-anchor="middle" x="1590.5" y="-63.5" font-family="Helvetica,sans-Serif" font-size="10.00">cassert</text>
</a>
</g>
</g>
<!-- Node27&#45;&gt;Node30 -->
<g id="edge47" class="edge">
<title>Node27&#45;&gt;Node30</title>
<path fill="none" stroke="midnightblue" d="M1336.71,-117.97C1389.05,-109.02 1472.86,-94.04 1554.26,-76.16"/>
<polygon fill="midnightblue" stroke="midnightblue" points="1555.16,-79.55 1564.17,-73.97 1553.65,-72.71 1555.16,-79.55"/>
</g>
<!-- Node29 -->
<g id="node29" class="node">
<title>Node29</title>
<g id="a_node29"><a xlink:title=" ">
<polygon fill="white" stroke="#bfbfbf" points="1251,-0.5 1251,-19.5 1320,-19.5 1320,-0.5 1251,-0.5"/>
<text text-anchor="middle" x="1285.5" y="-7.5" font-family="Helvetica,sans-Serif" font-size="10.00">type_traits</text>
</a>
</g>
</g>
<!-- Node28&#45;&gt;Node29 -->
<g id="edge46" class="edge">
<title>Node28&#45;&gt;Node29</title>
<path fill="none" stroke="midnightblue" d="M1285.5,-56.08C1285.5,-49.01 1285.5,-38.86 1285.5,-29.99"/>
<polygon fill="midnightblue" stroke="midnightblue" points="1289,-29.75 1285.5,-19.75 1282,-29.75 1289,-29.75"/>
</g>
<!-- Node32&#45;&gt;Node11 -->
<g id="edge57" class="edge">
<title>Node32&#45;&gt;Node11</title>
<path fill="none" stroke="midnightblue" d="M1729.25,-117.77C1716.46,-102.94 1688.43,-72.79 1658.5,-56 1620.23,-34.52 1570.65,-22.34 1538.71,-16.21"/>
<polygon fill="midnightblue" stroke="midnightblue" points="1539.06,-12.71 1528.59,-14.36 1537.8,-19.6 1539.06,-12.71"/>
</g>
<!-- Node32&#45;&gt;Node30 -->
<g id="edge52" class="edge">
<title>Node32&#45;&gt;Node30</title>
<path fill="none" stroke="midnightblue" d="M1715.58,-117.98C1690.75,-107.86 1649.16,-90.9 1620.81,-79.35"/>
<polygon fill="midnightblue" stroke="midnightblue" points="1621.96,-76.04 1611.38,-75.51 1619.32,-82.52 1621.96,-76.04"/>
</g>
<!-- Node33 -->
<g id="node33" class="node">
<title>Node33</title>
<g id="a_node33"><a xlink:title=" ">
<polygon fill="white" stroke="#bfbfbf" points="1711,-56.5 1711,-75.5 1762,-75.5 1762,-56.5 1711,-56.5"/>
<text text-anchor="middle" x="1736.5" y="-63.5" font-family="Helvetica,sans-Serif" font-size="10.00">csignal</text>
</a>
</g>
</g>
<!-- Node32&#45;&gt;Node33 -->
<g id="edge53" class="edge">
<title>Node32&#45;&gt;Node33</title>
<path fill="none" stroke="midnightblue" d="M1736.5,-117.98C1736.5,-109.58 1736.5,-96.48 1736.5,-85.66"/>
<polygon fill="midnightblue" stroke="midnightblue" points="1740,-85.51 1736.5,-75.51 1733,-85.51 1740,-85.51"/>
</g>
<!-- Node34 -->
<g id="node34" class="node">
<title>Node34</title>
<g id="a_node34"><a xlink:title=" ">
<polygon fill="white" stroke="#bfbfbf" points="1780.5,-56.5 1780.5,-75.5 1840.5,-75.5 1840.5,-56.5 1780.5,-56.5"/>
<text text-anchor="middle" x="1810.5" y="-63.5" font-family="Helvetica,sans-Serif" font-size="10.00">iostream</text>
</a>
</g>
</g>
<!-- Node32&#45;&gt;Node34 -->
<g id="edge54" class="edge">
<title>Node32&#45;&gt;Node34</title>
<path fill="none" stroke="midnightblue" d="M1747.1,-117.98C1758.75,-108.61 1777.69,-93.38 1791.83,-82.01"/>
<polygon fill="midnightblue" stroke="midnightblue" points="1794.32,-84.5 1799.92,-75.51 1789.93,-79.05 1794.32,-84.5"/>
</g>
<!-- Node35 -->
<g id="node35" class="node">
<title>Node35</title>
<g id="a_node35"><a xlink:title=" ">
<polygon fill="white" stroke="#bfbfbf" points="1859,-56.5 1859,-75.5 1952,-75.5 1952,-56.5 1859,-56.5"/>
<text text-anchor="middle" x="1905.5" y="-63.5" font-family="Helvetica,sans-Serif" font-size="10.00">spdlog/spdlog.h</text>
</a>
</g>
</g>
<!-- Node32&#45;&gt;Node35 -->
<g id="edge55" class="edge">
<title>Node32&#45;&gt;Node35</title>
<path fill="none" stroke="midnightblue" d="M1760.71,-117.98C1789.83,-107.72 1838.87,-90.46 1871.7,-78.9"/>
<polygon fill="midnightblue" stroke="midnightblue" points="1873.06,-82.13 1881.33,-75.51 1870.74,-75.53 1873.06,-82.13"/>
</g>
<!-- Node36 -->
<g id="node36" class="node">
<title>Node36</title>
<g id="a_node36"><a xlink:title=" ">
<polygon fill="white" stroke="#bfbfbf" points="1970.5,-56.5 1970.5,-75.5 2026.5,-75.5 2026.5,-56.5 1970.5,-56.5"/>
<text text-anchor="middle" x="1998.5" y="-63.5" font-family="Helvetica,sans-Serif" font-size="10.00">sstream</text>
</a>
</g>
</g>
<!-- Node32&#45;&gt;Node36 -->
<g id="edge56" class="edge">
<title>Node32&#45;&gt;Node36</title>
<path fill="none" stroke="midnightblue" d="M1775.57,-117.95C1818.47,-108.52 1889.64,-92.72 1960.27,-76.26"/>
<polygon fill="midnightblue" stroke="midnightblue" points="1961.29,-79.61 1970.23,-73.93 1959.7,-72.8 1961.29,-79.61"/>
</g>
</g>
</svg>
