<?xml version="1.0" encoding="UTF-8" standalone="no"?>
<!DOCTYPE svg PUBLIC "-//W3C//DTD SVG 1.1//EN"
 "http://www.w3.org/Graphics/SVG/1.1/DTD/svg11.dtd">
<!-- Generated by graphviz version 2.43.0 (0)
 -->
<!-- Title: src/tools/scrypt/Random.cpp Pages: 1 -->
<svg width="521pt" height="140pt"
 viewBox="0.00 0.00 521.00 140.00" xmlns="http://www.w3.org/2000/svg" xmlns:xlink="http://www.w3.org/1999/xlink">
<g id="graph0" class="graph" transform="scale(1 1) rotate(0) translate(4 136)">
<title>src/tools/scrypt/Random.cpp</title>
<polygon fill="white" stroke="transparent" points="-4,4 -4,-136 517,-136 517,4 -4,4"/>
<!-- Node1 -->
<g id="node1" class="node">
<title>Node1</title>
<g id="a_node1"><a xlink:title=" ">
<polygon fill="#bfbfbf" stroke="black" points="192.5,-112.5 192.5,-131.5 347.5,-131.5 347.5,-112.5 192.5,-112.5"/>
<text text-anchor="middle" x="270" y="-119.5" font-family="Helvetica,sans-Serif" font-size="10.00">src/tools/scrypt/Random.cpp</text>
</a>
</g>
</g>
<!-- Node2 -->
<g id="node2" class="node">
<title>Node2</title>
<g id="a_node2"><a xlink:href="../../dd/d6e/Random_8hpp.html" target="_top" xlink:title=" ">
<polygon fill="white" stroke="black" points="15,-56.5 15,-75.5 153,-75.5 153,-56.5 15,-56.5"/>
<text text-anchor="middle" x="84" y="-63.5" font-family="Helvetica,sans-Serif" font-size="10.00">tools/scrypt/Random.hpp</text>
</a>
</g>
</g>
<!-- Node1&#45;&gt;Node2 -->
<g id="edge1" class="edge">
<title>Node1&#45;&gt;Node2</title>
<path fill="none" stroke="midnightblue" d="M240.53,-112.44C208.83,-103.24 158.27,-88.56 123.23,-78.39"/>
<polygon fill="midnightblue" stroke="midnightblue" points="123.91,-74.94 113.33,-75.52 121.96,-81.67 123.91,-74.94"/>
</g>
<!-- Node5 -->
<g id="node5" class="node">
<title>Node5</title>
<g id="a_node5"><a xlink:title=" ">
<polygon fill="white" stroke="#bfbfbf" points="149.5,-0.5 149.5,-19.5 196.5,-19.5 196.5,-0.5 149.5,-0.5"/>
<text text-anchor="middle" x="173" y="-7.5" font-family="Helvetica,sans-Serif" font-size="10.00">vector</text>
</a>
</g>
</g>
<!-- Node1&#45;&gt;Node5 -->
<g id="edge9" class="edge">
<title>Node1&#45;&gt;Node5</title>
<path fill="none" stroke="midnightblue" d="M250.46,-112.49C234.97,-104.88 213.72,-92.4 200,-76 188.74,-62.54 181.62,-43.73 177.53,-29.8"/>
<polygon fill="midnightblue" stroke="midnightblue" points="180.84,-28.64 174.89,-19.88 174.08,-30.44 180.84,-28.64"/>
</g>
<!-- Node6 -->
<g id="node6" class="node">
<title>Node6</title>
<g id="a_node6"><a xlink:title=" ">
<polygon fill="white" stroke="#bfbfbf" points="209,-56.5 209,-75.5 261,-75.5 261,-56.5 209,-56.5"/>
<text text-anchor="middle" x="235" y="-63.5" font-family="Helvetica,sans-Serif" font-size="10.00">cassert</text>
</a>
</g>
</g>
<!-- Node1&#45;&gt;Node6 -->
<g id="edge5" class="edge">
<title>Node1&#45;&gt;Node6</title>
<path fill="none" stroke="midnightblue" d="M264.22,-112.08C259.33,-104.53 252.17,-93.49 246.17,-84.23"/>
<polygon fill="midnightblue" stroke="midnightblue" points="249.05,-82.24 240.67,-75.75 243.17,-86.05 249.05,-82.24"/>
</g>
<!-- Node7 -->
<g id="node7" class="node">
<title>Node7</title>
<g id="a_node7"><a xlink:title=" ">
<polygon fill="white" stroke="#bfbfbf" points="279.5,-56.5 279.5,-75.5 332.5,-75.5 332.5,-56.5 279.5,-56.5"/>
<text text-anchor="middle" x="306" y="-63.5" font-family="Helvetica,sans-Serif" font-size="10.00">cstddef</text>
</a>
</g>
</g>
<!-- Node1&#45;&gt;Node7 -->
<g id="edge6" class="edge">
<title>Node1&#45;&gt;Node7</title>
<path fill="none" stroke="midnightblue" d="M275.94,-112.08C280.98,-104.53 288.34,-93.49 294.51,-84.23"/>
<polygon fill="midnightblue" stroke="midnightblue" points="297.53,-86.01 300.17,-75.75 291.71,-82.13 297.53,-86.01"/>
</g>
<!-- Node8 -->
<g id="node8" class="node">
<title>Node8</title>
<g id="a_node8"><a xlink:title=" ">
<polygon fill="white" stroke="#bfbfbf" points="351,-56.5 351,-75.5 439,-75.5 439,-56.5 351,-56.5"/>
<text text-anchor="middle" x="395" y="-63.5" font-family="Helvetica,sans-Serif" font-size="10.00">openssl/rand.h</text>
</a>
</g>
</g>
<!-- Node1&#45;&gt;Node8 -->
<g id="edge7" class="edge">
<title>Node1&#45;&gt;Node8</title>
<path fill="none" stroke="midnightblue" d="M289.81,-112.44C310.29,-103.6 342.48,-89.69 365.86,-79.59"/>
<polygon fill="midnightblue" stroke="midnightblue" points="367.49,-82.7 375.29,-75.52 364.72,-76.27 367.49,-82.7"/>
</g>
<!-- Node9 -->
<g id="node9" class="node">
<title>Node9</title>
<g id="a_node9"><a xlink:title=" ">
<polygon fill="white" stroke="#bfbfbf" points="457,-56.5 457,-75.5 513,-75.5 513,-56.5 457,-56.5"/>
<text text-anchor="middle" x="485" y="-63.5" font-family="Helvetica,sans-Serif" font-size="10.00">sstream</text>
</a>
</g>
</g>
<!-- Node1&#45;&gt;Node9 -->
<g id="edge8" class="edge">
<title>Node1&#45;&gt;Node9</title>
<path fill="none" stroke="midnightblue" d="M304.07,-112.44C343.04,-102.66 406.67,-86.67 447.15,-76.51"/>
<polygon fill="midnightblue" stroke="midnightblue" points="448.07,-79.88 456.92,-74.05 446.36,-73.1 448.07,-79.88"/>
</g>
<!-- Node3 -->
<g id="node3" class="node">
<title>Node3</title>
<g id="a_node3"><a xlink:title=" ">
<polygon fill="white" stroke="#bfbfbf" points="0,-0.5 0,-19.5 50,-19.5 50,-0.5 0,-0.5"/>
<text text-anchor="middle" x="25" y="-7.5" font-family="Helvetica,sans-Serif" font-size="10.00">cstdint</text>
</a>
</g>
</g>
<!-- Node2&#45;&gt;Node3 -->
<g id="edge2" class="edge">
<title>Node2&#45;&gt;Node3</title>
<path fill="none" stroke="midnightblue" d="M74.52,-56.32C65.8,-48.34 52.66,-36.31 42.1,-26.65"/>
<polygon fill="midnightblue" stroke="midnightblue" points="44.39,-24 34.65,-19.83 39.67,-29.17 44.39,-24"/>
</g>
<!-- Node4 -->
<g id="node4" class="node">
<title>Node4</title>
<g id="a_node4"><a xlink:title=" ">
<polygon fill="white" stroke="#bfbfbf" points="68,-0.5 68,-19.5 116,-19.5 116,-0.5 68,-0.5"/>
<text text-anchor="middle" x="92" y="-7.5" font-family="Helvetica,sans-Serif" font-size="10.00">mutex</text>
</a>
</g>
</g>
<!-- Node2&#45;&gt;Node4 -->
<g id="edge3" class="edge">
<title>Node2&#45;&gt;Node4</title>
<path fill="none" stroke="midnightblue" d="M85.32,-56.08C86.38,-48.93 87.91,-38.64 89.23,-29.69"/>
<polygon fill="midnightblue" stroke="midnightblue" points="92.7,-30.16 90.7,-19.75 85.78,-29.13 92.7,-30.16"/>
</g>
<!-- Node2&#45;&gt;Node5 -->
<g id="edge4" class="edge">
<title>Node2&#45;&gt;Node5</title>
<path fill="none" stroke="midnightblue" d="M98.3,-56.32C112.18,-47.9 133.49,-34.97 149.8,-25.07"/>
<polygon fill="midnightblue" stroke="midnightblue" points="152,-27.83 158.74,-19.65 148.37,-21.85 152,-27.83"/>
</g>
</g>
</svg>
