<?xml version="1.0" encoding="UTF-8" standalone="no"?>
<!DOCTYPE svg PUBLIC "-//W3C//DTD SVG 1.1//EN"
 "http://www.w3.org/Graphics/SVG/1.1/DTD/svg11.dtd">
<!-- Generated by graphviz version 2.43.0 (0)
 -->
<!-- Title: src/exception/ExceptionsTools.hpp Pages: 1 -->
<svg width="1175pt" height="106pt"
 viewBox="0.00 0.00 1174.50 106.00" xmlns="http://www.w3.org/2000/svg" xmlns:xlink="http://www.w3.org/1999/xlink">
<g id="graph0" class="graph" transform="scale(1 1) rotate(0) translate(4 102)">
<title>src/exception/ExceptionsTools.hpp</title>
<polygon fill="white" stroke="transparent" points="-4,4 -4,-102 1170.5,-102 1170.5,4 -4,4"/>
<!-- Node1 -->
<g id="node1" class="node">
<title>Node1</title>
<g id="a_node1"><a xlink:title=" ">
<polygon fill="#bfbfbf" stroke="black" points="556.5,-67.5 556.5,-97.5 694.5,-97.5 694.5,-67.5 556.5,-67.5"/>
<text text-anchor="start" x="564.5" y="-85.5" font-family="Helvetica,sans-Serif" font-size="10.00">src/exception/Exceptions</text>
<text text-anchor="middle" x="625.5" y="-74.5" font-family="Helvetica,sans-Serif" font-size="10.00">Tools.hpp</text>
</a>
</g>
</g>
<!-- Node2 -->
<g id="node2" class="node">
<title>Node2</title>
<g id="a_node2"><a xlink:href="../../da/db5/RemoteConfigCollector_8cpp.html" target="_top" xlink:title=" ">
<polygon fill="white" stroke="black" points="0,-0.5 0,-30.5 159,-30.5 159,-0.5 0,-0.5"/>
<text text-anchor="start" x="8" y="-18.5" font-family="Helvetica,sans-Serif" font-size="10.00">src/core/config/RemoteConfig</text>
<text text-anchor="middle" x="79.5" y="-7.5" font-family="Helvetica,sans-Serif" font-size="10.00">Collector.cpp</text>
</a>
</g>
</g>
<!-- Node1&#45;&gt;Node2 -->
<g id="edge1" class="edge">
<title>Node1&#45;&gt;Node2</title>
<path fill="none" stroke="midnightblue" d="M546.47,-74.01C455.24,-65.08 300.76,-49.07 168.5,-31 165.4,-30.58 162.24,-30.13 159.05,-29.67"/>
<polygon fill="midnightblue" stroke="midnightblue" points="546.17,-77.5 556.46,-74.99 546.84,-70.53 546.17,-77.5"/>
</g>
<!-- Node3 -->
<g id="node3" class="node">
<title>Node3</title>
<g id="a_node3"><a xlink:href="../../dd/d24/kernel_8cpp.html" target="_top" xlink:title=" ">
<polygon fill="white" stroke="black" points="177.5,-6 177.5,-25 285.5,-25 285.5,-6 177.5,-6"/>
<text text-anchor="middle" x="231.5" y="-13" font-family="Helvetica,sans-Serif" font-size="10.00">src/core/kernel.cpp</text>
</a>
</g>
</g>
<!-- Node1&#45;&gt;Node3 -->
<g id="edge2" class="edge">
<title>Node1&#45;&gt;Node3</title>
<path fill="none" stroke="midnightblue" d="M546.36,-71.12C479.13,-61.9 380.17,-47.37 294.5,-31 285.35,-29.25 275.51,-27.11 266.39,-25.02"/>
<polygon fill="midnightblue" stroke="midnightblue" points="546.08,-74.62 556.46,-72.5 547.03,-67.68 546.08,-74.62"/>
</g>
<!-- Node4 -->
<g id="node4" class="node">
<title>Node4</title>
<g id="a_node4"><a xlink:href="../../d9/d4a/module__manager_8cpp.html" target="_top" xlink:title=" ">
<polygon fill="white" stroke="black" points="304,-6 304,-25 467,-25 467,-6 304,-6"/>
<text text-anchor="middle" x="385.5" y="-13" font-family="Helvetica,sans-Serif" font-size="10.00">src/core/module_manager.cpp</text>
</a>
</g>
</g>
<!-- Node1&#45;&gt;Node4 -->
<g id="edge3" class="edge">
<title>Node1&#45;&gt;Node4</title>
<path fill="none" stroke="midnightblue" d="M563.95,-64.83C516.98,-52.11 454.2,-35.11 416.99,-25.03"/>
<polygon fill="midnightblue" stroke="midnightblue" points="563.15,-68.24 573.72,-67.48 564.98,-61.48 563.15,-68.24"/>
</g>
<!-- Node5 -->
<g id="node5" class="node">
<title>Node5</title>
<g id="a_node5"><a xlink:href="../../d3/d71/Task_8cpp.html" target="_top" xlink:title=" ">
<polygon fill="white" stroke="black" points="485,-6 485,-25 614,-25 614,-6 485,-6"/>
<text text-anchor="middle" x="549.5" y="-13" font-family="Helvetica,sans-Serif" font-size="10.00">src/core/tasks/Task.cpp</text>
</a>
</g>
</g>
<!-- Node1&#45;&gt;Node5 -->
<g id="edge4" class="edge">
<title>Node1&#45;&gt;Node5</title>
<path fill="none" stroke="midnightblue" d="M601.15,-60.67C587.11,-48.67 570.22,-34.22 559.67,-25.19"/>
<polygon fill="midnightblue" stroke="midnightblue" points="599.13,-63.56 609.01,-67.4 603.68,-58.24 599.13,-63.56"/>
</g>
<!-- Node6 -->
<g id="node6" class="node">
<title>Node6</title>
<g id="a_node6"><a xlink:href="../../d8/dcb/ExceptionsTools_8cpp.html" target="_top" xlink:title=" ">
<polygon fill="white" stroke="black" points="632.5,-0.5 632.5,-30.5 770.5,-30.5 770.5,-0.5 632.5,-0.5"/>
<text text-anchor="start" x="640.5" y="-18.5" font-family="Helvetica,sans-Serif" font-size="10.00">src/exception/Exceptions</text>
<text text-anchor="middle" x="701.5" y="-7.5" font-family="Helvetica,sans-Serif" font-size="10.00">Tools.cpp</text>
</a>
</g>
</g>
<!-- Node1&#45;&gt;Node6 -->
<g id="edge5" class="edge">
<title>Node1&#45;&gt;Node6</title>
<path fill="none" stroke="midnightblue" d="M649.61,-60.88C661.16,-51.01 674.69,-39.43 685.04,-30.58"/>
<polygon fill="midnightblue" stroke="midnightblue" points="647.32,-58.24 641.99,-67.4 651.87,-63.56 647.32,-58.24"/>
</g>
<!-- Node7 -->
<g id="node7" class="node">
<title>Node7</title>
<g id="a_node7"><a xlink:href="../../df/d0a/main_8cpp.html" target="_top" xlink:title="standard main">
<polygon fill="white" stroke="black" points="789,-6 789,-25 868,-25 868,-6 789,-6"/>
<text text-anchor="middle" x="828.5" y="-13" font-family="Helvetica,sans-Serif" font-size="10.00">src/main.cpp</text>
</a>
</g>
</g>
<!-- Node1&#45;&gt;Node7 -->
<g id="edge6" class="edge">
<title>Node1&#45;&gt;Node7</title>
<path fill="none" stroke="midnightblue" d="M679.31,-64.27C718.87,-51.6 770.93,-34.93 801.93,-25.01"/>
<polygon fill="midnightblue" stroke="midnightblue" points="678,-61.01 669.55,-67.4 680.14,-67.68 678,-61.01"/>
</g>
<!-- Node8 -->
<g id="node8" class="node">
<title>Node8</title>
<g id="a_node8"><a xlink:href="../../da/d9b/AuthFileInstance_8cpp.html" target="_top" xlink:title=" ">
<polygon fill="white" stroke="black" points="886.5,-0.5 886.5,-30.5 1026.5,-30.5 1026.5,-0.5 886.5,-0.5"/>
<text text-anchor="start" x="894.5" y="-18.5" font-family="Helvetica,sans-Serif" font-size="10.00">src/modules/auth/auth</text>
<text text-anchor="middle" x="956.5" y="-7.5" font-family="Helvetica,sans-Serif" font-size="10.00">&#45;file/AuthFileInstance.cpp</text>
</a>
</g>
</g>
<!-- Node1&#45;&gt;Node8 -->
<g id="edge7" class="edge">
<title>Node1&#45;&gt;Node8</title>
<path fill="none" stroke="midnightblue" d="M704.99,-65.89C760.26,-55.04 833.24,-40.7 886.35,-30.28"/>
<polygon fill="midnightblue" stroke="midnightblue" points="704.03,-62.51 694.89,-67.87 705.38,-69.38 704.03,-62.51"/>
</g>
<!-- Node9 -->
<g id="node9" class="node">
<title>Node9</title>
<g id="a_node9"><a xlink:href="../../d4/d2c/WSServer_8cpp.html" target="_top" xlink:title=" ">
<polygon fill="white" stroke="black" points="1044.5,-0.5 1044.5,-30.5 1166.5,-30.5 1166.5,-0.5 1044.5,-0.5"/>
<text text-anchor="start" x="1052.5" y="-18.5" font-family="Helvetica,sans-Serif" font-size="10.00">src/modules/websock</text>
<text text-anchor="middle" x="1105.5" y="-7.5" font-family="Helvetica,sans-Serif" font-size="10.00">&#45;api/WSServer.cpp</text>
</a>
</g>
</g>
<!-- Node1&#45;&gt;Node9 -->
<g id="edge8" class="edge">
<title>Node1&#45;&gt;Node9</title>
<path fill="none" stroke="midnightblue" d="M704.75,-73.68C787.54,-65.06 921.04,-49.87 1035.5,-31 1038.44,-30.52 1041.44,-29.99 1044.47,-29.45"/>
<polygon fill="midnightblue" stroke="midnightblue" points="704.25,-70.21 694.66,-74.72 704.97,-77.18 704.25,-70.21"/>
</g>
</g>
</svg>
