<?xml version="1.0" encoding="UTF-8" standalone="no"?>
<!DOCTYPE svg PUBLIC "-//W3C//DTD SVG 1.1//EN"
 "http://www.w3.org/Graphics/SVG/1.1/DTD/svg11.dtd">
<!-- Generated by graphviz version 2.43.0 (0)
 -->
<!-- Title: src/core/auth/ProfileMerger.cpp Pages: 1 -->
<svg width="828pt" height="375pt"
 viewBox="0.00 0.00 827.99 375.00" xmlns="http://www.w3.org/2000/svg" xmlns:xlink="http://www.w3.org/1999/xlink">
<g id="graph0" class="graph" transform="scale(1 1) rotate(0) translate(4 371)">
<title>src/core/auth/ProfileMerger.cpp</title>
<polygon fill="white" stroke="transparent" points="-4,4 -4,-371 823.99,-371 823.99,4 -4,4"/>
<!-- Node1 -->
<g id="node1" class="node">
<title>Node1</title>
<g id="a_node1"><a xlink:title=" ">
<polygon fill="#bfbfbf" stroke="black" points="140.99,-347.5 140.99,-366.5 307.99,-366.5 307.99,-347.5 140.99,-347.5"/>
<text text-anchor="middle" x="224.49" y="-354.5" font-family="Helvetica,sans-Serif" font-size="10.00">src/core/auth/ProfileMerger.cpp</text>
</a>
</g>
</g>
<!-- Node2 -->
<g id="node2" class="node">
<title>Node2</title>
<g id="a_node2"><a xlink:href="../../de/da4/ProfileMerger_8hpp.html" target="_top" xlink:title=" ">
<polygon fill="white" stroke="black" points="36.49,-291.5 36.49,-310.5 138.49,-310.5 138.49,-291.5 36.49,-291.5"/>
<text text-anchor="middle" x="87.49" y="-298.5" font-family="Helvetica,sans-Serif" font-size="10.00">ProfileMerger.hpp</text>
</a>
</g>
</g>
<!-- Node1&#45;&gt;Node2 -->
<g id="edge1" class="edge">
<title>Node1&#45;&gt;Node2</title>
<path fill="none" stroke="midnightblue" d="M202.78,-347.44C180.14,-338.52 144.42,-324.44 118.74,-314.32"/>
<polygon fill="midnightblue" stroke="midnightblue" points="119.68,-310.93 109.1,-310.52 117.12,-317.44 119.68,-310.93"/>
</g>
<!-- Node15 -->
<g id="node15" class="node">
<title>Node15</title>
<g id="a_node15"><a xlink:href="../../d9/dfe/SimpleAccessProfile_8hpp.html" target="_top" xlink:title=" ">
<polygon fill="white" stroke="black" points="156.49,-291.5 156.49,-310.5 292.49,-310.5 292.49,-291.5 156.49,-291.5"/>
<text text-anchor="middle" x="224.49" y="-298.5" font-family="Helvetica,sans-Serif" font-size="10.00">SimpleAccessProfile.hpp</text>
</a>
</g>
</g>
<!-- Node1&#45;&gt;Node15 -->
<g id="edge20" class="edge">
<title>Node1&#45;&gt;Node15</title>
<path fill="none" stroke="midnightblue" d="M224.49,-347.08C224.49,-340.01 224.49,-329.86 224.49,-320.99"/>
<polygon fill="midnightblue" stroke="midnightblue" points="227.99,-320.75 224.49,-310.75 220.99,-320.75 227.99,-320.75"/>
</g>
<!-- Node20 -->
<g id="node20" class="node">
<title>Node20</title>
<g id="a_node20"><a xlink:title=" ">
<polygon fill="white" stroke="#bfbfbf" points="310.49,-291.5 310.49,-310.5 362.49,-310.5 362.49,-291.5 310.49,-291.5"/>
<text text-anchor="middle" x="336.49" y="-298.5" font-family="Helvetica,sans-Serif" font-size="10.00">cassert</text>
</a>
</g>
</g>
<!-- Node1&#45;&gt;Node20 -->
<g id="edge33" class="edge">
<title>Node1&#45;&gt;Node20</title>
<path fill="none" stroke="midnightblue" d="M242.48,-347.32C260.53,-338.62 288.54,-325.12 309.29,-315.11"/>
<polygon fill="midnightblue" stroke="midnightblue" points="311.05,-318.15 318.54,-310.65 308.01,-311.84 311.05,-318.15"/>
</g>
<!-- Node3 -->
<g id="node3" class="node">
<title>Node3</title>
<g id="a_node3"><a xlink:href="../../d4/d86/IAccessProfile_8hpp.html" target="_top" xlink:title=" ">
<polygon fill="white" stroke="black" points="29.49,-224.5 29.49,-254.5 143.49,-254.5 143.49,-224.5 29.49,-224.5"/>
<text text-anchor="start" x="37.49" y="-242.5" font-family="Helvetica,sans-Serif" font-size="10.00">core/auth/Interfaces</text>
<text text-anchor="middle" x="86.49" y="-231.5" font-family="Helvetica,sans-Serif" font-size="10.00">/IAccessProfile.hpp</text>
</a>
</g>
</g>
<!-- Node2&#45;&gt;Node3 -->
<g id="edge2" class="edge">
<title>Node2&#45;&gt;Node3</title>
<path fill="none" stroke="midnightblue" d="M87.35,-291.48C87.23,-284.47 87.06,-274.19 86.9,-264.7"/>
<polygon fill="midnightblue" stroke="midnightblue" points="90.39,-264.46 86.73,-254.52 83.39,-264.58 90.39,-264.46"/>
</g>
<!-- Node4 -->
<g id="node4" class="node">
<title>Node4</title>
<g id="a_node4"><a xlink:href="../../d1/d04/AuthTarget_8hpp.html" target="_top" xlink:title=" ">
<polygon fill="white" stroke="black" points="319.99,-168.5 319.99,-187.5 458.99,-187.5 458.99,-168.5 319.99,-168.5"/>
<text text-anchor="middle" x="389.49" y="-175.5" font-family="Helvetica,sans-Serif" font-size="10.00">core/auth/AuthTarget.hpp</text>
</a>
</g>
</g>
<!-- Node3&#45;&gt;Node4 -->
<g id="edge3" class="edge">
<title>Node3&#45;&gt;Node4</title>
<path fill="none" stroke="midnightblue" d="M143.84,-227.24C199.12,-216.38 282.12,-200.08 336.05,-189.49"/>
<polygon fill="midnightblue" stroke="midnightblue" points="336.96,-192.88 346.1,-187.52 335.61,-186.01 336.96,-192.88"/>
</g>
<!-- Node6 -->
<g id="node6" class="node">
<title>Node6</title>
<g id="a_node6"><a xlink:title=" ">
<polygon fill="white" stroke="#bfbfbf" points="86.49,-56.5 86.49,-75.5 136.49,-75.5 136.49,-56.5 86.49,-56.5"/>
<text text-anchor="middle" x="111.49" y="-63.5" font-family="Helvetica,sans-Serif" font-size="10.00">chrono</text>
</a>
</g>
</g>
<!-- Node3&#45;&gt;Node6 -->
<g id="edge18" class="edge">
<title>Node3&#45;&gt;Node6</title>
<path fill="none" stroke="midnightblue" d="M88.54,-224.47C93.02,-193.7 103.72,-120.33 108.76,-85.7"/>
<polygon fill="midnightblue" stroke="midnightblue" points="112.26,-85.96 110.24,-75.56 105.34,-84.95 112.26,-85.96"/>
</g>
<!-- Node12 -->
<g id="node12" class="node">
<title>Node12</title>
<g id="a_node12"><a xlink:title=" ">
<polygon fill="white" stroke="#bfbfbf" points="135.49,-0.5 135.49,-19.5 193.49,-19.5 193.49,-0.5 135.49,-0.5"/>
<text text-anchor="middle" x="164.49" y="-7.5" font-family="Helvetica,sans-Serif" font-size="10.00">memory</text>
</a>
</g>
</g>
<!-- Node3&#45;&gt;Node12 -->
<g id="edge19" class="edge">
<title>Node3&#45;&gt;Node12</title>
<path fill="none" stroke="midnightblue" d="M80.83,-224.39C68.79,-191.91 44.34,-110.47 77.49,-56 88.01,-38.72 107.54,-27.78 125.43,-21.02"/>
<polygon fill="midnightblue" stroke="midnightblue" points="126.82,-24.25 135.14,-17.68 124.55,-17.63 126.82,-24.25"/>
</g>
<!-- Node5 -->
<g id="node5" class="node">
<title>Node5</title>
<g id="a_node5"><a xlink:href="../../de/df0/FGPIO_8hpp.html" target="_top" xlink:title=" ">
<polygon fill="white" stroke="black" points="243.49,-112.5 243.49,-131.5 401.49,-131.5 401.49,-112.5 243.49,-112.5"/>
<text text-anchor="middle" x="322.49" y="-119.5" font-family="Helvetica,sans-Serif" font-size="10.00">hardware/facades/FGPIO.hpp</text>
</a>
</g>
</g>
<!-- Node4&#45;&gt;Node5 -->
<g id="edge4" class="edge">
<title>Node4&#45;&gt;Node5</title>
<path fill="none" stroke="midnightblue" d="M378.73,-168.32C368.72,-160.26 353.6,-148.08 341.56,-138.37"/>
<polygon fill="midnightblue" stroke="midnightblue" points="343.43,-135.38 333.45,-131.83 339.04,-140.83 343.43,-135.38"/>
</g>
<!-- Node7 -->
<g id="node7" class="node">
<title>Node7</title>
<g id="a_node7"><a xlink:title=" ">
<polygon fill="white" stroke="#bfbfbf" points="435.49,-56.5 435.49,-75.5 479.49,-75.5 479.49,-56.5 435.49,-56.5"/>
<text text-anchor="middle" x="457.49" y="-63.5" font-family="Helvetica,sans-Serif" font-size="10.00">string</text>
</a>
</g>
</g>
<!-- Node4&#45;&gt;Node7 -->
<g id="edge17" class="edge">
<title>Node4&#45;&gt;Node7</title>
<path fill="none" stroke="midnightblue" d="M394.83,-168.37C406,-150.3 432.04,-108.18 446.79,-84.31"/>
<polygon fill="midnightblue" stroke="midnightblue" points="449.9,-85.94 452.18,-75.59 443.94,-82.26 449.9,-85.94"/>
</g>
<!-- Node10 -->
<g id="node10" class="node">
<title>Node10</title>
<g id="a_node10"><a xlink:href="../../d6/dab/ISchedule_8hpp.html" target="_top" xlink:title=" ">
<polygon fill="white" stroke="black" points="457.49,-112.5 457.49,-131.5 569.49,-131.5 569.49,-112.5 457.49,-112.5"/>
<text text-anchor="middle" x="513.49" y="-119.5" font-family="Helvetica,sans-Serif" font-size="10.00">tools/ISchedule.hpp</text>
</a>
</g>
</g>
<!-- Node4&#45;&gt;Node10 -->
<g id="edge9" class="edge">
<title>Node4&#45;&gt;Node10</title>
<path fill="none" stroke="midnightblue" d="M409.14,-168.44C429.45,-159.6 461.39,-145.69 484.59,-135.59"/>
<polygon fill="midnightblue" stroke="midnightblue" points="486.16,-138.72 493.93,-131.52 483.37,-132.3 486.16,-138.72"/>
</g>
<!-- Node4&#45;&gt;Node12 -->
<g id="edge16" class="edge">
<title>Node4&#45;&gt;Node12</title>
<path fill="none" stroke="midnightblue" d="M332.91,-168.46C302.07,-161.93 264.24,-150.75 234.49,-132 206.26,-114.21 200.89,-105.06 184.49,-76 176.33,-61.54 171.1,-43.35 168.04,-29.9"/>
<polygon fill="midnightblue" stroke="midnightblue" points="171.43,-28.97 165.97,-19.89 164.57,-30.39 171.43,-28.97"/>
</g>
<!-- Node5&#45;&gt;Node6 -->
<g id="edge5" class="edge">
<title>Node5&#45;&gt;Node6</title>
<path fill="none" stroke="midnightblue" d="M289.06,-112.44C250.04,-102.46 185.83,-86.03 146.25,-75.9"/>
<polygon fill="midnightblue" stroke="midnightblue" points="147.06,-72.49 136.51,-73.4 145.33,-79.27 147.06,-72.49"/>
</g>
<!-- Node5&#45;&gt;Node7 -->
<g id="edge6" class="edge">
<title>Node5&#45;&gt;Node7</title>
<path fill="none" stroke="midnightblue" d="M343.88,-112.44C366.2,-103.52 401.39,-89.44 426.7,-79.32"/>
<polygon fill="midnightblue" stroke="midnightblue" points="428.21,-82.48 436.2,-75.52 425.61,-75.98 428.21,-82.48"/>
</g>
<!-- Node8 -->
<g id="node8" class="node">
<title>Node8</title>
<g id="a_node8"><a xlink:title=" ">
<polygon fill="white" stroke="#bfbfbf" points="315.99,-56.5 315.99,-75.5 416.99,-75.5 416.99,-56.5 315.99,-56.5"/>
<text text-anchor="middle" x="366.49" y="-63.5" font-family="Helvetica,sans-Serif" font-size="10.00">zmqpp/poller.hpp</text>
</a>
</g>
</g>
<!-- Node5&#45;&gt;Node8 -->
<g id="edge7" class="edge">
<title>Node5&#45;&gt;Node8</title>
<path fill="none" stroke="midnightblue" d="M329.76,-112.08C336.03,-104.38 345.28,-93.03 352.92,-83.65"/>
<polygon fill="midnightblue" stroke="midnightblue" points="355.76,-85.71 359.36,-75.75 350.33,-81.29 355.76,-85.71"/>
</g>
<!-- Node9 -->
<g id="node9" class="node">
<title>Node9</title>
<g id="a_node9"><a xlink:title=" ">
<polygon fill="white" stroke="#bfbfbf" points="192.99,-56.5 192.99,-75.5 297.99,-75.5 297.99,-56.5 192.99,-56.5"/>
<text text-anchor="middle" x="245.49" y="-63.5" font-family="Helvetica,sans-Serif" font-size="10.00">zmqpp/socket.hpp</text>
</a>
</g>
</g>
<!-- Node5&#45;&gt;Node9 -->
<g id="edge8" class="edge">
<title>Node5&#45;&gt;Node9</title>
<path fill="none" stroke="midnightblue" d="M310.12,-112.32C298.33,-104.06 280.36,-91.45 266.35,-81.63"/>
<polygon fill="midnightblue" stroke="midnightblue" points="268.03,-78.53 257.83,-75.65 264.01,-84.26 268.03,-78.53"/>
</g>
<!-- Node10&#45;&gt;Node6 -->
<g id="edge13" class="edge">
<title>Node10&#45;&gt;Node6</title>
<path fill="none" stroke="midnightblue" d="M457.17,-113.43C372.9,-102.11 216.46,-81.1 146.67,-71.73"/>
<polygon fill="midnightblue" stroke="midnightblue" points="147.01,-68.24 136.63,-70.38 146.08,-75.18 147.01,-68.24"/>
</g>
<!-- Node10&#45;&gt;Node7 -->
<g id="edge14" class="edge">
<title>Node10&#45;&gt;Node7</title>
<path fill="none" stroke="midnightblue" d="M504.49,-112.32C496.3,-104.42 483.98,-92.55 474.02,-82.94"/>
<polygon fill="midnightblue" stroke="midnightblue" points="476.28,-80.26 466.65,-75.83 471.42,-85.29 476.28,-80.26"/>
</g>
<!-- Node11 -->
<g id="node11" class="node">
<title>Node11</title>
<g id="a_node11"><a xlink:href="../../d8/d97/ToolsFwd_8hpp.html" target="_top" xlink:title=" ">
<polygon fill="white" stroke="black" points="497.49,-56.5 497.49,-75.5 607.49,-75.5 607.49,-56.5 497.49,-56.5"/>
<text text-anchor="middle" x="552.49" y="-63.5" font-family="Helvetica,sans-Serif" font-size="10.00">tools/ToolsFwd.hpp</text>
</a>
</g>
</g>
<!-- Node10&#45;&gt;Node11 -->
<g id="edge10" class="edge">
<title>Node10&#45;&gt;Node11</title>
<path fill="none" stroke="midnightblue" d="M519.93,-112.08C525.44,-104.46 533.52,-93.26 540.26,-83.94"/>
<polygon fill="midnightblue" stroke="midnightblue" points="543.15,-85.91 546.17,-75.75 537.48,-81.81 543.15,-85.91"/>
</g>
<!-- Node14 -->
<g id="node14" class="node">
<title>Node14</title>
<g id="a_node14"><a xlink:title=" ">
<polygon fill="white" stroke="#bfbfbf" points="625.99,-56.5 625.99,-75.5 672.99,-75.5 672.99,-56.5 625.99,-56.5"/>
<text text-anchor="middle" x="649.49" y="-63.5" font-family="Helvetica,sans-Serif" font-size="10.00">vector</text>
</a>
</g>
</g>
<!-- Node10&#45;&gt;Node14 -->
<g id="edge15" class="edge">
<title>Node10&#45;&gt;Node14</title>
<path fill="none" stroke="midnightblue" d="M535.04,-112.44C557.52,-103.52 592.98,-89.44 618.47,-79.32"/>
<polygon fill="midnightblue" stroke="midnightblue" points="620.04,-82.46 628.04,-75.52 617.46,-75.95 620.04,-82.46"/>
</g>
<!-- Node11&#45;&gt;Node12 -->
<g id="edge11" class="edge">
<title>Node11&#45;&gt;Node12</title>
<path fill="none" stroke="midnightblue" d="M497.33,-57.24C494.34,-56.82 491.38,-56.4 488.49,-56 385.61,-41.62 264.33,-24.82 203.48,-16.39"/>
<polygon fill="midnightblue" stroke="midnightblue" points="203.92,-12.92 193.54,-15.02 202.96,-19.86 203.92,-12.92"/>
</g>
<!-- Node13 -->
<g id="node13" class="node">
<title>Node13</title>
<g id="a_node13"><a xlink:title=" ">
<polygon fill="white" stroke="#bfbfbf" points="559.99,-0.5 559.99,-19.5 654.99,-19.5 654.99,-0.5 559.99,-0.5"/>
<text text-anchor="middle" x="607.49" y="-7.5" font-family="Helvetica,sans-Serif" font-size="10.00">odb/lazy&#45;ptr.hxx</text>
</a>
</g>
</g>
<!-- Node11&#45;&gt;Node13 -->
<g id="edge12" class="edge">
<title>Node11&#45;&gt;Node13</title>
<path fill="none" stroke="midnightblue" d="M561.57,-56.08C569.66,-48.14 581.69,-36.34 591.4,-26.8"/>
<polygon fill="midnightblue" stroke="midnightblue" points="593.89,-29.25 598.58,-19.75 588.99,-24.26 593.89,-29.25"/>
</g>
<!-- Node15&#45;&gt;Node3 -->
<g id="edge26" class="edge">
<title>Node15&#45;&gt;Node3</title>
<path fill="none" stroke="midnightblue" d="M204.72,-291.48C184.89,-282.93 153.75,-269.5 128.41,-258.57"/>
<polygon fill="midnightblue" stroke="midnightblue" points="129.58,-255.27 119.01,-254.52 126.81,-261.7 129.58,-255.27"/>
</g>
<!-- Node15&#45;&gt;Node4 -->
<g id="edge25" class="edge">
<title>Node15&#45;&gt;Node4</title>
<path fill="none" stroke="midnightblue" d="M240.47,-291.4C255.98,-282.83 279.98,-268.96 299.49,-255 326.37,-235.78 355.16,-210.55 372.76,-194.55"/>
<polygon fill="midnightblue" stroke="midnightblue" points="375.43,-196.84 380.43,-187.5 370.7,-191.69 375.43,-196.84"/>
</g>
<!-- Node15&#45;&gt;Node6 -->
<g id="edge29" class="edge">
<title>Node15&#45;&gt;Node6</title>
<path fill="none" stroke="midnightblue" d="M216.41,-291.46C200.02,-273.67 162.67,-230.71 142.49,-188 126.34,-153.81 117.8,-110.05 114.01,-85.63"/>
<polygon fill="midnightblue" stroke="midnightblue" points="117.45,-84.99 112.55,-75.59 110.52,-85.99 117.45,-84.99"/>
</g>
<!-- Node15&#45;&gt;Node12 -->
<g id="edge31" class="edge">
<title>Node15&#45;&gt;Node12</title>
<path fill="none" stroke="midnightblue" d="M172.62,-291.47C115.85,-281.68 31.41,-265.62 20.49,-255 -4.47,-230.73 1.49,-213.82 1.49,-179 1.49,-179 1.49,-179 1.49,-121 1.49,-61.4 77.3,-31.93 125.52,-19.22"/>
<polygon fill="midnightblue" stroke="midnightblue" points="126.5,-22.58 135.35,-16.75 124.8,-15.79 126.5,-22.58"/>
</g>
<!-- Node15&#45;&gt;Node14 -->
<g id="edge32" class="edge">
<title>Node15&#45;&gt;Node14</title>
<path fill="none" stroke="midnightblue" d="M249.13,-291.49C308.9,-270.21 464.99,-210.67 578.49,-132 599.39,-117.52 620.52,-97.29 634.23,-83.26"/>
<polygon fill="midnightblue" stroke="midnightblue" points="636.99,-85.45 641.39,-75.81 631.94,-80.6 636.99,-85.45"/>
</g>
<!-- Node16 -->
<g id="node16" class="node">
<title>Node16</title>
<g id="a_node16"><a xlink:href="../../d3/d6f/AuthFwd_8hpp.html" target="_top" xlink:title=" ">
<polygon fill="white" stroke="black" points="690.99,-56.5 690.99,-75.5 819.99,-75.5 819.99,-56.5 690.99,-56.5"/>
<text text-anchor="middle" x="755.49" y="-63.5" font-family="Helvetica,sans-Serif" font-size="10.00">core/auth/AuthFwd.hpp</text>
</a>
</g>
</g>
<!-- Node15&#45;&gt;Node16 -->
<g id="edge21" class="edge">
<title>Node15&#45;&gt;Node16</title>
<path fill="none" stroke="midnightblue" d="M266.62,-291.48C301.31,-283.82 351.45,-271.29 393.49,-255 527.7,-203 676.98,-115.07 732.8,-81.04"/>
<polygon fill="midnightblue" stroke="midnightblue" points="734.83,-83.9 741.53,-75.69 731.18,-77.93 734.83,-83.9"/>
</g>
<!-- Node18 -->
<g id="node18" class="node">
<title>Node18</title>
<g id="a_node18"><a xlink:href="../../df/dfe/SingleTimeFrame_8hpp.html" target="_top" xlink:title=" ">
<polygon fill="white" stroke="black" points="151.49,-168.5 151.49,-187.5 301.49,-187.5 301.49,-168.5 151.49,-168.5"/>
<text text-anchor="middle" x="226.49" y="-175.5" font-family="Helvetica,sans-Serif" font-size="10.00">tools/SingleTimeFrame.hpp</text>
</a>
</g>
</g>
<!-- Node15&#45;&gt;Node18 -->
<g id="edge27" class="edge">
<title>Node15&#45;&gt;Node18</title>
<path fill="none" stroke="midnightblue" d="M224.63,-291.3C224.96,-271.85 225.74,-224.49 226.18,-197.9"/>
<polygon fill="midnightblue" stroke="midnightblue" points="229.68,-197.68 226.35,-187.62 222.68,-197.56 229.68,-197.68"/>
</g>
<!-- Node19 -->
<g id="node19" class="node">
<title>Node19</title>
<g id="a_node19"><a xlink:title=" ">
<polygon fill="white" stroke="#bfbfbf" points="252.49,-230 252.49,-249 290.49,-249 290.49,-230 252.49,-230"/>
<text text-anchor="middle" x="271.49" y="-237" font-family="Helvetica,sans-Serif" font-size="10.00">map</text>
</a>
</g>
</g>
<!-- Node15&#45;&gt;Node19 -->
<g id="edge30" class="edge">
<title>Node15&#45;&gt;Node19</title>
<path fill="none" stroke="midnightblue" d="M231.22,-291.48C238.27,-282.55 249.52,-268.31 258.34,-257.14"/>
<polygon fill="midnightblue" stroke="midnightblue" points="261.32,-259.03 264.77,-249.01 255.82,-254.69 261.32,-259.03"/>
</g>
<!-- Node16&#45;&gt;Node12 -->
<g id="edge23" class="edge">
<title>Node16&#45;&gt;Node12</title>
<path fill="none" stroke="midnightblue" d="M690.63,-56.88C687.88,-56.57 685.16,-56.28 682.49,-56 504.1,-37.26 290.54,-20.5 203.9,-13.94"/>
<polygon fill="midnightblue" stroke="midnightblue" points="203.97,-10.43 193.73,-13.17 203.44,-17.41 203.97,-10.43"/>
</g>
<!-- Node16&#45;&gt;Node13 -->
<g id="edge24" class="edge">
<title>Node16&#45;&gt;Node13</title>
<path fill="none" stroke="midnightblue" d="M732.04,-56.44C707.36,-47.44 668.3,-33.19 640.51,-23.05"/>
<polygon fill="midnightblue" stroke="midnightblue" points="641.43,-19.66 630.83,-19.52 639.03,-26.23 641.43,-19.66"/>
</g>
<!-- Node17 -->
<g id="node17" class="node">
<title>Node17</title>
<g id="a_node17"><a xlink:title=" ">
<polygon fill="white" stroke="#bfbfbf" points="728.99,-0.5 728.99,-19.5 781.99,-19.5 781.99,-0.5 728.99,-0.5"/>
<text text-anchor="middle" x="755.49" y="-7.5" font-family="Helvetica,sans-Serif" font-size="10.00">cstddef</text>
</a>
</g>
</g>
<!-- Node16&#45;&gt;Node17 -->
<g id="edge22" class="edge">
<title>Node16&#45;&gt;Node17</title>
<path fill="none" stroke="midnightblue" d="M755.49,-56.08C755.49,-49.01 755.49,-38.86 755.49,-29.99"/>
<polygon fill="midnightblue" stroke="midnightblue" points="758.99,-29.75 755.49,-19.75 751.99,-29.75 758.99,-29.75"/>
</g>
<!-- Node18&#45;&gt;Node6 -->
<g id="edge28" class="edge">
<title>Node18&#45;&gt;Node6</title>
<path fill="none" stroke="midnightblue" d="M217.47,-168.37C198.15,-149.89 152.57,-106.29 127.95,-82.74"/>
<polygon fill="midnightblue" stroke="midnightblue" points="130.12,-79.97 120.47,-75.59 125.28,-85.03 130.12,-79.97"/>
</g>
</g>
</svg>
