<?xml version="1.0" encoding="UTF-8" standalone="no"?>
<!DOCTYPE svg PUBLIC "-//W3C//DTD SVG 1.1//EN"
 "http://www.w3.org/Graphics/SVG/1.1/DTD/svg11.dtd">
<!-- Generated by graphviz version 2.43.0 (0)
 -->
<!-- Title: src/modules/websock&#45;api/api/ScheduleCRUD.hpp Pages: 1 -->
<!--zoomable 397 -->
<svg id="main" version="1.1" xmlns="http://www.w3.org/2000/svg" xmlns:xlink="http://www.w3.org/1999/xlink" xml:space="preserve" onload="init(evt)">
<style type="text/css"><![CDATA[
.edge:hover path { stroke: red; }
.edge:hover polygon { stroke: red; fill: red; }
]]></style>
<script type="text/javascript"><![CDATA[
var edges = document.getElementsByTagName('g');
if (edges && edges.length) {
  for (var i=0;i<edges.length;i++) {
    if (edges[i].id.substr(0,4)=='edge') {
      edges[i].setAttribute('class','edge');
    }
  }
}
]]></script>
        <defs>
                <circle id="rim" cx="0" cy="0" r="7"/>
                <circle id="rim2" cx="0" cy="0" r="3.5"/>
                <g id="zoomPlus">
                        <use xlink:href="#rim" fill="#404040">
                                <set attributeName="fill" to="#808080" begin="zoomplus.mouseover" end="zoomplus.mouseout"/>
                        </use>
                        <path d="M-4,0h8M0,-4v8" fill="none" stroke="white" stroke-width="1.5" pointer-events="none"/>
                </g>
                <g id="zoomMin">
                        <use xlink:href="#rim" fill="#404040">
                                <set attributeName="fill" to="#808080" begin="zoomminus.mouseover" end="zoomminus.mouseout"/>
                        </use>
                        <path d="M-4,0h8" fill="none" stroke="white" stroke-width="1.5" pointer-events="none"/>
                </g>
                <g id="dirArrow">
                        <path fill="none" stroke="white" stroke-width="1.5" d="M0,-3.0v7 M-2.5,-0.5L0,-3.0L2.5,-0.5"/>
                </g>
               <g id="resetDef">
                       <use xlink:href="#rim2" fill="#404040">
                               <set attributeName="fill" to="#808080" begin="reset.mouseover" end="reset.mouseout"/>
                       </use>
               </g>
        </defs>

<script type="text/javascript">
var viewWidth = 1284;
var viewHeight = 397;
var sectionId = 'dynsection-0';
</script>
<script xlink:href="../../svgpan.js"/>
<svg id="graph" class="graph">
<g id="viewport">
<title>src/modules/websock&#45;api/api/ScheduleCRUD.hpp</title>
<polygon fill="white" stroke="transparent" points="-4,4 -4,-393 1279.5,-393 1279.5,4 -4,4"/>
<!-- Node1 -->
<g id="node1" class="node">
<title>Node1</title>
<g id="a_node1"><a xlink:title=" ">
<polygon fill="#bfbfbf" stroke="black" points="787.5,-358.5 787.5,-388.5 937.5,-388.5 937.5,-358.5 787.5,-358.5"/>
<text text-anchor="start" x="795.5" y="-376.5" font-family="Helvetica,sans-Serif" font-size="10.00">src/modules/websock</text>
<text text-anchor="middle" x="862.5" y="-365.5" font-family="Helvetica,sans-Serif" font-size="10.00">&#45;api/api/ScheduleCRUD.hpp</text>
</a>
</g>
</g>
<!-- Node2 -->
<g id="node2" class="node">
<title>Node2</title>
<g id="a_node2"><a xlink:href="../../dc/df4/CRUDResourceHandler_8hpp.html" target="_top" xlink:title=" ">
<polygon fill="white" stroke="black" points="911,-302.5 911,-321.5 1078,-321.5 1078,-302.5 911,-302.5"/>
<text text-anchor="middle" x="994.5" y="-309.5" font-family="Helvetica,sans-Serif" font-size="10.00">api/CRUDResourceHandler.hpp</text>
</a>
</g>
</g>
<!-- Node1&#45;&gt;Node2 -->
<g id="edge1" class="edge">
<title>Node1&#45;&gt;Node2</title>
<path fill="none" stroke="midnightblue" d="M893.78,-358.4C915.73,-348.51 944.84,-335.38 966.12,-325.79"/>
<polygon fill="midnightblue" stroke="midnightblue" points="967.61,-328.96 975.29,-321.66 964.74,-322.58 967.61,-328.96"/>
</g>
<!-- Node20 -->
<g id="node20" class="node">
<title>Node20</title>
<g id="a_node20"><a xlink:href="../../d8/d97/ToolsFwd_8hpp.html" target="_top" xlink:title=" ">
<polygon fill="white" stroke="black" points="638.5,-118 638.5,-137 748.5,-137 748.5,-118 638.5,-118"/>
<text text-anchor="middle" x="693.5" y="-125" font-family="Helvetica,sans-Serif" font-size="10.00">tools/ToolsFwd.hpp</text>
</a>
</g>
</g>
<!-- Node1&#45;&gt;Node20 -->
<g id="edge45" class="edge">
<title>Node1&#45;&gt;Node20</title>
<path fill="none" stroke="midnightblue" d="M852.68,-358.33C823.42,-316.08 736.87,-191.11 705.24,-145.45"/>
<polygon fill="midnightblue" stroke="midnightblue" points="708.09,-143.42 699.52,-137.2 702.34,-147.41 708.09,-143.42"/>
</g>
<!-- Node3 -->
<g id="node3" class="node">
<title>Node3</title>
<g id="a_node3"><a xlink:href="../../df/d2f/UserSecurityContext_8hpp.html" target="_top" xlink:title=" ">
<polygon fill="white" stroke="black" points="377.5,-241 377.5,-260 539.5,-260 539.5,-241 377.5,-241"/>
<text text-anchor="middle" x="458.5" y="-248" font-family="Helvetica,sans-Serif" font-size="10.00">core/UserSecurityContext.hpp</text>
</a>
</g>
</g>
<!-- Node2&#45;&gt;Node3 -->
<g id="edge2" class="edge">
<title>Node2&#45;&gt;Node3</title>
<path fill="none" stroke="midnightblue" d="M917.7,-302.48C819.09,-291.53 648.42,-272.58 545.23,-261.13"/>
<polygon fill="midnightblue" stroke="midnightblue" points="545.48,-257.63 535.15,-260.01 544.71,-264.59 545.48,-257.63"/>
</g>
<!-- Node22 -->
<g id="node22" class="node">
<title>Node22</title>
<g id="a_node22"><a xlink:href="../../dd/d46/RequestContext_8hpp.html" target="_top" xlink:title=" ">
<polygon fill="white" stroke="black" points="818,-235.5 818,-265.5 941,-265.5 941,-235.5 818,-235.5"/>
<text text-anchor="start" x="826" y="-253.5" font-family="Helvetica,sans-Serif" font-size="10.00">modules/websock&#45;api</text>
<text text-anchor="middle" x="879.5" y="-242.5" font-family="Helvetica,sans-Serif" font-size="10.00">/RequestContext.hpp</text>
</a>
</g>
</g>
<!-- Node2&#45;&gt;Node22 -->
<g id="edge31" class="edge">
<title>Node2&#45;&gt;Node22</title>
<path fill="none" stroke="midnightblue" d="M978.02,-302.48C961.79,-294.08 936.46,-280.97 915.55,-270.15"/>
<polygon fill="midnightblue" stroke="midnightblue" points="917.09,-267.01 906.6,-265.52 913.88,-273.23 917.09,-267.01"/>
</g>
<!-- Node24 -->
<g id="node24" class="node">
<title>Node24</title>
<g id="a_node24"><a xlink:title=" ">
<polygon fill="white" stroke="#bfbfbf" points="975,-118 975,-137 1022,-137 1022,-118 975,-118"/>
<text text-anchor="middle" x="998.5" y="-125" font-family="Helvetica,sans-Serif" font-size="10.00">vector</text>
</a>
</g>
</g>
<!-- Node2&#45;&gt;Node24 -->
<g id="edge44" class="edge">
<title>Node2&#45;&gt;Node24</title>
<path fill="none" stroke="midnightblue" d="M1001.11,-302.34C1014.4,-284.31 1043.98,-240.93 1054.5,-199 1056.66,-190.38 1058.11,-187.12 1054.5,-179 1047.82,-163.98 1034.23,-151.55 1022.11,-142.78"/>
<polygon fill="midnightblue" stroke="midnightblue" points="1023.9,-139.77 1013.66,-137.05 1019.97,-145.56 1023.9,-139.77"/>
</g>
<!-- Node25 -->
<g id="node25" class="node">
<title>Node25</title>
<g id="a_node25"><a xlink:href="../../d8/d8b/WebSockFwd_8hpp.html" target="_top" xlink:title=" ">
<polygon fill="white" stroke="black" points="943.5,-179.5 943.5,-198.5 1045.5,-198.5 1045.5,-179.5 943.5,-179.5"/>
<text text-anchor="middle" x="994.5" y="-186.5" font-family="Helvetica,sans-Serif" font-size="10.00">WebSockFwd.hpp</text>
</a>
</g>
</g>
<!-- Node2&#45;&gt;Node25 -->
<g id="edge41" class="edge">
<title>Node2&#45;&gt;Node25</title>
<path fill="none" stroke="midnightblue" d="M994.5,-302.3C994.5,-282.85 994.5,-235.49 994.5,-208.9"/>
<polygon fill="midnightblue" stroke="midnightblue" points="998,-208.62 994.5,-198.62 991,-208.62 998,-208.62"/>
</g>
<!-- Node26 -->
<g id="node26" class="node">
<title>Node26</title>
<g id="a_node26"><a xlink:title=" ">
<polygon fill="white" stroke="#bfbfbf" points="1040,-118 1040,-137 1147,-137 1147,-118 1040,-118"/>
<text text-anchor="middle" x="1093.5" y="-125" font-family="Helvetica,sans-Serif" font-size="10.00">boost/optional.hpp</text>
</a>
</g>
</g>
<!-- Node2&#45;&gt;Node26 -->
<g id="edge42" class="edge">
<title>Node2&#45;&gt;Node26</title>
<path fill="none" stroke="midnightblue" d="M1008.54,-302.28C1020.46,-294.21 1037.22,-281.2 1047.5,-266 1073.04,-228.25 1085.46,-175.12 1090.55,-147.25"/>
<polygon fill="midnightblue" stroke="midnightblue" points="1094.02,-147.72 1092.25,-137.27 1087.12,-146.54 1094.02,-147.72"/>
</g>
<!-- Node27 -->
<g id="node27" class="node">
<title>Node27</title>
<g id="a_node27"><a xlink:title=" ">
<polygon fill="white" stroke="#bfbfbf" points="1165.5,-118 1165.5,-137 1275.5,-137 1275.5,-118 1165.5,-118"/>
<text text-anchor="middle" x="1220.5" y="-125" font-family="Helvetica,sans-Serif" font-size="10.00">nlohmann/json.hpp</text>
</a>
</g>
</g>
<!-- Node2&#45;&gt;Node27 -->
<g id="edge43" class="edge">
<title>Node2&#45;&gt;Node27</title>
<path fill="none" stroke="midnightblue" d="M1010.89,-302.4C1026.5,-293.93 1050.37,-280.23 1069.5,-266 1122.61,-226.5 1178.56,-171.49 1204.97,-144.59"/>
<polygon fill="midnightblue" stroke="midnightblue" points="1207.7,-146.8 1212.18,-137.2 1202.69,-141.91 1207.7,-146.8"/>
</g>
<!-- Node4 -->
<g id="node4" class="node">
<title>Node4</title>
<g id="a_node4"><a xlink:href="../../d1/d3e/SecurityContext_8hpp.html" target="_top" xlink:title=" ">
<polygon fill="white" stroke="black" points="388.5,-179.5 388.5,-198.5 528.5,-198.5 528.5,-179.5 388.5,-179.5"/>
<text text-anchor="middle" x="458.5" y="-186.5" font-family="Helvetica,sans-Serif" font-size="10.00">core/SecurityContext.hpp</text>
</a>
</g>
</g>
<!-- Node3&#45;&gt;Node4 -->
<g id="edge3" class="edge">
<title>Node3&#45;&gt;Node4</title>
<path fill="none" stroke="midnightblue" d="M458.5,-240.98C458.5,-232.58 458.5,-219.48 458.5,-208.66"/>
<polygon fill="midnightblue" stroke="midnightblue" points="462,-208.51 458.5,-198.51 455,-208.51 462,-208.51"/>
</g>
<!-- Node10 -->
<g id="node10" class="node">
<title>Node10</title>
<g id="a_node10"><a xlink:href="../../d3/d6f/AuthFwd_8hpp.html" target="_top" xlink:title=" ">
<polygon fill="white" stroke="black" points="0,-118 0,-137 129,-137 129,-118 0,-118"/>
<text text-anchor="middle" x="64.5" y="-125" font-family="Helvetica,sans-Serif" font-size="10.00">core/auth/AuthFwd.hpp</text>
</a>
</g>
</g>
<!-- Node3&#45;&gt;Node10 -->
<g id="edge30" class="edge">
<title>Node3&#45;&gt;Node10</title>
<path fill="none" stroke="midnightblue" d="M424.91,-240.97C387.71,-231.37 326.05,-215.02 273.5,-199 211.07,-179.97 139.12,-155.03 98.01,-140.48"/>
<polygon fill="midnightblue" stroke="midnightblue" points="99.08,-137.15 88.49,-137.11 96.74,-143.75 99.08,-137.15"/>
</g>
<!-- Node5 -->
<g id="node5" class="node">
<title>Node5</title>
<g id="a_node5"><a xlink:href="../../d7/dcf/AuditFwd_8hpp.html" target="_top" xlink:title=" ">
<polygon fill="white" stroke="black" points="147,-118 147,-137 282,-137 282,-118 147,-118"/>
<text text-anchor="middle" x="214.5" y="-125" font-family="Helvetica,sans-Serif" font-size="10.00">core/audit/AuditFwd.hpp</text>
</a>
</g>
</g>
<!-- Node4&#45;&gt;Node5 -->
<g id="edge4" class="edge">
<title>Node4&#45;&gt;Node5</title>
<path fill="none" stroke="midnightblue" d="M423.54,-179.48C380.33,-168.94 306.71,-150.99 259.37,-139.44"/>
<polygon fill="midnightblue" stroke="midnightblue" points="259.94,-135.98 249.39,-137.01 258.28,-142.78 259.94,-135.98"/>
</g>
<!-- Node4&#45;&gt;Node10 -->
<g id="edge9" class="edge">
<title>Node4&#45;&gt;Node10</title>
<path fill="none" stroke="midnightblue" d="M389.45,-179.47C324.32,-171.16 224.06,-157.65 137.5,-143 130.32,-141.78 122.76,-140.4 115.34,-138.98"/>
<polygon fill="midnightblue" stroke="midnightblue" points="115.83,-135.51 105.35,-137.04 114.5,-142.38 115.83,-135.51"/>
</g>
<!-- Node11 -->
<g id="node11" class="node">
<title>Node11</title>
<g id="a_node11"><a xlink:href="../../d7/d7f/CredentialFwd_8hpp.html" target="_top" xlink:title=" ">
<polygon fill="white" stroke="black" points="300.5,-112.5 300.5,-142.5 448.5,-142.5 448.5,-112.5 300.5,-112.5"/>
<text text-anchor="start" x="308.5" y="-130.5" font-family="Helvetica,sans-Serif" font-size="10.00">core/credentials/Credential</text>
<text text-anchor="middle" x="374.5" y="-119.5" font-family="Helvetica,sans-Serif" font-size="10.00">Fwd.hpp</text>
</a>
</g>
</g>
<!-- Node4&#45;&gt;Node11 -->
<g id="edge13" class="edge">
<title>Node4&#45;&gt;Node11</title>
<path fill="none" stroke="midnightblue" d="M446.46,-179.48C435.09,-171.42 417.59,-159.02 402.7,-148.47"/>
<polygon fill="midnightblue" stroke="midnightblue" points="404.48,-145.45 394.3,-142.52 400.43,-151.16 404.48,-145.45"/>
</g>
<!-- Node12 -->
<g id="node12" class="node">
<title>Node12</title>
<g id="a_node12"><a xlink:href="../../d9/dc8/HardwareFwd_8hpp.html" target="_top" xlink:title=" ">
<polygon fill="white" stroke="black" points="466.5,-118 466.5,-137 620.5,-137 620.5,-118 466.5,-118"/>
<text text-anchor="middle" x="543.5" y="-125" font-family="Helvetica,sans-Serif" font-size="10.00">hardware/HardwareFwd.hpp</text>
</a>
</g>
</g>
<!-- Node4&#45;&gt;Node12 -->
<g id="edge16" class="edge">
<title>Node4&#45;&gt;Node12</title>
<path fill="none" stroke="midnightblue" d="M470.68,-179.48C484.31,-169.93 506.63,-154.31 522.97,-142.87"/>
<polygon fill="midnightblue" stroke="midnightblue" points="525.16,-145.61 531.34,-137.01 521.14,-139.88 525.16,-145.61"/>
</g>
<!-- Node4&#45;&gt;Node20 -->
<g id="edge25" class="edge">
<title>Node4&#45;&gt;Node20</title>
<path fill="none" stroke="midnightblue" d="M492.17,-179.48C533.7,-168.96 604.39,-151.06 650,-139.51"/>
<polygon fill="midnightblue" stroke="midnightblue" points="651.06,-142.86 659.89,-137.01 649.34,-136.07 651.06,-142.86"/>
</g>
<!-- Node21 -->
<g id="node21" class="node">
<title>Node21</title>
<g id="a_node21"><a xlink:href="../../d9/d69/db__fwd_8hpp.html" target="_top" xlink:title=" ">
<polygon fill="white" stroke="black" points="766.5,-118 766.5,-137 880.5,-137 880.5,-118 766.5,-118"/>
<text text-anchor="middle" x="823.5" y="-125" font-family="Helvetica,sans-Serif" font-size="10.00">tools/db/db_fwd.hpp</text>
</a>
</g>
</g>
<!-- Node4&#45;&gt;Node21 -->
<g id="edge28" class="edge">
<title>Node4&#45;&gt;Node21</title>
<path fill="none" stroke="midnightblue" d="M523.74,-179.46C584.46,-171.21 677.36,-157.82 757.5,-143 763.71,-141.85 770.22,-140.55 776.64,-139.2"/>
<polygon fill="midnightblue" stroke="midnightblue" points="777.54,-142.59 786.59,-137.07 776.08,-135.74 777.54,-142.59"/>
</g>
<!-- Node6 -->
<g id="node6" class="node">
<title>Node6</title>
<g id="a_node6"><a xlink:title=" ">
<polygon fill="white" stroke="#bfbfbf" points="73,-56.5 73,-75.5 126,-75.5 126,-56.5 73,-56.5"/>
<text text-anchor="middle" x="99.5" y="-63.5" font-family="Helvetica,sans-Serif" font-size="10.00">cstddef</text>
</a>
</g>
</g>
<!-- Node5&#45;&gt;Node6 -->
<g id="edge5" class="edge">
<title>Node5&#45;&gt;Node6</title>
<path fill="none" stroke="midnightblue" d="M198.02,-117.98C178.89,-108.08 147.13,-91.64 124.85,-80.12"/>
<polygon fill="midnightblue" stroke="midnightblue" points="126.44,-77 115.95,-75.51 123.22,-83.21 126.44,-77"/>
</g>
<!-- Node7 -->
<g id="node7" class="node">
<title>Node7</title>
<g id="a_node7"><a xlink:title=" ">
<polygon fill="white" stroke="#bfbfbf" points="179,-56.5 179,-75.5 250,-75.5 250,-56.5 179,-56.5"/>
<text text-anchor="middle" x="214.5" y="-63.5" font-family="Helvetica,sans-Serif" font-size="10.00">flagset.hpp</text>
</a>
</g>
</g>
<!-- Node5&#45;&gt;Node7 -->
<g id="edge6" class="edge">
<title>Node5&#45;&gt;Node7</title>
<path fill="none" stroke="midnightblue" d="M214.5,-117.98C214.5,-109.58 214.5,-96.48 214.5,-85.66"/>
<polygon fill="midnightblue" stroke="midnightblue" points="218,-85.51 214.5,-75.51 211,-85.51 218,-85.51"/>
</g>
<!-- Node8 -->
<g id="node8" class="node">
<title>Node8</title>
<g id="a_node8"><a xlink:title=" ">
<polygon fill="white" stroke="#bfbfbf" points="634.5,-56.5 634.5,-75.5 692.5,-75.5 692.5,-56.5 634.5,-56.5"/>
<text text-anchor="middle" x="663.5" y="-63.5" font-family="Helvetica,sans-Serif" font-size="10.00">memory</text>
</a>
</g>
</g>
<!-- Node5&#45;&gt;Node8 -->
<g id="edge7" class="edge">
<title>Node5&#45;&gt;Node8</title>
<path fill="none" stroke="midnightblue" d="M256.77,-118C268.03,-115.88 280.2,-113.73 291.5,-112 426.43,-91.36 461.08,-93.09 596.5,-76 605.55,-74.86 615.29,-73.58 624.45,-72.35"/>
<polygon fill="midnightblue" stroke="midnightblue" points="625.05,-75.8 634.49,-71 624.11,-68.87 625.05,-75.8"/>
</g>
<!-- Node9 -->
<g id="node9" class="node">
<title>Node9</title>
<g id="a_node9"><a xlink:title=" ">
<polygon fill="white" stroke="#bfbfbf" points="298,-56.5 298,-75.5 393,-75.5 393,-56.5 298,-56.5"/>
<text text-anchor="middle" x="345.5" y="-63.5" font-family="Helvetica,sans-Serif" font-size="10.00">odb/lazy&#45;ptr.hxx</text>
</a>
</g>
</g>
<!-- Node5&#45;&gt;Node9 -->
<g id="edge8" class="edge">
<title>Node5&#45;&gt;Node9</title>
<path fill="none" stroke="midnightblue" d="M233.27,-117.98C255.35,-107.95 292.22,-91.2 317.64,-79.65"/>
<polygon fill="midnightblue" stroke="midnightblue" points="319.11,-82.83 326.77,-75.51 316.21,-76.46 319.11,-82.83"/>
</g>
<!-- Node10&#45;&gt;Node6 -->
<g id="edge10" class="edge">
<title>Node10&#45;&gt;Node6</title>
<path fill="none" stroke="midnightblue" d="M69.51,-117.98C74.66,-109.23 82.81,-95.37 89.32,-84.31"/>
<polygon fill="midnightblue" stroke="midnightblue" points="92.44,-85.9 94.49,-75.51 86.41,-82.35 92.44,-85.9"/>
</g>
<!-- Node10&#45;&gt;Node8 -->
<g id="edge11" class="edge">
<title>Node10&#45;&gt;Node8</title>
<path fill="none" stroke="midnightblue" d="M103,-117.97C114.09,-115.75 126.24,-113.55 137.5,-112 340.2,-84.02 393.02,-97.63 596.5,-76 605.49,-75.04 615.13,-73.85 624.22,-72.65"/>
<polygon fill="midnightblue" stroke="midnightblue" points="624.75,-76.11 634.19,-71.29 623.81,-69.17 624.75,-76.11"/>
</g>
<!-- Node10&#45;&gt;Node9 -->
<g id="edge12" class="edge">
<title>Node10&#45;&gt;Node9</title>
<path fill="none" stroke="midnightblue" d="M104.76,-117.98C154.94,-107.35 240.73,-89.18 295.19,-77.65"/>
<polygon fill="midnightblue" stroke="midnightblue" points="296.26,-81 305.31,-75.51 294.81,-74.16 296.26,-81"/>
</g>
<!-- Node11&#45;&gt;Node8 -->
<g id="edge14" class="edge">
<title>Node11&#45;&gt;Node8</title>
<path fill="none" stroke="midnightblue" d="M442.62,-112.47C499.25,-100.82 577.84,-84.64 624.4,-75.05"/>
<polygon fill="midnightblue" stroke="midnightblue" points="625.31,-78.44 634.4,-72.99 623.9,-71.58 625.31,-78.44"/>
</g>
<!-- Node11&#45;&gt;Node9 -->
<g id="edge15" class="edge">
<title>Node11&#45;&gt;Node9</title>
<path fill="none" stroke="midnightblue" d="M367.63,-112.4C363.59,-104.11 358.44,-93.55 354.13,-84.71"/>
<polygon fill="midnightblue" stroke="midnightblue" points="357.25,-83.11 349.72,-75.66 350.95,-86.18 357.25,-83.11"/>
</g>
<!-- Node12&#45;&gt;Node8 -->
<g id="edge24" class="edge">
<title>Node12&#45;&gt;Node8</title>
<path fill="none" stroke="midnightblue" d="M560.69,-117.98C580.74,-108.03 614.1,-91.49 637.36,-79.96"/>
<polygon fill="midnightblue" stroke="midnightblue" points="638.93,-83.09 646.34,-75.51 635.82,-76.82 638.93,-83.09"/>
</g>
<!-- Node13 -->
<g id="node13" class="node">
<title>Node13</title>
<g id="a_node13"><a xlink:href="../../dc/dea/Uuid_8hpp.html" target="_top" xlink:title=" ">
<polygon fill="white" stroke="black" points="500,-56.5 500,-75.5 587,-75.5 587,-56.5 500,-56.5"/>
<text text-anchor="middle" x="543.5" y="-63.5" font-family="Helvetica,sans-Serif" font-size="10.00">tools/Uuid.hpp</text>
</a>
</g>
</g>
<!-- Node12&#45;&gt;Node13 -->
<g id="edge17" class="edge">
<title>Node12&#45;&gt;Node13</title>
<path fill="none" stroke="midnightblue" d="M543.5,-117.98C543.5,-109.58 543.5,-96.48 543.5,-85.66"/>
<polygon fill="midnightblue" stroke="midnightblue" points="547,-85.51 543.5,-75.51 540,-85.51 547,-85.51"/>
</g>
<!-- Node14 -->
<g id="node14" class="node">
<title>Node14</title>
<g id="a_node14"><a xlink:title=" ">
<polygon fill="white" stroke="#bfbfbf" points="76,-0.5 76,-19.5 201,-19.5 201,-0.5 76,-0.5"/>
<text text-anchor="middle" x="138.5" y="-7.5" font-family="Helvetica,sans-Serif" font-size="10.00">boost/lexical_cast.hpp</text>
</a>
</g>
</g>
<!-- Node13&#45;&gt;Node14 -->
<g id="edge18" class="edge">
<title>Node13&#45;&gt;Node14</title>
<path fill="none" stroke="midnightblue" d="M499.77,-59.17C430.59,-49.95 295.14,-31.89 211.17,-20.69"/>
<polygon fill="midnightblue" stroke="midnightblue" points="211.57,-17.21 201.2,-19.36 210.65,-24.15 211.57,-17.21"/>
</g>
<!-- Node15 -->
<g id="node15" class="node">
<title>Node15</title>
<g id="a_node15"><a xlink:title=" ">
<polygon fill="white" stroke="#bfbfbf" points="219,-0.5 219,-19.5 400,-19.5 400,-0.5 219,-0.5"/>
<text text-anchor="middle" x="309.5" y="-7.5" font-family="Helvetica,sans-Serif" font-size="10.00">boost/uuid/random_generator.hpp</text>
</a>
</g>
</g>
<!-- Node13&#45;&gt;Node15 -->
<g id="edge19" class="edge">
<title>Node13&#45;&gt;Node15</title>
<path fill="none" stroke="midnightblue" d="M506.42,-56.44C465.77,-47.06 400.47,-31.99 356.32,-21.8"/>
<polygon fill="midnightblue" stroke="midnightblue" points="356.94,-18.35 346.4,-19.52 355.36,-25.18 356.94,-18.35"/>
</g>
<!-- Node16 -->
<g id="node16" class="node">
<title>Node16</title>
<g id="a_node16"><a xlink:title=" ">
<polygon fill="white" stroke="#bfbfbf" points="418,-0.5 418,-19.5 531,-19.5 531,-0.5 418,-0.5"/>
<text text-anchor="middle" x="474.5" y="-7.5" font-family="Helvetica,sans-Serif" font-size="10.00">boost/uuid/uuid.hpp</text>
</a>
</g>
</g>
<!-- Node13&#45;&gt;Node16 -->
<g id="edge20" class="edge">
<title>Node13&#45;&gt;Node16</title>
<path fill="none" stroke="midnightblue" d="M532.41,-56.32C522.01,-48.18 506.24,-35.84 493.78,-26.09"/>
<polygon fill="midnightblue" stroke="midnightblue" points="495.82,-23.24 485.79,-19.83 491.51,-28.75 495.82,-23.24"/>
</g>
<!-- Node17 -->
<g id="node17" class="node">
<title>Node17</title>
<g id="a_node17"><a xlink:title=" ">
<polygon fill="white" stroke="#bfbfbf" points="549,-0.5 549,-19.5 676,-19.5 676,-0.5 549,-0.5"/>
<text text-anchor="middle" x="612.5" y="-7.5" font-family="Helvetica,sans-Serif" font-size="10.00">boost/uuid/uuid_io.hpp</text>
</a>
</g>
</g>
<!-- Node13&#45;&gt;Node17 -->
<g id="edge21" class="edge">
<title>Node13&#45;&gt;Node17</title>
<path fill="none" stroke="midnightblue" d="M554.59,-56.32C564.99,-48.18 580.76,-35.84 593.22,-26.09"/>
<polygon fill="midnightblue" stroke="midnightblue" points="595.49,-28.75 601.21,-19.83 591.18,-23.24 595.49,-28.75"/>
</g>
<!-- Node18 -->
<g id="node18" class="node">
<title>Node18</title>
<g id="a_node18"><a xlink:title=" ">
<polygon fill="white" stroke="#bfbfbf" points="694.5,-0.5 694.5,-19.5 774.5,-19.5 774.5,-0.5 694.5,-0.5"/>
<text text-anchor="middle" x="734.5" y="-7.5" font-family="Helvetica,sans-Serif" font-size="10.00">odb/core.hxx</text>
</a>
</g>
</g>
<!-- Node13&#45;&gt;Node18 -->
<g id="edge22" class="edge">
<title>Node13&#45;&gt;Node18</title>
<path fill="none" stroke="midnightblue" d="M573.76,-56.44C606.46,-47.2 658.68,-32.44 694.68,-22.26"/>
<polygon fill="midnightblue" stroke="midnightblue" points="695.71,-25.61 704.38,-19.52 693.8,-18.87 695.71,-25.61"/>
</g>
<!-- Node19 -->
<g id="node19" class="node">
<title>Node19</title>
<g id="a_node19"><a xlink:title=" ">
<polygon fill="white" stroke="#bfbfbf" points="792.5,-0.5 792.5,-19.5 836.5,-19.5 836.5,-0.5 792.5,-0.5"/>
<text text-anchor="middle" x="814.5" y="-7.5" font-family="Helvetica,sans-Serif" font-size="10.00">string</text>
</a>
</g>
</g>
<!-- Node13&#45;&gt;Node19 -->
<g id="edge23" class="edge">
<title>Node13&#45;&gt;Node19</title>
<path fill="none" stroke="midnightblue" d="M587.12,-58.13C633.35,-50.56 708.64,-37.41 782.31,-20.11"/>
<polygon fill="midnightblue" stroke="midnightblue" points="783.3,-23.47 792.22,-17.75 781.68,-16.66 783.3,-23.47"/>
</g>
<!-- Node20&#45;&gt;Node8 -->
<g id="edge26" class="edge">
<title>Node20&#45;&gt;Node8</title>
<path fill="none" stroke="midnightblue" d="M689.2,-117.98C684.84,-109.32 677.94,-95.65 672.4,-84.65"/>
<polygon fill="midnightblue" stroke="midnightblue" points="675.42,-82.86 667.79,-75.51 669.17,-86.01 675.42,-82.86"/>
</g>
<!-- Node20&#45;&gt;Node9 -->
<g id="edge27" class="edge">
<title>Node20&#45;&gt;Node9</title>
<path fill="none" stroke="midnightblue" d="M657.71,-117.95C648.54,-115.89 638.67,-113.76 629.5,-112 551.46,-96.99 460.66,-83.25 403.14,-75"/>
<polygon fill="midnightblue" stroke="midnightblue" points="403.55,-71.52 393.15,-73.58 402.56,-78.45 403.55,-71.52"/>
</g>
<!-- Node21&#45;&gt;Node8 -->
<g id="edge29" class="edge">
<title>Node21&#45;&gt;Node8</title>
<path fill="none" stroke="midnightblue" d="M800.58,-117.98C773.13,-107.77 726.98,-90.61 695.9,-79.05"/>
<polygon fill="midnightblue" stroke="midnightblue" points="696.97,-75.71 686.38,-75.51 694.53,-82.28 696.97,-75.71"/>
</g>
<!-- Node22&#45;&gt;Node5 -->
<g id="edge39" class="edge">
<title>Node22&#45;&gt;Node5</title>
<path fill="none" stroke="midnightblue" d="M817.65,-249.23C722.14,-247.48 533.69,-238.74 379.5,-199 327.56,-185.61 270.84,-158.34 239.27,-141.92"/>
<polygon fill="midnightblue" stroke="midnightblue" points="240.8,-138.76 230.32,-137.2 237.53,-144.96 240.8,-138.76"/>
</g>
<!-- Node22&#45;&gt;Node21 -->
<g id="edge40" class="edge">
<title>Node22&#45;&gt;Node21</title>
<path fill="none" stroke="midnightblue" d="M856.8,-235.4C844.82,-226.57 831.23,-214.02 824.5,-199 817.16,-182.62 817.9,-161.88 819.87,-147.14"/>
<polygon fill="midnightblue" stroke="midnightblue" points="823.34,-147.65 821.51,-137.22 816.43,-146.51 823.34,-147.65"/>
</g>
<!-- Node23 -->
<g id="node23" class="node">
<title>Node23</title>
<g id="a_node23"><a xlink:href="../../dc/d49/LeosacFwd_8hpp.html" target="_top" xlink:title=" ">
<polygon fill="white" stroke="black" points="833.5,-179.5 833.5,-198.5 925.5,-198.5 925.5,-179.5 833.5,-179.5"/>
<text text-anchor="middle" x="879.5" y="-186.5" font-family="Helvetica,sans-Serif" font-size="10.00">LeosacFwd.hpp</text>
</a>
</g>
</g>
<!-- Node22&#45;&gt;Node23 -->
<g id="edge32" class="edge">
<title>Node22&#45;&gt;Node23</title>
<path fill="none" stroke="midnightblue" d="M879.5,-235.4C879.5,-227.47 879.5,-217.46 879.5,-208.86"/>
<polygon fill="midnightblue" stroke="midnightblue" points="883,-208.66 879.5,-198.66 876,-208.66 883,-208.66"/>
</g>
<!-- Node22&#45;&gt;Node25 -->
<g id="edge35" class="edge">
<title>Node22&#45;&gt;Node25</title>
<path fill="none" stroke="midnightblue" d="M906.75,-235.4C925.53,-225.68 950.33,-212.86 968.77,-203.31"/>
<polygon fill="midnightblue" stroke="midnightblue" points="970.49,-206.36 977.77,-198.66 967.28,-200.14 970.49,-206.36"/>
</g>
<!-- Node23&#45;&gt;Node8 -->
<g id="edge33" class="edge">
<title>Node23&#45;&gt;Node8</title>
<path fill="none" stroke="midnightblue" d="M884.35,-179.35C892.26,-163.94 905.54,-131.55 889.5,-112 866.33,-83.76 761.19,-72.91 702.84,-69.01"/>
<polygon fill="midnightblue" stroke="midnightblue" points="702.72,-65.5 692.52,-68.36 702.28,-72.48 702.72,-65.5"/>
</g>
<!-- Node23&#45;&gt;Node24 -->
<g id="edge34" class="edge">
<title>Node23&#45;&gt;Node24</title>
<path fill="none" stroke="midnightblue" d="M896.55,-179.48C916.34,-169.58 949.22,-153.14 972.27,-141.62"/>
<polygon fill="midnightblue" stroke="midnightblue" points="974.1,-144.61 981.48,-137.01 970.97,-138.35 974.1,-144.61"/>
</g>
<!-- Node25&#45;&gt;Node8 -->
<g id="edge38" class="edge">
<title>Node25&#45;&gt;Node8</title>
<path fill="none" stroke="midnightblue" d="M987.3,-179.27C973.47,-163.14 941.44,-128.78 906.5,-112 839.7,-79.92 752.43,-70.64 702.71,-68"/>
<polygon fill="midnightblue" stroke="midnightblue" points="702.85,-64.51 692.7,-67.53 702.52,-71.5 702.85,-64.51"/>
</g>
<!-- Node25&#45;&gt;Node26 -->
<g id="edge36" class="edge">
<title>Node25&#45;&gt;Node26</title>
<path fill="none" stroke="midnightblue" d="M1008.68,-179.48C1024.86,-169.75 1051.53,-153.73 1070.64,-142.24"/>
<polygon fill="midnightblue" stroke="midnightblue" points="1072.57,-145.16 1079.34,-137.01 1068.97,-139.16 1072.57,-145.16"/>
</g>
<!-- Node25&#45;&gt;Node27 -->
<g id="edge37" class="edge">
<title>Node25&#45;&gt;Node27</title>
<path fill="none" stroke="midnightblue" d="M1026.88,-179.48C1066.74,-168.98 1134.52,-151.14 1178.39,-139.59"/>
<polygon fill="midnightblue" stroke="midnightblue" points="1179.4,-142.94 1188.18,-137.01 1177.62,-136.17 1179.4,-142.94"/>
</g>
</g>
</svg>
        <g id="navigator" transform="translate(0 0)" fill="#404254">
                <rect fill="#f2f5e9" fill-opacity="0.5" stroke="#606060" stroke-width=".5" x="0" y="0" width="60" height="60"/>
                <use id="zoomplus" xlink:href="#zoomPlus" x="17" y="9" onmousedown="handleZoom(evt,'in')"/>
                <use id="zoomminus" xlink:href="#zoomMin" x="42" y="9" onmousedown="handleZoom(evt,'out')"/>
                <use id="reset" xlink:href="#resetDef" x="30" y="36" onmousedown="handleReset()"/>
                <g id="arrowUp" xlink:href="#dirArrow" transform="translate(30 24)" onmousedown="handlePan(0,-1)">
                  <use xlink:href="#rim" fill="#404040">
                        <set attributeName="fill" to="#808080" begin="arrowUp.mouseover" end="arrowUp.mouseout"/>
                  </use>
                  <path fill="none" stroke="white" stroke-width="1.5" d="M0,-3.0v7 M-2.5,-0.5L0,-3.0L2.5,-0.5"/>
                </g>
                <g id="arrowRight" xlink:href="#dirArrow" transform="rotate(90) translate(36 -43)" onmousedown="handlePan(1,0)">
                  <use xlink:href="#rim" fill="#404040">
                        <set attributeName="fill" to="#808080" begin="arrowRight.mouseover" end="arrowRight.mouseout"/>
                  </use>
                  <path fill="none" stroke="white" stroke-width="1.5" d="M0,-3.0v7 M-2.5,-0.5L0,-3.0L2.5,-0.5"/>
                </g>
                <g id="arrowDown" xlink:href="#dirArrow" transform="rotate(180) translate(-30 -48)" onmousedown="handlePan(0,1)">
                  <use xlink:href="#rim" fill="#404040">
                        <set attributeName="fill" to="#808080" begin="arrowDown.mouseover" end="arrowDown.mouseout"/>
                  </use>
                  <path fill="none" stroke="white" stroke-width="1.5" d="M0,-3.0v7 M-2.5,-0.5L0,-3.0L2.5,-0.5"/>
                </g>
                <g id="arrowLeft" xlink:href="#dirArrow" transform="rotate(270) translate(-36 17)" onmousedown="handlePan(-1,0)">
                  <use xlink:href="#rim" fill="#404040">
                        <set attributeName="fill" to="#808080" begin="arrowLeft.mouseover" end="arrowLeft.mouseout"/>
                  </use>
                  <path fill="none" stroke="white" stroke-width="1.5" d="M0,-3.0v7 M-2.5,-0.5L0,-3.0L2.5,-0.5"/>
                </g>
        </g>
        <svg viewBox="0 0 15 15" width="100%" height="30px" preserveAspectRatio="xMaxYMin meet">
         <g id="arrow_out" transform="scale(0.3 0.3)">
          <a xlink:href="ScheduleCRUD_8hpp__incl_org.svg" target="_base">
           <rect id="button" ry="5" rx="5" y="6" x="6" height="38" width="38"
                fill="#f2f5e9" fill-opacity="0.5" stroke="#606060" stroke-width="1.0"/>
           <path id="arrow"
             d="M 11.500037,31.436501 C 11.940474,20.09759 22.043105,11.32322 32.158766,21.979434 L 37.068811,17.246167 C 37.068811,17.246167 37.088388,32 37.088388,32 L 22.160133,31.978069 C 22.160133,31.978069 26.997745,27.140456 26.997745,27.140456 C 18.528582,18.264221 13.291696,25.230495 11.500037,31.436501 z"
             style="fill:#404040;"/>
          </a>
         </g>
        </svg>
</svg>
