<?xml version="1.0" encoding="UTF-8" standalone="no"?>
<!DOCTYPE svg PUBLIC "-//W3C//DTD SVG 1.1//EN"
 "http://www.w3.org/Graphics/SVG/1.1/DTD/svg11.dtd">
<!-- Generated by graphviz version 2.43.0 (0)
 -->
<!-- Title: src/core/auth/BaseAuthSource.hpp Pages: 1 -->
<svg width="533pt" height="263pt"
 viewBox="0.00 0.00 532.50 263.00" xmlns="http://www.w3.org/2000/svg" xmlns:xlink="http://www.w3.org/1999/xlink">
<g id="graph0" class="graph" transform="scale(1 1) rotate(0) translate(4 259)">
<title>src/core/auth/BaseAuthSource.hpp</title>
<polygon fill="white" stroke="transparent" points="-4,4 -4,-259 528.5,-259 528.5,4 -4,4"/>
<!-- Node1 -->
<g id="node1" class="node">
<title>Node1</title>
<g id="a_node1"><a xlink:title=" ">
<polygon fill="#bfbfbf" stroke="black" points="194,-235.5 194,-254.5 377,-254.5 377,-235.5 194,-235.5"/>
<text text-anchor="middle" x="285.5" y="-242.5" font-family="Helvetica,sans-Serif" font-size="10.00">src/core/auth/BaseAuthSource.hpp</text>
</a>
</g>
</g>
<!-- Node2 -->
<g id="node2" class="node">
<title>Node2</title>
<g id="a_node2"><a xlink:href="../../db/d47/IAuthenticationSource_8hpp.html" target="_top" xlink:title=" ">
<polygon fill="white" stroke="black" points="60.5,-168.5 60.5,-198.5 208.5,-198.5 208.5,-168.5 60.5,-168.5"/>
<text text-anchor="start" x="68.5" y="-186.5" font-family="Helvetica,sans-Serif" font-size="10.00">core/auth/Interfaces</text>
<text text-anchor="middle" x="134.5" y="-175.5" font-family="Helvetica,sans-Serif" font-size="10.00">/IAuthenticationSource.hpp</text>
</a>
</g>
</g>
<!-- Node1&#45;&gt;Node2 -->
<g id="edge1" class="edge">
<title>Node1&#45;&gt;Node2</title>
<path fill="none" stroke="midnightblue" d="M263.87,-235.48C241.98,-226.85 207.5,-213.26 179.64,-202.29"/>
<polygon fill="midnightblue" stroke="midnightblue" points="180.67,-198.93 170.09,-198.52 178.11,-205.45 180.67,-198.93"/>
</g>
<!-- Node5 -->
<g id="node5" class="node">
<title>Node5</title>
<g id="a_node5"><a xlink:title=" ">
<polygon fill="white" stroke="#bfbfbf" points="207.5,-56.5 207.5,-75.5 265.5,-75.5 265.5,-56.5 207.5,-56.5"/>
<text text-anchor="middle" x="236.5" y="-63.5" font-family="Helvetica,sans-Serif" font-size="10.00">memory</text>
</a>
</g>
</g>
<!-- Node1&#45;&gt;Node5 -->
<g id="edge15" class="edge">
<title>Node1&#45;&gt;Node5</title>
<path fill="none" stroke="midnightblue" d="M278.01,-235.36C270.99,-226.75 260.8,-212.86 255.5,-199 240.8,-160.57 237.35,-111.89 236.62,-85.71"/>
<polygon fill="midnightblue" stroke="midnightblue" points="240.12,-85.6 236.44,-75.67 233.12,-85.73 240.12,-85.6"/>
</g>
<!-- Node11 -->
<g id="node11" class="node">
<title>Node11</title>
<g id="a_node11"><a xlink:href="../../dc/dfe/ValidityInfo_8hpp.html" target="_top" xlink:title=" ">
<polygon fill="white" stroke="black" points="264.5,-174 264.5,-193 406.5,-193 406.5,-174 264.5,-174"/>
<text text-anchor="middle" x="335.5" y="-181" font-family="Helvetica,sans-Serif" font-size="10.00">core/auth/ValidityInfo.hpp</text>
</a>
</g>
</g>
<!-- Node1&#45;&gt;Node11 -->
<g id="edge11" class="edge">
<title>Node1&#45;&gt;Node11</title>
<path fill="none" stroke="midnightblue" d="M292.66,-235.48C300.24,-226.46 312.37,-212.02 321.79,-200.81"/>
<polygon fill="midnightblue" stroke="midnightblue" points="324.6,-202.92 328.35,-193.01 319.24,-198.41 324.6,-202.92"/>
</g>
<!-- Node14 -->
<g id="node14" class="node">
<title>Node14</title>
<g id="a_node14"><a xlink:title=" ">
<polygon fill="white" stroke="#bfbfbf" points="425,-174 425,-193 472,-193 472,-174 425,-174"/>
<text text-anchor="middle" x="448.5" y="-181" font-family="Helvetica,sans-Serif" font-size="10.00">vector</text>
</a>
</g>
</g>
<!-- Node1&#45;&gt;Node14 -->
<g id="edge16" class="edge">
<title>Node1&#45;&gt;Node14</title>
<path fill="none" stroke="midnightblue" d="M312.12,-235.48C338.56,-226.86 380.15,-212.86 415.5,-199 417.1,-198.37 418.74,-197.71 420.39,-197.03"/>
<polygon fill="midnightblue" stroke="midnightblue" points="421.93,-200.18 429.76,-193.05 419.19,-193.74 421.93,-200.18"/>
</g>
<!-- Node3 -->
<g id="node3" class="node">
<title>Node3</title>
<g id="a_node3"><a xlink:href="../../d3/d6f/AuthFwd_8hpp.html" target="_top" xlink:title=" ">
<polygon fill="white" stroke="black" points="265,-112.5 265,-131.5 394,-131.5 394,-112.5 265,-112.5"/>
<text text-anchor="middle" x="329.5" y="-119.5" font-family="Helvetica,sans-Serif" font-size="10.00">core/auth/AuthFwd.hpp</text>
</a>
</g>
</g>
<!-- Node2&#45;&gt;Node3 -->
<g id="edge2" class="edge">
<title>Node2&#45;&gt;Node3</title>
<path fill="none" stroke="midnightblue" d="M180.71,-168.4C214.55,-158.07 259.92,-144.23 291.63,-134.56"/>
<polygon fill="midnightblue" stroke="midnightblue" points="292.87,-137.84 301.41,-131.57 290.82,-131.14 292.87,-137.84"/>
</g>
<!-- Node2&#45;&gt;Node5 -->
<g id="edge10" class="edge">
<title>Node2&#45;&gt;Node5</title>
<path fill="none" stroke="midnightblue" d="M147.14,-168.38C156.17,-158.27 168.61,-144.32 179.5,-132 194.01,-115.58 210.52,-96.74 222.01,-83.59"/>
<polygon fill="midnightblue" stroke="midnightblue" points="224.83,-85.68 228.78,-75.85 219.56,-81.08 224.83,-85.68"/>
</g>
<!-- Node7 -->
<g id="node7" class="node">
<title>Node7</title>
<g id="a_node7"><a xlink:href="../../dd/d9d/IVisitable_8hpp.html" target="_top" xlink:title=" ">
<polygon fill="white" stroke="black" points="60.5,-112.5 60.5,-131.5 170.5,-131.5 170.5,-112.5 60.5,-112.5"/>
<text text-anchor="middle" x="115.5" y="-119.5" font-family="Helvetica,sans-Serif" font-size="10.00">tools/IVisitable.hpp</text>
</a>
</g>
</g>
<!-- Node2&#45;&gt;Node7 -->
<g id="edge6" class="edge">
<title>Node2&#45;&gt;Node7</title>
<path fill="none" stroke="midnightblue" d="M130,-168.4C127.41,-160.29 124.12,-150.01 121.34,-141.28"/>
<polygon fill="midnightblue" stroke="midnightblue" points="124.64,-140.12 118.26,-131.66 117.97,-142.25 124.64,-140.12"/>
</g>
<!-- Node4 -->
<g id="node4" class="node">
<title>Node4</title>
<g id="a_node4"><a xlink:title=" ">
<polygon fill="white" stroke="#bfbfbf" points="294,-56.5 294,-75.5 347,-75.5 347,-56.5 294,-56.5"/>
<text text-anchor="middle" x="320.5" y="-63.5" font-family="Helvetica,sans-Serif" font-size="10.00">cstddef</text>
</a>
</g>
</g>
<!-- Node3&#45;&gt;Node4 -->
<g id="edge3" class="edge">
<title>Node3&#45;&gt;Node4</title>
<path fill="none" stroke="midnightblue" d="M328.01,-112.08C326.82,-104.93 325.11,-94.64 323.62,-85.69"/>
<polygon fill="midnightblue" stroke="midnightblue" points="327.05,-85.04 321.96,-75.75 320.15,-86.19 327.05,-85.04"/>
</g>
<!-- Node3&#45;&gt;Node5 -->
<g id="edge4" class="edge">
<title>Node3&#45;&gt;Node5</title>
<path fill="none" stroke="midnightblue" d="M314.56,-112.32C299.91,-103.82 277.37,-90.73 260.26,-80.8"/>
<polygon fill="midnightblue" stroke="midnightblue" points="261.81,-77.65 251.4,-75.65 258.3,-83.7 261.81,-77.65"/>
</g>
<!-- Node6 -->
<g id="node6" class="node">
<title>Node6</title>
<g id="a_node6"><a xlink:title=" ">
<polygon fill="white" stroke="#bfbfbf" points="365,-56.5 365,-75.5 460,-75.5 460,-56.5 365,-56.5"/>
<text text-anchor="middle" x="412.5" y="-63.5" font-family="Helvetica,sans-Serif" font-size="10.00">odb/lazy&#45;ptr.hxx</text>
</a>
</g>
</g>
<!-- Node3&#45;&gt;Node6 -->
<g id="edge5" class="edge">
<title>Node3&#45;&gt;Node6</title>
<path fill="none" stroke="midnightblue" d="M342.84,-112.32C355.66,-103.98 375.28,-91.21 390.44,-81.35"/>
<polygon fill="midnightblue" stroke="midnightblue" points="392.72,-84.04 399.2,-75.65 388.91,-78.17 392.72,-84.04"/>
</g>
<!-- Node8 -->
<g id="node8" class="node">
<title>Node8</title>
<g id="a_node8"><a xlink:href="../../d2/d91/Visitor_8hpp.html" target="_top" xlink:title=" ">
<polygon fill="white" stroke="black" points="0,-56.5 0,-75.5 95,-75.5 95,-56.5 0,-56.5"/>
<text text-anchor="middle" x="47.5" y="-63.5" font-family="Helvetica,sans-Serif" font-size="10.00">tools/Visitor.hpp</text>
</a>
</g>
</g>
<!-- Node7&#45;&gt;Node8 -->
<g id="edge7" class="edge">
<title>Node7&#45;&gt;Node8</title>
<path fill="none" stroke="midnightblue" d="M104.57,-112.32C94.33,-104.18 78.78,-91.84 66.5,-82.09"/>
<polygon fill="midnightblue" stroke="midnightblue" points="68.63,-79.31 58.62,-75.83 64.28,-84.79 68.63,-79.31"/>
</g>
<!-- Node10 -->
<g id="node10" class="node">
<title>Node10</title>
<g id="a_node10"><a xlink:title=" ">
<polygon fill="white" stroke="#bfbfbf" points="113.5,-56.5 113.5,-75.5 165.5,-75.5 165.5,-56.5 113.5,-56.5"/>
<text text-anchor="middle" x="139.5" y="-63.5" font-family="Helvetica,sans-Serif" font-size="10.00">cassert</text>
</a>
</g>
</g>
<!-- Node7&#45;&gt;Node10 -->
<g id="edge9" class="edge">
<title>Node7&#45;&gt;Node10</title>
<path fill="none" stroke="midnightblue" d="M119.46,-112.08C122.71,-104.77 127.42,-94.18 131.45,-85.1"/>
<polygon fill="midnightblue" stroke="midnightblue" points="134.75,-86.31 135.61,-75.75 128.35,-83.47 134.75,-86.31"/>
</g>
<!-- Node9 -->
<g id="node9" class="node">
<title>Node9</title>
<g id="a_node9"><a xlink:title=" ">
<polygon fill="white" stroke="#bfbfbf" points="13,-0.5 13,-19.5 82,-19.5 82,-0.5 13,-0.5"/>
<text text-anchor="middle" x="47.5" y="-7.5" font-family="Helvetica,sans-Serif" font-size="10.00">type_traits</text>
</a>
</g>
</g>
<!-- Node8&#45;&gt;Node9 -->
<g id="edge8" class="edge">
<title>Node8&#45;&gt;Node9</title>
<path fill="none" stroke="midnightblue" d="M47.5,-56.08C47.5,-49.01 47.5,-38.86 47.5,-29.99"/>
<polygon fill="midnightblue" stroke="midnightblue" points="51,-29.75 47.5,-19.75 44,-29.75 51,-29.75"/>
</g>
<!-- Node11&#45;&gt;Node3 -->
<g id="edge12" class="edge">
<title>Node11&#45;&gt;Node3</title>
<path fill="none" stroke="midnightblue" d="M334.64,-173.98C333.79,-165.58 332.47,-152.48 331.38,-141.66"/>
<polygon fill="midnightblue" stroke="midnightblue" points="334.84,-141.11 330.36,-131.51 327.88,-141.81 334.84,-141.11"/>
</g>
<!-- Node12 -->
<g id="node12" class="node">
<title>Node12</title>
<g id="a_node12"><a xlink:title=" ">
<polygon fill="white" stroke="#bfbfbf" points="412.5,-112.5 412.5,-131.5 462.5,-131.5 462.5,-112.5 412.5,-112.5"/>
<text text-anchor="middle" x="437.5" y="-119.5" font-family="Helvetica,sans-Serif" font-size="10.00">chrono</text>
</a>
</g>
</g>
<!-- Node11&#45;&gt;Node12 -->
<g id="edge13" class="edge">
<title>Node11&#45;&gt;Node12</title>
<path fill="none" stroke="midnightblue" d="M350.11,-173.98C366.85,-164.21 394.5,-148.08 414.22,-136.58"/>
<polygon fill="midnightblue" stroke="midnightblue" points="416.04,-139.57 422.91,-131.51 412.51,-133.52 416.04,-139.57"/>
</g>
<!-- Node13 -->
<g id="node13" class="node">
<title>Node13</title>
<g id="a_node13"><a xlink:title=" ">
<polygon fill="white" stroke="#bfbfbf" points="480.5,-112.5 480.5,-131.5 524.5,-131.5 524.5,-112.5 480.5,-112.5"/>
<text text-anchor="middle" x="502.5" y="-119.5" font-family="Helvetica,sans-Serif" font-size="10.00">string</text>
</a>
</g>
</g>
<!-- Node11&#45;&gt;Node13 -->
<g id="edge14" class="edge">
<title>Node11&#45;&gt;Node13</title>
<path fill="none" stroke="midnightblue" d="M359.43,-173.98C388.77,-163.52 438.59,-145.77 471.02,-134.22"/>
<polygon fill="midnightblue" stroke="midnightblue" points="472.24,-137.5 480.48,-130.85 469.89,-130.9 472.24,-137.5"/>
</g>
</g>
</svg>
