<?xml version="1.0" encoding="UTF-8" standalone="no"?>
<!DOCTYPE svg PUBLIC "-//W3C//DTD SVG 1.1//EN"
 "http://www.w3.org/Graphics/SVG/1.1/DTD/svg11.dtd">
<!-- Generated by graphviz version 2.43.0 (0)
 -->
<!-- Title: src/modules/tcp&#45;notifier/NotifierInstance.hpp Pages: 1 -->
<svg width="365pt" height="173pt"
 viewBox="0.00 0.00 365.00 173.00" xmlns="http://www.w3.org/2000/svg" xmlns:xlink="http://www.w3.org/1999/xlink">
<g id="graph0" class="graph" transform="scale(1 1) rotate(0) translate(4 169)">
<title>src/modules/tcp&#45;notifier/NotifierInstance.hpp</title>
<polygon fill="white" stroke="transparent" points="-4,4 -4,-169 361,-169 361,4 -4,4"/>
<!-- Node1 -->
<g id="node1" class="node">
<title>Node1</title>
<g id="a_node1"><a xlink:title=" ">
<polygon fill="#bfbfbf" stroke="black" points="150,-134.5 150,-164.5 282,-164.5 282,-134.5 150,-134.5"/>
<text text-anchor="start" x="158" y="-152.5" font-family="Helvetica,sans-Serif" font-size="10.00">src/modules/tcp&#45;notifier</text>
<text text-anchor="middle" x="216" y="-141.5" font-family="Helvetica,sans-Serif" font-size="10.00">/NotifierInstance.hpp</text>
</a>
</g>
</g>
<!-- Node2 -->
<g id="node2" class="node">
<title>Node2</title>
<g id="a_node2"><a xlink:href="../../d0/dd9/TcpNotifier_8hpp.html" target="_top" xlink:title=" ">
<polygon fill="white" stroke="black" points="75,-67.5 75,-97.5 207,-97.5 207,-67.5 75,-67.5"/>
<text text-anchor="start" x="83" y="-85.5" font-family="Helvetica,sans-Serif" font-size="10.00">src/modules/tcp&#45;notifier</text>
<text text-anchor="middle" x="141" y="-74.5" font-family="Helvetica,sans-Serif" font-size="10.00">/TcpNotifier.hpp</text>
</a>
</g>
</g>
<!-- Node1&#45;&gt;Node2 -->
<g id="edge1" class="edge">
<title>Node1&#45;&gt;Node2</title>
<path fill="none" stroke="midnightblue" d="M191.88,-127.6C180.56,-117.78 167.36,-106.34 157.24,-97.58"/>
<polygon fill="midnightblue" stroke="midnightblue" points="189.88,-130.49 199.73,-134.4 194.46,-125.2 189.88,-130.49"/>
</g>
<!-- Node5 -->
<g id="node5" class="node">
<title>Node5</title>
<g id="a_node5"><a xlink:href="../../d2/d99/NotifierInstance_8cpp.html" target="_top" xlink:title=" ">
<polygon fill="white" stroke="black" points="225,-67.5 225,-97.5 357,-97.5 357,-67.5 225,-67.5"/>
<text text-anchor="start" x="233" y="-85.5" font-family="Helvetica,sans-Serif" font-size="10.00">src/modules/tcp&#45;notifier</text>
<text text-anchor="middle" x="291" y="-74.5" font-family="Helvetica,sans-Serif" font-size="10.00">/NotifierInstance.cpp</text>
</a>
</g>
</g>
<!-- Node1&#45;&gt;Node5 -->
<g id="edge4" class="edge">
<title>Node1&#45;&gt;Node5</title>
<path fill="none" stroke="midnightblue" d="M240.12,-127.6C251.44,-117.78 264.64,-106.34 274.76,-97.58"/>
<polygon fill="midnightblue" stroke="midnightblue" points="237.54,-125.2 232.27,-134.4 242.12,-130.49 237.54,-125.2"/>
</g>
<!-- Node3 -->
<g id="node3" class="node">
<title>Node3</title>
<g id="a_node3"><a xlink:href="../../dc/d63/tcp-notifier_2init_8cpp.html" target="_top" xlink:title=" ">
<polygon fill="white" stroke="black" points="0,-0.5 0,-30.5 132,-30.5 132,-0.5 0,-0.5"/>
<text text-anchor="start" x="8" y="-18.5" font-family="Helvetica,sans-Serif" font-size="10.00">src/modules/tcp&#45;notifier</text>
<text text-anchor="middle" x="66" y="-7.5" font-family="Helvetica,sans-Serif" font-size="10.00">/init.cpp</text>
</a>
</g>
</g>
<!-- Node2&#45;&gt;Node3 -->
<g id="edge2" class="edge">
<title>Node2&#45;&gt;Node3</title>
<path fill="none" stroke="midnightblue" d="M116.88,-60.6C105.56,-50.78 92.36,-39.34 82.24,-30.58"/>
<polygon fill="midnightblue" stroke="midnightblue" points="114.88,-63.49 124.73,-67.4 119.46,-58.2 114.88,-63.49"/>
</g>
<!-- Node4 -->
<g id="node4" class="node">
<title>Node4</title>
<g id="a_node4"><a xlink:href="../../d0/df4/TcpNotifier_8cpp.html" target="_top" xlink:title=" ">
<polygon fill="white" stroke="black" points="150,-0.5 150,-30.5 282,-30.5 282,-0.5 150,-0.5"/>
<text text-anchor="start" x="158" y="-18.5" font-family="Helvetica,sans-Serif" font-size="10.00">src/modules/tcp&#45;notifier</text>
<text text-anchor="middle" x="216" y="-7.5" font-family="Helvetica,sans-Serif" font-size="10.00">/TcpNotifier.cpp</text>
</a>
</g>
</g>
<!-- Node2&#45;&gt;Node4 -->
<g id="edge3" class="edge">
<title>Node2&#45;&gt;Node4</title>
<path fill="none" stroke="midnightblue" d="M165.12,-60.6C176.44,-50.78 189.64,-39.34 199.76,-30.58"/>
<polygon fill="midnightblue" stroke="midnightblue" points="162.54,-58.2 157.27,-67.4 167.12,-63.49 162.54,-58.2"/>
</g>
</g>
</svg>
