<?xml version="1.0" encoding="UTF-8" standalone="no"?>
<!DOCTYPE svg PUBLIC "-//W3C//DTD SVG 1.1//EN"
 "http://www.w3.org/Graphics/SVG/1.1/DTD/svg11.dtd">
<!-- Generated by graphviz version 2.43.0 (0)
 -->
<!-- Title: src/tools/db/ODB_Auth_Prologue.hpp Pages: 1 -->
<!--zoomable 218 -->
<svg id="main" version="1.1" xmlns="http://www.w3.org/2000/svg" xmlns:xlink="http://www.w3.org/1999/xlink" xml:space="preserve" onload="init(evt)">
<style type="text/css"><![CDATA[
.edge:hover path { stroke: red; }
.edge:hover polygon { stroke: red; fill: red; }
]]></style>
<script type="text/javascript"><![CDATA[
var edges = document.getElementsByTagName('g');
if (edges && edges.length) {
  for (var i=0;i<edges.length;i++) {
    if (edges[i].id.substr(0,4)=='edge') {
      edges[i].setAttribute('class','edge');
    }
  }
}
]]></script>
        <defs>
                <circle id="rim" cx="0" cy="0" r="7"/>
                <circle id="rim2" cx="0" cy="0" r="3.5"/>
                <g id="zoomPlus">
                        <use xlink:href="#rim" fill="#404040">
                                <set attributeName="fill" to="#808080" begin="zoomplus.mouseover" end="zoomplus.mouseout"/>
                        </use>
                        <path d="M-4,0h8M0,-4v8" fill="none" stroke="white" stroke-width="1.5" pointer-events="none"/>
                </g>
                <g id="zoomMin">
                        <use xlink:href="#rim" fill="#404040">
                                <set attributeName="fill" to="#808080" begin="zoomminus.mouseover" end="zoomminus.mouseout"/>
                        </use>
                        <path d="M-4,0h8" fill="none" stroke="white" stroke-width="1.5" pointer-events="none"/>
                </g>
                <g id="dirArrow">
                        <path fill="none" stroke="white" stroke-width="1.5" d="M0,-3.0v7 M-2.5,-0.5L0,-3.0L2.5,-0.5"/>
                </g>
               <g id="resetDef">
                       <use xlink:href="#rim2" fill="#404040">
                               <set attributeName="fill" to="#808080" begin="reset.mouseover" end="reset.mouseout"/>
                       </use>
               </g>
        </defs>

<script type="text/javascript">
var viewWidth = 1303;
var viewHeight = 218;
var sectionId = 'dynsection-0';
</script>
<script xlink:href="../../svgpan.js"/>
<svg id="graph" class="graph">
<g id="viewport">
<title>src/tools/db/ODB_Auth_Prologue.hpp</title>
<polygon fill="white" stroke="transparent" points="-4,4 -4,-214 1298.75,-214 1298.75,4 -4,4"/>
<!-- Node1 -->
<g id="node1" class="node">
<title>Node1</title>
<g id="a_node1"><a xlink:title=" ">
<polygon fill="#bfbfbf" stroke="black" points="296.75,-179.5 296.75,-209.5 421.75,-209.5 421.75,-179.5 296.75,-179.5"/>
<text text-anchor="start" x="304.75" y="-197.5" font-family="Helvetica,sans-Serif" font-size="10.00">src/tools/db/ODB_Auth</text>
<text text-anchor="middle" x="359.25" y="-186.5" font-family="Helvetica,sans-Serif" font-size="10.00">_Prologue.hpp</text>
</a>
</g>
</g>
<!-- Node2 -->
<g id="node2" class="node">
<title>Node2</title>
<g id="a_node2"><a xlink:href="../../d3/d2d/STDDurationODB_8hpp.html" target="_top" xlink:title=" ">
<polygon fill="white" stroke="black" points="277.75,-123.5 277.75,-142.5 440.75,-142.5 440.75,-123.5 277.75,-123.5"/>
<text text-anchor="middle" x="359.25" y="-130.5" font-family="Helvetica,sans-Serif" font-size="10.00">tools/db/STDDurationODB.hpp</text>
</a>
</g>
</g>
<!-- Node1&#45;&gt;Node2 -->
<g id="edge1" class="edge">
<title>Node1&#45;&gt;Node2</title>
<path fill="none" stroke="midnightblue" d="M359.25,-179.4C359.25,-171.47 359.25,-161.46 359.25,-152.86"/>
<polygon fill="midnightblue" stroke="midnightblue" points="362.75,-152.66 359.25,-142.66 355.75,-152.66 362.75,-152.66"/>
</g>
<!-- Node13 -->
<g id="node13" class="node">
<title>Node13</title>
<g id="a_node13"><a xlink:href="../../d4/d66/STDTimePointODB_8hpp.html" target="_top" xlink:title=" ">
<polygon fill="white" stroke="black" points="89.25,-123.5 89.25,-142.5 259.25,-142.5 259.25,-123.5 89.25,-123.5"/>
<text text-anchor="middle" x="174.25" y="-130.5" font-family="Helvetica,sans-Serif" font-size="10.00">tools/db/STDTimePointODB.hpp</text>
</a>
</g>
</g>
<!-- Node1&#45;&gt;Node13 -->
<g id="edge13" class="edge">
<title>Node1&#45;&gt;Node13</title>
<path fill="none" stroke="midnightblue" d="M315.41,-179.4C283.44,-169.12 240.64,-155.35 210.57,-145.68"/>
<polygon fill="midnightblue" stroke="midnightblue" points="211.49,-142.3 200.9,-142.57 209.35,-148.96 211.49,-142.3"/>
</g>
<!-- Node15 -->
<g id="node15" class="node">
<title>Node15</title>
<g id="a_node15"><a xlink:href="../../da/ddc/ScryptResultODB_8hpp.html" target="_top" xlink:title=" ">
<polygon fill="white" stroke="black" points="497.75,-123.5 497.75,-142.5 660.75,-142.5 660.75,-123.5 497.75,-123.5"/>
<text text-anchor="middle" x="579.25" y="-130.5" font-family="Helvetica,sans-Serif" font-size="10.00">tools/db/ScryptResultODB.hpp</text>
</a>
</g>
</g>
<!-- Node1&#45;&gt;Node15 -->
<g id="edge21" class="edge">
<title>Node1&#45;&gt;Node15</title>
<path fill="none" stroke="midnightblue" d="M411.11,-179.47C449.89,-168.99 502.21,-154.84 538.13,-145.12"/>
<polygon fill="midnightblue" stroke="midnightblue" points="539.06,-148.5 547.8,-142.51 537.23,-141.74 539.06,-148.5"/>
</g>
<!-- Node3 -->
<g id="node3" class="node">
<title>Node3</title>
<g id="a_node3"><a xlink:href="../../d6/d41/MyTime_8hpp.html" target="_top" xlink:title=" ">
<polygon fill="white" stroke="black" points="288.25,-67.5 288.25,-86.5 392.25,-86.5 392.25,-67.5 288.25,-67.5"/>
<text text-anchor="middle" x="340.25" y="-74.5" font-family="Helvetica,sans-Serif" font-size="10.00">tools/MyTime.hpp</text>
</a>
</g>
</g>
<!-- Node2&#45;&gt;Node3 -->
<g id="edge2" class="edge">
<title>Node2&#45;&gt;Node3</title>
<path fill="none" stroke="midnightblue" d="M356.12,-123.08C353.57,-115.85 349.9,-105.41 346.73,-96.4"/>
<polygon fill="midnightblue" stroke="midnightblue" points="349.95,-95.02 343.33,-86.75 343.35,-97.35 349.95,-95.02"/>
</g>
<!-- Node4 -->
<g id="node4" class="node">
<title>Node4</title>
<g id="a_node4"><a xlink:title=" ">
<polygon fill="white" stroke="#bfbfbf" points="154.25,-6 154.25,-25 204.25,-25 204.25,-6 154.25,-6"/>
<text text-anchor="middle" x="179.25" y="-13" font-family="Helvetica,sans-Serif" font-size="10.00">chrono</text>
</a>
</g>
</g>
<!-- Node2&#45;&gt;Node4 -->
<g id="edge9" class="edge">
<title>Node2&#45;&gt;Node4</title>
<path fill="none" stroke="midnightblue" d="M342.73,-123.34C326.35,-114.61 300.68,-100.53 279.25,-87 250.59,-68.9 218.81,-45.98 198.93,-31.27"/>
<polygon fill="midnightblue" stroke="midnightblue" points="200.8,-28.3 190.69,-25.14 196.63,-33.92 200.8,-28.3"/>
</g>
<!-- Node9 -->
<g id="node9" class="node">
<title>Node9</title>
<g id="a_node9"><a xlink:title=" ">
<polygon fill="white" stroke="#bfbfbf" points="180.25,-67.5 180.25,-86.5 232.25,-86.5 232.25,-67.5 180.25,-67.5"/>
<text text-anchor="middle" x="206.25" y="-74.5" font-family="Helvetica,sans-Serif" font-size="10.00">cassert</text>
</a>
</g>
</g>
<!-- Node2&#45;&gt;Node9 -->
<g id="edge8" class="edge">
<title>Node2&#45;&gt;Node9</title>
<path fill="none" stroke="midnightblue" d="M335.01,-123.44C309.38,-114.4 268.77,-100.06 240.01,-89.92"/>
<polygon fill="midnightblue" stroke="midnightblue" points="240.98,-86.54 230.38,-86.52 238.65,-93.15 240.98,-86.54"/>
</g>
<!-- Node10 -->
<g id="node10" class="node">
<title>Node10</title>
<g id="a_node10"><a xlink:title=" ">
<polygon fill="white" stroke="#bfbfbf" points="106.25,-67.5 106.25,-86.5 162.25,-86.5 162.25,-67.5 106.25,-67.5"/>
<text text-anchor="middle" x="134.25" y="-74.5" font-family="Helvetica,sans-Serif" font-size="10.00">iomanip</text>
</a>
</g>
</g>
<!-- Node2&#45;&gt;Node10 -->
<g id="edge10" class="edge">
<title>Node2&#45;&gt;Node10</title>
<path fill="none" stroke="midnightblue" d="M323.55,-123.5C287.72,-114.95 230.68,-101.33 172.29,-87.25"/>
<polygon fill="midnightblue" stroke="midnightblue" points="173.07,-83.83 162.53,-84.89 171.43,-90.64 173.07,-83.83"/>
</g>
<!-- Node11 -->
<g id="node11" class="node">
<title>Node11</title>
<g id="a_node11"><a xlink:title=" ">
<polygon fill="white" stroke="#bfbfbf" points="410.75,-67.5 410.75,-86.5 523.75,-86.5 523.75,-67.5 410.75,-67.5"/>
<text text-anchor="middle" x="467.25" y="-74.5" font-family="Helvetica,sans-Serif" font-size="10.00">odb/pgsql/traits.hxx</text>
</a>
</g>
</g>
<!-- Node2&#45;&gt;Node11 -->
<g id="edge11" class="edge">
<title>Node2&#45;&gt;Node11</title>
<path fill="none" stroke="midnightblue" d="M376.6,-123.32C393.92,-114.66 420.77,-101.24 440.75,-91.25"/>
<polygon fill="midnightblue" stroke="midnightblue" points="442.56,-94.26 449.94,-86.65 439.43,-88 442.56,-94.26"/>
</g>
<!-- Node12 -->
<g id="node12" class="node">
<title>Node12</title>
<g id="a_node12"><a xlink:title=" ">
<polygon fill="white" stroke="#bfbfbf" points="542.25,-67.5 542.25,-86.5 656.25,-86.5 656.25,-67.5 542.25,-67.5"/>
<text text-anchor="middle" x="599.25" y="-74.5" font-family="Helvetica,sans-Serif" font-size="10.00">odb/sqlite/traits.hxx</text>
</a>
</g>
</g>
<!-- Node2&#45;&gt;Node12 -->
<g id="edge12" class="edge">
<title>Node2&#45;&gt;Node12</title>
<path fill="none" stroke="midnightblue" d="M397.28,-123.44C439.06,-114.04 506.23,-98.93 551.52,-88.74"/>
<polygon fill="midnightblue" stroke="midnightblue" points="552.41,-92.13 561.4,-86.52 550.88,-85.3 552.41,-92.13"/>
</g>
<!-- Node3&#45;&gt;Node4 -->
<g id="edge3" class="edge">
<title>Node3&#45;&gt;Node4</title>
<path fill="none" stroke="midnightblue" d="M314.78,-67.5C289.01,-58.78 248.12,-44.6 213.25,-31 211.65,-30.37 210.01,-29.72 208.36,-29.05"/>
<polygon fill="midnightblue" stroke="midnightblue" points="209.52,-25.75 198.94,-25.14 206.84,-32.21 209.52,-25.75"/>
</g>
<!-- Node5 -->
<g id="node5" class="node">
<title>Node5</title>
<g id="a_node5"><a xlink:title=" ">
<polygon fill="white" stroke="#bfbfbf" points="417.75,-6 417.75,-25 466.75,-25 466.75,-6 417.75,-6"/>
<text text-anchor="middle" x="442.25" y="-13" font-family="Helvetica,sans-Serif" font-size="10.00">cstdlib</text>
</a>
</g>
</g>
<!-- Node3&#45;&gt;Node5 -->
<g id="edge4" class="edge">
<title>Node3&#45;&gt;Node5</title>
<path fill="none" stroke="midnightblue" d="M354.87,-67.48C371.61,-57.71 399.26,-41.58 418.97,-30.08"/>
<polygon fill="midnightblue" stroke="midnightblue" points="420.79,-33.07 427.67,-25.01 417.26,-27.02 420.79,-33.07"/>
</g>
<!-- Node6 -->
<g id="node6" class="node">
<title>Node6</title>
<g id="a_node6"><a xlink:title=" ">
<polygon fill="white" stroke="#bfbfbf" points="284.25,-6 284.25,-25 328.25,-25 328.25,-6 284.25,-6"/>
<text text-anchor="middle" x="306.25" y="-13" font-family="Helvetica,sans-Serif" font-size="10.00">ctime</text>
</a>
</g>
</g>
<!-- Node3&#45;&gt;Node6 -->
<g id="edge5" class="edge">
<title>Node3&#45;&gt;Node6</title>
<path fill="none" stroke="midnightblue" d="M335.38,-67.48C330.38,-58.73 322.46,-44.87 316.14,-33.81"/>
<polygon fill="midnightblue" stroke="midnightblue" points="319.12,-31.96 311.11,-25.01 313.04,-35.43 319.12,-31.96"/>
</g>
<!-- Node7 -->
<g id="node7" class="node">
<title>Node7</title>
<g id="a_node7"><a xlink:title=" ">
<polygon fill="white" stroke="#bfbfbf" points="346.75,-6 346.75,-25 399.75,-25 399.75,-6 346.75,-6"/>
<text text-anchor="middle" x="373.25" y="-13" font-family="Helvetica,sans-Serif" font-size="10.00">string.h</text>
</a>
</g>
</g>
<!-- Node3&#45;&gt;Node7 -->
<g id="edge6" class="edge">
<title>Node3&#45;&gt;Node7</title>
<path fill="none" stroke="midnightblue" d="M344.98,-67.48C349.83,-58.73 357.52,-44.87 363.65,-33.81"/>
<polygon fill="midnightblue" stroke="midnightblue" points="366.74,-35.45 368.53,-25.01 360.62,-32.06 366.74,-35.45"/>
</g>
<!-- Node8 -->
<g id="node8" class="node">
<title>Node8</title>
<g id="a_node8"><a xlink:title=" ">
<polygon fill="white" stroke="#bfbfbf" points="222.25,-6 222.25,-25 266.25,-25 266.25,-6 222.25,-6"/>
<text text-anchor="middle" x="244.25" y="-13" font-family="Helvetica,sans-Serif" font-size="10.00">string</text>
</a>
</g>
</g>
<!-- Node3&#45;&gt;Node8 -->
<g id="edge7" class="edge">
<title>Node3&#45;&gt;Node8</title>
<path fill="none" stroke="midnightblue" d="M326.5,-67.48C310.89,-57.8 285.19,-41.87 266.67,-30.39"/>
<polygon fill="midnightblue" stroke="midnightblue" points="268.33,-27.3 257.98,-25.01 264.64,-33.25 268.33,-27.3"/>
</g>
<!-- Node13&#45;&gt;Node3 -->
<g id="edge14" class="edge">
<title>Node13&#45;&gt;Node3</title>
<path fill="none" stroke="midnightblue" d="M200.56,-123.44C228.6,-114.32 273.2,-99.81 304.44,-89.65"/>
<polygon fill="midnightblue" stroke="midnightblue" points="305.65,-92.94 314.07,-86.52 303.48,-86.28 305.65,-92.94"/>
</g>
<!-- Node13&#45;&gt;Node4 -->
<g id="edge16" class="edge">
<title>Node13&#45;&gt;Node4</title>
<path fill="none" stroke="midnightblue" d="M89.21,-125.93C35.44,-118.61 -19.32,-102.49 7.25,-67 23.65,-45.1 98.64,-29.46 144.02,-21.81"/>
<polygon fill="midnightblue" stroke="midnightblue" points="144.74,-25.24 154.04,-20.17 143.61,-18.34 144.74,-25.24"/>
</g>
<!-- Node13&#45;&gt;Node9 -->
<g id="edge15" class="edge">
<title>Node13&#45;&gt;Node9</title>
<path fill="none" stroke="midnightblue" d="M179.54,-123.08C183.96,-115.61 190.42,-104.72 195.87,-95.52"/>
<polygon fill="midnightblue" stroke="midnightblue" points="198.98,-97.14 201.07,-86.75 192.96,-93.57 198.98,-97.14"/>
</g>
<!-- Node13&#45;&gt;Node10 -->
<g id="edge18" class="edge">
<title>Node13&#45;&gt;Node10</title>
<path fill="none" stroke="midnightblue" d="M167.65,-123.08C162,-115.46 153.71,-104.26 146.8,-94.94"/>
<polygon fill="midnightblue" stroke="midnightblue" points="149.5,-92.7 140.73,-86.75 143.87,-96.87 149.5,-92.7"/>
</g>
<!-- Node13&#45;&gt;Node11 -->
<g id="edge19" class="edge">
<title>Node13&#45;&gt;Node11</title>
<path fill="none" stroke="midnightblue" d="M220.68,-123.44C272.33,-113.92 355.76,-98.55 411.06,-88.36"/>
<polygon fill="midnightblue" stroke="midnightblue" points="411.84,-91.77 421.04,-86.52 410.57,-84.89 411.84,-91.77"/>
</g>
<!-- Node13&#45;&gt;Node12 -->
<g id="edge20" class="edge">
<title>Node13&#45;&gt;Node12</title>
<path fill="none" stroke="midnightblue" d="M243.57,-123.46C315.71,-114.54 431.93,-100.04 532.25,-87 532.35,-86.99 532.46,-86.97 532.56,-86.96"/>
<polygon fill="midnightblue" stroke="midnightblue" points="532.78,-90.46 542.24,-85.69 531.87,-83.52 532.78,-90.46"/>
</g>
<!-- Node14 -->
<g id="node14" class="node">
<title>Node14</title>
<g id="a_node14"><a xlink:title=" ">
<polygon fill="white" stroke="#bfbfbf" points="16.25,-67.5 16.25,-86.5 88.25,-86.5 88.25,-67.5 16.25,-67.5"/>
<text text-anchor="middle" x="52.25" y="-74.5" font-family="Helvetica,sans-Serif" font-size="10.00">date/date.h</text>
</a>
</g>
</g>
<!-- Node13&#45;&gt;Node14 -->
<g id="edge17" class="edge">
<title>Node13&#45;&gt;Node14</title>
<path fill="none" stroke="midnightblue" d="M154.92,-123.44C134.93,-114.6 103.51,-100.69 80.69,-90.59"/>
<polygon fill="midnightblue" stroke="midnightblue" points="82.05,-87.36 71.49,-86.52 79.22,-93.76 82.05,-87.36"/>
</g>
<!-- Node15&#45;&gt;Node11 -->
<g id="edge32" class="edge">
<title>Node15&#45;&gt;Node11</title>
<path fill="none" stroke="midnightblue" d="M561.26,-123.32C543.21,-114.62 515.21,-101.12 494.45,-91.11"/>
<polygon fill="midnightblue" stroke="midnightblue" points="495.73,-87.84 485.2,-86.65 492.69,-94.15 495.73,-87.84"/>
</g>
<!-- Node15&#45;&gt;Node12 -->
<g id="edge33" class="edge">
<title>Node15&#45;&gt;Node12</title>
<path fill="none" stroke="midnightblue" d="M582.56,-123.08C585.23,-115.85 589.1,-105.41 592.44,-96.4"/>
<polygon fill="midnightblue" stroke="midnightblue" points="595.82,-97.34 596.01,-86.75 589.26,-94.91 595.82,-97.34"/>
</g>
<!-- Node16 -->
<g id="node16" class="node">
<title>Node16</title>
<g id="a_node16"><a xlink:href="../../d2/df6/Scrypt_8hpp.html" target="_top" xlink:title=" ">
<polygon fill="white" stroke="black" points="732.25,-67.5 732.25,-86.5 860.25,-86.5 860.25,-67.5 732.25,-67.5"/>
<text text-anchor="middle" x="796.25" y="-74.5" font-family="Helvetica,sans-Serif" font-size="10.00">tools/scrypt/Scrypt.hpp</text>
</a>
</g>
</g>
<!-- Node15&#45;&gt;Node16 -->
<g id="edge22" class="edge">
<title>Node15&#45;&gt;Node16</title>
<path fill="none" stroke="midnightblue" d="M613.64,-123.44C651.17,-114.1 711.38,-99.12 752.32,-88.93"/>
<polygon fill="midnightblue" stroke="midnightblue" points="753.17,-92.33 762.03,-86.52 751.48,-85.53 753.17,-92.33"/>
</g>
<!-- Node16&#45;&gt;Node5 -->
<g id="edge23" class="edge">
<title>Node16&#45;&gt;Node5</title>
<path fill="none" stroke="midnightblue" d="M732.15,-72.21C666.58,-67.13 562.27,-55.71 475.25,-31 473.1,-30.39 470.91,-29.67 468.72,-28.87"/>
<polygon fill="midnightblue" stroke="midnightblue" points="469.97,-25.6 459.39,-25.09 467.35,-32.09 469.97,-25.6"/>
</g>
<!-- Node17 -->
<g id="node17" class="node">
<title>Node17</title>
<g id="a_node17"><a xlink:title=" ">
<polygon fill="white" stroke="#bfbfbf" points="550.25,-6 550.25,-25 618.25,-25 618.25,-6 550.25,-6"/>
<text text-anchor="middle" x="584.25" y="-13" font-family="Helvetica,sans-Serif" font-size="10.00">libscrypt.h</text>
</a>
</g>
</g>
<!-- Node16&#45;&gt;Node17 -->
<g id="edge24" class="edge">
<title>Node16&#45;&gt;Node17</title>
<path fill="none" stroke="midnightblue" d="M761.43,-67.43C727.13,-58.83 673.33,-44.89 627.25,-31 624.33,-30.12 621.31,-29.17 618.28,-28.2"/>
<polygon fill="midnightblue" stroke="midnightblue" points="619.32,-24.86 608.72,-25.06 617.13,-31.51 619.32,-24.86"/>
</g>
<!-- Node18 -->
<g id="node18" class="node">
<title>Node18</title>
<g id="a_node18"><a xlink:title=" ">
<polygon fill="white" stroke="#bfbfbf" points="636.25,-6 636.25,-25 772.25,-25 772.25,-6 636.25,-6"/>
<text text-anchor="middle" x="704.25" y="-13" font-family="Helvetica,sans-Serif" font-size="10.00">boost/algorithm/hex.hpp</text>
</a>
</g>
</g>
<!-- Node16&#45;&gt;Node18 -->
<g id="edge25" class="edge">
<title>Node16&#45;&gt;Node18</title>
<path fill="none" stroke="midnightblue" d="M783.07,-67.48C768.18,-57.84 743.71,-42.02 725.98,-30.55"/>
<polygon fill="midnightblue" stroke="midnightblue" points="727.71,-27.5 717.41,-25.01 723.91,-33.38 727.71,-27.5"/>
</g>
<!-- Node19 -->
<g id="node19" class="node">
<title>Node19</title>
<g id="a_node19"><a xlink:title=" ">
<polygon fill="white" stroke="#bfbfbf" points="790.75,-0.5 790.75,-30.5 915.75,-30.5 915.75,-0.5 790.75,-0.5"/>
<text text-anchor="start" x="798.75" y="-18.5" font-family="Helvetica,sans-Serif" font-size="10.00">boost/algorithm/string</text>
<text text-anchor="middle" x="853.25" y="-7.5" font-family="Helvetica,sans-Serif" font-size="10.00">/classification.hpp</text>
</a>
</g>
</g>
<!-- Node16&#45;&gt;Node19 -->
<g id="edge26" class="edge">
<title>Node16&#45;&gt;Node19</title>
<path fill="none" stroke="midnightblue" d="M804.42,-67.48C811.78,-59.79 822.91,-48.17 832.69,-37.96"/>
<polygon fill="midnightblue" stroke="midnightblue" points="835.43,-40.17 839.82,-30.52 830.37,-35.32 835.43,-40.17"/>
</g>
<!-- Node20 -->
<g id="node20" class="node">
<title>Node20</title>
<g id="a_node20"><a xlink:title=" ">
<polygon fill="white" stroke="#bfbfbf" points="933.75,-0.5 933.75,-30.5 1058.75,-30.5 1058.75,-0.5 933.75,-0.5"/>
<text text-anchor="start" x="941.75" y="-18.5" font-family="Helvetica,sans-Serif" font-size="10.00">boost/algorithm/string</text>
<text text-anchor="middle" x="996.25" y="-7.5" font-family="Helvetica,sans-Serif" font-size="10.00">/split.hpp</text>
</a>
</g>
</g>
<!-- Node16&#45;&gt;Node20 -->
<g id="edge27" class="edge">
<title>Node16&#45;&gt;Node20</title>
<path fill="none" stroke="midnightblue" d="M824.91,-67.48C854.65,-58.63 901.97,-44.55 939.35,-33.43"/>
<polygon fill="midnightblue" stroke="midnightblue" points="940.53,-36.73 949.12,-30.52 938.53,-30.02 940.53,-36.73"/>
</g>
<!-- Node21 -->
<g id="node21" class="node">
<title>Node21</title>
<g id="a_node21"><a xlink:title=" ">
<polygon fill="white" stroke="#bfbfbf" points="1077.25,-6 1077.25,-25 1137.25,-25 1137.25,-6 1077.25,-6"/>
<text text-anchor="middle" x="1107.25" y="-13" font-family="Helvetica,sans-Serif" font-size="10.00">iostream</text>
</a>
</g>
</g>
<!-- Node16&#45;&gt;Node21 -->
<g id="edge28" class="edge">
<title>Node16&#45;&gt;Node21</title>
<path fill="none" stroke="midnightblue" d="M860.46,-68.91C916.05,-61.94 998.29,-49.61 1068.25,-31 1071.07,-30.25 1073.96,-29.38 1076.84,-28.44"/>
<polygon fill="midnightblue" stroke="midnightblue" points="1078.16,-31.69 1086.44,-25.08 1075.85,-25.08 1078.16,-31.69"/>
</g>
<!-- Node22 -->
<g id="node22" class="node">
<title>Node22</title>
<g id="a_node22"><a xlink:title=" ">
<polygon fill="white" stroke="#bfbfbf" points="1155.25,-6 1155.25,-25 1211.25,-25 1211.25,-6 1155.25,-6"/>
<text text-anchor="middle" x="1183.25" y="-13" font-family="Helvetica,sans-Serif" font-size="10.00">sstream</text>
</a>
</g>
</g>
<!-- Node16&#45;&gt;Node22 -->
<g id="edge29" class="edge">
<title>Node16&#45;&gt;Node22</title>
<path fill="none" stroke="midnightblue" d="M860.37,-72.49C931.24,-67.52 1048.33,-56.08 1146.25,-31 1148.92,-30.32 1151.65,-29.5 1154.36,-28.59"/>
<polygon fill="midnightblue" stroke="midnightblue" points="1155.77,-31.81 1163.96,-25.09 1153.37,-25.23 1155.77,-31.81"/>
</g>
<!-- Node23 -->
<g id="node23" class="node">
<title>Node23</title>
<g id="a_node23"><a xlink:title=" ">
<polygon fill="white" stroke="#bfbfbf" points="1229.75,-6 1229.75,-25 1294.75,-25 1294.75,-6 1229.75,-6"/>
<text text-anchor="middle" x="1262.25" y="-13" font-family="Helvetica,sans-Serif" font-size="10.00">stdexcept</text>
</a>
</g>
</g>
<!-- Node16&#45;&gt;Node23 -->
<g id="edge30" class="edge">
<title>Node16&#45;&gt;Node23</title>
<path fill="none" stroke="midnightblue" d="M860.55,-73.71C944.27,-69.69 1094.71,-58.95 1220.25,-31 1223.67,-30.24 1227.19,-29.29 1230.68,-28.25"/>
<polygon fill="midnightblue" stroke="midnightblue" points="1231.86,-31.55 1240.29,-25.13 1229.7,-24.89 1231.86,-31.55"/>
</g>
<!-- Node24 -->
<g id="node24" class="node">
<title>Node24</title>
<g id="a_node24"><a xlink:title=" ">
<polygon fill="white" stroke="#bfbfbf" points="484.75,-6 484.75,-25 531.75,-25 531.75,-6 484.75,-6"/>
<text text-anchor="middle" x="508.25" y="-13" font-family="Helvetica,sans-Serif" font-size="10.00">vector</text>
</a>
</g>
</g>
<!-- Node16&#45;&gt;Node24 -->
<g id="edge31" class="edge">
<title>Node16&#45;&gt;Node24</title>
<path fill="none" stroke="midnightblue" d="M732.12,-69C679.95,-62.29 604.82,-50.27 541.25,-31 539.32,-30.41 537.35,-29.75 535.39,-29.03"/>
<polygon fill="midnightblue" stroke="midnightblue" points="536.35,-25.64 525.77,-25.12 533.72,-32.13 536.35,-25.64"/>
</g>
</g>
</svg>
        <g id="navigator" transform="translate(0 0)" fill="#404254">
                <rect fill="#f2f5e9" fill-opacity="0.5" stroke="#606060" stroke-width=".5" x="0" y="0" width="60" height="60"/>
                <use id="zoomplus" xlink:href="#zoomPlus" x="17" y="9" onmousedown="handleZoom(evt,'in')"/>
                <use id="zoomminus" xlink:href="#zoomMin" x="42" y="9" onmousedown="handleZoom(evt,'out')"/>
                <use id="reset" xlink:href="#resetDef" x="30" y="36" onmousedown="handleReset()"/>
                <g id="arrowUp" xlink:href="#dirArrow" transform="translate(30 24)" onmousedown="handlePan(0,-1)">
                  <use xlink:href="#rim" fill="#404040">
                        <set attributeName="fill" to="#808080" begin="arrowUp.mouseover" end="arrowUp.mouseout"/>
                  </use>
                  <path fill="none" stroke="white" stroke-width="1.5" d="M0,-3.0v7 M-2.5,-0.5L0,-3.0L2.5,-0.5"/>
                </g>
                <g id="arrowRight" xlink:href="#dirArrow" transform="rotate(90) translate(36 -43)" onmousedown="handlePan(1,0)">
                  <use xlink:href="#rim" fill="#404040">
                        <set attributeName="fill" to="#808080" begin="arrowRight.mouseover" end="arrowRight.mouseout"/>
                  </use>
                  <path fill="none" stroke="white" stroke-width="1.5" d="M0,-3.0v7 M-2.5,-0.5L0,-3.0L2.5,-0.5"/>
                </g>
                <g id="arrowDown" xlink:href="#dirArrow" transform="rotate(180) translate(-30 -48)" onmousedown="handlePan(0,1)">
                  <use xlink:href="#rim" fill="#404040">
                        <set attributeName="fill" to="#808080" begin="arrowDown.mouseover" end="arrowDown.mouseout"/>
                  </use>
                  <path fill="none" stroke="white" stroke-width="1.5" d="M0,-3.0v7 M-2.5,-0.5L0,-3.0L2.5,-0.5"/>
                </g>
                <g id="arrowLeft" xlink:href="#dirArrow" transform="rotate(270) translate(-36 17)" onmousedown="handlePan(-1,0)">
                  <use xlink:href="#rim" fill="#404040">
                        <set attributeName="fill" to="#808080" begin="arrowLeft.mouseover" end="arrowLeft.mouseout"/>
                  </use>
                  <path fill="none" stroke="white" stroke-width="1.5" d="M0,-3.0v7 M-2.5,-0.5L0,-3.0L2.5,-0.5"/>
                </g>
        </g>
        <svg viewBox="0 0 15 15" width="100%" height="30px" preserveAspectRatio="xMaxYMin meet">
         <g id="arrow_out" transform="scale(0.3 0.3)">
          <a xlink:href="ODB__Auth__Prologue_8hpp__incl_org.svg" target="_base">
           <rect id="button" ry="5" rx="5" y="6" x="6" height="38" width="38"
                fill="#f2f5e9" fill-opacity="0.5" stroke="#606060" stroke-width="1.0"/>
           <path id="arrow"
             d="M 11.500037,31.436501 C 11.940474,20.09759 22.043105,11.32322 32.158766,21.979434 L 37.068811,17.246167 C 37.068811,17.246167 37.088388,32 37.088388,32 L 22.160133,31.978069 C 22.160133,31.978069 26.997745,27.140456 26.997745,27.140456 C 18.528582,18.264221 13.291696,25.230495 11.500037,31.436501 z"
             style="fill:#404040;"/>
          </a>
         </g>
        </svg>
</svg>
