<?xml version="1.0" encoding="UTF-8" standalone="no"?>
<!DOCTYPE svg PUBLIC "-//W3C//DTD SVG 1.1//EN"
 "http://www.w3.org/Graphics/SVG/1.1/DTD/svg11.dtd">
<!-- Generated by graphviz version 2.43.0 (0)
 -->
<!-- Title: src/hardware/serializers/DeviceSerializer.cpp Pages: 1 -->
<!--zoomable 330 -->
<svg id="main" version="1.1" xmlns="http://www.w3.org/2000/svg" xmlns:xlink="http://www.w3.org/1999/xlink" xml:space="preserve" onload="init(evt)">
<style type="text/css"><![CDATA[
.edge:hover path { stroke: red; }
.edge:hover polygon { stroke: red; fill: red; }
]]></style>
<script type="text/javascript"><![CDATA[
var edges = document.getElementsByTagName('g');
if (edges && edges.length) {
  for (var i=0;i<edges.length;i++) {
    if (edges[i].id.substr(0,4)=='edge') {
      edges[i].setAttribute('class','edge');
    }
  }
}
]]></script>
        <defs>
                <circle id="rim" cx="0" cy="0" r="7"/>
                <circle id="rim2" cx="0" cy="0" r="3.5"/>
                <g id="zoomPlus">
                        <use xlink:href="#rim" fill="#404040">
                                <set attributeName="fill" to="#808080" begin="zoomplus.mouseover" end="zoomplus.mouseout"/>
                        </use>
                        <path d="M-4,0h8M0,-4v8" fill="none" stroke="white" stroke-width="1.5" pointer-events="none"/>
                </g>
                <g id="zoomMin">
                        <use xlink:href="#rim" fill="#404040">
                                <set attributeName="fill" to="#808080" begin="zoomminus.mouseover" end="zoomminus.mouseout"/>
                        </use>
                        <path d="M-4,0h8" fill="none" stroke="white" stroke-width="1.5" pointer-events="none"/>
                </g>
                <g id="dirArrow">
                        <path fill="none" stroke="white" stroke-width="1.5" d="M0,-3.0v7 M-2.5,-0.5L0,-3.0L2.5,-0.5"/>
                </g>
               <g id="resetDef">
                       <use xlink:href="#rim2" fill="#404040">
                               <set attributeName="fill" to="#808080" begin="reset.mouseover" end="reset.mouseout"/>
                       </use>
               </g>
        </defs>

<script type="text/javascript">
var viewWidth = 2434;
var viewHeight = 330;
var sectionId = 'dynsection-0';
</script>
<script xlink:href="../../svgpan.js"/>
<svg id="graph" class="graph">
<g id="viewport">
<title>src/hardware/serializers/DeviceSerializer.cpp</title>
<polygon fill="white" stroke="transparent" points="-4,4 -4,-326 2430,-326 2430,4 -4,4"/>
<!-- Node1 -->
<g id="node1" class="node">
<title>Node1</title>
<g id="a_node1"><a xlink:title=" ">
<polygon fill="#bfbfbf" stroke="black" points="604,-291.5 604,-321.5 737,-321.5 737,-291.5 604,-291.5"/>
<text text-anchor="start" x="612" y="-309.5" font-family="Helvetica,sans-Serif" font-size="10.00">src/hardware/serializers</text>
<text text-anchor="middle" x="670.5" y="-298.5" font-family="Helvetica,sans-Serif" font-size="10.00">/DeviceSerializer.cpp</text>
</a>
</g>
</g>
<!-- Node2 -->
<g id="node2" class="node">
<title>Node2</title>
<g id="a_node2"><a xlink:href="../../da/d25/DeviceSerializer_8hpp.html" target="_top" xlink:title=" ">
<polygon fill="white" stroke="black" points="545,-224.5 545,-254.5 664,-254.5 664,-224.5 545,-224.5"/>
<text text-anchor="start" x="553" y="-242.5" font-family="Helvetica,sans-Serif" font-size="10.00">hardware/serializers</text>
<text text-anchor="middle" x="604.5" y="-231.5" font-family="Helvetica,sans-Serif" font-size="10.00">/DeviceSerializer.hpp</text>
</a>
</g>
</g>
<!-- Node1&#45;&gt;Node2 -->
<g id="edge1" class="edge">
<title>Node1&#45;&gt;Node2</title>
<path fill="none" stroke="midnightblue" d="M656.18,-291.4C647.36,-282.71 635.88,-271.4 625.98,-261.66"/>
<polygon fill="midnightblue" stroke="midnightblue" points="628.37,-259.1 618.79,-254.58 623.46,-264.09 628.37,-259.1"/>
</g>
<!-- Node18 -->
<g id="node18" class="node">
<title>Node18</title>
<g id="a_node18"><a xlink:href="../../de/d8c/JSONUtils_8hpp.html" target="_top" xlink:title=" ">
<polygon fill="white" stroke="black" points="746,-230 746,-249 857,-249 857,-230 746,-230"/>
<text text-anchor="middle" x="801.5" y="-237" font-family="Helvetica,sans-Serif" font-size="10.00">tools/JSONUtils.hpp</text>
</a>
</g>
</g>
<!-- Node1&#45;&gt;Node18 -->
<g id="edge21" class="edge">
<title>Node1&#45;&gt;Node18</title>
<path fill="none" stroke="midnightblue" d="M698.93,-291.4C721.61,-280.14 753.13,-264.5 775.22,-253.54"/>
<polygon fill="midnightblue" stroke="midnightblue" points="776.95,-256.59 784.36,-249.01 773.84,-250.32 776.95,-256.59"/>
</g>
<!-- Node3 -->
<g id="node3" class="node">
<title>Node3</title>
<g id="a_node3"><a xlink:href="../../dc/d49/LeosacFwd_8hpp.html" target="_top" xlink:title=" ">
<polygon fill="white" stroke="black" points="135.5,-112.5 135.5,-131.5 227.5,-131.5 227.5,-112.5 135.5,-112.5"/>
<text text-anchor="middle" x="181.5" y="-119.5" font-family="Helvetica,sans-Serif" font-size="10.00">LeosacFwd.hpp</text>
</a>
</g>
</g>
<!-- Node2&#45;&gt;Node3 -->
<g id="edge2" class="edge">
<title>Node2&#45;&gt;Node3</title>
<path fill="none" stroke="midnightblue" d="M553.05,-224.45C468.14,-201.27 300.32,-155.44 222.68,-134.24"/>
<polygon fill="midnightblue" stroke="midnightblue" points="223.35,-130.8 212.78,-131.54 221.51,-137.55 223.35,-130.8"/>
</g>
<!-- Node6 -->
<g id="node6" class="node">
<title>Node6</title>
<g id="a_node6"><a xlink:href="../../da/d14/Device_8hpp.html" target="_top" xlink:title=" ">
<polygon fill="white" stroke="black" points="443.5,-168.5 443.5,-187.5 563.5,-187.5 563.5,-168.5 443.5,-168.5"/>
<text text-anchor="middle" x="503.5" y="-175.5" font-family="Helvetica,sans-Serif" font-size="10.00">hardware/Device.hpp</text>
</a>
</g>
</g>
<!-- Node2&#45;&gt;Node6 -->
<g id="edge5" class="edge">
<title>Node2&#45;&gt;Node6</title>
<path fill="none" stroke="midnightblue" d="M580.56,-224.4C564.37,-214.86 543.09,-202.32 527,-192.84"/>
<polygon fill="midnightblue" stroke="midnightblue" points="528.59,-189.72 518.2,-187.66 525.04,-195.75 528.59,-189.72"/>
</g>
<!-- Node17 -->
<g id="node17" class="node">
<title>Node17</title>
<g id="a_node17"><a xlink:title=" ">
<polygon fill="white" stroke="#bfbfbf" points="585.5,-168.5 585.5,-187.5 695.5,-187.5 695.5,-168.5 585.5,-168.5"/>
<text text-anchor="middle" x="640.5" y="-175.5" font-family="Helvetica,sans-Serif" font-size="10.00">nlohmann/json.hpp</text>
</a>
</g>
</g>
<!-- Node2&#45;&gt;Node17 -->
<g id="edge20" class="edge">
<title>Node2&#45;&gt;Node17</title>
<path fill="none" stroke="midnightblue" d="M613.03,-224.4C618.1,-216.02 624.57,-205.33 629.96,-196.42"/>
<polygon fill="midnightblue" stroke="midnightblue" points="633.08,-198.03 635.26,-187.66 627.09,-194.4 633.08,-198.03"/>
</g>
<!-- Node4 -->
<g id="node4" class="node">
<title>Node4</title>
<g id="a_node4"><a xlink:title=" ">
<polygon fill="white" stroke="#bfbfbf" points="208.5,-56.5 208.5,-75.5 266.5,-75.5 266.5,-56.5 208.5,-56.5"/>
<text text-anchor="middle" x="237.5" y="-63.5" font-family="Helvetica,sans-Serif" font-size="10.00">memory</text>
</a>
</g>
</g>
<!-- Node3&#45;&gt;Node4 -->
<g id="edge3" class="edge">
<title>Node3&#45;&gt;Node4</title>
<path fill="none" stroke="midnightblue" d="M190.5,-112.32C198.69,-104.42 211.01,-92.55 220.97,-82.94"/>
<polygon fill="midnightblue" stroke="midnightblue" points="223.57,-85.29 228.34,-75.83 218.71,-80.26 223.57,-85.29"/>
</g>
<!-- Node5 -->
<g id="node5" class="node">
<title>Node5</title>
<g id="a_node5"><a xlink:title=" ">
<polygon fill="white" stroke="#bfbfbf" points="285,-56.5 285,-75.5 332,-75.5 332,-56.5 285,-56.5"/>
<text text-anchor="middle" x="308.5" y="-63.5" font-family="Helvetica,sans-Serif" font-size="10.00">vector</text>
</a>
</g>
</g>
<!-- Node3&#45;&gt;Node5 -->
<g id="edge4" class="edge">
<title>Node3&#45;&gt;Node5</title>
<path fill="none" stroke="midnightblue" d="M201.62,-112.44C222.52,-103.56 255.43,-89.56 279.22,-79.45"/>
<polygon fill="midnightblue" stroke="midnightblue" points="280.64,-82.65 288.47,-75.52 277.9,-76.21 280.64,-82.65"/>
</g>
<!-- Node7 -->
<g id="node7" class="node">
<title>Node7</title>
<g id="a_node7"><a xlink:href="../../d9/dc8/HardwareFwd_8hpp.html" target="_top" xlink:title=" ">
<polygon fill="white" stroke="black" points="245.5,-112.5 245.5,-131.5 399.5,-131.5 399.5,-112.5 245.5,-112.5"/>
<text text-anchor="middle" x="322.5" y="-119.5" font-family="Helvetica,sans-Serif" font-size="10.00">hardware/HardwareFwd.hpp</text>
</a>
</g>
</g>
<!-- Node6&#45;&gt;Node7 -->
<g id="edge6" class="edge">
<title>Node6&#45;&gt;Node7</title>
<path fill="none" stroke="midnightblue" d="M474.82,-168.44C443.97,-159.24 394.77,-144.56 360.67,-134.39"/>
<polygon fill="midnightblue" stroke="midnightblue" points="361.63,-131.02 351.05,-131.52 359.63,-137.73 361.63,-131.02"/>
</g>
<!-- Node8 -->
<g id="node8" class="node">
<title>Node8</title>
<g id="a_node8"><a xlink:href="../../dc/dea/Uuid_8hpp.html" target="_top" xlink:title=" ">
<polygon fill="white" stroke="black" points="350,-56.5 350,-75.5 437,-75.5 437,-56.5 350,-56.5"/>
<text text-anchor="middle" x="393.5" y="-63.5" font-family="Helvetica,sans-Serif" font-size="10.00">tools/Uuid.hpp</text>
</a>
</g>
</g>
<!-- Node6&#45;&gt;Node8 -->
<g id="edge15" class="edge">
<title>Node6&#45;&gt;Node8</title>
<path fill="none" stroke="midnightblue" d="M492.79,-168.42C482.02,-159.63 465.11,-145.4 451.5,-132 435.59,-116.33 418.74,-97.11 407.32,-83.65"/>
<polygon fill="midnightblue" stroke="midnightblue" points="409.78,-81.14 400.67,-75.73 404.42,-85.64 409.78,-81.14"/>
</g>
<!-- Node13 -->
<g id="node13" class="node">
<title>Node13</title>
<g id="a_node13"><a xlink:title=" ">
<polygon fill="white" stroke="#bfbfbf" points="475.5,-0.5 475.5,-19.5 555.5,-19.5 555.5,-0.5 475.5,-0.5"/>
<text text-anchor="middle" x="515.5" y="-7.5" font-family="Helvetica,sans-Serif" font-size="10.00">odb/core.hxx</text>
</a>
</g>
</g>
<!-- Node6&#45;&gt;Node13 -->
<g id="edge18" class="edge">
<title>Node6&#45;&gt;Node13</title>
<path fill="none" stroke="midnightblue" d="M499.9,-168.22C496.44,-159.28 491.47,-144.94 489.5,-132 484.43,-98.61 480.75,-88.63 489.5,-56 492.15,-46.1 497.57,-36.13 502.77,-28.1"/>
<polygon fill="midnightblue" stroke="midnightblue" points="505.79,-29.89 508.61,-19.68 500.04,-25.91 505.79,-29.89"/>
</g>
<!-- Node14 -->
<g id="node14" class="node">
<title>Node14</title>
<g id="a_node14"><a xlink:title=" ">
<polygon fill="white" stroke="#bfbfbf" points="1501.5,-0.5 1501.5,-19.5 1545.5,-19.5 1545.5,-0.5 1501.5,-0.5"/>
<text text-anchor="middle" x="1523.5" y="-7.5" font-family="Helvetica,sans-Serif" font-size="10.00">string</text>
</a>
</g>
</g>
<!-- Node6&#45;&gt;Node14 -->
<g id="edge19" class="edge">
<title>Node6&#45;&gt;Node14</title>
<path fill="none" stroke="midnightblue" d="M503.21,-168.21C503.27,-153.96 505.68,-125.98 522.5,-112 560.74,-80.21 1323.2,-25.05 1491.02,-13.26"/>
<polygon fill="midnightblue" stroke="midnightblue" points="1491.47,-16.73 1501.2,-12.54 1490.98,-9.75 1491.47,-16.73"/>
</g>
<!-- Node15 -->
<g id="node15" class="node">
<title>Node15</title>
<g id="a_node15"><a xlink:title=" ">
<polygon fill="white" stroke="#bfbfbf" points="531.5,-112.5 531.5,-131.5 581.5,-131.5 581.5,-112.5 531.5,-112.5"/>
<text text-anchor="middle" x="556.5" y="-119.5" font-family="Helvetica,sans-Serif" font-size="10.00">cstdint</text>
</a>
</g>
</g>
<!-- Node6&#45;&gt;Node15 -->
<g id="edge16" class="edge">
<title>Node6&#45;&gt;Node15</title>
<path fill="none" stroke="midnightblue" d="M512.25,-168.08C519.97,-160.22 531.4,-148.57 540.72,-139.08"/>
<polygon fill="midnightblue" stroke="midnightblue" points="543.4,-141.34 547.91,-131.75 538.41,-136.44 543.4,-141.34"/>
</g>
<!-- Node16 -->
<g id="node16" class="node">
<title>Node16</title>
<g id="a_node16"><a xlink:title=" ">
<polygon fill="white" stroke="#bfbfbf" points="600,-112.5 600,-131.5 699,-131.5 699,-112.5 600,-112.5"/>
<text text-anchor="middle" x="649.5" y="-119.5" font-family="Helvetica,sans-Serif" font-size="10.00">odb/callback.hxx</text>
</a>
</g>
</g>
<!-- Node6&#45;&gt;Node16 -->
<g id="edge17" class="edge">
<title>Node6&#45;&gt;Node16</title>
<path fill="none" stroke="midnightblue" d="M526.63,-168.44C550.98,-159.44 589.51,-145.19 616.92,-135.05"/>
<polygon fill="midnightblue" stroke="midnightblue" points="618.31,-138.27 626.47,-131.52 615.88,-131.7 618.31,-138.27"/>
</g>
<!-- Node7&#45;&gt;Node4 -->
<g id="edge14" class="edge">
<title>Node7&#45;&gt;Node4</title>
<path fill="none" stroke="midnightblue" d="M308.84,-112.32C295.58,-103.9 275.23,-90.97 259.65,-81.07"/>
<polygon fill="midnightblue" stroke="midnightblue" points="261.44,-78.06 251.12,-75.65 257.69,-83.97 261.44,-78.06"/>
</g>
<!-- Node7&#45;&gt;Node8 -->
<g id="edge7" class="edge">
<title>Node7&#45;&gt;Node8</title>
<path fill="none" stroke="midnightblue" d="M333.91,-112.32C344.61,-104.18 360.84,-91.84 373.66,-82.09"/>
<polygon fill="midnightblue" stroke="midnightblue" points="376.04,-84.67 381.89,-75.83 371.81,-79.1 376.04,-84.67"/>
</g>
<!-- Node9 -->
<g id="node9" class="node">
<title>Node9</title>
<g id="a_node9"><a xlink:title=" ">
<polygon fill="white" stroke="#bfbfbf" points="639,-0.5 639,-19.5 764,-19.5 764,-0.5 639,-0.5"/>
<text text-anchor="middle" x="701.5" y="-7.5" font-family="Helvetica,sans-Serif" font-size="10.00">boost/lexical_cast.hpp</text>
</a>
</g>
</g>
<!-- Node8&#45;&gt;Node9 -->
<g id="edge8" class="edge">
<title>Node8&#45;&gt;Node9</title>
<path fill="none" stroke="midnightblue" d="M437.3,-57.32C491.15,-47.88 582.75,-31.82 642.7,-21.31"/>
<polygon fill="midnightblue" stroke="midnightblue" points="643.52,-24.72 652.77,-19.54 642.31,-17.82 643.52,-24.72"/>
</g>
<!-- Node10 -->
<g id="node10" class="node">
<title>Node10</title>
<g id="a_node10"><a xlink:title=" ">
<polygon fill="white" stroke="#bfbfbf" points="0,-0.5 0,-19.5 181,-19.5 181,-0.5 0,-0.5"/>
<text text-anchor="middle" x="90.5" y="-7.5" font-family="Helvetica,sans-Serif" font-size="10.00">boost/uuid/random_generator.hpp</text>
</a>
</g>
</g>
<!-- Node8&#45;&gt;Node10 -->
<g id="edge9" class="edge">
<title>Node8&#45;&gt;Node10</title>
<path fill="none" stroke="midnightblue" d="M349.76,-57.21C296.63,-47.74 206.81,-31.73 148.09,-21.26"/>
<polygon fill="midnightblue" stroke="midnightblue" points="148.68,-17.81 138.22,-19.5 147.45,-24.71 148.68,-17.81"/>
</g>
<!-- Node11 -->
<g id="node11" class="node">
<title>Node11</title>
<g id="a_node11"><a xlink:title=" ">
<polygon fill="white" stroke="#bfbfbf" points="199,-0.5 199,-19.5 312,-19.5 312,-0.5 199,-0.5"/>
<text text-anchor="middle" x="255.5" y="-7.5" font-family="Helvetica,sans-Serif" font-size="10.00">boost/uuid/uuid.hpp</text>
</a>
</g>
</g>
<!-- Node8&#45;&gt;Node11 -->
<g id="edge10" class="edge">
<title>Node8&#45;&gt;Node11</title>
<path fill="none" stroke="midnightblue" d="M371.63,-56.44C348.72,-47.48 312.52,-33.31 286.63,-23.18"/>
<polygon fill="midnightblue" stroke="midnightblue" points="287.85,-19.9 277.26,-19.52 285.3,-26.42 287.85,-19.9"/>
</g>
<!-- Node12 -->
<g id="node12" class="node">
<title>Node12</title>
<g id="a_node12"><a xlink:title=" ">
<polygon fill="white" stroke="#bfbfbf" points="330,-0.5 330,-19.5 457,-19.5 457,-0.5 330,-0.5"/>
<text text-anchor="middle" x="393.5" y="-7.5" font-family="Helvetica,sans-Serif" font-size="10.00">boost/uuid/uuid_io.hpp</text>
</a>
</g>
</g>
<!-- Node8&#45;&gt;Node12 -->
<g id="edge11" class="edge">
<title>Node8&#45;&gt;Node12</title>
<path fill="none" stroke="midnightblue" d="M393.5,-56.08C393.5,-49.01 393.5,-38.86 393.5,-29.99"/>
<polygon fill="midnightblue" stroke="midnightblue" points="397,-29.75 393.5,-19.75 390,-29.75 397,-29.75"/>
</g>
<!-- Node8&#45;&gt;Node13 -->
<g id="edge12" class="edge">
<title>Node8&#45;&gt;Node13</title>
<path fill="none" stroke="midnightblue" d="M412.83,-56.44C432.82,-47.6 464.24,-33.69 487.06,-23.59"/>
<polygon fill="midnightblue" stroke="midnightblue" points="488.53,-26.76 496.26,-19.52 485.7,-20.36 488.53,-26.76"/>
</g>
<!-- Node8&#45;&gt;Node14 -->
<g id="edge13" class="edge">
<title>Node8&#45;&gt;Node14</title>
<path fill="none" stroke="midnightblue" d="M437.43,-60.39C453.76,-58.81 472.46,-57.15 489.5,-56 880.06,-29.72 978.54,-39.42 1369.5,-20 1411.49,-17.91 1459.9,-15 1491.06,-13.06"/>
<polygon fill="midnightblue" stroke="midnightblue" points="1491.56,-16.54 1501.32,-12.42 1491.12,-9.55 1491.56,-16.54"/>
</g>
<!-- Node18&#45;&gt;Node8 -->
<g id="edge63" class="edge">
<title>Node18&#45;&gt;Node8</title>
<path fill="none" stroke="midnightblue" d="M791.53,-229.85C780.85,-220.28 763.79,-204.08 751.5,-188 727.8,-156.99 739.84,-133.85 707.5,-112 666.07,-84.01 525.41,-73.08 447.15,-69.1"/>
<polygon fill="midnightblue" stroke="midnightblue" points="447.16,-65.6 437,-68.6 446.82,-72.59 447.16,-65.6"/>
</g>
<!-- Node18&#45;&gt;Node9 -->
<g id="edge64" class="edge">
<title>Node18&#45;&gt;Node9</title>
<path fill="none" stroke="midnightblue" d="M797.7,-229.86C783.01,-196.43 729.69,-75.13 709.41,-28.99"/>
<polygon fill="midnightblue" stroke="midnightblue" points="712.53,-27.4 705.3,-19.65 706.12,-30.21 712.53,-27.4"/>
</g>
<!-- Node18&#45;&gt;Node17 -->
<g id="edge66" class="edge">
<title>Node18&#45;&gt;Node17</title>
<path fill="none" stroke="midnightblue" d="M778.43,-229.98C750.82,-219.77 704.38,-202.61 673.1,-191.05"/>
<polygon fill="midnightblue" stroke="midnightblue" points="674.12,-187.69 663.52,-187.51 671.69,-194.26 674.12,-187.69"/>
</g>
<!-- Node19 -->
<g id="node19" class="node">
<title>Node19</title>
<g id="a_node19"><a xlink:href="../../d3/d6f/AuthFwd_8hpp.html" target="_top" xlink:title=" ">
<polygon fill="white" stroke="black" points="805,-168.5 805,-187.5 934,-187.5 934,-168.5 805,-168.5"/>
<text text-anchor="middle" x="869.5" y="-175.5" font-family="Helvetica,sans-Serif" font-size="10.00">core/auth/AuthFwd.hpp</text>
</a>
</g>
</g>
<!-- Node18&#45;&gt;Node19 -->
<g id="edge22" class="edge">
<title>Node18&#45;&gt;Node19</title>
<path fill="none" stroke="midnightblue" d="M811.24,-229.98C821.85,-220.7 839.02,-205.67 851.98,-194.33"/>
<polygon fill="midnightblue" stroke="midnightblue" points="854.55,-196.73 859.78,-187.51 849.94,-191.46 854.55,-196.73"/>
</g>
<!-- Node22 -->
<g id="node22" class="node">
<title>Node22</title>
<g id="a_node22"><a xlink:href="../../d1/ddd/leosacexception_8hpp.html" target="_top" xlink:title="Exception class for LEOSAC Project related errors.">
<polygon fill="white" stroke="black" points="1505.5,-168.5 1505.5,-187.5 1673.5,-187.5 1673.5,-168.5 1505.5,-168.5"/>
<text text-anchor="middle" x="1589.5" y="-175.5" font-family="Helvetica,sans-Serif" font-size="10.00">exception/leosacexception.hpp</text>
</a>
</g>
</g>
<!-- Node18&#45;&gt;Node22 -->
<g id="edge26" class="edge">
<title>Node18&#45;&gt;Node22</title>
<path fill="none" stroke="midnightblue" d="M857.22,-234.29C990.61,-224.22 1329.44,-198.64 1495.23,-186.12"/>
<polygon fill="midnightblue" stroke="midnightblue" points="1495.7,-189.59 1505.41,-185.35 1495.18,-182.61 1495.7,-189.59"/>
</g>
<!-- Node36 -->
<g id="node36" class="node">
<title>Node36</title>
<g id="a_node36"><a xlink:title=" ">
<polygon fill="white" stroke="#bfbfbf" points="1691.5,-168.5 1691.5,-187.5 1741.5,-187.5 1741.5,-168.5 1691.5,-168.5"/>
<text text-anchor="middle" x="1716.5" y="-175.5" font-family="Helvetica,sans-Serif" font-size="10.00">chrono</text>
</a>
</g>
</g>
<!-- Node18&#45;&gt;Node36 -->
<g id="edge65" class="edge">
<title>Node18&#45;&gt;Node36</title>
<path fill="none" stroke="midnightblue" d="M857.07,-239.18C995.25,-240.04 1365.42,-237.3 1681.11,-187.88"/>
<polygon fill="midnightblue" stroke="midnightblue" points="1682.04,-191.28 1691.37,-186.26 1680.95,-184.36 1682.04,-191.28"/>
</g>
<!-- Node37 -->
<g id="node37" class="node">
<title>Node37</title>
<g id="a_node37"><a xlink:title=" ">
<polygon fill="white" stroke="#bfbfbf" points="1760,-168.5 1760,-187.5 1829,-187.5 1829,-168.5 1760,-168.5"/>
<text text-anchor="middle" x="1794.5" y="-175.5" font-family="Helvetica,sans-Serif" font-size="10.00">type_traits</text>
</a>
</g>
</g>
<!-- Node18&#45;&gt;Node37 -->
<g id="edge67" class="edge">
<title>Node18&#45;&gt;Node37</title>
<path fill="none" stroke="midnightblue" d="M857.12,-238.42C1002.42,-237.59 1405.4,-231.35 1750.07,-187.83"/>
<polygon fill="midnightblue" stroke="midnightblue" points="1750.52,-191.3 1759.99,-186.56 1749.63,-184.36 1750.52,-191.3"/>
</g>
<!-- Node19&#45;&gt;Node4 -->
<g id="edge24" class="edge">
<title>Node19&#45;&gt;Node4</title>
<path fill="none" stroke="midnightblue" d="M853.02,-168.45C824.32,-154.02 762.94,-125.12 707.5,-112 523.22,-68.39 467.66,-104.99 276.94,-75.99"/>
<polygon fill="midnightblue" stroke="midnightblue" points="277.29,-72.5 266.87,-74.41 276.21,-79.42 277.29,-72.5"/>
</g>
<!-- Node20 -->
<g id="node20" class="node">
<title>Node20</title>
<g id="a_node20"><a xlink:title=" ">
<polygon fill="white" stroke="#bfbfbf" points="945,-112.5 945,-131.5 998,-131.5 998,-112.5 945,-112.5"/>
<text text-anchor="middle" x="971.5" y="-119.5" font-family="Helvetica,sans-Serif" font-size="10.00">cstddef</text>
</a>
</g>
</g>
<!-- Node19&#45;&gt;Node20 -->
<g id="edge23" class="edge">
<title>Node19&#45;&gt;Node20</title>
<path fill="none" stroke="midnightblue" d="M885.89,-168.32C902.17,-159.7 927.37,-146.36 946.22,-136.39"/>
<polygon fill="midnightblue" stroke="midnightblue" points="947.95,-139.43 955.15,-131.65 944.68,-133.24 947.95,-139.43"/>
</g>
<!-- Node21 -->
<g id="node21" class="node">
<title>Node21</title>
<g id="a_node21"><a xlink:title=" ">
<polygon fill="white" stroke="#bfbfbf" points="832,-112.5 832,-131.5 927,-131.5 927,-112.5 832,-112.5"/>
<text text-anchor="middle" x="879.5" y="-119.5" font-family="Helvetica,sans-Serif" font-size="10.00">odb/lazy&#45;ptr.hxx</text>
</a>
</g>
</g>
<!-- Node19&#45;&gt;Node21 -->
<g id="edge25" class="edge">
<title>Node19&#45;&gt;Node21</title>
<path fill="none" stroke="midnightblue" d="M871.15,-168.08C872.48,-160.93 874.38,-150.64 876.04,-141.69"/>
<polygon fill="midnightblue" stroke="midnightblue" points="879.5,-142.22 877.88,-131.75 872.62,-140.95 879.5,-142.22"/>
</g>
<!-- Node22&#45;&gt;Node14 -->
<g id="edge32" class="edge">
<title>Node22&#45;&gt;Node14</title>
<path fill="none" stroke="midnightblue" d="M1505.46,-176.17C1360.5,-173.85 1075.97,-165.09 1045.5,-132 982.24,-63.3 1374.04,-23.81 1491.16,-13.64"/>
<polygon fill="midnightblue" stroke="midnightblue" points="1491.63,-17.11 1501.3,-12.78 1491.04,-10.14 1491.63,-17.11"/>
</g>
<!-- Node22&#45;&gt;Node20 -->
<g id="edge30" class="edge">
<title>Node22&#45;&gt;Node20</title>
<path fill="none" stroke="midnightblue" d="M1505.48,-174.09C1392.79,-169.36 1186.69,-157.78 1012.5,-132 1011.2,-131.81 1009.88,-131.6 1008.56,-131.37"/>
<polygon fill="midnightblue" stroke="midnightblue" points="1008.78,-127.86 998.31,-129.44 1007.49,-134.73 1008.78,-127.86"/>
</g>
<!-- Node23 -->
<g id="node23" class="node">
<title>Node23</title>
<g id="a_node23"><a xlink:href="../../d6/d2f/Stacktrace_8hpp.html" target="_top" xlink:title=" ">
<polygon fill="white" stroke="black" points="1054.5,-112.5 1054.5,-131.5 1170.5,-131.5 1170.5,-112.5 1054.5,-112.5"/>
<text text-anchor="middle" x="1112.5" y="-119.5" font-family="Helvetica,sans-Serif" font-size="10.00">tools/Stacktrace.hpp</text>
</a>
</g>
</g>
<!-- Node22&#45;&gt;Node23 -->
<g id="edge27" class="edge">
<title>Node22&#45;&gt;Node23</title>
<path fill="none" stroke="midnightblue" d="M1506.59,-168.49C1425.98,-160.09 1299.83,-146.58 1180.63,-132.11"/>
<polygon fill="midnightblue" stroke="midnightblue" points="1180.94,-128.63 1170.59,-130.89 1180.1,-135.57 1180.94,-128.63"/>
</g>
<!-- Node24 -->
<g id="node24" class="node">
<title>Node24</title>
<g id="a_node24"><a xlink:title=" ">
<polygon fill="white" stroke="#bfbfbf" points="1189,-112.5 1189,-131.5 1254,-131.5 1254,-112.5 1189,-112.5"/>
<text text-anchor="middle" x="1221.5" y="-119.5" font-family="Helvetica,sans-Serif" font-size="10.00">exception</text>
</a>
</g>
</g>
<!-- Node22&#45;&gt;Node24 -->
<g id="edge31" class="edge">
<title>Node22&#45;&gt;Node24</title>
<path fill="none" stroke="midnightblue" d="M1515.21,-168.48C1451.1,-160.74 1355.8,-148.3 1264.13,-132.18"/>
<polygon fill="midnightblue" stroke="midnightblue" points="1264.59,-128.71 1254.13,-130.41 1263.36,-135.6 1264.59,-128.71"/>
</g>
<!-- Node25 -->
<g id="node25" class="node">
<title>Node25</title>
<g id="a_node25"><a xlink:href="../../d7/d7a/configexception_8hpp.html" target="_top" xlink:title=" ">
<polygon fill="white" stroke="black" points="1272,-112.5 1272,-131.5 1387,-131.5 1387,-112.5 1272,-112.5"/>
<text text-anchor="middle" x="1329.5" y="-119.5" font-family="Helvetica,sans-Serif" font-size="10.00">configexception.hpp</text>
</a>
</g>
</g>
<!-- Node22&#45;&gt;Node25 -->
<g id="edge33" class="edge">
<title>Node22&#45;&gt;Node25</title>
<path fill="none" stroke="midnightblue" d="M1543.21,-168.44C1495.79,-159.02 1422.67,-143.87 1375.39,-133.68"/>
<polygon fill="midnightblue" stroke="midnightblue" points="1375.94,-130.21 1365.43,-131.52 1374.46,-137.05 1375.94,-130.21"/>
</g>
<!-- Node28 -->
<g id="node28" class="node">
<title>Node28</title>
<g id="a_node28"><a xlink:href="../../d8/db0/coreexception_8hpp.html" target="_top" xlink:title="Exception class for Core related errors.">
<polygon fill="white" stroke="black" points="1405,-112.5 1405,-131.5 1512,-131.5 1512,-112.5 1405,-112.5"/>
<text text-anchor="middle" x="1458.5" y="-119.5" font-family="Helvetica,sans-Serif" font-size="10.00">coreexception.hpp</text>
</a>
</g>
</g>
<!-- Node22&#45;&gt;Node28 -->
<g id="edge39" class="edge">
<title>Node22&#45;&gt;Node28</title>
<path fill="none" stroke="midnightblue" d="M1563.65,-168.44C1540.25,-159.6 1506.27,-145.69 1483.22,-135.59"/>
<polygon fill="midnightblue" stroke="midnightblue" points="1484.64,-132.39 1474.08,-131.52 1481.79,-138.78 1484.64,-132.39"/>
</g>
<!-- Node29 -->
<g id="node29" class="node">
<title>Node29</title>
<g id="a_node29"><a xlink:href="../../d8/d77/deviceexception_8hpp.html" target="_top" xlink:title="Exception class for Device related errors.">
<polygon fill="white" stroke="black" points="1530.5,-112.5 1530.5,-131.5 1648.5,-131.5 1648.5,-112.5 1530.5,-112.5"/>
<text text-anchor="middle" x="1589.5" y="-119.5" font-family="Helvetica,sans-Serif" font-size="10.00">deviceexception.hpp</text>
</a>
</g>
</g>
<!-- Node22&#45;&gt;Node29 -->
<g id="edge42" class="edge">
<title>Node22&#45;&gt;Node29</title>
<path fill="none" stroke="midnightblue" d="M1584.33,-168.08C1582.82,-160.93 1582.39,-150.64 1583.04,-141.69"/>
<polygon fill="midnightblue" stroke="midnightblue" points="1586.52,-142.13 1584.37,-131.75 1579.58,-141.2 1586.52,-142.13"/>
</g>
<!-- Node30 -->
<g id="node30" class="node">
<title>Node30</title>
<g id="a_node30"><a xlink:href="../../db/d35/dynlibexception_8hpp.html" target="_top" xlink:title="Exception class for DynLib related errors.">
<polygon fill="white" stroke="black" points="1666.5,-112.5 1666.5,-131.5 1782.5,-131.5 1782.5,-112.5 1666.5,-112.5"/>
<text text-anchor="middle" x="1724.5" y="-119.5" font-family="Helvetica,sans-Serif" font-size="10.00">dynlibexception.hpp</text>
</a>
</g>
</g>
<!-- Node22&#45;&gt;Node30 -->
<g id="edge45" class="edge">
<title>Node22&#45;&gt;Node30</title>
<path fill="none" stroke="midnightblue" d="M1605.8,-168.44C1626.34,-159.44 1661.75,-145.19 1688.65,-135.05"/>
<polygon fill="midnightblue" stroke="midnightblue" points="1689.98,-138.29 1698.13,-131.52 1687.54,-131.73 1689.98,-138.29"/>
</g>
<!-- Node31 -->
<g id="node31" class="node">
<title>Node31</title>
<g id="a_node31"><a xlink:href="../../d0/d4e/fsexception_8hpp.html" target="_top" xlink:title="Exception class for filesystem related errors.">
<polygon fill="white" stroke="black" points="1801,-112.5 1801,-131.5 1896,-131.5 1896,-112.5 1801,-112.5"/>
<text text-anchor="middle" x="1848.5" y="-119.5" font-family="Helvetica,sans-Serif" font-size="10.00">fsexception.hpp</text>
</a>
</g>
</g>
<!-- Node22&#45;&gt;Node31 -->
<g id="edge48" class="edge">
<title>Node22&#45;&gt;Node31</title>
<path fill="none" stroke="midnightblue" d="M1625.45,-168.44C1668.84,-158.96 1742.04,-143.67 1792.75,-133.48"/>
<polygon fill="midnightblue" stroke="midnightblue" points="1793.45,-136.91 1802.57,-131.52 1792.08,-130.05 1793.45,-136.91"/>
</g>
<!-- Node32 -->
<g id="node32" class="node">
<title>Node32</title>
<g id="a_node32"><a xlink:href="../../d1/d8e/gpioexception_8hpp.html" target="_top" xlink:title="Exception class for Gpio related errors.">
<polygon fill="white" stroke="black" points="1914,-112.5 1914,-131.5 2021,-131.5 2021,-112.5 1914,-112.5"/>
<text text-anchor="middle" x="1967.5" y="-119.5" font-family="Helvetica,sans-Serif" font-size="10.00">gpioexception.hpp</text>
</a>
</g>
</g>
<!-- Node22&#45;&gt;Node32 -->
<g id="edge51" class="edge">
<title>Node22&#45;&gt;Node32</title>
<path fill="none" stroke="midnightblue" d="M1644.31,-168.44C1713.25,-158.28 1831.25,-141.42 1904.03,-131.35"/>
<polygon fill="midnightblue" stroke="midnightblue" points="1904.57,-134.81 1914,-129.97 1903.61,-127.87 1904.57,-134.81"/>
</g>
<!-- Node33 -->
<g id="node33" class="node">
<title>Node33</title>
<g id="a_node33"><a xlink:href="../../d7/d8c/moduleexception_8hpp.html" target="_top" xlink:title="Exception class for modules.">
<polygon fill="white" stroke="black" points="2039.5,-112.5 2039.5,-131.5 2161.5,-131.5 2161.5,-112.5 2039.5,-112.5"/>
<text text-anchor="middle" x="2100.5" y="-119.5" font-family="Helvetica,sans-Serif" font-size="10.00">moduleexception.hpp</text>
</a>
</g>
</g>
<!-- Node22&#45;&gt;Node33 -->
<g id="edge54" class="edge">
<title>Node22&#45;&gt;Node33</title>
<path fill="none" stroke="midnightblue" d="M1668.96,-168.49C1774.2,-157.71 1954.03,-139.61 2020.5,-132 2023.34,-131.68 2026.23,-131.34 2029.17,-130.99"/>
<polygon fill="midnightblue" stroke="midnightblue" points="2029.72,-134.45 2039.24,-129.78 2028.89,-127.5 2029.72,-134.45"/>
</g>
<!-- Node34 -->
<g id="node34" class="node">
<title>Node34</title>
<g id="a_node34"><a xlink:href="../../df/d8d/scriptexception_8hpp.html" target="_top" xlink:title="Exception class for Script related errors.">
<polygon fill="white" stroke="black" points="2180,-112.5 2180,-131.5 2293,-131.5 2293,-112.5 2180,-112.5"/>
<text text-anchor="middle" x="2236.5" y="-119.5" font-family="Helvetica,sans-Serif" font-size="10.00">scriptexception.hpp</text>
</a>
</g>
</g>
<!-- Node22&#45;&gt;Node34 -->
<g id="edge57" class="edge">
<title>Node22&#45;&gt;Node34</title>
<path fill="none" stroke="midnightblue" d="M1668.12,-168.46C1669.93,-168.31 1671.72,-168.15 1673.5,-168 1890.19,-149.52 1945.21,-154.7 2161.5,-132 2164.16,-131.72 2166.87,-131.42 2169.62,-131.1"/>
<polygon fill="midnightblue" stroke="midnightblue" points="2170.16,-134.56 2179.67,-129.89 2169.32,-127.61 2170.16,-134.56"/>
</g>
<!-- Node35 -->
<g id="node35" class="node">
<title>Node35</title>
<g id="a_node35"><a xlink:href="../../dc/dce/signalexception_8hpp.html" target="_top" xlink:title="Exception class for Signal related errors.">
<polygon fill="white" stroke="black" points="2311,-112.5 2311,-131.5 2426,-131.5 2426,-112.5 2311,-112.5"/>
<text text-anchor="middle" x="2368.5" y="-119.5" font-family="Helvetica,sans-Serif" font-size="10.00">signalexception.hpp</text>
</a>
</g>
</g>
<!-- Node22&#45;&gt;Node35 -->
<g id="edge60" class="edge">
<title>Node22&#45;&gt;Node35</title>
<path fill="none" stroke="midnightblue" d="M1667.62,-168.47C1669.6,-168.31 1671.56,-168.15 1673.5,-168 1948.7,-146.7 2018.77,-158.67 2293.5,-132 2295.88,-131.77 2298.3,-131.52 2300.76,-131.25"/>
<polygon fill="midnightblue" stroke="midnightblue" points="2301.43,-134.69 2310.95,-130.06 2300.62,-127.74 2301.43,-134.69"/>
</g>
<!-- Node23&#45;&gt;Node5 -->
<g id="edge29" class="edge">
<title>Node23&#45;&gt;Node5</title>
<path fill="none" stroke="midnightblue" d="M1054.48,-115.75C1038.91,-114.43 1022.07,-113.08 1006.5,-112 714.1,-91.69 634.73,-123.69 342.19,-75.93"/>
<polygon fill="midnightblue" stroke="midnightblue" points="342.57,-72.45 332.13,-74.27 341.43,-79.35 342.57,-72.45"/>
</g>
<!-- Node23&#45;&gt;Node14 -->
<g id="edge28" class="edge">
<title>Node23&#45;&gt;Node14</title>
<path fill="none" stroke="midnightblue" d="M1130.18,-112.32C1159.07,-98.47 1218.52,-71.37 1271.5,-56 1348.68,-33.61 1442.56,-20.4 1491.04,-14.57"/>
<polygon fill="midnightblue" stroke="midnightblue" points="1491.71,-18.01 1501.23,-13.37 1490.89,-11.06 1491.71,-18.01"/>
</g>
<!-- Node25&#45;&gt;Node14 -->
<g id="edge38" class="edge">
<title>Node25&#45;&gt;Node14</title>
<path fill="none" stroke="midnightblue" d="M1344.72,-112.37C1378.3,-93.33 1458.92,-47.62 1499.43,-24.65"/>
<polygon fill="midnightblue" stroke="midnightblue" points="1501.38,-27.57 1508.35,-19.59 1497.92,-21.48 1501.38,-27.57"/>
</g>
<!-- Node25&#45;&gt;Node22 -->
<g id="edge34" class="edge">
<title>Node25&#45;&gt;Node22</title>
<path fill="none" stroke="midnightblue" d="M1375.58,-131.52C1422.93,-140.92 1496.06,-156.08 1543.4,-166.28"/>
<polygon fill="midnightblue" stroke="midnightblue" points="1542.88,-169.75 1553.39,-168.44 1544.36,-162.91 1542.88,-169.75"/>
</g>
<!-- Node26 -->
<g id="node26" class="node">
<title>Node26</title>
<g id="a_node26"><a xlink:href="../../dd/d35/Colorize_8hpp.html" target="_top" xlink:title=" ">
<polygon fill="white" stroke="black" points="1280.5,-56.5 1280.5,-75.5 1384.5,-75.5 1384.5,-56.5 1280.5,-56.5"/>
<text text-anchor="middle" x="1332.5" y="-63.5" font-family="Helvetica,sans-Serif" font-size="10.00">tools/Colorize.hpp</text>
</a>
</g>
</g>
<!-- Node25&#45;&gt;Node26 -->
<g id="edge35" class="edge">
<title>Node25&#45;&gt;Node26</title>
<path fill="none" stroke="midnightblue" d="M1330,-112.08C1330.39,-105.01 1330.95,-94.86 1331.45,-85.99"/>
<polygon fill="midnightblue" stroke="midnightblue" points="1334.95,-85.93 1332.01,-75.75 1327.96,-85.54 1334.95,-85.93"/>
</g>
<!-- Node26&#45;&gt;Node14 -->
<g id="edge37" class="edge">
<title>Node26&#45;&gt;Node14</title>
<path fill="none" stroke="midnightblue" d="M1362.76,-56.44C1397.9,-46.51 1455.6,-30.2 1491.47,-20.05"/>
<polygon fill="midnightblue" stroke="midnightblue" points="1492.75,-23.33 1501.42,-17.24 1490.84,-16.6 1492.75,-23.33"/>
</g>
<!-- Node27 -->
<g id="node27" class="node">
<title>Node27</title>
<g id="a_node27"><a xlink:title=" ">
<polygon fill="white" stroke="#bfbfbf" points="1304.5,-0.5 1304.5,-19.5 1360.5,-19.5 1360.5,-0.5 1304.5,-0.5"/>
<text text-anchor="middle" x="1332.5" y="-7.5" font-family="Helvetica,sans-Serif" font-size="10.00">sstream</text>
</a>
</g>
</g>
<!-- Node26&#45;&gt;Node27 -->
<g id="edge36" class="edge">
<title>Node26&#45;&gt;Node27</title>
<path fill="none" stroke="midnightblue" d="M1332.5,-56.08C1332.5,-49.01 1332.5,-38.86 1332.5,-29.99"/>
<polygon fill="midnightblue" stroke="midnightblue" points="1336,-29.75 1332.5,-19.75 1329,-29.75 1336,-29.75"/>
</g>
<!-- Node28&#45;&gt;Node14 -->
<g id="edge40" class="edge">
<title>Node28&#45;&gt;Node14</title>
<path fill="none" stroke="midnightblue" d="M1463.6,-112.37C1474.28,-94.3 1499.17,-52.18 1513.27,-28.31"/>
<polygon fill="midnightblue" stroke="midnightblue" points="1516.35,-29.98 1518.42,-19.59 1510.32,-26.42 1516.35,-29.98"/>
</g>
<!-- Node28&#45;&gt;Node22 -->
<g id="edge41" class="edge">
<title>Node28&#45;&gt;Node22</title>
<path fill="none" stroke="midnightblue" d="M1484.24,-131.52C1507.61,-140.35 1541.59,-154.26 1564.67,-164.37"/>
<polygon fill="midnightblue" stroke="midnightblue" points="1563.27,-167.58 1573.83,-168.44 1566.12,-161.18 1563.27,-167.58"/>
</g>
<!-- Node29&#45;&gt;Node14 -->
<g id="edge43" class="edge">
<title>Node29&#45;&gt;Node14</title>
<path fill="none" stroke="midnightblue" d="M1584.32,-112.37C1573.48,-94.3 1548.21,-52.18 1533.88,-28.31"/>
<polygon fill="midnightblue" stroke="midnightblue" points="1536.8,-26.37 1528.65,-19.59 1530.8,-29.97 1536.8,-26.37"/>
</g>
<!-- Node29&#45;&gt;Node22 -->
<g id="edge44" class="edge">
<title>Node29&#45;&gt;Node22</title>
<path fill="none" stroke="midnightblue" d="M1594.63,-131.75C1596.16,-138.86 1596.6,-149.14 1595.97,-158.1"/>
<polygon fill="midnightblue" stroke="midnightblue" points="1592.49,-157.71 1594.67,-168.08 1599.43,-158.62 1592.49,-157.71"/>
</g>
<!-- Node30&#45;&gt;Node14 -->
<g id="edge46" class="edge">
<title>Node30&#45;&gt;Node14</title>
<path fill="none" stroke="midnightblue" d="M1708.73,-112.37C1673.87,-93.29 1590.05,-47.42 1548.18,-24.51"/>
<polygon fill="midnightblue" stroke="midnightblue" points="1549.65,-21.32 1539.2,-19.59 1546.29,-27.46 1549.65,-21.32"/>
</g>
<!-- Node30&#45;&gt;Node22 -->
<g id="edge47" class="edge">
<title>Node30&#45;&gt;Node22</title>
<path fill="none" stroke="midnightblue" d="M1708.29,-131.52C1687.79,-140.51 1652.4,-154.75 1625.47,-164.91"/>
<polygon fill="midnightblue" stroke="midnightblue" points="1624.13,-161.67 1615.98,-168.44 1626.57,-168.23 1624.13,-161.67"/>
</g>
<!-- Node31&#45;&gt;Node14 -->
<g id="edge49" class="edge">
<title>Node31&#45;&gt;Node14</title>
<path fill="none" stroke="midnightblue" d="M1823.27,-112.46C1764.8,-92.67 1620.12,-43.7 1555.53,-21.84"/>
<polygon fill="midnightblue" stroke="midnightblue" points="1556.47,-18.47 1545.88,-18.57 1554.23,-25.1 1556.47,-18.47"/>
</g>
<!-- Node31&#45;&gt;Node22 -->
<g id="edge50" class="edge">
<title>Node31&#45;&gt;Node22</title>
<path fill="none" stroke="midnightblue" d="M1812.73,-131.52C1769.43,-140.98 1696.24,-156.27 1645.47,-166.47"/>
<polygon fill="midnightblue" stroke="midnightblue" points="1644.75,-163.05 1635.63,-168.44 1646.12,-169.91 1644.75,-163.05"/>
</g>
<!-- Node32&#45;&gt;Node14 -->
<g id="edge53" class="edge">
<title>Node32&#45;&gt;Node14</title>
<path fill="none" stroke="midnightblue" d="M1933.03,-112.46C1849.57,-91.78 1637.54,-39.25 1556.07,-19.07"/>
<polygon fill="midnightblue" stroke="midnightblue" points="1556.46,-15.56 1545.91,-16.55 1554.78,-22.35 1556.46,-15.56"/>
</g>
<!-- Node32&#45;&gt;Node22 -->
<g id="edge52" class="edge">
<title>Node32&#45;&gt;Node22</title>
<path fill="none" stroke="midnightblue" d="M1913.87,-131.38C1848.63,-141.01 1738.28,-156.79 1664.63,-167.04"/>
<polygon fill="midnightblue" stroke="midnightblue" points="1663.91,-163.6 1654.48,-168.44 1664.87,-170.54 1663.91,-163.6"/>
</g>
<!-- Node33&#45;&gt;Node14 -->
<g id="edge55" class="edge">
<title>Node33&#45;&gt;Node14</title>
<path fill="none" stroke="midnightblue" d="M2055.7,-112.46C1943.55,-91.08 1652.73,-35.64 1555.61,-17.12"/>
<polygon fill="midnightblue" stroke="midnightblue" points="1556.26,-13.68 1545.78,-15.25 1554.95,-20.56 1556.26,-13.68"/>
</g>
<!-- Node33&#45;&gt;Node22 -->
<g id="edge56" class="edge">
<title>Node33&#45;&gt;Node22</title>
<path fill="none" stroke="midnightblue" d="M2042.61,-131.52C2041.23,-131.69 2039.86,-131.84 2038.5,-132 1972.57,-139.55 1795.07,-157.42 1683.96,-168.23"/>
<polygon fill="midnightblue" stroke="midnightblue" points="1683.37,-164.77 1673.75,-169.22 1684.04,-171.74 1683.37,-164.77"/>
</g>
<!-- Node34&#45;&gt;Node14 -->
<g id="edge58" class="edge">
<title>Node34&#45;&gt;Node14</title>
<path fill="none" stroke="midnightblue" d="M2183.78,-112.47C2105.75,-99.89 1954.9,-75.71 1826.5,-56 1727.94,-40.87 1611.21,-23.76 1555.8,-15.69"/>
<polygon fill="midnightblue" stroke="midnightblue" points="1555.96,-12.18 1545.56,-14.2 1554.95,-19.1 1555.96,-12.18"/>
</g>
<!-- Node34&#45;&gt;Node22 -->
<g id="edge59" class="edge">
<title>Node34&#45;&gt;Node22</title>
<path fill="none" stroke="midnightblue" d="M2184.03,-131.51C2182.51,-131.68 2181,-131.84 2179.5,-132 1963.21,-154.7 1908.19,-149.52 1691.5,-168 1688.95,-168.22 1686.37,-168.44 1683.76,-168.67"/>
<polygon fill="midnightblue" stroke="midnightblue" points="1683.23,-165.2 1673.58,-169.58 1683.86,-172.18 1683.23,-165.2"/>
</g>
<!-- Node35&#45;&gt;Node14 -->
<g id="edge61" class="edge">
<title>Node35&#45;&gt;Node14</title>
<path fill="none" stroke="midnightblue" d="M2310.92,-112.55C2223.11,-99.77 2050.43,-74.97 1903.5,-56 1774.93,-39.4 1621.58,-21.96 1555.92,-14.61"/>
<polygon fill="midnightblue" stroke="midnightblue" points="1556.12,-11.11 1545.79,-13.47 1555.34,-18.06 1556.12,-11.11"/>
</g>
<!-- Node35&#45;&gt;Node22 -->
<g id="edge62" class="edge">
<title>Node35&#45;&gt;Node22</title>
<path fill="none" stroke="midnightblue" d="M2316.39,-131.5C2314.74,-131.68 2313.11,-131.84 2311.5,-132 2036.77,-158.67 1966.7,-146.7 1691.5,-168 1688.95,-168.2 1686.37,-168.4 1683.75,-168.62"/>
<polygon fill="midnightblue" stroke="midnightblue" points="1683.24,-165.15 1673.58,-169.48 1683.84,-172.12 1683.24,-165.15"/>
</g>
</g>
</svg>
        <g id="navigator" transform="translate(0 0)" fill="#404254">
                <rect fill="#f2f5e9" fill-opacity="0.5" stroke="#606060" stroke-width=".5" x="0" y="0" width="60" height="60"/>
                <use id="zoomplus" xlink:href="#zoomPlus" x="17" y="9" onmousedown="handleZoom(evt,'in')"/>
                <use id="zoomminus" xlink:href="#zoomMin" x="42" y="9" onmousedown="handleZoom(evt,'out')"/>
                <use id="reset" xlink:href="#resetDef" x="30" y="36" onmousedown="handleReset()"/>
                <g id="arrowUp" xlink:href="#dirArrow" transform="translate(30 24)" onmousedown="handlePan(0,-1)">
                  <use xlink:href="#rim" fill="#404040">
                        <set attributeName="fill" to="#808080" begin="arrowUp.mouseover" end="arrowUp.mouseout"/>
                  </use>
                  <path fill="none" stroke="white" stroke-width="1.5" d="M0,-3.0v7 M-2.5,-0.5L0,-3.0L2.5,-0.5"/>
                </g>
                <g id="arrowRight" xlink:href="#dirArrow" transform="rotate(90) translate(36 -43)" onmousedown="handlePan(1,0)">
                  <use xlink:href="#rim" fill="#404040">
                        <set attributeName="fill" to="#808080" begin="arrowRight.mouseover" end="arrowRight.mouseout"/>
                  </use>
                  <path fill="none" stroke="white" stroke-width="1.5" d="M0,-3.0v7 M-2.5,-0.5L0,-3.0L2.5,-0.5"/>
                </g>
                <g id="arrowDown" xlink:href="#dirArrow" transform="rotate(180) translate(-30 -48)" onmousedown="handlePan(0,1)">
                  <use xlink:href="#rim" fill="#404040">
                        <set attributeName="fill" to="#808080" begin="arrowDown.mouseover" end="arrowDown.mouseout"/>
                  </use>
                  <path fill="none" stroke="white" stroke-width="1.5" d="M0,-3.0v7 M-2.5,-0.5L0,-3.0L2.5,-0.5"/>
                </g>
                <g id="arrowLeft" xlink:href="#dirArrow" transform="rotate(270) translate(-36 17)" onmousedown="handlePan(-1,0)">
                  <use xlink:href="#rim" fill="#404040">
                        <set attributeName="fill" to="#808080" begin="arrowLeft.mouseover" end="arrowLeft.mouseout"/>
                  </use>
                  <path fill="none" stroke="white" stroke-width="1.5" d="M0,-3.0v7 M-2.5,-0.5L0,-3.0L2.5,-0.5"/>
                </g>
        </g>
        <svg viewBox="0 0 15 15" width="100%" height="30px" preserveAspectRatio="xMaxYMin meet">
         <g id="arrow_out" transform="scale(0.3 0.3)">
          <a xlink:href="DeviceSerializer_8cpp__incl_org.svg" target="_base">
           <rect id="button" ry="5" rx="5" y="6" x="6" height="38" width="38"
                fill="#f2f5e9" fill-opacity="0.5" stroke="#606060" stroke-width="1.0"/>
           <path id="arrow"
             d="M 11.500037,31.436501 C 11.940474,20.09759 22.043105,11.32322 32.158766,21.979434 L 37.068811,17.246167 C 37.068811,17.246167 37.088388,32 37.088388,32 L 22.160133,31.978069 C 22.160133,31.978069 26.997745,27.140456 26.997745,27.140456 C 18.528582,18.264221 13.291696,25.230495 11.500037,31.436501 z"
             style="fill:#404040;"/>
          </a>
         </g>
        </svg>
</svg>
