<?xml version="1.0" encoding="UTF-8" standalone="no"?>
<!DOCTYPE svg PUBLIC "-//W3C//DTD SVG 1.1//EN"
 "http://www.w3.org/Graphics/SVG/1.1/DTD/svg11.dtd">
<!-- Generated by graphviz version 2.43.0 (0)
 -->
<!-- Title: src/modules/websock&#45;api/Exceptions.hpp Pages: 1 -->
<svg width="1679pt" height="263pt"
 viewBox="0.00 0.00 1679.00 263.00" xmlns="http://www.w3.org/2000/svg" xmlns:xlink="http://www.w3.org/1999/xlink">
<g id="graph0" class="graph" transform="scale(1 1) rotate(0) translate(4 259)">
<title>src/modules/websock&#45;api/Exceptions.hpp</title>
<polygon fill="white" stroke="transparent" points="-4,4 -4,-259 1675,-259 1675,4 -4,4"/>
<!-- Node1 -->
<g id="node1" class="node">
<title>Node1</title>
<g id="a_node1"><a xlink:title=" ">
<polygon fill="#bfbfbf" stroke="black" points="428.5,-224.5 428.5,-254.5 550.5,-254.5 550.5,-224.5 428.5,-224.5"/>
<text text-anchor="start" x="436.5" y="-242.5" font-family="Helvetica,sans-Serif" font-size="10.00">src/modules/websock</text>
<text text-anchor="middle" x="489.5" y="-231.5" font-family="Helvetica,sans-Serif" font-size="10.00">&#45;api/Exceptions.hpp</text>
</a>
</g>
</g>
<!-- Node2 -->
<g id="node2" class="node">
<title>Node2</title>
<g id="a_node2"><a xlink:href="../../d3/d6f/AuthFwd_8hpp.html" target="_top" xlink:title=" ">
<polygon fill="white" stroke="black" points="115,-168.5 115,-187.5 244,-187.5 244,-168.5 115,-168.5"/>
<text text-anchor="middle" x="179.5" y="-175.5" font-family="Helvetica,sans-Serif" font-size="10.00">core/auth/AuthFwd.hpp</text>
</a>
</g>
</g>
<!-- Node1&#45;&gt;Node2 -->
<g id="edge1" class="edge">
<title>Node1&#45;&gt;Node2</title>
<path fill="none" stroke="midnightblue" d="M428.25,-226.74C371.73,-215.9 288.55,-199.93 234.21,-189.5"/>
<polygon fill="midnightblue" stroke="midnightblue" points="234.55,-186 224.07,-187.56 233.23,-192.88 234.55,-186"/>
</g>
<!-- Node6 -->
<g id="node6" class="node">
<title>Node6</title>
<g id="a_node6"><a xlink:href="../../d1/ddd/leosacexception_8hpp.html" target="_top" xlink:title="Exception class for LEOSAC Project related errors.">
<polygon fill="white" stroke="black" points="753.5,-168.5 753.5,-187.5 921.5,-187.5 921.5,-168.5 753.5,-168.5"/>
<text text-anchor="middle" x="837.5" y="-175.5" font-family="Helvetica,sans-Serif" font-size="10.00">exception/leosacexception.hpp</text>
</a>
</g>
</g>
<!-- Node1&#45;&gt;Node6 -->
<g id="edge5" class="edge">
<title>Node1&#45;&gt;Node6</title>
<path fill="none" stroke="midnightblue" d="M550.52,-228.07C614.44,-217.14 714.22,-200.08 777.69,-189.23"/>
<polygon fill="midnightblue" stroke="midnightblue" points="778.29,-192.67 787.56,-187.54 777.11,-185.77 778.29,-192.67"/>
</g>
<!-- Node3 -->
<g id="node3" class="node">
<title>Node3</title>
<g id="a_node3"><a xlink:title=" ">
<polygon fill="white" stroke="#bfbfbf" points="190,-112.5 190,-131.5 243,-131.5 243,-112.5 190,-112.5"/>
<text text-anchor="middle" x="216.5" y="-119.5" font-family="Helvetica,sans-Serif" font-size="10.00">cstddef</text>
</a>
</g>
</g>
<!-- Node2&#45;&gt;Node3 -->
<g id="edge2" class="edge">
<title>Node2&#45;&gt;Node3</title>
<path fill="none" stroke="midnightblue" d="M185.61,-168.08C190.78,-160.53 198.35,-149.49 204.69,-140.23"/>
<polygon fill="midnightblue" stroke="midnightblue" points="207.74,-141.98 210.5,-131.75 201.96,-138.02 207.74,-141.98"/>
</g>
<!-- Node4 -->
<g id="node4" class="node">
<title>Node4</title>
<g id="a_node4"><a xlink:title=" ">
<polygon fill="white" stroke="#bfbfbf" points="113.5,-112.5 113.5,-131.5 171.5,-131.5 171.5,-112.5 113.5,-112.5"/>
<text text-anchor="middle" x="142.5" y="-119.5" font-family="Helvetica,sans-Serif" font-size="10.00">memory</text>
</a>
</g>
</g>
<!-- Node2&#45;&gt;Node4 -->
<g id="edge3" class="edge">
<title>Node2&#45;&gt;Node4</title>
<path fill="none" stroke="midnightblue" d="M173.39,-168.08C168.22,-160.53 160.65,-149.49 154.31,-140.23"/>
<polygon fill="midnightblue" stroke="midnightblue" points="157.04,-138.02 148.5,-131.75 151.26,-141.98 157.04,-138.02"/>
</g>
<!-- Node5 -->
<g id="node5" class="node">
<title>Node5</title>
<g id="a_node5"><a xlink:title=" ">
<polygon fill="white" stroke="#bfbfbf" points="0,-112.5 0,-131.5 95,-131.5 95,-112.5 0,-112.5"/>
<text text-anchor="middle" x="47.5" y="-119.5" font-family="Helvetica,sans-Serif" font-size="10.00">odb/lazy&#45;ptr.hxx</text>
</a>
</g>
</g>
<!-- Node2&#45;&gt;Node5 -->
<g id="edge4" class="edge">
<title>Node2&#45;&gt;Node5</title>
<path fill="none" stroke="midnightblue" d="M158.58,-168.44C136.76,-159.52 102.35,-145.44 77.61,-135.32"/>
<polygon fill="midnightblue" stroke="midnightblue" points="78.9,-132.06 68.32,-131.52 76.25,-138.54 78.9,-132.06"/>
</g>
<!-- Node6&#45;&gt;Node3 -->
<g id="edge9" class="edge">
<title>Node6&#45;&gt;Node3</title>
<path fill="none" stroke="midnightblue" d="M753.49,-175.16C641.27,-171.68 436.24,-161.72 253.23,-132.02"/>
<polygon fill="midnightblue" stroke="midnightblue" points="253.59,-128.54 243.15,-130.37 252.45,-135.44 253.59,-128.54"/>
</g>
<!-- Node7 -->
<g id="node7" class="node">
<title>Node7</title>
<g id="a_node7"><a xlink:href="../../d6/d2f/Stacktrace_8hpp.html" target="_top" xlink:title=" ">
<polygon fill="white" stroke="black" points="1433.5,-112.5 1433.5,-131.5 1549.5,-131.5 1549.5,-112.5 1433.5,-112.5"/>
<text text-anchor="middle" x="1491.5" y="-119.5" font-family="Helvetica,sans-Serif" font-size="10.00">tools/Stacktrace.hpp</text>
</a>
</g>
</g>
<!-- Node6&#45;&gt;Node7 -->
<g id="edge6" class="edge">
<title>Node6&#45;&gt;Node7</title>
<path fill="none" stroke="midnightblue" d="M921.72,-172.06C1033.78,-165.14 1238.3,-151.34 1423.23,-132.08"/>
<polygon fill="midnightblue" stroke="midnightblue" points="1423.84,-135.53 1433.42,-131.01 1423.11,-128.57 1423.84,-135.53"/>
</g>
<!-- Node8 -->
<g id="node8" class="node">
<title>Node8</title>
<g id="a_node8"><a xlink:title=" ">
<polygon fill="white" stroke="#bfbfbf" points="874.5,-0.5 874.5,-19.5 918.5,-19.5 918.5,-0.5 874.5,-0.5"/>
<text text-anchor="middle" x="896.5" y="-7.5" font-family="Helvetica,sans-Serif" font-size="10.00">string</text>
</a>
</g>
</g>
<!-- Node6&#45;&gt;Node8 -->
<g id="edge11" class="edge">
<title>Node6&#45;&gt;Node8</title>
<path fill="none" stroke="midnightblue" d="M921.78,-174.79C1107.44,-169.52 1536.99,-154.89 1558.5,-132 1596.16,-91.91 1560.71,-84 1492.5,-56 1389.03,-13.53 1037.2,-10.68 928.66,-10.83"/>
<polygon fill="midnightblue" stroke="midnightblue" points="928.63,-7.33 918.64,-10.86 928.65,-14.33 928.63,-7.33"/>
</g>
<!-- Node10 -->
<g id="node10" class="node">
<title>Node10</title>
<g id="a_node10"><a xlink:title=" ">
<polygon fill="white" stroke="#bfbfbf" points="1606,-112.5 1606,-131.5 1671,-131.5 1671,-112.5 1606,-112.5"/>
<text text-anchor="middle" x="1638.5" y="-119.5" font-family="Helvetica,sans-Serif" font-size="10.00">exception</text>
</a>
</g>
</g>
<!-- Node6&#45;&gt;Node10 -->
<g id="edge10" class="edge">
<title>Node6&#45;&gt;Node10</title>
<path fill="none" stroke="midnightblue" d="M921.51,-175.54C1061.11,-172.31 1349.47,-162.27 1591.5,-132 1592.97,-131.82 1594.46,-131.61 1595.96,-131.4"/>
<polygon fill="midnightblue" stroke="midnightblue" points="1596.65,-134.83 1605.97,-129.79 1595.54,-127.92 1596.65,-134.83"/>
</g>
<!-- Node11 -->
<g id="node11" class="node">
<title>Node11</title>
<g id="a_node11"><a xlink:href="../../d7/d7a/configexception_8hpp.html" target="_top" xlink:title=" ">
<polygon fill="white" stroke="black" points="261,-112.5 261,-131.5 376,-131.5 376,-112.5 261,-112.5"/>
<text text-anchor="middle" x="318.5" y="-119.5" font-family="Helvetica,sans-Serif" font-size="10.00">configexception.hpp</text>
</a>
</g>
</g>
<!-- Node6&#45;&gt;Node11 -->
<g id="edge12" class="edge">
<title>Node6&#45;&gt;Node11</title>
<path fill="none" stroke="midnightblue" d="M753.17,-170.14C662.6,-162.17 514.42,-148.19 381.29,-132.67"/>
<polygon fill="midnightblue" stroke="midnightblue" points="381.66,-129.19 371.32,-131.5 380.85,-136.14 381.66,-129.19"/>
</g>
<!-- Node14 -->
<g id="node14" class="node">
<title>Node14</title>
<g id="a_node14"><a xlink:href="../../d8/db0/coreexception_8hpp.html" target="_top" xlink:title="Exception class for Core related errors.">
<polygon fill="white" stroke="black" points="394,-112.5 394,-131.5 501,-131.5 501,-112.5 394,-112.5"/>
<text text-anchor="middle" x="447.5" y="-119.5" font-family="Helvetica,sans-Serif" font-size="10.00">coreexception.hpp</text>
</a>
</g>
</g>
<!-- Node6&#45;&gt;Node14 -->
<g id="edge18" class="edge">
<title>Node6&#45;&gt;Node14</title>
<path fill="none" stroke="midnightblue" d="M768.08,-168.47C702.36,-159.8 600.88,-145.91 508.27,-132.95"/>
<polygon fill="midnightblue" stroke="midnightblue" points="508.58,-129.46 498.19,-131.53 507.61,-136.39 508.58,-129.46"/>
</g>
<!-- Node15 -->
<g id="node15" class="node">
<title>Node15</title>
<g id="a_node15"><a xlink:href="../../d8/d77/deviceexception_8hpp.html" target="_top" xlink:title="Exception class for Device related errors.">
<polygon fill="white" stroke="black" points="519.5,-112.5 519.5,-131.5 637.5,-131.5 637.5,-112.5 519.5,-112.5"/>
<text text-anchor="middle" x="578.5" y="-119.5" font-family="Helvetica,sans-Serif" font-size="10.00">deviceexception.hpp</text>
</a>
</g>
</g>
<!-- Node6&#45;&gt;Node15 -->
<g id="edge21" class="edge">
<title>Node6&#45;&gt;Node15</title>
<path fill="none" stroke="midnightblue" d="M791.37,-168.44C744.12,-159.02 671.28,-143.87 624.2,-133.68"/>
<polygon fill="midnightblue" stroke="midnightblue" points="624.78,-130.22 614.27,-131.52 623.3,-137.06 624.78,-130.22"/>
</g>
<!-- Node16 -->
<g id="node16" class="node">
<title>Node16</title>
<g id="a_node16"><a xlink:href="../../db/d35/dynlibexception_8hpp.html" target="_top" xlink:title="Exception class for DynLib related errors.">
<polygon fill="white" stroke="black" points="655.5,-112.5 655.5,-131.5 771.5,-131.5 771.5,-112.5 655.5,-112.5"/>
<text text-anchor="middle" x="713.5" y="-119.5" font-family="Helvetica,sans-Serif" font-size="10.00">dynlibexception.hpp</text>
</a>
</g>
</g>
<!-- Node6&#45;&gt;Node16 -->
<g id="edge24" class="edge">
<title>Node6&#45;&gt;Node16</title>
<path fill="none" stroke="midnightblue" d="M812.76,-168.44C790.7,-159.68 758.9,-145.94 737.18,-135.86"/>
<polygon fill="midnightblue" stroke="midnightblue" points="738.51,-132.62 727.98,-131.52 735.53,-138.95 738.51,-132.62"/>
</g>
<!-- Node17 -->
<g id="node17" class="node">
<title>Node17</title>
<g id="a_node17"><a xlink:href="../../d0/d4e/fsexception_8hpp.html" target="_top" xlink:title="Exception class for filesystem related errors.">
<polygon fill="white" stroke="black" points="790,-112.5 790,-131.5 885,-131.5 885,-112.5 790,-112.5"/>
<text text-anchor="middle" x="837.5" y="-119.5" font-family="Helvetica,sans-Serif" font-size="10.00">fsexception.hpp</text>
</a>
</g>
</g>
<!-- Node6&#45;&gt;Node17 -->
<g id="edge27" class="edge">
<title>Node6&#45;&gt;Node17</title>
<path fill="none" stroke="midnightblue" d="M832.33,-168.08C830.82,-160.93 830.39,-150.64 831.04,-141.69"/>
<polygon fill="midnightblue" stroke="midnightblue" points="834.52,-142.13 832.37,-131.75 827.58,-141.2 834.52,-142.13"/>
</g>
<!-- Node18 -->
<g id="node18" class="node">
<title>Node18</title>
<g id="a_node18"><a xlink:href="../../d1/d8e/gpioexception_8hpp.html" target="_top" xlink:title="Exception class for Gpio related errors.">
<polygon fill="white" stroke="black" points="903,-112.5 903,-131.5 1010,-131.5 1010,-112.5 903,-112.5"/>
<text text-anchor="middle" x="956.5" y="-119.5" font-family="Helvetica,sans-Serif" font-size="10.00">gpioexception.hpp</text>
</a>
</g>
</g>
<!-- Node6&#45;&gt;Node18 -->
<g id="edge30" class="edge">
<title>Node6&#45;&gt;Node18</title>
<path fill="none" stroke="midnightblue" d="M851.5,-168.32C869.1,-159.47 899.37,-145.63 922.98,-135.57"/>
<polygon fill="midnightblue" stroke="midnightblue" points="924.45,-138.75 932.32,-131.65 921.74,-132.3 924.45,-138.75"/>
</g>
<!-- Node19 -->
<g id="node19" class="node">
<title>Node19</title>
<g id="a_node19"><a xlink:href="../../d7/d8c/moduleexception_8hpp.html" target="_top" xlink:title="Exception class for modules.">
<polygon fill="white" stroke="black" points="1028.5,-112.5 1028.5,-131.5 1150.5,-131.5 1150.5,-112.5 1028.5,-112.5"/>
<text text-anchor="middle" x="1089.5" y="-119.5" font-family="Helvetica,sans-Serif" font-size="10.00">moduleexception.hpp</text>
</a>
</g>
</g>
<!-- Node6&#45;&gt;Node19 -->
<g id="edge33" class="edge">
<title>Node6&#45;&gt;Node19</title>
<path fill="none" stroke="midnightblue" d="M872.34,-168.44C914.41,-158.98 985.43,-143.74 1034.8,-133.55"/>
<polygon fill="midnightblue" stroke="midnightblue" points="1035.59,-136.96 1044.68,-131.52 1034.18,-130.1 1035.59,-136.96"/>
</g>
<!-- Node20 -->
<g id="node20" class="node">
<title>Node20</title>
<g id="a_node20"><a xlink:href="../../df/d8d/scriptexception_8hpp.html" target="_top" xlink:title="Exception class for Script related errors.">
<polygon fill="white" stroke="black" points="1169,-112.5 1169,-131.5 1282,-131.5 1282,-112.5 1169,-112.5"/>
<text text-anchor="middle" x="1225.5" y="-119.5" font-family="Helvetica,sans-Serif" font-size="10.00">scriptexception.hpp</text>
</a>
</g>
</g>
<!-- Node6&#45;&gt;Node20 -->
<g id="edge36" class="edge">
<title>Node6&#45;&gt;Node20</title>
<path fill="none" stroke="midnightblue" d="M893.89,-168.44C964.13,-158.36 1083.81,-141.7 1158.6,-131.6"/>
<polygon fill="midnightblue" stroke="midnightblue" points="1159.41,-135.02 1168.85,-130.22 1158.47,-128.09 1159.41,-135.02"/>
</g>
<!-- Node21 -->
<g id="node21" class="node">
<title>Node21</title>
<g id="a_node21"><a xlink:href="../../dc/dce/signalexception_8hpp.html" target="_top" xlink:title="Exception class for Signal related errors.">
<polygon fill="white" stroke="black" points="1300,-112.5 1300,-131.5 1415,-131.5 1415,-112.5 1300,-112.5"/>
<text text-anchor="middle" x="1357.5" y="-119.5" font-family="Helvetica,sans-Serif" font-size="10.00">signalexception.hpp</text>
</a>
</g>
</g>
<!-- Node6&#45;&gt;Node21 -->
<g id="edge39" class="edge">
<title>Node6&#45;&gt;Node21</title>
<path fill="none" stroke="midnightblue" d="M921.67,-168.97C1011.22,-160.65 1156.84,-146.79 1282.5,-132 1284.87,-131.72 1287.3,-131.43 1289.75,-131.13"/>
<polygon fill="midnightblue" stroke="midnightblue" points="1290.45,-134.56 1299.93,-129.84 1289.57,-127.62 1290.45,-134.56"/>
</g>
<!-- Node7&#45;&gt;Node8 -->
<g id="edge7" class="edge">
<title>Node7&#45;&gt;Node8</title>
<path fill="none" stroke="midnightblue" d="M1491.82,-112.17C1491.81,-97.85 1489.47,-69.79 1472.5,-56 1430.17,-21.61 1044.04,-13.18 928.82,-11.41"/>
<polygon fill="midnightblue" stroke="midnightblue" points="928.58,-7.91 918.53,-11.26 928.48,-14.91 928.58,-7.91"/>
</g>
<!-- Node9 -->
<g id="node9" class="node">
<title>Node9</title>
<g id="a_node9"><a xlink:title=" ">
<polygon fill="white" stroke="#bfbfbf" points="1416,-56.5 1416,-75.5 1463,-75.5 1463,-56.5 1416,-56.5"/>
<text text-anchor="middle" x="1439.5" y="-63.5" font-family="Helvetica,sans-Serif" font-size="10.00">vector</text>
</a>
</g>
</g>
<!-- Node7&#45;&gt;Node9 -->
<g id="edge8" class="edge">
<title>Node7&#45;&gt;Node9</title>
<path fill="none" stroke="midnightblue" d="M1482.91,-112.08C1475.34,-104.22 1464.12,-92.57 1454.99,-83.08"/>
<polygon fill="midnightblue" stroke="midnightblue" points="1457.38,-80.53 1447.93,-75.75 1452.34,-85.38 1457.38,-80.53"/>
</g>
<!-- Node11&#45;&gt;Node6 -->
<g id="edge13" class="edge">
<title>Node11&#45;&gt;Node6</title>
<path fill="none" stroke="midnightblue" d="M376.07,-129.84C381.98,-130.6 387.87,-131.34 393.5,-132 514.05,-146.2 652.99,-159.56 742.94,-167.97"/>
<polygon fill="midnightblue" stroke="midnightblue" points="742.83,-171.48 753.11,-168.93 743.48,-164.51 742.83,-171.48"/>
</g>
<!-- Node11&#45;&gt;Node8 -->
<g id="edge17" class="edge">
<title>Node11&#45;&gt;Node8</title>
<path fill="none" stroke="midnightblue" d="M355.95,-112.43C413.37,-99.43 526.68,-74.29 623.5,-56 710.31,-39.6 813.29,-23.54 864.4,-15.79"/>
<polygon fill="midnightblue" stroke="midnightblue" points="865.13,-19.22 874.5,-14.27 864.09,-12.3 865.13,-19.22"/>
</g>
<!-- Node12 -->
<g id="node12" class="node">
<title>Node12</title>
<g id="a_node12"><a xlink:href="../../dd/d35/Colorize_8hpp.html" target="_top" xlink:title=" ">
<polygon fill="white" stroke="black" points="295.5,-56.5 295.5,-75.5 399.5,-75.5 399.5,-56.5 295.5,-56.5"/>
<text text-anchor="middle" x="347.5" y="-63.5" font-family="Helvetica,sans-Serif" font-size="10.00">tools/Colorize.hpp</text>
</a>
</g>
</g>
<!-- Node11&#45;&gt;Node12 -->
<g id="edge14" class="edge">
<title>Node11&#45;&gt;Node12</title>
<path fill="none" stroke="midnightblue" d="M323.29,-112.08C327.26,-104.69 333.03,-93.95 337.93,-84.81"/>
<polygon fill="midnightblue" stroke="midnightblue" points="341.15,-86.22 342.8,-75.75 334.99,-82.91 341.15,-86.22"/>
</g>
<!-- Node12&#45;&gt;Node8 -->
<g id="edge16" class="edge">
<title>Node12&#45;&gt;Node8</title>
<path fill="none" stroke="midnightblue" d="M399.64,-59.87C511.77,-48.84 773.03,-23.14 864.32,-14.17"/>
<polygon fill="midnightblue" stroke="midnightblue" points="864.74,-17.64 874.35,-13.18 864.05,-10.67 864.74,-17.64"/>
</g>
<!-- Node13 -->
<g id="node13" class="node">
<title>Node13</title>
<g id="a_node13"><a xlink:title=" ">
<polygon fill="white" stroke="#bfbfbf" points="319.5,-0.5 319.5,-19.5 375.5,-19.5 375.5,-0.5 319.5,-0.5"/>
<text text-anchor="middle" x="347.5" y="-7.5" font-family="Helvetica,sans-Serif" font-size="10.00">sstream</text>
</a>
</g>
</g>
<!-- Node12&#45;&gt;Node13 -->
<g id="edge15" class="edge">
<title>Node12&#45;&gt;Node13</title>
<path fill="none" stroke="midnightblue" d="M347.5,-56.08C347.5,-49.01 347.5,-38.86 347.5,-29.99"/>
<polygon fill="midnightblue" stroke="midnightblue" points="351,-29.75 347.5,-19.75 344,-29.75 351,-29.75"/>
</g>
<!-- Node14&#45;&gt;Node6 -->
<g id="edge20" class="edge">
<title>Node14&#45;&gt;Node6</title>
<path fill="none" stroke="midnightblue" d="M501.15,-129.42C507.37,-130.29 513.59,-131.17 519.5,-132 606.77,-144.24 707.18,-158.01 771.51,-167.06"/>
<polygon fill="midnightblue" stroke="midnightblue" points="771.13,-170.54 781.52,-168.47 772.1,-163.61 771.13,-170.54"/>
</g>
<!-- Node14&#45;&gt;Node8 -->
<g id="edge19" class="edge">
<title>Node14&#45;&gt;Node8</title>
<path fill="none" stroke="midnightblue" d="M480.86,-112.42C529.99,-99.83 624.72,-75.69 705.5,-56 761.32,-42.39 826.48,-27.19 864.46,-18.39"/>
<polygon fill="midnightblue" stroke="midnightblue" points="865.46,-21.75 874.42,-16.09 863.88,-14.93 865.46,-21.75"/>
</g>
<!-- Node15&#45;&gt;Node6 -->
<g id="edge23" class="edge">
<title>Node15&#45;&gt;Node6</title>
<path fill="none" stroke="midnightblue" d="M624.43,-131.52C671.6,-140.92 744.44,-156.08 791.6,-166.28"/>
<polygon fill="midnightblue" stroke="midnightblue" points="791.03,-169.74 801.55,-168.44 792.52,-162.9 791.03,-169.74"/>
</g>
<!-- Node15&#45;&gt;Node8 -->
<g id="edge22" class="edge">
<title>Node15&#45;&gt;Node8</title>
<path fill="none" stroke="midnightblue" d="M603.19,-112.46C660.26,-92.72 801.27,-43.94 864.7,-22"/>
<polygon fill="midnightblue" stroke="midnightblue" points="865.88,-25.3 874.18,-18.72 863.59,-18.68 865.88,-25.3"/>
</g>
<!-- Node16&#45;&gt;Node6 -->
<g id="edge26" class="edge">
<title>Node16&#45;&gt;Node6</title>
<path fill="none" stroke="midnightblue" d="M738.14,-131.52C760.16,-140.27 791.97,-154.01 813.72,-164.1"/>
<polygon fill="midnightblue" stroke="midnightblue" points="812.4,-167.34 822.94,-168.44 815.39,-161.01 812.4,-167.34"/>
</g>
<!-- Node16&#45;&gt;Node8 -->
<g id="edge25" class="edge">
<title>Node16&#45;&gt;Node8</title>
<path fill="none" stroke="midnightblue" d="M727.86,-112.37C759.4,-93.41 834.94,-48 873.3,-24.94"/>
<polygon fill="midnightblue" stroke="midnightblue" points="875.44,-27.74 882.21,-19.59 871.83,-21.74 875.44,-27.74"/>
</g>
<!-- Node17&#45;&gt;Node6 -->
<g id="edge29" class="edge">
<title>Node17&#45;&gt;Node6</title>
<path fill="none" stroke="midnightblue" d="M842.63,-131.75C844.16,-138.86 844.6,-149.14 843.97,-158.1"/>
<polygon fill="midnightblue" stroke="midnightblue" points="840.49,-157.71 842.67,-168.08 847.43,-158.62 840.49,-157.71"/>
</g>
<!-- Node17&#45;&gt;Node8 -->
<g id="edge28" class="edge">
<title>Node17&#45;&gt;Node8</title>
<path fill="none" stroke="midnightblue" d="M842.13,-112.37C851.78,-94.38 874.21,-52.55 887.05,-28.63"/>
<polygon fill="midnightblue" stroke="midnightblue" points="890.25,-30.06 891.89,-19.59 884.08,-26.75 890.25,-30.06"/>
</g>
<!-- Node18&#45;&gt;Node6 -->
<g id="edge31" class="edge">
<title>Node18&#45;&gt;Node6</title>
<path fill="none" stroke="midnightblue" d="M942.81,-131.52C925.22,-140.39 894.62,-154.38 870.84,-164.5"/>
<polygon fill="midnightblue" stroke="midnightblue" points="869.31,-161.35 861.44,-168.44 872.02,-167.8 869.31,-161.35"/>
</g>
<!-- Node18&#45;&gt;Node8 -->
<g id="edge32" class="edge">
<title>Node18&#45;&gt;Node8</title>
<path fill="none" stroke="midnightblue" d="M951.79,-112.37C941.98,-94.38 919.16,-52.55 906.11,-28.63"/>
<polygon fill="midnightblue" stroke="midnightblue" points="909.05,-26.69 901.19,-19.59 902.9,-30.05 909.05,-26.69"/>
</g>
<!-- Node19&#45;&gt;Node6 -->
<g id="edge35" class="edge">
<title>Node19&#45;&gt;Node6</title>
<path fill="none" stroke="midnightblue" d="M1054.84,-131.52C1012.85,-140.96 941.84,-156.2 892.41,-166.41"/>
<polygon fill="midnightblue" stroke="midnightblue" points="891.61,-163 882.52,-168.44 893.02,-169.86 891.61,-163"/>
</g>
<!-- Node19&#45;&gt;Node8 -->
<g id="edge34" class="edge">
<title>Node19&#45;&gt;Node8</title>
<path fill="none" stroke="midnightblue" d="M1074.36,-112.37C1040.95,-93.33 960.74,-47.62 920.45,-24.65"/>
<polygon fill="midnightblue" stroke="midnightblue" points="922,-21.5 911.57,-19.59 918.53,-27.58 922,-21.5"/>
</g>
<!-- Node20&#45;&gt;Node6 -->
<g id="edge38" class="edge">
<title>Node20&#45;&gt;Node6</title>
<path fill="none" stroke="midnightblue" d="M1169.39,-131.52C1102.24,-141.16 989.63,-156.84 914.42,-167.04"/>
<polygon fill="midnightblue" stroke="midnightblue" points="913.51,-163.63 904.07,-168.44 914.45,-170.57 913.51,-163.63"/>
</g>
<!-- Node20&#45;&gt;Node8 -->
<g id="edge37" class="edge">
<title>Node20&#45;&gt;Node8</title>
<path fill="none" stroke="midnightblue" d="M1199.96,-112.46C1140.63,-92.62 993.6,-43.47 928.45,-21.68"/>
<polygon fill="midnightblue" stroke="midnightblue" points="929.32,-18.28 918.73,-18.43 927.1,-24.92 929.32,-18.28"/>
</g>
<!-- Node21&#45;&gt;Node6 -->
<g id="edge41" class="edge">
<title>Node21&#45;&gt;Node6</title>
<path fill="none" stroke="midnightblue" d="M1304.68,-131.5C1303.27,-131.67 1301.88,-131.84 1300.5,-132 1173.18,-146.99 1025.38,-161.01 931.61,-169.3"/>
<polygon fill="midnightblue" stroke="midnightblue" points="931.24,-165.82 921.58,-170.18 931.85,-172.79 931.24,-165.82"/>
</g>
<!-- Node21&#45;&gt;Node8 -->
<g id="edge40" class="edge">
<title>Node21&#45;&gt;Node8</title>
<path fill="none" stroke="midnightblue" d="M1321.71,-112.46C1234.47,-91.64 1011.94,-38.55 928.63,-18.67"/>
<polygon fill="midnightblue" stroke="midnightblue" points="929.27,-15.22 918.73,-16.3 927.64,-22.03 929.27,-15.22"/>
</g>
</g>
</svg>
