<?xml version="1.0" encoding="UTF-8" standalone="no"?>
<!DOCTYPE svg PUBLIC "-//W3C//DTD SVG 1.1//EN"
 "http://www.w3.org/Graphics/SVG/1.1/DTD/svg11.dtd">
<!-- Generated by graphviz version 2.43.0 (0)
 -->
<!-- Title: Leosac::Tools::ScheduleMapping Pages: 1 -->
<svg width="577pt" height="274pt"
 viewBox="0.00 0.00 577.00 274.00" xmlns="http://www.w3.org/2000/svg" xmlns:xlink="http://www.w3.org/1999/xlink">
<g id="graph0" class="graph" transform="scale(1 1) rotate(0) translate(4 270)">
<title>Leosac::Tools::ScheduleMapping</title>
<polygon fill="white" stroke="transparent" points="-4,4 -4,-270 573,-270 573,4 -4,4"/>
<!-- Node1 -->
<g id="node1" class="node">
<title>Node1</title>
<g id="a_node1"><a xlink:title="Represent one of the mapping of a schedule.">
<polygon fill="#bfbfbf" stroke="black" points="396,-118 396,-137 569,-137 569,-118 396,-118"/>
<text text-anchor="middle" x="482.5" y="-125" font-family="Helvetica,sans-Serif" font-size="10.00">Leosac::Tools::ScheduleMapping</text>
</a>
</g>
</g>
<!-- Node2 -->
<g id="node2" class="node">
<title>Node2</title>
<g id="a_node2"><a xlink:title=" ">
<polygon fill="white" stroke="#bfbfbf" points="141,-235.5 141,-265.5 318,-265.5 318,-235.5 141,-235.5"/>
<text text-anchor="start" x="149" y="-253.5" font-family="Helvetica,sans-Serif" font-size="10.00">std::enable_shared</text>
<text text-anchor="middle" x="229.5" y="-242.5" font-family="Helvetica,sans-Serif" font-size="10.00">_from_this&lt; ScheduleMapping &gt;</text>
</a>
</g>
</g>
<!-- Node2&#45;&gt;Node1 -->
<g id="edge1" class="edge">
<title>Node2&#45;&gt;Node1</title>
<path fill="none" stroke="midnightblue" d="M303.47,-232.15C308.44,-230.39 313.33,-228.51 318,-226.5 377.75,-200.81 441.85,-156.43 468.61,-137.03"/>
<polygon fill="midnightblue" stroke="midnightblue" points="302.2,-228.89 293.83,-235.38 304.43,-235.52 302.2,-228.89"/>
</g>
<!-- Node3 -->
<g id="node3" class="node">
<title>Node3</title>
<g id="a_node3"><a xlink:title=" ">
<polygon fill="white" stroke="#bfbfbf" points="175.5,-186.5 175.5,-216.5 283.5,-216.5 283.5,-186.5 175.5,-186.5"/>
<text text-anchor="start" x="183.5" y="-204.5" font-family="Helvetica,sans-Serif" font-size="10.00">std::vector&lt; Auth::</text>
<text text-anchor="middle" x="229.5" y="-193.5" font-family="Helvetica,sans-Serif" font-size="10.00">GroupLWPtr &gt;</text>
</a>
</g>
</g>
<!-- Node3&#45;&gt;Node1 -->
<g id="edge2" class="edge">
<title>Node3&#45;&gt;Node1</title>
<path fill="none" stroke="#9a32cd" stroke-dasharray="5,2" d="M293.43,-184.48C301.7,-182.17 310.06,-179.8 318,-177.5 364.61,-163.98 418.38,-147.34 451.14,-137.07"/>
<polygon fill="#9a32cd" stroke="#9a32cd" points="292.48,-181.11 283.78,-187.15 294.35,-187.85 292.48,-181.11"/>
<text text-anchor="middle" x="357" y="-173.5" font-family="Helvetica,sans-Serif" font-size="10.00"> groups_</text>
</g>
<!-- Node4 -->
<g id="node4" class="node">
<title>Node4</title>
<g id="a_node4"><a xlink:title=" ">
<polygon fill="white" stroke="#bfbfbf" points="175.5,-137.5 175.5,-167.5 283.5,-167.5 283.5,-137.5 175.5,-137.5"/>
<text text-anchor="start" x="183.5" y="-155.5" font-family="Helvetica,sans-Serif" font-size="10.00">std::vector&lt; Auth::</text>
<text text-anchor="middle" x="229.5" y="-144.5" font-family="Helvetica,sans-Serif" font-size="10.00">UserLWPtr &gt;</text>
</a>
</g>
</g>
<!-- Node4&#45;&gt;Node1 -->
<g id="edge3" class="edge">
<title>Node4&#45;&gt;Node1</title>
<path fill="none" stroke="#9a32cd" stroke-dasharray="5,2" d="M293.93,-146.18C324.8,-143.11 362.37,-139.37 395.76,-136.04"/>
<polygon fill="#9a32cd" stroke="#9a32cd" points="293.33,-142.72 283.73,-147.2 294.03,-149.69 293.33,-142.72"/>
<text text-anchor="middle" x="357" y="-143.5" font-family="Helvetica,sans-Serif" font-size="10.00"> users_</text>
</g>
<!-- Node5 -->
<g id="node5" class="node">
<title>Node5</title>
<g id="a_node5"><a xlink:title=" ">
<polygon fill="white" stroke="#bfbfbf" points="175.5,-88.5 175.5,-118.5 283.5,-118.5 283.5,-88.5 175.5,-88.5"/>
<text text-anchor="start" x="183.5" y="-106.5" font-family="Helvetica,sans-Serif" font-size="10.00">std::vector&lt; Cred::</text>
<text text-anchor="middle" x="229.5" y="-95.5" font-family="Helvetica,sans-Serif" font-size="10.00">CredentialLWPtr &gt;</text>
</a>
</g>
</g>
<!-- Node5&#45;&gt;Node1 -->
<g id="edge4" class="edge">
<title>Node5&#45;&gt;Node1</title>
<path fill="none" stroke="#9a32cd" stroke-dasharray="5,2" d="M293.93,-109.56C324.8,-112.52 362.37,-116.11 395.76,-119.3"/>
<polygon fill="#9a32cd" stroke="#9a32cd" points="294.02,-106.06 283.73,-108.59 293.35,-113.03 294.02,-106.06"/>
<text text-anchor="middle" x="357" y="-119.5" font-family="Helvetica,sans-Serif" font-size="10.00"> creds_</text>
</g>
<!-- Node6 -->
<g id="node6" class="node">
<title>Node6</title>
<g id="a_node6"><a xlink:title="STL class.">
<polygon fill="white" stroke="#bfbfbf" points="197,-50 197,-69 262,-69 262,-50 197,-50"/>
<text text-anchor="middle" x="229.5" y="-57" font-family="Helvetica,sans-Serif" font-size="10.00">std::string</text>
</a>
</g>
</g>
<!-- Node6&#45;&gt;Node1 -->
<g id="edge5" class="edge">
<title>Node6&#45;&gt;Node1</title>
<path fill="none" stroke="#9a32cd" stroke-dasharray="5,2" d="M271.97,-68.43C286.56,-71.72 303.05,-75.6 318,-79.5 364.66,-91.67 418.19,-107.8 450.92,-117.92"/>
<polygon fill="#9a32cd" stroke="#9a32cd" points="272.73,-65.02 262.2,-66.26 271.2,-71.85 272.73,-65.02"/>
<text text-anchor="middle" x="357" y="-98.5" font-family="Helvetica,sans-Serif" font-size="10.00"> alias_</text>
</g>
<!-- Node7 -->
<g id="node7" class="node">
<title>Node7</title>
<g id="a_node7"><a xlink:title="STL class.">
<polygon fill="white" stroke="#bfbfbf" points="0,-44.5 0,-74.5 104,-74.5 104,-44.5 0,-44.5"/>
<text text-anchor="start" x="8" y="-62.5" font-family="Helvetica,sans-Serif" font-size="10.00">std::basic_string&lt;</text>
<text text-anchor="middle" x="52" y="-51.5" font-family="Helvetica,sans-Serif" font-size="10.00"> char &gt;</text>
</a>
</g>
</g>
<!-- Node7&#45;&gt;Node6 -->
<g id="edge6" class="edge">
<title>Node7&#45;&gt;Node6</title>
<path fill="none" stroke="midnightblue" d="M114.28,-59.5C142.11,-59.5 173.85,-59.5 196.8,-59.5"/>
<polygon fill="midnightblue" stroke="midnightblue" points="114.23,-56 104.23,-59.5 114.23,-63 114.23,-56"/>
</g>
<!-- Node8 -->
<g id="node8" class="node">
<title>Node8</title>
<g id="a_node8"><a xlink:title=" ">
<polygon fill="white" stroke="#bfbfbf" points="175.5,-0.5 175.5,-30.5 283.5,-30.5 283.5,-0.5 175.5,-0.5"/>
<text text-anchor="start" x="183.5" y="-18.5" font-family="Helvetica,sans-Serif" font-size="10.00">std::vector&lt; Auth::</text>
<text text-anchor="middle" x="229.5" y="-7.5" font-family="Helvetica,sans-Serif" font-size="10.00">DoorLWPtr &gt;</text>
</a>
</g>
</g>
<!-- Node8&#45;&gt;Node1 -->
<g id="edge7" class="edge">
<title>Node8&#45;&gt;Node1</title>
<path fill="none" stroke="#9a32cd" stroke-dasharray="5,2" d="M293.45,-32.07C301.78,-34.68 310.15,-37.51 318,-40.5 375.38,-62.38 438.15,-100.04 466.33,-117.75"/>
<polygon fill="#9a32cd" stroke="#9a32cd" points="294.31,-28.68 283.73,-29.13 292.28,-35.38 294.31,-28.68"/>
<text text-anchor="middle" x="357" y="-67.5" font-family="Helvetica,sans-Serif" font-size="10.00"> doors_</text>
</g>
</g>
</svg>
