<?xml version="1.0" encoding="UTF-8" standalone="no"?>
<!DOCTYPE svg PUBLIC "-//W3C//DTD SVG 1.1//EN"
 "http://www.w3.org/Graphics/SVG/1.1/DTD/svg11.dtd">
<!-- Generated by graphviz version 2.43.0 (0)
 -->
<!-- Title: Leosac::Hardware::ExternalServer Pages: 1 -->
<svg width="232pt" height="231pt"
 viewBox="0.00 0.00 231.50 231.00" xmlns="http://www.w3.org/2000/svg" xmlns:xlink="http://www.w3.org/1999/xlink">
<g id="graph0" class="graph" transform="scale(1 1) rotate(0) translate(4 227)">
<title>Leosac::Hardware::ExternalServer</title>
<polygon fill="white" stroke="transparent" points="-4,4 -4,-227 227.5,-227 227.5,4 -4,4"/>
<!-- Node1 -->
<g id="node1" class="node">
<title>Node1</title>
<g id="a_node1"><a xlink:title="Abstraction of an External Server device.">
<polygon fill="#bfbfbf" stroke="black" points="50.5,-0.5 50.5,-30.5 200.5,-30.5 200.5,-0.5 50.5,-0.5"/>
<text text-anchor="start" x="58.5" y="-18.5" font-family="Helvetica,sans-Serif" font-size="10.00">Leosac::Hardware::External</text>
<text text-anchor="middle" x="125.5" y="-7.5" font-family="Helvetica,sans-Serif" font-size="10.00">Server</text>
</a>
</g>
</g>
<!-- Node2 -->
<g id="node2" class="node">
<title>Node2</title>
<g id="a_node2"><a xlink:href="../../d3/d7f/classLeosac_1_1Hardware_1_1Device.html" target="_top" xlink:title="Base class for hardware devices.">
<polygon fill="white" stroke="black" points="0,-68.5 0,-87.5 143,-87.5 143,-68.5 0,-68.5"/>
<text text-anchor="middle" x="71.5" y="-75.5" font-family="Helvetica,sans-Serif" font-size="10.00">Leosac::Hardware::Device</text>
</a>
</g>
</g>
<!-- Node2&#45;&gt;Node1 -->
<g id="edge1" class="edge">
<title>Node2&#45;&gt;Node1</title>
<path fill="none" stroke="midnightblue" d="M85.94,-60.82C94.3,-51.46 104.72,-39.78 112.77,-30.76"/>
<polygon fill="midnightblue" stroke="midnightblue" points="83.28,-58.54 79.24,-68.33 88.51,-63.2 83.28,-58.54"/>
</g>
<!-- Node3 -->
<g id="node3" class="node">
<title>Node3</title>
<g id="a_node3"><a xlink:href="../../d7/d46/classLeosac_1_1UUID.html" target="_top" xlink:title="Thin wrapper around boost::uuids::uuid.">
<polygon fill="white" stroke="black" points="30.5,-135.5 30.5,-154.5 112.5,-154.5 112.5,-135.5 30.5,-135.5"/>
<text text-anchor="middle" x="71.5" y="-142.5" font-family="Helvetica,sans-Serif" font-size="10.00">Leosac::UUID</text>
</a>
</g>
</g>
<!-- Node3&#45;&gt;Node2 -->
<g id="edge2" class="edge">
<title>Node3&#45;&gt;Node2</title>
<path fill="none" stroke="#9a32cd" stroke-dasharray="5,2" d="M71.5,-125.04C71.5,-112.67 71.5,-97.12 71.5,-87.63"/>
<polygon fill="#9a32cd" stroke="#9a32cd" points="68,-125.23 71.5,-135.23 75,-125.23 68,-125.23"/>
<text text-anchor="middle" x="80.5" y="-109" font-family="Helvetica,sans-Serif" font-size="10.00"> id_</text>
</g>
<!-- Node4 -->
<g id="node4" class="node">
<title>Node4</title>
<g id="a_node4"><a xlink:title="STL class.">
<polygon fill="white" stroke="#bfbfbf" points="139,-135.5 139,-154.5 204,-154.5 204,-135.5 139,-135.5"/>
<text text-anchor="middle" x="171.5" y="-142.5" font-family="Helvetica,sans-Serif" font-size="10.00">std::string</text>
</a>
</g>
</g>
<!-- Node4&#45;&gt;Node1 -->
<g id="edge5" class="edge">
<title>Node4&#45;&gt;Node1</title>
<path fill="none" stroke="#9a32cd" stroke-dasharray="5,2" d="M169.21,-125.36C168.28,-119.16 167.05,-112.24 165.5,-106 161.2,-88.68 159.55,-84.4 152.5,-68 146.91,-55.02 139.36,-40.83 133.67,-30.64"/>
<polygon fill="#9a32cd" stroke="#9a32cd" points="165.77,-126.02 170.58,-135.46 172.71,-125.09 165.77,-126.02"/>
<text text-anchor="middle" x="174.5" y="-75.5" font-family="Helvetica,sans-Serif" font-size="10.00"> host_</text>
</g>
<!-- Node4&#45;&gt;Node2 -->
<g id="edge3" class="edge">
<title>Node4&#45;&gt;Node2</title>
<path fill="none" stroke="#9a32cd" stroke-dasharray="5,2" d="M148.97,-130.01C142.35,-125.86 135.11,-121.28 128.5,-117 113.12,-107.05 95.62,-95.32 84.11,-87.55"/>
<polygon fill="#9a32cd" stroke="#9a32cd" points="147.16,-133.01 157.5,-135.34 150.87,-127.07 147.16,-133.01"/>
<text text-anchor="middle" x="147" y="-109" font-family="Helvetica,sans-Serif" font-size="10.00"> name_</text>
</g>
<!-- Node5 -->
<g id="node5" class="node">
<title>Node5</title>
<g id="a_node5"><a xlink:title="STL class.">
<polygon fill="white" stroke="#bfbfbf" points="119.5,-192.5 119.5,-222.5 223.5,-222.5 223.5,-192.5 119.5,-192.5"/>
<text text-anchor="start" x="127.5" y="-210.5" font-family="Helvetica,sans-Serif" font-size="10.00">std::basic_string&lt;</text>
<text text-anchor="middle" x="171.5" y="-199.5" font-family="Helvetica,sans-Serif" font-size="10.00"> char &gt;</text>
</a>
</g>
</g>
<!-- Node5&#45;&gt;Node4 -->
<g id="edge4" class="edge">
<title>Node5&#45;&gt;Node4</title>
<path fill="none" stroke="midnightblue" d="M171.5,-182.35C171.5,-172.51 171.5,-161.78 171.5,-154.54"/>
<polygon fill="midnightblue" stroke="midnightblue" points="168,-182.47 171.5,-192.47 175,-182.47 168,-182.47"/>
</g>
</g>
</svg>
