<?xml version="1.0" encoding="UTF-8" standalone="no"?>
<!DOCTYPE svg PUBLIC "-//W3C//DTD SVG 1.1//EN"
 "http://www.w3.org/Graphics/SVG/1.1/DTD/svg11.dtd">
<!-- Generated by graphviz version 2.43.0 (0)
 -->
<!-- Title: Leosac::Auth::Zone Pages: 1 -->
<svg width="513pt" height="187pt"
 viewBox="0.00 0.00 513.00 186.50" xmlns="http://www.w3.org/2000/svg" xmlns:xlink="http://www.w3.org/1999/xlink">
<g id="graph0" class="graph" transform="scale(1 1) rotate(0) translate(4 182.5)">
<title>Leosac::Auth::Zone</title>
<polygon fill="white" stroke="transparent" points="-4,4 -4,-182.5 509,-182.5 509,4 -4,4"/>
<!-- Node1 -->
<g id="node1" class="node">
<title>Node1</title>
<g id="a_node1"><a xlink:title="A Zone is a container for doors and other zone.">
<polygon fill="#bfbfbf" stroke="black" points="395,-80.5 395,-99.5 505,-99.5 505,-80.5 395,-80.5"/>
<text text-anchor="middle" x="450" y="-87.5" font-family="Helvetica,sans-Serif" font-size="10.00">Leosac::Auth::Zone</text>
</a>
</g>
</g>
<!-- Node2 -->
<g id="node2" class="node">
<title>Node2</title>
<g id="a_node2"><a xlink:href="../../df/d8d/classLeosac_1_1Auth_1_1IZone.html" target="_top" xlink:title="The interface for zones.">
<polygon fill="white" stroke="black" points="171,-153.5 171,-172.5 284,-172.5 284,-153.5 171,-153.5"/>
<text text-anchor="middle" x="227.5" y="-160.5" font-family="Helvetica,sans-Serif" font-size="10.00">Leosac::Auth::IZone</text>
</a>
</g>
</g>
<!-- Node2&#45;&gt;Node1 -->
<g id="edge1" class="edge">
<title>Node2&#45;&gt;Node1</title>
<path fill="none" stroke="midnightblue" d="M288.02,-151.31C315.52,-145.12 348.37,-136.58 377,-126 396.79,-118.69 418.29,-107.48 432.59,-99.51"/>
<polygon fill="midnightblue" stroke="midnightblue" points="287.15,-147.92 278.14,-153.49 288.66,-154.75 287.15,-147.92"/>
</g>
<!-- Node3 -->
<g id="node3" class="node">
<title>Node3</title>
<g id="a_node3"><a xlink:title=" ">
<polygon fill="white" stroke="#bfbfbf" points="0,-148 0,-178 119,-178 119,-148 0,-148"/>
<text text-anchor="start" x="8" y="-166" font-family="Helvetica,sans-Serif" font-size="10.00">std::enable_shared</text>
<text text-anchor="middle" x="59.5" y="-155" font-family="Helvetica,sans-Serif" font-size="10.00">_from_this&lt; IZone &gt;</text>
</a>
</g>
</g>
<!-- Node3&#45;&gt;Node2 -->
<g id="edge2" class="edge">
<title>Node3&#45;&gt;Node2</title>
<path fill="none" stroke="midnightblue" d="M129.42,-163C143.18,-163 157.48,-163 170.73,-163"/>
<polygon fill="midnightblue" stroke="midnightblue" points="129.03,-159.5 119.03,-163 129.03,-166.5 129.03,-159.5"/>
</g>
<!-- Node4 -->
<g id="node4" class="node">
<title>Node4</title>
<g id="a_node4"><a xlink:title=" ">
<polygon fill="white" stroke="#bfbfbf" points="161,-115.5 161,-134.5 294,-134.5 294,-115.5 161,-115.5"/>
<text text-anchor="middle" x="227.5" y="-122.5" font-family="Helvetica,sans-Serif" font-size="10.00">std::vector&lt; DoorLPtr &gt;</text>
</a>
</g>
</g>
<!-- Node4&#45;&gt;Node1 -->
<g id="edge3" class="edge">
<title>Node4&#45;&gt;Node1</title>
<path fill="none" stroke="#9a32cd" stroke-dasharray="5,2" d="M304.53,-114.21C327.81,-110.78 353.48,-106.87 377,-103 383.64,-101.91 390.62,-100.71 397.51,-99.5"/>
<polygon fill="#9a32cd" stroke="#9a32cd" points="303.75,-110.78 294.36,-115.7 304.76,-117.71 303.75,-110.78"/>
<text text-anchor="middle" x="347" y="-114" font-family="Helvetica,sans-Serif" font-size="10.00"> doors_</text>
</g>
<!-- Node5 -->
<g id="node5" class="node">
<title>Node5</title>
<g id="a_node5"><a xlink:title=" ">
<polygon fill="white" stroke="#bfbfbf" points="160.5,-77.5 160.5,-96.5 294.5,-96.5 294.5,-77.5 160.5,-77.5"/>
<text text-anchor="middle" x="227.5" y="-84.5" font-family="Helvetica,sans-Serif" font-size="10.00">std::vector&lt; ZoneLPtr &gt;</text>
</a>
</g>
</g>
<!-- Node5&#45;&gt;Node1 -->
<g id="edge4" class="edge">
<title>Node5&#45;&gt;Node1</title>
<path fill="none" stroke="#9a32cd" stroke-dasharray="5,2" d="M304.95,-88.04C334.53,-88.44 367.7,-88.89 394.75,-89.26"/>
<polygon fill="#9a32cd" stroke="#9a32cd" points="304.7,-84.54 294.66,-87.9 304.61,-91.54 304.7,-84.54"/>
<text text-anchor="middle" x="347" y="-91" font-family="Helvetica,sans-Serif" font-size="10.00"> children_</text>
</g>
<!-- Node6 -->
<g id="node6" class="node">
<title>Node6</title>
<g id="a_node6"><a xlink:title="STL class.">
<polygon fill="white" stroke="#bfbfbf" points="195,-38.5 195,-57.5 260,-57.5 260,-38.5 195,-38.5"/>
<text text-anchor="middle" x="227.5" y="-45.5" font-family="Helvetica,sans-Serif" font-size="10.00">std::string</text>
</a>
</g>
</g>
<!-- Node6&#45;&gt;Node1 -->
<g id="edge5" class="edge">
<title>Node6&#45;&gt;Node1</title>
<path fill="none" stroke="#9a32cd" stroke-dasharray="5,2" d="M270.33,-48.86C300.36,-50.22 341.61,-53.62 377,-62 395.14,-66.29 414.81,-74.18 429,-80.49"/>
<polygon fill="#9a32cd" stroke="#9a32cd" points="270.33,-45.36 260.2,-48.46 270.05,-52.35 270.33,-45.36"/>
<text text-anchor="middle" x="347" y="-76" font-family="Helvetica,sans-Serif" font-size="10.00"> alias_</text>
<text text-anchor="middle" x="347" y="-65" font-family="Helvetica,sans-Serif" font-size="10.00">description_</text>
</g>
<!-- Node7 -->
<g id="node7" class="node">
<title>Node7</title>
<g id="a_node7"><a xlink:title="STL class.">
<polygon fill="white" stroke="#bfbfbf" points="7.5,-33 7.5,-63 111.5,-63 111.5,-33 7.5,-33"/>
<text text-anchor="start" x="15.5" y="-51" font-family="Helvetica,sans-Serif" font-size="10.00">std::basic_string&lt;</text>
<text text-anchor="middle" x="59.5" y="-40" font-family="Helvetica,sans-Serif" font-size="10.00"> char &gt;</text>
</a>
</g>
</g>
<!-- Node7&#45;&gt;Node6 -->
<g id="edge6" class="edge">
<title>Node7&#45;&gt;Node6</title>
<path fill="none" stroke="midnightblue" d="M121.7,-48C146.42,-48 173.93,-48 194.56,-48"/>
<polygon fill="midnightblue" stroke="midnightblue" points="121.66,-44.5 111.66,-48 121.66,-51.5 121.66,-44.5"/>
</g>
<!-- Node8 -->
<g id="node8" class="node">
<title>Node8</title>
<g id="a_node8"><a xlink:title=" ">
<polygon fill="white" stroke="#bfbfbf" points="156,-0.5 156,-19.5 299,-19.5 299,-0.5 156,-0.5"/>
<text text-anchor="middle" x="227.5" y="-7.5" font-family="Helvetica,sans-Serif" font-size="10.00">std::vector&lt; ZoneLWPtr &gt;</text>
</a>
</g>
</g>
<!-- Node8&#45;&gt;Node1 -->
<g id="edge7" class="edge">
<title>Node8&#45;&gt;Node1</title>
<path fill="none" stroke="#9a32cd" stroke-dasharray="5,2" d="M309.08,-17.83C331.67,-21.83 355.83,-27.87 377,-37 401.8,-47.7 426.15,-68.34 439.2,-80.46"/>
<polygon fill="#9a32cd" stroke="#9a32cd" points="309.61,-14.37 299.17,-16.18 308.46,-21.27 309.61,-14.37"/>
<text text-anchor="middle" x="347" y="-40" font-family="Helvetica,sans-Serif" font-size="10.00"> parents_</text>
</g>
</g>
</svg>
