<?xml version="1.0" encoding="UTF-8" standalone="no"?>
<!DOCTYPE svg PUBLIC "-//W3C//DTD SVG 1.1//EN"
 "http://www.w3.org/Graphics/SVG/1.1/DTD/svg11.dtd">
<!-- Generated by graphviz version 2.43.0 (0)
 -->
<!-- Title: src/modules/BaseModule.hpp Pages: 1 -->
<!--zoomable 162 -->
<svg id="main" version="1.1" xmlns="http://www.w3.org/2000/svg" xmlns:xlink="http://www.w3.org/1999/xlink" xml:space="preserve" onload="init(evt)">
<style type="text/css"><![CDATA[
.edge:hover path { stroke: red; }
.edge:hover polygon { stroke: red; fill: red; }
]]></style>
<script type="text/javascript"><![CDATA[
var edges = document.getElementsByTagName('g');
if (edges && edges.length) {
  for (var i=0;i<edges.length;i++) {
    if (edges[i].id.substr(0,4)=='edge') {
      edges[i].setAttribute('class','edge');
    }
  }
}
]]></script>
        <defs>
                <circle id="rim" cx="0" cy="0" r="7"/>
                <circle id="rim2" cx="0" cy="0" r="3.5"/>
                <g id="zoomPlus">
                        <use xlink:href="#rim" fill="#404040">
                                <set attributeName="fill" to="#808080" begin="zoomplus.mouseover" end="zoomplus.mouseout"/>
                        </use>
                        <path d="M-4,0h8M0,-4v8" fill="none" stroke="white" stroke-width="1.5" pointer-events="none"/>
                </g>
                <g id="zoomMin">
                        <use xlink:href="#rim" fill="#404040">
                                <set attributeName="fill" to="#808080" begin="zoomminus.mouseover" end="zoomminus.mouseout"/>
                        </use>
                        <path d="M-4,0h8" fill="none" stroke="white" stroke-width="1.5" pointer-events="none"/>
                </g>
                <g id="dirArrow">
                        <path fill="none" stroke="white" stroke-width="1.5" d="M0,-3.0v7 M-2.5,-0.5L0,-3.0L2.5,-0.5"/>
                </g>
               <g id="resetDef">
                       <use xlink:href="#rim2" fill="#404040">
                               <set attributeName="fill" to="#808080" begin="reset.mouseover" end="reset.mouseout"/>
                       </use>
               </g>
        </defs>

<script type="text/javascript">
var viewWidth = 4708;
var viewHeight = 162;
var sectionId = 'dynsection-1';
</script>
<script xlink:href="../../svgpan.js"/>
<svg id="graph" class="graph">
<g id="viewport">
<title>src/modules/BaseModule.hpp</title>
<polygon fill="white" stroke="transparent" points="-4,4 -4,-158 4703.5,-158 4703.5,4 -4,4"/>
<!-- Node1 -->
<g id="node1" class="node">
<title>Node1</title>
<g id="a_node1"><a xlink:title=" ">
<polygon fill="#bfbfbf" stroke="black" points="2941,-134.5 2941,-153.5 3101,-153.5 3101,-134.5 2941,-134.5"/>
<text text-anchor="middle" x="3021" y="-141.5" font-family="Helvetica,sans-Serif" font-size="10.00">src/modules/BaseModule.hpp</text>
</a>
</g>
</g>
<!-- Node2 -->
<g id="node2" class="node">
<title>Node2</title>
<g id="a_node2"><a xlink:href="../../db/d85/AsioModule_8hpp.html" target="_top" xlink:title=" ">
<polygon fill="white" stroke="black" points="296.5,-73 296.5,-92 453.5,-92 453.5,-73 296.5,-73"/>
<text text-anchor="middle" x="375" y="-80" font-family="Helvetica,sans-Serif" font-size="10.00">src/modules/AsioModule.hpp</text>
</a>
</g>
</g>
<!-- Node1&#45;&gt;Node2 -->
<g id="edge1" class="edge">
<title>Node1&#45;&gt;Node2</title>
<path fill="none" stroke="midnightblue" d="M2930.56,-141.64C2628.07,-136.99 1623.9,-120.74 794,-98 675.4,-94.75 537.96,-89.76 453.76,-86.56"/>
<polygon fill="midnightblue" stroke="midnightblue" points="2930.55,-145.14 2940.6,-141.79 2930.65,-138.14 2930.55,-145.14"/>
</g>
<!-- Node14 -->
<g id="node7" class="node">
<title>Node14</title>
<g id="a_node7"><a xlink:href="../../df/d57/AuthFileModule_8hpp.html" target="_top" xlink:title=" ">
<polygon fill="white" stroke="black" points="803.5,-67.5 803.5,-97.5 938.5,-97.5 938.5,-67.5 803.5,-67.5"/>
<text text-anchor="start" x="811.5" y="-85.5" font-family="Helvetica,sans-Serif" font-size="10.00">src/modules/auth/auth</text>
<text text-anchor="middle" x="871" y="-74.5" font-family="Helvetica,sans-Serif" font-size="10.00">&#45;file/AuthFileModule.hpp</text>
</a>
</g>
</g>
<!-- Node1&#45;&gt;Node14 -->
<g id="edge6" class="edge">
<title>Node1&#45;&gt;Node14</title>
<path fill="none" stroke="midnightblue" d="M2930.53,-142.82C2650.64,-141.84 1774.03,-135.77 1049,-98 1012.46,-96.1 971.79,-92.87 938.56,-89.94"/>
<polygon fill="midnightblue" stroke="midnightblue" points="2930.62,-146.32 2940.63,-142.85 2930.65,-139.32 2930.62,-146.32"/>
</g>
<!-- Node17 -->
<g id="node10" class="node">
<title>Node17</title>
<g id="a_node10"><a xlink:href="../../de/d21/BaseModule_8cpp.html" target="_top" xlink:title=" ">
<polygon fill="white" stroke="black" points="1058.5,-73 1058.5,-92 1217.5,-92 1217.5,-73 1058.5,-73"/>
<text text-anchor="middle" x="1138" y="-80" font-family="Helvetica,sans-Serif" font-size="10.00">src/modules/BaseModule.cpp</text>
</a>
</g>
</g>
<!-- Node1&#45;&gt;Node17 -->
<g id="edge9" class="edge">
<title>Node1&#45;&gt;Node17</title>
<path fill="none" stroke="midnightblue" d="M2930.95,-142.37C2615.75,-139.9 1563.12,-129.45 1227,-98 1212.66,-96.66 1197.13,-94.41 1183.12,-92.08"/>
<polygon fill="midnightblue" stroke="midnightblue" points="2930.93,-145.87 2940.95,-142.45 2930.98,-138.87 2930.93,-145.87"/>
</g>
<!-- Node18 -->
<g id="node11" class="node">
<title>Node18</title>
<g id="a_node11"><a xlink:href="../../de/d46/DoormanModule_8hpp.html" target="_top" xlink:title=" ">
<polygon fill="white" stroke="black" points="1236,-67.5 1236,-97.5 1358,-97.5 1358,-67.5 1236,-67.5"/>
<text text-anchor="start" x="1244" y="-85.5" font-family="Helvetica,sans-Serif" font-size="10.00">src/modules/doorman</text>
<text text-anchor="middle" x="1297" y="-74.5" font-family="Helvetica,sans-Serif" font-size="10.00">/DoormanModule.hpp</text>
</a>
</g>
</g>
<!-- Node1&#45;&gt;Node18 -->
<g id="edge10" class="edge">
<title>Node1&#45;&gt;Node18</title>
<path fill="none" stroke="midnightblue" d="M2930.52,-141.27C2698.1,-136.6 2061.17,-122.43 1531,-98 1472.25,-95.29 1405.27,-91.02 1358.07,-87.82"/>
<polygon fill="midnightblue" stroke="midnightblue" points="2930.54,-144.77 2940.61,-141.47 2930.68,-137.77 2930.54,-144.77"/>
</g>
<!-- Node22 -->
<g id="node15" class="node">
<title>Node22</title>
<g id="a_node15"><a xlink:href="../../d3/d6c/EventPublish_8h.html" target="_top" xlink:title=" ">
<polygon fill="white" stroke="black" points="1540,-67.5 1540,-97.5 1686,-97.5 1686,-67.5 1540,-67.5"/>
<text text-anchor="start" x="1548" y="-85.5" font-family="Helvetica,sans-Serif" font-size="10.00">src/modules/event&#45;publish</text>
<text text-anchor="middle" x="1613" y="-74.5" font-family="Helvetica,sans-Serif" font-size="10.00">/EventPublish.h</text>
</a>
</g>
</g>
<!-- Node1&#45;&gt;Node22 -->
<g id="edge14" class="edge">
<title>Node1&#45;&gt;Node22</title>
<path fill="none" stroke="midnightblue" d="M2930.59,-140C2736.38,-133.43 2264.93,-116.86 1870,-98 1807.95,-95.04 1737.52,-91.02 1686.1,-87.96"/>
<polygon fill="midnightblue" stroke="midnightblue" points="2930.63,-143.5 2940.74,-140.34 2930.87,-136.5 2930.63,-143.5"/>
</g>
<!-- Node25 -->
<g id="node18" class="node">
<title>Node25</title>
<g id="a_node18"><a xlink:href="../../d3/d03/InstrumentationModule_8hpp.html" target="_top" xlink:title=" ">
<polygon fill="white" stroke="black" points="1879.5,-67.5 1879.5,-97.5 2036.5,-97.5 2036.5,-67.5 1879.5,-67.5"/>
<text text-anchor="start" x="1887.5" y="-85.5" font-family="Helvetica,sans-Serif" font-size="10.00">src/modules/instrumentation</text>
<text text-anchor="middle" x="1958" y="-74.5" font-family="Helvetica,sans-Serif" font-size="10.00">/InstrumentationModule.hpp</text>
</a>
</g>
</g>
<!-- Node1&#45;&gt;Node25 -->
<g id="edge17" class="edge">
<title>Node1&#45;&gt;Node25</title>
<path fill="none" stroke="midnightblue" d="M2930.55,-137.94C2725.76,-126.47 2229.51,-98.7 2036.57,-87.9"/>
<polygon fill="midnightblue" stroke="midnightblue" points="2930.49,-141.44 2940.67,-138.5 2930.88,-134.45 2930.49,-141.44"/>
</g>
<!-- Node28 -->
<g id="node21" class="node">
<title>Node28</title>
<g id="a_node21"><a xlink:href="../../dd/d33/LEDBuzzerModule_8hpp.html" target="_top" xlink:title=" ">
<polygon fill="white" stroke="black" points="2264,-67.5 2264,-97.5 2394,-97.5 2394,-67.5 2264,-67.5"/>
<text text-anchor="start" x="2272" y="-85.5" font-family="Helvetica,sans-Serif" font-size="10.00">src/modules/led&#45;buzzer</text>
<text text-anchor="middle" x="2329" y="-74.5" font-family="Helvetica,sans-Serif" font-size="10.00">/LEDBuzzerModule.hpp</text>
</a>
</g>
</g>
<!-- Node1&#45;&gt;Node28 -->
<g id="edge20" class="edge">
<title>Node1&#45;&gt;Node28</title>
<path fill="none" stroke="midnightblue" d="M2930.56,-135.22C2788.9,-123.04 2518.1,-99.76 2394.02,-89.09"/>
<polygon fill="midnightblue" stroke="midnightblue" points="2930.68,-138.75 2940.94,-136.12 2931.28,-131.77 2930.68,-138.75"/>
</g>
<!-- Node32 -->
<g id="node25" class="node">
<title>Node32</title>
<g id="a_node25"><a xlink:href="../../d2/dc2/MonitorModule_8hpp.html" target="_top" xlink:title=" ">
<polygon fill="white" stroke="black" points="2580.5,-67.5 2580.5,-97.5 2697.5,-97.5 2697.5,-67.5 2580.5,-67.5"/>
<text text-anchor="start" x="2588.5" y="-85.5" font-family="Helvetica,sans-Serif" font-size="10.00">src/modules/monitor</text>
<text text-anchor="middle" x="2639" y="-74.5" font-family="Helvetica,sans-Serif" font-size="10.00">/MonitorModule.hpp</text>
</a>
</g>
</g>
<!-- Node1&#45;&gt;Node32 -->
<g id="edge24" class="edge">
<title>Node1&#45;&gt;Node32</title>
<path fill="none" stroke="midnightblue" d="M2956.35,-132.93C2883.94,-121.65 2767.6,-103.53 2697.71,-92.64"/>
<polygon fill="midnightblue" stroke="midnightblue" points="2955.85,-136.39 2966.27,-134.48 2956.93,-129.48 2955.85,-136.39"/>
</g>
<!-- Node35 -->
<g id="node28" class="node">
<title>Node35</title>
<g id="a_node28"><a xlink:href="../../d7/d36/PFDigitalModule_8hpp.html" target="_top" xlink:title=" ">
<polygon fill="white" stroke="black" points="2874,-67.5 2874,-97.5 3014,-97.5 3014,-67.5 2874,-67.5"/>
<text text-anchor="start" x="2882" y="-85.5" font-family="Helvetica,sans-Serif" font-size="10.00">src/modules/pifacedigital</text>
<text text-anchor="middle" x="2944" y="-74.5" font-family="Helvetica,sans-Serif" font-size="10.00">/PFDigitalModule.hpp</text>
</a>
</g>
</g>
<!-- Node1&#45;&gt;Node35 -->
<g id="edge27" class="edge">
<title>Node1&#45;&gt;Node35</title>
<path fill="none" stroke="midnightblue" d="M3001.84,-128.2C2989.7,-118.81 2974.09,-106.75 2962.15,-97.52"/>
<polygon fill="midnightblue" stroke="midnightblue" points="2999.91,-131.13 3009.97,-134.48 3004.19,-125.59 2999.91,-131.13"/>
</g>
<!-- Node38 -->
<g id="node31" class="node">
<title>Node38</title>
<g id="a_node31"><a xlink:href="../../db/df9/ReplicationModule_8hpp.html" target="_top" xlink:title=" ">
<polygon fill="white" stroke="black" points="3032.5,-67.5 3032.5,-97.5 3163.5,-97.5 3163.5,-67.5 3032.5,-67.5"/>
<text text-anchor="start" x="3040.5" y="-85.5" font-family="Helvetica,sans-Serif" font-size="10.00">src/modules/replication</text>
<text text-anchor="middle" x="3098" y="-74.5" font-family="Helvetica,sans-Serif" font-size="10.00">/ReplicationModule.hpp</text>
</a>
</g>
</g>
<!-- Node1&#45;&gt;Node38 -->
<g id="edge30" class="edge">
<title>Node1&#45;&gt;Node38</title>
<path fill="none" stroke="midnightblue" d="M3040.16,-128.2C3052.3,-118.81 3067.91,-106.75 3079.85,-97.52"/>
<polygon fill="midnightblue" stroke="midnightblue" points="3037.81,-125.59 3032.03,-134.48 3042.09,-131.13 3037.81,-125.59"/>
</g>
<!-- Node41 -->
<g id="node34" class="node">
<title>Node41</title>
<g id="a_node34"><a xlink:href="../../d3/d0f/RplethModule_8hpp.html" target="_top" xlink:title=" ">
<polygon fill="white" stroke="black" points="3388,-67.5 3388,-97.5 3496,-97.5 3496,-67.5 3388,-67.5"/>
<text text-anchor="start" x="3396" y="-85.5" font-family="Helvetica,sans-Serif" font-size="10.00">src/modules/rpleth</text>
<text text-anchor="middle" x="3442" y="-74.5" font-family="Helvetica,sans-Serif" font-size="10.00">/RplethModule.hpp</text>
</a>
</g>
</g>
<!-- Node1&#45;&gt;Node41 -->
<g id="edge33" class="edge">
<title>Node1&#45;&gt;Node41</title>
<path fill="none" stroke="midnightblue" d="M3091.22,-133.08C3174.67,-121.28 3312.12,-101.86 3387.81,-91.16"/>
<polygon fill="midnightblue" stroke="midnightblue" points="3090.73,-129.61 3081.32,-134.48 3091.71,-136.54 3090.73,-129.61"/>
</g>
<!-- Node45 -->
<g id="node38" class="node">
<title>Node45</title>
<g id="a_node38"><a xlink:href="../../df/d94/StdinControllerModule_8hpp.html" target="_top" xlink:title=" ">
<polygon fill="white" stroke="black" points="3630.5,-67.5 3630.5,-97.5 3783.5,-97.5 3783.5,-67.5 3630.5,-67.5"/>
<text text-anchor="start" x="3638.5" y="-85.5" font-family="Helvetica,sans-Serif" font-size="10.00">src/modules/stdin&#45;controller</text>
<text text-anchor="middle" x="3707" y="-74.5" font-family="Helvetica,sans-Serif" font-size="10.00">/StdinControllerModule.hpp</text>
</a>
</g>
</g>
<!-- Node1&#45;&gt;Node45 -->
<g id="edge37" class="edge">
<title>Node1&#45;&gt;Node45</title>
<path fill="none" stroke="midnightblue" d="M3111.02,-135.19C3247.07,-123.39 3502.69,-101.22 3630.36,-90.15"/>
<polygon fill="midnightblue" stroke="midnightblue" points="3110.7,-131.71 3101.04,-136.06 3111.3,-138.68 3110.7,-131.71"/>
</g>
<!-- Node48 -->
<g id="node41" class="node">
<title>Node48</title>
<g id="a_node41"><a xlink:href="../../db/dcb/SysFsGpioModule_8hpp.html" target="_top" xlink:title=" ">
<polygon fill="white" stroke="black" points="3802,-67.5 3802,-97.5 3930,-97.5 3930,-67.5 3802,-67.5"/>
<text text-anchor="start" x="3810" y="-85.5" font-family="Helvetica,sans-Serif" font-size="10.00">src/modules/sysfsgpio</text>
<text text-anchor="middle" x="3866" y="-74.5" font-family="Helvetica,sans-Serif" font-size="10.00">/SysFsGpioModule.hpp</text>
</a>
</g>
</g>
<!-- Node1&#45;&gt;Node48 -->
<g id="edge40" class="edge">
<title>Node1&#45;&gt;Node48</title>
<path fill="none" stroke="midnightblue" d="M3111.38,-141.68C3255.76,-138.68 3547.13,-128.99 3792,-98 3795.25,-97.59 3798.57,-97.12 3801.91,-96.61"/>
<polygon fill="midnightblue" stroke="midnightblue" points="3111.17,-138.18 3101.24,-141.88 3111.31,-145.18 3111.17,-138.18"/>
</g>
<!-- Node56 -->
<g id="node45" class="node">
<title>Node56</title>
<g id="a_node45"><a xlink:href="../../d0/dd9/TcpNotifier_8hpp.html" target="_top" xlink:title=" ">
<polygon fill="white" stroke="red" points="3948,-67.5 3948,-97.5 4080,-97.5 4080,-67.5 3948,-67.5"/>
<text text-anchor="start" x="3956" y="-85.5" font-family="Helvetica,sans-Serif" font-size="10.00">src/modules/tcp&#45;notifier</text>
<text text-anchor="middle" x="4014" y="-74.5" font-family="Helvetica,sans-Serif" font-size="10.00">/TcpNotifier.hpp</text>
</a>
</g>
</g>
<!-- Node1&#45;&gt;Node56 -->
<g id="edge45" class="edge">
<title>Node1&#45;&gt;Node56</title>
<path fill="none" stroke="midnightblue" d="M3111.24,-142.82C3276.19,-141.54 3637.19,-134.39 3939,-98 3941.9,-97.65 3944.85,-97.25 3947.83,-96.82"/>
<polygon fill="midnightblue" stroke="midnightblue" points="3111.11,-139.32 3101.14,-142.89 3111.16,-146.32 3111.11,-139.32"/>
</g>
<!-- Node59 -->
<g id="node47" class="node">
<title>Node59</title>
<g id="a_node47"><a xlink:href="../../dc/d15/TestAndResetModule_8hpp.html" target="_top" xlink:title=" ">
<polygon fill="white" stroke="red" points="4098.5,-67.5 4098.5,-97.5 4269.5,-97.5 4269.5,-67.5 4098.5,-67.5"/>
<text text-anchor="start" x="4106.5" y="-85.5" font-family="Helvetica,sans-Serif" font-size="10.00">src/modules/test&#45;and</text>
<text text-anchor="middle" x="4184" y="-74.5" font-family="Helvetica,sans-Serif" font-size="10.00">&#45;reset/TestAndResetModule.hpp</text>
</a>
</g>
</g>
<!-- Node1&#45;&gt;Node59 -->
<g id="edge47" class="edge">
<title>Node1&#45;&gt;Node59</title>
<path fill="none" stroke="midnightblue" d="M3111.44,-142.52C3295.77,-140.81 3728.02,-133.05 4089,-98 4092.07,-97.7 4095.2,-97.37 4098.35,-97.01"/>
<polygon fill="midnightblue" stroke="midnightblue" points="3111.23,-139.02 3101.26,-142.61 3111.29,-146.02 3111.23,-139.02"/>
</g>
<!-- Node62 -->
<g id="node48" class="node">
<title>Node62</title>
<g id="a_node48"><a xlink:href="../../d9/d90/WebSockAPI_8hpp.html" target="_top" xlink:title=" ">
<polygon fill="white" stroke="red" points="4288,-67.5 4288,-97.5 4410,-97.5 4410,-67.5 4288,-67.5"/>
<text text-anchor="start" x="4296" y="-85.5" font-family="Helvetica,sans-Serif" font-size="10.00">src/modules/websock</text>
<text text-anchor="middle" x="4349" y="-74.5" font-family="Helvetica,sans-Serif" font-size="10.00">&#45;api/WebSockAPI.hpp</text>
</a>
</g>
</g>
<!-- Node1&#45;&gt;Node62 -->
<g id="edge48" class="edge">
<title>Node1&#45;&gt;Node62</title>
<path fill="none" stroke="midnightblue" d="M3111.11,-141.75C3359.87,-137.98 4052.69,-125.29 4279,-98 4281.83,-97.66 4284.72,-97.26 4287.64,-96.82"/>
<polygon fill="midnightblue" stroke="midnightblue" points="3110.97,-138.25 3101.02,-141.9 3111.07,-145.25 3110.97,-138.25"/>
</g>
<!-- Node66 -->
<g id="node49" class="node">
<title>Node66</title>
<g id="a_node49"><a xlink:href="../../d0/d6f/wiegand_8hpp.html" target="_top" xlink:title=" ">
<polygon fill="white" stroke="red" points="4428,-67.5 4428,-97.5 4548,-97.5 4548,-67.5 4428,-67.5"/>
<text text-anchor="start" x="4436" y="-85.5" font-family="Helvetica,sans-Serif" font-size="10.00">src/modules/wiegand</text>
<text text-anchor="middle" x="4488" y="-74.5" font-family="Helvetica,sans-Serif" font-size="10.00">/wiegand.hpp</text>
</a>
</g>
</g>
<!-- Node1&#45;&gt;Node66 -->
<g id="edge49" class="edge">
<title>Node1&#45;&gt;Node66</title>
<path fill="none" stroke="midnightblue" d="M3111.22,-142.16C3378.68,-139.34 4164.45,-128.6 4419,-98 4421.92,-97.65 4424.89,-97.24 4427.89,-96.78"/>
<polygon fill="midnightblue" stroke="midnightblue" points="3111.12,-138.66 3101.16,-142.26 3111.2,-145.66 3111.12,-138.66"/>
</g>
<!-- Node69 -->
<g id="node50" class="node">
<title>Node69</title>
<g id="a_node50"><a xlink:href="../../dc/dbe/WebServiceNotifier_8hpp.html" target="_top" xlink:title=" ">
<polygon fill="white" stroke="red" points="4566.5,-67.5 4566.5,-97.5 4699.5,-97.5 4699.5,-67.5 4566.5,-67.5"/>
<text text-anchor="start" x="4574.5" y="-85.5" font-family="Helvetica,sans-Serif" font-size="10.00">src/modules/ws&#45;notifier</text>
<text text-anchor="middle" x="4633" y="-74.5" font-family="Helvetica,sans-Serif" font-size="10.00">/WebServiceNotifier.hpp</text>
</a>
</g>
</g>
<!-- Node1&#45;&gt;Node69 -->
<g id="edge50" class="edge">
<title>Node1&#45;&gt;Node69</title>
<path fill="none" stroke="midnightblue" d="M3111.58,-142.24C3396.81,-139.55 4274.24,-128.92 4557,-98 4560.07,-97.66 4563.2,-97.27 4566.36,-96.84"/>
<polygon fill="midnightblue" stroke="midnightblue" points="3111.25,-138.74 3101.28,-142.34 3111.31,-145.74 3111.25,-138.74"/>
</g>
<!-- Node3 -->
<g id="node3" class="node">
<title>Node3</title>
<g id="a_node3"><a xlink:href="../../d7/d41/AsioModule_8cpp.html" target="_top" xlink:title=" ">
<polygon fill="white" stroke="black" points="0,-6 0,-25 156,-25 156,-6 0,-6"/>
<text text-anchor="middle" x="78" y="-13" font-family="Helvetica,sans-Serif" font-size="10.00">src/modules/AsioModule.cpp</text>
</a>
</g>
</g>
<!-- Node2&#45;&gt;Node3 -->
<g id="edge2" class="edge">
<title>Node2&#45;&gt;Node3</title>
<path fill="none" stroke="midnightblue" d="M325.76,-70.72C267.28,-57.92 170.91,-36.83 117.22,-25.08"/>
<polygon fill="midnightblue" stroke="midnightblue" points="325.35,-74.22 335.87,-72.94 326.85,-67.38 325.35,-74.22"/>
</g>
<!-- Node4 -->
<g id="node4" class="node">
<title>Node4</title>
<g id="a_node4"><a xlink:href="../../d7/d6b/AuthDBModule_8hpp.html" target="_top" xlink:title=" ">
<polygon fill="white" stroke="red" points="174.5,-0.5 174.5,-30.5 303.5,-30.5 303.5,-0.5 174.5,-0.5"/>
<text text-anchor="start" x="182.5" y="-18.5" font-family="Helvetica,sans-Serif" font-size="10.00">src/modules/auth/auth</text>
<text text-anchor="middle" x="239" y="-7.5" font-family="Helvetica,sans-Serif" font-size="10.00">&#45;db/AuthDBModule.hpp</text>
</a>
</g>
</g>
<!-- Node2&#45;&gt;Node4 -->
<g id="edge3" class="edge">
<title>Node2&#45;&gt;Node4</title>
<path fill="none" stroke="midnightblue" d="M347.75,-68.47C324.75,-57.49 291.92,-41.79 268.35,-30.53"/>
<polygon fill="midnightblue" stroke="midnightblue" points="346.41,-71.71 356.94,-72.87 349.43,-65.4 346.41,-71.71"/>
</g>
<!-- Node7 -->
<g id="node5" class="node">
<title>Node7</title>
<g id="a_node5"><a xlink:href="../../d0/db8/NotifdModule_8hpp.html" target="_top" xlink:title=" ">
<polygon fill="white" stroke="red" points="321.5,-0.5 321.5,-30.5 428.5,-30.5 428.5,-0.5 321.5,-0.5"/>
<text text-anchor="start" x="329.5" y="-18.5" font-family="Helvetica,sans-Serif" font-size="10.00">src/modules/notifd</text>
<text text-anchor="middle" x="375" y="-7.5" font-family="Helvetica,sans-Serif" font-size="10.00">/NotifdModule.hpp</text>
</a>
</g>
</g>
<!-- Node2&#45;&gt;Node7 -->
<g id="edge4" class="edge">
<title>Node2&#45;&gt;Node7</title>
<path fill="none" stroke="midnightblue" d="M375,-62.41C375,-52.22 375,-39.9 375,-30.59"/>
<polygon fill="midnightblue" stroke="midnightblue" points="371.5,-62.73 375,-72.73 378.5,-62.73 371.5,-62.73"/>
</g>
<!-- Node10 -->
<g id="node6" class="node">
<title>Node10</title>
<g id="a_node6"><a xlink:href="../../d1/df6/SMTPModule_8hpp.html" target="_top" xlink:title=" ">
<polygon fill="white" stroke="red" points="446.5,-6 446.5,-25 637.5,-25 637.5,-6 446.5,-6"/>
<text text-anchor="middle" x="542" y="-13" font-family="Helvetica,sans-Serif" font-size="10.00">src/modules/smtp/SMTPModule.hpp</text>
</a>
</g>
</g>
<!-- Node2&#45;&gt;Node10 -->
<g id="edge5" class="edge">
<title>Node2&#45;&gt;Node10</title>
<path fill="none" stroke="midnightblue" d="M406.85,-69.1C440.01,-56.2 491.06,-36.33 520,-25.06"/>
<polygon fill="midnightblue" stroke="midnightblue" points="405.23,-65.98 397.18,-72.87 407.76,-72.5 405.23,-65.98"/>
</g>
<!-- Node15 -->
<g id="node8" class="node">
<title>Node15</title>
<g id="a_node8"><a xlink:href="../../d8/d37/AuthFileModule_8cpp.html" target="_top" xlink:title=" ">
<polygon fill="white" stroke="black" points="656,-0.5 656,-30.5 790,-30.5 790,-0.5 656,-0.5"/>
<text text-anchor="start" x="664" y="-18.5" font-family="Helvetica,sans-Serif" font-size="10.00">src/modules/auth/auth</text>
<text text-anchor="middle" x="723" y="-7.5" font-family="Helvetica,sans-Serif" font-size="10.00">&#45;file/AuthFileModule.cpp</text>
</a>
</g>
</g>
<!-- Node14&#45;&gt;Node15 -->
<g id="edge7" class="edge">
<title>Node14&#45;&gt;Node15</title>
<path fill="none" stroke="midnightblue" d="M829.49,-63.27C805.92,-52.92 776.86,-40.15 755.05,-30.58"/>
<polygon fill="midnightblue" stroke="midnightblue" points="828.32,-66.58 838.89,-67.4 831.14,-60.17 828.32,-66.58"/>
</g>
<!-- Node16 -->
<g id="node9" class="node">
<title>Node16</title>
<g id="a_node9"><a xlink:href="../../dc/d32/auth_2auth-file_2init_8cpp.html" target="_top" xlink:title=" ">
<polygon fill="white" stroke="black" points="808.5,-0.5 808.5,-30.5 933.5,-30.5 933.5,-0.5 808.5,-0.5"/>
<text text-anchor="start" x="816.5" y="-18.5" font-family="Helvetica,sans-Serif" font-size="10.00">src/modules/auth/auth</text>
<text text-anchor="middle" x="871" y="-7.5" font-family="Helvetica,sans-Serif" font-size="10.00">&#45;file/init.cpp</text>
</a>
</g>
</g>
<!-- Node14&#45;&gt;Node16 -->
<g id="edge8" class="edge">
<title>Node14&#45;&gt;Node16</title>
<path fill="none" stroke="midnightblue" d="M871,-57.11C871,-48.15 871,-38.32 871,-30.58"/>
<polygon fill="midnightblue" stroke="midnightblue" points="867.5,-57.4 871,-67.4 874.5,-57.4 867.5,-57.4"/>
</g>
<!-- Node19 -->
<g id="node12" class="node">
<title>Node19</title>
<g id="a_node12"><a xlink:href="../../d2/d46/DoormanInstance_8cpp.html" target="_top" xlink:title=" ">
<polygon fill="white" stroke="black" points="952,-0.5 952,-30.5 1078,-30.5 1078,-0.5 952,-0.5"/>
<text text-anchor="start" x="960" y="-18.5" font-family="Helvetica,sans-Serif" font-size="10.00">src/modules/doorman</text>
<text text-anchor="middle" x="1015" y="-7.5" font-family="Helvetica,sans-Serif" font-size="10.00">/DoormanInstance.cpp</text>
</a>
</g>
</g>
<!-- Node18&#45;&gt;Node19 -->
<g id="edge11" class="edge">
<title>Node18&#45;&gt;Node19</title>
<path fill="none" stroke="midnightblue" d="M1226.22,-65.19C1180.04,-54.54 1120.36,-40.78 1076.22,-30.61"/>
<polygon fill="midnightblue" stroke="midnightblue" points="1225.63,-68.64 1236.16,-67.48 1227.2,-61.82 1225.63,-68.64"/>
</g>
<!-- Node20 -->
<g id="node13" class="node">
<title>Node20</title>
<g id="a_node13"><a xlink:href="../../d0/d58/DoormanModule_8cpp.html" target="_top" xlink:title=" ">
<polygon fill="white" stroke="black" points="1096,-0.5 1096,-30.5 1218,-30.5 1218,-0.5 1096,-0.5"/>
<text text-anchor="start" x="1104" y="-18.5" font-family="Helvetica,sans-Serif" font-size="10.00">src/modules/doorman</text>
<text text-anchor="middle" x="1157" y="-7.5" font-family="Helvetica,sans-Serif" font-size="10.00">/DoormanModule.cpp</text>
</a>
</g>
</g>
<!-- Node18&#45;&gt;Node20 -->
<g id="edge12" class="edge">
<title>Node18&#45;&gt;Node20</title>
<path fill="none" stroke="midnightblue" d="M1257.43,-63.13C1235.19,-52.8 1207.85,-40.11 1187.32,-30.58"/>
<polygon fill="midnightblue" stroke="midnightblue" points="1256.08,-66.36 1266.62,-67.4 1259.03,-60.01 1256.08,-66.36"/>
</g>
<!-- Node21 -->
<g id="node14" class="node">
<title>Node21</title>
<g id="a_node14"><a xlink:href="../../d8/d54/doorman_2init_8cpp.html" target="_top" xlink:title=" ">
<polygon fill="white" stroke="black" points="1236,-0.5 1236,-30.5 1358,-30.5 1358,-0.5 1236,-0.5"/>
<text text-anchor="start" x="1244" y="-18.5" font-family="Helvetica,sans-Serif" font-size="10.00">src/modules/doorman</text>
<text text-anchor="middle" x="1297" y="-7.5" font-family="Helvetica,sans-Serif" font-size="10.00">/init.cpp</text>
</a>
</g>
</g>
<!-- Node18&#45;&gt;Node21 -->
<g id="edge13" class="edge">
<title>Node18&#45;&gt;Node21</title>
<path fill="none" stroke="midnightblue" d="M1297,-57.11C1297,-48.15 1297,-38.32 1297,-30.58"/>
<polygon fill="midnightblue" stroke="midnightblue" points="1293.5,-57.4 1297,-67.4 1300.5,-57.4 1293.5,-57.4"/>
</g>
<!-- Node23 -->
<g id="node16" class="node">
<title>Node23</title>
<g id="a_node16"><a xlink:href="../../d5/dca/EventPublish_8cpp.html" target="_top" xlink:title=" ">
<polygon fill="white" stroke="black" points="1376,-0.5 1376,-30.5 1522,-30.5 1522,-0.5 1376,-0.5"/>
<text text-anchor="start" x="1384" y="-18.5" font-family="Helvetica,sans-Serif" font-size="10.00">src/modules/event&#45;publish</text>
<text text-anchor="middle" x="1449" y="-7.5" font-family="Helvetica,sans-Serif" font-size="10.00">/EventPublish.cpp</text>
</a>
</g>
</g>
<!-- Node22&#45;&gt;Node23 -->
<g id="edge15" class="edge">
<title>Node22&#45;&gt;Node23</title>
<path fill="none" stroke="midnightblue" d="M1568.04,-63.68C1541.74,-53.26 1509,-40.28 1484.52,-30.58"/>
<polygon fill="midnightblue" stroke="midnightblue" points="1566.83,-66.97 1577.41,-67.4 1569.41,-60.46 1566.83,-66.97"/>
</g>
<!-- Node24 -->
<g id="node17" class="node">
<title>Node24</title>
<g id="a_node17"><a xlink:href="../../dd/dd8/event-publish_2init_8cpp.html" target="_top" xlink:title=" ">
<polygon fill="white" stroke="black" points="1540,-0.5 1540,-30.5 1686,-30.5 1686,-0.5 1540,-0.5"/>
<text text-anchor="start" x="1548" y="-18.5" font-family="Helvetica,sans-Serif" font-size="10.00">src/modules/event&#45;publish</text>
<text text-anchor="middle" x="1613" y="-7.5" font-family="Helvetica,sans-Serif" font-size="10.00">/init.cpp</text>
</a>
</g>
</g>
<!-- Node22&#45;&gt;Node24 -->
<g id="edge16" class="edge">
<title>Node22&#45;&gt;Node24</title>
<path fill="none" stroke="midnightblue" d="M1613,-57.11C1613,-48.15 1613,-38.32 1613,-30.58"/>
<polygon fill="midnightblue" stroke="midnightblue" points="1609.5,-57.4 1613,-67.4 1616.5,-57.4 1609.5,-57.4"/>
</g>
<!-- Node26 -->
<g id="node19" class="node">
<title>Node26</title>
<g id="a_node19"><a xlink:href="../../d7/ded/instrumentation_2init_8cpp.html" target="_top" xlink:title=" ">
<polygon fill="white" stroke="black" points="1704.5,-0.5 1704.5,-30.5 1861.5,-30.5 1861.5,-0.5 1704.5,-0.5"/>
<text text-anchor="start" x="1712.5" y="-18.5" font-family="Helvetica,sans-Serif" font-size="10.00">src/modules/instrumentation</text>
<text text-anchor="middle" x="1783" y="-7.5" font-family="Helvetica,sans-Serif" font-size="10.00">/init.cpp</text>
</a>
</g>
</g>
<!-- Node25&#45;&gt;Node26 -->
<g id="edge18" class="edge">
<title>Node25&#45;&gt;Node26</title>
<path fill="none" stroke="midnightblue" d="M1910.4,-63.82C1882.27,-53.37 1847.14,-40.32 1820.9,-30.58"/>
<polygon fill="midnightblue" stroke="midnightblue" points="1909.43,-67.2 1920.03,-67.4 1911.87,-60.63 1909.43,-67.2"/>
</g>
<!-- Node27 -->
<g id="node20" class="node">
<title>Node27</title>
<g id="a_node20"><a xlink:href="../../db/d83/InstrumentationModule_8cpp.html" target="_top" xlink:title=" ">
<polygon fill="white" stroke="black" points="1879.5,-0.5 1879.5,-30.5 2036.5,-30.5 2036.5,-0.5 1879.5,-0.5"/>
<text text-anchor="start" x="1887.5" y="-18.5" font-family="Helvetica,sans-Serif" font-size="10.00">src/modules/instrumentation</text>
<text text-anchor="middle" x="1958" y="-7.5" font-family="Helvetica,sans-Serif" font-size="10.00">/InstrumentationModule.cpp</text>
</a>
</g>
</g>
<!-- Node25&#45;&gt;Node27 -->
<g id="edge19" class="edge">
<title>Node25&#45;&gt;Node27</title>
<path fill="none" stroke="midnightblue" d="M1958,-57.11C1958,-48.15 1958,-38.32 1958,-30.58"/>
<polygon fill="midnightblue" stroke="midnightblue" points="1954.5,-57.4 1958,-67.4 1961.5,-57.4 1954.5,-57.4"/>
</g>
<!-- Node29 -->
<g id="node22" class="node">
<title>Node29</title>
<g id="a_node22"><a xlink:href="../../d4/db4/led-buzzer_2init_8cpp.html" target="_top" xlink:title=" ">
<polygon fill="white" stroke="black" points="2055,-0.5 2055,-30.5 2185,-30.5 2185,-0.5 2055,-0.5"/>
<text text-anchor="start" x="2063" y="-18.5" font-family="Helvetica,sans-Serif" font-size="10.00">src/modules/led&#45;buzzer</text>
<text text-anchor="middle" x="2120" y="-7.5" font-family="Helvetica,sans-Serif" font-size="10.00">/init.cpp</text>
</a>
</g>
</g>
<!-- Node28&#45;&gt;Node29 -->
<g id="edge21" class="edge">
<title>Node28&#45;&gt;Node29</title>
<path fill="none" stroke="midnightblue" d="M2274.16,-64.44C2240.28,-53.91 2197.33,-40.55 2165.37,-30.61"/>
<polygon fill="midnightblue" stroke="midnightblue" points="2273.32,-67.85 2283.91,-67.48 2275.4,-61.16 2273.32,-67.85"/>
</g>
<!-- Node30 -->
<g id="node23" class="node">
<title>Node30</title>
<g id="a_node23"><a xlink:href="../../d7/d36/LEDBuzzerModule_8cpp.html" target="_top" xlink:title=" ">
<polygon fill="white" stroke="black" points="2203,-0.5 2203,-30.5 2333,-30.5 2333,-0.5 2203,-0.5"/>
<text text-anchor="start" x="2211" y="-18.5" font-family="Helvetica,sans-Serif" font-size="10.00">src/modules/led&#45;buzzer</text>
<text text-anchor="middle" x="2268" y="-7.5" font-family="Helvetica,sans-Serif" font-size="10.00">/LEDBuzzerModule.cpp</text>
</a>
</g>
</g>
<!-- Node28&#45;&gt;Node30 -->
<g id="edge22" class="edge">
<title>Node28&#45;&gt;Node30</title>
<path fill="none" stroke="midnightblue" d="M2308.85,-60.02C2299.76,-50.34 2289.28,-39.17 2281.21,-30.58"/>
<polygon fill="midnightblue" stroke="midnightblue" points="2306.37,-62.5 2315.76,-67.4 2311.47,-57.71 2306.37,-62.5"/>
</g>
<!-- Node31 -->
<g id="node24" class="node">
<title>Node31</title>
<g id="a_node24"><a xlink:href="../../d9/d21/Led_8cpp.html" target="_top" xlink:title=" ">
<polygon fill="white" stroke="black" points="2351,-6 2351,-25 2427,-25 2427,-6 2351,-6"/>
<text text-anchor="middle" x="2389" y="-13" font-family="Helvetica,sans-Serif" font-size="10.00">test/Led.cpp</text>
</a>
</g>
</g>
<!-- Node28&#45;&gt;Node31 -->
<g id="edge23" class="edge">
<title>Node28&#45;&gt;Node31</title>
<path fill="none" stroke="midnightblue" d="M2348.85,-60C2359.8,-48.13 2372.8,-34.05 2380.97,-25.19"/>
<polygon fill="midnightblue" stroke="midnightblue" points="2346.23,-57.67 2342.02,-67.4 2351.37,-62.42 2346.23,-57.67"/>
</g>
<!-- Node33 -->
<g id="node26" class="node">
<title>Node33</title>
<g id="a_node26"><a xlink:href="../../d9/da6/monitor_2init_8cpp.html" target="_top" xlink:title=" ">
<polygon fill="white" stroke="black" points="2445.5,-0.5 2445.5,-30.5 2562.5,-30.5 2562.5,-0.5 2445.5,-0.5"/>
<text text-anchor="start" x="2453.5" y="-18.5" font-family="Helvetica,sans-Serif" font-size="10.00">src/modules/monitor</text>
<text text-anchor="middle" x="2504" y="-7.5" font-family="Helvetica,sans-Serif" font-size="10.00">/init.cpp</text>
</a>
</g>
</g>
<!-- Node32&#45;&gt;Node33 -->
<g id="edge25" class="edge">
<title>Node32&#45;&gt;Node33</title>
<path fill="none" stroke="midnightblue" d="M2600.56,-62.99C2579.16,-52.69 2552.95,-40.07 2533.24,-30.58"/>
<polygon fill="midnightblue" stroke="midnightblue" points="2599.18,-66.21 2609.71,-67.4 2602.22,-59.9 2599.18,-66.21"/>
</g>
<!-- Node34 -->
<g id="node27" class="node">
<title>Node34</title>
<g id="a_node27"><a xlink:href="../../df/d30/MonitorModule_8cpp.html" target="_top" xlink:title=" ">
<polygon fill="white" stroke="black" points="2580.5,-0.5 2580.5,-30.5 2697.5,-30.5 2697.5,-0.5 2580.5,-0.5"/>
<text text-anchor="start" x="2588.5" y="-18.5" font-family="Helvetica,sans-Serif" font-size="10.00">src/modules/monitor</text>
<text text-anchor="middle" x="2639" y="-7.5" font-family="Helvetica,sans-Serif" font-size="10.00">/MonitorModule.cpp</text>
</a>
</g>
</g>
<!-- Node32&#45;&gt;Node34 -->
<g id="edge26" class="edge">
<title>Node32&#45;&gt;Node34</title>
<path fill="none" stroke="midnightblue" d="M2639,-57.11C2639,-48.15 2639,-38.32 2639,-30.58"/>
<polygon fill="midnightblue" stroke="midnightblue" points="2635.5,-57.4 2639,-67.4 2642.5,-57.4 2635.5,-57.4"/>
</g>
<!-- Node36 -->
<g id="node29" class="node">
<title>Node36</title>
<g id="a_node29"><a xlink:href="../../d6/d6d/pifacedigital_2init_8cpp.html" target="_top" xlink:title=" ">
<polygon fill="white" stroke="black" points="2716,-0.5 2716,-30.5 2856,-30.5 2856,-0.5 2716,-0.5"/>
<text text-anchor="start" x="2724" y="-18.5" font-family="Helvetica,sans-Serif" font-size="10.00">src/modules/pifacedigital</text>
<text text-anchor="middle" x="2786" y="-7.5" font-family="Helvetica,sans-Serif" font-size="10.00">/init.cpp</text>
</a>
</g>
</g>
<!-- Node35&#45;&gt;Node36 -->
<g id="edge28" class="edge">
<title>Node35&#45;&gt;Node36</title>
<path fill="none" stroke="midnightblue" d="M2900.35,-63.54C2875.07,-53.14 2843.7,-40.24 2820.22,-30.58"/>
<polygon fill="midnightblue" stroke="midnightblue" points="2899.14,-66.83 2909.72,-67.4 2901.8,-60.35 2899.14,-66.83"/>
</g>
<!-- Node37 -->
<g id="node30" class="node">
<title>Node37</title>
<g id="a_node30"><a xlink:href="../../d6/d95/PFDigitalModule_8cpp.html" target="_top" xlink:title=" ">
<polygon fill="white" stroke="black" points="2874,-0.5 2874,-30.5 3014,-30.5 3014,-0.5 2874,-0.5"/>
<text text-anchor="start" x="2882" y="-18.5" font-family="Helvetica,sans-Serif" font-size="10.00">src/modules/pifacedigital</text>
<text text-anchor="middle" x="2944" y="-7.5" font-family="Helvetica,sans-Serif" font-size="10.00">/PFDigitalModule.cpp</text>
</a>
</g>
</g>
<!-- Node35&#45;&gt;Node37 -->
<g id="edge29" class="edge">
<title>Node35&#45;&gt;Node37</title>
<path fill="none" stroke="midnightblue" d="M2944,-57.11C2944,-48.15 2944,-38.32 2944,-30.58"/>
<polygon fill="midnightblue" stroke="midnightblue" points="2940.5,-57.4 2944,-67.4 2947.5,-57.4 2940.5,-57.4"/>
</g>
<!-- Node39 -->
<g id="node32" class="node">
<title>Node39</title>
<g id="a_node32"><a xlink:href="../../d5/d63/replication_2init_8cpp.html" target="_top" xlink:title=" ">
<polygon fill="white" stroke="black" points="3032.5,-0.5 3032.5,-30.5 3163.5,-30.5 3163.5,-0.5 3032.5,-0.5"/>
<text text-anchor="start" x="3040.5" y="-18.5" font-family="Helvetica,sans-Serif" font-size="10.00">src/modules/replication</text>
<text text-anchor="middle" x="3098" y="-7.5" font-family="Helvetica,sans-Serif" font-size="10.00">/init.cpp</text>
</a>
</g>
</g>
<!-- Node38&#45;&gt;Node39 -->
<g id="edge31" class="edge">
<title>Node38&#45;&gt;Node39</title>
<path fill="none" stroke="midnightblue" d="M3098,-57.11C3098,-48.15 3098,-38.32 3098,-30.58"/>
<polygon fill="midnightblue" stroke="midnightblue" points="3094.5,-57.4 3098,-67.4 3101.5,-57.4 3094.5,-57.4"/>
</g>
<!-- Node40 -->
<g id="node33" class="node">
<title>Node40</title>
<g id="a_node33"><a xlink:href="../../d2/dac/ReplicationModule_8cpp.html" target="_top" xlink:title=" ">
<polygon fill="white" stroke="black" points="3181.5,-0.5 3181.5,-30.5 3312.5,-30.5 3312.5,-0.5 3181.5,-0.5"/>
<text text-anchor="start" x="3189.5" y="-18.5" font-family="Helvetica,sans-Serif" font-size="10.00">src/modules/replication</text>
<text text-anchor="middle" x="3247" y="-7.5" font-family="Helvetica,sans-Serif" font-size="10.00">/ReplicationModule.cpp</text>
</a>
</g>
</g>
<!-- Node38&#45;&gt;Node40 -->
<g id="edge32" class="edge">
<title>Node38&#45;&gt;Node40</title>
<path fill="none" stroke="midnightblue" d="M3139.79,-63.27C3163.52,-52.92 3192.78,-40.15 3214.73,-30.58"/>
<polygon fill="midnightblue" stroke="midnightblue" points="3138.1,-60.19 3130.33,-67.4 3140.9,-66.61 3138.1,-60.19"/>
</g>
<!-- Node42 -->
<g id="node35" class="node">
<title>Node42</title>
<g id="a_node35"><a xlink:href="../../d1/d31/rpleth_2init_8cpp.html" target="_top" xlink:title="init function for returning a module class to the core">
<polygon fill="white" stroke="black" points="3330.5,-0.5 3330.5,-30.5 3437.5,-30.5 3437.5,-0.5 3330.5,-0.5"/>
<text text-anchor="start" x="3338.5" y="-18.5" font-family="Helvetica,sans-Serif" font-size="10.00">src/modules/rpleth</text>
<text text-anchor="middle" x="3384" y="-7.5" font-family="Helvetica,sans-Serif" font-size="10.00">/init.cpp</text>
</a>
</g>
</g>
<!-- Node41&#45;&gt;Node42 -->
<g id="edge34" class="edge">
<title>Node41&#45;&gt;Node42</title>
<path fill="none" stroke="midnightblue" d="M3422.58,-59.74C3414,-50.12 3404.16,-39.09 3396.56,-30.58"/>
<polygon fill="midnightblue" stroke="midnightblue" points="3420.15,-62.26 3429.41,-67.4 3425.37,-57.6 3420.15,-62.26"/>
</g>
<!-- Node43 -->
<g id="node36" class="node">
<title>Node43</title>
<g id="a_node36"><a xlink:href="../../d8/dba/RplethModule_8cpp.html" target="_top" xlink:title=" ">
<polygon fill="white" stroke="black" points="3455.5,-0.5 3455.5,-30.5 3562.5,-30.5 3562.5,-0.5 3455.5,-0.5"/>
<text text-anchor="start" x="3463.5" y="-18.5" font-family="Helvetica,sans-Serif" font-size="10.00">src/modules/rpleth</text>
<text text-anchor="middle" x="3509" y="-7.5" font-family="Helvetica,sans-Serif" font-size="10.00">/RplethModule.cpp</text>
</a>
</g>
</g>
<!-- Node41&#45;&gt;Node43 -->
<g id="edge35" class="edge">
<title>Node41&#45;&gt;Node43</title>
<path fill="none" stroke="midnightblue" d="M3463.84,-60.31C3473.89,-50.56 3485.54,-39.26 3494.49,-30.58"/>
<polygon fill="midnightblue" stroke="midnightblue" points="3461.28,-57.92 3456.54,-67.4 3466.15,-62.94 3461.28,-57.92"/>
</g>
<!-- Node44 -->
<g id="node37" class="node">
<title>Node44</title>
<g id="a_node37"><a xlink:href="../../db/d44/Rpleth_8cpp.html" target="_top" xlink:title=" ">
<polygon fill="white" stroke="black" points="3581,-6 3581,-25 3671,-25 3671,-6 3581,-6"/>
<text text-anchor="middle" x="3626" y="-13" font-family="Helvetica,sans-Serif" font-size="10.00">test/Rpleth.cpp</text>
</a>
</g>
</g>
<!-- Node41&#45;&gt;Node44 -->
<g id="edge36" class="edge">
<title>Node41&#45;&gt;Node44</title>
<path fill="none" stroke="midnightblue" d="M3491.69,-63.95C3527.43,-51.32 3574.05,-34.85 3601.92,-25.01"/>
<polygon fill="midnightblue" stroke="midnightblue" points="3490.19,-60.76 3481.93,-67.4 3492.52,-67.37 3490.19,-60.76"/>
</g>
<!-- Node46 -->
<g id="node39" class="node">
<title>Node46</title>
<g id="a_node39"><a xlink:href="../../d9/d22/stdin-controller_2init_8cpp.html" target="_top" xlink:title=" ">
<polygon fill="white" stroke="black" points="3689.5,-0.5 3689.5,-30.5 3842.5,-30.5 3842.5,-0.5 3689.5,-0.5"/>
<text text-anchor="start" x="3697.5" y="-18.5" font-family="Helvetica,sans-Serif" font-size="10.00">src/modules/stdin&#45;controller</text>
<text text-anchor="middle" x="3766" y="-7.5" font-family="Helvetica,sans-Serif" font-size="10.00">/init.cpp</text>
</a>
</g>
</g>
<!-- Node45&#45;&gt;Node46 -->
<g id="edge38" class="edge">
<title>Node45&#45;&gt;Node46</title>
<path fill="none" stroke="midnightblue" d="M3726.75,-59.74C3735.48,-50.12 3745.5,-39.09 3753.22,-30.58"/>
<polygon fill="midnightblue" stroke="midnightblue" points="3723.93,-57.64 3719.8,-67.4 3729.11,-62.34 3723.93,-57.64"/>
</g>
<!-- Node47 -->
<g id="node40" class="node">
<title>Node47</title>
<g id="a_node40"><a xlink:href="../../d8/db9/StdinControllerModule_8cpp.html" target="_top" xlink:title=" ">
<polygon fill="white" stroke="black" points="3860.5,-0.5 3860.5,-30.5 4013.5,-30.5 4013.5,-0.5 3860.5,-0.5"/>
<text text-anchor="start" x="3868.5" y="-18.5" font-family="Helvetica,sans-Serif" font-size="10.00">src/modules/stdin&#45;controller</text>
<text text-anchor="middle" x="3937" y="-7.5" font-family="Helvetica,sans-Serif" font-size="10.00">/StdinControllerModule.cpp</text>
</a>
</g>
</g>
<!-- Node45&#45;&gt;Node47 -->
<g id="edge39" class="edge">
<title>Node45&#45;&gt;Node47</title>
<path fill="none" stroke="midnightblue" d="M3766.39,-64.71C3803.82,-54.14 3851.6,-40.63 3887.07,-30.61"/>
<polygon fill="midnightblue" stroke="midnightblue" points="3765.29,-61.39 3756.62,-67.48 3767.2,-68.12 3765.29,-61.39"/>
</g>
<!-- Node49 -->
<g id="node42" class="node">
<title>Node49</title>
<g id="a_node42"><a xlink:href="../../d2/d18/sysfsgpio_2init_8cpp.html" target="_top" xlink:title=" ">
<polygon fill="white" stroke="black" points="4031.5,-0.5 4031.5,-30.5 4156.5,-30.5 4156.5,-0.5 4031.5,-0.5"/>
<text text-anchor="start" x="4039.5" y="-18.5" font-family="Helvetica,sans-Serif" font-size="10.00">src/modules/sysfsgpio</text>
<text text-anchor="middle" x="4094" y="-7.5" font-family="Helvetica,sans-Serif" font-size="10.00">/init.cpp</text>
</a>
</g>
</g>
<!-- Node48&#45;&gt;Node49 -->
<g id="edge41" class="edge">
<title>Node48&#45;&gt;Node49</title>
<path fill="none" stroke="midnightblue" d="M3924.88,-64.71C3961.98,-54.14 4009.34,-40.63 4044.5,-30.61"/>
<polygon fill="midnightblue" stroke="midnightblue" points="3923.85,-61.37 3915.19,-67.48 3925.77,-68.1 3923.85,-61.37"/>
</g>
<!-- Node50 -->
<g id="node43" class="node">
<title>Node50</title>
<g id="a_node43"><a xlink:href="../../d7/def/SysFSGPIOPin_8hpp.html" target="_top" xlink:title=" ">
<polygon fill="white" stroke="red" points="4174.5,-0.5 4174.5,-30.5 4299.5,-30.5 4299.5,-0.5 4174.5,-0.5"/>
<text text-anchor="start" x="4182.5" y="-18.5" font-family="Helvetica,sans-Serif" font-size="10.00">src/modules/sysfsgpio</text>
<text text-anchor="middle" x="4237" y="-7.5" font-family="Helvetica,sans-Serif" font-size="10.00">/SysFSGPIOPin.hpp</text>
</a>
</g>
</g>
<!-- Node48&#45;&gt;Node50 -->
<g id="edge42" class="edge">
<title>Node48&#45;&gt;Node50</title>
<path fill="none" stroke="midnightblue" d="M3937.35,-65.71C4032.36,-49.04 4059.83,-48.62 4157,-31 4162.57,-29.99 4168.38,-28.89 4174.21,-27.75"/>
<polygon fill="midnightblue" stroke="midnightblue" points="3936.55,-62.29 3927.31,-67.48 3937.77,-69.19 3936.55,-62.29"/>
</g>
<!-- Node53 -->
<g id="node44" class="node">
<title>Node53</title>
<g id="a_node44"><a xlink:href="../../da/d77/SysFsGpioModule_8cpp.html" target="_top" xlink:title=" ">
<polygon fill="white" stroke="black" points="4317.5,-0.5 4317.5,-30.5 4444.5,-30.5 4444.5,-0.5 4317.5,-0.5"/>
<text text-anchor="start" x="4325.5" y="-18.5" font-family="Helvetica,sans-Serif" font-size="10.00">src/modules/sysfsgpio</text>
<text text-anchor="middle" x="4381" y="-7.5" font-family="Helvetica,sans-Serif" font-size="10.00">/SysFsGpioModule.cpp</text>
</a>
</g>
</g>
<!-- Node48&#45;&gt;Node53 -->
<g id="edge44" class="edge">
<title>Node48&#45;&gt;Node53</title>
<path fill="none" stroke="midnightblue" d="M3939.99,-66.96C4104.18,-43.35 4148.77,-54.87 4309,-31 4311.77,-30.59 4314.6,-30.14 4317.46,-29.66"/>
<polygon fill="midnightblue" stroke="midnightblue" points="3939.42,-63.5 3930.03,-68.41 3940.43,-70.43 3939.42,-63.5"/>
</g>
<!-- Node50&#45;&gt;Node48 -->
<g id="edge43" class="edge">
<title>Node50&#45;&gt;Node48</title>
<path fill="none" stroke="midnightblue" d="M4167.59,-32.32C4072.68,-49.23 4045.22,-49.64 3948,-67 3942.28,-68.02 3936.31,-69.13 3930.31,-70.27"/>
<polygon fill="midnightblue" stroke="midnightblue" points="4168.39,-35.74 4177.62,-30.52 4167.15,-28.85 4168.39,-35.74"/>
</g>
<!-- Node57 -->
<g id="node46" class="node">
<title>Node57</title>
<g id="a_node46"><a xlink:href="../../dc/d63/tcp-notifier_2init_8cpp.html" target="_top" xlink:title=" ">
<polygon fill="white" stroke="black" points="4463,-0.5 4463,-30.5 4595,-30.5 4595,-0.5 4463,-0.5"/>
<text text-anchor="start" x="4471" y="-18.5" font-family="Helvetica,sans-Serif" font-size="10.00">src/modules/tcp&#45;notifier</text>
<text text-anchor="middle" x="4529" y="-7.5" font-family="Helvetica,sans-Serif" font-size="10.00">/init.cpp</text>
</a>
</g>
</g>
<!-- Node56&#45;&gt;Node57 -->
<g id="edge46" class="edge">
<title>Node56&#45;&gt;Node57</title>
<path fill="none" stroke="midnightblue" d="M4090.6,-67.02C4252.68,-44.17 4296.43,-53.97 4454,-31 4456.89,-30.58 4459.83,-30.12 4462.8,-29.64"/>
<polygon fill="midnightblue" stroke="midnightblue" points="4089.66,-63.61 4080.26,-68.49 4090.65,-70.54 4089.66,-63.61"/>
</g>
</g>
</svg>
        <g id="navigator" transform="translate(0 0)" fill="#404254">
                <rect fill="#f2f5e9" fill-opacity="0.5" stroke="#606060" stroke-width=".5" x="0" y="0" width="60" height="60"/>
                <use id="zoomplus" xlink:href="#zoomPlus" x="17" y="9" onmousedown="handleZoom(evt,'in')"/>
                <use id="zoomminus" xlink:href="#zoomMin" x="42" y="9" onmousedown="handleZoom(evt,'out')"/>
                <use id="reset" xlink:href="#resetDef" x="30" y="36" onmousedown="handleReset()"/>
                <g id="arrowUp" xlink:href="#dirArrow" transform="translate(30 24)" onmousedown="handlePan(0,-1)">
                  <use xlink:href="#rim" fill="#404040">
                        <set attributeName="fill" to="#808080" begin="arrowUp.mouseover" end="arrowUp.mouseout"/>
                  </use>
                  <path fill="none" stroke="white" stroke-width="1.5" d="M0,-3.0v7 M-2.5,-0.5L0,-3.0L2.5,-0.5"/>
                </g>
                <g id="arrowRight" xlink:href="#dirArrow" transform="rotate(90) translate(36 -43)" onmousedown="handlePan(1,0)">
                  <use xlink:href="#rim" fill="#404040">
                        <set attributeName="fill" to="#808080" begin="arrowRight.mouseover" end="arrowRight.mouseout"/>
                  </use>
                  <path fill="none" stroke="white" stroke-width="1.5" d="M0,-3.0v7 M-2.5,-0.5L0,-3.0L2.5,-0.5"/>
                </g>
                <g id="arrowDown" xlink:href="#dirArrow" transform="rotate(180) translate(-30 -48)" onmousedown="handlePan(0,1)">
                  <use xlink:href="#rim" fill="#404040">
                        <set attributeName="fill" to="#808080" begin="arrowDown.mouseover" end="arrowDown.mouseout"/>
                  </use>
                  <path fill="none" stroke="white" stroke-width="1.5" d="M0,-3.0v7 M-2.5,-0.5L0,-3.0L2.5,-0.5"/>
                </g>
                <g id="arrowLeft" xlink:href="#dirArrow" transform="rotate(270) translate(-36 17)" onmousedown="handlePan(-1,0)">
                  <use xlink:href="#rim" fill="#404040">
                        <set attributeName="fill" to="#808080" begin="arrowLeft.mouseover" end="arrowLeft.mouseout"/>
                  </use>
                  <path fill="none" stroke="white" stroke-width="1.5" d="M0,-3.0v7 M-2.5,-0.5L0,-3.0L2.5,-0.5"/>
                </g>
        </g>
        <svg viewBox="0 0 15 15" width="100%" height="30px" preserveAspectRatio="xMaxYMin meet">
         <g id="arrow_out" transform="scale(0.3 0.3)">
          <a xlink:href="BaseModule_8hpp__dep__incl_org.svg" target="_base">
           <rect id="button" ry="5" rx="5" y="6" x="6" height="38" width="38"
                fill="#f2f5e9" fill-opacity="0.5" stroke="#606060" stroke-width="1.0"/>
           <path id="arrow"
             d="M 11.500037,31.436501 C 11.940474,20.09759 22.043105,11.32322 32.158766,21.979434 L 37.068811,17.246167 C 37.068811,17.246167 37.088388,32 37.088388,32 L 22.160133,31.978069 C 22.160133,31.978069 26.997745,27.140456 26.997745,27.140456 C 18.528582,18.264221 13.291696,25.230495 11.500037,31.436501 z"
             style="fill:#404040;"/>
          </a>
         </g>
        </svg>
</svg>
