<?xml version="1.0" encoding="UTF-8" standalone="no"?>
<!DOCTYPE svg PUBLIC "-//W3C//DTD SVG 1.1//EN"
 "http://www.w3.org/Graphics/SVG/1.1/DTD/svg11.dtd">
<!-- Generated by graphviz version 2.43.0 (0)
 -->
<!-- Title: Leosac::Hardware::Device Pages: 1 -->
<!--zoomable 148 -->
<svg id="main" version="1.1" xmlns="http://www.w3.org/2000/svg" xmlns:xlink="http://www.w3.org/1999/xlink" xml:space="preserve" onload="init(evt)">
<style type="text/css"><![CDATA[
.edge:hover path { stroke: red; }
.edge:hover polygon { stroke: red; fill: red; }
]]></style>
<script type="text/javascript"><![CDATA[
var edges = document.getElementsByTagName('g');
if (edges && edges.length) {
  for (var i=0;i<edges.length;i++) {
    if (edges[i].id.substr(0,4)=='edge') {
      edges[i].setAttribute('class','edge');
    }
  }
}
]]></script>
        <defs>
                <circle id="rim" cx="0" cy="0" r="7"/>
                <circle id="rim2" cx="0" cy="0" r="3.5"/>
                <g id="zoomPlus">
                        <use xlink:href="#rim" fill="#404040">
                                <set attributeName="fill" to="#808080" begin="zoomplus.mouseover" end="zoomplus.mouseout"/>
                        </use>
                        <path d="M-4,0h8M0,-4v8" fill="none" stroke="white" stroke-width="1.5" pointer-events="none"/>
                </g>
                <g id="zoomMin">
                        <use xlink:href="#rim" fill="#404040">
                                <set attributeName="fill" to="#808080" begin="zoomminus.mouseover" end="zoomminus.mouseout"/>
                        </use>
                        <path d="M-4,0h8" fill="none" stroke="white" stroke-width="1.5" pointer-events="none"/>
                </g>
                <g id="dirArrow">
                        <path fill="none" stroke="white" stroke-width="1.5" d="M0,-3.0v7 M-2.5,-0.5L0,-3.0L2.5,-0.5"/>
                </g>
               <g id="resetDef">
                       <use xlink:href="#rim2" fill="#404040">
                               <set attributeName="fill" to="#808080" begin="reset.mouseover" end="reset.mouseout"/>
                       </use>
               </g>
        </defs>

<script type="text/javascript">
var viewWidth = 531;
var viewHeight = 148;
var sectionId = 'dynsection-0';
</script>
<script xlink:href="../../svgpan.js"/>
<svg id="graph" class="graph">
<g id="viewport">
<title>Leosac::Hardware::Device</title>
<polygon fill="white" stroke="transparent" points="-4,4 -4,-143.5 527,-143.5 527,4 -4,4"/>
<!-- Node1 -->
<g id="node1" class="node">
<title>Node1</title>
<g id="a_node1"><a xlink:title="Base class for hardware devices.">
<polygon fill="#bfbfbf" stroke="black" points="0,-63 0,-82 143,-82 143,-63 0,-63"/>
<text text-anchor="middle" x="71.5" y="-70" font-family="Helvetica,sans-Serif" font-size="10.00">Leosac::Hardware::Device</text>
</a>
</g>
</g>
<!-- Node2 -->
<g id="node2" class="node">
<title>Node2</title>
<g id="a_node2"><a xlink:href="../../dc/d7a/classLeosac_1_1Hardware_1_1Buzzer.html" target="_top" xlink:title="Abstraction of Buzzer device attributes.">
<polygon fill="white" stroke="black" points="191,-120 191,-139 334,-139 334,-120 191,-120"/>
<text text-anchor="middle" x="262.5" y="-127" font-family="Helvetica,sans-Serif" font-size="10.00">Leosac::Hardware::Buzzer</text>
</a>
</g>
</g>
<!-- Node1&#45;&gt;Node2 -->
<g id="edge1" class="edge">
<title>Node1&#45;&gt;Node2</title>
<path fill="none" stroke="midnightblue" d="M106.12,-85.63C126.92,-93.47 154.28,-103.27 179,-110.5 190.85,-113.97 203.81,-117.2 215.87,-119.99"/>
<polygon fill="midnightblue" stroke="midnightblue" points="107.36,-82.36 96.77,-82.07 104.87,-88.9 107.36,-82.36"/>
</g>
<!-- Node3 -->
<g id="node3" class="node">
<title>Node3</title>
<g id="a_node3"><a xlink:href="../../de/d98/classLeosac_1_1Hardware_1_1GPIO.html" target="_top" xlink:title="Abstraction of a GPIO device attributes.">
<polygon fill="white" stroke="black" points="195.5,-82 195.5,-101 329.5,-101 329.5,-82 195.5,-82"/>
<text text-anchor="middle" x="262.5" y="-89" font-family="Helvetica,sans-Serif" font-size="10.00">Leosac::Hardware::GPIO</text>
</a>
</g>
</g>
<!-- Node1&#45;&gt;Node3 -->
<g id="edge2" class="edge">
<title>Node1&#45;&gt;Node3</title>
<path fill="none" stroke="midnightblue" d="M153.27,-80.62C167.3,-82.03 181.74,-83.48 195.32,-84.85"/>
<polygon fill="midnightblue" stroke="midnightblue" points="153.45,-77.12 143.15,-79.6 152.75,-84.08 153.45,-77.12"/>
</g>
<!-- Node5 -->
<g id="node5" class="node">
<title>Node5</title>
<g id="a_node5"><a xlink:href="../../d3/d64/classLeosac_1_1Hardware_1_1LED.html" target="_top" xlink:title="Abstraction of LED device attributes.">
<polygon fill="white" stroke="black" points="198.5,-44 198.5,-63 326.5,-63 326.5,-44 198.5,-44"/>
<text text-anchor="middle" x="262.5" y="-51" font-family="Helvetica,sans-Serif" font-size="10.00">Leosac::Hardware::LED</text>
</a>
</g>
</g>
<!-- Node1&#45;&gt;Node5 -->
<g id="edge4" class="edge">
<title>Node1&#45;&gt;Node5</title>
<path fill="none" stroke="midnightblue" d="M153.46,-64.36C168.5,-62.85 184,-61.29 198.41,-59.84"/>
<polygon fill="midnightblue" stroke="midnightblue" points="152.75,-60.92 143.15,-65.4 153.45,-67.88 152.75,-60.92"/>
</g>
<!-- Node6 -->
<g id="node6" class="node">
<title>Node6</title>
<g id="a_node6"><a xlink:href="../../d8/d82/classLeosac_1_1Hardware_1_1RFIDReader.html" target="_top" xlink:title="Abstraction of a RFID Reader device.">
<polygon fill="white" stroke="black" points="179,-6 179,-25 346,-25 346,-6 179,-6"/>
<text text-anchor="middle" x="262.5" y="-13" font-family="Helvetica,sans-Serif" font-size="10.00">Leosac::Hardware::RFIDReader</text>
</a>
</g>
</g>
<!-- Node1&#45;&gt;Node6 -->
<g id="edge5" class="edge">
<title>Node1&#45;&gt;Node6</title>
<path fill="none" stroke="midnightblue" d="M106.12,-59.37C126.92,-51.53 154.28,-41.73 179,-34.5 190.85,-31.03 203.81,-27.8 215.87,-25.01"/>
<polygon fill="midnightblue" stroke="midnightblue" points="104.87,-56.1 96.77,-62.93 107.36,-62.64 104.87,-56.1"/>
</g>
<!-- Node4 -->
<g id="node4" class="node">
<title>Node4</title>
<g id="a_node4"><a xlink:href="../../dc/d7f/classLeosac_1_1Module_1_1Piface_1_1PFGPIO.html" target="_top" xlink:title="Piface Module GPIO descriptor.">
<polygon fill="white" stroke="black" points="388.5,-76.5 388.5,-106.5 516.5,-106.5 516.5,-76.5 388.5,-76.5"/>
<text text-anchor="start" x="396.5" y="-94.5" font-family="Helvetica,sans-Serif" font-size="10.00">Leosac::Module::Piface</text>
<text text-anchor="middle" x="452.5" y="-83.5" font-family="Helvetica,sans-Serif" font-size="10.00">::PFGPIO</text>
</a>
</g>
</g>
<!-- Node3&#45;&gt;Node4 -->
<g id="edge3" class="edge">
<title>Node3&#45;&gt;Node4</title>
<path fill="none" stroke="midnightblue" d="M339.52,-91.5C355.78,-91.5 372.78,-91.5 388.48,-91.5"/>
<polygon fill="midnightblue" stroke="midnightblue" points="339.52,-88 329.52,-91.5 339.52,-95 339.52,-88"/>
</g>
<!-- Node7 -->
<g id="node7" class="node">
<title>Node7</title>
<g id="a_node7"><a xlink:href="../../dc/dfa/structLeosac_1_1Module_1_1Wiegand_1_1WiegandReaderConfig.html" target="_top" xlink:title="An instance of this class represents the configuration of one Wiegand reader.">
<polygon fill="white" stroke="black" points="382,-0.5 382,-30.5 523,-30.5 523,-0.5 382,-0.5"/>
<text text-anchor="start" x="390" y="-18.5" font-family="Helvetica,sans-Serif" font-size="10.00">Leosac::Module::Wiegand</text>
<text text-anchor="middle" x="452.5" y="-7.5" font-family="Helvetica,sans-Serif" font-size="10.00">::WiegandReaderConfig</text>
</a>
</g>
</g>
<!-- Node6&#45;&gt;Node7 -->
<g id="edge6" class="edge">
<title>Node6&#45;&gt;Node7</title>
<path fill="none" stroke="midnightblue" d="M356.33,-15.5C364.95,-15.5 373.59,-15.5 381.95,-15.5"/>
<polygon fill="midnightblue" stroke="midnightblue" points="356.23,-12 346.23,-15.5 356.23,-19 356.23,-12"/>
</g>
</g>
</svg>
        <g id="navigator" transform="translate(0 0)" fill="#404254">
                <rect fill="#f2f5e9" fill-opacity="0.5" stroke="#606060" stroke-width=".5" x="0" y="0" width="60" height="60"/>
                <use id="zoomplus" xlink:href="#zoomPlus" x="17" y="9" onmousedown="handleZoom(evt,'in')"/>
                <use id="zoomminus" xlink:href="#zoomMin" x="42" y="9" onmousedown="handleZoom(evt,'out')"/>
                <use id="reset" xlink:href="#resetDef" x="30" y="36" onmousedown="handleReset()"/>
                <g id="arrowUp" xlink:href="#dirArrow" transform="translate(30 24)" onmousedown="handlePan(0,-1)">
                  <use xlink:href="#rim" fill="#404040">
                        <set attributeName="fill" to="#808080" begin="arrowUp.mouseover" end="arrowUp.mouseout"/>
                  </use>
                  <path fill="none" stroke="white" stroke-width="1.5" d="M0,-3.0v7 M-2.5,-0.5L0,-3.0L2.5,-0.5"/>
                </g>
                <g id="arrowRight" xlink:href="#dirArrow" transform="rotate(90) translate(36 -43)" onmousedown="handlePan(1,0)">
                  <use xlink:href="#rim" fill="#404040">
                        <set attributeName="fill" to="#808080" begin="arrowRight.mouseover" end="arrowRight.mouseout"/>
                  </use>
                  <path fill="none" stroke="white" stroke-width="1.5" d="M0,-3.0v7 M-2.5,-0.5L0,-3.0L2.5,-0.5"/>
                </g>
                <g id="arrowDown" xlink:href="#dirArrow" transform="rotate(180) translate(-30 -48)" onmousedown="handlePan(0,1)">
                  <use xlink:href="#rim" fill="#404040">
                        <set attributeName="fill" to="#808080" begin="arrowDown.mouseover" end="arrowDown.mouseout"/>
                  </use>
                  <path fill="none" stroke="white" stroke-width="1.5" d="M0,-3.0v7 M-2.5,-0.5L0,-3.0L2.5,-0.5"/>
                </g>
                <g id="arrowLeft" xlink:href="#dirArrow" transform="rotate(270) translate(-36 17)" onmousedown="handlePan(-1,0)">
                  <use xlink:href="#rim" fill="#404040">
                        <set attributeName="fill" to="#808080" begin="arrowLeft.mouseover" end="arrowLeft.mouseout"/>
                  </use>
                  <path fill="none" stroke="white" stroke-width="1.5" d="M0,-3.0v7 M-2.5,-0.5L0,-3.0L2.5,-0.5"/>
                </g>
        </g>
        <svg viewBox="0 0 15 15" width="100%" height="30px" preserveAspectRatio="xMaxYMin meet">
         <g id="arrow_out" transform="scale(0.3 0.3)">
          <a xlink:href="classLeosac_1_1Hardware_1_1Device__inherit__graph_org.svg" target="_base">
           <rect id="button" ry="5" rx="5" y="6" x="6" height="38" width="38"
                fill="#f2f5e9" fill-opacity="0.5" stroke="#606060" stroke-width="1.0"/>
           <path id="arrow"
             d="M 11.500037,31.436501 C 11.940474,20.09759 22.043105,11.32322 32.158766,21.979434 L 37.068811,17.246167 C 37.068811,17.246167 37.088388,32 37.088388,32 L 22.160133,31.978069 C 22.160133,31.978069 26.997745,27.140456 26.997745,27.140456 C 18.528582,18.264221 13.291696,25.230495 11.500037,31.436501 z"
             style="fill:#404040;"/>
          </a>
         </g>
        </svg>
</svg>
