<?xml version="1.0" encoding="UTF-8" standalone="no"?>
<!DOCTYPE svg PUBLIC "-//W3C//DTD SVG 1.1//EN"
 "http://www.w3.org/Graphics/SVG/1.1/DTD/svg11.dtd">
<!-- Generated by graphviz version 2.43.0 (0)
 -->
<!-- Title: src/core/auth/SimpleAccessProfile.cpp Pages: 1 -->
<!--zoomable 386 -->
<svg id="main" version="1.1" xmlns="http://www.w3.org/2000/svg" xmlns:xlink="http://www.w3.org/1999/xlink" xml:space="preserve" onload="init(evt)">
<style type="text/css"><![CDATA[
.edge:hover path { stroke: red; }
.edge:hover polygon { stroke: red; fill: red; }
]]></style>
<script type="text/javascript"><![CDATA[
var edges = document.getElementsByTagName('g');
if (edges && edges.length) {
  for (var i=0;i<edges.length;i++) {
    if (edges[i].id.substr(0,4)=='edge') {
      edges[i].setAttribute('class','edge');
    }
  }
}
]]></script>
        <defs>
                <circle id="rim" cx="0" cy="0" r="7"/>
                <circle id="rim2" cx="0" cy="0" r="3.5"/>
                <g id="zoomPlus">
                        <use xlink:href="#rim" fill="#404040">
                                <set attributeName="fill" to="#808080" begin="zoomplus.mouseover" end="zoomplus.mouseout"/>
                        </use>
                        <path d="M-4,0h8M0,-4v8" fill="none" stroke="white" stroke-width="1.5" pointer-events="none"/>
                </g>
                <g id="zoomMin">
                        <use xlink:href="#rim" fill="#404040">
                                <set attributeName="fill" to="#808080" begin="zoomminus.mouseover" end="zoomminus.mouseout"/>
                        </use>
                        <path d="M-4,0h8" fill="none" stroke="white" stroke-width="1.5" pointer-events="none"/>
                </g>
                <g id="dirArrow">
                        <path fill="none" stroke="white" stroke-width="1.5" d="M0,-3.0v7 M-2.5,-0.5L0,-3.0L2.5,-0.5"/>
                </g>
               <g id="resetDef">
                       <use xlink:href="#rim2" fill="#404040">
                               <set attributeName="fill" to="#808080" begin="reset.mouseover" end="reset.mouseout"/>
                       </use>
               </g>
        </defs>

<script type="text/javascript">
var viewWidth = 1070;
var viewHeight = 386;
var sectionId = 'dynsection-0';
</script>
<script xlink:href="../../svgpan.js"/>
<svg id="graph" class="graph">
<g id="viewport">
<title>src/core/auth/SimpleAccessProfile.cpp</title>
<polygon fill="white" stroke="transparent" points="-4,4 -4,-382 1065.5,-382 1065.5,4 -4,4"/>
<!-- Node1 -->
<g id="node1" class="node">
<title>Node1</title>
<g id="a_node1"><a xlink:title=" ">
<polygon fill="#bfbfbf" stroke="black" points="726,-347.5 726,-377.5 876,-377.5 876,-347.5 726,-347.5"/>
<text text-anchor="start" x="734" y="-365.5" font-family="Helvetica,sans-Serif" font-size="10.00">src/core/auth/SimpleAccess</text>
<text text-anchor="middle" x="801" y="-354.5" font-family="Helvetica,sans-Serif" font-size="10.00">Profile.cpp</text>
</a>
</g>
</g>
<!-- Node2 -->
<g id="node2" class="node">
<title>Node2</title>
<g id="a_node2"><a xlink:href="../../d9/dfe/SimpleAccessProfile_8hpp.html" target="_top" xlink:title=" ">
<polygon fill="white" stroke="black" points="187,-291.5 187,-310.5 323,-310.5 323,-291.5 187,-291.5"/>
<text text-anchor="middle" x="255" y="-298.5" font-family="Helvetica,sans-Serif" font-size="10.00">SimpleAccessProfile.hpp</text>
</a>
</g>
</g>
<!-- Node1&#45;&gt;Node2 -->
<g id="edge1" class="edge">
<title>Node1&#45;&gt;Node2</title>
<path fill="none" stroke="midnightblue" d="M725.94,-353.32C622.83,-342.08 438.25,-321.97 333.41,-310.54"/>
<polygon fill="midnightblue" stroke="midnightblue" points="333.53,-307.04 323.21,-309.43 332.77,-314 333.53,-307.04"/>
</g>
<!-- Node19 -->
<g id="node19" class="node">
<title>Node19</title>
<g id="a_node19"><a xlink:title=" ">
<polygon fill="white" stroke="#bfbfbf" points="859,-291.5 859,-310.5 915,-310.5 915,-291.5 859,-291.5"/>
<text text-anchor="middle" x="887" y="-298.5" font-family="Helvetica,sans-Serif" font-size="10.00">assert.h</text>
</a>
</g>
</g>
<!-- Node1&#45;&gt;Node19 -->
<g id="edge31" class="edge">
<title>Node1&#45;&gt;Node19</title>
<path fill="none" stroke="midnightblue" d="M821.38,-347.4C834.91,-338.04 852.61,-325.79 866.22,-316.38"/>
<polygon fill="midnightblue" stroke="midnightblue" points="868.25,-319.23 874.49,-310.66 864.27,-313.47 868.25,-319.23"/>
</g>
<!-- Node20 -->
<g id="node20" class="node">
<title>Node20</title>
<g id="a_node20"><a xlink:href="../../d4/d3d/log_8hpp.html" target="_top" xlink:title=" ">
<polygon fill="white" stroke="black" points="761,-291.5 761,-310.5 841,-310.5 841,-291.5 761,-291.5"/>
<text text-anchor="middle" x="801" y="-298.5" font-family="Helvetica,sans-Serif" font-size="10.00">tools/log.hpp</text>
</a>
</g>
</g>
<!-- Node1&#45;&gt;Node20 -->
<g id="edge32" class="edge">
<title>Node1&#45;&gt;Node20</title>
<path fill="none" stroke="midnightblue" d="M801,-347.4C801,-339.47 801,-329.46 801,-320.86"/>
<polygon fill="midnightblue" stroke="midnightblue" points="804.5,-320.66 801,-310.66 797.5,-320.66 804.5,-320.66"/>
</g>
<!-- Node3 -->
<g id="node3" class="node">
<title>Node3</title>
<g id="a_node3"><a xlink:href="../../d3/d6f/AuthFwd_8hpp.html" target="_top" xlink:title=" ">
<polygon fill="white" stroke="black" points="688.5,-56.5 688.5,-75.5 817.5,-75.5 817.5,-56.5 688.5,-56.5"/>
<text text-anchor="middle" x="753" y="-63.5" font-family="Helvetica,sans-Serif" font-size="10.00">core/auth/AuthFwd.hpp</text>
</a>
</g>
</g>
<!-- Node2&#45;&gt;Node3 -->
<g id="edge2" class="edge">
<title>Node2&#45;&gt;Node3</title>
<path fill="none" stroke="midnightblue" d="M273.54,-291.48C314.11,-272.83 413.76,-226.93 497,-188 580.56,-148.92 679.17,-102.12 725.87,-79.91"/>
<polygon fill="midnightblue" stroke="midnightblue" points="727.49,-83.01 735.02,-75.56 724.49,-76.69 727.49,-83.01"/>
</g>
<!-- Node5 -->
<g id="node5" class="node">
<title>Node5</title>
<g id="a_node5"><a xlink:title=" ">
<polygon fill="white" stroke="#bfbfbf" points="243,-0.5 243,-19.5 301,-19.5 301,-0.5 243,-0.5"/>
<text text-anchor="middle" x="272" y="-7.5" font-family="Helvetica,sans-Serif" font-size="10.00">memory</text>
</a>
</g>
</g>
<!-- Node2&#45;&gt;Node5 -->
<g id="edge29" class="edge">
<title>Node2&#45;&gt;Node5</title>
<path fill="none" stroke="midnightblue" d="M187,-296.3C111.46,-288.1 0,-261.94 0,-179 0,-179 0,-179 0,-121 0,-90.2 0.41,-75.8 24,-56 55.05,-29.94 171.06,-18.03 232.79,-13.44"/>
<polygon fill="midnightblue" stroke="midnightblue" points="233.2,-16.92 242.93,-12.71 232.71,-9.94 233.2,-16.92"/>
</g>
<!-- Node7 -->
<g id="node7" class="node">
<title>Node7</title>
<g id="a_node7"><a xlink:href="../../d1/d04/AuthTarget_8hpp.html" target="_top" xlink:title=" ">
<polygon fill="white" stroke="black" points="348.5,-168.5 348.5,-187.5 487.5,-187.5 487.5,-168.5 348.5,-168.5"/>
<text text-anchor="middle" x="418" y="-175.5" font-family="Helvetica,sans-Serif" font-size="10.00">core/auth/AuthTarget.hpp</text>
</a>
</g>
</g>
<!-- Node2&#45;&gt;Node7 -->
<g id="edge6" class="edge">
<title>Node2&#45;&gt;Node7</title>
<path fill="none" stroke="midnightblue" d="M266.46,-291.49C293.87,-271.15 363.47,-219.48 397.98,-193.86"/>
<polygon fill="midnightblue" stroke="midnightblue" points="400.39,-196.43 406.33,-187.66 396.22,-190.81 400.39,-196.43"/>
</g>
<!-- Node9 -->
<g id="node9" class="node">
<title>Node9</title>
<g id="a_node9"><a xlink:title=" ">
<polygon fill="white" stroke="#bfbfbf" points="149,-56.5 149,-75.5 199,-75.5 199,-56.5 149,-56.5"/>
<text text-anchor="middle" x="174" y="-63.5" font-family="Helvetica,sans-Serif" font-size="10.00">chrono</text>
</a>
</g>
</g>
<!-- Node2&#45;&gt;Node9 -->
<g id="edge27" class="edge">
<title>Node2&#45;&gt;Node9</title>
<path fill="none" stroke="midnightblue" d="M198.39,-291.44C157.63,-283.98 107.68,-271.73 95,-255 52.65,-199.09 123.16,-117.12 157.21,-82.91"/>
<polygon fill="midnightblue" stroke="midnightblue" points="159.94,-85.15 164.62,-75.64 155.03,-80.15 159.94,-85.15"/>
</g>
<!-- Node15 -->
<g id="node15" class="node">
<title>Node15</title>
<g id="a_node15"><a xlink:title=" ">
<polygon fill="white" stroke="#bfbfbf" points="33.5,-56.5 33.5,-75.5 80.5,-75.5 80.5,-56.5 33.5,-56.5"/>
<text text-anchor="middle" x="57" y="-63.5" font-family="Helvetica,sans-Serif" font-size="10.00">vector</text>
</a>
</g>
</g>
<!-- Node2&#45;&gt;Node15 -->
<g id="edge30" class="edge">
<title>Node2&#45;&gt;Node15</title>
<path fill="none" stroke="midnightblue" d="M191.54,-291.44C147.39,-284.11 93.9,-272.04 79,-255 36.85,-206.8 46.12,-123.06 52.95,-85.81"/>
<polygon fill="midnightblue" stroke="midnightblue" points="56.42,-86.32 54.93,-75.83 49.55,-84.96 56.42,-86.32"/>
</g>
<!-- Node16 -->
<g id="node16" class="node">
<title>Node16</title>
<g id="a_node16"><a xlink:href="../../d4/d86/IAccessProfile_8hpp.html" target="_top" xlink:title=" ">
<polygon fill="white" stroke="black" points="104,-224.5 104,-254.5 218,-254.5 218,-224.5 104,-224.5"/>
<text text-anchor="start" x="112" y="-242.5" font-family="Helvetica,sans-Serif" font-size="10.00">core/auth/Interfaces</text>
<text text-anchor="middle" x="161" y="-231.5" font-family="Helvetica,sans-Serif" font-size="10.00">/IAccessProfile.hpp</text>
</a>
</g>
</g>
<!-- Node2&#45;&gt;Node16 -->
<g id="edge21" class="edge">
<title>Node2&#45;&gt;Node16</title>
<path fill="none" stroke="midnightblue" d="M241.53,-291.48C228.56,-283.27 208.49,-270.56 191.62,-259.88"/>
<polygon fill="midnightblue" stroke="midnightblue" points="193.48,-256.91 183.15,-254.52 189.73,-262.83 193.48,-256.91"/>
</g>
<!-- Node17 -->
<g id="node17" class="node">
<title>Node17</title>
<g id="a_node17"><a xlink:href="../../df/dfe/SingleTimeFrame_8hpp.html" target="_top" xlink:title=" ">
<polygon fill="white" stroke="black" points="180,-168.5 180,-187.5 330,-187.5 330,-168.5 180,-168.5"/>
<text text-anchor="middle" x="255" y="-175.5" font-family="Helvetica,sans-Serif" font-size="10.00">tools/SingleTimeFrame.hpp</text>
</a>
</g>
</g>
<!-- Node2&#45;&gt;Node17 -->
<g id="edge25" class="edge">
<title>Node2&#45;&gt;Node17</title>
<path fill="none" stroke="midnightblue" d="M262.41,-291.41C269.28,-282.84 279.01,-268.98 283,-255 286.79,-241.75 286.79,-237.25 283,-224 280.1,-213.84 274.17,-203.75 268.51,-195.7"/>
<polygon fill="midnightblue" stroke="midnightblue" points="271.22,-193.48 262.41,-187.59 265.62,-197.69 271.22,-193.48"/>
</g>
<!-- Node18 -->
<g id="node18" class="node">
<title>Node18</title>
<g id="a_node18"><a xlink:title=" ">
<polygon fill="white" stroke="#bfbfbf" points="236,-230 236,-249 274,-249 274,-230 236,-230"/>
<text text-anchor="middle" x="255" y="-237" font-family="Helvetica,sans-Serif" font-size="10.00">map</text>
</a>
</g>
</g>
<!-- Node2&#45;&gt;Node18 -->
<g id="edge28" class="edge">
<title>Node2&#45;&gt;Node18</title>
<path fill="none" stroke="midnightblue" d="M255,-291.48C255,-283.08 255,-269.98 255,-259.16"/>
<polygon fill="midnightblue" stroke="midnightblue" points="258.5,-259.01 255,-249.01 251.5,-259.01 258.5,-259.01"/>
</g>
<!-- Node4 -->
<g id="node4" class="node">
<title>Node4</title>
<g id="a_node4"><a xlink:title=" ">
<polygon fill="white" stroke="#bfbfbf" points="726.5,-0.5 726.5,-19.5 779.5,-19.5 779.5,-0.5 726.5,-0.5"/>
<text text-anchor="middle" x="753" y="-7.5" font-family="Helvetica,sans-Serif" font-size="10.00">cstddef</text>
</a>
</g>
</g>
<!-- Node3&#45;&gt;Node4 -->
<g id="edge3" class="edge">
<title>Node3&#45;&gt;Node4</title>
<path fill="none" stroke="midnightblue" d="M753,-56.08C753,-49.01 753,-38.86 753,-29.99"/>
<polygon fill="midnightblue" stroke="midnightblue" points="756.5,-29.75 753,-19.75 749.5,-29.75 756.5,-29.75"/>
</g>
<!-- Node3&#45;&gt;Node5 -->
<g id="edge4" class="edge">
<title>Node3&#45;&gt;Node5</title>
<path fill="none" stroke="midnightblue" d="M688.43,-57.1C685.24,-56.73 682.09,-56.36 679,-56 544.05,-40.33 383.78,-22.98 311.19,-15.19"/>
<polygon fill="midnightblue" stroke="midnightblue" points="311.45,-11.7 301.13,-14.11 310.7,-18.66 311.45,-11.7"/>
</g>
<!-- Node6 -->
<g id="node6" class="node">
<title>Node6</title>
<g id="a_node6"><a xlink:title=" ">
<polygon fill="white" stroke="#bfbfbf" points="466.5,-0.5 466.5,-19.5 561.5,-19.5 561.5,-0.5 466.5,-0.5"/>
<text text-anchor="middle" x="514" y="-7.5" font-family="Helvetica,sans-Serif" font-size="10.00">odb/lazy&#45;ptr.hxx</text>
</a>
</g>
</g>
<!-- Node3&#45;&gt;Node6 -->
<g id="edge5" class="edge">
<title>Node3&#45;&gt;Node6</title>
<path fill="none" stroke="midnightblue" d="M715.13,-56.44C673.52,-47.04 606.63,-31.93 561.53,-21.74"/>
<polygon fill="midnightblue" stroke="midnightblue" points="562.22,-18.31 551.69,-19.52 560.68,-25.13 562.22,-18.31"/>
</g>
<!-- Node7&#45;&gt;Node5 -->
<g id="edge19" class="edge">
<title>Node7&#45;&gt;Node5</title>
<path fill="none" stroke="midnightblue" d="M408.82,-168.25C400.01,-159.57 386.66,-145.62 377,-132 354.8,-100.69 361.49,-84.69 336,-56 324.97,-43.58 309.87,-32.76 297.1,-24.84"/>
<polygon fill="midnightblue" stroke="midnightblue" points="298.7,-21.71 288.32,-19.6 295.12,-27.73 298.7,-21.71"/>
</g>
<!-- Node8 -->
<g id="node8" class="node">
<title>Node8</title>
<g id="a_node8"><a xlink:href="../../de/df0/FGPIO_8hpp.html" target="_top" xlink:title=" ">
<polygon fill="white" stroke="black" points="386,-112.5 386,-131.5 544,-131.5 544,-112.5 386,-112.5"/>
<text text-anchor="middle" x="465" y="-119.5" font-family="Helvetica,sans-Serif" font-size="10.00">hardware/facades/FGPIO.hpp</text>
</a>
</g>
</g>
<!-- Node7&#45;&gt;Node8 -->
<g id="edge7" class="edge">
<title>Node7&#45;&gt;Node8</title>
<path fill="none" stroke="midnightblue" d="M425.76,-168.08C432.54,-160.3 442.54,-148.8 450.76,-139.37"/>
<polygon fill="midnightblue" stroke="midnightblue" points="453.46,-141.59 457.38,-131.75 448.18,-137 453.46,-141.59"/>
</g>
<!-- Node10 -->
<g id="node10" class="node">
<title>Node10</title>
<g id="a_node10"><a xlink:title=" ">
<polygon fill="white" stroke="#bfbfbf" points="626,-56.5 626,-75.5 670,-75.5 670,-56.5 626,-56.5"/>
<text text-anchor="middle" x="648" y="-63.5" font-family="Helvetica,sans-Serif" font-size="10.00">string</text>
</a>
</g>
</g>
<!-- Node7&#45;&gt;Node10 -->
<g id="edge20" class="edge">
<title>Node7&#45;&gt;Node10</title>
<path fill="none" stroke="midnightblue" d="M452.04,-168.49C479.98,-160.85 520.14,-148.32 553,-132 581.43,-117.88 611.16,-96.26 629.62,-81.88"/>
<polygon fill="midnightblue" stroke="midnightblue" points="631.83,-84.6 637.5,-75.65 627.48,-79.11 631.83,-84.6"/>
</g>
<!-- Node13 -->
<g id="node13" class="node">
<title>Node13</title>
<g id="a_node13"><a xlink:href="../../d6/dab/ISchedule_8hpp.html" target="_top" xlink:title=" ">
<polygon fill="white" stroke="black" points="218,-112.5 218,-131.5 330,-131.5 330,-112.5 218,-112.5"/>
<text text-anchor="middle" x="274" y="-119.5" font-family="Helvetica,sans-Serif" font-size="10.00">tools/ISchedule.hpp</text>
</a>
</g>
</g>
<!-- Node7&#45;&gt;Node13 -->
<g id="edge12" class="edge">
<title>Node7&#45;&gt;Node13</title>
<path fill="none" stroke="midnightblue" d="M395.18,-168.44C371.17,-159.44 333.17,-145.19 306.13,-135.05"/>
<polygon fill="midnightblue" stroke="midnightblue" points="307.3,-131.75 296.71,-131.52 304.84,-138.3 307.3,-131.75"/>
</g>
<!-- Node8&#45;&gt;Node9 -->
<g id="edge8" class="edge">
<title>Node8&#45;&gt;Node9</title>
<path fill="none" stroke="midnightblue" d="M408.07,-112.46C358.06,-104.64 283.13,-92.14 209.15,-76.11"/>
<polygon fill="midnightblue" stroke="midnightblue" points="209.71,-72.65 199.19,-73.93 208.21,-79.48 209.71,-72.65"/>
</g>
<!-- Node8&#45;&gt;Node10 -->
<g id="edge9" class="edge">
<title>Node8&#45;&gt;Node10</title>
<path fill="none" stroke="midnightblue" d="M494,-112.44C527.15,-102.66 581.28,-86.69 615.74,-76.52"/>
<polygon fill="midnightblue" stroke="midnightblue" points="617.16,-79.75 625.76,-73.56 615.18,-73.04 617.16,-79.75"/>
</g>
<!-- Node11 -->
<g id="node11" class="node">
<title>Node11</title>
<g id="a_node11"><a xlink:title=" ">
<polygon fill="white" stroke="#bfbfbf" points="506.5,-56.5 506.5,-75.5 607.5,-75.5 607.5,-56.5 506.5,-56.5"/>
<text text-anchor="middle" x="557" y="-63.5" font-family="Helvetica,sans-Serif" font-size="10.00">zmqpp/poller.hpp</text>
</a>
</g>
</g>
<!-- Node8&#45;&gt;Node11 -->
<g id="edge10" class="edge">
<title>Node8&#45;&gt;Node11</title>
<path fill="none" stroke="midnightblue" d="M479.78,-112.32C494.27,-103.82 516.57,-90.73 533.49,-80.8"/>
<polygon fill="midnightblue" stroke="midnightblue" points="535.4,-83.74 542.26,-75.65 531.86,-77.7 535.4,-83.74"/>
</g>
<!-- Node12 -->
<g id="node12" class="node">
<title>Node12</title>
<g id="a_node12"><a xlink:title=" ">
<polygon fill="white" stroke="#bfbfbf" points="383.5,-56.5 383.5,-75.5 488.5,-75.5 488.5,-56.5 383.5,-56.5"/>
<text text-anchor="middle" x="436" y="-63.5" font-family="Helvetica,sans-Serif" font-size="10.00">zmqpp/socket.hpp</text>
</a>
</g>
</g>
<!-- Node8&#45;&gt;Node12 -->
<g id="edge11" class="edge">
<title>Node8&#45;&gt;Node12</title>
<path fill="none" stroke="midnightblue" d="M460.21,-112.08C456.24,-104.69 450.47,-93.95 445.57,-84.81"/>
<polygon fill="midnightblue" stroke="midnightblue" points="448.51,-82.91 440.7,-75.75 442.35,-86.22 448.51,-82.91"/>
</g>
<!-- Node13&#45;&gt;Node9 -->
<g id="edge16" class="edge">
<title>Node13&#45;&gt;Node9</title>
<path fill="none" stroke="midnightblue" d="M257.93,-112.32C242.04,-103.74 217.49,-90.49 199.04,-80.52"/>
<polygon fill="midnightblue" stroke="midnightblue" points="200.49,-77.33 190.03,-75.65 197.16,-83.49 200.49,-77.33"/>
</g>
<!-- Node13&#45;&gt;Node10 -->
<g id="edge17" class="edge">
<title>Node13&#45;&gt;Node10</title>
<path fill="none" stroke="midnightblue" d="M330.29,-116.26C396.53,-110.1 509.94,-97.71 615.86,-75.96"/>
<polygon fill="midnightblue" stroke="midnightblue" points="616.68,-79.37 625.75,-73.9 615.25,-72.51 616.68,-79.37"/>
</g>
<!-- Node14 -->
<g id="node14" class="node">
<title>Node14</title>
<g id="a_node14"><a xlink:href="../../d8/d97/ToolsFwd_8hpp.html" target="_top" xlink:title=" ">
<polygon fill="white" stroke="black" points="217,-56.5 217,-75.5 327,-75.5 327,-56.5 217,-56.5"/>
<text text-anchor="middle" x="272" y="-63.5" font-family="Helvetica,sans-Serif" font-size="10.00">tools/ToolsFwd.hpp</text>
</a>
</g>
</g>
<!-- Node13&#45;&gt;Node14 -->
<g id="edge13" class="edge">
<title>Node13&#45;&gt;Node14</title>
<path fill="none" stroke="midnightblue" d="M273.67,-112.08C273.41,-105.01 273.03,-94.86 272.7,-85.99"/>
<polygon fill="midnightblue" stroke="midnightblue" points="276.19,-85.61 272.32,-75.75 269.2,-85.87 276.19,-85.61"/>
</g>
<!-- Node13&#45;&gt;Node15 -->
<g id="edge18" class="edge">
<title>Node13&#45;&gt;Node15</title>
<path fill="none" stroke="midnightblue" d="M239.62,-112.44C198.72,-102.27 130.91,-85.39 90.44,-75.32"/>
<polygon fill="midnightblue" stroke="midnightblue" points="91.07,-71.87 80.52,-72.85 89.38,-78.66 91.07,-71.87"/>
</g>
<!-- Node14&#45;&gt;Node5 -->
<g id="edge14" class="edge">
<title>Node14&#45;&gt;Node5</title>
<path fill="none" stroke="midnightblue" d="M272,-56.08C272,-49.01 272,-38.86 272,-29.99"/>
<polygon fill="midnightblue" stroke="midnightblue" points="275.5,-29.75 272,-19.75 268.5,-29.75 275.5,-29.75"/>
</g>
<!-- Node14&#45;&gt;Node6 -->
<g id="edge15" class="edge">
<title>Node14&#45;&gt;Node6</title>
<path fill="none" stroke="midnightblue" d="M310.35,-56.44C352.47,-47.04 420.21,-31.93 465.87,-21.74"/>
<polygon fill="midnightblue" stroke="midnightblue" points="466.84,-25.11 475.83,-19.52 465.31,-18.28 466.84,-25.11"/>
</g>
<!-- Node16&#45;&gt;Node5 -->
<g id="edge24" class="edge">
<title>Node16&#45;&gt;Node5</title>
<path fill="none" stroke="midnightblue" d="M153.34,-224.07C136.92,-190.91 102.69,-108.13 140,-56 160.95,-26.72 202.1,-16.27 232.91,-12.66"/>
<polygon fill="midnightblue" stroke="midnightblue" points="233.31,-16.14 242.92,-11.68 232.62,-9.17 233.31,-16.14"/>
</g>
<!-- Node16&#45;&gt;Node7 -->
<g id="edge22" class="edge">
<title>Node16&#45;&gt;Node7</title>
<path fill="none" stroke="midnightblue" d="M218.04,-225.3C264.04,-214.65 327.95,-199.85 371.03,-189.87"/>
<polygon fill="midnightblue" stroke="midnightblue" points="372.02,-193.24 380.97,-187.57 370.44,-186.42 372.02,-193.24"/>
</g>
<!-- Node16&#45;&gt;Node9 -->
<g id="edge23" class="edge">
<title>Node16&#45;&gt;Node9</title>
<path fill="none" stroke="midnightblue" d="M162.06,-224.47C164.4,-193.7 169.96,-120.33 172.58,-85.7"/>
<polygon fill="midnightblue" stroke="midnightblue" points="176.09,-85.8 173.35,-75.56 169.11,-85.27 176.09,-85.8"/>
</g>
<!-- Node17&#45;&gt;Node9 -->
<g id="edge26" class="edge">
<title>Node17&#45;&gt;Node9</title>
<path fill="none" stroke="midnightblue" d="M244.6,-168.47C234.65,-159.94 219.61,-146.1 209,-132 197.95,-117.31 188.29,-98.68 181.94,-85.13"/>
<polygon fill="midnightblue" stroke="midnightblue" points="185.07,-83.57 177.75,-75.91 178.7,-86.46 185.07,-83.57"/>
</g>
<!-- Node20&#45;&gt;Node10 -->
<g id="edge38" class="edge">
<title>Node20&#45;&gt;Node10</title>
<path fill="none" stroke="midnightblue" d="M760.74,-297.76C730.07,-293.77 689.43,-283.1 667,-255 627.12,-205.05 636.94,-122.23 643.91,-85.51"/>
<polygon fill="midnightblue" stroke="midnightblue" points="647.34,-86.18 645.92,-75.68 640.48,-84.78 647.34,-86.18"/>
</g>
<!-- Node21 -->
<g id="node21" class="node">
<title>Node21</title>
<g id="a_node21"><a xlink:title=" ">
<polygon fill="white" stroke="#bfbfbf" points="940,-230 940,-249 992,-249 992,-230 940,-230"/>
<text text-anchor="middle" x="966" y="-237" font-family="Helvetica,sans-Serif" font-size="10.00">cassert</text>
</a>
</g>
</g>
<!-- Node20&#45;&gt;Node21 -->
<g id="edge33" class="edge">
<title>Node20&#45;&gt;Node21</title>
<path fill="none" stroke="midnightblue" d="M827.06,-291.49C853.43,-282.75 895.28,-268.57 931,-255 932.65,-254.37 934.34,-253.72 936.04,-253.05"/>
<polygon fill="midnightblue" stroke="midnightblue" points="937.76,-256.13 945.72,-249.14 935.14,-249.64 937.76,-256.13"/>
</g>
<!-- Node22 -->
<g id="node22" class="node">
<title>Node22</title>
<g id="a_node22"><a xlink:title=" ">
<polygon fill="white" stroke="#bfbfbf" points="1010.5,-230 1010.5,-249 1061.5,-249 1061.5,-230 1010.5,-230"/>
<text text-anchor="middle" x="1036" y="-237" font-family="Helvetica,sans-Serif" font-size="10.00">csignal</text>
</a>
</g>
</g>
<!-- Node20&#45;&gt;Node22 -->
<g id="edge34" class="edge">
<title>Node20&#45;&gt;Node22</title>
<path fill="none" stroke="midnightblue" d="M841.18,-291.81C890.63,-281.58 971.65,-264.3 1001,-255 1003.14,-254.32 1005.33,-253.57 1007.52,-252.77"/>
<polygon fill="midnightblue" stroke="midnightblue" points="1008.92,-255.98 1016.96,-249.08 1006.38,-249.46 1008.92,-255.98"/>
</g>
<!-- Node23 -->
<g id="node23" class="node">
<title>Node23</title>
<g id="a_node23"><a xlink:title=" ">
<polygon fill="white" stroke="#bfbfbf" points="676,-230 676,-249 736,-249 736,-230 676,-230"/>
<text text-anchor="middle" x="706" y="-237" font-family="Helvetica,sans-Serif" font-size="10.00">iostream</text>
</a>
</g>
</g>
<!-- Node20&#45;&gt;Node23 -->
<g id="edge35" class="edge">
<title>Node20&#45;&gt;Node23</title>
<path fill="none" stroke="midnightblue" d="M787.39,-291.48C771.94,-281.8 746.51,-265.87 728.18,-254.39"/>
<polygon fill="midnightblue" stroke="midnightblue" points="729.92,-251.35 719.59,-249.01 726.2,-257.28 729.92,-251.35"/>
</g>
<!-- Node24 -->
<g id="node24" class="node">
<title>Node24</title>
<g id="a_node24"><a xlink:title=" ">
<polygon fill="white" stroke="#bfbfbf" points="754.5,-230 754.5,-249 847.5,-249 847.5,-230 754.5,-230"/>
<text text-anchor="middle" x="801" y="-237" font-family="Helvetica,sans-Serif" font-size="10.00">spdlog/spdlog.h</text>
</a>
</g>
</g>
<!-- Node20&#45;&gt;Node24 -->
<g id="edge36" class="edge">
<title>Node20&#45;&gt;Node24</title>
<path fill="none" stroke="midnightblue" d="M801,-291.48C801,-283.08 801,-269.98 801,-259.16"/>
<polygon fill="midnightblue" stroke="midnightblue" points="804.5,-259.01 801,-249.01 797.5,-259.01 804.5,-259.01"/>
</g>
<!-- Node25 -->
<g id="node25" class="node">
<title>Node25</title>
<g id="a_node25"><a xlink:title=" ">
<polygon fill="white" stroke="#bfbfbf" points="866,-230 866,-249 922,-249 922,-230 866,-230"/>
<text text-anchor="middle" x="894" y="-237" font-family="Helvetica,sans-Serif" font-size="10.00">sstream</text>
</a>
</g>
</g>
<!-- Node20&#45;&gt;Node25 -->
<g id="edge37" class="edge">
<title>Node20&#45;&gt;Node25</title>
<path fill="none" stroke="midnightblue" d="M814.32,-291.48C829.38,-281.84 854.12,-266.02 872.04,-254.55"/>
<polygon fill="midnightblue" stroke="midnightblue" points="874.16,-257.35 880.7,-249.01 870.39,-251.45 874.16,-257.35"/>
</g>
</g>
</svg>
        <g id="navigator" transform="translate(0 0)" fill="#404254">
                <rect fill="#f2f5e9" fill-opacity="0.5" stroke="#606060" stroke-width=".5" x="0" y="0" width="60" height="60"/>
                <use id="zoomplus" xlink:href="#zoomPlus" x="17" y="9" onmousedown="handleZoom(evt,'in')"/>
                <use id="zoomminus" xlink:href="#zoomMin" x="42" y="9" onmousedown="handleZoom(evt,'out')"/>
                <use id="reset" xlink:href="#resetDef" x="30" y="36" onmousedown="handleReset()"/>
                <g id="arrowUp" xlink:href="#dirArrow" transform="translate(30 24)" onmousedown="handlePan(0,-1)">
                  <use xlink:href="#rim" fill="#404040">
                        <set attributeName="fill" to="#808080" begin="arrowUp.mouseover" end="arrowUp.mouseout"/>
                  </use>
                  <path fill="none" stroke="white" stroke-width="1.5" d="M0,-3.0v7 M-2.5,-0.5L0,-3.0L2.5,-0.5"/>
                </g>
                <g id="arrowRight" xlink:href="#dirArrow" transform="rotate(90) translate(36 -43)" onmousedown="handlePan(1,0)">
                  <use xlink:href="#rim" fill="#404040">
                        <set attributeName="fill" to="#808080" begin="arrowRight.mouseover" end="arrowRight.mouseout"/>
                  </use>
                  <path fill="none" stroke="white" stroke-width="1.5" d="M0,-3.0v7 M-2.5,-0.5L0,-3.0L2.5,-0.5"/>
                </g>
                <g id="arrowDown" xlink:href="#dirArrow" transform="rotate(180) translate(-30 -48)" onmousedown="handlePan(0,1)">
                  <use xlink:href="#rim" fill="#404040">
                        <set attributeName="fill" to="#808080" begin="arrowDown.mouseover" end="arrowDown.mouseout"/>
                  </use>
                  <path fill="none" stroke="white" stroke-width="1.5" d="M0,-3.0v7 M-2.5,-0.5L0,-3.0L2.5,-0.5"/>
                </g>
                <g id="arrowLeft" xlink:href="#dirArrow" transform="rotate(270) translate(-36 17)" onmousedown="handlePan(-1,0)">
                  <use xlink:href="#rim" fill="#404040">
                        <set attributeName="fill" to="#808080" begin="arrowLeft.mouseover" end="arrowLeft.mouseout"/>
                  </use>
                  <path fill="none" stroke="white" stroke-width="1.5" d="M0,-3.0v7 M-2.5,-0.5L0,-3.0L2.5,-0.5"/>
                </g>
        </g>
        <svg viewBox="0 0 15 15" width="100%" height="30px" preserveAspectRatio="xMaxYMin meet">
         <g id="arrow_out" transform="scale(0.3 0.3)">
          <a xlink:href="SimpleAccessProfile_8cpp__incl_org.svg" target="_base">
           <rect id="button" ry="5" rx="5" y="6" x="6" height="38" width="38"
                fill="#f2f5e9" fill-opacity="0.5" stroke="#606060" stroke-width="1.0"/>
           <path id="arrow"
             d="M 11.500037,31.436501 C 11.940474,20.09759 22.043105,11.32322 32.158766,21.979434 L 37.068811,17.246167 C 37.068811,17.246167 37.088388,32 37.088388,32 L 22.160133,31.978069 C 22.160133,31.978069 26.997745,27.140456 26.997745,27.140456 C 18.528582,18.264221 13.291696,25.230495 11.500037,31.436501 z"
             style="fill:#404040;"/>
          </a>
         </g>
        </svg>
</svg>
