<?xml version="1.0" encoding="UTF-8" standalone="no"?>
<!DOCTYPE svg PUBLIC "-//W3C//DTD SVG 1.1//EN"
 "http://www.w3.org/Graphics/SVG/1.1/DTD/svg11.dtd">
<!-- Generated by graphviz version 2.43.0 (0)
 -->
<!-- Title: src/core/kernel.hpp Pages: 1 -->
<svg width="3234pt" height="95pt"
 viewBox="0.00 0.00 3233.50 95.00" xmlns="http://www.w3.org/2000/svg" xmlns:xlink="http://www.w3.org/1999/xlink">
<g id="graph0" class="graph" transform="scale(1 1) rotate(0) translate(4 91)">
<title>src/core/kernel.hpp</title>
<polygon fill="white" stroke="transparent" points="-4,4 -4,-91 3229.5,-91 3229.5,4 -4,4"/>
<!-- Node1 -->
<g id="node1" class="node">
<title>Node1</title>
<g id="a_node1"><a xlink:title=" ">
<polygon fill="#bfbfbf" stroke="black" points="1637,-67.5 1637,-86.5 1746,-86.5 1746,-67.5 1637,-67.5"/>
<text text-anchor="middle" x="1691.5" y="-74.5" font-family="Helvetica,sans-Serif" font-size="10.00">src/core/kernel.hpp</text>
</a>
</g>
</g>
<!-- Node2 -->
<g id="node2" class="node">
<title>Node2</title>
<g id="a_node2"><a xlink:href="../../d6/dff/src_2core_2config_2ConfigManager_8cpp.html" target="_top" xlink:title=" ">
<polygon fill="white" stroke="black" points="0,-6 0,-25 183,-25 183,-6 0,-6"/>
<text text-anchor="middle" x="91.5" y="-13" font-family="Helvetica,sans-Serif" font-size="10.00">src/core/config/ConfigManager.cpp</text>
</a>
</g>
</g>
<!-- Node1&#45;&gt;Node2 -->
<g id="edge1" class="edge">
<title>Node1&#45;&gt;Node2</title>
<path fill="none" stroke="midnightblue" d="M1626.46,-75.02C1376.49,-71.12 477.31,-55.64 192.5,-31 176.35,-29.6 158.84,-27.35 143.01,-25.04"/>
<polygon fill="midnightblue" stroke="midnightblue" points="1626.77,-78.53 1636.83,-75.18 1626.88,-71.53 1626.77,-78.53"/>
</g>
<!-- Node3 -->
<g id="node3" class="node">
<title>Node3</title>
<g id="a_node3"><a xlink:href="../../d3/d1e/CoreAPI_8cpp.html" target="_top" xlink:title=" ">
<polygon fill="white" stroke="black" points="201.5,-6 201.5,-25 317.5,-25 317.5,-6 201.5,-6"/>
<text text-anchor="middle" x="259.5" y="-13" font-family="Helvetica,sans-Serif" font-size="10.00">src/core/CoreAPI.cpp</text>
</a>
</g>
</g>
<!-- Node1&#45;&gt;Node3 -->
<g id="edge2" class="edge">
<title>Node1&#45;&gt;Node3</title>
<path fill="none" stroke="midnightblue" d="M1626.79,-75.41C1391.64,-73.04 582.86,-62.7 326.5,-31 315.63,-29.66 303.92,-27.41 293.38,-25.07"/>
<polygon fill="midnightblue" stroke="midnightblue" points="1626.86,-78.91 1636.89,-75.51 1626.92,-71.91 1626.86,-78.91"/>
</g>
<!-- Node4 -->
<g id="node4" class="node">
<title>Node4</title>
<g id="a_node4"><a xlink:href="../../d4/dd4/CoreUtils_8cpp.html" target="_top" xlink:title=" ">
<polygon fill="white" stroke="black" points="336,-6 336,-25 459,-25 459,-6 336,-6"/>
<text text-anchor="middle" x="397.5" y="-13" font-family="Helvetica,sans-Serif" font-size="10.00">src/core/CoreUtils.cpp</text>
</a>
</g>
</g>
<!-- Node1&#45;&gt;Node4 -->
<g id="edge3" class="edge">
<title>Node1&#45;&gt;Node4</title>
<path fill="none" stroke="midnightblue" d="M1626.66,-75.02C1407.58,-71.51 695.9,-58.22 468.5,-31 457.01,-29.62 444.61,-27.37 433.43,-25.03"/>
<polygon fill="midnightblue" stroke="midnightblue" points="1626.66,-78.52 1636.72,-75.18 1626.78,-71.53 1626.66,-78.52"/>
</g>
<!-- Node5 -->
<g id="node5" class="node">
<title>Node5</title>
<g id="a_node5"><a xlink:href="../../d9/d6a/GetServiceRegistry_8cpp.html" target="_top" xlink:title=" ">
<polygon fill="white" stroke="black" points="477.5,-6 477.5,-25 647.5,-25 647.5,-6 477.5,-6"/>
<text text-anchor="middle" x="562.5" y="-13" font-family="Helvetica,sans-Serif" font-size="10.00">src/core/GetServiceRegistry.cpp</text>
</a>
</g>
</g>
<!-- Node1&#45;&gt;Node5 -->
<g id="edge4" class="edge">
<title>Node1&#45;&gt;Node5</title>
<path fill="none" stroke="midnightblue" d="M1626.57,-75.64C1463.22,-74.22 1022.11,-67.04 656.5,-31 641.71,-29.54 625.7,-27.32 611.16,-25.04"/>
<polygon fill="midnightblue" stroke="midnightblue" points="1626.9,-79.15 1636.93,-75.73 1626.95,-72.15 1626.9,-79.15"/>
</g>
<!-- Node6 -->
<g id="node6" class="node">
<title>Node6</title>
<g id="a_node6"><a xlink:href="../../dd/d24/kernel_8cpp.html" target="_top" xlink:title=" ">
<polygon fill="white" stroke="black" points="665.5,-6 665.5,-25 773.5,-25 773.5,-6 665.5,-6"/>
<text text-anchor="middle" x="719.5" y="-13" font-family="Helvetica,sans-Serif" font-size="10.00">src/core/kernel.cpp</text>
</a>
</g>
</g>
<!-- Node1&#45;&gt;Node6 -->
<g id="edge5" class="edge">
<title>Node1&#45;&gt;Node6</title>
<path fill="none" stroke="midnightblue" d="M1626.51,-76.71C1476.84,-77.48 1096.58,-74.57 782.5,-31 772.38,-29.6 761.5,-27.36 751.67,-25.06"/>
<polygon fill="midnightblue" stroke="midnightblue" points="1626.91,-80.21 1636.88,-76.65 1626.86,-73.21 1626.91,-80.21"/>
</g>
<!-- Node7 -->
<g id="node7" class="node">
<title>Node7</title>
<g id="a_node7"><a xlink:href="../../d9/d4a/module__manager_8cpp.html" target="_top" xlink:title=" ">
<polygon fill="white" stroke="black" points="792,-6 792,-25 955,-25 955,-6 792,-6"/>
<text text-anchor="middle" x="873.5" y="-13" font-family="Helvetica,sans-Serif" font-size="10.00">src/core/module_manager.cpp</text>
</a>
</g>
</g>
<!-- Node1&#45;&gt;Node7 -->
<g id="edge6" class="edge">
<title>Node1&#45;&gt;Node7</title>
<path fill="none" stroke="midnightblue" d="M1626.17,-74.11C1498.51,-69.94 1207.1,-58.09 963.5,-31 949.66,-29.46 934.7,-27.27 921.02,-25.05"/>
<polygon fill="midnightblue" stroke="midnightblue" points="1626.44,-77.62 1636.55,-74.44 1626.66,-70.62 1626.44,-77.62"/>
</g>
<!-- Node8 -->
<g id="node8" class="node">
<title>Node8</title>
<g id="a_node8"><a xlink:href="../../d2/d2a/networkconfig_8cpp.html" target="_top" xlink:title="NetworkConfig class implementation.">
<polygon fill="white" stroke="black" points="973,-0.5 973,-30.5 1082,-30.5 1082,-0.5 973,-0.5"/>
<text text-anchor="start" x="981" y="-18.5" font-family="Helvetica,sans-Serif" font-size="10.00">src/core/netconfig</text>
<text text-anchor="middle" x="1027.5" y="-7.5" font-family="Helvetica,sans-Serif" font-size="10.00">/networkconfig.cpp</text>
</a>
</g>
</g>
<!-- Node1&#45;&gt;Node8 -->
<g id="edge7" class="edge">
<title>Node1&#45;&gt;Node8</title>
<path fill="none" stroke="midnightblue" d="M1626.28,-74.27C1515.71,-70.62 1284.65,-59.96 1091.5,-31 1088.46,-30.54 1085.35,-30.02 1082.21,-29.46"/>
<polygon fill="midnightblue" stroke="midnightblue" points="1626.49,-77.77 1636.6,-74.6 1626.71,-70.78 1626.49,-77.77"/>
</g>
<!-- Node9 -->
<g id="node9" class="node">
<title>Node9</title>
<g id="a_node9"><a xlink:href="../../d4/d28/RemoteControl_8cpp.html" target="_top" xlink:title=" ">
<polygon fill="white" stroke="black" points="1100.5,-6 1100.5,-25 1252.5,-25 1252.5,-6 1100.5,-6"/>
<text text-anchor="middle" x="1176.5" y="-13" font-family="Helvetica,sans-Serif" font-size="10.00">src/core/RemoteControl.cpp</text>
</a>
</g>
</g>
<!-- Node1&#45;&gt;Node9 -->
<g id="edge8" class="edge">
<title>Node1&#45;&gt;Node9</title>
<path fill="none" stroke="midnightblue" d="M1626.53,-70.52C1542.19,-63.1 1390.53,-48.74 1261.5,-31 1249.04,-29.29 1235.61,-27.14 1223.18,-25.02"/>
<polygon fill="midnightblue" stroke="midnightblue" points="1626.45,-74.03 1636.72,-71.41 1627.06,-67.05 1626.45,-74.03"/>
</g>
<!-- Node10 -->
<g id="node10" class="node">
<title>Node10</title>
<g id="a_node10"><a xlink:href="../../df/dca/GetLocalConfigVersion_8cpp.html" target="_top" xlink:title=" ">
<polygon fill="white" stroke="black" points="1271,-0.5 1271,-30.5 1432,-30.5 1432,-0.5 1271,-0.5"/>
<text text-anchor="start" x="1279" y="-18.5" font-family="Helvetica,sans-Serif" font-size="10.00">src/core/tasks/GetLocalConfig</text>
<text text-anchor="middle" x="1351.5" y="-7.5" font-family="Helvetica,sans-Serif" font-size="10.00">Version.cpp</text>
</a>
</g>
</g>
<!-- Node1&#45;&gt;Node10 -->
<g id="edge9" class="edge">
<title>Node1&#45;&gt;Node10</title>
<path fill="none" stroke="midnightblue" d="M1632.75,-65.72C1577.18,-55.99 1493.32,-41.32 1431.63,-30.52"/>
<polygon fill="midnightblue" stroke="midnightblue" points="1632.33,-69.2 1642.79,-67.48 1633.54,-62.3 1632.33,-69.2"/>
</g>
<!-- Node11 -->
<g id="node11" class="node">
<title>Node11</title>
<g id="a_node11"><a xlink:href="../../d7/d6f/GetRemoteConfigVersion_8cpp.html" target="_top" xlink:title=" ">
<polygon fill="white" stroke="black" points="1450,-0.5 1450,-30.5 1593,-30.5 1593,-0.5 1450,-0.5"/>
<text text-anchor="start" x="1458" y="-18.5" font-family="Helvetica,sans-Serif" font-size="10.00">src/core/tasks/GetRemote</text>
<text text-anchor="middle" x="1521.5" y="-7.5" font-family="Helvetica,sans-Serif" font-size="10.00">ConfigVersion.cpp</text>
</a>
</g>
</g>
<!-- Node1&#45;&gt;Node11 -->
<g id="edge10" class="edge">
<title>Node1&#45;&gt;Node11</title>
<path fill="none" stroke="midnightblue" d="M1657.51,-64.1C1629.85,-54.42 1590.75,-40.74 1561.57,-30.52"/>
<polygon fill="midnightblue" stroke="midnightblue" points="1656.55,-67.48 1667.14,-67.48 1658.86,-60.87 1656.55,-67.48"/>
</g>
<!-- Node12 -->
<g id="node12" class="node">
<title>Node12</title>
<g id="a_node12"><a xlink:href="../../d5/d8e/SyncConfig_8cpp.html" target="_top" xlink:title=" ">
<polygon fill="white" stroke="black" points="1611,-6 1611,-25 1772,-25 1772,-6 1611,-6"/>
<text text-anchor="middle" x="1691.5" y="-13" font-family="Helvetica,sans-Serif" font-size="10.00">src/core/tasks/SyncConfig.cpp</text>
</a>
</g>
</g>
<!-- Node1&#45;&gt;Node12 -->
<g id="edge11" class="edge">
<title>Node1&#45;&gt;Node12</title>
<path fill="none" stroke="midnightblue" d="M1691.5,-57.32C1691.5,-46.5 1691.5,-33.4 1691.5,-25.01"/>
<polygon fill="midnightblue" stroke="midnightblue" points="1688,-57.48 1691.5,-67.48 1695,-57.48 1688,-57.48"/>
</g>
<!-- Node13 -->
<g id="node13" class="node">
<title>Node13</title>
<g id="a_node13"><a xlink:href="../../df/d0a/main_8cpp.html" target="_top" xlink:title="standard main">
<polygon fill="white" stroke="black" points="1790,-6 1790,-25 1869,-25 1869,-6 1790,-6"/>
<text text-anchor="middle" x="1829.5" y="-13" font-family="Helvetica,sans-Serif" font-size="10.00">src/main.cpp</text>
</a>
</g>
</g>
<!-- Node1&#45;&gt;Node13 -->
<g id="edge12" class="edge">
<title>Node1&#45;&gt;Node13</title>
<path fill="none" stroke="midnightblue" d="M1720.54,-63.48C1747.34,-51.92 1786.42,-35.08 1809.76,-25.01"/>
<polygon fill="midnightblue" stroke="midnightblue" points="1719.07,-60.3 1711.27,-67.48 1721.84,-66.73 1719.07,-60.3"/>
</g>
<!-- Node14 -->
<g id="node14" class="node">
<title>Node14</title>
<g id="a_node14"><a xlink:href="../../df/dac/AuthDBModule_8cpp.html" target="_top" xlink:title=" ">
<polygon fill="white" stroke="black" points="1887.5,-0.5 1887.5,-30.5 2015.5,-30.5 2015.5,-0.5 1887.5,-0.5"/>
<text text-anchor="start" x="1895.5" y="-18.5" font-family="Helvetica,sans-Serif" font-size="10.00">src/modules/auth/auth</text>
<text text-anchor="middle" x="1951.5" y="-7.5" font-family="Helvetica,sans-Serif" font-size="10.00">&#45;db/AuthDBModule.cpp</text>
</a>
</g>
</g>
<!-- Node1&#45;&gt;Node14 -->
<g id="edge13" class="edge">
<title>Node1&#45;&gt;Node14</title>
<path fill="none" stroke="midnightblue" d="M1738.56,-65.23C1781.05,-55.51 1843.83,-41.14 1890.22,-30.52"/>
<polygon fill="midnightblue" stroke="midnightblue" points="1737.72,-61.83 1728.75,-67.48 1739.28,-68.66 1737.72,-61.83"/>
</g>
<!-- Node15 -->
<g id="node15" class="node">
<title>Node15</title>
<g id="a_node15"><a xlink:href="../../d8/d37/AuthFileModule_8cpp.html" target="_top" xlink:title=" ">
<polygon fill="white" stroke="black" points="2033.5,-0.5 2033.5,-30.5 2167.5,-30.5 2167.5,-0.5 2033.5,-0.5"/>
<text text-anchor="start" x="2041.5" y="-18.5" font-family="Helvetica,sans-Serif" font-size="10.00">src/modules/auth/auth</text>
<text text-anchor="middle" x="2100.5" y="-7.5" font-family="Helvetica,sans-Serif" font-size="10.00">&#45;file/AuthFileModule.cpp</text>
</a>
</g>
</g>
<!-- Node1&#45;&gt;Node15 -->
<g id="edge14" class="edge">
<title>Node1&#45;&gt;Node15</title>
<path fill="none" stroke="midnightblue" d="M1756.16,-68.32C1823.37,-60.08 1931.53,-46.14 2024.5,-31 2027.42,-30.53 2030.39,-30.02 2033.4,-29.51"/>
<polygon fill="midnightblue" stroke="midnightblue" points="1755.65,-64.85 1746.14,-69.54 1756.49,-71.8 1755.65,-64.85"/>
</g>
<!-- Node16 -->
<g id="node16" class="node">
<title>Node16</title>
<g id="a_node16"><a xlink:href="../../d0/d58/DoormanModule_8cpp.html" target="_top" xlink:title=" ">
<polygon fill="white" stroke="black" points="2185.5,-0.5 2185.5,-30.5 2307.5,-30.5 2307.5,-0.5 2185.5,-0.5"/>
<text text-anchor="start" x="2193.5" y="-18.5" font-family="Helvetica,sans-Serif" font-size="10.00">src/modules/doorman</text>
<text text-anchor="middle" x="2246.5" y="-7.5" font-family="Helvetica,sans-Serif" font-size="10.00">/DoormanModule.cpp</text>
</a>
</g>
</g>
<!-- Node1&#45;&gt;Node16 -->
<g id="edge15" class="edge">
<title>Node1&#45;&gt;Node16</title>
<path fill="none" stroke="midnightblue" d="M1756.42,-72.29C1849.73,-66.43 2026.97,-53.35 2176.5,-31 2179.45,-30.56 2182.45,-30.07 2185.49,-29.56"/>
<polygon fill="midnightblue" stroke="midnightblue" points="1756.05,-68.81 1746.29,-72.92 1756.49,-75.79 1756.05,-68.81"/>
</g>
<!-- Node17 -->
<g id="node17" class="node">
<title>Node17</title>
<g id="a_node17"><a xlink:href="../../d7/d36/LEDBuzzerModule_8cpp.html" target="_top" xlink:title=" ">
<polygon fill="white" stroke="black" points="2325.5,-0.5 2325.5,-30.5 2455.5,-30.5 2455.5,-0.5 2325.5,-0.5"/>
<text text-anchor="start" x="2333.5" y="-18.5" font-family="Helvetica,sans-Serif" font-size="10.00">src/modules/led&#45;buzzer</text>
<text text-anchor="middle" x="2390.5" y="-7.5" font-family="Helvetica,sans-Serif" font-size="10.00">/LEDBuzzerModule.cpp</text>
</a>
</g>
</g>
<!-- Node1&#45;&gt;Node17 -->
<g id="edge16" class="edge">
<title>Node1&#45;&gt;Node17</title>
<path fill="none" stroke="midnightblue" d="M1756.34,-73.93C1870.16,-69.72 2113.12,-58.15 2316.5,-31 2319.35,-30.62 2322.27,-30.2 2325.2,-29.74"/>
<polygon fill="midnightblue" stroke="midnightblue" points="1755.93,-70.44 1746.07,-74.3 1756.19,-77.44 1755.93,-70.44"/>
</g>
<!-- Node18 -->
<g id="node18" class="node">
<title>Node18</title>
<g id="a_node18"><a xlink:href="../../db/de7/LibgpiodModule_8cpp.html" target="_top" xlink:title=" ">
<polygon fill="white" stroke="black" points="2473.5,-0.5 2473.5,-30.5 2591.5,-30.5 2591.5,-0.5 2473.5,-0.5"/>
<text text-anchor="start" x="2481.5" y="-18.5" font-family="Helvetica,sans-Serif" font-size="10.00">src/modules/libgpiod</text>
<text text-anchor="middle" x="2532.5" y="-7.5" font-family="Helvetica,sans-Serif" font-size="10.00">/LibgpiodModule.cpp</text>
</a>
</g>
</g>
<!-- Node1&#45;&gt;Node18 -->
<g id="edge17" class="edge">
<title>Node1&#45;&gt;Node18</title>
<path fill="none" stroke="midnightblue" d="M1756.16,-75.55C1889.32,-73.88 2203.52,-66.21 2464.5,-31 2467.37,-30.61 2470.3,-30.17 2473.25,-29.69"/>
<polygon fill="midnightblue" stroke="midnightblue" points="1756.09,-72.05 1746.13,-75.66 1756.17,-79.05 1756.09,-72.05"/>
</g>
<!-- Node19 -->
<g id="node19" class="node">
<title>Node19</title>
<g id="a_node19"><a xlink:href="../../d6/d18/MqttModule_8cpp.html" target="_top" xlink:title=" ">
<polygon fill="white" stroke="black" points="2609.5,-6 2609.5,-25 2793.5,-25 2793.5,-6 2609.5,-6"/>
<text text-anchor="middle" x="2701.5" y="-13" font-family="Helvetica,sans-Serif" font-size="10.00">src/modules/mqtt/MqttModule.cpp</text>
</a>
</g>
</g>
<!-- Node1&#45;&gt;Node19 -->
<g id="edge18" class="edge">
<title>Node1&#45;&gt;Node19</title>
<path fill="none" stroke="midnightblue" d="M1756.55,-74.86C1905.95,-71.78 2285.06,-61.38 2600.5,-31 2616.19,-29.49 2633.18,-27.28 2648.67,-25.03"/>
<polygon fill="midnightblue" stroke="midnightblue" points="1756.12,-71.37 1746.19,-75.07 1756.26,-78.36 1756.12,-71.37"/>
</g>
<!-- Node20 -->
<g id="node20" class="node">
<title>Node20</title>
<g id="a_node20"><a xlink:href="../../da/d77/SysFsGpioModule_8cpp.html" target="_top" xlink:title=" ">
<polygon fill="white" stroke="black" points="2812,-0.5 2812,-30.5 2939,-30.5 2939,-0.5 2812,-0.5"/>
<text text-anchor="start" x="2820" y="-18.5" font-family="Helvetica,sans-Serif" font-size="10.00">src/modules/sysfsgpio</text>
<text text-anchor="middle" x="2875.5" y="-7.5" font-family="Helvetica,sans-Serif" font-size="10.00">/SysFsGpioModule.cpp</text>
</a>
</g>
</g>
<!-- Node1&#45;&gt;Node20 -->
<g id="edge19" class="edge">
<title>Node1&#45;&gt;Node20</title>
<path fill="none" stroke="midnightblue" d="M1756.22,-74.7C1961.7,-70.38 2597.85,-55.32 2802.5,-31 2805.58,-30.63 2808.72,-30.21 2811.89,-29.74"/>
<polygon fill="midnightblue" stroke="midnightblue" points="1756.11,-71.2 1746.18,-74.91 1756.25,-78.2 1756.11,-71.2"/>
</g>
<!-- Node21 -->
<g id="node21" class="node">
<title>Node21</title>
<g id="a_node21"><a xlink:href="../../d9/d8d/APISession_8cpp.html" target="_top" xlink:title=" ">
<polygon fill="white" stroke="black" points="2957.5,-0.5 2957.5,-30.5 3087.5,-30.5 3087.5,-0.5 2957.5,-0.5"/>
<text text-anchor="start" x="2965.5" y="-18.5" font-family="Helvetica,sans-Serif" font-size="10.00">src/modules/websock</text>
<text text-anchor="middle" x="3022.5" y="-7.5" font-family="Helvetica,sans-Serif" font-size="10.00">&#45;api/api/APISession.cpp</text>
</a>
</g>
</g>
<!-- Node1&#45;&gt;Node21 -->
<g id="edge20" class="edge">
<title>Node1&#45;&gt;Node21</title>
<path fill="none" stroke="midnightblue" d="M1756.6,-75.03C1979.93,-71.48 2714.13,-57.99 2948.5,-31 2951.36,-30.67 2954.28,-30.29 2957.22,-29.87"/>
<polygon fill="midnightblue" stroke="midnightblue" points="1756.3,-71.53 1746.35,-75.19 1756.41,-78.53 1756.3,-71.53"/>
</g>
<!-- Node22 -->
<g id="node22" class="node">
<title>Node22</title>
<g id="a_node22"><a xlink:href="../../d3/de8/wiegand_8cpp.html" target="_top" xlink:title=" ">
<polygon fill="white" stroke="black" points="3105.5,-0.5 3105.5,-30.5 3225.5,-30.5 3225.5,-0.5 3105.5,-0.5"/>
<text text-anchor="start" x="3113.5" y="-18.5" font-family="Helvetica,sans-Serif" font-size="10.00">src/modules/wiegand</text>
<text text-anchor="middle" x="3165.5" y="-7.5" font-family="Helvetica,sans-Serif" font-size="10.00">/wiegand.cpp</text>
</a>
</g>
</g>
<!-- Node1&#45;&gt;Node22 -->
<g id="edge21" class="edge">
<title>Node1&#45;&gt;Node22</title>
<path fill="none" stroke="midnightblue" d="M1756.47,-75.43C1996.35,-73.09 2831.93,-62.79 3096.5,-31 3099.42,-30.65 3102.39,-30.24 3105.39,-29.78"/>
<polygon fill="midnightblue" stroke="midnightblue" points="1756.14,-71.93 1746.17,-75.53 1756.2,-78.93 1756.14,-71.93"/>
</g>
</g>
</svg>
