<?xml version="1.0" encoding="UTF-8" standalone="no"?>
<!DOCTYPE svg PUBLIC "-//W3C//DTD SVG 1.1//EN"
 "http://www.w3.org/Graphics/SVG/1.1/DTD/svg11.dtd">
<!-- Generated by graphviz version 2.43.0 (0)
 -->
<!-- Title: src/core/kernel.hpp Pages: 1 -->
<!--zoomable 95 -->
<svg id="main" version="1.1" xmlns="http://www.w3.org/2000/svg" xmlns:xlink="http://www.w3.org/1999/xlink" xml:space="preserve" onload="init(evt)">
<style type="text/css"><![CDATA[
.edge:hover path { stroke: red; }
.edge:hover polygon { stroke: red; fill: red; }
]]></style>
<script type="text/javascript"><![CDATA[
var edges = document.getElementsByTagName('g');
if (edges && edges.length) {
  for (var i=0;i<edges.length;i++) {
    if (edges[i].id.substr(0,4)=='edge') {
      edges[i].setAttribute('class','edge');
    }
  }
}
]]></script>
        <defs>
                <circle id="rim" cx="0" cy="0" r="7"/>
                <circle id="rim2" cx="0" cy="0" r="3.5"/>
                <g id="zoomPlus">
                        <use xlink:href="#rim" fill="#404040">
                                <set attributeName="fill" to="#808080" begin="zoomplus.mouseover" end="zoomplus.mouseout"/>
                        </use>
                        <path d="M-4,0h8M0,-4v8" fill="none" stroke="white" stroke-width="1.5" pointer-events="none"/>
                </g>
                <g id="zoomMin">
                        <use xlink:href="#rim" fill="#404040">
                                <set attributeName="fill" to="#808080" begin="zoomminus.mouseover" end="zoomminus.mouseout"/>
                        </use>
                        <path d="M-4,0h8" fill="none" stroke="white" stroke-width="1.5" pointer-events="none"/>
                </g>
                <g id="dirArrow">
                        <path fill="none" stroke="white" stroke-width="1.5" d="M0,-3.0v7 M-2.5,-0.5L0,-3.0L2.5,-0.5"/>
                </g>
               <g id="resetDef">
                       <use xlink:href="#rim2" fill="#404040">
                               <set attributeName="fill" to="#808080" begin="reset.mouseover" end="reset.mouseout"/>
                       </use>
               </g>
        </defs>

<script type="text/javascript">
var viewWidth = 2896;
var viewHeight = 95;
var sectionId = 'dynsection-1';
</script>
<script xlink:href="../../svgpan.js"/>
<svg id="graph" class="graph">
<g id="viewport">
<title>src/core/kernel.hpp</title>
<polygon fill="white" stroke="transparent" points="-4,4 -4,-91 2891.5,-91 2891.5,4 -4,4"/>
<!-- Node1 -->
<g id="node1" class="node">
<title>Node1</title>
<g id="a_node1"><a xlink:title=" ">
<polygon fill="#bfbfbf" stroke="black" points="1467,-67.5 1467,-86.5 1576,-86.5 1576,-67.5 1467,-67.5"/>
<text text-anchor="middle" x="1521.5" y="-74.5" font-family="Helvetica,sans-Serif" font-size="10.00">src/core/kernel.hpp</text>
</a>
</g>
</g>
<!-- Node2 -->
<g id="node2" class="node">
<title>Node2</title>
<g id="a_node2"><a xlink:href="../../d6/dff/src_2core_2config_2ConfigManager_8cpp.html" target="_top" xlink:title=" ">
<polygon fill="white" stroke="black" points="0,-6 0,-25 183,-25 183,-6 0,-6"/>
<text text-anchor="middle" x="91.5" y="-13" font-family="Helvetica,sans-Serif" font-size="10.00">src/core/config/ConfigManager.cpp</text>
</a>
</g>
</g>
<!-- Node1&#45;&gt;Node2 -->
<g id="edge1" class="edge">
<title>Node1&#45;&gt;Node2</title>
<path fill="none" stroke="midnightblue" d="M1456.69,-76.3C1263.83,-76.65 676.86,-73.84 192.5,-31 176.44,-29.58 159.04,-27.34 143.27,-25.04"/>
<polygon fill="midnightblue" stroke="midnightblue" points="1456.94,-79.8 1466.94,-76.28 1456.93,-72.8 1456.94,-79.8"/>
</g>
<!-- Node3 -->
<g id="node3" class="node">
<title>Node3</title>
<g id="a_node3"><a xlink:href="../../d3/d1e/CoreAPI_8cpp.html" target="_top" xlink:title=" ">
<polygon fill="white" stroke="black" points="201.5,-6 201.5,-25 317.5,-25 317.5,-6 201.5,-6"/>
<text text-anchor="middle" x="259.5" y="-13" font-family="Helvetica,sans-Serif" font-size="10.00">src/core/CoreAPI.cpp</text>
</a>
</g>
</g>
<!-- Node1&#45;&gt;Node3 -->
<g id="edge2" class="edge">
<title>Node1&#45;&gt;Node3</title>
<path fill="none" stroke="midnightblue" d="M1456.71,-75.06C1240.96,-71.69 548.04,-58.92 326.5,-31 315.64,-29.63 303.93,-27.37 293.39,-25.04"/>
<polygon fill="midnightblue" stroke="midnightblue" points="1456.87,-78.56 1466.92,-75.22 1456.98,-71.56 1456.87,-78.56"/>
</g>
<!-- Node4 -->
<g id="node4" class="node">
<title>Node4</title>
<g id="a_node4"><a xlink:href="../../d4/dd4/CoreUtils_8cpp.html" target="_top" xlink:title=" ">
<polygon fill="white" stroke="black" points="336,-6 336,-25 459,-25 459,-6 336,-6"/>
<text text-anchor="middle" x="397.5" y="-13" font-family="Helvetica,sans-Serif" font-size="10.00">src/core/CoreUtils.cpp</text>
</a>
</g>
</g>
<!-- Node1&#45;&gt;Node4 -->
<g id="edge3" class="edge">
<title>Node1&#45;&gt;Node4</title>
<path fill="none" stroke="midnightblue" d="M1456.51,-74.58C1257.96,-70.01 661.2,-54.64 468.5,-31 457.14,-29.61 444.88,-27.37 433.8,-25.07"/>
<polygon fill="midnightblue" stroke="midnightblue" points="1456.7,-78.08 1466.78,-74.81 1456.86,-71.08 1456.7,-78.08"/>
</g>
<!-- Node5 -->
<g id="node5" class="node">
<title>Node5</title>
<g id="a_node5"><a xlink:href="../../d9/d6a/GetServiceRegistry_8cpp.html" target="_top" xlink:title=" ">
<polygon fill="white" stroke="black" points="477.5,-6 477.5,-25 647.5,-25 647.5,-6 477.5,-6"/>
<text text-anchor="middle" x="562.5" y="-13" font-family="Helvetica,sans-Serif" font-size="10.00">src/core/GetServiceRegistry.cpp</text>
</a>
</g>
</g>
<!-- Node1&#45;&gt;Node5 -->
<g id="edge4" class="edge">
<title>Node1&#45;&gt;Node5</title>
<path fill="none" stroke="midnightblue" d="M1456.53,-74.86C1312.26,-71.84 954.39,-61.64 656.5,-31 641.88,-29.5 626.07,-27.29 611.65,-25.04"/>
<polygon fill="midnightblue" stroke="midnightblue" points="1456.88,-78.37 1466.95,-75.07 1457.03,-71.37 1456.88,-78.37"/>
</g>
<!-- Node6 -->
<g id="node6" class="node">
<title>Node6</title>
<g id="a_node6"><a xlink:href="../../dd/d24/kernel_8cpp.html" target="_top" xlink:title=" ">
<polygon fill="white" stroke="black" points="665.5,-6 665.5,-25 773.5,-25 773.5,-6 665.5,-6"/>
<text text-anchor="middle" x="719.5" y="-13" font-family="Helvetica,sans-Serif" font-size="10.00">src/core/kernel.cpp</text>
</a>
</g>
</g>
<!-- Node1&#45;&gt;Node6 -->
<g id="edge5" class="edge">
<title>Node1&#45;&gt;Node6</title>
<path fill="none" stroke="midnightblue" d="M1456.85,-75.65C1327.92,-74.15 1029.91,-66.75 782.5,-31 772.5,-29.56 761.75,-27.33 752,-25.06"/>
<polygon fill="midnightblue" stroke="midnightblue" points="1456.91,-79.15 1466.95,-75.76 1456.99,-72.15 1456.91,-79.15"/>
</g>
<!-- Node7 -->
<g id="node7" class="node">
<title>Node7</title>
<g id="a_node7"><a xlink:href="../../d9/d4a/module__manager_8cpp.html" target="_top" xlink:title=" ">
<polygon fill="white" stroke="black" points="792,-6 792,-25 955,-25 955,-6 792,-6"/>
<text text-anchor="middle" x="873.5" y="-13" font-family="Helvetica,sans-Serif" font-size="10.00">src/core/module_manager.cpp</text>
</a>
</g>
</g>
<!-- Node1&#45;&gt;Node7 -->
<g id="edge6" class="edge">
<title>Node1&#45;&gt;Node7</title>
<path fill="none" stroke="midnightblue" d="M1456.66,-72.44C1352.46,-66.35 1141.39,-52.47 963.5,-31 949.99,-29.37 935.4,-27.2 921.98,-25.03"/>
<polygon fill="midnightblue" stroke="midnightblue" points="1456.52,-75.94 1466.71,-73.03 1456.92,-68.95 1456.52,-75.94"/>
</g>
<!-- Node8 -->
<g id="node8" class="node">
<title>Node8</title>
<g id="a_node8"><a xlink:href="../../d2/d2a/networkconfig_8cpp.html" target="_top" xlink:title="NetworkConfig class implementation.">
<polygon fill="white" stroke="black" points="973,-0.5 973,-30.5 1082,-30.5 1082,-0.5 973,-0.5"/>
<text text-anchor="start" x="981" y="-18.5" font-family="Helvetica,sans-Serif" font-size="10.00">src/core/netconfig</text>
<text text-anchor="middle" x="1027.5" y="-7.5" font-family="Helvetica,sans-Serif" font-size="10.00">/networkconfig.cpp</text>
</a>
</g>
</g>
<!-- Node1&#45;&gt;Node8 -->
<g id="edge7" class="edge">
<title>Node1&#45;&gt;Node8</title>
<path fill="none" stroke="midnightblue" d="M1456.71,-71.63C1372.27,-65.37 1220.18,-52.23 1091.5,-31 1088.47,-30.5 1085.36,-29.94 1082.23,-29.35"/>
<polygon fill="midnightblue" stroke="midnightblue" points="1456.69,-75.13 1466.92,-72.37 1457.2,-68.15 1456.69,-75.13"/>
</g>
<!-- Node9 -->
<g id="node9" class="node">
<title>Node9</title>
<g id="a_node9"><a xlink:href="../../d4/d28/RemoteControl_8cpp.html" target="_top" xlink:title=" ">
<polygon fill="white" stroke="black" points="1100.5,-6 1100.5,-25 1252.5,-25 1252.5,-6 1100.5,-6"/>
<text text-anchor="middle" x="1176.5" y="-13" font-family="Helvetica,sans-Serif" font-size="10.00">src/core/RemoteControl.cpp</text>
</a>
</g>
</g>
<!-- Node1&#45;&gt;Node9 -->
<g id="edge8" class="edge">
<title>Node1&#45;&gt;Node9</title>
<path fill="none" stroke="midnightblue" d="M1462.12,-65.76C1395.36,-54.25 1288.18,-35.76 1225.84,-25.01"/>
<polygon fill="midnightblue" stroke="midnightblue" points="1461.62,-69.22 1472.07,-67.48 1462.81,-62.33 1461.62,-69.22"/>
</g>
<!-- Node10 -->
<g id="node10" class="node">
<title>Node10</title>
<g id="a_node10"><a xlink:href="../../df/dca/GetLocalConfigVersion_8cpp.html" target="_top" xlink:title=" ">
<polygon fill="white" stroke="black" points="1271,-0.5 1271,-30.5 1432,-30.5 1432,-0.5 1271,-0.5"/>
<text text-anchor="start" x="1279" y="-18.5" font-family="Helvetica,sans-Serif" font-size="10.00">src/core/tasks/GetLocalConfig</text>
<text text-anchor="middle" x="1351.5" y="-7.5" font-family="Helvetica,sans-Serif" font-size="10.00">Version.cpp</text>
</a>
</g>
</g>
<!-- Node1&#45;&gt;Node10 -->
<g id="edge9" class="edge">
<title>Node1&#45;&gt;Node10</title>
<path fill="none" stroke="midnightblue" d="M1487.51,-64.1C1459.85,-54.42 1420.75,-40.74 1391.57,-30.52"/>
<polygon fill="midnightblue" stroke="midnightblue" points="1486.55,-67.48 1497.14,-67.48 1488.86,-60.87 1486.55,-67.48"/>
</g>
<!-- Node11 -->
<g id="node11" class="node">
<title>Node11</title>
<g id="a_node11"><a xlink:href="../../d7/d6f/GetRemoteConfigVersion_8cpp.html" target="_top" xlink:title=" ">
<polygon fill="white" stroke="black" points="1450,-0.5 1450,-30.5 1593,-30.5 1593,-0.5 1450,-0.5"/>
<text text-anchor="start" x="1458" y="-18.5" font-family="Helvetica,sans-Serif" font-size="10.00">src/core/tasks/GetRemote</text>
<text text-anchor="middle" x="1521.5" y="-7.5" font-family="Helvetica,sans-Serif" font-size="10.00">ConfigVersion.cpp</text>
</a>
</g>
</g>
<!-- Node1&#45;&gt;Node11 -->
<g id="edge10" class="edge">
<title>Node1&#45;&gt;Node11</title>
<path fill="none" stroke="midnightblue" d="M1521.5,-57.23C1521.5,-48.59 1521.5,-38.5 1521.5,-30.52"/>
<polygon fill="midnightblue" stroke="midnightblue" points="1518,-57.48 1521.5,-67.48 1525,-57.48 1518,-57.48"/>
</g>
<!-- Node12 -->
<g id="node12" class="node">
<title>Node12</title>
<g id="a_node12"><a xlink:href="../../d5/d8e/SyncConfig_8cpp.html" target="_top" xlink:title=" ">
<polygon fill="white" stroke="black" points="1611,-6 1611,-25 1772,-25 1772,-6 1611,-6"/>
<text text-anchor="middle" x="1691.5" y="-13" font-family="Helvetica,sans-Serif" font-size="10.00">src/core/tasks/SyncConfig.cpp</text>
</a>
</g>
</g>
<!-- Node1&#45;&gt;Node12 -->
<g id="edge11" class="edge">
<title>Node1&#45;&gt;Node12</title>
<path fill="none" stroke="midnightblue" d="M1555.55,-64.08C1588.59,-52.52 1637.92,-35.25 1667.19,-25.01"/>
<polygon fill="midnightblue" stroke="midnightblue" points="1554.14,-60.87 1545.86,-67.48 1556.45,-67.48 1554.14,-60.87"/>
</g>
<!-- Node13 -->
<g id="node13" class="node">
<title>Node13</title>
<g id="a_node13"><a xlink:href="../../df/d0a/main_8cpp.html" target="_top" xlink:title="standard main">
<polygon fill="white" stroke="black" points="1790,-6 1790,-25 1869,-25 1869,-6 1790,-6"/>
<text text-anchor="middle" x="1829.5" y="-13" font-family="Helvetica,sans-Serif" font-size="10.00">src/main.cpp</text>
</a>
</g>
</g>
<!-- Node1&#45;&gt;Node13 -->
<g id="edge12" class="edge">
<title>Node1&#45;&gt;Node13</title>
<path fill="none" stroke="midnightblue" d="M1586.09,-67.06C1638.97,-59.21 1715.54,-46.61 1781.5,-31 1788.62,-29.32 1796.23,-27.18 1803.25,-25.06"/>
<polygon fill="midnightblue" stroke="midnightblue" points="1585.56,-63.6 1576.17,-68.52 1586.57,-70.53 1585.56,-63.6"/>
</g>
<!-- Node14 -->
<g id="node14" class="node">
<title>Node14</title>
<g id="a_node14"><a xlink:href="../../df/dac/AuthDBModule_8cpp.html" target="_top" xlink:title=" ">
<polygon fill="white" stroke="black" points="1887.5,-0.5 1887.5,-30.5 2015.5,-30.5 2015.5,-0.5 1887.5,-0.5"/>
<text text-anchor="start" x="1895.5" y="-18.5" font-family="Helvetica,sans-Serif" font-size="10.00">src/modules/auth/auth</text>
<text text-anchor="middle" x="1951.5" y="-7.5" font-family="Helvetica,sans-Serif" font-size="10.00">&#45;db/AuthDBModule.cpp</text>
</a>
</g>
</g>
<!-- Node1&#45;&gt;Node14 -->
<g id="edge13" class="edge">
<title>Node1&#45;&gt;Node14</title>
<path fill="none" stroke="midnightblue" d="M1586.33,-69.22C1658.02,-61.4 1776.82,-47.49 1878.5,-31 1881.43,-30.52 1884.43,-30.02 1887.45,-29.49"/>
<polygon fill="midnightblue" stroke="midnightblue" points="1585.67,-65.77 1576.11,-70.33 1586.42,-72.73 1585.67,-65.77"/>
</g>
<!-- Node15 -->
<g id="node15" class="node">
<title>Node15</title>
<g id="a_node15"><a xlink:href="../../d8/d37/AuthFileModule_8cpp.html" target="_top" xlink:title=" ">
<polygon fill="white" stroke="black" points="2033.5,-0.5 2033.5,-30.5 2167.5,-30.5 2167.5,-0.5 2033.5,-0.5"/>
<text text-anchor="start" x="2041.5" y="-18.5" font-family="Helvetica,sans-Serif" font-size="10.00">src/modules/auth/auth</text>
<text text-anchor="middle" x="2100.5" y="-7.5" font-family="Helvetica,sans-Serif" font-size="10.00">&#45;file/AuthFileModule.cpp</text>
</a>
</g>
</g>
<!-- Node1&#45;&gt;Node15 -->
<g id="edge14" class="edge">
<title>Node1&#45;&gt;Node15</title>
<path fill="none" stroke="midnightblue" d="M1586.17,-72.28C1682.15,-66.28 1867.83,-52.9 2024.5,-31 2027.43,-30.59 2030.41,-30.15 2033.42,-29.67"/>
<polygon fill="midnightblue" stroke="midnightblue" points="1585.8,-68.79 1576.04,-72.9 1586.24,-75.78 1585.8,-68.79"/>
</g>
<!-- Node16 -->
<g id="node16" class="node">
<title>Node16</title>
<g id="a_node16"><a xlink:href="../../d0/d58/DoormanModule_8cpp.html" target="_top" xlink:title=" ">
<polygon fill="white" stroke="black" points="2185.5,-0.5 2185.5,-30.5 2307.5,-30.5 2307.5,-0.5 2185.5,-0.5"/>
<text text-anchor="start" x="2193.5" y="-18.5" font-family="Helvetica,sans-Serif" font-size="10.00">src/modules/doorman</text>
<text text-anchor="middle" x="2246.5" y="-7.5" font-family="Helvetica,sans-Serif" font-size="10.00">/DoormanModule.cpp</text>
</a>
</g>
</g>
<!-- Node1&#45;&gt;Node16 -->
<g id="edge15" class="edge">
<title>Node1&#45;&gt;Node16</title>
<path fill="none" stroke="midnightblue" d="M1586.4,-74.46C1704.37,-71 1961.65,-60.49 2176.5,-31 2179.33,-30.61 2182.21,-30.18 2185.12,-29.71"/>
<polygon fill="midnightblue" stroke="midnightblue" points="1586,-70.97 1576.1,-74.75 1586.2,-77.96 1586,-70.97"/>
</g>
<!-- Node17 -->
<g id="node17" class="node">
<title>Node17</title>
<g id="a_node17"><a xlink:href="../../d7/d36/LEDBuzzerModule_8cpp.html" target="_top" xlink:title=" ">
<polygon fill="white" stroke="black" points="2325.5,-0.5 2325.5,-30.5 2455.5,-30.5 2455.5,-0.5 2325.5,-0.5"/>
<text text-anchor="start" x="2333.5" y="-18.5" font-family="Helvetica,sans-Serif" font-size="10.00">src/modules/led&#45;buzzer</text>
<text text-anchor="middle" x="2390.5" y="-7.5" font-family="Helvetica,sans-Serif" font-size="10.00">/LEDBuzzerModule.cpp</text>
</a>
</g>
</g>
<!-- Node1&#45;&gt;Node17 -->
<g id="edge16" class="edge">
<title>Node1&#45;&gt;Node17</title>
<path fill="none" stroke="midnightblue" d="M1586.43,-75.33C1722.4,-73.27 2046.8,-64.89 2316.5,-31 2319.36,-30.64 2322.27,-30.24 2325.21,-29.8"/>
<polygon fill="midnightblue" stroke="midnightblue" points="1586.14,-71.83 1576.19,-75.48 1586.24,-78.83 1586.14,-71.83"/>
</g>
<!-- Node18 -->
<g id="node18" class="node">
<title>Node18</title>
<g id="a_node18"><a xlink:href="../../da/d77/SysFsGpioModule_8cpp.html" target="_top" xlink:title=" ">
<polygon fill="white" stroke="black" points="2474,-0.5 2474,-30.5 2601,-30.5 2601,-0.5 2474,-0.5"/>
<text text-anchor="start" x="2482" y="-18.5" font-family="Helvetica,sans-Serif" font-size="10.00">src/modules/sysfsgpio</text>
<text text-anchor="middle" x="2537.5" y="-7.5" font-family="Helvetica,sans-Serif" font-size="10.00">/SysFsGpioModule.cpp</text>
</a>
</g>
</g>
<!-- Node1&#45;&gt;Node18 -->
<g id="edge17" class="edge">
<title>Node1&#45;&gt;Node18</title>
<path fill="none" stroke="midnightblue" d="M1586.4,-76.21C1739.75,-75.99 2136.3,-71.2 2464.5,-31 2467.58,-30.62 2470.72,-30.19 2473.89,-29.71"/>
<polygon fill="midnightblue" stroke="midnightblue" points="1586.22,-72.71 1576.22,-76.22 1586.22,-79.71 1586.22,-72.71"/>
</g>
<!-- Node19 -->
<g id="node19" class="node">
<title>Node19</title>
<g id="a_node19"><a xlink:href="../../d9/d8d/APISession_8cpp.html" target="_top" xlink:title=" ">
<polygon fill="white" stroke="black" points="2619.5,-0.5 2619.5,-30.5 2749.5,-30.5 2749.5,-0.5 2619.5,-0.5"/>
<text text-anchor="start" x="2627.5" y="-18.5" font-family="Helvetica,sans-Serif" font-size="10.00">src/modules/websock</text>
<text text-anchor="middle" x="2684.5" y="-7.5" font-family="Helvetica,sans-Serif" font-size="10.00">&#45;api/api/APISession.cpp</text>
</a>
</g>
</g>
<!-- Node1&#45;&gt;Node19 -->
<g id="edge18" class="edge">
<title>Node1&#45;&gt;Node19</title>
<path fill="none" stroke="midnightblue" d="M1586.28,-74.62C1789.11,-70.09 2410.32,-54.61 2610.5,-31 2613.36,-30.66 2616.28,-30.28 2619.22,-29.85"/>
<polygon fill="midnightblue" stroke="midnightblue" points="1586.01,-71.12 1576.09,-74.84 1586.16,-78.12 1586.01,-71.12"/>
</g>
<!-- Node20 -->
<g id="node20" class="node">
<title>Node20</title>
<g id="a_node20"><a xlink:href="../../d3/de8/wiegand_8cpp.html" target="_top" xlink:title=" ">
<polygon fill="white" stroke="black" points="2767.5,-0.5 2767.5,-30.5 2887.5,-30.5 2887.5,-0.5 2767.5,-0.5"/>
<text text-anchor="start" x="2775.5" y="-18.5" font-family="Helvetica,sans-Serif" font-size="10.00">src/modules/wiegand</text>
<text text-anchor="middle" x="2827.5" y="-7.5" font-family="Helvetica,sans-Serif" font-size="10.00">/wiegand.cpp</text>
</a>
</g>
</g>
<!-- Node1&#45;&gt;Node20 -->
<g id="edge19" class="edge">
<title>Node1&#45;&gt;Node20</title>
<path fill="none" stroke="midnightblue" d="M1586.33,-75.1C1807.05,-71.82 2528.31,-59.16 2758.5,-31 2761.42,-30.64 2764.39,-30.23 2767.39,-29.76"/>
<polygon fill="midnightblue" stroke="midnightblue" points="1586.15,-71.61 1576.2,-75.25 1586.25,-78.61 1586.15,-71.61"/>
</g>
</g>
</svg>
        <g id="navigator" transform="translate(0 0)" fill="#404254">
                <rect fill="#f2f5e9" fill-opacity="0.5" stroke="#606060" stroke-width=".5" x="0" y="0" width="60" height="60"/>
                <use id="zoomplus" xlink:href="#zoomPlus" x="17" y="9" onmousedown="handleZoom(evt,'in')"/>
                <use id="zoomminus" xlink:href="#zoomMin" x="42" y="9" onmousedown="handleZoom(evt,'out')"/>
                <use id="reset" xlink:href="#resetDef" x="30" y="36" onmousedown="handleReset()"/>
                <g id="arrowUp" xlink:href="#dirArrow" transform="translate(30 24)" onmousedown="handlePan(0,-1)">
                  <use xlink:href="#rim" fill="#404040">
                        <set attributeName="fill" to="#808080" begin="arrowUp.mouseover" end="arrowUp.mouseout"/>
                  </use>
                  <path fill="none" stroke="white" stroke-width="1.5" d="M0,-3.0v7 M-2.5,-0.5L0,-3.0L2.5,-0.5"/>
                </g>
                <g id="arrowRight" xlink:href="#dirArrow" transform="rotate(90) translate(36 -43)" onmousedown="handlePan(1,0)">
                  <use xlink:href="#rim" fill="#404040">
                        <set attributeName="fill" to="#808080" begin="arrowRight.mouseover" end="arrowRight.mouseout"/>
                  </use>
                  <path fill="none" stroke="white" stroke-width="1.5" d="M0,-3.0v7 M-2.5,-0.5L0,-3.0L2.5,-0.5"/>
                </g>
                <g id="arrowDown" xlink:href="#dirArrow" transform="rotate(180) translate(-30 -48)" onmousedown="handlePan(0,1)">
                  <use xlink:href="#rim" fill="#404040">
                        <set attributeName="fill" to="#808080" begin="arrowDown.mouseover" end="arrowDown.mouseout"/>
                  </use>
                  <path fill="none" stroke="white" stroke-width="1.5" d="M0,-3.0v7 M-2.5,-0.5L0,-3.0L2.5,-0.5"/>
                </g>
                <g id="arrowLeft" xlink:href="#dirArrow" transform="rotate(270) translate(-36 17)" onmousedown="handlePan(-1,0)">
                  <use xlink:href="#rim" fill="#404040">
                        <set attributeName="fill" to="#808080" begin="arrowLeft.mouseover" end="arrowLeft.mouseout"/>
                  </use>
                  <path fill="none" stroke="white" stroke-width="1.5" d="M0,-3.0v7 M-2.5,-0.5L0,-3.0L2.5,-0.5"/>
                </g>
        </g>
        <svg viewBox="0 0 15 15" width="100%" height="30px" preserveAspectRatio="xMaxYMin meet">
         <g id="arrow_out" transform="scale(0.3 0.3)">
          <a xlink:href="kernel_8hpp__dep__incl_org.svg" target="_base">
           <rect id="button" ry="5" rx="5" y="6" x="6" height="38" width="38"
                fill="#f2f5e9" fill-opacity="0.5" stroke="#606060" stroke-width="1.0"/>
           <path id="arrow"
             d="M 11.500037,31.436501 C 11.940474,20.09759 22.043105,11.32322 32.158766,21.979434 L 37.068811,17.246167 C 37.068811,17.246167 37.088388,32 37.088388,32 L 22.160133,31.978069 C 22.160133,31.978069 26.997745,27.140456 26.997745,27.140456 C 18.528582,18.264221 13.291696,25.230495 11.500037,31.436501 z"
             style="fill:#404040;"/>
          </a>
         </g>
        </svg>
</svg>
