<?xml version="1.0" encoding="UTF-8" standalone="no"?>
<!DOCTYPE svg PUBLIC "-//W3C//DTD SVG 1.1//EN"
 "http://www.w3.org/Graphics/SVG/1.1/DTD/svg11.dtd">
<!-- Generated by graphviz version 2.43.0 (0)
 -->
<!-- Title: Leosac::Module::Wiegand::WiegandReaderImpl Pages: 1 -->
<svg width="999pt" height="134pt"
 viewBox="0.00 0.00 999.00 134.00" xmlns="http://www.w3.org/2000/svg" xmlns:xlink="http://www.w3.org/1999/xlink">
<g id="graph0" class="graph" transform="scale(1 1) rotate(0) translate(4 130)">
<title>Leosac::Module::Wiegand::WiegandReaderImpl</title>
<polygon fill="white" stroke="transparent" points="-4,4 -4,-130 995,-130 995,4 -4,4"/>
<!-- Node1 -->
<g id="node1" class="node">
<title>Node1</title>
<g id="a_node1"><a xlink:title="An implementation class that represents a Wiegand Reader.">
<polygon fill="#bfbfbf" stroke="black" points="413,-39.5 413,-69.5 554,-69.5 554,-39.5 413,-39.5"/>
<text text-anchor="start" x="421" y="-57.5" font-family="Helvetica,sans-Serif" font-size="10.00">Leosac::Module::Wiegand</text>
<text text-anchor="middle" x="483.5" y="-46.5" font-family="Helvetica,sans-Serif" font-size="10.00">::WiegandReaderImpl</text>
</a>
</g>
</g>
<!-- Node3 -->
<g id="node3" class="node">
<title>Node3</title>
<g id="a_node3"><a xlink:href="../../d5/d39/classLeosac_1_1Module_1_1Wiegand_1_1Strategy_1_1WiegandStrategy.html" target="_top" xlink:title="The multiple modes available to wiegand reader are implemented through the strategy pattern.">
<polygon fill="white" stroke="black" points="630,-68.5 630,-98.5 783,-98.5 783,-68.5 630,-68.5"/>
<text text-anchor="start" x="638" y="-86.5" font-family="Helvetica,sans-Serif" font-size="10.00">Leosac::Module::Wiegand</text>
<text text-anchor="middle" x="706.5" y="-75.5" font-family="Helvetica,sans-Serif" font-size="10.00">::Strategy::WiegandStrategy</text>
</a>
</g>
</g>
<!-- Node1&#45;&gt;Node3 -->
<g id="edge3" class="edge">
<title>Node1&#45;&gt;Node3</title>
<path fill="none" stroke="#9a32cd" stroke-dasharray="5,2" d="M564.14,-64.95C585.51,-67.75 608.56,-70.78 629.71,-73.56"/>
<polygon fill="#9a32cd" stroke="#9a32cd" points="564.49,-61.47 554.12,-63.64 563.58,-68.41 564.49,-61.47"/>
<text text-anchor="middle" x="592" y="-73.5" font-family="Helvetica,sans-Serif" font-size="10.00"> reader_</text>
</g>
<!-- Node2 -->
<g id="node2" class="node">
<title>Node2</title>
<g id="a_node2"><a xlink:title=" ">
<polygon fill="white" stroke="#bfbfbf" points="836,-34 836,-75 991,-75 991,-34 836,-34"/>
<text text-anchor="start" x="844" y="-63" font-family="Helvetica,sans-Serif" font-size="10.00">std::unique_ptr&lt; Leosac</text>
<text text-anchor="start" x="844" y="-52" font-family="Helvetica,sans-Serif" font-size="10.00">::Module::Wiegand::Strategy</text>
<text text-anchor="middle" x="913.5" y="-41" font-family="Helvetica,sans-Serif" font-size="10.00">::WiegandStrategy &gt;</text>
</a>
</g>
</g>
<!-- Node2&#45;&gt;Node1 -->
<g id="edge1" class="edge">
<title>Node2&#45;&gt;Node1</title>
<path fill="none" stroke="#9a32cd" stroke-dasharray="5,2" d="M825.55,-49.92C811.34,-49.33 796.76,-48.82 783,-48.5 715.02,-46.93 697.99,-47.1 630,-48.5 605.23,-49.01 578.1,-50.01 554.05,-51.05"/>
<polygon fill="#9a32cd" stroke="#9a32cd" points="825.69,-53.43 835.83,-50.36 825.99,-46.43 825.69,-53.43"/>
<text text-anchor="middle" x="706.5" y="-51.5" font-family="Helvetica,sans-Serif" font-size="10.00"> strategy_</text>
</g>
<!-- Node3&#45;&gt;Node2 -->
<g id="edge2" class="edge">
<title>Node3&#45;&gt;Node2</title>
<path fill="none" stroke="#9a32cd" stroke-dasharray="5,2" d="M793.38,-71.35C807.42,-69.36 821.89,-67.32 835.69,-65.37"/>
<polygon fill="#9a32cd" stroke="#9a32cd" points="792.66,-67.92 783.25,-72.78 793.64,-74.85 792.66,-67.92"/>
<text text-anchor="middle" x="809.5" y="-72.5" font-family="Helvetica,sans-Serif" font-size="10.00"> ptr</text>
</g>
<!-- Node4 -->
<g id="node4" class="node">
<title>Node4</title>
<g id="a_node4"><a xlink:title=" ">
<polygon fill="white" stroke="#bfbfbf" points="187,-95.5 187,-125.5 321,-125.5 321,-95.5 187,-95.5"/>
<text text-anchor="start" x="195" y="-113.5" font-family="Helvetica,sans-Serif" font-size="10.00">std::unique_ptr&lt; Leosac</text>
<text text-anchor="middle" x="254" y="-102.5" font-family="Helvetica,sans-Serif" font-size="10.00">::Hardware::FLED &gt;</text>
</a>
</g>
</g>
<!-- Node4&#45;&gt;Node1 -->
<g id="edge4" class="edge">
<title>Node4&#45;&gt;Node1</title>
<path fill="none" stroke="#9a32cd" stroke-dasharray="5,2" d="M331.23,-101.56C352.1,-98.29 374.58,-94 395,-88.5 413.1,-83.62 432.59,-76.27 448.58,-69.64"/>
<polygon fill="#9a32cd" stroke="#9a32cd" points="330.5,-98.13 321.14,-103.08 331.55,-105.05 330.5,-98.13"/>
<text text-anchor="middle" x="367" y="-113.5" font-family="Helvetica,sans-Serif" font-size="10.00"> buzzer_</text>
<text text-anchor="middle" x="367" y="-102.5" font-family="Helvetica,sans-Serif" font-size="10.00">green_led_</text>
</g>
<!-- Node5 -->
<g id="node5" class="node">
<title>Node5</title>
<g id="a_node5"><a xlink:href="../../db/df5/classLeosac_1_1Hardware_1_1FLED.html" target="_top" xlink:title="A Facade to a LED object.">
<polygon fill="white" stroke="black" points="0,-101 0,-120 134,-120 134,-101 0,-101"/>
<text text-anchor="middle" x="67" y="-108" font-family="Helvetica,sans-Serif" font-size="10.00">Leosac::Hardware::FLED</text>
</a>
</g>
</g>
<!-- Node5&#45;&gt;Node4 -->
<g id="edge5" class="edge">
<title>Node5&#45;&gt;Node4</title>
<path fill="none" stroke="#9a32cd" stroke-dasharray="5,2" d="M144.17,-110.5C158.28,-110.5 172.92,-110.5 186.71,-110.5"/>
<polygon fill="#9a32cd" stroke="#9a32cd" points="144.01,-107 134.01,-110.5 144.01,-114 144.01,-107"/>
<text text-anchor="middle" x="160.5" y="-113.5" font-family="Helvetica,sans-Serif" font-size="10.00"> ptr</text>
</g>
<!-- Node6 -->
<g id="node6" class="node">
<title>Node6</title>
<g id="a_node6"><a xlink:title="STL class.">
<polygon fill="white" stroke="#bfbfbf" points="221.5,-50 221.5,-69 286.5,-69 286.5,-50 221.5,-50"/>
<text text-anchor="middle" x="254" y="-57" font-family="Helvetica,sans-Serif" font-size="10.00">std::string</text>
</a>
</g>
</g>
<!-- Node6&#45;&gt;Node1 -->
<g id="edge6" class="edge">
<title>Node6&#45;&gt;Node1</title>
<path fill="none" stroke="#9a32cd" stroke-dasharray="5,2" d="M296.5,-57.19C310.05,-56.52 325.16,-55.88 339,-55.5 363.03,-54.84 389.34,-54.54 412.79,-54.42"/>
<polygon fill="#9a32cd" stroke="#9a32cd" points="296.31,-53.69 286.5,-57.7 296.67,-60.69 296.31,-53.69"/>
<text text-anchor="middle" x="367" y="-80.5" font-family="Helvetica,sans-Serif" font-size="10.00"> topic_low_</text>
<text text-anchor="middle" x="367" y="-69.5" font-family="Helvetica,sans-Serif" font-size="10.00">topic_high_</text>
<text text-anchor="middle" x="367" y="-58.5" font-family="Helvetica,sans-Serif" font-size="10.00">name_</text>
</g>
<!-- Node7 -->
<g id="node7" class="node">
<title>Node7</title>
<g id="a_node7"><a xlink:title="STL class.">
<polygon fill="white" stroke="#bfbfbf" points="15,-44.5 15,-74.5 119,-74.5 119,-44.5 15,-44.5"/>
<text text-anchor="start" x="23" y="-62.5" font-family="Helvetica,sans-Serif" font-size="10.00">std::basic_string&lt;</text>
<text text-anchor="middle" x="67" y="-51.5" font-family="Helvetica,sans-Serif" font-size="10.00"> char &gt;</text>
</a>
</g>
</g>
<!-- Node7&#45;&gt;Node6 -->
<g id="edge7" class="edge">
<title>Node7&#45;&gt;Node6</title>
<path fill="none" stroke="midnightblue" d="M129.26,-59.5C160.05,-59.5 196.08,-59.5 221.29,-59.5"/>
<polygon fill="midnightblue" stroke="midnightblue" points="129.04,-56 119.04,-59.5 129.04,-63 129.04,-56"/>
</g>
<!-- Node8 -->
<g id="node8" class="node">
<title>Node8</title>
<g id="a_node8"><a xlink:title=" ">
<polygon fill="white" stroke="#bfbfbf" points="198.5,-0.5 198.5,-30.5 309.5,-30.5 309.5,-0.5 198.5,-0.5"/>
<text text-anchor="start" x="206.5" y="-18.5" font-family="Helvetica,sans-Serif" font-size="10.00">std::array&lt; uint8_t,</text>
<text text-anchor="middle" x="254" y="-7.5" font-family="Helvetica,sans-Serif" font-size="10.00"> 16 &gt;</text>
</a>
</g>
</g>
<!-- Node8&#45;&gt;Node1 -->
<g id="edge8" class="edge">
<title>Node8&#45;&gt;Node1</title>
<path fill="none" stroke="#9a32cd" stroke-dasharray="5,2" d="M319.81,-26.61C348.82,-31.58 383.09,-37.46 412.67,-42.53"/>
<polygon fill="#9a32cd" stroke="#9a32cd" points="320.23,-23.13 309.78,-24.89 319.05,-30.03 320.23,-23.13"/>
<text text-anchor="middle" x="367" y="-41.5" font-family="Helvetica,sans-Serif" font-size="10.00"> buffer_</text>
</g>
</g>
</svg>
