<?xml version="1.0" encoding="UTF-8" standalone="no"?>
<!DOCTYPE svg PUBLIC "-//W3C//DTD SVG 1.1//EN"
 "http://www.w3.org/Graphics/SVG/1.1/DTD/svg11.dtd">
<!-- Generated by graphviz version 2.43.0 (0)
 -->
<!-- Title: Leosac::Module::Mqtt::MqttConfig Pages: 1 -->
<!--zoomable 266 -->
<svg id="main" version="1.1" xmlns="http://www.w3.org/2000/svg" xmlns:xlink="http://www.w3.org/1999/xlink" xml:space="preserve" onload="init(evt)">
<style type="text/css"><![CDATA[
.edge:hover path { stroke: red; }
.edge:hover polygon { stroke: red; fill: red; }
]]></style>
<script type="text/javascript"><![CDATA[
var edges = document.getElementsByTagName('g');
if (edges && edges.length) {
  for (var i=0;i<edges.length;i++) {
    if (edges[i].id.substr(0,4)=='edge') {
      edges[i].setAttribute('class','edge');
    }
  }
}
]]></script>
        <defs>
                <circle id="rim" cx="0" cy="0" r="7"/>
                <circle id="rim2" cx="0" cy="0" r="3.5"/>
                <g id="zoomPlus">
                        <use xlink:href="#rim" fill="#404040">
                                <set attributeName="fill" to="#808080" begin="zoomplus.mouseover" end="zoomplus.mouseout"/>
                        </use>
                        <path d="M-4,0h8M0,-4v8" fill="none" stroke="white" stroke-width="1.5" pointer-events="none"/>
                </g>
                <g id="zoomMin">
                        <use xlink:href="#rim" fill="#404040">
                                <set attributeName="fill" to="#808080" begin="zoomminus.mouseover" end="zoomminus.mouseout"/>
                        </use>
                        <path d="M-4,0h8" fill="none" stroke="white" stroke-width="1.5" pointer-events="none"/>
                </g>
                <g id="dirArrow">
                        <path fill="none" stroke="white" stroke-width="1.5" d="M0,-3.0v7 M-2.5,-0.5L0,-3.0L2.5,-0.5"/>
                </g>
               <g id="resetDef">
                       <use xlink:href="#rim2" fill="#404040">
                               <set attributeName="fill" to="#808080" begin="reset.mouseover" end="reset.mouseout"/>
                       </use>
               </g>
        </defs>

<script type="text/javascript">
var viewWidth = 1544;
var viewHeight = 266;
var sectionId = 'dynsection-0';
</script>
<script xlink:href="../../svgpan.js"/>
<svg id="graph" class="graph">
<g id="viewport">
<title>Leosac::Module::Mqtt::MqttConfig</title>
<polygon fill="white" stroke="transparent" points="-4,4 -4,-261.53 1540,-261.53 1540,4 -4,4"/>
<!-- Node1 -->
<g id="node1" class="node">
<title>Node1</title>
<g id="a_node1"><a xlink:title="Transient configuration object that stores the list of mqtt servers use/configure.">
<polygon fill="#bfbfbf" stroke="black" points="1415,-138.53 1415,-168.53 1536,-168.53 1536,-138.53 1415,-138.53"/>
<text text-anchor="start" x="1423" y="-156.53" font-family="Helvetica,sans-Serif" font-size="10.00">Leosac::Module::Mqtt</text>
<text text-anchor="middle" x="1475.5" y="-145.53" font-family="Helvetica,sans-Serif" font-size="10.00">::MqttConfig</text>
</a>
</g>
</g>
<!-- Node2 -->
<g id="node2" class="node">
<title>Node2</title>
<g id="a_node2"><a xlink:title=" ">
<polygon fill="white" stroke="#bfbfbf" points="1165,-103.03 1165,-144.03 1323,-144.03 1323,-103.03 1165,-103.03"/>
<text text-anchor="start" x="1173" y="-132.03" font-family="Helvetica,sans-Serif" font-size="10.00">std::vector&lt; std::shared</text>
<text text-anchor="start" x="1173" y="-121.03" font-family="Helvetica,sans-Serif" font-size="10.00">_ptr&lt; const Leosac::Module</text>
<text text-anchor="middle" x="1244" y="-110.03" font-family="Helvetica,sans-Serif" font-size="10.00">::Mqtt::MqttServerConfig &gt; &gt;</text>
</a>
</g>
</g>
<!-- Node2&#45;&gt;Node1 -->
<g id="edge1" class="edge">
<title>Node2&#45;&gt;Node1</title>
<path fill="none" stroke="#9a32cd" stroke-dasharray="5,2" d="M1332.99,-135.03C1360.35,-138.61 1389.87,-142.46 1414.82,-145.73"/>
<polygon fill="#9a32cd" stroke="#9a32cd" points="1333.39,-131.55 1323.02,-133.73 1332.48,-138.49 1333.39,-131.55"/>
<text text-anchor="middle" x="1374.5" y="-146.53" font-family="Helvetica,sans-Serif" font-size="10.00"> servers_</text>
</g>
<!-- Node3 -->
<g id="node3" class="node">
<title>Node3</title>
<g id="a_node3"><a xlink:title=" ">
<polygon fill="white" stroke="#bfbfbf" points="935.5,-103.03 935.5,-144.03 1062.5,-144.03 1062.5,-103.03 935.5,-103.03"/>
<text text-anchor="start" x="943.5" y="-132.03" font-family="Helvetica,sans-Serif" font-size="10.00">std::shared_ptr&lt; const</text>
<text text-anchor="start" x="943.5" y="-121.03" font-family="Helvetica,sans-Serif" font-size="10.00"> Leosac::Module::Mqtt</text>
<text text-anchor="middle" x="999" y="-110.03" font-family="Helvetica,sans-Serif" font-size="10.00">::MqttServerConfig &gt;</text>
</a>
</g>
</g>
<!-- Node3&#45;&gt;Node2 -->
<g id="edge2" class="edge">
<title>Node3&#45;&gt;Node2</title>
<path fill="none" stroke="#9a32cd" stroke-dasharray="5,2" d="M1072.67,-123.53C1101.77,-123.53 1135.35,-123.53 1164.97,-123.53"/>
<polygon fill="#9a32cd" stroke="#9a32cd" points="1072.58,-120.03 1062.58,-123.53 1072.58,-127.03 1072.58,-120.03"/>
<text text-anchor="middle" x="1111.5" y="-126.53" font-family="Helvetica,sans-Serif" font-size="10.00"> elements</text>
</g>
<!-- Node4 -->
<g id="node4" class="node">
<title>Node4</title>
<g id="a_node4"><a xlink:href="../../d8/d04/structLeosac_1_1Module_1_1Mqtt_1_1MqttServerConfig.html" target="_top" xlink:title="An instance of this class represents the configuration of one Mqtt server.">
<polygon fill="white" stroke="black" points="751,-108.53 751,-138.53 872,-138.53 872,-108.53 751,-108.53"/>
<text text-anchor="start" x="759" y="-126.53" font-family="Helvetica,sans-Serif" font-size="10.00">Leosac::Module::Mqtt</text>
<text text-anchor="middle" x="811.5" y="-115.53" font-family="Helvetica,sans-Serif" font-size="10.00">::MqttServerConfig</text>
</a>
</g>
</g>
<!-- Node4&#45;&gt;Node3 -->
<g id="edge3" class="edge">
<title>Node4&#45;&gt;Node3</title>
<path fill="none" stroke="#9a32cd" stroke-dasharray="5,2" d="M882.29,-123.53C899.67,-123.53 918.19,-123.53 935.2,-123.53"/>
<polygon fill="#9a32cd" stroke="#9a32cd" points="882.21,-120.03 872.21,-123.53 882.21,-127.03 882.21,-120.03"/>
<text text-anchor="middle" x="902.5" y="-126.53" font-family="Helvetica,sans-Serif" font-size="10.00"> ptr</text>
</g>
<!-- Node5 -->
<g id="node5" class="node">
<title>Node5</title>
<g id="a_node5"><a xlink:href="../../d2/dc7/classLeosac_1_1Hardware_1_1ExternalServer.html" target="_top" xlink:title="Abstraction of an External Server device.">
<polygon fill="white" stroke="black" points="560,-114.53 560,-144.53 710,-144.53 710,-114.53 560,-114.53"/>
<text text-anchor="start" x="568" y="-132.53" font-family="Helvetica,sans-Serif" font-size="10.00">Leosac::Hardware::External</text>
<text text-anchor="middle" x="635" y="-121.53" font-family="Helvetica,sans-Serif" font-size="10.00">Server</text>
</a>
</g>
</g>
<!-- Node5&#45;&gt;Node4 -->
<g id="edge4" class="edge">
<title>Node5&#45;&gt;Node4</title>
<path fill="none" stroke="midnightblue" d="M720.31,-126.63C730.65,-126.27 741.05,-125.92 750.92,-125.58"/>
<polygon fill="midnightblue" stroke="midnightblue" points="719.88,-123.14 710,-126.98 720.12,-130.14 719.88,-123.14"/>
</g>
<!-- Node6 -->
<g id="node6" class="node">
<title>Node6</title>
<g id="a_node6"><a xlink:href="../../d3/d7f/classLeosac_1_1Hardware_1_1Device.html" target="_top" xlink:title="Base class for hardware devices.">
<polygon fill="white" stroke="black" points="296,-159.03 296,-178.03 439,-178.03 439,-159.03 296,-159.03"/>
<text text-anchor="middle" x="367.5" y="-166.03" font-family="Helvetica,sans-Serif" font-size="10.00">Leosac::Hardware::Device</text>
</a>
</g>
</g>
<!-- Node6&#45;&gt;Node5 -->
<g id="edge5" class="edge">
<title>Node6&#45;&gt;Node5</title>
<path fill="none" stroke="midnightblue" d="M443.52,-157.51C479.94,-152.16 523.57,-145.75 559.87,-140.42"/>
<polygon fill="midnightblue" stroke="midnightblue" points="442.83,-154.07 433.45,-158.99 443.85,-161 442.83,-154.07"/>
</g>
<!-- Node13 -->
<g id="node13" class="node">
<title>Node13</title>
<g id="a_node13"><a xlink:href="../../d4/d55/classLeosac_1_1Hardware_1_1ExternalMessage.html" target="_top" xlink:title="Abstraction of an External Messaging device.">
<polygon fill="white" stroke="black" points="560,-168.53 560,-198.53 710,-198.53 710,-168.53 560,-168.53"/>
<text text-anchor="start" x="568" y="-186.53" font-family="Helvetica,sans-Serif" font-size="10.00">Leosac::Hardware::External</text>
<text text-anchor="middle" x="635" y="-175.53" font-family="Helvetica,sans-Serif" font-size="10.00">Message</text>
</a>
</g>
</g>
<!-- Node6&#45;&gt;Node13 -->
<g id="edge15" class="edge">
<title>Node6&#45;&gt;Node13</title>
<path fill="none" stroke="midnightblue" d="M449.51,-173.1C484.59,-175.09 525.39,-177.39 559.69,-179.33"/>
<polygon fill="midnightblue" stroke="midnightblue" points="449.48,-169.6 439.3,-172.53 449.09,-176.59 449.48,-169.6"/>
</g>
<!-- Node7 -->
<g id="node7" class="node">
<title>Node7</title>
<g id="a_node7"><a xlink:href="../../d7/d46/classLeosac_1_1UUID.html" target="_top" xlink:title="Thin wrapper around boost::uuids::uuid.">
<polygon fill="white" stroke="black" points="141,-238.03 141,-257.03 223,-257.03 223,-238.03 141,-238.03"/>
<text text-anchor="middle" x="182" y="-245.03" font-family="Helvetica,sans-Serif" font-size="10.00">Leosac::UUID</text>
</a>
</g>
</g>
<!-- Node7&#45;&gt;Node6 -->
<g id="edge6" class="edge">
<title>Node7&#45;&gt;Node6</title>
<path fill="none" stroke="#9a32cd" stroke-dasharray="5,2" d="M210.08,-233.16C232.7,-221.45 265.99,-204.88 296,-192.53 308.79,-187.26 323.21,-182.2 335.65,-178.1"/>
<polygon fill="#9a32cd" stroke="#9a32cd" points="208.32,-230.13 201.08,-237.86 211.56,-236.34 208.32,-230.13"/>
<text text-anchor="middle" x="259.5" y="-220.53" font-family="Helvetica,sans-Serif" font-size="10.00"> id_</text>
</g>
<!-- Node8 -->
<g id="node8" class="node">
<title>Node8</title>
<g id="a_node8"><a xlink:title="STL class.">
<polygon fill="white" stroke="#bfbfbf" points="149.5,-138.03 149.5,-157.03 214.5,-157.03 214.5,-138.03 149.5,-138.03"/>
<text text-anchor="middle" x="182" y="-145.03" font-family="Helvetica,sans-Serif" font-size="10.00">std::string</text>
</a>
</g>
</g>
<!-- Node8&#45;&gt;Node4 -->
<g id="edge10" class="edge">
<title>Node8&#45;&gt;Node4</title>
<path fill="none" stroke="#9a32cd" stroke-dasharray="5,2" d="M204.31,-131.99C248.62,-100.75 355.09,-31.21 457,-6.53 586.43,24.82 736.46,-70.04 790.12,-108.29"/>
<polygon fill="#9a32cd" stroke="#9a32cd" points="202.16,-129.22 196.05,-137.87 206.23,-134.92 202.16,-129.22"/>
<text text-anchor="middle" x="499.5" y="-119.53" font-family="Helvetica,sans-Serif" font-size="10.00"> publish_prefix_</text>
<text text-anchor="middle" x="499.5" y="-108.53" font-family="Helvetica,sans-Serif" font-size="10.00">ssl_ca_certs_</text>
<text text-anchor="start" x="457" y="-97.53" font-family="Helvetica,sans-Serif" font-size="10.00">subscribe_prefix</text>
<text text-anchor="middle" x="499.5" y="-86.53" font-family="Helvetica,sans-Serif" font-size="10.00">_</text>
<text text-anchor="start" x="457" y="-75.53" font-family="Helvetica,sans-Serif" font-size="10.00">ssl_client_certfile</text>
<text text-anchor="middle" x="499.5" y="-64.53" font-family="Helvetica,sans-Serif" font-size="10.00">_</text>
<text text-anchor="middle" x="499.5" y="-53.53" font-family="Helvetica,sans-Serif" font-size="10.00">password_</text>
<text text-anchor="start" x="457" y="-42.53" font-family="Helvetica,sans-Serif" font-size="10.00">ssl_client_keyfile</text>
<text text-anchor="middle" x="499.5" y="-31.53" font-family="Helvetica,sans-Serif" font-size="10.00">_</text>
<text text-anchor="middle" x="499.5" y="-20.53" font-family="Helvetica,sans-Serif" font-size="10.00">client_id_</text>
<text text-anchor="middle" x="499.5" y="-9.53" font-family="Helvetica,sans-Serif" font-size="10.00">username_</text>
</g>
<!-- Node8&#45;&gt;Node5 -->
<g id="edge9" class="edge">
<title>Node8&#45;&gt;Node5</title>
<path fill="none" stroke="#9a32cd" stroke-dasharray="5,2" d="M224.66,-143.68C245.98,-141.85 272.36,-139.78 296,-138.53 386.71,-133.71 491.26,-131.43 559.78,-130.38"/>
<polygon fill="#9a32cd" stroke="#9a32cd" points="224.29,-140.2 214.63,-144.56 224.9,-147.17 224.29,-140.2"/>
<text text-anchor="middle" x="367.5" y="-141.53" font-family="Helvetica,sans-Serif" font-size="10.00"> host_</text>
</g>
<!-- Node8&#45;&gt;Node6 -->
<g id="edge7" class="edge">
<title>Node8&#45;&gt;Node6</title>
<path fill="none" stroke="#9a32cd" stroke-dasharray="5,2" d="M224.73,-152.3C245.75,-154.71 271.81,-157.69 295.83,-160.44"/>
<polygon fill="#9a32cd" stroke="#9a32cd" points="224.88,-148.8 214.54,-151.14 224.08,-155.75 224.88,-148.8"/>
<text text-anchor="middle" x="259.5" y="-161.53" font-family="Helvetica,sans-Serif" font-size="10.00"> name_</text>
</g>
<!-- Node8&#45;&gt;Node13 -->
<g id="edge16" class="edge">
<title>Node8&#45;&gt;Node13</title>
<path fill="none" stroke="#9a32cd" stroke-dasharray="5,2" d="M211.22,-161.35C220.56,-165.61 231.1,-170.08 241,-173.53 264.82,-181.83 271,-184.16 296,-187.53 386.15,-199.68 491.04,-195.65 559.77,-190.58"/>
<polygon fill="#9a32cd" stroke="#9a32cd" points="212.54,-158.1 202,-157.04 209.58,-164.45 212.54,-158.1"/>
<text text-anchor="middle" x="367.5" y="-209.53" font-family="Helvetica,sans-Serif" font-size="10.00"> payload_</text>
<text text-anchor="middle" x="367.5" y="-198.53" font-family="Helvetica,sans-Serif" font-size="10.00">subject_</text>
</g>
<!-- Node9 -->
<g id="node9" class="node">
<title>Node9</title>
<g id="a_node9"><a xlink:title="STL class.">
<polygon fill="white" stroke="#bfbfbf" points="0,-132.53 0,-162.53 104,-162.53 104,-132.53 0,-132.53"/>
<text text-anchor="start" x="8" y="-150.53" font-family="Helvetica,sans-Serif" font-size="10.00">std::basic_string&lt;</text>
<text text-anchor="middle" x="52" y="-139.53" font-family="Helvetica,sans-Serif" font-size="10.00"> char &gt;</text>
</a>
</g>
</g>
<!-- Node9&#45;&gt;Node8 -->
<g id="edge8" class="edge">
<title>Node9&#45;&gt;Node8</title>
<path fill="none" stroke="midnightblue" d="M114.38,-147.53C126.43,-147.53 138.6,-147.53 149.19,-147.53"/>
<polygon fill="midnightblue" stroke="midnightblue" points="114.33,-144.03 104.32,-147.53 114.32,-151.03 114.33,-144.03"/>
</g>
<!-- Node10 -->
<g id="node10" class="node">
<title>Node10</title>
<g id="a_node10"><a xlink:title=" ">
<polygon fill="white" stroke="#bfbfbf" points="1154,-163.03 1154,-204.03 1334,-204.03 1334,-163.03 1154,-163.03"/>
<text text-anchor="start" x="1162" y="-192.03" font-family="Helvetica,sans-Serif" font-size="10.00">std::vector&lt; std::shared</text>
<text text-anchor="start" x="1162" y="-181.03" font-family="Helvetica,sans-Serif" font-size="10.00">_ptr&lt; const Leosac::Module</text>
<text text-anchor="middle" x="1244" y="-170.03" font-family="Helvetica,sans-Serif" font-size="10.00">::Mqtt::MqttExternalMessage &gt; &gt;</text>
</a>
</g>
</g>
<!-- Node10&#45;&gt;Node1 -->
<g id="edge11" class="edge">
<title>Node10&#45;&gt;Node1</title>
<path fill="none" stroke="#9a32cd" stroke-dasharray="5,2" d="M1343.98,-170.59C1368.13,-167.43 1393.24,-164.15 1414.9,-161.32"/>
<polygon fill="#9a32cd" stroke="#9a32cd" points="1343.52,-167.12 1334.06,-171.89 1344.43,-174.06 1343.52,-167.12"/>
<text text-anchor="middle" x="1374.5" y="-172.53" font-family="Helvetica,sans-Serif" font-size="10.00"> topics_</text>
</g>
<!-- Node11 -->
<g id="node11" class="node">
<title>Node11</title>
<g id="a_node11"><a xlink:title=" ">
<polygon fill="white" stroke="#bfbfbf" points="929,-163.03 929,-204.03 1069,-204.03 1069,-163.03 929,-163.03"/>
<text text-anchor="start" x="937" y="-192.03" font-family="Helvetica,sans-Serif" font-size="10.00">std::shared_ptr&lt; const</text>
<text text-anchor="start" x="937" y="-181.03" font-family="Helvetica,sans-Serif" font-size="10.00"> Leosac::Module::Mqtt</text>
<text text-anchor="middle" x="999" y="-170.03" font-family="Helvetica,sans-Serif" font-size="10.00">::MqttExternalMessage &gt;</text>
</a>
</g>
</g>
<!-- Node11&#45;&gt;Node10 -->
<g id="edge12" class="edge">
<title>Node11&#45;&gt;Node10</title>
<path fill="none" stroke="#9a32cd" stroke-dasharray="5,2" d="M1079.32,-183.53C1103.06,-183.53 1129.26,-183.53 1153.6,-183.53"/>
<polygon fill="#9a32cd" stroke="#9a32cd" points="1079.31,-180.03 1069.31,-183.53 1079.31,-187.03 1079.31,-180.03"/>
<text text-anchor="middle" x="1111.5" y="-186.53" font-family="Helvetica,sans-Serif" font-size="10.00"> elements</text>
</g>
<!-- Node12 -->
<g id="node12" class="node">
<title>Node12</title>
<g id="a_node12"><a xlink:href="../../d8/dc7/structLeosac_1_1Module_1_1Mqtt_1_1MqttExternalMessage.html" target="_top" xlink:title=" ">
<polygon fill="white" stroke="black" points="747,-168.53 747,-198.53 876,-198.53 876,-168.53 747,-168.53"/>
<text text-anchor="start" x="755" y="-186.53" font-family="Helvetica,sans-Serif" font-size="10.00">Leosac::Module::Mqtt</text>
<text text-anchor="middle" x="811.5" y="-175.53" font-family="Helvetica,sans-Serif" font-size="10.00">::MqttExternalMessage</text>
</a>
</g>
</g>
<!-- Node12&#45;&gt;Node11 -->
<g id="edge13" class="edge">
<title>Node12&#45;&gt;Node11</title>
<path fill="none" stroke="#9a32cd" stroke-dasharray="5,2" d="M886.18,-183.53C900.23,-183.53 914.89,-183.53 928.79,-183.53"/>
<polygon fill="#9a32cd" stroke="#9a32cd" points="886.08,-180.03 876.08,-183.53 886.08,-187.03 886.08,-180.03"/>
<text text-anchor="middle" x="902.5" y="-186.53" font-family="Helvetica,sans-Serif" font-size="10.00"> ptr</text>
</g>
<!-- Node13&#45;&gt;Node12 -->
<g id="edge14" class="edge">
<title>Node13&#45;&gt;Node12</title>
<path fill="none" stroke="midnightblue" d="M720.12,-183.53C729.12,-183.53 738.16,-183.53 746.86,-183.53"/>
<polygon fill="midnightblue" stroke="midnightblue" points="720,-180.03 710,-183.53 720,-187.03 720,-180.03"/>
</g>
</g>
</svg>
        <g id="navigator" transform="translate(0 0)" fill="#404254">
                <rect fill="#f2f5e9" fill-opacity="0.5" stroke="#606060" stroke-width=".5" x="0" y="0" width="60" height="60"/>
                <use id="zoomplus" xlink:href="#zoomPlus" x="17" y="9" onmousedown="handleZoom(evt,'in')"/>
                <use id="zoomminus" xlink:href="#zoomMin" x="42" y="9" onmousedown="handleZoom(evt,'out')"/>
                <use id="reset" xlink:href="#resetDef" x="30" y="36" onmousedown="handleReset()"/>
                <g id="arrowUp" xlink:href="#dirArrow" transform="translate(30 24)" onmousedown="handlePan(0,-1)">
                  <use xlink:href="#rim" fill="#404040">
                        <set attributeName="fill" to="#808080" begin="arrowUp.mouseover" end="arrowUp.mouseout"/>
                  </use>
                  <path fill="none" stroke="white" stroke-width="1.5" d="M0,-3.0v7 M-2.5,-0.5L0,-3.0L2.5,-0.5"/>
                </g>
                <g id="arrowRight" xlink:href="#dirArrow" transform="rotate(90) translate(36 -43)" onmousedown="handlePan(1,0)">
                  <use xlink:href="#rim" fill="#404040">
                        <set attributeName="fill" to="#808080" begin="arrowRight.mouseover" end="arrowRight.mouseout"/>
                  </use>
                  <path fill="none" stroke="white" stroke-width="1.5" d="M0,-3.0v7 M-2.5,-0.5L0,-3.0L2.5,-0.5"/>
                </g>
                <g id="arrowDown" xlink:href="#dirArrow" transform="rotate(180) translate(-30 -48)" onmousedown="handlePan(0,1)">
                  <use xlink:href="#rim" fill="#404040">
                        <set attributeName="fill" to="#808080" begin="arrowDown.mouseover" end="arrowDown.mouseout"/>
                  </use>
                  <path fill="none" stroke="white" stroke-width="1.5" d="M0,-3.0v7 M-2.5,-0.5L0,-3.0L2.5,-0.5"/>
                </g>
                <g id="arrowLeft" xlink:href="#dirArrow" transform="rotate(270) translate(-36 17)" onmousedown="handlePan(-1,0)">
                  <use xlink:href="#rim" fill="#404040">
                        <set attributeName="fill" to="#808080" begin="arrowLeft.mouseover" end="arrowLeft.mouseout"/>
                  </use>
                  <path fill="none" stroke="white" stroke-width="1.5" d="M0,-3.0v7 M-2.5,-0.5L0,-3.0L2.5,-0.5"/>
                </g>
        </g>
        <svg viewBox="0 0 15 15" width="100%" height="30px" preserveAspectRatio="xMaxYMin meet">
         <g id="arrow_out" transform="scale(0.3 0.3)">
          <a xlink:href="classLeosac_1_1Module_1_1Mqtt_1_1MqttConfig__coll__graph_org.svg" target="_base">
           <rect id="button" ry="5" rx="5" y="6" x="6" height="38" width="38"
                fill="#f2f5e9" fill-opacity="0.5" stroke="#606060" stroke-width="1.0"/>
           <path id="arrow"
             d="M 11.500037,31.436501 C 11.940474,20.09759 22.043105,11.32322 32.158766,21.979434 L 37.068811,17.246167 C 37.068811,17.246167 37.088388,32 37.088388,32 L 22.160133,31.978069 C 22.160133,31.978069 26.997745,27.140456 26.997745,27.140456 C 18.528582,18.264221 13.291696,25.230495 11.500037,31.436501 z"
             style="fill:#404040;"/>
          </a>
         </g>
        </svg>
</svg>
