<?xml version="1.0" encoding="UTF-8" standalone="no"?>
<!DOCTYPE svg PUBLIC "-//W3C//DTD SVG 1.1//EN"
 "http://www.w3.org/Graphics/SVG/1.1/DTD/svg11.dtd">
<!-- Generated by graphviz version 2.43.0 (0)
 -->
<!-- Title: Leosac::Module::WebSockAPI::ModuleIncomingMessage Pages: 1 -->
<svg width="190pt" height="185pt"
 viewBox="0.00 0.00 190.00 185.00" xmlns="http://www.w3.org/2000/svg" xmlns:xlink="http://www.w3.org/1999/xlink">
<g id="graph0" class="graph" transform="scale(1 1) rotate(0) translate(4 181)">
<title>Leosac::Module::WebSockAPI::ModuleIncomingMessage</title>
<polygon fill="white" stroke="transparent" points="-4,4 -4,-181 186,-181 186,4 -4,4"/>
<!-- Node1 -->
<g id="node1" class="node">
<title>Node1</title>
<g id="a_node1"><a xlink:title="This is an appropriate representation of a incoming WS message as seen by a module.">
<polygon fill="#bfbfbf" stroke="black" points="0,-0.5 0,-30.5 158,-30.5 158,-0.5 0,-0.5"/>
<text text-anchor="start" x="8" y="-18.5" font-family="Helvetica,sans-Serif" font-size="10.00">Leosac::Module::WebSockAPI</text>
<text text-anchor="middle" x="79" y="-7.5" font-family="Helvetica,sans-Serif" font-size="10.00">::ModuleIncomingMessage</text>
</a>
</g>
</g>
<!-- Node2 -->
<g id="node2" class="node">
<title>Node2</title>
<g id="a_node2"><a xlink:title="STL class.">
<polygon fill="white" stroke="#bfbfbf" points="46.5,-89.5 46.5,-108.5 111.5,-108.5 111.5,-89.5 46.5,-89.5"/>
<text text-anchor="middle" x="79" y="-96.5" font-family="Helvetica,sans-Serif" font-size="10.00">std::string</text>
</a>
</g>
</g>
<!-- Node2&#45;&gt;Node1 -->
<g id="edge1" class="edge">
<title>Node2&#45;&gt;Node1</title>
<path fill="none" stroke="#9a32cd" stroke-dasharray="5,2" d="M79,-79.23C79,-64.41 79,-44.05 79,-30.6"/>
<polygon fill="#9a32cd" stroke="#9a32cd" points="75.5,-79.28 79,-89.28 82.5,-79.28 75.5,-79.28"/>
<text text-anchor="middle" x="130.5" y="-63" font-family="Helvetica,sans-Serif" font-size="10.00"> content</text>
<text text-anchor="middle" x="130.5" y="-52" font-family="Helvetica,sans-Serif" font-size="10.00">connection_identifier</text>
</g>
<!-- Node3 -->
<g id="node3" class="node">
<title>Node3</title>
<g id="a_node3"><a xlink:title="STL class.">
<polygon fill="white" stroke="#bfbfbf" points="27,-146.5 27,-176.5 131,-176.5 131,-146.5 27,-146.5"/>
<text text-anchor="start" x="35" y="-164.5" font-family="Helvetica,sans-Serif" font-size="10.00">std::basic_string&lt;</text>
<text text-anchor="middle" x="79" y="-153.5" font-family="Helvetica,sans-Serif" font-size="10.00"> char &gt;</text>
</a>
</g>
</g>
<!-- Node3&#45;&gt;Node2 -->
<g id="edge2" class="edge">
<title>Node3&#45;&gt;Node2</title>
<path fill="none" stroke="midnightblue" d="M79,-136.35C79,-126.51 79,-115.78 79,-108.54"/>
<polygon fill="midnightblue" stroke="midnightblue" points="75.5,-136.47 79,-146.47 82.5,-136.47 75.5,-136.47"/>
</g>
</g>
</svg>
