<?xml version="1.0" encoding="UTF-8" standalone="no"?>
<!DOCTYPE svg PUBLIC "-//W3C//DTD SVG 1.1//EN"
 "http://www.w3.org/Graphics/SVG/1.1/DTD/svg11.dtd">
<!-- Generated by graphviz version 2.38.0 (20140413.2041)
 -->
<!-- Title: src/exception/InvalidArgument.hpp Pages: 1 -->
<svg width="1345pt" height="263pt"
 viewBox="0.00 0.00 1344.60 263.00" xmlns="http://www.w3.org/2000/svg" xmlns:xlink="http://www.w3.org/1999/xlink">
<g id="graph0" class="graph" transform="scale(1 1) rotate(0) translate(4 259)">
<title>src/exception/InvalidArgument.hpp</title>
<polygon fill="white" stroke="none" points="-4,4 -4,-259 1340.6,-259 1340.6,4 -4,4"/>
<!-- Node0 -->
<g id="node1" class="node"><title>Node0</title>
<polygon fill="#bfbfbf" stroke="black" points="724.5,-235.5 724.5,-254.5 891.5,-254.5 891.5,-235.5 724.5,-235.5"/>
<text text-anchor="middle" x="808" y="-242.5" font-family="Helvetica,sans-Serif" font-size="10.00">src/exception/InvalidArgument.hpp</text>
</g>
<!-- Node1 -->
<g id="node2" class="node"><title>Node1</title>
<g id="a_node2"><a xlink:href="../../d1/ddd/leosacexception_8hpp.html" target="_top" xlink:title="Exception class for LEOSAC Project related errors. ">
<polygon fill="white" stroke="black" points="661.5,-174 661.5,-193 812.5,-193 812.5,-174 661.5,-174"/>
<text text-anchor="middle" x="737" y="-181" font-family="Helvetica,sans-Serif" font-size="10.00">exception/leosacexception.hpp</text>
</a>
</g>
</g>
<!-- Node0&#45;&gt;Node1 -->
<g id="edge1" class="edge"><title>Node0&#45;&gt;Node1</title>
<path fill="none" stroke="midnightblue" d="M797.827,-235.475C786.65,-226.108 768.483,-210.884 754.909,-199.508"/>
<polygon fill="midnightblue" stroke="midnightblue" points="757.066,-196.75 747.154,-193.009 752.57,-202.115 757.066,-196.75"/>
</g>
<!-- Node18 -->
<g id="node19" class="node"><title>Node18</title>
<polygon fill="white" stroke="#bfbfbf" points="830.5,-168.5 830.5,-198.5 929.5,-198.5 929.5,-168.5 830.5,-168.5"/>
<text text-anchor="start" x="838.5" y="-186.5" font-family="Helvetica,sans-Serif" font-size="10.00">spdlog/fmt/bundled</text>
<text text-anchor="middle" x="880" y="-175.5" font-family="Helvetica,sans-Serif" font-size="10.00">/format.h</text>
</g>
<!-- Node0&#45;&gt;Node18 -->
<g id="edge38" class="edge"><title>Node0&#45;&gt;Node18</title>
<path fill="none" stroke="midnightblue" d="M818.316,-235.475C827.885,-227.567 842.506,-215.485 855.112,-205.067"/>
<polygon fill="midnightblue" stroke="midnightblue" points="857.552,-207.591 863.031,-198.523 853.093,-202.195 857.552,-207.591"/>
</g>
<!-- Node2 -->
<g id="node3" class="node"><title>Node2</title>
<g id="a_node3"><a xlink:href="../../d6/d2f/Stacktrace_8hpp.html" target="_top" xlink:title="tools/Stacktrace.hpp">
<polygon fill="white" stroke="black" points="626.5,-112.5 626.5,-131.5 733.5,-131.5 733.5,-112.5 626.5,-112.5"/>
<text text-anchor="middle" x="680" y="-119.5" font-family="Helvetica,sans-Serif" font-size="10.00">tools/Stacktrace.hpp</text>
</a>
</g>
</g>
<!-- Node1&#45;&gt;Node2 -->
<g id="edge2" class="edge"><title>Node1&#45;&gt;Node2</title>
<path fill="none" stroke="midnightblue" d="M728.833,-173.975C720.114,-164.873 706.096,-150.241 695.311,-138.983"/>
<polygon fill="midnightblue" stroke="midnightblue" points="697.597,-136.309 688.152,-131.509 692.542,-141.151 697.597,-136.309"/>
</g>
<!-- Node3 -->
<g id="node4" class="node"><title>Node3</title>
<polygon fill="white" stroke="#bfbfbf" points="738.5,-0.5 738.5,-19.5 779.5,-19.5 779.5,-0.5 738.5,-0.5"/>
<text text-anchor="middle" x="759" y="-7.5" font-family="Helvetica,sans-Serif" font-size="10.00">string</text>
</g>
<!-- Node1&#45;&gt;Node3 -->
<g id="edge7" class="edge"><title>Node1&#45;&gt;Node3</title>
<path fill="none" stroke="midnightblue" d="M781.344,-173.992C794.106,-171.775 808.072,-169.571 821,-168 877.063,-161.188 1289.51,-173.324 1328,-132 1404.5,-49.8717 919.215,-19.1424 790.012,-12.4708"/>
<polygon fill="midnightblue" stroke="midnightblue" points="789.809,-8.95619 779.645,-11.9481 789.456,-15.9473 789.809,-8.95619"/>
</g>
<!-- Node5 -->
<g id="node6" class="node"><title>Node5</title>
<polygon fill="white" stroke="#bfbfbf" points="236.5,-112.5 236.5,-131.5 285.5,-131.5 285.5,-112.5 236.5,-112.5"/>
<text text-anchor="middle" x="261" y="-119.5" font-family="Helvetica,sans-Serif" font-size="10.00">cstddef</text>
</g>
<!-- Node1&#45;&gt;Node5 -->
<g id="edge5" class="edge"><title>Node1&#45;&gt;Node5</title>
<path fill="none" stroke="midnightblue" d="M661.22,-177.402C574.747,-170.789 429.038,-157.228 295.753,-132.1"/>
<polygon fill="midnightblue" stroke="midnightblue" points="296.25,-128.632 285.771,-130.192 294.936,-135.507 296.25,-128.632"/>
</g>
<!-- Node6 -->
<g id="node7" class="node"><title>Node6</title>
<polygon fill="white" stroke="#bfbfbf" points="303.5,-112.5 303.5,-131.5 362.5,-131.5 362.5,-112.5 303.5,-112.5"/>
<text text-anchor="middle" x="333" y="-119.5" font-family="Helvetica,sans-Serif" font-size="10.00">exception</text>
</g>
<!-- Node1&#45;&gt;Node6 -->
<g id="edge6" class="edge"><title>Node1&#45;&gt;Node6</title>
<path fill="none" stroke="midnightblue" d="M661.187,-174.013C589.383,-165.519 478.373,-151.208 372.639,-131.97"/>
<polygon fill="midnightblue" stroke="midnightblue" points="373.221,-128.519 362.753,-130.154 371.956,-135.404 373.221,-128.519"/>
</g>
<!-- Node7 -->
<g id="node8" class="node"><title>Node7</title>
<g id="a_node8"><a xlink:href="../../d7/d7a/configexception_8hpp.html" target="_top" xlink:title="configexception.hpp">
<polygon fill="white" stroke="black" points="0,-112.5 0,-131.5 104,-131.5 104,-112.5 0,-112.5"/>
<text text-anchor="middle" x="52" y="-119.5" font-family="Helvetica,sans-Serif" font-size="10.00">configexception.hpp</text>
</a>
</g>
</g>
<!-- Node1&#45;&gt;Node7 -->
<g id="edge8" class="edge"><title>Node1&#45;&gt;Node7</title>
<path fill="none" stroke="midnightblue" d="M661.093,-178.32C543.944,-171.225 312.174,-155.395 110.02,-132.663"/>
<polygon fill="midnightblue" stroke="midnightblue" points="110.138,-129.154 99.8078,-131.506 109.35,-136.11 110.138,-129.154"/>
</g>
<!-- Node10 -->
<g id="node11" class="node"><title>Node10</title>
<g id="a_node11"><a xlink:href="../../d8/db0/coreexception_8hpp.html" target="_top" xlink:title="Exception class for Core related errors. ">
<polygon fill="white" stroke="black" points="122,-112.5 122,-131.5 218,-131.5 218,-112.5 122,-112.5"/>
<text text-anchor="middle" x="170" y="-119.5" font-family="Helvetica,sans-Serif" font-size="10.00">coreexception.hpp</text>
</a>
</g>
</g>
<!-- Node1&#45;&gt;Node10 -->
<g id="edge14" class="edge"><title>Node1&#45;&gt;Node10</title>
<path fill="none" stroke="midnightblue" d="M661.162,-176.873C561.947,-168.831 382.772,-152.839 224.763,-132.848"/>
<polygon fill="midnightblue" stroke="midnightblue" points="224.749,-129.318 214.387,-131.525 223.864,-136.262 224.749,-129.318"/>
</g>
<!-- Node11 -->
<g id="node12" class="node"><title>Node11</title>
<g id="a_node12"><a xlink:href="../../d8/d77/deviceexception_8hpp.html" target="_top" xlink:title="Exception class for Device related errors. ">
<polygon fill="white" stroke="black" points="381,-112.5 381,-131.5 487,-131.5 487,-112.5 381,-112.5"/>
<text text-anchor="middle" x="434" y="-119.5" font-family="Helvetica,sans-Serif" font-size="10.00">deviceexception.hpp</text>
</a>
</g>
</g>
<!-- Node1&#45;&gt;Node11 -->
<g id="edge17" class="edge"><title>Node1&#45;&gt;Node11</title>
<path fill="none" stroke="midnightblue" d="M688.687,-173.975C632.139,-163.327 539.231,-145.109 482.575,-133.581"/>
<polygon fill="midnightblue" stroke="midnightblue" points="482.933,-130.081 472.435,-131.509 481.532,-136.94 482.933,-130.081"/>
</g>
<!-- Node12 -->
<g id="node13" class="node"><title>Node12</title>
<g id="a_node13"><a xlink:href="../../db/d35/dynlibexception_8hpp.html" target="_top" xlink:title="Exception class for DynLib related errors. ">
<polygon fill="white" stroke="black" points="505.5,-112.5 505.5,-131.5 608.5,-131.5 608.5,-112.5 505.5,-112.5"/>
<text text-anchor="middle" x="557" y="-119.5" font-family="Helvetica,sans-Serif" font-size="10.00">dynlibexception.hpp</text>
</a>
</g>
</g>
<!-- Node1&#45;&gt;Node12 -->
<g id="edge20" class="edge"><title>Node1&#45;&gt;Node12</title>
<path fill="none" stroke="midnightblue" d="M706.31,-173.975C673.064,-163.725 620.624,-146.459 587.472,-134.899"/>
<polygon fill="midnightblue" stroke="midnightblue" points="588.439,-131.53 577.845,-131.509 586.114,-138.132 588.439,-131.53"/>
</g>
<!-- Node13 -->
<g id="node14" class="node"><title>Node13</title>
<g id="a_node14"><a xlink:href="../../d0/d4e/fsexception_8hpp.html" target="_top" xlink:title="Exception class for filesystem related errors. ">
<polygon fill="white" stroke="black" points="752,-112.5 752,-131.5 838,-131.5 838,-112.5 752,-112.5"/>
<text text-anchor="middle" x="795" y="-119.5" font-family="Helvetica,sans-Serif" font-size="10.00">fsexception.hpp</text>
</a>
</g>
</g>
<!-- Node1&#45;&gt;Node13 -->
<g id="edge23" class="edge"><title>Node1&#45;&gt;Node13</title>
<path fill="none" stroke="midnightblue" d="M740.409,-173.975C747.43,-164.697 761.715,-149.671 774.066,-138.331"/>
<polygon fill="midnightblue" stroke="midnightblue" points="776.619,-140.746 781.808,-131.509 771.992,-135.494 776.619,-140.746"/>
</g>
<!-- Node14 -->
<g id="node15" class="node"><title>Node14</title>
<g id="a_node15"><a xlink:href="../../d1/d8e/gpioexception_8hpp.html" target="_top" xlink:title="Exception class for Gpio related errors. ">
<polygon fill="white" stroke="black" points="856.5,-112.5 856.5,-131.5 951.5,-131.5 951.5,-112.5 856.5,-112.5"/>
<text text-anchor="middle" x="904" y="-119.5" font-family="Helvetica,sans-Serif" font-size="10.00">gpioexception.hpp</text>
</a>
</g>
</g>
<!-- Node1&#45;&gt;Node14 -->
<g id="edge26" class="edge"><title>Node1&#45;&gt;Node14</title>
<path fill="none" stroke="midnightblue" d="M756.026,-173.975C782.675,-163.68 831.228,-146.31 865.517,-134.75"/>
<polygon fill="midnightblue" stroke="midnightblue" points="866.844,-137.997 875.22,-131.509 864.626,-131.358 866.844,-137.997"/>
</g>
<!-- Node15 -->
<g id="node16" class="node"><title>Node15</title>
<g id="a_node16"><a xlink:href="../../d7/d8c/moduleexception_8hpp.html" target="_top" xlink:title="Exception class for modules. ">
<polygon fill="white" stroke="black" points="969.5,-112.5 969.5,-131.5 1078.5,-131.5 1078.5,-112.5 969.5,-112.5"/>
<text text-anchor="middle" x="1024" y="-119.5" font-family="Helvetica,sans-Serif" font-size="10.00">moduleexception.hpp</text>
</a>
</g>
</g>
<!-- Node1&#45;&gt;Node15 -->
<g id="edge29" class="edge"><title>Node1&#45;&gt;Node15</title>
<path fill="none" stroke="midnightblue" d="M773.22,-173.975C822.361,-163.305 910.362,-145.034 968.017,-133.509"/>
<polygon fill="midnightblue" stroke="midnightblue" points="968.935,-136.895 978.059,-131.509 967.568,-130.03 968.935,-136.895"/>
</g>
<!-- Node16 -->
<g id="node17" class="node"><title>Node16</title>
<g id="a_node17"><a xlink:href="../../df/d8d/scriptexception_8hpp.html" target="_top" xlink:title="Exception class for Script related errors. ">
<polygon fill="white" stroke="black" points="1096.5,-112.5 1096.5,-131.5 1197.5,-131.5 1197.5,-112.5 1096.5,-112.5"/>
<text text-anchor="middle" x="1147" y="-119.5" font-family="Helvetica,sans-Serif" font-size="10.00">scriptexception.hpp</text>
</a>
</g>
</g>
<!-- Node1&#45;&gt;Node16 -->
<g id="edge32" class="edge"><title>Node1&#45;&gt;Node16</title>
<path fill="none" stroke="midnightblue" d="M775.769,-173.993C787.393,-171.945 800.152,-169.824 812,-168 929.911,-149.85 959.896,-148.849 1078,-132 1080.79,-131.603 1083.64,-131.19 1086.54,-130.77"/>
<polygon fill="midnightblue" stroke="midnightblue" points="1087.08,-134.228 1096.47,-129.323 1086.07,-127.301 1087.08,-134.228"/>
</g>
<!-- Node17 -->
<g id="node18" class="node"><title>Node17</title>
<g id="a_node18"><a xlink:href="../../dc/dce/signalexception_8hpp.html" target="_top" xlink:title="Exception class for Signal related errors. ">
<polygon fill="white" stroke="black" points="1215.5,-112.5 1215.5,-131.5 1318.5,-131.5 1318.5,-112.5 1215.5,-112.5"/>
<text text-anchor="middle" x="1267" y="-119.5" font-family="Helvetica,sans-Serif" font-size="10.00">signalexception.hpp</text>
</a>
</g>
</g>
<!-- Node1&#45;&gt;Node17 -->
<g id="edge35" class="edge"><title>Node1&#45;&gt;Node17</title>
<path fill="none" stroke="midnightblue" d="M774.006,-173.952C786.081,-171.812 799.53,-169.657 812,-168 982.361,-145.366 1026.38,-152.55 1197,-132 1199.79,-131.664 1202.65,-131.302 1205.54,-130.924"/>
<polygon fill="midnightblue" stroke="midnightblue" points="1206.03,-134.39 1215.47,-129.584 1205.09,-127.453 1206.03,-134.39"/>
</g>
<!-- Node2&#45;&gt;Node3 -->
<g id="edge3" class="edge"><title>Node2&#45;&gt;Node3</title>
<path fill="none" stroke="midnightblue" d="M686.199,-112.368C699.236,-94.2153 729.697,-51.8015 746.798,-27.9902"/>
<polygon fill="midnightblue" stroke="midnightblue" points="749.839,-29.7555 752.83,-19.5914 744.154,-25.6721 749.839,-29.7555"/>
</g>
<!-- Node4 -->
<g id="node5" class="node"><title>Node4</title>
<polygon fill="white" stroke="#bfbfbf" points="658,-56.5 658,-75.5 702,-75.5 702,-56.5 658,-56.5"/>
<text text-anchor="middle" x="680" y="-63.5" font-family="Helvetica,sans-Serif" font-size="10.00">vector</text>
</g>
<!-- Node2&#45;&gt;Node4 -->
<g id="edge4" class="edge"><title>Node2&#45;&gt;Node4</title>
<path fill="none" stroke="midnightblue" d="M680,-112.083C680,-105.006 680,-94.8611 680,-85.9865"/>
<polygon fill="midnightblue" stroke="midnightblue" points="683.5,-85.751 680,-75.7511 676.5,-85.7511 683.5,-85.751"/>
</g>
<!-- Node7&#45;&gt;Node1 -->
<g id="edge9" class="edge"><title>Node7&#45;&gt;Node1</title>
<path fill="none" stroke="midnightblue" d="M104.19,-129.743C110.222,-130.565 116.257,-131.345 122,-132 310.609,-153.522 532.318,-169.184 651.308,-176.963"/>
<polygon fill="midnightblue" stroke="midnightblue" points="651.241,-180.466 661.447,-177.623 651.695,-173.481 651.241,-180.466"/>
</g>
<!-- Node7&#45;&gt;Node3 -->
<g id="edge13" class="edge"><title>Node7&#45;&gt;Node3</title>
<path fill="none" stroke="midnightblue" d="M94.6193,-112.462C161.289,-99.2766 294.388,-73.642 408,-56 525.976,-37.6803 667.102,-21.2428 728.247,-14.3866"/>
<polygon fill="midnightblue" stroke="midnightblue" points="728.823,-17.8441 738.374,-13.2569 728.047,-10.8873 728.823,-17.8441"/>
</g>
<!-- Node8 -->
<g id="node9" class="node"><title>Node8</title>
<g id="a_node9"><a xlink:href="../../dd/d35/Colorize_8hpp.html" target="_top" xlink:title="tools/Colorize.hpp">
<polygon fill="white" stroke="black" points="41.5,-56.5 41.5,-75.5 136.5,-75.5 136.5,-56.5 41.5,-56.5"/>
<text text-anchor="middle" x="89" y="-63.5" font-family="Helvetica,sans-Serif" font-size="10.00">tools/Colorize.hpp</text>
</a>
</g>
</g>
<!-- Node7&#45;&gt;Node8 -->
<g id="edge10" class="edge"><title>Node7&#45;&gt;Node8</title>
<path fill="none" stroke="midnightblue" d="M58.1098,-112.083C63.2822,-104.534 70.8461,-93.4948 77.1944,-84.2298"/>
<polygon fill="midnightblue" stroke="midnightblue" points="80.2388,-85.9787 83.0039,-75.7511 74.4643,-82.0221 80.2388,-85.9787"/>
</g>
<!-- Node8&#45;&gt;Node3 -->
<g id="edge12" class="edge"><title>Node8&#45;&gt;Node3</title>
<path fill="none" stroke="midnightblue" d="M136.576,-60.5582C152.878,-59.0673 171.233,-57.4228 188,-56 394.192,-38.5034 642.472,-19.7169 728.165,-13.2991"/>
<polygon fill="midnightblue" stroke="midnightblue" points="728.541,-16.7809 738.252,-12.5446 728.018,-9.8004 728.541,-16.7809"/>
</g>
<!-- Node9 -->
<g id="node10" class="node"><title>Node9</title>
<polygon fill="white" stroke="#bfbfbf" points="63,-0.5 63,-19.5 115,-19.5 115,-0.5 63,-0.5"/>
<text text-anchor="middle" x="89" y="-7.5" font-family="Helvetica,sans-Serif" font-size="10.00">sstream</text>
</g>
<!-- Node8&#45;&gt;Node9 -->
<g id="edge11" class="edge"><title>Node8&#45;&gt;Node9</title>
<path fill="none" stroke="midnightblue" d="M89,-56.083C89,-49.0059 89,-38.8611 89,-29.9865"/>
<polygon fill="midnightblue" stroke="midnightblue" points="92.5001,-29.751 89,-19.7511 85.5001,-29.7511 92.5001,-29.751"/>
</g>
<!-- Node10&#45;&gt;Node1 -->
<g id="edge16" class="edge"><title>Node10&#45;&gt;Node1</title>
<path fill="none" stroke="midnightblue" d="M218.1,-129.496C224.159,-130.394 230.237,-131.26 236,-132 381.685,-150.698 551.553,-166.281 651.422,-174.991"/>
<polygon fill="midnightblue" stroke="midnightblue" points="651.194,-178.484 661.46,-175.864 651.801,-171.51 651.194,-178.484"/>
</g>
<!-- Node10&#45;&gt;Node3 -->
<g id="edge15" class="edge"><title>Node10&#45;&gt;Node3</title>
<path fill="none" stroke="midnightblue" d="M215.728,-112.46C331.009,-90.9304 631.222,-34.8634 728.262,-16.7406"/>
<polygon fill="midnightblue" stroke="midnightblue" points="729.111,-20.1427 738.298,-14.8662 727.826,-13.2616 729.111,-20.1427"/>
</g>
<!-- Node11&#45;&gt;Node1 -->
<g id="edge19" class="edge"><title>Node11&#45;&gt;Node1</title>
<path fill="none" stroke="midnightblue" d="M482.229,-131.509C538.741,-142.15 631.649,-160.367 688.341,-171.902"/>
<polygon fill="midnightblue" stroke="midnightblue" points="687.99,-175.403 698.488,-173.975 689.391,-168.544 687.99,-175.403"/>
</g>
<!-- Node11&#45;&gt;Node3 -->
<g id="edge18" class="edge"><title>Node11&#45;&gt;Node3</title>
<path fill="none" stroke="midnightblue" d="M456.616,-112.458C490.613,-99.702 556.986,-75.13 614,-56 653.342,-42.7995 699.135,-28.8158 728.565,-20.0048"/>
<polygon fill="midnightblue" stroke="midnightblue" points="729.673,-23.3267 738.255,-17.1137 727.671,-16.6189 729.673,-23.3267"/>
</g>
<!-- Node12&#45;&gt;Node1 -->
<g id="edge22" class="edge"><title>Node12&#45;&gt;Node1</title>
<path fill="none" stroke="midnightblue" d="M587.639,-131.509C620.865,-141.752 673.305,-159.017 706.477,-170.583"/>
<polygon fill="midnightblue" stroke="midnightblue" points="705.516,-173.955 716.111,-173.975 707.841,-167.352 705.516,-173.955"/>
</g>
<!-- Node12&#45;&gt;Node3 -->
<g id="edge21" class="edge"><title>Node12&#45;&gt;Node3</title>
<path fill="none" stroke="midnightblue" d="M567.522,-112.357C584.093,-99.031 617.622,-73.2114 649,-56 674.885,-41.8015 706.199,-29.4168 728.786,-21.254"/>
<polygon fill="midnightblue" stroke="midnightblue" points="730.244,-24.4506 738.499,-17.8093 727.904,-17.8532 730.244,-24.4506"/>
</g>
<!-- Node13&#45;&gt;Node1 -->
<g id="edge25" class="edge"><title>Node13&#45;&gt;Node1</title>
<path fill="none" stroke="midnightblue" d="M791.603,-131.509C784.59,-140.781 770.309,-155.806 757.955,-167.15"/>
<polygon fill="midnightblue" stroke="midnightblue" points="755.398,-164.737 750.211,-173.975 760.027,-169.989 755.398,-164.737"/>
</g>
<!-- Node13&#45;&gt;Node3 -->
<g id="edge24" class="edge"><title>Node13&#45;&gt;Node3</title>
<path fill="none" stroke="midnightblue" d="M792.175,-112.368C786.339,-94.5366 772.842,-53.2953 764.98,-29.2717"/>
<polygon fill="midnightblue" stroke="midnightblue" points="768.249,-28.0067 761.812,-19.5914 761.596,-30.1841 768.249,-28.0067"/>
</g>
<!-- Node14&#45;&gt;Node1 -->
<g id="edge27" class="edge"><title>Node14&#45;&gt;Node1</title>
<path fill="none" stroke="midnightblue" d="M885.014,-131.509C858.388,-141.797 809.84,-159.166 775.535,-170.732"/>
<polygon fill="midnightblue" stroke="midnightblue" points="774.203,-167.487 765.828,-173.975 776.421,-174.126 774.203,-167.487"/>
</g>
<!-- Node14&#45;&gt;Node3 -->
<g id="edge28" class="edge"><title>Node14&#45;&gt;Node3</title>
<path fill="none" stroke="midnightblue" d="M892.622,-112.368C867.952,-93.6531 809.29,-49.1509 778.552,-25.8324"/>
<polygon fill="midnightblue" stroke="midnightblue" points="780.407,-22.8469 770.325,-19.5914 776.177,-28.4237 780.407,-22.8469"/>
</g>
<!-- Node15&#45;&gt;Node1 -->
<g id="edge31" class="edge"><title>Node15&#45;&gt;Node1</title>
<path fill="none" stroke="midnightblue" d="M987.853,-131.509C938.751,-142.172 850.754,-160.443 793.068,-171.974"/>
<polygon fill="midnightblue" stroke="midnightblue" points="792.144,-168.589 783.021,-173.975 793.512,-175.454 792.144,-168.589"/>
</g>
<!-- Node15&#45;&gt;Node3 -->
<g id="edge30" class="edge"><title>Node15&#45;&gt;Node3</title>
<path fill="none" stroke="midnightblue" d="M1003.21,-112.368C956.571,-93.0105 843.474,-46.0645 789.131,-23.5074"/>
<polygon fill="midnightblue" stroke="midnightblue" points="790.275,-20.1927 779.698,-19.5914 787.592,-26.6578 790.275,-20.1927"/>
</g>
<!-- Node16&#45;&gt;Node1 -->
<g id="edge34" class="edge"><title>Node16&#45;&gt;Node1</title>
<path fill="none" stroke="midnightblue" d="M1099.47,-131.502C1098.31,-131.67 1097.15,-131.836 1096,-132 977.896,-148.849 947.911,-149.85 830,-168 821.392,-169.325 812.302,-170.807 803.298,-172.304"/>
<polygon fill="midnightblue" stroke="midnightblue" points="802.485,-168.891 793.199,-173.993 803.639,-175.796 802.485,-168.891"/>
</g>
<!-- Node16&#45;&gt;Node3 -->
<g id="edge33" class="edge"><title>Node16&#45;&gt;Node3</title>
<path fill="none" stroke="midnightblue" d="M1116.88,-112.46C1044.75,-92.0123 862.741,-40.4111 789.867,-19.751"/>
<polygon fill="midnightblue" stroke="midnightblue" points="790.509,-16.295 779.933,-16.9346 788.599,-23.0296 790.509,-16.295"/>
</g>
<!-- Node17&#45;&gt;Node1 -->
<g id="edge37" class="edge"><title>Node17&#45;&gt;Node1</title>
<path fill="none" stroke="midnightblue" d="M1218.86,-131.524C1217.57,-131.687 1216.28,-131.846 1215,-132 1044.38,-152.55 1000.36,-145.366 830,-168 820.745,-169.23 810.951,-170.734 801.31,-172.302"/>
<polygon fill="midnightblue" stroke="midnightblue" points="800.641,-168.865 791.347,-173.952 801.785,-175.771 800.641,-168.865"/>
</g>
<!-- Node17&#45;&gt;Node3 -->
<g id="edge36" class="edge"><title>Node17&#45;&gt;Node3</title>
<path fill="none" stroke="midnightblue" d="M1227.69,-112.479C1170.37,-100.054 1060.49,-76.2418 967,-56 903.885,-42.3352 829.994,-26.3529 789.463,-17.5876"/>
<polygon fill="midnightblue" stroke="midnightblue" points="790.18,-14.1617 779.666,-15.4689 788.7,-21.0036 790.18,-14.1617"/>
</g>
</g>
</svg>
