<?xml version="1.0" encoding="UTF-8" standalone="no"?>
<!DOCTYPE svg PUBLIC "-//W3C//DTD SVG 1.1//EN"
 "http://www.w3.org/Graphics/SVG/1.1/DTD/svg11.dtd">
<!-- Generated by graphviz version 2.43.0 (0)
 -->
<!-- Title: Leosac::Module::TCPNotifier::NotifierInstance Pages: 1 -->
<svg width="963pt" height="100pt"
 viewBox="0.00 0.00 963.00 99.50" xmlns="http://www.w3.org/2000/svg" xmlns:xlink="http://www.w3.org/1999/xlink">
<g id="graph0" class="graph" transform="scale(1 1) rotate(0) translate(4 95.5)">
<title>Leosac::Module::TCPNotifier::NotifierInstance</title>
<polygon fill="white" stroke="transparent" points="-4,4 -4,-95.5 959,-95.5 959,4 -4,4"/>
<!-- Node1 -->
<g id="node1" class="node">
<title>Node1</title>
<g id="a_node1"><a xlink:title="This is an instance of the Notifier.">
<polygon fill="#bfbfbf" stroke="black" points="803,-33 803,-63 955,-63 955,-33 803,-33"/>
<text text-anchor="start" x="811" y="-51" font-family="Helvetica,sans-Serif" font-size="10.00">Leosac::Module::TCPNotifier</text>
<text text-anchor="middle" x="879" y="-40" font-family="Helvetica,sans-Serif" font-size="10.00">::NotifierInstance</text>
</a>
</g>
</g>
<!-- Node2 -->
<g id="node2" class="node">
<title>Node2</title>
<g id="a_node2"><a xlink:title=" ">
<polygon fill="white" stroke="#bfbfbf" points="565,-61 565,-91 705,-91 705,-61 565,-61"/>
<text text-anchor="start" x="573" y="-79" font-family="Helvetica,sans-Serif" font-size="10.00">std::unique_ptr&lt; Protocol</text>
<text text-anchor="middle" x="635" y="-68" font-family="Helvetica,sans-Serif" font-size="10.00">Handler &gt;</text>
</a>
</g>
</g>
<!-- Node2&#45;&gt;Node1 -->
<g id="edge1" class="edge">
<title>Node2&#45;&gt;Node1</title>
<path fill="none" stroke="#9a32cd" stroke-dasharray="5,2" d="M715.25,-66.83C743.45,-63.57 775.11,-59.9 802.95,-56.68"/>
<polygon fill="#9a32cd" stroke="#9a32cd" points="714.56,-63.39 705.02,-68.01 715.36,-70.34 714.56,-63.39"/>
<text text-anchor="middle" x="760.5" y="-66" font-family="Helvetica,sans-Serif" font-size="10.00"> protocol_</text>
</g>
<!-- Node3 -->
<g id="node3" class="node">
<title>Node3</title>
<g id="a_node3"><a xlink:href="../../d6/d42/classLeosac_1_1Module_1_1TCPNotifier_1_1ProtocolHandler.html" target="_top" xlink:title="Implements a given (TCP) protocol for notifying clients.">
<polygon fill="white" stroke="black" points="313.5,-61 313.5,-91 465.5,-91 465.5,-61 313.5,-61"/>
<text text-anchor="start" x="321.5" y="-79" font-family="Helvetica,sans-Serif" font-size="10.00">Leosac::Module::TCPNotifier</text>
<text text-anchor="middle" x="389.5" y="-68" font-family="Helvetica,sans-Serif" font-size="10.00">::ProtocolHandler</text>
</a>
</g>
</g>
<!-- Node3&#45;&gt;Node2 -->
<g id="edge2" class="edge">
<title>Node3&#45;&gt;Node2</title>
<path fill="none" stroke="#9a32cd" stroke-dasharray="5,2" d="M475.69,-76C504.77,-76 536.91,-76 564.6,-76"/>
<polygon fill="#9a32cd" stroke="#9a32cd" points="475.54,-72.5 465.54,-76 475.54,-79.5 475.54,-72.5"/>
<text text-anchor="middle" x="509.5" y="-79" font-family="Helvetica,sans-Serif" font-size="10.00"> ptr</text>
</g>
<!-- Node4 -->
<g id="node4" class="node">
<title>Node4</title>
<g id="a_node4"><a xlink:title=" ">
<polygon fill="white" stroke="#bfbfbf" points="552,-0.5 552,-41.5 718,-41.5 718,-0.5 552,-0.5"/>
<text text-anchor="start" x="560" y="-29.5" font-family="Helvetica,sans-Serif" font-size="10.00">std::list&lt; Leosac::</text>
<text text-anchor="start" x="560" y="-18.5" font-family="Helvetica,sans-Serif" font-size="10.00">Module::TCPNotifier</text>
<text text-anchor="middle" x="635" y="-7.5" font-family="Helvetica,sans-Serif" font-size="10.00">::NotifierInstance::TargetInfo &gt;</text>
</a>
</g>
</g>
<!-- Node4&#45;&gt;Node1 -->
<g id="edge3" class="edge">
<title>Node4&#45;&gt;Node1</title>
<path fill="none" stroke="#9a32cd" stroke-dasharray="5,2" d="M728.39,-30.76C747.13,-32.79 766.7,-34.94 785,-37 790.82,-37.66 796.84,-38.35 802.89,-39.05"/>
<polygon fill="#9a32cd" stroke="#9a32cd" points="728.7,-27.28 718.38,-29.69 727.95,-34.24 728.7,-27.28"/>
<text text-anchor="middle" x="760.5" y="-40" font-family="Helvetica,sans-Serif" font-size="10.00"> targets_</text>
</g>
<!-- Node5 -->
<g id="node5" class="node">
<title>Node5</title>
<g id="a_node5"><a xlink:href="../../da/dae/structLeosac_1_1Module_1_1TCPNotifier_1_1NotifierInstance_1_1TargetInfo.html" target="_top" xlink:title="Some information for each tcp server target.">
<polygon fill="white" stroke="black" points="312,-6 312,-36 467,-36 467,-6 312,-6"/>
<text text-anchor="start" x="320" y="-24" font-family="Helvetica,sans-Serif" font-size="10.00">Leosac::Module::TCPNotifier</text>
<text text-anchor="middle" x="389.5" y="-13" font-family="Helvetica,sans-Serif" font-size="10.00">::NotifierInstance::TargetInfo</text>
</a>
</g>
</g>
<!-- Node5&#45;&gt;Node4 -->
<g id="edge4" class="edge">
<title>Node5&#45;&gt;Node4</title>
<path fill="none" stroke="#9a32cd" stroke-dasharray="5,2" d="M477.45,-21C501.65,-21 527.85,-21 551.77,-21"/>
<polygon fill="#9a32cd" stroke="#9a32cd" points="477.21,-17.5 467.21,-21 477.21,-24.5 477.21,-17.5"/>
<text text-anchor="middle" x="509.5" y="-24" font-family="Helvetica,sans-Serif" font-size="10.00"> elements</text>
</g>
<!-- Node6 -->
<g id="node6" class="node">
<title>Node6</title>
<g id="a_node6"><a xlink:title="STL class.">
<polygon fill="white" stroke="#bfbfbf" points="141,-11.5 141,-30.5 206,-30.5 206,-11.5 141,-11.5"/>
<text text-anchor="middle" x="173.5" y="-18.5" font-family="Helvetica,sans-Serif" font-size="10.00">std::string</text>
</a>
</g>
</g>
<!-- Node6&#45;&gt;Node5 -->
<g id="edge5" class="edge">
<title>Node6&#45;&gt;Node5</title>
<path fill="none" stroke="#9a32cd" stroke-dasharray="5,2" d="M216.38,-21C243.54,-21 279.73,-21 311.92,-21"/>
<polygon fill="#9a32cd" stroke="#9a32cd" points="216.08,-17.5 206.08,-21 216.08,-24.5 216.08,-17.5"/>
<text text-anchor="middle" x="259" y="-35" font-family="Helvetica,sans-Serif" font-size="10.00"> url_</text>
<text text-anchor="middle" x="259" y="-24" font-family="Helvetica,sans-Serif" font-size="10.00">zmq_identity_</text>
</g>
<!-- Node7 -->
<g id="node7" class="node">
<title>Node7</title>
<g id="a_node7"><a xlink:title="STL class.">
<polygon fill="white" stroke="#bfbfbf" points="0,-6 0,-36 104,-36 104,-6 0,-6"/>
<text text-anchor="start" x="8" y="-24" font-family="Helvetica,sans-Serif" font-size="10.00">std::basic_string&lt;</text>
<text text-anchor="middle" x="52" y="-13" font-family="Helvetica,sans-Serif" font-size="10.00"> char &gt;</text>
</a>
</g>
</g>
<!-- Node7&#45;&gt;Node6 -->
<g id="edge6" class="edge">
<title>Node7&#45;&gt;Node6</title>
<path fill="none" stroke="midnightblue" d="M114.1,-21C123.41,-21 132.68,-21 141,-21"/>
<polygon fill="midnightblue" stroke="midnightblue" points="114.03,-17.5 104.03,-21 114.03,-24.5 114.03,-17.5"/>
</g>
</g>
</svg>
