<?xml version="1.0" encoding="UTF-8" standalone="no"?>
<!DOCTYPE svg PUBLIC "-//W3C//DTD SVG 1.1//EN"
 "http://www.w3.org/Graphics/SVG/1.1/DTD/svg11.dtd">
<!-- Generated by graphviz version 2.43.0 (0)
 -->
<!-- Title: src/core/audit/IAccessPointEvent.hpp Pages: 1 -->
<svg width="420pt" height="173pt"
 viewBox="0.00 0.00 420.00 173.00" xmlns="http://www.w3.org/2000/svg" xmlns:xlink="http://www.w3.org/1999/xlink">
<g id="graph0" class="graph" transform="scale(1 1) rotate(0) translate(4 169)">
<title>src/core/audit/IAccessPointEvent.hpp</title>
<polygon fill="white" stroke="transparent" points="-4,4 -4,-169 416,-169 416,4 -4,4"/>
<!-- Node1 -->
<g id="node1" class="node">
<title>Node1</title>
<g id="a_node1"><a xlink:title=" ">
<polygon fill="#bfbfbf" stroke="black" points="170.5,-134.5 170.5,-164.5 317.5,-164.5 317.5,-134.5 170.5,-134.5"/>
<text text-anchor="start" x="178.5" y="-152.5" font-family="Helvetica,sans-Serif" font-size="10.00">src/core/audit/IAccessPoint</text>
<text text-anchor="middle" x="244" y="-141.5" font-family="Helvetica,sans-Serif" font-size="10.00">Event.hpp</text>
</a>
</g>
</g>
<!-- Node2 -->
<g id="node2" class="node">
<title>Node2</title>
<g id="a_node2"><a xlink:href="../../d6/dbe/AccessPointEvent_8hpp.html" target="_top" xlink:title=" ">
<polygon fill="white" stroke="black" points="86,-67.5 86,-97.5 230,-97.5 230,-67.5 86,-67.5"/>
<text text-anchor="start" x="94" y="-85.5" font-family="Helvetica,sans-Serif" font-size="10.00">src/core/audit/AccessPoint</text>
<text text-anchor="middle" x="158" y="-74.5" font-family="Helvetica,sans-Serif" font-size="10.00">Event.hpp</text>
</a>
</g>
</g>
<!-- Node1&#45;&gt;Node2 -->
<g id="edge1" class="edge">
<title>Node1&#45;&gt;Node2</title>
<path fill="none" stroke="midnightblue" d="M217.1,-128.17C203.95,-118.23 188.45,-106.51 176.62,-97.58"/>
<polygon fill="midnightblue" stroke="midnightblue" points="215.25,-131.16 225.34,-134.4 219.47,-125.57 215.25,-131.16"/>
</g>
<!-- Node5 -->
<g id="node5" class="node">
<title>Node5</title>
<g id="a_node5"><a xlink:href="../../d7/d29/AccessPointCRUD_8cpp.html" target="_top" xlink:title=" ">
<polygon fill="white" stroke="black" points="248,-67.5 248,-97.5 412,-97.5 412,-67.5 248,-67.5"/>
<text text-anchor="start" x="256" y="-85.5" font-family="Helvetica,sans-Serif" font-size="10.00">src/modules/websock</text>
<text text-anchor="middle" x="330" y="-74.5" font-family="Helvetica,sans-Serif" font-size="10.00">&#45;api/api/AccessPointCRUD.cpp</text>
</a>
</g>
</g>
<!-- Node1&#45;&gt;Node5 -->
<g id="edge4" class="edge">
<title>Node1&#45;&gt;Node5</title>
<path fill="none" stroke="midnightblue" d="M270.9,-128.17C284.05,-118.23 299.55,-106.51 311.38,-97.58"/>
<polygon fill="midnightblue" stroke="midnightblue" points="268.53,-125.57 262.66,-134.4 272.75,-131.16 268.53,-125.57"/>
</g>
<!-- Node3 -->
<g id="node3" class="node">
<title>Node3</title>
<g id="a_node3"><a xlink:href="../../d0/d15/AccessPointEvent_8cpp.html" target="_top" xlink:title=" ">
<polygon fill="white" stroke="black" points="0,-0.5 0,-30.5 144,-30.5 144,-0.5 0,-0.5"/>
<text text-anchor="start" x="8" y="-18.5" font-family="Helvetica,sans-Serif" font-size="10.00">src/core/audit/AccessPoint</text>
<text text-anchor="middle" x="72" y="-7.5" font-family="Helvetica,sans-Serif" font-size="10.00">Event.cpp</text>
</a>
</g>
</g>
<!-- Node2&#45;&gt;Node3 -->
<g id="edge2" class="edge">
<title>Node2&#45;&gt;Node3</title>
<path fill="none" stroke="midnightblue" d="M131.1,-61.17C117.95,-51.23 102.45,-39.51 90.62,-30.58"/>
<polygon fill="midnightblue" stroke="midnightblue" points="129.25,-64.16 139.34,-67.4 133.47,-58.57 129.25,-64.16"/>
</g>
<!-- Node4 -->
<g id="node4" class="node">
<title>Node4</title>
<g id="a_node4"><a xlink:href="../../d4/dbe/AuditFactory_8cpp.html" target="_top" xlink:title=" ">
<polygon fill="white" stroke="black" points="162.5,-6 162.5,-25 327.5,-25 327.5,-6 162.5,-6"/>
<text text-anchor="middle" x="245" y="-13" font-family="Helvetica,sans-Serif" font-size="10.00">src/core/audit/AuditFactory.cpp</text>
</a>
</g>
</g>
<!-- Node2&#45;&gt;Node4 -->
<g id="edge3" class="edge">
<title>Node2&#45;&gt;Node4</title>
<path fill="none" stroke="midnightblue" d="M184.98,-61.34C201.22,-49.21 221.06,-34.39 233.36,-25.19"/>
<polygon fill="midnightblue" stroke="midnightblue" points="182.79,-58.61 176.88,-67.4 186.98,-64.21 182.79,-58.61"/>
</g>
</g>
</svg>
