<?xml version="1.0" encoding="UTF-8" standalone="no"?>
<!DOCTYPE svg PUBLIC "-//W3C//DTD SVG 1.1//EN"
 "http://www.w3.org/Graphics/SVG/1.1/DTD/svg11.dtd">
<!-- Generated by graphviz version 2.43.0 (0)
 -->
<!-- Title: Leosac::Tools::RuntimeOptions Pages: 1 -->
<svg width="317pt" height="252pt"
 viewBox="0.00 0.00 317.00 252.00" xmlns="http://www.w3.org/2000/svg" xmlns:xlink="http://www.w3.org/1999/xlink">
<g id="graph0" class="graph" transform="scale(1 1) rotate(0) translate(4 248)">
<title>Leosac::Tools::RuntimeOptions</title>
<polygon fill="white" stroke="transparent" points="-4,4 -4,-248 313,-248 313,4 -4,4"/>
<!-- Node1 -->
<g id="node1" class="node">
<title>Node1</title>
<g id="a_node1"><a xlink:title="Holds informations about runtime options, such as &quot;is this a verbose run&quot; or path to configurations f...">
<polygon fill="#bfbfbf" stroke="black" points="0,-0.5 0,-19.5 166,-19.5 166,-0.5 0,-0.5"/>
<text text-anchor="middle" x="83" y="-7.5" font-family="Helvetica,sans-Serif" font-size="10.00">Leosac::Tools::RuntimeOptions</text>
</a>
</g>
</g>
<!-- Node2 -->
<g id="node2" class="node">
<title>Node2</title>
<g id="a_node2"><a xlink:title=" ">
<polygon fill="white" stroke="#bfbfbf" points="187,-67.5 187,-97.5 309,-97.5 309,-67.5 187,-67.5"/>
<text text-anchor="start" x="195" y="-85.5" font-family="Helvetica,sans-Serif" font-size="10.00">std::map&lt; std::string,</text>
<text text-anchor="middle" x="248" y="-74.5" font-family="Helvetica,sans-Serif" font-size="10.00"> std::string &gt;</text>
</a>
</g>
</g>
<!-- Node2&#45;&gt;Node1 -->
<g id="edge1" class="edge">
<title>Node2&#45;&gt;Node1</title>
<path fill="none" stroke="#9a32cd" stroke-dasharray="5,2" d="M205.59,-63.38C172.59,-49.28 128.29,-30.35 102.97,-19.53"/>
<polygon fill="#9a32cd" stroke="#9a32cd" points="204.44,-66.69 215.01,-67.4 207.19,-60.26 204.44,-66.69"/>
<text text-anchor="middle" x="193" y="-41" font-family="Helvetica,sans-Serif" font-size="10.00"> _params</text>
</g>
<!-- Node3 -->
<g id="node3" class="node">
<title>Node3</title>
<g id="a_node3"><a xlink:title="STL class.">
<polygon fill="white" stroke="#bfbfbf" points="50.5,-156.5 50.5,-175.5 115.5,-175.5 115.5,-156.5 50.5,-156.5"/>
<text text-anchor="middle" x="83" y="-163.5" font-family="Helvetica,sans-Serif" font-size="10.00">std::string</text>
</a>
</g>
</g>
<!-- Node3&#45;&gt;Node1 -->
<g id="edge4" class="edge">
<title>Node3&#45;&gt;Node1</title>
<path fill="none" stroke="#9a32cd" stroke-dasharray="5,2" d="M80.18,-146.28C77.55,-126.57 74.28,-94.61 76,-67 77.05,-50.18 79.85,-30.68 81.57,-19.7"/>
<polygon fill="#9a32cd" stroke="#9a32cd" points="76.73,-146.94 81.61,-156.35 83.66,-145.96 76.73,-146.94"/>
<text text-anchor="middle" x="127" y="-80" font-family="Helvetica,sans-Serif" font-size="10.00"> DefaultEmptyParam</text>
</g>
<!-- Node3&#45;&gt;Node2 -->
<g id="edge2" class="edge">
<title>Node3&#45;&gt;Node2</title>
<path fill="none" stroke="#9a32cd" stroke-dasharray="5,2" d="M109.42,-151.95C139.57,-137.06 188.7,-112.79 219.63,-97.51"/>
<polygon fill="#9a32cd" stroke="#9a32cd" points="107.76,-148.87 100.35,-156.43 110.86,-155.14 107.76,-148.87"/>
<text text-anchor="middle" x="203" y="-130" font-family="Helvetica,sans-Serif" font-size="10.00"> keys</text>
<text text-anchor="middle" x="203" y="-119" font-family="Helvetica,sans-Serif" font-size="10.00">elements</text>
</g>
<!-- Node4 -->
<g id="node4" class="node">
<title>Node4</title>
<g id="a_node4"><a xlink:title="STL class.">
<polygon fill="white" stroke="#bfbfbf" points="31,-213.5 31,-243.5 135,-243.5 135,-213.5 31,-213.5"/>
<text text-anchor="start" x="39" y="-231.5" font-family="Helvetica,sans-Serif" font-size="10.00">std::basic_string&lt;</text>
<text text-anchor="middle" x="83" y="-220.5" font-family="Helvetica,sans-Serif" font-size="10.00"> char &gt;</text>
</a>
</g>
</g>
<!-- Node4&#45;&gt;Node3 -->
<g id="edge3" class="edge">
<title>Node4&#45;&gt;Node3</title>
<path fill="none" stroke="midnightblue" d="M83,-203.35C83,-193.51 83,-182.78 83,-175.54"/>
<polygon fill="midnightblue" stroke="midnightblue" points="79.5,-203.47 83,-213.47 86.5,-203.47 79.5,-203.47"/>
</g>
</g>
</svg>
