<?xml version="1.0" encoding="UTF-8" standalone="no"?>
<!DOCTYPE svg PUBLIC "-//W3C//DTD SVG 1.1//EN"
 "http://www.w3.org/Graphics/SVG/1.1/DTD/svg11.dtd">
<!-- Generated by graphviz version 2.43.0 (0)
 -->
<!-- Title: src/core/config/RemoteConfigCollector.hpp Pages: 1 -->
<svg width="836pt" height="173pt"
 viewBox="0.00 0.00 836.00 173.00" xmlns="http://www.w3.org/2000/svg" xmlns:xlink="http://www.w3.org/1999/xlink">
<g id="graph0" class="graph" transform="scale(1 1) rotate(0) translate(4 169)">
<title>src/core/config/RemoteConfigCollector.hpp</title>
<polygon fill="white" stroke="transparent" points="-4,4 -4,-169 832,-169 832,4 -4,4"/>
<!-- Node1 -->
<g id="node1" class="node">
<title>Node1</title>
<g id="a_node1"><a xlink:title=" ">
<polygon fill="#bfbfbf" stroke="black" points="174,-134.5 174,-164.5 333,-164.5 333,-134.5 174,-134.5"/>
<text text-anchor="start" x="182" y="-152.5" font-family="Helvetica,sans-Serif" font-size="10.00">src/core/config/RemoteConfig</text>
<text text-anchor="middle" x="253.5" y="-141.5" font-family="Helvetica,sans-Serif" font-size="10.00">Collector.hpp</text>
</a>
</g>
</g>
<!-- Node2 -->
<g id="node2" class="node">
<title>Node2</title>
<g id="a_node2"><a xlink:href="../../da/db5/RemoteConfigCollector_8cpp.html" target="_top" xlink:title=" ">
<polygon fill="white" stroke="black" points="0,-0.5 0,-30.5 159,-30.5 159,-0.5 0,-0.5"/>
<text text-anchor="start" x="8" y="-18.5" font-family="Helvetica,sans-Serif" font-size="10.00">src/core/config/RemoteConfig</text>
<text text-anchor="middle" x="79.5" y="-7.5" font-family="Helvetica,sans-Serif" font-size="10.00">Collector.cpp</text>
</a>
</g>
</g>
<!-- Node1&#45;&gt;Node2 -->
<g id="edge1" class="edge">
<title>Node1&#45;&gt;Node2</title>
<path fill="none" stroke="midnightblue" d="M226.85,-128.28C191.2,-101.24 128.9,-53.98 97.99,-30.52"/>
<polygon fill="midnightblue" stroke="midnightblue" points="224.8,-131.12 234.88,-134.37 229.03,-125.54 224.8,-131.12"/>
</g>
<!-- Node3 -->
<g id="node3" class="node">
<title>Node3</title>
<g id="a_node3"><a xlink:href="../../d4/d28/RemoteControl_8cpp.html" target="_top" xlink:title=" ">
<polygon fill="white" stroke="black" points="177.5,-6 177.5,-25 329.5,-25 329.5,-6 177.5,-6"/>
<text text-anchor="middle" x="253.5" y="-13" font-family="Helvetica,sans-Serif" font-size="10.00">src/core/RemoteControl.cpp</text>
</a>
</g>
</g>
<!-- Node1&#45;&gt;Node3 -->
<g id="edge2" class="edge">
<title>Node1&#45;&gt;Node3</title>
<path fill="none" stroke="midnightblue" d="M253.5,-124.32C253.5,-94.38 253.5,-44.91 253.5,-25.1"/>
<polygon fill="midnightblue" stroke="midnightblue" points="250,-124.37 253.5,-134.37 257,-124.37 250,-124.37"/>
</g>
<!-- Node4 -->
<g id="node4" class="node">
<title>Node4</title>
<g id="a_node4"><a xlink:href="../../d2/df7/FetchRemoteConfig_8hpp.html" target="_top" xlink:title=" ">
<polygon fill="white" stroke="black" points="314.5,-67.5 314.5,-97.5 466.5,-97.5 466.5,-67.5 314.5,-67.5"/>
<text text-anchor="start" x="322.5" y="-85.5" font-family="Helvetica,sans-Serif" font-size="10.00">src/core/tasks/FetchRemote</text>
<text text-anchor="middle" x="390.5" y="-74.5" font-family="Helvetica,sans-Serif" font-size="10.00">Config.hpp</text>
</a>
</g>
</g>
<!-- Node1&#45;&gt;Node4 -->
<g id="edge3" class="edge">
<title>Node1&#45;&gt;Node4</title>
<path fill="none" stroke="midnightblue" d="M292.51,-129.99C314.22,-119.69 340.83,-107.07 360.83,-97.58"/>
<polygon fill="midnightblue" stroke="midnightblue" points="290.76,-126.95 283.23,-134.4 293.76,-133.27 290.76,-126.95"/>
</g>
<!-- Node4&#45;&gt;Node2 -->
<g id="edge4" class="edge">
<title>Node4&#45;&gt;Node2</title>
<path fill="none" stroke="midnightblue" d="M313.38,-65.38C262.23,-54.69 195.75,-40.8 146.75,-30.55"/>
<polygon fill="midnightblue" stroke="midnightblue" points="312.9,-68.86 323.4,-67.48 314.33,-62 312.9,-68.86"/>
</g>
<!-- Node4&#45;&gt;Node3 -->
<g id="edge5" class="edge">
<title>Node4&#45;&gt;Node3</title>
<path fill="none" stroke="midnightblue" d="M351.44,-62.97C325.12,-50.48 291.64,-34.6 271.43,-25.01"/>
<polygon fill="midnightblue" stroke="midnightblue" points="350.24,-66.27 360.77,-67.4 353.24,-59.95 350.24,-66.27"/>
</g>
<!-- Node5 -->
<g id="node5" class="node">
<title>Node5</title>
<g id="a_node5"><a xlink:href="../../de/d4e/FetchRemoteConfig_8cpp.html" target="_top" xlink:title=" ">
<polygon fill="white" stroke="black" points="347.5,-0.5 347.5,-30.5 499.5,-30.5 499.5,-0.5 347.5,-0.5"/>
<text text-anchor="start" x="355.5" y="-18.5" font-family="Helvetica,sans-Serif" font-size="10.00">src/core/tasks/FetchRemote</text>
<text text-anchor="middle" x="423.5" y="-7.5" font-family="Helvetica,sans-Serif" font-size="10.00">Config.cpp</text>
</a>
</g>
</g>
<!-- Node4&#45;&gt;Node5 -->
<g id="edge6" class="edge">
<title>Node4&#45;&gt;Node5</title>
<path fill="none" stroke="midnightblue" d="M402.29,-58.28C406.99,-49.02 412.25,-38.66 416.35,-30.58"/>
<polygon fill="midnightblue" stroke="midnightblue" points="399.07,-56.89 397.66,-67.4 405.31,-60.06 399.07,-56.89"/>
</g>
<!-- Node6 -->
<g id="node6" class="node">
<title>Node6</title>
<g id="a_node6"><a xlink:href="../../d5/d8e/SyncConfig_8cpp.html" target="_top" xlink:title=" ">
<polygon fill="white" stroke="black" points="518,-6 518,-25 679,-25 679,-6 518,-6"/>
<text text-anchor="middle" x="598.5" y="-13" font-family="Helvetica,sans-Serif" font-size="10.00">src/core/tasks/SyncConfig.cpp</text>
</a>
</g>
</g>
<!-- Node4&#45;&gt;Node6 -->
<g id="edge7" class="edge">
<title>Node4&#45;&gt;Node6</title>
<path fill="none" stroke="midnightblue" d="M445.12,-64.43C485.69,-51.75 539.3,-35 571.21,-25.03"/>
<polygon fill="midnightblue" stroke="midnightblue" points="443.88,-61.15 435.38,-67.48 445.97,-67.83 443.88,-61.15"/>
</g>
<!-- Node7 -->
<g id="node7" class="node">
<title>Node7</title>
<g id="a_node7"><a xlink:href="../../d2/dac/ReplicationModule_8cpp.html" target="_top" xlink:title=" ">
<polygon fill="white" stroke="black" points="697,-0.5 697,-30.5 828,-30.5 828,-0.5 697,-0.5"/>
<text text-anchor="start" x="705" y="-18.5" font-family="Helvetica,sans-Serif" font-size="10.00">src/modules/replication</text>
<text text-anchor="middle" x="762.5" y="-7.5" font-family="Helvetica,sans-Serif" font-size="10.00">/ReplicationModule.cpp</text>
</a>
</g>
</g>
<!-- Node4&#45;&gt;Node7 -->
<g id="edge8" class="edge">
<title>Node4&#45;&gt;Node7</title>
<path fill="none" stroke="midnightblue" d="M476.65,-67.5C536.22,-57.67 617.26,-44.01 688.5,-31 691.2,-30.51 693.96,-30 696.75,-29.47"/>
<polygon fill="midnightblue" stroke="midnightblue" points="475.83,-64.09 466.53,-69.17 476.97,-70.99 475.83,-64.09"/>
</g>
</g>
</svg>
