<?xml version="1.0" encoding="UTF-8" standalone="no"?>
<!DOCTYPE svg PUBLIC "-//W3C//DTD SVG 1.1//EN"
 "http://www.w3.org/Graphics/SVG/1.1/DTD/svg11.dtd">
<!-- Generated by graphviz version 2.43.0 (0)
 -->
<!-- Title: src/hardware/HardwareService.hpp Pages: 1 -->
<svg width="1479pt" height="95pt"
 viewBox="0.00 0.00 1478.50 95.00" xmlns="http://www.w3.org/2000/svg" xmlns:xlink="http://www.w3.org/1999/xlink">
<g id="graph0" class="graph" transform="scale(1 1) rotate(0) translate(4 91)">
<title>src/hardware/HardwareService.hpp</title>
<polygon fill="white" stroke="transparent" points="-4,4 -4,-91 1474.5,-91 1474.5,4 -4,4"/>
<!-- Node1 -->
<g id="node1" class="node">
<title>Node1</title>
<g id="a_node1"><a xlink:title=" ">
<polygon fill="#bfbfbf" stroke="black" points="610.5,-67.5 610.5,-86.5 797.5,-86.5 797.5,-67.5 610.5,-67.5"/>
<text text-anchor="middle" x="704" y="-74.5" font-family="Helvetica,sans-Serif" font-size="10.00">src/hardware/HardwareService.hpp</text>
</a>
</g>
</g>
<!-- Node2 -->
<g id="node2" class="node">
<title>Node2</title>
<g id="a_node2"><a xlink:href="../../dd/d24/kernel_8cpp.html" target="_top" xlink:title=" ">
<polygon fill="white" stroke="black" points="0,-6 0,-25 108,-25 108,-6 0,-6"/>
<text text-anchor="middle" x="54" y="-13" font-family="Helvetica,sans-Serif" font-size="10.00">src/core/kernel.cpp</text>
</a>
</g>
</g>
<!-- Node1&#45;&gt;Node2 -->
<g id="edge1" class="edge">
<title>Node1&#45;&gt;Node2</title>
<path fill="none" stroke="midnightblue" d="M600.4,-72.75C482.7,-67.96 285.13,-56.65 117,-31 107.13,-29.49 96.5,-27.28 86.84,-25.04"/>
<polygon fill="midnightblue" stroke="midnightblue" points="600.35,-76.25 610.49,-73.15 600.63,-69.25 600.35,-76.25"/>
</g>
<!-- Node3 -->
<g id="node3" class="node">
<title>Node3</title>
<g id="a_node3"><a xlink:href="../../d2/dc0/Device_8cpp.html" target="_top" xlink:title=" ">
<polygon fill="white" stroke="black" points="126.5,-6 126.5,-25 263.5,-25 263.5,-6 126.5,-6"/>
<text text-anchor="middle" x="195" y="-13" font-family="Helvetica,sans-Serif" font-size="10.00">src/hardware/Device.cpp</text>
</a>
</g>
</g>
<!-- Node1&#45;&gt;Node3 -->
<g id="edge2" class="edge">
<title>Node1&#45;&gt;Node3</title>
<path fill="none" stroke="midnightblue" d="M600.21,-67.5C512.73,-59.78 384.37,-47.14 273,-31 261.41,-29.32 248.92,-27.16 237.4,-25.02"/>
<polygon fill="midnightblue" stroke="midnightblue" points="600.14,-71.01 610.41,-68.4 600.75,-64.04 600.14,-71.01"/>
</g>
<!-- Node4 -->
<g id="node4" class="node">
<title>Node4</title>
<g id="a_node4"><a xlink:href="../../d9/dab/HardwareService_8cpp.html" target="_top" xlink:title=" ">
<polygon fill="white" stroke="black" points="282,-6 282,-25 468,-25 468,-6 282,-6"/>
<text text-anchor="middle" x="375" y="-13" font-family="Helvetica,sans-Serif" font-size="10.00">src/hardware/HardwareService.cpp</text>
</a>
</g>
</g>
<!-- Node1&#45;&gt;Node4 -->
<g id="edge3" class="edge">
<title>Node1&#45;&gt;Node4</title>
<path fill="none" stroke="midnightblue" d="M646.98,-65.69C583.29,-54.17 481.38,-35.74 422.05,-25.01"/>
<polygon fill="midnightblue" stroke="midnightblue" points="646.4,-69.14 656.86,-67.48 647.64,-62.25 646.4,-69.14"/>
</g>
<!-- Node5 -->
<g id="node5" class="node">
<title>Node5</title>
<g id="a_node5"><a xlink:href="../../d6/d24/BuzzerSerializer_8cpp.html" target="_top" xlink:title=" ">
<polygon fill="white" stroke="black" points="486.5,-0.5 486.5,-30.5 619.5,-30.5 619.5,-0.5 486.5,-0.5"/>
<text text-anchor="start" x="494.5" y="-18.5" font-family="Helvetica,sans-Serif" font-size="10.00">src/hardware/serializers</text>
<text text-anchor="middle" x="553" y="-7.5" font-family="Helvetica,sans-Serif" font-size="10.00">/BuzzerSerializer.cpp</text>
</a>
</g>
</g>
<!-- Node1&#45;&gt;Node5 -->
<g id="edge4" class="edge">
<title>Node1&#45;&gt;Node5</title>
<path fill="none" stroke="midnightblue" d="M672.83,-63.72C648.33,-54.06 614.17,-40.6 588.59,-30.52"/>
<polygon fill="midnightblue" stroke="midnightblue" points="671.78,-67.07 682.37,-67.48 674.34,-60.55 671.78,-67.07"/>
</g>
<!-- Node6 -->
<g id="node6" class="node">
<title>Node6</title>
<g id="a_node6"><a xlink:href="../../d4/d68/LEDSerializer_8cpp.html" target="_top" xlink:title=" ">
<polygon fill="white" stroke="black" points="637.5,-0.5 637.5,-30.5 770.5,-30.5 770.5,-0.5 637.5,-0.5"/>
<text text-anchor="start" x="645.5" y="-18.5" font-family="Helvetica,sans-Serif" font-size="10.00">src/hardware/serializers</text>
<text text-anchor="middle" x="704" y="-7.5" font-family="Helvetica,sans-Serif" font-size="10.00">/LEDSerializer.cpp</text>
</a>
</g>
</g>
<!-- Node1&#45;&gt;Node6 -->
<g id="edge5" class="edge">
<title>Node1&#45;&gt;Node6</title>
<path fill="none" stroke="midnightblue" d="M704,-57.23C704,-48.59 704,-38.5 704,-30.52"/>
<polygon fill="midnightblue" stroke="midnightblue" points="700.5,-57.48 704,-67.48 707.5,-57.48 700.5,-57.48"/>
</g>
<!-- Node7 -->
<g id="node7" class="node">
<title>Node7</title>
<g id="a_node7"><a xlink:href="../../d6/d95/PFDigitalModule_8cpp.html" target="_top" xlink:title=" ">
<polygon fill="white" stroke="black" points="789,-0.5 789,-30.5 929,-30.5 929,-0.5 789,-0.5"/>
<text text-anchor="start" x="797" y="-18.5" font-family="Helvetica,sans-Serif" font-size="10.00">src/modules/pifacedigital</text>
<text text-anchor="middle" x="859" y="-7.5" font-family="Helvetica,sans-Serif" font-size="10.00">/PFDigitalModule.cpp</text>
</a>
</g>
</g>
<!-- Node1&#45;&gt;Node7 -->
<g id="edge6" class="edge">
<title>Node1&#45;&gt;Node7</title>
<path fill="none" stroke="midnightblue" d="M735.66,-63.85C760.84,-54.18 796.1,-40.65 822.47,-30.52"/>
<polygon fill="midnightblue" stroke="midnightblue" points="734.29,-60.62 726.21,-67.48 736.8,-67.16 734.29,-60.62"/>
</g>
<!-- Node8 -->
<g id="node8" class="node">
<title>Node8</title>
<g id="a_node8"><a xlink:href="../../de/dc2/HardwareSearch_8cpp.html" target="_top" xlink:title=" ">
<polygon fill="white" stroke="black" points="947,-0.5 947,-30.5 1139,-30.5 1139,-0.5 947,-0.5"/>
<text text-anchor="start" x="955" y="-18.5" font-family="Helvetica,sans-Serif" font-size="10.00">src/modules/websock</text>
<text text-anchor="middle" x="1043" y="-7.5" font-family="Helvetica,sans-Serif" font-size="10.00">&#45;api/api/search/HardwareSearch.cpp</text>
</a>
</g>
</g>
<!-- Node1&#45;&gt;Node8 -->
<g id="edge7" class="edge">
<title>Node1&#45;&gt;Node8</title>
<path fill="none" stroke="midnightblue" d="M762.58,-65.72C817.99,-55.99 901.59,-41.32 963.1,-30.52"/>
<polygon fill="midnightblue" stroke="midnightblue" points="761.81,-62.3 752.57,-67.48 763.02,-69.19 761.81,-62.3"/>
</g>
<!-- Node9 -->
<g id="node9" class="node">
<title>Node9</title>
<g id="a_node9"><a xlink:href="../../d3/de8/wiegand_8cpp.html" target="_top" xlink:title=" ">
<polygon fill="white" stroke="black" points="1157,-0.5 1157,-30.5 1277,-30.5 1277,-0.5 1157,-0.5"/>
<text text-anchor="start" x="1165" y="-18.5" font-family="Helvetica,sans-Serif" font-size="10.00">src/modules/wiegand</text>
<text text-anchor="middle" x="1217" y="-7.5" font-family="Helvetica,sans-Serif" font-size="10.00">/wiegand.cpp</text>
</a>
</g>
</g>
<!-- Node1&#45;&gt;Node9 -->
<g id="edge8" class="edge">
<title>Node1&#45;&gt;Node9</title>
<path fill="none" stroke="midnightblue" d="M808.15,-68.58C898.38,-61.41 1032.26,-48.97 1148,-31 1150.9,-30.55 1153.87,-30.06 1156.86,-29.53"/>
<polygon fill="midnightblue" stroke="midnightblue" points="807.61,-65.12 797.92,-69.39 808.16,-72.09 807.61,-65.12"/>
</g>
<!-- Node10 -->
<g id="node10" class="node">
<title>Node10</title>
<g id="a_node10"><a xlink:href="../../d6/d48/WiegandConfigSerializer_8cpp.html" target="_top" xlink:title=" ">
<polygon fill="white" stroke="black" points="1295.5,-0.5 1295.5,-30.5 1470.5,-30.5 1470.5,-0.5 1295.5,-0.5"/>
<text text-anchor="start" x="1303.5" y="-18.5" font-family="Helvetica,sans-Serif" font-size="10.00">src/modules/wiegand</text>
<text text-anchor="middle" x="1383" y="-7.5" font-family="Helvetica,sans-Serif" font-size="10.00">/ws/WiegandConfigSerializer.cpp</text>
</a>
</g>
</g>
<!-- Node1&#45;&gt;Node10 -->
<g id="edge9" class="edge">
<title>Node1&#45;&gt;Node10</title>
<path fill="none" stroke="midnightblue" d="M807.68,-70.22C924.24,-63.2 1119.05,-49.91 1286,-31 1289.05,-30.66 1292.14,-30.29 1295.27,-29.9"/>
<polygon fill="midnightblue" stroke="midnightblue" points="807.46,-66.73 797.69,-70.82 807.88,-73.71 807.46,-66.73"/>
</g>
</g>
</svg>
