<?xml version="1.0" encoding="UTF-8" standalone="no"?>
<!DOCTYPE svg PUBLIC "-//W3C//DTD SVG 1.1//EN"
 "http://www.w3.org/Graphics/SVG/1.1/DTD/svg11.dtd">
<!-- Generated by graphviz version 2.43.0 (0)
 -->
<!-- Title: Leosac::ServiceRegistry Pages: 1 -->
<svg width="280pt" height="240pt"
 viewBox="0.00 0.00 280.00 240.00" xmlns="http://www.w3.org/2000/svg" xmlns:xlink="http://www.w3.org/1999/xlink">
<g id="graph0" class="graph" transform="scale(1 1) rotate(0) translate(4 236)">
<title>Leosac::ServiceRegistry</title>
<polygon fill="white" stroke="transparent" points="-4,4 -4,-236 276,-236 276,4 -4,4"/>
<!-- Node1 -->
<g id="node1" class="node">
<title>Node1</title>
<g id="a_node1"><a xlink:title="A class that manages services.">
<polygon fill="#bfbfbf" stroke="black" points="20,-0.5 20,-19.5 153,-19.5 153,-0.5 20,-0.5"/>
<text text-anchor="middle" x="86.5" y="-7.5" font-family="Helvetica,sans-Serif" font-size="10.00">Leosac::ServiceRegistry</text>
</a>
</g>
</g>
<!-- Node2 -->
<g id="node2" class="node">
<title>Node2</title>
<g id="a_node2"><a xlink:title="STL class.">
<polygon fill="white" stroke="#bfbfbf" points="0,-73 0,-92 69,-92 69,-73 0,-73"/>
<text text-anchor="middle" x="34.5" y="-80" font-family="Helvetica,sans-Serif" font-size="10.00">std::mutex</text>
</a>
</g>
</g>
<!-- Node2&#45;&gt;Node1 -->
<g id="edge1" class="edge">
<title>Node2&#45;&gt;Node1</title>
<path fill="none" stroke="#9a32cd" stroke-dasharray="5,2" d="M47.04,-64.5C57.46,-50.37 71.86,-30.85 80.07,-19.72"/>
<polygon fill="#9a32cd" stroke="#9a32cd" points="44,-62.73 40.88,-72.86 49.63,-66.89 44,-62.73"/>
<text text-anchor="middle" x="84.5" y="-41" font-family="Helvetica,sans-Serif" font-size="10.00"> mutex_</text>
</g>
<!-- Node3 -->
<g id="node3" class="node">
<title>Node3</title>
<g id="a_node3"><a xlink:title=" ">
<polygon fill="white" stroke="#bfbfbf" points="87,-67.5 87,-97.5 272,-97.5 272,-67.5 87,-67.5"/>
<text text-anchor="start" x="95" y="-85.5" font-family="Helvetica,sans-Serif" font-size="10.00">std::map&lt; boost::typeindex</text>
<text text-anchor="middle" x="179.5" y="-74.5" font-family="Helvetica,sans-Serif" font-size="10.00">::type_index, RegistrationInfoPtr &gt;</text>
</a>
</g>
</g>
<!-- Node3&#45;&gt;Node1 -->
<g id="edge2" class="edge">
<title>Node3&#45;&gt;Node1</title>
<path fill="none" stroke="#9a32cd" stroke-dasharray="5,2" d="M152.25,-60.84C134.19,-47.15 111.42,-29.89 97.96,-19.69"/>
<polygon fill="#9a32cd" stroke="#9a32cd" points="150.6,-63.98 160.68,-67.23 154.83,-58.4 150.6,-63.98"/>
<text text-anchor="middle" x="160" y="-41" font-family="Helvetica,sans-Serif" font-size="10.00"> services_</text>
</g>
<!-- Node4 -->
<g id="node4" class="node">
<title>Node4</title>
<g id="a_node4"><a xlink:title="STL class.">
<polygon fill="white" stroke="#bfbfbf" points="120.5,-145.5 120.5,-164.5 238.5,-164.5 238.5,-145.5 120.5,-145.5"/>
<text text-anchor="middle" x="179.5" y="-152.5" font-family="Helvetica,sans-Serif" font-size="10.00">std::shared_ptr&lt; T &gt;</text>
</a>
</g>
</g>
<!-- Node4&#45;&gt;Node3 -->
<g id="edge3" class="edge">
<title>Node4&#45;&gt;Node3</title>
<path fill="none" stroke="#9a32cd" stroke-dasharray="5,2" d="M179.5,-135.24C179.5,-123.41 179.5,-108.38 179.5,-97.58"/>
<polygon fill="#9a32cd" stroke="#9a32cd" points="176,-135.36 179.5,-145.36 183,-135.36 176,-135.36"/>
<text text-anchor="middle" x="204" y="-119" font-family="Helvetica,sans-Serif" font-size="10.00"> elements</text>
</g>
<!-- Node5 -->
<g id="node5" class="node">
<title>Node5</title>
<g id="a_node5"><a xlink:title=" ">
<polygon fill="white" stroke="#bfbfbf" points="165,-212.5 165,-231.5 194,-231.5 194,-212.5 165,-212.5"/>
<text text-anchor="middle" x="179.5" y="-219.5" font-family="Helvetica,sans-Serif" font-size="10.00">T</text>
</a>
</g>
</g>
<!-- Node5&#45;&gt;Node4 -->
<g id="edge4" class="edge">
<title>Node5&#45;&gt;Node4</title>
<path fill="none" stroke="#9a32cd" stroke-dasharray="5,2" d="M179.5,-202.04C179.5,-189.67 179.5,-174.12 179.5,-164.63"/>
<polygon fill="#9a32cd" stroke="#9a32cd" points="176,-202.23 179.5,-212.23 183,-202.23 176,-202.23"/>
<text text-anchor="middle" x="188" y="-186" font-family="Helvetica,sans-Serif" font-size="10.00"> ptr</text>
</g>
</g>
</svg>
