<?xml version="1.0" encoding="UTF-8" standalone="no"?>
<!DOCTYPE svg PUBLIC "-//W3C//DTD SVG 1.1//EN"
 "http://www.w3.org/Graphics/SVG/1.1/DTD/svg11.dtd">
<!-- Generated by graphviz version 2.43.0 (0)
 -->
<!-- Title: src/modules/websock&#45;api/api/search/ScheduleSearch.hpp Pages: 1 -->
<svg width="1235pt" height="386pt"
 viewBox="0.00 0.00 1234.50 386.00" xmlns="http://www.w3.org/2000/svg" xmlns:xlink="http://www.w3.org/1999/xlink">
<g id="graph0" class="graph" transform="scale(1 1) rotate(0) translate(4 382)">
<title>src/modules/websock&#45;api/api/search/ScheduleSearch.hpp</title>
<polygon fill="white" stroke="transparent" points="-4,4 -4,-382 1230.5,-382 1230.5,4 -4,4"/>
<!-- Node1 -->
<g id="node1" class="node">
<title>Node1</title>
<g id="a_node1"><a xlink:title=" ">
<polygon fill="#bfbfbf" stroke="black" points="801.5,-347.5 801.5,-377.5 991.5,-377.5 991.5,-347.5 801.5,-347.5"/>
<text text-anchor="start" x="809.5" y="-365.5" font-family="Helvetica,sans-Serif" font-size="10.00">src/modules/websock</text>
<text text-anchor="middle" x="896.5" y="-354.5" font-family="Helvetica,sans-Serif" font-size="10.00">&#45;api/api/search/ScheduleSearch.hpp</text>
</a>
</g>
</g>
<!-- Node2 -->
<g id="node2" class="node">
<title>Node2</title>
<g id="a_node2"><a xlink:href="../../d2/da8/MethodHandler_8hpp.html" target="_top" xlink:title=" ">
<polygon fill="white" stroke="black" points="651.5,-291.5 651.5,-310.5 781.5,-310.5 781.5,-291.5 651.5,-291.5"/>
<text text-anchor="middle" x="716.5" y="-298.5" font-family="Helvetica,sans-Serif" font-size="10.00">api/MethodHandler.hpp</text>
</a>
</g>
</g>
<!-- Node1&#45;&gt;Node2 -->
<g id="edge1" class="edge">
<title>Node1&#45;&gt;Node2</title>
<path fill="none" stroke="midnightblue" d="M853.84,-347.4C822.87,-337.16 781.45,-323.47 752.22,-313.81"/>
<polygon fill="midnightblue" stroke="midnightblue" points="753.02,-310.39 742.43,-310.57 750.83,-317.03 753.02,-310.39"/>
</g>
<!-- Node27 -->
<g id="node27" class="node">
<title>Node27</title>
<g id="a_node27"><a xlink:title=" ">
<polygon fill="white" stroke="#bfbfbf" points="1116.5,-56.5 1116.5,-75.5 1226.5,-75.5 1226.5,-56.5 1116.5,-56.5"/>
<text text-anchor="middle" x="1171.5" y="-63.5" font-family="Helvetica,sans-Serif" font-size="10.00">nlohmann/json.hpp</text>
</a>
</g>
</g>
<!-- Node1&#45;&gt;Node27 -->
<g id="edge45" class="edge">
<title>Node1&#45;&gt;Node27</title>
<path fill="none" stroke="midnightblue" d="M991.69,-359.91C1072.86,-352.9 1176.5,-327.9 1176.5,-246 1176.5,-246 1176.5,-246 1176.5,-188 1176.5,-151.68 1174.22,-109.29 1172.74,-85.55"/>
<polygon fill="midnightblue" stroke="midnightblue" points="1176.23,-85.26 1172.09,-75.5 1169.25,-85.71 1176.23,-85.26"/>
</g>
<!-- Node3 -->
<g id="node3" class="node">
<title>Node3</title>
<g id="a_node3"><a xlink:href="../../de/d95/ActionActionParam_8hpp.html" target="_top" xlink:title=" ">
<polygon fill="white" stroke="black" points="604.5,-235.5 604.5,-254.5 734.5,-254.5 734.5,-235.5 604.5,-235.5"/>
<text text-anchor="middle" x="669.5" y="-242.5" font-family="Helvetica,sans-Serif" font-size="10.00">ActionActionParam.hpp</text>
</a>
</g>
</g>
<!-- Node2&#45;&gt;Node3 -->
<g id="edge2" class="edge">
<title>Node2&#45;&gt;Node3</title>
<path fill="none" stroke="midnightblue" d="M708.74,-291.08C701.96,-283.3 691.96,-271.8 683.74,-262.37"/>
<polygon fill="midnightblue" stroke="midnightblue" points="686.32,-260 677.12,-254.75 681.04,-264.59 686.32,-260"/>
</g>
<!-- Node4 -->
<g id="node4" class="node">
<title>Node4</title>
<g id="a_node4"><a xlink:href="../../d1/d3e/SecurityContext_8hpp.html" target="_top" xlink:title=" ">
<polygon fill="white" stroke="black" points="451.5,-179.5 451.5,-198.5 591.5,-198.5 591.5,-179.5 451.5,-179.5"/>
<text text-anchor="middle" x="521.5" y="-186.5" font-family="Helvetica,sans-Serif" font-size="10.00">core/SecurityContext.hpp</text>
</a>
</g>
</g>
<!-- Node2&#45;&gt;Node4 -->
<g id="edge40" class="edge">
<title>Node2&#45;&gt;Node4</title>
<path fill="none" stroke="midnightblue" d="M683.98,-291.43C658.76,-283.97 623.5,-271.72 595.5,-255 572.71,-241.39 550.35,-220.38 536.27,-205.95"/>
<polygon fill="midnightblue" stroke="midnightblue" points="538.79,-203.52 529.36,-198.7 533.73,-208.36 538.79,-203.52"/>
</g>
<!-- Node22 -->
<g id="node22" class="node">
<title>Node22</title>
<g id="a_node22"><a xlink:href="../../dd/d46/RequestContext_8hpp.html" target="_top" xlink:title=" ">
<polygon fill="white" stroke="black" points="704.5,-179.5 704.5,-198.5 820.5,-198.5 820.5,-179.5 704.5,-179.5"/>
<text text-anchor="middle" x="762.5" y="-186.5" font-family="Helvetica,sans-Serif" font-size="10.00">RequestContext.hpp</text>
</a>
</g>
</g>
<!-- Node2&#45;&gt;Node22 -->
<g id="edge30" class="edge">
<title>Node2&#45;&gt;Node22</title>
<path fill="none" stroke="midnightblue" d="M722.58,-291.4C728.57,-282.59 737.66,-268.36 743.5,-255 750.13,-239.85 755.21,-221.73 758.44,-208.48"/>
<polygon fill="midnightblue" stroke="midnightblue" points="761.87,-209.19 760.71,-198.66 755.05,-207.61 761.87,-209.19"/>
</g>
<!-- Node2&#45;&gt;Node27 -->
<g id="edge44" class="edge">
<title>Node2&#45;&gt;Node27</title>
<path fill="none" stroke="midnightblue" d="M762.34,-291.44C842.11,-274.65 1008.51,-231.13 1119.5,-143 1139.2,-127.36 1154.33,-102.23 1163.06,-85.19"/>
<polygon fill="midnightblue" stroke="midnightblue" points="1166.41,-86.3 1167.66,-75.78 1160.12,-83.23 1166.41,-86.3"/>
</g>
<!-- Node28 -->
<g id="node28" class="node">
<title>Node28</title>
<g id="a_node28"><a xlink:href="../../df/d2f/UserSecurityContext_8hpp.html" target="_top" xlink:title=" ">
<polygon fill="white" stroke="black" points="386.5,-235.5 386.5,-254.5 548.5,-254.5 548.5,-235.5 386.5,-235.5"/>
<text text-anchor="middle" x="467.5" y="-242.5" font-family="Helvetica,sans-Serif" font-size="10.00">core/UserSecurityContext.hpp</text>
</a>
</g>
</g>
<!-- Node2&#45;&gt;Node28 -->
<g id="edge41" class="edge">
<title>Node2&#45;&gt;Node28</title>
<path fill="none" stroke="midnightblue" d="M677.05,-291.44C633.61,-282.02 563.71,-266.87 516.72,-256.68"/>
<polygon fill="midnightblue" stroke="midnightblue" points="517.28,-253.22 506.77,-254.52 515.8,-260.06 517.28,-253.22"/>
</g>
<!-- Node3&#45;&gt;Node4 -->
<g id="edge3" class="edge">
<title>Node3&#45;&gt;Node4</title>
<path fill="none" stroke="midnightblue" d="M646.05,-235.44C621.37,-226.44 582.31,-212.19 554.52,-202.05"/>
<polygon fill="midnightblue" stroke="midnightblue" points="555.44,-198.66 544.84,-198.52 553.04,-205.23 555.44,-198.66"/>
</g>
<!-- Node5 -->
<g id="node5" class="node">
<title>Node5</title>
<g id="a_node5"><a xlink:href="../../d7/dcf/AuditFwd_8hpp.html" target="_top" xlink:title=" ">
<polygon fill="white" stroke="black" points="147,-118 147,-137 282,-137 282,-118 147,-118"/>
<text text-anchor="middle" x="214.5" y="-125" font-family="Helvetica,sans-Serif" font-size="10.00">core/audit/AuditFwd.hpp</text>
</a>
</g>
</g>
<!-- Node4&#45;&gt;Node5 -->
<g id="edge4" class="edge">
<title>Node4&#45;&gt;Node5</title>
<path fill="none" stroke="midnightblue" d="M477.51,-179.48C422.35,-168.78 327.8,-150.46 268.35,-138.94"/>
<polygon fill="midnightblue" stroke="midnightblue" points="268.89,-135.48 258.4,-137.01 267.56,-142.35 268.89,-135.48"/>
</g>
<!-- Node10 -->
<g id="node10" class="node">
<title>Node10</title>
<g id="a_node10"><a xlink:href="../../d3/d6f/AuthFwd_8hpp.html" target="_top" xlink:title=" ">
<polygon fill="white" stroke="black" points="0,-118 0,-137 129,-137 129,-118 0,-118"/>
<text text-anchor="middle" x="64.5" y="-125" font-family="Helvetica,sans-Serif" font-size="10.00">core/auth/AuthFwd.hpp</text>
</a>
</g>
</g>
<!-- Node4&#45;&gt;Node10 -->
<g id="edge9" class="edge">
<title>Node4&#45;&gt;Node10</title>
<path fill="none" stroke="midnightblue" d="M451.2,-181.45C374.02,-173.87 246.57,-160.2 137.5,-143 130.05,-141.82 122.19,-140.43 114.51,-138.98"/>
<polygon fill="midnightblue" stroke="midnightblue" points="115.04,-135.52 104.56,-137.05 113.71,-142.39 115.04,-135.52"/>
</g>
<!-- Node11 -->
<g id="node11" class="node">
<title>Node11</title>
<g id="a_node11"><a xlink:href="../../d7/d7f/CredentialFwd_8hpp.html" target="_top" xlink:title=" ">
<polygon fill="white" stroke="black" points="300.5,-112.5 300.5,-142.5 448.5,-142.5 448.5,-112.5 300.5,-112.5"/>
<text text-anchor="start" x="308.5" y="-130.5" font-family="Helvetica,sans-Serif" font-size="10.00">core/credentials/Credential</text>
<text text-anchor="middle" x="374.5" y="-119.5" font-family="Helvetica,sans-Serif" font-size="10.00">Fwd.hpp</text>
</a>
</g>
</g>
<!-- Node4&#45;&gt;Node11 -->
<g id="edge13" class="edge">
<title>Node4&#45;&gt;Node11</title>
<path fill="none" stroke="midnightblue" d="M500.44,-179.48C479.13,-170.85 445.56,-157.26 418.44,-146.29"/>
<polygon fill="midnightblue" stroke="midnightblue" points="419.73,-143.03 409.14,-142.52 417.1,-149.52 419.73,-143.03"/>
</g>
<!-- Node12 -->
<g id="node12" class="node">
<title>Node12</title>
<g id="a_node12"><a xlink:href="../../d9/dc8/HardwareFwd_8hpp.html" target="_top" xlink:title=" ">
<polygon fill="white" stroke="black" points="726.5,-118 726.5,-137 880.5,-137 880.5,-118 726.5,-118"/>
<text text-anchor="middle" x="803.5" y="-125" font-family="Helvetica,sans-Serif" font-size="10.00">hardware/HardwareFwd.hpp</text>
</a>
</g>
</g>
<!-- Node4&#45;&gt;Node12 -->
<g id="edge16" class="edge">
<title>Node4&#45;&gt;Node12</title>
<path fill="none" stroke="midnightblue" d="M561.9,-179.48C612.37,-168.83 698.71,-150.61 753.35,-139.08"/>
<polygon fill="midnightblue" stroke="midnightblue" points="754.11,-142.5 763.17,-137.01 752.66,-135.65 754.11,-142.5"/>
</g>
<!-- Node20 -->
<g id="node20" class="node">
<title>Node20</title>
<g id="a_node20"><a xlink:href="../../d8/d97/ToolsFwd_8hpp.html" target="_top" xlink:title=" ">
<polygon fill="white" stroke="black" points="466.5,-118 466.5,-137 576.5,-137 576.5,-118 466.5,-118"/>
<text text-anchor="middle" x="521.5" y="-125" font-family="Helvetica,sans-Serif" font-size="10.00">tools/ToolsFwd.hpp</text>
</a>
</g>
</g>
<!-- Node4&#45;&gt;Node20 -->
<g id="edge25" class="edge">
<title>Node4&#45;&gt;Node20</title>
<path fill="none" stroke="midnightblue" d="M521.5,-179.48C521.5,-171.08 521.5,-157.98 521.5,-147.16"/>
<polygon fill="midnightblue" stroke="midnightblue" points="525,-147.01 521.5,-137.01 518,-147.01 525,-147.01"/>
</g>
<!-- Node21 -->
<g id="node21" class="node">
<title>Node21</title>
<g id="a_node21"><a xlink:href="../../d9/d69/db__fwd_8hpp.html" target="_top" xlink:title=" ">
<polygon fill="white" stroke="black" points="594.5,-118 594.5,-137 708.5,-137 708.5,-118 594.5,-118"/>
<text text-anchor="middle" x="651.5" y="-125" font-family="Helvetica,sans-Serif" font-size="10.00">tools/db/db_fwd.hpp</text>
</a>
</g>
</g>
<!-- Node4&#45;&gt;Node21 -->
<g id="edge28" class="edge">
<title>Node4&#45;&gt;Node21</title>
<path fill="none" stroke="midnightblue" d="M540.13,-179.48C561.94,-169.49 598.3,-152.85 623.52,-141.31"/>
<polygon fill="midnightblue" stroke="midnightblue" points="625.27,-144.35 632.91,-137.01 622.36,-137.99 625.27,-144.35"/>
</g>
<!-- Node6 -->
<g id="node6" class="node">
<title>Node6</title>
<g id="a_node6"><a xlink:title=" ">
<polygon fill="white" stroke="#bfbfbf" points="73,-56.5 73,-75.5 126,-75.5 126,-56.5 73,-56.5"/>
<text text-anchor="middle" x="99.5" y="-63.5" font-family="Helvetica,sans-Serif" font-size="10.00">cstddef</text>
</a>
</g>
</g>
<!-- Node5&#45;&gt;Node6 -->
<g id="edge5" class="edge">
<title>Node5&#45;&gt;Node6</title>
<path fill="none" stroke="midnightblue" d="M198.02,-117.98C178.89,-108.08 147.13,-91.64 124.85,-80.12"/>
<polygon fill="midnightblue" stroke="midnightblue" points="126.44,-77 115.95,-75.51 123.22,-83.21 126.44,-77"/>
</g>
<!-- Node7 -->
<g id="node7" class="node">
<title>Node7</title>
<g id="a_node7"><a xlink:title=" ">
<polygon fill="white" stroke="#bfbfbf" points="179,-56.5 179,-75.5 250,-75.5 250,-56.5 179,-56.5"/>
<text text-anchor="middle" x="214.5" y="-63.5" font-family="Helvetica,sans-Serif" font-size="10.00">flagset.hpp</text>
</a>
</g>
</g>
<!-- Node5&#45;&gt;Node7 -->
<g id="edge6" class="edge">
<title>Node5&#45;&gt;Node7</title>
<path fill="none" stroke="midnightblue" d="M214.5,-117.98C214.5,-109.58 214.5,-96.48 214.5,-85.66"/>
<polygon fill="midnightblue" stroke="midnightblue" points="218,-85.51 214.5,-75.51 211,-85.51 218,-85.51"/>
</g>
<!-- Node8 -->
<g id="node8" class="node">
<title>Node8</title>
<g id="a_node8"><a xlink:title=" ">
<polygon fill="white" stroke="#bfbfbf" points="557.5,-56.5 557.5,-75.5 615.5,-75.5 615.5,-56.5 557.5,-56.5"/>
<text text-anchor="middle" x="586.5" y="-63.5" font-family="Helvetica,sans-Serif" font-size="10.00">memory</text>
</a>
</g>
</g>
<!-- Node5&#45;&gt;Node8 -->
<g id="edge7" class="edge">
<title>Node5&#45;&gt;Node8</title>
<path fill="none" stroke="midnightblue" d="M258.43,-117.95C269.23,-115.93 280.77,-113.83 291.5,-112 382.85,-96.44 490.56,-80.65 547.18,-72.56"/>
<polygon fill="midnightblue" stroke="midnightblue" points="547.73,-76.01 557.14,-71.13 546.74,-69.08 547.73,-76.01"/>
</g>
<!-- Node9 -->
<g id="node9" class="node">
<title>Node9</title>
<g id="a_node9"><a xlink:title=" ">
<polygon fill="white" stroke="#bfbfbf" points="298,-56.5 298,-75.5 393,-75.5 393,-56.5 298,-56.5"/>
<text text-anchor="middle" x="345.5" y="-63.5" font-family="Helvetica,sans-Serif" font-size="10.00">odb/lazy&#45;ptr.hxx</text>
</a>
</g>
</g>
<!-- Node5&#45;&gt;Node9 -->
<g id="edge8" class="edge">
<title>Node5&#45;&gt;Node9</title>
<path fill="none" stroke="midnightblue" d="M233.27,-117.98C255.35,-107.95 292.22,-91.2 317.64,-79.65"/>
<polygon fill="midnightblue" stroke="midnightblue" points="319.11,-82.83 326.77,-75.51 316.21,-76.46 319.11,-82.83"/>
</g>
<!-- Node10&#45;&gt;Node6 -->
<g id="edge10" class="edge">
<title>Node10&#45;&gt;Node6</title>
<path fill="none" stroke="midnightblue" d="M69.51,-117.98C74.66,-109.23 82.81,-95.37 89.32,-84.31"/>
<polygon fill="midnightblue" stroke="midnightblue" points="92.44,-85.9 94.49,-75.51 86.41,-82.35 92.44,-85.9"/>
</g>
<!-- Node10&#45;&gt;Node8 -->
<g id="edge11" class="edge">
<title>Node10&#45;&gt;Node8</title>
<path fill="none" stroke="midnightblue" d="M103.78,-117.98C114.66,-115.81 126.51,-113.64 137.5,-112 288.1,-89.55 468.83,-75.25 547.13,-69.67"/>
<polygon fill="midnightblue" stroke="midnightblue" points="547.76,-73.13 557.49,-68.94 547.27,-66.15 547.76,-73.13"/>
</g>
<!-- Node10&#45;&gt;Node9 -->
<g id="edge12" class="edge">
<title>Node10&#45;&gt;Node9</title>
<path fill="none" stroke="midnightblue" d="M104.76,-117.98C154.94,-107.35 240.73,-89.18 295.19,-77.65"/>
<polygon fill="midnightblue" stroke="midnightblue" points="296.26,-81 305.31,-75.51 294.81,-74.16 296.26,-81"/>
</g>
<!-- Node11&#45;&gt;Node8 -->
<g id="edge14" class="edge">
<title>Node11&#45;&gt;Node8</title>
<path fill="none" stroke="midnightblue" d="M424.47,-112.47C462.13,-101.91 513.03,-87.62 547.66,-77.9"/>
<polygon fill="midnightblue" stroke="midnightblue" points="548.73,-81.23 557.42,-75.16 546.84,-74.5 548.73,-81.23"/>
</g>
<!-- Node11&#45;&gt;Node9 -->
<g id="edge15" class="edge">
<title>Node11&#45;&gt;Node9</title>
<path fill="none" stroke="midnightblue" d="M367.63,-112.4C363.59,-104.11 358.44,-93.55 354.13,-84.71"/>
<polygon fill="midnightblue" stroke="midnightblue" points="357.25,-83.11 349.72,-75.66 350.95,-86.18 357.25,-83.11"/>
</g>
<!-- Node12&#45;&gt;Node8 -->
<g id="edge24" class="edge">
<title>Node12&#45;&gt;Node8</title>
<path fill="none" stroke="midnightblue" d="M772.41,-117.98C733.76,-107.38 667.76,-89.28 625.69,-77.74"/>
<polygon fill="midnightblue" stroke="midnightblue" points="626.37,-74.3 615.8,-75.03 624.51,-81.05 626.37,-74.3"/>
</g>
<!-- Node13 -->
<g id="node13" class="node">
<title>Node13</title>
<g id="a_node13"><a xlink:href="../../dc/dea/Uuid_8hpp.html" target="_top" xlink:title=" ">
<polygon fill="white" stroke="black" points="760,-56.5 760,-75.5 847,-75.5 847,-56.5 760,-56.5"/>
<text text-anchor="middle" x="803.5" y="-63.5" font-family="Helvetica,sans-Serif" font-size="10.00">tools/Uuid.hpp</text>
</a>
</g>
</g>
<!-- Node12&#45;&gt;Node13 -->
<g id="edge17" class="edge">
<title>Node12&#45;&gt;Node13</title>
<path fill="none" stroke="midnightblue" d="M803.5,-117.98C803.5,-109.58 803.5,-96.48 803.5,-85.66"/>
<polygon fill="midnightblue" stroke="midnightblue" points="807,-85.51 803.5,-75.51 800,-85.51 807,-85.51"/>
</g>
<!-- Node14 -->
<g id="node14" class="node">
<title>Node14</title>
<g id="a_node14"><a xlink:title=" ">
<polygon fill="white" stroke="#bfbfbf" points="336,-0.5 336,-19.5 461,-19.5 461,-0.5 336,-0.5"/>
<text text-anchor="middle" x="398.5" y="-7.5" font-family="Helvetica,sans-Serif" font-size="10.00">boost/lexical_cast.hpp</text>
</a>
</g>
</g>
<!-- Node13&#45;&gt;Node14 -->
<g id="edge18" class="edge">
<title>Node13&#45;&gt;Node14</title>
<path fill="none" stroke="midnightblue" d="M759.77,-59.17C690.59,-49.95 555.14,-31.89 471.17,-20.69"/>
<polygon fill="midnightblue" stroke="midnightblue" points="471.57,-17.21 461.2,-19.36 470.65,-24.15 471.57,-17.21"/>
</g>
<!-- Node15 -->
<g id="node15" class="node">
<title>Node15</title>
<g id="a_node15"><a xlink:title=" ">
<polygon fill="white" stroke="#bfbfbf" points="479,-0.5 479,-19.5 660,-19.5 660,-0.5 479,-0.5"/>
<text text-anchor="middle" x="569.5" y="-7.5" font-family="Helvetica,sans-Serif" font-size="10.00">boost/uuid/random_generator.hpp</text>
</a>
</g>
</g>
<!-- Node13&#45;&gt;Node15 -->
<g id="edge19" class="edge">
<title>Node13&#45;&gt;Node15</title>
<path fill="none" stroke="midnightblue" d="M766.42,-56.44C725.77,-47.06 660.47,-31.99 616.32,-21.8"/>
<polygon fill="midnightblue" stroke="midnightblue" points="616.94,-18.35 606.4,-19.52 615.36,-25.18 616.94,-18.35"/>
</g>
<!-- Node16 -->
<g id="node16" class="node">
<title>Node16</title>
<g id="a_node16"><a xlink:title=" ">
<polygon fill="white" stroke="#bfbfbf" points="678,-0.5 678,-19.5 791,-19.5 791,-0.5 678,-0.5"/>
<text text-anchor="middle" x="734.5" y="-7.5" font-family="Helvetica,sans-Serif" font-size="10.00">boost/uuid/uuid.hpp</text>
</a>
</g>
</g>
<!-- Node13&#45;&gt;Node16 -->
<g id="edge20" class="edge">
<title>Node13&#45;&gt;Node16</title>
<path fill="none" stroke="midnightblue" d="M792.41,-56.32C782.01,-48.18 766.24,-35.84 753.78,-26.09"/>
<polygon fill="midnightblue" stroke="midnightblue" points="755.82,-23.24 745.79,-19.83 751.51,-28.75 755.82,-23.24"/>
</g>
<!-- Node17 -->
<g id="node17" class="node">
<title>Node17</title>
<g id="a_node17"><a xlink:title=" ">
<polygon fill="white" stroke="#bfbfbf" points="809,-0.5 809,-19.5 936,-19.5 936,-0.5 809,-0.5"/>
<text text-anchor="middle" x="872.5" y="-7.5" font-family="Helvetica,sans-Serif" font-size="10.00">boost/uuid/uuid_io.hpp</text>
</a>
</g>
</g>
<!-- Node13&#45;&gt;Node17 -->
<g id="edge21" class="edge">
<title>Node13&#45;&gt;Node17</title>
<path fill="none" stroke="midnightblue" d="M814.59,-56.32C824.99,-48.18 840.76,-35.84 853.22,-26.09"/>
<polygon fill="midnightblue" stroke="midnightblue" points="855.49,-28.75 861.21,-19.83 851.18,-23.24 855.49,-28.75"/>
</g>
<!-- Node18 -->
<g id="node18" class="node">
<title>Node18</title>
<g id="a_node18"><a xlink:title=" ">
<polygon fill="white" stroke="#bfbfbf" points="954.5,-0.5 954.5,-19.5 1034.5,-19.5 1034.5,-0.5 954.5,-0.5"/>
<text text-anchor="middle" x="994.5" y="-7.5" font-family="Helvetica,sans-Serif" font-size="10.00">odb/core.hxx</text>
</a>
</g>
</g>
<!-- Node13&#45;&gt;Node18 -->
<g id="edge22" class="edge">
<title>Node13&#45;&gt;Node18</title>
<path fill="none" stroke="midnightblue" d="M833.76,-56.44C866.46,-47.2 918.68,-32.44 954.68,-22.26"/>
<polygon fill="midnightblue" stroke="midnightblue" points="955.71,-25.61 964.38,-19.52 953.8,-18.87 955.71,-25.61"/>
</g>
<!-- Node19 -->
<g id="node19" class="node">
<title>Node19</title>
<g id="a_node19"><a xlink:title=" ">
<polygon fill="white" stroke="#bfbfbf" points="1052.5,-0.5 1052.5,-19.5 1096.5,-19.5 1096.5,-0.5 1052.5,-0.5"/>
<text text-anchor="middle" x="1074.5" y="-7.5" font-family="Helvetica,sans-Serif" font-size="10.00">string</text>
</a>
</g>
</g>
<!-- Node13&#45;&gt;Node19 -->
<g id="edge23" class="edge">
<title>Node13&#45;&gt;Node19</title>
<path fill="none" stroke="midnightblue" d="M847.12,-58.13C893.35,-50.56 968.64,-37.41 1042.31,-20.11"/>
<polygon fill="midnightblue" stroke="midnightblue" points="1043.3,-23.47 1052.22,-17.75 1041.68,-16.66 1043.3,-23.47"/>
</g>
<!-- Node20&#45;&gt;Node8 -->
<g id="edge26" class="edge">
<title>Node20&#45;&gt;Node8</title>
<path fill="none" stroke="midnightblue" d="M530.81,-117.98C540.95,-108.7 557.36,-93.67 569.75,-82.33"/>
<polygon fill="midnightblue" stroke="midnightblue" points="572.19,-84.84 577.2,-75.51 567.46,-79.68 572.19,-84.84"/>
</g>
<!-- Node20&#45;&gt;Node9 -->
<g id="edge27" class="edge">
<title>Node20&#45;&gt;Node9</title>
<path fill="none" stroke="midnightblue" d="M496.28,-117.98C465.83,-107.68 414.45,-90.31 380.26,-78.75"/>
<polygon fill="midnightblue" stroke="midnightblue" points="381.26,-75.4 370.67,-75.51 379.02,-82.03 381.26,-75.4"/>
</g>
<!-- Node21&#45;&gt;Node8 -->
<g id="edge29" class="edge">
<title>Node21&#45;&gt;Node8</title>
<path fill="none" stroke="midnightblue" d="M642.19,-117.98C632.05,-108.7 615.64,-93.67 603.25,-82.33"/>
<polygon fill="midnightblue" stroke="midnightblue" points="605.54,-79.68 595.8,-75.51 600.81,-84.84 605.54,-79.68"/>
</g>
<!-- Node22&#45;&gt;Node5 -->
<g id="edge38" class="edge">
<title>Node22&#45;&gt;Node5</title>
<path fill="none" stroke="midnightblue" d="M704.29,-184.15C615.13,-177.86 439.52,-163.96 291.5,-143 283.17,-141.82 274.38,-140.37 265.83,-138.84"/>
<polygon fill="midnightblue" stroke="midnightblue" points="266.41,-135.39 255.95,-137.02 265.15,-142.27 266.41,-135.39"/>
</g>
<!-- Node22&#45;&gt;Node21 -->
<g id="edge39" class="edge">
<title>Node22&#45;&gt;Node21</title>
<path fill="none" stroke="midnightblue" d="M746.6,-179.48C728.22,-169.62 697.74,-153.29 676.26,-141.77"/>
<polygon fill="midnightblue" stroke="midnightblue" points="677.84,-138.65 667.37,-137.01 674.53,-144.82 677.84,-138.65"/>
</g>
<!-- Node23 -->
<g id="node23" class="node">
<title>Node23</title>
<g id="a_node23"><a xlink:href="../../dc/d49/LeosacFwd_8hpp.html" target="_top" xlink:title=" ">
<polygon fill="white" stroke="black" points="898.5,-118 898.5,-137 990.5,-137 990.5,-118 898.5,-118"/>
<text text-anchor="middle" x="944.5" y="-125" font-family="Helvetica,sans-Serif" font-size="10.00">LeosacFwd.hpp</text>
</a>
</g>
</g>
<!-- Node22&#45;&gt;Node23 -->
<g id="edge31" class="edge">
<title>Node22&#45;&gt;Node23</title>
<path fill="none" stroke="midnightblue" d="M788.58,-179.48C820.07,-169.18 873.2,-151.81 908.56,-140.25"/>
<polygon fill="midnightblue" stroke="midnightblue" points="910.05,-143.44 918.47,-137.01 907.88,-136.79 910.05,-143.44"/>
</g>
<!-- Node25 -->
<g id="node25" class="node">
<title>Node25</title>
<g id="a_node25"><a xlink:href="../../d8/d8b/WebSockFwd_8hpp.html" target="_top" xlink:title=" ">
<polygon fill="white" stroke="black" points="1008.5,-118 1008.5,-137 1110.5,-137 1110.5,-118 1008.5,-118"/>
<text text-anchor="middle" x="1059.5" y="-125" font-family="Helvetica,sans-Serif" font-size="10.00">WebSockFwd.hpp</text>
</a>
</g>
</g>
<!-- Node22&#45;&gt;Node25 -->
<g id="edge34" class="edge">
<title>Node22&#45;&gt;Node25</title>
<path fill="none" stroke="midnightblue" d="M811.21,-179.48C859.22,-170.91 934.61,-156.99 999.5,-143 1004.61,-141.9 1009.94,-140.69 1015.24,-139.46"/>
<polygon fill="midnightblue" stroke="midnightblue" points="1016.38,-142.79 1025.3,-137.07 1014.76,-135.97 1016.38,-142.79"/>
</g>
<!-- Node23&#45;&gt;Node8 -->
<g id="edge32" class="edge">
<title>Node23&#45;&gt;Node8</title>
<path fill="none" stroke="midnightblue" d="M914.67,-117.99C906.55,-115.85 897.72,-113.69 889.5,-112 795.59,-92.71 683.68,-78.27 625.7,-71.42"/>
<polygon fill="midnightblue" stroke="midnightblue" points="625.85,-67.91 615.51,-70.23 625.04,-74.87 625.85,-67.91"/>
</g>
<!-- Node24 -->
<g id="node24" class="node">
<title>Node24</title>
<g id="a_node24"><a xlink:title=" ">
<polygon fill="white" stroke="#bfbfbf" points="921,-56.5 921,-75.5 968,-75.5 968,-56.5 921,-56.5"/>
<text text-anchor="middle" x="944.5" y="-63.5" font-family="Helvetica,sans-Serif" font-size="10.00">vector</text>
</a>
</g>
</g>
<!-- Node23&#45;&gt;Node24 -->
<g id="edge33" class="edge">
<title>Node23&#45;&gt;Node24</title>
<path fill="none" stroke="midnightblue" d="M944.5,-117.98C944.5,-109.58 944.5,-96.48 944.5,-85.66"/>
<polygon fill="midnightblue" stroke="midnightblue" points="948,-85.51 944.5,-75.51 941,-85.51 948,-85.51"/>
</g>
<!-- Node25&#45;&gt;Node8 -->
<g id="edge37" class="edge">
<title>Node25&#45;&gt;Node8</title>
<path fill="none" stroke="midnightblue" d="M1027.59,-117.98C1018.56,-115.79 1008.68,-113.6 999.5,-112 863.38,-88.24 699.7,-74.84 625.94,-69.6"/>
<polygon fill="midnightblue" stroke="midnightblue" points="625.94,-66.09 615.72,-68.89 625.45,-73.08 625.94,-66.09"/>
</g>
<!-- Node26 -->
<g id="node26" class="node">
<title>Node26</title>
<g id="a_node26"><a xlink:title=" ">
<polygon fill="white" stroke="#bfbfbf" points="991,-56.5 991,-75.5 1098,-75.5 1098,-56.5 991,-56.5"/>
<text text-anchor="middle" x="1044.5" y="-63.5" font-family="Helvetica,sans-Serif" font-size="10.00">boost/optional.hpp</text>
</a>
</g>
</g>
<!-- Node25&#45;&gt;Node26 -->
<g id="edge35" class="edge">
<title>Node25&#45;&gt;Node26</title>
<path fill="none" stroke="midnightblue" d="M1057.35,-117.98C1055.21,-109.49 1051.86,-96.2 1049.12,-85.32"/>
<polygon fill="midnightblue" stroke="midnightblue" points="1052.48,-84.35 1046.65,-75.51 1045.7,-86.06 1052.48,-84.35"/>
</g>
<!-- Node25&#45;&gt;Node27 -->
<g id="edge36" class="edge">
<title>Node25&#45;&gt;Node27</title>
<path fill="none" stroke="midnightblue" d="M1075.55,-117.98C1094.09,-108.12 1124.84,-91.79 1146.52,-80.27"/>
<polygon fill="midnightblue" stroke="midnightblue" points="1148.29,-83.29 1155.48,-75.51 1145.01,-77.11 1148.29,-83.29"/>
</g>
<!-- Node28&#45;&gt;Node4 -->
<g id="edge42" class="edge">
<title>Node28&#45;&gt;Node4</title>
<path fill="none" stroke="midnightblue" d="M476.42,-235.08C484.28,-227.22 495.93,-215.57 505.42,-206.08"/>
<polygon fill="midnightblue" stroke="midnightblue" points="508.15,-208.3 512.75,-198.75 503.2,-203.35 508.15,-208.3"/>
</g>
<!-- Node28&#45;&gt;Node10 -->
<g id="edge43" class="edge">
<title>Node28&#45;&gt;Node10</title>
<path fill="none" stroke="midnightblue" d="M437.54,-235.41C365.9,-214.88 184.7,-162.95 104.15,-139.86"/>
<polygon fill="midnightblue" stroke="midnightblue" points="104.96,-136.46 94.38,-137.06 103.03,-143.18 104.96,-136.46"/>
</g>
</g>
</svg>
