<?xml version="1.0" encoding="UTF-8" standalone="no"?>
<!DOCTYPE svg PUBLIC "-//W3C//DTD SVG 1.1//EN"
 "http://www.w3.org/Graphics/SVG/1.1/DTD/svg11.dtd">
<!-- Generated by graphviz version 2.43.0 (0)
 -->
<!-- Title: src/modules/rpleth/rplethprotocol.hpp Pages: 1 -->
<svg width="350pt" height="106pt"
 viewBox="0.00 0.00 349.50 106.00" xmlns="http://www.w3.org/2000/svg" xmlns:xlink="http://www.w3.org/1999/xlink">
<g id="graph0" class="graph" transform="scale(1 1) rotate(0) translate(4 102)">
<title>src/modules/rpleth/rplethprotocol.hpp</title>
<polygon fill="white" stroke="transparent" points="-4,4 -4,-102 345.5,-102 345.5,4 -4,4"/>
<!-- Node1 -->
<g id="node1" class="node">
<title>Node1</title>
<g id="a_node1"><a xlink:title="Rpleth protocol implementation.">
<polygon fill="#bfbfbf" stroke="black" points="125,-67.5 125,-97.5 234,-97.5 234,-67.5 125,-67.5"/>
<text text-anchor="start" x="133" y="-85.5" font-family="Helvetica,sans-Serif" font-size="10.00">src/modules/rpleth</text>
<text text-anchor="middle" x="179.5" y="-74.5" font-family="Helvetica,sans-Serif" font-size="10.00">/rplethprotocol.hpp</text>
</a>
</g>
</g>
<!-- Node2 -->
<g id="node2" class="node">
<title>Node2</title>
<g id="a_node2"><a xlink:href="../../d8/dba/RplethModule_8cpp.html" target="_top" xlink:title=" ">
<polygon fill="white" stroke="black" points="0,-0.5 0,-30.5 107,-30.5 107,-0.5 0,-0.5"/>
<text text-anchor="start" x="8" y="-18.5" font-family="Helvetica,sans-Serif" font-size="10.00">src/modules/rpleth</text>
<text text-anchor="middle" x="53.5" y="-7.5" font-family="Helvetica,sans-Serif" font-size="10.00">/RplethModule.cpp</text>
</a>
</g>
</g>
<!-- Node1&#45;&gt;Node2 -->
<g id="edge1" class="edge">
<title>Node1&#45;&gt;Node2</title>
<path fill="none" stroke="midnightblue" d="M143.08,-62.71C123.21,-52.46 99.02,-39.98 80.79,-30.58"/>
<polygon fill="midnightblue" stroke="midnightblue" points="141.67,-65.92 152.16,-67.4 144.88,-59.7 141.67,-65.92"/>
</g>
<!-- Node3 -->
<g id="node3" class="node">
<title>Node3</title>
<g id="a_node3"><a xlink:href="../../d6/d0b/rplethprotocol_8cpp.html" target="_top" xlink:title="Rpleth protocol implementation.">
<polygon fill="white" stroke="black" points="125.5,-0.5 125.5,-30.5 233.5,-30.5 233.5,-0.5 125.5,-0.5"/>
<text text-anchor="start" x="133.5" y="-18.5" font-family="Helvetica,sans-Serif" font-size="10.00">src/modules/rpleth</text>
<text text-anchor="middle" x="179.5" y="-7.5" font-family="Helvetica,sans-Serif" font-size="10.00">/rplethprotocol.cpp</text>
</a>
</g>
</g>
<!-- Node1&#45;&gt;Node3 -->
<g id="edge2" class="edge">
<title>Node1&#45;&gt;Node3</title>
<path fill="none" stroke="midnightblue" d="M179.5,-57.11C179.5,-48.15 179.5,-38.32 179.5,-30.58"/>
<polygon fill="midnightblue" stroke="midnightblue" points="176,-57.4 179.5,-67.4 183,-57.4 176,-57.4"/>
</g>
<!-- Node4 -->
<g id="node4" class="node">
<title>Node4</title>
<g id="a_node4"><a xlink:href="../../db/d44/Rpleth_8cpp.html" target="_top" xlink:title=" ">
<polygon fill="white" stroke="black" points="251.5,-6 251.5,-25 341.5,-25 341.5,-6 251.5,-6"/>
<text text-anchor="middle" x="296.5" y="-13" font-family="Helvetica,sans-Serif" font-size="10.00">test/Rpleth.cpp</text>
</a>
</g>
</g>
<!-- Node1&#45;&gt;Node4 -->
<g id="edge3" class="edge">
<title>Node1&#45;&gt;Node4</title>
<path fill="none" stroke="midnightblue" d="M213.75,-62.47C236.08,-50.06 264.15,-34.47 281.19,-25.01"/>
<polygon fill="midnightblue" stroke="midnightblue" points="211.93,-59.48 204.89,-67.4 215.33,-65.6 211.93,-59.48"/>
</g>
</g>
</svg>
