<?xml version="1.0" encoding="UTF-8" standalone="no"?>
<!DOCTYPE svg PUBLIC "-//W3C//DTD SVG 1.1//EN"
 "http://www.w3.org/Graphics/SVG/1.1/DTD/svg11.dtd">
<!-- Generated by graphviz version 2.43.0 (0)
 -->
<!-- Title: Leosac::Audit::GroupEvent Pages: 1 -->
<svg width="315pt" height="207pt"
 viewBox="0.00 0.00 315.00 207.00" xmlns="http://www.w3.org/2000/svg" xmlns:xlink="http://www.w3.org/1999/xlink">
<g id="graph0" class="graph" transform="scale(1 1) rotate(0) translate(4 203)">
<title>Leosac::Audit::GroupEvent</title>
<polygon fill="white" stroke="transparent" points="-4,4 -4,-203 311,-203 311,4 -4,4"/>
<!-- Node1 -->
<g id="node1" class="node">
<title>Node1</title>
<g id="a_node1"><a xlink:title="Provides an implementation of IGroupEvent.">
<polygon fill="#bfbfbf" stroke="black" points="79.5,-0.5 79.5,-19.5 224.5,-19.5 224.5,-0.5 79.5,-0.5"/>
<text text-anchor="middle" x="152" y="-7.5" font-family="Helvetica,sans-Serif" font-size="10.00">Leosac::Audit::GroupEvent</text>
</a>
</g>
</g>
<!-- Node2 -->
<g id="node2" class="node">
<title>Node2</title>
<g id="a_node2"><a xlink:href="../../d1/df4/classLeosac_1_1Audit_1_1IGroupEvent.html" target="_top" xlink:title="Interface that describes an Audit object for group related event.">
<polygon fill="white" stroke="black" points="159,-56.5 159,-75.5 307,-75.5 307,-56.5 159,-56.5"/>
<text text-anchor="middle" x="233" y="-63.5" font-family="Helvetica,sans-Serif" font-size="10.00">Leosac::Audit::IGroupEvent</text>
</a>
</g>
</g>
<!-- Node2&#45;&gt;Node1 -->
<g id="edge1" class="edge">
<title>Node2&#45;&gt;Node1</title>
<path fill="none" stroke="midnightblue" d="M211.43,-50.62C196.64,-40.76 177.49,-27.99 164.98,-19.65"/>
<polygon fill="midnightblue" stroke="midnightblue" points="209.72,-53.69 219.99,-56.32 213.61,-47.86 209.72,-53.69"/>
</g>
<!-- Node3 -->
<g id="node3" class="node">
<title>Node3</title>
<g id="a_node3"><a xlink:href="../../d1/d44/classLeosac_1_1Audit_1_1IAuditEntry.html" target="_top" xlink:title="Base interface to Audit object.">
<polygon fill="white" stroke="black" points="161,-118 161,-137 303,-137 303,-118 161,-118"/>
<text text-anchor="middle" x="232" y="-125" font-family="Helvetica,sans-Serif" font-size="10.00">Leosac::Audit::IAuditEntry</text>
</a>
</g>
</g>
<!-- Node3&#45;&gt;Node2 -->
<g id="edge2" class="edge">
<title>Node3&#45;&gt;Node2</title>
<path fill="none" stroke="midnightblue" d="M232.31,-107.82C232.5,-97 232.72,-83.9 232.86,-75.51"/>
<polygon fill="midnightblue" stroke="midnightblue" points="228.81,-107.92 232.14,-117.98 235.81,-108.04 228.81,-107.92"/>
</g>
<!-- Node5 -->
<g id="node5" class="node">
<title>Node5</title>
<g id="a_node5"><a xlink:href="../../d0/d20/classLeosac_1_1Audit_1_1AuditEntry.html" target="_top" xlink:title="Implementation of IAuditEntry, backed by ODB.">
<polygon fill="white" stroke="black" points="1.5,-56.5 1.5,-75.5 140.5,-75.5 140.5,-56.5 1.5,-56.5"/>
<text text-anchor="middle" x="71" y="-63.5" font-family="Helvetica,sans-Serif" font-size="10.00">Leosac::Audit::AuditEntry</text>
</a>
</g>
</g>
<!-- Node3&#45;&gt;Node5 -->
<g id="edge5" class="edge">
<title>Node3&#45;&gt;Node5</title>
<path fill="none" stroke="midnightblue" d="M199.35,-114.43C168.06,-102.87 121.62,-85.71 94.02,-75.51"/>
<polygon fill="midnightblue" stroke="midnightblue" points="198.34,-117.79 208.93,-117.98 200.77,-111.23 198.34,-117.79"/>
</g>
<!-- Node4 -->
<g id="node4" class="node">
<title>Node4</title>
<g id="a_node4"><a xlink:href="../../d0/d33/classLeosac_1_1Tools_1_1IVisitable.html" target="_top" xlink:title="Base class to make an object visitable.">
<polygon fill="white" stroke="black" points="165.5,-179.5 165.5,-198.5 298.5,-198.5 298.5,-179.5 165.5,-179.5"/>
<text text-anchor="middle" x="232" y="-186.5" font-family="Helvetica,sans-Serif" font-size="10.00">Leosac::Tools::IVisitable</text>
</a>
</g>
</g>
<!-- Node4&#45;&gt;Node3 -->
<g id="edge3" class="edge">
<title>Node4&#45;&gt;Node3</title>
<path fill="none" stroke="midnightblue" d="M232,-169.32C232,-158.5 232,-145.4 232,-137.01"/>
<polygon fill="midnightblue" stroke="midnightblue" points="228.5,-169.48 232,-179.48 235.5,-169.48 228.5,-169.48"/>
</g>
<!-- Node5&#45;&gt;Node1 -->
<g id="edge4" class="edge">
<title>Node5&#45;&gt;Node1</title>
<path fill="none" stroke="midnightblue" d="M92.57,-50.62C107.36,-40.76 126.51,-27.99 139.02,-19.65"/>
<polygon fill="midnightblue" stroke="midnightblue" points="90.39,-47.86 84.01,-56.32 94.28,-53.69 90.39,-47.86"/>
</g>
<!-- Node6 -->
<g id="node6" class="node">
<title>Node6</title>
<g id="a_node6"><a xlink:title=" ">
<polygon fill="white" stroke="#bfbfbf" points="0,-112.5 0,-142.5 142,-142.5 142,-112.5 0,-112.5"/>
<text text-anchor="start" x="8" y="-130.5" font-family="Helvetica,sans-Serif" font-size="10.00">std::enable_shared</text>
<text text-anchor="middle" x="71" y="-119.5" font-family="Helvetica,sans-Serif" font-size="10.00">_from_this&lt; AuditEntry &gt;</text>
</a>
</g>
</g>
<!-- Node6&#45;&gt;Node5 -->
<g id="edge6" class="edge">
<title>Node6&#45;&gt;Node5</title>
<path fill="none" stroke="midnightblue" d="M71,-102.29C71,-92.86 71,-82.65 71,-75.66"/>
<polygon fill="midnightblue" stroke="midnightblue" points="67.5,-102.4 71,-112.4 74.5,-102.4 67.5,-102.4"/>
</g>
</g>
</svg>
