<?xml version="1.0" encoding="UTF-8" standalone="no"?>
<!DOCTYPE svg PUBLIC "-//W3C//DTD SVG 1.1//EN"
 "http://www.w3.org/Graphics/SVG/1.1/DTD/svg11.dtd">
<!-- Generated by graphviz version 2.43.0 (0)
 -->
<!-- Title: Leosac::Audit::UserGroupMembershipEvent Pages: 1 -->
<svg width="311pt" height="229pt"
 viewBox="0.00 0.00 310.50 229.00" xmlns="http://www.w3.org/2000/svg" xmlns:xlink="http://www.w3.org/1999/xlink">
<g id="graph0" class="graph" transform="scale(1 1) rotate(0) translate(4 225)">
<title>Leosac::Audit::UserGroupMembershipEvent</title>
<polygon fill="white" stroke="transparent" points="-4,4 -4,-225 306.5,-225 306.5,4 -4,4"/>
<!-- Node1 -->
<g id="node1" class="node">
<title>Node1</title>
<g id="a_node1"><a xlink:title="Provides an implementation of IUserGroupMembershipEvent.">
<polygon fill="#bfbfbf" stroke="black" points="81,-0.5 81,-30.5 221,-30.5 221,-0.5 81,-0.5"/>
<text text-anchor="start" x="89" y="-18.5" font-family="Helvetica,sans-Serif" font-size="10.00">Leosac::Audit::UserGroup</text>
<text text-anchor="middle" x="151" y="-7.5" font-family="Helvetica,sans-Serif" font-size="10.00">MembershipEvent</text>
</a>
</g>
</g>
<!-- Node2 -->
<g id="node2" class="node">
<title>Node2</title>
<g id="a_node2"><a xlink:href="../../d3/d84/classLeosac_1_1Audit_1_1IUserGroupMembershipEvent.html" target="_top" xlink:title="Interface to audit object that take care of tracking user/group membership change.">
<polygon fill="white" stroke="black" points="159.5,-67.5 159.5,-97.5 302.5,-97.5 302.5,-67.5 159.5,-67.5"/>
<text text-anchor="start" x="167.5" y="-85.5" font-family="Helvetica,sans-Serif" font-size="10.00">Leosac::Audit::IUserGroup</text>
<text text-anchor="middle" x="231" y="-74.5" font-family="Helvetica,sans-Serif" font-size="10.00">MembershipEvent</text>
</a>
</g>
</g>
<!-- Node2&#45;&gt;Node1 -->
<g id="edge1" class="edge">
<title>Node2&#45;&gt;Node1</title>
<path fill="none" stroke="midnightblue" d="M205.63,-60.88C193.47,-51.01 179.22,-39.43 168.32,-30.58"/>
<polygon fill="midnightblue" stroke="midnightblue" points="203.67,-63.81 213.64,-67.4 208.09,-58.37 203.67,-63.81"/>
</g>
<!-- Node3 -->
<g id="node3" class="node">
<title>Node3</title>
<g id="a_node3"><a xlink:href="../../d1/d44/classLeosac_1_1Audit_1_1IAuditEntry.html" target="_top" xlink:title="Base interface to Audit object.">
<polygon fill="white" stroke="black" points="160,-140 160,-159 302,-159 302,-140 160,-140"/>
<text text-anchor="middle" x="231" y="-147" font-family="Helvetica,sans-Serif" font-size="10.00">Leosac::Audit::IAuditEntry</text>
</a>
</g>
</g>
<!-- Node3&#45;&gt;Node2 -->
<g id="edge2" class="edge">
<title>Node3&#45;&gt;Node2</title>
<path fill="none" stroke="midnightblue" d="M231,-129.41C231,-119.22 231,-106.9 231,-97.59"/>
<polygon fill="midnightblue" stroke="midnightblue" points="227.5,-129.73 231,-139.73 234.5,-129.73 227.5,-129.73"/>
</g>
<!-- Node5 -->
<g id="node5" class="node">
<title>Node5</title>
<g id="a_node5"><a xlink:href="../../d0/d20/classLeosac_1_1Audit_1_1AuditEntry.html" target="_top" xlink:title="Implementation of IAuditEntry, backed by ODB.">
<polygon fill="white" stroke="black" points="2.5,-73 2.5,-92 141.5,-92 141.5,-73 2.5,-73"/>
<text text-anchor="middle" x="72" y="-80" font-family="Helvetica,sans-Serif" font-size="10.00">Leosac::Audit::AuditEntry</text>
</a>
</g>
</g>
<!-- Node3&#45;&gt;Node5 -->
<g id="edge5" class="edge">
<title>Node3&#45;&gt;Node5</title>
<path fill="none" stroke="midnightblue" d="M200.27,-135.94C168.69,-123.03 120.38,-103.28 92.95,-92.06"/>
<polygon fill="midnightblue" stroke="midnightblue" points="199.31,-139.32 209.89,-139.87 201.95,-132.84 199.31,-139.32"/>
</g>
<!-- Node4 -->
<g id="node4" class="node">
<title>Node4</title>
<g id="a_node4"><a xlink:href="../../d0/d33/classLeosac_1_1Tools_1_1IVisitable.html" target="_top" xlink:title="Base class to make an object visitable.">
<polygon fill="white" stroke="black" points="164.5,-201.5 164.5,-220.5 297.5,-220.5 297.5,-201.5 164.5,-201.5"/>
<text text-anchor="middle" x="231" y="-208.5" font-family="Helvetica,sans-Serif" font-size="10.00">Leosac::Tools::IVisitable</text>
</a>
</g>
</g>
<!-- Node4&#45;&gt;Node3 -->
<g id="edge3" class="edge">
<title>Node4&#45;&gt;Node3</title>
<path fill="none" stroke="midnightblue" d="M231,-191.32C231,-180.5 231,-167.4 231,-159.01"/>
<polygon fill="midnightblue" stroke="midnightblue" points="227.5,-191.48 231,-201.48 234.5,-191.48 227.5,-191.48"/>
</g>
<!-- Node5&#45;&gt;Node1 -->
<g id="edge4" class="edge">
<title>Node5&#45;&gt;Node1</title>
<path fill="none" stroke="midnightblue" d="M90.55,-66.24C103.66,-55.45 121.1,-41.1 133.88,-30.59"/>
<polygon fill="midnightblue" stroke="midnightblue" points="88.15,-63.68 82.65,-72.73 92.6,-69.08 88.15,-63.68"/>
</g>
<!-- Node6 -->
<g id="node6" class="node">
<title>Node6</title>
<g id="a_node6"><a xlink:title=" ">
<polygon fill="white" stroke="#bfbfbf" points="0,-134.5 0,-164.5 142,-164.5 142,-134.5 0,-134.5"/>
<text text-anchor="start" x="8" y="-152.5" font-family="Helvetica,sans-Serif" font-size="10.00">std::enable_shared</text>
<text text-anchor="middle" x="71" y="-141.5" font-family="Helvetica,sans-Serif" font-size="10.00">_from_this&lt; AuditEntry &gt;</text>
</a>
</g>
</g>
<!-- Node6&#45;&gt;Node5 -->
<g id="edge6" class="edge">
<title>Node6&#45;&gt;Node5</title>
<path fill="none" stroke="midnightblue" d="M71.37,-124.25C71.55,-113.02 71.74,-100.38 71.87,-92.19"/>
<polygon fill="midnightblue" stroke="midnightblue" points="67.87,-124.34 71.22,-134.4 74.87,-124.45 67.87,-124.34"/>
</g>
</g>
</svg>
