<?xml version="1.0" encoding="UTF-8" standalone="no"?>
<!DOCTYPE svg PUBLIC "-//W3C//DTD SVG 1.1//EN"
 "http://www.w3.org/Graphics/SVG/1.1/DTD/svg11.dtd">
<!-- Generated by graphviz version 2.43.0 (0)
 -->
<!-- Title: src/modules/wiegand/strategies/WiegandPinBuffered.cpp Pages: 1 -->
<svg width="1237pt" height="386pt"
 viewBox="0.00 0.00 1236.50 386.00" xmlns="http://www.w3.org/2000/svg" xmlns:xlink="http://www.w3.org/1999/xlink">
<g id="graph0" class="graph" transform="scale(1 1) rotate(0) translate(4 382)">
<title>src/modules/wiegand/strategies/WiegandPinBuffered.cpp</title>
<polygon fill="white" stroke="transparent" points="-4,4 -4,-382 1232.5,-382 1232.5,4 -4,4"/>
<!-- Node1 -->
<g id="node1" class="node">
<title>Node1</title>
<g id="a_node1"><a xlink:title=" ">
<polygon fill="#bfbfbf" stroke="black" points="414,-347.5 414,-377.5 605,-377.5 605,-347.5 414,-347.5"/>
<text text-anchor="start" x="422" y="-365.5" font-family="Helvetica,sans-Serif" font-size="10.00">src/modules/wiegand</text>
<text text-anchor="middle" x="509.5" y="-354.5" font-family="Helvetica,sans-Serif" font-size="10.00">/strategies/WiegandPinBuffered.cpp</text>
</a>
</g>
</g>
<!-- Node2 -->
<g id="node2" class="node">
<title>Node2</title>
<g id="a_node2"><a xlink:href="../../d6/da6/WiegandPinBuffered_8hpp.html" target="_top" xlink:title=" ">
<polygon fill="white" stroke="black" points="208,-286 208,-305 345,-305 345,-286 208,-286"/>
<text text-anchor="middle" x="276.5" y="-293" font-family="Helvetica,sans-Serif" font-size="10.00">WiegandPinBuffered.hpp</text>
</a>
</g>
</g>
<!-- Node1&#45;&gt;Node2 -->
<g id="edge1" class="edge">
<title>Node1&#45;&gt;Node2</title>
<path fill="none" stroke="midnightblue" d="M459.23,-347.48C416.65,-335.6 356.39,-318.79 316.89,-307.77"/>
<polygon fill="midnightblue" stroke="midnightblue" points="317.64,-304.34 307.07,-305.03 315.76,-311.09 317.64,-304.34"/>
</g>
<!-- Node16 -->
<g id="node16" class="node">
<title>Node16</title>
<g id="a_node16"><a xlink:href="../../de/d9a/WiegandReaderImpl_8hpp.html" target="_top" xlink:title=" ">
<polygon fill="white" stroke="black" points="418,-280.5 418,-310.5 601,-310.5 601,-280.5 418,-280.5"/>
<text text-anchor="start" x="426" y="-298.5" font-family="Helvetica,sans-Serif" font-size="10.00">modules/wiegand/WiegandReader</text>
<text text-anchor="middle" x="509.5" y="-287.5" font-family="Helvetica,sans-Serif" font-size="10.00">Impl.hpp</text>
</a>
</g>
</g>
<!-- Node1&#45;&gt;Node16 -->
<g id="edge16" class="edge">
<title>Node1&#45;&gt;Node16</title>
<path fill="none" stroke="midnightblue" d="M509.5,-347.4C509.5,-339.64 509.5,-329.81 509.5,-320.86"/>
<polygon fill="midnightblue" stroke="midnightblue" points="513,-320.58 509.5,-310.58 506,-320.58 513,-320.58"/>
</g>
<!-- Node21 -->
<g id="node21" class="node">
<title>Node21</title>
<g id="a_node21"><a xlink:href="../../d4/d3d/log_8hpp.html" target="_top" xlink:title=" ">
<polygon fill="white" stroke="black" points="898.5,-286 898.5,-305 978.5,-305 978.5,-286 898.5,-286"/>
<text text-anchor="middle" x="938.5" y="-293" font-family="Helvetica,sans-Serif" font-size="10.00">tools/log.hpp</text>
</a>
</g>
</g>
<!-- Node1&#45;&gt;Node21 -->
<g id="edge29" class="edge">
<title>Node1&#45;&gt;Node21</title>
<path fill="none" stroke="midnightblue" d="M602.06,-347.48C689.86,-334.17 818.49,-314.68 888.53,-304.07"/>
<polygon fill="midnightblue" stroke="midnightblue" points="889.07,-307.53 898.43,-302.57 888.02,-300.61 889.07,-307.53"/>
</g>
<!-- Node3 -->
<g id="node3" class="node">
<title>Node3</title>
<g id="a_node3"><a xlink:href="../../d0/dc4/PinReading_8hpp.html" target="_top" xlink:title=" ">
<polygon fill="white" stroke="black" points="175.5,-224.5 175.5,-243.5 267.5,-243.5 267.5,-224.5 175.5,-224.5"/>
<text text-anchor="middle" x="221.5" y="-231.5" font-family="Helvetica,sans-Serif" font-size="10.00">PinReading.hpp</text>
</a>
</g>
</g>
<!-- Node2&#45;&gt;Node3 -->
<g id="edge2" class="edge">
<title>Node2&#45;&gt;Node3</title>
<path fill="none" stroke="midnightblue" d="M268.62,-285.98C260.21,-276.87 246.68,-262.24 236.27,-250.98"/>
<polygon fill="midnightblue" stroke="midnightblue" points="238.72,-248.48 229.37,-243.51 233.58,-253.23 238.72,-248.48"/>
</g>
<!-- Node4 -->
<g id="node4" class="node">
<title>Node4</title>
<g id="a_node4"><a xlink:href="../../db/dd7/StrategiesFwd_8hpp.html" target="_top" xlink:title=" ">
<polygon fill="white" stroke="black" points="0,-56.5 0,-75.5 107,-75.5 107,-56.5 0,-56.5"/>
<text text-anchor="middle" x="53.5" y="-63.5" font-family="Helvetica,sans-Serif" font-size="10.00">StrategiesFwd.hpp</text>
</a>
</g>
</g>
<!-- Node3&#45;&gt;Node4 -->
<g id="edge3" class="edge">
<title>Node3&#45;&gt;Node4</title>
<path fill="none" stroke="midnightblue" d="M212.47,-224.08C185.34,-197.27 104.29,-117.19 69.58,-82.89"/>
<polygon fill="midnightblue" stroke="midnightblue" points="71.74,-80.11 62.17,-75.57 66.82,-85.09 71.74,-80.11"/>
</g>
<!-- Node6 -->
<g id="node6" class="node">
<title>Node6</title>
<g id="a_node6"><a xlink:href="../../dd/d5c/WiegandStrategy_8hpp.html" target="_top" xlink:title=" ">
<polygon fill="white" stroke="black" points="323.5,-168.5 323.5,-187.5 443.5,-187.5 443.5,-168.5 323.5,-168.5"/>
<text text-anchor="middle" x="383.5" y="-175.5" font-family="Helvetica,sans-Serif" font-size="10.00">WiegandStrategy.hpp</text>
</a>
</g>
</g>
<!-- Node3&#45;&gt;Node6 -->
<g id="edge5" class="edge">
<title>Node3&#45;&gt;Node6</title>
<path fill="none" stroke="midnightblue" d="M247.17,-224.44C274.42,-215.36 317.68,-200.94 348.15,-190.78"/>
<polygon fill="midnightblue" stroke="midnightblue" points="349.57,-194 357.95,-187.52 347.36,-187.36 349.57,-194"/>
</g>
<!-- Node5 -->
<g id="node5" class="node">
<title>Node5</title>
<g id="a_node5"><a xlink:title=" ">
<polygon fill="white" stroke="#bfbfbf" points="101.5,-0.5 101.5,-19.5 159.5,-19.5 159.5,-0.5 101.5,-0.5"/>
<text text-anchor="middle" x="130.5" y="-7.5" font-family="Helvetica,sans-Serif" font-size="10.00">memory</text>
</a>
</g>
</g>
<!-- Node4&#45;&gt;Node5 -->
<g id="edge4" class="edge">
<title>Node4&#45;&gt;Node5</title>
<path fill="none" stroke="midnightblue" d="M65.87,-56.32C77.66,-48.06 95.63,-35.45 109.64,-25.63"/>
<polygon fill="midnightblue" stroke="midnightblue" points="111.98,-28.26 118.16,-19.65 107.96,-22.53 111.98,-28.26"/>
</g>
<!-- Node7 -->
<g id="node7" class="node">
<title>Node7</title>
<g id="a_node7"><a xlink:href="../../dc/d74/Auth_8hpp.html" target="_top" xlink:title=" ">
<polygon fill="white" stroke="black" points="130,-112.5 130,-131.5 239,-131.5 239,-112.5 130,-112.5"/>
<text text-anchor="middle" x="184.5" y="-119.5" font-family="Helvetica,sans-Serif" font-size="10.00">core/auth/Auth.hpp</text>
</a>
</g>
</g>
<!-- Node6&#45;&gt;Node7 -->
<g id="edge6" class="edge">
<title>Node6&#45;&gt;Node7</title>
<path fill="none" stroke="midnightblue" d="M351.97,-168.44C317.91,-159.2 263.49,-144.44 225.98,-134.26"/>
<polygon fill="midnightblue" stroke="midnightblue" points="226.45,-130.76 215.88,-131.52 224.62,-137.51 226.45,-130.76"/>
</g>
<!-- Node12 -->
<g id="node12" class="node">
<title>Node12</title>
<g id="a_node12"><a xlink:title=" ">
<polygon fill="white" stroke="#bfbfbf" points="359,-112.5 359,-131.5 466,-131.5 466,-112.5 359,-112.5"/>
<text text-anchor="middle" x="412.5" y="-119.5" font-family="Helvetica,sans-Serif" font-size="10.00">zmqpp/zmqpp.hpp</text>
</a>
</g>
</g>
<!-- Node6&#45;&gt;Node12 -->
<g id="edge12" class="edge">
<title>Node6&#45;&gt;Node12</title>
<path fill="none" stroke="midnightblue" d="M388.29,-168.08C392.26,-160.69 398.03,-149.95 402.93,-140.81"/>
<polygon fill="midnightblue" stroke="midnightblue" points="406.15,-142.22 407.8,-131.75 399.99,-138.91 406.15,-142.22"/>
</g>
<!-- Node13 -->
<g id="node13" class="node">
<title>Node13</title>
<g id="a_node13"><a xlink:title=" ">
<polygon fill="white" stroke="#bfbfbf" points="257.5,-112.5 257.5,-131.5 341.5,-131.5 341.5,-112.5 257.5,-112.5"/>
<text text-anchor="middle" x="299.5" y="-119.5" font-family="Helvetica,sans-Serif" font-size="10.00">boost/any.hpp</text>
</a>
</g>
</g>
<!-- Node6&#45;&gt;Node13 -->
<g id="edge13" class="edge">
<title>Node6&#45;&gt;Node13</title>
<path fill="none" stroke="midnightblue" d="M370,-168.32C356.9,-159.9 336.79,-146.97 321.39,-137.07"/>
<polygon fill="midnightblue" stroke="midnightblue" points="323.27,-134.12 312.96,-131.65 319.48,-140.01 323.27,-134.12"/>
</g>
<!-- Node14 -->
<g id="node14" class="node">
<title>Node14</title>
<g id="a_node14"><a xlink:title=" ">
<polygon fill="white" stroke="#bfbfbf" points="484.5,-112.5 484.5,-131.5 534.5,-131.5 534.5,-112.5 484.5,-112.5"/>
<text text-anchor="middle" x="509.5" y="-119.5" font-family="Helvetica,sans-Serif" font-size="10.00">chrono</text>
</a>
</g>
</g>
<!-- Node6&#45;&gt;Node14 -->
<g id="edge14" class="edge">
<title>Node6&#45;&gt;Node14</title>
<path fill="none" stroke="midnightblue" d="M403.47,-168.44C424.11,-159.6 456.56,-145.69 480.13,-135.59"/>
<polygon fill="midnightblue" stroke="midnightblue" points="481.82,-138.67 489.63,-131.52 479.06,-132.24 481.82,-138.67"/>
</g>
<!-- Node15 -->
<g id="node15" class="node">
<title>Node15</title>
<g id="a_node15"><a xlink:title=" ">
<polygon fill="white" stroke="#bfbfbf" points="795.5,-112.5 795.5,-131.5 839.5,-131.5 839.5,-112.5 795.5,-112.5"/>
<text text-anchor="middle" x="817.5" y="-119.5" font-family="Helvetica,sans-Serif" font-size="10.00">string</text>
</a>
</g>
</g>
<!-- Node6&#45;&gt;Node15 -->
<g id="edge15" class="edge">
<title>Node6&#45;&gt;Node15</title>
<path fill="none" stroke="midnightblue" d="M443.74,-173.51C520.94,-168.31 658.96,-156.61 785.4,-131.91"/>
<polygon fill="midnightblue" stroke="midnightblue" points="786.14,-135.33 795.26,-129.95 784.77,-128.47 786.14,-135.33"/>
</g>
<!-- Node8 -->
<g id="node8" class="node">
<title>Node8</title>
<g id="a_node8"><a xlink:href="../../d3/d6f/AuthFwd_8hpp.html" target="_top" xlink:title=" ">
<polygon fill="white" stroke="black" points="261.5,-56.5 261.5,-75.5 341.5,-75.5 341.5,-56.5 261.5,-56.5"/>
<text text-anchor="middle" x="301.5" y="-63.5" font-family="Helvetica,sans-Serif" font-size="10.00">AuthFwd.hpp</text>
</a>
</g>
</g>
<!-- Node7&#45;&gt;Node8 -->
<g id="edge7" class="edge">
<title>Node7&#45;&gt;Node8</title>
<path fill="none" stroke="midnightblue" d="M203.04,-112.44C222.12,-103.64 252.07,-89.81 273.94,-79.72"/>
<polygon fill="midnightblue" stroke="midnightblue" points="275.43,-82.88 283.05,-75.52 272.5,-76.53 275.43,-82.88"/>
</g>
<!-- Node11 -->
<g id="node11" class="node">
<title>Node11</title>
<g id="a_node11"><a xlink:title=" ">
<polygon fill="white" stroke="#bfbfbf" points="125.5,-56.5 125.5,-75.5 243.5,-75.5 243.5,-56.5 125.5,-56.5"/>
<text text-anchor="middle" x="184.5" y="-63.5" font-family="Helvetica,sans-Serif" font-size="10.00">zmqpp/message.hpp</text>
</a>
</g>
</g>
<!-- Node7&#45;&gt;Node11 -->
<g id="edge11" class="edge">
<title>Node7&#45;&gt;Node11</title>
<path fill="none" stroke="midnightblue" d="M184.5,-112.08C184.5,-105.01 184.5,-94.86 184.5,-85.99"/>
<polygon fill="midnightblue" stroke="midnightblue" points="188,-85.75 184.5,-75.75 181,-85.75 188,-85.75"/>
</g>
<!-- Node8&#45;&gt;Node5 -->
<g id="edge9" class="edge">
<title>Node8&#45;&gt;Node5</title>
<path fill="none" stroke="midnightblue" d="M274.4,-56.44C245.51,-47.32 199.58,-32.81 167.39,-22.65"/>
<polygon fill="midnightblue" stroke="midnightblue" points="168.06,-19.19 157.47,-19.52 165.95,-25.87 168.06,-19.19"/>
</g>
<!-- Node9 -->
<g id="node9" class="node">
<title>Node9</title>
<g id="a_node9"><a xlink:title=" ">
<polygon fill="white" stroke="#bfbfbf" points="321,-0.5 321,-19.5 374,-19.5 374,-0.5 321,-0.5"/>
<text text-anchor="middle" x="347.5" y="-7.5" font-family="Helvetica,sans-Serif" font-size="10.00">cstddef</text>
</a>
</g>
</g>
<!-- Node8&#45;&gt;Node9 -->
<g id="edge8" class="edge">
<title>Node8&#45;&gt;Node9</title>
<path fill="none" stroke="midnightblue" d="M309.1,-56.08C315.73,-48.3 325.52,-36.8 333.56,-27.37"/>
<polygon fill="midnightblue" stroke="midnightblue" points="336.23,-29.63 340.05,-19.75 330.9,-25.09 336.23,-29.63"/>
</g>
<!-- Node10 -->
<g id="node10" class="node">
<title>Node10</title>
<g id="a_node10"><a xlink:title=" ">
<polygon fill="white" stroke="#bfbfbf" points="208,-0.5 208,-19.5 303,-19.5 303,-0.5 208,-0.5"/>
<text text-anchor="middle" x="255.5" y="-7.5" font-family="Helvetica,sans-Serif" font-size="10.00">odb/lazy&#45;ptr.hxx</text>
</a>
</g>
</g>
<!-- Node8&#45;&gt;Node10 -->
<g id="edge10" class="edge">
<title>Node8&#45;&gt;Node10</title>
<path fill="none" stroke="midnightblue" d="M293.9,-56.08C287.27,-48.3 277.48,-36.8 269.44,-27.37"/>
<polygon fill="midnightblue" stroke="midnightblue" points="272.1,-25.09 262.95,-19.75 266.77,-29.63 272.1,-25.09"/>
</g>
<!-- Node16&#45;&gt;Node6 -->
<g id="edge25" class="edge">
<title>Node16&#45;&gt;Node6</title>
<path fill="none" stroke="midnightblue" d="M494.05,-280.34C470.32,-258.58 425.06,-217.09 400.45,-194.54"/>
<polygon fill="midnightblue" stroke="midnightblue" points="402.69,-191.85 392.96,-187.67 397.96,-197.01 402.69,-191.85"/>
</g>
<!-- Node16&#45;&gt;Node7 -->
<g id="edge17" class="edge">
<title>Node16&#45;&gt;Node7</title>
<path fill="none" stroke="midnightblue" d="M482.9,-280.47C421.44,-248.03 270.21,-168.23 209.91,-136.41"/>
<polygon fill="midnightblue" stroke="midnightblue" points="211.2,-133.13 200.72,-131.56 207.93,-139.32 211.2,-133.13"/>
</g>
<!-- Node16&#45;&gt;Node12 -->
<g id="edge26" class="edge">
<title>Node16&#45;&gt;Node12</title>
<path fill="none" stroke="midnightblue" d="M504.65,-280.12C496.12,-255.88 477,-205.8 452.5,-168 445.76,-157.61 436.69,-147.19 428.89,-139"/>
<polygon fill="midnightblue" stroke="midnightblue" points="431.16,-136.32 421.65,-131.64 426.17,-141.22 431.16,-136.32"/>
</g>
<!-- Node16&#45;&gt;Node14 -->
<g id="edge27" class="edge">
<title>Node16&#45;&gt;Node14</title>
<path fill="none" stroke="midnightblue" d="M509.5,-280.47C509.5,-249.7 509.5,-176.33 509.5,-141.7"/>
<polygon fill="midnightblue" stroke="midnightblue" points="513,-141.56 509.5,-131.56 506,-141.56 513,-141.56"/>
</g>
<!-- Node16&#45;&gt;Node15 -->
<g id="edge28" class="edge">
<title>Node16&#45;&gt;Node15</title>
<path fill="none" stroke="midnightblue" d="M601.1,-283.32C658.84,-274.77 726.81,-261.48 750.5,-244 785.48,-218.18 804.49,-168.36 812.63,-141.4"/>
<polygon fill="midnightblue" stroke="midnightblue" points="816.02,-142.26 815.39,-131.68 809.29,-140.35 816.02,-142.26"/>
</g>
<!-- Node17 -->
<g id="node17" class="node">
<title>Node17</title>
<g id="a_node17"><a xlink:href="../../dd/d5a/FBuzzer_8hpp.html" target="_top" xlink:title=" ">
<polygon fill="white" stroke="black" points="575.5,-224.5 575.5,-243.5 741.5,-243.5 741.5,-224.5 575.5,-224.5"/>
<text text-anchor="middle" x="658.5" y="-231.5" font-family="Helvetica,sans-Serif" font-size="10.00">hardware/facades/FBuzzer.hpp</text>
</a>
</g>
</g>
<!-- Node16&#45;&gt;Node17 -->
<g id="edge18" class="edge">
<title>Node16&#45;&gt;Node17</title>
<path fill="none" stroke="midnightblue" d="M544.81,-280.4C569.92,-270.37 603.34,-257.03 627.44,-247.4"/>
<polygon fill="midnightblue" stroke="midnightblue" points="628.83,-250.62 636.82,-243.66 626.23,-244.12 628.83,-250.62"/>
</g>
<!-- Node18 -->
<g id="node18" class="node">
<title>Node18</title>
<g id="a_node18"><a xlink:href="../../d3/dbd/FLED_8hpp.html" target="_top" xlink:title=" ">
<polygon fill="white" stroke="black" points="599.5,-168.5 599.5,-187.5 661.5,-187.5 661.5,-168.5 599.5,-168.5"/>
<text text-anchor="middle" x="630.5" y="-175.5" font-family="Helvetica,sans-Serif" font-size="10.00">FLED.hpp</text>
</a>
</g>
</g>
<!-- Node16&#45;&gt;Node18 -->
<g id="edge24" class="edge">
<title>Node16&#45;&gt;Node18</title>
<path fill="none" stroke="midnightblue" d="M519.18,-280.29C529.78,-265.31 547.76,-241.52 566.5,-224 578.95,-212.35 594.58,-201.31 607.28,-193.08"/>
<polygon fill="midnightblue" stroke="midnightblue" points="609.34,-195.92 615.92,-187.61 605.6,-190 609.34,-195.92"/>
</g>
<!-- Node17&#45;&gt;Node18 -->
<g id="edge19" class="edge">
<title>Node17&#45;&gt;Node18</title>
<path fill="none" stroke="midnightblue" d="M653.88,-224.08C650.04,-216.69 644.48,-205.95 639.74,-196.81"/>
<polygon fill="midnightblue" stroke="midnightblue" points="642.75,-195.02 635.04,-187.75 636.53,-198.24 642.75,-195.02"/>
</g>
<!-- Node18&#45;&gt;Node14 -->
<g id="edge20" class="edge">
<title>Node18&#45;&gt;Node14</title>
<path fill="none" stroke="midnightblue" d="M611.33,-168.44C591.59,-159.64 560.61,-145.81 538.01,-135.72"/>
<polygon fill="midnightblue" stroke="midnightblue" points="539.14,-132.4 528.58,-131.52 536.29,-138.79 539.14,-132.4"/>
</g>
<!-- Node18&#45;&gt;Node15 -->
<g id="edge21" class="edge">
<title>Node18&#45;&gt;Node15</title>
<path fill="none" stroke="midnightblue" d="M660.12,-168.47C689.54,-160 736.2,-146.55 785.58,-132.26"/>
<polygon fill="midnightblue" stroke="midnightblue" points="786.85,-135.54 795.49,-129.4 784.91,-128.81 786.85,-135.54"/>
</g>
<!-- Node19 -->
<g id="node19" class="node">
<title>Node19</title>
<g id="a_node19"><a xlink:title=" ">
<polygon fill="white" stroke="#bfbfbf" points="553,-112.5 553,-131.5 654,-131.5 654,-112.5 553,-112.5"/>
<text text-anchor="middle" x="603.5" y="-119.5" font-family="Helvetica,sans-Serif" font-size="10.00">zmqpp/poller.hpp</text>
</a>
</g>
</g>
<!-- Node18&#45;&gt;Node19 -->
<g id="edge22" class="edge">
<title>Node18&#45;&gt;Node19</title>
<path fill="none" stroke="midnightblue" d="M626.04,-168.08C622.35,-160.69 616.98,-149.95 612.41,-140.81"/>
<polygon fill="midnightblue" stroke="midnightblue" points="615.48,-139.13 607.88,-131.75 609.22,-142.26 615.48,-139.13"/>
</g>
<!-- Node20 -->
<g id="node20" class="node">
<title>Node20</title>
<g id="a_node20"><a xlink:title=" ">
<polygon fill="white" stroke="#bfbfbf" points="672,-112.5 672,-131.5 777,-131.5 777,-112.5 672,-112.5"/>
<text text-anchor="middle" x="724.5" y="-119.5" font-family="Helvetica,sans-Serif" font-size="10.00">zmqpp/socket.hpp</text>
</a>
</g>
</g>
<!-- Node18&#45;&gt;Node20 -->
<g id="edge23" class="edge">
<title>Node18&#45;&gt;Node20</title>
<path fill="none" stroke="midnightblue" d="M645.6,-168.32C660.4,-159.82 683.19,-146.73 700.48,-136.8"/>
<polygon fill="midnightblue" stroke="midnightblue" points="702.51,-139.67 709.43,-131.65 699.02,-133.6 702.51,-139.67"/>
</g>
<!-- Node21&#45;&gt;Node15 -->
<g id="edge35" class="edge">
<title>Node21&#45;&gt;Node15</title>
<path fill="none" stroke="midnightblue" d="M900.52,-285.98C877.43,-278.76 849.4,-265.95 833.5,-244 811.51,-213.64 812.27,-167.46 814.84,-141.82"/>
<polygon fill="midnightblue" stroke="midnightblue" points="818.35,-141.96 816.07,-131.62 811.4,-141.12 818.35,-141.96"/>
</g>
<!-- Node22 -->
<g id="node22" class="node">
<title>Node22</title>
<g id="a_node22"><a xlink:title=" ">
<polygon fill="white" stroke="#bfbfbf" points="842.5,-224.5 842.5,-243.5 894.5,-243.5 894.5,-224.5 842.5,-224.5"/>
<text text-anchor="middle" x="868.5" y="-231.5" font-family="Helvetica,sans-Serif" font-size="10.00">cassert</text>
</a>
</g>
</g>
<!-- Node21&#45;&gt;Node22 -->
<g id="edge30" class="edge">
<title>Node21&#45;&gt;Node22</title>
<path fill="none" stroke="midnightblue" d="M928.47,-285.98C917.45,-276.61 899.54,-261.38 886.16,-250.01"/>
<polygon fill="midnightblue" stroke="midnightblue" points="888.4,-247.32 878.51,-243.51 883.86,-252.65 888.4,-247.32"/>
</g>
<!-- Node23 -->
<g id="node23" class="node">
<title>Node23</title>
<g id="a_node23"><a xlink:title=" ">
<polygon fill="white" stroke="#bfbfbf" points="913,-224.5 913,-243.5 964,-243.5 964,-224.5 913,-224.5"/>
<text text-anchor="middle" x="938.5" y="-231.5" font-family="Helvetica,sans-Serif" font-size="10.00">csignal</text>
</a>
</g>
</g>
<!-- Node21&#45;&gt;Node23 -->
<g id="edge31" class="edge">
<title>Node21&#45;&gt;Node23</title>
<path fill="none" stroke="midnightblue" d="M938.5,-285.98C938.5,-277.58 938.5,-264.48 938.5,-253.66"/>
<polygon fill="midnightblue" stroke="midnightblue" points="942,-253.51 938.5,-243.51 935,-253.51 942,-253.51"/>
</g>
<!-- Node24 -->
<g id="node24" class="node">
<title>Node24</title>
<g id="a_node24"><a xlink:title=" ">
<polygon fill="white" stroke="#bfbfbf" points="982.5,-224.5 982.5,-243.5 1042.5,-243.5 1042.5,-224.5 982.5,-224.5"/>
<text text-anchor="middle" x="1012.5" y="-231.5" font-family="Helvetica,sans-Serif" font-size="10.00">iostream</text>
</a>
</g>
</g>
<!-- Node21&#45;&gt;Node24 -->
<g id="edge32" class="edge">
<title>Node21&#45;&gt;Node24</title>
<path fill="none" stroke="midnightblue" d="M949.1,-285.98C960.75,-276.61 979.69,-261.38 993.83,-250.01"/>
<polygon fill="midnightblue" stroke="midnightblue" points="996.32,-252.5 1001.92,-243.51 991.93,-247.05 996.32,-252.5"/>
</g>
<!-- Node25 -->
<g id="node25" class="node">
<title>Node25</title>
<g id="a_node25"><a xlink:title=" ">
<polygon fill="white" stroke="#bfbfbf" points="1061,-224.5 1061,-243.5 1154,-243.5 1154,-224.5 1061,-224.5"/>
<text text-anchor="middle" x="1107.5" y="-231.5" font-family="Helvetica,sans-Serif" font-size="10.00">spdlog/spdlog.h</text>
</a>
</g>
</g>
<!-- Node21&#45;&gt;Node25 -->
<g id="edge33" class="edge">
<title>Node21&#45;&gt;Node25</title>
<path fill="none" stroke="midnightblue" d="M962.71,-285.98C991.83,-275.72 1040.87,-258.46 1073.7,-246.9"/>
<polygon fill="midnightblue" stroke="midnightblue" points="1075.06,-250.13 1083.33,-243.51 1072.74,-243.53 1075.06,-250.13"/>
</g>
<!-- Node26 -->
<g id="node26" class="node">
<title>Node26</title>
<g id="a_node26"><a xlink:title=" ">
<polygon fill="white" stroke="#bfbfbf" points="1172.5,-224.5 1172.5,-243.5 1228.5,-243.5 1228.5,-224.5 1172.5,-224.5"/>
<text text-anchor="middle" x="1200.5" y="-231.5" font-family="Helvetica,sans-Serif" font-size="10.00">sstream</text>
</a>
</g>
</g>
<!-- Node21&#45;&gt;Node26 -->
<g id="edge34" class="edge">
<title>Node21&#45;&gt;Node26</title>
<path fill="none" stroke="midnightblue" d="M977.57,-285.95C1020.47,-276.52 1091.64,-260.72 1162.27,-244.26"/>
<polygon fill="midnightblue" stroke="midnightblue" points="1163.29,-247.61 1172.23,-241.93 1161.7,-240.8 1163.29,-247.61"/>
</g>
</g>
</svg>
