<?xml version="1.0" encoding="UTF-8" standalone="no"?>
<!DOCTYPE svg PUBLIC "-//W3C//DTD SVG 1.1//EN"
 "http://www.w3.org/Graphics/SVG/1.1/DTD/svg11.dtd">
<!-- Generated by graphviz version 2.43.0 (0)
 -->
<!-- Title: Leosac::Audit::ScheduleEvent Pages: 1 -->
<svg width="928pt" height="280pt"
 viewBox="0.00 0.00 928.00 280.00" xmlns="http://www.w3.org/2000/svg" xmlns:xlink="http://www.w3.org/1999/xlink">
<g id="graph0" class="graph" transform="scale(1 1) rotate(0) translate(4 276)">
<title>Leosac::Audit::ScheduleEvent</title>
<polygon fill="white" stroke="transparent" points="-4,4 -4,-276 924,-276 924,4 -4,4"/>
<!-- Node1 -->
<g id="node1" class="node">
<title>Node1</title>
<g id="a_node1"><a xlink:title="Provides an implementation of IScheduleEvent.">
<polygon fill="#bfbfbf" stroke="black" points="760,-58 760,-77 920,-77 920,-58 760,-58"/>
<text text-anchor="middle" x="840" y="-65" font-family="Helvetica,sans-Serif" font-size="10.00">Leosac::Audit::ScheduleEvent</text>
</a>
</g>
</g>
<!-- Node2 -->
<g id="node2" class="node">
<title>Node2</title>
<g id="a_node2"><a xlink:href="../../d7/d97/classLeosac_1_1Audit_1_1IScheduleEvent.html" target="_top" xlink:title="Audit interface to Schedule related events.">
<polygon fill="white" stroke="black" points="547,-0.5 547,-30.5 682,-30.5 682,-0.5 547,-0.5"/>
<text text-anchor="start" x="555" y="-18.5" font-family="Helvetica,sans-Serif" font-size="10.00">Leosac::Audit::ISchedule</text>
<text text-anchor="middle" x="614.5" y="-7.5" font-family="Helvetica,sans-Serif" font-size="10.00">Event</text>
</a>
</g>
</g>
<!-- Node2&#45;&gt;Node1 -->
<g id="edge1" class="edge">
<title>Node2&#45;&gt;Node1</title>
<path fill="none" stroke="midnightblue" d="M690.13,-32.86C726.14,-41.24 767.95,-50.97 798.08,-57.98"/>
<polygon fill="midnightblue" stroke="midnightblue" points="690.68,-29.4 680.15,-30.54 689.09,-36.22 690.68,-29.4"/>
</g>
<!-- Node3 -->
<g id="node3" class="node">
<title>Node3</title>
<g id="a_node3"><a xlink:href="../../d1/d44/classLeosac_1_1Audit_1_1IAuditEntry.html" target="_top" xlink:title="Base interface to Audit object.">
<polygon fill="white" stroke="black" points="306.5,-11 306.5,-30 448.5,-30 448.5,-11 306.5,-11"/>
<text text-anchor="middle" x="377.5" y="-18" font-family="Helvetica,sans-Serif" font-size="10.00">Leosac::Audit::IAuditEntry</text>
</a>
</g>
</g>
<!-- Node3&#45;&gt;Node2 -->
<g id="edge2" class="edge">
<title>Node3&#45;&gt;Node2</title>
<path fill="none" stroke="midnightblue" d="M458.7,-18.79C487.41,-18.18 519.45,-17.5 546.89,-16.92"/>
<polygon fill="midnightblue" stroke="midnightblue" points="458.61,-15.29 448.69,-19.01 458.76,-22.29 458.61,-15.29"/>
</g>
<!-- Node5 -->
<g id="node5" class="node">
<title>Node5</title>
<g id="a_node5"><a xlink:href="../../d0/d20/classLeosac_1_1Audit_1_1AuditEntry.html" target="_top" xlink:title="Implementation of IAuditEntry, backed by ODB.">
<polygon fill="white" stroke="black" points="545,-125 545,-144 684,-144 684,-125 545,-125"/>
<text text-anchor="middle" x="614.5" y="-132" font-family="Helvetica,sans-Serif" font-size="10.00">Leosac::Audit::AuditEntry</text>
</a>
</g>
</g>
<!-- Node3&#45;&gt;Node5 -->
<g id="edge5" class="edge">
<title>Node3&#45;&gt;Node5</title>
<path fill="none" stroke="midnightblue" d="M412.19,-33.9C425.62,-39.42 441.14,-46.03 455,-52.5 507.22,-76.88 567.23,-109.12 596.14,-124.93"/>
<polygon fill="midnightblue" stroke="midnightblue" points="413.42,-30.62 402.84,-30.09 410.78,-37.11 413.42,-30.62"/>
</g>
<!-- Node4 -->
<g id="node4" class="node">
<title>Node4</title>
<g id="a_node4"><a xlink:href="../../d0/d33/classLeosac_1_1Tools_1_1IVisitable.html" target="_top" xlink:title="Base class to make an object visitable.">
<polygon fill="white" stroke="black" points="82,-11 82,-30 215,-30 215,-11 82,-11"/>
<text text-anchor="middle" x="148.5" y="-18" font-family="Helvetica,sans-Serif" font-size="10.00">Leosac::Tools::IVisitable</text>
</a>
</g>
</g>
<!-- Node4&#45;&gt;Node3 -->
<g id="edge3" class="edge">
<title>Node4&#45;&gt;Node3</title>
<path fill="none" stroke="midnightblue" d="M225.38,-20.5C251.49,-20.5 280.59,-20.5 306.24,-20.5"/>
<polygon fill="midnightblue" stroke="midnightblue" points="225.16,-17 215.16,-20.5 225.16,-24 225.16,-17"/>
</g>
<!-- Node5&#45;&gt;Node1 -->
<g id="edge4" class="edge">
<title>Node5&#45;&gt;Node1</title>
<path fill="none" stroke="midnightblue" d="M657.21,-122C700.62,-108.98 767.65,-88.89 807.04,-77.08"/>
<polygon fill="midnightblue" stroke="midnightblue" points="656.1,-118.68 647.52,-124.9 658.11,-125.38 656.1,-118.68"/>
</g>
<!-- Node12 -->
<g id="node12" class="node">
<title>Node12</title>
<g id="a_node12"><a xlink:title=" ">
<polygon fill="white" stroke="#bfbfbf" points="762,-139 762,-158 918,-158 918,-139 762,-139"/>
<text text-anchor="middle" x="840" y="-146" font-family="Helvetica,sans-Serif" font-size="10.00">std::weak_ptr&lt; AuditEntry &gt;</text>
</a>
</g>
</g>
<!-- Node5&#45;&gt;Node12 -->
<g id="edge13" class="edge">
<title>Node5&#45;&gt;Node12</title>
<path fill="none" stroke="#9a32cd" stroke-dasharray="5,2" d="M694.39,-142.93C696.95,-143.13 699.5,-143.32 702,-143.5 721.35,-144.86 742.26,-145.86 761.79,-146.59"/>
<polygon fill="#9a32cd" stroke="#9a32cd" points="694.66,-139.44 684.4,-142.09 694.07,-146.42 694.66,-139.44"/>
<text text-anchor="middle" x="722" y="-148.5" font-family="Helvetica,sans-Serif" font-size="10.00"> ptr</text>
</g>
<!-- Node6 -->
<g id="node6" class="node">
<title>Node6</title>
<g id="a_node6"><a xlink:title=" ">
<polygon fill="white" stroke="#bfbfbf" points="306.5,-241.5 306.5,-271.5 448.5,-271.5 448.5,-241.5 306.5,-241.5"/>
<text text-anchor="start" x="314.5" y="-259.5" font-family="Helvetica,sans-Serif" font-size="10.00">std::enable_shared</text>
<text text-anchor="middle" x="377.5" y="-248.5" font-family="Helvetica,sans-Serif" font-size="10.00">_from_this&lt; AuditEntry &gt;</text>
</a>
</g>
</g>
<!-- Node6&#45;&gt;Node5 -->
<g id="edge6" class="edge">
<title>Node6&#45;&gt;Node5</title>
<path fill="none" stroke="midnightblue" d="M436.31,-238.06C442.64,-235.91 448.97,-233.7 455,-231.5 487.41,-219.69 497.14,-219.78 527,-202.5 556.93,-185.18 587.78,-158.36 603.28,-144.13"/>
<polygon fill="midnightblue" stroke="midnightblue" points="434.78,-234.89 426.41,-241.39 437.01,-241.52 434.78,-234.89"/>
</g>
<!-- Node7 -->
<g id="node7" class="node">
<title>Node7</title>
<g id="a_node7"><a xlink:title=" ">
<polygon fill="white" stroke="#bfbfbf" points="300,-203 300,-222 455,-222 455,-203 300,-203"/>
<text text-anchor="middle" x="377.5" y="-210" font-family="Helvetica,sans-Serif" font-size="10.00">std::vector&lt; AuditEntryPtr &gt;</text>
</a>
</g>
</g>
<!-- Node7&#45;&gt;Node5 -->
<g id="edge7" class="edge">
<title>Node7&#45;&gt;Node5</title>
<path fill="none" stroke="#9a32cd" stroke-dasharray="5,2" d="M429.46,-200.44C438.01,-198.24 446.78,-195.89 455,-193.5 487.39,-184.09 495.35,-181.17 527,-169.5 548.89,-161.43 573.52,-151.37 590.89,-144.1"/>
<polygon fill="#9a32cd" stroke="#9a32cd" points="428.39,-197.09 419.55,-202.93 430.1,-203.88 428.39,-197.09"/>
<text text-anchor="middle" x="500" y="-190.5" font-family="Helvetica,sans-Serif" font-size="10.00"> children_</text>
</g>
<!-- Node8 -->
<g id="node8" class="node">
<title>Node8</title>
<g id="a_node8"><a xlink:title="STL class.">
<polygon fill="white" stroke="#bfbfbf" points="89.5,-203 89.5,-222 207.5,-222 207.5,-203 89.5,-203"/>
<text text-anchor="middle" x="148.5" y="-210" font-family="Helvetica,sans-Serif" font-size="10.00">std::shared_ptr&lt; T &gt;</text>
</a>
</g>
</g>
<!-- Node8&#45;&gt;Node7 -->
<g id="edge8" class="edge">
<title>Node8&#45;&gt;Node7</title>
<path fill="none" stroke="#9a32cd" stroke-dasharray="5,2" d="M217.73,-212.5C243.54,-212.5 273.09,-212.5 299.64,-212.5"/>
<polygon fill="#9a32cd" stroke="#9a32cd" points="217.66,-209 207.66,-212.5 217.66,-216 217.66,-209"/>
<text text-anchor="middle" x="257.5" y="-215.5" font-family="Helvetica,sans-Serif" font-size="10.00"> elements</text>
</g>
<!-- Node9 -->
<g id="node9" class="node">
<title>Node9</title>
<g id="a_node9"><a xlink:title=" ">
<polygon fill="white" stroke="#bfbfbf" points="0,-203 0,-222 29,-222 29,-203 0,-203"/>
<text text-anchor="middle" x="14.5" y="-210" font-family="Helvetica,sans-Serif" font-size="10.00">T</text>
</a>
</g>
</g>
<!-- Node9&#45;&gt;Node8 -->
<g id="edge9" class="edge">
<title>Node9&#45;&gt;Node8</title>
<path fill="none" stroke="#9a32cd" stroke-dasharray="5,2" d="M39.35,-212.5C53.39,-212.5 71.8,-212.5 89.44,-212.5"/>
<polygon fill="#9a32cd" stroke="#9a32cd" points="39.13,-209 29.13,-212.5 39.13,-216 39.13,-209"/>
<text text-anchor="middle" x="55.5" y="-215.5" font-family="Helvetica,sans-Serif" font-size="10.00"> ptr</text>
</g>
<!-- Node10 -->
<g id="node10" class="node">
<title>Node10</title>
<g id="a_node10"><a xlink:title=" ">
<polygon fill="white" stroke="#bfbfbf" points="318,-153.5 318,-183.5 437,-183.5 437,-153.5 318,-153.5"/>
<text text-anchor="start" x="326" y="-171.5" font-family="Helvetica,sans-Serif" font-size="10.00">std::shared_ptr&lt; odb</text>
<text text-anchor="middle" x="377.5" y="-160.5" font-family="Helvetica,sans-Serif" font-size="10.00">::database &gt;</text>
</a>
</g>
</g>
<!-- Node10&#45;&gt;Node5 -->
<g id="edge10" class="edge">
<title>Node10&#45;&gt;Node5</title>
<path fill="none" stroke="#9a32cd" stroke-dasharray="5,2" d="M447.26,-158.55C478.95,-153.97 516.37,-148.55 547.69,-144.02"/>
<polygon fill="#9a32cd" stroke="#9a32cd" points="446.59,-155.11 437.19,-160.01 447.59,-162.04 446.59,-155.11"/>
<text text-anchor="middle" x="500" y="-157.5" font-family="Helvetica,sans-Serif" font-size="10.00"> database_</text>
</g>
<!-- Node11 -->
<g id="node11" class="node">
<title>Node11</title>
<g id="a_node11"><a xlink:href="../../dd/d95/classLeosac_1_1Tools_1_1ElapsedTimeCounter.html" target="_top" xlink:title="This class provide a simple to get the elapsed time since it&#39;s creation.">
<polygon fill="white" stroke="black" points="302.5,-104.5 302.5,-134.5 452.5,-134.5 452.5,-104.5 302.5,-104.5"/>
<text text-anchor="start" x="310.5" y="-122.5" font-family="Helvetica,sans-Serif" font-size="10.00">Leosac::Tools::ElapsedTime</text>
<text text-anchor="middle" x="377.5" y="-111.5" font-family="Helvetica,sans-Serif" font-size="10.00">Counter</text>
</a>
</g>
</g>
<!-- Node11&#45;&gt;Node5 -->
<g id="edge11" class="edge">
<title>Node11&#45;&gt;Node5</title>
<path fill="none" stroke="#9a32cd" stroke-dasharray="5,2" d="M462.7,-124.87C489.57,-126.59 518.98,-128.47 544.64,-130.1"/>
<polygon fill="#9a32cd" stroke="#9a32cd" points="462.74,-121.37 452.53,-124.23 462.29,-128.36 462.74,-121.37"/>
<text text-anchor="middle" x="500" y="-131.5" font-family="Helvetica,sans-Serif" font-size="10.00"> etc_</text>
</g>
<!-- Node12&#45;&gt;Node5 -->
<g id="edge12" class="edge">
<title>Node12&#45;&gt;Node5</title>
<path fill="none" stroke="#9a32cd" stroke-dasharray="5,2" d="M780.81,-137.32C768.07,-135.31 754.62,-133.53 742,-132.5 724.28,-131.05 719.78,-132.29 702,-132.5 696.29,-132.57 690.37,-132.66 684.43,-132.76"/>
<polygon fill="#9a32cd" stroke="#9a32cd" points="780.41,-140.8 790.84,-138.96 781.54,-133.89 780.41,-140.8"/>
<text text-anchor="middle" x="722" y="-135.5" font-family="Helvetica,sans-Serif" font-size="10.00"> parent_</text>
</g>
<!-- Node13 -->
<g id="node13" class="node">
<title>Node13</title>
<g id="a_node13"><a xlink:title="STL class.">
<polygon fill="white" stroke="#bfbfbf" points="345,-62 345,-81 410,-81 410,-62 345,-62"/>
<text text-anchor="middle" x="377.5" y="-69" font-family="Helvetica,sans-Serif" font-size="10.00">std::string</text>
</a>
</g>
</g>
<!-- Node13&#45;&gt;Node1 -->
<g id="edge16" class="edge">
<title>Node13&#45;&gt;Node1</title>
<path fill="none" stroke="#9a32cd" stroke-dasharray="5,2" d="M420.38,-71.14C497.06,-70.47 661.19,-69.04 759.61,-68.19"/>
<polygon fill="#9a32cd" stroke="#9a32cd" points="420.12,-67.64 410.15,-71.23 420.18,-74.64 420.12,-67.64"/>
<text text-anchor="middle" x="614.5" y="-83.5" font-family="Helvetica,sans-Serif" font-size="10.00"> after_</text>
<text text-anchor="middle" x="614.5" y="-72.5" font-family="Helvetica,sans-Serif" font-size="10.00">before_</text>
</g>
<!-- Node13&#45;&gt;Node5 -->
<g id="edge14" class="edge">
<title>Node13&#45;&gt;Node5</title>
<path fill="none" stroke="#9a32cd" stroke-dasharray="5,2" d="M420.15,-82.27C449.94,-90.02 490.97,-100.77 527,-110.5 544.3,-115.17 563.52,-120.49 579.43,-124.93"/>
<polygon fill="#9a32cd" stroke="#9a32cd" points="420.67,-78.79 410.11,-79.67 418.91,-85.57 420.67,-78.79"/>
<text text-anchor="middle" x="500" y="-113.5" font-family="Helvetica,sans-Serif" font-size="10.00"> msg_</text>
</g>
<!-- Node14 -->
<g id="node14" class="node">
<title>Node14</title>
<g id="a_node14"><a xlink:title="STL class.">
<polygon fill="white" stroke="#bfbfbf" points="96.5,-56.5 96.5,-86.5 200.5,-86.5 200.5,-56.5 96.5,-56.5"/>
<text text-anchor="start" x="104.5" y="-74.5" font-family="Helvetica,sans-Serif" font-size="10.00">std::basic_string&lt;</text>
<text text-anchor="middle" x="148.5" y="-63.5" font-family="Helvetica,sans-Serif" font-size="10.00"> char &gt;</text>
</a>
</g>
</g>
<!-- Node14&#45;&gt;Node13 -->
<g id="edge15" class="edge">
<title>Node14&#45;&gt;Node13</title>
<path fill="none" stroke="midnightblue" d="M210.85,-71.5C254.06,-71.5 310.14,-71.5 344.71,-71.5"/>
<polygon fill="midnightblue" stroke="midnightblue" points="210.73,-68 200.73,-71.5 210.73,-75 210.73,-68"/>
</g>
</g>
</svg>
