<?xml version="1.0" encoding="UTF-8" standalone="no"?>
<!DOCTYPE svg PUBLIC "-//W3C//DTD SVG 1.1//EN"
 "http://www.w3.org/Graphics/SVG/1.1/DTD/svg11.dtd">
<!-- Generated by graphviz version 2.43.0 (0)
 -->
<!-- Title: src/hardware/facades/FBuzzer.hpp Pages: 1 -->
<svg width="1231pt" height="251pt"
 viewBox="0.00 0.00 1231.00 251.00" xmlns="http://www.w3.org/2000/svg" xmlns:xlink="http://www.w3.org/1999/xlink">
<g id="graph0" class="graph" transform="scale(1 1) rotate(0) translate(4 247)">
<title>src/hardware/facades/FBuzzer.hpp</title>
<polygon fill="white" stroke="transparent" points="-4,4 -4,-247 1227,-247 1227,4 -4,4"/>
<!-- Node1 -->
<g id="node1" class="node">
<title>Node1</title>
<g id="a_node1"><a xlink:title=" ">
<polygon fill="#bfbfbf" stroke="black" points="598,-212.5 598,-242.5 719,-242.5 719,-212.5 598,-212.5"/>
<text text-anchor="start" x="606" y="-230.5" font-family="Helvetica,sans-Serif" font-size="10.00">src/hardware/facades</text>
<text text-anchor="middle" x="658.5" y="-219.5" font-family="Helvetica,sans-Serif" font-size="10.00">/FBuzzer.hpp</text>
</a>
</g>
</g>
<!-- Node2 -->
<g id="node2" class="node">
<title>Node2</title>
<g id="a_node2"><a xlink:href="../../de/d9a/WiegandReaderImpl_8hpp.html" target="_top" xlink:title=" ">
<polygon fill="white" stroke="black" points="588.5,-145.5 588.5,-175.5 728.5,-175.5 728.5,-145.5 588.5,-145.5"/>
<text text-anchor="start" x="596.5" y="-163.5" font-family="Helvetica,sans-Serif" font-size="10.00">src/modules/wiegand</text>
<text text-anchor="middle" x="658.5" y="-152.5" font-family="Helvetica,sans-Serif" font-size="10.00">/WiegandReaderImpl.hpp</text>
</a>
</g>
</g>
<!-- Node1&#45;&gt;Node2 -->
<g id="edge1" class="edge">
<title>Node1&#45;&gt;Node2</title>
<path fill="none" stroke="midnightblue" d="M658.5,-202.11C658.5,-193.15 658.5,-183.32 658.5,-175.58"/>
<polygon fill="midnightblue" stroke="midnightblue" points="655,-202.4 658.5,-212.4 662,-202.4 655,-202.4"/>
</g>
<!-- Node3 -->
<g id="node3" class="node">
<title>Node3</title>
<g id="a_node3"><a xlink:href="../../d3/d15/Autodetect_8cpp.html" target="_top" xlink:title=" ">
<polygon fill="white" stroke="black" points="0,-73 0,-103 145,-103 145,-73 0,-73"/>
<text text-anchor="start" x="8" y="-91" font-family="Helvetica,sans-Serif" font-size="10.00">src/modules/wiegand</text>
<text text-anchor="middle" x="72.5" y="-80" font-family="Helvetica,sans-Serif" font-size="10.00">/strategies/Autodetect.cpp</text>
</a>
</g>
</g>
<!-- Node2&#45;&gt;Node3 -->
<g id="edge2" class="edge">
<title>Node2&#45;&gt;Node3</title>
<path fill="none" stroke="midnightblue" d="M578.37,-154.93C478.55,-148.44 303.03,-134.43 154.5,-109 144.97,-107.37 134.9,-105.25 125.21,-103"/>
<polygon fill="midnightblue" stroke="midnightblue" points="578.18,-158.42 588.38,-155.57 578.62,-151.44 578.18,-158.42"/>
</g>
<!-- Node4 -->
<g id="node4" class="node">
<title>Node4</title>
<g id="a_node4"><a xlink:href="../../d2/d32/SimpleWiegandStrategy_8cpp.html" target="_top" xlink:title=" ">
<polygon fill="white" stroke="black" points="163.5,-73 163.5,-103 371.5,-103 371.5,-73 163.5,-73"/>
<text text-anchor="start" x="171.5" y="-91" font-family="Helvetica,sans-Serif" font-size="10.00">src/modules/wiegand</text>
<text text-anchor="middle" x="267.5" y="-80" font-family="Helvetica,sans-Serif" font-size="10.00">/strategies/SimpleWiegandStrategy.cpp</text>
</a>
</g>
</g>
<!-- Node2&#45;&gt;Node4 -->
<g id="edge3" class="edge">
<title>Node2&#45;&gt;Node4</title>
<path fill="none" stroke="midnightblue" d="M577.88,-144.96C509.73,-132.68 412.69,-115.18 345.34,-103.03"/>
<polygon fill="midnightblue" stroke="midnightblue" points="577.68,-148.48 588.15,-146.81 578.93,-141.6 577.68,-148.48"/>
</g>
<!-- Node5 -->
<g id="node5" class="node">
<title>Node5</title>
<g id="a_node5"><a xlink:href="../../d5/d4a/WiegandCardAndPin_8cpp.html" target="_top" xlink:title=" ">
<polygon fill="white" stroke="black" points="390,-67.5 390,-108.5 545,-108.5 545,-67.5 390,-67.5"/>
<text text-anchor="start" x="398" y="-96.5" font-family="Helvetica,sans-Serif" font-size="10.00">src/modules/wiegand</text>
<text text-anchor="start" x="398" y="-85.5" font-family="Helvetica,sans-Serif" font-size="10.00">/strategies/WiegandCardAnd</text>
<text text-anchor="middle" x="467.5" y="-74.5" font-family="Helvetica,sans-Serif" font-size="10.00">Pin.cpp</text>
</a>
</g>
</g>
<!-- Node2&#45;&gt;Node5 -->
<g id="edge4" class="edge">
<title>Node2&#45;&gt;Node5</title>
<path fill="none" stroke="midnightblue" d="M610.91,-141.93C583.42,-131.79 548.8,-119.01 520.46,-108.55"/>
<polygon fill="midnightblue" stroke="midnightblue" points="609.71,-145.22 620.31,-145.4 612.14,-138.66 609.71,-145.22"/>
</g>
<!-- Node6 -->
<g id="node6" class="node">
<title>Node6</title>
<g id="a_node6"><a xlink:href="../../d7/da6/WiegandPinBuffered_8cpp.html" target="_top" xlink:title=" ">
<polygon fill="white" stroke="black" points="563,-73 563,-103 754,-103 754,-73 563,-73"/>
<text text-anchor="start" x="571" y="-91" font-family="Helvetica,sans-Serif" font-size="10.00">src/modules/wiegand</text>
<text text-anchor="middle" x="658.5" y="-80" font-family="Helvetica,sans-Serif" font-size="10.00">/strategies/WiegandPinBuffered.cpp</text>
</a>
</g>
</g>
<!-- Node2&#45;&gt;Node6 -->
<g id="edge5" class="edge">
<title>Node2&#45;&gt;Node6</title>
<path fill="none" stroke="midnightblue" d="M658.5,-135.23C658.5,-124.57 658.5,-112.41 658.5,-103.25"/>
<polygon fill="midnightblue" stroke="midnightblue" points="655,-135.23 658.5,-145.23 662,-135.23 655,-135.23"/>
</g>
<!-- Node7 -->
<g id="node7" class="node">
<title>Node7</title>
<g id="a_node7"><a xlink:href="../../dc/d9a/WiegandPinNBitsOnly_8cpp.html" target="_top" xlink:title=" ">
<polygon fill="white" stroke="black" points="772,-67.5 772,-108.5 927,-108.5 927,-67.5 772,-67.5"/>
<text text-anchor="start" x="780" y="-96.5" font-family="Helvetica,sans-Serif" font-size="10.00">src/modules/wiegand</text>
<text text-anchor="start" x="780" y="-85.5" font-family="Helvetica,sans-Serif" font-size="10.00">/strategies/WiegandPinNBits</text>
<text text-anchor="middle" x="849.5" y="-74.5" font-family="Helvetica,sans-Serif" font-size="10.00">Only.cpp</text>
</a>
</g>
</g>
<!-- Node2&#45;&gt;Node7 -->
<g id="edge6" class="edge">
<title>Node2&#45;&gt;Node7</title>
<path fill="none" stroke="midnightblue" d="M706.09,-141.93C733.58,-131.79 768.2,-119.01 796.54,-108.55"/>
<polygon fill="midnightblue" stroke="midnightblue" points="704.86,-138.66 696.69,-145.4 707.29,-145.22 704.86,-138.66"/>
</g>
<!-- Node8 -->
<g id="node8" class="node">
<title>Node8</title>
<g id="a_node8"><a xlink:href="../../d0/d6f/wiegand_8hpp.html" target="_top" xlink:title=" ">
<polygon fill="white" stroke="black" points="945.5,-73 945.5,-103 1065.5,-103 1065.5,-73 945.5,-73"/>
<text text-anchor="start" x="953.5" y="-91" font-family="Helvetica,sans-Serif" font-size="10.00">src/modules/wiegand</text>
<text text-anchor="middle" x="1005.5" y="-80" font-family="Helvetica,sans-Serif" font-size="10.00">/wiegand.hpp</text>
</a>
</g>
</g>
<!-- Node2&#45;&gt;Node8 -->
<g id="edge7" class="edge">
<title>Node2&#45;&gt;Node8</title>
<path fill="none" stroke="midnightblue" d="M738.77,-147.15C794.54,-138.03 870.42,-124.54 936.5,-109 943.91,-107.26 951.7,-105.21 959.28,-103.1"/>
<polygon fill="midnightblue" stroke="midnightblue" points="737.91,-143.75 728.6,-148.81 739.03,-150.66 737.91,-143.75"/>
</g>
<!-- Node11 -->
<g id="node11" class="node">
<title>Node11</title>
<g id="a_node11"><a xlink:href="../../d8/df0/WiegandReaderImpl_8cpp.html" target="_top" xlink:title=" ">
<polygon fill="white" stroke="black" points="1084,-73 1084,-103 1223,-103 1223,-73 1084,-73"/>
<text text-anchor="start" x="1092" y="-91" font-family="Helvetica,sans-Serif" font-size="10.00">src/modules/wiegand</text>
<text text-anchor="middle" x="1153.5" y="-80" font-family="Helvetica,sans-Serif" font-size="10.00">/WiegandReaderImpl.cpp</text>
</a>
</g>
</g>
<!-- Node2&#45;&gt;Node11 -->
<g id="edge10" class="edge">
<title>Node2&#45;&gt;Node11</title>
<path fill="none" stroke="midnightblue" d="M738.84,-152.8C822.96,-145.08 958.7,-130.6 1074.5,-109 1083.4,-107.34 1092.79,-105.26 1101.86,-103.07"/>
<polygon fill="midnightblue" stroke="midnightblue" points="738.48,-149.32 728.84,-153.71 739.12,-156.29 738.48,-149.32"/>
</g>
<!-- Node9 -->
<g id="node9" class="node">
<title>Node9</title>
<g id="a_node9"><a xlink:href="../../d3/de8/wiegand_8cpp.html" target="_top" xlink:title=" ">
<polygon fill="white" stroke="black" points="872.5,-0.5 872.5,-30.5 992.5,-30.5 992.5,-0.5 872.5,-0.5"/>
<text text-anchor="start" x="880.5" y="-18.5" font-family="Helvetica,sans-Serif" font-size="10.00">src/modules/wiegand</text>
<text text-anchor="middle" x="932.5" y="-7.5" font-family="Helvetica,sans-Serif" font-size="10.00">/wiegand.cpp</text>
</a>
</g>
</g>
<!-- Node8&#45;&gt;Node9 -->
<g id="edge8" class="edge">
<title>Node8&#45;&gt;Node9</title>
<path fill="none" stroke="midnightblue" d="M983.43,-65.69C971.72,-54.37 957.63,-40.77 947.25,-30.75"/>
<polygon fill="midnightblue" stroke="midnightblue" points="981.1,-68.3 990.73,-72.73 985.97,-63.27 981.1,-68.3"/>
</g>
<!-- Node10 -->
<g id="node10" class="node">
<title>Node10</title>
<g id="a_node10"><a xlink:href="../../d4/d9b/WiegandReader_8cpp.html" target="_top" xlink:title=" ">
<polygon fill="white" stroke="black" points="1011,-6 1011,-25 1146,-25 1146,-6 1011,-6"/>
<text text-anchor="middle" x="1078.5" y="-13" font-family="Helvetica,sans-Serif" font-size="10.00">test/WiegandReader.cpp</text>
</a>
</g>
</g>
<!-- Node8&#45;&gt;Node10 -->
<g id="edge9" class="edge">
<title>Node8&#45;&gt;Node10</title>
<path fill="none" stroke="midnightblue" d="M1027.62,-65.64C1041.58,-52.15 1058.89,-35.44 1069.29,-25.39"/>
<polygon fill="midnightblue" stroke="midnightblue" points="1025.03,-63.27 1020.27,-72.73 1029.9,-68.3 1025.03,-63.27"/>
</g>
</g>
</svg>
