<?xml version="1.0" encoding="UTF-8" standalone="no"?>
<!DOCTYPE svg PUBLIC "-//W3C//DTD SVG 1.1//EN"
 "http://www.w3.org/Graphics/SVG/1.1/DTD/svg11.dtd">
<!-- Generated by graphviz version 2.43.0 (0)
 -->
<!-- Title: src/hardware/ExternalMessage.hpp Pages: 1 -->
<svg width="800pt" height="252pt"
 viewBox="0.00 0.00 799.50 252.00" xmlns="http://www.w3.org/2000/svg" xmlns:xlink="http://www.w3.org/1999/xlink">
<g id="graph0" class="graph" transform="scale(1 1) rotate(0) translate(4 248)">
<title>src/hardware/ExternalMessage.hpp</title>
<polygon fill="white" stroke="transparent" points="-4,4 -4,-248 795.5,-248 795.5,4 -4,4"/>
<!-- Node1 -->
<g id="node1" class="node">
<title>Node1</title>
<g id="a_node1"><a xlink:title=" ">
<polygon fill="#bfbfbf" stroke="black" points="603.5,-224.5 603.5,-243.5 791.5,-243.5 791.5,-224.5 603.5,-224.5"/>
<text text-anchor="middle" x="697.5" y="-231.5" font-family="Helvetica,sans-Serif" font-size="10.00">src/hardware/ExternalMessage.hpp</text>
</a>
</g>
</g>
<!-- Node2 -->
<g id="node2" class="node">
<title>Node2</title>
<g id="a_node2"><a xlink:href="../../da/d14/Device_8hpp.html" target="_top" xlink:title=" ">
<polygon fill="white" stroke="black" points="521.5,-168.5 521.5,-187.5 641.5,-187.5 641.5,-168.5 521.5,-168.5"/>
<text text-anchor="middle" x="581.5" y="-175.5" font-family="Helvetica,sans-Serif" font-size="10.00">hardware/Device.hpp</text>
</a>
</g>
</g>
<!-- Node1&#45;&gt;Node2 -->
<g id="edge1" class="edge">
<title>Node1&#45;&gt;Node2</title>
<path fill="none" stroke="midnightblue" d="M679.12,-224.44C660.28,-215.68 630.77,-201.94 609.12,-191.86"/>
<polygon fill="midnightblue" stroke="midnightblue" points="610.34,-188.56 599.79,-187.52 607.38,-194.91 610.34,-188.56"/>
</g>
<!-- Node3 -->
<g id="node3" class="node">
<title>Node3</title>
<g id="a_node3"><a xlink:href="../../d9/dc8/HardwareFwd_8hpp.html" target="_top" xlink:title=" ">
<polygon fill="white" stroke="black" points="293.5,-112.5 293.5,-131.5 447.5,-131.5 447.5,-112.5 293.5,-112.5"/>
<text text-anchor="middle" x="370.5" y="-119.5" font-family="Helvetica,sans-Serif" font-size="10.00">hardware/HardwareFwd.hpp</text>
</a>
</g>
</g>
<!-- Node1&#45;&gt;Node3 -->
<g id="edge16" class="edge">
<title>Node1&#45;&gt;Node3</title>
<path fill="none" stroke="midnightblue" d="M651.95,-224.45C614.07,-216.74 559.03,-204.14 512.5,-188 470.34,-173.37 423.69,-150.69 395.76,-136.35"/>
<polygon fill="midnightblue" stroke="midnightblue" points="397.18,-133.15 386.69,-131.65 393.96,-139.36 397.18,-133.15"/>
</g>
<!-- Node9 -->
<g id="node9" class="node">
<title>Node9</title>
<g id="a_node9"><a xlink:title=" ">
<polygon fill="white" stroke="#bfbfbf" points="618.5,-0.5 618.5,-19.5 698.5,-19.5 698.5,-0.5 618.5,-0.5"/>
<text text-anchor="middle" x="658.5" y="-7.5" font-family="Helvetica,sans-Serif" font-size="10.00">odb/core.hxx</text>
</a>
</g>
</g>
<!-- Node1&#45;&gt;Node9 -->
<g id="edge18" class="edge">
<title>Node1&#45;&gt;Node9</title>
<path fill="none" stroke="midnightblue" d="M707.26,-224.38C728.17,-204.8 774.06,-155.32 756.5,-112 741.2,-74.25 704.27,-42.84 680.37,-25.52"/>
<polygon fill="midnightblue" stroke="midnightblue" points="682.11,-22.46 671.92,-19.58 678.09,-28.19 682.11,-22.46"/>
</g>
<!-- Node10 -->
<g id="node10" class="node">
<title>Node10</title>
<g id="a_node10"><a xlink:title=" ">
<polygon fill="white" stroke="#bfbfbf" points="716.5,-0.5 716.5,-19.5 760.5,-19.5 760.5,-0.5 716.5,-0.5"/>
<text text-anchor="middle" x="738.5" y="-7.5" font-family="Helvetica,sans-Serif" font-size="10.00">string</text>
</a>
</g>
</g>
<!-- Node1&#45;&gt;Node10 -->
<g id="edge19" class="edge">
<title>Node1&#45;&gt;Node10</title>
<path fill="none" stroke="midnightblue" d="M715.85,-224.38C729.97,-216.79 748.83,-204.39 759.5,-188 773.39,-166.67 768.82,-157.31 771.5,-132 775.5,-94.28 758.77,-51.86 747.68,-28.61"/>
<polygon fill="midnightblue" stroke="midnightblue" points="750.79,-27.01 743.21,-19.62 744.53,-30.13 750.79,-27.01"/>
</g>
<!-- Node13 -->
<g id="node13" class="node">
<title>Node13</title>
<g id="a_node13"><a xlink:title=" ">
<polygon fill="white" stroke="#bfbfbf" points="648,-112.5 648,-131.5 747,-131.5 747,-112.5 648,-112.5"/>
<text text-anchor="middle" x="697.5" y="-119.5" font-family="Helvetica,sans-Serif" font-size="10.00">odb/callback.hxx</text>
</a>
</g>
</g>
<!-- Node1&#45;&gt;Node13 -->
<g id="edge17" class="edge">
<title>Node1&#45;&gt;Node13</title>
<path fill="none" stroke="midnightblue" d="M697.5,-224.37C697.5,-206.62 697.5,-165.67 697.5,-141.6"/>
<polygon fill="midnightblue" stroke="midnightblue" points="701,-141.59 697.5,-131.59 694,-141.59 701,-141.59"/>
</g>
<!-- Node2&#45;&gt;Node3 -->
<g id="edge2" class="edge">
<title>Node2&#45;&gt;Node3</title>
<path fill="none" stroke="midnightblue" d="M548.07,-168.44C511.64,-159.12 453.27,-144.18 413.47,-134"/>
<polygon fill="midnightblue" stroke="midnightblue" points="414.33,-130.61 403.78,-131.52 412.6,-137.39 414.33,-130.61"/>
</g>
<!-- Node4 -->
<g id="node4" class="node">
<title>Node4</title>
<g id="a_node4"><a xlink:href="../../dc/dea/Uuid_8hpp.html" target="_top" xlink:title=" ">
<polygon fill="white" stroke="black" points="425,-56.5 425,-75.5 512,-75.5 512,-56.5 425,-56.5"/>
<text text-anchor="middle" x="468.5" y="-63.5" font-family="Helvetica,sans-Serif" font-size="10.00">tools/Uuid.hpp</text>
</a>
</g>
</g>
<!-- Node2&#45;&gt;Node4 -->
<g id="edge11" class="edge">
<title>Node2&#45;&gt;Node4</title>
<path fill="none" stroke="midnightblue" d="M553.55,-168.36C534.67,-161.27 510.39,-149.5 494.5,-132 482.64,-118.93 475.87,-99.78 472.23,-85.65"/>
<polygon fill="midnightblue" stroke="midnightblue" points="475.58,-84.58 469.95,-75.6 468.75,-86.13 475.58,-84.58"/>
</g>
<!-- Node2&#45;&gt;Node9 -->
<g id="edge14" class="edge">
<title>Node2&#45;&gt;Node9</title>
<path fill="none" stroke="midnightblue" d="M581.33,-168.41C581.29,-147.6 583.47,-93.48 605.5,-56 612.67,-43.8 624.38,-33.35 634.97,-25.59"/>
<polygon fill="midnightblue" stroke="midnightblue" points="637.23,-28.28 643.48,-19.73 633.26,-22.52 637.23,-28.28"/>
</g>
<!-- Node2&#45;&gt;Node10 -->
<g id="edge15" class="edge">
<title>Node2&#45;&gt;Node10</title>
<path fill="none" stroke="midnightblue" d="M588.88,-168.47C599.78,-155.94 620.9,-131.88 639.5,-112 668.25,-81.27 702.87,-46.42 722.62,-26.73"/>
<polygon fill="midnightblue" stroke="midnightblue" points="725.26,-29.05 729.89,-19.51 720.33,-24.08 725.26,-29.05"/>
</g>
<!-- Node12 -->
<g id="node12" class="node">
<title>Node12</title>
<g id="a_node12"><a xlink:title=" ">
<polygon fill="white" stroke="#bfbfbf" points="503.5,-112.5 503.5,-131.5 553.5,-131.5 553.5,-112.5 503.5,-112.5"/>
<text text-anchor="middle" x="528.5" y="-119.5" font-family="Helvetica,sans-Serif" font-size="10.00">cstdint</text>
</a>
</g>
</g>
<!-- Node2&#45;&gt;Node12 -->
<g id="edge12" class="edge">
<title>Node2&#45;&gt;Node12</title>
<path fill="none" stroke="midnightblue" d="M572.75,-168.08C565.03,-160.22 553.6,-148.57 544.28,-139.08"/>
<polygon fill="midnightblue" stroke="midnightblue" points="546.59,-136.44 537.09,-131.75 541.6,-141.34 546.59,-136.44"/>
</g>
<!-- Node2&#45;&gt;Node13 -->
<g id="edge13" class="edge">
<title>Node2&#45;&gt;Node13</title>
<path fill="none" stroke="midnightblue" d="M599.88,-168.44C618.72,-159.68 648.23,-145.94 669.88,-135.86"/>
<polygon fill="midnightblue" stroke="midnightblue" points="671.62,-138.91 679.21,-131.52 668.66,-132.56 671.62,-138.91"/>
</g>
<!-- Node3&#45;&gt;Node4 -->
<g id="edge3" class="edge">
<title>Node3&#45;&gt;Node4</title>
<path fill="none" stroke="midnightblue" d="M386.25,-112.32C401.82,-103.74 425.88,-90.49 443.96,-80.52"/>
<polygon fill="midnightblue" stroke="midnightblue" points="445.72,-83.55 452.79,-75.65 442.35,-77.42 445.72,-83.55"/>
</g>
<!-- Node11 -->
<g id="node11" class="node">
<title>Node11</title>
<g id="a_node11"><a xlink:title=" ">
<polygon fill="white" stroke="#bfbfbf" points="341.5,-56.5 341.5,-75.5 399.5,-75.5 399.5,-56.5 341.5,-56.5"/>
<text text-anchor="middle" x="370.5" y="-63.5" font-family="Helvetica,sans-Serif" font-size="10.00">memory</text>
</a>
</g>
</g>
<!-- Node3&#45;&gt;Node11 -->
<g id="edge10" class="edge">
<title>Node3&#45;&gt;Node11</title>
<path fill="none" stroke="midnightblue" d="M370.5,-112.08C370.5,-105.01 370.5,-94.86 370.5,-85.99"/>
<polygon fill="midnightblue" stroke="midnightblue" points="374,-85.75 370.5,-75.75 367,-85.75 374,-85.75"/>
</g>
<!-- Node5 -->
<g id="node5" class="node">
<title>Node5</title>
<g id="a_node5"><a xlink:title=" ">
<polygon fill="white" stroke="#bfbfbf" points="145,-0.5 145,-19.5 270,-19.5 270,-0.5 145,-0.5"/>
<text text-anchor="middle" x="207.5" y="-7.5" font-family="Helvetica,sans-Serif" font-size="10.00">boost/lexical_cast.hpp</text>
</a>
</g>
</g>
<!-- Node4&#45;&gt;Node5 -->
<g id="edge4" class="edge">
<title>Node4&#45;&gt;Node5</title>
<path fill="none" stroke="midnightblue" d="M427.14,-56.44C381.42,-46.98 307.74,-31.74 258.48,-21.55"/>
<polygon fill="midnightblue" stroke="midnightblue" points="259.16,-18.12 248.66,-19.52 257.75,-24.97 259.16,-18.12"/>
</g>
<!-- Node6 -->
<g id="node6" class="node">
<title>Node6</title>
<g id="a_node6"><a xlink:title=" ">
<polygon fill="white" stroke="#bfbfbf" points="288,-0.5 288,-19.5 469,-19.5 469,-0.5 288,-0.5"/>
<text text-anchor="middle" x="378.5" y="-7.5" font-family="Helvetica,sans-Serif" font-size="10.00">boost/uuid/random_generator.hpp</text>
</a>
</g>
</g>
<!-- Node4&#45;&gt;Node6 -->
<g id="edge5" class="edge">
<title>Node4&#45;&gt;Node6</title>
<path fill="none" stroke="midnightblue" d="M454.04,-56.32C440,-47.9 418.45,-34.97 401.96,-25.07"/>
<polygon fill="midnightblue" stroke="midnightblue" points="403.3,-21.8 392.92,-19.65 399.7,-27.8 403.3,-21.8"/>
</g>
<!-- Node7 -->
<g id="node7" class="node">
<title>Node7</title>
<g id="a_node7"><a xlink:title=" ">
<polygon fill="white" stroke="#bfbfbf" points="487,-0.5 487,-19.5 600,-19.5 600,-0.5 487,-0.5"/>
<text text-anchor="middle" x="543.5" y="-7.5" font-family="Helvetica,sans-Serif" font-size="10.00">boost/uuid/uuid.hpp</text>
</a>
</g>
</g>
<!-- Node4&#45;&gt;Node7 -->
<g id="edge6" class="edge">
<title>Node4&#45;&gt;Node7</title>
<path fill="none" stroke="midnightblue" d="M480.55,-56.32C491.96,-48.11 509.33,-35.6 522.93,-25.81"/>
<polygon fill="midnightblue" stroke="midnightblue" points="525.16,-28.52 531.23,-19.83 521.07,-22.84 525.16,-28.52"/>
</g>
<!-- Node8 -->
<g id="node8" class="node">
<title>Node8</title>
<g id="a_node8"><a xlink:title=" ">
<polygon fill="white" stroke="#bfbfbf" points="0,-0.5 0,-19.5 127,-19.5 127,-0.5 0,-0.5"/>
<text text-anchor="middle" x="63.5" y="-7.5" font-family="Helvetica,sans-Serif" font-size="10.00">boost/uuid/uuid_io.hpp</text>
</a>
</g>
</g>
<!-- Node4&#45;&gt;Node8 -->
<g id="edge7" class="edge">
<title>Node4&#45;&gt;Node8</title>
<path fill="none" stroke="midnightblue" d="M424.93,-58.36C419.4,-57.55 413.82,-56.75 408.5,-56 357.7,-48.88 222.45,-31.4 137.16,-20.44"/>
<polygon fill="midnightblue" stroke="midnightblue" points="137.38,-16.94 127.02,-19.14 136.49,-23.88 137.38,-16.94"/>
</g>
<!-- Node4&#45;&gt;Node9 -->
<g id="edge8" class="edge">
<title>Node4&#45;&gt;Node9</title>
<path fill="none" stroke="midnightblue" d="M498.61,-56.44C531.13,-47.2 583.08,-32.44 618.89,-22.26"/>
<polygon fill="midnightblue" stroke="midnightblue" points="619.87,-25.62 628.53,-19.52 617.96,-18.88 619.87,-25.62"/>
</g>
<!-- Node4&#45;&gt;Node10 -->
<g id="edge9" class="edge">
<title>Node4&#45;&gt;Node10</title>
<path fill="none" stroke="midnightblue" d="M512.38,-58.04C558.45,-50.45 633.18,-37.32 706.37,-20.09"/>
<polygon fill="midnightblue" stroke="midnightblue" points="707.3,-23.47 716.22,-17.75 705.68,-16.66 707.3,-23.47"/>
</g>
</g>
</svg>
