<?xml version="1.0" encoding="UTF-8" standalone="no"?>
<!DOCTYPE svg PUBLIC "-//W3C//DTD SVG 1.1//EN"
 "http://www.w3.org/Graphics/SVG/1.1/DTD/svg11.dtd">
<!-- Generated by graphviz version 2.43.0 (0)
 -->
<!-- Title: src/modules/websock&#45;api/Service.hpp Pages: 1 -->
<!--zoomable 240 -->
<svg id="main" version="1.1" xmlns="http://www.w3.org/2000/svg" xmlns:xlink="http://www.w3.org/1999/xlink" xml:space="preserve" onload="init(evt)">
<style type="text/css"><![CDATA[
.edge:hover path { stroke: red; }
.edge:hover polygon { stroke: red; fill: red; }
]]></style>
<script type="text/javascript"><![CDATA[
var edges = document.getElementsByTagName('g');
if (edges && edges.length) {
  for (var i=0;i<edges.length;i++) {
    if (edges[i].id.substr(0,4)=='edge') {
      edges[i].setAttribute('class','edge');
    }
  }
}
]]></script>
        <defs>
                <circle id="rim" cx="0" cy="0" r="7"/>
                <circle id="rim2" cx="0" cy="0" r="3.5"/>
                <g id="zoomPlus">
                        <use xlink:href="#rim" fill="#404040">
                                <set attributeName="fill" to="#808080" begin="zoomplus.mouseover" end="zoomplus.mouseout"/>
                        </use>
                        <path d="M-4,0h8M0,-4v8" fill="none" stroke="white" stroke-width="1.5" pointer-events="none"/>
                </g>
                <g id="zoomMin">
                        <use xlink:href="#rim" fill="#404040">
                                <set attributeName="fill" to="#808080" begin="zoomminus.mouseover" end="zoomminus.mouseout"/>
                        </use>
                        <path d="M-4,0h8" fill="none" stroke="white" stroke-width="1.5" pointer-events="none"/>
                </g>
                <g id="dirArrow">
                        <path fill="none" stroke="white" stroke-width="1.5" d="M0,-3.0v7 M-2.5,-0.5L0,-3.0L2.5,-0.5"/>
                </g>
               <g id="resetDef">
                       <use xlink:href="#rim2" fill="#404040">
                               <set attributeName="fill" to="#808080" begin="reset.mouseover" end="reset.mouseout"/>
                       </use>
               </g>
        </defs>

<script type="text/javascript">
var viewWidth = 2688;
var viewHeight = 240;
var sectionId = 'dynsection-1';
</script>
<script xlink:href="../../svgpan.js"/>
<svg id="graph" class="graph">
<g id="viewport">
<title>src/modules/websock&#45;api/Service.hpp</title>
<polygon fill="white" stroke="transparent" points="-4,4 -4,-236 2684,-236 2684,4 -4,4"/>
<!-- Node1 -->
<g id="node1" class="node">
<title>Node1</title>
<g id="a_node1"><a xlink:title=" ">
<polygon fill="#bfbfbf" stroke="black" points="765,-201.5 765,-231.5 887,-231.5 887,-201.5 765,-201.5"/>
<text text-anchor="start" x="773" y="-219.5" font-family="Helvetica,sans-Serif" font-size="10.00">src/modules/websock</text>
<text text-anchor="middle" x="826" y="-208.5" font-family="Helvetica,sans-Serif" font-size="10.00">&#45;api/Service.hpp</text>
</a>
</g>
</g>
<!-- Node2 -->
<g id="node2" class="node">
<title>Node2</title>
<g id="a_node2"><a xlink:href="../../dd/d4b/led-buzzer_2ws_2WSHelperThread_8cpp.html" target="_top" xlink:title=" ">
<polygon fill="white" stroke="black" points="0,-0.5 0,-30.5 138,-30.5 138,-0.5 0,-0.5"/>
<text text-anchor="start" x="8" y="-18.5" font-family="Helvetica,sans-Serif" font-size="10.00">src/modules/led&#45;buzzer</text>
<text text-anchor="middle" x="69" y="-7.5" font-family="Helvetica,sans-Serif" font-size="10.00">/ws/WSHelperThread.cpp</text>
</a>
</g>
</g>
<!-- Node1&#45;&gt;Node2 -->
<g id="edge1" class="edge">
<title>Node1&#45;&gt;Node2</title>
<path fill="none" stroke="midnightblue" d="M754.65,-209.53C601.29,-195.69 245.76,-157.96 142,-98 113.05,-81.27 89.4,-49.02 77.45,-30.5"/>
<polygon fill="midnightblue" stroke="midnightblue" points="754.62,-213.04 764.89,-210.44 755.24,-206.06 754.62,-213.04"/>
</g>
<!-- Node3 -->
<g id="node3" class="node">
<title>Node3</title>
<g id="a_node3"><a xlink:href="../../d6/d95/PFDigitalModule_8cpp.html" target="_top" xlink:title=" ">
<polygon fill="white" stroke="black" points="304,-0.5 304,-30.5 444,-30.5 444,-0.5 304,-0.5"/>
<text text-anchor="start" x="312" y="-18.5" font-family="Helvetica,sans-Serif" font-size="10.00">src/modules/pifacedigital</text>
<text text-anchor="middle" x="374" y="-7.5" font-family="Helvetica,sans-Serif" font-size="10.00">/PFDigitalModule.cpp</text>
</a>
</g>
</g>
<!-- Node1&#45;&gt;Node3 -->
<g id="edge2" class="edge">
<title>Node1&#45;&gt;Node3</title>
<path fill="none" stroke="midnightblue" d="M754.45,-215.17C687.79,-212.36 587.09,-201.62 508,-165 444.98,-135.82 398.64,-61.6 381.38,-30.52"/>
<polygon fill="midnightblue" stroke="midnightblue" points="754.72,-218.68 764.85,-215.55 754.98,-211.69 754.72,-218.68"/>
</g>
<!-- Node4 -->
<g id="node4" class="node">
<title>Node4</title>
<g id="a_node4"><a xlink:href="../../da/d6f/SMTPModule_8cpp.html" target="_top" xlink:title=" ">
<polygon fill="white" stroke="black" points="793,-140 793,-159 983,-159 983,-140 793,-140"/>
<text text-anchor="middle" x="888" y="-147" font-family="Helvetica,sans-Serif" font-size="10.00">src/modules/smtp/SMTPModule.cpp</text>
</a>
</g>
</g>
<!-- Node1&#45;&gt;Node4 -->
<g id="edge3" class="edge">
<title>Node1&#45;&gt;Node4</title>
<path fill="none" stroke="midnightblue" d="M846.51,-194C857.83,-182.13 871.26,-168.05 879.71,-159.19"/>
<polygon fill="midnightblue" stroke="midnightblue" points="843.82,-191.74 839.45,-201.4 848.89,-196.58 843.82,-191.74"/>
</g>
<!-- Node5 -->
<g id="node5" class="node">
<title>Node5</title>
<g id="a_node5"><a xlink:href="../../d5/dde/WSServer_8hpp.html" target="_top" xlink:title=" ">
<polygon fill="white" stroke="black" points="1720,-134.5 1720,-164.5 1842,-164.5 1842,-134.5 1720,-134.5"/>
<text text-anchor="start" x="1728" y="-152.5" font-family="Helvetica,sans-Serif" font-size="10.00">src/modules/websock</text>
<text text-anchor="middle" x="1781" y="-141.5" font-family="Helvetica,sans-Serif" font-size="10.00">&#45;api/WSServer.hpp</text>
</a>
</g>
</g>
<!-- Node1&#45;&gt;Node5 -->
<g id="edge4" class="edge">
<title>Node1&#45;&gt;Node5</title>
<path fill="none" stroke="midnightblue" d="M897.37,-210.64C1077.94,-198.35 1550.57,-166.18 1719.7,-154.67"/>
<polygon fill="midnightblue" stroke="midnightblue" points="896.93,-207.16 887.19,-211.34 897.41,-214.15 896.93,-207.16"/>
</g>
<!-- Node17 -->
<g id="node17" class="node">
<title>Node17</title>
<g id="a_node17"><a xlink:href="../../d4/d2c/WSServer_8cpp.html" target="_top" xlink:title=" ">
<polygon fill="white" stroke="black" points="988,-0.5 988,-30.5 1110,-30.5 1110,-0.5 988,-0.5"/>
<text text-anchor="start" x="996" y="-18.5" font-family="Helvetica,sans-Serif" font-size="10.00">src/modules/websock</text>
<text text-anchor="middle" x="1049" y="-7.5" font-family="Helvetica,sans-Serif" font-size="10.00">&#45;api/WSServer.cpp</text>
</a>
</g>
</g>
<!-- Node1&#45;&gt;Node17 -->
<g id="edge31" class="edge">
<title>Node1&#45;&gt;Node17</title>
<path fill="none" stroke="midnightblue" d="M896.94,-208.23C929.38,-201.61 966.23,-189 992,-165 1031.81,-127.93 1044.11,-59.97 1047.66,-30.62"/>
<polygon fill="midnightblue" stroke="midnightblue" points="896.21,-204.81 887.03,-210.1 897.51,-211.69 896.21,-204.81"/>
</g>
<!-- Node18 -->
<g id="node18" class="node">
<title>Node18</title>
<g id="a_node18"><a xlink:href="../../d2/dc4/Service_8cpp.html" target="_top" xlink:title=" ">
<polygon fill="white" stroke="black" points="2558,-67.5 2558,-97.5 2680,-97.5 2680,-67.5 2558,-67.5"/>
<text text-anchor="start" x="2566" y="-85.5" font-family="Helvetica,sans-Serif" font-size="10.00">src/modules/websock</text>
<text text-anchor="middle" x="2619" y="-74.5" font-family="Helvetica,sans-Serif" font-size="10.00">&#45;api/Service.cpp</text>
</a>
</g>
</g>
<!-- Node1&#45;&gt;Node18 -->
<g id="edge20" class="edge">
<title>Node1&#45;&gt;Node18</title>
<path fill="none" stroke="midnightblue" d="M897.25,-213.85C1132.03,-207.71 1902.31,-182.05 2533,-98 2540.95,-96.94 2549.3,-95.7 2557.54,-94.39"/>
<polygon fill="midnightblue" stroke="midnightblue" points="897.04,-210.35 887.14,-214.11 897.23,-217.35 897.04,-210.35"/>
</g>
<!-- Node19 -->
<g id="node19" class="node">
<title>Node19</title>
<g id="a_node19"><a xlink:href="../../da/df4/websock-api_2WSHelperThread_8hpp.html" target="_top" xlink:title=" ">
<polygon fill="white" stroke="black" points="517.5,-134.5 517.5,-164.5 658.5,-164.5 658.5,-134.5 517.5,-134.5"/>
<text text-anchor="start" x="525.5" y="-152.5" font-family="Helvetica,sans-Serif" font-size="10.00">src/modules/websock</text>
<text text-anchor="middle" x="588" y="-141.5" font-family="Helvetica,sans-Serif" font-size="10.00">&#45;api/WSHelperThread.hpp</text>
</a>
</g>
</g>
<!-- Node1&#45;&gt;Node19 -->
<g id="edge21" class="edge">
<title>Node1&#45;&gt;Node19</title>
<path fill="none" stroke="midnightblue" d="M764.54,-198.71C725.81,-188.14 676.37,-174.63 639.67,-164.61"/>
<polygon fill="midnightblue" stroke="midnightblue" points="764.08,-202.22 774.65,-201.48 765.93,-195.46 764.08,-202.22"/>
</g>
<!-- Node26 -->
<g id="node26" class="node">
<title>Node26</title>
<g id="a_node26"><a xlink:href="../../d8/d9e/wiegand_2ws_2WSHelperThread_8cpp.html" target="_top" xlink:title=" ">
<polygon fill="white" stroke="black" points="758,-0.5 758,-30.5 896,-30.5 896,-0.5 758,-0.5"/>
<text text-anchor="start" x="766" y="-18.5" font-family="Helvetica,sans-Serif" font-size="10.00">src/modules/wiegand</text>
<text text-anchor="middle" x="827" y="-7.5" font-family="Helvetica,sans-Serif" font-size="10.00">/ws/WSHelperThread.cpp</text>
</a>
</g>
</g>
<!-- Node1&#45;&gt;Node26 -->
<g id="edge32" class="edge">
<title>Node1&#45;&gt;Node26</title>
<path fill="none" stroke="midnightblue" d="M802.54,-194.05C795.14,-185.78 787.88,-175.73 784,-165 766.48,-116.54 799.43,-57.24 817,-30.62"/>
<polygon fill="midnightblue" stroke="midnightblue" points="800.14,-196.6 809.59,-201.4 805.19,-191.76 800.14,-196.6"/>
</g>
<!-- Node6 -->
<g id="node6" class="node">
<title>Node6</title>
<g id="a_node6"><a xlink:href="../../d7/d29/AccessPointCRUD_8cpp.html" target="_top" xlink:title=" ">
<polygon fill="white" stroke="black" points="1077,-67.5 1077,-97.5 1241,-97.5 1241,-67.5 1077,-67.5"/>
<text text-anchor="start" x="1085" y="-85.5" font-family="Helvetica,sans-Serif" font-size="10.00">src/modules/websock</text>
<text text-anchor="middle" x="1159" y="-74.5" font-family="Helvetica,sans-Serif" font-size="10.00">&#45;api/api/AccessPointCRUD.cpp</text>
</a>
</g>
</g>
<!-- Node5&#45;&gt;Node6 -->
<g id="edge5" class="edge">
<title>Node5&#45;&gt;Node6</title>
<path fill="none" stroke="midnightblue" d="M1709.75,-143.16C1607.7,-135.19 1414.08,-118.85 1250,-98 1247.14,-97.64 1244.24,-97.25 1241.31,-96.85"/>
<polygon fill="midnightblue" stroke="midnightblue" points="1709.7,-146.67 1719.94,-143.95 1710.24,-139.69 1709.7,-146.67"/>
</g>
<!-- Node7 -->
<g id="node7" class="node">
<title>Node7</title>
<g id="a_node7"><a xlink:href="../../d7/d86/APIAuth_8cpp.html" target="_top" xlink:title=" ">
<polygon fill="white" stroke="black" points="1259,-67.5 1259,-97.5 1381,-97.5 1381,-67.5 1259,-67.5"/>
<text text-anchor="start" x="1267" y="-85.5" font-family="Helvetica,sans-Serif" font-size="10.00">src/modules/websock</text>
<text text-anchor="middle" x="1320" y="-74.5" font-family="Helvetica,sans-Serif" font-size="10.00">&#45;api/api/APIAuth.cpp</text>
</a>
</g>
</g>
<!-- Node5&#45;&gt;Node7 -->
<g id="edge6" class="edge">
<title>Node5&#45;&gt;Node7</title>
<path fill="none" stroke="midnightblue" d="M1709.57,-140.92C1630.99,-132.2 1501.11,-116.66 1390,-98 1387.06,-97.51 1384.06,-96.98 1381.03,-96.43"/>
<polygon fill="midnightblue" stroke="midnightblue" points="1709.51,-144.44 1719.83,-142.05 1710.28,-137.48 1709.51,-144.44"/>
</g>
<!-- Node8 -->
<g id="node8" class="node">
<title>Node8</title>
<g id="a_node8"><a xlink:href="../../d9/d8d/APISession_8cpp.html" target="_top" xlink:title=" ">
<polygon fill="white" stroke="black" points="1399,-67.5 1399,-97.5 1529,-97.5 1529,-67.5 1399,-67.5"/>
<text text-anchor="start" x="1407" y="-85.5" font-family="Helvetica,sans-Serif" font-size="10.00">src/modules/websock</text>
<text text-anchor="middle" x="1464" y="-74.5" font-family="Helvetica,sans-Serif" font-size="10.00">&#45;api/api/APISession.cpp</text>
</a>
</g>
</g>
<!-- Node5&#45;&gt;Node8 -->
<g id="edge7" class="edge">
<title>Node5&#45;&gt;Node8</title>
<path fill="none" stroke="midnightblue" d="M1710,-133.94C1655.79,-122.83 1581.69,-107.63 1529.02,-96.83"/>
<polygon fill="midnightblue" stroke="midnightblue" points="1709.38,-137.39 1719.88,-135.97 1710.79,-130.53 1709.38,-137.39"/>
</g>
<!-- Node9 -->
<g id="node9" class="node">
<title>Node9</title>
<g id="a_node9"><a xlink:href="../../da/d62/AuditGet_8cpp.html" target="_top" xlink:title=" ">
<polygon fill="white" stroke="black" points="1547,-67.5 1547,-97.5 1669,-97.5 1669,-67.5 1547,-67.5"/>
<text text-anchor="start" x="1555" y="-85.5" font-family="Helvetica,sans-Serif" font-size="10.00">src/modules/websock</text>
<text text-anchor="middle" x="1608" y="-74.5" font-family="Helvetica,sans-Serif" font-size="10.00">&#45;api/api/AuditGet.cpp</text>
</a>
</g>
</g>
<!-- Node5&#45;&gt;Node9 -->
<g id="edge8" class="edge">
<title>Node5&#45;&gt;Node9</title>
<path fill="none" stroke="midnightblue" d="M1733.94,-130.82C1706.13,-120.37 1671.41,-107.32 1645.47,-97.58"/>
<polygon fill="midnightblue" stroke="midnightblue" points="1732.87,-134.16 1743.46,-134.4 1735.33,-127.6 1732.87,-134.16"/>
</g>
<!-- Node10 -->
<g id="node10" class="node">
<title>Node10</title>
<g id="a_node10"><a xlink:href="../../d5/dcb/CRUDResourceHandler_8cpp.html" target="_top" xlink:title=" ">
<polygon fill="white" stroke="black" points="1687,-67.5 1687,-97.5 1875,-97.5 1875,-67.5 1687,-67.5"/>
<text text-anchor="start" x="1695" y="-85.5" font-family="Helvetica,sans-Serif" font-size="10.00">src/modules/websock</text>
<text text-anchor="middle" x="1781" y="-74.5" font-family="Helvetica,sans-Serif" font-size="10.00">&#45;api/api/CRUDResourceHandler.cpp</text>
</a>
</g>
</g>
<!-- Node5&#45;&gt;Node10 -->
<g id="edge9" class="edge">
<title>Node5&#45;&gt;Node10</title>
<path fill="none" stroke="midnightblue" d="M1781,-124.11C1781,-115.15 1781,-105.32 1781,-97.58"/>
<polygon fill="midnightblue" stroke="midnightblue" points="1777.5,-124.4 1781,-134.4 1784.5,-124.4 1777.5,-124.4"/>
</g>
<!-- Node11 -->
<g id="node11" class="node">
<title>Node11</title>
<g id="a_node11"><a xlink:href="../../d9/d7c/MethodHandler_8cpp.html" target="_top" xlink:title=" ">
<polygon fill="white" stroke="black" points="1893.5,-67.5 1893.5,-97.5 2044.5,-97.5 2044.5,-67.5 1893.5,-67.5"/>
<text text-anchor="start" x="1901.5" y="-85.5" font-family="Helvetica,sans-Serif" font-size="10.00">src/modules/websock</text>
<text text-anchor="middle" x="1969" y="-74.5" font-family="Helvetica,sans-Serif" font-size="10.00">&#45;api/api/MethodHandler.cpp</text>
</a>
</g>
</g>
<!-- Node5&#45;&gt;Node11 -->
<g id="edge10" class="edge">
<title>Node5&#45;&gt;Node11</title>
<path fill="none" stroke="midnightblue" d="M1831.35,-131.09C1861.7,-120.6 1899.85,-107.41 1928.29,-97.58"/>
<polygon fill="midnightblue" stroke="midnightblue" points="1830.1,-127.82 1821.79,-134.4 1832.39,-134.44 1830.1,-127.82"/>
</g>
<!-- Node12 -->
<g id="node12" class="node">
<title>Node12</title>
<g id="a_node12"><a xlink:href="../../d7/da0/PasswordChange_8cpp.html" target="_top" xlink:title=" ">
<polygon fill="white" stroke="black" points="2062.5,-67.5 2062.5,-97.5 2221.5,-97.5 2221.5,-67.5 2062.5,-67.5"/>
<text text-anchor="start" x="2070.5" y="-85.5" font-family="Helvetica,sans-Serif" font-size="10.00">src/modules/websock</text>
<text text-anchor="middle" x="2142" y="-74.5" font-family="Helvetica,sans-Serif" font-size="10.00">&#45;api/api/PasswordChange.cpp</text>
</a>
</g>
</g>
<!-- Node5&#45;&gt;Node12 -->
<g id="edge11" class="edge">
<title>Node5&#45;&gt;Node12</title>
<path fill="none" stroke="midnightblue" d="M1852.18,-135.68C1913.25,-124.69 2001.11,-108.87 2064.06,-97.53"/>
<polygon fill="midnightblue" stroke="midnightblue" points="1851.46,-132.26 1842.24,-137.47 1852.7,-139.15 1851.46,-132.26"/>
</g>
<!-- Node13 -->
<g id="node13" class="node">
<title>Node13</title>
<g id="a_node13"><a xlink:href="../../d1/d43/Restart_8cpp.html" target="_top" xlink:title=" ">
<polygon fill="white" stroke="black" points="2240,-67.5 2240,-97.5 2362,-97.5 2362,-67.5 2240,-67.5"/>
<text text-anchor="start" x="2248" y="-85.5" font-family="Helvetica,sans-Serif" font-size="10.00">src/modules/websock</text>
<text text-anchor="middle" x="2301" y="-74.5" font-family="Helvetica,sans-Serif" font-size="10.00">&#45;api/api/Restart.cpp</text>
</a>
</g>
</g>
<!-- Node5&#45;&gt;Node13 -->
<g id="edge12" class="edge">
<title>Node5&#45;&gt;Node13</title>
<path fill="none" stroke="midnightblue" d="M1852.46,-142.45C1941.28,-134.48 2097.34,-118.96 2230,-98 2233.23,-97.49 2236.54,-96.93 2239.87,-96.35"/>
<polygon fill="midnightblue" stroke="midnightblue" points="1851.89,-138.99 1842.24,-143.36 1852.51,-145.96 1851.89,-138.99"/>
</g>
<!-- Node14 -->
<g id="node14" class="node">
<title>Node14</title>
<g id="a_node14"><a xlink:href="../../d9/d90/WebSockAPI_8hpp.html" target="_top" xlink:title=" ">
<polygon fill="white" stroke="black" points="2380,-67.5 2380,-97.5 2502,-97.5 2502,-67.5 2380,-67.5"/>
<text text-anchor="start" x="2388" y="-85.5" font-family="Helvetica,sans-Serif" font-size="10.00">src/modules/websock</text>
<text text-anchor="middle" x="2441" y="-74.5" font-family="Helvetica,sans-Serif" font-size="10.00">&#45;api/WebSockAPI.hpp</text>
</a>
</g>
</g>
<!-- Node5&#45;&gt;Node14 -->
<g id="edge13" class="edge">
<title>Node5&#45;&gt;Node14</title>
<path fill="none" stroke="midnightblue" d="M1852.09,-145.15C1963.25,-139.3 2184.8,-125.16 2371,-98 2373.95,-97.57 2376.96,-97.09 2379.99,-96.58"/>
<polygon fill="midnightblue" stroke="midnightblue" points="1851.81,-141.66 1842,-145.67 1852.17,-148.65 1851.81,-141.66"/>
</g>
<!-- Node16 -->
<g id="node16" class="node">
<title>Node16</title>
<g id="a_node16"><a xlink:href="../../d9/d6b/WebSockAPI_8cpp.html" target="_top" xlink:title=" ">
<polygon fill="white" stroke="black" points="2469,-0.5 2469,-30.5 2591,-30.5 2591,-0.5 2469,-0.5"/>
<text text-anchor="start" x="2477" y="-18.5" font-family="Helvetica,sans-Serif" font-size="10.00">src/modules/websock</text>
<text text-anchor="middle" x="2530" y="-7.5" font-family="Helvetica,sans-Serif" font-size="10.00">&#45;api/WebSockAPI.cpp</text>
</a>
</g>
</g>
<!-- Node5&#45;&gt;Node16 -->
<g id="edge18" class="edge">
<title>Node5&#45;&gt;Node16</title>
<path fill="none" stroke="midnightblue" d="M1852.41,-145.84C2031.3,-138.87 2486.17,-119.15 2511,-98 2530.47,-81.42 2532.15,-49.12 2531.3,-30.55"/>
<polygon fill="midnightblue" stroke="midnightblue" points="1852.16,-142.35 1842.3,-146.23 1852.43,-149.34 1852.16,-142.35"/>
</g>
<!-- Node5&#45;&gt;Node17 -->
<g id="edge19" class="edge">
<title>Node5&#45;&gt;Node17</title>
<path fill="none" stroke="midnightblue" d="M1709.63,-148.17C1538.62,-146.72 1116.05,-138.99 1068,-98 1048.55,-81.41 1046.86,-49.11 1047.71,-30.54"/>
<polygon fill="midnightblue" stroke="midnightblue" points="1709.76,-151.67 1719.79,-148.25 1709.82,-144.67 1709.76,-151.67"/>
</g>
<!-- Node5&#45;&gt;Node18 -->
<g id="edge17" class="edge">
<title>Node5&#45;&gt;Node18</title>
<path fill="none" stroke="midnightblue" d="M1852.31,-146.75C1987.66,-142.77 2290.89,-130.71 2544,-98 2548.47,-97.42 2553.08,-96.74 2557.71,-96"/>
<polygon fill="midnightblue" stroke="midnightblue" points="1851.97,-143.26 1842.08,-147.05 1852.17,-150.26 1851.97,-143.26"/>
</g>
<!-- Node15 -->
<g id="node15" class="node">
<title>Node15</title>
<g id="a_node15"><a xlink:href="../../de/d22/websock-api_2init_8cpp.html" target="_top" xlink:title=" ">
<polygon fill="white" stroke="black" points="2329,-0.5 2329,-30.5 2451,-30.5 2451,-0.5 2329,-0.5"/>
<text text-anchor="start" x="2337" y="-18.5" font-family="Helvetica,sans-Serif" font-size="10.00">src/modules/websock</text>
<text text-anchor="middle" x="2390" y="-7.5" font-family="Helvetica,sans-Serif" font-size="10.00">&#45;api/init.cpp</text>
</a>
</g>
</g>
<!-- Node14&#45;&gt;Node15 -->
<g id="edge14" class="edge">
<title>Node14&#45;&gt;Node15</title>
<path fill="none" stroke="midnightblue" d="M2423.7,-59.45C2416.21,-49.9 2407.66,-39 2401.04,-30.58"/>
<polygon fill="midnightblue" stroke="midnightblue" points="2421.01,-61.69 2429.93,-67.4 2426.51,-57.37 2421.01,-61.69"/>
</g>
<!-- Node14&#45;&gt;Node16 -->
<g id="edge15" class="edge">
<title>Node14&#45;&gt;Node16</title>
<path fill="none" stroke="midnightblue" d="M2468.45,-61.45C2482.14,-51.45 2498.37,-39.6 2510.73,-30.58"/>
<polygon fill="midnightblue" stroke="midnightblue" points="2466.32,-58.67 2460.31,-67.4 2470.45,-64.32 2466.32,-58.67"/>
</g>
<!-- Node14&#45;&gt;Node17 -->
<g id="edge16" class="edge">
<title>Node14&#45;&gt;Node17</title>
<path fill="none" stroke="midnightblue" d="M2369.57,-67C2102.19,-36.29 1333,-21.29 1110.14,-17.49"/>
<polygon fill="midnightblue" stroke="midnightblue" points="2369.29,-70.49 2379.64,-68.19 2370.12,-63.54 2369.29,-70.49"/>
</g>
<!-- Node20 -->
<g id="node20" class="node">
<title>Node20</title>
<g id="a_node20"><a xlink:href="../../dc/d31/led-buzzer_2ws_2WSHelperThread_8hpp.html" target="_top" xlink:title=" ">
<polygon fill="white" stroke="black" points="151.5,-67.5 151.5,-97.5 290.5,-97.5 290.5,-67.5 151.5,-67.5"/>
<text text-anchor="start" x="159.5" y="-85.5" font-family="Helvetica,sans-Serif" font-size="10.00">src/modules/led&#45;buzzer</text>
<text text-anchor="middle" x="221" y="-74.5" font-family="Helvetica,sans-Serif" font-size="10.00">/ws/WSHelperThread.hpp</text>
</a>
</g>
</g>
<!-- Node19&#45;&gt;Node20 -->
<g id="edge22" class="edge">
<title>Node19&#45;&gt;Node20</title>
<path fill="none" stroke="midnightblue" d="M507.06,-134.16C442.23,-122.68 352.24,-106.74 290.61,-95.83"/>
<polygon fill="midnightblue" stroke="midnightblue" points="506.78,-137.67 517.24,-135.97 508,-130.78 506.78,-137.67"/>
</g>
<!-- Node22 -->
<g id="node22" class="node">
<title>Node22</title>
<g id="a_node22"><a xlink:href="../../d7/d36/PFDigitalModule_8hpp.html" target="_top" xlink:title=" ">
<polygon fill="white" stroke="black" points="439,-67.5 439,-97.5 579,-97.5 579,-67.5 439,-67.5"/>
<text text-anchor="start" x="447" y="-85.5" font-family="Helvetica,sans-Serif" font-size="10.00">src/modules/pifacedigital</text>
<text text-anchor="middle" x="509" y="-74.5" font-family="Helvetica,sans-Serif" font-size="10.00">/PFDigitalModule.hpp</text>
</a>
</g>
</g>
<!-- Node19&#45;&gt;Node22 -->
<g id="edge25" class="edge">
<title>Node19&#45;&gt;Node22</title>
<path fill="none" stroke="midnightblue" d="M562.94,-127.88C550.94,-118.01 536.87,-106.43 526.11,-97.58"/>
<polygon fill="midnightblue" stroke="midnightblue" points="560.91,-130.75 570.86,-134.4 565.36,-125.34 560.91,-130.75"/>
</g>
<!-- Node24 -->
<g id="node24" class="node">
<title>Node24</title>
<g id="a_node24"><a xlink:href="../../d4/df3/wiegand_2ws_2WSHelperThread_8hpp.html" target="_top" xlink:title=" ">
<polygon fill="white" stroke="black" points="597.5,-67.5 597.5,-97.5 736.5,-97.5 736.5,-67.5 597.5,-67.5"/>
<text text-anchor="start" x="605.5" y="-85.5" font-family="Helvetica,sans-Serif" font-size="10.00">src/modules/wiegand</text>
<text text-anchor="middle" x="667" y="-74.5" font-family="Helvetica,sans-Serif" font-size="10.00">/ws/WSHelperThread.hpp</text>
</a>
</g>
</g>
<!-- Node19&#45;&gt;Node24 -->
<g id="edge28" class="edge">
<title>Node19&#45;&gt;Node24</title>
<path fill="none" stroke="midnightblue" d="M613.06,-127.88C625.06,-118.01 639.13,-106.43 649.89,-97.58"/>
<polygon fill="midnightblue" stroke="midnightblue" points="610.64,-125.34 605.14,-134.4 615.09,-130.75 610.64,-125.34"/>
</g>
<!-- Node20&#45;&gt;Node2 -->
<g id="edge24" class="edge">
<title>Node20&#45;&gt;Node2</title>
<path fill="none" stroke="midnightblue" d="M178.69,-63.41C154.42,-53.03 124.41,-40.2 101.92,-30.58"/>
<polygon fill="midnightblue" stroke="midnightblue" points="177.45,-66.68 188.02,-67.4 180.2,-60.25 177.45,-66.68"/>
</g>
<!-- Node21 -->
<g id="node21" class="node">
<title>Node21</title>
<g id="a_node21"><a xlink:href="../../d7/d36/LEDBuzzerModule_8cpp.html" target="_top" xlink:title=" ">
<polygon fill="white" stroke="black" points="156,-0.5 156,-30.5 286,-30.5 286,-0.5 156,-0.5"/>
<text text-anchor="start" x="164" y="-18.5" font-family="Helvetica,sans-Serif" font-size="10.00">src/modules/led&#45;buzzer</text>
<text text-anchor="middle" x="221" y="-7.5" font-family="Helvetica,sans-Serif" font-size="10.00">/LEDBuzzerModule.cpp</text>
</a>
</g>
</g>
<!-- Node20&#45;&gt;Node21 -->
<g id="edge23" class="edge">
<title>Node20&#45;&gt;Node21</title>
<path fill="none" stroke="midnightblue" d="M221,-57.11C221,-48.15 221,-38.32 221,-30.58"/>
<polygon fill="midnightblue" stroke="midnightblue" points="217.5,-57.4 221,-67.4 224.5,-57.4 217.5,-57.4"/>
</g>
<!-- Node22&#45;&gt;Node3 -->
<g id="edge27" class="edge">
<title>Node22&#45;&gt;Node3</title>
<path fill="none" stroke="midnightblue" d="M470.56,-62.99C449.16,-52.69 422.95,-40.07 403.24,-30.58"/>
<polygon fill="midnightblue" stroke="midnightblue" points="469.18,-66.21 479.71,-67.4 472.22,-59.9 469.18,-66.21"/>
</g>
<!-- Node23 -->
<g id="node23" class="node">
<title>Node23</title>
<g id="a_node23"><a xlink:href="../../d6/d6d/pifacedigital_2init_8cpp.html" target="_top" xlink:title=" ">
<polygon fill="white" stroke="black" points="462,-0.5 462,-30.5 602,-30.5 602,-0.5 462,-0.5"/>
<text text-anchor="start" x="470" y="-18.5" font-family="Helvetica,sans-Serif" font-size="10.00">src/modules/pifacedigital</text>
<text text-anchor="middle" x="532" y="-7.5" font-family="Helvetica,sans-Serif" font-size="10.00">/init.cpp</text>
</a>
</g>
</g>
<!-- Node22&#45;&gt;Node23 -->
<g id="edge26" class="edge">
<title>Node22&#45;&gt;Node23</title>
<path fill="none" stroke="midnightblue" d="M517.42,-57.7C520.65,-48.59 524.22,-38.49 527.02,-30.58"/>
<polygon fill="midnightblue" stroke="midnightblue" points="514.03,-56.8 513.99,-67.4 520.63,-59.14 514.03,-56.8"/>
</g>
<!-- Node25 -->
<g id="node25" class="node">
<title>Node25</title>
<g id="a_node25"><a xlink:href="../../d3/de8/wiegand_8cpp.html" target="_top" xlink:title=" ">
<polygon fill="white" stroke="black" points="620,-0.5 620,-30.5 740,-30.5 740,-0.5 620,-0.5"/>
<text text-anchor="start" x="628" y="-18.5" font-family="Helvetica,sans-Serif" font-size="10.00">src/modules/wiegand</text>
<text text-anchor="middle" x="680" y="-7.5" font-family="Helvetica,sans-Serif" font-size="10.00">/wiegand.cpp</text>
</a>
</g>
</g>
<!-- Node24&#45;&gt;Node25 -->
<g id="edge29" class="edge">
<title>Node24&#45;&gt;Node25</title>
<path fill="none" stroke="midnightblue" d="M671.82,-57.4C673.63,-48.37 675.62,-38.41 677.18,-30.58"/>
<polygon fill="midnightblue" stroke="midnightblue" points="668.35,-56.9 669.82,-67.4 675.21,-58.28 668.35,-56.9"/>
</g>
<!-- Node24&#45;&gt;Node26 -->
<g id="edge30" class="edge">
<title>Node24&#45;&gt;Node26</title>
<path fill="none" stroke="midnightblue" d="M711.2,-63.54C736.8,-53.14 768.57,-40.24 792.35,-30.58"/>
<polygon fill="midnightblue" stroke="midnightblue" points="709.66,-60.39 701.72,-67.4 712.3,-66.87 709.66,-60.39"/>
</g>
</g>
</svg>
        <g id="navigator" transform="translate(0 0)" fill="#404254">
                <rect fill="#f2f5e9" fill-opacity="0.5" stroke="#606060" stroke-width=".5" x="0" y="0" width="60" height="60"/>
                <use id="zoomplus" xlink:href="#zoomPlus" x="17" y="9" onmousedown="handleZoom(evt,'in')"/>
                <use id="zoomminus" xlink:href="#zoomMin" x="42" y="9" onmousedown="handleZoom(evt,'out')"/>
                <use id="reset" xlink:href="#resetDef" x="30" y="36" onmousedown="handleReset()"/>
                <g id="arrowUp" xlink:href="#dirArrow" transform="translate(30 24)" onmousedown="handlePan(0,-1)">
                  <use xlink:href="#rim" fill="#404040">
                        <set attributeName="fill" to="#808080" begin="arrowUp.mouseover" end="arrowUp.mouseout"/>
                  </use>
                  <path fill="none" stroke="white" stroke-width="1.5" d="M0,-3.0v7 M-2.5,-0.5L0,-3.0L2.5,-0.5"/>
                </g>
                <g id="arrowRight" xlink:href="#dirArrow" transform="rotate(90) translate(36 -43)" onmousedown="handlePan(1,0)">
                  <use xlink:href="#rim" fill="#404040">
                        <set attributeName="fill" to="#808080" begin="arrowRight.mouseover" end="arrowRight.mouseout"/>
                  </use>
                  <path fill="none" stroke="white" stroke-width="1.5" d="M0,-3.0v7 M-2.5,-0.5L0,-3.0L2.5,-0.5"/>
                </g>
                <g id="arrowDown" xlink:href="#dirArrow" transform="rotate(180) translate(-30 -48)" onmousedown="handlePan(0,1)">
                  <use xlink:href="#rim" fill="#404040">
                        <set attributeName="fill" to="#808080" begin="arrowDown.mouseover" end="arrowDown.mouseout"/>
                  </use>
                  <path fill="none" stroke="white" stroke-width="1.5" d="M0,-3.0v7 M-2.5,-0.5L0,-3.0L2.5,-0.5"/>
                </g>
                <g id="arrowLeft" xlink:href="#dirArrow" transform="rotate(270) translate(-36 17)" onmousedown="handlePan(-1,0)">
                  <use xlink:href="#rim" fill="#404040">
                        <set attributeName="fill" to="#808080" begin="arrowLeft.mouseover" end="arrowLeft.mouseout"/>
                  </use>
                  <path fill="none" stroke="white" stroke-width="1.5" d="M0,-3.0v7 M-2.5,-0.5L0,-3.0L2.5,-0.5"/>
                </g>
        </g>
        <svg viewBox="0 0 15 15" width="100%" height="30px" preserveAspectRatio="xMaxYMin meet">
         <g id="arrow_out" transform="scale(0.3 0.3)">
          <a xlink:href="Service_8hpp__dep__incl_org.svg" target="_base">
           <rect id="button" ry="5" rx="5" y="6" x="6" height="38" width="38"
                fill="#f2f5e9" fill-opacity="0.5" stroke="#606060" stroke-width="1.0"/>
           <path id="arrow"
             d="M 11.500037,31.436501 C 11.940474,20.09759 22.043105,11.32322 32.158766,21.979434 L 37.068811,17.246167 C 37.068811,17.246167 37.088388,32 37.088388,32 L 22.160133,31.978069 C 22.160133,31.978069 26.997745,27.140456 26.997745,27.140456 C 18.528582,18.264221 13.291696,25.230495 11.500037,31.436501 z"
             style="fill:#404040;"/>
          </a>
         </g>
        </svg>
</svg>
