<?xml version="1.0" encoding="UTF-8" standalone="no"?>
<!DOCTYPE svg PUBLIC "-//W3C//DTD SVG 1.1//EN"
 "http://www.w3.org/Graphics/SVG/1.1/DTD/svg11.dtd">
<!-- Generated by graphviz version 2.43.0 (0)
 -->
<!-- Title: src/tools/service/ServiceRegistry.hpp Pages: 1 -->
<!--zoomable 319 -->
<svg id="main" version="1.1" xmlns="http://www.w3.org/2000/svg" xmlns:xlink="http://www.w3.org/1999/xlink" xml:space="preserve" onload="init(evt)">
<style type="text/css"><![CDATA[
.edge:hover path { stroke: red; }
.edge:hover polygon { stroke: red; fill: red; }
]]></style>
<script type="text/javascript"><![CDATA[
var edges = document.getElementsByTagName('g');
if (edges && edges.length) {
  for (var i=0;i<edges.length;i++) {
    if (edges[i].id.substr(0,4)=='edge') {
      edges[i].setAttribute('class','edge');
    }
  }
}
]]></script>
        <defs>
                <circle id="rim" cx="0" cy="0" r="7"/>
                <circle id="rim2" cx="0" cy="0" r="3.5"/>
                <g id="zoomPlus">
                        <use xlink:href="#rim" fill="#404040">
                                <set attributeName="fill" to="#808080" begin="zoomplus.mouseover" end="zoomplus.mouseout"/>
                        </use>
                        <path d="M-4,0h8M0,-4v8" fill="none" stroke="white" stroke-width="1.5" pointer-events="none"/>
                </g>
                <g id="zoomMin">
                        <use xlink:href="#rim" fill="#404040">
                                <set attributeName="fill" to="#808080" begin="zoomminus.mouseover" end="zoomminus.mouseout"/>
                        </use>
                        <path d="M-4,0h8" fill="none" stroke="white" stroke-width="1.5" pointer-events="none"/>
                </g>
                <g id="dirArrow">
                        <path fill="none" stroke="white" stroke-width="1.5" d="M0,-3.0v7 M-2.5,-0.5L0,-3.0L2.5,-0.5"/>
                </g>
               <g id="resetDef">
                       <use xlink:href="#rim2" fill="#404040">
                               <set attributeName="fill" to="#808080" begin="reset.mouseover" end="reset.mouseout"/>
                       </use>
               </g>
        </defs>

<script type="text/javascript">
var viewWidth = 2841;
var viewHeight = 319;
var sectionId = 'dynsection-0';
</script>
<script xlink:href="../../svgpan.js"/>
<svg id="graph" class="graph">
<g id="viewport">
<title>src/tools/service/ServiceRegistry.hpp</title>
<polygon fill="white" stroke="transparent" points="-4,4 -4,-315 2836.5,-315 2836.5,4 -4,4"/>
<!-- Node1 -->
<g id="node1" class="node">
<title>Node1</title>
<g id="a_node1"><a xlink:title=" ">
<polygon fill="#bfbfbf" stroke="black" points="2341,-280.5 2341,-310.5 2476,-310.5 2476,-280.5 2341,-280.5"/>
<text text-anchor="start" x="2349" y="-298.5" font-family="Helvetica,sans-Serif" font-size="10.00">src/tools/service/Service</text>
<text text-anchor="middle" x="2408.5" y="-287.5" font-family="Helvetica,sans-Serif" font-size="10.00">Registry.hpp</text>
</a>
</g>
</g>
<!-- Node2 -->
<g id="node2" class="node">
<title>Node2</title>
<g id="a_node2"><a xlink:href="../../de/d8c/JSONUtils_8hpp.html" target="_top" xlink:title=" ">
<polygon fill="white" stroke="black" points="741,-224.5 741,-243.5 852,-243.5 852,-224.5 741,-224.5"/>
<text text-anchor="middle" x="796.5" y="-231.5" font-family="Helvetica,sans-Serif" font-size="10.00">tools/JSONUtils.hpp</text>
</a>
</g>
</g>
<!-- Node1&#45;&gt;Node2 -->
<g id="edge1" class="edge">
<title>Node1&#45;&gt;Node2</title>
<path fill="none" stroke="midnightblue" d="M2340.78,-292C2077.33,-282.28 1122.62,-247.04 862.4,-237.43"/>
<polygon fill="midnightblue" stroke="midnightblue" points="862.47,-233.93 852.34,-237.06 862.21,-240.93 862.47,-233.93"/>
</g>
<!-- Node32 -->
<g id="node32" class="node">
<title>Node32</title>
<g id="a_node32"><a xlink:href="../../dc/dc2/bs2_8hpp.html" target="_top" xlink:title=" ">
<polygon fill="white" stroke="black" points="1892.5,-224.5 1892.5,-243.5 1974.5,-243.5 1974.5,-224.5 1892.5,-224.5"/>
<text text-anchor="middle" x="1933.5" y="-231.5" font-family="Helvetica,sans-Serif" font-size="10.00">tools/bs2.hpp</text>
</a>
</g>
</g>
<!-- Node1&#45;&gt;Node32 -->
<g id="edge54" class="edge">
<title>Node1&#45;&gt;Node32</title>
<path fill="none" stroke="midnightblue" d="M2340.95,-286.04C2244.84,-274 2070.75,-252.19 1984.61,-241.4"/>
<polygon fill="midnightblue" stroke="midnightblue" points="1984.9,-237.91 1974.55,-240.14 1984.03,-244.86 1984.9,-237.91"/>
</g>
<!-- Node34 -->
<g id="node34" class="node">
<title>Node34</title>
<g id="a_node34"><a xlink:href="../../d4/d3d/log_8hpp.html" target="_top" xlink:title=" ">
<polygon fill="white" stroke="black" points="2468.5,-168.5 2468.5,-187.5 2548.5,-187.5 2548.5,-168.5 2468.5,-168.5"/>
<text text-anchor="middle" x="2508.5" y="-175.5" font-family="Helvetica,sans-Serif" font-size="10.00">tools/log.hpp</text>
</a>
</g>
</g>
<!-- Node1&#45;&gt;Node34 -->
<g id="edge56" class="edge">
<title>Node1&#45;&gt;Node34</title>
<path fill="none" stroke="midnightblue" d="M2409.11,-280.36C2410.45,-265 2414.62,-240.48 2427.5,-224 2438.9,-209.41 2456.43,-198.84 2472.27,-191.63"/>
<polygon fill="midnightblue" stroke="midnightblue" points="2474,-194.7 2481.84,-187.57 2471.26,-188.25 2474,-194.7"/>
</g>
<!-- Node39 -->
<g id="node39" class="node">
<title>Node39</title>
<g id="a_node39"><a xlink:href="../../db/dd1/Registry_8hpp.html" target="_top" xlink:title=" ">
<polygon fill="white" stroke="black" points="2436.5,-224.5 2436.5,-243.5 2580.5,-243.5 2580.5,-224.5 2436.5,-224.5"/>
<text text-anchor="middle" x="2508.5" y="-231.5" font-family="Helvetica,sans-Serif" font-size="10.00">tools/registry/Registry.hpp</text>
</a>
</g>
</g>
<!-- Node1&#45;&gt;Node39 -->
<g id="edge63" class="edge">
<title>Node1&#45;&gt;Node39</title>
<path fill="none" stroke="midnightblue" d="M2432.2,-280.4C2448.23,-270.86 2469.3,-258.32 2485.24,-248.84"/>
<polygon fill="midnightblue" stroke="midnightblue" points="2487.14,-251.78 2493.95,-243.66 2483.57,-245.76 2487.14,-251.78"/>
</g>
<!-- Node42 -->
<g id="node42" class="node">
<title>Node42</title>
<g id="a_node42"><a xlink:title=" ">
<polygon fill="white" stroke="#bfbfbf" points="2598.5,-224.5 2598.5,-243.5 2720.5,-243.5 2720.5,-224.5 2598.5,-224.5"/>
<text text-anchor="middle" x="2659.5" y="-231.5" font-family="Helvetica,sans-Serif" font-size="10.00">boost/type_index.hpp</text>
</a>
</g>
</g>
<!-- Node1&#45;&gt;Node42 -->
<g id="edge68" class="edge">
<title>Node1&#45;&gt;Node42</title>
<path fill="none" stroke="midnightblue" d="M2467.67,-280.47C2512.29,-269.9 2572.62,-255.59 2613.63,-245.87"/>
<polygon fill="midnightblue" stroke="midnightblue" points="2614.69,-249.22 2623.62,-243.51 2613.08,-242.41 2614.69,-249.22"/>
</g>
<!-- Node3 -->
<g id="node3" class="node">
<title>Node3</title>
<g id="a_node3"><a xlink:href="../../d3/d6f/AuthFwd_8hpp.html" target="_top" xlink:title=" ">
<polygon fill="white" stroke="black" points="856,-168.5 856,-187.5 985,-187.5 985,-168.5 856,-168.5"/>
<text text-anchor="middle" x="920.5" y="-175.5" font-family="Helvetica,sans-Serif" font-size="10.00">core/auth/AuthFwd.hpp</text>
</a>
</g>
</g>
<!-- Node2&#45;&gt;Node3 -->
<g id="edge2" class="edge">
<title>Node2&#45;&gt;Node3</title>
<path fill="none" stroke="midnightblue" d="M816.15,-224.44C836.46,-215.6 868.4,-201.69 891.6,-191.59"/>
<polygon fill="midnightblue" stroke="midnightblue" points="893.17,-194.72 900.94,-187.52 890.38,-188.3 893.17,-194.72"/>
</g>
<!-- Node7 -->
<g id="node7" class="node">
<title>Node7</title>
<g id="a_node7"><a xlink:href="../../d1/ddd/leosacexception_8hpp.html" target="_top" xlink:title="Exception class for LEOSAC Project related errors.">
<polygon fill="white" stroke="black" points="1599.5,-168.5 1599.5,-187.5 1767.5,-187.5 1767.5,-168.5 1599.5,-168.5"/>
<text text-anchor="middle" x="1683.5" y="-175.5" font-family="Helvetica,sans-Serif" font-size="10.00">exception/leosacexception.hpp</text>
</a>
</g>
</g>
<!-- Node2&#45;&gt;Node7 -->
<g id="edge6" class="edge">
<title>Node2&#45;&gt;Node7</title>
<path fill="none" stroke="midnightblue" d="M852.38,-230.6C980.61,-224.93 1306.05,-209.59 1589.31,-188.06"/>
<polygon fill="midnightblue" stroke="midnightblue" points="1589.66,-191.55 1599.36,-187.29 1589.13,-184.57 1589.66,-191.55"/>
</g>
<!-- Node23 -->
<g id="node23" class="node">
<title>Node23</title>
<g id="a_node23"><a xlink:href="../../dc/dea/Uuid_8hpp.html" target="_top" xlink:title=" ">
<polygon fill="white" stroke="black" points="428,-168.5 428,-187.5 515,-187.5 515,-168.5 428,-168.5"/>
<text text-anchor="middle" x="471.5" y="-175.5" font-family="Helvetica,sans-Serif" font-size="10.00">tools/Uuid.hpp</text>
</a>
</g>
</g>
<!-- Node2&#45;&gt;Node23 -->
<g id="edge43" class="edge">
<title>Node2&#45;&gt;Node23</title>
<path fill="none" stroke="midnightblue" d="M744.6,-224.48C691.99,-215.83 607.97,-201.97 525.25,-188.12"/>
<polygon fill="midnightblue" stroke="midnightblue" points="525.61,-184.63 515.17,-186.43 524.45,-191.54 525.61,-184.63"/>
</g>
<!-- Node24 -->
<g id="node24" class="node">
<title>Node24</title>
<g id="a_node24"><a xlink:title=" ">
<polygon fill="white" stroke="#bfbfbf" points="613,-112.5 613,-131.5 738,-131.5 738,-112.5 613,-112.5"/>
<text text-anchor="middle" x="675.5" y="-119.5" font-family="Helvetica,sans-Serif" font-size="10.00">boost/lexical_cast.hpp</text>
</a>
</g>
</g>
<!-- Node2&#45;&gt;Node24 -->
<g id="edge50" class="edge">
<title>Node2&#45;&gt;Node24</title>
<path fill="none" stroke="midnightblue" d="M801.76,-224.09C808.95,-210.65 819.62,-184.94 807.5,-168 797.67,-154.26 759.32,-142.13 726.48,-133.93"/>
<polygon fill="midnightblue" stroke="midnightblue" points="727.04,-130.47 716.5,-131.52 725.4,-137.27 727.04,-130.47"/>
</g>
<!-- Node29 -->
<g id="node29" class="node">
<title>Node29</title>
<g id="a_node29"><a xlink:title=" ">
<polygon fill="white" stroke="#bfbfbf" points="533.5,-168.5 533.5,-187.5 583.5,-187.5 583.5,-168.5 533.5,-168.5"/>
<text text-anchor="middle" x="558.5" y="-175.5" font-family="Helvetica,sans-Serif" font-size="10.00">chrono</text>
</a>
</g>
</g>
<!-- Node2&#45;&gt;Node29 -->
<g id="edge51" class="edge">
<title>Node2&#45;&gt;Node29</title>
<path fill="none" stroke="midnightblue" d="M755.36,-224.45C716.17,-216.19 655.29,-203.05 593.62,-188.2"/>
<polygon fill="midnightblue" stroke="midnightblue" points="594.26,-184.75 583.72,-185.8 592.62,-191.56 594.26,-184.75"/>
</g>
<!-- Node30 -->
<g id="node30" class="node">
<title>Node30</title>
<g id="a_node30"><a xlink:title=" ">
<polygon fill="white" stroke="#bfbfbf" points="601.5,-168.5 601.5,-187.5 711.5,-187.5 711.5,-168.5 601.5,-168.5"/>
<text text-anchor="middle" x="656.5" y="-175.5" font-family="Helvetica,sans-Serif" font-size="10.00">nlohmann/json.hpp</text>
</a>
</g>
</g>
<!-- Node2&#45;&gt;Node30 -->
<g id="edge52" class="edge">
<title>Node2&#45;&gt;Node30</title>
<path fill="none" stroke="midnightblue" d="M774.32,-224.44C751.07,-215.48 714.35,-201.31 688.08,-191.18"/>
<polygon fill="midnightblue" stroke="midnightblue" points="689.17,-187.85 678.58,-187.52 686.65,-194.38 689.17,-187.85"/>
</g>
<!-- Node31 -->
<g id="node31" class="node">
<title>Node31</title>
<g id="a_node31"><a xlink:title=" ">
<polygon fill="white" stroke="#bfbfbf" points="730,-168.5 730,-187.5 799,-187.5 799,-168.5 730,-168.5"/>
<text text-anchor="middle" x="764.5" y="-175.5" font-family="Helvetica,sans-Serif" font-size="10.00">type_traits</text>
</a>
</g>
</g>
<!-- Node2&#45;&gt;Node31 -->
<g id="edge53" class="edge">
<title>Node2&#45;&gt;Node31</title>
<path fill="none" stroke="midnightblue" d="M791.22,-224.08C786.79,-216.61 780.34,-205.72 774.88,-196.52"/>
<polygon fill="midnightblue" stroke="midnightblue" points="777.79,-194.57 769.69,-187.75 771.77,-198.14 777.79,-194.57"/>
</g>
<!-- Node4 -->
<g id="node4" class="node">
<title>Node4</title>
<g id="a_node4"><a xlink:title=" ">
<polygon fill="white" stroke="#bfbfbf" points="946,-112.5 946,-131.5 999,-131.5 999,-112.5 946,-112.5"/>
<text text-anchor="middle" x="972.5" y="-119.5" font-family="Helvetica,sans-Serif" font-size="10.00">cstddef</text>
</a>
</g>
</g>
<!-- Node3&#45;&gt;Node4 -->
<g id="edge3" class="edge">
<title>Node3&#45;&gt;Node4</title>
<path fill="none" stroke="midnightblue" d="M929.09,-168.08C936.66,-160.22 947.88,-148.57 957.01,-139.08"/>
<polygon fill="midnightblue" stroke="midnightblue" points="959.66,-141.38 964.07,-131.75 954.62,-136.53 959.66,-141.38"/>
</g>
<!-- Node5 -->
<g id="node5" class="node">
<title>Node5</title>
<g id="a_node5"><a xlink:title=" ">
<polygon fill="white" stroke="#bfbfbf" points="869.5,-112.5 869.5,-131.5 927.5,-131.5 927.5,-112.5 869.5,-112.5"/>
<text text-anchor="middle" x="898.5" y="-119.5" font-family="Helvetica,sans-Serif" font-size="10.00">memory</text>
</a>
</g>
</g>
<!-- Node3&#45;&gt;Node5 -->
<g id="edge4" class="edge">
<title>Node3&#45;&gt;Node5</title>
<path fill="none" stroke="midnightblue" d="M916.87,-168.08C913.89,-160.77 909.57,-150.18 905.88,-141.1"/>
<polygon fill="midnightblue" stroke="midnightblue" points="909.08,-139.69 902.07,-131.75 902.6,-142.33 909.08,-139.69"/>
</g>
<!-- Node6 -->
<g id="node6" class="node">
<title>Node6</title>
<g id="a_node6"><a xlink:title=" ">
<polygon fill="white" stroke="#bfbfbf" points="756,-112.5 756,-131.5 851,-131.5 851,-112.5 756,-112.5"/>
<text text-anchor="middle" x="803.5" y="-119.5" font-family="Helvetica,sans-Serif" font-size="10.00">odb/lazy&#45;ptr.hxx</text>
</a>
</g>
</g>
<!-- Node3&#45;&gt;Node6 -->
<g id="edge5" class="edge">
<title>Node3&#45;&gt;Node6</title>
<path fill="none" stroke="midnightblue" d="M901.96,-168.44C882.88,-159.64 852.93,-145.81 831.06,-135.72"/>
<polygon fill="midnightblue" stroke="midnightblue" points="832.5,-132.53 821.95,-131.52 829.57,-138.88 832.5,-132.53"/>
</g>
<!-- Node7&#45;&gt;Node4 -->
<g id="edge10" class="edge">
<title>Node7&#45;&gt;Node4</title>
<path fill="none" stroke="midnightblue" d="M1599.36,-168.73C1596.37,-168.47 1593.41,-168.23 1590.5,-168 1334.99,-147.75 1265.68,-171.88 1009.13,-131.98"/>
<polygon fill="midnightblue" stroke="midnightblue" points="1009.57,-128.5 999.14,-130.41 1008.48,-135.42 1009.57,-128.5"/>
</g>
<!-- Node8 -->
<g id="node8" class="node">
<title>Node8</title>
<g id="a_node8"><a xlink:href="../../d6/d2f/Stacktrace_8hpp.html" target="_top" xlink:title=" ">
<polygon fill="white" stroke="black" points="1734.5,-112.5 1734.5,-131.5 1850.5,-131.5 1850.5,-112.5 1734.5,-112.5"/>
<text text-anchor="middle" x="1792.5" y="-119.5" font-family="Helvetica,sans-Serif" font-size="10.00">tools/Stacktrace.hpp</text>
</a>
</g>
</g>
<!-- Node7&#45;&gt;Node8 -->
<g id="edge7" class="edge">
<title>Node7&#45;&gt;Node8</title>
<path fill="none" stroke="midnightblue" d="M1701.01,-168.32C1718.57,-159.62 1745.83,-146.12 1766.03,-136.11"/>
<polygon fill="midnightblue" stroke="midnightblue" points="1767.62,-139.23 1775.03,-131.65 1764.52,-132.96 1767.62,-139.23"/>
</g>
<!-- Node9 -->
<g id="node9" class="node">
<title>Node9</title>
<g id="a_node9"><a xlink:title=" ">
<polygon fill="white" stroke="#bfbfbf" points="1876.5,-0.5 1876.5,-19.5 1920.5,-19.5 1920.5,-0.5 1876.5,-0.5"/>
<text text-anchor="middle" x="1898.5" y="-7.5" font-family="Helvetica,sans-Serif" font-size="10.00">string</text>
</a>
</g>
</g>
<!-- Node7&#45;&gt;Node9 -->
<g id="edge12" class="edge">
<title>Node7&#45;&gt;Node9</title>
<path fill="none" stroke="midnightblue" d="M1767.65,-174.74C1951.88,-169.39 2376.23,-154.65 2397.5,-132 2403.58,-125.52 2403.11,-118.9 2397.5,-112 2367.54,-75.16 2036.33,-29.01 1930.68,-15.13"/>
<polygon fill="midnightblue" stroke="midnightblue" points="1930.99,-11.64 1920.62,-13.82 1930.08,-18.58 1930.99,-11.64"/>
</g>
<!-- Node11 -->
<g id="node11" class="node">
<title>Node11</title>
<g id="a_node11"><a xlink:title=" ">
<polygon fill="white" stroke="#bfbfbf" points="1651,-112.5 1651,-131.5 1716,-131.5 1716,-112.5 1651,-112.5"/>
<text text-anchor="middle" x="1683.5" y="-119.5" font-family="Helvetica,sans-Serif" font-size="10.00">exception</text>
</a>
</g>
</g>
<!-- Node7&#45;&gt;Node11 -->
<g id="edge11" class="edge">
<title>Node7&#45;&gt;Node11</title>
<path fill="none" stroke="midnightblue" d="M1683.5,-168.08C1683.5,-161.01 1683.5,-150.86 1683.5,-141.99"/>
<polygon fill="midnightblue" stroke="midnightblue" points="1687,-141.75 1683.5,-131.75 1680,-141.75 1687,-141.75"/>
</g>
<!-- Node12 -->
<g id="node12" class="node">
<title>Node12</title>
<g id="a_node12"><a xlink:href="../../d7/d7a/configexception_8hpp.html" target="_top" xlink:title=" ">
<polygon fill="white" stroke="black" points="2140,-112.5 2140,-131.5 2255,-131.5 2255,-112.5 2140,-112.5"/>
<text text-anchor="middle" x="2197.5" y="-119.5" font-family="Helvetica,sans-Serif" font-size="10.00">configexception.hpp</text>
</a>
</g>
</g>
<!-- Node7&#45;&gt;Node12 -->
<g id="edge13" class="edge">
<title>Node7&#45;&gt;Node12</title>
<path fill="none" stroke="midnightblue" d="M1767.71,-168.81C1856.15,-160.43 1999.07,-146.61 2122.5,-132 2124.87,-131.72 2127.29,-131.42 2129.74,-131.12"/>
<polygon fill="midnightblue" stroke="midnightblue" points="2130.45,-134.56 2139.93,-129.83 2129.57,-127.62 2130.45,-134.56"/>
</g>
<!-- Node15 -->
<g id="node15" class="node">
<title>Node15</title>
<g id="a_node15"><a xlink:href="../../d8/db0/coreexception_8hpp.html" target="_top" xlink:title="Exception class for Core related errors.">
<polygon fill="white" stroke="black" points="1017,-112.5 1017,-131.5 1124,-131.5 1124,-112.5 1017,-112.5"/>
<text text-anchor="middle" x="1070.5" y="-119.5" font-family="Helvetica,sans-Serif" font-size="10.00">coreexception.hpp</text>
</a>
</g>
</g>
<!-- Node7&#45;&gt;Node15 -->
<g id="edge19" class="edge">
<title>Node7&#45;&gt;Node15</title>
<path fill="none" stroke="midnightblue" d="M1599.41,-169.62C1593.34,-169.06 1587.32,-168.51 1581.5,-168 1381.91,-150.48 1328.76,-154.28 1130.35,-132.62"/>
<polygon fill="midnightblue" stroke="midnightblue" points="1130.49,-129.12 1120.17,-131.51 1129.73,-136.08 1130.49,-129.12"/>
</g>
<!-- Node16 -->
<g id="node16" class="node">
<title>Node16</title>
<g id="a_node16"><a xlink:href="../../d8/d77/deviceexception_8hpp.html" target="_top" xlink:title="Exception class for Device related errors.">
<polygon fill="white" stroke="black" points="1142.5,-112.5 1142.5,-131.5 1260.5,-131.5 1260.5,-112.5 1142.5,-112.5"/>
<text text-anchor="middle" x="1201.5" y="-119.5" font-family="Helvetica,sans-Serif" font-size="10.00">deviceexception.hpp</text>
</a>
</g>
</g>
<!-- Node7&#45;&gt;Node16 -->
<g id="edge22" class="edge">
<title>Node7&#45;&gt;Node16</title>
<path fill="none" stroke="midnightblue" d="M1599.33,-169.12C1516.1,-160.77 1385.08,-146.9 1266.53,-132.72"/>
<polygon fill="midnightblue" stroke="midnightblue" points="1266.91,-129.24 1256.56,-131.52 1266.07,-136.19 1266.91,-129.24"/>
</g>
<!-- Node17 -->
<g id="node17" class="node">
<title>Node17</title>
<g id="a_node17"><a xlink:href="../../db/d35/dynlibexception_8hpp.html" target="_top" xlink:title="Exception class for DynLib related errors.">
<polygon fill="white" stroke="black" points="1278.5,-112.5 1278.5,-131.5 1394.5,-131.5 1394.5,-112.5 1278.5,-112.5"/>
<text text-anchor="middle" x="1336.5" y="-119.5" font-family="Helvetica,sans-Serif" font-size="10.00">dynlibexception.hpp</text>
</a>
</g>
</g>
<!-- Node7&#45;&gt;Node17 -->
<g id="edge25" class="edge">
<title>Node7&#45;&gt;Node17</title>
<path fill="none" stroke="midnightblue" d="M1623.43,-168.44C1559.65,-158.85 1459.59,-143.29 1396.02,-133.1"/>
<polygon fill="midnightblue" stroke="midnightblue" points="1396.57,-129.65 1386.15,-131.52 1395.46,-136.56 1396.57,-129.65"/>
</g>
<!-- Node18 -->
<g id="node18" class="node">
<title>Node18</title>
<g id="a_node18"><a xlink:href="../../d0/d4e/fsexception_8hpp.html" target="_top" xlink:title="Exception class for filesystem related errors.">
<polygon fill="white" stroke="black" points="1413,-112.5 1413,-131.5 1508,-131.5 1508,-112.5 1413,-112.5"/>
<text text-anchor="middle" x="1460.5" y="-119.5" font-family="Helvetica,sans-Serif" font-size="10.00">fsexception.hpp</text>
</a>
</g>
</g>
<!-- Node7&#45;&gt;Node18 -->
<g id="edge28" class="edge">
<title>Node7&#45;&gt;Node18</title>
<path fill="none" stroke="midnightblue" d="M1643.08,-168.44C1602.54,-159.12 1540.69,-144.18 1500.35,-134"/>
<polygon fill="midnightblue" stroke="midnightblue" points="1501.14,-130.59 1490.59,-131.52 1499.42,-137.37 1501.14,-130.59"/>
</g>
<!-- Node19 -->
<g id="node19" class="node">
<title>Node19</title>
<g id="a_node19"><a xlink:href="../../d1/d8e/gpioexception_8hpp.html" target="_top" xlink:title="Exception class for Gpio related errors.">
<polygon fill="white" stroke="black" points="1526,-112.5 1526,-131.5 1633,-131.5 1633,-112.5 1526,-112.5"/>
<text text-anchor="middle" x="1579.5" y="-119.5" font-family="Helvetica,sans-Serif" font-size="10.00">gpioexception.hpp</text>
</a>
</g>
</g>
<!-- Node7&#45;&gt;Node19 -->
<g id="edge31" class="edge">
<title>Node7&#45;&gt;Node19</title>
<path fill="none" stroke="midnightblue" d="M1661.93,-168.44C1643.63,-159.91 1617.84,-146.67 1599.89,-136.68"/>
<polygon fill="midnightblue" stroke="midnightblue" points="1601.24,-133.42 1590.82,-131.52 1597.78,-139.51 1601.24,-133.42"/>
</g>
<!-- Node20 -->
<g id="node20" class="node">
<title>Node20</title>
<g id="a_node20"><a xlink:href="../../d7/d8c/moduleexception_8hpp.html" target="_top" xlink:title="Exception class for modules.">
<polygon fill="white" stroke="black" points="1868.5,-112.5 1868.5,-131.5 1990.5,-131.5 1990.5,-112.5 1868.5,-112.5"/>
<text text-anchor="middle" x="1929.5" y="-119.5" font-family="Helvetica,sans-Serif" font-size="10.00">moduleexception.hpp</text>
</a>
</g>
</g>
<!-- Node7&#45;&gt;Node20 -->
<g id="edge34" class="edge">
<title>Node7&#45;&gt;Node20</title>
<path fill="none" stroke="midnightblue" d="M1717.39,-168.44C1758.32,-159 1827.44,-143.8 1875.67,-133.61"/>
<polygon fill="midnightblue" stroke="midnightblue" points="1876.56,-137 1885.62,-131.52 1875.12,-130.15 1876.56,-137"/>
</g>
<!-- Node21 -->
<g id="node21" class="node">
<title>Node21</title>
<g id="a_node21"><a xlink:href="../../df/d8d/scriptexception_8hpp.html" target="_top" xlink:title="Exception class for Script related errors.">
<polygon fill="white" stroke="black" points="2009,-112.5 2009,-131.5 2122,-131.5 2122,-112.5 2009,-112.5"/>
<text text-anchor="middle" x="2065.5" y="-119.5" font-family="Helvetica,sans-Serif" font-size="10.00">scriptexception.hpp</text>
</a>
</g>
</g>
<!-- Node7&#45;&gt;Node21 -->
<g id="edge37" class="edge">
<title>Node7&#45;&gt;Node21</title>
<path fill="none" stroke="midnightblue" d="M1738.94,-168.44C1807.77,-158.4 1924.89,-141.84 1998.62,-131.73"/>
<polygon fill="midnightblue" stroke="midnightblue" points="1999.29,-135.17 2008.73,-130.35 1998.35,-128.23 1999.29,-135.17"/>
</g>
<!-- Node22 -->
<g id="node22" class="node">
<title>Node22</title>
<g id="a_node22"><a xlink:href="../../dc/dce/signalexception_8hpp.html" target="_top" xlink:title="Exception class for Signal related errors.">
<polygon fill="white" stroke="black" points="2273,-112.5 2273,-131.5 2388,-131.5 2388,-112.5 2273,-112.5"/>
<text text-anchor="middle" x="2330.5" y="-119.5" font-family="Helvetica,sans-Serif" font-size="10.00">signalexception.hpp</text>
</a>
</g>
</g>
<!-- Node7&#45;&gt;Node22 -->
<g id="edge40" class="edge">
<title>Node7&#45;&gt;Node22</title>
<path fill="none" stroke="midnightblue" d="M1767.95,-171.61C1879.68,-164.44 2082.47,-150.48 2255.5,-132 2257.88,-131.75 2260.3,-131.47 2262.75,-131.19"/>
<polygon fill="midnightblue" stroke="midnightblue" points="2263.44,-134.63 2272.94,-129.96 2262.6,-127.68 2263.44,-134.63"/>
</g>
<!-- Node8&#45;&gt;Node9 -->
<g id="edge8" class="edge">
<title>Node8&#45;&gt;Node9</title>
<path fill="none" stroke="midnightblue" d="M1800.82,-112.37C1818.54,-93.97 1860.27,-50.67 1883.03,-27.05"/>
<polygon fill="midnightblue" stroke="midnightblue" points="1885.8,-29.22 1890.22,-19.59 1880.76,-24.36 1885.8,-29.22"/>
</g>
<!-- Node10 -->
<g id="node10" class="node">
<title>Node10</title>
<g id="a_node10"><a xlink:title=" ">
<polygon fill="white" stroke="#bfbfbf" points="1769,-56.5 1769,-75.5 1816,-75.5 1816,-56.5 1769,-56.5"/>
<text text-anchor="middle" x="1792.5" y="-63.5" font-family="Helvetica,sans-Serif" font-size="10.00">vector</text>
</a>
</g>
</g>
<!-- Node8&#45;&gt;Node10 -->
<g id="edge9" class="edge">
<title>Node8&#45;&gt;Node10</title>
<path fill="none" stroke="midnightblue" d="M1792.5,-112.08C1792.5,-105.01 1792.5,-94.86 1792.5,-85.99"/>
<polygon fill="midnightblue" stroke="midnightblue" points="1796,-85.75 1792.5,-75.75 1789,-85.75 1796,-85.75"/>
</g>
<!-- Node12&#45;&gt;Node7 -->
<g id="edge14" class="edge">
<title>Node12&#45;&gt;Node7</title>
<path fill="none" stroke="midnightblue" d="M2144.33,-131.54C2143.04,-131.7 2141.76,-131.85 2140.5,-132 2015.55,-146.79 1870.61,-160.77 1777.98,-169.11"/>
<polygon fill="midnightblue" stroke="midnightblue" points="1777.44,-165.65 1767.79,-170.03 1778.06,-172.62 1777.44,-165.65"/>
</g>
<!-- Node12&#45;&gt;Node9 -->
<g id="edge18" class="edge">
<title>Node12&#45;&gt;Node9</title>
<path fill="none" stroke="midnightblue" d="M2174.04,-112.37C2120.7,-92.75 1990.31,-44.78 1930.02,-22.6"/>
<polygon fill="midnightblue" stroke="midnightblue" points="1931.22,-19.31 1920.63,-19.14 1928.81,-25.88 1931.22,-19.31"/>
</g>
<!-- Node13 -->
<g id="node13" class="node">
<title>Node13</title>
<g id="a_node13"><a xlink:href="../../dd/d35/Colorize_8hpp.html" target="_top" xlink:title=" ">
<polygon fill="white" stroke="black" points="2322.5,-56.5 2322.5,-75.5 2426.5,-75.5 2426.5,-56.5 2322.5,-56.5"/>
<text text-anchor="middle" x="2374.5" y="-63.5" font-family="Helvetica,sans-Serif" font-size="10.00">tools/Colorize.hpp</text>
</a>
</g>
</g>
<!-- Node12&#45;&gt;Node13 -->
<g id="edge15" class="edge">
<title>Node12&#45;&gt;Node13</title>
<path fill="none" stroke="midnightblue" d="M2225.55,-112.44C2255.58,-103.28 2303.41,-88.69 2336.74,-78.52"/>
<polygon fill="midnightblue" stroke="midnightblue" points="2338.04,-81.78 2346.59,-75.52 2336,-75.09 2338.04,-81.78"/>
</g>
<!-- Node13&#45;&gt;Node9 -->
<g id="edge17" class="edge">
<title>Node13&#45;&gt;Node9</title>
<path fill="none" stroke="midnightblue" d="M2322.28,-57.75C2317.62,-57.14 2312.98,-56.55 2308.5,-56 2168.18,-38.73 2000.43,-21.33 1931.02,-14.28"/>
<polygon fill="midnightblue" stroke="midnightblue" points="1931.05,-10.76 1920.75,-13.23 1930.34,-17.73 1931.05,-10.76"/>
</g>
<!-- Node14 -->
<g id="node14" class="node">
<title>Node14</title>
<g id="a_node14"><a xlink:title=" ">
<polygon fill="white" stroke="#bfbfbf" points="2479.5,-0.5 2479.5,-19.5 2535.5,-19.5 2535.5,-0.5 2479.5,-0.5"/>
<text text-anchor="middle" x="2507.5" y="-7.5" font-family="Helvetica,sans-Serif" font-size="10.00">sstream</text>
</a>
</g>
</g>
<!-- Node13&#45;&gt;Node14 -->
<g id="edge16" class="edge">
<title>Node13&#45;&gt;Node14</title>
<path fill="none" stroke="midnightblue" d="M2395.57,-56.44C2417.56,-47.52 2452.23,-33.44 2477.16,-23.32"/>
<polygon fill="midnightblue" stroke="midnightblue" points="2478.58,-26.52 2486.52,-19.52 2475.94,-20.04 2478.58,-26.52"/>
</g>
<!-- Node15&#45;&gt;Node7 -->
<g id="edge21" class="edge">
<title>Node15&#45;&gt;Node7</title>
<path fill="none" stroke="midnightblue" d="M1124.11,-129.74C1130.34,-130.56 1136.57,-131.34 1142.5,-132 1341.64,-154.05 1394.79,-150.32 1594.64,-167.58"/>
<polygon fill="midnightblue" stroke="midnightblue" points="1594.62,-171.1 1604.88,-168.48 1595.23,-164.12 1594.62,-171.1"/>
</g>
<!-- Node15&#45;&gt;Node9 -->
<g id="edge20" class="edge">
<title>Node15&#45;&gt;Node9</title>
<path fill="none" stroke="midnightblue" d="M1109,-112.5C1172.39,-98.78 1302.85,-71.7 1414.5,-56 1583.7,-32.2 1788.02,-17.9 1866.07,-12.96"/>
<polygon fill="midnightblue" stroke="midnightblue" points="1866.46,-16.44 1876.22,-12.32 1866.02,-9.45 1866.46,-16.44"/>
</g>
<!-- Node16&#45;&gt;Node7 -->
<g id="edge24" class="edge">
<title>Node16&#45;&gt;Node7</title>
<path fill="none" stroke="midnightblue" d="M1260.55,-129.77C1266.64,-130.54 1272.71,-131.3 1278.5,-132 1388.23,-145.22 1514.54,-158.7 1596.58,-167.41"/>
<polygon fill="midnightblue" stroke="midnightblue" points="1596.3,-170.9 1606.61,-168.48 1597.04,-163.94 1596.3,-170.9"/>
</g>
<!-- Node16&#45;&gt;Node9 -->
<g id="edge23" class="edge">
<title>Node16&#45;&gt;Node9</title>
<path fill="none" stroke="midnightblue" d="M1239.24,-112.43C1299.49,-98.98 1421.27,-72.72 1525.5,-56 1650.87,-35.89 1801.25,-20.35 1866.11,-14.05"/>
<polygon fill="midnightblue" stroke="midnightblue" points="1866.51,-17.53 1876.13,-13.08 1865.84,-10.56 1866.51,-17.53"/>
</g>
<!-- Node17&#45;&gt;Node7 -->
<g id="edge27" class="edge">
<title>Node17&#45;&gt;Node7</title>
<path fill="none" stroke="midnightblue" d="M1394.54,-131.25C1458.09,-140.8 1559.35,-156.54 1623.62,-166.84"/>
<polygon fill="midnightblue" stroke="midnightblue" points="1623.18,-170.31 1633.61,-168.44 1624.29,-163.4 1623.18,-170.31"/>
</g>
<!-- Node17&#45;&gt;Node9 -->
<g id="edge26" class="edge">
<title>Node17&#45;&gt;Node9</title>
<path fill="none" stroke="midnightblue" d="M1371.38,-112.43C1425.41,-99.3 1532.68,-73.89 1624.5,-56 1711.53,-39.05 1814.93,-23.23 1866.26,-15.66"/>
<polygon fill="midnightblue" stroke="midnightblue" points="1867.01,-19.09 1876.4,-14.18 1866,-12.16 1867.01,-19.09"/>
</g>
<!-- Node18&#45;&gt;Node7 -->
<g id="edge30" class="edge">
<title>Node18&#45;&gt;Node7</title>
<path fill="none" stroke="midnightblue" d="M1500.75,-131.52C1541.23,-140.82 1603.08,-155.76 1643.47,-165.96"/>
<polygon fill="midnightblue" stroke="midnightblue" points="1642.7,-169.37 1653.25,-168.44 1644.42,-162.59 1642.7,-169.37"/>
</g>
<!-- Node18&#45;&gt;Node9 -->
<g id="edge29" class="edge">
<title>Node18&#45;&gt;Node9</title>
<path fill="none" stroke="midnightblue" d="M1490.84,-112.41C1536.43,-99.6 1625.39,-74.95 1701.5,-56 1759.35,-41.6 1827.19,-26.49 1866.28,-17.96"/>
<polygon fill="midnightblue" stroke="midnightblue" points="1867.25,-21.33 1876.28,-15.78 1865.76,-14.49 1867.25,-21.33"/>
</g>
<!-- Node19&#45;&gt;Node7 -->
<g id="edge32" class="edge">
<title>Node19&#45;&gt;Node7</title>
<path fill="none" stroke="midnightblue" d="M1601.28,-131.65C1619.48,-140.15 1644.98,-153.24 1662.86,-163.18"/>
<polygon fill="midnightblue" stroke="midnightblue" points="1661.48,-166.42 1671.91,-168.32 1664.94,-160.34 1661.48,-166.42"/>
</g>
<!-- Node19&#45;&gt;Node9 -->
<g id="edge33" class="edge">
<title>Node19&#45;&gt;Node9</title>
<path fill="none" stroke="midnightblue" d="M1602.43,-112.44C1636.55,-99.77 1702.76,-75.42 1759.5,-56 1796.05,-43.49 1838.31,-29.94 1866.54,-21.01"/>
<polygon fill="midnightblue" stroke="midnightblue" points="1867.79,-24.29 1876.28,-17.94 1865.69,-17.61 1867.79,-24.29"/>
</g>
<!-- Node20&#45;&gt;Node7 -->
<g id="edge36" class="edge">
<title>Node20&#45;&gt;Node7</title>
<path fill="none" stroke="midnightblue" d="M1895.78,-131.52C1854.93,-140.94 1785.82,-156.14 1737.54,-166.35"/>
<polygon fill="midnightblue" stroke="midnightblue" points="1736.63,-162.96 1727.57,-168.44 1738.07,-169.81 1736.63,-162.96"/>
</g>
<!-- Node20&#45;&gt;Node9 -->
<g id="edge35" class="edge">
<title>Node20&#45;&gt;Node9</title>
<path fill="none" stroke="midnightblue" d="M1927.07,-112.37C1922.04,-94.54 1910.42,-53.3 1903.65,-29.27"/>
<polygon fill="midnightblue" stroke="midnightblue" points="1907,-28.27 1900.92,-19.59 1900.27,-30.17 1907,-28.27"/>
</g>
<!-- Node21&#45;&gt;Node7 -->
<g id="edge39" class="edge">
<title>Node21&#45;&gt;Node7</title>
<path fill="none" stroke="midnightblue" d="M2010.33,-131.52C1944.26,-141.16 1833.39,-156.84 1759.32,-167.04"/>
<polygon fill="midnightblue" stroke="midnightblue" points="1758.55,-163.61 1749.12,-168.44 1759.5,-170.55 1758.55,-163.61"/>
</g>
<!-- Node21&#45;&gt;Node9 -->
<g id="edge38" class="edge">
<title>Node21&#45;&gt;Node9</title>
<path fill="none" stroke="midnightblue" d="M2052.4,-112.37C2023.74,-93.49 1955.26,-48.38 1920.11,-25.24"/>
<polygon fill="midnightblue" stroke="midnightblue" points="1921.82,-22.17 1911.54,-19.59 1917.97,-28.02 1921.82,-22.17"/>
</g>
<!-- Node22&#45;&gt;Node7 -->
<g id="edge42" class="edge">
<title>Node22&#45;&gt;Node7</title>
<path fill="none" stroke="midnightblue" d="M2278.03,-131.5C2276.51,-131.67 2274.99,-131.84 2273.5,-132 2099.19,-150.62 1894.68,-164.65 1777.91,-171.77"/>
<polygon fill="midnightblue" stroke="midnightblue" points="1777.35,-168.3 1767.58,-172.4 1777.77,-175.29 1777.35,-168.3"/>
</g>
<!-- Node22&#45;&gt;Node9 -->
<g id="edge41" class="edge">
<title>Node22&#45;&gt;Node9</title>
<path fill="none" stroke="midnightblue" d="M2296.96,-112.46C2215.85,-91.81 2009.94,-39.38 1930.47,-19.14"/>
<polygon fill="midnightblue" stroke="midnightblue" points="1931.11,-15.69 1920.55,-16.62 1929.38,-22.47 1931.11,-15.69"/>
</g>
<!-- Node23&#45;&gt;Node9 -->
<g id="edge49" class="edge">
<title>Node23&#45;&gt;Node9</title>
<path fill="none" stroke="midnightblue" d="M489.39,-168.5C508.16,-159.54 538.49,-144.96 564.5,-132 581.94,-123.31 584.76,-117.33 603.5,-112 851.54,-41.42 1690.01,-16.34 1865.95,-11.79"/>
<polygon fill="midnightblue" stroke="midnightblue" points="1866.21,-15.29 1876.12,-11.53 1866.03,-8.29 1866.21,-15.29"/>
</g>
<!-- Node23&#45;&gt;Node24 -->
<g id="edge44" class="edge">
<title>Node23&#45;&gt;Node24</title>
<path fill="none" stroke="midnightblue" d="M503.82,-168.44C538.89,-159.16 595,-144.31 633.46,-134.13"/>
<polygon fill="midnightblue" stroke="midnightblue" points="634.56,-137.46 643.33,-131.52 632.76,-130.69 634.56,-137.46"/>
</g>
<!-- Node25 -->
<g id="node25" class="node">
<title>Node25</title>
<g id="a_node25"><a xlink:title=" ">
<polygon fill="white" stroke="#bfbfbf" points="230,-112.5 230,-131.5 411,-131.5 411,-112.5 230,-112.5"/>
<text text-anchor="middle" x="320.5" y="-119.5" font-family="Helvetica,sans-Serif" font-size="10.00">boost/uuid/random_generator.hpp</text>
</a>
</g>
</g>
<!-- Node23&#45;&gt;Node25 -->
<g id="edge45" class="edge">
<title>Node23&#45;&gt;Node25</title>
<path fill="none" stroke="midnightblue" d="M447.57,-168.44C422.28,-159.4 382.2,-145.06 353.82,-134.92"/>
<polygon fill="midnightblue" stroke="midnightblue" points="354.91,-131.59 344.31,-131.52 352.55,-138.18 354.91,-131.59"/>
</g>
<!-- Node26 -->
<g id="node26" class="node">
<title>Node26</title>
<g id="a_node26"><a xlink:title=" ">
<polygon fill="white" stroke="#bfbfbf" points="0,-112.5 0,-131.5 113,-131.5 113,-112.5 0,-112.5"/>
<text text-anchor="middle" x="56.5" y="-119.5" font-family="Helvetica,sans-Serif" font-size="10.00">boost/uuid/uuid.hpp</text>
</a>
</g>
</g>
<!-- Node23&#45;&gt;Node26 -->
<g id="edge46" class="edge">
<title>Node23&#45;&gt;Node26</title>
<path fill="none" stroke="midnightblue" d="M427.96,-171.49C363.77,-163.34 239.7,-147.51 123.19,-132.08"/>
<polygon fill="midnightblue" stroke="midnightblue" points="123.4,-128.58 113.02,-130.74 122.48,-135.52 123.4,-128.58"/>
</g>
<!-- Node27 -->
<g id="node27" class="node">
<title>Node27</title>
<g id="a_node27"><a xlink:title=" ">
<polygon fill="white" stroke="#bfbfbf" points="429,-112.5 429,-131.5 556,-131.5 556,-112.5 429,-112.5"/>
<text text-anchor="middle" x="492.5" y="-119.5" font-family="Helvetica,sans-Serif" font-size="10.00">boost/uuid/uuid_io.hpp</text>
</a>
</g>
</g>
<!-- Node23&#45;&gt;Node27 -->
<g id="edge47" class="edge">
<title>Node23&#45;&gt;Node27</title>
<path fill="none" stroke="midnightblue" d="M474.97,-168.08C477.81,-160.77 481.93,-150.18 485.46,-141.1"/>
<polygon fill="midnightblue" stroke="midnightblue" points="488.73,-142.34 489.1,-131.75 482.21,-139.8 488.73,-142.34"/>
</g>
<!-- Node28 -->
<g id="node28" class="node">
<title>Node28</title>
<g id="a_node28"><a xlink:title=" ">
<polygon fill="white" stroke="#bfbfbf" points="131.5,-112.5 131.5,-131.5 211.5,-131.5 211.5,-112.5 131.5,-112.5"/>
<text text-anchor="middle" x="171.5" y="-119.5" font-family="Helvetica,sans-Serif" font-size="10.00">odb/core.hxx</text>
</a>
</g>
</g>
<!-- Node23&#45;&gt;Node28 -->
<g id="edge48" class="edge">
<title>Node23&#45;&gt;Node28</title>
<path fill="none" stroke="midnightblue" d="M427.96,-169.25C379.95,-160.7 300.13,-146.43 221.67,-132.21"/>
<polygon fill="midnightblue" stroke="midnightblue" points="222.07,-128.72 211.61,-130.38 220.82,-135.61 222.07,-128.72"/>
</g>
<!-- Node33 -->
<g id="node33" class="node">
<title>Node33</title>
<g id="a_node33"><a xlink:title=" ">
<polygon fill="white" stroke="#bfbfbf" points="1473.5,-168.5 1473.5,-187.5 1581.5,-187.5 1581.5,-168.5 1473.5,-168.5"/>
<text text-anchor="middle" x="1527.5" y="-175.5" font-family="Helvetica,sans-Serif" font-size="10.00">boost/signals2.hpp</text>
</a>
</g>
</g>
<!-- Node32&#45;&gt;Node33 -->
<g id="edge55" class="edge">
<title>Node32&#45;&gt;Node33</title>
<path fill="none" stroke="midnightblue" d="M1892.3,-227.75C1829.7,-219.74 1706.62,-203.85 1591.81,-188.17"/>
<polygon fill="midnightblue" stroke="midnightblue" points="1592.17,-184.68 1581.79,-186.8 1591.22,-191.62 1592.17,-184.68"/>
</g>
<!-- Node34&#45;&gt;Node9 -->
<g id="edge62" class="edge">
<title>Node34&#45;&gt;Node9</title>
<path fill="none" stroke="midnightblue" d="M2501.26,-168.36C2494.03,-159.53 2482.83,-145.27 2474.5,-132 2454.31,-99.85 2467.04,-77.13 2435.5,-56 2393.56,-27.91 2040.7,-15.2 1930.94,-11.9"/>
<polygon fill="midnightblue" stroke="midnightblue" points="1930.91,-8.4 1920.81,-11.6 1930.7,-15.4 1930.91,-8.4"/>
</g>
<!-- Node34&#45;&gt;Node14 -->
<g id="edge61" class="edge">
<title>Node34&#45;&gt;Node14</title>
<path fill="none" stroke="midnightblue" d="M2540.82,-168.5C2570.77,-159.89 2612.08,-145.89 2621.5,-132 2651.32,-88.03 2579.31,-44.73 2536.5,-23.87"/>
<polygon fill="midnightblue" stroke="midnightblue" points="2537.88,-20.65 2527.34,-19.54 2534.88,-26.98 2537.88,-20.65"/>
</g>
<!-- Node35 -->
<g id="node35" class="node">
<title>Node35</title>
<g id="a_node35"><a xlink:title=" ">
<polygon fill="white" stroke="#bfbfbf" points="2780.5,-112.5 2780.5,-131.5 2832.5,-131.5 2832.5,-112.5 2780.5,-112.5"/>
<text text-anchor="middle" x="2806.5" y="-119.5" font-family="Helvetica,sans-Serif" font-size="10.00">cassert</text>
</a>
</g>
</g>
<!-- Node34&#45;&gt;Node35 -->
<g id="edge57" class="edge">
<title>Node34&#45;&gt;Node35</title>
<path fill="none" stroke="midnightblue" d="M2548.6,-169.58C2551.61,-169.04 2554.6,-168.51 2557.5,-168 2649.33,-151.84 2675.44,-152 2770.17,-132.14"/>
<polygon fill="midnightblue" stroke="midnightblue" points="2771.12,-135.52 2780.18,-130.02 2769.68,-128.67 2771.12,-135.52"/>
</g>
<!-- Node36 -->
<g id="node36" class="node">
<title>Node36</title>
<g id="a_node36"><a xlink:title=" ">
<polygon fill="white" stroke="#bfbfbf" points="2483,-112.5 2483,-131.5 2534,-131.5 2534,-112.5 2483,-112.5"/>
<text text-anchor="middle" x="2508.5" y="-119.5" font-family="Helvetica,sans-Serif" font-size="10.00">csignal</text>
</a>
</g>
</g>
<!-- Node34&#45;&gt;Node36 -->
<g id="edge58" class="edge">
<title>Node34&#45;&gt;Node36</title>
<path fill="none" stroke="midnightblue" d="M2508.5,-168.08C2508.5,-161.01 2508.5,-150.86 2508.5,-141.99"/>
<polygon fill="midnightblue" stroke="midnightblue" points="2512,-141.75 2508.5,-131.75 2505,-141.75 2512,-141.75"/>
</g>
<!-- Node37 -->
<g id="node37" class="node">
<title>Node37</title>
<g id="a_node37"><a xlink:title=" ">
<polygon fill="white" stroke="#bfbfbf" points="2552.5,-112.5 2552.5,-131.5 2612.5,-131.5 2612.5,-112.5 2552.5,-112.5"/>
<text text-anchor="middle" x="2582.5" y="-119.5" font-family="Helvetica,sans-Serif" font-size="10.00">iostream</text>
</a>
</g>
</g>
<!-- Node34&#45;&gt;Node37 -->
<g id="edge59" class="edge">
<title>Node34&#45;&gt;Node37</title>
<path fill="none" stroke="midnightblue" d="M2520.39,-168.32C2531.65,-160.11 2548.79,-147.6 2562.21,-137.81"/>
<polygon fill="midnightblue" stroke="midnightblue" points="2564.38,-140.56 2570.39,-131.83 2560.25,-134.9 2564.38,-140.56"/>
</g>
<!-- Node38 -->
<g id="node38" class="node">
<title>Node38</title>
<g id="a_node38"><a xlink:title=" ">
<polygon fill="white" stroke="#bfbfbf" points="2669,-112.5 2669,-131.5 2762,-131.5 2762,-112.5 2669,-112.5"/>
<text text-anchor="middle" x="2715.5" y="-119.5" font-family="Helvetica,sans-Serif" font-size="10.00">spdlog/spdlog.h</text>
</a>
</g>
</g>
<!-- Node34&#45;&gt;Node38 -->
<g id="edge60" class="edge">
<title>Node34&#45;&gt;Node38</title>
<path fill="none" stroke="midnightblue" d="M2541.3,-168.44C2576.88,-159.16 2633.81,-144.31 2672.85,-134.13"/>
<polygon fill="midnightblue" stroke="midnightblue" points="2674.06,-137.43 2682.85,-131.52 2672.29,-130.65 2674.06,-137.43"/>
</g>
<!-- Node39&#45;&gt;Node7 -->
<g id="edge64" class="edge">
<title>Node39&#45;&gt;Node7</title>
<path fill="none" stroke="midnightblue" d="M2436.37,-228.28C2287.16,-218.51 1944.65,-196.09 1778.02,-185.19"/>
<polygon fill="midnightblue" stroke="midnightblue" points="1777.99,-181.68 1767.78,-184.52 1777.53,-188.66 1777.99,-181.68"/>
</g>
<!-- Node39&#45;&gt;Node34 -->
<g id="edge65" class="edge">
<title>Node39&#45;&gt;Node34</title>
<path fill="none" stroke="midnightblue" d="M2508.5,-224.08C2508.5,-217.01 2508.5,-206.86 2508.5,-197.99"/>
<polygon fill="midnightblue" stroke="midnightblue" points="2512,-197.75 2508.5,-187.75 2505,-197.75 2512,-197.75"/>
</g>
<!-- Node40 -->
<g id="node40" class="node">
<title>Node40</title>
<g id="a_node40"><a xlink:title=" ">
<polygon fill="white" stroke="#bfbfbf" points="2622.5,-168.5 2622.5,-187.5 2706.5,-187.5 2706.5,-168.5 2622.5,-168.5"/>
<text text-anchor="middle" x="2664.5" y="-175.5" font-family="Helvetica,sans-Serif" font-size="10.00">boost/any.hpp</text>
</a>
</g>
</g>
<!-- Node39&#45;&gt;Node40 -->
<g id="edge66" class="edge">
<title>Node39&#45;&gt;Node40</title>
<path fill="none" stroke="midnightblue" d="M2533.22,-224.44C2559.35,-215.4 2600.76,-201.06 2630.08,-190.92"/>
<polygon fill="midnightblue" stroke="midnightblue" points="2631.59,-194.1 2639.9,-187.52 2629.3,-187.48 2631.59,-194.1"/>
</g>
<!-- Node41 -->
<g id="node41" class="node">
<title>Node41</title>
<g id="a_node41"><a xlink:title=" ">
<polygon fill="white" stroke="#bfbfbf" points="2566.5,-168.5 2566.5,-187.5 2604.5,-187.5 2604.5,-168.5 2566.5,-168.5"/>
<text text-anchor="middle" x="2585.5" y="-175.5" font-family="Helvetica,sans-Serif" font-size="10.00">map</text>
</a>
</g>
</g>
<!-- Node39&#45;&gt;Node41 -->
<g id="edge67" class="edge">
<title>Node39&#45;&gt;Node41</title>
<path fill="none" stroke="midnightblue" d="M2520.87,-224.32C2532.66,-216.06 2550.63,-203.45 2564.64,-193.63"/>
<polygon fill="midnightblue" stroke="midnightblue" points="2566.98,-196.26 2573.16,-187.65 2562.96,-190.53 2566.98,-196.26"/>
</g>
</g>
</svg>
        <g id="navigator" transform="translate(0 0)" fill="#404254">
                <rect fill="#f2f5e9" fill-opacity="0.5" stroke="#606060" stroke-width=".5" x="0" y="0" width="60" height="60"/>
                <use id="zoomplus" xlink:href="#zoomPlus" x="17" y="9" onmousedown="handleZoom(evt,'in')"/>
                <use id="zoomminus" xlink:href="#zoomMin" x="42" y="9" onmousedown="handleZoom(evt,'out')"/>
                <use id="reset" xlink:href="#resetDef" x="30" y="36" onmousedown="handleReset()"/>
                <g id="arrowUp" xlink:href="#dirArrow" transform="translate(30 24)" onmousedown="handlePan(0,-1)">
                  <use xlink:href="#rim" fill="#404040">
                        <set attributeName="fill" to="#808080" begin="arrowUp.mouseover" end="arrowUp.mouseout"/>
                  </use>
                  <path fill="none" stroke="white" stroke-width="1.5" d="M0,-3.0v7 M-2.5,-0.5L0,-3.0L2.5,-0.5"/>
                </g>
                <g id="arrowRight" xlink:href="#dirArrow" transform="rotate(90) translate(36 -43)" onmousedown="handlePan(1,0)">
                  <use xlink:href="#rim" fill="#404040">
                        <set attributeName="fill" to="#808080" begin="arrowRight.mouseover" end="arrowRight.mouseout"/>
                  </use>
                  <path fill="none" stroke="white" stroke-width="1.5" d="M0,-3.0v7 M-2.5,-0.5L0,-3.0L2.5,-0.5"/>
                </g>
                <g id="arrowDown" xlink:href="#dirArrow" transform="rotate(180) translate(-30 -48)" onmousedown="handlePan(0,1)">
                  <use xlink:href="#rim" fill="#404040">
                        <set attributeName="fill" to="#808080" begin="arrowDown.mouseover" end="arrowDown.mouseout"/>
                  </use>
                  <path fill="none" stroke="white" stroke-width="1.5" d="M0,-3.0v7 M-2.5,-0.5L0,-3.0L2.5,-0.5"/>
                </g>
                <g id="arrowLeft" xlink:href="#dirArrow" transform="rotate(270) translate(-36 17)" onmousedown="handlePan(-1,0)">
                  <use xlink:href="#rim" fill="#404040">
                        <set attributeName="fill" to="#808080" begin="arrowLeft.mouseover" end="arrowLeft.mouseout"/>
                  </use>
                  <path fill="none" stroke="white" stroke-width="1.5" d="M0,-3.0v7 M-2.5,-0.5L0,-3.0L2.5,-0.5"/>
                </g>
        </g>
        <svg viewBox="0 0 15 15" width="100%" height="30px" preserveAspectRatio="xMaxYMin meet">
         <g id="arrow_out" transform="scale(0.3 0.3)">
          <a xlink:href="ServiceRegistry_8hpp__incl_org.svg" target="_base">
           <rect id="button" ry="5" rx="5" y="6" x="6" height="38" width="38"
                fill="#f2f5e9" fill-opacity="0.5" stroke="#606060" stroke-width="1.0"/>
           <path id="arrow"
             d="M 11.500037,31.436501 C 11.940474,20.09759 22.043105,11.32322 32.158766,21.979434 L 37.068811,17.246167 C 37.068811,17.246167 37.088388,32 37.088388,32 L 22.160133,31.978069 C 22.160133,31.978069 26.997745,27.140456 26.997745,27.140456 C 18.528582,18.264221 13.291696,25.230495 11.500037,31.436501 z"
             style="fill:#404040;"/>
          </a>
         </g>
        </svg>
</svg>
