<?xml version="1.0" encoding="UTF-8" standalone="no"?>
<!DOCTYPE svg PUBLIC "-//W3C//DTD SVG 1.1//EN"
 "http://www.w3.org/Graphics/SVG/1.1/DTD/svg11.dtd">
<!-- Generated by graphviz version 2.43.0 (0)
 -->
<!-- Title: src/tools/db/OptionalTransaction.hpp Pages: 1 -->
<svg width="1180pt" height="375pt"
 viewBox="0.00 0.00 1180.00 375.00" xmlns="http://www.w3.org/2000/svg" xmlns:xlink="http://www.w3.org/1999/xlink">
<g id="graph0" class="graph" transform="scale(1 1) rotate(0) translate(4 371)">
<title>src/tools/db/OptionalTransaction.hpp</title>
<polygon fill="white" stroke="transparent" points="-4,4 -4,-371 1176,-371 1176,4 -4,4"/>
<!-- Node1 -->
<g id="node1" class="node">
<title>Node1</title>
<g id="a_node1"><a xlink:title=" ">
<polygon fill="#bfbfbf" stroke="black" points="978,-347.5 978,-366.5 1172,-366.5 1172,-347.5 978,-347.5"/>
<text text-anchor="middle" x="1075" y="-354.5" font-family="Helvetica,sans-Serif" font-size="10.00">src/tools/db/OptionalTransaction.hpp</text>
</a>
</g>
</g>
<!-- Node2 -->
<g id="node2" class="node">
<title>Node2</title>
<g id="a_node2"><a xlink:href="../../df/da2/database_8hpp.html" target="_top" xlink:title=" ">
<polygon fill="white" stroke="black" points="864.5,-291.5 864.5,-310.5 947.5,-310.5 947.5,-291.5 864.5,-291.5"/>
<text text-anchor="middle" x="906" y="-298.5" font-family="Helvetica,sans-Serif" font-size="10.00">database.hpp</text>
</a>
</g>
</g>
<!-- Node1&#45;&gt;Node2 -->
<g id="edge1" class="edge">
<title>Node1&#45;&gt;Node2</title>
<path fill="none" stroke="midnightblue" d="M1048.22,-347.44C1019.67,-338.32 974.27,-323.81 942.46,-313.65"/>
<polygon fill="midnightblue" stroke="midnightblue" points="943.24,-310.23 932.65,-310.52 941.11,-316.89 943.24,-310.23"/>
</g>
<!-- Node3 -->
<g id="node3" class="node">
<title>Node3</title>
<g id="a_node3"><a xlink:href="../../d9/d69/db__fwd_8hpp.html" target="_top" xlink:title=" ">
<polygon fill="white" stroke="black" points="1014,-179.5 1014,-198.5 1086,-198.5 1086,-179.5 1014,-179.5"/>
<text text-anchor="middle" x="1050" y="-186.5" font-family="Helvetica,sans-Serif" font-size="10.00">db_fwd.hpp</text>
</a>
</g>
</g>
<!-- Node1&#45;&gt;Node3 -->
<g id="edge36" class="edge">
<title>Node1&#45;&gt;Node3</title>
<path fill="none" stroke="midnightblue" d="M1086.34,-347.3C1111.22,-327.15 1166.38,-275.86 1141,-235 1130.88,-218.7 1112.91,-208.13 1095.6,-201.36"/>
<polygon fill="midnightblue" stroke="midnightblue" points="1096.7,-198.04 1086.11,-197.98 1094.36,-204.63 1096.7,-198.04"/>
</g>
<!-- Node6 -->
<g id="node6" class="node">
<title>Node6</title>
<g id="a_node6"><a xlink:title=" ">
<polygon fill="white" stroke="#bfbfbf" points="1018.5,-235.5 1018.5,-254.5 1131.5,-254.5 1131.5,-235.5 1018.5,-235.5"/>
<text text-anchor="middle" x="1075" y="-242.5" font-family="Helvetica,sans-Serif" font-size="10.00">odb/transaction.hxx</text>
</a>
</g>
</g>
<!-- Node1&#45;&gt;Node6 -->
<g id="edge37" class="edge">
<title>Node1&#45;&gt;Node6</title>
<path fill="none" stroke="midnightblue" d="M1075,-347.37C1075,-329.62 1075,-288.67 1075,-264.6"/>
<polygon fill="midnightblue" stroke="midnightblue" points="1078.5,-264.59 1075,-254.59 1071.5,-264.59 1078.5,-264.59"/>
</g>
<!-- Node2&#45;&gt;Node3 -->
<g id="edge2" class="edge">
<title>Node2&#45;&gt;Node3</title>
<path fill="none" stroke="midnightblue" d="M919.17,-291.35C932.47,-282.51 953.48,-268.24 971,-255 992.52,-238.74 1016.31,-218.9 1032.11,-205.44"/>
<polygon fill="midnightblue" stroke="midnightblue" points="1034.67,-207.85 1039.99,-198.69 1030.12,-202.54 1034.67,-207.85"/>
</g>
<!-- Node5 -->
<g id="node5" class="node">
<title>Node5</title>
<g id="a_node5"><a xlink:title=" ">
<polygon fill="white" stroke="#bfbfbf" points="580,-235.5 580,-254.5 684,-254.5 684,-235.5 580,-235.5"/>
<text text-anchor="middle" x="632" y="-242.5" font-family="Helvetica,sans-Serif" font-size="10.00">odb/database.hxx</text>
</a>
</g>
</g>
<!-- Node2&#45;&gt;Node5 -->
<g id="edge4" class="edge">
<title>Node2&#45;&gt;Node5</title>
<path fill="none" stroke="midnightblue" d="M864.39,-291.8C816.53,-282.37 737.83,-266.86 685.47,-256.54"/>
<polygon fill="midnightblue" stroke="midnightblue" points="685.85,-253.05 675.37,-254.55 684.5,-259.91 685.85,-253.05"/>
</g>
<!-- Node2&#45;&gt;Node6 -->
<g id="edge5" class="edge">
<title>Node2&#45;&gt;Node6</title>
<path fill="none" stroke="midnightblue" d="M932.78,-291.44C961.33,-282.32 1006.73,-267.81 1038.54,-257.65"/>
<polygon fill="midnightblue" stroke="midnightblue" points="1039.89,-260.89 1048.35,-254.52 1037.76,-254.23 1039.89,-260.89"/>
</g>
<!-- Node7 -->
<g id="node7" class="node">
<title>Node7</title>
<g id="a_node7"><a xlink:href="../../d0/dee/DBService_8hpp.html" target="_top" xlink:title=" ">
<polygon fill="white" stroke="black" points="702,-235.5 702,-254.5 832,-254.5 832,-235.5 702,-235.5"/>
<text text-anchor="middle" x="767" y="-242.5" font-family="Helvetica,sans-Serif" font-size="10.00">tools/db/DBService.hpp</text>
</a>
</g>
</g>
<!-- Node2&#45;&gt;Node7 -->
<g id="edge6" class="edge">
<title>Node2&#45;&gt;Node7</title>
<path fill="none" stroke="midnightblue" d="M883.98,-291.44C860.9,-282.48 824.44,-268.31 798.36,-258.18"/>
<polygon fill="midnightblue" stroke="midnightblue" points="799.51,-254.88 788.92,-254.52 796.98,-261.4 799.51,-254.88"/>
</g>
<!-- Node22 -->
<g id="node22" class="node">
<title>Node22</title>
<g id="a_node22"><a xlink:title=" ">
<polygon fill="white" stroke="#bfbfbf" points="850,-235.5 850,-254.5 962,-254.5 962,-235.5 850,-235.5"/>
<text text-anchor="middle" x="906" y="-242.5" font-family="Helvetica,sans-Serif" font-size="10.00">odb/connection.hxx</text>
</a>
</g>
</g>
<!-- Node2&#45;&gt;Node22 -->
<g id="edge34" class="edge">
<title>Node2&#45;&gt;Node22</title>
<path fill="none" stroke="midnightblue" d="M906,-291.08C906,-284.01 906,-273.86 906,-264.99"/>
<polygon fill="midnightblue" stroke="midnightblue" points="909.5,-264.75 906,-254.75 902.5,-264.75 909.5,-264.75"/>
</g>
<!-- Node23 -->
<g id="node23" class="node">
<title>Node23</title>
<g id="a_node23"><a xlink:title=" ">
<polygon fill="white" stroke="#bfbfbf" points="424.5,-235.5 424.5,-254.5 561.5,-254.5 561.5,-235.5 424.5,-235.5"/>
<text text-anchor="middle" x="493" y="-242.5" font-family="Helvetica,sans-Serif" font-size="10.00">odb/schema&#45;catalog.hxx</text>
</a>
</g>
</g>
<!-- Node2&#45;&gt;Node23 -->
<g id="edge35" class="edge">
<title>Node2&#45;&gt;Node23</title>
<path fill="none" stroke="midnightblue" d="M864.13,-294.53C794.79,-285.46 655.18,-267.21 568.35,-255.85"/>
<polygon fill="midnightblue" stroke="midnightblue" points="568.66,-252.36 558.29,-254.54 567.76,-259.3 568.66,-252.36"/>
</g>
<!-- Node4 -->
<g id="node4" class="node">
<title>Node4</title>
<g id="a_node4"><a xlink:title=" ">
<polygon fill="white" stroke="#bfbfbf" points="813,-56.5 813,-75.5 871,-75.5 871,-56.5 813,-56.5"/>
<text text-anchor="middle" x="842" y="-63.5" font-family="Helvetica,sans-Serif" font-size="10.00">memory</text>
</a>
</g>
</g>
<!-- Node3&#45;&gt;Node4 -->
<g id="edge3" class="edge">
<title>Node3&#45;&gt;Node4</title>
<path fill="none" stroke="midnightblue" d="M1069.3,-179.48C1083.43,-172.08 1101.56,-159.89 1110,-143 1116.16,-130.68 1118.9,-122.52 1110,-112 1081.22,-77.98 949,-69.67 881.66,-67.64"/>
<polygon fill="midnightblue" stroke="midnightblue" points="881.52,-64.14 871.43,-67.37 881.34,-71.14 881.52,-64.14"/>
</g>
<!-- Node7&#45;&gt;Node3 -->
<g id="edge33" class="edge">
<title>Node7&#45;&gt;Node3</title>
<path fill="none" stroke="midnightblue" d="M811.84,-235.44C864.3,-225.43 950.7,-208.95 1003.75,-198.82"/>
<polygon fill="midnightblue" stroke="midnightblue" points="1004.73,-202.2 1013.9,-196.89 1003.42,-195.33 1004.73,-202.2"/>
</g>
<!-- Node8 -->
<g id="node8" class="node">
<title>Node8</title>
<g id="a_node8"><a xlink:href="../../d3/dd8/IAuditEntry_8hpp.html" target="_top" xlink:title=" ">
<polygon fill="white" stroke="black" points="400,-179.5 400,-198.5 542,-198.5 542,-179.5 400,-179.5"/>
<text text-anchor="middle" x="471" y="-186.5" font-family="Helvetica,sans-Serif" font-size="10.00">core/audit/IAuditEntry.hpp</text>
</a>
</g>
</g>
<!-- Node7&#45;&gt;Node8 -->
<g id="edge7" class="edge">
<title>Node7&#45;&gt;Node8</title>
<path fill="none" stroke="midnightblue" d="M720.1,-235.44C667.92,-225.92 583.63,-210.55 527.77,-200.36"/>
<polygon fill="midnightblue" stroke="midnightblue" points="528.15,-196.87 517.68,-198.52 526.89,-203.75 528.15,-196.87"/>
</g>
<!-- Node13 -->
<g id="node13" class="node">
<title>Node13</title>
<g id="a_node13"><a xlink:href="../../d3/d6f/AuthFwd_8hpp.html" target="_top" xlink:title=" ">
<polygon fill="white" stroke="black" points="467.5,-118 467.5,-137 596.5,-137 596.5,-118 467.5,-118"/>
<text text-anchor="middle" x="532" y="-125" font-family="Helvetica,sans-Serif" font-size="10.00">core/auth/AuthFwd.hpp</text>
</a>
</g>
</g>
<!-- Node7&#45;&gt;Node13 -->
<g id="edge23" class="edge">
<title>Node7&#45;&gt;Node13</title>
<path fill="none" stroke="midnightblue" d="M749.34,-235.32C708.49,-215.24 607.31,-165.51 558.79,-141.67"/>
<polygon fill="midnightblue" stroke="midnightblue" points="560.07,-138.39 549.55,-137.12 556.98,-144.68 560.07,-138.39"/>
</g>
<!-- Node19 -->
<g id="node19" class="node">
<title>Node19</title>
<g id="a_node19"><a xlink:href="../../d7/d7f/CredentialFwd_8hpp.html" target="_top" xlink:title=" ">
<polygon fill="white" stroke="black" points="953,-112.5 953,-142.5 1101,-142.5 1101,-112.5 953,-112.5"/>
<text text-anchor="start" x="961" y="-130.5" font-family="Helvetica,sans-Serif" font-size="10.00">core/credentials/Credential</text>
<text text-anchor="middle" x="1027" y="-119.5" font-family="Helvetica,sans-Serif" font-size="10.00">Fwd.hpp</text>
</a>
</g>
</g>
<!-- Node7&#45;&gt;Node19 -->
<g id="edge24" class="edge">
<title>Node7&#45;&gt;Node19</title>
<path fill="none" stroke="midnightblue" d="M786.54,-235.32C828.74,-216.57 929.16,-171.96 985.98,-146.72"/>
<polygon fill="midnightblue" stroke="midnightblue" points="987.66,-149.8 995.38,-142.55 984.82,-143.41 987.66,-149.8"/>
</g>
<!-- Node20 -->
<g id="node20" class="node">
<title>Node20</title>
<g id="a_node20"><a xlink:href="../../d2/d0e/UpdateFwd_8hpp.html" target="_top" xlink:title=" ">
<polygon fill="white" stroke="black" points="615,-118 615,-137 769,-137 769,-118 615,-118"/>
<text text-anchor="middle" x="692" y="-125" font-family="Helvetica,sans-Serif" font-size="10.00">core/update/UpdateFwd.hpp</text>
</a>
</g>
</g>
<!-- Node7&#45;&gt;Node20 -->
<g id="edge27" class="edge">
<title>Node7&#45;&gt;Node20</title>
<path fill="none" stroke="midnightblue" d="M761.36,-235.32C749.04,-216.34 719.5,-170.85 703.23,-145.79"/>
<polygon fill="midnightblue" stroke="midnightblue" points="706.08,-143.76 697.7,-137.28 700.21,-147.58 706.08,-143.76"/>
</g>
<!-- Node21 -->
<g id="node21" class="node">
<title>Node21</title>
<g id="a_node21"><a xlink:href="../../d8/d97/ToolsFwd_8hpp.html" target="_top" xlink:title=" ">
<polygon fill="white" stroke="black" points="787,-118 787,-137 897,-137 897,-118 787,-118"/>
<text text-anchor="middle" x="842" y="-125" font-family="Helvetica,sans-Serif" font-size="10.00">tools/ToolsFwd.hpp</text>
</a>
</g>
</g>
<!-- Node7&#45;&gt;Node21 -->
<g id="edge30" class="edge">
<title>Node7&#45;&gt;Node21</title>
<path fill="none" stroke="midnightblue" d="M772.64,-235.32C784.96,-216.34 814.5,-170.85 830.77,-145.79"/>
<polygon fill="midnightblue" stroke="midnightblue" points="833.79,-147.58 836.3,-137.28 827.92,-143.76 833.79,-147.58"/>
</g>
<!-- Node8&#45;&gt;Node4 -->
<g id="edge22" class="edge">
<title>Node8&#45;&gt;Node4</title>
<path fill="none" stroke="midnightblue" d="M542.18,-185.75C659.3,-181.31 882.13,-169.46 906,-143 915.23,-132.77 912.35,-124.23 906,-112 898.85,-98.23 885.33,-87.78 872.55,-80.44"/>
<polygon fill="midnightblue" stroke="midnightblue" points="873.96,-77.23 863.48,-75.64 870.68,-83.41 873.96,-77.23"/>
</g>
<!-- Node9 -->
<g id="node9" class="node">
<title>Node9</title>
<g id="a_node9"><a xlink:href="../../d7/dcf/AuditFwd_8hpp.html" target="_top" xlink:title=" ">
<polygon fill="white" stroke="black" points="171.5,-118 171.5,-137 306.5,-137 306.5,-118 171.5,-118"/>
<text text-anchor="middle" x="239" y="-125" font-family="Helvetica,sans-Serif" font-size="10.00">core/audit/AuditFwd.hpp</text>
</a>
</g>
</g>
<!-- Node8&#45;&gt;Node9 -->
<g id="edge8" class="edge">
<title>Node8&#45;&gt;Node9</title>
<path fill="none" stroke="midnightblue" d="M437.76,-179.48C396.76,-168.96 326.97,-151.06 281.95,-139.51"/>
<polygon fill="midnightblue" stroke="midnightblue" points="282.73,-136.1 272.18,-137.01 281,-142.88 282.73,-136.1"/>
</g>
<!-- Node8&#45;&gt;Node13 -->
<g id="edge13" class="edge">
<title>Node8&#45;&gt;Node13</title>
<path fill="none" stroke="midnightblue" d="M479.74,-179.48C489.16,-170.28 504.36,-155.46 515.95,-144.16"/>
<polygon fill="midnightblue" stroke="midnightblue" points="518.56,-146.5 523.28,-137.01 513.67,-141.49 518.56,-146.5"/>
</g>
<!-- Node14 -->
<g id="node14" class="node">
<title>Node14</title>
<g id="a_node14"><a xlink:href="../../dd/d9d/IVisitable_8hpp.html" target="_top" xlink:title=" ">
<polygon fill="white" stroke="black" points="43,-118 43,-137 153,-137 153,-118 43,-118"/>
<text text-anchor="middle" x="98" y="-125" font-family="Helvetica,sans-Serif" font-size="10.00">tools/IVisitable.hpp</text>
</a>
</g>
</g>
<!-- Node8&#45;&gt;Node14 -->
<g id="edge17" class="edge">
<title>Node8&#45;&gt;Node14</title>
<path fill="none" stroke="midnightblue" d="M401.71,-179.49C338.92,-171.39 243.95,-158.23 162,-143 156.04,-141.89 149.8,-140.62 143.65,-139.3"/>
<polygon fill="midnightblue" stroke="midnightblue" points="143.96,-135.78 133.44,-137.05 142.45,-142.62 143.96,-135.78"/>
</g>
<!-- Node18 -->
<g id="node18" class="node">
<title>Node18</title>
<g id="a_node18"><a xlink:title=" ">
<polygon fill="white" stroke="#bfbfbf" points="324.5,-112.5 324.5,-142.5 449.5,-142.5 449.5,-112.5 324.5,-112.5"/>
<text text-anchor="start" x="332.5" y="-130.5" font-family="Helvetica,sans-Serif" font-size="10.00">boost/date_time/posix</text>
<text text-anchor="middle" x="387" y="-119.5" font-family="Helvetica,sans-Serif" font-size="10.00">_time/posix_time.hpp</text>
</a>
</g>
</g>
<!-- Node8&#45;&gt;Node18 -->
<g id="edge21" class="edge">
<title>Node8&#45;&gt;Node18</title>
<path fill="none" stroke="midnightblue" d="M458.96,-179.48C447.59,-171.42 430.09,-159.02 415.2,-148.47"/>
<polygon fill="midnightblue" stroke="midnightblue" points="416.98,-145.45 406.8,-142.52 412.93,-151.16 416.98,-145.45"/>
</g>
<!-- Node9&#45;&gt;Node4 -->
<g id="edge11" class="edge">
<title>Node9&#45;&gt;Node4</title>
<path fill="none" stroke="midnightblue" d="M279.5,-117.95C290.93,-115.76 303.42,-113.58 315,-112 506.33,-85.87 555.66,-93.2 748,-76 765.98,-74.39 785.89,-72.5 802.74,-70.87"/>
<polygon fill="midnightblue" stroke="midnightblue" points="803.18,-74.34 812.79,-69.89 802.5,-67.38 803.18,-74.34"/>
</g>
<!-- Node10 -->
<g id="node10" class="node">
<title>Node10</title>
<g id="a_node10"><a xlink:title=" ">
<polygon fill="white" stroke="#bfbfbf" points="399.5,-56.5 399.5,-75.5 452.5,-75.5 452.5,-56.5 399.5,-56.5"/>
<text text-anchor="middle" x="426" y="-63.5" font-family="Helvetica,sans-Serif" font-size="10.00">cstddef</text>
</a>
</g>
</g>
<!-- Node9&#45;&gt;Node10 -->
<g id="edge9" class="edge">
<title>Node9&#45;&gt;Node10</title>
<path fill="none" stroke="midnightblue" d="M265.79,-117.98C298.29,-107.64 353.21,-90.16 389.54,-78.6"/>
<polygon fill="midnightblue" stroke="midnightblue" points="390.79,-81.88 399.26,-75.51 388.67,-75.21 390.79,-81.88"/>
</g>
<!-- Node11 -->
<g id="node11" class="node">
<title>Node11</title>
<g id="a_node11"><a xlink:title=" ">
<polygon fill="white" stroke="#bfbfbf" points="203.5,-56.5 203.5,-75.5 274.5,-75.5 274.5,-56.5 203.5,-56.5"/>
<text text-anchor="middle" x="239" y="-63.5" font-family="Helvetica,sans-Serif" font-size="10.00">flagset.hpp</text>
</a>
</g>
</g>
<!-- Node9&#45;&gt;Node11 -->
<g id="edge10" class="edge">
<title>Node9&#45;&gt;Node11</title>
<path fill="none" stroke="midnightblue" d="M239,-117.98C239,-109.58 239,-96.48 239,-85.66"/>
<polygon fill="midnightblue" stroke="midnightblue" points="242.5,-85.51 239,-75.51 235.5,-85.51 242.5,-85.51"/>
</g>
<!-- Node12 -->
<g id="node12" class="node">
<title>Node12</title>
<g id="a_node12"><a xlink:title=" ">
<polygon fill="white" stroke="#bfbfbf" points="644.5,-56.5 644.5,-75.5 739.5,-75.5 739.5,-56.5 644.5,-56.5"/>
<text text-anchor="middle" x="692" y="-63.5" font-family="Helvetica,sans-Serif" font-size="10.00">odb/lazy&#45;ptr.hxx</text>
</a>
</g>
</g>
<!-- Node9&#45;&gt;Node12 -->
<g id="edge12" class="edge">
<title>Node9&#45;&gt;Node12</title>
<path fill="none" stroke="midnightblue" d="M280.72,-118C291.83,-115.88 303.85,-113.73 315,-112 427.61,-94.56 560.04,-80.15 634.18,-72.64"/>
<polygon fill="midnightblue" stroke="midnightblue" points="634.65,-76.11 644.24,-71.62 633.94,-69.14 634.65,-76.11"/>
</g>
<!-- Node13&#45;&gt;Node4 -->
<g id="edge15" class="edge">
<title>Node13&#45;&gt;Node4</title>
<path fill="none" stroke="midnightblue" d="M575.43,-117.95C585.46,-115.99 596.1,-113.91 606,-112 675.29,-98.61 756.08,-83.26 802.9,-74.39"/>
<polygon fill="midnightblue" stroke="midnightblue" points="803.75,-77.79 812.93,-72.49 802.45,-70.92 803.75,-77.79"/>
</g>
<!-- Node13&#45;&gt;Node10 -->
<g id="edge14" class="edge">
<title>Node13&#45;&gt;Node10</title>
<path fill="none" stroke="midnightblue" d="M516.81,-117.98C499.34,-108.17 470.42,-91.93 449.92,-80.42"/>
<polygon fill="midnightblue" stroke="midnightblue" points="451.59,-77.35 441.16,-75.51 448.17,-83.46 451.59,-77.35"/>
</g>
<!-- Node13&#45;&gt;Node12 -->
<g id="edge16" class="edge">
<title>Node13&#45;&gt;Node12</title>
<path fill="none" stroke="midnightblue" d="M554.92,-117.98C582.37,-107.77 628.52,-90.61 659.6,-79.05"/>
<polygon fill="midnightblue" stroke="midnightblue" points="660.97,-82.28 669.12,-75.51 658.53,-75.71 660.97,-82.28"/>
</g>
<!-- Node15 -->
<g id="node15" class="node">
<title>Node15</title>
<g id="a_node15"><a xlink:href="../../d2/d91/Visitor_8hpp.html" target="_top" xlink:title=" ">
<polygon fill="white" stroke="black" points="70.5,-56.5 70.5,-75.5 165.5,-75.5 165.5,-56.5 70.5,-56.5"/>
<text text-anchor="middle" x="118" y="-63.5" font-family="Helvetica,sans-Serif" font-size="10.00">tools/Visitor.hpp</text>
</a>
</g>
</g>
<!-- Node14&#45;&gt;Node15 -->
<g id="edge18" class="edge">
<title>Node14&#45;&gt;Node15</title>
<path fill="none" stroke="midnightblue" d="M100.87,-117.98C103.72,-109.49 108.18,-96.2 111.84,-85.32"/>
<polygon fill="midnightblue" stroke="midnightblue" points="115.27,-86.1 115.14,-75.51 108.64,-83.87 115.27,-86.1"/>
</g>
<!-- Node17 -->
<g id="node17" class="node">
<title>Node17</title>
<g id="a_node17"><a xlink:title=" ">
<polygon fill="white" stroke="#bfbfbf" points="0,-56.5 0,-75.5 52,-75.5 52,-56.5 0,-56.5"/>
<text text-anchor="middle" x="26" y="-63.5" font-family="Helvetica,sans-Serif" font-size="10.00">cassert</text>
</a>
</g>
</g>
<!-- Node14&#45;&gt;Node17 -->
<g id="edge20" class="edge">
<title>Node14&#45;&gt;Node17</title>
<path fill="none" stroke="midnightblue" d="M87.68,-117.98C76.35,-108.61 57.93,-93.38 44.16,-82.01"/>
<polygon fill="midnightblue" stroke="midnightblue" points="46.23,-79.18 36.3,-75.51 41.78,-84.58 46.23,-79.18"/>
</g>
<!-- Node16 -->
<g id="node16" class="node">
<title>Node16</title>
<g id="a_node16"><a xlink:title=" ">
<polygon fill="white" stroke="#bfbfbf" points="83.5,-0.5 83.5,-19.5 152.5,-19.5 152.5,-0.5 83.5,-0.5"/>
<text text-anchor="middle" x="118" y="-7.5" font-family="Helvetica,sans-Serif" font-size="10.00">type_traits</text>
</a>
</g>
</g>
<!-- Node15&#45;&gt;Node16 -->
<g id="edge19" class="edge">
<title>Node15&#45;&gt;Node16</title>
<path fill="none" stroke="midnightblue" d="M118,-56.08C118,-49.01 118,-38.86 118,-29.99"/>
<polygon fill="midnightblue" stroke="midnightblue" points="121.5,-29.75 118,-19.75 114.5,-29.75 121.5,-29.75"/>
</g>
<!-- Node19&#45;&gt;Node4 -->
<g id="edge25" class="edge">
<title>Node19&#45;&gt;Node4</title>
<path fill="none" stroke="midnightblue" d="M983.16,-112.4C951.19,-102.12 908.38,-88.35 878.32,-78.68"/>
<polygon fill="midnightblue" stroke="midnightblue" points="879.24,-75.3 868.65,-75.57 877.1,-81.96 879.24,-75.3"/>
</g>
<!-- Node19&#45;&gt;Node12 -->
<g id="edge26" class="edge">
<title>Node19&#45;&gt;Node12</title>
<path fill="none" stroke="midnightblue" d="M952.65,-113.3C891.5,-102.43 806.05,-87.26 749.9,-77.28"/>
<polygon fill="midnightblue" stroke="midnightblue" points="750.23,-73.79 739.77,-75.48 749,-80.68 750.23,-73.79"/>
</g>
<!-- Node20&#45;&gt;Node4 -->
<g id="edge28" class="edge">
<title>Node20&#45;&gt;Node4</title>
<path fill="none" stroke="midnightblue" d="M713.49,-117.98C739.11,-107.81 782.11,-90.76 811.24,-79.2"/>
<polygon fill="midnightblue" stroke="midnightblue" points="812.54,-82.45 820.55,-75.51 809.96,-75.94 812.54,-82.45"/>
</g>
<!-- Node20&#45;&gt;Node12 -->
<g id="edge29" class="edge">
<title>Node20&#45;&gt;Node12</title>
<path fill="none" stroke="midnightblue" d="M692,-117.98C692,-109.58 692,-96.48 692,-85.66"/>
<polygon fill="midnightblue" stroke="midnightblue" points="695.5,-85.51 692,-75.51 688.5,-85.51 695.5,-85.51"/>
</g>
<!-- Node21&#45;&gt;Node4 -->
<g id="edge31" class="edge">
<title>Node21&#45;&gt;Node4</title>
<path fill="none" stroke="midnightblue" d="M842,-117.98C842,-109.58 842,-96.48 842,-85.66"/>
<polygon fill="midnightblue" stroke="midnightblue" points="845.5,-85.51 842,-75.51 838.5,-85.51 845.5,-85.51"/>
</g>
<!-- Node21&#45;&gt;Node12 -->
<g id="edge32" class="edge">
<title>Node21&#45;&gt;Node12</title>
<path fill="none" stroke="midnightblue" d="M820.51,-117.98C794.89,-107.81 751.89,-90.76 722.76,-79.2"/>
<polygon fill="midnightblue" stroke="midnightblue" points="724.04,-75.94 713.45,-75.51 721.46,-82.45 724.04,-75.94"/>
</g>
</g>
</svg>
