<?xml version="1.0" encoding="UTF-8" standalone="no"?>
<!DOCTYPE svg PUBLIC "-//W3C//DTD SVG 1.1//EN"
 "http://www.w3.org/Graphics/SVG/1.1/DTD/svg11.dtd">
<!-- Generated by graphviz version 2.43.0 (0)
 -->
<!-- Title: src/core/update/IUpdate.hpp Pages: 1 -->
<svg width="1744pt" height="240pt"
 viewBox="0.00 0.00 1744.00 240.00" xmlns="http://www.w3.org/2000/svg" xmlns:xlink="http://www.w3.org/1999/xlink">
<g id="graph0" class="graph" transform="scale(1 1) rotate(0) translate(4 236)">
<title>src/core/update/IUpdate.hpp</title>
<polygon fill="white" stroke="transparent" points="-4,4 -4,-236 1740,-236 1740,4 -4,4"/>
<!-- Node1 -->
<g id="node1" class="node">
<title>Node1</title>
<g id="a_node1"><a xlink:title=" ">
<polygon fill="#bfbfbf" stroke="black" points="782.5,-212.5 782.5,-231.5 936.5,-231.5 936.5,-212.5 782.5,-212.5"/>
<text text-anchor="middle" x="859.5" y="-219.5" font-family="Helvetica,sans-Serif" font-size="10.00">src/core/update/IUpdate.hpp</text>
</a>
</g>
</g>
<!-- Node2 -->
<g id="node2" class="node">
<title>Node2</title>
<g id="a_node2"><a xlink:href="../../d4/dbe/AuditFactory_8cpp.html" target="_top" xlink:title=" ">
<polygon fill="white" stroke="black" points="0,-145.5 0,-164.5 165,-164.5 165,-145.5 0,-145.5"/>
<text text-anchor="middle" x="82.5" y="-152.5" font-family="Helvetica,sans-Serif" font-size="10.00">src/core/audit/AuditFactory.cpp</text>
</a>
</g>
</g>
<!-- Node1&#45;&gt;Node2 -->
<g id="edge1" class="edge">
<title>Node1&#45;&gt;Node2</title>
<path fill="none" stroke="midnightblue" d="M772.11,-219.48C641.34,-216.26 387.21,-206.32 173.5,-176 154.12,-173.25 132.73,-168.63 115.56,-164.53"/>
<polygon fill="midnightblue" stroke="midnightblue" points="772.38,-222.99 782.46,-219.73 772.55,-215.99 772.38,-222.99"/>
</g>
<!-- Node3 -->
<g id="node3" class="node">
<title>Node3</title>
<g id="a_node3"><a xlink:href="../../df/d48/UpdateSerializer_8cpp.html" target="_top" xlink:title=" ">
<polygon fill="white" stroke="black" points="183,-140 183,-170 328,-170 328,-140 183,-140"/>
<text text-anchor="start" x="191" y="-158" font-family="Helvetica,sans-Serif" font-size="10.00">src/core/update/serializers</text>
<text text-anchor="middle" x="255.5" y="-147" font-family="Helvetica,sans-Serif" font-size="10.00">/UpdateSerializer.cpp</text>
</a>
</g>
</g>
<!-- Node1&#45;&gt;Node3 -->
<g id="edge2" class="edge">
<title>Node1&#45;&gt;Node3</title>
<path fill="none" stroke="midnightblue" d="M772.21,-217.66C667.96,-212.71 488.56,-201.16 336.5,-176 326.93,-174.42 316.81,-172.29 307.1,-170.02"/>
<polygon fill="midnightblue" stroke="midnightblue" points="772.22,-221.17 782.37,-218.13 772.55,-214.17 772.22,-221.17"/>
</g>
<!-- Node4 -->
<g id="node4" class="node">
<title>Node4</title>
<g id="a_node4"><a xlink:href="../../d0/d93/Update_8hpp.html" target="_top" xlink:title=" ">
<polygon fill="white" stroke="black" points="346,-145.5 346,-164.5 497,-164.5 497,-145.5 346,-145.5"/>
<text text-anchor="middle" x="421.5" y="-152.5" font-family="Helvetica,sans-Serif" font-size="10.00">src/core/update/Update.hpp</text>
</a>
</g>
</g>
<!-- Node1&#45;&gt;Node4 -->
<g id="edge3" class="edge">
<title>Node1&#45;&gt;Node4</title>
<path fill="none" stroke="midnightblue" d="M772.03,-212.42C700.36,-204.77 596.46,-192.27 506.5,-176 489.2,-172.87 470.12,-168.47 454.43,-164.59"/>
<polygon fill="midnightblue" stroke="midnightblue" points="772.05,-215.94 782.37,-213.51 772.79,-208.98 772.05,-215.94"/>
</g>
<!-- Node10 -->
<g id="node10" class="node">
<title>Node10</title>
<g id="a_node10"><a xlink:href="../../d1/deb/AckUpdate_8cpp.html" target="_top" xlink:title=" ">
<polygon fill="white" stroke="black" points="515,-134.5 515,-175.5 674,-175.5 674,-134.5 515,-134.5"/>
<text text-anchor="start" x="523" y="-163.5" font-family="Helvetica,sans-Serif" font-size="10.00">src/modules/websock</text>
<text text-anchor="start" x="523" y="-152.5" font-family="Helvetica,sans-Serif" font-size="10.00">&#45;api/api/update&#45;management</text>
<text text-anchor="middle" x="594.5" y="-141.5" font-family="Helvetica,sans-Serif" font-size="10.00">/AckUpdate.cpp</text>
</a>
</g>
</g>
<!-- Node1&#45;&gt;Node10 -->
<g id="edge9" class="edge">
<title>Node1&#45;&gt;Node10</title>
<path fill="none" stroke="midnightblue" d="M814.74,-210.02C776.37,-200.61 720.16,-186.82 674.13,-175.53"/>
<polygon fill="midnightblue" stroke="midnightblue" points="814.04,-213.45 824.58,-212.44 815.71,-206.65 814.04,-213.45"/>
</g>
<!-- Node11 -->
<g id="node11" class="node">
<title>Node11</title>
<g id="a_node11"><a xlink:href="../../d0/dcd/CancelUpdate_8cpp.html" target="_top" xlink:title=" ">
<polygon fill="white" stroke="black" points="692,-134.5 692,-175.5 851,-175.5 851,-134.5 692,-134.5"/>
<text text-anchor="start" x="700" y="-163.5" font-family="Helvetica,sans-Serif" font-size="10.00">src/modules/websock</text>
<text text-anchor="start" x="700" y="-152.5" font-family="Helvetica,sans-Serif" font-size="10.00">&#45;api/api/update&#45;management</text>
<text text-anchor="middle" x="771.5" y="-141.5" font-family="Helvetica,sans-Serif" font-size="10.00">/CancelUpdate.cpp</text>
</a>
</g>
</g>
<!-- Node1&#45;&gt;Node11 -->
<g id="edge10" class="edge">
<title>Node1&#45;&gt;Node11</title>
<path fill="none" stroke="midnightblue" d="M839.4,-206.16C827.12,-197.08 811.26,-185.37 797.96,-175.54"/>
<polygon fill="midnightblue" stroke="midnightblue" points="837.51,-209.11 847.63,-212.23 841.67,-203.48 837.51,-209.11"/>
</g>
<!-- Node12 -->
<g id="node12" class="node">
<title>Node12</title>
<g id="a_node12"><a xlink:href="../../d4/d2d/CheckUpdate_8cpp.html" target="_top" xlink:title=" ">
<polygon fill="white" stroke="black" points="869,-134.5 869,-175.5 1028,-175.5 1028,-134.5 869,-134.5"/>
<text text-anchor="start" x="877" y="-163.5" font-family="Helvetica,sans-Serif" font-size="10.00">src/modules/websock</text>
<text text-anchor="start" x="877" y="-152.5" font-family="Helvetica,sans-Serif" font-size="10.00">&#45;api/api/update&#45;management</text>
<text text-anchor="middle" x="948.5" y="-141.5" font-family="Helvetica,sans-Serif" font-size="10.00">/CheckUpdate.cpp</text>
</a>
</g>
</g>
<!-- Node1&#45;&gt;Node12 -->
<g id="edge11" class="edge">
<title>Node1&#45;&gt;Node12</title>
<path fill="none" stroke="midnightblue" d="M879.82,-206.16C892.25,-197.08 908.29,-185.37 921.74,-175.54"/>
<polygon fill="midnightblue" stroke="midnightblue" points="877.51,-203.51 871.5,-212.23 881.64,-209.16 877.51,-203.51"/>
</g>
<!-- Node13 -->
<g id="node13" class="node">
<title>Node13</title>
<g id="a_node13"><a xlink:href="../../dd/d7b/CreateUpdate_8cpp.html" target="_top" xlink:title=" ">
<polygon fill="white" stroke="black" points="1046,-134.5 1046,-175.5 1205,-175.5 1205,-134.5 1046,-134.5"/>
<text text-anchor="start" x="1054" y="-163.5" font-family="Helvetica,sans-Serif" font-size="10.00">src/modules/websock</text>
<text text-anchor="start" x="1054" y="-152.5" font-family="Helvetica,sans-Serif" font-size="10.00">&#45;api/api/update&#45;management</text>
<text text-anchor="middle" x="1125.5" y="-141.5" font-family="Helvetica,sans-Serif" font-size="10.00">/CreateUpdate.cpp</text>
</a>
</g>
</g>
<!-- Node1&#45;&gt;Node13 -->
<g id="edge12" class="edge">
<title>Node1&#45;&gt;Node13</title>
<path fill="none" stroke="midnightblue" d="M904.45,-210.02C943.04,-200.59 999.61,-186.76 1045.85,-175.46"/>
<polygon fill="midnightblue" stroke="midnightblue" points="903.43,-206.66 894.55,-212.44 905.09,-213.46 903.43,-206.66"/>
</g>
<!-- Node14 -->
<g id="node14" class="node">
<title>Node14</title>
<g id="a_node14"><a xlink:href="../../d9/d03/PendingUpdateGet_8cpp.html" target="_top" xlink:title=" ">
<polygon fill="white" stroke="black" points="1223,-134.5 1223,-175.5 1382,-175.5 1382,-134.5 1223,-134.5"/>
<text text-anchor="start" x="1231" y="-163.5" font-family="Helvetica,sans-Serif" font-size="10.00">src/modules/websock</text>
<text text-anchor="start" x="1231" y="-152.5" font-family="Helvetica,sans-Serif" font-size="10.00">&#45;api/api/update&#45;management</text>
<text text-anchor="middle" x="1302.5" y="-141.5" font-family="Helvetica,sans-Serif" font-size="10.00">/PendingUpdateGet.cpp</text>
</a>
</g>
</g>
<!-- Node1&#45;&gt;Node14 -->
<g id="edge13" class="edge">
<title>Node1&#45;&gt;Node14</title>
<path fill="none" stroke="midnightblue" d="M946.64,-212.35C1018.73,-204.62 1123.64,-192.04 1214.5,-176 1217.28,-175.51 1220.1,-174.99 1222.95,-174.45"/>
<polygon fill="midnightblue" stroke="midnightblue" points="946.27,-208.87 936.69,-213.41 947.01,-215.83 946.27,-208.87"/>
</g>
<!-- Node15 -->
<g id="node15" class="node">
<title>Node15</title>
<g id="a_node15"><a xlink:href="../../d0/d36/UpdateGet_8cpp.html" target="_top" xlink:title=" ">
<polygon fill="white" stroke="black" points="1400,-134.5 1400,-175.5 1559,-175.5 1559,-134.5 1400,-134.5"/>
<text text-anchor="start" x="1408" y="-163.5" font-family="Helvetica,sans-Serif" font-size="10.00">src/modules/websock</text>
<text text-anchor="start" x="1408" y="-152.5" font-family="Helvetica,sans-Serif" font-size="10.00">&#45;api/api/update&#45;management</text>
<text text-anchor="middle" x="1479.5" y="-141.5" font-family="Helvetica,sans-Serif" font-size="10.00">/UpdateGet.cpp</text>
</a>
</g>
</g>
<!-- Node1&#45;&gt;Node15 -->
<g id="edge14" class="edge">
<title>Node1&#45;&gt;Node15</title>
<path fill="none" stroke="midnightblue" d="M946.85,-217.34C1052.62,-212.05 1235.93,-200.14 1391.5,-176 1394.29,-175.57 1397.12,-175.1 1399.97,-174.6"/>
<polygon fill="midnightblue" stroke="midnightblue" points="946.36,-213.86 936.55,-217.85 946.71,-220.85 946.36,-213.86"/>
</g>
<!-- Node16 -->
<g id="node16" class="node">
<title>Node16</title>
<g id="a_node16"><a xlink:href="../../d1/d97/UpdateHistory_8cpp.html" target="_top" xlink:title=" ">
<polygon fill="white" stroke="black" points="1577,-134.5 1577,-175.5 1736,-175.5 1736,-134.5 1577,-134.5"/>
<text text-anchor="start" x="1585" y="-163.5" font-family="Helvetica,sans-Serif" font-size="10.00">src/modules/websock</text>
<text text-anchor="start" x="1585" y="-152.5" font-family="Helvetica,sans-Serif" font-size="10.00">&#45;api/api/update&#45;management</text>
<text text-anchor="middle" x="1656.5" y="-141.5" font-family="Helvetica,sans-Serif" font-size="10.00">/UpdateHistory.cpp</text>
</a>
</g>
</g>
<!-- Node1&#45;&gt;Node16 -->
<g id="edge15" class="edge">
<title>Node1&#45;&gt;Node16</title>
<path fill="none" stroke="midnightblue" d="M946.73,-219.95C1080.97,-217.32 1346.02,-208.13 1568.5,-176 1571.29,-175.6 1574.12,-175.15 1576.98,-174.67"/>
<polygon fill="midnightblue" stroke="midnightblue" points="946.44,-216.45 936.5,-220.14 946.57,-223.45 946.44,-216.45"/>
</g>
<!-- Node5 -->
<g id="node5" class="node">
<title>Node5</title>
<g id="a_node5"><a xlink:href="../../d0/d2b/AccessPointUpdate_8hpp.html" target="_top" xlink:title=" ">
<polygon fill="white" stroke="black" points="269,-67.5 269,-97.5 410,-97.5 410,-67.5 269,-67.5"/>
<text text-anchor="start" x="277" y="-85.5" font-family="Helvetica,sans-Serif" font-size="10.00">src/core/auth/AccessPoint</text>
<text text-anchor="middle" x="339.5" y="-74.5" font-family="Helvetica,sans-Serif" font-size="10.00">Update.hpp</text>
</a>
</g>
</g>
<!-- Node4&#45;&gt;Node5 -->
<g id="edge4" class="edge">
<title>Node4&#45;&gt;Node5</title>
<path fill="none" stroke="midnightblue" d="M403.8,-138.78C389.57,-126.55 369.74,-109.5 355.87,-97.58"/>
<polygon fill="midnightblue" stroke="midnightblue" points="401.58,-141.49 411.45,-145.36 406.14,-136.18 401.58,-141.49"/>
</g>
<!-- Node9 -->
<g id="node9" class="node">
<title>Node9</title>
<g id="a_node9"><a xlink:href="../../de/d65/Update_8cpp.html" target="_top" xlink:title=" ">
<polygon fill="white" stroke="black" points="428.5,-73 428.5,-92 578.5,-92 578.5,-73 428.5,-73"/>
<text text-anchor="middle" x="503.5" y="-80" font-family="Helvetica,sans-Serif" font-size="10.00">src/core/update/Update.cpp</text>
</a>
</g>
</g>
<!-- Node4&#45;&gt;Node9 -->
<g id="edge8" class="edge">
<title>Node4&#45;&gt;Node9</title>
<path fill="none" stroke="midnightblue" d="M439.43,-138.58C455.96,-124.37 479.92,-103.77 493.36,-92.22"/>
<polygon fill="midnightblue" stroke="midnightblue" points="436.86,-136.18 431.55,-145.36 441.42,-141.49 436.86,-136.18"/>
</g>
<!-- Node6 -->
<g id="node6" class="node">
<title>Node6</title>
<g id="a_node6"><a xlink:href="../../d1/d88/AccessPoint_8cpp.html" target="_top" xlink:title=" ">
<polygon fill="white" stroke="black" points="90,-6 90,-25 251,-25 251,-6 90,-6"/>
<text text-anchor="middle" x="170.5" y="-13" font-family="Helvetica,sans-Serif" font-size="10.00">src/core/auth/AccessPoint.cpp</text>
</a>
</g>
</g>
<!-- Node5&#45;&gt;Node6 -->
<g id="edge5" class="edge">
<title>Node5&#45;&gt;Node6</title>
<path fill="none" stroke="midnightblue" d="M293.44,-63.78C260.67,-51.18 218.1,-34.81 192.62,-25.01"/>
<polygon fill="midnightblue" stroke="midnightblue" points="292.24,-67.07 302.83,-67.4 294.75,-60.54 292.24,-67.07"/>
</g>
<!-- Node7 -->
<g id="node7" class="node">
<title>Node7</title>
<g id="a_node7"><a xlink:href="../../dc/dc8/AccessPointUpdate_8cpp.html" target="_top" xlink:title=" ">
<polygon fill="white" stroke="black" points="269,-0.5 269,-30.5 410,-30.5 410,-0.5 269,-0.5"/>
<text text-anchor="start" x="277" y="-18.5" font-family="Helvetica,sans-Serif" font-size="10.00">src/core/auth/AccessPoint</text>
<text text-anchor="middle" x="339.5" y="-7.5" font-family="Helvetica,sans-Serif" font-size="10.00">Update.cpp</text>
</a>
</g>
</g>
<!-- Node5&#45;&gt;Node7 -->
<g id="edge6" class="edge">
<title>Node5&#45;&gt;Node7</title>
<path fill="none" stroke="midnightblue" d="M339.5,-57.11C339.5,-48.15 339.5,-38.32 339.5,-30.58"/>
<polygon fill="midnightblue" stroke="midnightblue" points="336,-57.4 339.5,-67.4 343,-57.4 336,-57.4"/>
</g>
<!-- Node8 -->
<g id="node8" class="node">
<title>Node8</title>
<g id="a_node8"><a xlink:href="../../d0/d05/AccessPointUpdateSerializer_8cpp.html" target="_top" xlink:title=" ">
<polygon fill="white" stroke="black" points="428,-0.5 428,-30.5 607,-30.5 607,-0.5 428,-0.5"/>
<text text-anchor="start" x="436" y="-18.5" font-family="Helvetica,sans-Serif" font-size="10.00">src/core/update/serializers</text>
<text text-anchor="middle" x="517.5" y="-7.5" font-family="Helvetica,sans-Serif" font-size="10.00">/AccessPointUpdateSerializer.cpp</text>
</a>
</g>
</g>
<!-- Node5&#45;&gt;Node8 -->
<g id="edge7" class="edge">
<title>Node5&#45;&gt;Node8</title>
<path fill="none" stroke="midnightblue" d="M387.55,-63.96C416.22,-53.48 452.14,-40.37 478.95,-30.58"/>
<polygon fill="midnightblue" stroke="midnightblue" points="386.32,-60.68 378.12,-67.4 388.72,-67.25 386.32,-60.68"/>
</g>
</g>
</svg>
