<?xml version="1.0" encoding="UTF-8" standalone="no"?>
<!DOCTYPE svg PUBLIC "-//W3C//DTD SVG 1.1//EN"
 "http://www.w3.org/Graphics/SVG/1.1/DTD/svg11.dtd">
<!-- Generated by graphviz version 2.43.0 (0)
 -->
<!-- Title: src/modules/stdin&#45;controller/StdinControllerModule.hpp Pages: 1 -->
<svg width="2790pt" height="386pt"
 viewBox="0.00 0.00 2789.50 386.00" xmlns="http://www.w3.org/2000/svg" xmlns:xlink="http://www.w3.org/1999/xlink">
<g id="graph0" class="graph" transform="scale(1 1) rotate(0) translate(4 382)">
<title>src/modules/stdin&#45;controller/StdinControllerModule.hpp</title>
<polygon fill="white" stroke="transparent" points="-4,4 -4,-382 2785.5,-382 2785.5,4 -4,4"/>
<!-- Node1 -->
<g id="node1" class="node">
<title>Node1</title>
<g id="a_node1"><a xlink:title=" ">
<polygon fill="#bfbfbf" stroke="black" points="2118,-347.5 2118,-377.5 2271,-377.5 2271,-347.5 2118,-347.5"/>
<text text-anchor="start" x="2126" y="-365.5" font-family="Helvetica,sans-Serif" font-size="10.00">src/modules/stdin&#45;controller</text>
<text text-anchor="middle" x="2194.5" y="-354.5" font-family="Helvetica,sans-Serif" font-size="10.00">/StdinControllerModule.hpp</text>
</a>
</g>
</g>
<!-- Node2 -->
<g id="node2" class="node">
<title>Node2</title>
<g id="a_node2"><a xlink:href="../../d0/dc7/BaseModule_8hpp.html" target="_top" xlink:title=" ">
<polygon fill="white" stroke="black" points="2123,-291.5 2123,-310.5 2266,-310.5 2266,-291.5 2123,-291.5"/>
<text text-anchor="middle" x="2194.5" y="-298.5" font-family="Helvetica,sans-Serif" font-size="10.00">modules/BaseModule.hpp</text>
</a>
</g>
</g>
<!-- Node1&#45;&gt;Node2 -->
<g id="edge1" class="edge">
<title>Node1&#45;&gt;Node2</title>
<path fill="none" stroke="midnightblue" d="M2194.5,-347.4C2194.5,-339.47 2194.5,-329.46 2194.5,-320.86"/>
<polygon fill="midnightblue" stroke="midnightblue" points="2198,-320.66 2194.5,-310.66 2191,-320.66 2198,-320.66"/>
</g>
<!-- Node3 -->
<g id="node3" class="node">
<title>Node3</title>
<g id="a_node3"><a xlink:href="../../dc/d49/LeosacFwd_8hpp.html" target="_top" xlink:title=" ">
<polygon fill="white" stroke="black" points="617.5,-174 617.5,-193 709.5,-193 709.5,-174 617.5,-174"/>
<text text-anchor="middle" x="663.5" y="-181" font-family="Helvetica,sans-Serif" font-size="10.00">LeosacFwd.hpp</text>
</a>
</g>
</g>
<!-- Node2&#45;&gt;Node3 -->
<g id="edge2" class="edge">
<title>Node2&#45;&gt;Node3</title>
<path fill="none" stroke="midnightblue" d="M2122.9,-299.89C1908.43,-298.53 1252.95,-286.92 718.5,-199 713.02,-198.1 707.29,-196.89 701.69,-195.56"/>
<polygon fill="midnightblue" stroke="midnightblue" points="702.38,-192.12 691.82,-193.06 700.66,-198.91 702.38,-192.12"/>
</g>
<!-- Node6 -->
<g id="node6" class="node">
<title>Node6</title>
<g id="a_node6"><a xlink:href="../../db/d33/ConfigChecker_8hpp.html" target="_top" xlink:title=" ">
<polygon fill="white" stroke="black" points="580,-235.5 580,-254.5 743,-254.5 743,-235.5 580,-235.5"/>
<text text-anchor="middle" x="661.5" y="-242.5" font-family="Helvetica,sans-Serif" font-size="10.00">core/config/ConfigChecker.hpp</text>
</a>
</g>
</g>
<!-- Node2&#45;&gt;Node6 -->
<g id="edge5" class="edge">
<title>Node2&#45;&gt;Node6</title>
<path fill="none" stroke="midnightblue" d="M2122.87,-297.48C1872.06,-288.64 1033.5,-259.1 753.45,-249.24"/>
<polygon fill="midnightblue" stroke="midnightblue" points="753.44,-245.74 743.32,-248.88 753.19,-252.73 753.44,-245.74"/>
</g>
<!-- Node17 -->
<g id="node17" class="node">
<title>Node17</title>
<g id="a_node17"><a xlink:href="../../db/d79/ConfigManager_8hpp.html" target="_top" xlink:title=" ">
<polygon fill="white" stroke="black" points="2000,-235.5 2000,-254.5 2167,-254.5 2167,-235.5 2000,-235.5"/>
<text text-anchor="middle" x="2083.5" y="-242.5" font-family="Helvetica,sans-Serif" font-size="10.00">core/config/ConfigManager.hpp</text>
</a>
</g>
</g>
<!-- Node2&#45;&gt;Node17 -->
<g id="edge17" class="edge">
<title>Node2&#45;&gt;Node17</title>
<path fill="none" stroke="midnightblue" d="M2176.67,-291.32C2158.78,-282.62 2131.02,-269.12 2110.45,-259.11"/>
<polygon fill="midnightblue" stroke="midnightblue" points="2111.81,-255.88 2101.29,-254.65 2108.75,-262.18 2111.81,-255.88"/>
</g>
<!-- Node33 -->
<g id="node33" class="node">
<title>Node33</title>
<g id="a_node33"><a xlink:href="../../d4/d3d/log_8hpp.html" target="_top" xlink:title=" ">
<polygon fill="white" stroke="black" points="2381.5,-174 2381.5,-193 2461.5,-193 2461.5,-174 2381.5,-174"/>
<text text-anchor="middle" x="2421.5" y="-181" font-family="Helvetica,sans-Serif" font-size="10.00">tools/log.hpp</text>
</a>
</g>
</g>
<!-- Node2&#45;&gt;Node33 -->
<g id="edge71" class="edge">
<title>Node2&#45;&gt;Node33</title>
<path fill="none" stroke="midnightblue" d="M2211.56,-291.32C2251.02,-271.24 2348.75,-221.51 2395.62,-197.67"/>
<polygon fill="midnightblue" stroke="midnightblue" points="2397.22,-200.78 2404.55,-193.12 2394.05,-194.54 2397.22,-200.78"/>
</g>
<!-- Node38 -->
<g id="node38" class="node">
<title>Node38</title>
<g id="a_node38"><a xlink:title=" ">
<polygon fill="white" stroke="#bfbfbf" points="2125,-168.5 2125,-198.5 2238,-198.5 2238,-168.5 2125,-168.5"/>
<text text-anchor="start" x="2133" y="-186.5" font-family="Helvetica,sans-Serif" font-size="10.00">boost/property_tree</text>
<text text-anchor="middle" x="2181.5" y="-175.5" font-family="Helvetica,sans-Serif" font-size="10.00">/ptree.hpp</text>
</a>
</g>
</g>
<!-- Node2&#45;&gt;Node38 -->
<g id="edge72" class="edge">
<title>Node2&#45;&gt;Node38</title>
<path fill="none" stroke="midnightblue" d="M2193.52,-291.32C2191.57,-273.97 2187.12,-234.46 2184.22,-208.66"/>
<polygon fill="midnightblue" stroke="midnightblue" points="2187.68,-208.09 2183.08,-198.55 2180.72,-208.87 2187.68,-208.09"/>
</g>
<!-- Node39 -->
<g id="node39" class="node">
<title>Node39</title>
<g id="a_node39"><a xlink:title=" ">
<polygon fill="white" stroke="#bfbfbf" points="2256,-174 2256,-193 2363,-193 2363,-174 2256,-174"/>
<text text-anchor="middle" x="2309.5" y="-181" font-family="Helvetica,sans-Serif" font-size="10.00">zmqpp/zmqpp.hpp</text>
</a>
</g>
</g>
<!-- Node2&#45;&gt;Node39 -->
<g id="edge73" class="edge">
<title>Node2&#45;&gt;Node39</title>
<path fill="none" stroke="midnightblue" d="M2203.14,-291.32C2222.37,-272 2268.94,-225.24 2293.59,-200.48"/>
<polygon fill="midnightblue" stroke="midnightblue" points="2296.18,-202.84 2300.76,-193.28 2291.22,-197.9 2296.18,-202.84"/>
</g>
<!-- Node40 -->
<g id="node40" class="node">
<title>Node40</title>
<g id="a_node40"><a xlink:href="../../d1/d91/ThreadUtils_8hpp.html" target="_top" xlink:title=" ">
<polygon fill="white" stroke="black" points="2643,-235.5 2643,-254.5 2764,-254.5 2764,-235.5 2643,-235.5"/>
<text text-anchor="middle" x="2703.5" y="-242.5" font-family="Helvetica,sans-Serif" font-size="10.00">tools/ThreadUtils.hpp</text>
</a>
</g>
</g>
<!-- Node2&#45;&gt;Node40 -->
<g id="edge68" class="edge">
<title>Node2&#45;&gt;Node40</title>
<path fill="none" stroke="midnightblue" d="M2266.08,-292.41C2363.27,-282.1 2535.92,-263.78 2632.7,-253.51"/>
<polygon fill="midnightblue" stroke="midnightblue" points="2633.11,-256.99 2642.69,-252.45 2632.37,-250.03 2633.11,-256.99"/>
</g>
<!-- Node4 -->
<g id="node4" class="node">
<title>Node4</title>
<g id="a_node4"><a xlink:title=" ">
<polygon fill="white" stroke="#bfbfbf" points="634.5,-112.5 634.5,-131.5 692.5,-131.5 692.5,-112.5 634.5,-112.5"/>
<text text-anchor="middle" x="663.5" y="-119.5" font-family="Helvetica,sans-Serif" font-size="10.00">memory</text>
</a>
</g>
</g>
<!-- Node3&#45;&gt;Node4 -->
<g id="edge3" class="edge">
<title>Node3&#45;&gt;Node4</title>
<path fill="none" stroke="midnightblue" d="M663.5,-173.98C663.5,-165.58 663.5,-152.48 663.5,-141.66"/>
<polygon fill="midnightblue" stroke="midnightblue" points="667,-141.51 663.5,-131.51 660,-141.51 667,-141.51"/>
</g>
<!-- Node5 -->
<g id="node5" class="node">
<title>Node5</title>
<g id="a_node5"><a xlink:title=" ">
<polygon fill="white" stroke="#bfbfbf" points="755,-56.5 755,-75.5 802,-75.5 802,-56.5 755,-56.5"/>
<text text-anchor="middle" x="778.5" y="-63.5" font-family="Helvetica,sans-Serif" font-size="10.00">vector</text>
</a>
</g>
</g>
<!-- Node3&#45;&gt;Node5 -->
<g id="edge4" class="edge">
<title>Node3&#45;&gt;Node5</title>
<path fill="none" stroke="midnightblue" d="M652.8,-173.99C636.8,-160.24 610.09,-132.6 625.5,-112 629.17,-107.09 701.07,-87.42 744.98,-75.77"/>
<polygon fill="midnightblue" stroke="midnightblue" points="745.91,-79.14 754.68,-73.21 744.12,-72.38 745.91,-79.14"/>
</g>
<!-- Node7 -->
<g id="node7" class="node">
<title>Node7</title>
<g id="a_node7"><a xlink:title=" ">
<polygon fill="white" stroke="#bfbfbf" points="727.5,-174 727.5,-193 765.5,-193 765.5,-174 727.5,-174"/>
<text text-anchor="middle" x="746.5" y="-181" font-family="Helvetica,sans-Serif" font-size="10.00">map</text>
</a>
</g>
</g>
<!-- Node6&#45;&gt;Node7 -->
<g id="edge6" class="edge">
<title>Node6&#45;&gt;Node7</title>
<path fill="none" stroke="midnightblue" d="M673.68,-235.48C687.31,-225.93 709.63,-210.31 725.97,-198.87"/>
<polygon fill="midnightblue" stroke="midnightblue" points="728.16,-201.61 734.34,-193.01 724.14,-195.88 728.16,-201.61"/>
</g>
<!-- Node8 -->
<g id="node8" class="node">
<title>Node8</title>
<g id="a_node8"><a xlink:title=" ">
<polygon fill="white" stroke="#bfbfbf" points="551.5,-174 551.5,-193 599.5,-193 599.5,-174 551.5,-174"/>
<text text-anchor="middle" x="575.5" y="-181" font-family="Helvetica,sans-Serif" font-size="10.00">mutex</text>
</a>
</g>
</g>
<!-- Node6&#45;&gt;Node8 -->
<g id="edge7" class="edge">
<title>Node6&#45;&gt;Node8</title>
<path fill="none" stroke="midnightblue" d="M649.18,-235.48C635.38,-225.93 612.8,-210.31 596.27,-198.87"/>
<polygon fill="midnightblue" stroke="midnightblue" points="598.01,-195.82 587.8,-193.01 594.03,-201.58 598.01,-195.82"/>
</g>
<!-- Node9 -->
<g id="node9" class="node">
<title>Node9</title>
<g id="a_node9"><a xlink:href="../../d9/dc8/HardwareFwd_8hpp.html" target="_top" xlink:title=" ">
<polygon fill="white" stroke="black" points="379.5,-174 379.5,-193 533.5,-193 533.5,-174 379.5,-174"/>
<text text-anchor="middle" x="456.5" y="-181" font-family="Helvetica,sans-Serif" font-size="10.00">hardware/HardwareFwd.hpp</text>
</a>
</g>
</g>
<!-- Node6&#45;&gt;Node9 -->
<g id="edge8" class="edge">
<title>Node6&#45;&gt;Node9</title>
<path fill="none" stroke="midnightblue" d="M632.13,-235.48C596.2,-225.05 535.27,-207.36 495.46,-195.81"/>
<polygon fill="midnightblue" stroke="midnightblue" points="496.4,-192.44 485.82,-193.01 494.45,-199.16 496.4,-192.44"/>
</g>
<!-- Node9&#45;&gt;Node4 -->
<g id="edge16" class="edge">
<title>Node9&#45;&gt;Node4</title>
<path fill="none" stroke="midnightblue" d="M486.16,-173.98C522.54,-163.52 584.31,-145.76 624.51,-134.21"/>
<polygon fill="midnightblue" stroke="midnightblue" points="625.59,-137.54 634.23,-131.41 623.65,-130.81 625.59,-137.54"/>
</g>
<!-- Node10 -->
<g id="node10" class="node">
<title>Node10</title>
<g id="a_node10"><a xlink:href="../../dc/dea/Uuid_8hpp.html" target="_top" xlink:title=" ">
<polygon fill="white" stroke="black" points="413,-112.5 413,-131.5 500,-131.5 500,-112.5 413,-112.5"/>
<text text-anchor="middle" x="456.5" y="-119.5" font-family="Helvetica,sans-Serif" font-size="10.00">tools/Uuid.hpp</text>
</a>
</g>
</g>
<!-- Node9&#45;&gt;Node10 -->
<g id="edge9" class="edge">
<title>Node9&#45;&gt;Node10</title>
<path fill="none" stroke="midnightblue" d="M456.5,-173.98C456.5,-165.58 456.5,-152.48 456.5,-141.66"/>
<polygon fill="midnightblue" stroke="midnightblue" points="460,-141.51 456.5,-131.51 453,-141.51 460,-141.51"/>
</g>
<!-- Node11 -->
<g id="node11" class="node">
<title>Node11</title>
<g id="a_node11"><a xlink:title=" ">
<polygon fill="white" stroke="#bfbfbf" points="0,-56.5 0,-75.5 125,-75.5 125,-56.5 0,-56.5"/>
<text text-anchor="middle" x="62.5" y="-63.5" font-family="Helvetica,sans-Serif" font-size="10.00">boost/lexical_cast.hpp</text>
</a>
</g>
</g>
<!-- Node10&#45;&gt;Node11 -->
<g id="edge10" class="edge">
<title>Node10&#45;&gt;Node11</title>
<path fill="none" stroke="midnightblue" d="M412.83,-115.01C345.68,-105.81 216.32,-88.08 134.97,-76.93"/>
<polygon fill="midnightblue" stroke="midnightblue" points="135.19,-73.43 124.81,-75.54 134.24,-80.36 135.19,-73.43"/>
</g>
<!-- Node12 -->
<g id="node12" class="node">
<title>Node12</title>
<g id="a_node12"><a xlink:title=" ">
<polygon fill="white" stroke="#bfbfbf" points="143,-56.5 143,-75.5 324,-75.5 324,-56.5 143,-56.5"/>
<text text-anchor="middle" x="233.5" y="-63.5" font-family="Helvetica,sans-Serif" font-size="10.00">boost/uuid/random_generator.hpp</text>
</a>
</g>
</g>
<!-- Node10&#45;&gt;Node12 -->
<g id="edge11" class="edge">
<title>Node10&#45;&gt;Node12</title>
<path fill="none" stroke="midnightblue" d="M421.16,-112.44C382.59,-103.1 320.72,-88.12 278.65,-77.93"/>
<polygon fill="midnightblue" stroke="midnightblue" points="279.21,-74.47 268.67,-75.52 277.57,-81.27 279.21,-74.47"/>
</g>
<!-- Node13 -->
<g id="node13" class="node">
<title>Node13</title>
<g id="a_node13"><a xlink:title=" ">
<polygon fill="white" stroke="#bfbfbf" points="342,-56.5 342,-75.5 455,-75.5 455,-56.5 342,-56.5"/>
<text text-anchor="middle" x="398.5" y="-63.5" font-family="Helvetica,sans-Serif" font-size="10.00">boost/uuid/uuid.hpp</text>
</a>
</g>
</g>
<!-- Node10&#45;&gt;Node13 -->
<g id="edge12" class="edge">
<title>Node10&#45;&gt;Node13</title>
<path fill="none" stroke="midnightblue" d="M447.18,-112.32C438.61,-104.34 425.69,-92.31 415.31,-82.65"/>
<polygon fill="midnightblue" stroke="midnightblue" points="417.69,-80.09 407.99,-75.83 412.92,-85.21 417.69,-80.09"/>
</g>
<!-- Node14 -->
<g id="node14" class="node">
<title>Node14</title>
<g id="a_node14"><a xlink:title=" ">
<polygon fill="white" stroke="#bfbfbf" points="473,-56.5 473,-75.5 600,-75.5 600,-56.5 473,-56.5"/>
<text text-anchor="middle" x="536.5" y="-63.5" font-family="Helvetica,sans-Serif" font-size="10.00">boost/uuid/uuid_io.hpp</text>
</a>
</g>
</g>
<!-- Node10&#45;&gt;Node14 -->
<g id="edge13" class="edge">
<title>Node10&#45;&gt;Node14</title>
<path fill="none" stroke="midnightblue" d="M469.35,-112.32C481.72,-103.98 500.63,-91.21 515.24,-81.35"/>
<polygon fill="midnightblue" stroke="midnightblue" points="517.35,-84.15 523.68,-75.65 513.43,-78.35 517.35,-84.15"/>
</g>
<!-- Node15 -->
<g id="node15" class="node">
<title>Node15</title>
<g id="a_node15"><a xlink:title=" ">
<polygon fill="white" stroke="#bfbfbf" points="618.5,-56.5 618.5,-75.5 698.5,-75.5 698.5,-56.5 618.5,-56.5"/>
<text text-anchor="middle" x="658.5" y="-63.5" font-family="Helvetica,sans-Serif" font-size="10.00">odb/core.hxx</text>
</a>
</g>
</g>
<!-- Node10&#45;&gt;Node15 -->
<g id="edge14" class="edge">
<title>Node10&#45;&gt;Node15</title>
<path fill="none" stroke="midnightblue" d="M488.51,-112.44C523.23,-103.16 578.79,-88.31 616.88,-78.13"/>
<polygon fill="midnightblue" stroke="midnightblue" points="617.89,-81.48 626.64,-75.52 616.08,-74.72 617.89,-81.48"/>
</g>
<!-- Node16 -->
<g id="node16" class="node">
<title>Node16</title>
<g id="a_node16"><a xlink:title=" ">
<polygon fill="white" stroke="#bfbfbf" points="1784.5,-0.5 1784.5,-19.5 1828.5,-19.5 1828.5,-0.5 1784.5,-0.5"/>
<text text-anchor="middle" x="1806.5" y="-7.5" font-family="Helvetica,sans-Serif" font-size="10.00">string</text>
</a>
</g>
</g>
<!-- Node10&#45;&gt;Node16 -->
<g id="edge15" class="edge">
<title>Node10&#45;&gt;Node16</title>
<path fill="none" stroke="midnightblue" d="M500.15,-117.27C551.04,-111.99 637.16,-100.17 707.5,-76 725.55,-69.8 727.07,-60.97 745.5,-56 846.85,-28.67 1607.62,-14.35 1774.29,-11.52"/>
<polygon fill="midnightblue" stroke="midnightblue" points="1774.46,-15.02 1784.4,-11.35 1774.34,-8.02 1774.46,-15.02"/>
</g>
<!-- Node17&#45;&gt;Node4 -->
<g id="edge64" class="edge">
<title>Node17&#45;&gt;Node4</title>
<path fill="none" stroke="midnightblue" d="M1999.83,-242.36C1726.38,-236.83 873.35,-218.14 817.5,-199 795.21,-191.36 795.12,-179.4 774.5,-168 750.24,-154.59 721.16,-142.95 698.85,-134.87"/>
<polygon fill="midnightblue" stroke="midnightblue" points="700.02,-131.57 689.42,-131.52 697.67,-138.16 700.02,-131.57"/>
</g>
<!-- Node17&#45;&gt;Node5 -->
<g id="edge66" class="edge">
<title>Node17&#45;&gt;Node5</title>
<path fill="none" stroke="midnightblue" d="M1999.61,-237.56C1888.6,-228.99 1686.83,-213.26 1514.5,-199 1428.36,-191.87 797.93,-195.69 739.5,-132 725.64,-116.89 743.1,-96.09 758.89,-82.12"/>
<polygon fill="midnightblue" stroke="midnightblue" points="761.38,-84.6 766.82,-75.51 756.9,-79.23 761.38,-84.6"/>
</g>
<!-- Node17&#45;&gt;Node7 -->
<g id="edge63" class="edge">
<title>Node17&#45;&gt;Node7</title>
<path fill="none" stroke="midnightblue" d="M1999.73,-242.95C1730.47,-239.3 897.72,-225.97 779.5,-199 777.13,-198.46 774.72,-197.75 772.34,-196.93"/>
<polygon fill="midnightblue" stroke="midnightblue" points="773.45,-193.61 762.87,-193.15 770.86,-200.11 773.45,-193.61"/>
</g>
<!-- Node17&#45;&gt;Node16 -->
<g id="edge65" class="edge">
<title>Node17&#45;&gt;Node16</title>
<path fill="none" stroke="midnightblue" d="M2084.69,-235.31C2087.32,-219.54 2095.08,-186.18 2115.5,-168 2160.67,-127.79 2276.98,-159.46 2239.5,-112 2189.28,-48.41 1930.23,-21.19 1838.63,-13.46"/>
<polygon fill="midnightblue" stroke="midnightblue" points="1838.82,-9.96 1828.56,-12.63 1838.24,-16.94 1838.82,-9.96"/>
</g>
<!-- Node18 -->
<g id="node18" class="node">
<title>Node18</title>
<g id="a_node18"><a xlink:href="../../d1/ddd/leosacexception_8hpp.html" target="_top" xlink:title="Exception class for LEOSAC Project related errors.">
<polygon fill="white" stroke="black" points="1523.5,-174 1523.5,-193 1691.5,-193 1691.5,-174 1523.5,-174"/>
<text text-anchor="middle" x="1607.5" y="-181" font-family="Helvetica,sans-Serif" font-size="10.00">exception/leosacexception.hpp</text>
</a>
</g>
</g>
<!-- Node17&#45;&gt;Node18 -->
<g id="edge18" class="edge">
<title>Node17&#45;&gt;Node18</title>
<path fill="none" stroke="midnightblue" d="M2015.3,-235.48C1928.08,-224.57 1777.38,-205.74 1685.64,-194.27"/>
<polygon fill="midnightblue" stroke="midnightblue" points="1685.93,-190.78 1675.57,-193.01 1685.06,-197.72 1685.93,-190.78"/>
</g>
<!-- Node17&#45;&gt;Node33 -->
<g id="edge55" class="edge">
<title>Node17&#45;&gt;Node33</title>
<path fill="none" stroke="midnightblue" d="M2154.39,-235.48C2212.98,-227.83 2298.14,-215.3 2371.5,-199 2375.72,-198.06 2380.11,-196.97 2384.45,-195.81"/>
<polygon fill="midnightblue" stroke="midnightblue" points="2385.72,-199.09 2394.41,-193.04 2383.84,-192.35 2385.72,-199.09"/>
</g>
<!-- Node17&#45;&gt;Node38 -->
<g id="edge62" class="edge">
<title>Node17&#45;&gt;Node38</title>
<path fill="none" stroke="midnightblue" d="M2097.54,-235.48C2111.06,-227.27 2131.99,-214.56 2149.57,-203.88"/>
<polygon fill="midnightblue" stroke="midnightblue" points="2151.67,-206.7 2158.4,-198.52 2148.04,-200.72 2151.67,-206.7"/>
</g>
<!-- Node17&#45;&gt;Node39 -->
<g id="edge67" class="edge">
<title>Node17&#45;&gt;Node39</title>
<path fill="none" stroke="midnightblue" d="M2115.88,-235.48C2155.74,-224.98 2223.52,-207.14 2267.39,-195.59"/>
<polygon fill="midnightblue" stroke="midnightblue" points="2268.4,-198.94 2277.18,-193.01 2266.62,-192.17 2268.4,-198.94"/>
</g>
<!-- Node18&#45;&gt;Node16 -->
<g id="edge24" class="edge">
<title>Node18&#45;&gt;Node16</title>
<path fill="none" stroke="midnightblue" d="M1675.87,-173.99C1726.52,-166.13 1789.42,-152.52 1805.5,-132 1828.63,-102.48 1819.99,-55.3 1812.64,-29.44"/>
<polygon fill="midnightblue" stroke="midnightblue" points="1815.95,-28.3 1809.66,-19.77 1809.26,-30.36 1815.95,-28.3"/>
</g>
<!-- Node19 -->
<g id="node19" class="node">
<title>Node19</title>
<g id="a_node19"><a xlink:href="../../d6/d2f/Stacktrace_8hpp.html" target="_top" xlink:title=" ">
<polygon fill="white" stroke="black" points="996.5,-112.5 996.5,-131.5 1112.5,-131.5 1112.5,-112.5 996.5,-112.5"/>
<text text-anchor="middle" x="1054.5" y="-119.5" font-family="Helvetica,sans-Serif" font-size="10.00">tools/Stacktrace.hpp</text>
</a>
</g>
</g>
<!-- Node18&#45;&gt;Node19 -->
<g id="edge19" class="edge">
<title>Node18&#45;&gt;Node19</title>
<path fill="none" stroke="midnightblue" d="M1523.13,-174.51C1428.31,-165.35 1269.5,-149.49 1122.69,-132.11"/>
<polygon fill="midnightblue" stroke="midnightblue" points="1122.93,-128.62 1112.59,-130.91 1122.11,-135.57 1122.93,-128.62"/>
</g>
<!-- Node20 -->
<g id="node20" class="node">
<title>Node20</title>
<g id="a_node20"><a xlink:title=" ">
<polygon fill="white" stroke="#bfbfbf" points="1397,-112.5 1397,-131.5 1450,-131.5 1450,-112.5 1397,-112.5"/>
<text text-anchor="middle" x="1423.5" y="-119.5" font-family="Helvetica,sans-Serif" font-size="10.00">cstddef</text>
</a>
</g>
</g>
<!-- Node18&#45;&gt;Node20 -->
<g id="edge22" class="edge">
<title>Node18&#45;&gt;Node20</title>
<path fill="none" stroke="midnightblue" d="M1581.14,-173.98C1549.16,-163.64 1495.12,-146.16 1459.38,-134.6"/>
<polygon fill="midnightblue" stroke="midnightblue" points="1460.41,-131.26 1449.81,-131.51 1458.25,-137.92 1460.41,-131.26"/>
</g>
<!-- Node21 -->
<g id="node21" class="node">
<title>Node21</title>
<g id="a_node21"><a xlink:title=" ">
<polygon fill="white" stroke="#bfbfbf" points="1468,-112.5 1468,-131.5 1533,-131.5 1533,-112.5 1468,-112.5"/>
<text text-anchor="middle" x="1500.5" y="-119.5" font-family="Helvetica,sans-Serif" font-size="10.00">exception</text>
</a>
</g>
</g>
<!-- Node18&#45;&gt;Node21 -->
<g id="edge23" class="edge">
<title>Node18&#45;&gt;Node21</title>
<path fill="none" stroke="midnightblue" d="M1592.17,-173.98C1574.53,-164.17 1545.34,-147.93 1524.64,-136.42"/>
<polygon fill="midnightblue" stroke="midnightblue" points="1526.24,-133.31 1515.8,-131.51 1522.84,-139.43 1526.24,-133.31"/>
</g>
<!-- Node22 -->
<g id="node22" class="node">
<title>Node22</title>
<g id="a_node22"><a xlink:href="../../d7/d7a/configexception_8hpp.html" target="_top" xlink:title=" ">
<polygon fill="white" stroke="black" points="2116,-112.5 2116,-131.5 2231,-131.5 2231,-112.5 2116,-112.5"/>
<text text-anchor="middle" x="2173.5" y="-119.5" font-family="Helvetica,sans-Serif" font-size="10.00">configexception.hpp</text>
</a>
</g>
</g>
<!-- Node18&#45;&gt;Node22 -->
<g id="edge25" class="edge">
<title>Node18&#45;&gt;Node22</title>
<path fill="none" stroke="midnightblue" d="M1691.6,-174.22C1789.27,-164.87 1955.03,-148.77 2097.5,-132 2100.19,-131.68 2102.95,-131.35 2105.73,-131.01"/>
<polygon fill="midnightblue" stroke="midnightblue" points="2106.44,-134.44 2115.92,-129.72 2105.57,-127.5 2106.44,-134.44"/>
</g>
<!-- Node25 -->
<g id="node25" class="node">
<title>Node25</title>
<g id="a_node25"><a xlink:href="../../d8/db0/coreexception_8hpp.html" target="_top" xlink:title="Exception class for Core related errors.">
<polygon fill="white" stroke="black" points="1854,-112.5 1854,-131.5 1961,-131.5 1961,-112.5 1854,-112.5"/>
<text text-anchor="middle" x="1907.5" y="-119.5" font-family="Helvetica,sans-Serif" font-size="10.00">coreexception.hpp</text>
</a>
</g>
</g>
<!-- Node18&#45;&gt;Node25 -->
<g id="edge31" class="edge">
<title>Node18&#45;&gt;Node25</title>
<path fill="none" stroke="midnightblue" d="M1645.58,-173.98C1697.16,-163.28 1789.43,-144.96 1849.59,-133.44"/>
<polygon fill="midnightblue" stroke="midnightblue" points="1850.53,-136.82 1859.7,-131.51 1849.22,-129.95 1850.53,-136.82"/>
</g>
<!-- Node26 -->
<g id="node26" class="node">
<title>Node26</title>
<g id="a_node26"><a xlink:href="../../d8/d77/deviceexception_8hpp.html" target="_top" xlink:title="Exception class for Device related errors.">
<polygon fill="white" stroke="black" points="1979.5,-112.5 1979.5,-131.5 2097.5,-131.5 2097.5,-112.5 1979.5,-112.5"/>
<text text-anchor="middle" x="2038.5" y="-119.5" font-family="Helvetica,sans-Serif" font-size="10.00">deviceexception.hpp</text>
</a>
</g>
</g>
<!-- Node18&#45;&gt;Node26 -->
<g id="edge34" class="edge">
<title>Node18&#45;&gt;Node26</title>
<path fill="none" stroke="midnightblue" d="M1664.35,-173.98C1742.99,-162.78 1884.64,-143.22 1969.32,-131.86"/>
<polygon fill="midnightblue" stroke="midnightblue" points="1969.9,-135.32 1979.35,-130.52 1968.98,-128.38 1969.9,-135.32"/>
</g>
<!-- Node27 -->
<g id="node27" class="node">
<title>Node27</title>
<g id="a_node27"><a xlink:href="../../db/d35/dynlibexception_8hpp.html" target="_top" xlink:title="Exception class for DynLib related errors.">
<polygon fill="white" stroke="black" points="748.5,-112.5 748.5,-131.5 864.5,-131.5 864.5,-112.5 748.5,-112.5"/>
<text text-anchor="middle" x="806.5" y="-119.5" font-family="Helvetica,sans-Serif" font-size="10.00">dynlibexception.hpp</text>
</a>
</g>
</g>
<!-- Node18&#45;&gt;Node27 -->
<g id="edge37" class="edge">
<title>Node18&#45;&gt;Node27</title>
<path fill="none" stroke="midnightblue" d="M1523.41,-178.77C1387.27,-172.1 1110.32,-156.59 869.87,-132.52"/>
<polygon fill="midnightblue" stroke="midnightblue" points="870.2,-129.04 859.9,-131.52 869.5,-136 870.2,-129.04"/>
</g>
<!-- Node28 -->
<g id="node28" class="node">
<title>Node28</title>
<g id="a_node28"><a xlink:href="../../d0/d4e/fsexception_8hpp.html" target="_top" xlink:title="Exception class for filesystem related errors.">
<polygon fill="white" stroke="black" points="883,-112.5 883,-131.5 978,-131.5 978,-112.5 883,-112.5"/>
<text text-anchor="middle" x="930.5" y="-119.5" font-family="Helvetica,sans-Serif" font-size="10.00">fsexception.hpp</text>
</a>
</g>
</g>
<!-- Node18&#45;&gt;Node28 -->
<g id="edge40" class="edge">
<title>Node18&#45;&gt;Node28</title>
<path fill="none" stroke="midnightblue" d="M1523.19,-178.01C1404.23,-170.96 1180.41,-155.73 984.76,-132.72"/>
<polygon fill="midnightblue" stroke="midnightblue" points="984.92,-129.22 974.58,-131.52 984.1,-136.17 984.92,-129.22"/>
</g>
<!-- Node29 -->
<g id="node29" class="node">
<title>Node29</title>
<g id="a_node29"><a xlink:href="../../d1/d8e/gpioexception_8hpp.html" target="_top" xlink:title="Exception class for Gpio related errors.">
<polygon fill="white" stroke="black" points="1131,-112.5 1131,-131.5 1238,-131.5 1238,-112.5 1131,-112.5"/>
<text text-anchor="middle" x="1184.5" y="-119.5" font-family="Helvetica,sans-Serif" font-size="10.00">gpioexception.hpp</text>
</a>
</g>
</g>
<!-- Node18&#45;&gt;Node29 -->
<g id="edge43" class="edge">
<title>Node18&#45;&gt;Node29</title>
<path fill="none" stroke="midnightblue" d="M1539.89,-173.97C1468.03,-164.28 1351.07,-147.92 1245.38,-132.97"/>
<polygon fill="midnightblue" stroke="midnightblue" points="1245.58,-129.47 1235.19,-131.53 1244.6,-136.4 1245.58,-129.47"/>
</g>
<!-- Node30 -->
<g id="node30" class="node">
<title>Node30</title>
<g id="a_node30"><a xlink:href="../../d7/d8c/moduleexception_8hpp.html" target="_top" xlink:title="Exception class for modules.">
<polygon fill="white" stroke="black" points="1256.5,-112.5 1256.5,-131.5 1378.5,-131.5 1378.5,-112.5 1256.5,-112.5"/>
<text text-anchor="middle" x="1317.5" y="-119.5" font-family="Helvetica,sans-Serif" font-size="10.00">moduleexception.hpp</text>
</a>
</g>
</g>
<!-- Node18&#45;&gt;Node30 -->
<g id="edge46" class="edge">
<title>Node18&#45;&gt;Node30</title>
<path fill="none" stroke="midnightblue" d="M1561.05,-173.98C1506.94,-163.35 1418.27,-145.18 1364.1,-133.65"/>
<polygon fill="midnightblue" stroke="midnightblue" points="1364.59,-130.18 1354.08,-131.51 1363.12,-137.02 1364.59,-130.18"/>
</g>
<!-- Node31 -->
<g id="node31" class="node">
<title>Node31</title>
<g id="a_node31"><a xlink:href="../../df/d8d/scriptexception_8hpp.html" target="_top" xlink:title="Exception class for Script related errors.">
<polygon fill="white" stroke="black" points="1551,-112.5 1551,-131.5 1664,-131.5 1664,-112.5 1551,-112.5"/>
<text text-anchor="middle" x="1607.5" y="-119.5" font-family="Helvetica,sans-Serif" font-size="10.00">scriptexception.hpp</text>
</a>
</g>
</g>
<!-- Node18&#45;&gt;Node31 -->
<g id="edge49" class="edge">
<title>Node18&#45;&gt;Node31</title>
<path fill="none" stroke="midnightblue" d="M1602.6,-173.98C1600.77,-165.58 1600.3,-152.48 1601.19,-141.66"/>
<polygon fill="midnightblue" stroke="midnightblue" points="1604.69,-141.9 1602.6,-131.51 1597.75,-140.93 1604.69,-141.9"/>
</g>
<!-- Node32 -->
<g id="node32" class="node">
<title>Node32</title>
<g id="a_node32"><a xlink:href="../../dc/dce/signalexception_8hpp.html" target="_top" xlink:title="Exception class for Signal related errors.">
<polygon fill="white" stroke="black" points="1682,-112.5 1682,-131.5 1797,-131.5 1797,-112.5 1682,-112.5"/>
<text text-anchor="middle" x="1739.5" y="-119.5" font-family="Helvetica,sans-Serif" font-size="10.00">signalexception.hpp</text>
</a>
</g>
</g>
<!-- Node18&#45;&gt;Node32 -->
<g id="edge52" class="edge">
<title>Node18&#45;&gt;Node32</title>
<path fill="none" stroke="midnightblue" d="M1621.51,-173.98C1641.66,-163.9 1678.8,-147.05 1706.14,-135.5"/>
<polygon fill="midnightblue" stroke="midnightblue" points="1707.84,-138.59 1715.73,-131.51 1705.15,-132.13 1707.84,-138.59"/>
</g>
<!-- Node19&#45;&gt;Node5 -->
<g id="edge21" class="edge">
<title>Node19&#45;&gt;Node5</title>
<path fill="none" stroke="midnightblue" d="M1010.77,-112.44C955.57,-101.64 861.81,-83.3 811.98,-73.55"/>
<polygon fill="midnightblue" stroke="midnightblue" points="812.52,-70.09 802.04,-71.6 811.18,-76.96 812.52,-70.09"/>
</g>
<!-- Node19&#45;&gt;Node16 -->
<g id="edge20" class="edge">
<title>Node19&#45;&gt;Node16</title>
<path fill="none" stroke="midnightblue" d="M1106.4,-112.45C1184.76,-99.64 1338,-74.93 1468.5,-56 1580.69,-39.73 1714.17,-22.62 1774.31,-15.03"/>
<polygon fill="midnightblue" stroke="midnightblue" points="1774.84,-18.49 1784.33,-13.77 1773.97,-11.55 1774.84,-18.49"/>
</g>
<!-- Node22&#45;&gt;Node16 -->
<g id="edge30" class="edge">
<title>Node22&#45;&gt;Node16</title>
<path fill="none" stroke="midnightblue" d="M2145.01,-112.46C2077.59,-92.25 1908.66,-41.62 1838.17,-20.49"/>
<polygon fill="midnightblue" stroke="midnightblue" points="1839.09,-17.12 1828.51,-17.6 1837.08,-23.82 1839.09,-17.12"/>
</g>
<!-- Node22&#45;&gt;Node18 -->
<g id="edge26" class="edge">
<title>Node22&#45;&gt;Node18</title>
<path fill="none" stroke="midnightblue" d="M2119.38,-131.54C2118.08,-131.69 2116.78,-131.85 2115.5,-132 1971.55,-148.95 1803.83,-165.21 1701.63,-174.51"/>
<polygon fill="midnightblue" stroke="midnightblue" points="1701.29,-171.02 1691.65,-175.41 1701.92,-178 1701.29,-171.02"/>
</g>
<!-- Node23 -->
<g id="node23" class="node">
<title>Node23</title>
<g id="a_node23"><a xlink:href="../../dd/d35/Colorize_8hpp.html" target="_top" xlink:title=" ">
<polygon fill="white" stroke="black" points="2533.5,-56.5 2533.5,-75.5 2637.5,-75.5 2637.5,-56.5 2533.5,-56.5"/>
<text text-anchor="middle" x="2585.5" y="-63.5" font-family="Helvetica,sans-Serif" font-size="10.00">tools/Colorize.hpp</text>
</a>
</g>
</g>
<!-- Node22&#45;&gt;Node23 -->
<g id="edge27" class="edge">
<title>Node22&#45;&gt;Node23</title>
<path fill="none" stroke="midnightblue" d="M2231.22,-113.43C2308.16,-103.35 2443.79,-85.57 2523.05,-75.18"/>
<polygon fill="midnightblue" stroke="midnightblue" points="2523.92,-78.6 2533.38,-73.83 2523.01,-71.66 2523.92,-78.6"/>
</g>
<!-- Node23&#45;&gt;Node16 -->
<g id="edge29" class="edge">
<title>Node23&#45;&gt;Node16</title>
<path fill="none" stroke="midnightblue" d="M2533.3,-57.53C2528.64,-56.97 2523.99,-56.45 2519.5,-56 2257.52,-29.91 1939.79,-16.15 1838.88,-12.21"/>
<polygon fill="midnightblue" stroke="midnightblue" points="1838.85,-8.7 1828.73,-11.81 1838.58,-15.7 1838.85,-8.7"/>
</g>
<!-- Node24 -->
<g id="node24" class="node">
<title>Node24</title>
<g id="a_node24"><a xlink:title=" ">
<polygon fill="white" stroke="#bfbfbf" points="2597.5,-0.5 2597.5,-19.5 2653.5,-19.5 2653.5,-0.5 2597.5,-0.5"/>
<text text-anchor="middle" x="2625.5" y="-7.5" font-family="Helvetica,sans-Serif" font-size="10.00">sstream</text>
</a>
</g>
</g>
<!-- Node23&#45;&gt;Node24 -->
<g id="edge28" class="edge">
<title>Node23&#45;&gt;Node24</title>
<path fill="none" stroke="midnightblue" d="M2592.11,-56.08C2597.76,-48.46 2606.04,-37.26 2612.95,-27.94"/>
<polygon fill="midnightblue" stroke="midnightblue" points="2615.88,-29.87 2619.02,-19.75 2610.25,-25.7 2615.88,-29.87"/>
</g>
<!-- Node25&#45;&gt;Node16 -->
<g id="edge32" class="edge">
<title>Node25&#45;&gt;Node16</title>
<path fill="none" stroke="midnightblue" d="M1899.57,-112.37C1882.69,-93.97 1842.93,-50.67 1821.24,-27.05"/>
<polygon fill="midnightblue" stroke="midnightblue" points="1823.73,-24.59 1814.39,-19.59 1818.57,-29.32 1823.73,-24.59"/>
</g>
<!-- Node25&#45;&gt;Node18 -->
<g id="edge33" class="edge">
<title>Node25&#45;&gt;Node18</title>
<path fill="none" stroke="midnightblue" d="M1869.49,-131.51C1817.96,-142.19 1725.69,-160.52 1665.49,-172.05"/>
<polygon fill="midnightblue" stroke="midnightblue" points="1664.55,-168.66 1655.38,-173.98 1665.86,-175.54 1664.55,-168.66"/>
</g>
<!-- Node26&#45;&gt;Node16 -->
<g id="edge35" class="edge">
<title>Node26&#45;&gt;Node16</title>
<path fill="none" stroke="midnightblue" d="M2020.3,-112.37C1979.72,-93.13 1881.68,-46.65 1833.77,-23.93"/>
<polygon fill="midnightblue" stroke="midnightblue" points="1835.16,-20.71 1824.62,-19.59 1832.16,-27.04 1835.16,-20.71"/>
</g>
<!-- Node26&#45;&gt;Node18 -->
<g id="edge36" class="edge">
<title>Node26&#45;&gt;Node18</title>
<path fill="none" stroke="midnightblue" d="M1981.76,-131.51C1905.46,-142.37 1769.69,-161.13 1684.31,-172.61"/>
<polygon fill="midnightblue" stroke="midnightblue" points="1683.6,-169.18 1674.15,-173.98 1684.53,-176.11 1683.6,-169.18"/>
</g>
<!-- Node27&#45;&gt;Node16 -->
<g id="edge38" class="edge">
<title>Node27&#45;&gt;Node16</title>
<path fill="none" stroke="midnightblue" d="M850.34,-112.45C922.89,-98.6 1072.63,-71.26 1200.5,-56 1418.94,-29.92 1683.59,-16.47 1774.24,-12.38"/>
<polygon fill="midnightblue" stroke="midnightblue" points="1774.58,-15.87 1784.42,-11.93 1774.27,-8.87 1774.58,-15.87"/>
</g>
<!-- Node27&#45;&gt;Node18 -->
<g id="edge39" class="edge">
<title>Node27&#45;&gt;Node18</title>
<path fill="none" stroke="midnightblue" d="M864.79,-130C870.79,-130.73 876.78,-131.42 882.5,-132 1108.45,-154.92 1374.6,-170.37 1513.11,-177.66"/>
<polygon fill="midnightblue" stroke="midnightblue" points="1513.09,-181.16 1523.26,-178.19 1513.46,-174.17 1513.09,-181.16"/>
</g>
<!-- Node28&#45;&gt;Node16 -->
<g id="edge41" class="edge">
<title>Node28&#45;&gt;Node16</title>
<path fill="none" stroke="midnightblue" d="M977.91,-112.49C1053.98,-99.06 1208.09,-72.76 1339.5,-56 1501.99,-35.28 1697.39,-19.34 1773.71,-13.46"/>
<polygon fill="midnightblue" stroke="midnightblue" points="1774.38,-16.92 1784.09,-12.67 1773.85,-9.94 1774.38,-16.92"/>
</g>
<!-- Node28&#45;&gt;Node18 -->
<g id="edge42" class="edge">
<title>Node28&#45;&gt;Node18</title>
<path fill="none" stroke="midnightblue" d="M978.28,-129.54C984.44,-130.44 990.63,-131.3 996.5,-132 1178.97,-153.81 1392.8,-168.94 1513.04,-176.63"/>
<polygon fill="midnightblue" stroke="midnightblue" points="1513.1,-180.14 1523.31,-177.28 1513.55,-173.16 1513.1,-180.14"/>
</g>
<!-- Node29&#45;&gt;Node16 -->
<g id="edge45" class="edge">
<title>Node29&#45;&gt;Node16</title>
<path fill="none" stroke="midnightblue" d="M1238.24,-113.02C1295.42,-104.41 1388.47,-90.03 1468.5,-76 1581.21,-56.24 1714.44,-29.67 1774.41,-17.54"/>
<polygon fill="midnightblue" stroke="midnightblue" points="1775.29,-20.93 1784.4,-15.51 1773.9,-14.07 1775.29,-20.93"/>
</g>
<!-- Node29&#45;&gt;Node18 -->
<g id="edge44" class="edge">
<title>Node29&#45;&gt;Node18</title>
<path fill="none" stroke="midnightblue" d="M1238.15,-129.41C1244.37,-130.28 1250.59,-131.16 1256.5,-132 1356.56,-146.17 1472.29,-162.37 1542.74,-172.52"/>
<polygon fill="midnightblue" stroke="midnightblue" points="1542.4,-176 1552.8,-173.97 1543.4,-169.08 1542.4,-176"/>
</g>
<!-- Node30&#45;&gt;Node16 -->
<g id="edge47" class="edge">
<title>Node30&#45;&gt;Node16</title>
<path fill="none" stroke="midnightblue" d="M1378.66,-113.22C1434.28,-105.6 1518.44,-92.71 1590.5,-76 1656.93,-60.6 1732.93,-36.07 1774.75,-21.96"/>
<polygon fill="midnightblue" stroke="midnightblue" points="1776.02,-25.23 1784.37,-18.7 1773.77,-18.6 1776.02,-25.23"/>
</g>
<!-- Node30&#45;&gt;Node18 -->
<g id="edge48" class="edge">
<title>Node30&#45;&gt;Node18</title>
<path fill="none" stroke="midnightblue" d="M1363.87,-131.51C1417.94,-142.13 1506.62,-160.29 1560.82,-171.83"/>
<polygon fill="midnightblue" stroke="midnightblue" points="1560.34,-175.31 1570.85,-173.98 1561.8,-168.46 1560.34,-175.31"/>
</g>
<!-- Node31&#45;&gt;Node16 -->
<g id="edge50" class="edge">
<title>Node31&#45;&gt;Node16</title>
<path fill="none" stroke="midnightblue" d="M1623.12,-112.37C1657.63,-93.29 1740.61,-47.42 1782.07,-24.51"/>
<polygon fill="midnightblue" stroke="midnightblue" points="1783.9,-27.49 1790.96,-19.59 1780.51,-21.37 1783.9,-27.49"/>
</g>
<!-- Node31&#45;&gt;Node18 -->
<g id="edge51" class="edge">
<title>Node31&#45;&gt;Node18</title>
<path fill="none" stroke="midnightblue" d="M1612.4,-131.51C1614.23,-139.9 1614.7,-153 1613.82,-163.82"/>
<polygon fill="midnightblue" stroke="midnightblue" points="1610.31,-163.59 1612.4,-173.98 1617.25,-164.55 1610.31,-163.59"/>
</g>
<!-- Node32&#45;&gt;Node16 -->
<g id="edge53" class="edge">
<title>Node32&#45;&gt;Node16</title>
<path fill="none" stroke="midnightblue" d="M1744.76,-112.37C1755.77,-94.3 1781.42,-52.18 1795.96,-28.31"/>
<polygon fill="midnightblue" stroke="midnightblue" points="1799.05,-29.95 1801.27,-19.59 1793.08,-26.31 1799.05,-29.95"/>
</g>
<!-- Node32&#45;&gt;Node18 -->
<g id="edge54" class="edge">
<title>Node32&#45;&gt;Node18</title>
<path fill="none" stroke="midnightblue" d="M1725.52,-131.51C1705.39,-141.58 1668.25,-158.42 1640.9,-169.98"/>
<polygon fill="midnightblue" stroke="midnightblue" points="1639.2,-166.9 1631.31,-173.98 1641.89,-173.36 1639.2,-166.9"/>
</g>
<!-- Node33&#45;&gt;Node16 -->
<g id="edge61" class="edge">
<title>Node33&#45;&gt;Node16</title>
<path fill="none" stroke="midnightblue" d="M2392.41,-173.88C2369.61,-165.95 2338.21,-152.31 2316.5,-132 2288.16,-105.49 2306.05,-77.14 2273.5,-56 2237.17,-32.4 1938.69,-16.95 1838.88,-12.4"/>
<polygon fill="midnightblue" stroke="midnightblue" points="1838.93,-8.9 1828.78,-11.95 1838.61,-15.89 1838.93,-8.9"/>
</g>
<!-- Node33&#45;&gt;Node24 -->
<g id="edge60" class="edge">
<title>Node33&#45;&gt;Node24</title>
<path fill="none" stroke="midnightblue" d="M2461.57,-179.29C2519.61,-173.71 2622.65,-160.05 2645.5,-132 2669.71,-102.27 2649.96,-54.48 2636.12,-28.76"/>
<polygon fill="midnightblue" stroke="midnightblue" points="2639.01,-26.76 2631.04,-19.78 2632.91,-30.21 2639.01,-26.76"/>
</g>
<!-- Node34 -->
<g id="node34" class="node">
<title>Node34</title>
<g id="a_node34"><a xlink:title=" ">
<polygon fill="white" stroke="#bfbfbf" points="2325.5,-112.5 2325.5,-131.5 2377.5,-131.5 2377.5,-112.5 2325.5,-112.5"/>
<text text-anchor="middle" x="2351.5" y="-119.5" font-family="Helvetica,sans-Serif" font-size="10.00">cassert</text>
</a>
</g>
</g>
<!-- Node33&#45;&gt;Node34 -->
<g id="edge56" class="edge">
<title>Node33&#45;&gt;Node34</title>
<path fill="none" stroke="midnightblue" d="M2411.47,-173.98C2400.45,-164.61 2382.54,-149.38 2369.16,-138.01"/>
<polygon fill="midnightblue" stroke="midnightblue" points="2371.4,-135.32 2361.51,-131.51 2366.86,-140.65 2371.4,-135.32"/>
</g>
<!-- Node35 -->
<g id="node35" class="node">
<title>Node35</title>
<g id="a_node35"><a xlink:title=" ">
<polygon fill="white" stroke="#bfbfbf" points="2396,-112.5 2396,-131.5 2447,-131.5 2447,-112.5 2396,-112.5"/>
<text text-anchor="middle" x="2421.5" y="-119.5" font-family="Helvetica,sans-Serif" font-size="10.00">csignal</text>
</a>
</g>
</g>
<!-- Node33&#45;&gt;Node35 -->
<g id="edge57" class="edge">
<title>Node33&#45;&gt;Node35</title>
<path fill="none" stroke="midnightblue" d="M2421.5,-173.98C2421.5,-165.58 2421.5,-152.48 2421.5,-141.66"/>
<polygon fill="midnightblue" stroke="midnightblue" points="2425,-141.51 2421.5,-131.51 2418,-141.51 2425,-141.51"/>
</g>
<!-- Node36 -->
<g id="node36" class="node">
<title>Node36</title>
<g id="a_node36"><a xlink:title=" ">
<polygon fill="white" stroke="#bfbfbf" points="2465.5,-112.5 2465.5,-131.5 2525.5,-131.5 2525.5,-112.5 2465.5,-112.5"/>
<text text-anchor="middle" x="2495.5" y="-119.5" font-family="Helvetica,sans-Serif" font-size="10.00">iostream</text>
</a>
</g>
</g>
<!-- Node33&#45;&gt;Node36 -->
<g id="edge58" class="edge">
<title>Node33&#45;&gt;Node36</title>
<path fill="none" stroke="midnightblue" d="M2432.1,-173.98C2443.75,-164.61 2462.69,-149.38 2476.83,-138.01"/>
<polygon fill="midnightblue" stroke="midnightblue" points="2479.32,-140.5 2484.92,-131.51 2474.93,-135.05 2479.32,-140.5"/>
</g>
<!-- Node37 -->
<g id="node37" class="node">
<title>Node37</title>
<g id="a_node37"><a xlink:title=" ">
<polygon fill="white" stroke="#bfbfbf" points="2544,-112.5 2544,-131.5 2637,-131.5 2637,-112.5 2544,-112.5"/>
<text text-anchor="middle" x="2590.5" y="-119.5" font-family="Helvetica,sans-Serif" font-size="10.00">spdlog/spdlog.h</text>
</a>
</g>
</g>
<!-- Node33&#45;&gt;Node37 -->
<g id="edge59" class="edge">
<title>Node33&#45;&gt;Node37</title>
<path fill="none" stroke="midnightblue" d="M2445.71,-173.98C2474.83,-163.72 2523.87,-146.46 2556.7,-134.9"/>
<polygon fill="midnightblue" stroke="midnightblue" points="2558.06,-138.13 2566.33,-131.51 2555.74,-131.53 2558.06,-138.13"/>
</g>
<!-- Node40&#45;&gt;Node16 -->
<g id="edge70" class="edge">
<title>Node40&#45;&gt;Node16</title>
<path fill="none" stroke="midnightblue" d="M2702.49,-235.18C2699.24,-211.08 2686.7,-143.84 2645.5,-112 2580.38,-61.67 1984.85,-21.98 1838.75,-12.94"/>
<polygon fill="midnightblue" stroke="midnightblue" points="1838.83,-9.44 1828.64,-12.32 1838.41,-16.42 1838.83,-9.44"/>
</g>
<!-- Node41 -->
<g id="node41" class="node">
<title>Node41</title>
<g id="a_node41"><a xlink:title=" ">
<polygon fill="white" stroke="#bfbfbf" points="2731.5,-174 2731.5,-193 2781.5,-193 2781.5,-174 2731.5,-174"/>
<text text-anchor="middle" x="2756.5" y="-181" font-family="Helvetica,sans-Serif" font-size="10.00">cstdint</text>
</a>
</g>
</g>
<!-- Node40&#45;&gt;Node41 -->
<g id="edge69" class="edge">
<title>Node40&#45;&gt;Node41</title>
<path fill="none" stroke="midnightblue" d="M2711.09,-235.48C2719.2,-226.37 2732.23,-211.74 2742.26,-200.48"/>
<polygon fill="midnightblue" stroke="midnightblue" points="2744.88,-202.8 2748.92,-193.01 2739.66,-198.15 2744.88,-202.8"/>
</g>
</g>
</svg>
