<?xml version="1.0" encoding="UTF-8" standalone="no"?>
<!DOCTYPE svg PUBLIC "-//W3C//DTD SVG 1.1//EN"
 "http://www.w3.org/Graphics/SVG/1.1/DTD/svg11.dtd">
<!-- Generated by graphviz version 2.43.0 (0)
 -->
<!-- Title: src/tools/MyTime.cpp Pages: 1 -->
<!--zoomable 252 -->
<svg id="main" version="1.1" xmlns="http://www.w3.org/2000/svg" xmlns:xlink="http://www.w3.org/1999/xlink" xml:space="preserve" onload="init(evt)">
<style type="text/css"><![CDATA[
.edge:hover path { stroke: red; }
.edge:hover polygon { stroke: red; fill: red; }
]]></style>
<script type="text/javascript"><![CDATA[
var edges = document.getElementsByTagName('g');
if (edges && edges.length) {
  for (var i=0;i<edges.length;i++) {
    if (edges[i].id.substr(0,4)=='edge') {
      edges[i].setAttribute('class','edge');
    }
  }
}
]]></script>
        <defs>
                <circle id="rim" cx="0" cy="0" r="7"/>
                <circle id="rim2" cx="0" cy="0" r="3.5"/>
                <g id="zoomPlus">
                        <use xlink:href="#rim" fill="#404040">
                                <set attributeName="fill" to="#808080" begin="zoomplus.mouseover" end="zoomplus.mouseout"/>
                        </use>
                        <path d="M-4,0h8M0,-4v8" fill="none" stroke="white" stroke-width="1.5" pointer-events="none"/>
                </g>
                <g id="zoomMin">
                        <use xlink:href="#rim" fill="#404040">
                                <set attributeName="fill" to="#808080" begin="zoomminus.mouseover" end="zoomminus.mouseout"/>
                        </use>
                        <path d="M-4,0h8" fill="none" stroke="white" stroke-width="1.5" pointer-events="none"/>
                </g>
                <g id="dirArrow">
                        <path fill="none" stroke="white" stroke-width="1.5" d="M0,-3.0v7 M-2.5,-0.5L0,-3.0L2.5,-0.5"/>
                </g>
               <g id="resetDef">
                       <use xlink:href="#rim2" fill="#404040">
                               <set attributeName="fill" to="#808080" begin="reset.mouseover" end="reset.mouseout"/>
                       </use>
               </g>
        </defs>

<script type="text/javascript">
var viewWidth = 2089;
var viewHeight = 252;
var sectionId = 'dynsection-0';
</script>
<script xlink:href="../../svgpan.js"/>
<svg id="graph" class="graph">
<g id="viewport">
<title>src/tools/MyTime.cpp</title>
<polygon fill="white" stroke="transparent" points="-4,4 -4,-248 2084.5,-248 2084.5,4 -4,4"/>
<!-- Node1 -->
<g id="node1" class="node">
<title>Node1</title>
<g id="a_node1"><a xlink:title=" ">
<polygon fill="#bfbfbf" stroke="black" points="1396.5,-224.5 1396.5,-243.5 1517.5,-243.5 1517.5,-224.5 1396.5,-224.5"/>
<text text-anchor="middle" x="1457" y="-231.5" font-family="Helvetica,sans-Serif" font-size="10.00">src/tools/MyTime.cpp</text>
</a>
</g>
</g>
<!-- Node2 -->
<g id="node2" class="node">
<title>Node2</title>
<g id="a_node2"><a xlink:href="../../d6/d41/MyTime_8hpp.html" target="_top" xlink:title=" ">
<polygon fill="white" stroke="black" points="143,-168.5 143,-187.5 247,-187.5 247,-168.5 143,-168.5"/>
<text text-anchor="middle" x="195" y="-175.5" font-family="Helvetica,sans-Serif" font-size="10.00">tools/MyTime.hpp</text>
</a>
</g>
</g>
<!-- Node1&#45;&gt;Node2 -->
<g id="edge1" class="edge">
<title>Node1&#45;&gt;Node2</title>
<path fill="none" stroke="midnightblue" d="M1396.13,-230.4C1183.1,-221.28 472.38,-190.87 257.24,-181.66"/>
<polygon fill="midnightblue" stroke="midnightblue" points="257.21,-178.16 247.07,-181.23 256.91,-185.15 257.21,-178.16"/>
</g>
<!-- Node3 -->
<g id="node3" class="node">
<title>Node3</title>
<g id="a_node3"><a xlink:title=" ">
<polygon fill="white" stroke="#bfbfbf" points="0,-112.5 0,-131.5 50,-131.5 50,-112.5 0,-112.5"/>
<text text-anchor="middle" x="25" y="-119.5" font-family="Helvetica,sans-Serif" font-size="10.00">chrono</text>
</a>
</g>
</g>
<!-- Node1&#45;&gt;Node3 -->
<g id="edge51" class="edge">
<title>Node1&#45;&gt;Node3</title>
<path fill="none" stroke="midnightblue" d="M1396.4,-232.71C1153.28,-231.33 255.82,-223.8 134,-188 99.04,-177.73 63.76,-153.6 43.17,-137.81"/>
<polygon fill="midnightblue" stroke="midnightblue" points="45.31,-135.04 35.28,-131.61 40.98,-140.54 45.31,-135.04"/>
</g>
<!-- Node8 -->
<g id="node8" class="node">
<title>Node8</title>
<g id="a_node8"><a xlink:href="../../d1/ddd/leosacexception_8hpp.html" target="_top" xlink:title="Exception class for LEOSAC Project related errors.">
<polygon fill="white" stroke="black" points="1012,-168.5 1012,-187.5 1180,-187.5 1180,-168.5 1012,-168.5"/>
<text text-anchor="middle" x="1096" y="-175.5" font-family="Helvetica,sans-Serif" font-size="10.00">exception/leosacexception.hpp</text>
</a>
</g>
</g>
<!-- Node1&#45;&gt;Node8 -->
<g id="edge7" class="edge">
<title>Node1&#45;&gt;Node8</title>
<path fill="none" stroke="midnightblue" d="M1399.8,-224.44C1335.5,-214.83 1231.22,-199.23 1163.13,-189.04"/>
<polygon fill="midnightblue" stroke="midnightblue" points="1163.34,-185.53 1152.93,-187.52 1162.31,-192.46 1163.34,-185.53"/>
</g>
<!-- Node15 -->
<g id="node15" class="node">
<title>Node15</title>
<g id="a_node15"><a xlink:title=" ">
<polygon fill="white" stroke="#bfbfbf" points="1695,-0.5 1695,-19.5 1751,-19.5 1751,-0.5 1695,-0.5"/>
<text text-anchor="middle" x="1723" y="-7.5" font-family="Helvetica,sans-Serif" font-size="10.00">sstream</text>
</a>
</g>
</g>
<!-- Node1&#45;&gt;Node15 -->
<g id="edge53" class="edge">
<title>Node1&#45;&gt;Node15</title>
<path fill="none" stroke="midnightblue" d="M1514.13,-224.47C1602.26,-210.01 1764.81,-177.75 1799,-132 1811.48,-115.3 1797.87,-76.34 1784,-56 1775.2,-43.09 1761.44,-32.48 1749.21,-24.8"/>
<polygon fill="midnightblue" stroke="midnightblue" points="1750.66,-21.59 1740.27,-19.52 1747.1,-27.62 1750.66,-21.59"/>
</g>
<!-- Node24 -->
<g id="node24" class="node">
<title>Node24</title>
<g id="a_node24"><a xlink:href="../../d4/d3d/log_8hpp.html" target="_top" xlink:title=" ">
<polygon fill="white" stroke="black" points="1846,-56.5 1846,-75.5 1926,-75.5 1926,-56.5 1846,-56.5"/>
<text text-anchor="middle" x="1886" y="-63.5" font-family="Helvetica,sans-Serif" font-size="10.00">tools/log.hpp</text>
</a>
</g>
</g>
<!-- Node1&#45;&gt;Node24 -->
<g id="edge44" class="edge">
<title>Node1&#45;&gt;Node24</title>
<path fill="none" stroke="midnightblue" d="M1517.78,-232.82C1610.96,-231.38 1783.44,-223.8 1832,-188 1865.38,-163.4 1878.52,-113.45 1883.38,-86.05"/>
<polygon fill="midnightblue" stroke="midnightblue" points="1886.89,-86.25 1884.99,-75.83 1879.98,-85.16 1886.89,-86.25"/>
</g>
<!-- Node29 -->
<g id="node29" class="node">
<title>Node29</title>
<g id="a_node29"><a xlink:title=" ">
<polygon fill="white" stroke="#bfbfbf" points="1884,-168.5 1884,-187.5 1940,-187.5 1940,-168.5 1884,-168.5"/>
<text text-anchor="middle" x="1912" y="-175.5" font-family="Helvetica,sans-Serif" font-size="10.00">iomanip</text>
</a>
</g>
</g>
<!-- Node1&#45;&gt;Node29 -->
<g id="edge52" class="edge">
<title>Node1&#45;&gt;Node29</title>
<path fill="none" stroke="midnightblue" d="M1517.8,-228.34C1598.57,-221.7 1745.57,-208.06 1870,-188 1871.24,-187.8 1872.5,-187.59 1873.78,-187.36"/>
<polygon fill="midnightblue" stroke="midnightblue" points="1874.44,-190.8 1883.61,-185.5 1873.13,-183.92 1874.44,-190.8"/>
</g>
<!-- Node2&#45;&gt;Node3 -->
<g id="edge2" class="edge">
<title>Node2&#45;&gt;Node3</title>
<path fill="none" stroke="midnightblue" d="M168.06,-168.44C138.83,-159.16 92.05,-144.3 60,-134.12"/>
<polygon fill="midnightblue" stroke="midnightblue" points="60.74,-130.68 50.15,-130.99 58.62,-137.35 60.74,-130.68"/>
</g>
<!-- Node4 -->
<g id="node4" class="node">
<title>Node4</title>
<g id="a_node4"><a xlink:title=" ">
<polygon fill="white" stroke="#bfbfbf" points="68.5,-112.5 68.5,-131.5 117.5,-131.5 117.5,-112.5 68.5,-112.5"/>
<text text-anchor="middle" x="93" y="-119.5" font-family="Helvetica,sans-Serif" font-size="10.00">cstdlib</text>
</a>
</g>
</g>
<!-- Node2&#45;&gt;Node4 -->
<g id="edge3" class="edge">
<title>Node2&#45;&gt;Node4</title>
<path fill="none" stroke="midnightblue" d="M178.61,-168.32C162.33,-159.7 137.13,-146.36 118.28,-136.39"/>
<polygon fill="midnightblue" stroke="midnightblue" points="119.82,-133.24 109.35,-131.65 116.55,-139.43 119.82,-133.24"/>
</g>
<!-- Node5 -->
<g id="node5" class="node">
<title>Node5</title>
<g id="a_node5"><a xlink:title=" ">
<polygon fill="white" stroke="#bfbfbf" points="136,-112.5 136,-131.5 180,-131.5 180,-112.5 136,-112.5"/>
<text text-anchor="middle" x="158" y="-119.5" font-family="Helvetica,sans-Serif" font-size="10.00">ctime</text>
</a>
</g>
</g>
<!-- Node2&#45;&gt;Node5 -->
<g id="edge4" class="edge">
<title>Node2&#45;&gt;Node5</title>
<path fill="none" stroke="midnightblue" d="M188.89,-168.08C183.72,-160.53 176.15,-149.49 169.81,-140.23"/>
<polygon fill="midnightblue" stroke="midnightblue" points="172.54,-138.02 164,-131.75 166.76,-141.98 172.54,-138.02"/>
</g>
<!-- Node6 -->
<g id="node6" class="node">
<title>Node6</title>
<g id="a_node6"><a xlink:title=" ">
<polygon fill="white" stroke="#bfbfbf" points="198.5,-112.5 198.5,-131.5 251.5,-131.5 251.5,-112.5 198.5,-112.5"/>
<text text-anchor="middle" x="225" y="-119.5" font-family="Helvetica,sans-Serif" font-size="10.00">string.h</text>
</a>
</g>
</g>
<!-- Node2&#45;&gt;Node6 -->
<g id="edge5" class="edge">
<title>Node2&#45;&gt;Node6</title>
<path fill="none" stroke="midnightblue" d="M199.95,-168.08C204.1,-160.61 210.15,-149.72 215.27,-140.52"/>
<polygon fill="midnightblue" stroke="midnightblue" points="218.34,-142.19 220.14,-131.75 212.22,-138.79 218.34,-142.19"/>
</g>
<!-- Node7 -->
<g id="node7" class="node">
<title>Node7</title>
<g id="a_node7"><a xlink:title=" ">
<polygon fill="white" stroke="#bfbfbf" points="1055,-0.5 1055,-19.5 1099,-19.5 1099,-0.5 1055,-0.5"/>
<text text-anchor="middle" x="1077" y="-7.5" font-family="Helvetica,sans-Serif" font-size="10.00">string</text>
</a>
</g>
</g>
<!-- Node2&#45;&gt;Node7 -->
<g id="edge6" class="edge">
<title>Node2&#45;&gt;Node7</title>
<path fill="none" stroke="midnightblue" d="M207.69,-168.26C231,-152.34 280.01,-119.56 299,-112 416.11,-65.4 452.27,-74.12 577,-56 752.46,-30.51 964.8,-17.11 1044.6,-12.69"/>
<polygon fill="midnightblue" stroke="midnightblue" points="1045.17,-16.16 1054.97,-12.12 1044.79,-9.17 1045.17,-16.16"/>
</g>
<!-- Node8&#45;&gt;Node7 -->
<g id="edge13" class="edge">
<title>Node8&#45;&gt;Node7</title>
<path fill="none" stroke="midnightblue" d="M1094.98,-168.08C1091.99,-141.95 1083.2,-65.21 1079.13,-29.58"/>
<polygon fill="midnightblue" stroke="midnightblue" points="1082.6,-29.11 1077.98,-19.57 1075.64,-29.9 1082.6,-29.11"/>
</g>
<!-- Node9 -->
<g id="node9" class="node">
<title>Node9</title>
<g id="a_node9"><a xlink:href="../../d6/d2f/Stacktrace_8hpp.html" target="_top" xlink:title=" ">
<polygon fill="white" stroke="black" points="952,-112.5 952,-131.5 1068,-131.5 1068,-112.5 952,-112.5"/>
<text text-anchor="middle" x="1010" y="-119.5" font-family="Helvetica,sans-Serif" font-size="10.00">tools/Stacktrace.hpp</text>
</a>
</g>
</g>
<!-- Node8&#45;&gt;Node9 -->
<g id="edge8" class="edge">
<title>Node8&#45;&gt;Node9</title>
<path fill="none" stroke="midnightblue" d="M1082.18,-168.32C1068.77,-159.9 1048.18,-146.97 1032.41,-137.07"/>
<polygon fill="midnightblue" stroke="midnightblue" points="1034.11,-134.01 1023.78,-131.65 1030.39,-139.94 1034.11,-134.01"/>
</g>
<!-- Node11 -->
<g id="node11" class="node">
<title>Node11</title>
<g id="a_node11"><a xlink:title=" ">
<polygon fill="white" stroke="#bfbfbf" points="1124.5,-112.5 1124.5,-131.5 1177.5,-131.5 1177.5,-112.5 1124.5,-112.5"/>
<text text-anchor="middle" x="1151" y="-119.5" font-family="Helvetica,sans-Serif" font-size="10.00">cstddef</text>
</a>
</g>
</g>
<!-- Node8&#45;&gt;Node11 -->
<g id="edge11" class="edge">
<title>Node8&#45;&gt;Node11</title>
<path fill="none" stroke="midnightblue" d="M1105.08,-168.08C1113.17,-160.14 1125.2,-148.34 1134.91,-138.8"/>
<polygon fill="midnightblue" stroke="midnightblue" points="1137.4,-141.25 1142.09,-131.75 1132.5,-136.26 1137.4,-141.25"/>
</g>
<!-- Node12 -->
<g id="node12" class="node">
<title>Node12</title>
<g id="a_node12"><a xlink:title=" ">
<polygon fill="white" stroke="#bfbfbf" points="1195.5,-112.5 1195.5,-131.5 1260.5,-131.5 1260.5,-112.5 1195.5,-112.5"/>
<text text-anchor="middle" x="1228" y="-119.5" font-family="Helvetica,sans-Serif" font-size="10.00">exception</text>
</a>
</g>
</g>
<!-- Node8&#45;&gt;Node12 -->
<g id="edge12" class="edge">
<title>Node8&#45;&gt;Node12</title>
<path fill="none" stroke="midnightblue" d="M1116.92,-168.44C1138.74,-159.52 1173.15,-145.44 1197.89,-135.32"/>
<polygon fill="midnightblue" stroke="midnightblue" points="1199.25,-138.54 1207.18,-131.52 1196.6,-132.06 1199.25,-138.54"/>
</g>
<!-- Node13 -->
<g id="node13" class="node">
<title>Node13</title>
<g id="a_node13"><a xlink:href="../../d7/d7a/configexception_8hpp.html" target="_top" xlink:title=" ">
<polygon fill="white" stroke="black" points="1674.5,-112.5 1674.5,-131.5 1789.5,-131.5 1789.5,-112.5 1674.5,-112.5"/>
<text text-anchor="middle" x="1732" y="-119.5" font-family="Helvetica,sans-Serif" font-size="10.00">configexception.hpp</text>
</a>
</g>
</g>
<!-- Node8&#45;&gt;Node13 -->
<g id="edge14" class="edge">
<title>Node8&#45;&gt;Node13</title>
<path fill="none" stroke="midnightblue" d="M1180.01,-171.39C1289.65,-164.05 1487.26,-149.99 1656,-132 1658.7,-131.71 1661.45,-131.4 1664.24,-131.08"/>
<polygon fill="midnightblue" stroke="midnightblue" points="1664.93,-134.52 1674.44,-129.85 1664.09,-127.57 1664.93,-134.52"/>
</g>
<!-- Node16 -->
<g id="node16" class="node">
<title>Node16</title>
<g id="a_node16"><a xlink:href="../../d8/db0/coreexception_8hpp.html" target="_top" xlink:title="Exception class for Core related errors.">
<polygon fill="white" stroke="black" points="1278.5,-112.5 1278.5,-131.5 1385.5,-131.5 1385.5,-112.5 1278.5,-112.5"/>
<text text-anchor="middle" x="1332" y="-119.5" font-family="Helvetica,sans-Serif" font-size="10.00">coreexception.hpp</text>
</a>
</g>
</g>
<!-- Node8&#45;&gt;Node16 -->
<g id="edge20" class="edge">
<title>Node8&#45;&gt;Node16</title>
<path fill="none" stroke="midnightblue" d="M1128.31,-168.44C1167.41,-159.02 1233.52,-143.87 1279.84,-133.68"/>
<polygon fill="midnightblue" stroke="midnightblue" points="1280.68,-137.07 1289.7,-131.52 1279.18,-130.24 1280.68,-137.07"/>
</g>
<!-- Node17 -->
<g id="node17" class="node">
<title>Node17</title>
<g id="a_node17"><a xlink:href="../../d8/d77/deviceexception_8hpp.html" target="_top" xlink:title="Exception class for Device related errors.">
<polygon fill="white" stroke="black" points="1404,-112.5 1404,-131.5 1522,-131.5 1522,-112.5 1404,-112.5"/>
<text text-anchor="middle" x="1463" y="-119.5" font-family="Helvetica,sans-Serif" font-size="10.00">deviceexception.hpp</text>
</a>
</g>
</g>
<!-- Node8&#45;&gt;Node17 -->
<g id="edge23" class="edge">
<title>Node8&#45;&gt;Node17</title>
<path fill="none" stroke="midnightblue" d="M1149.06,-168.44C1213.57,-158.64 1322.43,-142.61 1393.54,-132.44"/>
<polygon fill="midnightblue" stroke="midnightblue" points="1394.34,-135.87 1403.75,-130.99 1393.35,-128.94 1394.34,-135.87"/>
</g>
<!-- Node18 -->
<g id="node18" class="node">
<title>Node18</title>
<g id="a_node18"><a xlink:href="../../db/d35/dynlibexception_8hpp.html" target="_top" xlink:title="Exception class for DynLib related errors.">
<polygon fill="white" stroke="black" points="1540,-112.5 1540,-131.5 1656,-131.5 1656,-112.5 1540,-112.5"/>
<text text-anchor="middle" x="1598" y="-119.5" font-family="Helvetica,sans-Serif" font-size="10.00">dynlibexception.hpp</text>
</a>
</g>
</g>
<!-- Node8&#45;&gt;Node18 -->
<g id="edge26" class="edge">
<title>Node8&#45;&gt;Node18</title>
<path fill="none" stroke="midnightblue" d="M1179.18,-168.49C1265.1,-159.98 1402.88,-146.16 1522,-132 1524.5,-131.7 1527.05,-131.39 1529.63,-131.07"/>
<polygon fill="midnightblue" stroke="midnightblue" points="1530.2,-134.53 1539.69,-129.81 1529.33,-127.58 1530.2,-134.53"/>
</g>
<!-- Node19 -->
<g id="node19" class="node">
<title>Node19</title>
<g id="a_node19"><a xlink:href="../../d0/d4e/fsexception_8hpp.html" target="_top" xlink:title="Exception class for filesystem related errors.">
<polygon fill="white" stroke="black" points="308.5,-112.5 308.5,-131.5 403.5,-131.5 403.5,-112.5 308.5,-112.5"/>
<text text-anchor="middle" x="356" y="-119.5" font-family="Helvetica,sans-Serif" font-size="10.00">fsexception.hpp</text>
</a>
</g>
</g>
<!-- Node8&#45;&gt;Node19 -->
<g id="edge29" class="edge">
<title>Node8&#45;&gt;Node19</title>
<path fill="none" stroke="midnightblue" d="M1011.96,-174.23C883.18,-169.27 629.45,-157.08 408.99,-132.64"/>
<polygon fill="midnightblue" stroke="midnightblue" points="409.17,-129.14 398.84,-131.51 408.39,-136.1 409.17,-129.14"/>
</g>
<!-- Node20 -->
<g id="node20" class="node">
<title>Node20</title>
<g id="a_node20"><a xlink:href="../../d1/d8e/gpioexception_8hpp.html" target="_top" xlink:title="Exception class for Gpio related errors.">
<polygon fill="white" stroke="black" points="421.5,-112.5 421.5,-131.5 528.5,-131.5 528.5,-112.5 421.5,-112.5"/>
<text text-anchor="middle" x="475" y="-119.5" font-family="Helvetica,sans-Serif" font-size="10.00">gpioexception.hpp</text>
</a>
</g>
</g>
<!-- Node8&#45;&gt;Node20 -->
<g id="edge32" class="edge">
<title>Node8&#45;&gt;Node20</title>
<path fill="none" stroke="midnightblue" d="M1011.73,-172.21C902.81,-165.38 707.34,-151.6 534.7,-132.61"/>
<polygon fill="midnightblue" stroke="midnightblue" points="535,-129.13 524.67,-131.5 534.23,-136.08 535,-129.13"/>
</g>
<!-- Node21 -->
<g id="node21" class="node">
<title>Node21</title>
<g id="a_node21"><a xlink:href="../../d7/d8c/moduleexception_8hpp.html" target="_top" xlink:title="Exception class for modules.">
<polygon fill="white" stroke="black" points="547,-112.5 547,-131.5 669,-131.5 669,-112.5 547,-112.5"/>
<text text-anchor="middle" x="608" y="-119.5" font-family="Helvetica,sans-Serif" font-size="10.00">moduleexception.hpp</text>
</a>
</g>
</g>
<!-- Node8&#45;&gt;Node21 -->
<g id="edge35" class="edge">
<title>Node8&#45;&gt;Node21</title>
<path fill="none" stroke="midnightblue" d="M1011.88,-169.14C927.93,-160.75 795.2,-146.81 675.05,-132.71"/>
<polygon fill="midnightblue" stroke="midnightblue" points="675.29,-129.21 664.95,-131.52 674.47,-136.16 675.29,-129.21"/>
</g>
<!-- Node22 -->
<g id="node22" class="node">
<title>Node22</title>
<g id="a_node22"><a xlink:href="../../df/d8d/scriptexception_8hpp.html" target="_top" xlink:title="Exception class for Script related errors.">
<polygon fill="white" stroke="black" points="687.5,-112.5 687.5,-131.5 800.5,-131.5 800.5,-112.5 687.5,-112.5"/>
<text text-anchor="middle" x="744" y="-119.5" font-family="Helvetica,sans-Serif" font-size="10.00">scriptexception.hpp</text>
</a>
</g>
</g>
<!-- Node8&#45;&gt;Node22 -->
<g id="edge38" class="edge">
<title>Node8&#45;&gt;Node22</title>
<path fill="none" stroke="midnightblue" d="M1035.14,-168.44C970.47,-158.85 868.97,-143.29 804.46,-133.1"/>
<polygon fill="midnightblue" stroke="midnightblue" points="804.86,-129.62 794.43,-131.52 803.76,-136.54 804.86,-129.62"/>
</g>
<!-- Node23 -->
<g id="node23" class="node">
<title>Node23</title>
<g id="a_node23"><a xlink:href="../../dc/dce/signalexception_8hpp.html" target="_top" xlink:title="Exception class for Signal related errors.">
<polygon fill="white" stroke="black" points="818.5,-112.5 818.5,-131.5 933.5,-131.5 933.5,-112.5 818.5,-112.5"/>
<text text-anchor="middle" x="876" y="-119.5" font-family="Helvetica,sans-Serif" font-size="10.00">signalexception.hpp</text>
</a>
</g>
</g>
<!-- Node8&#45;&gt;Node23 -->
<g id="edge41" class="edge">
<title>Node8&#45;&gt;Node23</title>
<path fill="none" stroke="midnightblue" d="M1056.05,-168.44C1016.12,-159.14 955.27,-144.25 915.5,-134.06"/>
<polygon fill="midnightblue" stroke="midnightblue" points="916.17,-130.62 905.62,-131.52 914.43,-137.4 916.17,-130.62"/>
</g>
<!-- Node9&#45;&gt;Node7 -->
<g id="edge9" class="edge">
<title>Node9&#45;&gt;Node7</title>
<path fill="none" stroke="midnightblue" d="M1015.41,-112.4C1021.08,-103.36 1030.23,-88.72 1038,-76 1047.73,-60.07 1058.65,-41.84 1066.46,-28.75"/>
<polygon fill="midnightblue" stroke="midnightblue" points="1069.64,-30.24 1071.75,-19.86 1063.62,-26.66 1069.64,-30.24"/>
</g>
<!-- Node10 -->
<g id="node10" class="node">
<title>Node10</title>
<g id="a_node10"><a xlink:title=" ">
<polygon fill="white" stroke="#bfbfbf" points="982.5,-56.5 982.5,-75.5 1029.5,-75.5 1029.5,-56.5 982.5,-56.5"/>
<text text-anchor="middle" x="1006" y="-63.5" font-family="Helvetica,sans-Serif" font-size="10.00">vector</text>
</a>
</g>
</g>
<!-- Node9&#45;&gt;Node10 -->
<g id="edge10" class="edge">
<title>Node9&#45;&gt;Node10</title>
<path fill="none" stroke="midnightblue" d="M1009.34,-112.08C1008.82,-105.01 1008.06,-94.86 1007.41,-85.99"/>
<polygon fill="midnightblue" stroke="midnightblue" points="1010.88,-85.47 1006.65,-75.75 1003.9,-85.98 1010.88,-85.47"/>
</g>
<!-- Node13&#45;&gt;Node7 -->
<g id="edge19" class="edge">
<title>Node13&#45;&gt;Node7</title>
<path fill="none" stroke="midnightblue" d="M1682.7,-112.49C1610.09,-99.98 1470.12,-75.94 1351,-56 1263.56,-41.36 1160.33,-24.53 1109.14,-16.21"/>
<polygon fill="midnightblue" stroke="midnightblue" points="1109.46,-12.72 1099.03,-14.57 1108.34,-19.63 1109.46,-12.72"/>
</g>
<!-- Node13&#45;&gt;Node8 -->
<g id="edge15" class="edge">
<title>Node13&#45;&gt;Node8</title>
<path fill="none" stroke="midnightblue" d="M1678.24,-131.54C1676.82,-131.7 1675.4,-131.85 1674,-132 1504.23,-150.1 1305.23,-164.22 1190.51,-171.52"/>
<polygon fill="midnightblue" stroke="midnightblue" points="1190.12,-168.04 1180.36,-172.16 1190.56,-175.02 1190.12,-168.04"/>
</g>
<!-- Node14 -->
<g id="node14" class="node">
<title>Node14</title>
<g id="a_node14"><a xlink:href="../../dd/d35/Colorize_8hpp.html" target="_top" xlink:title=" ">
<polygon fill="white" stroke="black" points="1671,-56.5 1671,-75.5 1775,-75.5 1775,-56.5 1671,-56.5"/>
<text text-anchor="middle" x="1723" y="-63.5" font-family="Helvetica,sans-Serif" font-size="10.00">tools/Colorize.hpp</text>
</a>
</g>
</g>
<!-- Node13&#45;&gt;Node14 -->
<g id="edge16" class="edge">
<title>Node13&#45;&gt;Node14</title>
<path fill="none" stroke="midnightblue" d="M1730.51,-112.08C1729.32,-104.93 1727.61,-94.64 1726.12,-85.69"/>
<polygon fill="midnightblue" stroke="midnightblue" points="1729.55,-85.04 1724.46,-75.75 1722.65,-86.19 1729.55,-85.04"/>
</g>
<!-- Node14&#45;&gt;Node7 -->
<g id="edge18" class="edge">
<title>Node14&#45;&gt;Node7</title>
<path fill="none" stroke="midnightblue" d="M1670.67,-59.6C1658.32,-58.37 1645.2,-57.1 1633,-56 1434.14,-38.01 1194.94,-19.81 1109.38,-13.41"/>
<polygon fill="midnightblue" stroke="midnightblue" points="1109.49,-9.9 1099.26,-12.65 1108.97,-16.88 1109.49,-9.9"/>
</g>
<!-- Node14&#45;&gt;Node15 -->
<g id="edge17" class="edge">
<title>Node14&#45;&gt;Node15</title>
<path fill="none" stroke="midnightblue" d="M1723,-56.08C1723,-49.01 1723,-38.86 1723,-29.99"/>
<polygon fill="midnightblue" stroke="midnightblue" points="1726.5,-29.75 1723,-19.75 1719.5,-29.75 1726.5,-29.75"/>
</g>
<!-- Node16&#45;&gt;Node7 -->
<g id="edge21" class="edge">
<title>Node16&#45;&gt;Node7</title>
<path fill="none" stroke="midnightblue" d="M1311.99,-112.37C1267.21,-93.05 1158.74,-46.26 1106.32,-23.65"/>
<polygon fill="midnightblue" stroke="midnightblue" points="1107.48,-20.34 1096.92,-19.59 1104.71,-26.77 1107.48,-20.34"/>
</g>
<!-- Node16&#45;&gt;Node8 -->
<g id="edge22" class="edge">
<title>Node16&#45;&gt;Node8</title>
<path fill="none" stroke="midnightblue" d="M1299.86,-131.52C1260.83,-140.92 1194.74,-156.08 1148.36,-166.28"/>
<polygon fill="midnightblue" stroke="midnightblue" points="1147.5,-162.89 1138.48,-168.44 1149,-169.72 1147.5,-162.89"/>
</g>
<!-- Node17&#45;&gt;Node7 -->
<g id="edge24" class="edge">
<title>Node17&#45;&gt;Node7</title>
<path fill="none" stroke="midnightblue" d="M1433.03,-112.46C1361.79,-92.16 1182.76,-41.14 1109.26,-20.19"/>
<polygon fill="midnightblue" stroke="midnightblue" points="1109.78,-16.7 1099.21,-17.33 1107.86,-23.43 1109.78,-16.7"/>
</g>
<!-- Node17&#45;&gt;Node8 -->
<g id="edge25" class="edge">
<title>Node17&#45;&gt;Node8</title>
<path fill="none" stroke="midnightblue" d="M1410.2,-131.52C1346.93,-141.14 1240.73,-156.78 1169.49,-166.98"/>
<polygon fill="midnightblue" stroke="midnightblue" points="1168.65,-163.56 1159.24,-168.44 1169.64,-170.49 1168.65,-163.56"/>
</g>
<!-- Node18&#45;&gt;Node7 -->
<g id="edge27" class="edge">
<title>Node18&#45;&gt;Node7</title>
<path fill="none" stroke="midnightblue" d="M1557.55,-112.46C1457.4,-91.31 1199.43,-36.85 1108.95,-17.74"/>
<polygon fill="midnightblue" stroke="midnightblue" points="1109.51,-14.29 1099.01,-15.65 1108.07,-21.14 1109.51,-14.29"/>
</g>
<!-- Node18&#45;&gt;Node8 -->
<g id="edge28" class="edge">
<title>Node18&#45;&gt;Node8</title>
<path fill="none" stroke="midnightblue" d="M1543.88,-131.53C1542.58,-131.69 1541.28,-131.85 1540,-132 1419.67,-146.3 1280.31,-160.26 1190.23,-168.75"/>
<polygon fill="midnightblue" stroke="midnightblue" points="1189.66,-165.28 1180.04,-169.7 1190.32,-172.25 1189.66,-165.28"/>
</g>
<!-- Node19&#45;&gt;Node7 -->
<g id="edge30" class="edge">
<title>Node19&#45;&gt;Node7</title>
<path fill="none" stroke="midnightblue" d="M394.77,-112.49C457,-99.05 583.13,-72.73 691,-56 821.42,-35.78 977.9,-20.18 1044.47,-13.95"/>
<polygon fill="midnightblue" stroke="midnightblue" points="1045.09,-17.41 1054.73,-13 1044.45,-10.44 1045.09,-17.41"/>
</g>
<!-- Node19&#45;&gt;Node8 -->
<g id="edge31" class="edge">
<title>Node19&#45;&gt;Node8</title>
<path fill="none" stroke="midnightblue" d="M403.7,-129.72C409.55,-130.57 415.42,-131.37 421,-132 627.53,-155.34 870.6,-167.78 1001.38,-173.33"/>
<polygon fill="midnightblue" stroke="midnightblue" points="1001.62,-176.84 1011.76,-173.76 1001.92,-169.84 1001.62,-176.84"/>
</g>
<!-- Node20&#45;&gt;Node7 -->
<g id="edge34" class="edge">
<title>Node20&#45;&gt;Node7</title>
<path fill="none" stroke="midnightblue" d="M513.68,-112.39C572.98,-99.34 690,-74.15 790,-56 882.16,-39.28 991.64,-23.14 1044.81,-15.53"/>
<polygon fill="midnightblue" stroke="midnightblue" points="1045.57,-18.96 1054.98,-14.09 1044.58,-12.03 1045.57,-18.96"/>
</g>
<!-- Node20&#45;&gt;Node8 -->
<g id="edge33" class="edge">
<title>Node20&#45;&gt;Node8</title>
<path fill="none" stroke="midnightblue" d="M528.61,-129.73C534.84,-130.55 541.07,-131.34 547,-132 706.47,-149.8 892.32,-163.36 1001.8,-170.74"/>
<polygon fill="midnightblue" stroke="midnightblue" points="1001.61,-174.24 1011.82,-171.42 1002.08,-167.25 1001.61,-174.24"/>
</g>
<!-- Node21&#45;&gt;Node7 -->
<g id="edge36" class="edge">
<title>Node21&#45;&gt;Node7</title>
<path fill="none" stroke="midnightblue" d="M641.96,-112.45C692.47,-99.8 790.43,-75.47 874,-56 934.19,-41.98 1004.66,-26.58 1044.75,-17.93"/>
<polygon fill="midnightblue" stroke="midnightblue" points="1045.7,-21.3 1054.74,-15.77 1044.22,-14.46 1045.7,-21.3"/>
</g>
<!-- Node21&#45;&gt;Node8 -->
<g id="edge37" class="edge">
<title>Node21&#45;&gt;Node8</title>
<path fill="none" stroke="midnightblue" d="M669.3,-129.85C675.3,-130.59 681.28,-131.32 687,-132 798.16,-145.13 926.14,-158.68 1008.96,-167.43"/>
<polygon fill="midnightblue" stroke="midnightblue" points="1008.77,-170.93 1019.09,-168.5 1009.51,-163.97 1008.77,-170.93"/>
</g>
<!-- Node22&#45;&gt;Node7 -->
<g id="edge39" class="edge">
<title>Node22&#45;&gt;Node7</title>
<path fill="none" stroke="midnightblue" d="M768.81,-112.45C805.35,-99.88 875.82,-75.79 936,-56 973.39,-43.7 1016.52,-30.01 1045.13,-21"/>
<polygon fill="midnightblue" stroke="midnightblue" points="1046.49,-24.24 1054.98,-17.9 1044.39,-17.56 1046.49,-24.24"/>
</g>
<!-- Node22&#45;&gt;Node8 -->
<g id="edge40" class="edge">
<title>Node22&#45;&gt;Node8</title>
<path fill="none" stroke="midnightblue" d="M800.74,-130.94C864.99,-140.46 969.14,-156.41 1035.07,-166.82"/>
<polygon fill="midnightblue" stroke="midnightblue" points="1034.89,-170.34 1045.31,-168.44 1035.98,-163.42 1034.89,-170.34"/>
</g>
<!-- Node23&#45;&gt;Node7 -->
<g id="edge42" class="edge">
<title>Node23&#45;&gt;Node7</title>
<path fill="none" stroke="midnightblue" d="M887.22,-112.49C904.86,-99.35 940.43,-73.76 973,-56 996.56,-43.15 1024.54,-31.22 1045.54,-22.87"/>
<polygon fill="midnightblue" stroke="midnightblue" points="1046.91,-26.1 1054.94,-19.19 1044.36,-19.58 1046.91,-26.1"/>
</g>
<!-- Node23&#45;&gt;Node8 -->
<g id="edge43" class="edge">
<title>Node23&#45;&gt;Node8</title>
<path fill="none" stroke="midnightblue" d="M915.78,-131.52C955.65,-140.8 1016.5,-155.7 1056.33,-165.89"/>
<polygon fill="midnightblue" stroke="midnightblue" points="1055.67,-169.34 1066.23,-168.44 1057.42,-162.56 1055.67,-169.34"/>
</g>
<!-- Node24&#45;&gt;Node7 -->
<g id="edge50" class="edge">
<title>Node24&#45;&gt;Node7</title>
<path fill="none" stroke="midnightblue" d="M1845.81,-61.23C1827.04,-59.52 1804.39,-57.55 1784,-56 1523.68,-36.23 1208.99,-18.31 1109.06,-12.76"/>
<polygon fill="midnightblue" stroke="midnightblue" points="1109.18,-9.26 1099,-12.2 1108.8,-16.25 1109.18,-9.26"/>
</g>
<!-- Node24&#45;&gt;Node15 -->
<g id="edge49" class="edge">
<title>Node24&#45;&gt;Node15</title>
<path fill="none" stroke="midnightblue" d="M1860.17,-56.44C1832.75,-47.36 1789.22,-32.94 1758.57,-22.78"/>
<polygon fill="midnightblue" stroke="midnightblue" points="1759.3,-19.34 1748.71,-19.52 1757.1,-25.98 1759.3,-19.34"/>
</g>
<!-- Node25 -->
<g id="node25" class="node">
<title>Node25</title>
<g id="a_node25"><a xlink:title=" ">
<polygon fill="white" stroke="#bfbfbf" points="1959,-0.5 1959,-19.5 2011,-19.5 2011,-0.5 1959,-0.5"/>
<text text-anchor="middle" x="1985" y="-7.5" font-family="Helvetica,sans-Serif" font-size="10.00">cassert</text>
</a>
</g>
</g>
<!-- Node24&#45;&gt;Node25 -->
<g id="edge45" class="edge">
<title>Node24&#45;&gt;Node25</title>
<path fill="none" stroke="midnightblue" d="M1901.91,-56.32C1917.64,-47.74 1941.94,-34.49 1960.21,-24.52"/>
<polygon fill="midnightblue" stroke="midnightblue" points="1962.03,-27.52 1969.13,-19.65 1958.68,-21.37 1962.03,-27.52"/>
</g>
<!-- Node26 -->
<g id="node26" class="node">
<title>Node26</title>
<g id="a_node26"><a xlink:title=" ">
<polygon fill="white" stroke="#bfbfbf" points="2029.5,-0.5 2029.5,-19.5 2080.5,-19.5 2080.5,-0.5 2029.5,-0.5"/>
<text text-anchor="middle" x="2055" y="-7.5" font-family="Helvetica,sans-Serif" font-size="10.00">csignal</text>
</a>
</g>
</g>
<!-- Node24&#45;&gt;Node26 -->
<g id="edge46" class="edge">
<title>Node24&#45;&gt;Node26</title>
<path fill="none" stroke="midnightblue" d="M1912.78,-56.44C1941.67,-47.21 1987.8,-32.47 2019.65,-22.29"/>
<polygon fill="midnightblue" stroke="midnightblue" points="2020.99,-25.54 2029.45,-19.16 2018.86,-18.87 2020.99,-25.54"/>
</g>
<!-- Node27 -->
<g id="node27" class="node">
<title>Node27</title>
<g id="a_node27"><a xlink:title=" ">
<polygon fill="white" stroke="#bfbfbf" points="1769,-0.5 1769,-19.5 1829,-19.5 1829,-0.5 1769,-0.5"/>
<text text-anchor="middle" x="1799" y="-7.5" font-family="Helvetica,sans-Serif" font-size="10.00">iostream</text>
</a>
</g>
</g>
<!-- Node24&#45;&gt;Node27 -->
<g id="edge47" class="edge">
<title>Node24&#45;&gt;Node27</title>
<path fill="none" stroke="midnightblue" d="M1872.02,-56.32C1858.45,-47.9 1837.62,-34.97 1821.68,-25.07"/>
<polygon fill="midnightblue" stroke="midnightblue" points="1823.29,-21.95 1812.94,-19.65 1819.59,-27.9 1823.29,-21.95"/>
</g>
<!-- Node28 -->
<g id="node28" class="node">
<title>Node28</title>
<g id="a_node28"><a xlink:title=" ">
<polygon fill="white" stroke="#bfbfbf" points="1847.5,-0.5 1847.5,-19.5 1940.5,-19.5 1940.5,-0.5 1847.5,-0.5"/>
<text text-anchor="middle" x="1894" y="-7.5" font-family="Helvetica,sans-Serif" font-size="10.00">spdlog/spdlog.h</text>
</a>
</g>
</g>
<!-- Node24&#45;&gt;Node28 -->
<g id="edge48" class="edge">
<title>Node24&#45;&gt;Node28</title>
<path fill="none" stroke="midnightblue" d="M1887.32,-56.08C1888.38,-48.93 1889.91,-38.64 1891.23,-29.69"/>
<polygon fill="midnightblue" stroke="midnightblue" points="1894.7,-30.16 1892.7,-19.75 1887.78,-29.13 1894.7,-30.16"/>
</g>
</g>
</svg>
        <g id="navigator" transform="translate(0 0)" fill="#404254">
                <rect fill="#f2f5e9" fill-opacity="0.5" stroke="#606060" stroke-width=".5" x="0" y="0" width="60" height="60"/>
                <use id="zoomplus" xlink:href="#zoomPlus" x="17" y="9" onmousedown="handleZoom(evt,'in')"/>
                <use id="zoomminus" xlink:href="#zoomMin" x="42" y="9" onmousedown="handleZoom(evt,'out')"/>
                <use id="reset" xlink:href="#resetDef" x="30" y="36" onmousedown="handleReset()"/>
                <g id="arrowUp" xlink:href="#dirArrow" transform="translate(30 24)" onmousedown="handlePan(0,-1)">
                  <use xlink:href="#rim" fill="#404040">
                        <set attributeName="fill" to="#808080" begin="arrowUp.mouseover" end="arrowUp.mouseout"/>
                  </use>
                  <path fill="none" stroke="white" stroke-width="1.5" d="M0,-3.0v7 M-2.5,-0.5L0,-3.0L2.5,-0.5"/>
                </g>
                <g id="arrowRight" xlink:href="#dirArrow" transform="rotate(90) translate(36 -43)" onmousedown="handlePan(1,0)">
                  <use xlink:href="#rim" fill="#404040">
                        <set attributeName="fill" to="#808080" begin="arrowRight.mouseover" end="arrowRight.mouseout"/>
                  </use>
                  <path fill="none" stroke="white" stroke-width="1.5" d="M0,-3.0v7 M-2.5,-0.5L0,-3.0L2.5,-0.5"/>
                </g>
                <g id="arrowDown" xlink:href="#dirArrow" transform="rotate(180) translate(-30 -48)" onmousedown="handlePan(0,1)">
                  <use xlink:href="#rim" fill="#404040">
                        <set attributeName="fill" to="#808080" begin="arrowDown.mouseover" end="arrowDown.mouseout"/>
                  </use>
                  <path fill="none" stroke="white" stroke-width="1.5" d="M0,-3.0v7 M-2.5,-0.5L0,-3.0L2.5,-0.5"/>
                </g>
                <g id="arrowLeft" xlink:href="#dirArrow" transform="rotate(270) translate(-36 17)" onmousedown="handlePan(-1,0)">
                  <use xlink:href="#rim" fill="#404040">
                        <set attributeName="fill" to="#808080" begin="arrowLeft.mouseover" end="arrowLeft.mouseout"/>
                  </use>
                  <path fill="none" stroke="white" stroke-width="1.5" d="M0,-3.0v7 M-2.5,-0.5L0,-3.0L2.5,-0.5"/>
                </g>
        </g>
        <svg viewBox="0 0 15 15" width="100%" height="30px" preserveAspectRatio="xMaxYMin meet">
         <g id="arrow_out" transform="scale(0.3 0.3)">
          <a xlink:href="MyTime_8cpp__incl_org.svg" target="_base">
           <rect id="button" ry="5" rx="5" y="6" x="6" height="38" width="38"
                fill="#f2f5e9" fill-opacity="0.5" stroke="#606060" stroke-width="1.0"/>
           <path id="arrow"
             d="M 11.500037,31.436501 C 11.940474,20.09759 22.043105,11.32322 32.158766,21.979434 L 37.068811,17.246167 C 37.068811,17.246167 37.088388,32 37.088388,32 L 22.160133,31.978069 C 22.160133,31.978069 26.997745,27.140456 26.997745,27.140456 C 18.528582,18.264221 13.291696,25.230495 11.500037,31.436501 z"
             style="fill:#404040;"/>
          </a>
         </g>
        </svg>
</svg>
