<?xml version="1.0" encoding="UTF-8" standalone="no"?>
<!DOCTYPE svg PUBLIC "-//W3C//DTD SVG 1.1//EN"
 "http://www.w3.org/Graphics/SVG/1.1/DTD/svg11.dtd">
<!-- Generated by graphviz version 2.43.0 (0)
 -->
<!-- Title: src/core/auth/Auth.hpp Pages: 1 -->
<!--zoomable 474 -->
<svg id="main" version="1.1" xmlns="http://www.w3.org/2000/svg" xmlns:xlink="http://www.w3.org/1999/xlink" xml:space="preserve" onload="init(evt)">
<style type="text/css"><![CDATA[
.edge:hover path { stroke: red; }
.edge:hover polygon { stroke: red; fill: red; }
]]></style>
<script type="text/javascript"><![CDATA[
var edges = document.getElementsByTagName('g');
if (edges && edges.length) {
  for (var i=0;i<edges.length;i++) {
    if (edges[i].id.substr(0,4)=='edge') {
      edges[i].setAttribute('class','edge');
    }
  }
}
]]></script>
        <defs>
                <circle id="rim" cx="0" cy="0" r="7"/>
                <circle id="rim2" cx="0" cy="0" r="3.5"/>
                <g id="zoomPlus">
                        <use xlink:href="#rim" fill="#404040">
                                <set attributeName="fill" to="#808080" begin="zoomplus.mouseover" end="zoomplus.mouseout"/>
                        </use>
                        <path d="M-4,0h8M0,-4v8" fill="none" stroke="white" stroke-width="1.5" pointer-events="none"/>
                </g>
                <g id="zoomMin">
                        <use xlink:href="#rim" fill="#404040">
                                <set attributeName="fill" to="#808080" begin="zoomminus.mouseover" end="zoomminus.mouseout"/>
                        </use>
                        <path d="M-4,0h8" fill="none" stroke="white" stroke-width="1.5" pointer-events="none"/>
                </g>
                <g id="dirArrow">
                        <path fill="none" stroke="white" stroke-width="1.5" d="M0,-3.0v7 M-2.5,-0.5L0,-3.0L2.5,-0.5"/>
                </g>
               <g id="resetDef">
                       <use xlink:href="#rim2" fill="#404040">
                               <set attributeName="fill" to="#808080" begin="reset.mouseover" end="reset.mouseout"/>
                       </use>
               </g>
        </defs>

<script type="text/javascript">
var viewWidth = 2930;
var viewHeight = 474;
var sectionId = 'dynsection-1';
</script>
<script xlink:href="../../svgpan.js"/>
<svg id="graph" class="graph">
<g id="viewport">
<title>src/core/auth/Auth.hpp</title>
<polygon fill="white" stroke="transparent" points="-4,4 -4,-470 2925.5,-470 2925.5,4 -4,4"/>
<!-- Node1 -->
<g id="node1" class="node">
<title>Node1</title>
<g id="a_node1"><a xlink:title=" ">
<polygon fill="#bfbfbf" stroke="black" points="1274.5,-446.5 1274.5,-465.5 1400.5,-465.5 1400.5,-446.5 1274.5,-446.5"/>
<text text-anchor="middle" x="1337.5" y="-453.5" font-family="Helvetica,sans-Serif" font-size="10.00">src/core/auth/Auth.hpp</text>
</a>
</g>
</g>
<!-- Node2 -->
<g id="node2" class="node">
<title>Node2</title>
<g id="a_node2"><a xlink:href="../../de/d1f/Auth_8cpp.html" target="_top" xlink:title=" ">
<polygon fill="white" stroke="black" points="0,-385 0,-404 125,-404 125,-385 0,-385"/>
<text text-anchor="middle" x="62.5" y="-392" font-family="Helvetica,sans-Serif" font-size="10.00">src/core/auth/Auth.cpp</text>
</a>
</g>
</g>
<!-- Node1&#45;&gt;Node2 -->
<g id="edge1" class="edge">
<title>Node1&#45;&gt;Node2</title>
<path fill="none" stroke="midnightblue" d="M1264.15,-453.81C1038.24,-449.89 355,-436.15 134.5,-410 122.85,-408.62 110.28,-406.36 98.94,-404.03"/>
<polygon fill="midnightblue" stroke="midnightblue" points="1264.18,-457.31 1274.24,-453.98 1264.3,-450.31 1264.18,-457.31"/>
</g>
<!-- Node3 -->
<g id="node3" class="node">
<title>Node3</title>
<g id="a_node3"><a xlink:href="../../d0/dc0/src_2core_2auth_2AuthSourceBuilder_8cpp.html" target="_top" xlink:title=" ">
<polygon fill="white" stroke="black" points="143.5,-379.5 143.5,-409.5 281.5,-409.5 281.5,-379.5 143.5,-379.5"/>
<text text-anchor="start" x="151.5" y="-397.5" font-family="Helvetica,sans-Serif" font-size="10.00">src/core/auth/AuthSource</text>
<text text-anchor="middle" x="212.5" y="-386.5" font-family="Helvetica,sans-Serif" font-size="10.00">Builder.cpp</text>
</a>
</g>
</g>
<!-- Node1&#45;&gt;Node3 -->
<g id="edge2" class="edge">
<title>Node1&#45;&gt;Node3</title>
<path fill="none" stroke="midnightblue" d="M1264.27,-455.39C1093.22,-455.53 654.33,-451.43 290.5,-410 287.63,-409.67 284.7,-409.3 281.75,-408.9"/>
<polygon fill="midnightblue" stroke="midnightblue" points="1264.42,-458.89 1274.42,-455.38 1264.41,-451.89 1264.42,-458.89"/>
</g>
<!-- Node4 -->
<g id="node4" class="node">
<title>Node4</title>
<g id="a_node4"><a xlink:href="../../da/d9b/AuthFileInstance_8cpp.html" target="_top" xlink:title=" ">
<polygon fill="white" stroke="black" points="299.5,-379.5 299.5,-409.5 439.5,-409.5 439.5,-379.5 299.5,-379.5"/>
<text text-anchor="start" x="307.5" y="-397.5" font-family="Helvetica,sans-Serif" font-size="10.00">src/modules/auth/auth</text>
<text text-anchor="middle" x="369.5" y="-386.5" font-family="Helvetica,sans-Serif" font-size="10.00">&#45;file/AuthFileInstance.cpp</text>
</a>
</g>
</g>
<!-- Node1&#45;&gt;Node4 -->
<g id="edge3" class="edge">
<title>Node1&#45;&gt;Node4</title>
<path fill="none" stroke="midnightblue" d="M1264.32,-454.53C1111.98,-452.85 749.91,-445.14 448.5,-410 445.59,-409.66 442.63,-409.28 439.64,-408.87"/>
<polygon fill="midnightblue" stroke="midnightblue" points="1264.44,-458.03 1274.48,-454.64 1264.52,-451.03 1264.44,-458.03"/>
</g>
<!-- Node5 -->
<g id="node5" class="node">
<title>Node5</title>
<g id="a_node5"><a xlink:href="../../d3/dc5/FileAuthSourceMapper_8cpp.html" target="_top" xlink:title=" ">
<polygon fill="white" stroke="black" points="458,-379.5 458,-409.5 625,-409.5 625,-379.5 458,-379.5"/>
<text text-anchor="start" x="466" y="-397.5" font-family="Helvetica,sans-Serif" font-size="10.00">src/modules/auth/auth</text>
<text text-anchor="middle" x="541.5" y="-386.5" font-family="Helvetica,sans-Serif" font-size="10.00">&#45;file/FileAuthSourceMapper.cpp</text>
</a>
</g>
</g>
<!-- Node1&#45;&gt;Node5 -->
<g id="edge4" class="edge">
<title>Node1&#45;&gt;Node5</title>
<path fill="none" stroke="midnightblue" d="M1264.18,-452.31C1136.69,-447.18 866.01,-434.28 638.5,-410 634.1,-409.53 629.59,-409.01 625.04,-408.44"/>
<polygon fill="midnightblue" stroke="midnightblue" points="1264.08,-455.81 1274.22,-452.71 1264.36,-448.81 1264.08,-455.81"/>
</g>
<!-- Node6 -->
<g id="node6" class="node">
<title>Node6</title>
<g id="a_node6"><a xlink:href="../../d3/da4/DoormanDoor_8hpp.html" target="_top" xlink:title=" ">
<polygon fill="white" stroke="black" points="718.5,-379.5 718.5,-409.5 840.5,-409.5 840.5,-379.5 718.5,-379.5"/>
<text text-anchor="start" x="726.5" y="-397.5" font-family="Helvetica,sans-Serif" font-size="10.00">src/modules/doorman</text>
<text text-anchor="middle" x="779.5" y="-386.5" font-family="Helvetica,sans-Serif" font-size="10.00">/DoormanDoor.hpp</text>
</a>
</g>
</g>
<!-- Node1&#45;&gt;Node6 -->
<g id="edge5" class="edge">
<title>Node1&#45;&gt;Node6</title>
<path fill="none" stroke="midnightblue" d="M1264.3,-450.42C1169.45,-443.98 999.09,-430.66 854.5,-410 850.04,-409.36 845.44,-408.64 840.81,-407.86"/>
<polygon fill="midnightblue" stroke="midnightblue" points="1264.15,-453.92 1274.36,-451.1 1264.62,-446.94 1264.15,-453.92"/>
</g>
<!-- Node7 -->
<g id="node7" class="node">
<title>Node7</title>
<g id="a_node7"><a xlink:href="../../dc/dcc/DoormanDoor_8cpp.html" target="_top" xlink:title=" ">
<polygon fill="white" stroke="black" points="647.5,-312.5 647.5,-342.5 769.5,-342.5 769.5,-312.5 647.5,-312.5"/>
<text text-anchor="start" x="655.5" y="-330.5" font-family="Helvetica,sans-Serif" font-size="10.00">src/modules/doorman</text>
<text text-anchor="middle" x="708.5" y="-319.5" font-family="Helvetica,sans-Serif" font-size="10.00">/DoormanDoor.cpp</text>
</a>
</g>
</g>
<!-- Node1&#45;&gt;Node7 -->
<g id="edge11" class="edge">
<title>Node1&#45;&gt;Node7</title>
<path fill="none" stroke="midnightblue" d="M1264.4,-455.19C1106.93,-454.83 746.87,-449.65 709.5,-410 692.61,-392.08 698.22,-360.87 703.54,-342.71"/>
<polygon fill="midnightblue" stroke="midnightblue" points="1264.46,-458.69 1274.47,-455.21 1264.47,-451.69 1264.46,-458.69"/>
</g>
<!-- Node8 -->
<g id="node8" class="node">
<title>Node8</title>
<g id="a_node8"><a xlink:href="../../d5/d40/DoormanInstance_8hpp.html" target="_top" xlink:title=" ">
<polygon fill="white" stroke="black" points="788,-312.5 788,-342.5 915,-342.5 915,-312.5 788,-312.5"/>
<text text-anchor="start" x="796" y="-330.5" font-family="Helvetica,sans-Serif" font-size="10.00">src/modules/doorman</text>
<text text-anchor="middle" x="851.5" y="-319.5" font-family="Helvetica,sans-Serif" font-size="10.00">/DoormanInstance.hpp</text>
</a>
</g>
</g>
<!-- Node1&#45;&gt;Node8 -->
<g id="edge12" class="edge">
<title>Node1&#45;&gt;Node8</title>
<path fill="none" stroke="midnightblue" d="M1264.36,-455.93C1153.89,-455.98 951.12,-450.34 892.5,-410 869.54,-394.2 858.77,-361.6 854.28,-342.77"/>
<polygon fill="midnightblue" stroke="midnightblue" points="1264.44,-459.43 1274.43,-455.91 1264.43,-452.43 1264.44,-459.43"/>
</g>
<!-- Node9 -->
<g id="node9" class="node">
<title>Node9</title>
<g id="a_node9"><a xlink:href="../../d2/d46/DoormanInstance_8cpp.html" target="_top" xlink:title=" ">
<polygon fill="white" stroke="black" points="577.5,-240 577.5,-270 703.5,-270 703.5,-240 577.5,-240"/>
<text text-anchor="start" x="585.5" y="-258" font-family="Helvetica,sans-Serif" font-size="10.00">src/modules/doorman</text>
<text text-anchor="middle" x="640.5" y="-247" font-family="Helvetica,sans-Serif" font-size="10.00">/DoormanInstance.cpp</text>
</a>
</g>
</g>
<!-- Node1&#45;&gt;Node9 -->
<g id="edge13" class="edge">
<title>Node1&#45;&gt;Node9</title>
<path fill="none" stroke="midnightblue" d="M1264.32,-453.09C1106.47,-448.52 744.17,-435.37 694.5,-410 659.94,-392.35 651.74,-379.48 638.5,-343 629.64,-318.57 633.59,-287.7 637.13,-270.06"/>
<polygon fill="midnightblue" stroke="midnightblue" points="1264.32,-456.59 1274.42,-453.38 1264.53,-449.6 1264.32,-456.59"/>
</g>
<!-- Node10 -->
<g id="node10" class="node">
<title>Node10</title>
<g id="a_node10"><a xlink:href="../../d0/d58/DoormanModule_8cpp.html" target="_top" xlink:title=" ">
<polygon fill="white" stroke="black" points="882.5,-240 882.5,-270 1004.5,-270 1004.5,-240 882.5,-240"/>
<text text-anchor="start" x="890.5" y="-258" font-family="Helvetica,sans-Serif" font-size="10.00">src/modules/doorman</text>
<text text-anchor="middle" x="943.5" y="-247" font-family="Helvetica,sans-Serif" font-size="10.00">/DoormanModule.cpp</text>
</a>
</g>
</g>
<!-- Node1&#45;&gt;Node10 -->
<g id="edge14" class="edge">
<title>Node1&#45;&gt;Node10</title>
<path fill="none" stroke="midnightblue" d="M1264.2,-452.21C1151.85,-447.17 947.66,-434.71 925.5,-410 916.24,-399.68 933.54,-306.25 940.65,-270.15"/>
<polygon fill="midnightblue" stroke="midnightblue" points="1264.31,-455.72 1274.45,-452.66 1264.61,-448.73 1264.31,-455.72"/>
</g>
<!-- Node12 -->
<g id="node12" class="node">
<title>Node12</title>
<g id="a_node12"><a xlink:href="../../d5/dca/EventPublish_8cpp.html" target="_top" xlink:title=" ">
<polygon fill="white" stroke="black" points="934.5,-379.5 934.5,-409.5 1080.5,-409.5 1080.5,-379.5 934.5,-379.5"/>
<text text-anchor="start" x="942.5" y="-397.5" font-family="Helvetica,sans-Serif" font-size="10.00">src/modules/event&#45;publish</text>
<text text-anchor="middle" x="1007.5" y="-386.5" font-family="Helvetica,sans-Serif" font-size="10.00">/EventPublish.cpp</text>
</a>
</g>
</g>
<!-- Node1&#45;&gt;Node12 -->
<g id="edge15" class="edge">
<title>Node1&#45;&gt;Node12</title>
<path fill="none" stroke="midnightblue" d="M1280.23,-444.67C1224.85,-434.69 1140.72,-419.52 1080.55,-408.67"/>
<polygon fill="midnightblue" stroke="midnightblue" points="1279.76,-448.15 1290.22,-446.48 1281,-441.26 1279.76,-448.15"/>
</g>
<!-- Node13 -->
<g id="node13" class="node">
<title>Node13</title>
<g id="a_node13"><a xlink:href="../../d2/d21/MqttExternalServer_8cpp.html" target="_top" xlink:title=" ">
<polygon fill="white" stroke="black" points="1098.5,-379.5 1098.5,-409.5 1266.5,-409.5 1266.5,-379.5 1098.5,-379.5"/>
<text text-anchor="start" x="1106.5" y="-397.5" font-family="Helvetica,sans-Serif" font-size="10.00">src/modules/mqtt/MqttExternal</text>
<text text-anchor="middle" x="1182.5" y="-386.5" font-family="Helvetica,sans-Serif" font-size="10.00">Server.cpp</text>
</a>
</g>
</g>
<!-- Node1&#45;&gt;Node13 -->
<g id="edge16" class="edge">
<title>Node1&#45;&gt;Node13</title>
<path fill="none" stroke="midnightblue" d="M1305.84,-442.85C1280.66,-433.18 1245.4,-419.65 1219.03,-409.52"/>
<polygon fill="midnightblue" stroke="midnightblue" points="1304.7,-446.16 1315.29,-446.48 1307.21,-439.62 1304.7,-446.16"/>
</g>
<!-- Node14 -->
<g id="node14" class="node">
<title>Node14</title>
<g id="a_node14"><a xlink:href="../../d8/dba/RplethModule_8cpp.html" target="_top" xlink:title=" ">
<polygon fill="white" stroke="black" points="1284,-379.5 1284,-409.5 1391,-409.5 1391,-379.5 1284,-379.5"/>
<text text-anchor="start" x="1292" y="-397.5" font-family="Helvetica,sans-Serif" font-size="10.00">src/modules/rpleth</text>
<text text-anchor="middle" x="1337.5" y="-386.5" font-family="Helvetica,sans-Serif" font-size="10.00">/RplethModule.cpp</text>
</a>
</g>
</g>
<!-- Node1&#45;&gt;Node14 -->
<g id="edge17" class="edge">
<title>Node1&#45;&gt;Node14</title>
<path fill="none" stroke="midnightblue" d="M1337.5,-436.23C1337.5,-427.59 1337.5,-417.5 1337.5,-409.52"/>
<polygon fill="midnightblue" stroke="midnightblue" points="1334,-436.48 1337.5,-446.48 1341,-436.48 1334,-436.48"/>
</g>
<!-- Node15 -->
<g id="node15" class="node">
<title>Node15</title>
<g id="a_node15"><a xlink:href="../../da/d6f/SMTPModule_8cpp.html" target="_top" xlink:title=" ">
<polygon fill="white" stroke="black" points="1409.5,-385 1409.5,-404 1599.5,-404 1599.5,-385 1409.5,-385"/>
<text text-anchor="middle" x="1504.5" y="-392" font-family="Helvetica,sans-Serif" font-size="10.00">src/modules/smtp/SMTPModule.cpp</text>
</a>
</g>
</g>
<!-- Node1&#45;&gt;Node15 -->
<g id="edge18" class="edge">
<title>Node1&#45;&gt;Node15</title>
<path fill="none" stroke="midnightblue" d="M1370.95,-443.08C1403.41,-431.52 1451.87,-414.25 1480.62,-404.01"/>
<polygon fill="midnightblue" stroke="midnightblue" points="1369.67,-439.82 1361.43,-446.48 1372.02,-446.42 1369.67,-439.82"/>
</g>
<!-- Node16 -->
<g id="node16" class="node">
<title>Node16</title>
<g id="a_node16"><a xlink:href="../../d2/d99/NotifierInstance_8cpp.html" target="_top" xlink:title=" ">
<polygon fill="white" stroke="black" points="1617.5,-379.5 1617.5,-409.5 1749.5,-409.5 1749.5,-379.5 1617.5,-379.5"/>
<text text-anchor="start" x="1625.5" y="-397.5" font-family="Helvetica,sans-Serif" font-size="10.00">src/modules/tcp&#45;notifier</text>
<text text-anchor="middle" x="1683.5" y="-386.5" font-family="Helvetica,sans-Serif" font-size="10.00">/NotifierInstance.cpp</text>
</a>
</g>
</g>
<!-- Node1&#45;&gt;Node16 -->
<g id="edge19" class="edge">
<title>Node1&#45;&gt;Node16</title>
<path fill="none" stroke="midnightblue" d="M1401.25,-444.9C1456.22,-436.08 1537.68,-422.72 1608.5,-410 1611.37,-409.48 1614.3,-408.95 1617.26,-408.4"/>
<polygon fill="midnightblue" stroke="midnightblue" points="1400.62,-441.46 1391.3,-446.5 1401.73,-448.37 1400.62,-441.46"/>
</g>
<!-- Node17 -->
<g id="node17" class="node">
<title>Node17</title>
<g id="a_node17"><a xlink:href="../../d0/df4/TcpNotifier_8cpp.html" target="_top" xlink:title=" ">
<polygon fill="white" stroke="black" points="1767.5,-379.5 1767.5,-409.5 1899.5,-409.5 1899.5,-379.5 1767.5,-379.5"/>
<text text-anchor="start" x="1775.5" y="-397.5" font-family="Helvetica,sans-Serif" font-size="10.00">src/modules/tcp&#45;notifier</text>
<text text-anchor="middle" x="1833.5" y="-386.5" font-family="Helvetica,sans-Serif" font-size="10.00">/TcpNotifier.cpp</text>
</a>
</g>
</g>
<!-- Node1&#45;&gt;Node17 -->
<g id="edge20" class="edge">
<title>Node1&#45;&gt;Node17</title>
<path fill="none" stroke="midnightblue" d="M1410.81,-449.06C1494.99,-441.79 1637.13,-428.19 1758.5,-410 1761.39,-409.57 1764.33,-409.1 1767.3,-408.61"/>
<polygon fill="midnightblue" stroke="midnightblue" points="1410.5,-445.57 1400.83,-449.91 1411.1,-452.54 1410.5,-445.57"/>
</g>
<!-- Node18 -->
<g id="node18" class="node">
<title>Node18</title>
<g id="a_node18"><a xlink:href="../../d9/dfd/TestAndResetModule_8cpp.html" target="_top" xlink:title=" ">
<polygon fill="white" stroke="black" points="1917.5,-379.5 1917.5,-409.5 2087.5,-409.5 2087.5,-379.5 1917.5,-379.5"/>
<text text-anchor="start" x="1925.5" y="-397.5" font-family="Helvetica,sans-Serif" font-size="10.00">src/modules/test&#45;and</text>
<text text-anchor="middle" x="2002.5" y="-386.5" font-family="Helvetica,sans-Serif" font-size="10.00">&#45;reset/TestAndResetModule.cpp</text>
</a>
</g>
</g>
<!-- Node1&#45;&gt;Node18 -->
<g id="edge21" class="edge">
<title>Node1&#45;&gt;Node18</title>
<path fill="none" stroke="midnightblue" d="M1410.81,-450.97C1519.64,-444.6 1730.28,-430.74 1908.5,-410 1911.45,-409.66 1914.45,-409.29 1917.48,-408.9"/>
<polygon fill="midnightblue" stroke="midnightblue" points="1410.38,-447.49 1400.6,-451.57 1410.78,-454.48 1410.38,-447.49"/>
</g>
<!-- Node19 -->
<g id="node19" class="node">
<title>Node19</title>
<g id="a_node19"><a xlink:href="../../dd/d5c/WiegandStrategy_8hpp.html" target="_top" xlink:title=" ">
<polygon fill="white" stroke="black" points="2106,-379.5 2106,-409.5 2281,-409.5 2281,-379.5 2106,-379.5"/>
<text text-anchor="start" x="2114" y="-397.5" font-family="Helvetica,sans-Serif" font-size="10.00">src/modules/wiegand</text>
<text text-anchor="middle" x="2193.5" y="-386.5" font-family="Helvetica,sans-Serif" font-size="10.00">/strategies/WiegandStrategy.hpp</text>
</a>
</g>
</g>
<!-- Node1&#45;&gt;Node19 -->
<g id="edge22" class="edge">
<title>Node1&#45;&gt;Node19</title>
<path fill="none" stroke="midnightblue" d="M1410.9,-452.82C1546.58,-448.32 1845.7,-436.13 2096.5,-410 2099.55,-409.68 2102.65,-409.34 2105.78,-408.97"/>
<polygon fill="midnightblue" stroke="midnightblue" points="1410.51,-449.33 1400.63,-453.16 1410.74,-456.33 1410.51,-449.33"/>
</g>
<!-- Node34 -->
<g id="node34" class="node">
<title>Node34</title>
<g id="a_node34"><a xlink:href="../../de/d9a/WiegandReaderImpl_8hpp.html" target="_top" xlink:title=" ">
<polygon fill="white" stroke="black" points="2293.5,-312.5 2293.5,-342.5 2433.5,-342.5 2433.5,-312.5 2293.5,-312.5"/>
<text text-anchor="start" x="2301.5" y="-330.5" font-family="Helvetica,sans-Serif" font-size="10.00">src/modules/wiegand</text>
<text text-anchor="middle" x="2363.5" y="-319.5" font-family="Helvetica,sans-Serif" font-size="10.00">/WiegandReaderImpl.hpp</text>
</a>
</g>
</g>
<!-- Node1&#45;&gt;Node34 -->
<g id="edge54" class="edge">
<title>Node1&#45;&gt;Node34</title>
<path fill="none" stroke="midnightblue" d="M1411.09,-453.68C1633.44,-449.43 2285.49,-434.9 2323.5,-410 2346.83,-394.71 2357.02,-361.6 2361.09,-342.63"/>
<polygon fill="midnightblue" stroke="midnightblue" points="1410.76,-450.19 1400.83,-453.88 1410.89,-457.19 1410.76,-450.19"/>
</g>
<!-- Node36 -->
<g id="node36" class="node">
<title>Node36</title>
<g id="a_node36"><a xlink:href="../../d4/d9b/WiegandReader_8cpp.html" target="_top" xlink:title=" ">
<polygon fill="white" stroke="black" points="2511,-167.5 2511,-186.5 2646,-186.5 2646,-167.5 2511,-167.5"/>
<text text-anchor="middle" x="2578.5" y="-174.5" font-family="Helvetica,sans-Serif" font-size="10.00">test/WiegandReader.cpp</text>
</a>
</g>
</g>
<!-- Node1&#45;&gt;Node36 -->
<g id="edge59" class="edge">
<title>Node1&#45;&gt;Node36</title>
<path fill="none" stroke="midnightblue" d="M1410.81,-453.65C1628.24,-449.37 2259.96,-434.93 2349.5,-410 2463.84,-378.16 2522.79,-379.72 2580.5,-276 2596.8,-246.71 2586.83,-204.46 2581.37,-186.55"/>
<polygon fill="midnightblue" stroke="midnightblue" points="1410.7,-450.15 1400.77,-453.84 1410.84,-457.15 1410.7,-450.15"/>
</g>
<!-- Node37 -->
<g id="node37" class="node">
<title>Node37</title>
<g id="a_node37"><a xlink:href="../../d8/df0/WiegandReaderImpl_8cpp.html" target="_top" xlink:title=" ">
<polygon fill="white" stroke="black" points="2104,-240 2104,-270 2243,-270 2243,-240 2104,-240"/>
<text text-anchor="start" x="2112" y="-258" font-family="Helvetica,sans-Serif" font-size="10.00">src/modules/wiegand</text>
<text text-anchor="middle" x="2173.5" y="-247" font-family="Helvetica,sans-Serif" font-size="10.00">/WiegandReaderImpl.cpp</text>
</a>
</g>
</g>
<!-- Node1&#45;&gt;Node37 -->
<g id="edge55" class="edge">
<title>Node1&#45;&gt;Node37</title>
<path fill="none" stroke="midnightblue" d="M1410.7,-454.27C1628.67,-451.74 2260.25,-441.71 2290.5,-410 2300.01,-400.03 2295.61,-391.79 2290.5,-379 2271.14,-330.56 2222.62,-290.3 2194.52,-270.07"/>
<polygon fill="midnightblue" stroke="midnightblue" points="1410.6,-450.77 1400.64,-454.39 1410.68,-457.77 1410.6,-450.77"/>
</g>
<!-- Node38 -->
<g id="node38" class="node">
<title>Node38</title>
<g id="a_node38"><a xlink:href="../../dc/d29/WebServiceNotifier_8cpp.html" target="_top" xlink:title=" ">
<polygon fill="white" stroke="black" points="2515.5,-379.5 2515.5,-409.5 2647.5,-409.5 2647.5,-379.5 2515.5,-379.5"/>
<text text-anchor="start" x="2523.5" y="-397.5" font-family="Helvetica,sans-Serif" font-size="10.00">src/modules/ws&#45;notifier</text>
<text text-anchor="middle" x="2581.5" y="-386.5" font-family="Helvetica,sans-Serif" font-size="10.00">/WebServiceNotifier.cpp</text>
</a>
</g>
</g>
<!-- Node1&#45;&gt;Node38 -->
<g id="edge56" class="edge">
<title>Node1&#45;&gt;Node38</title>
<path fill="none" stroke="midnightblue" d="M1410.59,-455.73C1594.46,-456.81 2090.86,-454.93 2501.5,-410 2505.99,-409.51 2510.61,-408.91 2515.25,-408.25"/>
<polygon fill="midnightblue" stroke="midnightblue" points="1410.52,-452.23 1400.5,-455.67 1410.48,-459.23 1410.52,-452.23"/>
</g>
<!-- Node39 -->
<g id="node39" class="node">
<title>Node39</title>
<g id="a_node39"><a xlink:href="../../d9/d75/test_2AuthSourceBuilder_8cpp.html" target="_top" xlink:title=" ">
<polygon fill="white" stroke="black" points="2665.5,-385 2665.5,-404 2813.5,-404 2813.5,-385 2665.5,-385"/>
<text text-anchor="middle" x="2739.5" y="-392" font-family="Helvetica,sans-Serif" font-size="10.00">test/AuthSourceBuilder.cpp</text>
</a>
</g>
</g>
<!-- Node1&#45;&gt;Node39 -->
<g id="edge57" class="edge">
<title>Node1&#45;&gt;Node39</title>
<path fill="none" stroke="midnightblue" d="M1410.83,-453.84C1650.93,-449.83 2412.03,-435.4 2656.5,-410 2669.89,-408.61 2684.37,-406.35 2697.43,-404.02"/>
<polygon fill="midnightblue" stroke="midnightblue" points="1410.75,-450.34 1400.81,-454.01 1410.87,-457.34 1410.75,-450.34"/>
</g>
<!-- Node40 -->
<g id="node40" class="node">
<title>Node40</title>
<g id="a_node40"><a xlink:href="../../db/d44/Rpleth_8cpp.html" target="_top" xlink:title=" ">
<polygon fill="white" stroke="black" points="2831.5,-385 2831.5,-404 2921.5,-404 2921.5,-385 2831.5,-385"/>
<text text-anchor="middle" x="2876.5" y="-392" font-family="Helvetica,sans-Serif" font-size="10.00">test/Rpleth.cpp</text>
</a>
</g>
</g>
<!-- Node1&#45;&gt;Node40 -->
<g id="edge58" class="edge">
<title>Node1&#45;&gt;Node40</title>
<path fill="none" stroke="midnightblue" d="M1410.76,-455.03C1670.34,-454.77 2545.51,-450.82 2822.5,-410 2831.43,-408.68 2841,-406.41 2849.56,-404.05"/>
<polygon fill="midnightblue" stroke="midnightblue" points="1410.68,-451.53 1400.69,-455.03 1410.69,-458.53 1410.68,-451.53"/>
</g>
<!-- Node6&#45;&gt;Node7 -->
<g id="edge6" class="edge">
<title>Node6&#45;&gt;Node7</title>
<path fill="none" stroke="midnightblue" d="M756.67,-372.6C745.95,-362.78 733.45,-351.34 723.88,-342.58"/>
<polygon fill="midnightblue" stroke="midnightblue" points="754.35,-375.22 764.09,-379.4 759.08,-370.06 754.35,-375.22"/>
</g>
<!-- Node6&#45;&gt;Node8 -->
<g id="edge7" class="edge">
<title>Node6&#45;&gt;Node8</title>
<path fill="none" stroke="midnightblue" d="M802.65,-372.6C813.52,-362.78 826.2,-351.34 835.91,-342.58"/>
<polygon fill="midnightblue" stroke="midnightblue" points="800.2,-370.1 795.12,-379.4 804.89,-375.29 800.2,-370.1"/>
</g>
<!-- Node8&#45;&gt;Node9 -->
<g id="edge8" class="edge">
<title>Node8&#45;&gt;Node9</title>
<path fill="none" stroke="midnightblue" d="M799.74,-309.2C763.76,-297.18 716.41,-281.36 682.72,-270.11"/>
<polygon fill="midnightblue" stroke="midnightblue" points="798.97,-312.64 809.56,-312.49 801.19,-306 798.97,-312.64"/>
</g>
<!-- Node8&#45;&gt;Node10 -->
<g id="edge9" class="edge">
<title>Node8&#45;&gt;Node10</title>
<path fill="none" stroke="midnightblue" d="M878.11,-306.11C893.22,-294.53 911.75,-280.33 925.22,-270"/>
<polygon fill="midnightblue" stroke="midnightblue" points="875.93,-303.37 870.12,-312.23 880.18,-308.93 875.93,-303.37"/>
</g>
<!-- Node11 -->
<g id="node11" class="node">
<title>Node11</title>
<g id="a_node11"><a xlink:href="../../d8/d54/doorman_2init_8cpp.html" target="_top" xlink:title=" ">
<polygon fill="white" stroke="black" points="742.5,-240 742.5,-270 864.5,-270 864.5,-240 742.5,-240"/>
<text text-anchor="start" x="750.5" y="-258" font-family="Helvetica,sans-Serif" font-size="10.00">src/modules/doorman</text>
<text text-anchor="middle" x="803.5" y="-247" font-family="Helvetica,sans-Serif" font-size="10.00">/init.cpp</text>
</a>
</g>
</g>
<!-- Node8&#45;&gt;Node11 -->
<g id="edge10" class="edge">
<title>Node8&#45;&gt;Node11</title>
<path fill="none" stroke="midnightblue" d="M836.1,-303.89C828.58,-292.84 819.77,-279.89 813.2,-270.25"/>
<polygon fill="midnightblue" stroke="midnightblue" points="833.27,-305.94 841.79,-312.23 839.05,-302 833.27,-305.94"/>
</g>
<!-- Node20 -->
<g id="node20" class="node">
<title>Node20</title>
<g id="a_node20"><a xlink:href="../../db/db3/CardReading_8hpp.html" target="_top" xlink:title=" ">
<polygon fill="white" stroke="black" points="1522,-312.5 1522,-342.5 1677,-342.5 1677,-312.5 1522,-312.5"/>
<text text-anchor="start" x="1530" y="-330.5" font-family="Helvetica,sans-Serif" font-size="10.00">src/modules/wiegand</text>
<text text-anchor="middle" x="1599.5" y="-319.5" font-family="Helvetica,sans-Serif" font-size="10.00">/strategies/CardReading.hpp</text>
</a>
</g>
</g>
<!-- Node19&#45;&gt;Node20 -->
<g id="edge23" class="edge">
<title>Node19&#45;&gt;Node20</title>
<path fill="none" stroke="midnightblue" d="M2095.6,-378.93C1941.07,-359.73 1772.91,-343.83 1677.11,-335.24"/>
<polygon fill="midnightblue" stroke="midnightblue" points="2095.4,-382.43 2105.76,-380.19 2096.27,-375.48 2095.4,-382.43"/>
</g>
<!-- Node29 -->
<g id="node29" class="node">
<title>Node29</title>
<g id="a_node29"><a xlink:href="../../d0/dc4/PinReading_8hpp.html" target="_top" xlink:title=" ">
<polygon fill="white" stroke="black" points="1839,-312.5 1839,-342.5 1986,-342.5 1986,-312.5 1839,-312.5"/>
<text text-anchor="start" x="1847" y="-330.5" font-family="Helvetica,sans-Serif" font-size="10.00">src/modules/wiegand</text>
<text text-anchor="middle" x="1912.5" y="-319.5" font-family="Helvetica,sans-Serif" font-size="10.00">/strategies/PinReading.hpp</text>
</a>
</g>
</g>
<!-- Node19&#45;&gt;Node29 -->
<g id="edge34" class="edge">
<title>Node19&#45;&gt;Node29</title>
<path fill="none" stroke="midnightblue" d="M2122.97,-377.19C2076.95,-366.54 2017.48,-352.78 1973.5,-342.61"/>
<polygon fill="midnightblue" stroke="midnightblue" points="2122.34,-380.63 2132.87,-379.48 2123.92,-373.81 2122.34,-380.63"/>
</g>
<!-- Node19&#45;&gt;Node34 -->
<g id="edge42" class="edge">
<title>Node19&#45;&gt;Node34</title>
<path fill="none" stroke="midnightblue" d="M2239.74,-375.82C2267.07,-365.37 2301.19,-352.32 2326.68,-342.58"/>
<polygon fill="midnightblue" stroke="midnightblue" points="2238.48,-372.56 2230.39,-379.4 2240.98,-379.09 2238.48,-372.56"/>
</g>
<!-- Node35 -->
<g id="node35" class="node">
<title>Node35</title>
<g id="a_node35"><a xlink:href="../../d0/d6f/wiegand_8hpp.html" target="_top" xlink:title=" ">
<polygon fill="white" stroke="black" points="2451.5,-240 2451.5,-270 2571.5,-270 2571.5,-240 2451.5,-240"/>
<text text-anchor="start" x="2459.5" y="-258" font-family="Helvetica,sans-Serif" font-size="10.00">src/modules/wiegand</text>
<text text-anchor="middle" x="2511.5" y="-247" font-family="Helvetica,sans-Serif" font-size="10.00">/wiegand.hpp</text>
</a>
</g>
</g>
<!-- Node19&#45;&gt;Node35 -->
<g id="edge52" class="edge">
<title>Node19&#45;&gt;Node35</title>
<path fill="none" stroke="midnightblue" d="M2291.21,-389.35C2339.66,-383.54 2397.3,-370.72 2442.5,-343 2471.75,-325.06 2493.68,-290.01 2504.33,-270.31"/>
<polygon fill="midnightblue" stroke="midnightblue" points="2290.57,-385.9 2281.02,-390.48 2291.35,-392.85 2290.57,-385.9"/>
</g>
<!-- Node19&#45;&gt;Node37 -->
<g id="edge53" class="edge">
<title>Node19&#45;&gt;Node37</title>
<path fill="none" stroke="midnightblue" d="M2189.98,-369.29C2185.81,-340.61 2178.99,-293.78 2175.58,-270.33"/>
<polygon fill="midnightblue" stroke="midnightblue" points="2186.53,-369.91 2191.43,-379.3 2193.46,-368.9 2186.53,-369.91"/>
</g>
<!-- Node21 -->
<g id="node21" class="node">
<title>Node21</title>
<g id="a_node21"><a xlink:href="../../dc/d8e/SimpleWiegandStrategy_8hpp.html" target="_top" xlink:title=" ">
<polygon fill="white" stroke="black" points="1495,-240 1495,-270 1704,-270 1704,-240 1495,-240"/>
<text text-anchor="start" x="1503" y="-258" font-family="Helvetica,sans-Serif" font-size="10.00">src/modules/wiegand</text>
<text text-anchor="middle" x="1599.5" y="-247" font-family="Helvetica,sans-Serif" font-size="10.00">/strategies/SimpleWiegandStrategy.hpp</text>
</a>
</g>
</g>
<!-- Node20&#45;&gt;Node21 -->
<g id="edge24" class="edge">
<title>Node20&#45;&gt;Node21</title>
<path fill="none" stroke="midnightblue" d="M1599.5,-302.23C1599.5,-291.57 1599.5,-279.41 1599.5,-270.25"/>
<polygon fill="midnightblue" stroke="midnightblue" points="1596,-302.23 1599.5,-312.23 1603,-302.23 1596,-302.23"/>
</g>
<!-- Node22 -->
<g id="node22" class="node">
<title>Node22</title>
<g id="a_node22"><a xlink:href="../../dc/d0d/Strategies_8hpp.html" target="_top" xlink:title=" ">
<polygon fill="white" stroke="black" points="1606.5,-162 1606.5,-192 1748.5,-192 1748.5,-162 1606.5,-162"/>
<text text-anchor="start" x="1614.5" y="-180" font-family="Helvetica,sans-Serif" font-size="10.00">src/modules/wiegand</text>
<text text-anchor="middle" x="1677.5" y="-169" font-family="Helvetica,sans-Serif" font-size="10.00">/strategies/Strategies.hpp</text>
</a>
</g>
</g>
<!-- Node20&#45;&gt;Node22 -->
<g id="edge33" class="edge">
<title>Node20&#45;&gt;Node22</title>
<path fill="none" stroke="midnightblue" d="M1511.79,-315.19C1488.81,-307.79 1466.56,-295.7 1452.5,-276 1441.65,-260.81 1441,-248.71 1452.5,-234 1471.43,-209.78 1547.88,-194.52 1606.46,-186.16"/>
<polygon fill="midnightblue" stroke="midnightblue" points="1511.08,-318.63 1521.66,-318.09 1513.05,-311.91 1511.08,-318.63"/>
</g>
<!-- Node21&#45;&gt;Node22 -->
<g id="edge25" class="edge">
<title>Node21&#45;&gt;Node22</title>
<path fill="none" stroke="midnightblue" d="M1621.53,-232.53C1634.77,-219.63 1651.26,-203.57 1662.89,-192.23"/>
<polygon fill="midnightblue" stroke="midnightblue" points="1618.89,-230.22 1614.17,-239.7 1623.78,-235.23 1618.89,-230.22"/>
</g>
<!-- Node28 -->
<g id="node28" class="node">
<title>Node28</title>
<g id="a_node28"><a xlink:href="../../d2/d32/SimpleWiegandStrategy_8cpp.html" target="_top" xlink:title=" ">
<polygon fill="white" stroke="black" points="1766.5,-162 1766.5,-192 1974.5,-192 1974.5,-162 1766.5,-162"/>
<text text-anchor="start" x="1774.5" y="-180" font-family="Helvetica,sans-Serif" font-size="10.00">src/modules/wiegand</text>
<text text-anchor="middle" x="1870.5" y="-169" font-family="Helvetica,sans-Serif" font-size="10.00">/strategies/SimpleWiegandStrategy.cpp</text>
</a>
</g>
</g>
<!-- Node21&#45;&gt;Node28 -->
<g id="edge32" class="edge">
<title>Node21&#45;&gt;Node28</title>
<path fill="none" stroke="midnightblue" d="M1659.22,-237.25C1707.52,-223.71 1774.76,-204.85 1820.31,-192.07"/>
<polygon fill="midnightblue" stroke="midnightblue" points="1658.2,-233.9 1649.52,-239.97 1660.1,-240.64 1658.2,-233.9"/>
</g>
<!-- Node23 -->
<g id="node23" class="node">
<title>Node23</title>
<g id="a_node23"><a xlink:href="../../db/de0/Autodetect_8hpp.html" target="_top" xlink:title=" ">
<polygon fill="white" stroke="black" points="2451.5,-84 2451.5,-114 2597.5,-114 2597.5,-84 2451.5,-84"/>
<text text-anchor="start" x="2459.5" y="-102" font-family="Helvetica,sans-Serif" font-size="10.00">src/modules/wiegand</text>
<text text-anchor="middle" x="2524.5" y="-91" font-family="Helvetica,sans-Serif" font-size="10.00">/strategies/Autodetect.hpp</text>
</a>
</g>
</g>
<!-- Node22&#45;&gt;Node23 -->
<g id="edge26" class="edge">
<title>Node22&#45;&gt;Node23</title>
<path fill="none" stroke="midnightblue" d="M1738.15,-159.68C1744.65,-158.28 1751.19,-157.01 1757.5,-156 2010.12,-115.51 2314.31,-104.26 2451.31,-101.16"/>
<polygon fill="midnightblue" stroke="midnightblue" points="1736.99,-156.35 1728.01,-161.98 1738.54,-163.18 1736.99,-156.35"/>
</g>
<!-- Node26 -->
<g id="node26" class="node">
<title>Node26</title>
<g id="a_node26"><a xlink:href="../../db/da6/WiegandCardAndPin_8hpp.html" target="_top" xlink:title=" ">
<polygon fill="white" stroke="black" points="1600,-78.5 1600,-119.5 1755,-119.5 1755,-78.5 1600,-78.5"/>
<text text-anchor="start" x="1608" y="-107.5" font-family="Helvetica,sans-Serif" font-size="10.00">src/modules/wiegand</text>
<text text-anchor="start" x="1608" y="-96.5" font-family="Helvetica,sans-Serif" font-size="10.00">/strategies/WiegandCardAnd</text>
<text text-anchor="middle" x="1677.5" y="-85.5" font-family="Helvetica,sans-Serif" font-size="10.00">Pin.hpp</text>
</a>
</g>
</g>
<!-- Node22&#45;&gt;Node26 -->
<g id="edge29" class="edge">
<title>Node22&#45;&gt;Node26</title>
<path fill="none" stroke="midnightblue" d="M1671.15,-151.66C1670.52,-141.33 1670.63,-129.44 1671.5,-119.68"/>
<polygon fill="midnightblue" stroke="midnightblue" points="1667.68,-152.07 1672.09,-161.7 1674.65,-151.42 1667.68,-152.07"/>
</g>
<!-- Node24 -->
<g id="node24" class="node">
<title>Node24</title>
<g id="a_node24"><a xlink:href="../../d3/d15/Autodetect_8cpp.html" target="_top" xlink:title=" ">
<polygon fill="white" stroke="black" points="2540,-6 2540,-36 2685,-36 2685,-6 2540,-6"/>
<text text-anchor="start" x="2548" y="-24" font-family="Helvetica,sans-Serif" font-size="10.00">src/modules/wiegand</text>
<text text-anchor="middle" x="2612.5" y="-13" font-family="Helvetica,sans-Serif" font-size="10.00">/strategies/Autodetect.cpp</text>
</a>
</g>
</g>
<!-- Node23&#45;&gt;Node24 -->
<g id="edge27" class="edge">
<title>Node23&#45;&gt;Node24</title>
<path fill="none" stroke="midnightblue" d="M2548.94,-76.89C2563.95,-63.93 2582.77,-47.68 2596.02,-36.23"/>
<polygon fill="midnightblue" stroke="midnightblue" points="2546.33,-74.52 2541.05,-83.7 2550.91,-79.82 2546.33,-74.52"/>
</g>
<!-- Node25 -->
<g id="node25" class="node">
<title>Node25</title>
<g id="a_node25"><a xlink:href="../../d3/de8/wiegand_8cpp.html" target="_top" xlink:title=" ">
<polygon fill="white" stroke="black" points="2376.5,-6 2376.5,-36 2496.5,-36 2496.5,-6 2376.5,-6"/>
<text text-anchor="start" x="2384.5" y="-24" font-family="Helvetica,sans-Serif" font-size="10.00">src/modules/wiegand</text>
<text text-anchor="middle" x="2436.5" y="-13" font-family="Helvetica,sans-Serif" font-size="10.00">/wiegand.cpp</text>
</a>
</g>
</g>
<!-- Node23&#45;&gt;Node25 -->
<g id="edge28" class="edge">
<title>Node23&#45;&gt;Node25</title>
<path fill="none" stroke="midnightblue" d="M2500.06,-76.89C2485.05,-63.93 2466.23,-47.68 2452.98,-36.23"/>
<polygon fill="midnightblue" stroke="midnightblue" points="2498.09,-79.82 2507.95,-83.7 2502.67,-74.52 2498.09,-79.82"/>
</g>
<!-- Node26&#45;&gt;Node22 -->
<g id="edge30" class="edge">
<title>Node26&#45;&gt;Node22</title>
<path fill="none" stroke="midnightblue" d="M1684.11,-129.79C1684.49,-140.77 1684.09,-152.71 1682.91,-161.7"/>
<polygon fill="midnightblue" stroke="midnightblue" points="1687.59,-129.45 1683.5,-119.68 1680.61,-129.87 1687.59,-129.45"/>
</g>
<!-- Node27 -->
<g id="node27" class="node">
<title>Node27</title>
<g id="a_node27"><a xlink:href="../../d5/d4a/WiegandCardAndPin_8cpp.html" target="_top" xlink:title=" ">
<polygon fill="white" stroke="black" points="1908,-0.5 1908,-41.5 2063,-41.5 2063,-0.5 1908,-0.5"/>
<text text-anchor="start" x="1916" y="-29.5" font-family="Helvetica,sans-Serif" font-size="10.00">src/modules/wiegand</text>
<text text-anchor="start" x="1916" y="-18.5" font-family="Helvetica,sans-Serif" font-size="10.00">/strategies/WiegandCardAnd</text>
<text text-anchor="middle" x="1985.5" y="-7.5" font-family="Helvetica,sans-Serif" font-size="10.00">Pin.cpp</text>
</a>
</g>
</g>
<!-- Node26&#45;&gt;Node27 -->
<g id="edge31" class="edge">
<title>Node26&#45;&gt;Node27</title>
<path fill="none" stroke="midnightblue" d="M1764.96,-76.42C1809.95,-65.32 1864.31,-51.9 1907.8,-41.17"/>
<polygon fill="midnightblue" stroke="midnightblue" points="1764.09,-73.03 1755.22,-78.82 1765.77,-79.82 1764.09,-73.03"/>
</g>
<!-- Node29&#45;&gt;Node22 -->
<g id="edge41" class="edge">
<title>Node29&#45;&gt;Node22</title>
<path fill="none" stroke="midnightblue" d="M1828.69,-319.44C1707.58,-308.84 1496.77,-288.69 1485.5,-276 1444.48,-229.84 1536.1,-202.47 1606.42,-188.85"/>
<polygon fill="midnightblue" stroke="midnightblue" points="1828.42,-322.93 1838.69,-320.31 1829.03,-315.96 1828.42,-322.93"/>
</g>
<!-- Node30 -->
<g id="node30" class="node">
<title>Node30</title>
<g id="a_node30"><a xlink:href="../../d6/da6/WiegandPinBuffered_8hpp.html" target="_top" xlink:title=" ">
<polygon fill="white" stroke="black" points="1722,-240 1722,-270 1913,-270 1913,-240 1722,-240"/>
<text text-anchor="start" x="1730" y="-258" font-family="Helvetica,sans-Serif" font-size="10.00">src/modules/wiegand</text>
<text text-anchor="middle" x="1817.5" y="-247" font-family="Helvetica,sans-Serif" font-size="10.00">/strategies/WiegandPinBuffered.hpp</text>
</a>
</g>
</g>
<!-- Node29&#45;&gt;Node30 -->
<g id="edge35" class="edge">
<title>Node29&#45;&gt;Node30</title>
<path fill="none" stroke="midnightblue" d="M1885.02,-306.11C1869.42,-294.53 1850.28,-280.33 1836.37,-270"/>
<polygon fill="midnightblue" stroke="midnightblue" points="1883.16,-309.08 1893.28,-312.23 1887.33,-303.46 1883.16,-309.08"/>
</g>
<!-- Node32 -->
<g id="node32" class="node">
<title>Node32</title>
<g id="a_node32"><a xlink:href="../../d4/d9d/WiegandPinNBitsOnly_8hpp.html" target="_top" xlink:title=" ">
<polygon fill="white" stroke="black" points="1931,-234.5 1931,-275.5 2086,-275.5 2086,-234.5 1931,-234.5"/>
<text text-anchor="start" x="1939" y="-263.5" font-family="Helvetica,sans-Serif" font-size="10.00">src/modules/wiegand</text>
<text text-anchor="start" x="1939" y="-252.5" font-family="Helvetica,sans-Serif" font-size="10.00">/strategies/WiegandPinNBits</text>
<text text-anchor="middle" x="2008.5" y="-241.5" font-family="Helvetica,sans-Serif" font-size="10.00">Only.hpp</text>
</a>
</g>
</g>
<!-- Node29&#45;&gt;Node32 -->
<g id="edge38" class="edge">
<title>Node29&#45;&gt;Node32</title>
<path fill="none" stroke="midnightblue" d="M1940.13,-306.21C1953.24,-296.58 1968.84,-285.12 1981.83,-275.59"/>
<polygon fill="midnightblue" stroke="midnightblue" points="1937.92,-303.49 1931.93,-312.23 1942.06,-309.14 1937.92,-303.49"/>
</g>
<!-- Node30&#45;&gt;Node22 -->
<g id="edge36" class="edge">
<title>Node30&#45;&gt;Node22</title>
<path fill="none" stroke="midnightblue" d="M1782.5,-235C1757.93,-221.66 1725.62,-204.12 1703.37,-192.04"/>
<polygon fill="midnightblue" stroke="midnightblue" points="1781.04,-238.19 1791.5,-239.88 1784.38,-232.04 1781.04,-238.19"/>
</g>
<!-- Node31 -->
<g id="node31" class="node">
<title>Node31</title>
<g id="a_node31"><a xlink:href="../../d7/da6/WiegandPinBuffered_8cpp.html" target="_top" xlink:title=" ">
<polygon fill="white" stroke="black" points="1993,-162 1993,-192 2184,-192 2184,-162 1993,-162"/>
<text text-anchor="start" x="2001" y="-180" font-family="Helvetica,sans-Serif" font-size="10.00">src/modules/wiegand</text>
<text text-anchor="middle" x="2088.5" y="-169" font-family="Helvetica,sans-Serif" font-size="10.00">/strategies/WiegandPinBuffered.cpp</text>
</a>
</g>
</g>
<!-- Node30&#45;&gt;Node31 -->
<g id="edge37" class="edge">
<title>Node30&#45;&gt;Node31</title>
<path fill="none" stroke="midnightblue" d="M1877.22,-237.25C1925.52,-223.71 1992.76,-204.85 2038.31,-192.07"/>
<polygon fill="midnightblue" stroke="midnightblue" points="1876.2,-233.9 1867.52,-239.97 1878.1,-240.64 1876.2,-233.9"/>
</g>
<!-- Node32&#45;&gt;Node22 -->
<g id="edge39" class="edge">
<title>Node32&#45;&gt;Node22</title>
<path fill="none" stroke="midnightblue" d="M1920.54,-233.58C1847.57,-217.27 1827.44,-214.37 1757.5,-198 1749.55,-196.14 1741.18,-194.12 1732.96,-192.1"/>
<polygon fill="midnightblue" stroke="midnightblue" points="1920.17,-237.08 1930.7,-235.86 1921.7,-230.25 1920.17,-237.08"/>
</g>
<!-- Node33 -->
<g id="node33" class="node">
<title>Node33</title>
<g id="a_node33"><a xlink:href="../../dc/d9a/WiegandPinNBitsOnly_8cpp.html" target="_top" xlink:title=" ">
<polygon fill="white" stroke="black" points="2202,-156.5 2202,-197.5 2357,-197.5 2357,-156.5 2202,-156.5"/>
<text text-anchor="start" x="2210" y="-185.5" font-family="Helvetica,sans-Serif" font-size="10.00">src/modules/wiegand</text>
<text text-anchor="start" x="2210" y="-174.5" font-family="Helvetica,sans-Serif" font-size="10.00">/strategies/WiegandPinNBits</text>
<text text-anchor="middle" x="2279.5" y="-163.5" font-family="Helvetica,sans-Serif" font-size="10.00">Only.cpp</text>
</a>
</g>
</g>
<!-- Node32&#45;&gt;Node33 -->
<g id="edge40" class="edge">
<title>Node32&#45;&gt;Node33</title>
<path fill="none" stroke="midnightblue" d="M2087.95,-231.72C2126.62,-220.87 2172.68,-207.96 2209.95,-197.51"/>
<polygon fill="midnightblue" stroke="midnightblue" points="2086.97,-228.36 2078.29,-234.43 2088.86,-235.1 2086.97,-228.36"/>
</g>
<!-- Node34&#45;&gt;Node24 -->
<g id="edge43" class="edge">
<title>Node34&#45;&gt;Node24</title>
<path fill="none" stroke="midnightblue" d="M2379.41,-304.05C2409.03,-262.75 2472.39,-177.05 2502.5,-156 2542.59,-127.98 2576.92,-158.96 2606.5,-120 2625.05,-95.56 2620.48,-57.04 2616.13,-36.32"/>
<polygon fill="midnightblue" stroke="midnightblue" points="2376.42,-302.2 2373.46,-312.38 2382.12,-306.27 2376.42,-302.2"/>
</g>
<!-- Node34&#45;&gt;Node27 -->
<g id="edge45" class="edge">
<title>Node34&#45;&gt;Node27</title>
<path fill="none" stroke="midnightblue" d="M2372.07,-302.5C2383.13,-266.94 2397.49,-199.76 2366.5,-156 2297.8,-59.02 2153.05,-31.72 2063.07,-24.34"/>
<polygon fill="midnightblue" stroke="midnightblue" points="2368.73,-301.46 2368.94,-312.06 2375.38,-303.64 2368.73,-301.46"/>
</g>
<!-- Node34&#45;&gt;Node28 -->
<g id="edge44" class="edge">
<title>Node34&#45;&gt;Node28</title>
<path fill="none" stroke="midnightblue" d="M2328.13,-307.03C2314.1,-298.46 2298.31,-287.69 2285.5,-276 2267.96,-260 2273.11,-245.78 2252.5,-234 2148.16,-174.37 2103.27,-216.39 1984.5,-198 1972.68,-196.17 1960.2,-194.11 1948,-192.03"/>
<polygon fill="midnightblue" stroke="midnightblue" points="2326.65,-310.22 2337.04,-312.33 2330.23,-304.21 2326.65,-310.22"/>
</g>
<!-- Node34&#45;&gt;Node31 -->
<g id="edge46" class="edge">
<title>Node34&#45;&gt;Node31</title>
<path fill="none" stroke="midnightblue" d="M2345.8,-304.16C2325.2,-278.37 2293.03,-238.86 2285.5,-234 2263.55,-219.82 2201.85,-203.46 2153.29,-192.1"/>
<polygon fill="midnightblue" stroke="midnightblue" points="2343.32,-306.66 2352.29,-312.31 2348.8,-302.3 2343.32,-306.66"/>
</g>
<!-- Node34&#45;&gt;Node33 -->
<g id="edge47" class="edge">
<title>Node34&#45;&gt;Node33</title>
<path fill="none" stroke="midnightblue" d="M2355.27,-303.01C2348.1,-283.81 2336.78,-256.3 2323.5,-234 2315.85,-221.15 2305.6,-207.93 2296.92,-197.57"/>
<polygon fill="midnightblue" stroke="midnightblue" points="2352.01,-304.28 2358.73,-312.48 2358.59,-301.89 2352.01,-304.28"/>
</g>
<!-- Node34&#45;&gt;Node35 -->
<g id="edge48" class="edge">
<title>Node34&#45;&gt;Node35</title>
<path fill="none" stroke="midnightblue" d="M2402.27,-308.03C2427.2,-296.16 2459.08,-280.97 2481.96,-270.07"/>
<polygon fill="midnightblue" stroke="midnightblue" points="2400.62,-304.94 2393.09,-312.4 2403.63,-311.26 2400.62,-304.94"/>
</g>
<!-- Node34&#45;&gt;Node37 -->
<g id="edge51" class="edge">
<title>Node34&#45;&gt;Node37</title>
<path fill="none" stroke="midnightblue" d="M2315.82,-308.81C2283.53,-296.83 2241.44,-281.21 2211.43,-270.07"/>
<polygon fill="midnightblue" stroke="midnightblue" points="2314.91,-312.21 2325.51,-312.4 2317.35,-305.64 2314.91,-312.21"/>
</g>
<!-- Node35&#45;&gt;Node25 -->
<g id="edge49" class="edge">
<title>Node35&#45;&gt;Node25</title>
<path fill="none" stroke="midnightblue" d="M2496.08,-231.33C2479.5,-205.61 2453.99,-161.8 2442.5,-120 2434.55,-91.07 2434.69,-55.6 2435.56,-36.25"/>
<polygon fill="midnightblue" stroke="midnightblue" points="2493.32,-233.51 2501.74,-239.95 2499.18,-229.67 2493.32,-233.51"/>
</g>
<!-- Node35&#45;&gt;Node36 -->
<g id="edge50" class="edge">
<title>Node35&#45;&gt;Node36</title>
<path fill="none" stroke="midnightblue" d="M2531.08,-231.79C2544.42,-216.66 2561.35,-197.45 2570.95,-186.56"/>
<polygon fill="midnightblue" stroke="midnightblue" points="2528.09,-229.89 2524.1,-239.7 2533.34,-234.52 2528.09,-229.89"/>
</g>
</g>
</svg>
        <g id="navigator" transform="translate(0 0)" fill="#404254">
                <rect fill="#f2f5e9" fill-opacity="0.5" stroke="#606060" stroke-width=".5" x="0" y="0" width="60" height="60"/>
                <use id="zoomplus" xlink:href="#zoomPlus" x="17" y="9" onmousedown="handleZoom(evt,'in')"/>
                <use id="zoomminus" xlink:href="#zoomMin" x="42" y="9" onmousedown="handleZoom(evt,'out')"/>
                <use id="reset" xlink:href="#resetDef" x="30" y="36" onmousedown="handleReset()"/>
                <g id="arrowUp" xlink:href="#dirArrow" transform="translate(30 24)" onmousedown="handlePan(0,-1)">
                  <use xlink:href="#rim" fill="#404040">
                        <set attributeName="fill" to="#808080" begin="arrowUp.mouseover" end="arrowUp.mouseout"/>
                  </use>
                  <path fill="none" stroke="white" stroke-width="1.5" d="M0,-3.0v7 M-2.5,-0.5L0,-3.0L2.5,-0.5"/>
                </g>
                <g id="arrowRight" xlink:href="#dirArrow" transform="rotate(90) translate(36 -43)" onmousedown="handlePan(1,0)">
                  <use xlink:href="#rim" fill="#404040">
                        <set attributeName="fill" to="#808080" begin="arrowRight.mouseover" end="arrowRight.mouseout"/>
                  </use>
                  <path fill="none" stroke="white" stroke-width="1.5" d="M0,-3.0v7 M-2.5,-0.5L0,-3.0L2.5,-0.5"/>
                </g>
                <g id="arrowDown" xlink:href="#dirArrow" transform="rotate(180) translate(-30 -48)" onmousedown="handlePan(0,1)">
                  <use xlink:href="#rim" fill="#404040">
                        <set attributeName="fill" to="#808080" begin="arrowDown.mouseover" end="arrowDown.mouseout"/>
                  </use>
                  <path fill="none" stroke="white" stroke-width="1.5" d="M0,-3.0v7 M-2.5,-0.5L0,-3.0L2.5,-0.5"/>
                </g>
                <g id="arrowLeft" xlink:href="#dirArrow" transform="rotate(270) translate(-36 17)" onmousedown="handlePan(-1,0)">
                  <use xlink:href="#rim" fill="#404040">
                        <set attributeName="fill" to="#808080" begin="arrowLeft.mouseover" end="arrowLeft.mouseout"/>
                  </use>
                  <path fill="none" stroke="white" stroke-width="1.5" d="M0,-3.0v7 M-2.5,-0.5L0,-3.0L2.5,-0.5"/>
                </g>
        </g>
        <svg viewBox="0 0 15 15" width="100%" height="30px" preserveAspectRatio="xMaxYMin meet">
         <g id="arrow_out" transform="scale(0.3 0.3)">
          <a xlink:href="Auth_8hpp__dep__incl_org.svg" target="_base">
           <rect id="button" ry="5" rx="5" y="6" x="6" height="38" width="38"
                fill="#f2f5e9" fill-opacity="0.5" stroke="#606060" stroke-width="1.0"/>
           <path id="arrow"
             d="M 11.500037,31.436501 C 11.940474,20.09759 22.043105,11.32322 32.158766,21.979434 L 37.068811,17.246167 C 37.068811,17.246167 37.088388,32 37.088388,32 L 22.160133,31.978069 C 22.160133,31.978069 26.997745,27.140456 26.997745,27.140456 C 18.528582,18.264221 13.291696,25.230495 11.500037,31.436501 z"
             style="fill:#404040;"/>
          </a>
         </g>
        </svg>
</svg>
