<?xml version="1.0" encoding="UTF-8" standalone="no"?>
<!DOCTYPE svg PUBLIC "-//W3C//DTD SVG 1.1//EN"
 "http://www.w3.org/Graphics/SVG/1.1/DTD/svg11.dtd">
<!-- Generated by graphviz version 2.43.0 (0)
 -->
<!-- Title: src/core/credentials/ICredential.hpp Pages: 1 -->
<!--zoomable 218 -->
<svg id="main" version="1.1" xmlns="http://www.w3.org/2000/svg" xmlns:xlink="http://www.w3.org/1999/xlink" xml:space="preserve" onload="init(evt)">
<style type="text/css"><![CDATA[
.edge:hover path { stroke: red; }
.edge:hover polygon { stroke: red; fill: red; }
]]></style>
<script type="text/javascript"><![CDATA[
var edges = document.getElementsByTagName('g');
if (edges && edges.length) {
  for (var i=0;i<edges.length;i++) {
    if (edges[i].id.substr(0,4)=='edge') {
      edges[i].setAttribute('class','edge');
    }
  }
}
]]></script>
        <defs>
                <circle id="rim" cx="0" cy="0" r="7"/>
                <circle id="rim2" cx="0" cy="0" r="3.5"/>
                <g id="zoomPlus">
                        <use xlink:href="#rim" fill="#404040">
                                <set attributeName="fill" to="#808080" begin="zoomplus.mouseover" end="zoomplus.mouseout"/>
                        </use>
                        <path d="M-4,0h8M0,-4v8" fill="none" stroke="white" stroke-width="1.5" pointer-events="none"/>
                </g>
                <g id="zoomMin">
                        <use xlink:href="#rim" fill="#404040">
                                <set attributeName="fill" to="#808080" begin="zoomminus.mouseover" end="zoomminus.mouseout"/>
                        </use>
                        <path d="M-4,0h8" fill="none" stroke="white" stroke-width="1.5" pointer-events="none"/>
                </g>
                <g id="dirArrow">
                        <path fill="none" stroke="white" stroke-width="1.5" d="M0,-3.0v7 M-2.5,-0.5L0,-3.0L2.5,-0.5"/>
                </g>
               <g id="resetDef">
                       <use xlink:href="#rim2" fill="#404040">
                               <set attributeName="fill" to="#808080" begin="reset.mouseover" end="reset.mouseout"/>
                       </use>
               </g>
        </defs>

<script type="text/javascript">
var viewWidth = 614;
var viewHeight = 218;
var sectionId = 'dynsection-0';
</script>
<script xlink:href="../../svgpan.js"/>
<svg id="graph" class="graph">
<g id="viewport">
<title>src/core/credentials/ICredential.hpp</title>
<polygon fill="white" stroke="transparent" points="-4,4 -4,-214 609.77,-214 609.77,4 -4,4"/>
<!-- Node1 -->
<g id="node1" class="node">
<title>Node1</title>
<g id="a_node1"><a xlink:title=" ">
<polygon fill="#bfbfbf" stroke="black" points="162.27,-179.5 162.27,-209.5 274.27,-209.5 274.27,-179.5 162.27,-179.5"/>
<text text-anchor="start" x="170.27" y="-197.5" font-family="Helvetica,sans-Serif" font-size="10.00">src/core/credentials</text>
<text text-anchor="middle" x="218.27" y="-186.5" font-family="Helvetica,sans-Serif" font-size="10.00">/ICredential.hpp</text>
</a>
</g>
</g>
<!-- Node2 -->
<g id="node2" class="node">
<title>Node2</title>
<g id="a_node2"><a xlink:href="../../d3/d6f/AuthFwd_8hpp.html" target="_top" xlink:title=" ">
<polygon fill="white" stroke="black" points="15.77,-118 15.77,-137 144.77,-137 144.77,-118 15.77,-118"/>
<text text-anchor="middle" x="80.27" y="-125" font-family="Helvetica,sans-Serif" font-size="10.00">core/auth/AuthFwd.hpp</text>
</a>
</g>
</g>
<!-- Node1&#45;&gt;Node2 -->
<g id="edge1" class="edge">
<title>Node1&#45;&gt;Node2</title>
<path fill="none" stroke="midnightblue" d="M188.33,-179.4C164.33,-168.09 130.93,-152.36 107.64,-141.39"/>
<polygon fill="midnightblue" stroke="midnightblue" points="108.87,-138.1 98.34,-137.01 105.89,-144.43 108.87,-138.1"/>
</g>
<!-- Node4 -->
<g id="node4" class="node">
<title>Node4</title>
<g id="a_node4"><a xlink:title=" ">
<polygon fill="white" stroke="#bfbfbf" points="109.27,-56.5 109.27,-75.5 167.27,-75.5 167.27,-56.5 109.27,-56.5"/>
<text text-anchor="middle" x="138.27" y="-63.5" font-family="Helvetica,sans-Serif" font-size="10.00">memory</text>
</a>
</g>
</g>
<!-- Node1&#45;&gt;Node4 -->
<g id="edge15" class="edge">
<title>Node1&#45;&gt;Node4</title>
<path fill="none" stroke="midnightblue" d="M162.23,-187.93C106.11,-181.06 25.39,-167.2 6.27,-143 -2.27,-132.19 -1.74,-123.2 6.27,-112 11.92,-104.1 62.33,-88.43 99.17,-77.83"/>
<polygon fill="midnightblue" stroke="midnightblue" points="100.5,-81.09 109.16,-74.99 98.58,-74.36 100.5,-81.09"/>
</g>
<!-- Node6 -->
<g id="node6" class="node">
<title>Node6</title>
<g id="a_node6"><a xlink:href="../../d7/d7f/CredentialFwd_8hpp.html" target="_top" xlink:title=" ">
<polygon fill="white" stroke="black" points="291.27,-112.5 291.27,-142.5 439.27,-142.5 439.27,-112.5 291.27,-112.5"/>
<text text-anchor="start" x="299.27" y="-130.5" font-family="Helvetica,sans-Serif" font-size="10.00">core/credentials/Credential</text>
<text text-anchor="middle" x="365.27" y="-119.5" font-family="Helvetica,sans-Serif" font-size="10.00">Fwd.hpp</text>
</a>
</g>
</g>
<!-- Node1&#45;&gt;Node6 -->
<g id="edge5" class="edge">
<title>Node1&#45;&gt;Node6</title>
<path fill="none" stroke="midnightblue" d="M250.17,-179.4C271.84,-169.81 300.71,-157.05 324.11,-146.7"/>
<polygon fill="midnightblue" stroke="midnightblue" points="325.71,-149.82 333.44,-142.58 322.88,-143.42 325.71,-149.82"/>
</g>
<!-- Node7 -->
<g id="node7" class="node">
<title>Node7</title>
<g id="a_node7"><a xlink:href="../../dd/d9d/IVisitable_8hpp.html" target="_top" xlink:title=" ">
<polygon fill="white" stroke="black" points="457.27,-118 457.27,-137 567.27,-137 567.27,-118 457.27,-118"/>
<text text-anchor="middle" x="512.27" y="-125" font-family="Helvetica,sans-Serif" font-size="10.00">tools/IVisitable.hpp</text>
</a>
</g>
</g>
<!-- Node1&#45;&gt;Node7 -->
<g id="edge8" class="edge">
<title>Node1&#45;&gt;Node7</title>
<path fill="none" stroke="midnightblue" d="M274.54,-181.26C321.12,-171.09 389.02,-156.22 448.27,-143 453.63,-141.81 459.23,-140.55 464.79,-139.29"/>
<polygon fill="midnightblue" stroke="midnightblue" points="465.74,-142.67 474.72,-137.05 464.19,-135.84 465.74,-142.67"/>
</g>
<!-- Node11 -->
<g id="node11" class="node">
<title>Node11</title>
<g id="a_node11"><a xlink:href="../../d8/d97/ToolsFwd_8hpp.html" target="_top" xlink:title=" ">
<polygon fill="white" stroke="black" points="163.27,-118 163.27,-137 273.27,-137 273.27,-118 163.27,-118"/>
<text text-anchor="middle" x="218.27" y="-125" font-family="Helvetica,sans-Serif" font-size="10.00">tools/ToolsFwd.hpp</text>
</a>
</g>
</g>
<!-- Node1&#45;&gt;Node11 -->
<g id="edge12" class="edge">
<title>Node1&#45;&gt;Node11</title>
<path fill="none" stroke="midnightblue" d="M218.27,-179.4C218.27,-170.06 218.27,-157.71 218.27,-147.52"/>
<polygon fill="midnightblue" stroke="midnightblue" points="221.77,-147.19 218.27,-137.19 214.77,-147.19 221.77,-147.19"/>
</g>
<!-- Node3 -->
<g id="node3" class="node">
<title>Node3</title>
<g id="a_node3"><a xlink:title=" ">
<polygon fill="white" stroke="#bfbfbf" points="37.77,-56.5 37.77,-75.5 90.77,-75.5 90.77,-56.5 37.77,-56.5"/>
<text text-anchor="middle" x="64.27" y="-63.5" font-family="Helvetica,sans-Serif" font-size="10.00">cstddef</text>
</a>
</g>
</g>
<!-- Node2&#45;&gt;Node3 -->
<g id="edge2" class="edge">
<title>Node2&#45;&gt;Node3</title>
<path fill="none" stroke="midnightblue" d="M77.98,-117.98C75.7,-109.49 72.13,-96.2 69.2,-85.32"/>
<polygon fill="midnightblue" stroke="midnightblue" points="72.54,-84.26 66.56,-75.51 65.78,-86.07 72.54,-84.26"/>
</g>
<!-- Node2&#45;&gt;Node4 -->
<g id="edge3" class="edge">
<title>Node2&#45;&gt;Node4</title>
<path fill="none" stroke="midnightblue" d="M88.58,-117.98C97.46,-108.87 111.72,-94.24 122.69,-82.98"/>
<polygon fill="midnightblue" stroke="midnightblue" points="125.51,-85.11 129.98,-75.51 120.49,-80.23 125.51,-85.11"/>
</g>
<!-- Node5 -->
<g id="node5" class="node">
<title>Node5</title>
<g id="a_node5"><a xlink:title=" ">
<polygon fill="white" stroke="#bfbfbf" points="185.77,-56.5 185.77,-75.5 280.77,-75.5 280.77,-56.5 185.77,-56.5"/>
<text text-anchor="middle" x="233.27" y="-63.5" font-family="Helvetica,sans-Serif" font-size="10.00">odb/lazy&#45;ptr.hxx</text>
</a>
</g>
</g>
<!-- Node2&#45;&gt;Node5 -->
<g id="edge4" class="edge">
<title>Node2&#45;&gt;Node5</title>
<path fill="none" stroke="midnightblue" d="M102.2,-117.98C128.33,-107.81 172.19,-90.76 201.9,-79.2"/>
<polygon fill="midnightblue" stroke="midnightblue" points="203.34,-82.4 211.39,-75.51 200.8,-75.87 203.34,-82.4"/>
</g>
<!-- Node6&#45;&gt;Node4 -->
<g id="edge6" class="edge">
<title>Node6&#45;&gt;Node4</title>
<path fill="none" stroke="midnightblue" d="M311.77,-112.47C270.55,-101.67 214.52,-86.99 177.42,-77.26"/>
<polygon fill="midnightblue" stroke="midnightblue" points="178.05,-73.81 167.49,-74.66 176.28,-80.58 178.05,-73.81"/>
</g>
<!-- Node6&#45;&gt;Node5 -->
<g id="edge7" class="edge">
<title>Node6&#45;&gt;Node5</title>
<path fill="none" stroke="midnightblue" d="M333.99,-112.4C312.04,-102.51 282.93,-89.38 261.65,-79.79"/>
<polygon fill="midnightblue" stroke="midnightblue" points="263.04,-76.58 252.48,-75.66 260.16,-82.96 263.04,-76.58"/>
</g>
<!-- Node8 -->
<g id="node8" class="node">
<title>Node8</title>
<g id="a_node8"><a xlink:href="../../d2/d91/Visitor_8hpp.html" target="_top" xlink:title=" ">
<polygon fill="white" stroke="black" points="510.77,-56.5 510.77,-75.5 605.77,-75.5 605.77,-56.5 510.77,-56.5"/>
<text text-anchor="middle" x="558.27" y="-63.5" font-family="Helvetica,sans-Serif" font-size="10.00">tools/Visitor.hpp</text>
</a>
</g>
</g>
<!-- Node7&#45;&gt;Node8 -->
<g id="edge9" class="edge">
<title>Node7&#45;&gt;Node8</title>
<path fill="none" stroke="midnightblue" d="M518.86,-117.98C525.76,-109.05 536.78,-94.81 545.41,-83.64"/>
<polygon fill="midnightblue" stroke="midnightblue" points="548.35,-85.56 551.7,-75.51 542.81,-81.28 548.35,-85.56"/>
</g>
<!-- Node10 -->
<g id="node10" class="node">
<title>Node10</title>
<g id="a_node10"><a xlink:title=" ">
<polygon fill="white" stroke="#bfbfbf" points="440.27,-56.5 440.27,-75.5 492.27,-75.5 492.27,-56.5 440.27,-56.5"/>
<text text-anchor="middle" x="466.27" y="-63.5" font-family="Helvetica,sans-Serif" font-size="10.00">cassert</text>
</a>
</g>
</g>
<!-- Node7&#45;&gt;Node10 -->
<g id="edge11" class="edge">
<title>Node7&#45;&gt;Node10</title>
<path fill="none" stroke="midnightblue" d="M505.68,-117.98C498.78,-109.05 487.77,-94.81 479.14,-83.64"/>
<polygon fill="midnightblue" stroke="midnightblue" points="481.74,-81.28 472.85,-75.51 476.2,-85.56 481.74,-81.28"/>
</g>
<!-- Node9 -->
<g id="node9" class="node">
<title>Node9</title>
<g id="a_node9"><a xlink:title=" ">
<polygon fill="white" stroke="#bfbfbf" points="523.77,-0.5 523.77,-19.5 592.77,-19.5 592.77,-0.5 523.77,-0.5"/>
<text text-anchor="middle" x="558.27" y="-7.5" font-family="Helvetica,sans-Serif" font-size="10.00">type_traits</text>
</a>
</g>
</g>
<!-- Node8&#45;&gt;Node9 -->
<g id="edge10" class="edge">
<title>Node8&#45;&gt;Node9</title>
<path fill="none" stroke="midnightblue" d="M558.27,-56.08C558.27,-49.01 558.27,-38.86 558.27,-29.99"/>
<polygon fill="midnightblue" stroke="midnightblue" points="561.77,-29.75 558.27,-19.75 554.77,-29.75 561.77,-29.75"/>
</g>
<!-- Node11&#45;&gt;Node4 -->
<g id="edge13" class="edge">
<title>Node11&#45;&gt;Node4</title>
<path fill="none" stroke="midnightblue" d="M206.81,-117.98C194.1,-108.52 173.36,-93.1 158.02,-81.69"/>
<polygon fill="midnightblue" stroke="midnightblue" points="159.83,-78.67 149.71,-75.51 155.65,-84.29 159.83,-78.67"/>
</g>
<!-- Node11&#45;&gt;Node5 -->
<g id="edge14" class="edge">
<title>Node11&#45;&gt;Node5</title>
<path fill="none" stroke="midnightblue" d="M220.42,-117.98C222.56,-109.49 225.91,-96.2 228.66,-85.32"/>
<polygon fill="midnightblue" stroke="midnightblue" points="232.08,-86.06 231.13,-75.51 225.29,-84.35 232.08,-86.06"/>
</g>
</g>
</svg>
        <g id="navigator" transform="translate(0 0)" fill="#404254">
                <rect fill="#f2f5e9" fill-opacity="0.5" stroke="#606060" stroke-width=".5" x="0" y="0" width="60" height="60"/>
                <use id="zoomplus" xlink:href="#zoomPlus" x="17" y="9" onmousedown="handleZoom(evt,'in')"/>
                <use id="zoomminus" xlink:href="#zoomMin" x="42" y="9" onmousedown="handleZoom(evt,'out')"/>
                <use id="reset" xlink:href="#resetDef" x="30" y="36" onmousedown="handleReset()"/>
                <g id="arrowUp" xlink:href="#dirArrow" transform="translate(30 24)" onmousedown="handlePan(0,-1)">
                  <use xlink:href="#rim" fill="#404040">
                        <set attributeName="fill" to="#808080" begin="arrowUp.mouseover" end="arrowUp.mouseout"/>
                  </use>
                  <path fill="none" stroke="white" stroke-width="1.5" d="M0,-3.0v7 M-2.5,-0.5L0,-3.0L2.5,-0.5"/>
                </g>
                <g id="arrowRight" xlink:href="#dirArrow" transform="rotate(90) translate(36 -43)" onmousedown="handlePan(1,0)">
                  <use xlink:href="#rim" fill="#404040">
                        <set attributeName="fill" to="#808080" begin="arrowRight.mouseover" end="arrowRight.mouseout"/>
                  </use>
                  <path fill="none" stroke="white" stroke-width="1.5" d="M0,-3.0v7 M-2.5,-0.5L0,-3.0L2.5,-0.5"/>
                </g>
                <g id="arrowDown" xlink:href="#dirArrow" transform="rotate(180) translate(-30 -48)" onmousedown="handlePan(0,1)">
                  <use xlink:href="#rim" fill="#404040">
                        <set attributeName="fill" to="#808080" begin="arrowDown.mouseover" end="arrowDown.mouseout"/>
                  </use>
                  <path fill="none" stroke="white" stroke-width="1.5" d="M0,-3.0v7 M-2.5,-0.5L0,-3.0L2.5,-0.5"/>
                </g>
                <g id="arrowLeft" xlink:href="#dirArrow" transform="rotate(270) translate(-36 17)" onmousedown="handlePan(-1,0)">
                  <use xlink:href="#rim" fill="#404040">
                        <set attributeName="fill" to="#808080" begin="arrowLeft.mouseover" end="arrowLeft.mouseout"/>
                  </use>
                  <path fill="none" stroke="white" stroke-width="1.5" d="M0,-3.0v7 M-2.5,-0.5L0,-3.0L2.5,-0.5"/>
                </g>
        </g>
        <svg viewBox="0 0 15 15" width="100%" height="30px" preserveAspectRatio="xMaxYMin meet">
         <g id="arrow_out" transform="scale(0.3 0.3)">
          <a xlink:href="ICredential_8hpp__incl_org.svg" target="_base">
           <rect id="button" ry="5" rx="5" y="6" x="6" height="38" width="38"
                fill="#f2f5e9" fill-opacity="0.5" stroke="#606060" stroke-width="1.0"/>
           <path id="arrow"
             d="M 11.500037,31.436501 C 11.940474,20.09759 22.043105,11.32322 32.158766,21.979434 L 37.068811,17.246167 C 37.068811,17.246167 37.088388,32 37.088388,32 L 22.160133,31.978069 C 22.160133,31.978069 26.997745,27.140456 26.997745,27.140456 C 18.528582,18.264221 13.291696,25.230495 11.500037,31.436501 z"
             style="fill:#404040;"/>
          </a>
         </g>
        </svg>
</svg>
