<?xml version="1.0" encoding="UTF-8" standalone="no"?>
<!DOCTYPE svg PUBLIC "-//W3C//DTD SVG 1.1//EN"
 "http://www.w3.org/Graphics/SVG/1.1/DTD/svg11.dtd">
<!-- Generated by graphviz version 2.43.0 (0)
 -->
<!-- Title: Leosac::Auth::AccessPoint Pages: 1 -->
<svg width="322pt" height="95pt"
 viewBox="0.00 0.00 321.50 95.00" xmlns="http://www.w3.org/2000/svg" xmlns:xlink="http://www.w3.org/1999/xlink">
<g id="graph0" class="graph" transform="scale(1 1) rotate(0) translate(4 91)">
<title>Leosac::Auth::AccessPoint</title>
<polygon fill="white" stroke="transparent" points="-4,4 -4,-91 317.5,-91 317.5,4 -4,4"/>
<!-- Node1 -->
<g id="node1" class="node">
<title>Node1</title>
<g id="a_node1"><a xlink:title=" ">
<polygon fill="#bfbfbf" stroke="black" points="84.5,-0.5 84.5,-19.5 227.5,-19.5 227.5,-0.5 84.5,-0.5"/>
<text text-anchor="middle" x="156" y="-7.5" font-family="Helvetica,sans-Serif" font-size="10.00">Leosac::Auth::AccessPoint</text>
</a>
</g>
</g>
<!-- Node2 -->
<g id="node2" class="node">
<title>Node2</title>
<g id="a_node2"><a xlink:href="../../de/dd9/classLeosac_1_1Auth_1_1IAccessPoint.html" target="_top" xlink:title="An interface for access point.">
<polygon fill="white" stroke="black" points="0,-62 0,-81 146,-81 146,-62 0,-62"/>
<text text-anchor="middle" x="73" y="-69" font-family="Helvetica,sans-Serif" font-size="10.00">Leosac::Auth::IAccessPoint</text>
</a>
</g>
</g>
<!-- Node2&#45;&gt;Node1 -->
<g id="edge1" class="edge">
<title>Node2&#45;&gt;Node1</title>
<path fill="none" stroke="midnightblue" d="M93.07,-56.11C109.03,-44.67 130.83,-29.05 144.13,-19.51"/>
<polygon fill="midnightblue" stroke="midnightblue" points="90.98,-53.3 84.89,-61.98 95.06,-58.99 90.98,-53.3"/>
</g>
<!-- Node3 -->
<g id="node3" class="node">
<title>Node3</title>
<g id="a_node3"><a xlink:title=" ">
<polygon fill="white" stroke="#bfbfbf" points="164.5,-56.5 164.5,-86.5 313.5,-86.5 313.5,-56.5 164.5,-56.5"/>
<text text-anchor="start" x="172.5" y="-74.5" font-family="Helvetica,sans-Serif" font-size="10.00">std::enable_shared</text>
<text text-anchor="middle" x="239" y="-63.5" font-family="Helvetica,sans-Serif" font-size="10.00">_from_this&lt; AccessPoint &gt;</text>
</a>
</g>
</g>
<!-- Node3&#45;&gt;Node1 -->
<g id="edge2" class="edge">
<title>Node3&#45;&gt;Node1</title>
<path fill="none" stroke="midnightblue" d="M211.08,-50.48C196.46,-40 179.31,-27.71 168.08,-19.66"/>
<polygon fill="midnightblue" stroke="midnightblue" points="209.16,-53.42 219.33,-56.4 213.24,-47.73 209.16,-53.42"/>
</g>
</g>
</svg>
