<?xml version="1.0" encoding="UTF-8" standalone="no"?>
<!DOCTYPE svg PUBLIC "-//W3C//DTD SVG 1.1//EN"
 "http://www.w3.org/Graphics/SVG/1.1/DTD/svg11.dtd">
<!-- Generated by graphviz version 2.43.0 (0)
 -->
<!-- Title: Leosac::Module::Wiegand::Strategy::WiegandPinBuffered Pages: 1 -->
<svg width="176pt" height="173pt"
 viewBox="0.00 0.00 176.00 173.00" xmlns="http://www.w3.org/2000/svg" xmlns:xlink="http://www.w3.org/1999/xlink">
<g id="graph0" class="graph" transform="scale(1 1) rotate(0) translate(4 169)">
<title>Leosac::Module::Wiegand::Strategy::WiegandPinBuffered</title>
<polygon fill="white" stroke="transparent" points="-4,4 -4,-169 172,-169 172,4 -4,4"/>
<!-- Node1 -->
<g id="node1" class="node">
<title>Node1</title>
<g id="a_node1"><a xlink:title="Strategy for PIN only, when up to 5 keys are buffered and sent as 26 bits.">
<polygon fill="#bfbfbf" stroke="black" points="0,-0.5 0,-30.5 168,-30.5 168,-0.5 0,-0.5"/>
<text text-anchor="start" x="8" y="-18.5" font-family="Helvetica,sans-Serif" font-size="10.00">Leosac::Module::Wiegand</text>
<text text-anchor="middle" x="84" y="-7.5" font-family="Helvetica,sans-Serif" font-size="10.00">::Strategy::WiegandPinBuffered</text>
</a>
</g>
</g>
<!-- Node2 -->
<g id="node2" class="node">
<title>Node2</title>
<g id="a_node2"><a xlink:href="../../d1/db0/classLeosac_1_1Module_1_1Wiegand_1_1Strategy_1_1PinReading.html" target="_top" xlink:title="Interface for a strategy that read a PIN code.">
<polygon fill="white" stroke="black" points="13.5,-67.5 13.5,-97.5 154.5,-97.5 154.5,-67.5 13.5,-67.5"/>
<text text-anchor="start" x="21.5" y="-85.5" font-family="Helvetica,sans-Serif" font-size="10.00">Leosac::Module::Wiegand</text>
<text text-anchor="middle" x="84" y="-74.5" font-family="Helvetica,sans-Serif" font-size="10.00">::Strategy::PinReading</text>
</a>
</g>
</g>
<!-- Node2&#45;&gt;Node1 -->
<g id="edge1" class="edge">
<title>Node2&#45;&gt;Node1</title>
<path fill="none" stroke="midnightblue" d="M84,-57.11C84,-48.15 84,-38.32 84,-30.58"/>
<polygon fill="midnightblue" stroke="midnightblue" points="80.5,-57.4 84,-67.4 87.5,-57.4 80.5,-57.4"/>
</g>
<!-- Node3 -->
<g id="node3" class="node">
<title>Node3</title>
<g id="a_node3"><a xlink:href="../../d5/d39/classLeosac_1_1Module_1_1Wiegand_1_1Strategy_1_1WiegandStrategy.html" target="_top" xlink:title="The multiple modes available to wiegand reader are implemented through the strategy pattern.">
<polygon fill="white" stroke="black" points="7.5,-134.5 7.5,-164.5 160.5,-164.5 160.5,-134.5 7.5,-134.5"/>
<text text-anchor="start" x="15.5" y="-152.5" font-family="Helvetica,sans-Serif" font-size="10.00">Leosac::Module::Wiegand</text>
<text text-anchor="middle" x="84" y="-141.5" font-family="Helvetica,sans-Serif" font-size="10.00">::Strategy::WiegandStrategy</text>
</a>
</g>
</g>
<!-- Node3&#45;&gt;Node2 -->
<g id="edge2" class="edge">
<title>Node3&#45;&gt;Node2</title>
<path fill="none" stroke="midnightblue" d="M84,-124.11C84,-115.15 84,-105.32 84,-97.58"/>
<polygon fill="midnightblue" stroke="midnightblue" points="80.5,-124.4 84,-134.4 87.5,-124.4 80.5,-124.4"/>
</g>
</g>
</svg>
