<?xml version="1.0" encoding="UTF-8" standalone="no"?>
<!DOCTYPE svg PUBLIC "-//W3C//DTD SVG 1.1//EN"
 "http://www.w3.org/Graphics/SVG/1.1/DTD/svg11.dtd">
<!-- Generated by graphviz version 2.43.0 (0)
 -->
<!-- Title: src/core/audit/IAuditEntry.hpp Pages: 1 -->
<svg width="603pt" height="207pt"
 viewBox="0.00 0.00 602.50 207.00" xmlns="http://www.w3.org/2000/svg" xmlns:xlink="http://www.w3.org/1999/xlink">
<g id="graph0" class="graph" transform="scale(1 1) rotate(0) translate(4 203)">
<title>src/core/audit/IAuditEntry.hpp</title>
<polygon fill="white" stroke="transparent" points="-4,4 -4,-203 598.5,-203 598.5,4 -4,4"/>
<!-- Node1 -->
<g id="node1" class="node">
<title>Node1</title>
<g id="a_node1"><a xlink:title=" ">
<polygon fill="#bfbfbf" stroke="black" points="174.5,-179.5 174.5,-198.5 333.5,-198.5 333.5,-179.5 174.5,-179.5"/>
<text text-anchor="middle" x="254" y="-186.5" font-family="Helvetica,sans-Serif" font-size="10.00">src/core/audit/IAuditEntry.hpp</text>
</a>
</g>
</g>
<!-- Node2 -->
<g id="node2" class="node">
<title>Node2</title>
<g id="a_node2"><a xlink:href="../../d7/dcf/AuditFwd_8hpp.html" target="_top" xlink:title=" ">
<polygon fill="white" stroke="black" points="186.5,-118 186.5,-137 321.5,-137 321.5,-118 186.5,-118"/>
<text text-anchor="middle" x="254" y="-125" font-family="Helvetica,sans-Serif" font-size="10.00">core/audit/AuditFwd.hpp</text>
</a>
</g>
</g>
<!-- Node1&#45;&gt;Node2 -->
<g id="edge1" class="edge">
<title>Node1&#45;&gt;Node2</title>
<path fill="none" stroke="midnightblue" d="M254,-179.48C254,-171.08 254,-157.98 254,-147.16"/>
<polygon fill="midnightblue" stroke="midnightblue" points="257.5,-147.01 254,-137.01 250.5,-147.01 257.5,-147.01"/>
</g>
<!-- Node5 -->
<g id="node5" class="node">
<title>Node5</title>
<g id="a_node5"><a xlink:title=" ">
<polygon fill="white" stroke="#bfbfbf" points="0,-56.5 0,-75.5 58,-75.5 58,-56.5 0,-56.5"/>
<text text-anchor="middle" x="29" y="-63.5" font-family="Helvetica,sans-Serif" font-size="10.00">memory</text>
</a>
</g>
</g>
<!-- Node1&#45;&gt;Node5 -->
<g id="edge15" class="edge">
<title>Node1&#45;&gt;Node5</title>
<path fill="none" stroke="midnightblue" d="M174.25,-182.41C117.55,-176.59 48.34,-165.09 30,-143 16.86,-127.18 19.35,-102.45 23.31,-85.53"/>
<polygon fill="midnightblue" stroke="midnightblue" points="26.73,-86.27 25.97,-75.7 19.98,-84.44 26.73,-86.27"/>
</g>
<!-- Node7 -->
<g id="node7" class="node">
<title>Node7</title>
<g id="a_node7"><a xlink:href="../../d3/d6f/AuthFwd_8hpp.html" target="_top" xlink:title=" ">
<polygon fill="white" stroke="black" points="39.5,-118 39.5,-137 168.5,-137 168.5,-118 39.5,-118"/>
<text text-anchor="middle" x="104" y="-125" font-family="Helvetica,sans-Serif" font-size="10.00">core/auth/AuthFwd.hpp</text>
</a>
</g>
</g>
<!-- Node1&#45;&gt;Node7 -->
<g id="edge6" class="edge">
<title>Node1&#45;&gt;Node7</title>
<path fill="none" stroke="midnightblue" d="M232.51,-179.48C206.89,-169.31 163.89,-152.26 134.76,-140.7"/>
<polygon fill="midnightblue" stroke="midnightblue" points="136.04,-137.44 125.45,-137.01 133.46,-143.95 136.04,-137.44"/>
</g>
<!-- Node8 -->
<g id="node8" class="node">
<title>Node8</title>
<g id="a_node8"><a xlink:href="../../dd/d9d/IVisitable_8hpp.html" target="_top" xlink:title=" ">
<polygon fill="white" stroke="black" points="341,-118 341,-137 451,-137 451,-118 341,-118"/>
<text text-anchor="middle" x="396" y="-125" font-family="Helvetica,sans-Serif" font-size="10.00">tools/IVisitable.hpp</text>
</a>
</g>
</g>
<!-- Node1&#45;&gt;Node8 -->
<g id="edge10" class="edge">
<title>Node1&#45;&gt;Node8</title>
<path fill="none" stroke="midnightblue" d="M274.35,-179.48C298.39,-169.4 338.6,-152.55 366.16,-141"/>
<polygon fill="midnightblue" stroke="midnightblue" points="367.82,-144.1 375.69,-137.01 365.12,-137.65 367.82,-144.1"/>
</g>
<!-- Node12 -->
<g id="node12" class="node">
<title>Node12</title>
<g id="a_node12"><a xlink:title=" ">
<polygon fill="white" stroke="#bfbfbf" points="469.5,-112.5 469.5,-142.5 594.5,-142.5 594.5,-112.5 469.5,-112.5"/>
<text text-anchor="start" x="477.5" y="-130.5" font-family="Helvetica,sans-Serif" font-size="10.00">boost/date_time/posix</text>
<text text-anchor="middle" x="532" y="-119.5" font-family="Helvetica,sans-Serif" font-size="10.00">_time/posix_time.hpp</text>
</a>
</g>
</g>
<!-- Node1&#45;&gt;Node12 -->
<g id="edge14" class="edge">
<title>Node1&#45;&gt;Node12</title>
<path fill="none" stroke="midnightblue" d="M293.83,-179.48C336.92,-170.25 406.54,-155.35 459.41,-144.04"/>
<polygon fill="midnightblue" stroke="midnightblue" points="460.36,-147.41 469.41,-141.9 458.9,-140.57 460.36,-147.41"/>
</g>
<!-- Node3 -->
<g id="node3" class="node">
<title>Node3</title>
<g id="a_node3"><a xlink:title=" ">
<polygon fill="white" stroke="#bfbfbf" points="76.5,-56.5 76.5,-75.5 129.5,-75.5 129.5,-56.5 76.5,-56.5"/>
<text text-anchor="middle" x="103" y="-63.5" font-family="Helvetica,sans-Serif" font-size="10.00">cstddef</text>
</a>
</g>
</g>
<!-- Node2&#45;&gt;Node3 -->
<g id="edge2" class="edge">
<title>Node2&#45;&gt;Node3</title>
<path fill="none" stroke="midnightblue" d="M232.37,-117.98C206.58,-107.81 163.29,-90.76 133.96,-79.2"/>
<polygon fill="midnightblue" stroke="midnightblue" points="135.18,-75.92 124.59,-75.51 132.62,-82.43 135.18,-75.92"/>
</g>
<!-- Node4 -->
<g id="node4" class="node">
<title>Node4</title>
<g id="a_node4"><a xlink:title=" ">
<polygon fill="white" stroke="#bfbfbf" points="260.5,-56.5 260.5,-75.5 331.5,-75.5 331.5,-56.5 260.5,-56.5"/>
<text text-anchor="middle" x="296" y="-63.5" font-family="Helvetica,sans-Serif" font-size="10.00">flagset.hpp</text>
</a>
</g>
</g>
<!-- Node2&#45;&gt;Node4 -->
<g id="edge3" class="edge">
<title>Node2&#45;&gt;Node4</title>
<path fill="none" stroke="midnightblue" d="M260.02,-117.98C266.26,-109.14 276.17,-95.09 284.02,-83.98"/>
<polygon fill="midnightblue" stroke="midnightblue" points="287.09,-85.7 289.99,-75.51 281.37,-81.66 287.09,-85.7"/>
</g>
<!-- Node2&#45;&gt;Node5 -->
<g id="edge4" class="edge">
<title>Node2&#45;&gt;Node5</title>
<path fill="none" stroke="midnightblue" d="M221.76,-117.98C181.18,-107.24 111.52,-88.82 67.99,-77.31"/>
<polygon fill="midnightblue" stroke="midnightblue" points="68.88,-73.92 58.31,-74.75 67.09,-80.69 68.88,-73.92"/>
</g>
<!-- Node6 -->
<g id="node6" class="node">
<title>Node6</title>
<g id="a_node6"><a xlink:title=" ">
<polygon fill="white" stroke="#bfbfbf" points="147.5,-56.5 147.5,-75.5 242.5,-75.5 242.5,-56.5 147.5,-56.5"/>
<text text-anchor="middle" x="195" y="-63.5" font-family="Helvetica,sans-Serif" font-size="10.00">odb/lazy&#45;ptr.hxx</text>
</a>
</g>
</g>
<!-- Node2&#45;&gt;Node6 -->
<g id="edge5" class="edge">
<title>Node2&#45;&gt;Node6</title>
<path fill="none" stroke="midnightblue" d="M245.55,-117.98C236.43,-108.78 221.73,-93.96 210.52,-82.66"/>
<polygon fill="midnightblue" stroke="midnightblue" points="212.96,-80.15 203.44,-75.51 207.99,-85.07 212.96,-80.15"/>
</g>
<!-- Node7&#45;&gt;Node3 -->
<g id="edge7" class="edge">
<title>Node7&#45;&gt;Node3</title>
<path fill="none" stroke="midnightblue" d="M103.86,-117.98C103.72,-109.58 103.5,-96.48 103.31,-85.66"/>
<polygon fill="midnightblue" stroke="midnightblue" points="106.81,-85.45 103.14,-75.51 99.81,-85.57 106.81,-85.45"/>
</g>
<!-- Node7&#45;&gt;Node5 -->
<g id="edge8" class="edge">
<title>Node7&#45;&gt;Node5</title>
<path fill="none" stroke="midnightblue" d="M93.25,-117.98C81.45,-108.61 62.26,-93.38 47.92,-82.01"/>
<polygon fill="midnightblue" stroke="midnightblue" points="49.74,-78.98 39.73,-75.51 45.38,-84.47 49.74,-78.98"/>
</g>
<!-- Node7&#45;&gt;Node6 -->
<g id="edge9" class="edge">
<title>Node7&#45;&gt;Node6</title>
<path fill="none" stroke="midnightblue" d="M117.04,-117.98C131.77,-108.34 155.97,-92.52 173.51,-81.05"/>
<polygon fill="midnightblue" stroke="midnightblue" points="175.53,-83.91 181.99,-75.51 171.7,-78.05 175.53,-83.91"/>
</g>
<!-- Node9 -->
<g id="node9" class="node">
<title>Node9</title>
<g id="a_node9"><a xlink:href="../../d2/d91/Visitor_8hpp.html" target="_top" xlink:title=" ">
<polygon fill="white" stroke="black" points="349.5,-56.5 349.5,-75.5 444.5,-75.5 444.5,-56.5 349.5,-56.5"/>
<text text-anchor="middle" x="397" y="-63.5" font-family="Helvetica,sans-Serif" font-size="10.00">tools/Visitor.hpp</text>
</a>
</g>
</g>
<!-- Node8&#45;&gt;Node9 -->
<g id="edge11" class="edge">
<title>Node8&#45;&gt;Node9</title>
<path fill="none" stroke="midnightblue" d="M396.14,-117.98C396.28,-109.58 396.5,-96.48 396.69,-85.66"/>
<polygon fill="midnightblue" stroke="midnightblue" points="400.19,-85.57 396.86,-75.51 393.19,-85.45 400.19,-85.57"/>
</g>
<!-- Node11 -->
<g id="node11" class="node">
<title>Node11</title>
<g id="a_node11"><a xlink:title=" ">
<polygon fill="white" stroke="#bfbfbf" points="463,-56.5 463,-75.5 515,-75.5 515,-56.5 463,-56.5"/>
<text text-anchor="middle" x="489" y="-63.5" font-family="Helvetica,sans-Serif" font-size="10.00">cassert</text>
</a>
</g>
</g>
<!-- Node8&#45;&gt;Node11 -->
<g id="edge13" class="edge">
<title>Node8&#45;&gt;Node11</title>
<path fill="none" stroke="midnightblue" d="M409.32,-117.98C424.38,-108.34 449.12,-92.52 467.04,-81.05"/>
<polygon fill="midnightblue" stroke="midnightblue" points="469.16,-83.85 475.7,-75.51 465.39,-77.95 469.16,-83.85"/>
</g>
<!-- Node10 -->
<g id="node10" class="node">
<title>Node10</title>
<g id="a_node10"><a xlink:title=" ">
<polygon fill="white" stroke="#bfbfbf" points="362.5,-0.5 362.5,-19.5 431.5,-19.5 431.5,-0.5 362.5,-0.5"/>
<text text-anchor="middle" x="397" y="-7.5" font-family="Helvetica,sans-Serif" font-size="10.00">type_traits</text>
</a>
</g>
</g>
<!-- Node9&#45;&gt;Node10 -->
<g id="edge12" class="edge">
<title>Node9&#45;&gt;Node10</title>
<path fill="none" stroke="midnightblue" d="M397,-56.08C397,-49.01 397,-38.86 397,-29.99"/>
<polygon fill="midnightblue" stroke="midnightblue" points="400.5,-29.75 397,-19.75 393.5,-29.75 400.5,-29.75"/>
</g>
</g>
</svg>
