<?xml version="1.0" encoding="UTF-8" standalone="no"?>
<!DOCTYPE svg PUBLIC "-//W3C//DTD SVG 1.1//EN"
 "http://www.w3.org/Graphics/SVG/1.1/DTD/svg11.dtd">
<!-- Generated by graphviz version 2.43.0 (0)
 -->
<!-- Title: Leosac::Module::Wiegand::Strategy::PinReading Pages: 1 -->
<svg width="550pt" height="100pt"
 viewBox="0.00 0.00 550.00 99.50" xmlns="http://www.w3.org/2000/svg" xmlns:xlink="http://www.w3.org/1999/xlink">
<g id="graph0" class="graph" transform="scale(1 1) rotate(0) translate(4 95.5)">
<title>Leosac::Module::Wiegand::Strategy::PinReading</title>
<polygon fill="white" stroke="transparent" points="-4,4 -4,-95.5 546,-95.5 546,4 -4,4"/>
<!-- Node1 -->
<g id="node1" class="node">
<title>Node1</title>
<g id="a_node1"><a xlink:title="Interface for a strategy that read a PIN code.">
<polygon fill="#bfbfbf" stroke="black" points="189,-33 189,-63 330,-63 330,-33 189,-33"/>
<text text-anchor="start" x="197" y="-51" font-family="Helvetica,sans-Serif" font-size="10.00">Leosac::Module::Wiegand</text>
<text text-anchor="middle" x="259.5" y="-40" font-family="Helvetica,sans-Serif" font-size="10.00">::Strategy::PinReading</text>
</a>
</g>
</g>
<!-- Node3 -->
<g id="node3" class="node">
<title>Node3</title>
<g id="a_node3"><a xlink:href="../../d8/d7d/classLeosac_1_1Module_1_1Wiegand_1_1Strategy_1_1WiegandPinBuffered.html" target="_top" xlink:title="Strategy for PIN only, when up to 5 keys are buffered and sent as 26 bits.">
<polygon fill="white" stroke="black" points="370,-61 370,-91 538,-91 538,-61 370,-61"/>
<text text-anchor="start" x="378" y="-79" font-family="Helvetica,sans-Serif" font-size="10.00">Leosac::Module::Wiegand</text>
<text text-anchor="middle" x="454" y="-68" font-family="Helvetica,sans-Serif" font-size="10.00">::Strategy::WiegandPinBuffered</text>
</a>
</g>
</g>
<!-- Node1&#45;&gt;Node3 -->
<g id="edge2" class="edge">
<title>Node1&#45;&gt;Node3</title>
<path fill="none" stroke="midnightblue" d="M340.29,-59.61C350,-61.02 359.95,-62.46 369.71,-63.88"/>
<polygon fill="midnightblue" stroke="midnightblue" points="340.67,-56.12 330.27,-58.15 339.66,-63.05 340.67,-56.12"/>
</g>
<!-- Node4 -->
<g id="node4" class="node">
<title>Node4</title>
<g id="a_node4"><a xlink:href="../../df/da3/classLeosac_1_1Module_1_1Wiegand_1_1Strategy_1_1WiegandPinNBitsOnly.html" target="_top" xlink:title="Strategy for ready PIN only.">
<polygon fill="white" stroke="black" points="366,-0.5 366,-41.5 542,-41.5 542,-0.5 366,-0.5"/>
<text text-anchor="start" x="374" y="-29.5" font-family="Helvetica,sans-Serif" font-size="10.00">Leosac::Module::Wiegand</text>
<text text-anchor="start" x="374" y="-18.5" font-family="Helvetica,sans-Serif" font-size="10.00">::Strategy::WiegandPinNBitsOnly</text>
<text text-anchor="middle" x="454" y="-7.5" font-family="Helvetica,sans-Serif" font-size="10.00">&lt; NbBits &gt;</text>
</a>
</g>
</g>
<!-- Node1&#45;&gt;Node4 -->
<g id="edge3" class="edge">
<title>Node1&#45;&gt;Node4</title>
<path fill="none" stroke="midnightblue" d="M340.37,-36.8C348.74,-35.62 357.28,-34.43 365.72,-33.24"/>
<polygon fill="midnightblue" stroke="midnightblue" points="339.69,-33.36 330.27,-38.21 340.66,-40.29 339.69,-33.36"/>
</g>
<!-- Node2 -->
<g id="node2" class="node">
<title>Node2</title>
<g id="a_node2"><a xlink:href="../../d5/d39/classLeosac_1_1Module_1_1Wiegand_1_1Strategy_1_1WiegandStrategy.html" target="_top" xlink:title="The multiple modes available to wiegand reader are implemented through the strategy pattern.">
<polygon fill="white" stroke="black" points="0,-33 0,-63 153,-63 153,-33 0,-33"/>
<text text-anchor="start" x="8" y="-51" font-family="Helvetica,sans-Serif" font-size="10.00">Leosac::Module::Wiegand</text>
<text text-anchor="middle" x="76.5" y="-40" font-family="Helvetica,sans-Serif" font-size="10.00">::Strategy::WiegandStrategy</text>
</a>
</g>
</g>
<!-- Node2&#45;&gt;Node1 -->
<g id="edge1" class="edge">
<title>Node2&#45;&gt;Node1</title>
<path fill="none" stroke="midnightblue" d="M163.25,-48C171.83,-48 180.48,-48 188.87,-48"/>
<polygon fill="midnightblue" stroke="midnightblue" points="163.21,-44.5 153.21,-48 163.21,-51.5 163.21,-44.5"/>
</g>
</g>
</svg>
