<?xml version="1.0" encoding="UTF-8" standalone="no"?>
<!DOCTYPE svg PUBLIC "-//W3C//DTD SVG 1.1//EN"
 "http://www.w3.org/Graphics/SVG/1.1/DTD/svg11.dtd">
<!-- Generated by graphviz version 2.43.0 (0)
 -->
<!-- Title: src/tools/PropertyTreeExtractor.cpp Pages: 1 -->
<svg width="1875pt" height="274pt"
 viewBox="0.00 0.00 1874.50 274.00" xmlns="http://www.w3.org/2000/svg" xmlns:xlink="http://www.w3.org/1999/xlink">
<g id="graph0" class="graph" transform="scale(1 1) rotate(0) translate(4 270)">
<title>src/tools/PropertyTreeExtractor.cpp</title>
<polygon fill="white" stroke="transparent" points="-4,4 -4,-270 1870.5,-270 1870.5,4 -4,4"/>
<!-- Node1 -->
<g id="node1" class="node">
<title>Node1</title>
<g id="a_node1"><a xlink:title=" ">
<polygon fill="#bfbfbf" stroke="black" points="1351,-246.5 1351,-265.5 1537,-265.5 1537,-246.5 1351,-246.5"/>
<text text-anchor="middle" x="1444" y="-253.5" font-family="Helvetica,sans-Serif" font-size="10.00">src/tools/PropertyTreeExtractor.cpp</text>
</a>
</g>
</g>
<!-- Node2 -->
<g id="node2" class="node">
<title>Node2</title>
<g id="a_node2"><a xlink:href="../../d5/d3d/PropertyTreeExtractor_8hpp.html" target="_top" xlink:title=" ">
<polygon fill="white" stroke="black" points="817.5,-185 817.5,-204 960.5,-204 960.5,-185 817.5,-185"/>
<text text-anchor="middle" x="889" y="-192" font-family="Helvetica,sans-Serif" font-size="10.00">PropertyTreeExtractor.hpp</text>
</a>
</g>
</g>
<!-- Node1&#45;&gt;Node2 -->
<g id="edge1" class="edge">
<title>Node1&#45;&gt;Node2</title>
<path fill="none" stroke="midnightblue" d="M1364.48,-246.48C1259.81,-235.25 1076.71,-215.62 970.87,-204.28"/>
<polygon fill="midnightblue" stroke="midnightblue" points="971.19,-200.79 960.87,-203.21 970.44,-207.75 971.19,-200.79"/>
</g>
<!-- Node4 -->
<g id="node4" class="node">
<title>Node4</title>
<g id="a_node4"><a xlink:href="../../dd/d35/Colorize_8hpp.html" target="_top" xlink:title=" ">
<polygon fill="white" stroke="black" points="1405.5,-118 1405.5,-137 1482.5,-137 1482.5,-118 1405.5,-118"/>
<text text-anchor="middle" x="1444" y="-125" font-family="Helvetica,sans-Serif" font-size="10.00">Colorize.hpp</text>
</a>
</g>
</g>
<!-- Node1&#45;&gt;Node4 -->
<g id="edge3" class="edge">
<title>Node1&#45;&gt;Node4</title>
<path fill="none" stroke="midnightblue" d="M1444,-246.31C1444,-225.99 1444,-175.05 1444,-147.28"/>
<polygon fill="midnightblue" stroke="midnightblue" points="1447.5,-147.26 1444,-137.26 1440.5,-147.26 1447.5,-147.26"/>
</g>
<!-- Node7 -->
<g id="node7" class="node">
<title>Node7</title>
<g id="a_node7"><a xlink:href="../../d7/d7a/configexception_8hpp.html" target="_top" xlink:title=" ">
<polygon fill="white" stroke="black" points="1250,-185 1250,-204 1416,-204 1416,-185 1250,-185"/>
<text text-anchor="middle" x="1333" y="-192" font-family="Helvetica,sans-Serif" font-size="10.00">exception/configexception.hpp</text>
</a>
</g>
</g>
<!-- Node1&#45;&gt;Node7 -->
<g id="edge6" class="edge">
<title>Node1&#45;&gt;Node7</title>
<path fill="none" stroke="midnightblue" d="M1428.1,-246.48C1409.72,-236.62 1379.24,-220.29 1357.76,-208.77"/>
<polygon fill="midnightblue" stroke="midnightblue" points="1359.34,-205.65 1348.87,-204.01 1356.03,-211.82 1359.34,-205.65"/>
</g>
<!-- Node21 -->
<g id="node21" class="node">
<title>Node21</title>
<g id="a_node21"><a xlink:href="../../d4/d3d/log_8hpp.html" target="_top" xlink:title=" ">
<polygon fill="white" stroke="black" points="1554.5,-118 1554.5,-137 1607.5,-137 1607.5,-118 1554.5,-118"/>
<text text-anchor="middle" x="1581" y="-125" font-family="Helvetica,sans-Serif" font-size="10.00">log.hpp</text>
</a>
</g>
</g>
<!-- Node1&#45;&gt;Node21 -->
<g id="edge41" class="edge">
<title>Node1&#45;&gt;Node21</title>
<path fill="none" stroke="midnightblue" d="M1449.24,-246.23C1458.52,-231.21 1479.04,-200.13 1502,-179 1518.02,-164.26 1538.87,-151.14 1555.12,-141.96"/>
<polygon fill="midnightblue" stroke="midnightblue" points="1557.01,-144.92 1564.09,-137.04 1553.64,-138.78 1557.01,-144.92"/>
</g>
<!-- Node26 -->
<g id="node26" class="node">
<title>Node26</title>
<g id="a_node26"><a xlink:title=" ">
<polygon fill="white" stroke="#bfbfbf" points="1510.5,-179.5 1510.5,-209.5 1623.5,-209.5 1623.5,-179.5 1510.5,-179.5"/>
<text text-anchor="start" x="1518.5" y="-197.5" font-family="Helvetica,sans-Serif" font-size="10.00">boost/property_tree</text>
<text text-anchor="middle" x="1567" y="-186.5" font-family="Helvetica,sans-Serif" font-size="10.00">/ptree.hpp</text>
</a>
</g>
</g>
<!-- Node1&#45;&gt;Node26 -->
<g id="edge48" class="edge">
<title>Node1&#45;&gt;Node26</title>
<path fill="none" stroke="midnightblue" d="M1461.62,-246.48C1479.06,-238.04 1506.32,-224.86 1528.74,-214.01"/>
<polygon fill="midnightblue" stroke="midnightblue" points="1530.53,-217.03 1538.01,-209.52 1527.49,-210.73 1530.53,-217.03"/>
</g>
<!-- Node3 -->
<g id="node3" class="node">
<title>Node3</title>
<g id="a_node3"><a xlink:title=" ">
<polygon fill="white" stroke="#bfbfbf" points="560.5,-112.5 560.5,-142.5 673.5,-142.5 673.5,-112.5 560.5,-112.5"/>
<text text-anchor="start" x="568.5" y="-130.5" font-family="Helvetica,sans-Serif" font-size="10.00">boost/property_tree</text>
<text text-anchor="middle" x="617" y="-119.5" font-family="Helvetica,sans-Serif" font-size="10.00">/ptree_fwd.hpp</text>
</a>
</g>
</g>
<!-- Node2&#45;&gt;Node3 -->
<g id="edge2" class="edge">
<title>Node2&#45;&gt;Node3</title>
<path fill="none" stroke="midnightblue" d="M853.16,-184.94C810.04,-174.63 736.78,-157.12 683.27,-144.34"/>
<polygon fill="midnightblue" stroke="midnightblue" points="684.06,-140.93 673.52,-142.01 682.43,-147.73 684.06,-140.93"/>
</g>
<!-- Node5 -->
<g id="node5" class="node">
<title>Node5</title>
<g id="a_node5"><a xlink:title=" ">
<polygon fill="white" stroke="#bfbfbf" points="1443,-56.5 1443,-75.5 1499,-75.5 1499,-56.5 1443,-56.5"/>
<text text-anchor="middle" x="1471" y="-63.5" font-family="Helvetica,sans-Serif" font-size="10.00">sstream</text>
</a>
</g>
</g>
<!-- Node4&#45;&gt;Node5 -->
<g id="edge4" class="edge">
<title>Node4&#45;&gt;Node5</title>
<path fill="none" stroke="midnightblue" d="M1447.87,-117.98C1451.8,-109.32 1458,-95.65 1462.99,-84.65"/>
<polygon fill="midnightblue" stroke="midnightblue" points="1466.19,-86.06 1467.14,-75.51 1459.82,-83.17 1466.19,-86.06"/>
</g>
<!-- Node6 -->
<g id="node6" class="node">
<title>Node6</title>
<g id="a_node6"><a xlink:title=" ">
<polygon fill="white" stroke="#bfbfbf" points="728,-0.5 728,-19.5 772,-19.5 772,-0.5 728,-0.5"/>
<text text-anchor="middle" x="750" y="-7.5" font-family="Helvetica,sans-Serif" font-size="10.00">string</text>
</a>
</g>
</g>
<!-- Node4&#45;&gt;Node6 -->
<g id="edge5" class="edge">
<title>Node4&#45;&gt;Node6</title>
<path fill="none" stroke="midnightblue" d="M1440.34,-117.63C1433.37,-102 1416.56,-69.9 1391,-56 1337.25,-26.77 904.9,-14.59 782.3,-11.7"/>
<polygon fill="midnightblue" stroke="midnightblue" points="782.14,-8.2 772.06,-11.47 781.98,-15.2 782.14,-8.2"/>
</g>
<!-- Node7&#45;&gt;Node4 -->
<g id="edge39" class="edge">
<title>Node7&#45;&gt;Node4</title>
<path fill="none" stroke="midnightblue" d="M1347.97,-184.73C1366.61,-173.82 1398.66,-155.05 1420.57,-142.22"/>
<polygon fill="midnightblue" stroke="midnightblue" points="1422.41,-145.2 1429.27,-137.13 1418.87,-139.16 1422.41,-145.2"/>
</g>
<!-- Node7&#45;&gt;Node6 -->
<g id="edge40" class="edge">
<title>Node7&#45;&gt;Node6</title>
<path fill="none" stroke="midnightblue" d="M1338.93,-184.71C1354.37,-160.64 1392.34,-92.98 1358,-56 1318.58,-13.56 902.06,-10.8 782.13,-10.89"/>
<polygon fill="midnightblue" stroke="midnightblue" points="782.1,-7.39 772.11,-10.9 782.11,-14.39 782.1,-7.39"/>
</g>
<!-- Node8 -->
<g id="node8" class="node">
<title>Node8</title>
<g id="a_node8"><a xlink:href="../../d1/ddd/leosacexception_8hpp.html" target="_top" xlink:title="Exception class for LEOSAC Project related errors.">
<polygon fill="white" stroke="black" points="691.5,-118 691.5,-137 808.5,-137 808.5,-118 691.5,-118"/>
<text text-anchor="middle" x="750" y="-125" font-family="Helvetica,sans-Serif" font-size="10.00">leosacexception.hpp</text>
</a>
</g>
</g>
<!-- Node7&#45;&gt;Node8 -->
<g id="edge7" class="edge">
<title>Node7&#45;&gt;Node8</title>
<path fill="none" stroke="midnightblue" d="M1251.74,-184.97C1136.36,-172.41 927.22,-149.09 818.97,-136.71"/>
<polygon fill="midnightblue" stroke="midnightblue" points="819.15,-133.21 808.81,-135.55 818.35,-140.16 819.15,-133.21"/>
</g>
<!-- Node8&#45;&gt;Node6 -->
<g id="edge13" class="edge">
<title>Node8&#45;&gt;Node6</title>
<path fill="none" stroke="midnightblue" d="M713.8,-117.96C703.56,-115.77 692.38,-113.59 682,-112 596.54,-98.94 238.97,-120.08 297,-56 325.19,-24.87 618.8,-14.41 717.69,-11.76"/>
<polygon fill="midnightblue" stroke="midnightblue" points="718.06,-15.25 727.97,-11.49 717.88,-8.25 718.06,-15.25"/>
</g>
<!-- Node8&#45;&gt;Node7 -->
<g id="edge14" class="edge">
<title>Node8&#45;&gt;Node7</title>
<path fill="none" stroke="midnightblue" d="M808.58,-134.57C913.1,-145.87 1131.7,-170.21 1251.04,-183.81"/>
<polygon fill="midnightblue" stroke="midnightblue" points="1250.89,-187.31 1261.22,-184.97 1251.68,-180.36 1250.89,-187.31"/>
</g>
<!-- Node9 -->
<g id="node9" class="node">
<title>Node9</title>
<g id="a_node9"><a xlink:href="../../d6/d2f/Stacktrace_8hpp.html" target="_top" xlink:title=" ">
<polygon fill="white" stroke="black" points="0,-56.5 0,-75.5 116,-75.5 116,-56.5 0,-56.5"/>
<text text-anchor="middle" x="58" y="-63.5" font-family="Helvetica,sans-Serif" font-size="10.00">tools/Stacktrace.hpp</text>
</a>
</g>
</g>
<!-- Node8&#45;&gt;Node9 -->
<g id="edge8" class="edge">
<title>Node8&#45;&gt;Node9</title>
<path fill="none" stroke="midnightblue" d="M714.88,-117.99C704.36,-115.72 692.76,-113.49 682,-112 439.5,-78.49 373.59,-99.94 126.09,-76.03"/>
<polygon fill="midnightblue" stroke="midnightblue" points="126.37,-72.54 116.08,-75.05 125.69,-79.51 126.37,-72.54"/>
</g>
<!-- Node11 -->
<g id="node11" class="node">
<title>Node11</title>
<g id="a_node11"><a xlink:title=" ">
<polygon fill="white" stroke="#bfbfbf" points="940.5,-56.5 940.5,-75.5 993.5,-75.5 993.5,-56.5 940.5,-56.5"/>
<text text-anchor="middle" x="967" y="-63.5" font-family="Helvetica,sans-Serif" font-size="10.00">cstddef</text>
</a>
</g>
</g>
<!-- Node8&#45;&gt;Node11 -->
<g id="edge11" class="edge">
<title>Node8&#45;&gt;Node11</title>
<path fill="none" stroke="midnightblue" d="M781.09,-117.98C820.61,-107.14 888.71,-88.47 930.61,-76.98"/>
<polygon fill="midnightblue" stroke="midnightblue" points="931.68,-80.31 940.4,-74.29 929.83,-73.56 931.68,-80.31"/>
</g>
<!-- Node12 -->
<g id="node12" class="node">
<title>Node12</title>
<g id="a_node12"><a xlink:title=" ">
<polygon fill="white" stroke="#bfbfbf" points="1011.5,-56.5 1011.5,-75.5 1076.5,-75.5 1076.5,-56.5 1011.5,-56.5"/>
<text text-anchor="middle" x="1044" y="-63.5" font-family="Helvetica,sans-Serif" font-size="10.00">exception</text>
</a>
</g>
</g>
<!-- Node8&#45;&gt;Node12 -->
<g id="edge12" class="edge">
<title>Node8&#45;&gt;Node12</title>
<path fill="none" stroke="midnightblue" d="M793.74,-117.92C841.97,-108.42 922.12,-92.5 1001.3,-76.12"/>
<polygon fill="midnightblue" stroke="midnightblue" points="1002.37,-79.48 1011.45,-74.02 1000.95,-72.62 1002.37,-79.48"/>
</g>
<!-- Node13 -->
<g id="node13" class="node">
<title>Node13</title>
<g id="a_node13"><a xlink:href="../../d8/db0/coreexception_8hpp.html" target="_top" xlink:title="Exception class for Core related errors.">
<polygon fill="white" stroke="black" points="306.5,-56.5 306.5,-75.5 413.5,-75.5 413.5,-56.5 306.5,-56.5"/>
<text text-anchor="middle" x="360" y="-63.5" font-family="Helvetica,sans-Serif" font-size="10.00">coreexception.hpp</text>
</a>
</g>
</g>
<!-- Node8&#45;&gt;Node13 -->
<g id="edge15" class="edge">
<title>Node8&#45;&gt;Node13</title>
<path fill="none" stroke="midnightblue" d="M703.63,-117.96C693.48,-115.87 682.87,-113.74 673,-112 561.89,-92.46 530.88,-92.21 420.87,-76.96"/>
<polygon fill="midnightblue" stroke="midnightblue" points="421.08,-73.45 410.69,-75.53 420.11,-80.38 421.08,-73.45"/>
</g>
<!-- Node14 -->
<g id="node14" class="node">
<title>Node14</title>
<g id="a_node14"><a xlink:href="../../d8/d77/deviceexception_8hpp.html" target="_top" xlink:title="Exception class for Device related errors.">
<polygon fill="white" stroke="black" points="432,-56.5 432,-75.5 550,-75.5 550,-56.5 432,-56.5"/>
<text text-anchor="middle" x="491" y="-63.5" font-family="Helvetica,sans-Serif" font-size="10.00">deviceexception.hpp</text>
</a>
</g>
</g>
<!-- Node8&#45;&gt;Node14 -->
<g id="edge18" class="edge">
<title>Node8&#45;&gt;Node14</title>
<path fill="none" stroke="midnightblue" d="M707.99,-117.98C659.72,-107.42 581.2,-89.41 532.96,-77.87"/>
<polygon fill="midnightblue" stroke="midnightblue" points="533.68,-74.44 523.14,-75.51 532.05,-81.25 533.68,-74.44"/>
</g>
<!-- Node15 -->
<g id="node15" class="node">
<title>Node15</title>
<g id="a_node15"><a xlink:href="../../db/d35/dynlibexception_8hpp.html" target="_top" xlink:title="Exception class for DynLib related errors.">
<polygon fill="white" stroke="black" points="568,-56.5 568,-75.5 684,-75.5 684,-56.5 568,-56.5"/>
<text text-anchor="middle" x="626" y="-63.5" font-family="Helvetica,sans-Serif" font-size="10.00">dynlibexception.hpp</text>
</a>
</g>
</g>
<!-- Node8&#45;&gt;Node15 -->
<g id="edge21" class="edge">
<title>Node8&#45;&gt;Node15</title>
<path fill="none" stroke="midnightblue" d="M727.33,-117.98C704.65,-108.12 670.33,-91.79 647.93,-80.27"/>
<polygon fill="midnightblue" stroke="midnightblue" points="649.32,-77.05 638.84,-75.51 646.07,-83.25 649.32,-77.05"/>
</g>
<!-- Node16 -->
<g id="node16" class="node">
<title>Node16</title>
<g id="a_node16"><a xlink:href="../../d0/d4e/fsexception_8hpp.html" target="_top" xlink:title="Exception class for filesystem related errors.">
<polygon fill="white" stroke="black" points="702.5,-56.5 702.5,-75.5 797.5,-75.5 797.5,-56.5 702.5,-56.5"/>
<text text-anchor="middle" x="750" y="-63.5" font-family="Helvetica,sans-Serif" font-size="10.00">fsexception.hpp</text>
</a>
</g>
</g>
<!-- Node8&#45;&gt;Node16 -->
<g id="edge24" class="edge">
<title>Node8&#45;&gt;Node16</title>
<path fill="none" stroke="midnightblue" d="M745.1,-117.98C743.27,-109.58 742.8,-96.48 743.69,-85.66"/>
<polygon fill="midnightblue" stroke="midnightblue" points="747.19,-85.9 745.1,-75.51 740.25,-84.93 747.19,-85.9"/>
</g>
<!-- Node17 -->
<g id="node17" class="node">
<title>Node17</title>
<g id="a_node17"><a xlink:href="../../d1/d8e/gpioexception_8hpp.html" target="_top" xlink:title="Exception class for Gpio related errors.">
<polygon fill="white" stroke="black" points="815.5,-56.5 815.5,-75.5 922.5,-75.5 922.5,-56.5 815.5,-56.5"/>
<text text-anchor="middle" x="869" y="-63.5" font-family="Helvetica,sans-Serif" font-size="10.00">gpioexception.hpp</text>
</a>
</g>
</g>
<!-- Node8&#45;&gt;Node17 -->
<g id="edge27" class="edge">
<title>Node8&#45;&gt;Node17</title>
<path fill="none" stroke="midnightblue" d="M762.15,-117.98C779.94,-107.99 812.97,-91.35 837.72,-79.81"/>
<polygon fill="midnightblue" stroke="midnightblue" points="839.46,-82.86 847.08,-75.51 836.54,-76.5 839.46,-82.86"/>
</g>
<!-- Node18 -->
<g id="node18" class="node">
<title>Node18</title>
<g id="a_node18"><a xlink:href="../../d7/d8c/moduleexception_8hpp.html" target="_top" xlink:title="Exception class for modules.">
<polygon fill="white" stroke="black" points="1095,-56.5 1095,-75.5 1217,-75.5 1217,-56.5 1095,-56.5"/>
<text text-anchor="middle" x="1156" y="-63.5" font-family="Helvetica,sans-Serif" font-size="10.00">moduleexception.hpp</text>
</a>
</g>
</g>
<!-- Node8&#45;&gt;Node18 -->
<g id="edge30" class="edge">
<title>Node8&#45;&gt;Node18</title>
<path fill="none" stroke="midnightblue" d="M803.27,-117.98C875.43,-107.05 1004.25,-88.16 1084.68,-76.7"/>
<polygon fill="midnightblue" stroke="midnightblue" points="1085.32,-80.14 1094.73,-75.27 1084.34,-73.21 1085.32,-80.14"/>
</g>
<!-- Node19 -->
<g id="node19" class="node">
<title>Node19</title>
<g id="a_node19"><a xlink:href="../../df/d8d/scriptexception_8hpp.html" target="_top" xlink:title="Exception class for Script related errors.">
<polygon fill="white" stroke="black" points="1235.5,-56.5 1235.5,-75.5 1348.5,-75.5 1348.5,-56.5 1235.5,-56.5"/>
<text text-anchor="middle" x="1292" y="-63.5" font-family="Helvetica,sans-Serif" font-size="10.00">scriptexception.hpp</text>
</a>
</g>
</g>
<!-- Node8&#45;&gt;Node19 -->
<g id="edge33" class="edge">
<title>Node8&#45;&gt;Node19</title>
<path fill="none" stroke="midnightblue" d="M808.77,-120.25C897.39,-111.26 1070.15,-93.8 1217,-76 1219.65,-75.68 1222.36,-75.34 1225.11,-74.99"/>
<polygon fill="midnightblue" stroke="midnightblue" points="1225.68,-78.45 1235.15,-73.71 1224.78,-71.51 1225.68,-78.45"/>
</g>
<!-- Node20 -->
<g id="node20" class="node">
<title>Node20</title>
<g id="a_node20"><a xlink:href="../../dc/dce/signalexception_8hpp.html" target="_top" xlink:title="Exception class for Signal related errors.">
<polygon fill="white" stroke="black" points="134.5,-56.5 134.5,-75.5 249.5,-75.5 249.5,-56.5 134.5,-56.5"/>
<text text-anchor="middle" x="192" y="-63.5" font-family="Helvetica,sans-Serif" font-size="10.00">signalexception.hpp</text>
</a>
</g>
</g>
<!-- Node8&#45;&gt;Node20 -->
<g id="edge36" class="edge">
<title>Node8&#45;&gt;Node20</title>
<path fill="none" stroke="midnightblue" d="M705.52,-117.99C694.82,-115.77 683.51,-113.57 673,-112 491.9,-85 442.22,-95.18 259.88,-76.49"/>
<polygon fill="midnightblue" stroke="midnightblue" points="259.99,-72.98 249.68,-75.43 259.26,-79.94 259.99,-72.98"/>
</g>
<!-- Node9&#45;&gt;Node6 -->
<g id="edge9" class="edge">
<title>Node9&#45;&gt;Node6</title>
<path fill="none" stroke="midnightblue" d="M116.08,-56.98C119.09,-56.63 122.08,-56.3 125,-56 351.4,-32.67 625.19,-17.42 717.69,-12.62"/>
<polygon fill="midnightblue" stroke="midnightblue" points="718.01,-16.11 727.81,-12.1 717.65,-9.12 718.01,-16.11"/>
</g>
<!-- Node10 -->
<g id="node10" class="node">
<title>Node10</title>
<g id="a_node10"><a xlink:title=" ">
<polygon fill="white" stroke="#bfbfbf" points="34.5,-0.5 34.5,-19.5 81.5,-19.5 81.5,-0.5 34.5,-0.5"/>
<text text-anchor="middle" x="58" y="-7.5" font-family="Helvetica,sans-Serif" font-size="10.00">vector</text>
</a>
</g>
</g>
<!-- Node9&#45;&gt;Node10 -->
<g id="edge10" class="edge">
<title>Node9&#45;&gt;Node10</title>
<path fill="none" stroke="midnightblue" d="M58,-56.08C58,-49.01 58,-38.86 58,-29.99"/>
<polygon fill="midnightblue" stroke="midnightblue" points="61.5,-29.75 58,-19.75 54.5,-29.75 61.5,-29.75"/>
</g>
<!-- Node13&#45;&gt;Node6 -->
<g id="edge16" class="edge">
<title>Node13&#45;&gt;Node6</title>
<path fill="none" stroke="midnightblue" d="M413.61,-57.32C416.79,-56.87 419.94,-56.43 423,-56 530.92,-40.87 658.94,-23.39 717.66,-15.39"/>
<polygon fill="midnightblue" stroke="midnightblue" points="718.35,-18.83 727.79,-14.02 717.41,-11.9 718.35,-18.83"/>
</g>
<!-- Node13&#45;&gt;Node8 -->
<g id="edge17" class="edge">
<title>Node13&#45;&gt;Node8</title>
<path fill="none" stroke="midnightblue" d="M413.65,-73.41C419.87,-74.29 426.09,-75.17 432,-76 547.08,-92.22 576.54,-91.87 691,-112 697.48,-113.14 704.27,-114.45 710.88,-115.81"/>
<polygon fill="midnightblue" stroke="midnightblue" points="710.51,-119.31 721.02,-117.96 711.97,-112.46 710.51,-119.31"/>
</g>
<!-- Node14&#45;&gt;Node6 -->
<g id="edge19" class="edge">
<title>Node14&#45;&gt;Node6</title>
<path fill="none" stroke="midnightblue" d="M532.04,-56.44C583.62,-45.69 671.08,-27.45 718,-17.67"/>
<polygon fill="midnightblue" stroke="midnightblue" points="718.84,-21.07 727.91,-15.6 717.41,-14.22 718.84,-21.07"/>
</g>
<!-- Node14&#45;&gt;Node8 -->
<g id="edge20" class="edge">
<title>Node14&#45;&gt;Node8</title>
<path fill="none" stroke="midnightblue" d="M532.94,-75.51C581.18,-86.06 659.7,-104.07 707.97,-115.61"/>
<polygon fill="midnightblue" stroke="midnightblue" points="707.25,-119.04 717.79,-117.98 708.89,-112.23 707.25,-119.04"/>
</g>
<!-- Node15&#45;&gt;Node6 -->
<g id="edge22" class="edge">
<title>Node15&#45;&gt;Node6</title>
<path fill="none" stroke="midnightblue" d="M645.65,-56.44C665.96,-47.6 697.9,-33.69 721.1,-23.59"/>
<polygon fill="midnightblue" stroke="midnightblue" points="722.67,-26.72 730.44,-19.52 719.88,-20.3 722.67,-26.72"/>
</g>
<!-- Node15&#45;&gt;Node8 -->
<g id="edge23" class="edge">
<title>Node15&#45;&gt;Node8</title>
<path fill="none" stroke="midnightblue" d="M648.63,-75.51C671.3,-85.36 705.62,-101.69 728.04,-113.21"/>
<polygon fill="midnightblue" stroke="midnightblue" points="726.65,-116.44 737.13,-117.98 729.9,-110.24 726.65,-116.44"/>
</g>
<!-- Node16&#45;&gt;Node6 -->
<g id="edge25" class="edge">
<title>Node16&#45;&gt;Node6</title>
<path fill="none" stroke="midnightblue" d="M750,-56.08C750,-49.01 750,-38.86 750,-29.99"/>
<polygon fill="midnightblue" stroke="midnightblue" points="753.5,-29.75 750,-19.75 746.5,-29.75 753.5,-29.75"/>
</g>
<!-- Node16&#45;&gt;Node8 -->
<g id="edge26" class="edge">
<title>Node16&#45;&gt;Node8</title>
<path fill="none" stroke="midnightblue" d="M754.9,-75.51C756.73,-83.9 757.2,-97 756.32,-107.82"/>
<polygon fill="midnightblue" stroke="midnightblue" points="752.81,-107.59 754.9,-117.98 759.75,-108.55 752.81,-107.59"/>
</g>
<!-- Node17&#45;&gt;Node6 -->
<g id="edge29" class="edge">
<title>Node17&#45;&gt;Node6</title>
<path fill="none" stroke="midnightblue" d="M850.14,-56.44C830.73,-47.64 800.27,-33.81 778.04,-23.72"/>
<polygon fill="midnightblue" stroke="midnightblue" points="779.32,-20.46 768.77,-19.52 776.43,-26.84 779.32,-20.46"/>
</g>
<!-- Node17&#45;&gt;Node8 -->
<g id="edge28" class="edge">
<title>Node17&#45;&gt;Node8</title>
<path fill="none" stroke="midnightblue" d="M856.88,-75.51C839.1,-85.49 806.08,-102.13 781.32,-113.67"/>
<polygon fill="midnightblue" stroke="midnightblue" points="779.58,-110.62 771.95,-117.98 782.5,-116.98 779.58,-110.62"/>
</g>
<!-- Node18&#45;&gt;Node6 -->
<g id="edge31" class="edge">
<title>Node18&#45;&gt;Node6</title>
<path fill="none" stroke="midnightblue" d="M1094.78,-56.86C1007.3,-45.22 849.68,-24.26 782.14,-15.27"/>
<polygon fill="midnightblue" stroke="midnightblue" points="782.47,-11.79 772.1,-13.94 781.55,-18.73 782.47,-11.79"/>
</g>
<!-- Node18&#45;&gt;Node8 -->
<g id="edge32" class="edge">
<title>Node18&#45;&gt;Node8</title>
<path fill="none" stroke="midnightblue" d="M1102.82,-75.51C1029.89,-86.55 898.95,-105.75 818.69,-117.18"/>
<polygon fill="midnightblue" stroke="midnightblue" points="818.08,-113.73 808.67,-118.6 819.07,-120.66 818.08,-113.73"/>
</g>
<!-- Node19&#45;&gt;Node6 -->
<g id="edge34" class="edge">
<title>Node19&#45;&gt;Node6</title>
<path fill="none" stroke="midnightblue" d="M1235.49,-57.14C1232.28,-56.74 1229.1,-56.36 1226,-56 1059.43,-36.78 859.36,-19.87 782.37,-13.6"/>
<polygon fill="midnightblue" stroke="midnightblue" points="782.59,-10.1 772.34,-12.78 782.02,-17.08 782.59,-10.1"/>
</g>
<!-- Node19&#45;&gt;Node8 -->
<g id="edge35" class="edge">
<title>Node19&#45;&gt;Node8</title>
<path fill="none" stroke="midnightblue" d="M1238.82,-75.53C1237.54,-75.69 1236.26,-75.85 1235,-76 1087.15,-93.92 913.02,-111.5 818.78,-120.43"/>
<polygon fill="midnightblue" stroke="midnightblue" points="818.43,-116.95 808.8,-121.37 819.09,-123.92 818.43,-116.95"/>
</g>
<!-- Node20&#45;&gt;Node6 -->
<g id="edge37" class="edge">
<title>Node20&#45;&gt;Node6</title>
<path fill="none" stroke="midnightblue" d="M249.75,-57.62C254.57,-57.05 259.37,-56.5 264,-56 434.56,-37.45 639.34,-20.09 717.52,-13.65"/>
<polygon fill="midnightblue" stroke="midnightblue" points="718.01,-17.12 727.69,-12.81 717.44,-10.14 718.01,-17.12"/>
</g>
<!-- Node20&#45;&gt;Node8 -->
<g id="edge38" class="edge">
<title>Node20&#45;&gt;Node8</title>
<path fill="none" stroke="midnightblue" d="M249.65,-73.35C257.54,-74.29 265.48,-75.21 273,-76 458.44,-95.57 506.57,-84.5 691,-112 698.06,-113.05 705.48,-114.39 712.62,-115.83"/>
<polygon fill="midnightblue" stroke="midnightblue" points="712.28,-119.34 722.79,-117.99 713.73,-112.49 712.28,-119.34"/>
</g>
<!-- Node21&#45;&gt;Node5 -->
<g id="edge46" class="edge">
<title>Node21&#45;&gt;Node5</title>
<path fill="none" stroke="midnightblue" d="M1565.24,-117.98C1547.02,-108.12 1516.83,-91.79 1495.53,-80.27"/>
<polygon fill="midnightblue" stroke="midnightblue" points="1497.19,-77.19 1486.73,-75.51 1493.86,-83.35 1497.19,-77.19"/>
</g>
<!-- Node21&#45;&gt;Node6 -->
<g id="edge47" class="edge">
<title>Node21&#45;&gt;Node6</title>
<path fill="none" stroke="midnightblue" d="M1575.23,-117.79C1564.28,-102.11 1538.81,-69.53 1508,-56 1440.94,-26.56 919.09,-14.32 782.59,-11.61"/>
<polygon fill="midnightblue" stroke="midnightblue" points="782.43,-8.1 772.36,-11.41 782.29,-15.1 782.43,-8.1"/>
</g>
<!-- Node22 -->
<g id="node22" class="node">
<title>Node22</title>
<g id="a_node22"><a xlink:title=" ">
<polygon fill="white" stroke="#bfbfbf" points="1555,-56.5 1555,-75.5 1607,-75.5 1607,-56.5 1555,-56.5"/>
<text text-anchor="middle" x="1581" y="-63.5" font-family="Helvetica,sans-Serif" font-size="10.00">cassert</text>
</a>
</g>
</g>
<!-- Node21&#45;&gt;Node22 -->
<g id="edge42" class="edge">
<title>Node21&#45;&gt;Node22</title>
<path fill="none" stroke="midnightblue" d="M1581,-117.98C1581,-109.58 1581,-96.48 1581,-85.66"/>
<polygon fill="midnightblue" stroke="midnightblue" points="1584.5,-85.51 1581,-75.51 1577.5,-85.51 1584.5,-85.51"/>
</g>
<!-- Node23 -->
<g id="node23" class="node">
<title>Node23</title>
<g id="a_node23"><a xlink:title=" ">
<polygon fill="white" stroke="#bfbfbf" points="1625.5,-56.5 1625.5,-75.5 1676.5,-75.5 1676.5,-56.5 1625.5,-56.5"/>
<text text-anchor="middle" x="1651" y="-63.5" font-family="Helvetica,sans-Serif" font-size="10.00">csignal</text>
</a>
</g>
</g>
<!-- Node21&#45;&gt;Node23 -->
<g id="edge43" class="edge">
<title>Node21&#45;&gt;Node23</title>
<path fill="none" stroke="midnightblue" d="M1591.03,-117.98C1602.05,-108.61 1619.96,-93.38 1633.34,-82.01"/>
<polygon fill="midnightblue" stroke="midnightblue" points="1635.64,-84.65 1640.99,-75.51 1631.1,-79.32 1635.64,-84.65"/>
</g>
<!-- Node24 -->
<g id="node24" class="node">
<title>Node24</title>
<g id="a_node24"><a xlink:title=" ">
<polygon fill="white" stroke="#bfbfbf" points="1695,-56.5 1695,-75.5 1755,-75.5 1755,-56.5 1695,-56.5"/>
<text text-anchor="middle" x="1725" y="-63.5" font-family="Helvetica,sans-Serif" font-size="10.00">iostream</text>
</a>
</g>
</g>
<!-- Node21&#45;&gt;Node24 -->
<g id="edge44" class="edge">
<title>Node21&#45;&gt;Node24</title>
<path fill="none" stroke="midnightblue" d="M1601.63,-117.98C1626.12,-107.86 1667.15,-90.9 1695.11,-79.35"/>
<polygon fill="midnightblue" stroke="midnightblue" points="1696.5,-82.56 1704.41,-75.51 1693.83,-76.09 1696.5,-82.56"/>
</g>
<!-- Node25 -->
<g id="node25" class="node">
<title>Node25</title>
<g id="a_node25"><a xlink:title=" ">
<polygon fill="white" stroke="#bfbfbf" points="1773.5,-56.5 1773.5,-75.5 1866.5,-75.5 1866.5,-56.5 1773.5,-56.5"/>
<text text-anchor="middle" x="1820" y="-63.5" font-family="Helvetica,sans-Serif" font-size="10.00">spdlog/spdlog.h</text>
</a>
</g>
</g>
<!-- Node21&#45;&gt;Node25 -->
<g id="edge45" class="edge">
<title>Node21&#45;&gt;Node25</title>
<path fill="none" stroke="midnightblue" d="M1607.95,-119.79C1648.84,-109.61 1726.97,-90.16 1776.13,-77.92"/>
<polygon fill="midnightblue" stroke="midnightblue" points="1776.99,-81.31 1785.85,-75.5 1775.3,-74.52 1776.99,-81.31"/>
</g>
</g>
</svg>
