<?xml version="1.0" encoding="UTF-8" standalone="no"?>
<!DOCTYPE svg PUBLIC "-//W3C//DTD SVG 1.1//EN"
 "http://www.w3.org/Graphics/SVG/1.1/DTD/svg11.dtd">
<!-- Generated by graphviz version 2.43.0 (0)
 -->
<!-- Title: Leosac::Tools::XmlScheduleLoader Pages: 1 -->
<svg width="229pt" height="262pt"
 viewBox="0.00 0.00 229.00 262.00" xmlns="http://www.w3.org/2000/svg" xmlns:xlink="http://www.w3.org/1999/xlink">
<g id="graph0" class="graph" transform="scale(1 1) rotate(0) translate(4 258)">
<title>Leosac::Tools::XmlScheduleLoader</title>
<polygon fill="white" stroke="transparent" points="-4,4 -4,-258 225,-258 225,4 -4,4"/>
<!-- Node1 -->
<g id="node1" class="node">
<title>Node1</title>
<g id="a_node1"><a xlink:title="Load a list of schedules from a boost::property_tree.">
<polygon fill="#bfbfbf" stroke="black" points="38.5,-0.5 38.5,-30.5 189.5,-30.5 189.5,-0.5 38.5,-0.5"/>
<text text-anchor="start" x="46.5" y="-18.5" font-family="Helvetica,sans-Serif" font-size="10.00">Leosac::Tools::XmlSchedule</text>
<text text-anchor="middle" x="114" y="-7.5" font-family="Helvetica,sans-Serif" font-size="10.00">Loader</text>
</a>
</g>
</g>
<!-- Node2 -->
<g id="node2" class="node">
<title>Node2</title>
<g id="a_node2"><a xlink:title=" ">
<polygon fill="white" stroke="#bfbfbf" points="53,-78.5 53,-108.5 175,-108.5 175,-78.5 53,-78.5"/>
<text text-anchor="start" x="61" y="-96.5" font-family="Helvetica,sans-Serif" font-size="10.00">std::map&lt; std::string,</text>
<text text-anchor="middle" x="114" y="-85.5" font-family="Helvetica,sans-Serif" font-size="10.00"> ISchedulePtr &gt;</text>
</a>
</g>
</g>
<!-- Node2&#45;&gt;Node1 -->
<g id="edge1" class="edge">
<title>Node2&#45;&gt;Node1</title>
<path fill="none" stroke="#9a32cd" stroke-dasharray="5,2" d="M114,-68.09C114,-55.76 114,-41.22 114,-30.73"/>
<polygon fill="#9a32cd" stroke="#9a32cd" points="110.5,-68.2 114,-78.2 117.5,-68.21 110.5,-68.2"/>
<text text-anchor="middle" x="143" y="-52" font-family="Helvetica,sans-Serif" font-size="10.00"> schedules_</text>
</g>
<!-- Node3 -->
<g id="node3" class="node">
<title>Node3</title>
<g id="a_node3"><a xlink:title="STL class.">
<polygon fill="white" stroke="#bfbfbf" points="0,-156.5 0,-175.5 118,-175.5 118,-156.5 0,-156.5"/>
<text text-anchor="middle" x="59" y="-163.5" font-family="Helvetica,sans-Serif" font-size="10.00">std::shared_ptr&lt; T &gt;</text>
</a>
</g>
</g>
<!-- Node3&#45;&gt;Node2 -->
<g id="edge2" class="edge">
<title>Node3&#45;&gt;Node2</title>
<path fill="none" stroke="#9a32cd" stroke-dasharray="5,2" d="M71.84,-148.01C76.85,-141.42 82.66,-133.83 88,-127 92.72,-120.96 97.98,-114.36 102.54,-108.68"/>
<polygon fill="#9a32cd" stroke="#9a32cd" points="68.88,-146.12 65.62,-156.2 74.45,-150.35 68.88,-146.12"/>
<text text-anchor="middle" x="112.5" y="-130" font-family="Helvetica,sans-Serif" font-size="10.00"> elements</text>
</g>
<!-- Node4 -->
<g id="node4" class="node">
<title>Node4</title>
<g id="a_node4"><a xlink:title=" ">
<polygon fill="white" stroke="#bfbfbf" points="44.5,-229 44.5,-248 73.5,-248 73.5,-229 44.5,-229"/>
<text text-anchor="middle" x="59" y="-236" font-family="Helvetica,sans-Serif" font-size="10.00">T</text>
</a>
</g>
</g>
<!-- Node4&#45;&gt;Node3 -->
<g id="edge3" class="edge">
<title>Node4&#45;&gt;Node3</title>
<path fill="none" stroke="#9a32cd" stroke-dasharray="5,2" d="M59,-218.44C59,-204.53 59,-186.32 59,-175.72"/>
<polygon fill="#9a32cd" stroke="#9a32cd" points="55.5,-218.86 59,-228.86 62.5,-218.86 55.5,-218.86"/>
<text text-anchor="middle" x="67.5" y="-197" font-family="Helvetica,sans-Serif" font-size="10.00"> ptr</text>
</g>
<!-- Node5 -->
<g id="node5" class="node">
<title>Node5</title>
<g id="a_node5"><a xlink:title="STL class.">
<polygon fill="white" stroke="#bfbfbf" points="136.5,-156.5 136.5,-175.5 201.5,-175.5 201.5,-156.5 136.5,-156.5"/>
<text text-anchor="middle" x="169" y="-163.5" font-family="Helvetica,sans-Serif" font-size="10.00">std::string</text>
</a>
</g>
</g>
<!-- Node5&#45;&gt;Node2 -->
<g id="edge4" class="edge">
<title>Node5&#45;&gt;Node2</title>
<path fill="none" stroke="#9a32cd" stroke-dasharray="5,2" d="M156.04,-148.39C146.6,-136.28 133.93,-120.05 124.98,-108.58"/>
<polygon fill="#9a32cd" stroke="#9a32cd" points="153.35,-150.62 162.26,-156.36 158.86,-146.32 153.35,-150.62"/>
<text text-anchor="middle" x="160" y="-130" font-family="Helvetica,sans-Serif" font-size="10.00"> keys</text>
</g>
<!-- Node6 -->
<g id="node6" class="node">
<title>Node6</title>
<g id="a_node6"><a xlink:title="STL class.">
<polygon fill="white" stroke="#bfbfbf" points="117,-223.5 117,-253.5 221,-253.5 221,-223.5 117,-223.5"/>
<text text-anchor="start" x="125" y="-241.5" font-family="Helvetica,sans-Serif" font-size="10.00">std::basic_string&lt;</text>
<text text-anchor="middle" x="169" y="-230.5" font-family="Helvetica,sans-Serif" font-size="10.00"> char &gt;</text>
</a>
</g>
</g>
<!-- Node6&#45;&gt;Node5 -->
<g id="edge5" class="edge">
<title>Node6&#45;&gt;Node5</title>
<path fill="none" stroke="midnightblue" d="M169,-213.09C169,-200.21 169,-185.2 169,-175.89"/>
<polygon fill="midnightblue" stroke="midnightblue" points="165.5,-213.23 169,-223.23 172.5,-213.23 165.5,-213.23"/>
</g>
</g>
</svg>
