<?xml version="1.0" encoding="UTF-8" standalone="no"?>
<!DOCTYPE svg PUBLIC "-//W3C//DTD SVG 1.1//EN"
 "http://www.w3.org/Graphics/SVG/1.1/DTD/svg11.dtd">
<!-- Generated by graphviz version 2.43.0 (0)
 -->
<!-- Title: src/hardware/ExternalMessage.hpp Pages: 1 -->
<!--zoomable 285 -->
<svg id="main" version="1.1" xmlns="http://www.w3.org/2000/svg" xmlns:xlink="http://www.w3.org/1999/xlink" xml:space="preserve" onload="init(evt)">
<style type="text/css"><![CDATA[
.edge:hover path { stroke: red; }
.edge:hover polygon { stroke: red; fill: red; }
]]></style>
<script type="text/javascript"><![CDATA[
var edges = document.getElementsByTagName('g');
if (edges && edges.length) {
  for (var i=0;i<edges.length;i++) {
    if (edges[i].id.substr(0,4)=='edge') {
      edges[i].setAttribute('class','edge');
    }
  }
}
]]></script>
        <defs>
                <circle id="rim" cx="0" cy="0" r="7"/>
                <circle id="rim2" cx="0" cy="0" r="3.5"/>
                <g id="zoomPlus">
                        <use xlink:href="#rim" fill="#404040">
                                <set attributeName="fill" to="#808080" begin="zoomplus.mouseover" end="zoomplus.mouseout"/>
                        </use>
                        <path d="M-4,0h8M0,-4v8" fill="none" stroke="white" stroke-width="1.5" pointer-events="none"/>
                </g>
                <g id="zoomMin">
                        <use xlink:href="#rim" fill="#404040">
                                <set attributeName="fill" to="#808080" begin="zoomminus.mouseover" end="zoomminus.mouseout"/>
                        </use>
                        <path d="M-4,0h8" fill="none" stroke="white" stroke-width="1.5" pointer-events="none"/>
                </g>
                <g id="dirArrow">
                        <path fill="none" stroke="white" stroke-width="1.5" d="M0,-3.0v7 M-2.5,-0.5L0,-3.0L2.5,-0.5"/>
                </g>
               <g id="resetDef">
                       <use xlink:href="#rim2" fill="#404040">
                               <set attributeName="fill" to="#808080" begin="reset.mouseover" end="reset.mouseout"/>
                       </use>
               </g>
        </defs>

<script type="text/javascript">
var viewWidth = 703;
var viewHeight = 285;
var sectionId = 'dynsection-1';
</script>
<script xlink:href="../../svgpan.js"/>
<svg id="graph" class="graph">
<g id="viewport">
<title>src/hardware/ExternalMessage.hpp</title>
<polygon fill="white" stroke="transparent" points="-4,4 -4,-281 698.5,-281 698.5,4 -4,4"/>
<!-- Node1 -->
<g id="node1" class="node">
<title>Node1</title>
<g id="a_node1"><a xlink:title=" ">
<polygon fill="#bfbfbf" stroke="black" points="292.5,-257.5 292.5,-276.5 480.5,-276.5 480.5,-257.5 292.5,-257.5"/>
<text text-anchor="middle" x="386.5" y="-264.5" font-family="Helvetica,sans-Serif" font-size="10.00">src/hardware/ExternalMessage.hpp</text>
</a>
</g>
</g>
<!-- Node2 -->
<g id="node2" class="node">
<title>Node2</title>
<g id="a_node2"><a xlink:href="../../de/dc1/ExternalMessage_8cpp.html" target="_top" xlink:title=" ">
<polygon fill="white" stroke="black" points="0,-196 0,-215 187,-215 187,-196 0,-196"/>
<text text-anchor="middle" x="93.5" y="-203" font-family="Helvetica,sans-Serif" font-size="10.00">src/hardware/ExternalMessage.cpp</text>
</a>
</g>
</g>
<!-- Node1&#45;&gt;Node2 -->
<g id="edge1" class="edge">
<title>Node1&#45;&gt;Node2</title>
<path fill="none" stroke="midnightblue" d="M334.67,-255.47C277.88,-243.94 187.91,-225.67 135.4,-215.01"/>
<polygon fill="midnightblue" stroke="midnightblue" points="334.02,-258.91 344.52,-257.48 335.42,-252.05 334.02,-258.91"/>
</g>
<!-- Node3 -->
<g id="node3" class="node">
<title>Node3</title>
<g id="a_node3"><a xlink:href="../../d2/d12/ExternalMessageSerializer_8hpp.html" target="_top" xlink:title=" ">
<polygon fill="white" stroke="black" points="205.5,-190.5 205.5,-220.5 375.5,-220.5 375.5,-190.5 205.5,-190.5"/>
<text text-anchor="start" x="213.5" y="-208.5" font-family="Helvetica,sans-Serif" font-size="10.00">src/hardware/serializers</text>
<text text-anchor="middle" x="290.5" y="-197.5" font-family="Helvetica,sans-Serif" font-size="10.00">/ExternalMessageSerializer.hpp</text>
</a>
</g>
</g>
<!-- Node1&#45;&gt;Node3 -->
<g id="edge2" class="edge">
<title>Node1&#45;&gt;Node3</title>
<path fill="none" stroke="midnightblue" d="M363.93,-252.01C348.61,-242.52 328.45,-230.02 313.13,-220.52"/>
<polygon fill="midnightblue" stroke="midnightblue" points="362.4,-255.18 372.75,-257.48 366.09,-249.23 362.4,-255.18"/>
</g>
<!-- Node5 -->
<g id="node5" class="node">
<title>Node5</title>
<g id="a_node5"><a xlink:href="../../df/d5e/MqttConfig_8hpp.html" target="_top" xlink:title=" ">
<polygon fill="white" stroke="black" points="394,-196 394,-215 573,-215 573,-196 394,-196"/>
<text text-anchor="middle" x="483.5" y="-203" font-family="Helvetica,sans-Serif" font-size="10.00">src/modules/mqtt/MqttConfig.hpp</text>
</a>
</g>
</g>
<!-- Node1&#45;&gt;Node5 -->
<g id="edge4" class="edge">
<title>Node1&#45;&gt;Node5</title>
<path fill="none" stroke="midnightblue" d="M408.93,-252.24C427.66,-240.75 453.79,-224.72 469.63,-215.01"/>
<polygon fill="midnightblue" stroke="midnightblue" points="407.09,-249.26 400.4,-257.48 410.75,-255.23 407.09,-249.26"/>
</g>
<!-- Node10 -->
<g id="node10" class="node">
<title>Node10</title>
<g id="a_node10"><a xlink:href="../../d6/d18/MqttModule_8cpp.html" target="_top" xlink:title=" ">
<polygon fill="white" stroke="black" points="510.5,-0.5 510.5,-19.5 694.5,-19.5 694.5,-0.5 510.5,-0.5"/>
<text text-anchor="middle" x="602.5" y="-7.5" font-family="Helvetica,sans-Serif" font-size="10.00">src/modules/mqtt/MqttModule.cpp</text>
</a>
</g>
</g>
<!-- Node1&#45;&gt;Node10 -->
<g id="edge10" class="edge">
<title>Node1&#45;&gt;Node10</title>
<path fill="none" stroke="midnightblue" d="M473.4,-255.95C518.36,-248.87 566.85,-237.64 581.5,-221 634.28,-161.05 612.4,-50.92 604.74,-19.54"/>
<polygon fill="midnightblue" stroke="midnightblue" points="472.64,-252.53 463.28,-257.49 473.69,-259.45 472.64,-252.53"/>
</g>
<!-- Node4 -->
<g id="node4" class="node">
<title>Node4</title>
<g id="a_node4"><a xlink:href="../../d3/dd4/ExternalMessageSerializer_8cpp.html" target="_top" xlink:title=" ">
<polygon fill="white" stroke="black" points="206,-123.5 206,-153.5 375,-153.5 375,-123.5 206,-123.5"/>
<text text-anchor="start" x="214" y="-141.5" font-family="Helvetica,sans-Serif" font-size="10.00">src/hardware/serializers</text>
<text text-anchor="middle" x="290.5" y="-130.5" font-family="Helvetica,sans-Serif" font-size="10.00">/ExternalMessageSerializer.cpp</text>
</a>
</g>
</g>
<!-- Node3&#45;&gt;Node4 -->
<g id="edge3" class="edge">
<title>Node3&#45;&gt;Node4</title>
<path fill="none" stroke="midnightblue" d="M290.5,-180.11C290.5,-171.15 290.5,-161.32 290.5,-153.58"/>
<polygon fill="midnightblue" stroke="midnightblue" points="287,-180.4 290.5,-190.4 294,-180.4 287,-180.4"/>
</g>
<!-- Node6 -->
<g id="node6" class="node">
<title>Node6</title>
<g id="a_node6"><a xlink:href="../../d2/d90/MqttExternalServer_8hpp.html" target="_top" xlink:title=" ">
<polygon fill="white" stroke="black" points="398.5,-123.5 398.5,-153.5 566.5,-153.5 566.5,-123.5 398.5,-123.5"/>
<text text-anchor="start" x="406.5" y="-141.5" font-family="Helvetica,sans-Serif" font-size="10.00">src/modules/mqtt/MqttExternal</text>
<text text-anchor="middle" x="482.5" y="-130.5" font-family="Helvetica,sans-Serif" font-size="10.00">Server.hpp</text>
</a>
</g>
</g>
<!-- Node5&#45;&gt;Node6 -->
<g id="edge5" class="edge">
<title>Node5&#45;&gt;Node6</title>
<path fill="none" stroke="midnightblue" d="M483.21,-185.41C483.05,-175.22 482.86,-162.9 482.72,-153.59"/>
<polygon fill="midnightblue" stroke="midnightblue" points="479.71,-185.79 483.37,-195.73 486.71,-185.68 479.71,-185.79"/>
</g>
<!-- Node7 -->
<g id="node7" class="node">
<title>Node7</title>
<g id="a_node7"><a xlink:href="../../d2/d21/MqttExternalServer_8cpp.html" target="_top" xlink:title=" ">
<polygon fill="white" stroke="black" points="204.5,-56.5 204.5,-86.5 372.5,-86.5 372.5,-56.5 204.5,-56.5"/>
<text text-anchor="start" x="212.5" y="-74.5" font-family="Helvetica,sans-Serif" font-size="10.00">src/modules/mqtt/MqttExternal</text>
<text text-anchor="middle" x="288.5" y="-63.5" font-family="Helvetica,sans-Serif" font-size="10.00">Server.cpp</text>
</a>
</g>
</g>
<!-- Node6&#45;&gt;Node7 -->
<g id="edge6" class="edge">
<title>Node6&#45;&gt;Node7</title>
<path fill="none" stroke="midnightblue" d="M430.54,-120.09C399.23,-109.6 359.86,-96.41 330.51,-86.58"/>
<polygon fill="midnightblue" stroke="midnightblue" points="429.81,-123.54 440.4,-123.4 432.03,-116.9 429.81,-123.54"/>
</g>
<!-- Node8 -->
<g id="node8" class="node">
<title>Node8</title>
<g id="a_node8"><a xlink:href="../../da/d2c/MqttModule_8hpp.html" target="_top" xlink:title=" ">
<polygon fill="white" stroke="black" points="390,-62 390,-81 575,-81 575,-62 390,-62"/>
<text text-anchor="middle" x="482.5" y="-69" font-family="Helvetica,sans-Serif" font-size="10.00">src/modules/mqtt/MqttModule.hpp</text>
</a>
</g>
</g>
<!-- Node6&#45;&gt;Node8 -->
<g id="edge7" class="edge">
<title>Node6&#45;&gt;Node8</title>
<path fill="none" stroke="midnightblue" d="M482.5,-113.25C482.5,-102.02 482.5,-89.38 482.5,-81.19"/>
<polygon fill="midnightblue" stroke="midnightblue" points="479,-113.4 482.5,-123.4 486,-113.4 479,-113.4"/>
</g>
<!-- Node9 -->
<g id="node9" class="node">
<title>Node9</title>
<g id="a_node9"><a xlink:href="../../dc/d68/mqtt_2init_8cpp.html" target="_top" xlink:title=" ">
<polygon fill="white" stroke="black" points="351,-0.5 351,-19.5 492,-19.5 492,-0.5 351,-0.5"/>
<text text-anchor="middle" x="421.5" y="-7.5" font-family="Helvetica,sans-Serif" font-size="10.00">src/modules/mqtt/init.cpp</text>
</a>
</g>
</g>
<!-- Node8&#45;&gt;Node9 -->
<g id="edge8" class="edge">
<title>Node8&#45;&gt;Node9</title>
<path fill="none" stroke="midnightblue" d="M466.43,-54.82C454.84,-43.52 439.64,-28.69 430.22,-19.51"/>
<polygon fill="midnightblue" stroke="midnightblue" points="464.16,-57.5 473.76,-61.98 469.05,-52.49 464.16,-57.5"/>
</g>
<!-- Node8&#45;&gt;Node10 -->
<g id="edge9" class="edge">
<title>Node8&#45;&gt;Node10</title>
<path fill="none" stroke="midnightblue" d="M508.68,-57.52C531.95,-45.98 565.3,-29.44 585.34,-19.51"/>
<polygon fill="midnightblue" stroke="midnightblue" points="507.1,-54.4 499.69,-61.98 510.21,-60.67 507.1,-54.4"/>
</g>
</g>
</svg>
        <g id="navigator" transform="translate(0 0)" fill="#404254">
                <rect fill="#f2f5e9" fill-opacity="0.5" stroke="#606060" stroke-width=".5" x="0" y="0" width="60" height="60"/>
                <use id="zoomplus" xlink:href="#zoomPlus" x="17" y="9" onmousedown="handleZoom(evt,'in')"/>
                <use id="zoomminus" xlink:href="#zoomMin" x="42" y="9" onmousedown="handleZoom(evt,'out')"/>
                <use id="reset" xlink:href="#resetDef" x="30" y="36" onmousedown="handleReset()"/>
                <g id="arrowUp" xlink:href="#dirArrow" transform="translate(30 24)" onmousedown="handlePan(0,-1)">
                  <use xlink:href="#rim" fill="#404040">
                        <set attributeName="fill" to="#808080" begin="arrowUp.mouseover" end="arrowUp.mouseout"/>
                  </use>
                  <path fill="none" stroke="white" stroke-width="1.5" d="M0,-3.0v7 M-2.5,-0.5L0,-3.0L2.5,-0.5"/>
                </g>
                <g id="arrowRight" xlink:href="#dirArrow" transform="rotate(90) translate(36 -43)" onmousedown="handlePan(1,0)">
                  <use xlink:href="#rim" fill="#404040">
                        <set attributeName="fill" to="#808080" begin="arrowRight.mouseover" end="arrowRight.mouseout"/>
                  </use>
                  <path fill="none" stroke="white" stroke-width="1.5" d="M0,-3.0v7 M-2.5,-0.5L0,-3.0L2.5,-0.5"/>
                </g>
                <g id="arrowDown" xlink:href="#dirArrow" transform="rotate(180) translate(-30 -48)" onmousedown="handlePan(0,1)">
                  <use xlink:href="#rim" fill="#404040">
                        <set attributeName="fill" to="#808080" begin="arrowDown.mouseover" end="arrowDown.mouseout"/>
                  </use>
                  <path fill="none" stroke="white" stroke-width="1.5" d="M0,-3.0v7 M-2.5,-0.5L0,-3.0L2.5,-0.5"/>
                </g>
                <g id="arrowLeft" xlink:href="#dirArrow" transform="rotate(270) translate(-36 17)" onmousedown="handlePan(-1,0)">
                  <use xlink:href="#rim" fill="#404040">
                        <set attributeName="fill" to="#808080" begin="arrowLeft.mouseover" end="arrowLeft.mouseout"/>
                  </use>
                  <path fill="none" stroke="white" stroke-width="1.5" d="M0,-3.0v7 M-2.5,-0.5L0,-3.0L2.5,-0.5"/>
                </g>
        </g>
        <svg viewBox="0 0 15 15" width="100%" height="30px" preserveAspectRatio="xMaxYMin meet">
         <g id="arrow_out" transform="scale(0.3 0.3)">
          <a xlink:href="ExternalMessage_8hpp__dep__incl_org.svg" target="_base">
           <rect id="button" ry="5" rx="5" y="6" x="6" height="38" width="38"
                fill="#f2f5e9" fill-opacity="0.5" stroke="#606060" stroke-width="1.0"/>
           <path id="arrow"
             d="M 11.500037,31.436501 C 11.940474,20.09759 22.043105,11.32322 32.158766,21.979434 L 37.068811,17.246167 C 37.068811,17.246167 37.088388,32 37.088388,32 L 22.160133,31.978069 C 22.160133,31.978069 26.997745,27.140456 26.997745,27.140456 C 18.528582,18.264221 13.291696,25.230495 11.500037,31.436501 z"
             style="fill:#404040;"/>
          </a>
         </g>
        </svg>
</svg>
