<?xml version="1.0" encoding="UTF-8" standalone="no"?>
<!DOCTYPE svg PUBLIC "-//W3C//DTD SVG 1.1//EN"
 "http://www.w3.org/Graphics/SVG/1.1/DTD/svg11.dtd">
<!-- Generated by graphviz version 2.43.0 (0)
 -->
<!-- Title: Leosac::ExtensibleSerializer&lt; SerializedT, ObjectT, AdditionalArgs &gt; Pages: 1 -->
<svg width="478pt" height="78pt"
 viewBox="0.00 0.00 478.00 77.50" xmlns="http://www.w3.org/2000/svg" xmlns:xlink="http://www.w3.org/1999/xlink">
<g id="graph0" class="graph" transform="scale(1 1) rotate(0) translate(4 73.5)">
<title>Leosac::ExtensibleSerializer&lt; SerializedT, ObjectT, AdditionalArgs &gt;</title>
<polygon fill="white" stroke="transparent" points="-4,4 -4,-73.5 474,-73.5 474,4 -4,4"/>
<!-- Node1 -->
<g id="node1" class="node">
<title>Node1</title>
<g id="a_node1"><a xlink:title="Provides dynamic serializers management for a given object&#39;s hierarchy.">
<polygon fill="#bfbfbf" stroke="black" points="289,-17 289,-58 470,-58 470,-17 289,-17"/>
<text text-anchor="start" x="297" y="-46" font-family="Helvetica,sans-Serif" font-size="10.00">Leosac::ExtensibleSerializer</text>
<text text-anchor="start" x="297" y="-35" font-family="Helvetica,sans-Serif" font-size="10.00">&lt; SerializedT, ObjectT, Additional</text>
<text text-anchor="middle" x="379.5" y="-24" font-family="Helvetica,sans-Serif" font-size="10.00">Args &gt;</text>
</a>
</g>
</g>
<!-- Node2 -->
<g id="node2" class="node">
<title>Node2</title>
<g id="a_node2"><a xlink:title="STL class.">
<polygon fill="white" stroke="#bfbfbf" points="37.5,-50 37.5,-69 156.5,-69 156.5,-50 37.5,-50"/>
<text text-anchor="middle" x="97" y="-57" font-family="Helvetica,sans-Serif" font-size="10.00">std::recursive_mutex</text>
</a>
</g>
</g>
<!-- Node2&#45;&gt;Node1 -->
<g id="edge1" class="edge">
<title>Node2&#45;&gt;Node1</title>
<path fill="none" stroke="#9a32cd" stroke-dasharray="5,2" d="M166.92,-54.09C203.68,-51.21 249.34,-47.63 288.83,-44.53"/>
<polygon fill="#9a32cd" stroke="#9a32cd" points="166.5,-50.62 156.8,-54.89 167.05,-57.6 166.5,-50.62"/>
<text text-anchor="middle" x="241.5" y="-52.5" font-family="Helvetica,sans-Serif" font-size="10.00"> mutex_</text>
</g>
<!-- Node3 -->
<g id="node3" class="node">
<title>Node3</title>
<g id="a_node3"><a xlink:title=" ">
<polygon fill="white" stroke="#bfbfbf" points="0,-0.5 0,-30.5 194,-30.5 194,-0.5 0,-0.5"/>
<text text-anchor="start" x="8" y="-18.5" font-family="Helvetica,sans-Serif" font-size="10.00">std::map&lt; boost::typeindex</text>
<text text-anchor="middle" x="97" y="-7.5" font-family="Helvetica,sans-Serif" font-size="10.00">::type_index, SerializationCallable &gt;</text>
</a>
</g>
</g>
<!-- Node3&#45;&gt;Node1 -->
<g id="edge2" class="edge">
<title>Node3&#45;&gt;Node1</title>
<path fill="none" stroke="#9a32cd" stroke-dasharray="5,2" d="M204.29,-23.84C232.08,-26.02 261.77,-28.35 288.62,-30.45"/>
<polygon fill="#9a32cd" stroke="#9a32cd" points="204.38,-20.33 194.14,-23.04 203.84,-27.31 204.38,-20.33"/>
<text text-anchor="middle" x="241.5" y="-31.5" font-family="Helvetica,sans-Serif" font-size="10.00"> serializers_</text>
</g>
</g>
</svg>
