<?xml version="1.0" encoding="UTF-8" standalone="no"?>
<!DOCTYPE svg PUBLIC "-//W3C//DTD SVG 1.1//EN"
 "http://www.w3.org/Graphics/SVG/1.1/DTD/svg11.dtd">
<!-- Generated by graphviz version 2.43.0 (0)
 -->
<!-- Title: Leosac::Hardware::RFIDReader Pages: 1 -->
<svg width="175pt" height="151pt"
 viewBox="0.00 0.00 175.00 151.00" xmlns="http://www.w3.org/2000/svg" xmlns:xlink="http://www.w3.org/1999/xlink">
<g id="graph0" class="graph" transform="scale(1 1) rotate(0) translate(4 147)">
<title>Leosac::Hardware::RFIDReader</title>
<polygon fill="white" stroke="transparent" points="-4,4 -4,-147 171,-147 171,4 -4,4"/>
<!-- Node1 -->
<g id="node1" class="node">
<title>Node1</title>
<g id="a_node1"><a xlink:title="Abstraction of a RFID Reader device.">
<polygon fill="#bfbfbf" stroke="black" points="0,-67.5 0,-86.5 167,-86.5 167,-67.5 0,-67.5"/>
<text text-anchor="middle" x="83.5" y="-74.5" font-family="Helvetica,sans-Serif" font-size="10.00">Leosac::Hardware::RFIDReader</text>
</a>
</g>
</g>
<!-- Node3 -->
<g id="node3" class="node">
<title>Node3</title>
<g id="a_node3"><a xlink:href="../../dc/dfa/structLeosac_1_1Module_1_1Wiegand_1_1WiegandReaderConfig.html" target="_top" xlink:title="An instance of this class represents the configuration of one Wiegand reader.">
<polygon fill="white" stroke="black" points="13,-0.5 13,-30.5 154,-30.5 154,-0.5 13,-0.5"/>
<text text-anchor="start" x="21" y="-18.5" font-family="Helvetica,sans-Serif" font-size="10.00">Leosac::Module::Wiegand</text>
<text text-anchor="middle" x="83.5" y="-7.5" font-family="Helvetica,sans-Serif" font-size="10.00">::WiegandReaderConfig</text>
</a>
</g>
</g>
<!-- Node1&#45;&gt;Node3 -->
<g id="edge2" class="edge">
<title>Node1&#45;&gt;Node3</title>
<path fill="none" stroke="midnightblue" d="M83.5,-57.23C83.5,-48.59 83.5,-38.5 83.5,-30.52"/>
<polygon fill="midnightblue" stroke="midnightblue" points="80,-57.48 83.5,-67.48 87,-57.48 80,-57.48"/>
</g>
<!-- Node2 -->
<g id="node2" class="node">
<title>Node2</title>
<g id="a_node2"><a xlink:href="../../d3/d7f/classLeosac_1_1Hardware_1_1Device.html" target="_top" xlink:title="Base class for hardware devices.">
<polygon fill="white" stroke="black" points="12,-123.5 12,-142.5 155,-142.5 155,-123.5 12,-123.5"/>
<text text-anchor="middle" x="83.5" y="-130.5" font-family="Helvetica,sans-Serif" font-size="10.00">Leosac::Hardware::Device</text>
</a>
</g>
</g>
<!-- Node2&#45;&gt;Node1 -->
<g id="edge1" class="edge">
<title>Node2&#45;&gt;Node1</title>
<path fill="none" stroke="midnightblue" d="M83.5,-112.8C83.5,-103.91 83.5,-93.78 83.5,-86.75"/>
<polygon fill="midnightblue" stroke="midnightblue" points="80,-113.08 83.5,-123.08 87,-113.08 80,-113.08"/>
</g>
</g>
</svg>
