<?xml version="1.0" encoding="UTF-8" standalone="no"?>
<!DOCTYPE svg PUBLIC "-//W3C//DTD SVG 1.1//EN"
 "http://www.w3.org/Graphics/SVG/1.1/DTD/svg11.dtd">
<!-- Generated by graphviz version 2.43.0 (0)
 -->
<!-- Title: Leosac::Module::WebSockAPI::ServerMessage Pages: 1 -->
<svg width="166pt" height="196pt"
 viewBox="0.00 0.00 166.00 196.00" xmlns="http://www.w3.org/2000/svg" xmlns:xlink="http://www.w3.org/1999/xlink">
<g id="graph0" class="graph" transform="scale(1 1) rotate(0) translate(4 192)">
<title>Leosac::Module::WebSockAPI::ServerMessage</title>
<polygon fill="white" stroke="transparent" points="-4,4 -4,-192 162,-192 162,4 -4,4"/>
<!-- Node1 -->
<g id="node1" class="node">
<title>Node1</title>
<g id="a_node1"><a xlink:title="A message sent by the server to a client.">
<polygon fill="#bfbfbf" stroke="black" points="0,-0.5 0,-30.5 158,-30.5 158,-0.5 0,-0.5"/>
<text text-anchor="start" x="8" y="-18.5" font-family="Helvetica,sans-Serif" font-size="10.00">Leosac::Module::WebSockAPI</text>
<text text-anchor="middle" x="79" y="-7.5" font-family="Helvetica,sans-Serif" font-size="10.00">::ServerMessage</text>
</a>
</g>
</g>
<!-- Node2 -->
<g id="node2" class="node">
<title>Node2</title>
<g id="a_node2"><a xlink:title="STL class.">
<polygon fill="white" stroke="#bfbfbf" points="46.5,-100.5 46.5,-119.5 111.5,-119.5 111.5,-100.5 46.5,-100.5"/>
<text text-anchor="middle" x="79" y="-107.5" font-family="Helvetica,sans-Serif" font-size="10.00">std::string</text>
</a>
</g>
</g>
<!-- Node2&#45;&gt;Node1 -->
<g id="edge1" class="edge">
<title>Node2&#45;&gt;Node1</title>
<path fill="none" stroke="#9a32cd" stroke-dasharray="5,2" d="M79,-90.29C79,-72.67 79,-46.67 79,-30.7"/>
<polygon fill="#9a32cd" stroke="#9a32cd" points="75.5,-90.46 79,-100.46 82.5,-90.46 75.5,-90.46"/>
<text text-anchor="middle" x="112.5" y="-74" font-family="Helvetica,sans-Serif" font-size="10.00"> status_string</text>
<text text-anchor="middle" x="112.5" y="-63" font-family="Helvetica,sans-Serif" font-size="10.00">type</text>
<text text-anchor="middle" x="112.5" y="-52" font-family="Helvetica,sans-Serif" font-size="10.00">uuid</text>
</g>
<!-- Node3 -->
<g id="node3" class="node">
<title>Node3</title>
<g id="a_node3"><a xlink:title="STL class.">
<polygon fill="white" stroke="#bfbfbf" points="27,-157.5 27,-187.5 131,-187.5 131,-157.5 27,-157.5"/>
<text text-anchor="start" x="35" y="-175.5" font-family="Helvetica,sans-Serif" font-size="10.00">std::basic_string&lt;</text>
<text text-anchor="middle" x="79" y="-164.5" font-family="Helvetica,sans-Serif" font-size="10.00"> char &gt;</text>
</a>
</g>
</g>
<!-- Node3&#45;&gt;Node2 -->
<g id="edge2" class="edge">
<title>Node3&#45;&gt;Node2</title>
<path fill="none" stroke="midnightblue" d="M79,-147.35C79,-137.51 79,-126.78 79,-119.54"/>
<polygon fill="midnightblue" stroke="midnightblue" points="75.5,-147.47 79,-157.47 82.5,-147.47 75.5,-147.47"/>
</g>
</g>
</svg>
