<?xml version="1.0" encoding="UTF-8" standalone="no"?>
<!DOCTYPE svg PUBLIC "-//W3C//DTD SVG 1.1//EN"
 "http://www.w3.org/Graphics/SVG/1.1/DTD/svg11.dtd">
<!-- Generated by graphviz version 2.43.0 (0)
 -->
<!-- Title: src/core/credentials/Credential.hpp Pages: 1 -->
<svg width="2025pt" height="240pt"
 viewBox="0.00 0.00 2025.00 240.00" xmlns="http://www.w3.org/2000/svg" xmlns:xlink="http://www.w3.org/1999/xlink">
<g id="graph0" class="graph" transform="scale(1 1) rotate(0) translate(4 236)">
<title>src/core/credentials/Credential.hpp</title>
<polygon fill="white" stroke="transparent" points="-4,4 -4,-236 2021,-236 2021,4 -4,4"/>
<!-- Node1 -->
<g id="node1" class="node">
<title>Node1</title>
<g id="a_node1"><a xlink:title=" ">
<polygon fill="#bfbfbf" stroke="black" points="434,-201.5 434,-231.5 546,-231.5 546,-201.5 434,-201.5"/>
<text text-anchor="start" x="442" y="-219.5" font-family="Helvetica,sans-Serif" font-size="10.00">src/core/credentials</text>
<text text-anchor="middle" x="490" y="-208.5" font-family="Helvetica,sans-Serif" font-size="10.00">/Credential.hpp</text>
</a>
</g>
</g>
<!-- Node2 -->
<g id="node2" class="node">
<title>Node2</title>
<g id="a_node2"><a xlink:href="../../d5/dd1/CredentialEvent_8cpp.html" target="_top" xlink:title=" ">
<polygon fill="white" stroke="black" points="103,-134.5 103,-164.5 239,-164.5 239,-134.5 103,-134.5"/>
<text text-anchor="start" x="111" y="-152.5" font-family="Helvetica,sans-Serif" font-size="10.00">src/core/audit/Credential</text>
<text text-anchor="middle" x="171" y="-141.5" font-family="Helvetica,sans-Serif" font-size="10.00">Event.cpp</text>
</a>
</g>
</g>
<!-- Node1&#45;&gt;Node2 -->
<g id="edge1" class="edge">
<title>Node1&#45;&gt;Node2</title>
<path fill="none" stroke="midnightblue" d="M423.88,-202.03C369.86,-191.02 293.78,-175.52 239.21,-164.4"/>
<polygon fill="midnightblue" stroke="midnightblue" points="423.21,-205.46 433.7,-204.03 424.6,-198.6 423.21,-205.46"/>
</g>
<!-- Node3 -->
<g id="node3" class="node">
<title>Node3</title>
<g id="a_node3"><a xlink:href="../../d7/de7/Credential_8cpp.html" target="_top" xlink:title=" ">
<polygon fill="white" stroke="black" points="257,-134.5 257,-164.5 369,-164.5 369,-134.5 257,-134.5"/>
<text text-anchor="start" x="265" y="-152.5" font-family="Helvetica,sans-Serif" font-size="10.00">src/core/credentials</text>
<text text-anchor="middle" x="313" y="-141.5" font-family="Helvetica,sans-Serif" font-size="10.00">/Credential.cpp</text>
</a>
</g>
</g>
<!-- Node1&#45;&gt;Node3 -->
<g id="edge2" class="edge">
<title>Node1&#45;&gt;Node3</title>
<path fill="none" stroke="midnightblue" d="M441.85,-197.82C413.4,-187.37 377.87,-174.32 351.33,-164.58"/>
<polygon fill="midnightblue" stroke="midnightblue" points="441,-201.23 451.59,-201.4 443.41,-194.66 441,-201.23"/>
</g>
<!-- Node4 -->
<g id="node4" class="node">
<title>Node4</title>
<g id="a_node4"><a xlink:href="../../db/d3d/PinCode_8hpp.html" target="_top" xlink:title=" ">
<polygon fill="white" stroke="black" points="387,-134.5 387,-164.5 499,-164.5 499,-134.5 387,-134.5"/>
<text text-anchor="start" x="395" y="-152.5" font-family="Helvetica,sans-Serif" font-size="10.00">src/core/credentials</text>
<text text-anchor="middle" x="443" y="-141.5" font-family="Helvetica,sans-Serif" font-size="10.00">/PinCode.hpp</text>
</a>
</g>
</g>
<!-- Node1&#45;&gt;Node4 -->
<g id="edge3" class="edge">
<title>Node1&#45;&gt;Node4</title>
<path fill="none" stroke="midnightblue" d="M473.84,-193.16C466.99,-183.68 459.21,-172.92 453.18,-164.58"/>
<polygon fill="midnightblue" stroke="midnightblue" points="471.11,-195.34 479.8,-201.4 476.78,-191.24 471.11,-195.34"/>
</g>
<!-- Node12 -->
<g id="node12" class="node">
<title>Node12</title>
<g id="a_node12"><a xlink:href="../../d2/df6/CredentialCRUD_8cpp.html" target="_top" xlink:title=" ">
<polygon fill="white" stroke="black" points="471.5,-67.5 471.5,-97.5 626.5,-97.5 626.5,-67.5 471.5,-67.5"/>
<text text-anchor="start" x="479.5" y="-85.5" font-family="Helvetica,sans-Serif" font-size="10.00">src/modules/websock</text>
<text text-anchor="middle" x="549" y="-74.5" font-family="Helvetica,sans-Serif" font-size="10.00">&#45;api/api/CredentialCRUD.cpp</text>
</a>
</g>
</g>
<!-- Node1&#45;&gt;Node12 -->
<g id="edge35" class="edge">
<title>Node1&#45;&gt;Node12</title>
<path fill="none" stroke="midnightblue" d="M500.45,-192.12C512.71,-164.68 532.65,-120.09 542.73,-97.52"/>
<polygon fill="midnightblue" stroke="midnightblue" points="497.2,-190.82 496.31,-201.37 503.59,-193.67 497.2,-190.82"/>
</g>
<!-- Node14 -->
<g id="node14" class="node">
<title>Node14</title>
<g id="a_node14"><a xlink:href="../../d9/dd6/RFIDCard_8hpp.html" target="_top" xlink:title=" ">
<polygon fill="white" stroke="black" points="883,-134.5 883,-164.5 995,-164.5 995,-134.5 883,-134.5"/>
<text text-anchor="start" x="891" y="-152.5" font-family="Helvetica,sans-Serif" font-size="10.00">src/core/credentials</text>
<text text-anchor="middle" x="939" y="-141.5" font-family="Helvetica,sans-Serif" font-size="10.00">/RFIDCard.hpp</text>
</a>
</g>
</g>
<!-- Node1&#45;&gt;Node14 -->
<g id="edge17" class="edge">
<title>Node1&#45;&gt;Node14</title>
<path fill="none" stroke="midnightblue" d="M556.33,-205.9C644.79,-193.09 799.83,-170.65 882.82,-158.63"/>
<polygon fill="midnightblue" stroke="midnightblue" points="555.81,-202.44 546.41,-207.33 556.81,-209.36 555.81,-202.44"/>
</g>
<!-- Node24 -->
<g id="node24" class="node">
<title>Node24</title>
<g id="a_node24"><a xlink:href="../../d7/d01/ScheduleMapping_8cpp.html" target="_top" xlink:title=" ">
<polygon fill="white" stroke="black" points="1013.5,-140 1013.5,-159 1180.5,-159 1180.5,-140 1013.5,-140"/>
<text text-anchor="middle" x="1097" y="-147" font-family="Helvetica,sans-Serif" font-size="10.00">src/tools/ScheduleMapping.cpp</text>
</a>
</g>
</g>
<!-- Node1&#45;&gt;Node24 -->
<g id="edge36" class="edge">
<title>Node1&#45;&gt;Node24</title>
<path fill="none" stroke="midnightblue" d="M556.07,-210.22C654.05,-202.11 843.56,-185.37 1004,-165 1017.45,-163.29 1031.96,-161.17 1045.42,-159.08"/>
<polygon fill="midnightblue" stroke="midnightblue" points="555.7,-206.73 546.02,-211.04 556.27,-213.71 555.7,-206.73"/>
</g>
<!-- Node5 -->
<g id="node5" class="node">
<title>Node5</title>
<g id="a_node5"><a xlink:href="../../d0/dc0/src_2core_2auth_2AuthSourceBuilder_8cpp.html" target="_top" xlink:title=" ">
<polygon fill="white" stroke="black" points="0,-0.5 0,-30.5 138,-30.5 138,-0.5 0,-0.5"/>
<text text-anchor="start" x="8" y="-18.5" font-family="Helvetica,sans-Serif" font-size="10.00">src/core/auth/AuthSource</text>
<text text-anchor="middle" x="69" y="-7.5" font-family="Helvetica,sans-Serif" font-size="10.00">Builder.cpp</text>
</a>
</g>
</g>
<!-- Node4&#45;&gt;Node5 -->
<g id="edge4" class="edge">
<title>Node4&#45;&gt;Node5</title>
<path fill="none" stroke="midnightblue" d="M376.76,-134.12C298.98,-124.39 134.2,-139.57 88,-98 69.1,-80.99 67.16,-49.15 67.83,-30.71"/>
<polygon fill="midnightblue" stroke="midnightblue" points="376.29,-137.59 386.7,-135.59 377.32,-130.67 376.29,-137.59"/>
</g>
<!-- Node6 -->
<g id="node6" class="node">
<title>Node6</title>
<g id="a_node6"><a xlink:href="../../d5/d2f/PinCode_8cpp.html" target="_top" xlink:title=" ">
<polygon fill="white" stroke="black" points="97,-67.5 97,-97.5 209,-97.5 209,-67.5 97,-67.5"/>
<text text-anchor="start" x="105" y="-85.5" font-family="Helvetica,sans-Serif" font-size="10.00">src/core/credentials</text>
<text text-anchor="middle" x="153" y="-74.5" font-family="Helvetica,sans-Serif" font-size="10.00">/PinCode.cpp</text>
</a>
</g>
</g>
<!-- Node4&#45;&gt;Node6 -->
<g id="edge5" class="edge">
<title>Node4&#45;&gt;Node6</title>
<path fill="none" stroke="midnightblue" d="M376.87,-133.68C326.2,-122.32 257.08,-106.83 209.1,-96.07"/>
<polygon fill="midnightblue" stroke="midnightblue" points="376.22,-137.12 386.74,-135.89 377.75,-130.29 376.22,-137.12"/>
</g>
<!-- Node7 -->
<g id="node7" class="node">
<title>Node7</title>
<g id="a_node7"><a xlink:href="../../da/d24/RFIDCardPin_8hpp.html" target="_top" xlink:title=" ">
<polygon fill="white" stroke="black" points="265,-67.5 265,-97.5 377,-97.5 377,-67.5 265,-67.5"/>
<text text-anchor="start" x="273" y="-85.5" font-family="Helvetica,sans-Serif" font-size="10.00">src/core/credentials</text>
<text text-anchor="middle" x="321" y="-74.5" font-family="Helvetica,sans-Serif" font-size="10.00">/RFIDCardPin.hpp</text>
</a>
</g>
</g>
<!-- Node4&#45;&gt;Node7 -->
<g id="edge6" class="edge">
<title>Node4&#45;&gt;Node7</title>
<path fill="none" stroke="midnightblue" d="M407.48,-129.57C388.29,-119.35 365,-106.94 347.42,-97.58"/>
<polygon fill="midnightblue" stroke="midnightblue" points="406.06,-132.78 416.53,-134.4 409.35,-126.6 406.06,-132.78"/>
</g>
<!-- Node9 -->
<g id="node9" class="node">
<title>Node9</title>
<g id="a_node9"><a xlink:href="../../d3/dc5/FileAuthSourceMapper_8cpp.html" target="_top" xlink:title=" ">
<polygon fill="white" stroke="black" points="286.5,-0.5 286.5,-30.5 453.5,-30.5 453.5,-0.5 286.5,-0.5"/>
<text text-anchor="start" x="294.5" y="-18.5" font-family="Helvetica,sans-Serif" font-size="10.00">src/modules/auth/auth</text>
<text text-anchor="middle" x="370" y="-7.5" font-family="Helvetica,sans-Serif" font-size="10.00">&#45;file/FileAuthSourceMapper.cpp</text>
</a>
</g>
</g>
<!-- Node4&#45;&gt;Node9 -->
<g id="edge12" class="edge">
<title>Node4&#45;&gt;Node9</title>
<path fill="none" stroke="midnightblue" d="M376.64,-132.59C324.44,-119.76 259.87,-103.05 256,-98 233.07,-68.06 279.7,-44.5 320.06,-30.57"/>
<polygon fill="midnightblue" stroke="midnightblue" points="376.01,-136.04 386.56,-135.02 377.68,-129.24 376.01,-136.04"/>
</g>
<!-- Node10 -->
<g id="node10" class="node">
<title>Node10</title>
<g id="a_node10"><a xlink:href="../../d5/d58/AuthFile_8cpp.html" target="_top" xlink:title=" ">
<polygon fill="white" stroke="black" points="471,-6 471,-25 569,-25 569,-6 471,-6"/>
<text text-anchor="middle" x="520" y="-13" font-family="Helvetica,sans-Serif" font-size="10.00">test/AuthFile.cpp</text>
</a>
</g>
</g>
<!-- Node4&#45;&gt;Node10 -->
<g id="edge14" class="edge">
<title>Node4&#45;&gt;Node10</title>
<path fill="none" stroke="midnightblue" d="M431.01,-124.9C424.1,-107.76 418.65,-84.58 429,-67 441.65,-45.51 467.11,-32.52 487.88,-25.1"/>
<polygon fill="midnightblue" stroke="midnightblue" points="427.88,-126.48 435.13,-134.21 434.28,-123.65 427.88,-126.48"/>
</g>
<!-- Node11 -->
<g id="node11" class="node">
<title>Node11</title>
<g id="a_node11"><a xlink:href="../../d9/d75/test_2AuthSourceBuilder_8cpp.html" target="_top" xlink:title=" ">
<polygon fill="white" stroke="black" points="587,-6 587,-25 735,-25 735,-6 587,-6"/>
<text text-anchor="middle" x="661" y="-13" font-family="Helvetica,sans-Serif" font-size="10.00">test/AuthSourceBuilder.cpp</text>
</a>
</g>
</g>
<!-- Node4&#45;&gt;Node11 -->
<g id="edge15" class="edge">
<title>Node4&#45;&gt;Node11</title>
<path fill="none" stroke="midnightblue" d="M442.3,-124.22C443.13,-106.11 447.27,-82.02 462,-67 472.95,-55.83 562.41,-36.24 617.59,-25.03"/>
<polygon fill="midnightblue" stroke="midnightblue" points="438.8,-124.28 442.15,-134.33 445.8,-124.38 438.8,-124.28"/>
</g>
<!-- Node4&#45;&gt;Node12 -->
<g id="edge13" class="edge">
<title>Node4&#45;&gt;Node12</title>
<path fill="none" stroke="midnightblue" d="M474.78,-129.02C491.27,-118.9 511.05,-106.77 526.04,-97.58"/>
<polygon fill="midnightblue" stroke="midnightblue" points="472.7,-126.18 466,-134.4 476.35,-132.15 472.7,-126.18"/>
</g>
<!-- Node13 -->
<g id="node13" class="node">
<title>Node13</title>
<g id="a_node13"><a xlink:href="../../dc/db5/test_2CredentialValidator_8cpp.html" target="_top" xlink:title=" ">
<polygon fill="white" stroke="black" points="645,-73 645,-92 797,-92 797,-73 645,-73"/>
<text text-anchor="middle" x="721" y="-80" font-family="Helvetica,sans-Serif" font-size="10.00">test/CredentialValidator.cpp</text>
</a>
</g>
</g>
<!-- Node4&#45;&gt;Node13 -->
<g id="edge16" class="edge">
<title>Node4&#45;&gt;Node13</title>
<path fill="none" stroke="midnightblue" d="M509.23,-133.01C564.03,-120.2 639.84,-102.48 684.32,-92.08"/>
<polygon fill="midnightblue" stroke="midnightblue" points="508.2,-129.66 499.26,-135.35 509.79,-136.48 508.2,-129.66"/>
</g>
<!-- Node7&#45;&gt;Node5 -->
<g id="edge7" class="edge">
<title>Node7&#45;&gt;Node5</title>
<path fill="none" stroke="midnightblue" d="M256.71,-64.92C215.59,-54.31 162.82,-40.7 123.71,-30.61"/>
<polygon fill="midnightblue" stroke="midnightblue" points="256.07,-68.37 266.63,-67.48 257.82,-61.59 256.07,-68.37"/>
</g>
<!-- Node8 -->
<g id="node8" class="node">
<title>Node8</title>
<g id="a_node8"><a xlink:href="../../d5/da8/RFIDCardPin_8cpp.html" target="_top" xlink:title=" ">
<polygon fill="white" stroke="black" points="156,-0.5 156,-30.5 268,-30.5 268,-0.5 156,-0.5"/>
<text text-anchor="start" x="164" y="-18.5" font-family="Helvetica,sans-Serif" font-size="10.00">src/core/credentials</text>
<text text-anchor="middle" x="212" y="-7.5" font-family="Helvetica,sans-Serif" font-size="10.00">/RFIDCardPin.cpp</text>
</a>
</g>
</g>
<!-- Node7&#45;&gt;Node8 -->
<g id="edge8" class="edge">
<title>Node7&#45;&gt;Node8</title>
<path fill="none" stroke="midnightblue" d="M288.33,-62.02C271.36,-51.9 251.02,-39.77 235.61,-30.58"/>
<polygon fill="midnightblue" stroke="midnightblue" points="286.97,-65.28 297.35,-67.4 290.55,-59.27 286.97,-65.28"/>
</g>
<!-- Node7&#45;&gt;Node9 -->
<g id="edge9" class="edge">
<title>Node7&#45;&gt;Node9</title>
<path fill="none" stroke="midnightblue" d="M337.84,-59.16C344.99,-49.68 353.1,-38.92 359.39,-30.58"/>
<polygon fill="midnightblue" stroke="midnightblue" points="334.86,-57.3 331.63,-67.4 340.45,-61.52 334.86,-57.3"/>
</g>
<!-- Node7&#45;&gt;Node10 -->
<g id="edge10" class="edge">
<title>Node7&#45;&gt;Node10</title>
<path fill="none" stroke="midnightblue" d="M373.75,-64.27C412.53,-51.6 463.56,-34.93 493.96,-25.01"/>
<polygon fill="midnightblue" stroke="midnightblue" points="372.6,-60.96 364.18,-67.4 374.77,-67.62 372.6,-60.96"/>
</g>
<!-- Node7&#45;&gt;Node11 -->
<g id="edge11" class="edge">
<title>Node7&#45;&gt;Node11</title>
<path fill="none" stroke="midnightblue" d="M387.27,-68.83C454.9,-55.9 557.98,-36.19 616.44,-25.02"/>
<polygon fill="midnightblue" stroke="midnightblue" points="386.31,-65.45 377.14,-70.77 387.62,-72.33 386.31,-65.45"/>
</g>
<!-- Node14&#45;&gt;Node5 -->
<g id="edge18" class="edge">
<title>Node14&#45;&gt;Node5</title>
<path fill="none" stroke="midnightblue" d="M895.97,-130.1C877.72,-121.46 856.64,-110.35 839,-98 822.52,-86.46 824.5,-74.92 806,-67 671.17,-9.3 292.62,-48.44 147,-31 144.13,-30.66 141.2,-30.27 138.25,-29.85"/>
<polygon fill="midnightblue" stroke="midnightblue" points="894.68,-133.36 905.22,-134.38 897.62,-127 894.68,-133.36"/>
</g>
<!-- Node14&#45;&gt;Node7 -->
<g id="edge20" class="edge">
<title>Node14&#45;&gt;Node7</title>
<path fill="none" stroke="midnightblue" d="M872.81,-141.54C750.58,-128.68 491.49,-101.43 377.19,-89.41"/>
<polygon fill="midnightblue" stroke="midnightblue" points="872.48,-145.02 882.79,-142.59 873.21,-138.06 872.48,-145.02"/>
</g>
<!-- Node14&#45;&gt;Node9 -->
<g id="edge22" class="edge">
<title>Node14&#45;&gt;Node9</title>
<path fill="none" stroke="midnightblue" d="M913.85,-128.03C902.58,-118.85 889.12,-107.88 877,-98 860.11,-84.23 859.16,-75.28 839,-67 683.31,-3.05 628.99,-52.11 462,-31 459.27,-30.66 456.5,-30.29 453.71,-29.92"/>
<polygon fill="midnightblue" stroke="midnightblue" points="911.66,-130.75 921.63,-134.35 916.08,-125.33 911.66,-130.75"/>
</g>
<!-- Node14&#45;&gt;Node10 -->
<g id="edge31" class="edge">
<title>Node14&#45;&gt;Node10</title>
<path fill="none" stroke="midnightblue" d="M928.11,-125.51C917.78,-106.44 900.36,-80.38 877,-67 760.85,-0.48 709.63,-55.28 578,-31 569.22,-29.38 559.8,-27.21 551.15,-25.05"/>
<polygon fill="midnightblue" stroke="midnightblue" points="925.04,-127.19 932.73,-134.47 931.26,-123.98 925.04,-127.19"/>
</g>
<!-- Node14&#45;&gt;Node11 -->
<g id="edge32" class="edge">
<title>Node14&#45;&gt;Node11</title>
<path fill="none" stroke="midnightblue" d="M938.31,-124.19C936.44,-105.86 930.86,-81.49 915,-67 889.11,-43.34 800.45,-29.77 735.14,-22.77"/>
<polygon fill="midnightblue" stroke="midnightblue" points="934.83,-124.69 939.04,-134.41 941.81,-124.19 934.83,-124.69"/>
</g>
<!-- Node14&#45;&gt;Node12 -->
<g id="edge26" class="edge">
<title>Node14&#45;&gt;Node12</title>
<path fill="none" stroke="midnightblue" d="M872.53,-137.42C804.47,-126.08 698.74,-108.46 626.82,-96.47"/>
<polygon fill="midnightblue" stroke="midnightblue" points="872.27,-140.93 882.71,-139.12 873.42,-134.02 872.27,-140.93"/>
</g>
<!-- Node14&#45;&gt;Node13 -->
<g id="edge33" class="edge">
<title>Node14&#45;&gt;Node13</title>
<path fill="none" stroke="midnightblue" d="M882.29,-131.59C839.71,-118.9 783.19,-102.04 749.6,-92.03"/>
<polygon fill="midnightblue" stroke="midnightblue" points="881.38,-134.97 891.97,-134.48 883.38,-128.26 881.38,-134.97"/>
</g>
<!-- Node15 -->
<g id="node15" class="node">
<title>Node15</title>
<g id="a_node15"><a xlink:href="../../d7/d68/src_2core_2credentials_2RFIDCard_8cpp.html" target="_top" xlink:title=" ">
<polygon fill="white" stroke="black" points="967,-67.5 967,-97.5 1079,-97.5 1079,-67.5 967,-67.5"/>
<text text-anchor="start" x="975" y="-85.5" font-family="Helvetica,sans-Serif" font-size="10.00">src/core/credentials</text>
<text text-anchor="middle" x="1023" y="-74.5" font-family="Helvetica,sans-Serif" font-size="10.00">/RFIDCard.cpp</text>
</a>
</g>
</g>
<!-- Node14&#45;&gt;Node15 -->
<g id="edge19" class="edge">
<title>Node14&#45;&gt;Node15</title>
<path fill="none" stroke="midnightblue" d="M965.28,-128.17C978.12,-118.23 993.26,-106.51 1004.81,-97.58"/>
<polygon fill="midnightblue" stroke="midnightblue" points="962.99,-125.51 957.23,-134.4 967.28,-131.04 962.99,-125.51"/>
</g>
<!-- Node16 -->
<g id="node16" class="node">
<title>Node16</title>
<g id="a_node16"><a xlink:href="../../dd/d24/kernel_8cpp.html" target="_top" xlink:title=" ">
<polygon fill="white" stroke="black" points="1097,-73 1097,-92 1205,-92 1205,-73 1097,-73"/>
<text text-anchor="middle" x="1151" y="-80" font-family="Helvetica,sans-Serif" font-size="10.00">src/core/kernel.cpp</text>
</a>
</g>
</g>
<!-- Node14&#45;&gt;Node16 -->
<g id="edge21" class="edge">
<title>Node14&#45;&gt;Node16</title>
<path fill="none" stroke="midnightblue" d="M994.41,-131.51C1035.79,-118.83 1090.59,-102.02 1123.18,-92.03"/>
<polygon fill="midnightblue" stroke="midnightblue" points="993.27,-128.2 984.74,-134.48 995.33,-134.89 993.27,-128.2"/>
</g>
<!-- Node17 -->
<g id="node17" class="node">
<title>Node17</title>
<g id="a_node17"><a xlink:href="../../d8/dba/RplethModule_8cpp.html" target="_top" xlink:title=" ">
<polygon fill="white" stroke="black" points="1223.5,-67.5 1223.5,-97.5 1330.5,-97.5 1330.5,-67.5 1223.5,-67.5"/>
<text text-anchor="start" x="1231.5" y="-85.5" font-family="Helvetica,sans-Serif" font-size="10.00">src/modules/rpleth</text>
<text text-anchor="middle" x="1277" y="-74.5" font-family="Helvetica,sans-Serif" font-size="10.00">/RplethModule.cpp</text>
</a>
</g>
</g>
<!-- Node14&#45;&gt;Node17 -->
<g id="edge23" class="edge">
<title>Node14&#45;&gt;Node17</title>
<path fill="none" stroke="midnightblue" d="M1005.2,-133.82C1098.59,-115.73 1124.24,-116.01 1214,-98 1217.08,-97.38 1220.24,-96.73 1223.43,-96.05"/>
<polygon fill="midnightblue" stroke="midnightblue" points="1004.48,-130.4 995.33,-135.75 1005.82,-137.27 1004.48,-130.4"/>
</g>
<!-- Node18 -->
<g id="node18" class="node">
<title>Node18</title>
<g id="a_node18"><a xlink:href="../../d2/d99/NotifierInstance_8cpp.html" target="_top" xlink:title=" ">
<polygon fill="white" stroke="black" points="1349,-67.5 1349,-97.5 1481,-97.5 1481,-67.5 1349,-67.5"/>
<text text-anchor="start" x="1357" y="-85.5" font-family="Helvetica,sans-Serif" font-size="10.00">src/modules/tcp&#45;notifier</text>
<text text-anchor="middle" x="1415" y="-74.5" font-family="Helvetica,sans-Serif" font-size="10.00">/NotifierInstance.cpp</text>
</a>
</g>
</g>
<!-- Node14&#45;&gt;Node18 -->
<g id="edge24" class="edge">
<title>Node14&#45;&gt;Node18</title>
<path fill="none" stroke="midnightblue" d="M1005.22,-133.92C1153.49,-110.09 1194.07,-119.58 1339,-98 1342.19,-97.53 1345.45,-97.01 1348.74,-96.47"/>
<polygon fill="midnightblue" stroke="midnightblue" points="1004.6,-130.47 995.29,-135.54 1005.73,-137.38 1004.6,-130.47"/>
</g>
<!-- Node19 -->
<g id="node19" class="node">
<title>Node19</title>
<g id="a_node19"><a xlink:href="../../da/da5/PushSimpleCardNumber_8cpp.html" target="_top" xlink:title=" ">
<polygon fill="white" stroke="black" points="1499,-67.5 1499,-97.5 1705,-97.5 1705,-67.5 1499,-67.5"/>
<text text-anchor="start" x="1507" y="-85.5" font-family="Helvetica,sans-Serif" font-size="10.00">src/modules/tcp&#45;notifier</text>
<text text-anchor="middle" x="1602" y="-74.5" font-family="Helvetica,sans-Serif" font-size="10.00">/protocols/PushSimpleCardNumber.cpp</text>
</a>
</g>
</g>
<!-- Node14&#45;&gt;Node19 -->
<g id="edge25" class="edge">
<title>Node14&#45;&gt;Node19</title>
<path fill="none" stroke="midnightblue" d="M1005.29,-133.95C1220,-102.86 1277.78,-119.58 1490,-98 1492.93,-97.7 1495.89,-97.39 1498.89,-97.07"/>
<polygon fill="midnightblue" stroke="midnightblue" points="1004.66,-130.51 995.28,-135.42 1005.68,-137.43 1004.66,-130.51"/>
</g>
<!-- Node20 -->
<g id="node20" class="node">
<title>Node20</title>
<g id="a_node20"><a xlink:href="../../dc/dbe/WebServiceNotifier_8hpp.html" target="_top" xlink:title=" ">
<polygon fill="white" stroke="black" points="1723.5,-67.5 1723.5,-97.5 1856.5,-97.5 1856.5,-67.5 1723.5,-67.5"/>
<text text-anchor="start" x="1731.5" y="-85.5" font-family="Helvetica,sans-Serif" font-size="10.00">src/modules/ws&#45;notifier</text>
<text text-anchor="middle" x="1790" y="-74.5" font-family="Helvetica,sans-Serif" font-size="10.00">/WebServiceNotifier.hpp</text>
</a>
</g>
</g>
<!-- Node14&#45;&gt;Node20 -->
<g id="edge27" class="edge">
<title>Node14&#45;&gt;Node20</title>
<path fill="none" stroke="midnightblue" d="M1005.55,-133.95C1318.9,-92.39 1403.67,-135.29 1714,-98 1717.07,-97.63 1720.2,-97.21 1723.35,-96.75"/>
<polygon fill="midnightblue" stroke="midnightblue" points="1004.71,-130.54 995.27,-135.34 1005.64,-137.47 1004.71,-130.54"/>
</g>
<!-- Node22 -->
<g id="node22" class="node">
<title>Node22</title>
<g id="a_node22"><a xlink:href="../../dc/d29/WebServiceNotifier_8cpp.html" target="_top" xlink:title=" ">
<polygon fill="white" stroke="black" points="1819,-0.5 1819,-30.5 1951,-30.5 1951,-0.5 1819,-0.5"/>
<text text-anchor="start" x="1827" y="-18.5" font-family="Helvetica,sans-Serif" font-size="10.00">src/modules/ws&#45;notifier</text>
<text text-anchor="middle" x="1885" y="-7.5" font-family="Helvetica,sans-Serif" font-size="10.00">/WebServiceNotifier.cpp</text>
</a>
</g>
</g>
<!-- Node14&#45;&gt;Node22 -->
<g id="edge30" class="edge">
<title>Node14&#45;&gt;Node22</title>
<path fill="none" stroke="midnightblue" d="M1005.38,-134.44C1112.46,-127.76 1829.44,-127.11 1865,-98 1884.84,-81.76 1886.85,-49.33 1886.17,-30.64"/>
<polygon fill="midnightblue" stroke="midnightblue" points="1004.92,-130.96 995.26,-135.31 1005.52,-137.94 1004.92,-130.96"/>
</g>
<!-- Node23 -->
<g id="node23" class="node">
<title>Node23</title>
<g id="a_node23"><a xlink:href="../../d9/d6d/test_2RFIDCard_8cpp.html" target="_top" xlink:title=" ">
<polygon fill="white" stroke="black" points="1913,-73 1913,-92 2017,-92 2017,-73 1913,-73"/>
<text text-anchor="middle" x="1965" y="-80" font-family="Helvetica,sans-Serif" font-size="10.00">test/RFIDCard.cpp</text>
</a>
</g>
</g>
<!-- Node14&#45;&gt;Node23 -->
<g id="edge34" class="edge">
<title>Node14&#45;&gt;Node23</title>
<path fill="none" stroke="midnightblue" d="M1005.25,-134.01C1400.52,-83.55 1507.45,-148.49 1899,-98 1909.7,-96.62 1921.24,-94.36 1931.62,-92.03"/>
<polygon fill="midnightblue" stroke="midnightblue" points="1004.73,-130.55 995.26,-135.3 1005.63,-137.49 1004.73,-130.55"/>
</g>
<!-- Node21 -->
<g id="node21" class="node">
<title>Node21</title>
<g id="a_node21"><a xlink:href="../../d3/d34/ws-notifier_2init_8cpp.html" target="_top" xlink:title=" ">
<polygon fill="white" stroke="black" points="1669.5,-0.5 1669.5,-30.5 1800.5,-30.5 1800.5,-0.5 1669.5,-0.5"/>
<text text-anchor="start" x="1677.5" y="-18.5" font-family="Helvetica,sans-Serif" font-size="10.00">src/modules/ws&#45;notifier</text>
<text text-anchor="middle" x="1735" y="-7.5" font-family="Helvetica,sans-Serif" font-size="10.00">/init.cpp</text>
</a>
</g>
</g>
<!-- Node20&#45;&gt;Node21 -->
<g id="edge28" class="edge">
<title>Node20&#45;&gt;Node21</title>
<path fill="none" stroke="midnightblue" d="M1771.58,-59.74C1763.45,-50.12 1754.11,-39.09 1746.91,-30.58"/>
<polygon fill="midnightblue" stroke="midnightblue" points="1768.93,-62.02 1778.07,-67.4 1774.28,-57.5 1768.93,-62.02"/>
</g>
<!-- Node20&#45;&gt;Node22 -->
<g id="edge29" class="edge">
<title>Node20&#45;&gt;Node22</title>
<path fill="none" stroke="midnightblue" d="M1818.89,-61.73C1833.59,-51.68 1851.11,-39.68 1864.43,-30.58"/>
<polygon fill="midnightblue" stroke="midnightblue" points="1816.89,-58.86 1810.61,-67.4 1820.84,-64.64 1816.89,-58.86"/>
</g>
</g>
</svg>
