<?xml version="1.0" encoding="UTF-8" standalone="no"?>
<!DOCTYPE svg PUBLIC "-//W3C//DTD SVG 1.1//EN"
 "http://www.w3.org/Graphics/SVG/1.1/DTD/svg11.dtd">
<!-- Generated by graphviz version 2.43.0 (0)
 -->
<!-- Title: Leosac::Module::WebSockAPI::ModuleRequestContext Pages: 1 -->
<svg width="1316pt" height="104pt"
 viewBox="0.00 0.00 1316.00 104.00" xmlns="http://www.w3.org/2000/svg" xmlns:xlink="http://www.w3.org/1999/xlink">
<g id="graph0" class="graph" transform="scale(1 1) rotate(0) translate(4 100)">
<title>Leosac::Module::WebSockAPI::ModuleRequestContext</title>
<polygon fill="white" stroke="transparent" points="-4,4 -4,-100 1312,-100 1312,4 -4,4"/>
<!-- Node1 -->
<g id="node1" class="node">
<title>Node1</title>
<g id="a_node1"><a xlink:title="A request context dedicated for websocket request that are handled by other modules.">
<polygon fill="#bfbfbf" stroke="black" points="1150,-33 1150,-63 1308,-63 1308,-33 1150,-33"/>
<text text-anchor="start" x="1158" y="-51" font-family="Helvetica,sans-Serif" font-size="10.00">Leosac::Module::WebSockAPI</text>
<text text-anchor="middle" x="1229" y="-40" font-family="Helvetica,sans-Serif" font-size="10.00">::ModuleRequestContext</text>
</a>
</g>
</g>
<!-- Node2 -->
<g id="node2" class="node">
<title>Node2</title>
<g id="a_node2"><a xlink:title=" ">
<polygon fill="white" stroke="#bfbfbf" points="885,-76.5 885,-95.5 1051,-95.5 1051,-76.5 885,-76.5"/>
<text text-anchor="middle" x="968" y="-83.5" font-family="Helvetica,sans-Serif" font-size="10.00">std::shared_ptr&lt; IAuditEntry &gt;</text>
</a>
</g>
</g>
<!-- Node2&#45;&gt;Node1 -->
<g id="edge1" class="edge">
<title>Node2&#45;&gt;Node1</title>
<path fill="none" stroke="#9a32cd" stroke-dasharray="5,2" d="M1044.09,-74.98C1077.19,-70.13 1116.08,-64.42 1149.55,-59.51"/>
<polygon fill="#9a32cd" stroke="#9a32cd" points="1043.41,-71.55 1034.02,-76.46 1044.42,-78.47 1043.41,-71.55"/>
<text text-anchor="middle" x="1100.5" y="-73" font-family="Helvetica,sans-Serif" font-size="10.00"> audit</text>
</g>
<!-- Node3 -->
<g id="node3" class="node">
<title>Node3</title>
<g id="a_node3"><a xlink:title=" ">
<polygon fill="white" stroke="#bfbfbf" points="450,-19.5 450,-38.5 612,-38.5 612,-19.5 450,-19.5"/>
<text text-anchor="middle" x="531" y="-26.5" font-family="Helvetica,sans-Serif" font-size="10.00">std::shared_ptr&lt; DBService &gt;</text>
</a>
</g>
</g>
<!-- Node3&#45;&gt;Node1 -->
<g id="edge2" class="edge">
<title>Node3&#45;&gt;Node1</title>
<path fill="none" stroke="#9a32cd" stroke-dasharray="5,2" d="M622.31,-33.7C624.9,-33.81 627.47,-33.91 630,-34 816.28,-40.93 1035.33,-45.03 1149.62,-46.85"/>
<polygon fill="#9a32cd" stroke="#9a32cd" points="622.35,-30.2 612.21,-33.27 622.06,-37.19 622.35,-30.2"/>
<text text-anchor="middle" x="851.5" y="-44" font-family="Helvetica,sans-Serif" font-size="10.00"> dbsrv</text>
</g>
<!-- Node8 -->
<g id="node8" class="node">
<title>Node8</title>
<g id="a_node8"><a xlink:href="../../db/d24/classLeosac_1_1SecurityContext.html" target="_top" xlink:title="A SecurityContext is used to query permission while doing an operation.">
<polygon fill="white" stroke="black" points="684,-0.5 684,-19.5 818,-19.5 818,-0.5 684,-0.5"/>
<text text-anchor="middle" x="751" y="-7.5" font-family="Helvetica,sans-Serif" font-size="10.00">Leosac::SecurityContext</text>
</a>
</g>
</g>
<!-- Node3&#45;&gt;Node8 -->
<g id="edge8" class="edge">
<title>Node3&#45;&gt;Node8</title>
<path fill="none" stroke="#9a32cd" stroke-dasharray="5,2" d="M622.28,-21.13C642.91,-19.33 664.45,-17.46 683.85,-15.77"/>
<polygon fill="#9a32cd" stroke="#9a32cd" points="621.9,-17.65 612.25,-22.01 622.51,-24.62 621.9,-17.65"/>
<text text-anchor="middle" x="648" y="-24" font-family="Helvetica,sans-Serif" font-size="10.00"> dbsrv_</text>
</g>
<!-- Node4 -->
<g id="node4" class="node">
<title>Node4</title>
<g id="a_node4"><a xlink:href="../../d7/def/classLeosac_1_1DBService.html" target="_top" xlink:title="Provides various database&#45;related services to consumer.">
<polygon fill="white" stroke="black" points="290,-19.5 290,-38.5 397,-38.5 397,-19.5 290,-19.5"/>
<text text-anchor="middle" x="343.5" y="-26.5" font-family="Helvetica,sans-Serif" font-size="10.00">Leosac::DBService</text>
</a>
</g>
</g>
<!-- Node4&#45;&gt;Node3 -->
<g id="edge3" class="edge">
<title>Node4&#45;&gt;Node3</title>
<path fill="none" stroke="#9a32cd" stroke-dasharray="5,2" d="M407.38,-29C421.02,-29 435.63,-29 449.83,-29"/>
<polygon fill="#9a32cd" stroke="#9a32cd" points="407.16,-25.5 397.16,-29 407.16,-32.5 407.16,-25.5"/>
<text text-anchor="middle" x="423.5" y="-32" font-family="Helvetica,sans-Serif" font-size="10.00"> ptr</text>
</g>
<!-- Node5 -->
<g id="node5" class="node">
<title>Node5</title>
<g id="a_node5"><a xlink:title="STL class.">
<polygon fill="white" stroke="#bfbfbf" points="82,-19.5 82,-38.5 200,-38.5 200,-19.5 82,-19.5"/>
<text text-anchor="middle" x="141" y="-26.5" font-family="Helvetica,sans-Serif" font-size="10.00">std::shared_ptr&lt; T &gt;</text>
</a>
</g>
</g>
<!-- Node5&#45;&gt;Node4 -->
<g id="edge4" class="edge">
<title>Node5&#45;&gt;Node4</title>
<path fill="none" stroke="#9a32cd" stroke-dasharray="5,2" d="M210.43,-29C236.42,-29 265.6,-29 289.91,-29"/>
<polygon fill="#9a32cd" stroke="#9a32cd" points="210.26,-25.5 200.26,-29 210.26,-32.5 210.26,-25.5"/>
<text text-anchor="middle" x="245" y="-32" font-family="Helvetica,sans-Serif" font-size="10.00"> database_</text>
</g>
<!-- Node6 -->
<g id="node6" class="node">
<title>Node6</title>
<g id="a_node6"><a xlink:title=" ">
<polygon fill="white" stroke="#bfbfbf" points="0,-19.5 0,-38.5 29,-38.5 29,-19.5 0,-19.5"/>
<text text-anchor="middle" x="14.5" y="-26.5" font-family="Helvetica,sans-Serif" font-size="10.00">T</text>
</a>
</g>
</g>
<!-- Node6&#45;&gt;Node5 -->
<g id="edge5" class="edge">
<title>Node6&#45;&gt;Node5</title>
<path fill="none" stroke="#9a32cd" stroke-dasharray="5,2" d="M39.42,-29C51.53,-29 66.79,-29 81.75,-29"/>
<polygon fill="#9a32cd" stroke="#9a32cd" points="39.3,-25.5 29.3,-29 39.3,-32.5 39.3,-25.5"/>
<text text-anchor="middle" x="55.5" y="-32" font-family="Helvetica,sans-Serif" font-size="10.00"> ptr</text>
</g>
<!-- Node7 -->
<g id="node7" class="node">
<title>Node7</title>
<g id="a_node7"><a xlink:href="../../da/d85/classLeosac_1_1UserSecurityContext.html" target="_top" xlink:title="A SecurityContext object for users.">
<polygon fill="white" stroke="black" points="889.5,-0.5 889.5,-19.5 1046.5,-19.5 1046.5,-0.5 889.5,-0.5"/>
<text text-anchor="middle" x="968" y="-7.5" font-family="Helvetica,sans-Serif" font-size="10.00">Leosac::UserSecurityContext</text>
</a>
</g>
</g>
<!-- Node7&#45;&gt;Node1 -->
<g id="edge6" class="edge">
<title>Node7&#45;&gt;Node1</title>
<path fill="none" stroke="#9a32cd" stroke-dasharray="5,2" d="M1056.84,-14.17C1081.28,-16.1 1107.77,-18.91 1132,-23 1146.77,-25.49 1162.59,-29.18 1177.04,-32.96"/>
<polygon fill="#9a32cd" stroke="#9a32cd" points="1057.1,-10.68 1046.87,-13.42 1056.58,-17.66 1057.1,-10.68"/>
<text text-anchor="middle" x="1100.5" y="-26" font-family="Helvetica,sans-Serif" font-size="10.00"> security_ctx</text>
</g>
<!-- Node8&#45;&gt;Node7 -->
<g id="edge7" class="edge">
<title>Node8&#45;&gt;Node7</title>
<path fill="none" stroke="midnightblue" d="M828.43,-10C848.18,-10 869.46,-10 889.27,-10"/>
<polygon fill="midnightblue" stroke="midnightblue" points="828.26,-6.5 818.26,-10 828.26,-13.5 828.26,-6.5"/>
</g>
</g>
</svg>
