<?xml version="1.0" encoding="UTF-8" standalone="no"?>
<!DOCTYPE svg PUBLIC "-//W3C//DTD SVG 1.1//EN"
 "http://www.w3.org/Graphics/SVG/1.1/DTD/svg11.dtd">
<!-- Generated by graphviz version 2.43.0 (0)
 -->
<!-- Title: Leosac::Registry&lt; KeyType &gt; Pages: 1 -->
<svg width="270pt" height="241pt"
 viewBox="0.00 0.00 270.00 241.00" xmlns="http://www.w3.org/2000/svg" xmlns:xlink="http://www.w3.org/1999/xlink">
<g id="graph0" class="graph" transform="scale(1 1) rotate(0) translate(4 237)">
<title>Leosac::Registry&lt; KeyType &gt;</title>
<polygon fill="white" stroke="transparent" points="-4,4 -4,-237 266,-237 266,4 -4,4"/>
<!-- Node1 -->
<g id="node1" class="node">
<title>Node1</title>
<g id="a_node1"><a xlink:title="A simple container that can holds object of any type.">
<polygon fill="#bfbfbf" stroke="black" points="50,-0.5 50,-19.5 210,-19.5 210,-0.5 50,-0.5"/>
<text text-anchor="middle" x="130" y="-7.5" font-family="Helvetica,sans-Serif" font-size="10.00">Leosac::Registry&lt; KeyType &gt;</text>
</a>
</g>
</g>
<!-- Node2 -->
<g id="node2" class="node">
<title>Node2</title>
<g id="a_node2"><a xlink:title=" ">
<polygon fill="white" stroke="#bfbfbf" points="0,-67.5 0,-97.5 122,-97.5 122,-67.5 0,-67.5"/>
<text text-anchor="start" x="8" y="-85.5" font-family="Helvetica,sans-Serif" font-size="10.00">std::map&lt; std::string,</text>
<text text-anchor="middle" x="61" y="-74.5" font-family="Helvetica,sans-Serif" font-size="10.00"> Clock::time_point &gt;</text>
</a>
</g>
</g>
<!-- Node2&#45;&gt;Node1 -->
<g id="edge1" class="edge">
<title>Node2&#45;&gt;Node1</title>
<path fill="none" stroke="#9a32cd" stroke-dasharray="5,2" d="M82.28,-59.76C95.41,-46.34 111.55,-29.85 121.3,-19.89"/>
<polygon fill="#9a32cd" stroke="#9a32cd" points="79.46,-57.64 74.96,-67.23 84.46,-62.53 79.46,-57.64"/>
<text text-anchor="middle" x="122" y="-41" font-family="Helvetica,sans-Serif" font-size="10.00"> expiry_</text>
</g>
<!-- Node3 -->
<g id="node3" class="node">
<title>Node3</title>
<g id="a_node3"><a xlink:title="STL class.">
<polygon fill="white" stroke="#bfbfbf" points="97.5,-145.5 97.5,-164.5 162.5,-164.5 162.5,-145.5 97.5,-145.5"/>
<text text-anchor="middle" x="130" y="-152.5" font-family="Helvetica,sans-Serif" font-size="10.00">std::string</text>
</a>
</g>
</g>
<!-- Node3&#45;&gt;Node2 -->
<g id="edge2" class="edge">
<title>Node3&#45;&gt;Node2</title>
<path fill="none" stroke="#9a32cd" stroke-dasharray="5,2" d="M114.43,-138.09C102.51,-125.91 86.23,-109.27 74.78,-97.58"/>
<polygon fill="#9a32cd" stroke="#9a32cd" points="112.04,-140.66 121.54,-145.36 117.05,-135.76 112.04,-140.66"/>
<text text-anchor="middle" x="115" y="-119" font-family="Helvetica,sans-Serif" font-size="10.00"> keys</text>
</g>
<!-- Node5 -->
<g id="node5" class="node">
<title>Node5</title>
<g id="a_node5"><a xlink:title=" ">
<polygon fill="white" stroke="#bfbfbf" points="140,-67.5 140,-97.5 262,-97.5 262,-67.5 140,-67.5"/>
<text text-anchor="start" x="148" y="-85.5" font-family="Helvetica,sans-Serif" font-size="10.00">std::map&lt; std::string,</text>
<text text-anchor="middle" x="201" y="-74.5" font-family="Helvetica,sans-Serif" font-size="10.00"> boost::any &gt;</text>
</a>
</g>
</g>
<!-- Node3&#45;&gt;Node5 -->
<g id="edge5" class="edge">
<title>Node3&#45;&gt;Node5</title>
<path fill="none" stroke="#9a32cd" stroke-dasharray="5,2" d="M146.02,-138.09C158.28,-125.91 175.04,-109.27 186.82,-97.58"/>
<polygon fill="#9a32cd" stroke="#9a32cd" points="143.34,-135.83 138.71,-145.36 148.27,-140.79 143.34,-135.83"/>
<text text-anchor="middle" x="180" y="-119" font-family="Helvetica,sans-Serif" font-size="10.00"> keys</text>
</g>
<!-- Node4 -->
<g id="node4" class="node">
<title>Node4</title>
<g id="a_node4"><a xlink:title="STL class.">
<polygon fill="white" stroke="#bfbfbf" points="78,-202.5 78,-232.5 182,-232.5 182,-202.5 78,-202.5"/>
<text text-anchor="start" x="86" y="-220.5" font-family="Helvetica,sans-Serif" font-size="10.00">std::basic_string&lt;</text>
<text text-anchor="middle" x="130" y="-209.5" font-family="Helvetica,sans-Serif" font-size="10.00"> char &gt;</text>
</a>
</g>
</g>
<!-- Node4&#45;&gt;Node3 -->
<g id="edge3" class="edge">
<title>Node4&#45;&gt;Node3</title>
<path fill="none" stroke="midnightblue" d="M130,-192.35C130,-182.51 130,-171.78 130,-164.54"/>
<polygon fill="midnightblue" stroke="midnightblue" points="126.5,-192.47 130,-202.47 133.5,-192.47 126.5,-192.47"/>
</g>
<!-- Node5&#45;&gt;Node1 -->
<g id="edge4" class="edge">
<title>Node5&#45;&gt;Node1</title>
<path fill="none" stroke="#9a32cd" stroke-dasharray="5,2" d="M179.49,-60.14C165.91,-46.65 149.08,-29.94 138.96,-19.89"/>
<polygon fill="#9a32cd" stroke="#9a32cd" points="177.07,-62.67 186.63,-67.23 182,-57.7 177.07,-62.67"/>
<text text-anchor="middle" x="184" y="-41" font-family="Helvetica,sans-Serif" font-size="10.00"> store_</text>
</g>
</g>
</svg>
