<?xml version="1.0" encoding="UTF-8" standalone="no"?>
<!DOCTYPE svg PUBLIC "-//W3C//DTD SVG 1.1//EN"
 "http://www.w3.org/Graphics/SVG/1.1/DTD/svg11.dtd">
<!-- Generated by graphviz version 2.43.0 (0)
 -->
<!-- Title: Leosac::Module::Doorman::DoormanDoor Pages: 1 -->
<svg width="275pt" height="185pt"
 viewBox="0.00 0.00 275.00 185.00" xmlns="http://www.w3.org/2000/svg" xmlns:xlink="http://www.w3.org/1999/xlink">
<g id="graph0" class="graph" transform="scale(1 1) rotate(0) translate(4 181)">
<title>Leosac::Module::Doorman::DoormanDoor</title>
<polygon fill="white" stroke="transparent" points="-4,4 -4,-181 271,-181 271,4 -4,4"/>
<!-- Node1 -->
<g id="node1" class="node">
<title>Node1</title>
<g id="a_node1"><a xlink:title="Implements a Doorman Door, that is, a component that will listen to door specific event unrelated to ...">
<polygon fill="#bfbfbf" stroke="black" points="47.5,-0.5 47.5,-30.5 190.5,-30.5 190.5,-0.5 47.5,-0.5"/>
<text text-anchor="start" x="55.5" y="-18.5" font-family="Helvetica,sans-Serif" font-size="10.00">Leosac::Module::Doorman</text>
<text text-anchor="middle" x="119" y="-7.5" font-family="Helvetica,sans-Serif" font-size="10.00">::DoormanDoor</text>
</a>
</g>
</g>
<!-- Node2 -->
<g id="node2" class="node">
<title>Node2</title>
<g id="a_node2"><a xlink:title="STL class.">
<polygon fill="white" stroke="#bfbfbf" points="19.5,-89.5 19.5,-108.5 84.5,-108.5 84.5,-89.5 19.5,-89.5"/>
<text text-anchor="middle" x="52" y="-96.5" font-family="Helvetica,sans-Serif" font-size="10.00">std::string</text>
</a>
</g>
</g>
<!-- Node2&#45;&gt;Node1 -->
<g id="edge1" class="edge">
<title>Node2&#45;&gt;Node1</title>
<path fill="none" stroke="#9a32cd" stroke-dasharray="5,2" d="M56.36,-79.29C59.31,-69.53 63.98,-57.81 71,-49 76.77,-41.76 84.59,-35.52 92.25,-30.51"/>
<polygon fill="#9a32cd" stroke="#9a32cd" points="52.9,-78.67 53.72,-89.23 59.67,-80.47 52.9,-78.67"/>
<text text-anchor="middle" x="107.5" y="-63" font-family="Helvetica,sans-Serif" font-size="10.00"> topic_exitreq_</text>
<text text-anchor="middle" x="107.5" y="-52" font-family="Helvetica,sans-Serif" font-size="10.00">topic_contact_</text>
</g>
<!-- Node3 -->
<g id="node3" class="node">
<title>Node3</title>
<g id="a_node3"><a xlink:title="STL class.">
<polygon fill="white" stroke="#bfbfbf" points="0,-146.5 0,-176.5 104,-176.5 104,-146.5 0,-146.5"/>
<text text-anchor="start" x="8" y="-164.5" font-family="Helvetica,sans-Serif" font-size="10.00">std::basic_string&lt;</text>
<text text-anchor="middle" x="52" y="-153.5" font-family="Helvetica,sans-Serif" font-size="10.00"> char &gt;</text>
</a>
</g>
</g>
<!-- Node3&#45;&gt;Node2 -->
<g id="edge2" class="edge">
<title>Node3&#45;&gt;Node2</title>
<path fill="none" stroke="midnightblue" d="M52,-136.35C52,-126.51 52,-115.78 52,-108.54"/>
<polygon fill="midnightblue" stroke="midnightblue" points="48.5,-136.47 52,-146.47 55.5,-136.47 48.5,-136.47"/>
</g>
<!-- Node4 -->
<g id="node4" class="node">
<title>Node4</title>
<g id="a_node4"><a xlink:title=" ">
<polygon fill="white" stroke="#bfbfbf" points="103,-89.5 103,-108.5 267,-108.5 267,-89.5 103,-89.5"/>
<text text-anchor="middle" x="185" y="-96.5" font-family="Helvetica,sans-Serif" font-size="10.00">std::shared_ptr&lt; AuthTarget &gt;</text>
</a>
</g>
</g>
<!-- Node4&#45;&gt;Node1 -->
<g id="edge3" class="edge">
<title>Node4&#45;&gt;Node1</title>
<path fill="none" stroke="#9a32cd" stroke-dasharray="5,2" d="M172.63,-80.91C165.59,-71.37 156.51,-59.36 148,-49 142.91,-42.81 137.07,-36.17 131.96,-30.52"/>
<polygon fill="#9a32cd" stroke="#9a32cd" points="169.93,-83.15 178.66,-89.16 175.58,-79.02 169.93,-83.15"/>
<text text-anchor="middle" x="179.5" y="-57.5" font-family="Helvetica,sans-Serif" font-size="10.00"> door_</text>
</g>
</g>
</svg>
