<?xml version="1.0" encoding="UTF-8" standalone="no"?>
<!DOCTYPE svg PUBLIC "-//W3C//DTD SVG 1.1//EN"
 "http://www.w3.org/Graphics/SVG/1.1/DTD/svg11.dtd">
<!-- Generated by graphviz version 2.43.0 (0)
 -->
<!-- Title: src/core/auth/ProfileMerger.hpp Pages: 1 -->
<svg width="360pt" height="95pt"
 viewBox="0.00 0.00 360.00 95.00" xmlns="http://www.w3.org/2000/svg" xmlns:xlink="http://www.w3.org/1999/xlink">
<g id="graph0" class="graph" transform="scale(1 1) rotate(0) translate(4 91)">
<title>src/core/auth/ProfileMerger.hpp</title>
<polygon fill="white" stroke="transparent" points="-4,4 -4,-91 356,-91 356,4 -4,4"/>
<!-- Node1 -->
<g id="node1" class="node">
<title>Node1</title>
<g id="a_node1"><a xlink:title=" ">
<polygon fill="#bfbfbf" stroke="black" points="91.5,-67.5 91.5,-86.5 259.5,-86.5 259.5,-67.5 91.5,-67.5"/>
<text text-anchor="middle" x="175.5" y="-74.5" font-family="Helvetica,sans-Serif" font-size="10.00">src/core/auth/ProfileMerger.hpp</text>
</a>
</g>
</g>
<!-- Node2 -->
<g id="node2" class="node">
<title>Node2</title>
<g id="a_node2"><a xlink:href="../../d9/d35/ProfileMerger_8cpp.html" target="_top" xlink:title=" ">
<polygon fill="white" stroke="black" points="0,-6 0,-25 167,-25 167,-6 0,-6"/>
<text text-anchor="middle" x="83.5" y="-13" font-family="Helvetica,sans-Serif" font-size="10.00">src/core/auth/ProfileMerger.cpp</text>
</a>
</g>
</g>
<!-- Node1&#45;&gt;Node2 -->
<g id="edge1" class="edge">
<title>Node1&#45;&gt;Node2</title>
<path fill="none" stroke="midnightblue" d="M153.74,-61.93C136.01,-50.46 111.54,-34.63 96.66,-25.01"/>
<polygon fill="midnightblue" stroke="midnightblue" points="152.02,-64.98 162.32,-67.48 155.82,-59.11 152.02,-64.98"/>
</g>
<!-- Node3 -->
<g id="node3" class="node">
<title>Node3</title>
<g id="a_node3"><a xlink:href="../../d3/dc5/FileAuthSourceMapper_8cpp.html" target="_top" xlink:title=" ">
<polygon fill="white" stroke="black" points="185,-0.5 185,-30.5 352,-30.5 352,-0.5 185,-0.5"/>
<text text-anchor="start" x="193" y="-18.5" font-family="Helvetica,sans-Serif" font-size="10.00">src/modules/auth/auth</text>
<text text-anchor="middle" x="268.5" y="-7.5" font-family="Helvetica,sans-Serif" font-size="10.00">&#45;file/FileAuthSourceMapper.cpp</text>
</a>
</g>
</g>
<!-- Node1&#45;&gt;Node3 -->
<g id="edge2" class="edge">
<title>Node1&#45;&gt;Node3</title>
<path fill="none" stroke="midnightblue" d="M197.37,-62.01C212.2,-52.52 231.74,-40.02 246.58,-30.52"/>
<polygon fill="midnightblue" stroke="midnightblue" points="195.36,-59.14 188.82,-67.48 199.13,-65.03 195.36,-59.14"/>
</g>
</g>
</svg>
