<?xml version="1.0" encoding="UTF-8" standalone="no"?>
<!DOCTYPE svg PUBLIC "-//W3C//DTD SVG 1.1//EN"
 "http://www.w3.org/Graphics/SVG/1.1/DTD/svg11.dtd">
<!-- Generated by graphviz version 2.43.0 (0)
 -->
<!-- Title: src/core/audit/serializers/WSAPICallSerializer.cpp Pages: 1 -->
<svg width="1310pt" height="330pt"
 viewBox="0.00 0.00 1309.50 330.00" xmlns="http://www.w3.org/2000/svg" xmlns:xlink="http://www.w3.org/1999/xlink">
<g id="graph0" class="graph" transform="scale(1 1) rotate(0) translate(4 326)">
<title>src/core/audit/serializers/WSAPICallSerializer.cpp</title>
<polygon fill="white" stroke="transparent" points="-4,4 -4,-326 1305.5,-326 1305.5,4 -4,4"/>
<!-- Node1 -->
<g id="node1" class="node">
<title>Node1</title>
<g id="a_node1"><a xlink:title=" ">
<polygon fill="#bfbfbf" stroke="black" points="323,-291.5 323,-321.5 459,-321.5 459,-291.5 323,-291.5"/>
<text text-anchor="start" x="331" y="-309.5" font-family="Helvetica,sans-Serif" font-size="10.00">src/core/audit/serializers</text>
<text text-anchor="middle" x="391" y="-298.5" font-family="Helvetica,sans-Serif" font-size="10.00">/WSAPICallSerializer.cpp</text>
</a>
</g>
</g>
<!-- Node2 -->
<g id="node2" class="node">
<title>Node2</title>
<g id="a_node2"><a xlink:href="../../db/d34/WSAPICallSerializer_8hpp.html" target="_top" xlink:title=" ">
<polygon fill="white" stroke="black" points="107,-179.5 107,-198.5 241,-198.5 241,-179.5 107,-179.5"/>
<text text-anchor="middle" x="174" y="-186.5" font-family="Helvetica,sans-Serif" font-size="10.00">WSAPICallSerializer.hpp</text>
</a>
</g>
</g>
<!-- Node1&#45;&gt;Node2 -->
<g id="edge1" class="edge">
<title>Node1&#45;&gt;Node2</title>
<path fill="none" stroke="midnightblue" d="M364.39,-291.34C322.08,-268.82 240.04,-225.15 198.85,-203.23"/>
<polygon fill="midnightblue" stroke="midnightblue" points="200.48,-200.13 190.01,-198.52 197.19,-206.31 200.48,-200.13"/>
</g>
<!-- Node12 -->
<g id="node12" class="node">
<title>Node12</title>
<g id="a_node12"><a xlink:href="../../df/da3/AuditSerializer_8hpp.html" target="_top" xlink:title=" ">
<polygon fill="white" stroke="black" points="259,-179.5 259,-198.5 367,-198.5 367,-179.5 259,-179.5"/>
<text text-anchor="middle" x="313" y="-186.5" font-family="Helvetica,sans-Serif" font-size="10.00">AuditSerializer.hpp</text>
</a>
</g>
</g>
<!-- Node1&#45;&gt;Node12 -->
<g id="edge12" class="edge">
<title>Node1&#45;&gt;Node12</title>
<path fill="none" stroke="midnightblue" d="M381.44,-291.34C367.06,-270.05 339.94,-229.89 324.5,-207.03"/>
<polygon fill="midnightblue" stroke="midnightblue" points="327.35,-205 318.85,-198.67 321.55,-208.92 327.35,-205"/>
</g>
<!-- Node13 -->
<g id="node13" class="node">
<title>Node13</title>
<g id="a_node13"><a xlink:href="../../dd/dd8/IWSAPICall_8hpp.html" target="_top" xlink:title=" ">
<polygon fill="white" stroke="black" points="430.5,-235.5 430.5,-254.5 573.5,-254.5 573.5,-235.5 430.5,-235.5"/>
<text text-anchor="middle" x="502" y="-242.5" font-family="Helvetica,sans-Serif" font-size="10.00">core/audit/IWSAPICall.hpp</text>
</a>
</g>
</g>
<!-- Node1&#45;&gt;Node13 -->
<g id="edge17" class="edge">
<title>Node1&#45;&gt;Node13</title>
<path fill="none" stroke="midnightblue" d="M417.31,-291.4C435.26,-281.77 458.92,-269.09 476.67,-259.58"/>
<polygon fill="midnightblue" stroke="midnightblue" points="478.69,-262.47 485.85,-254.66 475.38,-256.3 478.69,-262.47"/>
</g>
<!-- Node23 -->
<g id="node23" class="node">
<title>Node23</title>
<g id="a_node23"><a xlink:href="../../d4/d3d/log_8hpp.html" target="_top" xlink:title=" ">
<polygon fill="white" stroke="black" points="1033,-179.5 1033,-198.5 1113,-198.5 1113,-179.5 1033,-179.5"/>
<text text-anchor="middle" x="1073" y="-186.5" font-family="Helvetica,sans-Serif" font-size="10.00">tools/log.hpp</text>
</a>
</g>
</g>
<!-- Node1&#45;&gt;Node23 -->
<g id="edge33" class="edge">
<title>Node1&#45;&gt;Node23</title>
<path fill="none" stroke="midnightblue" d="M459.2,-293.95C596.22,-270.74 902.11,-218.94 1022.72,-198.51"/>
<polygon fill="midnightblue" stroke="midnightblue" points="1023.51,-201.93 1032.79,-196.81 1022.34,-195.03 1023.51,-201.93"/>
</g>
<!-- Node3 -->
<g id="node3" class="node">
<title>Node3</title>
<g id="a_node3"><a xlink:href="../../dc/d49/LeosacFwd_8hpp.html" target="_top" xlink:title=" ">
<polygon fill="white" stroke="black" points="128,-118 128,-137 220,-137 220,-118 128,-118"/>
<text text-anchor="middle" x="174" y="-125" font-family="Helvetica,sans-Serif" font-size="10.00">LeosacFwd.hpp</text>
</a>
</g>
</g>
<!-- Node2&#45;&gt;Node3 -->
<g id="edge2" class="edge">
<title>Node2&#45;&gt;Node3</title>
<path fill="none" stroke="midnightblue" d="M174,-179.48C174,-171.08 174,-157.98 174,-147.16"/>
<polygon fill="midnightblue" stroke="midnightblue" points="177.5,-147.01 174,-137.01 170.5,-147.01 177.5,-147.01"/>
</g>
<!-- Node6 -->
<g id="node6" class="node">
<title>Node6</title>
<g id="a_node6"><a xlink:href="../../d7/dcf/AuditFwd_8hpp.html" target="_top" xlink:title=" ">
<polygon fill="white" stroke="black" points="376.5,-118 376.5,-137 511.5,-137 511.5,-118 376.5,-118"/>
<text text-anchor="middle" x="444" y="-125" font-family="Helvetica,sans-Serif" font-size="10.00">core/audit/AuditFwd.hpp</text>
</a>
</g>
</g>
<!-- Node2&#45;&gt;Node6 -->
<g id="edge5" class="edge">
<title>Node2&#45;&gt;Node6</title>
<path fill="none" stroke="midnightblue" d="M212.68,-179.48C260.8,-168.87 342.99,-150.76 395.33,-139.22"/>
<polygon fill="midnightblue" stroke="midnightblue" points="396.37,-142.58 405.39,-137.01 394.87,-135.74 396.37,-142.58"/>
</g>
<!-- Node10 -->
<g id="node10" class="node">
<title>Node10</title>
<g id="a_node10"><a xlink:title=" ">
<polygon fill="white" stroke="#bfbfbf" points="0,-118 0,-137 110,-137 110,-118 0,-118"/>
<text text-anchor="middle" x="55" y="-125" font-family="Helvetica,sans-Serif" font-size="10.00">nlohmann/json.hpp</text>
</a>
</g>
</g>
<!-- Node2&#45;&gt;Node10 -->
<g id="edge10" class="edge">
<title>Node2&#45;&gt;Node10</title>
<path fill="none" stroke="midnightblue" d="M156.95,-179.48C137.16,-169.58 104.28,-153.14 81.23,-141.62"/>
<polygon fill="midnightblue" stroke="midnightblue" points="82.53,-138.35 72.02,-137.01 79.4,-144.61 82.53,-138.35"/>
</g>
<!-- Node11 -->
<g id="node11" class="node">
<title>Node11</title>
<g id="a_node11"><a xlink:title=" ">
<polygon fill="white" stroke="#bfbfbf" points="238,-118 238,-137 282,-137 282,-118 238,-118"/>
<text text-anchor="middle" x="260" y="-125" font-family="Helvetica,sans-Serif" font-size="10.00">string</text>
</a>
</g>
</g>
<!-- Node2&#45;&gt;Node11 -->
<g id="edge11" class="edge">
<title>Node2&#45;&gt;Node11</title>
<path fill="none" stroke="midnightblue" d="M186.32,-179.48C200.12,-169.93 222.7,-154.31 239.23,-142.87"/>
<polygon fill="midnightblue" stroke="midnightblue" points="241.47,-145.58 247.7,-137.01 237.49,-139.82 241.47,-145.58"/>
</g>
<!-- Node4 -->
<g id="node4" class="node">
<title>Node4</title>
<g id="a_node4"><a xlink:title=" ">
<polygon fill="white" stroke="#bfbfbf" points="319,-56.5 319,-75.5 377,-75.5 377,-56.5 319,-56.5"/>
<text text-anchor="middle" x="348" y="-63.5" font-family="Helvetica,sans-Serif" font-size="10.00">memory</text>
</a>
</g>
</g>
<!-- Node3&#45;&gt;Node4 -->
<g id="edge3" class="edge">
<title>Node3&#45;&gt;Node4</title>
<path fill="none" stroke="midnightblue" d="M198.93,-117.98C229.04,-107.68 279.83,-90.31 313.64,-78.75"/>
<polygon fill="midnightblue" stroke="midnightblue" points="314.79,-82.06 323.12,-75.51 312.52,-75.43 314.79,-82.06"/>
</g>
<!-- Node5 -->
<g id="node5" class="node">
<title>Node5</title>
<g id="a_node5"><a xlink:title=" ">
<polygon fill="white" stroke="#bfbfbf" points="150.5,-56.5 150.5,-75.5 197.5,-75.5 197.5,-56.5 150.5,-56.5"/>
<text text-anchor="middle" x="174" y="-63.5" font-family="Helvetica,sans-Serif" font-size="10.00">vector</text>
</a>
</g>
</g>
<!-- Node3&#45;&gt;Node5 -->
<g id="edge4" class="edge">
<title>Node3&#45;&gt;Node5</title>
<path fill="none" stroke="midnightblue" d="M174,-117.98C174,-109.58 174,-96.48 174,-85.66"/>
<polygon fill="midnightblue" stroke="midnightblue" points="177.5,-85.51 174,-75.51 170.5,-85.51 177.5,-85.51"/>
</g>
<!-- Node6&#45;&gt;Node4 -->
<g id="edge8" class="edge">
<title>Node6&#45;&gt;Node4</title>
<path fill="none" stroke="midnightblue" d="M430.25,-117.98C414.63,-108.3 388.94,-92.37 370.42,-80.89"/>
<polygon fill="midnightblue" stroke="midnightblue" points="372.07,-77.8 361.73,-75.51 368.38,-83.75 372.07,-77.8"/>
</g>
<!-- Node7 -->
<g id="node7" class="node">
<title>Node7</title>
<g id="a_node7"><a xlink:title=" ">
<polygon fill="white" stroke="#bfbfbf" points="685.5,-56.5 685.5,-75.5 738.5,-75.5 738.5,-56.5 685.5,-56.5"/>
<text text-anchor="middle" x="712" y="-63.5" font-family="Helvetica,sans-Serif" font-size="10.00">cstddef</text>
</a>
</g>
</g>
<!-- Node6&#45;&gt;Node7 -->
<g id="edge6" class="edge">
<title>Node6&#45;&gt;Node7</title>
<path fill="none" stroke="midnightblue" d="M482.4,-117.98C533.99,-106.52 625.03,-86.31 675.58,-75.09"/>
<polygon fill="midnightblue" stroke="midnightblue" points="676.43,-78.48 685.43,-72.9 674.91,-71.65 676.43,-78.48"/>
</g>
<!-- Node8 -->
<g id="node8" class="node">
<title>Node8</title>
<g id="a_node8"><a xlink:title=" ">
<polygon fill="white" stroke="#bfbfbf" points="408.5,-56.5 408.5,-75.5 479.5,-75.5 479.5,-56.5 408.5,-56.5"/>
<text text-anchor="middle" x="444" y="-63.5" font-family="Helvetica,sans-Serif" font-size="10.00">flagset.hpp</text>
</a>
</g>
</g>
<!-- Node6&#45;&gt;Node8 -->
<g id="edge7" class="edge">
<title>Node6&#45;&gt;Node8</title>
<path fill="none" stroke="midnightblue" d="M444,-117.98C444,-109.58 444,-96.48 444,-85.66"/>
<polygon fill="midnightblue" stroke="midnightblue" points="447.5,-85.51 444,-75.51 440.5,-85.51 447.5,-85.51"/>
</g>
<!-- Node9 -->
<g id="node9" class="node">
<title>Node9</title>
<g id="a_node9"><a xlink:title=" ">
<polygon fill="white" stroke="#bfbfbf" points="522.5,-56.5 522.5,-75.5 617.5,-75.5 617.5,-56.5 522.5,-56.5"/>
<text text-anchor="middle" x="570" y="-63.5" font-family="Helvetica,sans-Serif" font-size="10.00">odb/lazy&#45;ptr.hxx</text>
</a>
</g>
</g>
<!-- Node6&#45;&gt;Node9 -->
<g id="edge9" class="edge">
<title>Node6&#45;&gt;Node9</title>
<path fill="none" stroke="midnightblue" d="M462.05,-117.98C483.2,-107.99 518.44,-91.35 542.88,-79.81"/>
<polygon fill="midnightblue" stroke="midnightblue" points="544.43,-82.94 551.98,-75.51 541.44,-76.61 544.43,-82.94"/>
</g>
<!-- Node12&#45;&gt;Node3 -->
<g id="edge13" class="edge">
<title>Node12&#45;&gt;Node3</title>
<path fill="none" stroke="midnightblue" d="M293.08,-179.48C269.55,-169.4 230.19,-152.55 203.21,-141"/>
<polygon fill="midnightblue" stroke="midnightblue" points="204.45,-137.73 193.88,-137.01 201.69,-144.16 204.45,-137.73"/>
</g>
<!-- Node12&#45;&gt;Node6 -->
<g id="edge14" class="edge">
<title>Node12&#45;&gt;Node6</title>
<path fill="none" stroke="midnightblue" d="M331.77,-179.48C353.85,-169.45 390.72,-152.7 416.14,-141.15"/>
<polygon fill="midnightblue" stroke="midnightblue" points="417.61,-144.33 425.27,-137.01 414.71,-137.96 417.61,-144.33"/>
</g>
<!-- Node12&#45;&gt;Node10 -->
<g id="edge15" class="edge">
<title>Node12&#45;&gt;Node10</title>
<path fill="none" stroke="midnightblue" d="M276.03,-179.48C230.15,-168.89 151.85,-150.84 101.82,-139.3"/>
<polygon fill="midnightblue" stroke="midnightblue" points="102.43,-135.85 91.9,-137.01 100.85,-142.67 102.43,-135.85"/>
</g>
<!-- Node12&#45;&gt;Node11 -->
<g id="edge16" class="edge">
<title>Node12&#45;&gt;Node11</title>
<path fill="none" stroke="midnightblue" d="M305.41,-179.48C297.3,-170.37 284.27,-155.74 274.24,-144.48"/>
<polygon fill="midnightblue" stroke="midnightblue" points="276.84,-142.15 267.58,-137.01 271.62,-146.8 276.84,-142.15"/>
</g>
<!-- Node14 -->
<g id="node14" class="node">
<title>Node14</title>
<g id="a_node14"><a xlink:href="../../d3/dd8/IAuditEntry_8hpp.html" target="_top" xlink:title=" ">
<polygon fill="white" stroke="black" points="517,-179.5 517,-198.5 607,-198.5 607,-179.5 517,-179.5"/>
<text text-anchor="middle" x="562" y="-186.5" font-family="Helvetica,sans-Serif" font-size="10.00">IAuditEntry.hpp</text>
</a>
</g>
</g>
<!-- Node13&#45;&gt;Node14 -->
<g id="edge18" class="edge">
<title>Node13&#45;&gt;Node14</title>
<path fill="none" stroke="midnightblue" d="M511.64,-235.32C520.51,-227.34 533.87,-215.31 544.61,-205.65"/>
<polygon fill="midnightblue" stroke="midnightblue" points="547.09,-208.13 552.18,-198.83 542.41,-202.92 547.09,-208.13"/>
</g>
<!-- Node21 -->
<g id="node21" class="node">
<title>Node21</title>
<g id="a_node21"><a xlink:href="../../d4/dc3/APIStatusCode_8hpp.html" target="_top" xlink:title=" ">
<polygon fill="white" stroke="black" points="625.5,-179.5 625.5,-198.5 758.5,-198.5 758.5,-179.5 625.5,-179.5"/>
<text text-anchor="middle" x="692" y="-186.5" font-family="Helvetica,sans-Serif" font-size="10.00">core/APIStatusCode.hpp</text>
</a>
</g>
</g>
<!-- Node13&#45;&gt;Node21 -->
<g id="edge30" class="edge">
<title>Node13&#45;&gt;Node21</title>
<path fill="none" stroke="midnightblue" d="M532.11,-235.44C564.63,-226.2 616.58,-211.44 652.39,-201.26"/>
<polygon fill="midnightblue" stroke="midnightblue" points="653.37,-204.62 662.03,-198.52 651.46,-197.88 653.37,-204.62"/>
</g>
<!-- Node22 -->
<g id="node22" class="node">
<title>Node22</title>
<g id="a_node22"><a xlink:href="../../d9/d69/db__fwd_8hpp.html" target="_top" xlink:title=" ">
<polygon fill="white" stroke="black" points="385,-179.5 385,-198.5 499,-198.5 499,-179.5 385,-179.5"/>
<text text-anchor="middle" x="442" y="-186.5" font-family="Helvetica,sans-Serif" font-size="10.00">tools/db/db_fwd.hpp</text>
</a>
</g>
</g>
<!-- Node13&#45;&gt;Node22 -->
<g id="edge31" class="edge">
<title>Node13&#45;&gt;Node22</title>
<path fill="none" stroke="midnightblue" d="M492.36,-235.32C483.49,-227.34 470.13,-215.31 459.39,-205.65"/>
<polygon fill="midnightblue" stroke="midnightblue" points="461.59,-202.92 451.82,-198.83 456.91,-208.13 461.59,-202.92"/>
</g>
<!-- Node14&#45;&gt;Node4 -->
<g id="edge29" class="edge">
<title>Node14&#45;&gt;Node4</title>
<path fill="none" stroke="midnightblue" d="M516.71,-180.11C462.51,-170.28 377.69,-153.5 367,-143 351.8,-128.07 348.09,-102.95 347.49,-85.7"/>
<polygon fill="midnightblue" stroke="midnightblue" points="350.99,-85.68 347.47,-75.69 343.99,-85.7 350.99,-85.68"/>
</g>
<!-- Node14&#45;&gt;Node6 -->
<g id="edge19" class="edge">
<title>Node14&#45;&gt;Node6</title>
<path fill="none" stroke="midnightblue" d="M545.09,-179.48C525.47,-169.58 492.87,-153.14 470.01,-141.62"/>
<polygon fill="midnightblue" stroke="midnightblue" points="471.38,-138.39 460.88,-137.01 468.23,-144.64 471.38,-138.39"/>
</g>
<!-- Node15 -->
<g id="node15" class="node">
<title>Node15</title>
<g id="a_node15"><a xlink:href="../../d3/d6f/AuthFwd_8hpp.html" target="_top" xlink:title=" ">
<polygon fill="white" stroke="black" points="672.5,-118 672.5,-137 801.5,-137 801.5,-118 672.5,-118"/>
<text text-anchor="middle" x="737" y="-125" font-family="Helvetica,sans-Serif" font-size="10.00">core/auth/AuthFwd.hpp</text>
</a>
</g>
</g>
<!-- Node14&#45;&gt;Node15 -->
<g id="edge20" class="edge">
<title>Node14&#45;&gt;Node15</title>
<path fill="none" stroke="midnightblue" d="M587.07,-179.48C617.35,-169.18 668.44,-151.81 702.44,-140.25"/>
<polygon fill="midnightblue" stroke="midnightblue" points="703.63,-143.54 711.97,-137.01 701.38,-136.91 703.63,-143.54"/>
</g>
<!-- Node16 -->
<g id="node16" class="node">
<title>Node16</title>
<g id="a_node16"><a xlink:href="../../dd/d9d/IVisitable_8hpp.html" target="_top" xlink:title=" ">
<polygon fill="white" stroke="black" points="820,-118 820,-137 930,-137 930,-118 820,-118"/>
<text text-anchor="middle" x="875" y="-125" font-family="Helvetica,sans-Serif" font-size="10.00">tools/IVisitable.hpp</text>
</a>
</g>
</g>
<!-- Node14&#45;&gt;Node16 -->
<g id="edge24" class="edge">
<title>Node14&#45;&gt;Node16</title>
<path fill="none" stroke="midnightblue" d="M607.1,-180.46C657.06,-171.97 739.97,-157.46 811,-143 816.72,-141.84 822.72,-140.56 828.65,-139.25"/>
<polygon fill="midnightblue" stroke="midnightblue" points="829.51,-142.65 838.51,-137.06 827.99,-135.82 829.51,-142.65"/>
</g>
<!-- Node20 -->
<g id="node20" class="node">
<title>Node20</title>
<g id="a_node20"><a xlink:title=" ">
<polygon fill="white" stroke="#bfbfbf" points="529.5,-112.5 529.5,-142.5 654.5,-142.5 654.5,-112.5 529.5,-112.5"/>
<text text-anchor="start" x="537.5" y="-130.5" font-family="Helvetica,sans-Serif" font-size="10.00">boost/date_time/posix</text>
<text text-anchor="middle" x="592" y="-119.5" font-family="Helvetica,sans-Serif" font-size="10.00">_time/posix_time.hpp</text>
</a>
</g>
</g>
<!-- Node14&#45;&gt;Node20 -->
<g id="edge28" class="edge">
<title>Node14&#45;&gt;Node20</title>
<path fill="none" stroke="midnightblue" d="M566.3,-179.48C569.98,-172.17 575.46,-161.3 580.42,-151.47"/>
<polygon fill="midnightblue" stroke="midnightblue" points="583.55,-153.03 584.93,-142.52 577.3,-149.88 583.55,-153.03"/>
</g>
<!-- Node15&#45;&gt;Node4 -->
<g id="edge22" class="edge">
<title>Node15&#45;&gt;Node4</title>
<path fill="none" stroke="midnightblue" d="M696.15,-117.93C685.7,-115.86 674.45,-113.75 664,-112 546.77,-92.41 516.44,-94.33 399,-76 395.11,-75.39 391.07,-74.73 387.03,-74.05"/>
<polygon fill="midnightblue" stroke="midnightblue" points="387.54,-70.59 377.09,-72.34 386.36,-77.49 387.54,-70.59"/>
</g>
<!-- Node15&#45;&gt;Node7 -->
<g id="edge21" class="edge">
<title>Node15&#45;&gt;Node7</title>
<path fill="none" stroke="midnightblue" d="M733.42,-117.98C729.82,-109.4 724.15,-95.93 719.56,-84.98"/>
<polygon fill="midnightblue" stroke="midnightblue" points="722.68,-83.37 715.58,-75.51 716.22,-86.08 722.68,-83.37"/>
</g>
<!-- Node15&#45;&gt;Node9 -->
<g id="edge23" class="edge">
<title>Node15&#45;&gt;Node9</title>
<path fill="none" stroke="midnightblue" d="M713.07,-117.98C684.3,-107.72 635.84,-90.46 603.4,-78.9"/>
<polygon fill="midnightblue" stroke="midnightblue" points="604.48,-75.57 593.88,-75.51 602.13,-82.16 604.48,-75.57"/>
</g>
<!-- Node17 -->
<g id="node17" class="node">
<title>Node17</title>
<g id="a_node17"><a xlink:href="../../d2/d91/Visitor_8hpp.html" target="_top" xlink:title=" ">
<polygon fill="white" stroke="black" points="827.5,-56.5 827.5,-75.5 922.5,-75.5 922.5,-56.5 827.5,-56.5"/>
<text text-anchor="middle" x="875" y="-63.5" font-family="Helvetica,sans-Serif" font-size="10.00">tools/Visitor.hpp</text>
</a>
</g>
</g>
<!-- Node16&#45;&gt;Node17 -->
<g id="edge25" class="edge">
<title>Node16&#45;&gt;Node17</title>
<path fill="none" stroke="midnightblue" d="M875,-117.98C875,-109.58 875,-96.48 875,-85.66"/>
<polygon fill="midnightblue" stroke="midnightblue" points="878.5,-85.51 875,-75.51 871.5,-85.51 878.5,-85.51"/>
</g>
<!-- Node19 -->
<g id="node19" class="node">
<title>Node19</title>
<g id="a_node19"><a xlink:title=" ">
<polygon fill="white" stroke="#bfbfbf" points="1068,-56.5 1068,-75.5 1120,-75.5 1120,-56.5 1068,-56.5"/>
<text text-anchor="middle" x="1094" y="-63.5" font-family="Helvetica,sans-Serif" font-size="10.00">cassert</text>
</a>
</g>
</g>
<!-- Node16&#45;&gt;Node19 -->
<g id="edge27" class="edge">
<title>Node16&#45;&gt;Node19</title>
<path fill="none" stroke="midnightblue" d="M906.38,-117.98C946.48,-107.08 1015.74,-88.26 1057.96,-76.79"/>
<polygon fill="midnightblue" stroke="midnightblue" points="1059.09,-80.11 1067.82,-74.11 1057.26,-73.36 1059.09,-80.11"/>
</g>
<!-- Node18 -->
<g id="node18" class="node">
<title>Node18</title>
<g id="a_node18"><a xlink:title=" ">
<polygon fill="white" stroke="#bfbfbf" points="840.5,-0.5 840.5,-19.5 909.5,-19.5 909.5,-0.5 840.5,-0.5"/>
<text text-anchor="middle" x="875" y="-7.5" font-family="Helvetica,sans-Serif" font-size="10.00">type_traits</text>
</a>
</g>
</g>
<!-- Node17&#45;&gt;Node18 -->
<g id="edge26" class="edge">
<title>Node17&#45;&gt;Node18</title>
<path fill="none" stroke="midnightblue" d="M875,-56.08C875,-49.01 875,-38.86 875,-29.99"/>
<polygon fill="midnightblue" stroke="midnightblue" points="878.5,-29.75 875,-19.75 871.5,-29.75 878.5,-29.75"/>
</g>
<!-- Node22&#45;&gt;Node4 -->
<g id="edge32" class="edge">
<title>Node22&#45;&gt;Node4</title>
<path fill="none" stroke="midnightblue" d="M390.47,-179.44C369.27,-173.1 346.73,-162.1 334,-143 322.41,-125.62 330.1,-101.27 337.9,-84.86"/>
<polygon fill="midnightblue" stroke="midnightblue" points="341.1,-86.28 342.6,-75.8 334.89,-83.06 341.1,-86.28"/>
</g>
<!-- Node23&#45;&gt;Node11 -->
<g id="edge39" class="edge">
<title>Node23&#45;&gt;Node11</title>
<path fill="none" stroke="midnightblue" d="M1032.72,-186.44C924.71,-182.02 619.68,-168.14 367,-143 341.79,-140.49 313.37,-136.59 292.16,-133.47"/>
<polygon fill="midnightblue" stroke="midnightblue" points="292.49,-129.97 282.08,-131.96 291.45,-136.9 292.49,-129.97"/>
</g>
<!-- Node23&#45;&gt;Node19 -->
<g id="edge34" class="edge">
<title>Node23&#45;&gt;Node19</title>
<path fill="none" stroke="midnightblue" d="M1113.18,-185.95C1143.34,-182.05 1182.77,-171.4 1203,-143 1210.99,-131.78 1210.66,-123.45 1203,-112 1186.89,-87.92 1155.29,-76.71 1130.24,-71.5"/>
<polygon fill="midnightblue" stroke="midnightblue" points="1130.79,-68.05 1120.32,-69.67 1129.52,-74.93 1130.79,-68.05"/>
</g>
<!-- Node24 -->
<g id="node24" class="node">
<title>Node24</title>
<g id="a_node24"><a xlink:title=" ">
<polygon fill="white" stroke="#bfbfbf" points="1250.5,-118 1250.5,-137 1301.5,-137 1301.5,-118 1250.5,-118"/>
<text text-anchor="middle" x="1276" y="-125" font-family="Helvetica,sans-Serif" font-size="10.00">csignal</text>
</a>
</g>
</g>
<!-- Node23&#45;&gt;Node24 -->
<g id="edge35" class="edge">
<title>Node23&#45;&gt;Node24</title>
<path fill="none" stroke="midnightblue" d="M1106.94,-179.46C1140.07,-170.93 1191.81,-157.09 1236,-143 1238.55,-142.19 1241.18,-141.31 1243.82,-140.41"/>
<polygon fill="midnightblue" stroke="midnightblue" points="1244.99,-143.71 1253.26,-137.09 1242.67,-137.11 1244.99,-143.71"/>
</g>
<!-- Node25 -->
<g id="node25" class="node">
<title>Node25</title>
<g id="a_node25"><a xlink:title=" ">
<polygon fill="white" stroke="#bfbfbf" points="948,-118 948,-137 1008,-137 1008,-118 948,-118"/>
<text text-anchor="middle" x="978" y="-125" font-family="Helvetica,sans-Serif" font-size="10.00">iostream</text>
</a>
</g>
</g>
<!-- Node23&#45;&gt;Node25 -->
<g id="edge36" class="edge">
<title>Node23&#45;&gt;Node25</title>
<path fill="none" stroke="midnightblue" d="M1059.39,-179.48C1043.94,-169.8 1018.51,-153.87 1000.18,-142.39"/>
<polygon fill="midnightblue" stroke="midnightblue" points="1001.92,-139.35 991.59,-137.01 998.2,-145.28 1001.92,-139.35"/>
</g>
<!-- Node26 -->
<g id="node26" class="node">
<title>Node26</title>
<g id="a_node26"><a xlink:title=" ">
<polygon fill="white" stroke="#bfbfbf" points="1026.5,-118 1026.5,-137 1119.5,-137 1119.5,-118 1026.5,-118"/>
<text text-anchor="middle" x="1073" y="-125" font-family="Helvetica,sans-Serif" font-size="10.00">spdlog/spdlog.h</text>
</a>
</g>
</g>
<!-- Node23&#45;&gt;Node26 -->
<g id="edge37" class="edge">
<title>Node23&#45;&gt;Node26</title>
<path fill="none" stroke="midnightblue" d="M1073,-179.48C1073,-171.08 1073,-157.98 1073,-147.16"/>
<polygon fill="midnightblue" stroke="midnightblue" points="1076.5,-147.01 1073,-137.01 1069.5,-147.01 1076.5,-147.01"/>
</g>
<!-- Node27 -->
<g id="node27" class="node">
<title>Node27</title>
<g id="a_node27"><a xlink:title=" ">
<polygon fill="white" stroke="#bfbfbf" points="1138,-118 1138,-137 1194,-137 1194,-118 1138,-118"/>
<text text-anchor="middle" x="1166" y="-125" font-family="Helvetica,sans-Serif" font-size="10.00">sstream</text>
</a>
</g>
</g>
<!-- Node23&#45;&gt;Node27 -->
<g id="edge38" class="edge">
<title>Node23&#45;&gt;Node27</title>
<path fill="none" stroke="midnightblue" d="M1086.32,-179.48C1101.38,-169.84 1126.12,-154.02 1144.04,-142.55"/>
<polygon fill="midnightblue" stroke="midnightblue" points="1146.16,-145.35 1152.7,-137.01 1142.39,-139.45 1146.16,-145.35"/>
</g>
</g>
</svg>
