<?xml version="1.0" encoding="UTF-8" standalone="no"?>
<!DOCTYPE svg PUBLIC "-//W3C//DTD SVG 1.1//EN"
 "http://www.w3.org/Graphics/SVG/1.1/DTD/svg11.dtd">
<!-- Generated by graphviz version 2.43.0 (0)
 -->
<!-- Title: src/modules/tcp&#45;notifier/NotifierInstance.hpp Pages: 1 -->
<svg width="563pt" height="218pt"
 viewBox="0.00 0.00 562.50 218.00" xmlns="http://www.w3.org/2000/svg" xmlns:xlink="http://www.w3.org/1999/xlink">
<g id="graph0" class="graph" transform="scale(1 1) rotate(0) translate(4 214)">
<title>src/modules/tcp&#45;notifier/NotifierInstance.hpp</title>
<polygon fill="white" stroke="transparent" points="-4,4 -4,-214 558.5,-214 558.5,4 -4,4"/>
<!-- Node1 -->
<g id="node1" class="node">
<title>Node1</title>
<g id="a_node1"><a xlink:title=" ">
<polygon fill="#bfbfbf" stroke="black" points="211,-179.5 211,-209.5 343,-209.5 343,-179.5 211,-179.5"/>
<text text-anchor="start" x="219" y="-197.5" font-family="Helvetica,sans-Serif" font-size="10.00">src/modules/tcp&#45;notifier</text>
<text text-anchor="middle" x="277" y="-186.5" font-family="Helvetica,sans-Serif" font-size="10.00">/NotifierInstance.hpp</text>
</a>
</g>
</g>
<!-- Node2 -->
<g id="node2" class="node">
<title>Node2</title>
<g id="a_node2"><a xlink:href="../../dc/d49/LeosacFwd_8hpp.html" target="_top" xlink:title=" ">
<polygon fill="white" stroke="black" points="0,-62 0,-81 92,-81 92,-62 0,-62"/>
<text text-anchor="middle" x="46" y="-69" font-family="Helvetica,sans-Serif" font-size="10.00">LeosacFwd.hpp</text>
</a>
</g>
</g>
<!-- Node1&#45;&gt;Node2 -->
<g id="edge1" class="edge">
<title>Node1&#45;&gt;Node2</title>
<path fill="none" stroke="midnightblue" d="M210.76,-188.54C171.46,-182.72 122.54,-170.13 87,-143 69.64,-129.75 58.32,-106.88 52.06,-90.79"/>
<polygon fill="midnightblue" stroke="midnightblue" points="55.34,-89.58 48.66,-81.36 48.76,-91.96 55.34,-89.58"/>
</g>
<!-- Node5 -->
<g id="node5" class="node">
<title>Node5</title>
<g id="a_node5"><a xlink:href="../../dc/d76/ProtocolHandler_8hpp.html" target="_top" xlink:title=" ">
<polygon fill="white" stroke="black" points="95.5,-123.5 95.5,-142.5 210.5,-142.5 210.5,-123.5 95.5,-123.5"/>
<text text-anchor="middle" x="153" y="-130.5" font-family="Helvetica,sans-Serif" font-size="10.00">ProtocolHandler.hpp</text>
</a>
</g>
</g>
<!-- Node1&#45;&gt;Node5 -->
<g id="edge4" class="edge">
<title>Node1&#45;&gt;Node5</title>
<path fill="none" stroke="midnightblue" d="M247.61,-179.4C227.18,-169.59 200.14,-156.62 180.2,-147.05"/>
<polygon fill="midnightblue" stroke="midnightblue" points="181.57,-143.83 171.04,-142.66 178.54,-150.14 181.57,-143.83"/>
</g>
<!-- Node6 -->
<g id="node6" class="node">
<title>Node6</title>
<g id="a_node6"><a xlink:href="../../d7/d7f/CredentialFwd_8hpp.html" target="_top" xlink:title=" ">
<polygon fill="white" stroke="black" points="194,-56.5 194,-86.5 342,-86.5 342,-56.5 194,-56.5"/>
<text text-anchor="start" x="202" y="-74.5" font-family="Helvetica,sans-Serif" font-size="10.00">core/credentials/Credential</text>
<text text-anchor="middle" x="268" y="-63.5" font-family="Helvetica,sans-Serif" font-size="10.00">Fwd.hpp</text>
</a>
</g>
</g>
<!-- Node1&#45;&gt;Node6 -->
<g id="edge14" class="edge">
<title>Node1&#45;&gt;Node6</title>
<path fill="none" stroke="midnightblue" d="M275.93,-179.14C274.42,-158.86 271.65,-121.53 269.81,-96.86"/>
<polygon fill="midnightblue" stroke="midnightblue" points="273.3,-96.55 269.07,-86.84 266.32,-97.07 273.3,-96.55"/>
</g>
<!-- Node9 -->
<g id="node9" class="node">
<title>Node9</title>
<g id="a_node9"><a xlink:href="../../d3/d6f/AuthFwd_8hpp.html" target="_top" xlink:title=" ">
<polygon fill="white" stroke="black" points="360.5,-62 360.5,-81 489.5,-81 489.5,-62 360.5,-62"/>
<text text-anchor="middle" x="425" y="-69" font-family="Helvetica,sans-Serif" font-size="10.00">core/auth/AuthFwd.hpp</text>
</a>
</g>
</g>
<!-- Node1&#45;&gt;Node9 -->
<g id="edge10" class="edge">
<title>Node1&#45;&gt;Node9</title>
<path fill="none" stroke="midnightblue" d="M281.77,-179.35C287.65,-163.77 299.01,-138.82 316,-123 335.28,-105.05 362.07,-92.52 384.26,-84.43"/>
<polygon fill="midnightblue" stroke="midnightblue" points="385.48,-87.71 393.78,-81.13 383.18,-81.1 385.48,-87.71"/>
</g>
<!-- Node11 -->
<g id="node11" class="node">
<title>Node11</title>
<g id="a_node11"><a xlink:title=" ">
<polygon fill="white" stroke="#bfbfbf" points="324.5,-123.5 324.5,-142.5 431.5,-142.5 431.5,-123.5 324.5,-123.5"/>
<text text-anchor="middle" x="378" y="-130.5" font-family="Helvetica,sans-Serif" font-size="10.00">zmqpp/reactor.hpp</text>
</a>
</g>
</g>
<!-- Node1&#45;&gt;Node11 -->
<g id="edge15" class="edge">
<title>Node1&#45;&gt;Node11</title>
<path fill="none" stroke="midnightblue" d="M300.94,-179.4C317.13,-169.86 338.41,-157.32 354.5,-147.84"/>
<polygon fill="midnightblue" stroke="midnightblue" points="356.46,-150.75 363.3,-142.66 352.91,-144.72 356.46,-150.75"/>
</g>
<!-- Node12 -->
<g id="node12" class="node">
<title>Node12</title>
<g id="a_node12"><a xlink:title=" ">
<polygon fill="white" stroke="#bfbfbf" points="449.5,-123.5 449.5,-142.5 554.5,-142.5 554.5,-123.5 449.5,-123.5"/>
<text text-anchor="middle" x="502" y="-130.5" font-family="Helvetica,sans-Serif" font-size="10.00">zmqpp/socket.hpp</text>
</a>
</g>
</g>
<!-- Node1&#45;&gt;Node12 -->
<g id="edge16" class="edge">
<title>Node1&#45;&gt;Node12</title>
<path fill="none" stroke="midnightblue" d="M330.04,-179.47C369.7,-168.99 423.21,-154.84 459.94,-145.12"/>
<polygon fill="midnightblue" stroke="midnightblue" points="461.06,-148.45 469.83,-142.51 459.27,-141.68 461.06,-148.45"/>
</g>
<!-- Node3 -->
<g id="node3" class="node">
<title>Node3</title>
<g id="a_node3"><a xlink:title=" ">
<polygon fill="white" stroke="#bfbfbf" points="224,-0.5 224,-19.5 282,-19.5 282,-0.5 224,-0.5"/>
<text text-anchor="middle" x="253" y="-7.5" font-family="Helvetica,sans-Serif" font-size="10.00">memory</text>
</a>
</g>
</g>
<!-- Node2&#45;&gt;Node3 -->
<g id="edge2" class="edge">
<title>Node2&#45;&gt;Node3</title>
<path fill="none" stroke="midnightblue" d="M75.66,-61.98C112.04,-51.52 173.81,-33.76 214.01,-22.21"/>
<polygon fill="midnightblue" stroke="midnightblue" points="215.09,-25.54 223.73,-19.41 213.15,-18.81 215.09,-25.54"/>
</g>
<!-- Node4 -->
<g id="node4" class="node">
<title>Node4</title>
<g id="a_node4"><a xlink:title=" ">
<polygon fill="white" stroke="#bfbfbf" points="22.5,-0.5 22.5,-19.5 69.5,-19.5 69.5,-0.5 22.5,-0.5"/>
<text text-anchor="middle" x="46" y="-7.5" font-family="Helvetica,sans-Serif" font-size="10.00">vector</text>
</a>
</g>
</g>
<!-- Node2&#45;&gt;Node4 -->
<g id="edge3" class="edge">
<title>Node2&#45;&gt;Node4</title>
<path fill="none" stroke="midnightblue" d="M46,-61.98C46,-53.58 46,-40.48 46,-29.66"/>
<polygon fill="midnightblue" stroke="midnightblue" points="49.5,-29.51 46,-19.51 42.5,-29.51 49.5,-29.51"/>
</g>
<!-- Node5&#45;&gt;Node2 -->
<g id="edge5" class="edge">
<title>Node5&#45;&gt;Node2</title>
<path fill="none" stroke="midnightblue" d="M137.67,-123.48C120.03,-113.67 90.84,-97.43 70.14,-85.92"/>
<polygon fill="midnightblue" stroke="midnightblue" points="71.74,-82.81 61.3,-81.01 68.34,-88.93 71.74,-82.81"/>
</g>
<!-- Node5&#45;&gt;Node6 -->
<g id="edge6" class="edge">
<title>Node5&#45;&gt;Node6</title>
<path fill="none" stroke="midnightblue" d="M169.48,-123.48C185.71,-115.08 211.04,-101.97 231.95,-91.15"/>
<polygon fill="midnightblue" stroke="midnightblue" points="233.62,-94.23 240.9,-86.52 230.41,-88.01 233.62,-94.23"/>
</g>
<!-- Node8 -->
<g id="node8" class="node">
<title>Node8</title>
<g id="a_node8"><a xlink:title=" ">
<polygon fill="white" stroke="#bfbfbf" points="110.5,-62 110.5,-81 175.5,-81 175.5,-62 110.5,-62"/>
<text text-anchor="middle" x="143" y="-69" font-family="Helvetica,sans-Serif" font-size="10.00">stdexcept</text>
</a>
</g>
</g>
<!-- Node5&#45;&gt;Node8 -->
<g id="edge9" class="edge">
<title>Node5&#45;&gt;Node8</title>
<path fill="none" stroke="midnightblue" d="M151.57,-123.48C150.16,-115.08 147.95,-101.98 146.14,-91.16"/>
<polygon fill="midnightblue" stroke="midnightblue" points="149.54,-90.29 144.43,-81.01 142.64,-91.45 149.54,-90.29"/>
</g>
<!-- Node6&#45;&gt;Node3 -->
<g id="edge7" class="edge">
<title>Node6&#45;&gt;Node3</title>
<path fill="none" stroke="midnightblue" d="M264.45,-56.4C262.42,-48.38 259.87,-38.23 257.68,-29.57"/>
<polygon fill="midnightblue" stroke="midnightblue" points="261.02,-28.5 255.18,-19.66 254.23,-30.21 261.02,-28.5"/>
</g>
<!-- Node7 -->
<g id="node7" class="node">
<title>Node7</title>
<g id="a_node7"><a xlink:title=" ">
<polygon fill="white" stroke="#bfbfbf" points="300.5,-0.5 300.5,-19.5 395.5,-19.5 395.5,-0.5 300.5,-0.5"/>
<text text-anchor="middle" x="348" y="-7.5" font-family="Helvetica,sans-Serif" font-size="10.00">odb/lazy&#45;ptr.hxx</text>
</a>
</g>
</g>
<!-- Node6&#45;&gt;Node7 -->
<g id="edge8" class="edge">
<title>Node6&#45;&gt;Node7</title>
<path fill="none" stroke="midnightblue" d="M286.96,-56.4C299.42,-47.13 315.7,-35.03 328.31,-25.65"/>
<polygon fill="midnightblue" stroke="midnightblue" points="330.42,-28.43 336.36,-19.66 326.25,-22.82 330.42,-28.43"/>
</g>
<!-- Node9&#45;&gt;Node3 -->
<g id="edge12" class="edge">
<title>Node9&#45;&gt;Node3</title>
<path fill="none" stroke="midnightblue" d="M400.36,-61.98C370.72,-51.72 320.82,-34.46 287.4,-22.9"/>
<polygon fill="midnightblue" stroke="midnightblue" points="288.19,-19.47 277.6,-19.51 285.9,-26.09 288.19,-19.47"/>
</g>
<!-- Node9&#45;&gt;Node7 -->
<g id="edge13" class="edge">
<title>Node9&#45;&gt;Node7</title>
<path fill="none" stroke="midnightblue" d="M413.97,-61.98C401.73,-52.52 381.77,-37.1 367.01,-25.69"/>
<polygon fill="midnightblue" stroke="midnightblue" points="369.06,-22.85 359.01,-19.51 364.78,-28.39 369.06,-22.85"/>
</g>
<!-- Node10 -->
<g id="node10" class="node">
<title>Node10</title>
<g id="a_node10"><a xlink:title=" ">
<polygon fill="white" stroke="#bfbfbf" points="413.5,-0.5 413.5,-19.5 466.5,-19.5 466.5,-0.5 413.5,-0.5"/>
<text text-anchor="middle" x="440" y="-7.5" font-family="Helvetica,sans-Serif" font-size="10.00">cstddef</text>
</a>
</g>
</g>
<!-- Node9&#45;&gt;Node10 -->
<g id="edge11" class="edge">
<title>Node9&#45;&gt;Node10</title>
<path fill="none" stroke="midnightblue" d="M427.15,-61.98C429.29,-53.49 432.64,-40.2 435.38,-29.32"/>
<polygon fill="midnightblue" stroke="midnightblue" points="438.8,-30.06 437.85,-19.51 432.02,-28.35 438.8,-30.06"/>
</g>
</g>
</svg>
