<?xml version="1.0" encoding="UTF-8" standalone="no"?>
<!DOCTYPE svg PUBLIC "-//W3C//DTD SVG 1.1//EN"
 "http://www.w3.org/Graphics/SVG/1.1/DTD/svg11.dtd">
<!-- Generated by graphviz version 2.43.0 (0)
 -->
<!-- Title: src/core/audit/serializers/CredentialEventSerializer.hpp Pages: 1 -->
<svg width="360pt" height="106pt"
 viewBox="0.00 0.00 360.00 106.00" xmlns="http://www.w3.org/2000/svg" xmlns:xlink="http://www.w3.org/1999/xlink">
<g id="graph0" class="graph" transform="scale(1 1) rotate(0) translate(4 102)">
<title>src/core/audit/serializers/CredentialEventSerializer.hpp</title>
<polygon fill="white" stroke="transparent" points="-4,4 -4,-102 356,-102 356,4 -4,4"/>
<!-- Node1 -->
<g id="node1" class="node">
<title>Node1</title>
<g id="a_node1"><a xlink:title=" ">
<polygon fill="#bfbfbf" stroke="black" points="91.5,-67.5 91.5,-97.5 255.5,-97.5 255.5,-67.5 91.5,-67.5"/>
<text text-anchor="start" x="99.5" y="-85.5" font-family="Helvetica,sans-Serif" font-size="10.00">src/core/audit/serializers</text>
<text text-anchor="middle" x="173.5" y="-74.5" font-family="Helvetica,sans-Serif" font-size="10.00">/CredentialEventSerializer.hpp</text>
</a>
</g>
</g>
<!-- Node2 -->
<g id="node2" class="node">
<title>Node2</title>
<g id="a_node2"><a xlink:href="../../de/d8c/CredentialEventSerializer_8cpp.html" target="_top" xlink:title=" ">
<polygon fill="white" stroke="black" points="0,-0.5 0,-30.5 163,-30.5 163,-0.5 0,-0.5"/>
<text text-anchor="start" x="8" y="-18.5" font-family="Helvetica,sans-Serif" font-size="10.00">src/core/audit/serializers</text>
<text text-anchor="middle" x="81.5" y="-7.5" font-family="Helvetica,sans-Serif" font-size="10.00">/CredentialEventSerializer.cpp</text>
</a>
</g>
</g>
<!-- Node1&#45;&gt;Node2 -->
<g id="edge1" class="edge">
<title>Node1&#45;&gt;Node2</title>
<path fill="none" stroke="midnightblue" d="M145.12,-61.45C130.97,-51.45 114.19,-39.6 101.42,-30.58"/>
<polygon fill="midnightblue" stroke="midnightblue" points="143.35,-64.48 153.54,-67.4 147.39,-58.77 143.35,-64.48"/>
</g>
<!-- Node3 -->
<g id="node3" class="node">
<title>Node3</title>
<g id="a_node3"><a xlink:href="../../d5/dce/PolymorphicAuditSerializer_8cpp.html" target="_top" xlink:title=" ">
<polygon fill="white" stroke="black" points="181,-0.5 181,-30.5 352,-30.5 352,-0.5 181,-0.5"/>
<text text-anchor="start" x="189" y="-18.5" font-family="Helvetica,sans-Serif" font-size="10.00">src/core/audit/serializers</text>
<text text-anchor="middle" x="266.5" y="-7.5" font-family="Helvetica,sans-Serif" font-size="10.00">/PolymorphicAuditSerializer.cpp</text>
</a>
</g>
</g>
<!-- Node1&#45;&gt;Node3 -->
<g id="edge2" class="edge">
<title>Node1&#45;&gt;Node3</title>
<path fill="none" stroke="midnightblue" d="M202.19,-61.45C216.49,-51.45 233.45,-39.6 246.36,-30.58"/>
<polygon fill="midnightblue" stroke="midnightblue" points="199.87,-58.8 193.68,-67.4 203.88,-64.54 199.87,-58.8"/>
</g>
</g>
</svg>
