<?xml version="1.0" encoding="UTF-8" standalone="no"?>
<!DOCTYPE svg PUBLIC "-//W3C//DTD SVG 1.1//EN"
 "http://www.w3.org/Graphics/SVG/1.1/DTD/svg11.dtd">
<!-- Generated by graphviz version 2.43.0 (0)
 -->
<!-- Title: src/modules/smtp/SMTPFwd.hpp Pages: 1 -->
<svg width="1199pt" height="229pt"
 viewBox="0.00 0.00 1198.50 229.00" xmlns="http://www.w3.org/2000/svg" xmlns:xlink="http://www.w3.org/1999/xlink">
<g id="graph0" class="graph" transform="scale(1 1) rotate(0) translate(4 225)">
<title>src/modules/smtp/SMTPFwd.hpp</title>
<polygon fill="white" stroke="transparent" points="-4,4 -4,-225 1194.5,-225 1194.5,4 -4,4"/>
<!-- Node1 -->
<g id="node1" class="node">
<title>Node1</title>
<g id="a_node1"><a xlink:title=" ">
<polygon fill="#bfbfbf" stroke="black" points="631.5,-201.5 631.5,-220.5 806.5,-220.5 806.5,-201.5 631.5,-201.5"/>
<text text-anchor="middle" x="719" y="-208.5" font-family="Helvetica,sans-Serif" font-size="10.00">src/modules/smtp/SMTPFwd.hpp</text>
</a>
</g>
</g>
<!-- Node2 -->
<g id="node2" class="node">
<title>Node2</title>
<g id="a_node2"><a xlink:href="../../d1/df6/SMTPModule_8hpp.html" target="_top" xlink:title=" ">
<polygon fill="white" stroke="black" points="424.5,-140 424.5,-159 615.5,-159 615.5,-140 424.5,-140"/>
<text text-anchor="middle" x="520" y="-147" font-family="Helvetica,sans-Serif" font-size="10.00">src/modules/smtp/SMTPModule.hpp</text>
</a>
</g>
</g>
<!-- Node1&#45;&gt;Node2 -->
<g id="edge1" class="edge">
<title>Node1&#45;&gt;Node2</title>
<path fill="none" stroke="midnightblue" d="M680.63,-198.53C641.96,-186.96 583.16,-169.38 548.46,-159.01"/>
<polygon fill="midnightblue" stroke="midnightblue" points="679.9,-201.96 690.49,-201.48 681.91,-195.26 679.9,-201.96"/>
</g>
<!-- Node6 -->
<g id="node6" class="node">
<title>Node6</title>
<g id="a_node6"><a xlink:href="../../dd/db2/SMTPAudit_8hpp.html" target="_top" xlink:title=" ">
<polygon fill="white" stroke="black" points="176.5,-140 176.5,-159 355.5,-159 355.5,-140 176.5,-140"/>
<text text-anchor="middle" x="266" y="-147" font-family="Helvetica,sans-Serif" font-size="10.00">src/modules/smtp/SMTPAudit.hpp</text>
</a>
</g>
</g>
<!-- Node1&#45;&gt;Node6 -->
<g id="edge5" class="edge">
<title>Node1&#45;&gt;Node6</title>
<path fill="none" stroke="midnightblue" d="M643.98,-200.15C556.56,-188.66 413.56,-169.88 330.78,-159.01"/>
<polygon fill="midnightblue" stroke="midnightblue" points="643.73,-203.64 654.1,-201.48 644.64,-196.7 643.73,-203.64"/>
</g>
<!-- Node10 -->
<g id="node10" class="node">
<title>Node10</title>
<g id="a_node10"><a xlink:href="../../d4/d56/SMTPConfig_8hpp.html" target="_top" xlink:title=" ">
<polygon fill="white" stroke="black" points="822.5,-140 822.5,-159 1007.5,-159 1007.5,-140 822.5,-140"/>
<text text-anchor="middle" x="915" y="-147" font-family="Helvetica,sans-Serif" font-size="10.00">src/modules/smtp/SMTPConfig.hpp</text>
</a>
</g>
</g>
<!-- Node1&#45;&gt;Node10 -->
<g id="edge10" class="edge">
<title>Node1&#45;&gt;Node10</title>
<path fill="none" stroke="midnightblue" d="M756.79,-198.53C794.88,-186.96 852.79,-169.38 886.97,-159.01"/>
<polygon fill="midnightblue" stroke="midnightblue" points="755.63,-195.22 747.08,-201.48 757.67,-201.92 755.63,-195.22"/>
</g>
<!-- Node13 -->
<g id="node13" class="node">
<title>Node13</title>
<g id="a_node13"><a xlink:href="../../da/d9d/SMTPServerInfoSerializer_8hpp.html" target="_top" xlink:title=" ">
<polygon fill="white" stroke="black" points="1025.5,-134.5 1025.5,-164.5 1190.5,-164.5 1190.5,-134.5 1025.5,-134.5"/>
<text text-anchor="start" x="1033.5" y="-152.5" font-family="Helvetica,sans-Serif" font-size="10.00">src/modules/smtp/SMTPServer</text>
<text text-anchor="middle" x="1108" y="-141.5" font-family="Helvetica,sans-Serif" font-size="10.00">InfoSerializer.hpp</text>
</a>
</g>
</g>
<!-- Node1&#45;&gt;Node13 -->
<g id="edge13" class="edge">
<title>Node1&#45;&gt;Node13</title>
<path fill="none" stroke="midnightblue" d="M786.6,-199.95C847.01,-190.93 937.94,-177.27 1017,-165 1019.69,-164.58 1022.42,-164.16 1025.18,-163.73"/>
<polygon fill="midnightblue" stroke="midnightblue" points="785.8,-196.53 776.43,-201.47 786.83,-203.46 785.8,-196.53"/>
</g>
<!-- Node14 -->
<g id="node14" class="node">
<title>Node14</title>
<g id="a_node14"><a xlink:href="../../d6/d62/SMTPServiceImpl_8hpp.html" target="_top" xlink:title=" ">
<polygon fill="white" stroke="black" points="634,-134.5 634,-164.5 804,-164.5 804,-134.5 634,-134.5"/>
<text text-anchor="start" x="642" y="-152.5" font-family="Helvetica,sans-Serif" font-size="10.00">src/modules/smtp/SMTPService</text>
<text text-anchor="middle" x="719" y="-141.5" font-family="Helvetica,sans-Serif" font-size="10.00">Impl.hpp</text>
</a>
</g>
</g>
<!-- Node1&#45;&gt;Node14 -->
<g id="edge16" class="edge">
<title>Node1&#45;&gt;Node14</title>
<path fill="none" stroke="midnightblue" d="M719,-191.23C719,-182.59 719,-172.5 719,-164.52"/>
<polygon fill="midnightblue" stroke="midnightblue" points="715.5,-191.48 719,-201.48 722.5,-191.48 715.5,-191.48"/>
</g>
<!-- Node3 -->
<g id="node3" class="node">
<title>Node3</title>
<g id="a_node3"><a xlink:href="../../d3/dbb/smtp_2init_8cpp.html" target="_top" xlink:title=" ">
<polygon fill="white" stroke="black" points="373.5,-73 373.5,-92 516.5,-92 516.5,-73 373.5,-73"/>
<text text-anchor="middle" x="445" y="-80" font-family="Helvetica,sans-Serif" font-size="10.00">src/modules/smtp/init.cpp</text>
</a>
</g>
</g>
<!-- Node2&#45;&gt;Node3 -->
<g id="edge2" class="edge">
<title>Node2&#45;&gt;Node3</title>
<path fill="none" stroke="midnightblue" d="M501.95,-132.86C487.21,-120.08 466.91,-102.49 454.95,-92.13"/>
<polygon fill="midnightblue" stroke="midnightblue" points="500.04,-135.83 509.89,-139.73 504.62,-130.54 500.04,-135.83"/>
</g>
<!-- Node4 -->
<g id="node4" class="node">
<title>Node4</title>
<g id="a_node4"><a xlink:href="../../da/d6f/SMTPModule_8cpp.html" target="_top" xlink:title=" ">
<polygon fill="white" stroke="black" points="563,-6 563,-25 753,-25 753,-6 563,-6"/>
<text text-anchor="middle" x="658" y="-13" font-family="Helvetica,sans-Serif" font-size="10.00">src/modules/smtp/SMTPModule.cpp</text>
</a>
</g>
</g>
<!-- Node2&#45;&gt;Node4 -->
<g id="edge3" class="edge">
<title>Node2&#45;&gt;Node4</title>
<path fill="none" stroke="midnightblue" d="M526.27,-130.3C533.19,-112.38 545.82,-85.15 564,-67 583.8,-47.24 612.95,-33.22 633.52,-25.05"/>
<polygon fill="midnightblue" stroke="midnightblue" points="522.92,-129.26 522.78,-139.85 529.5,-131.66 522.92,-129.26"/>
</g>
<!-- Node5 -->
<g id="node5" class="node">
<title>Node5</title>
<g id="a_node5"><a xlink:href="../../d5/d82/SMTPServiceImpl_8cpp.html" target="_top" xlink:title=" ">
<polygon fill="white" stroke="black" points="573,-67.5 573,-97.5 743,-97.5 743,-67.5 573,-67.5"/>
<text text-anchor="start" x="581" y="-85.5" font-family="Helvetica,sans-Serif" font-size="10.00">src/modules/smtp/SMTPService</text>
<text text-anchor="middle" x="658" y="-74.5" font-family="Helvetica,sans-Serif" font-size="10.00">Impl.cpp</text>
</a>
</g>
</g>
<!-- Node2&#45;&gt;Node5 -->
<g id="edge4" class="edge">
<title>Node2&#45;&gt;Node5</title>
<path fill="none" stroke="midnightblue" d="M547.66,-135.47C570.99,-124.49 604.31,-108.79 628.22,-97.53"/>
<polygon fill="midnightblue" stroke="midnightblue" points="545.88,-132.44 538.33,-139.87 548.86,-138.77 545.88,-132.44"/>
</g>
<!-- Node7 -->
<g id="node7" class="node">
<title>Node7</title>
<g id="a_node7"><a xlink:href="../../db/dda/SMTPAudit_8cpp.html" target="_top" xlink:title=" ">
<polygon fill="white" stroke="black" points="176.5,-73 176.5,-92 355.5,-92 355.5,-73 176.5,-73"/>
<text text-anchor="middle" x="266" y="-80" font-family="Helvetica,sans-Serif" font-size="10.00">src/modules/smtp/SMTPAudit.cpp</text>
</a>
</g>
</g>
<!-- Node6&#45;&gt;Node7 -->
<g id="edge6" class="edge">
<title>Node6&#45;&gt;Node7</title>
<path fill="none" stroke="midnightblue" d="M266,-129.54C266,-117.17 266,-101.62 266,-92.13"/>
<polygon fill="midnightblue" stroke="midnightblue" points="262.5,-129.73 266,-139.73 269.5,-129.73 262.5,-129.73"/>
</g>
<!-- Node8 -->
<g id="node8" class="node">
<title>Node8</title>
<g id="a_node8"><a xlink:href="../../d6/dde/SMTPAuditSerializer_8hpp.html" target="_top" xlink:title=" ">
<polygon fill="white" stroke="black" points="0,-67.5 0,-97.5 158,-97.5 158,-67.5 0,-67.5"/>
<text text-anchor="start" x="8" y="-85.5" font-family="Helvetica,sans-Serif" font-size="10.00">src/modules/smtp/SMTPAudit</text>
<text text-anchor="middle" x="79" y="-74.5" font-family="Helvetica,sans-Serif" font-size="10.00">Serializer.hpp</text>
</a>
</g>
</g>
<!-- Node6&#45;&gt;Node8 -->
<g id="edge7" class="edge">
<title>Node6&#45;&gt;Node8</title>
<path fill="none" stroke="midnightblue" d="M231.45,-136.49C199.75,-125.47 152.77,-109.14 119.36,-97.53"/>
<polygon fill="midnightblue" stroke="midnightblue" points="230.57,-139.89 241.17,-139.87 232.87,-133.28 230.57,-139.89"/>
</g>
<!-- Node8&#45;&gt;Node4 -->
<g id="edge9" class="edge">
<title>Node8&#45;&gt;Node4</title>
<path fill="none" stroke="midnightblue" d="M168.41,-66.86C311.62,-47.95 466,-33.16 562.75,-24.57"/>
<polygon fill="midnightblue" stroke="midnightblue" points="167.57,-63.44 158.12,-68.23 168.49,-70.38 167.57,-63.44"/>
</g>
<!-- Node9 -->
<g id="node9" class="node">
<title>Node9</title>
<g id="a_node9"><a xlink:href="../../d5/d3e/SMTPAuditSerializer_8cpp.html" target="_top" xlink:title=" ">
<polygon fill="white" stroke="black" points="0,-0.5 0,-30.5 158,-30.5 158,-0.5 0,-0.5"/>
<text text-anchor="start" x="8" y="-18.5" font-family="Helvetica,sans-Serif" font-size="10.00">src/modules/smtp/SMTPAudit</text>
<text text-anchor="middle" x="79" y="-7.5" font-family="Helvetica,sans-Serif" font-size="10.00">Serializer.cpp</text>
</a>
</g>
</g>
<!-- Node8&#45;&gt;Node9 -->
<g id="edge8" class="edge">
<title>Node8&#45;&gt;Node9</title>
<path fill="none" stroke="midnightblue" d="M79,-57.11C79,-48.15 79,-38.32 79,-30.58"/>
<polygon fill="midnightblue" stroke="midnightblue" points="75.5,-57.4 79,-67.4 82.5,-57.4 75.5,-57.4"/>
</g>
<!-- Node11 -->
<g id="node11" class="node">
<title>Node11</title>
<g id="a_node11"><a xlink:href="../../d2/dc6/SMTPConfig_8cpp.html" target="_top" xlink:title=" ">
<polygon fill="white" stroke="black" points="798.5,-73 798.5,-92 983.5,-92 983.5,-73 798.5,-73"/>
<text text-anchor="middle" x="891" y="-80" font-family="Helvetica,sans-Serif" font-size="10.00">src/modules/smtp/SMTPConfig.cpp</text>
</a>
</g>
</g>
<!-- Node10&#45;&gt;Node11 -->
<g id="edge11" class="edge">
<title>Node10&#45;&gt;Node11</title>
<path fill="none" stroke="midnightblue" d="M908.28,-130.29C903.67,-117.81 897.76,-101.81 894.19,-92.13"/>
<polygon fill="midnightblue" stroke="midnightblue" points="905.02,-131.57 911.76,-139.73 911.58,-129.14 905.02,-131.57"/>
</g>
<!-- Node12 -->
<g id="node12" class="node">
<title>Node12</title>
<g id="a_node12"><a xlink:href="../../d2/d9a/SMTPServerInfoSerializer_8cpp.html" target="_top" xlink:title=" ">
<polygon fill="white" stroke="black" points="1001.5,-67.5 1001.5,-97.5 1166.5,-97.5 1166.5,-67.5 1001.5,-67.5"/>
<text text-anchor="start" x="1009.5" y="-85.5" font-family="Helvetica,sans-Serif" font-size="10.00">src/modules/smtp/SMTPServer</text>
<text text-anchor="middle" x="1084" y="-74.5" font-family="Helvetica,sans-Serif" font-size="10.00">InfoSerializer.cpp</text>
</a>
</g>
</g>
<!-- Node10&#45;&gt;Node12 -->
<g id="edge12" class="edge">
<title>Node10&#45;&gt;Node12</title>
<path fill="none" stroke="midnightblue" d="M946.97,-136.2C975.61,-125.19 1017.59,-109.04 1047.53,-97.53"/>
<polygon fill="midnightblue" stroke="midnightblue" points="945.52,-133.01 937.44,-139.87 948.03,-139.55 945.52,-133.01"/>
</g>
<!-- Node13&#45;&gt;Node4 -->
<g id="edge14" class="edge">
<title>Node13&#45;&gt;Node4</title>
<path fill="none" stroke="midnightblue" d="M1142.4,-128.99C1167.7,-112.24 1194.69,-87.6 1176,-67 1148.2,-36.36 895.11,-23.72 753.27,-19"/>
<polygon fill="midnightblue" stroke="midnightblue" points="1140.52,-126.04 1133.96,-134.36 1144.27,-131.95 1140.52,-126.04"/>
</g>
<!-- Node13&#45;&gt;Node12 -->
<g id="edge15" class="edge">
<title>Node13&#45;&gt;Node12</title>
<path fill="none" stroke="midnightblue" d="M1099.32,-124.99C1095.93,-115.8 1092.15,-105.58 1089.2,-97.58"/>
<polygon fill="midnightblue" stroke="midnightblue" points="1096.05,-126.23 1102.79,-134.4 1102.61,-123.8 1096.05,-126.23"/>
</g>
<!-- Node14&#45;&gt;Node4 -->
<g id="edge17" class="edge">
<title>Node14&#45;&gt;Node4</title>
<path fill="none" stroke="midnightblue" d="M738.92,-126.15C751.44,-109.27 763.27,-85.86 752,-67 739.07,-45.38 713.35,-32.48 692.08,-25.13"/>
<polygon fill="midnightblue" stroke="midnightblue" points="735.91,-124.32 732.43,-134.33 741.39,-128.68 735.91,-124.32"/>
</g>
<!-- Node14&#45;&gt;Node5 -->
<g id="edge18" class="edge">
<title>Node14&#45;&gt;Node5</title>
<path fill="none" stroke="midnightblue" d="M698.85,-127.02C689.76,-117.34 679.28,-106.17 671.21,-97.58"/>
<polygon fill="midnightblue" stroke="midnightblue" points="696.37,-129.5 705.76,-134.4 701.47,-124.71 696.37,-129.5"/>
</g>
</g>
</svg>
